<?xml version="1.0" encoding="utf-8" standalone="no"?>
<!DOCTYPE svg PUBLIC "-//W3C//DTD SVG 1.1//EN"
  "http://www.w3.org/Graphics/SVG/1.1/DTD/svg11.dtd">
<svg xmlns:xlink="http://www.w3.org/1999/xlink" width="460.8pt" height="345.6pt" viewBox="0 0 460.8 345.6" xmlns="http://www.w3.org/2000/svg" version="1.1">
 <metadata>
  <rdf:RDF xmlns:dc="http://purl.org/dc/elements/1.1/" xmlns:cc="http://creativecommons.org/ns#" xmlns:rdf="http://www.w3.org/1999/02/22-rdf-syntax-ns#">
   <cc:Work>
    <dc:type rdf:resource="http://purl.org/dc/dcmitype/StillImage"/>
    <dc:date>2025-08-26T20:28:01.929702</dc:date>
    <dc:format>image/svg+xml</dc:format>
    <dc:creator>
     <cc:Agent>
      <dc:title>Matplotlib v3.8.0, https://matplotlib.org/</dc:title>
     </cc:Agent>
    </dc:creator>
   </cc:Work>
  </rdf:RDF>
 </metadata>
 <defs>
  <style type="text/css">*{stroke-linejoin: round; stroke-linecap: butt}</style>
 </defs>
 <g id="figure_1">
  <g id="patch_1">
   <path d="M 0 345.6 
L 460.8 345.6 
L 460.8 0 
L 0 0 
z
" style="fill: #ffffff"/>
  </g>
  <g id="axes_1">
   <g id="patch_2">
    <path d="M 57.6 307.584 
L 414.72 307.584 
L 414.72 41.472 
L 57.6 41.472 
z
" style="fill: #ffffff"/>
   </g>
   <g id="matplotlib.axis_1">
    <g id="xtick_1">
     <g id="line2d_1">
      <defs>
       <path id="mab1added2a" d="M 0 0 
L 0 3.5 
" style="stroke: #000000; stroke-width: 0.8"/>
      </defs>
      <g>
       <use xlink:href="#mab1added2a" x="73.832727" y="307.584" style="stroke: #000000; stroke-width: 0.8"/>
      </g>
     </g>
     <g id="text_1">
      <!-- 0 -->
      <g transform="translate(70.015227 323.702125) scale(0.12 -0.12)">
       <defs>
        <path id="DejaVuSans-30" d="M 2034 4250 
Q 1547 4250 1301 3770 
Q 1056 3291 1056 2328 
Q 1056 1369 1301 889 
Q 1547 409 2034 409 
Q 2525 409 2770 889 
Q 3016 1369 3016 2328 
Q 3016 3291 2770 3770 
Q 2525 4250 2034 4250 
z
M 2034 4750 
Q 2819 4750 3233 4129 
Q 3647 3509 3647 2328 
Q 3647 1150 3233 529 
Q 2819 -91 2034 -91 
Q 1250 -91 836 529 
Q 422 1150 422 2328 
Q 422 3509 836 4129 
Q 1250 4750 2034 4750 
z
" transform="scale(0.015625)"/>
       </defs>
       <use xlink:href="#DejaVuSans-30"/>
      </g>
     </g>
    </g>
    <g id="xtick_2">
     <g id="line2d_2">
      <g>
       <use xlink:href="#mab1added2a" x="123.77958" y="307.584" style="stroke: #000000; stroke-width: 0.8"/>
      </g>
     </g>
     <g id="text_2">
      <!-- 2 -->
      <g transform="translate(119.96208 323.702125) scale(0.12 -0.12)">
       <defs>
        <path id="DejaVuSans-32" d="M 1228 531 
L 3431 531 
L 3431 0 
L 469 0 
L 469 531 
Q 828 903 1448 1529 
Q 2069 2156 2228 2338 
Q 2531 2678 2651 2914 
Q 2772 3150 2772 3378 
Q 2772 3750 2511 3984 
Q 2250 4219 1831 4219 
Q 1534 4219 1204 4116 
Q 875 4013 500 3803 
L 500 4441 
Q 881 4594 1212 4672 
Q 1544 4750 1819 4750 
Q 2544 4750 2975 4387 
Q 3406 4025 3406 3419 
Q 3406 3131 3298 2873 
Q 3191 2616 2906 2266 
Q 2828 2175 2409 1742 
Q 1991 1309 1228 531 
z
" transform="scale(0.015625)"/>
       </defs>
       <use xlink:href="#DejaVuSans-32"/>
      </g>
     </g>
    </g>
    <g id="xtick_3">
     <g id="line2d_3">
      <g>
       <use xlink:href="#mab1added2a" x="173.726434" y="307.584" style="stroke: #000000; stroke-width: 0.8"/>
      </g>
     </g>
     <g id="text_3">
      <!-- 4 -->
      <g transform="translate(169.908934 323.702125) scale(0.12 -0.12)">
       <defs>
        <path id="DejaVuSans-34" d="M 2419 4116 
L 825 1625 
L 2419 1625 
L 2419 4116 
z
M 2253 4666 
L 3047 4666 
L 3047 1625 
L 3713 1625 
L 3713 1100 
L 3047 1100 
L 3047 0 
L 2419 0 
L 2419 1100 
L 313 1100 
L 313 1709 
L 2253 4666 
z
" transform="scale(0.015625)"/>
       </defs>
       <use xlink:href="#DejaVuSans-34"/>
      </g>
     </g>
    </g>
    <g id="xtick_4">
     <g id="line2d_4">
      <g>
       <use xlink:href="#mab1added2a" x="223.673287" y="307.584" style="stroke: #000000; stroke-width: 0.8"/>
      </g>
     </g>
     <g id="text_4">
      <!-- 6 -->
      <g transform="translate(219.855787 323.702125) scale(0.12 -0.12)">
       <defs>
        <path id="DejaVuSans-36" d="M 2113 2584 
Q 1688 2584 1439 2293 
Q 1191 2003 1191 1497 
Q 1191 994 1439 701 
Q 1688 409 2113 409 
Q 2538 409 2786 701 
Q 3034 994 3034 1497 
Q 3034 2003 2786 2293 
Q 2538 2584 2113 2584 
z
M 3366 4563 
L 3366 3988 
Q 3128 4100 2886 4159 
Q 2644 4219 2406 4219 
Q 1781 4219 1451 3797 
Q 1122 3375 1075 2522 
Q 1259 2794 1537 2939 
Q 1816 3084 2150 3084 
Q 2853 3084 3261 2657 
Q 3669 2231 3669 1497 
Q 3669 778 3244 343 
Q 2819 -91 2113 -91 
Q 1303 -91 875 529 
Q 447 1150 447 2328 
Q 447 3434 972 4092 
Q 1497 4750 2381 4750 
Q 2619 4750 2861 4703 
Q 3103 4656 3366 4563 
z
" transform="scale(0.015625)"/>
       </defs>
       <use xlink:href="#DejaVuSans-36"/>
      </g>
     </g>
    </g>
    <g id="xtick_5">
     <g id="line2d_5">
      <g>
       <use xlink:href="#mab1added2a" x="273.62014" y="307.584" style="stroke: #000000; stroke-width: 0.8"/>
      </g>
     </g>
     <g id="text_5">
      <!-- 8 -->
      <g transform="translate(269.80264 323.702125) scale(0.12 -0.12)">
       <defs>
        <path id="DejaVuSans-38" d="M 2034 2216 
Q 1584 2216 1326 1975 
Q 1069 1734 1069 1313 
Q 1069 891 1326 650 
Q 1584 409 2034 409 
Q 2484 409 2743 651 
Q 3003 894 3003 1313 
Q 3003 1734 2745 1975 
Q 2488 2216 2034 2216 
z
M 1403 2484 
Q 997 2584 770 2862 
Q 544 3141 544 3541 
Q 544 4100 942 4425 
Q 1341 4750 2034 4750 
Q 2731 4750 3128 4425 
Q 3525 4100 3525 3541 
Q 3525 3141 3298 2862 
Q 3072 2584 2669 2484 
Q 3125 2378 3379 2068 
Q 3634 1759 3634 1313 
Q 3634 634 3220 271 
Q 2806 -91 2034 -91 
Q 1263 -91 848 271 
Q 434 634 434 1313 
Q 434 1759 690 2068 
Q 947 2378 1403 2484 
z
M 1172 3481 
Q 1172 3119 1398 2916 
Q 1625 2713 2034 2713 
Q 2441 2713 2670 2916 
Q 2900 3119 2900 3481 
Q 2900 3844 2670 4047 
Q 2441 4250 2034 4250 
Q 1625 4250 1398 4047 
Q 1172 3844 1172 3481 
z
" transform="scale(0.015625)"/>
       </defs>
       <use xlink:href="#DejaVuSans-38"/>
      </g>
     </g>
    </g>
    <g id="xtick_6">
     <g id="line2d_6">
      <g>
       <use xlink:href="#mab1added2a" x="323.566993" y="307.584" style="stroke: #000000; stroke-width: 0.8"/>
      </g>
     </g>
     <g id="text_6">
      <!-- 10 -->
      <g transform="translate(315.931993 323.702125) scale(0.12 -0.12)">
       <defs>
        <path id="DejaVuSans-31" d="M 794 531 
L 1825 531 
L 1825 4091 
L 703 3866 
L 703 4441 
L 1819 4666 
L 2450 4666 
L 2450 531 
L 3481 531 
L 3481 0 
L 794 0 
L 794 531 
z
" transform="scale(0.015625)"/>
       </defs>
       <use xlink:href="#DejaVuSans-31"/>
       <use xlink:href="#DejaVuSans-30" x="63.623047"/>
      </g>
     </g>
    </g>
    <g id="xtick_7">
     <g id="line2d_7">
      <g>
       <use xlink:href="#mab1added2a" x="373.513846" y="307.584" style="stroke: #000000; stroke-width: 0.8"/>
      </g>
     </g>
     <g id="text_7">
      <!-- 12 -->
      <g transform="translate(365.878846 323.702125) scale(0.12 -0.12)">
       <use xlink:href="#DejaVuSans-31"/>
       <use xlink:href="#DejaVuSans-32" x="63.623047"/>
      </g>
     </g>
    </g>
    <g id="text_8">
     <!-- Years -->
     <g transform="translate(216.371719 341.595406) scale(0.15 -0.15)">
      <defs>
       <path id="DejaVuSans-59" d="M -13 4666 
L 666 4666 
L 1959 2747 
L 3244 4666 
L 3922 4666 
L 2272 2222 
L 2272 0 
L 1638 0 
L 1638 2222 
L -13 4666 
z
" transform="scale(0.015625)"/>
       <path id="DejaVuSans-65" d="M 3597 1894 
L 3597 1613 
L 953 1613 
Q 991 1019 1311 708 
Q 1631 397 2203 397 
Q 2534 397 2845 478 
Q 3156 559 3463 722 
L 3463 178 
Q 3153 47 2828 -22 
Q 2503 -91 2169 -91 
Q 1331 -91 842 396 
Q 353 884 353 1716 
Q 353 2575 817 3079 
Q 1281 3584 2069 3584 
Q 2775 3584 3186 3129 
Q 3597 2675 3597 1894 
z
M 3022 2063 
Q 3016 2534 2758 2815 
Q 2500 3097 2075 3097 
Q 1594 3097 1305 2825 
Q 1016 2553 972 2059 
L 3022 2063 
z
" transform="scale(0.015625)"/>
       <path id="DejaVuSans-61" d="M 2194 1759 
Q 1497 1759 1228 1600 
Q 959 1441 959 1056 
Q 959 750 1161 570 
Q 1363 391 1709 391 
Q 2188 391 2477 730 
Q 2766 1069 2766 1631 
L 2766 1759 
L 2194 1759 
z
M 3341 1997 
L 3341 0 
L 2766 0 
L 2766 531 
Q 2569 213 2275 61 
Q 1981 -91 1556 -91 
Q 1019 -91 701 211 
Q 384 513 384 1019 
Q 384 1609 779 1909 
Q 1175 2209 1959 2209 
L 2766 2209 
L 2766 2266 
Q 2766 2663 2505 2880 
Q 2244 3097 1772 3097 
Q 1472 3097 1187 3025 
Q 903 2953 641 2809 
L 641 3341 
Q 956 3463 1253 3523 
Q 1550 3584 1831 3584 
Q 2591 3584 2966 3190 
Q 3341 2797 3341 1997 
z
" transform="scale(0.015625)"/>
       <path id="DejaVuSans-72" d="M 2631 2963 
Q 2534 3019 2420 3045 
Q 2306 3072 2169 3072 
Q 1681 3072 1420 2755 
Q 1159 2438 1159 1844 
L 1159 0 
L 581 0 
L 581 3500 
L 1159 3500 
L 1159 2956 
Q 1341 3275 1631 3429 
Q 1922 3584 2338 3584 
Q 2397 3584 2469 3576 
Q 2541 3569 2628 3553 
L 2631 2963 
z
" transform="scale(0.015625)"/>
       <path id="DejaVuSans-73" d="M 2834 3397 
L 2834 2853 
Q 2591 2978 2328 3040 
Q 2066 3103 1784 3103 
Q 1356 3103 1142 2972 
Q 928 2841 928 2578 
Q 928 2378 1081 2264 
Q 1234 2150 1697 2047 
L 1894 2003 
Q 2506 1872 2764 1633 
Q 3022 1394 3022 966 
Q 3022 478 2636 193 
Q 2250 -91 1575 -91 
Q 1294 -91 989 -36 
Q 684 19 347 128 
L 347 722 
Q 666 556 975 473 
Q 1284 391 1588 391 
Q 1994 391 2212 530 
Q 2431 669 2431 922 
Q 2431 1156 2273 1281 
Q 2116 1406 1581 1522 
L 1381 1569 
Q 847 1681 609 1914 
Q 372 2147 372 2553 
Q 372 3047 722 3315 
Q 1072 3584 1716 3584 
Q 2034 3584 2315 3537 
Q 2597 3491 2834 3397 
z
" transform="scale(0.015625)"/>
      </defs>
      <use xlink:href="#DejaVuSans-59"/>
      <use xlink:href="#DejaVuSans-65" x="47.833984"/>
      <use xlink:href="#DejaVuSans-61" x="109.357422"/>
      <use xlink:href="#DejaVuSans-72" x="170.636719"/>
      <use xlink:href="#DejaVuSans-73" x="211.75"/>
     </g>
    </g>
   </g>
   <g id="matplotlib.axis_2">
    <g id="ytick_1">
     <g id="line2d_8">
      <defs>
       <path id="m82dc74b9c8" d="M 0 0 
L -3.5 0 
" style="stroke: #000000; stroke-width: 0.8"/>
      </defs>
      <g>
       <use xlink:href="#m82dc74b9c8" x="57.6" y="281.260683" style="stroke: #000000; stroke-width: 0.8"/>
      </g>
     </g>
     <g id="text_9">
      <!-- 35.0 -->
      <g transform="translate(23.88125 285.819746) scale(0.12 -0.12)">
       <defs>
        <path id="DejaVuSans-33" d="M 2597 2516 
Q 3050 2419 3304 2112 
Q 3559 1806 3559 1356 
Q 3559 666 3084 287 
Q 2609 -91 1734 -91 
Q 1441 -91 1130 -33 
Q 819 25 488 141 
L 488 750 
Q 750 597 1062 519 
Q 1375 441 1716 441 
Q 2309 441 2620 675 
Q 2931 909 2931 1356 
Q 2931 1769 2642 2001 
Q 2353 2234 1838 2234 
L 1294 2234 
L 1294 2753 
L 1863 2753 
Q 2328 2753 2575 2939 
Q 2822 3125 2822 3475 
Q 2822 3834 2567 4026 
Q 2313 4219 1838 4219 
Q 1578 4219 1281 4162 
Q 984 4106 628 3988 
L 628 4550 
Q 988 4650 1302 4700 
Q 1616 4750 1894 4750 
Q 2613 4750 3031 4423 
Q 3450 4097 3450 3541 
Q 3450 3153 3228 2886 
Q 3006 2619 2597 2516 
z
" transform="scale(0.015625)"/>
        <path id="DejaVuSans-35" d="M 691 4666 
L 3169 4666 
L 3169 4134 
L 1269 4134 
L 1269 2991 
Q 1406 3038 1543 3061 
Q 1681 3084 1819 3084 
Q 2600 3084 3056 2656 
Q 3513 2228 3513 1497 
Q 3513 744 3044 326 
Q 2575 -91 1722 -91 
Q 1428 -91 1123 -41 
Q 819 9 494 109 
L 494 744 
Q 775 591 1075 516 
Q 1375 441 1709 441 
Q 2250 441 2565 725 
Q 2881 1009 2881 1497 
Q 2881 1984 2565 2268 
Q 2250 2553 1709 2553 
Q 1456 2553 1204 2497 
Q 953 2441 691 2322 
L 691 4666 
z
" transform="scale(0.015625)"/>
        <path id="DejaVuSans-2e" d="M 684 794 
L 1344 794 
L 1344 0 
L 684 0 
L 684 794 
z
" transform="scale(0.015625)"/>
       </defs>
       <use xlink:href="#DejaVuSans-33"/>
       <use xlink:href="#DejaVuSans-35" x="63.623047"/>
       <use xlink:href="#DejaVuSans-2e" x="127.246094"/>
       <use xlink:href="#DejaVuSans-30" x="159.033203"/>
      </g>
     </g>
    </g>
    <g id="ytick_2">
     <g id="line2d_9">
      <g>
       <use xlink:href="#m82dc74b9c8" x="57.6" y="249.414078" style="stroke: #000000; stroke-width: 0.8"/>
      </g>
     </g>
     <g id="text_10">
      <!-- 37.5 -->
      <g transform="translate(23.88125 253.973141) scale(0.12 -0.12)">
       <defs>
        <path id="DejaVuSans-37" d="M 525 4666 
L 3525 4666 
L 3525 4397 
L 1831 0 
L 1172 0 
L 2766 4134 
L 525 4134 
L 525 4666 
z
" transform="scale(0.015625)"/>
       </defs>
       <use xlink:href="#DejaVuSans-33"/>
       <use xlink:href="#DejaVuSans-37" x="63.623047"/>
       <use xlink:href="#DejaVuSans-2e" x="127.246094"/>
       <use xlink:href="#DejaVuSans-35" x="159.033203"/>
      </g>
     </g>
    </g>
    <g id="ytick_3">
     <g id="line2d_10">
      <g>
       <use xlink:href="#m82dc74b9c8" x="57.6" y="217.567474" style="stroke: #000000; stroke-width: 0.8"/>
      </g>
     </g>
     <g id="text_11">
      <!-- 40.0 -->
      <g transform="translate(23.88125 222.126536) scale(0.12 -0.12)">
       <use xlink:href="#DejaVuSans-34"/>
       <use xlink:href="#DejaVuSans-30" x="63.623047"/>
       <use xlink:href="#DejaVuSans-2e" x="127.246094"/>
       <use xlink:href="#DejaVuSans-30" x="159.033203"/>
      </g>
     </g>
    </g>
    <g id="ytick_4">
     <g id="line2d_11">
      <g>
       <use xlink:href="#m82dc74b9c8" x="57.6" y="185.720869" style="stroke: #000000; stroke-width: 0.8"/>
      </g>
     </g>
     <g id="text_12">
      <!-- 42.5 -->
      <g transform="translate(23.88125 190.279932) scale(0.12 -0.12)">
       <use xlink:href="#DejaVuSans-34"/>
       <use xlink:href="#DejaVuSans-32" x="63.623047"/>
       <use xlink:href="#DejaVuSans-2e" x="127.246094"/>
       <use xlink:href="#DejaVuSans-35" x="159.033203"/>
      </g>
     </g>
    </g>
    <g id="ytick_5">
     <g id="line2d_12">
      <g>
       <use xlink:href="#m82dc74b9c8" x="57.6" y="153.874265" style="stroke: #000000; stroke-width: 0.8"/>
      </g>
     </g>
     <g id="text_13">
      <!-- 45.0 -->
      <g transform="translate(23.88125 158.433327) scale(0.12 -0.12)">
       <use xlink:href="#DejaVuSans-34"/>
       <use xlink:href="#DejaVuSans-35" x="63.623047"/>
       <use xlink:href="#DejaVuSans-2e" x="127.246094"/>
       <use xlink:href="#DejaVuSans-30" x="159.033203"/>
      </g>
     </g>
    </g>
    <g id="ytick_6">
     <g id="line2d_13">
      <g>
       <use xlink:href="#m82dc74b9c8" x="57.6" y="122.02766" style="stroke: #000000; stroke-width: 0.8"/>
      </g>
     </g>
     <g id="text_14">
      <!-- 47.5 -->
      <g transform="translate(23.88125 126.586723) scale(0.12 -0.12)">
       <use xlink:href="#DejaVuSans-34"/>
       <use xlink:href="#DejaVuSans-37" x="63.623047"/>
       <use xlink:href="#DejaVuSans-2e" x="127.246094"/>
       <use xlink:href="#DejaVuSans-35" x="159.033203"/>
      </g>
     </g>
    </g>
    <g id="ytick_7">
     <g id="line2d_14">
      <g>
       <use xlink:href="#m82dc74b9c8" x="57.6" y="90.181056" style="stroke: #000000; stroke-width: 0.8"/>
      </g>
     </g>
     <g id="text_15">
      <!-- 50.0 -->
      <g transform="translate(23.88125 94.740118) scale(0.12 -0.12)">
       <use xlink:href="#DejaVuSans-35"/>
       <use xlink:href="#DejaVuSans-30" x="63.623047"/>
       <use xlink:href="#DejaVuSans-2e" x="127.246094"/>
       <use xlink:href="#DejaVuSans-30" x="159.033203"/>
      </g>
     </g>
    </g>
    <g id="ytick_8">
     <g id="line2d_15">
      <g>
       <use xlink:href="#m82dc74b9c8" x="57.6" y="58.334451" style="stroke: #000000; stroke-width: 0.8"/>
      </g>
     </g>
     <g id="text_16">
      <!-- 52.5 -->
      <g transform="translate(23.88125 62.893514) scale(0.12 -0.12)">
       <use xlink:href="#DejaVuSans-35"/>
       <use xlink:href="#DejaVuSans-32" x="63.623047"/>
       <use xlink:href="#DejaVuSans-2e" x="127.246094"/>
       <use xlink:href="#DejaVuSans-35" x="159.033203"/>
      </g>
     </g>
    </g>
    <g id="text_17">
     <!-- Total coral cover (%) -->
     <g transform="translate(16.761719 251.497922) rotate(-90) scale(0.15 -0.15)">
      <defs>
       <path id="DejaVuSans-54" d="M -19 4666 
L 3928 4666 
L 3928 4134 
L 2272 4134 
L 2272 0 
L 1638 0 
L 1638 4134 
L -19 4134 
L -19 4666 
z
" transform="scale(0.015625)"/>
       <path id="DejaVuSans-6f" d="M 1959 3097 
Q 1497 3097 1228 2736 
Q 959 2375 959 1747 
Q 959 1119 1226 758 
Q 1494 397 1959 397 
Q 2419 397 2687 759 
Q 2956 1122 2956 1747 
Q 2956 2369 2687 2733 
Q 2419 3097 1959 3097 
z
M 1959 3584 
Q 2709 3584 3137 3096 
Q 3566 2609 3566 1747 
Q 3566 888 3137 398 
Q 2709 -91 1959 -91 
Q 1206 -91 779 398 
Q 353 888 353 1747 
Q 353 2609 779 3096 
Q 1206 3584 1959 3584 
z
" transform="scale(0.015625)"/>
       <path id="DejaVuSans-74" d="M 1172 4494 
L 1172 3500 
L 2356 3500 
L 2356 3053 
L 1172 3053 
L 1172 1153 
Q 1172 725 1289 603 
Q 1406 481 1766 481 
L 2356 481 
L 2356 0 
L 1766 0 
Q 1100 0 847 248 
Q 594 497 594 1153 
L 594 3053 
L 172 3053 
L 172 3500 
L 594 3500 
L 594 4494 
L 1172 4494 
z
" transform="scale(0.015625)"/>
       <path id="DejaVuSans-6c" d="M 603 4863 
L 1178 4863 
L 1178 0 
L 603 0 
L 603 4863 
z
" transform="scale(0.015625)"/>
       <path id="DejaVuSans-20" transform="scale(0.015625)"/>
       <path id="DejaVuSans-63" d="M 3122 3366 
L 3122 2828 
Q 2878 2963 2633 3030 
Q 2388 3097 2138 3097 
Q 1578 3097 1268 2742 
Q 959 2388 959 1747 
Q 959 1106 1268 751 
Q 1578 397 2138 397 
Q 2388 397 2633 464 
Q 2878 531 3122 666 
L 3122 134 
Q 2881 22 2623 -34 
Q 2366 -91 2075 -91 
Q 1284 -91 818 406 
Q 353 903 353 1747 
Q 353 2603 823 3093 
Q 1294 3584 2113 3584 
Q 2378 3584 2631 3529 
Q 2884 3475 3122 3366 
z
" transform="scale(0.015625)"/>
       <path id="DejaVuSans-76" d="M 191 3500 
L 800 3500 
L 1894 563 
L 2988 3500 
L 3597 3500 
L 2284 0 
L 1503 0 
L 191 3500 
z
" transform="scale(0.015625)"/>
       <path id="DejaVuSans-28" d="M 1984 4856 
Q 1566 4138 1362 3434 
Q 1159 2731 1159 2009 
Q 1159 1288 1364 580 
Q 1569 -128 1984 -844 
L 1484 -844 
Q 1016 -109 783 600 
Q 550 1309 550 2009 
Q 550 2706 781 3412 
Q 1013 4119 1484 4856 
L 1984 4856 
z
" transform="scale(0.015625)"/>
       <path id="DejaVuSans-25" d="M 4653 2053 
Q 4381 2053 4226 1822 
Q 4072 1591 4072 1178 
Q 4072 772 4226 539 
Q 4381 306 4653 306 
Q 4919 306 5073 539 
Q 5228 772 5228 1178 
Q 5228 1588 5073 1820 
Q 4919 2053 4653 2053 
z
M 4653 2450 
Q 5147 2450 5437 2106 
Q 5728 1763 5728 1178 
Q 5728 594 5436 251 
Q 5144 -91 4653 -91 
Q 4153 -91 3862 251 
Q 3572 594 3572 1178 
Q 3572 1766 3864 2108 
Q 4156 2450 4653 2450 
z
M 1428 4353 
Q 1159 4353 1004 4120 
Q 850 3888 850 3481 
Q 850 3069 1003 2837 
Q 1156 2606 1428 2606 
Q 1700 2606 1854 2837 
Q 2009 3069 2009 3481 
Q 2009 3884 1853 4118 
Q 1697 4353 1428 4353 
z
M 4250 4750 
L 4750 4750 
L 1831 -91 
L 1331 -91 
L 4250 4750 
z
M 1428 4750 
Q 1922 4750 2215 4408 
Q 2509 4066 2509 3481 
Q 2509 2891 2217 2550 
Q 1925 2209 1428 2209 
Q 931 2209 642 2551 
Q 353 2894 353 3481 
Q 353 4063 643 4406 
Q 934 4750 1428 4750 
z
" transform="scale(0.015625)"/>
       <path id="DejaVuSans-29" d="M 513 4856 
L 1013 4856 
Q 1481 4119 1714 3412 
Q 1947 2706 1947 2009 
Q 1947 1309 1714 600 
Q 1481 -109 1013 -844 
L 513 -844 
Q 928 -128 1133 580 
Q 1338 1288 1338 2009 
Q 1338 2731 1133 3434 
Q 928 4138 513 4856 
z
" transform="scale(0.015625)"/>
      </defs>
      <use xlink:href="#DejaVuSans-54"/>
      <use xlink:href="#DejaVuSans-6f" x="44.083984"/>
      <use xlink:href="#DejaVuSans-74" x="105.265625"/>
      <use xlink:href="#DejaVuSans-61" x="144.474609"/>
      <use xlink:href="#DejaVuSans-6c" x="205.753906"/>
      <use xlink:href="#DejaVuSans-20" x="233.537109"/>
      <use xlink:href="#DejaVuSans-63" x="265.324219"/>
      <use xlink:href="#DejaVuSans-6f" x="320.304688"/>
      <use xlink:href="#DejaVuSans-72" x="381.486328"/>
      <use xlink:href="#DejaVuSans-61" x="422.599609"/>
      <use xlink:href="#DejaVuSans-6c" x="483.878906"/>
      <use xlink:href="#DejaVuSans-20" x="511.662109"/>
      <use xlink:href="#DejaVuSans-63" x="543.449219"/>
      <use xlink:href="#DejaVuSans-6f" x="598.429688"/>
      <use xlink:href="#DejaVuSans-76" x="659.611328"/>
      <use xlink:href="#DejaVuSans-65" x="718.791016"/>
      <use xlink:href="#DejaVuSans-72" x="780.314453"/>
      <use xlink:href="#DejaVuSans-20" x="821.427734"/>
      <use xlink:href="#DejaVuSans-28" x="853.214844"/>
      <use xlink:href="#DejaVuSans-25" x="892.228516"/>
      <use xlink:href="#DejaVuSans-29" x="987.248047"/>
     </g>
    </g>
   </g>
   <g id="line2d_16">
    <path d="M 73.832727 179.351548 
L 98.806154 161.230332 
L 123.77958 147.314988 
L 148.753007 127.313238 
L 173.726434 113.97777 
L 198.69986 185.281382 
L 223.673287 162.83813 
L 248.646713 246.487723 
L 273.62014 254.239024 
L 298.593566 230.169596 
L 323.566993 194.293504 
L 348.54042 163.064066 
L 373.513846 130.880785 
L 398.487273 100.799034 
" clip-path="url(#p90203f003d)" style="fill: none; stroke-dasharray: 3.7,1.6; stroke-dashoffset: 0; stroke: #1f77b4"/>
   </g>
   <g id="line2d_17">
    <path d="M 73.832727 179.351548 
L 98.806154 175.667786 
L 123.77958 169.53173 
L 148.753007 156.042752 
L 173.726434 144.358126 
L 198.69986 217.191323 
L 223.673287 194.239755 
L 248.646713 275.995442 
L 273.62014 285.142427 
L 298.593566 252.779808 
L 323.566993 220.290627 
L 348.54042 190.07306 
L 373.513846 155.316892 
L 398.487273 127.227993 
" clip-path="url(#p90203f003d)" style="fill: none; stroke-dasharray: 3.7,1.6; stroke-dashoffset: 0; stroke: #ff7f0e"/>
   </g>
   <g id="line2d_18">
    <path d="M 73.832727 179.351548 
L 98.806154 161.425803 
L 123.77958 147.104084 
L 148.753007 133.963128 
L 173.726434 113.68045 
L 198.69986 183.951853 
L 223.673287 160.62435 
L 248.646713 244.620807 
L 273.62014 251.520441 
L 298.593566 217.257515 
L 323.566993 175.494411 
L 348.54042 141.956091 
L 373.513846 109.618859 
L 398.487273 77.594031 
" clip-path="url(#p90203f003d)" style="fill: none; stroke-dasharray: 3.7,1.6; stroke-dashoffset: 0; stroke: #2ca02c"/>
   </g>
   <g id="line2d_19">
    <path d="M 73.832727 179.351548 
L 98.806154 160.98246 
L 123.77958 149.701973 
L 148.753007 137.40095 
L 173.726434 113.722355 
L 198.69986 177.34099 
L 223.673287 153.08755 
L 248.646713 238.47767 
L 273.62014 244.316158 
L 298.593566 209.8854 
L 323.566993 171.874761 
L 348.54042 138.707998 
L 373.513846 104.590019 
L 398.487273 68.741315 
" clip-path="url(#p90203f003d)" style="fill: none; stroke-dasharray: 3.7,1.6; stroke-dashoffset: 0; stroke: #d62728"/>
   </g>
   <g id="line2d_20">
    <path d="M 73.832727 179.351548 
L 98.806154 164.139508 
L 123.77958 156.002615 
L 148.753007 144.646912 
L 173.726434 132.197675 
L 198.69986 204.781712 
L 223.673287 174.085753 
L 248.646713 258.144063 
L 273.62014 268.382584 
L 298.593566 247.191318 
L 323.566993 212.214542 
L 348.54042 180.420827 
L 373.513846 152.229378 
L 398.487273 121.08148 
" clip-path="url(#p90203f003d)" style="fill: none; stroke-dasharray: 3.7,1.6; stroke-dashoffset: 0; stroke: #9467bd"/>
   </g>
   <g id="line2d_21">
    <path d="M 73.832727 179.351548 
L 98.806154 166.681255 
L 123.77958 154.342793 
L 148.753007 136.161698 
L 173.726434 113.971765 
L 198.69986 181.661774 
L 223.673287 155.519807 
L 248.646713 240.22015 
L 273.62014 247.26773 
L 298.593566 218.513005 
L 323.566993 186.726794 
L 348.54042 150.353959 
L 373.513846 121.003942 
L 398.487273 86.368959 
" clip-path="url(#p90203f003d)" style="fill: none; stroke-dasharray: 3.7,1.6; stroke-dashoffset: 0; stroke: #8c564b"/>
   </g>
   <g id="line2d_22">
    <path d="M 73.832727 179.351548 
L 98.806154 168.442493 
L 123.77958 150.741936 
L 148.753007 131.436032 
L 173.726434 107.090694 
L 198.69986 180.443229 
L 223.673287 160.159292 
L 248.646713 243.988873 
L 273.62014 252.592466 
L 298.593566 226.580586 
L 323.566993 199.712162 
L 348.54042 169.998592 
L 373.513846 134.644131 
L 398.487273 99.602072 
" clip-path="url(#p90203f003d)" style="fill: none; stroke-dasharray: 3.7,1.6; stroke-dashoffset: 0; stroke: #e377c2"/>
   </g>
   <g id="line2d_23">
    <path d="M 73.832727 179.351548 
L 98.806154 163.417654 
L 123.77958 146.085065 
L 148.753007 133.4656 
L 173.726434 114.54409 
L 198.69986 180.798787 
L 223.673287 156.311906 
L 248.646713 240.146488 
L 273.62014 244.687215 
L 298.593566 213.122862 
L 323.566993 178.478124 
L 348.54042 136.246916 
L 373.513846 102.784633 
L 398.487273 71.713523 
" clip-path="url(#p90203f003d)" style="fill: none; stroke-dasharray: 3.7,1.6; stroke-dashoffset: 0; stroke: #7f7f7f"/>
   </g>
   <g id="line2d_24">
    <path d="M 73.832727 179.351548 
L 98.806154 165.424138 
L 123.77958 140.752962 
L 148.753007 125.633815 
L 173.726434 115.120053 
L 198.69986 183.021089 
L 223.673287 165.232619 
L 248.646713 249.757451 
L 273.62014 258.714468 
L 298.593566 231.865928 
L 323.566993 204.373572 
L 348.54042 175.936753 
L 373.513846 146.641138 
L 398.487273 114.610682 
" clip-path="url(#p90203f003d)" style="fill: none; stroke-dasharray: 3.7,1.6; stroke-dashoffset: 0; stroke: #bcbd22"/>
   </g>
   <g id="line2d_25">
    <path d="M 73.832727 179.351548 
L 98.806154 168.24227 
L 123.77958 157.457157 
L 148.753007 144.604603 
L 173.726434 119.315114 
L 198.69986 193.193453 
L 223.673287 167.03846 
L 248.646713 250.207422 
L 273.62014 257.059907 
L 298.593566 229.641837 
L 323.566993 198.868748 
L 348.54042 164.957995 
L 373.513846 131.358394 
L 398.487273 97.654742 
" clip-path="url(#p90203f003d)" style="fill: none; stroke-dasharray: 3.7,1.6; stroke-dashoffset: 0; stroke: #17becf"/>
   </g>
   <g id="line2d_26">
    <path d="M 73.832727 179.351548 
L 98.806154 164.062971 
L 123.77958 153.592578 
L 148.753007 138.686829 
L 173.726434 126.265659 
L 198.69986 200.269988 
L 223.673287 178.226022 
L 248.646713 261.497333 
L 273.62014 269.04791 
L 298.593566 244.09655 
L 323.566993 210.412784 
L 348.54042 176.827315 
L 373.513846 145.393652 
L 398.487273 112.989387 
" clip-path="url(#p90203f003d)" style="fill: none; stroke-dasharray: 3.7,1.6; stroke-dashoffset: 0; stroke: #1f77b4"/>
   </g>
   <g id="line2d_27">
    <path d="M 73.832727 179.351548 
L 98.806154 165.022691 
L 123.77958 153.020083 
L 148.753007 141.47367 
L 173.726434 119.079804 
L 198.69986 197.219554 
L 223.673287 178.707007 
L 248.646713 262.162534 
L 273.62014 270.405326 
L 298.593566 247.275109 
L 323.566993 220.262864 
L 348.54042 185.79121 
L 373.513846 155.856532 
L 398.487273 117.738465 
" clip-path="url(#p90203f003d)" style="fill: none; stroke-dasharray: 3.7,1.6; stroke-dashoffset: 0; stroke: #ff7f0e"/>
   </g>
   <g id="line2d_28">
    <path d="M 73.832727 179.351548 
L 98.806154 166.487284 
L 123.77958 152.29334 
L 148.753007 126.243735 
L 173.726434 104.28382 
L 198.69986 178.489698 
L 223.673287 151.875389 
L 248.646713 237.097368 
L 273.62014 242.598816 
L 298.593566 217.671968 
L 323.566993 187.365858 
L 348.54042 146.484186 
L 373.513846 117.141673 
L 398.487273 86.799045 
" clip-path="url(#p90203f003d)" style="fill: none; stroke-dasharray: 3.7,1.6; stroke-dashoffset: 0; stroke: #2ca02c"/>
   </g>
   <g id="line2d_29">
    <path d="M 73.832727 179.351548 
L 98.806154 175.011339 
L 123.77958 165.653128 
L 148.753007 151.842148 
L 173.726434 136.523206 
L 198.69986 212.852583 
L 223.673287 190.186276 
L 248.646713 273.026861 
L 273.62014 282.741 
L 298.593566 253.914865 
L 323.566993 222.034982 
L 348.54042 186.243807 
L 373.513846 149.471651 
L 398.487273 118.177931 
" clip-path="url(#p90203f003d)" style="fill: none; stroke-dasharray: 3.7,1.6; stroke-dashoffset: 0; stroke: #d62728"/>
   </g>
   <g id="line2d_30">
    <path d="M 73.832727 179.351548 
L 98.806154 170.694347 
L 123.77958 160.976483 
L 148.753007 148.183615 
L 173.726434 133.267912 
L 198.69986 195.563868 
L 223.673287 177.400495 
L 248.646713 260.855893 
L 273.62014 270.629561 
L 298.593566 240.419872 
L 323.566993 211.563598 
L 348.54042 180.813395 
L 373.513846 148.025692 
L 398.487273 117.52186 
" clip-path="url(#p90203f003d)" style="fill: none; stroke-dasharray: 3.7,1.6; stroke-dashoffset: 0; stroke: #9467bd"/>
   </g>
   <g id="line2d_31">
    <path d="M 73.832727 179.351548 
L 98.806154 160.366033 
L 123.77958 144.419794 
L 148.753007 130.738616 
L 173.726434 114.44487 
L 198.69986 189.725923 
L 223.673287 167.825422 
L 248.646713 251.687147 
L 273.62014 260.829005 
L 298.593566 234.118783 
L 323.566993 206.576778 
L 348.54042 171.604254 
L 373.513846 145.520214 
L 398.487273 114.003384 
" clip-path="url(#p90203f003d)" style="fill: none; stroke-dasharray: 3.7,1.6; stroke-dashoffset: 0; stroke: #8c564b"/>
   </g>
   <g id="line2d_32">
    <path d="M 73.832727 179.351548 
L 98.806154 164.434153 
L 123.77958 157.659225 
L 148.753007 145.113955 
L 173.726434 135.605459 
L 198.69986 211.151546 
L 223.673287 188.814178 
L 248.646713 272.496851 
L 273.62014 284.468722 
L 298.593566 254.740019 
L 323.566993 224.561471 
L 348.54042 195.649419 
L 373.513846 163.842448 
L 398.487273 139.961737 
" clip-path="url(#p90203f003d)" style="fill: none; stroke-dasharray: 3.7,1.6; stroke-dashoffset: 0; stroke: #e377c2"/>
   </g>
   <g id="line2d_33">
    <path d="M 73.832727 179.351548 
L 98.806154 169.545159 
L 123.77958 160.728916 
L 148.753007 149.484537 
L 173.726434 139.977739 
L 198.69986 218.804183 
L 223.673287 200.237028 
L 248.646713 283.012508 
L 273.62014 293.25578 
L 298.593566 264.663885 
L 323.566993 234.694065 
L 348.54042 205.533891 
L 373.513846 170.148165 
L 398.487273 140.769008 
" clip-path="url(#p90203f003d)" style="fill: none; stroke-dasharray: 3.7,1.6; stroke-dashoffset: 0; stroke: #7f7f7f"/>
   </g>
   <g id="line2d_34">
    <path d="M 73.832727 179.351548 
L 98.806154 165.673886 
L 123.77958 149.298211 
L 148.753007 129.577347 
L 173.726434 109.306705 
L 198.69986 181.706899 
L 223.673287 147.643616 
L 248.646713 233.222593 
L 273.62014 239.636613 
L 298.593566 207.378546 
L 323.566993 173.54408 
L 348.54042 137.704381 
L 373.513846 110.30232 
L 398.487273 80.019595 
" clip-path="url(#p90203f003d)" style="fill: none; stroke-dasharray: 3.7,1.6; stroke-dashoffset: 0; stroke: #bcbd22"/>
   </g>
   <g id="line2d_35">
    <path d="M 73.832727 179.351548 
L 98.806154 170.265262 
L 123.77958 153.298082 
L 148.753007 128.837109 
L 173.726434 114.687083 
L 198.69986 192.943607 
L 223.673287 170.461903 
L 248.646713 254.664732 
L 273.62014 264.535197 
L 298.593566 236.444923 
L 323.566993 209.054117 
L 348.54042 179.299777 
L 373.513846 146.617752 
L 398.487273 120.395269 
" clip-path="url(#p90203f003d)" style="fill: none; stroke-dasharray: 3.7,1.6; stroke-dashoffset: 0; stroke: #17becf"/>
   </g>
   <g id="line2d_36">
    <path d="M 73.832727 179.351548 
L 98.806154 168.85332 
L 123.77958 147.856788 
L 148.753007 136.984839 
L 173.726434 128.210846 
L 198.69986 202.65419 
L 223.673287 181.917567 
L 248.646713 265.328461 
L 273.62014 274.101138 
L 298.593566 252.749918 
L 323.566993 223.194426 
L 348.54042 199.57622 
L 373.513846 172.790085 
L 398.487273 149.039189 
" clip-path="url(#p90203f003d)" style="fill: none; stroke-dasharray: 3.7,1.6; stroke-dashoffset: 0; stroke: #1f77b4"/>
   </g>
   <g id="line2d_37">
    <path d="M 73.832727 179.351548 
L 98.806154 169.208494 
L 123.77958 160.101448 
L 148.753007 145.978599 
L 173.726434 122.664168 
L 198.69986 192.908376 
L 223.673287 164.813713 
L 248.646713 248.106642 
L 273.62014 254.891093 
L 298.593566 227.44476 
L 323.566993 195.50885 
L 348.54042 162.913617 
L 373.513846 133.088118 
L 398.487273 105.923547 
" clip-path="url(#p90203f003d)" style="fill: none; stroke-dasharray: 3.7,1.6; stroke-dashoffset: 0; stroke: #ff7f0e"/>
   </g>
   <g id="line2d_38">
    <path d="M 73.832727 179.351548 
L 98.806154 173.768355 
L 123.77958 166.974232 
L 148.753007 147.087671 
L 173.726434 137.475908 
L 198.69986 214.768535 
L 223.673287 200.129911 
L 248.646713 283.536139 
L 273.62014 295.488 
L 298.593566 277.9998 
L 323.566993 255.321304 
L 348.54042 220.427444 
L 373.513846 182.572007 
L 398.487273 154.695337 
" clip-path="url(#p90203f003d)" style="fill: none; stroke-dasharray: 3.7,1.6; stroke-dashoffset: 0; stroke: #2ca02c"/>
   </g>
   <g id="line2d_39">
    <path d="M 73.832727 179.351548 
L 98.806154 173.967577 
L 123.77958 158.928984 
L 148.753007 145.861985 
L 173.726434 116.966251 
L 198.69986 185.55093 
L 223.673287 161.020884 
L 248.646713 243.848804 
L 273.62014 249.595247 
L 298.593566 218.529263 
L 323.566993 188.904987 
L 348.54042 155.93407 
L 373.513846 125.958747 
L 398.487273 97.3651 
" clip-path="url(#p90203f003d)" style="fill: none; stroke-dasharray: 3.7,1.6; stroke-dashoffset: 0; stroke: #d62728"/>
   </g>
   <g id="line2d_40">
    <path d="M 73.832727 179.351548 
L 98.806154 166.148743 
L 123.77958 151.383358 
L 148.753007 134.986884 
L 173.726434 116.325646 
L 198.69986 179.348498 
L 223.673287 148.506178 
L 248.646713 233.511485 
L 273.62014 238.064593 
L 298.593566 204.788651 
L 323.566993 169.953569 
L 348.54042 131.687806 
L 373.513846 96.901373 
L 398.487273 66.438186 
" clip-path="url(#p90203f003d)" style="fill: none; stroke-dasharray: 3.7,1.6; stroke-dashoffset: 0; stroke: #9467bd"/>
   </g>
   <g id="line2d_41">
    <path d="M 73.832727 179.351548 
L 98.806154 166.859467 
L 123.77958 148.894074 
L 148.753007 131.004191 
L 173.726434 117.308182 
L 198.69986 190.074347 
L 223.673287 161.634823 
L 248.646713 245.148191 
L 273.62014 252.348597 
L 298.593566 226.941138 
L 323.566993 186.414891 
L 348.54042 142.418693 
L 373.513846 107.552221 
L 398.487273 80.353759 
" clip-path="url(#p90203f003d)" style="fill: none; stroke-dasharray: 3.7,1.6; stroke-dashoffset: 0; stroke: #8c564b"/>
   </g>
   <g id="line2d_42">
    <path d="M 73.832727 179.351548 
L 98.806154 169.759639 
L 123.77958 159.580546 
L 148.753007 134.113521 
L 173.726434 116.54351 
L 198.69986 186.016354 
L 223.673287 162.457854 
L 248.646713 245.813142 
L 273.62014 252.378111 
L 298.593566 222.810363 
L 323.566993 181.39593 
L 348.54042 146.966048 
L 373.513846 113.478127 
L 398.487273 76.767751 
" clip-path="url(#p90203f003d)" style="fill: none; stroke-dasharray: 3.7,1.6; stroke-dashoffset: 0; stroke: #e377c2"/>
   </g>
   <g id="line2d_43">
    <path d="M 73.832727 179.351548 
L 98.806154 168.767653 
L 123.77958 157.220652 
L 148.753007 144.736957 
L 173.726434 123.611335 
L 198.69986 197.510627 
L 223.673287 174.429923 
L 248.646713 257.029392 
L 273.62014 265.113481 
L 298.593566 237.043967 
L 323.566993 194.985469 
L 348.54042 156.823506 
L 373.513846 118.129783 
L 398.487273 87.335682 
" clip-path="url(#p90203f003d)" style="fill: none; stroke-dasharray: 3.7,1.6; stroke-dashoffset: 0; stroke: #7f7f7f"/>
   </g>
   <g id="line2d_44">
    <path d="M 73.832727 179.351548 
L 98.806154 162.294228 
L 123.77958 147.564083 
L 148.753007 131.960639 
L 173.726434 112.762826 
L 198.69986 187.188122 
L 223.673287 161.921085 
L 248.646713 245.51337 
L 273.62014 253.836451 
L 298.593566 224.786582 
L 323.566993 190.465878 
L 348.54042 156.691191 
L 373.513846 127.785768 
L 398.487273 91.538618 
" clip-path="url(#p90203f003d)" style="fill: none; stroke-dasharray: 3.7,1.6; stroke-dashoffset: 0; stroke: #bcbd22"/>
   </g>
   <g id="line2d_45">
    <path d="M 73.832727 179.351548 
L 98.806154 166.210649 
L 123.77958 153.993496 
L 148.753007 138.80961 
L 173.726434 124.904807 
L 198.69986 194.41824 
L 223.673287 176.794424 
L 248.646713 260.219956 
L 273.62014 269.948852 
L 298.593566 243.602808 
L 323.566993 213.994165 
L 348.54042 177.588688 
L 373.513846 138.302925 
L 398.487273 102.683083 
" clip-path="url(#p90203f003d)" style="fill: none; stroke-dasharray: 3.7,1.6; stroke-dashoffset: 0; stroke: #17becf"/>
   </g>
   <g id="line2d_46">
    <path d="M 73.832727 179.351548 
L 98.806154 171.588411 
L 123.77958 162.963845 
L 148.753007 145.052362 
L 173.726434 128.834179 
L 198.69986 204.589351 
L 223.673287 185.529749 
L 248.646713 267.990642 
L 273.62014 276.568473 
L 298.593566 251.941897 
L 323.566993 224.865996 
L 348.54042 188.975897 
L 373.513846 157.401665 
L 398.487273 123.53881 
" clip-path="url(#p90203f003d)" style="fill: none; stroke-dasharray: 3.7,1.6; stroke-dashoffset: 0; stroke: #1f77b4"/>
   </g>
   <g id="line2d_47">
    <path d="M 73.832727 179.351548 
L 98.806154 166.337086 
L 123.77958 151.582031 
L 148.753007 124.630818 
L 173.726434 108.816566 
L 198.69986 188.188685 
L 223.673287 162.158768 
L 248.646713 246.735094 
L 273.62014 254.745272 
L 298.593566 227.900484 
L 323.566993 193.081285 
L 348.54042 160.707661 
L 373.513846 130.99234 
L 398.487273 105.211823 
" clip-path="url(#p90203f003d)" style="fill: none; stroke-dasharray: 3.7,1.6; stroke-dashoffset: 0; stroke: #ff7f0e"/>
   </g>
   <g id="line2d_48">
    <path d="M 73.832727 179.351548 
L 98.806154 164.279202 
L 123.77958 151.441717 
L 148.753007 139.369092 
L 173.726434 126.733158 
L 198.69986 203.282751 
L 223.673287 185.49881 
L 248.646713 267.597199 
L 273.62014 274.948679 
L 298.593566 249.477939 
L 323.566993 220.96996 
L 348.54042 187.227039 
L 373.513846 148.778686 
L 398.487273 114.826788 
" clip-path="url(#p90203f003d)" style="fill: none; stroke-dasharray: 3.7,1.6; stroke-dashoffset: 0; stroke: #2ca02c"/>
   </g>
   <g id="line2d_49">
    <path d="M 73.832727 179.351548 
L 98.806154 169.14884 
L 123.77958 155.408788 
L 148.753007 142.952121 
L 173.726434 132.659164 
L 198.69986 208.553634 
L 223.673287 181.635044 
L 248.646713 264.417265 
L 273.62014 271.473349 
L 298.593566 249.945418 
L 323.566993 216.854192 
L 348.54042 177.690613 
L 373.513846 141.646689 
L 398.487273 99.27066 
" clip-path="url(#p90203f003d)" style="fill: none; stroke-dasharray: 3.7,1.6; stroke-dashoffset: 0; stroke: #d62728"/>
   </g>
   <g id="line2d_50">
    <path d="M 73.832727 179.351548 
L 98.806154 163.287465 
L 123.77958 140.825145 
L 148.753007 124.995228 
L 173.726434 105.46218 
L 198.69986 169.087555 
L 223.673287 143.587874 
L 248.646713 229.341315 
L 273.62014 235.124901 
L 298.593566 209.883399 
L 323.566993 173.21692 
L 348.54042 141.942584 
L 373.513846 112.975755 
L 398.487273 87.455116 
" clip-path="url(#p90203f003d)" style="fill: none; stroke-dasharray: 3.7,1.6; stroke-dashoffset: 0; stroke: #9467bd"/>
   </g>
   <g id="line2d_51">
    <path d="M 73.832727 179.351548 
L 98.806154 168.022537 
L 123.77958 159.528356 
L 148.753007 143.484766 
L 173.726434 130.745982 
L 198.69986 200.667557 
L 223.673287 171.737073 
L 248.646713 255.007525 
L 273.62014 262.905148 
L 298.593566 236.955299 
L 323.566993 207.905304 
L 348.54042 180.578404 
L 373.513846 146.035716 
L 398.487273 113.861065 
" clip-path="url(#p90203f003d)" style="fill: none; stroke-dasharray: 3.7,1.6; stroke-dashoffset: 0; stroke: #8c564b"/>
   </g>
   <g id="line2d_52">
    <path d="M 73.832727 179.351548 
L 98.806154 162.178672 
L 123.77958 146.583007 
L 148.753007 134.488567 
L 173.726434 107.767312 
L 198.69986 180.458638 
L 223.673287 160.887365 
L 248.646713 245.121678 
L 273.62014 253.404114 
L 298.593566 227.258919 
L 323.566993 198.443915 
L 348.54042 171.498452 
L 373.513846 143.63679 
L 398.487273 114.489372 
" clip-path="url(#p90203f003d)" style="fill: none; stroke-dasharray: 3.7,1.6; stroke-dashoffset: 0; stroke: #e377c2"/>
   </g>
   <g id="line2d_53">
    <path d="M 73.832727 179.351548 
L 98.806154 160.875908 
L 123.77958 148.325076 
L 148.753007 131.552506 
L 173.726434 118.671435 
L 198.69986 184.359546 
L 223.673287 160.658456 
L 248.646713 244.823907 
L 273.62014 252.841964 
L 298.593566 227.691381 
L 323.566993 199.600107 
L 348.54042 164.77528 
L 373.513846 133.703919 
L 398.487273 108.766066 
" clip-path="url(#p90203f003d)" style="fill: none; stroke-dasharray: 3.7,1.6; stroke-dashoffset: 0; stroke: #7f7f7f"/>
   </g>
   <g id="line2d_54">
    <path d="M 73.832727 179.351548 
L 98.806154 165.737917 
L 123.77958 159.169034 
L 148.753007 145.942494 
L 173.726434 127.837253 
L 198.69986 201.75622 
L 223.673287 177.150668 
L 248.646713 259.772612 
L 273.62014 267.106083 
L 298.593566 238.872114 
L 323.566993 208.084267 
L 348.54042 178.943728 
L 373.513846 150.837946 
L 398.487273 114.907577 
" clip-path="url(#p90203f003d)" style="fill: none; stroke-dasharray: 3.7,1.6; stroke-dashoffset: 0; stroke: #bcbd22"/>
   </g>
   <g id="line2d_55">
    <path d="M 73.832727 179.351548 
L 98.806154 165.098854 
L 123.77958 151.839484 
L 148.753007 124.567825 
L 173.726434 98.884531 
L 198.69986 168.937283 
L 223.673287 145.17622 
L 248.646713 231.35993 
L 273.62014 236.800223 
L 298.593566 201.077206 
L 323.566993 158.508833 
L 348.54042 124.566939 
L 373.513846 87.64596 
L 398.487273 54.757833 
" clip-path="url(#p90203f003d)" style="fill: none; stroke-dasharray: 3.7,1.6; stroke-dashoffset: 0; stroke: #17becf"/>
   </g>
   <g id="line2d_56">
    <path d="M 73.832727 179.351548 
L 98.806154 167.909982 
L 123.77958 153.490175 
L 148.753007 143.243558 
L 173.726434 125.7657 
L 198.69986 194.351266 
L 223.673287 165.947661 
L 248.646713 249.838366 
L 273.62014 258.288884 
L 298.593566 232.014751 
L 323.566993 205.886939 
L 348.54042 170.981824 
L 373.513846 140.919082 
L 398.487273 107.400522 
" clip-path="url(#p90203f003d)" style="fill: none; stroke-dasharray: 3.7,1.6; stroke-dashoffset: 0; stroke: #1f77b4"/>
   </g>
   <g id="line2d_57">
    <path d="M 73.832727 179.351548 
L 98.806154 166.287937 
L 123.77958 154.916804 
L 148.753007 142.257511 
L 173.726434 125.19905 
L 198.69986 198.123096 
L 223.673287 178.698542 
L 248.646713 262.381016 
L 273.62014 270.445971 
L 298.593566 244.97323 
L 323.566993 219.586782 
L 348.54042 192.759502 
L 373.513846 151.739263 
L 398.487273 122.199528 
" clip-path="url(#p90203f003d)" style="fill: none; stroke-dasharray: 3.7,1.6; stroke-dashoffset: 0; stroke: #ff7f0e"/>
   </g>
   <g id="line2d_58">
    <path d="M 73.832727 179.351548 
L 98.806154 155.270534 
L 123.77958 142.898682 
L 148.753007 127.329946 
L 173.726434 106.250478 
L 198.69986 179.09439 
L 223.673287 159.767845 
L 248.646713 244.191972 
L 273.62014 252.556699 
L 298.593566 225.890123 
L 323.566993 193.010876 
L 348.54042 165.33593 
L 373.513846 130.924181 
L 398.487273 96.184021 
" clip-path="url(#p90203f003d)" style="fill: none; stroke-dasharray: 3.7,1.6; stroke-dashoffset: 0; stroke: #2ca02c"/>
   </g>
   <g id="line2d_59">
    <path d="M 73.832727 179.351548 
L 98.806154 170.296027 
L 123.77958 158.373312 
L 148.753007 149.992376 
L 173.726434 134.9016 
L 198.69986 205.094085 
L 223.673287 183.63395 
L 248.646713 266.601335 
L 273.62014 273.955066 
L 298.593566 250.644761 
L 323.566993 217.196485 
L 348.54042 187.289195 
L 373.513846 155.891174 
L 398.487273 124.387351 
" clip-path="url(#p90203f003d)" style="fill: none; stroke-dasharray: 3.7,1.6; stroke-dashoffset: 0; stroke: #d62728"/>
   </g>
   <g id="line2d_60">
    <path d="M 73.832727 179.351548 
L 98.806154 160.171688 
L 123.77958 147.463962 
L 148.753007 132.260051 
L 173.726434 117.455487 
L 198.69986 194.133877 
L 223.673287 157.875553 
L 248.646713 241.466386 
L 273.62014 248.00109 
L 298.593566 220.379546 
L 323.566993 182.836011 
L 348.54042 143.671057 
L 373.513846 110.634107 
L 398.487273 79.429806 
" clip-path="url(#p90203f003d)" style="fill: none; stroke-dasharray: 3.7,1.6; stroke-dashoffset: 0; stroke: #9467bd"/>
   </g>
   <g id="line2d_61">
    <path d="M 73.832727 179.351548 
L 98.806154 164.218797 
L 123.77958 154.050762 
L 148.753007 142.716503 
L 173.726434 131.809803 
L 198.69986 201.404271 
L 223.673287 175.858473 
L 248.646713 259.624915 
L 273.62014 269.05829 
L 298.593566 247.728331 
L 323.566993 221.38829 
L 348.54042 192.546523 
L 373.513846 153.214987 
L 398.487273 124.897226 
" clip-path="url(#p90203f003d)" style="fill: none; stroke-dasharray: 3.7,1.6; stroke-dashoffset: 0; stroke: #8c564b"/>
   </g>
   <g id="line2d_62">
    <path d="M 73.832727 179.351548 
L 98.806154 163.290217 
L 123.77958 147.041568 
L 148.753007 133.321418 
L 173.726434 119.040456 
L 198.69986 195.158187 
L 223.673287 174.933244 
L 248.646713 258.002869 
L 273.62014 265.125612 
L 298.593566 240.258793 
L 323.566993 211.895636 
L 348.54042 178.818917 
L 373.513846 145.642023 
L 398.487273 108.877996 
" clip-path="url(#p90203f003d)" style="fill: none; stroke-dasharray: 3.7,1.6; stroke-dashoffset: 0; stroke: #e377c2"/>
   </g>
   <g id="line2d_63">
    <path d="M 73.832727 179.351548 
L 98.806154 166.80394 
L 123.77958 155.349379 
L 148.753007 141.499988 
L 173.726434 125.745878 
L 198.69986 199.351048 
L 223.673287 179.672312 
L 248.646713 263.022706 
L 273.62014 270.914575 
L 298.593566 241.928862 
L 323.566993 205.333293 
L 348.54042 169.342645 
L 373.513846 131.201818 
L 398.487273 101.396827 
" clip-path="url(#p90203f003d)" style="fill: none; stroke-dasharray: 3.7,1.6; stroke-dashoffset: 0; stroke: #7f7f7f"/>
   </g>
   <g id="line2d_64">
    <path d="M 73.832727 179.351548 
L 98.806154 170.331545 
L 123.77958 161.275976 
L 148.753007 147.594095 
L 173.726434 129.153352 
L 198.69986 203.070634 
L 223.673287 180.192649 
L 248.646713 263.027333 
L 273.62014 271.030632 
L 298.593566 242.544539 
L 323.566993 211.882004 
L 348.54042 183.924795 
L 373.513846 153.983489 
L 398.487273 126.133457 
" clip-path="url(#p90203f003d)" style="fill: none; stroke-dasharray: 3.7,1.6; stroke-dashoffset: 0; stroke: #bcbd22"/>
   </g>
   <g id="line2d_65">
    <path d="M 73.832727 179.351548 
L 98.806154 167.154362 
L 123.77958 158.569241 
L 148.753007 148.098311 
L 173.726434 130.780752 
L 198.69986 201.330189 
L 223.673287 180.774342 
L 248.646713 264.070344 
L 273.62014 272.378668 
L 298.593566 248.405413 
L 323.566993 219.236735 
L 348.54042 191.808536 
L 373.513846 163.326445 
L 398.487273 123.305445 
" clip-path="url(#p90203f003d)" style="fill: none; stroke-dasharray: 3.7,1.6; stroke-dashoffset: 0; stroke: #17becf"/>
   </g>
   <g id="line2d_66">
    <path d="M 73.832727 179.351548 
L 98.806154 169.430978 
L 123.77958 159.953066 
L 148.753007 140.156848 
L 173.726434 126.219472 
L 198.69986 197.499831 
L 223.673287 163.454846 
L 248.646713 246.98134 
L 273.62014 255.217253 
L 298.593566 224.9778 
L 323.566993 194.808882 
L 348.54042 165.638829 
L 373.513846 139.491758 
L 398.487273 113.375076 
" clip-path="url(#p90203f003d)" style="fill: none; stroke-dasharray: 3.7,1.6; stroke-dashoffset: 0; stroke: #1f77b4"/>
   </g>
   <g id="line2d_67">
    <path d="M 73.832727 179.351548 
L 98.806154 170.167589 
L 123.77958 161.890946 
L 148.753007 142.476204 
L 173.726434 126.87033 
L 198.69986 196.043717 
L 223.673287 170.486238 
L 248.646713 253.71214 
L 273.62014 261.549608 
L 298.593566 236.297226 
L 323.566993 200.43289 
L 348.54042 170.501213 
L 373.513846 142.887423 
L 398.487273 104.29825 
" clip-path="url(#p90203f003d)" style="fill: none; stroke-dasharray: 3.7,1.6; stroke-dashoffset: 0; stroke: #ff7f0e"/>
   </g>
   <g id="line2d_68">
    <path d="M 73.832727 179.351548 
L 98.806154 162.245204 
L 123.77958 148.504432 
L 148.753007 129.852852 
L 173.726434 118.20299 
L 198.69986 187.915404 
L 223.673287 165.001901 
L 248.646713 248.703935 
L 273.62014 256.446106 
L 298.593566 224.690785 
L 323.566993 182.050376 
L 348.54042 153.682591 
L 373.513846 121.172025 
L 398.487273 94.578109 
" clip-path="url(#p90203f003d)" style="fill: none; stroke-dasharray: 3.7,1.6; stroke-dashoffset: 0; stroke: #2ca02c"/>
   </g>
   <g id="line2d_69">
    <path d="M 73.832727 179.351548 
L 98.806154 173.587516 
L 123.77958 159.456093 
L 148.753007 135.129681 
L 173.726434 121.751052 
L 198.69986 186.993076 
L 223.673287 166.680377 
L 248.646713 250.351617 
L 273.62014 258.103919 
L 298.593566 227.428752 
L 323.566993 199.312466 
L 348.54042 166.490746 
L 373.513846 132.375643 
L 398.487273 102.716724 
" clip-path="url(#p90203f003d)" style="fill: none; stroke-dasharray: 3.7,1.6; stroke-dashoffset: 0; stroke: #d62728"/>
   </g>
   <g id="line2d_70">
    <path d="M 73.832727 179.351548 
L 98.806154 171.298143 
L 123.77958 159.833762 
L 148.753007 149.267677 
L 173.726434 138.831468 
L 198.69986 201.761048 
L 223.673287 184.148635 
L 248.646713 266.217522 
L 273.62014 273.579882 
L 298.593566 250.501441 
L 323.566993 212.236178 
L 348.54042 170.685803 
L 373.513846 135.934763 
L 398.487273 100.686979 
" clip-path="url(#p90203f003d)" style="fill: none; stroke-dasharray: 3.7,1.6; stroke-dashoffset: 0; stroke: #9467bd"/>
   </g>
   <g id="line2d_71">
    <path d="M 73.832727 179.351548 
L 98.806154 165.793319 
L 123.77958 151.873942 
L 148.753007 135.625409 
L 173.726434 121.626004 
L 198.69986 194.438814 
L 223.673287 170.371406 
L 248.646713 252.537439 
L 273.62014 258.254493 
L 298.593566 228.052683 
L 323.566993 199.391129 
L 348.54042 168.555634 
L 373.513846 135.146752 
L 398.487273 98.171246 
" clip-path="url(#p90203f003d)" style="fill: none; stroke-dasharray: 3.7,1.6; stroke-dashoffset: 0; stroke: #8c564b"/>
   </g>
   <g id="line2d_72">
    <path d="M 73.832727 179.351548 
L 98.806154 171.611047 
L 123.77958 161.809898 
L 148.753007 149.939589 
L 173.726434 127.854765 
L 198.69986 193.846393 
L 223.673287 170.547948 
L 248.646713 253.665242 
L 273.62014 261.017598 
L 298.593566 234.091769 
L 323.566993 206.316775 
L 348.54042 173.786199 
L 373.513846 140.509882 
L 398.487273 108.087609 
" clip-path="url(#p90203f003d)" style="fill: none; stroke-dasharray: 3.7,1.6; stroke-dashoffset: 0; stroke: #e377c2"/>
   </g>
   <g id="line2d_73">
    <path d="M 73.832727 179.351548 
L 98.806154 169.379328 
L 123.77958 161.097016 
L 148.753007 143.759671 
L 173.726434 130.959688 
L 198.69986 207.355385 
L 223.673287 188.98566 
L 248.646713 271.607915 
L 273.62014 280.041301 
L 298.593566 249.478564 
L 323.566993 216.176485 
L 348.54042 184.32174 
L 373.513846 147.905883 
L 398.487273 118.347514 
" clip-path="url(#p90203f003d)" style="fill: none; stroke-dasharray: 3.7,1.6; stroke-dashoffset: 0; stroke: #7f7f7f"/>
   </g>
   <g id="line2d_74">
    <path d="M 73.832727 179.351548 
L 98.806154 164.858486 
L 123.77958 143.54423 
L 148.753007 133.150742 
L 173.726434 117.139883 
L 198.69986 183.233842 
L 223.673287 159.62112 
L 248.646713 243.375447 
L 273.62014 249.123765 
L 298.593566 209.43718 
L 323.566993 177.169983 
L 348.54042 143.062133 
L 373.513846 108.332354 
L 398.487273 79.852263 
" clip-path="url(#p90203f003d)" style="fill: none; stroke-dasharray: 3.7,1.6; stroke-dashoffset: 0; stroke: #bcbd22"/>
   </g>
   <g id="line2d_75">
    <path d="M 73.832727 179.351548 
L 98.806154 164.994928 
L 123.77958 147.569293 
L 148.753007 129.425969 
L 173.726434 117.160492 
L 198.69986 190.521314 
L 223.673287 171.821433 
L 248.646713 255.737508 
L 273.62014 264.555958 
L 298.593566 235.015472 
L 323.566993 201.139361 
L 348.54042 171.236073 
L 373.513846 140.86393 
L 398.487273 106.194305 
" clip-path="url(#p90203f003d)" style="fill: none; stroke-dasharray: 3.7,1.6; stroke-dashoffset: 0; stroke: #17becf"/>
   </g>
   <g id="line2d_76">
    <path d="M 73.832727 179.351548 
L 98.806154 169.496885 
L 123.77958 153.886824 
L 148.753007 133.565608 
L 173.726434 124.404308 
L 198.69986 198.793009 
L 223.673287 181.01764 
L 248.646713 264.341727 
L 273.62014 273.343016 
L 298.593566 252.48879 
L 323.566993 221.783484 
L 348.54042 179.715981 
L 373.513846 147.138632 
L 398.487273 109.616983 
" clip-path="url(#p90203f003d)" style="fill: none; stroke-dasharray: 3.7,1.6; stroke-dashoffset: 0; stroke: #1f77b4"/>
   </g>
   <g id="line2d_77">
    <path d="M 73.832727 179.351548 
L 98.806154 164.320597 
L 123.77958 147.140722 
L 148.753007 131.485692 
L 173.726434 112.301362 
L 198.69986 183.270684 
L 223.673287 160.285144 
L 248.646713 244.727109 
L 273.62014 253.820944 
L 298.593566 226.675883 
L 323.566993 191.543406 
L 348.54042 163.590199 
L 373.513846 135.172515 
L 398.487273 106.96931 
" clip-path="url(#p90203f003d)" style="fill: none; stroke-dasharray: 3.7,1.6; stroke-dashoffset: 0; stroke: #ff7f0e"/>
   </g>
   <g id="line2d_78">
    <path d="M 73.832727 179.351548 
L 98.806154 167.96701 
L 123.77958 147.233217 
L 148.753007 128.101047 
L 173.726434 113.771396 
L 198.69986 192.095228 
L 223.673287 157.434067 
L 248.646713 242.767148 
L 273.62014 250.04084 
L 298.593566 225.194282 
L 323.566993 192.797021 
L 348.54042 150.901102 
L 373.513846 115.608171 
L 398.487273 83.681516 
" clip-path="url(#p90203f003d)" style="fill: none; stroke-dasharray: 3.7,1.6; stroke-dashoffset: 0; stroke: #2ca02c"/>
   </g>
   <g id="line2d_79">
    <path d="M 73.832727 179.351548 
L 98.806154 165.320838 
L 123.77958 141.524743 
L 148.753007 127.512921 
L 173.726434 117.876987 
L 198.69986 189.664791 
L 223.673287 168.972263 
L 248.646713 252.798943 
L 273.62014 261.515967 
L 298.593566 233.53212 
L 323.566993 200.180641 
L 348.54042 169.966326 
L 373.513846 140.483744 
L 398.487273 108.955409 
" clip-path="url(#p90203f003d)" style="fill: none; stroke-dasharray: 3.7,1.6; stroke-dashoffset: 0; stroke: #d62728"/>
   </g>
   <g id="line2d_80">
    <path d="M 73.832727 179.351548 
L 98.806154 170.354681 
L 123.77958 154.622332 
L 148.753007 145.077663 
L 173.726434 130.890989 
L 198.69986 203.553267 
L 223.673287 177.469012 
L 248.646713 260.202073 
L 273.62014 267.475639 
L 298.593566 242.140591 
L 323.566993 211.056849 
L 348.54042 179.789017 
L 373.513846 146.122509 
L 398.487273 114.271015 
" clip-path="url(#p90203f003d)" style="fill: none; stroke-dasharray: 3.7,1.6; stroke-dashoffset: 0; stroke: #9467bd"/>
   </g>
   <g id="line2d_81">
    <path d="M 73.832727 179.351548 
L 98.806154 170.370314 
L 123.77958 155.589427 
L 148.753007 139.158476 
L 173.726434 121.066222 
L 198.69986 187.8424 
L 223.673287 154.820097 
L 248.646713 240.370348 
L 273.62014 246.050508 
L 298.593566 219.134935 
L 323.566993 184.612007 
L 348.54042 145.200057 
L 373.513846 107.966674 
L 398.487273 79.948561 
" clip-path="url(#p90203f003d)" style="fill: none; stroke-dasharray: 3.7,1.6; stroke-dashoffset: 0; stroke: #8c564b"/>
   </g>
   <g id="line2d_82">
    <path d="M 73.832727 179.351548 
L 98.806154 170.190475 
L 123.77958 150.720212 
L 148.753007 123.991625 
L 173.726434 94.522541 
L 198.69986 155.364396 
L 223.673287 128.715618 
L 248.646713 216.140467 
L 273.62014 221.353898 
L 298.593566 196.052492 
L 323.566993 153.216112 
L 348.54042 116.113544 
L 373.513846 86.332316 
L 398.487273 54.527596 
" clip-path="url(#p90203f003d)" style="fill: none; stroke-dasharray: 3.7,1.6; stroke-dashoffset: 0; stroke: #e377c2"/>
   </g>
   <g id="line2d_83">
    <path d="M 73.832727 179.351548 
L 98.806154 172.332025 
L 123.77958 163.093961 
L 148.753007 150.084948 
L 173.726434 136.770822 
L 198.69986 201.797055 
L 223.673287 182.443793 
L 248.646713 264.911132 
L 273.62014 271.967217 
L 298.593566 243.282151 
L 323.566993 208.512977 
L 348.54042 176.668987 
L 373.513846 137.135852 
L 398.487273 106.605881 
" clip-path="url(#p90203f003d)" style="fill: none; stroke-dasharray: 3.7,1.6; stroke-dashoffset: 0; stroke: #7f7f7f"/>
   </g>
   <g id="line2d_84">
    <path d="M 73.832727 179.351548 
L 98.806154 172.373546 
L 123.77958 149.755285 
L 148.753007 137.822044 
L 173.726434 122.417635 
L 198.69986 201.822031 
L 223.673287 183.006409 
L 248.646713 266.497535 
L 273.62014 275.73694 
L 298.593566 241.926486 
L 323.566993 213.01656 
L 348.54042 181.989721 
L 373.513846 156.088396 
L 398.487273 115.763622 
" clip-path="url(#p90203f003d)" style="fill: none; stroke-dasharray: 3.7,1.6; stroke-dashoffset: 0; stroke: #bcbd22"/>
   </g>
   <g id="line2d_85">
    <path d="M 73.832727 179.351548 
L 98.806154 172.050012 
L 123.77958 151.276867 
L 148.753007 133.564863 
L 173.726434 117.326219 
L 198.69986 189.50937 
L 223.673287 165.101758 
L 248.646713 248.025727 
L 273.62014 253.04969 
L 298.593566 226.613478 
L 323.566993 194.703455 
L 348.54042 149.741033 
L 373.513846 119.384773 
L 398.487273 84.465651 
" clip-path="url(#p90203f003d)" style="fill: none; stroke-dasharray: 3.7,1.6; stroke-dashoffset: 0; stroke: #17becf"/>
   </g>
   <g id="line2d_86">
    <path d="M 73.832727 179.351548 
L 98.806154 165.370487 
L 123.77958 151.112931 
L 148.753007 129.062534 
L 173.726434 109.026876 
L 198.69986 175.012217 
L 223.673287 153.414692 
L 248.646713 238.759934 
L 273.62014 245.780376 
L 298.593566 215.357708 
L 323.566993 179.81553 
L 348.54042 147.635126 
L 373.513846 114.518887 
L 398.487273 79.139164 
" clip-path="url(#p90203f003d)" style="fill: none; stroke-dasharray: 3.7,1.6; stroke-dashoffset: 0; stroke: #1f77b4"/>
   </g>
   <g id="line2d_87">
    <path d="M 73.832727 179.351548 
L 98.806154 165.725286 
L 123.77958 154.435592 
L 148.753007 140.445801 
L 173.726434 123.625556 
L 198.69986 190.790646 
L 223.673287 165.164452 
L 248.646713 248.81774 
L 273.62014 256.72024 
L 298.593566 219.865294 
L 323.566993 184.302355 
L 348.54042 156.098401 
L 373.513846 111.054313 
L 398.487273 82.94453 
" clip-path="url(#p90203f003d)" style="fill: none; stroke-dasharray: 3.7,1.6; stroke-dashoffset: 0; stroke: #ff7f0e"/>
   </g>
   <g id="line2d_88">
    <path d="M 73.832727 179.351548 
L 98.806154 165.368111 
L 123.77958 144.162273 
L 148.753007 131.466215 
L 173.726434 118.970198 
L 198.69986 193.544517 
L 223.673287 164.898292 
L 248.646713 248.157917 
L 273.62014 253.882474 
L 298.593566 219.601164 
L 323.566993 181.005364 
L 348.54042 141.135939 
L 373.513846 103.15494 
L 398.487273 64.436579 
" clip-path="url(#p90203f003d)" style="fill: none; stroke-dasharray: 3.7,1.6; stroke-dashoffset: 0; stroke: #2ca02c"/>
   </g>
   <g id="line2d_89">
    <path d="M 73.832727 179.351548 
L 98.806154 157.406332 
L 123.77958 145.278301 
L 148.753007 125.73889 
L 173.726434 106.21692 
L 198.69986 175.294325 
L 223.673287 155.894035 
L 248.646713 241.282045 
L 273.62014 249.402152 
L 298.593566 213.910499 
L 323.566993 184.572738 
L 348.54042 155.737849 
L 373.513846 126.953234 
L 398.487273 86.200126 
" clip-path="url(#p90203f003d)" style="fill: none; stroke-dasharray: 3.7,1.6; stroke-dashoffset: 0; stroke: #d62728"/>
   </g>
   <g id="line2d_90">
    <path d="M 73.832727 179.351548 
L 98.806154 170.379943 
L 123.77958 154.99876 
L 148.753007 140.973409 
L 173.726434 114.718974 
L 198.69986 191.634022 
L 223.673287 157.574803 
L 248.646713 243.047786 
L 273.62014 251.565338 
L 298.593566 227.376352 
L 323.566993 198.036215 
L 348.54042 164.354199 
L 373.513846 128.915822 
L 398.487273 98.482523 
" clip-path="url(#p90203f003d)" style="fill: none; stroke-dasharray: 3.7,1.6; stroke-dashoffset: 0; stroke: #9467bd"/>
   </g>
   <g id="line2d_91">
    <path d="M 73.832727 179.351548 
L 98.806154 170.200355 
L 123.77958 155.623864 
L 148.753007 139.758059 
L 173.726434 124.22125 
L 198.69986 186.614076 
L 223.673287 161.500242 
L 248.646713 245.579778 
L 273.62014 254.352704 
L 298.593566 227.34171 
L 323.566993 197.52634 
L 348.54042 171.921409 
L 373.513846 144.548112 
L 398.487273 107.669529 
" clip-path="url(#p90203f003d)" style="fill: none; stroke-dasharray: 3.7,1.6; stroke-dashoffset: 0; stroke: #8c564b"/>
   </g>
   <g id="line2d_92">
    <path d="M 73.832727 179.351548 
L 98.806154 169.600311 
L 123.77958 145.44053 
L 148.753007 122.985201 
L 173.726434 111.211018 
L 198.69986 182.26471 
L 223.673287 162.177989 
L 248.646713 246.497353 
L 273.62014 255.834556 
L 298.593566 226.901869 
L 323.566993 201.835453 
L 348.54042 175.840456 
L 373.513846 141.981478 
L 398.487273 107.158403 
" clip-path="url(#p90203f003d)" style="fill: none; stroke-dasharray: 3.7,1.6; stroke-dashoffset: 0; stroke: #e377c2"/>
   </g>
   <g id="line2d_93">
    <path d="M 73.832727 179.351548 
L 98.806154 161.730702 
L 123.77958 148.12488 
L 148.753007 138.517982 
L 173.726434 121.692674 
L 198.69986 190.533967 
L 223.673287 170.096242 
L 248.646713 253.680625 
L 273.62014 262.752698 
L 298.593566 236.87601 
L 323.566993 208.516354 
L 348.54042 176.625841 
L 373.513846 149.664871 
L 398.487273 119.939045 
" clip-path="url(#p90203f003d)" style="fill: none; stroke-dasharray: 3.7,1.6; stroke-dashoffset: 0; stroke: #7f7f7f"/>
   </g>
   <g id="line2d_94">
    <path d="M 73.832727 179.351548 
L 98.806154 166.852589 
L 123.77958 150.545261 
L 148.753007 136.84383 
L 173.726434 124.155569 
L 198.69986 192.228283 
L 223.673287 168.66863 
L 248.646713 251.572716 
L 273.62014 258.03476 
L 298.593566 235.006218 
L 323.566993 204.646956 
L 348.54042 167.792885 
L 373.513846 132.628017 
L 398.487273 101.537271 
" clip-path="url(#p90203f003d)" style="fill: none; stroke-dasharray: 3.7,1.6; stroke-dashoffset: 0; stroke: #bcbd22"/>
   </g>
   <g id="line2d_95">
    <path d="M 73.832727 179.351548 
L 98.806154 165.659253 
L 123.77958 153.62221 
L 148.753007 141.977432 
L 173.726434 123.651742 
L 198.69986 196.936649 
L 223.673287 173.989857 
L 248.646713 257.156329 
L 273.62014 266.124352 
L 298.593566 236.307731 
L 323.566993 209.567619 
L 348.54042 173.233303 
L 373.513846 145.725314 
L 398.487273 112.307303 
" clip-path="url(#p90203f003d)" style="fill: none; stroke-dasharray: 3.7,1.6; stroke-dashoffset: 0; stroke: #17becf"/>
   </g>
   <g id="line2d_96">
    <path d="M 73.832727 179.351548 
L 98.806154 163.303473 
L 123.77958 153.994223 
L 148.753007 142.936016 
L 173.726434 128.107602 
L 198.69986 198.479973 
L 223.673287 180.368978 
L 248.646713 263.208172 
L 273.62014 272.148556 
L 298.593566 248.626522 
L 323.566993 219.000495 
L 348.54042 188.246414 
L 373.513846 161.013686 
L 398.487273 133.956293 
" clip-path="url(#p90203f003d)" style="fill: none; stroke-dasharray: 3.7,1.6; stroke-dashoffset: 0; stroke: #1f77b4"/>
   </g>
   <g id="line2d_97">
    <path d="M 73.832727 179.351548 
L 98.806154 171.917822 
L 123.77958 161.344213 
L 148.753007 150.269671 
L 173.726434 130.103187 
L 198.69986 203.556919 
L 223.673287 177.23151 
L 248.646713 260.07376 
L 273.62014 268.639585 
L 298.593566 244.242747 
L 323.566993 214.555815 
L 348.54042 182.230339 
L 373.513846 147.395133 
L 398.487273 115.965971 
" clip-path="url(#p90203f003d)" style="fill: none; stroke-dasharray: 3.7,1.6; stroke-dashoffset: 0; stroke: #ff7f0e"/>
   </g>
   <g id="line2d_98">
    <path d="M 73.832727 179.351548 
L 98.806154 173.191947 
L 123.77958 155.325548 
L 148.753007 128.521882 
L 173.726434 111.421993 
L 198.69986 186.282154 
L 223.673287 152.977407 
L 248.646713 238.375745 
L 273.62014 246.110538 
L 298.593566 220.68432 
L 323.566993 184.234072 
L 348.54042 149.839081 
L 373.513846 119.499704 
L 398.487273 83.429142 
" clip-path="url(#p90203f003d)" style="fill: none; stroke-dasharray: 3.7,1.6; stroke-dashoffset: 0; stroke: #2ca02c"/>
   </g>
   <g id="line2d_99">
    <path d="M 73.832727 179.351548 
L 98.806154 174.682303 
L 123.77958 162.387864 
L 148.753007 140.488132 
L 173.726434 119.240849 
L 198.69986 188.488898 
L 223.673287 166.227014 
L 248.646713 249.224065 
L 273.62014 256.000763 
L 298.593566 230.546406 
L 323.566993 201.233032 
L 348.54042 173.885998 
L 373.513846 133.804344 
L 398.487273 97.410373 
" clip-path="url(#p90203f003d)" style="fill: none; stroke-dasharray: 3.7,1.6; stroke-dashoffset: 0; stroke: #d62728"/>
   </g>
   <g id="line2d_100">
    <path d="M 73.832727 179.351548 
L 98.806154 165.956274 
L 123.77958 142.278319 
L 148.753007 130.98047 
L 173.726434 106.990129 
L 198.69986 184.376872 
L 223.673287 160.258247 
L 248.646713 243.669341 
L 273.62014 249.366885 
L 298.593566 219.729727 
L 323.566993 189.313938 
L 348.54042 154.938957 
L 373.513846 113.130206 
L 398.487273 75.413712 
" clip-path="url(#p90203f003d)" style="fill: none; stroke-dasharray: 3.7,1.6; stroke-dashoffset: 0; stroke: #9467bd"/>
   </g>
   <g id="line2d_101">
    <path d="M 73.832727 179.351548 
L 98.806154 162.229071 
L 123.77958 149.166386 
L 148.753007 133.586748 
L 173.726434 116.131993 
L 198.69986 193.569464 
L 223.673287 170.0996 
L 248.646713 253.731525 
L 273.62014 261.852882 
L 298.593566 234.708072 
L 323.566993 205.703474 
L 348.54042 174.695019 
L 373.513846 143.789115 
L 398.487273 111.702131 
" clip-path="url(#p90203f003d)" style="fill: none; stroke-dasharray: 3.7,1.6; stroke-dashoffset: 0; stroke: #8c564b"/>
   </g>
   <g id="line2d_102">
    <path d="M 73.832727 179.351548 
L 98.806154 162.968059 
L 123.77958 143.96852 
L 148.753007 126.259923 
L 173.726434 113.317516 
L 198.69986 173.697855 
L 223.673287 146.526845 
L 248.646713 231.697846 
L 273.62014 236.203305 
L 298.593566 207.27612 
L 323.566993 171.101007 
L 348.54042 128.357798 
L 373.513846 89.2066 
L 398.487273 53.568 
" clip-path="url(#p90203f003d)" style="fill: none; stroke-dasharray: 3.7,1.6; stroke-dashoffset: 0; stroke: #e377c2"/>
   </g>
   <g id="line2d_103">
    <path d="M 73.832727 179.351548 
L 98.806154 167.616713 
L 123.77958 157.853517 
L 148.753007 144.591039 
L 173.726434 127.08988 
L 198.69986 193.961454 
L 223.673287 159.809849 
L 248.646713 242.840935 
L 273.62014 247.701568 
L 298.593566 218.864678 
L 323.566993 185.304972 
L 348.54042 143.285368 
L 373.513846 110.600466 
L 398.487273 72.872591 
" clip-path="url(#p90203f003d)" style="fill: none; stroke-dasharray: 3.7,1.6; stroke-dashoffset: 0; stroke: #7f7f7f"/>
   </g>
   <g id="line2d_104">
    <path d="M 73.832727 179.351548 
L 98.806154 164.149013 
L 123.77958 151.946499 
L 148.753007 134.084394 
L 173.726434 120.876435 
L 198.69986 196.125118 
L 223.673287 177.238921 
L 248.646713 260.160927 
L 273.62014 268.375205 
L 298.593566 246.695325 
L 323.566993 212.828093 
L 348.54042 182.95657 
L 373.513846 147.9399 
L 398.487273 107.850492 
" clip-path="url(#p90203f003d)" style="fill: none; stroke-dasharray: 3.7,1.6; stroke-dashoffset: 0; stroke: #bcbd22"/>
   </g>
   <g id="line2d_105">
    <path d="M 73.832727 179.351548 
L 98.806154 170.045404 
L 123.77958 162.457631 
L 148.753007 149.355448 
L 173.726434 139.789974 
L 198.69986 213.560466 
L 223.673287 189.355904 
L 248.646713 272.171442 
L 273.62014 281.263525 
L 298.593566 255.768774 
L 323.566993 221.259227 
L 348.54042 187.868729 
L 373.513846 145.81861 
L 398.487273 111.748278 
" clip-path="url(#p90203f003d)" style="fill: none; stroke-dasharray: 3.7,1.6; stroke-dashoffset: 0; stroke: #17becf"/>
   </g>
   <g id="line2d_106">
    <path d="M 73.832727 179.351548 
L 98.806154 170.792771 
L 123.77958 157.088175 
L 148.753007 145.922984 
L 173.726434 118.609899 
L 198.69986 182.276646 
L 223.673287 152.68794 
L 248.646713 238.205662 
L 273.62014 243.873441 
L 298.593566 211.594738 
L 323.566993 176.957129 
L 348.54042 144.753338 
L 373.513846 108.248062 
L 398.487273 78.985088 
" clip-path="url(#p90203f003d)" style="fill: none; stroke-dasharray: 3.7,1.6; stroke-dashoffset: 0; stroke: #1f77b4"/>
   </g>
   <g id="line2d_107">
    <path d="M 73.832727 179.351548 
L 98.806154 152.176517 
L 123.77958 128.625725 
L 148.753007 106.929182 
L 173.726434 91.211879 
L 198.69986 162.409696 
L 223.673287 137.622033 
L 248.646713 223.851123 
L 273.62014 229.723377 
L 298.593566 201.313697 
L 323.566993 173.422645 
L 348.54042 143.172187 
L 373.513846 109.872484 
L 398.487273 85.096085 
" clip-path="url(#p90203f003d)" style="fill: none; stroke-dasharray: 3.7,1.6; stroke-dashoffset: 0; stroke: #ff7f0e"/>
   </g>
   <g id="line2d_108">
    <path d="M 73.832727 179.351548 
L 98.806154 164.032206 
L 123.77958 139.511932 
L 148.753007 122.169499 
L 173.726434 107.575631 
L 198.69986 183.745373 
L 223.673287 151.084771 
L 248.646713 236.001956 
L 273.62014 240.343585 
L 298.593566 210.178544 
L 323.566993 181.991597 
L 348.54042 152.695357 
L 373.513846 124.60946 
L 398.487273 96.761305 
" clip-path="url(#p90203f003d)" style="fill: none; stroke-dasharray: 3.7,1.6; stroke-dashoffset: 0; stroke: #2ca02c"/>
   </g>
   <g id="line2d_109">
    <path d="M 73.832727 179.351548 
L 98.806154 166.885105 
L 123.77958 152.195061 
L 148.753007 138.743401 
L 173.726434 122.535646 
L 198.69986 200.629374 
L 223.673287 179.572859 
L 248.646713 263.550339 
L 273.62014 272.694698 
L 298.593566 247.17506 
L 323.566993 222.908286 
L 348.54042 187.855473 
L 373.513846 156.659176 
L 398.487273 127.625689 
" clip-path="url(#p90203f003d)" style="fill: none; stroke-dasharray: 3.7,1.6; stroke-dashoffset: 0; stroke: #d62728"/>
   </g>
   <g id="line2d_110">
    <path d="M 73.832727 179.351548 
L 98.806154 167.343955 
L 123.77958 160.66872 
L 148.753007 153.280061 
L 173.726434 141.970738 
L 198.69986 214.616293 
L 223.673287 190.275867 
L 248.646713 272.953325 
L 273.62014 282.515014 
L 298.593566 258.38268 
L 323.566993 230.274273 
L 348.54042 199.073348 
L 373.513846 171.476566 
L 398.487273 140.428842 
" clip-path="url(#p90203f003d)" style="fill: none; stroke-dasharray: 3.7,1.6; stroke-dashoffset: 0; stroke: #9467bd"/>
   </g>
   <g id="line2d_111">
    <path d="M 73.832727 179.351548 
L 98.806154 167.430747 
L 123.77958 157.684484 
L 148.753007 136.391122 
L 173.726434 119.020365 
L 198.69986 190.08727 
L 223.673287 167.760425 
L 248.646713 251.188403 
L 273.62014 258.193338 
L 298.593566 231.871181 
L 323.566993 199.129876 
L 348.54042 162.297815 
L 373.513846 125.820304 
L 398.487273 87.34031 
" clip-path="url(#p90203f003d)" style="fill: none; stroke-dasharray: 3.7,1.6; stroke-dashoffset: 0; stroke: #8c564b"/>
   </g>
   <g id="line2d_112">
    <path d="M 73.832727 179.351548 
L 98.806154 167.546429 
L 123.77958 155.882194 
L 148.753007 140.790143 
L 173.726434 126.227305 
L 198.69986 195.658522 
L 223.673287 163.195618 
L 248.646713 245.917443 
L 273.62014 251.192905 
L 298.593566 219.547763 
L 323.566993 186.026201 
L 348.54042 145.081248 
L 373.513846 106.002961 
L 398.487273 73.299926 
" clip-path="url(#p90203f003d)" style="fill: none; stroke-dasharray: 3.7,1.6; stroke-dashoffset: 0; stroke: #e377c2"/>
   </g>
   <g id="line2d_113">
    <path d="M 73.832727 179.351548 
L 98.806154 170.478116 
L 123.77958 157.076878 
L 148.753007 146.919568 
L 173.726434 123.560491 
L 198.69986 183.317911 
L 223.673287 165.709609 
L 248.646713 249.585242 
L 273.62014 259.24798 
L 298.593566 234.030364 
L 323.566993 207.082651 
L 348.54042 167.490111 
L 373.513846 136.443888 
L 398.487273 105.26735 
" clip-path="url(#p90203f003d)" style="fill: none; stroke-dasharray: 3.7,1.6; stroke-dashoffset: 0; stroke: #7f7f7f"/>
   </g>
   <g id="line2d_114">
    <path d="M 73.832727 179.351548 
L 98.806154 171.792761 
L 123.77958 160.399033 
L 148.753007 141.429774 
L 173.726434 128.946631 
L 198.69986 199.036826 
L 223.673287 176.740337 
L 248.646713 258.818144 
L 273.62014 264.800703 
L 298.593566 239.416005 
L 323.566993 205.770007 
L 348.54042 166.864555 
L 373.513846 129.533625 
L 398.487273 101.827538 
" clip-path="url(#p90203f003d)" style="fill: none; stroke-dasharray: 3.7,1.6; stroke-dashoffset: 0; stroke: #bcbd22"/>
   </g>
   <g id="line2d_115">
    <path d="M 73.832727 179.351548 
L 98.806154 170.639571 
L 123.77958 160.037287 
L 148.753007 145.836379 
L 173.726434 131.255986 
L 198.69986 204.708563 
L 223.673287 176.689181 
L 248.646713 259.752352 
L 273.62014 266.569445 
L 298.593566 241.36371 
L 323.566993 210.963053 
L 348.54042 172.943035 
L 373.513846 135.670634 
L 398.487273 98.13948 
" clip-path="url(#p90203f003d)" style="fill: none; stroke-dasharray: 3.7,1.6; stroke-dashoffset: 0; stroke: #17becf"/>
   </g>
   <g id="line2d_116">
    <path d="M 73.832727 179.351548 
L 98.806154 167.029594 
L 123.77958 153.271822 
L 148.753007 137.641294 
L 173.726434 121.101477 
L 198.69986 192.44584 
L 223.673287 168.507134 
L 248.646713 252.234222 
L 273.62014 259.890211 
L 298.593566 232.377759 
L 323.566993 200.416629 
L 348.54042 167.026238 
L 373.513846 134.008134 
L 398.487273 101.868237 
" clip-path="url(#p90203f003d)" style="fill: none; stroke: #000000; stroke-width: 2.5; stroke-linecap: square"/>
   </g>
   <g id="patch_3">
    <path d="M 57.6 307.584 
L 57.6 41.472 
" style="fill: none; stroke: #000000; stroke-width: 0.8; stroke-linejoin: miter; stroke-linecap: square"/>
   </g>
   <g id="patch_4">
    <path d="M 414.72 307.584 
L 414.72 41.472 
" style="fill: none; stroke: #000000; stroke-width: 0.8; stroke-linejoin: miter; stroke-linecap: square"/>
   </g>
   <g id="patch_5">
    <path d="M 57.6 307.584 
L 414.72 307.584 
" style="fill: none; stroke: #000000; stroke-width: 0.8; stroke-linejoin: miter; stroke-linecap: square"/>
   </g>
   <g id="patch_6">
    <path d="M 57.6 41.472 
L 414.72 41.472 
" style="fill: none; stroke: #000000; stroke-width: 0.8; stroke-linejoin: miter; stroke-linecap: square"/>
   </g>
   <g id="legend_1">
    <g id="patch_7">
     <path d="M 64.6 64.150125 
L 137.665625 64.150125 
Q 139.665625 64.150125 139.665625 62.150125 
L 139.665625 48.472 
Q 139.665625 46.472 137.665625 46.472 
L 64.6 46.472 
Q 62.6 46.472 62.6 48.472 
L 62.6 62.150125 
Q 62.6 64.150125 64.6 64.150125 
z
" style="fill: #ffffff; opacity: 0.8; stroke: #cccccc; stroke-linejoin: miter"/>
    </g>
    <g id="line2d_117">
     <path d="M 66.6 54.570438 
L 76.6 54.570438 
L 86.6 54.570438 
" style="fill: none; stroke: #000000; stroke-width: 2.5; stroke-linecap: square"/>
    </g>
    <g id="text_18">
     <!-- Average -->
     <g transform="translate(94.6 58.070438) scale(0.1 -0.1)">
      <defs>
       <path id="DejaVuSans-41" d="M 2188 4044 
L 1331 1722 
L 3047 1722 
L 2188 4044 
z
M 1831 4666 
L 2547 4666 
L 4325 0 
L 3669 0 
L 3244 1197 
L 1141 1197 
L 716 0 
L 50 0 
L 1831 4666 
z
" transform="scale(0.015625)"/>
       <path id="DejaVuSans-67" d="M 2906 1791 
Q 2906 2416 2648 2759 
Q 2391 3103 1925 3103 
Q 1463 3103 1205 2759 
Q 947 2416 947 1791 
Q 947 1169 1205 825 
Q 1463 481 1925 481 
Q 2391 481 2648 825 
Q 2906 1169 2906 1791 
z
M 3481 434 
Q 3481 -459 3084 -895 
Q 2688 -1331 1869 -1331 
Q 1566 -1331 1297 -1286 
Q 1028 -1241 775 -1147 
L 775 -588 
Q 1028 -725 1275 -790 
Q 1522 -856 1778 -856 
Q 2344 -856 2625 -561 
Q 2906 -266 2906 331 
L 2906 616 
Q 2728 306 2450 153 
Q 2172 0 1784 0 
Q 1141 0 747 490 
Q 353 981 353 1791 
Q 353 2603 747 3093 
Q 1141 3584 1784 3584 
Q 2172 3584 2450 3431 
Q 2728 3278 2906 2969 
L 2906 3500 
L 3481 3500 
L 3481 434 
z
" transform="scale(0.015625)"/>
      </defs>
      <use xlink:href="#DejaVuSans-41"/>
      <use xlink:href="#DejaVuSans-76" x="62.533203"/>
      <use xlink:href="#DejaVuSans-65" x="121.712891"/>
      <use xlink:href="#DejaVuSans-72" x="183.236328"/>
      <use xlink:href="#DejaVuSans-61" x="224.349609"/>
      <use xlink:href="#DejaVuSans-67" x="285.628906"/>
      <use xlink:href="#DejaVuSans-65" x="349.105469"/>
     </g>
    </g>
   </g>
  </g>
 </g>
 <defs>
  <clipPath id="p90203f003d">
   <rect x="57.6" y="41.472" width="357.12" height="266.112"/>
  </clipPath>
 </defs>
</svg>
