<?xml version="1.0" encoding="utf-8" standalone="no"?>
<!DOCTYPE svg PUBLIC "-//W3C//DTD SVG 1.1//EN"
  "http://www.w3.org/Graphics/SVG/1.1/DTD/svg11.dtd">
<svg xmlns:xlink="http://www.w3.org/1999/xlink" width="648pt" height="360pt" viewBox="0 0 648 360" xmlns="http://www.w3.org/2000/svg" version="1.1">
 <metadata>
  <rdf:RDF xmlns:dc="http://purl.org/dc/elements/1.1/" xmlns:cc="http://creativecommons.org/ns#" xmlns:rdf="http://www.w3.org/1999/02/22-rdf-syntax-ns#">
   <cc:Work>
    <dc:type rdf:resource="http://purl.org/dc/dcmitype/StillImage"/>
    <dc:date>2025-11-25T20:12:29.540813</dc:date>
    <dc:format>image/svg+xml</dc:format>
    <dc:creator>
     <cc:Agent>
      <dc:title>Matplotlib v3.7.2, https://matplotlib.org/</dc:title>
     </cc:Agent>
    </dc:creator>
   </cc:Work>
  </rdf:RDF>
 </metadata>
 <defs>
  <style type="text/css">*{stroke-linejoin: round; stroke-linecap: butt}</style>
 </defs>
 <g id="figure_1">
  <g id="patch_1">
   <path d="M 0 360 
L 648 360 
L 648 0 
L 0 0 
z
" style="fill: #ffffff"/>
  </g>
  <g id="axes_1">
   <g id="patch_2">
    <path d="M 81 320.4 
L 583.2 320.4 
L 583.2 43.2 
L 81 43.2 
z
" style="fill: #ffffff"/>
   </g>
   <g id="matplotlib.axis_1">
    <g id="xtick_1">
     <g id="line2d_1">
      <defs>
       <path id="mc5eece6d35" d="M 0 0 
L 0 3.5 
" style="stroke: #000000; stroke-width: 0.8"/>
      </defs>
      <g>
       <use xlink:href="#mc5eece6d35" x="81" y="320.4" style="stroke: #000000; stroke-width: 0.8"/>
      </g>
     </g>
     <g id="text_1">
      <!-- 2010 -->
      <g transform="translate(65.73 336.518125) scale(0.12 -0.12)">
       <defs>
        <path id="DejaVuSans-32" d="M 1228 531 
L 3431 531 
L 3431 0 
L 469 0 
L 469 531 
Q 828 903 1448 1529 
Q 2069 2156 2228 2338 
Q 2531 2678 2651 2914 
Q 2772 3150 2772 3378 
Q 2772 3750 2511 3984 
Q 2250 4219 1831 4219 
Q 1534 4219 1204 4116 
Q 875 4013 500 3803 
L 500 4441 
Q 881 4594 1212 4672 
Q 1544 4750 1819 4750 
Q 2544 4750 2975 4387 
Q 3406 4025 3406 3419 
Q 3406 3131 3298 2873 
Q 3191 2616 2906 2266 
Q 2828 2175 2409 1742 
Q 1991 1309 1228 531 
z
" transform="scale(0.015625)"/>
        <path id="DejaVuSans-30" d="M 2034 4250 
Q 1547 4250 1301 3770 
Q 1056 3291 1056 2328 
Q 1056 1369 1301 889 
Q 1547 409 2034 409 
Q 2525 409 2770 889 
Q 3016 1369 3016 2328 
Q 3016 3291 2770 3770 
Q 2525 4250 2034 4250 
z
M 2034 4750 
Q 2819 4750 3233 4129 
Q 3647 3509 3647 2328 
Q 3647 1150 3233 529 
Q 2819 -91 2034 -91 
Q 1250 -91 836 529 
Q 422 1150 422 2328 
Q 422 3509 836 4129 
Q 1250 4750 2034 4750 
z
" transform="scale(0.015625)"/>
        <path id="DejaVuSans-31" d="M 794 531 
L 1825 531 
L 1825 4091 
L 703 3866 
L 703 4441 
L 1819 4666 
L 2450 4666 
L 2450 531 
L 3481 531 
L 3481 0 
L 794 0 
L 794 531 
z
" transform="scale(0.015625)"/>
       </defs>
       <use xlink:href="#DejaVuSans-32"/>
       <use xlink:href="#DejaVuSans-30" x="63.623047"/>
       <use xlink:href="#DejaVuSans-31" x="127.246094"/>
       <use xlink:href="#DejaVuSans-30" x="190.869141"/>
      </g>
     </g>
    </g>
    <g id="xtick_2">
     <g id="line2d_2">
      <g>
       <use xlink:href="#mc5eece6d35" x="138.068182" y="320.4" style="stroke: #000000; stroke-width: 0.8"/>
      </g>
     </g>
     <g id="text_2">
      <!-- 2012 -->
      <g transform="translate(122.798182 336.518125) scale(0.12 -0.12)">
       <use xlink:href="#DejaVuSans-32"/>
       <use xlink:href="#DejaVuSans-30" x="63.623047"/>
       <use xlink:href="#DejaVuSans-31" x="127.246094"/>
       <use xlink:href="#DejaVuSans-32" x="190.869141"/>
      </g>
     </g>
    </g>
    <g id="xtick_3">
     <g id="line2d_3">
      <g>
       <use xlink:href="#mc5eece6d35" x="195.136364" y="320.4" style="stroke: #000000; stroke-width: 0.8"/>
      </g>
     </g>
     <g id="text_3">
      <!-- 2015 -->
      <g transform="translate(179.866364 336.518125) scale(0.12 -0.12)">
       <defs>
        <path id="DejaVuSans-35" d="M 691 4666 
L 3169 4666 
L 3169 4134 
L 1269 4134 
L 1269 2991 
Q 1406 3038 1543 3061 
Q 1681 3084 1819 3084 
Q 2600 3084 3056 2656 
Q 3513 2228 3513 1497 
Q 3513 744 3044 326 
Q 2575 -91 1722 -91 
Q 1428 -91 1123 -41 
Q 819 9 494 109 
L 494 744 
Q 775 591 1075 516 
Q 1375 441 1709 441 
Q 2250 441 2565 725 
Q 2881 1009 2881 1497 
Q 2881 1984 2565 2268 
Q 2250 2553 1709 2553 
Q 1456 2553 1204 2497 
Q 953 2441 691 2322 
L 691 4666 
z
" transform="scale(0.015625)"/>
       </defs>
       <use xlink:href="#DejaVuSans-32"/>
       <use xlink:href="#DejaVuSans-30" x="63.623047"/>
       <use xlink:href="#DejaVuSans-31" x="127.246094"/>
       <use xlink:href="#DejaVuSans-35" x="190.869141"/>
      </g>
     </g>
    </g>
    <g id="xtick_4">
     <g id="line2d_4">
      <g>
       <use xlink:href="#mc5eece6d35" x="252.204545" y="320.4" style="stroke: #000000; stroke-width: 0.8"/>
      </g>
     </g>
     <g id="text_4">
      <!-- 2017 -->
      <g transform="translate(236.934545 336.518125) scale(0.12 -0.12)">
       <defs>
        <path id="DejaVuSans-37" d="M 525 4666 
L 3525 4666 
L 3525 4397 
L 1831 0 
L 1172 0 
L 2766 4134 
L 525 4134 
L 525 4666 
z
" transform="scale(0.015625)"/>
       </defs>
       <use xlink:href="#DejaVuSans-32"/>
       <use xlink:href="#DejaVuSans-30" x="63.623047"/>
       <use xlink:href="#DejaVuSans-31" x="127.246094"/>
       <use xlink:href="#DejaVuSans-37" x="190.869141"/>
      </g>
     </g>
    </g>
    <g id="xtick_5">
     <g id="line2d_5">
      <g>
       <use xlink:href="#mc5eece6d35" x="309.272727" y="320.4" style="stroke: #000000; stroke-width: 0.8"/>
      </g>
     </g>
     <g id="text_5">
      <!-- 2020 -->
      <g transform="translate(294.002727 336.518125) scale(0.12 -0.12)">
       <use xlink:href="#DejaVuSans-32"/>
       <use xlink:href="#DejaVuSans-30" x="63.623047"/>
       <use xlink:href="#DejaVuSans-32" x="127.246094"/>
       <use xlink:href="#DejaVuSans-30" x="190.869141"/>
      </g>
     </g>
    </g>
    <g id="xtick_6">
     <g id="line2d_6">
      <g>
       <use xlink:href="#mc5eece6d35" x="366.340909" y="320.4" style="stroke: #000000; stroke-width: 0.8"/>
      </g>
     </g>
     <g id="text_6">
      <!-- 2022 -->
      <g transform="translate(351.070909 336.518125) scale(0.12 -0.12)">
       <use xlink:href="#DejaVuSans-32"/>
       <use xlink:href="#DejaVuSans-30" x="63.623047"/>
       <use xlink:href="#DejaVuSans-32" x="127.246094"/>
       <use xlink:href="#DejaVuSans-32" x="190.869141"/>
      </g>
     </g>
    </g>
    <g id="xtick_7">
     <g id="line2d_7">
      <g>
       <use xlink:href="#mc5eece6d35" x="423.409091" y="320.4" style="stroke: #000000; stroke-width: 0.8"/>
      </g>
     </g>
     <g id="text_7">
      <!-- 2025 -->
      <g transform="translate(408.139091 336.518125) scale(0.12 -0.12)">
       <use xlink:href="#DejaVuSans-32"/>
       <use xlink:href="#DejaVuSans-30" x="63.623047"/>
       <use xlink:href="#DejaVuSans-32" x="127.246094"/>
       <use xlink:href="#DejaVuSans-35" x="190.869141"/>
      </g>
     </g>
    </g>
    <g id="xtick_8">
     <g id="line2d_8">
      <g>
       <use xlink:href="#mc5eece6d35" x="480.477273" y="320.4" style="stroke: #000000; stroke-width: 0.8"/>
      </g>
     </g>
     <g id="text_8">
      <!-- 2027 -->
      <g transform="translate(465.207273 336.518125) scale(0.12 -0.12)">
       <use xlink:href="#DejaVuSans-32"/>
       <use xlink:href="#DejaVuSans-30" x="63.623047"/>
       <use xlink:href="#DejaVuSans-32" x="127.246094"/>
       <use xlink:href="#DejaVuSans-37" x="190.869141"/>
      </g>
     </g>
    </g>
    <g id="xtick_9">
     <g id="line2d_9">
      <g>
       <use xlink:href="#mc5eece6d35" x="537.545455" y="320.4" style="stroke: #000000; stroke-width: 0.8"/>
      </g>
     </g>
     <g id="text_9">
      <!-- 2030 -->
      <g transform="translate(522.275455 336.518125) scale(0.12 -0.12)">
       <defs>
        <path id="DejaVuSans-33" d="M 2597 2516 
Q 3050 2419 3304 2112 
Q 3559 1806 3559 1356 
Q 3559 666 3084 287 
Q 2609 -91 1734 -91 
Q 1441 -91 1130 -33 
Q 819 25 488 141 
L 488 750 
Q 750 597 1062 519 
Q 1375 441 1716 441 
Q 2309 441 2620 675 
Q 2931 909 2931 1356 
Q 2931 1769 2642 2001 
Q 2353 2234 1838 2234 
L 1294 2234 
L 1294 2753 
L 1863 2753 
Q 2328 2753 2575 2939 
Q 2822 3125 2822 3475 
Q 2822 3834 2567 4026 
Q 2313 4219 1838 4219 
Q 1578 4219 1281 4162 
Q 984 4106 628 3988 
L 628 4550 
Q 988 4650 1302 4700 
Q 1616 4750 1894 4750 
Q 2613 4750 3031 4423 
Q 3450 4097 3450 3541 
Q 3450 3153 3228 2886 
Q 3006 2619 2597 2516 
z
" transform="scale(0.015625)"/>
       </defs>
       <use xlink:href="#DejaVuSans-32"/>
       <use xlink:href="#DejaVuSans-30" x="63.623047"/>
       <use xlink:href="#DejaVuSans-33" x="127.246094"/>
       <use xlink:href="#DejaVuSans-30" x="190.869141"/>
      </g>
     </g>
    </g>
    <g id="text_10">
     <!-- Year -->
     <g transform="translate(316.21875 354.411406) scale(0.15 -0.15)">
      <defs>
       <path id="DejaVuSans-59" d="M -13 4666 
L 666 4666 
L 1959 2747 
L 3244 4666 
L 3922 4666 
L 2272 2222 
L 2272 0 
L 1638 0 
L 1638 2222 
L -13 4666 
z
" transform="scale(0.015625)"/>
       <path id="DejaVuSans-65" d="M 3597 1894 
L 3597 1613 
L 953 1613 
Q 991 1019 1311 708 
Q 1631 397 2203 397 
Q 2534 397 2845 478 
Q 3156 559 3463 722 
L 3463 178 
Q 3153 47 2828 -22 
Q 2503 -91 2169 -91 
Q 1331 -91 842 396 
Q 353 884 353 1716 
Q 353 2575 817 3079 
Q 1281 3584 2069 3584 
Q 2775 3584 3186 3129 
Q 3597 2675 3597 1894 
z
M 3022 2063 
Q 3016 2534 2758 2815 
Q 2500 3097 2075 3097 
Q 1594 3097 1305 2825 
Q 1016 2553 972 2059 
L 3022 2063 
z
" transform="scale(0.015625)"/>
       <path id="DejaVuSans-61" d="M 2194 1759 
Q 1497 1759 1228 1600 
Q 959 1441 959 1056 
Q 959 750 1161 570 
Q 1363 391 1709 391 
Q 2188 391 2477 730 
Q 2766 1069 2766 1631 
L 2766 1759 
L 2194 1759 
z
M 3341 1997 
L 3341 0 
L 2766 0 
L 2766 531 
Q 2569 213 2275 61 
Q 1981 -91 1556 -91 
Q 1019 -91 701 211 
Q 384 513 384 1019 
Q 384 1609 779 1909 
Q 1175 2209 1959 2209 
L 2766 2209 
L 2766 2266 
Q 2766 2663 2505 2880 
Q 2244 3097 1772 3097 
Q 1472 3097 1187 3025 
Q 903 2953 641 2809 
L 641 3341 
Q 956 3463 1253 3523 
Q 1550 3584 1831 3584 
Q 2591 3584 2966 3190 
Q 3341 2797 3341 1997 
z
" transform="scale(0.015625)"/>
       <path id="DejaVuSans-72" d="M 2631 2963 
Q 2534 3019 2420 3045 
Q 2306 3072 2169 3072 
Q 1681 3072 1420 2755 
Q 1159 2438 1159 1844 
L 1159 0 
L 581 0 
L 581 3500 
L 1159 3500 
L 1159 2956 
Q 1341 3275 1631 3429 
Q 1922 3584 2338 3584 
Q 2397 3584 2469 3576 
Q 2541 3569 2628 3553 
L 2631 2963 
z
" transform="scale(0.015625)"/>
      </defs>
      <use xlink:href="#DejaVuSans-59"/>
      <use xlink:href="#DejaVuSans-65" x="47.833984"/>
      <use xlink:href="#DejaVuSans-61" x="109.357422"/>
      <use xlink:href="#DejaVuSans-72" x="170.636719"/>
     </g>
    </g>
   </g>
   <g id="matplotlib.axis_2">
    <g id="ytick_1">
     <g id="line2d_10">
      <defs>
       <path id="m4839c97bff" d="M 0 0 
L -3.5 0 
" style="stroke: #000000; stroke-width: 0.8"/>
      </defs>
      <g>
       <use xlink:href="#m4839c97bff" x="81" y="290.172833" style="stroke: #000000; stroke-width: 0.8"/>
      </g>
     </g>
     <g id="text_11">
      <!-- 25 -->
      <g transform="translate(58.73 294.731896) scale(0.12 -0.12)">
       <use xlink:href="#DejaVuSans-32"/>
       <use xlink:href="#DejaVuSans-35" x="63.623047"/>
      </g>
     </g>
    </g>
    <g id="ytick_2">
     <g id="line2d_11">
      <g>
       <use xlink:href="#m4839c97bff" x="81" y="256.274435" style="stroke: #000000; stroke-width: 0.8"/>
      </g>
     </g>
     <g id="text_12">
      <!-- 30 -->
      <g transform="translate(58.73 260.833498) scale(0.12 -0.12)">
       <use xlink:href="#DejaVuSans-33"/>
       <use xlink:href="#DejaVuSans-30" x="63.623047"/>
      </g>
     </g>
    </g>
    <g id="ytick_3">
     <g id="line2d_12">
      <g>
       <use xlink:href="#m4839c97bff" x="81" y="222.376037" style="stroke: #000000; stroke-width: 0.8"/>
      </g>
     </g>
     <g id="text_13">
      <!-- 35 -->
      <g transform="translate(58.73 226.9351) scale(0.12 -0.12)">
       <use xlink:href="#DejaVuSans-33"/>
       <use xlink:href="#DejaVuSans-35" x="63.623047"/>
      </g>
     </g>
    </g>
    <g id="ytick_4">
     <g id="line2d_13">
      <g>
       <use xlink:href="#m4839c97bff" x="81" y="188.477639" style="stroke: #000000; stroke-width: 0.8"/>
      </g>
     </g>
     <g id="text_14">
      <!-- 40 -->
      <g transform="translate(58.73 193.036702) scale(0.12 -0.12)">
       <defs>
        <path id="DejaVuSans-34" d="M 2419 4116 
L 825 1625 
L 2419 1625 
L 2419 4116 
z
M 2253 4666 
L 3047 4666 
L 3047 1625 
L 3713 1625 
L 3713 1100 
L 3047 1100 
L 3047 0 
L 2419 0 
L 2419 1100 
L 313 1100 
L 313 1709 
L 2253 4666 
z
" transform="scale(0.015625)"/>
       </defs>
       <use xlink:href="#DejaVuSans-34"/>
       <use xlink:href="#DejaVuSans-30" x="63.623047"/>
      </g>
     </g>
    </g>
    <g id="ytick_5">
     <g id="line2d_14">
      <g>
       <use xlink:href="#m4839c97bff" x="81" y="154.579241" style="stroke: #000000; stroke-width: 0.8"/>
      </g>
     </g>
     <g id="text_15">
      <!-- 45 -->
      <g transform="translate(58.73 159.138304) scale(0.12 -0.12)">
       <use xlink:href="#DejaVuSans-34"/>
       <use xlink:href="#DejaVuSans-35" x="63.623047"/>
      </g>
     </g>
    </g>
    <g id="ytick_6">
     <g id="line2d_15">
      <g>
       <use xlink:href="#m4839c97bff" x="81" y="120.680843" style="stroke: #000000; stroke-width: 0.8"/>
      </g>
     </g>
     <g id="text_16">
      <!-- 50 -->
      <g transform="translate(58.73 125.239906) scale(0.12 -0.12)">
       <use xlink:href="#DejaVuSans-35"/>
       <use xlink:href="#DejaVuSans-30" x="63.623047"/>
      </g>
     </g>
    </g>
    <g id="ytick_7">
     <g id="line2d_16">
      <g>
       <use xlink:href="#m4839c97bff" x="81" y="86.782445" style="stroke: #000000; stroke-width: 0.8"/>
      </g>
     </g>
     <g id="text_17">
      <!-- 55 -->
      <g transform="translate(58.73 91.341508) scale(0.12 -0.12)">
       <use xlink:href="#DejaVuSans-35"/>
       <use xlink:href="#DejaVuSans-35" x="63.623047"/>
      </g>
     </g>
    </g>
    <g id="ytick_8">
     <g id="line2d_17">
      <g>
       <use xlink:href="#m4839c97bff" x="81" y="52.884047" style="stroke: #000000; stroke-width: 0.8"/>
      </g>
     </g>
     <g id="text_18">
      <!-- 60 -->
      <g transform="translate(58.73 57.44311) scale(0.12 -0.12)">
       <defs>
        <path id="DejaVuSans-36" d="M 2113 2584 
Q 1688 2584 1439 2293 
Q 1191 2003 1191 1497 
Q 1191 994 1439 701 
Q 1688 409 2113 409 
Q 2538 409 2786 701 
Q 3034 994 3034 1497 
Q 3034 2003 2786 2293 
Q 2538 2584 2113 2584 
z
M 3366 4563 
L 3366 3988 
Q 3128 4100 2886 4159 
Q 2644 4219 2406 4219 
Q 1781 4219 1451 3797 
Q 1122 3375 1075 2522 
Q 1259 2794 1537 2939 
Q 1816 3084 2150 3084 
Q 2853 3084 3261 2657 
Q 3669 2231 3669 1497 
Q 3669 778 3244 343 
Q 2819 -91 2113 -91 
Q 1303 -91 875 529 
Q 447 1150 447 2328 
Q 447 3434 972 4092 
Q 1497 4750 2381 4750 
Q 2619 4750 2861 4703 
Q 3103 4656 3366 4563 
z
" transform="scale(0.015625)"/>
       </defs>
       <use xlink:href="#DejaVuSans-36"/>
       <use xlink:href="#DejaVuSans-30" x="63.623047"/>
      </g>
     </g>
    </g>
    <g id="text_19">
     <!-- Total coral cover (%) -->
     <g transform="translate(51.610469 258.769922) rotate(-90) scale(0.15 -0.15)">
      <defs>
       <path id="DejaVuSans-54" d="M -19 4666 
L 3928 4666 
L 3928 4134 
L 2272 4134 
L 2272 0 
L 1638 0 
L 1638 4134 
L -19 4134 
L -19 4666 
z
" transform="scale(0.015625)"/>
       <path id="DejaVuSans-6f" d="M 1959 3097 
Q 1497 3097 1228 2736 
Q 959 2375 959 1747 
Q 959 1119 1226 758 
Q 1494 397 1959 397 
Q 2419 397 2687 759 
Q 2956 1122 2956 1747 
Q 2956 2369 2687 2733 
Q 2419 3097 1959 3097 
z
M 1959 3584 
Q 2709 3584 3137 3096 
Q 3566 2609 3566 1747 
Q 3566 888 3137 398 
Q 2709 -91 1959 -91 
Q 1206 -91 779 398 
Q 353 888 353 1747 
Q 353 2609 779 3096 
Q 1206 3584 1959 3584 
z
" transform="scale(0.015625)"/>
       <path id="DejaVuSans-74" d="M 1172 4494 
L 1172 3500 
L 2356 3500 
L 2356 3053 
L 1172 3053 
L 1172 1153 
Q 1172 725 1289 603 
Q 1406 481 1766 481 
L 2356 481 
L 2356 0 
L 1766 0 
Q 1100 0 847 248 
Q 594 497 594 1153 
L 594 3053 
L 172 3053 
L 172 3500 
L 594 3500 
L 594 4494 
L 1172 4494 
z
" transform="scale(0.015625)"/>
       <path id="DejaVuSans-6c" d="M 603 4863 
L 1178 4863 
L 1178 0 
L 603 0 
L 603 4863 
z
" transform="scale(0.015625)"/>
       <path id="DejaVuSans-20" transform="scale(0.015625)"/>
       <path id="DejaVuSans-63" d="M 3122 3366 
L 3122 2828 
Q 2878 2963 2633 3030 
Q 2388 3097 2138 3097 
Q 1578 3097 1268 2742 
Q 959 2388 959 1747 
Q 959 1106 1268 751 
Q 1578 397 2138 397 
Q 2388 397 2633 464 
Q 2878 531 3122 666 
L 3122 134 
Q 2881 22 2623 -34 
Q 2366 -91 2075 -91 
Q 1284 -91 818 406 
Q 353 903 353 1747 
Q 353 2603 823 3093 
Q 1294 3584 2113 3584 
Q 2378 3584 2631 3529 
Q 2884 3475 3122 3366 
z
" transform="scale(0.015625)"/>
       <path id="DejaVuSans-76" d="M 191 3500 
L 800 3500 
L 1894 563 
L 2988 3500 
L 3597 3500 
L 2284 0 
L 1503 0 
L 191 3500 
z
" transform="scale(0.015625)"/>
       <path id="DejaVuSans-28" d="M 1984 4856 
Q 1566 4138 1362 3434 
Q 1159 2731 1159 2009 
Q 1159 1288 1364 580 
Q 1569 -128 1984 -844 
L 1484 -844 
Q 1016 -109 783 600 
Q 550 1309 550 2009 
Q 550 2706 781 3412 
Q 1013 4119 1484 4856 
L 1984 4856 
z
" transform="scale(0.015625)"/>
       <path id="DejaVuSans-25" d="M 4653 2053 
Q 4381 2053 4226 1822 
Q 4072 1591 4072 1178 
Q 4072 772 4226 539 
Q 4381 306 4653 306 
Q 4919 306 5073 539 
Q 5228 772 5228 1178 
Q 5228 1588 5073 1820 
Q 4919 2053 4653 2053 
z
M 4653 2450 
Q 5147 2450 5437 2106 
Q 5728 1763 5728 1178 
Q 5728 594 5436 251 
Q 5144 -91 4653 -91 
Q 4153 -91 3862 251 
Q 3572 594 3572 1178 
Q 3572 1766 3864 2108 
Q 4156 2450 4653 2450 
z
M 1428 4353 
Q 1159 4353 1004 4120 
Q 850 3888 850 3481 
Q 850 3069 1003 2837 
Q 1156 2606 1428 2606 
Q 1700 2606 1854 2837 
Q 2009 3069 2009 3481 
Q 2009 3884 1853 4118 
Q 1697 4353 1428 4353 
z
M 4250 4750 
L 4750 4750 
L 1831 -91 
L 1331 -91 
L 4250 4750 
z
M 1428 4750 
Q 1922 4750 2215 4408 
Q 2509 4066 2509 3481 
Q 2509 2891 2217 2550 
Q 1925 2209 1428 2209 
Q 931 2209 642 2551 
Q 353 2894 353 3481 
Q 353 4063 643 4406 
Q 934 4750 1428 4750 
z
" transform="scale(0.015625)"/>
       <path id="DejaVuSans-29" d="M 513 4856 
L 1013 4856 
Q 1481 4119 1714 3412 
Q 1947 2706 1947 2009 
Q 1947 1309 1714 600 
Q 1481 -109 1013 -844 
L 513 -844 
Q 928 -128 1133 580 
Q 1338 1288 1338 2009 
Q 1338 2731 1133 3434 
Q 928 4138 513 4856 
z
" transform="scale(0.015625)"/>
      </defs>
      <use xlink:href="#DejaVuSans-54"/>
      <use xlink:href="#DejaVuSans-6f" x="44.083984"/>
      <use xlink:href="#DejaVuSans-74" x="105.265625"/>
      <use xlink:href="#DejaVuSans-61" x="144.474609"/>
      <use xlink:href="#DejaVuSans-6c" x="205.753906"/>
      <use xlink:href="#DejaVuSans-20" x="233.537109"/>
      <use xlink:href="#DejaVuSans-63" x="265.324219"/>
      <use xlink:href="#DejaVuSans-6f" x="320.304688"/>
      <use xlink:href="#DejaVuSans-72" x="381.486328"/>
      <use xlink:href="#DejaVuSans-61" x="422.599609"/>
      <use xlink:href="#DejaVuSans-6c" x="483.878906"/>
      <use xlink:href="#DejaVuSans-20" x="511.662109"/>
      <use xlink:href="#DejaVuSans-63" x="543.449219"/>
      <use xlink:href="#DejaVuSans-6f" x="598.429688"/>
      <use xlink:href="#DejaVuSans-76" x="659.611328"/>
      <use xlink:href="#DejaVuSans-65" x="718.791016"/>
      <use xlink:href="#DejaVuSans-72" x="780.314453"/>
      <use xlink:href="#DejaVuSans-20" x="821.427734"/>
      <use xlink:href="#DejaVuSans-28" x="853.214844"/>
      <use xlink:href="#DejaVuSans-25" x="892.228516"/>
      <use xlink:href="#DejaVuSans-29" x="987.248047"/>
     </g>
    </g>
   </g>
   <g id="line2d_18">
    <path d="M 103.827273 307.8 
L 126.654545 300.607285 
L 149.481818 292.691985 
L 172.309091 283.24395 
L 195.136364 271.597676 
L 217.963636 258.116327 
L 240.790909 245.037153 
L 263.618182 229.50785 
L 286.445455 214.656672 
L 309.272727 197.415493 
L 332.1 181.299649 
L 354.927273 164.710397 
L 377.754545 149.234683 
L 400.581818 136.30686 
L 423.409091 122.42258 
L 446.236364 109.524044 
L 469.063636 99.189374 
L 491.890909 88.777495 
L 514.718182 80.888215 
L 537.545455 74.669575 
L 560.372727 68.836314 
" clip-path="url(#p3141641610)" style="fill: none; stroke-dasharray: 3.7,1.6; stroke-dashoffset: 0; stroke: #1f77b4; stroke-opacity: 0.6"/>
   </g>
   <g id="line2d_19">
    <path d="M 103.827273 307.8 
L 126.654545 299.238963 
L 149.481818 291.108431 
L 172.309091 282.629255 
L 195.136364 271.661074 
L 217.963636 257.432627 
L 240.790909 244.222846 
L 263.618182 230.572184 
L 286.445455 217.137923 
L 309.272727 200.948403 
L 332.1 183.857525 
L 354.927273 165.785996 
L 377.754545 147.953415 
L 400.581818 132.154223 
L 423.409091 117.743458 
L 446.236364 102.041442 
L 469.063636 90.839504 
L 491.890909 82.052338 
L 514.718182 73.837584 
L 537.545455 68.130785 
L 560.372727 62.521163 
" clip-path="url(#p3141641610)" style="fill: none; stroke-dasharray: 3.7,1.6; stroke-dashoffset: 0; stroke: #ff7f0e; stroke-opacity: 0.6"/>
   </g>
   <g id="line2d_20">
    <path d="M 103.827273 307.8 
L 126.654545 304.239258 
L 149.481818 296.354384 
L 172.309091 287.38364 
L 195.136364 274.941045 
L 217.963636 263.81612 
L 240.790909 249.480356 
L 263.618182 236.023528 
L 286.445455 219.943228 
L 309.272727 202.017091 
L 332.1 183.552683 
L 354.927273 163.053069 
L 377.754545 145.703709 
L 400.581818 127.672782 
L 423.409091 113.397132 
L 446.236364 99.562106 
L 469.063636 86.265545 
L 491.890909 76.873355 
L 514.718182 68.651279 
L 537.545455 61.848248 
L 560.372727 57.383447 
" clip-path="url(#p3141641610)" style="fill: none; stroke-dasharray: 3.7,1.6; stroke-dashoffset: 0; stroke: #2ca02c; stroke-opacity: 0.6"/>
   </g>
   <g id="line2d_21">
    <path d="M 103.827273 307.8 
L 126.654545 301.384891 
L 149.481818 291.624921 
L 172.309091 282.394681 
L 195.136364 271.448642 
L 217.963636 257.58493 
L 240.790909 244.624698 
L 263.618182 231.192149 
L 286.445455 216.09544 
L 309.272727 200.312448 
L 332.1 182.336644 
L 354.927273 164.716387 
L 377.754545 147.868219 
L 400.581818 132.023101 
L 423.409091 116.966045 
L 446.236364 103.479124 
L 469.063636 91.385956 
L 491.890909 81.097877 
L 514.718182 72.917068 
L 537.545455 66.595261 
L 560.372727 60.584952 
" clip-path="url(#p3141641610)" style="fill: none; stroke-dasharray: 3.7,1.6; stroke-dashoffset: 0; stroke: #d62728; stroke-opacity: 0.6"/>
   </g>
   <g id="line2d_22">
    <path d="M 103.827273 307.8 
L 126.654545 307.087076 
L 149.481818 299.250312 
L 172.309091 288.261135 
L 195.136364 278.068609 
L 217.963636 263.737899 
L 240.790909 249.79192 
L 263.618182 233.879199 
L 286.445455 217.983499 
L 309.272727 200.222327 
L 332.1 179.945832 
L 354.927273 162.357524 
L 377.754545 144.498985 
L 400.581818 128.026212 
L 423.409091 113.374502 
L 446.236364 99.277232 
L 469.063636 87.535497 
L 491.890909 78.674451 
L 514.718182 71.308994 
L 537.545455 65.612845 
L 560.372727 59.834162 
" clip-path="url(#p3141641610)" style="fill: none; stroke-dasharray: 3.7,1.6; stroke-dashoffset: 0; stroke: #9467bd; stroke-opacity: 0.6"/>
   </g>
   <g id="line2d_23">
    <path d="M 103.827273 307.8 
L 126.654545 298.053569 
L 149.481818 292.151068 
L 172.309091 282.141396 
L 195.136364 271.729919 
L 217.963636 260.542804 
L 240.790909 244.562696 
L 263.618182 230.625022 
L 286.445455 214.519818 
L 309.272727 197.906741 
L 332.1 182.534325 
L 354.927273 165.736742 
L 377.754545 151.22281 
L 400.581818 135.37037 
L 423.409091 120.809182 
L 446.236364 107.505299 
L 469.063636 95.370198 
L 491.890909 85.987993 
L 514.718182 77.661418 
L 537.545455 71.587878 
L 560.372727 66.133339 
" clip-path="url(#p3141641610)" style="fill: none; stroke-dasharray: 3.7,1.6; stroke-dashoffset: 0; stroke: #8c564b; stroke-opacity: 0.6"/>
   </g>
   <g id="line2d_24">
    <path d="M 103.827273 307.8 
L 126.654545 304.623756 
L 149.481818 297.388351 
L 172.309091 286.343903 
L 195.136364 275.710915 
L 217.963636 260.830244 
L 240.790909 247.446302 
L 263.618182 232.811909 
L 286.445455 217.259445 
L 309.272727 200.220381 
L 332.1 180.593454 
L 354.927273 162.064663 
L 377.754545 143.810761 
L 400.581818 127.368605 
L 423.409091 112.776134 
L 446.236364 99.839659 
L 469.063636 87.534166 
L 491.890909 79.069148 
L 514.718182 72.069102 
L 537.545455 66.307724 
L 560.372727 61.416943 
" clip-path="url(#p3141641610)" style="fill: none; stroke-dasharray: 3.7,1.6; stroke-dashoffset: 0; stroke: #e377c2; stroke-opacity: 0.6"/>
   </g>
   <g id="line2d_25">
    <path d="M 103.827273 307.8 
L 126.654545 298.707999 
L 149.481818 289.090822 
L 172.309091 278.954928 
L 195.136364 269.294964 
L 217.963636 255.826543 
L 240.790909 244.137888 
L 263.618182 228.435414 
L 286.445455 215.29139 
L 309.272727 200.681949 
L 332.1 186.160478 
L 354.927273 171.010905 
L 377.754545 154.529479 
L 400.581818 139.8172 
L 423.409091 126.197161 
L 446.236364 113.213429 
L 469.063636 100.992467 
L 491.890909 90.319009 
L 514.718182 81.754818 
L 537.545455 74.908523 
L 560.372727 69.44866 
" clip-path="url(#p3141641610)" style="fill: none; stroke-dasharray: 3.7,1.6; stroke-dashoffset: 0; stroke: #7f7f7f; stroke-opacity: 0.6"/>
   </g>
   <g id="line2d_26">
    <path d="M 103.827273 307.8 
L 126.654545 294.384773 
L 149.481818 285.746217 
L 172.309091 275.35144 
L 195.136364 262.449081 
L 217.963636 252.113608 
L 240.790909 242.201279 
L 263.618182 227.427947 
L 286.445455 212.964981 
L 309.272727 199.00496 
L 332.1 183.038845 
L 354.927273 166.225288 
L 377.754545 149.745858 
L 400.581818 134.264154 
L 423.409091 119.228397 
L 446.236364 106.821734 
L 469.063636 94.483628 
L 491.890909 85.479479 
L 514.718182 77.250747 
L 537.545455 70.404452 
L 560.372727 65.07438 
" clip-path="url(#p3141641610)" style="fill: none; stroke-dasharray: 3.7,1.6; stroke-dashoffset: 0; stroke: #bcbd22; stroke-opacity: 0.6"/>
   </g>
   <g id="line2d_27">
    <path d="M 103.827273 307.8 
L 126.654545 296.645477 
L 149.481818 290.639805 
L 172.309091 279.449511 
L 195.136364 269.930901 
L 217.963636 256.76751 
L 240.790909 242.905594 
L 263.618182 228.398751 
L 286.445455 212.037047 
L 309.272727 195.192238 
L 332.1 179.132476 
L 354.927273 162.482655 
L 377.754545 146.026522 
L 400.581818 128.596625 
L 423.409091 114.29169 
L 446.236364 101.57952 
L 469.063636 90.399546 
L 491.890909 81.382086 
L 514.718182 73.655211 
L 537.545455 66.244493 
L 560.372727 60.99296 
" clip-path="url(#p3141641610)" style="fill: none; stroke-dasharray: 3.7,1.6; stroke-dashoffset: 0; stroke: #17becf; stroke-opacity: 0.6"/>
   </g>
   <g id="line2d_28">
    <path d="M 103.827273 307.8 
L 126.654545 295.378215 
L 149.481818 287.864952 
L 172.309091 277.219449 
L 195.136364 264.147815 
L 217.963636 252.374878 
L 240.790909 239.048757 
L 263.618182 225.346317 
L 286.445455 210.917164 
L 309.272727 194.893021 
L 332.1 177.103061 
L 354.927273 160.202998 
L 377.754545 143.917256 
L 400.581818 129.851935 
L 423.409091 115.970317 
L 446.236364 102.260422 
L 469.063636 90.479417 
L 491.890909 82.539553 
L 514.718182 75.355137 
L 537.545455 69.026008 
L 560.372727 63.657331 
" clip-path="url(#p3141641610)" style="fill: none; stroke-dasharray: 3.7,1.6; stroke-dashoffset: 0; stroke: #1f77b4; stroke-opacity: 0.6"/>
   </g>
   <g id="line2d_29">
    <path d="M 103.827273 307.8 
L 126.654545 305.709913 
L 149.481818 296.947057 
L 172.309091 287.142103 
L 195.136364 275.1304 
L 217.963636 263.317667 
L 240.790909 245.750658 
L 263.618182 232.537791 
L 286.445455 213.51511 
L 309.272727 196.349282 
L 332.1 177.064478 
L 354.927273 159.217919 
L 377.754545 142.168742 
L 400.581818 124.191062 
L 423.409091 110.106438 
L 446.236364 96.821192 
L 469.063636 85.026876 
L 491.890909 75.819055 
L 514.718182 69.187747 
L 537.545455 62.537803 
L 560.372727 57.724896 
" clip-path="url(#p3141641610)" style="fill: none; stroke-dasharray: 3.7,1.6; stroke-dashoffset: 0; stroke: #ff7f0e; stroke-opacity: 0.6"/>
   </g>
   <g id="line2d_30">
    <path d="M 103.827273 307.8 
L 126.654545 303.167875 
L 149.481818 294.895336 
L 172.309091 285.848247 
L 195.136364 275.99002 
L 217.963636 263.835617 
L 240.790909 247.28816 
L 263.618182 232.866098 
L 286.445455 215.284709 
L 309.272727 198.935383 
L 332.1 181.785532 
L 354.927273 163.79454 
L 377.754545 148.137119 
L 400.581818 132.779215 
L 423.409091 117.809352 
L 446.236364 103.456494 
L 469.063636 91.630229 
L 491.890909 81.306874 
L 514.718182 74.584379 
L 537.545455 68.051579 
L 560.372727 62.706864 
" clip-path="url(#p3141641610)" style="fill: none; stroke-dasharray: 3.7,1.6; stroke-dashoffset: 0; stroke: #2ca02c; stroke-opacity: 0.6"/>
   </g>
   <g id="line2d_31">
    <path d="M 103.827273 307.8 
L 126.654545 302.858545 
L 149.481818 293.917487 
L 172.309091 285.420085 
L 195.136364 275.684955 
L 217.963636 262.505405 
L 240.790909 249.110668 
L 263.618182 235.271836 
L 286.445455 219.890065 
L 309.272727 202.884846 
L 332.1 185.699222 
L 354.927273 167.460629 
L 377.754545 148.272234 
L 400.581818 132.715983 
L 423.409091 116.880849 
L 446.236364 104.009602 
L 469.063636 92.116777 
L 491.890909 82.663353 
L 514.718182 75.588094 
L 537.545455 69.057957 
L 560.372727 63.443676 
" clip-path="url(#p3141641610)" style="fill: none; stroke-dasharray: 3.7,1.6; stroke-dashoffset: 0; stroke: #d62728; stroke-opacity: 0.6"/>
   </g>
   <g id="line2d_32">
    <path d="M 103.827273 307.8 
L 126.654545 293.167039 
L 149.481818 284.201213 
L 172.309091 276.37497 
L 195.136364 266.041045 
L 217.963636 253.968775 
L 240.790909 243.576916 
L 263.618182 230.999635 
L 286.445455 215.680673 
L 309.272727 201.149643 
L 332.1 186.154488 
L 354.927273 170.558301 
L 377.754545 154.927504 
L 400.581818 141.660229 
L 423.409091 126.125277 
L 446.236364 113.550219 
L 469.063636 101.906326 
L 491.890909 90.816208 
L 514.718182 82.280637 
L 537.545455 75.772464 
L 560.372727 70.190797 
" clip-path="url(#p3141641610)" style="fill: none; stroke-dasharray: 3.7,1.6; stroke-dashoffset: 0; stroke: #9467bd; stroke-opacity: 0.6"/>
   </g>
   <g id="line2d_33">
    <path d="M 103.827273 307.8 
L 126.654545 303.790844 
L 149.481818 295.722014 
L 172.309091 285.03567 
L 195.136364 274.15924 
L 217.963636 261.092035 
L 240.790909 247.744555 
L 263.618182 232.762687 
L 286.445455 218.122923 
L 309.272727 201.39192 
L 332.1 181.9293 
L 354.927273 163.942302 
L 377.754545 147.093468 
L 400.581818 131.840062 
L 423.409091 117.453925 
L 446.236364 104.478845 
L 469.063636 92.050218 
L 491.890909 82.717266 
L 514.718182 73.016907 
L 537.545455 67.105105 
L 560.372727 61.870213 
" clip-path="url(#p3141641610)" style="fill: none; stroke-dasharray: 3.7,1.6; stroke-dashoffset: 0; stroke: #8c564b; stroke-opacity: 0.6"/>
   </g>
   <g id="line2d_34">
    <path d="M 103.827273 307.8 
L 126.654545 294.713766 
L 149.481818 284.640457 
L 172.309091 272.794051 
L 195.136364 262.787928 
L 217.963636 250.646473 
L 240.790909 239.932292 
L 263.618182 227.589031 
L 286.445455 213.829235 
L 309.272727 198.079926 
L 332.1 179.699562 
L 354.927273 163.614164 
L 377.754545 150.739589 
L 400.581818 138.253721 
L 423.409091 123.663246 
L 446.236364 112.089907 
L 469.063636 100.050652 
L 491.890909 90.8415 
L 514.718182 84.423848 
L 537.545455 78.418863 
L 560.372727 71.668414 
" clip-path="url(#p3141641610)" style="fill: none; stroke-dasharray: 3.7,1.6; stroke-dashoffset: 0; stroke: #e377c2; stroke-opacity: 0.6"/>
   </g>
   <g id="line2d_35">
    <path d="M 103.827273 307.8 
L 126.654545 295.413001 
L 149.481818 287.406058 
L 172.309091 279.704839 
L 195.136364 268.639388 
L 217.963636 255.823581 
L 240.790909 240.632018 
L 263.618182 227.451613 
L 286.445455 212.292673 
L 309.272727 196.659095 
L 332.1 179.158435 
L 354.927273 162.102602 
L 377.754545 146.690119 
L 400.581818 130.008349 
L 423.409091 115.476447 
L 446.236364 102.455441 
L 469.063636 91.588296 
L 491.890909 82.717932 
L 514.718182 74.742125 
L 537.545455 68.774414 
L 560.372727 63.640026 
" clip-path="url(#p3141641610)" style="fill: none; stroke-dasharray: 3.7,1.6; stroke-dashoffset: 0; stroke: #7f7f7f; stroke-opacity: 0.6"/>
   </g>
   <g id="line2d_36">
    <path d="M 103.827273 307.8 
L 126.654545 304.751577 
L 149.481818 297.753424 
L 172.309091 287.176932 
L 195.136364 276.372689 
L 217.963636 263.352039 
L 240.790909 248.727041 
L 263.618182 231.336774 
L 286.445455 213.551735 
L 309.272727 196.183694 
L 332.1 178.967409 
L 354.927273 159.935429 
L 377.754545 141.179005 
L 400.581818 124.53118 
L 423.409091 108.788563 
L 446.236364 95.82014 
L 469.063636 84.529677 
L 491.890909 76.692314 
L 514.718182 69.822724 
L 537.545455 63.529537 
L 560.372727 59.134623 
" clip-path="url(#p3141641610)" style="fill: none; stroke-dasharray: 3.7,1.6; stroke-dashoffset: 0; stroke: #bcbd22; stroke-opacity: 0.6"/>
   </g>
   <g id="line2d_37">
    <path d="M 103.827273 307.8 
L 126.654545 300.982202 
L 149.481818 291.599635 
L 172.309091 281.112185 
L 195.136364 269.820421 
L 217.963636 254.264154 
L 240.790909 242.444298 
L 263.618182 228.232392 
L 286.445455 210.046834 
L 309.272727 193.551894 
L 332.1 176.048782 
L 354.927273 160.050577 
L 377.754545 145.012823 
L 400.581818 130.086224 
L 423.409091 115.534353 
L 446.236364 100.471307 
L 469.063636 89.587522 
L 491.890909 79.718102 
L 514.718182 73.633912 
L 537.545455 66.440177 
L 560.372727 62.621002 
" clip-path="url(#p3141641610)" style="fill: none; stroke-dasharray: 3.7,1.6; stroke-dashoffset: 0; stroke: #17becf; stroke-opacity: 0.6"/>
   </g>
   <g id="line2d_38">
    <path d="M 103.827273 307.8 
L 126.654545 303.395202 
L 149.481818 295.23196 
L 172.309091 285.104698 
L 195.136364 273.36545 
L 217.963636 258.911198 
L 240.790909 242.173615 
L 263.618182 227.4016 
L 286.445455 211.578278 
L 309.272727 194.229774 
L 332.1 175.318626 
L 354.927273 159.299787 
L 377.754545 142.737159 
L 400.581818 125.229388 
L 423.409091 110.364689 
L 446.236364 97.119378 
L 469.063636 85.768347 
L 491.890909 77.508332 
L 514.718182 70.642735 
L 537.545455 64.868046 
L 560.372727 59.625166 
" clip-path="url(#p3141641610)" style="fill: none; stroke-dasharray: 3.7,1.6; stroke-dashoffset: 0; stroke: #1f77b4; stroke-opacity: 0.6"/>
   </g>
   <g id="line2d_39">
    <path d="M 103.827273 307.8 
L 126.654545 303.163122 
L 149.481818 293.679783 
L 172.309091 284.285696 
L 195.136364 274.271772 
L 217.963636 259.230828 
L 240.790909 245.506938 
L 263.618182 232.141551 
L 286.445455 215.131955 
L 309.272727 197.175485 
L 332.1 180.464995 
L 354.927273 162.388807 
L 377.754545 144.268024 
L 400.581818 129.595681 
L 423.409091 114.590542 
L 446.236364 101.108945 
L 469.063636 88.665675 
L 491.890909 79.913786 
L 514.718182 73.372999 
L 537.545455 66.1573 
L 560.372727 59.770931 
" clip-path="url(#p3141641610)" style="fill: none; stroke-dasharray: 3.7,1.6; stroke-dashoffset: 0; stroke: #ff7f0e; stroke-opacity: 0.6"/>
   </g>
   <g id="line2d_40">
    <path d="M 103.827273 307.8 
L 126.654545 295.229192 
L 149.481818 287.340634 
L 172.309091 277.840311 
L 195.136364 266.143674 
L 217.963636 254.439378 
L 240.790909 241.52591 
L 263.618182 228.622619 
L 286.445455 210.795011 
L 309.272727 195.127386 
L 332.1 175.953602 
L 354.927273 161.148806 
L 377.754545 145.791568 
L 400.581818 131.099922 
L 423.409091 117.384037 
L 446.236364 104.139393 
L 469.063636 90.859471 
L 491.890909 82.477653 
L 514.718182 74.454589 
L 537.545455 67.684837 
L 560.372727 62.344781 
" clip-path="url(#p3141641610)" style="fill: none; stroke-dasharray: 3.7,1.6; stroke-dashoffset: 0; stroke: #2ca02c; stroke-opacity: 0.6"/>
   </g>
   <g id="line2d_41">
    <path d="M 103.827273 307.8 
L 126.654545 298.210687 
L 149.481818 291.517339 
L 172.309091 280.271063 
L 195.136364 267.33009 
L 217.963636 255.044236 
L 240.790909 241.731541 
L 263.618182 231.201313 
L 286.445455 218.317138 
L 309.272727 204.657321 
L 332.1 189.962348 
L 354.927273 172.989714 
L 377.754545 159.094119 
L 400.581818 143.905276 
L 423.409091 129.49917 
L 446.236364 114.794879 
L 469.063636 103.374626 
L 491.890909 90.880105 
L 514.718182 81.085897 
L 537.545455 74.002651 
L 560.372727 69.457313 
" clip-path="url(#p3141641610)" style="fill: none; stroke-dasharray: 3.7,1.6; stroke-dashoffset: 0; stroke: #d62728; stroke-opacity: 0.6"/>
   </g>
   <g id="line2d_42">
    <path d="M 103.827273 307.8 
L 126.654545 302.471606 
L 149.481818 294.226501 
L 172.309091 283.750517 
L 195.136364 272.700785 
L 217.963636 260.194013 
L 240.790909 245.367139 
L 263.618182 229.327827 
L 286.445455 214.470033 
L 309.272727 199.816977 
L 332.1 184.268861 
L 354.927273 167.340157 
L 377.754545 150.293642 
L 400.581818 136.352786 
L 423.409091 120.27471 
L 446.236364 107.9386 
L 469.063636 94.950209 
L 491.890909 85.652534 
L 514.718182 79.063158 
L 537.545455 72.017185 
L 560.372727 66.75101 
" clip-path="url(#p3141641610)" style="fill: none; stroke-dasharray: 3.7,1.6; stroke-dashoffset: 0; stroke: #9467bd; stroke-opacity: 0.6"/>
   </g>
   <g id="line2d_43">
    <path d="M 103.827273 307.8 
L 126.654545 303.799907 
L 149.481818 297.193727 
L 172.309091 286.772915 
L 195.136364 276.147735 
L 217.963636 261.507296 
L 240.790909 244.474819 
L 263.618182 229.16698 
L 286.445455 210.526168 
L 309.272727 193.022364 
L 332.1 173.649317 
L 354.927273 157.008149 
L 377.754545 138.995192 
L 400.581818 123.464234 
L 423.409091 108.2075 
L 446.236364 95.757574 
L 469.063636 84.375925 
L 491.890909 76.37416 
L 514.718182 70.004431 
L 537.545455 64.525931 
L 560.372727 59.822847 
" clip-path="url(#p3141641610)" style="fill: none; stroke-dasharray: 3.7,1.6; stroke-dashoffset: 0; stroke: #8c564b; stroke-opacity: 0.6"/>
   </g>
   <g id="line2d_44">
    <path d="M 103.827273 307.8 
L 126.654545 301.557947 
L 149.481818 293.891237 
L 172.309091 284.591808 
L 195.136364 275.052784 
L 217.963636 261.61451 
L 240.790909 247.745141 
L 263.618182 234.618391 
L 286.445455 219.750238 
L 309.272727 202.601732 
L 332.1 184.299479 
L 354.927273 163.835141 
L 377.754545 146.549013 
L 400.581818 130.992762 
L 423.409091 116.674515 
L 446.236364 102.221818 
L 469.063636 90.28573 
L 491.890909 81.326176 
L 514.718182 72.954341 
L 537.545455 66.768981 
L 560.372727 60.37529 
" clip-path="url(#p3141641610)" style="fill: none; stroke-dasharray: 3.7,1.6; stroke-dashoffset: 0; stroke: #e377c2; stroke-opacity: 0.6"/>
   </g>
   <g id="line2d_45">
    <path d="M 103.827273 307.8 
L 126.654545 300.174809 
L 149.481818 293.004429 
L 172.309091 283.506978 
L 195.136364 271.942267 
L 217.963636 256.764744 
L 240.790909 244.295339 
L 263.618182 231.023564 
L 286.445455 217.497014 
L 309.272727 198.300738 
L 332.1 181.883374 
L 354.927273 163.613499 
L 377.754545 148.257591 
L 400.581818 131.039353 
L 423.409091 117.310822 
L 446.236364 104.600649 
L 469.063636 92.022263 
L 491.890909 83.682377 
L 514.718182 75.532185 
L 537.545455 70.258022 
L 560.372727 64.958566 
" clip-path="url(#p3141641610)" style="fill: none; stroke-dasharray: 3.7,1.6; stroke-dashoffset: 0; stroke: #7f7f7f; stroke-opacity: 0.6"/>
   </g>
   <g id="line2d_46">
    <path d="M 103.827273 307.8 
L 126.654545 301.2417 
L 149.481818 293.736439 
L 172.309091 281.68274 
L 195.136364 271.676184 
L 217.963636 259.657402 
L 240.790909 244.885427 
L 263.618182 231.924388 
L 286.445455 215.919936 
L 309.272727 199.570711 
L 332.1 183.003568 
L 354.927273 164.870805 
L 377.754545 147.82429 
L 400.581818 133.181233 
L 423.409091 117.951123 
L 446.236364 103.684792 
L 469.063636 91.967019 
L 491.890909 82.521582 
L 514.718182 75.362458 
L 537.545455 68.784398 
L 560.372727 62.881249 
" clip-path="url(#p3141641610)" style="fill: none; stroke-dasharray: 3.7,1.6; stroke-dashoffset: 0; stroke: #bcbd22; stroke-opacity: 0.6"/>
   </g>
   <g id="line2d_47">
    <path d="M 103.827273 307.8 
L 126.654545 302.424792 
L 149.481818 295.163224 
L 172.309091 284.690281 
L 195.136364 271.799375 
L 217.963636 260.920013 
L 240.790909 247.660651 
L 263.618182 230.781532 
L 286.445455 214.538346 
L 309.272727 197.481806 
L 332.1 178.460227 
L 354.927273 162.466681 
L 377.754545 145.866114 
L 400.581818 131.150508 
L 423.409091 115.988288 
L 446.236364 101.814475 
L 469.063636 89.547587 
L 491.890909 80.314474 
L 514.718182 72.811238 
L 537.545455 66.069442 
L 560.372727 61.159359 
" clip-path="url(#p3141641610)" style="fill: none; stroke-dasharray: 3.7,1.6; stroke-dashoffset: 0; stroke: #17becf; stroke-opacity: 0.6"/>
   </g>
   <g id="line2d_48">
    <path d="M 103.827273 307.8 
L 126.654545 306.043899 
L 149.481818 296.765717 
L 172.309091 287.330255 
L 195.136364 276.26106 
L 217.963636 263.044279 
L 240.790909 247.891276 
L 263.618182 233.507565 
L 286.445455 216.302165 
L 309.272727 199.266397 
L 332.1 182.410524 
L 354.927273 164.687101 
L 377.754545 147.26386 
L 400.581818 129.471215 
L 423.409091 115.148975 
L 446.236364 101.508967 
L 469.063636 88.703614 
L 491.890909 79.072476 
L 514.718182 70.962885 
L 537.545455 65.228132 
L 560.372727 59.513346 
" clip-path="url(#p3141641610)" style="fill: none; stroke-dasharray: 3.7,1.6; stroke-dashoffset: 0; stroke: #1f77b4; stroke-opacity: 0.6"/>
   </g>
   <g id="line2d_49">
    <path d="M 103.827273 307.8 
L 126.654545 297.143873 
L 149.481818 287.78888 
L 172.309091 278.196209 
L 195.136364 267.575349 
L 217.963636 253.591422 
L 240.790909 239.967057 
L 263.618182 224.893434 
L 286.445455 210.426378 
L 309.272727 191.195998 
L 332.1 173.943121 
L 354.927273 156.75123 
L 377.754545 139.86712 
L 400.581818 124.166435 
L 423.409091 110.50646 
L 446.236364 97.310403 
L 469.063636 86.384686 
L 491.890909 77.696695 
L 514.718182 70.914297 
L 537.545455 64.865383 
L 560.372727 61.365693 
" clip-path="url(#p3141641610)" style="fill: none; stroke-dasharray: 3.7,1.6; stroke-dashoffset: 0; stroke: #ff7f0e; stroke-opacity: 0.6"/>
   </g>
   <g id="line2d_50">
    <path d="M 103.827273 307.8 
L 126.654545 297.162138 
L 149.481818 289.514681 
L 172.309091 277.581568 
L 195.136364 268.134842 
L 217.963636 253.533737 
L 240.790909 242.314903 
L 263.618182 228.698764 
L 286.445455 214.599725 
L 309.272727 196.833258 
L 332.1 176.921265 
L 354.927273 160.322139 
L 377.754545 145.311009 
L 400.581818 130.641994 
L 423.409091 115.961664 
L 446.236364 102.219821 
L 469.063636 90.070077 
L 491.890909 81.849332 
L 514.718182 73.811625 
L 537.545455 68.446276 
L 560.372727 63.297245 
" clip-path="url(#p3141641610)" style="fill: none; stroke-dasharray: 3.7,1.6; stroke-dashoffset: 0; stroke: #2ca02c; stroke-opacity: 0.6"/>
   </g>
   <g id="line2d_51">
    <path d="M 103.827273 307.8 
L 126.654545 300.235886 
L 149.481818 290.015896 
L 172.309091 280.346441 
L 195.136364 269.286 
L 217.963636 254.938225 
L 240.790909 241.063661 
L 263.618182 226.566102 
L 286.445455 210.692916 
L 309.272727 194.253482 
L 332.1 175.38452 
L 354.927273 159.666529 
L 377.754545 143.74753 
L 400.581818 127.6821 
L 423.409091 112.201727 
L 446.236364 97.782309 
L 469.063636 87.137473 
L 491.890909 78.737017 
L 514.718182 71.660427 
L 537.545455 65.296022 
L 560.372727 60.815247 
" clip-path="url(#p3141641610)" style="fill: none; stroke-dasharray: 3.7,1.6; stroke-dashoffset: 0; stroke: #d62728; stroke-opacity: 0.6"/>
   </g>
   <g id="line2d_52">
    <path d="M 103.827273 307.8 
L 126.654545 300.173046 
L 149.481818 289.584869 
L 172.309091 281.339401 
L 195.136364 267.951616 
L 217.963636 254.871658 
L 240.790909 240.694719 
L 263.618182 227.054609 
L 286.445455 212.867125 
L 309.272727 195.734946 
L 332.1 178.984715 
L 354.927273 162.417427 
L 377.754545 147.066845 
L 400.581818 132.208136 
L 423.409091 116.028224 
L 446.236364 101.791179 
L 469.063636 87.736507 
L 491.890909 78.308375 
L 514.718182 71.873417 
L 537.545455 66.223194 
L 560.372727 62.08653 
" clip-path="url(#p3141641610)" style="fill: none; stroke-dasharray: 3.7,1.6; stroke-dashoffset: 0; stroke: #9467bd; stroke-opacity: 0.6"/>
   </g>
   <g id="line2d_53">
    <path d="M 103.827273 307.8 
L 126.654545 301.985269 
L 149.481818 294.99049 
L 172.309091 287.169182 
L 195.136364 276.693122 
L 217.963636 264.063432 
L 240.790909 251.223267 
L 263.618182 237.863115 
L 286.445455 223.602233 
L 309.272727 207.474113 
L 332.1 186.976496 
L 354.927273 166.68255 
L 377.754545 150.782187 
L 400.581818 135.362383 
L 423.409091 121.072091 
L 446.236364 107.958568 
L 469.063636 94.573483 
L 491.890909 84.851825 
L 514.718182 77.381203 
L 537.545455 70.602799 
L 560.372727 64.846081 
" clip-path="url(#p3141641610)" style="fill: none; stroke-dasharray: 3.7,1.6; stroke-dashoffset: 0; stroke: #8c564b; stroke-opacity: 0.6"/>
   </g>
   <g id="line2d_54">
    <path d="M 103.827273 307.8 
L 126.654545 298.47761 
L 149.481818 289.669623 
L 172.309091 281.734428 
L 195.136364 271.746382 
L 217.963636 256.92296 
L 240.790909 242.134697 
L 263.618182 228.889855 
L 286.445455 213.700561 
L 309.272727 198.744199 
L 332.1 183.67848 
L 354.927273 163.835807 
L 377.754545 148.398032 
L 400.581818 132.777884 
L 423.409091 117.674902 
L 446.236364 105.421991 
L 469.063636 94.189436 
L 491.890909 84.070418 
L 514.718182 76.858712 
L 537.545455 70.629423 
L 560.372727 65.057074 
" clip-path="url(#p3141641610)" style="fill: none; stroke-dasharray: 3.7,1.6; stroke-dashoffset: 0; stroke: #e377c2; stroke-opacity: 0.6"/>
   </g>
   <g id="line2d_55">
    <path d="M 103.827273 307.8 
L 126.654545 299.017137 
L 149.481818 290.179426 
L 172.309091 281.377702 
L 195.136364 270.723171 
L 217.963636 256.220513 
L 240.790909 244.034531 
L 263.618182 230.021017 
L 286.445455 213.66066 
L 309.272727 194.905692 
L 332.1 177.529062 
L 354.927273 160.936482 
L 377.754545 142.803053 
L 400.581818 125.98284 
L 423.409091 111.114147 
L 446.236364 99.026969 
L 469.063636 86.703506 
L 491.890909 78.496072 
L 514.718182 71.942639 
L 537.545455 66.692437 
L 560.372727 61.078822 
" clip-path="url(#p3141641610)" style="fill: none; stroke-dasharray: 3.7,1.6; stroke-dashoffset: 0; stroke: #7f7f7f; stroke-opacity: 0.6"/>
   </g>
   <g id="line2d_56">
    <path d="M 103.827273 307.8 
L 126.654545 302.825315 
L 149.481818 294.599142 
L 172.309091 286.262491 
L 195.136364 274.930775 
L 217.963636 261.955053 
L 240.790909 249.577928 
L 263.618182 235.815255 
L 286.445455 218.282298 
L 309.272727 199.970212 
L 332.1 180.875 
L 354.927273 161.753165 
L 377.754545 145.032125 
L 400.581818 129.790034 
L 423.409091 113.920955 
L 446.236364 100.978489 
L 469.063636 88.417409 
L 491.890909 81.143803 
L 514.718182 74.139097 
L 537.545455 69.152471 
L 560.372727 64.30695 
" clip-path="url(#p3141641610)" style="fill: none; stroke-dasharray: 3.7,1.6; stroke-dashoffset: 0; stroke: #bcbd22; stroke-opacity: 0.6"/>
   </g>
   <g id="line2d_57">
    <path d="M 103.827273 307.8 
L 126.654545 297.138693 
L 149.481818 290.268883 
L 172.309091 279.521378 
L 195.136364 267.492137 
L 217.963636 255.720494 
L 240.790909 240.576089 
L 263.618182 226.342996 
L 286.445455 210.618843 
L 309.272727 193.966049 
L 332.1 177.910447 
L 354.927273 159.399626 
L 377.754545 144.104954 
L 400.581818 128.142691 
L 423.409091 114.914686 
L 446.236364 100.253658 
L 469.063636 88.359502 
L 491.890909 80.53412 
L 514.718182 73.483488 
L 537.545455 67.421928 
L 560.372727 61.090803 
" clip-path="url(#p3141641610)" style="fill: none; stroke-dasharray: 3.7,1.6; stroke-dashoffset: 0; stroke: #17becf; stroke-opacity: 0.6"/>
   </g>
   <g id="line2d_58">
    <path d="M 103.827273 307.8 
L 126.654545 301.047362 
L 149.481818 292.256602 
L 172.309091 283.73612 
L 195.136364 271.355786 
L 217.963636 257.380393 
L 240.790909 243.862693 
L 263.618182 229.182823 
L 286.445455 214.026032 
L 309.272727 197.142454 
L 332.1 179.951822 
L 354.927273 162.095946 
L 377.754545 143.571813 
L 400.581818 126.628465 
L 423.409091 109.680458 
L 446.236364 96.304692 
L 469.063636 85.445534 
L 491.890909 76.532572 
L 514.718182 69.292911 
L 537.545455 63.825061 
L 560.372727 58.839765 
" clip-path="url(#p3141641610)" style="fill: none; stroke-dasharray: 3.7,1.6; stroke-dashoffset: 0; stroke: #1f77b4; stroke-opacity: 0.6"/>
   </g>
   <g id="line2d_59">
    <path d="M 103.827273 307.8 
L 126.654545 303.295539 
L 149.481818 293.05744 
L 172.309091 283.467124 
L 195.136364 272.529897 
L 217.963636 258.978451 
L 240.790909 243.30986 
L 263.618182 226.790592 
L 286.445455 209.563634 
L 309.272727 191.129438 
L 332.1 172.831303 
L 354.927273 152.894781 
L 377.754545 136.71021 
L 400.581818 119.605123 
L 423.409091 103.931727 
L 446.236364 90.438151 
L 469.063636 80.603341 
L 491.890909 72.441834 
L 514.718182 65.648787 
L 537.545455 60.71208 
L 560.372727 55.8 
" clip-path="url(#p3141641610)" style="fill: none; stroke-dasharray: 3.7,1.6; stroke-dashoffset: 0; stroke: #ff7f0e; stroke-opacity: 0.6"/>
   </g>
   <g id="line2d_60">
    <path d="M 103.827273 307.8 
L 126.654545 298.343327 
L 149.481818 292.379834 
L 172.309091 282.633843 
L 195.136364 269.214941 
L 217.963636 255.325563 
L 240.790909 242.9263 
L 263.618182 229.808122 
L 286.445455 215.485593 
L 309.272727 198.392888 
L 332.1 179.726851 
L 354.927273 163.028442 
L 377.754545 147.641252 
L 400.581818 130.58076 
L 423.409091 116.505454 
L 446.236364 102.894067 
L 469.063636 91.408586 
L 491.890909 82.546874 
L 514.718182 74.459248 
L 537.545455 68.883571 
L 560.372727 64.495979 
" clip-path="url(#p3141641610)" style="fill: none; stroke-dasharray: 3.7,1.6; stroke-dashoffset: 0; stroke: #2ca02c; stroke-opacity: 0.6"/>
   </g>
   <g id="line2d_61">
    <path d="M 103.827273 307.8 
L 126.654545 296.31958 
L 149.481818 289.449872 
L 172.309091 280.128913 
L 195.136364 268.863876 
L 217.963636 257.277904 
L 240.790909 245.360547 
L 263.618182 229.913807 
L 286.445455 215.880598 
L 309.272727 202.046863 
L 332.1 186.27496 
L 354.927273 171.518087 
L 377.754545 156.744574 
L 400.581818 141.497824 
L 423.409091 127.401885 
L 446.236364 113.919623 
L 469.063636 102.513348 
L 491.890909 92.172022 
L 514.718182 82.703289 
L 537.545455 76.326903 
L 560.372727 70.834426 
" clip-path="url(#p3141641610)" style="fill: none; stroke-dasharray: 3.7,1.6; stroke-dashoffset: 0; stroke: #d62728; stroke-opacity: 0.6"/>
   </g>
   <g id="line2d_62">
    <path d="M 103.827273 307.8 
L 126.654545 295.927334 
L 149.481818 286.3293 
L 172.309091 276.514816 
L 195.136364 267.371365 
L 217.963636 253.208302 
L 240.790909 240.809254 
L 263.618182 230.561499 
L 286.445455 218.445559 
L 309.272727 205.416098 
L 332.1 190.983369 
L 354.927273 174.396779 
L 377.754545 158.732702 
L 400.581818 145.281057 
L 423.409091 132.489682 
L 446.236364 120.116299 
L 469.063636 107.740253 
L 491.890909 97.672486 
L 514.718182 88.858032 
L 537.545455 81.959155 
L 560.372727 74.774739 
" clip-path="url(#p3141641610)" style="fill: none; stroke-dasharray: 3.7,1.6; stroke-dashoffset: 0; stroke: #9467bd; stroke-opacity: 0.6"/>
   </g>
   <g id="line2d_63">
    <path d="M 103.827273 307.8 
L 126.654545 302.258325 
L 149.481818 295.352857 
L 172.309091 283.072218 
L 195.136364 272.83802 
L 217.963636 262.062935 
L 240.790909 248.259176 
L 263.618182 233.162868 
L 286.445455 217.623923 
L 309.272727 199.241387 
L 332.1 182.879102 
L 354.927273 165.162335 
L 377.754545 148.993738 
L 400.581818 133.339645 
L 423.409091 119.346207 
L 446.236364 106.400414 
L 469.063636 93.088544 
L 491.890909 84.057106 
L 514.718182 77.441772 
L 537.545455 71.308994 
L 560.372727 66.22985 
" clip-path="url(#p3141641610)" style="fill: none; stroke-dasharray: 3.7,1.6; stroke-dashoffset: 0; stroke: #8c564b; stroke-opacity: 0.6"/>
   </g>
   <g id="line2d_64">
    <path d="M 103.827273 307.8 
L 126.654545 303.184708 
L 149.481818 295.209458 
L 172.309091 282.498493 
L 195.136364 270.287855 
L 217.963636 254.807984 
L 240.790909 241.660293 
L 263.618182 230.334526 
L 286.445455 214.504238 
L 309.272727 199.315735 
L 332.1 183.365651 
L 354.927273 164.799586 
L 377.754545 149.833051 
L 400.581818 134.688803 
L 423.409091 119.459358 
L 446.236364 103.722066 
L 469.063636 91.16032 
L 491.890909 82.48564 
L 514.718182 74.149747 
L 537.545455 67.422593 
L 560.372727 62.429311 
" clip-path="url(#p3141641610)" style="fill: none; stroke-dasharray: 3.7,1.6; stroke-dashoffset: 0; stroke: #e377c2; stroke-opacity: 0.6"/>
   </g>
   <g id="line2d_65">
    <path d="M 103.827273 307.8 
L 126.654545 302.231075 
L 149.481818 294.05024 
L 172.309091 285.606676 
L 195.136364 274.514472 
L 217.963636 263.394153 
L 240.790909 249.899524 
L 263.618182 237.51052 
L 286.445455 222.484879 
L 309.272727 206.321453 
L 332.1 187.639427 
L 354.927273 169.824152 
L 377.754545 153.872538 
L 400.581818 137.171466 
L 423.409091 121.78361 
L 446.236364 108.069057 
L 469.063636 96.508363 
L 491.890909 85.585974 
L 514.718182 78.88611 
L 537.545455 71.987899 
L 560.372727 66.464804 
" clip-path="url(#p3141641610)" style="fill: none; stroke-dasharray: 3.7,1.6; stroke-dashoffset: 0; stroke: #7f7f7f; stroke-opacity: 0.6"/>
   </g>
   <g id="line2d_66">
    <path d="M 103.827273 307.8 
L 126.654545 299.375369 
L 149.481818 292.713008 
L 172.309091 283.477761 
L 195.136364 273.333841 
L 217.963636 262.051298 
L 240.790909 247.897873 
L 263.618182 236.055471 
L 286.445455 222.415996 
L 309.272727 205.976527 
L 332.1 186.144504 
L 354.927273 168.755208 
L 377.754545 152.971324 
L 400.581818 137.752529 
L 423.409091 122.550374 
L 446.236364 108.152256 
L 469.063636 95.034739 
L 491.890909 85.535389 
L 514.718182 78.889438 
L 537.545455 71.290357 
L 560.372727 67.517108 
" clip-path="url(#p3141641610)" style="fill: none; stroke-dasharray: 3.7,1.6; stroke-dashoffset: 0; stroke: #bcbd22; stroke-opacity: 0.6"/>
   </g>
   <g id="line2d_67">
    <path d="M 103.827273 307.8 
L 126.654545 299.726215 
L 149.481818 289.968233 
L 172.309091 278.61021 
L 195.136364 268.081166 
L 217.963636 254.496309 
L 240.790909 240.697004 
L 263.618182 226.828708 
L 286.445455 211.201764 
L 309.272727 192.109291 
L 332.1 174.021568 
L 354.927273 158.272777 
L 377.754545 141.742762 
L 400.581818 125.865695 
L 423.409091 111.469574 
L 446.236364 97.70976 
L 469.063636 86.443924 
L 491.890909 78.250468 
L 514.718182 70.463025 
L 537.545455 63.974819 
L 560.372727 59.350276 
" clip-path="url(#p3141641610)" style="fill: none; stroke-dasharray: 3.7,1.6; stroke-dashoffset: 0; stroke: #17becf; stroke-opacity: 0.6"/>
   </g>
   <g id="line2d_68">
    <path d="M 103.827273 307.8 
L 126.654545 304.26523 
L 149.481818 295.31883 
L 172.309091 285.245612 
L 195.136364 273.821994 
L 217.963636 259.742476 
L 240.790909 243.901954 
L 263.618182 229.542319 
L 286.445455 212.439644 
L 309.272727 195.531465 
L 332.1 177.424564 
L 354.927273 158.849181 
L 377.754545 141.372027 
L 400.581818 124.091889 
L 423.409091 108.483721 
L 446.236364 96.083715 
L 469.063636 85.607273 
L 491.890909 75.840354 
L 514.718182 68.509508 
L 537.545455 62.697545 
L 560.372727 57.099904 
" clip-path="url(#p3141641610)" style="fill: none; stroke-dasharray: 3.7,1.6; stroke-dashoffset: 0; stroke: #1f77b4; stroke-opacity: 0.6"/>
   </g>
   <g id="line2d_69">
    <path d="M 103.827273 307.8 
L 126.654545 297.123741 
L 149.481818 290.277662 
L 172.309091 281.596121 
L 195.136364 269.493048 
L 217.963636 257.970625 
L 240.790909 244.785514 
L 263.618182 231.74089 
L 286.445455 216.95595 
L 309.272727 199.714731 
L 332.1 182.461775 
L 354.927273 164.891438 
L 377.754545 148.216325 
L 400.581818 131.418742 
L 423.409091 117.107816 
L 446.236364 103.23352 
L 469.063636 90.530003 
L 491.890909 79.395289 
L 514.718182 72.10704 
L 537.545455 66.274445 
L 560.372727 60.976321 
" clip-path="url(#p3141641610)" style="fill: none; stroke-dasharray: 3.7,1.6; stroke-dashoffset: 0; stroke: #ff7f0e; stroke-opacity: 0.6"/>
   </g>
   <g id="line2d_70">
    <path d="M 103.827273 307.8 
L 126.654545 300.193698 
L 149.481818 290.624227 
L 172.309091 281.342111 
L 195.136364 270.833603 
L 217.963636 258.548104 
L 240.790909 244.279568 
L 263.618182 230.438177 
L 286.445455 215.366284 
L 309.272727 199.106262 
L 332.1 180.878328 
L 354.927273 164.376269 
L 377.754545 148.626996 
L 400.581818 132.920321 
L 423.409091 116.869534 
L 446.236364 103.3906 
L 469.063636 92.540761 
L 491.890909 82.276643 
L 514.718182 73.775683 
L 537.545455 67.431912 
L 560.372727 62.292864 
" clip-path="url(#p3141641610)" style="fill: none; stroke-dasharray: 3.7,1.6; stroke-dashoffset: 0; stroke: #2ca02c; stroke-opacity: 0.6"/>
   </g>
   <g id="line2d_71">
    <path d="M 103.827273 307.8 
L 126.654545 304.074299 
L 149.481818 295.820797 
L 172.309091 286.88792 
L 195.136364 275.843912 
L 217.963636 260.015881 
L 240.790909 245.059944 
L 263.618182 230.73938 
L 286.445455 213.586793 
L 309.272727 195.685324 
L 332.1 176.621192 
L 354.927273 160.443943 
L 377.754545 144.082323 
L 400.581818 127.537001 
L 423.409091 112.482607 
L 446.236364 98.454559 
L 469.063636 87.933522 
L 491.890909 79.380646 
L 514.718182 71.884732 
L 537.545455 66.358975 
L 560.372727 60.855848 
" clip-path="url(#p3141641610)" style="fill: none; stroke-dasharray: 3.7,1.6; stroke-dashoffset: 0; stroke: #d62728; stroke-opacity: 0.6"/>
   </g>
   <g id="line2d_72">
    <path d="M 103.827273 307.8 
L 126.654545 300.76039 
L 149.481818 293.779082 
L 172.309091 284.65678 
L 195.136364 273.398536 
L 217.963636 260.616859 
L 240.790909 246.97092 
L 263.618182 231.633174 
L 286.445455 215.639592 
L 309.272727 198.012983 
L 332.1 178.226604 
L 354.927273 161.660647 
L 377.754545 145.254434 
L 400.581818 129.786041 
L 423.409091 114.910026 
L 446.236364 101.240067 
L 469.063636 87.143463 
L 491.890909 78.860152 
L 514.718182 71.106653 
L 537.545455 64.430751 
L 560.372727 59.34961 
" clip-path="url(#p3141641610)" style="fill: none; stroke-dasharray: 3.7,1.6; stroke-dashoffset: 0; stroke: #9467bd; stroke-opacity: 0.6"/>
   </g>
   <g id="line2d_73">
    <path d="M 103.827273 307.8 
L 126.654545 301.196825 
L 149.481818 292.963096 
L 172.309091 282.87322 
L 195.136364 271.411033 
L 217.963636 258.380161 
L 240.790909 245.50401 
L 263.618182 228.717661 
L 286.445455 211.675306 
L 309.272727 196.275461 
L 332.1 179.292885 
L 354.927273 162.235055 
L 377.754545 144.79584 
L 400.581818 130.346471 
L 423.409091 116.496136 
L 446.236364 104.515453 
L 469.063636 92.326439 
L 491.890909 82.82842 
L 514.718182 74.507171 
L 537.545455 69.513223 
L 560.372727 63.731878 
" clip-path="url(#p3141641610)" style="fill: none; stroke-dasharray: 3.7,1.6; stroke-dashoffset: 0; stroke: #8c564b; stroke-opacity: 0.6"/>
   </g>
   <g id="line2d_74">
    <path d="M 103.827273 307.8 
L 126.654545 300.022847 
L 149.481818 291.628171 
L 172.309091 281.746516 
L 195.136364 267.370891 
L 217.963636 253.049787 
L 240.790909 243.627582 
L 263.618182 230.624156 
L 286.445455 215.757104 
L 309.272727 198.672648 
L 332.1 182.87045 
L 354.927273 163.992887 
L 377.754545 148.816024 
L 400.581818 134.445861 
L 423.409091 120.321302 
L 446.236364 106.24999 
L 469.063636 92.878882 
L 491.890909 82.962205 
L 514.718182 75.086237 
L 537.545455 69.466631 
L 560.372727 64.057353 
" clip-path="url(#p3141641610)" style="fill: none; stroke-dasharray: 3.7,1.6; stroke-dashoffset: 0; stroke: #e377c2; stroke-opacity: 0.6"/>
   </g>
   <g id="line2d_75">
    <path d="M 103.827273 307.8 
L 126.654545 302.52668 
L 149.481818 295.023331 
L 172.309091 283.882472 
L 195.136364 271.512958 
L 217.963636 258.628633 
L 240.790909 245.777167 
L 263.618182 230.39434 
L 286.445455 213.377863 
L 309.272727 196.017591 
L 332.1 179.519186 
L 354.927273 163.420477 
L 377.754545 148.650957 
L 400.581818 132.499 
L 423.409091 117.626313 
L 446.236364 103.551674 
L 469.063636 90.584581 
L 491.890909 82.891652 
L 514.718182 75.702576 
L 537.545455 69.569798 
L 560.372727 64.178491 
" clip-path="url(#p3141641610)" style="fill: none; stroke-dasharray: 3.7,1.6; stroke-dashoffset: 0; stroke: #7f7f7f; stroke-opacity: 0.6"/>
   </g>
   <g id="line2d_76">
    <path d="M 103.827273 307.8 
L 126.654545 306.839314 
L 149.481818 298.276911 
L 172.309091 289.227544 
L 195.136364 278.074787 
L 217.963636 266.496983 
L 240.790909 250.957216 
L 263.618182 237.143958 
L 286.445455 221.463746 
L 309.272727 202.997129 
L 332.1 181.951931 
L 354.927273 163.651438 
L 377.754545 147.044214 
L 400.581818 131.451356 
L 423.409091 115.576286 
L 446.236364 101.660722 
L 469.063636 89.291999 
L 491.890909 80.863588 
L 514.718182 72.545667 
L 537.545455 65.862442 
L 560.372727 62.11981 
" clip-path="url(#p3141641610)" style="fill: none; stroke-dasharray: 3.7,1.6; stroke-dashoffset: 0; stroke: #bcbd22; stroke-opacity: 0.6"/>
   </g>
   <g id="line2d_77">
    <path d="M 103.827273 307.8 
L 126.654545 298.978741 
L 149.481818 290.694962 
L 172.309091 281.093881 
L 195.136364 269.266495 
L 217.963636 255.651571 
L 240.790909 240.552162 
L 263.618182 226.104567 
L 286.445455 210.24265 
L 309.272727 194.662366 
L 332.1 177.849212 
L 354.927273 160.877909 
L 377.754545 143.875989 
L 400.581818 127.471772 
L 423.409091 113.281319 
L 446.236364 99.480904 
L 469.063636 87.210022 
L 491.890909 77.966926 
L 514.718182 70.576175 
L 537.545455 65.45643 
L 560.372727 60.92507 
" clip-path="url(#p3141641610)" style="fill: none; stroke-dasharray: 3.7,1.6; stroke-dashoffset: 0; stroke: #17becf; stroke-opacity: 0.6"/>
   </g>
   <g id="line2d_78">
    <path d="M 103.827273 307.8 
L 126.654545 299.746768 
L 149.481818 293.189384 
L 172.309091 282.867137 
L 195.136364 271.522032 
L 217.963636 258.932773 
L 240.790909 243.410895 
L 263.618182 228.098753 
L 286.445455 210.706653 
L 309.272727 192.586457 
L 332.1 170.746664 
L 354.927273 153.160353 
L 377.754545 137.281289 
L 400.581818 121.075419 
L 423.409091 105.416001 
L 446.236364 91.846547 
L 469.063636 82.429064 
L 491.890909 74.120461 
L 514.718182 66.44883 
L 537.545455 60.663492 
L 560.372727 56.408352 
" clip-path="url(#p3141641610)" style="fill: none; stroke-dasharray: 3.7,1.6; stroke-dashoffset: 0; stroke: #1f77b4; stroke-opacity: 0.6"/>
   </g>
   <g id="line2d_79">
    <path d="M 103.827273 307.8 
L 126.654545 300.348004 
L 149.481818 292.509469 
L 172.309091 283.802404 
L 195.136364 272.477336 
L 217.963636 258.40397 
L 240.790909 244.641082 
L 263.618182 228.087209 
L 286.445455 210.247708 
L 309.272727 192.496972 
L 332.1 172.327449 
L 354.927273 154.964111 
L 377.754545 138.889363 
L 400.581818 123.270546 
L 423.409091 108.160908 
L 446.236364 94.96818 
L 469.063636 83.863418 
L 491.890909 76.010746 
L 514.718182 68.630646 
L 537.545455 62.971104 
L 560.372727 59.131295 
" clip-path="url(#p3141641610)" style="fill: none; stroke-dasharray: 3.7,1.6; stroke-dashoffset: 0; stroke: #ff7f0e; stroke-opacity: 0.6"/>
   </g>
   <g id="line2d_80">
    <path d="M 103.827273 307.8 
L 126.654545 301.536251 
L 149.481818 292.493825 
L 172.309091 280.840105 
L 195.136364 267.072871 
L 217.963636 252.543708 
L 240.790909 241.76108 
L 263.618182 227.537522 
L 286.445455 212.647408 
L 309.272727 194.419792 
L 332.1 177.511091 
L 354.927273 159.396298 
L 377.754545 142.184716 
L 400.581818 126.763581 
L 423.409091 112.374115 
L 446.236364 97.757682 
L 469.063636 87.021659 
L 491.890909 77.866421 
L 514.718182 70.543561 
L 537.545455 64.501969 
L 560.372727 59.306346 
" clip-path="url(#p3141641610)" style="fill: none; stroke-dasharray: 3.7,1.6; stroke-dashoffset: 0; stroke: #2ca02c; stroke-opacity: 0.6"/>
   </g>
   <g id="line2d_81">
    <path d="M 103.827273 307.8 
L 126.654545 299.997347 
L 149.481818 292.788733 
L 172.309091 281.972084 
L 195.136364 271.258213 
L 217.963636 259.338095 
L 240.790909 245.636934 
L 263.618182 230.463777 
L 286.445455 215.054059 
L 309.272727 196.493817 
L 332.1 179.284897 
L 354.927273 162.165167 
L 377.754545 145.094026 
L 400.581818 129.921156 
L 423.409091 115.177595 
L 446.236364 100.646358 
L 469.063636 90.020158 
L 491.890909 82.949558 
L 514.718182 76.603124 
L 537.545455 69.885289 
L 560.372727 65.076376 
" clip-path="url(#p3141641610)" style="fill: none; stroke-dasharray: 3.7,1.6; stroke-dashoffset: 0; stroke: #d62728; stroke-opacity: 0.6"/>
   </g>
   <g id="line2d_82">
    <path d="M 103.827273 307.8 
L 126.654545 303.391467 
L 149.481818 295.118883 
L 172.309091 286.968801 
L 195.136364 275.184184 
L 217.963636 260.3852 
L 240.790909 244.874519 
L 263.618182 228.04865 
L 286.445455 211.970366 
L 309.272727 193.786046 
L 332.1 177.58364 
L 354.927273 160.925832 
L 377.754545 141.869225 
L 400.581818 126.283022 
L 423.409091 112.432687 
L 446.236364 98.988365 
L 469.063636 87.446974 
L 491.890909 78.086067 
L 514.718182 71.183862 
L 537.545455 65.769259 
L 560.372727 61.300465 
" clip-path="url(#p3141641610)" style="fill: none; stroke-dasharray: 3.7,1.6; stroke-dashoffset: 0; stroke: #9467bd; stroke-opacity: 0.6"/>
   </g>
   <g id="line2d_83">
    <path d="M 103.827273 307.8 
L 126.654545 301.555848 
L 149.481818 293.95474 
L 172.309091 283.597753 
L 195.136364 268.541612 
L 217.963636 253.639022 
L 240.790909 239.794586 
L 263.618182 226.387226 
L 286.445455 210.771324 
L 309.272727 192.557096 
L 332.1 175.656747 
L 354.927273 156.166839 
L 377.754545 139.986261 
L 400.581818 125.451031 
L 423.409091 111.996724 
L 446.236364 96.979603 
L 469.063636 86.793361 
L 491.890909 77.81517 
L 514.718182 71.997218 
L 537.545455 66.591933 
L 560.372727 61.825618 
" clip-path="url(#p3141641610)" style="fill: none; stroke-dasharray: 3.7,1.6; stroke-dashoffset: 0; stroke: #8c564b; stroke-opacity: 0.6"/>
   </g>
   <g id="line2d_84">
    <path d="M 103.827273 307.8 
L 126.654545 297.117941 
L 149.481818 290.967791 
L 172.309091 279.462556 
L 195.136364 267.482418 
L 217.963636 254.54621 
L 240.790909 240.446277 
L 263.618182 225.807443 
L 286.445455 209.019866 
L 309.272727 191.651188 
L 332.1 175.720644 
L 354.927273 160.212316 
L 377.754545 145.567262 
L 400.581818 130.11551 
L 423.409091 115.771304 
L 446.236364 102.355602 
L 469.063636 89.872396 
L 491.890909 80.962096 
L 514.718182 73.982683 
L 537.545455 68.670581 
L 560.372727 63.124856 
" clip-path="url(#p3141641610)" style="fill: none; stroke-dasharray: 3.7,1.6; stroke-dashoffset: 0; stroke: #e377c2; stroke-opacity: 0.6"/>
   </g>
   <g id="line2d_85">
    <path d="M 103.827273 307.8 
L 126.654545 298.076695 
L 149.481818 289.594012 
L 172.309091 277.898062 
L 195.136364 267.104466 
L 217.963636 254.952931 
L 240.790909 242.699027 
L 263.618182 230.139199 
L 286.445455 215.855848 
L 309.272727 201.771973 
L 332.1 185.942163 
L 354.927273 166.615991 
L 377.754545 152.372956 
L 400.581818 138.295654 
L 423.409091 123.942796 
L 446.236364 110.541736 
L 469.063636 98.169685 
L 491.890909 87.798407 
L 514.718182 80.229943 
L 537.545455 73.328404 
L 560.372727 68.591376 
" clip-path="url(#p3141641610)" style="fill: none; stroke-dasharray: 3.7,1.6; stroke-dashoffset: 0; stroke: #7f7f7f; stroke-opacity: 0.6"/>
   </g>
   <g id="line2d_86">
    <path d="M 103.827273 307.8 
L 126.654545 299.854952 
L 149.481818 291.745333 
L 172.309091 282.387338 
L 195.136364 272.412043 
L 217.963636 257.408108 
L 240.790909 241.736746 
L 263.618182 228.010103 
L 286.445455 211.666902 
L 309.272727 195.256899 
L 332.1 178.810854 
L 354.927273 162.536568 
L 377.754545 146.272126 
L 400.581818 130.711216 
L 423.409091 116.852894 
L 446.236364 103.817245 
L 469.063636 91.781984 
L 491.890909 82.467669 
L 514.718182 74.103155 
L 537.545455 67.78268 
L 560.372727 62.340787 
" clip-path="url(#p3141641610)" style="fill: none; stroke-dasharray: 3.7,1.6; stroke-dashoffset: 0; stroke: #bcbd22; stroke-opacity: 0.6"/>
   </g>
   <g id="line2d_87">
    <path d="M 103.827273 307.8 
L 126.654545 305.388619 
L 149.481818 297.982199 
L 172.309091 287.773771 
L 195.136364 275.520938 
L 217.963636 262.76891 
L 240.790909 248.581308 
L 263.618182 235.237904 
L 286.445455 218.499499 
L 309.272727 201.125682 
L 332.1 181.296321 
L 354.927273 161.399735 
L 377.754545 143.756183 
L 400.581818 127.423184 
L 423.409091 113.152194 
L 446.236364 100.514571 
L 469.063636 88.131869 
L 491.890909 80.38902 
L 514.718182 73.992667 
L 537.545455 68.115476 
L 560.372727 61.741753 
" clip-path="url(#p3141641610)" style="fill: none; stroke-dasharray: 3.7,1.6; stroke-dashoffset: 0; stroke: #17becf; stroke-opacity: 0.6"/>
   </g>
   <g id="line2d_88">
    <path d="M 103.827273 307.8 
L 126.654545 296.78349 
L 149.481818 289.832152 
L 172.309091 281.216764 
L 195.136364 270.044485 
L 217.963636 258.506826 
L 240.790909 243.159409 
L 263.618182 229.490352 
L 286.445455 215.021207 
L 309.272727 199.785065 
L 332.1 181.894024 
L 354.927273 165.356688 
L 377.754545 149.403078 
L 400.581818 134.081781 
L 423.409091 119.471339 
L 446.236364 107.390151 
L 469.063636 96.1962 
L 491.890909 87.415025 
L 514.718182 79.640893 
L 537.545455 73.36834 
L 560.372727 67.764709 
" clip-path="url(#p3141641610)" style="fill: none; stroke-dasharray: 3.7,1.6; stroke-dashoffset: 0; stroke: #1f77b4; stroke-opacity: 0.6"/>
   </g>
   <g id="line2d_89">
    <path d="M 103.827273 307.8 
L 126.654545 302.710482 
L 149.481818 295.625612 
L 172.309091 285.880587 
L 195.136364 275.207764 
L 217.963636 263.167695 
L 240.790909 248.999266 
L 263.618182 236.178288 
L 286.445455 220.171312 
L 309.272727 203.46865 
L 332.1 183.428217 
L 354.927273 163.758598 
L 377.754545 147.251214 
L 400.581818 130.64865 
L 423.409091 113.281985 
L 446.236364 98.609642 
L 469.063636 86.179684 
L 491.890909 76.111251 
L 514.718182 67.659545 
L 537.545455 62.455935 
L 560.372727 56.558777 
" clip-path="url(#p3141641610)" style="fill: none; stroke-dasharray: 3.7,1.6; stroke-dashoffset: 0; stroke: #ff7f0e; stroke-opacity: 0.6"/>
   </g>
   <g id="line2d_90">
    <path d="M 103.827273 307.8 
L 126.654545 300.331122 
L 149.481818 290.600068 
L 172.309091 279.039166 
L 195.136364 268.724294 
L 217.963636 255.719048 
L 240.790909 238.917001 
L 263.618182 226.672818 
L 286.445455 209.25383 
L 309.272727 191.549422 
L 332.1 174.430059 
L 354.927273 160.197673 
L 377.754545 144.776537 
L 400.581818 129.16837 
L 423.409091 114.849457 
L 446.236364 100.465982 
L 469.063636 90.046782 
L 491.890909 82.401109 
L 514.718182 75.890939 
L 537.545455 70.494973 
L 560.372727 64.432748 
" clip-path="url(#p3141641610)" style="fill: none; stroke-dasharray: 3.7,1.6; stroke-dashoffset: 0; stroke: #2ca02c; stroke-opacity: 0.6"/>
   </g>
   <g id="line2d_91">
    <path d="M 103.827273 307.8 
L 126.654545 297.894465 
L 149.481818 290.415021 
L 172.309091 279.938357 
L 195.136364 268.444036 
L 217.963636 255.467239 
L 240.790909 241.313033 
L 263.618182 226.105668 
L 286.445455 208.568661 
L 309.272727 190.312654 
L 332.1 173.059602 
L 354.927273 156.530918 
L 377.754545 140.704436 
L 400.581818 125.988164 
L 423.409091 110.320759 
L 446.236364 97.035513 
L 469.063636 86.357397 
L 491.890909 77.666743 
L 514.718182 70.618773 
L 537.545455 64.616451 
L 560.372727 60.346004 
" clip-path="url(#p3141641610)" style="fill: none; stroke-dasharray: 3.7,1.6; stroke-dashoffset: 0; stroke: #d62728; stroke-opacity: 0.6"/>
   </g>
   <g id="line2d_92">
    <path d="M 103.827273 307.8 
L 126.654545 297.425554 
L 149.481818 289.489871 
L 172.309091 280.996057 
L 195.136364 271.583558 
L 217.963636 259.301915 
L 240.790909 244.458394 
L 263.618182 232.04848 
L 286.445455 216.061801 
L 309.272727 199.605467 
L 332.1 184.610311 
L 354.927273 168.811118 
L 377.754545 155.855341 
L 400.581818 139.651468 
L 423.409091 125.987499 
L 446.236364 114.215147 
L 469.063636 102.452113 
L 491.890909 92.929467 
L 514.718182 83.329612 
L 537.545455 78.007527 
L 560.372727 73.119408 
" clip-path="url(#p3141641610)" style="fill: none; stroke-dasharray: 3.7,1.6; stroke-dashoffset: 0; stroke: #9467bd; stroke-opacity: 0.6"/>
   </g>
   <g id="line2d_93">
    <path d="M 103.827273 307.8 
L 126.654545 298.56563 
L 149.481818 292.191105 
L 172.309091 282.827057 
L 195.136364 269.624824 
L 217.963636 256.269755 
L 240.790909 242.646396 
L 263.618182 229.259532 
L 286.445455 214.772082 
L 309.272727 197.257958 
L 332.1 180.215397 
L 354.927273 162.243042 
L 377.754545 144.811814 
L 400.581818 127.189561 
L 423.409091 112.702253 
L 446.236364 99.920196 
L 469.063636 88.063979 
L 491.890909 78.378928 
L 514.718182 71.599858 
L 537.545455 65.741304 
L 560.372727 60.328698 
" clip-path="url(#p3141641610)" style="fill: none; stroke-dasharray: 3.7,1.6; stroke-dashoffset: 0; stroke: #8c564b; stroke-opacity: 0.6"/>
   </g>
   <g id="line2d_94">
    <path d="M 103.827273 307.8 
L 126.654545 303.141914 
L 149.481818 295.51386 
L 172.309091 285.944281 
L 195.136364 275.904428 
L 217.963636 262.77748 
L 240.790909 249.211572 
L 263.618182 236.484714 
L 286.445455 219.324766 
L 309.272727 203.799371 
L 332.1 185.679254 
L 354.927273 168.429733 
L 377.754545 150.400802 
L 400.581818 134.186279 
L 423.409091 118.330511 
L 446.236364 103.296086 
L 469.063636 90.836841 
L 491.890909 81.442655 
L 514.718182 73.04353 
L 537.545455 67.600973 
L 560.372727 62.786735 
" clip-path="url(#p3141641610)" style="fill: none; stroke-dasharray: 3.7,1.6; stroke-dashoffset: 0; stroke: #e377c2; stroke-opacity: 0.6"/>
   </g>
   <g id="line2d_95">
    <path d="M 103.827273 307.8 
L 126.654545 300.738579 
L 149.481818 294.197224 
L 172.309091 285.951776 
L 195.136364 275.695266 
L 217.963636 263.008861 
L 240.790909 246.953767 
L 263.618182 233.674292 
L 286.445455 218.872582 
L 309.272727 202.146037 
L 332.1 185.100853 
L 354.927273 169.036089 
L 377.754545 152.884132 
L 400.581818 136.857972 
L 423.409091 122.13105 
L 446.236364 108.572245 
L 469.063636 96.679421 
L 491.890909 86.698846 
L 514.718182 77.951617 
L 537.545455 71.973922 
L 560.372727 66.864161 
" clip-path="url(#p3141641610)" style="fill: none; stroke-dasharray: 3.7,1.6; stroke-dashoffset: 0; stroke: #7f7f7f; stroke-opacity: 0.6"/>
   </g>
   <g id="line2d_96">
    <path d="M 103.827273 307.8 
L 126.654545 299.034313 
L 149.481818 291.617687 
L 172.309091 280.582876 
L 195.136364 271.241146 
L 217.963636 258.870794 
L 240.790909 245.626921 
L 263.618182 230.491095 
L 286.445455 217.76557 
L 309.272727 199.962547 
L 332.1 184.024589 
L 354.927273 166.630634 
L 377.754545 151.620835 
L 400.581818 134.787976 
L 423.409091 121.691093 
L 446.236364 106.983474 
L 469.063636 95.115276 
L 491.890909 85.247853 
L 514.718182 76.682996 
L 537.545455 70.478333 
L 560.372727 65.73598 
" clip-path="url(#p3141641610)" style="fill: none; stroke-dasharray: 3.7,1.6; stroke-dashoffset: 0; stroke: #bcbd22; stroke-opacity: 0.6"/>
   </g>
   <g id="line2d_97">
    <path d="M 103.827273 307.8 
L 126.654545 299.906782 
L 149.481818 291.808934 
L 172.309091 282.701535 
L 195.136364 270.703458 
L 217.963636 258.73433 
L 240.790909 242.731943 
L 263.618182 226.692129 
L 286.445455 212.144587 
L 309.272727 195.044617 
L 332.1 178.048225 
L 354.927273 158.901097 
L 377.754545 142.286552 
L 400.581818 125.103591 
L 423.409091 108.725997 
L 446.236364 97.309072 
L 469.063636 86.644933 
L 491.890909 79.354688 
L 514.718182 72.25813 
L 537.545455 67.846577 
L 560.372727 61.764383 
" clip-path="url(#p3141641610)" style="fill: none; stroke-dasharray: 3.7,1.6; stroke-dashoffset: 0; stroke: #17becf; stroke-opacity: 0.6"/>
   </g>
   <g id="line2d_98">
    <path d="M 103.827273 307.8 
L 126.654545 295.300904 
L 149.481818 289.648308 
L 172.309091 281.513786 
L 195.136364 270.039062 
L 217.963636 257.605318 
L 240.790909 245.057931 
L 263.618182 233.180758 
L 286.445455 217.402179 
L 309.272727 202.802584 
L 332.1 188.322326 
L 354.927273 172.05988 
L 377.754545 155.22103 
L 400.581818 141.141066 
L 423.409091 125.846393 
L 446.236364 111.472236 
L 469.063636 99.817694 
L 491.890909 88.71626 
L 514.718182 81.249633 
L 537.545455 74.152409 
L 560.372727 68.313158 
" clip-path="url(#p3141641610)" style="fill: none; stroke-dasharray: 3.7,1.6; stroke-dashoffset: 0; stroke: #1f77b4; stroke-opacity: 0.6"/>
   </g>
   <g id="line2d_99">
    <path d="M 103.827273 307.8 
L 126.654545 300.595687 
L 149.481818 293.24783 
L 172.309091 280.997704 
L 195.136364 269.393184 
L 217.963636 254.134268 
L 240.790909 240.75601 
L 263.618182 227.262607 
L 286.445455 209.731867 
L 309.272727 189.424007 
L 332.1 172.308812 
L 354.927273 157.119303 
L 377.754545 141.255548 
L 400.581818 124.470611 
L 423.409091 109.662487 
L 446.236364 95.997853 
L 469.063636 84.77395 
L 491.890909 76.881343 
L 514.718182 68.817012 
L 537.545455 64.106607 
L 560.372727 59.619175 
" clip-path="url(#p3141641610)" style="fill: none; stroke-dasharray: 3.7,1.6; stroke-dashoffset: 0; stroke: #ff7f0e; stroke-opacity: 0.6"/>
   </g>
   <g id="line2d_100">
    <path d="M 103.827273 307.8 
L 126.654545 300.71134 
L 149.481818 293.590254 
L 172.309091 283.136781 
L 195.136364 272.819745 
L 217.963636 258.874689 
L 240.790909 244.694323 
L 263.618182 232.025998 
L 286.445455 215.236005 
L 309.272727 197.447689 
L 332.1 178.963416 
L 354.927273 160.09384 
L 377.754545 143.159145 
L 400.581818 126.780221 
L 423.409091 110.902488 
L 446.236364 99.496212 
L 469.063636 87.954821 
L 491.890909 79.509106 
L 514.718182 72.966987 
L 537.545455 67.154359 
L 560.372727 62.363417 
" clip-path="url(#p3141641610)" style="fill: none; stroke-dasharray: 3.7,1.6; stroke-dashoffset: 0; stroke: #2ca02c; stroke-opacity: 0.6"/>
   </g>
   <g id="line2d_101">
    <path d="M 103.827273 307.8 
L 126.654545 302.782502 
L 149.481818 295.177282 
L 172.309091 285.948395 
L 195.136364 273.662432 
L 217.963636 260.90605 
L 240.790909 246.788591 
L 263.618182 233.186259 
L 286.445455 215.462714 
L 309.272727 198.840606 
L 332.1 179.931189 
L 354.927273 162.640401 
L 377.754545 147.181327 
L 400.581818 130.725859 
L 423.409091 114.900708 
L 446.236364 100.492606 
L 469.063636 89.863744 
L 491.890909 81.829365 
L 514.718182 73.939419 
L 537.545455 68.239942 
L 560.372727 62.597041 
" clip-path="url(#p3141641610)" style="fill: none; stroke-dasharray: 3.7,1.6; stroke-dashoffset: 0; stroke: #d62728; stroke-opacity: 0.6"/>
   </g>
   <g id="line2d_102">
    <path d="M 103.827273 307.8 
L 126.654545 297.371361 
L 149.481818 291.209004 
L 172.309091 281.368888 
L 195.136364 270.893017 
L 217.963636 255.405321 
L 240.790909 242.156405 
L 263.618182 229.062112 
L 286.445455 215.398613 
L 309.272727 199.559553 
L 332.1 183.693809 
L 354.927273 167.229668 
L 377.754545 149.289261 
L 400.581818 133.676435 
L 423.409091 119.556535 
L 446.236364 104.468196 
L 469.063636 93.61636 
L 491.890909 83.541271 
L 514.718182 75.727203 
L 537.545455 70.290636 
L 560.372727 64.603139 
" clip-path="url(#p3141641610)" style="fill: none; stroke-dasharray: 3.7,1.6; stroke-dashoffset: 0; stroke: #9467bd; stroke-opacity: 0.6"/>
   </g>
   <g id="line2d_103">
    <path d="M 103.827273 307.8 
L 126.654545 298.613706 
L 149.481818 289.867352 
L 172.309091 279.427335 
L 195.136364 269.701666 
L 217.963636 258.77207 
L 240.790909 245.22912 
L 263.618182 231.646272 
L 286.445455 216.436641 
L 309.272727 199.392486 
L 332.1 181.270363 
L 354.927273 162.398791 
L 377.754545 146.359984 
L 400.581818 132.086998 
L 423.409091 118.842353 
L 446.236364 106.441015 
L 469.063636 94.94555 
L 491.890909 83.221786 
L 514.718182 76.909963 
L 537.545455 71.782896 
L 560.372727 65.710021 
" clip-path="url(#p3141641610)" style="fill: none; stroke-dasharray: 3.7,1.6; stroke-dashoffset: 0; stroke: #8c564b; stroke-opacity: 0.6"/>
   </g>
   <g id="line2d_104">
    <path d="M 103.827273 307.8 
L 126.654545 303.675892 
L 149.481818 295.3929 
L 172.309091 284.844238 
L 195.136364 273.289734 
L 217.963636 258.926867 
L 240.790909 243.318519 
L 263.618182 227.691041 
L 286.445455 211.382599 
L 309.272727 193.91039 
L 332.1 175.506268 
L 354.927273 158.743351 
L 377.754545 140.656514 
L 400.581818 121.704405 
L 423.409091 107.026072 
L 446.236364 94.659345 
L 469.063636 82.994819 
L 491.890909 74.373386 
L 514.718182 67.603635 
L 537.545455 60.029847 
L 560.372727 55.836608 
" clip-path="url(#p3141641610)" style="fill: none; stroke-dasharray: 3.7,1.6; stroke-dashoffset: 0; stroke: #e377c2; stroke-opacity: 0.6"/>
   </g>
   <g id="line2d_105">
    <path d="M 103.827273 307.8 
L 126.654545 298.152845 
L 149.481818 291.128854 
L 172.309091 281.352083 
L 195.136364 267.613275 
L 217.963636 255.516637 
L 240.790909 243.170987 
L 263.618182 230.272165 
L 286.445455 216.886067 
L 309.272727 202.839585 
L 332.1 186.224375 
L 354.927273 169.756927 
L 377.754545 154.914192 
L 400.581818 139.855805 
L 423.409091 126.50999 
L 446.236364 112.114534 
L 469.063636 98.56771 
L 491.890909 89.559567 
L 514.718182 81.832027 
L 537.545455 75.317863 
L 560.372727 69.312879 
" clip-path="url(#p3141641610)" style="fill: none; stroke-dasharray: 3.7,1.6; stroke-dashoffset: 0; stroke: #7f7f7f; stroke-opacity: 0.6"/>
   </g>
   <g id="line2d_106">
    <path d="M 103.827273 307.8 
L 126.654545 302.196674 
L 149.481818 295.721931 
L 172.309091 283.528852 
L 195.136364 270.845637 
L 217.963636 259.288166 
L 240.790909 244.441931 
L 263.618182 227.661662 
L 286.445455 213.698762 
L 309.272727 196.864422 
L 332.1 179.105187 
L 354.927273 161.681281 
L 377.754545 146.732717 
L 400.581818 130.148789 
L 423.409091 115.61489 
L 446.236364 102.701711 
L 469.063636 90.183894 
L 491.890909 82.080293 
L 514.718182 74.402672 
L 537.545455 68.93815 
L 560.372727 63.182763 
" clip-path="url(#p3141641610)" style="fill: none; stroke-dasharray: 3.7,1.6; stroke-dashoffset: 0; stroke: #bcbd22; stroke-opacity: 0.6"/>
   </g>
   <g id="line2d_107">
    <path d="M 103.827273 307.8 
L 126.654545 303.675524 
L 149.481818 293.957235 
L 172.309091 282.000922 
L 195.136364 269.185186 
L 217.963636 255.774447 
L 240.790909 243.255745 
L 263.618182 230.576123 
L 286.445455 214.68993 
L 309.272727 200.001495 
L 332.1 183.329709 
L 354.927273 164.701744 
L 377.754545 150.573191 
L 400.581818 134.989651 
L 423.409091 120.079025 
L 446.236364 107.270344 
L 469.063636 97.229201 
L 491.890909 87.729851 
L 514.718182 79.604951 
L 537.545455 73.412935 
L 560.372727 68.931494 
" clip-path="url(#p3141641610)" style="fill: none; stroke-dasharray: 3.7,1.6; stroke-dashoffset: 0; stroke: #17becf; stroke-opacity: 0.6"/>
   </g>
   <g id="line2d_108">
    <path d="M 103.827273 307.8 
L 126.654545 295.724107 
L 149.481818 288.710398 
L 172.309091 280.448913 
L 195.136364 268.151134 
L 217.963636 254.628372 
L 240.790909 238.83699 
L 263.618182 226.44441 
L 286.445455 213.01884 
L 309.272727 198.287783 
L 332.1 179.967796 
L 354.927273 161.739187 
L 377.754545 146.752685 
L 400.581818 129.635617 
L 423.409091 116.112088 
L 446.236364 103.425211 
L 469.063636 91.3793 
L 491.890909 82.3239 
L 514.718182 75.285249 
L 537.545455 68.500855 
L 560.372727 64.266349 
" clip-path="url(#p3141641610)" style="fill: none; stroke-dasharray: 3.7,1.6; stroke-dashoffset: 0; stroke: #1f77b4; stroke-opacity: 0.6"/>
   </g>
   <g id="line2d_109">
    <path d="M 103.827273 307.8 
L 126.654545 303.185488 
L 149.481818 295.040438 
L 172.309091 284.770985 
L 195.136364 272.862103 
L 217.963636 261.189907 
L 240.790909 248.130312 
L 263.618182 231.073632 
L 286.445455 215.566342 
L 309.272727 199.593229 
L 332.1 182.611534 
L 354.927273 163.461078 
L 377.754545 147.084816 
L 400.581818 131.497947 
L 423.409091 115.403897 
L 446.236364 102.551287 
L 469.063636 90.368263 
L 491.890909 81.05661 
L 514.718182 74.579055 
L 537.545455 68.359084 
L 560.372727 62.772757 
" clip-path="url(#p3141641610)" style="fill: none; stroke-dasharray: 3.7,1.6; stroke-dashoffset: 0; stroke: #ff7f0e; stroke-opacity: 0.6"/>
   </g>
   <g id="line2d_110">
    <path d="M 103.827273 307.8 
L 126.654545 301.688248 
L 149.481818 294.922868 
L 172.309091 285.362943 
L 195.136364 272.720674 
L 217.963636 257.566828 
L 240.790909 243.569052 
L 263.618182 229.652238 
L 286.445455 212.211616 
L 309.272727 195.919859 
L 332.1 176.967301 
L 354.927273 158.161622 
L 377.754545 138.623791 
L 400.581818 123.287852 
L 423.409091 107.197129 
L 446.236364 93.996413 
L 469.063636 83.524631 
L 491.890909 75.898261 
L 514.718182 69.57712 
L 537.545455 64.280327 
L 560.372727 58.957576 
" clip-path="url(#p3141641610)" style="fill: none; stroke-dasharray: 3.7,1.6; stroke-dashoffset: 0; stroke: #2ca02c; stroke-opacity: 0.6"/>
   </g>
   <g id="line2d_111">
    <path d="M 103.827273 307.8 
L 126.654545 299.576076 
L 149.481818 290.981229 
L 172.309091 281.045472 
L 195.136364 268.866533 
L 217.963636 256.553535 
L 240.790909 241.462051 
L 263.618182 228.46106 
L 286.445455 215.139398 
L 309.272727 200.140478 
L 332.1 183.631223 
L 354.927273 165.151685 
L 377.754545 148.458601 
L 400.581818 132.467717 
L 423.409091 118.154129 
L 446.236364 105.078545 
L 469.063636 92.303809 
L 491.890909 83.146574 
L 514.718182 76.75488 
L 537.545455 71.668414 
L 560.372727 65.685394 
" clip-path="url(#p3141641610)" style="fill: none; stroke-dasharray: 3.7,1.6; stroke-dashoffset: 0; stroke: #d62728; stroke-opacity: 0.6"/>
   </g>
   <g id="line2d_112">
    <path d="M 103.827273 307.8 
L 126.654545 298.474019 
L 149.481818 292.493229 
L 172.309091 283.193306 
L 195.136364 271.239889 
L 217.963636 259.083962 
L 240.790909 243.787484 
L 263.618182 230.312643 
L 286.445455 213.406324 
L 309.272727 197.12825 
L 332.1 178.470877 
L 354.927273 163.107648 
L 377.754545 147.542078 
L 400.581818 130.116175 
L 423.409091 114.263735 
L 446.236364 100.980486 
L 469.063636 88.184451 
L 491.890909 80.277866 
L 514.718182 74.084519 
L 537.545455 67.071826 
L 560.372727 63.191416 
" clip-path="url(#p3141641610)" style="fill: none; stroke-dasharray: 3.7,1.6; stroke-dashoffset: 0; stroke: #9467bd; stroke-opacity: 0.6"/>
   </g>
   <g id="line2d_113">
    <path d="M 103.827273 307.8 
L 126.654545 305.42249 
L 149.481818 298.323477 
L 172.309091 290.406501 
L 195.136364 277.011517 
L 217.963636 264.386585 
L 240.790909 251.693669 
L 263.618182 237.69748 
L 286.445455 222.944544 
L 309.272727 205.135883 
L 332.1 187.775874 
L 354.927273 170.805902 
L 377.754545 154.092849 
L 400.581818 137.45035 
L 423.409091 122.525747 
L 446.236364 108.615509 
L 469.063636 95.386838 
L 491.890909 84.453134 
L 514.718182 77.17021 
L 537.545455 70.684667 
L 560.372727 65.09701 
" clip-path="url(#p3141641610)" style="fill: none; stroke-dasharray: 3.7,1.6; stroke-dashoffset: 0; stroke: #8c564b; stroke-opacity: 0.6"/>
   </g>
   <g id="line2d_114">
    <path d="M 103.827273 307.8 
L 126.654545 299.569558 
L 149.481818 291.73093 
L 172.309091 283.594365 
L 195.136364 274.621395 
L 217.963636 261.827233 
L 240.790909 248.976319 
L 263.618182 235.202067 
L 286.445455 219.904814 
L 309.272727 203.823333 
L 332.1 184.561723 
L 354.927273 167.088562 
L 377.754545 149.606749 
L 400.581818 134.466494 
L 423.409091 119.667023 
L 446.236364 104.162688 
L 469.063636 92.010948 
L 491.890909 83.258394 
L 514.718182 76.868696 
L 537.545455 71.020792 
L 560.372727 64.702313 
" clip-path="url(#p3141641610)" style="fill: none; stroke-dasharray: 3.7,1.6; stroke-dashoffset: 0; stroke: #e377c2; stroke-opacity: 0.6"/>
   </g>
   <g id="line2d_115">
    <path d="M 103.827273 307.8 
L 126.654545 303.463466 
L 149.481818 292.897683 
L 172.309091 283.966683 
L 195.136364 274.705431 
L 217.963636 259.495297 
L 240.790909 244.748319 
L 263.618182 232.205137 
L 286.445455 216.809283 
L 309.272727 199.758665 
L 332.1 180.451683 
L 354.927273 162.524588 
L 377.754545 147.042883 
L 400.581818 130.763132 
L 423.409091 115.596919 
L 446.236364 103.083096 
L 469.063636 91.748704 
L 491.890909 80.352413 
L 514.718182 71.945301 
L 537.545455 65.745963 
L 560.372727 60.918414 
" clip-path="url(#p3141641610)" style="fill: none; stroke-dasharray: 3.7,1.6; stroke-dashoffset: 0; stroke: #7f7f7f; stroke-opacity: 0.6"/>
   </g>
   <g id="line2d_116">
    <path d="M 103.827273 307.8 
L 126.654545 303.808297 
L 149.481818 297.033786 
L 172.309091 287.527125 
L 195.136364 277.402718 
L 217.963636 264.756169 
L 240.790909 250.156607 
L 263.618182 235.432394 
L 286.445455 217.139029 
L 309.272727 199.920375 
L 332.1 182.028474 
L 354.927273 163.986231 
L 377.754545 144.413123 
L 400.581818 128.112739 
L 423.409091 111.732483 
L 446.236364 98.732777 
L 469.063636 87.313189 
L 491.890909 78.417532 
L 514.718182 70.937593 
L 537.545455 63.737202 
L 560.372727 58.224757 
" clip-path="url(#p3141641610)" style="fill: none; stroke-dasharray: 3.7,1.6; stroke-dashoffset: 0; stroke: #bcbd22; stroke-opacity: 0.6"/>
   </g>
   <g id="line2d_117">
    <path d="M 103.827273 307.8 
L 126.654545 303.568543 
L 149.481818 294.537093 
L 172.309091 284.837069 
L 195.136364 274.598373 
L 217.963636 261.736022 
L 240.790909 245.003883 
L 263.618182 231.511331 
L 286.445455 212.040787 
L 309.272727 195.419781 
L 332.1 177.455846 
L 354.927273 160.541785 
L 377.754545 142.240626 
L 400.581818 124.101207 
L 423.409091 109.645182 
L 446.236364 96.623511 
L 469.063636 85.383634 
L 491.890909 77.658756 
L 514.718182 70.972204 
L 537.545455 64.963226 
L 560.372727 60.006551 
" clip-path="url(#p3141641610)" style="fill: none; stroke-dasharray: 3.7,1.6; stroke-dashoffset: 0; stroke: #17becf; stroke-opacity: 0.6"/>
   </g>
   <g id="line2d_118">
    <path d="M 103.827273 307.8 
L 126.654545 300.555714 
L 149.481818 292.617787 
L 172.309091 282.775576 
L 195.136364 271.516219 
L 217.963636 258.403496 
L 240.790909 244.524437 
L 263.618182 230.518307 
L 286.445455 214.853371 
L 309.272727 198.133856 
L 332.1 180.568037 
L 354.927273 163.160163 
L 377.754545 146.788041 
L 400.581818 130.98588 
L 423.409091 116.215861 
L 446.236364 102.758546 
L 469.063636 90.94703 
L 491.890909 81.819008 
L 514.718182 74.351555 
L 537.545455 68.257947 
L 560.372727 63.046529 
" clip-path="url(#p3141641610)" style="fill: none; stroke: #000000; stroke-width: 2.5; stroke-linecap: square"/>
   </g>
   <g id="patch_3">
    <path d="M 81 320.4 
L 81 43.2 
" style="fill: none; stroke: #000000; stroke-width: 0.8; stroke-linejoin: miter; stroke-linecap: square"/>
   </g>
   <g id="patch_4">
    <path d="M 583.2 320.4 
L 583.2 43.2 
" style="fill: none; stroke: #000000; stroke-width: 0.8; stroke-linejoin: miter; stroke-linecap: square"/>
   </g>
   <g id="patch_5">
    <path d="M 81 320.4 
L 583.2 320.4 
" style="fill: none; stroke: #000000; stroke-width: 0.8; stroke-linejoin: miter; stroke-linecap: square"/>
   </g>
   <g id="patch_6">
    <path d="M 81 43.2 
L 583.2 43.2 
" style="fill: none; stroke: #000000; stroke-width: 0.8; stroke-linejoin: miter; stroke-linecap: square"/>
   </g>
   <g id="legend_1">
    <g id="patch_7">
     <path d="M 88 65.878125 
L 161.065625 65.878125 
Q 163.065625 65.878125 163.065625 63.878125 
L 163.065625 50.2 
Q 163.065625 48.2 161.065625 48.2 
L 88 48.2 
Q 86 48.2 86 50.2 
L 86 63.878125 
Q 86 65.878125 88 65.878125 
z
" style="fill: #ffffff; opacity: 0.8; stroke: #cccccc; stroke-linejoin: miter"/>
    </g>
    <g id="line2d_119">
     <path d="M 90 56.298437 
L 100 56.298437 
L 110 56.298437 
" style="fill: none; stroke: #000000; stroke-width: 2.5; stroke-linecap: square"/>
    </g>
    <g id="text_20">
     <!-- Average -->
     <g transform="translate(118 59.798437) scale(0.1 -0.1)">
      <defs>
       <path id="DejaVuSans-41" d="M 2188 4044 
L 1331 1722 
L 3047 1722 
L 2188 4044 
z
M 1831 4666 
L 2547 4666 
L 4325 0 
L 3669 0 
L 3244 1197 
L 1141 1197 
L 716 0 
L 50 0 
L 1831 4666 
z
" transform="scale(0.015625)"/>
       <path id="DejaVuSans-67" d="M 2906 1791 
Q 2906 2416 2648 2759 
Q 2391 3103 1925 3103 
Q 1463 3103 1205 2759 
Q 947 2416 947 1791 
Q 947 1169 1205 825 
Q 1463 481 1925 481 
Q 2391 481 2648 825 
Q 2906 1169 2906 1791 
z
M 3481 434 
Q 3481 -459 3084 -895 
Q 2688 -1331 1869 -1331 
Q 1566 -1331 1297 -1286 
Q 1028 -1241 775 -1147 
L 775 -588 
Q 1028 -725 1275 -790 
Q 1522 -856 1778 -856 
Q 2344 -856 2625 -561 
Q 2906 -266 2906 331 
L 2906 616 
Q 2728 306 2450 153 
Q 2172 0 1784 0 
Q 1141 0 747 490 
Q 353 981 353 1791 
Q 353 2603 747 3093 
Q 1141 3584 1784 3584 
Q 2172 3584 2450 3431 
Q 2728 3278 2906 2969 
L 2906 3500 
L 3481 3500 
L 3481 434 
z
" transform="scale(0.015625)"/>
      </defs>
      <use xlink:href="#DejaVuSans-41"/>
      <use xlink:href="#DejaVuSans-76" x="62.533203"/>
      <use xlink:href="#DejaVuSans-65" x="121.712891"/>
      <use xlink:href="#DejaVuSans-72" x="183.236328"/>
      <use xlink:href="#DejaVuSans-61" x="224.349609"/>
      <use xlink:href="#DejaVuSans-67" x="285.628906"/>
      <use xlink:href="#DejaVuSans-65" x="349.105469"/>
     </g>
    </g>
   </g>
  </g>
 </g>
 <defs>
  <clipPath id="p3141641610">
   <rect x="81" y="43.2" width="502.2" height="277.2"/>
  </clipPath>
 </defs>
</svg>
