<?xml version="1.0" encoding="utf-8" standalone="no"?>
<!DOCTYPE svg PUBLIC "-//W3C//DTD SVG 1.1//EN"
  "http://www.w3.org/Graphics/SVG/1.1/DTD/svg11.dtd">
<svg xmlns:xlink="http://www.w3.org/1999/xlink" width="460.8pt" height="345.6pt" viewBox="0 0 460.8 345.6" xmlns="http://www.w3.org/2000/svg" version="1.1">
 <metadata>
  <rdf:RDF xmlns:dc="http://purl.org/dc/elements/1.1/" xmlns:cc="http://creativecommons.org/ns#" xmlns:rdf="http://www.w3.org/1999/02/22-rdf-syntax-ns#">
   <cc:Work>
    <dc:type rdf:resource="http://purl.org/dc/dcmitype/StillImage"/>
    <dc:date>2025-07-28T19:00:14.789390</dc:date>
    <dc:format>image/svg+xml</dc:format>
    <dc:creator>
     <cc:Agent>
      <dc:title>Matplotlib v3.8.0, https://matplotlib.org/</dc:title>
     </cc:Agent>
    </dc:creator>
   </cc:Work>
  </rdf:RDF>
 </metadata>
 <defs>
  <style type="text/css">*{stroke-linejoin: round; stroke-linecap: butt}</style>
 </defs>
 <g id="figure_1">
  <g id="patch_1">
   <path d="M 0 345.6 
L 460.8 345.6 
L 460.8 0 
L 0 0 
z
" style="fill: #ffffff"/>
  </g>
  <g id="axes_1">
   <g id="patch_2">
    <path d="M 57.6 307.584 
L 414.72 307.584 
L 414.72 41.472 
L 57.6 41.472 
z
" style="fill: #ffffff"/>
   </g>
   <g id="matplotlib.axis_1">
    <g id="xtick_1">
     <g id="line2d_1">
      <defs>
       <path id="m0730e27fe7" d="M 0 0 
L 0 3.5 
" style="stroke: #000000; stroke-width: 0.8"/>
      </defs>
      <g>
       <use xlink:href="#m0730e27fe7" x="73.832727" y="307.584" style="stroke: #000000; stroke-width: 0.8"/>
      </g>
     </g>
     <g id="text_1">
      <!-- 0.0 -->
      <g transform="translate(64.290852 323.702125) scale(0.12 -0.12)">
       <defs>
        <path id="DejaVuSans-30" d="M 2034 4250 
Q 1547 4250 1301 3770 
Q 1056 3291 1056 2328 
Q 1056 1369 1301 889 
Q 1547 409 2034 409 
Q 2525 409 2770 889 
Q 3016 1369 3016 2328 
Q 3016 3291 2770 3770 
Q 2525 4250 2034 4250 
z
M 2034 4750 
Q 2819 4750 3233 4129 
Q 3647 3509 3647 2328 
Q 3647 1150 3233 529 
Q 2819 -91 2034 -91 
Q 1250 -91 836 529 
Q 422 1150 422 2328 
Q 422 3509 836 4129 
Q 1250 4750 2034 4750 
z
" transform="scale(0.015625)"/>
        <path id="DejaVuSans-2e" d="M 684 794 
L 1344 794 
L 1344 0 
L 684 0 
L 684 794 
z
" transform="scale(0.015625)"/>
       </defs>
       <use xlink:href="#DejaVuSans-30"/>
       <use xlink:href="#DejaVuSans-2e" x="63.623047"/>
       <use xlink:href="#DejaVuSans-30" x="95.410156"/>
      </g>
     </g>
    </g>
    <g id="xtick_2">
     <g id="line2d_2">
      <g>
       <use xlink:href="#m0730e27fe7" x="116.550431" y="307.584" style="stroke: #000000; stroke-width: 0.8"/>
      </g>
     </g>
     <g id="text_2">
      <!-- 2.5 -->
      <g transform="translate(107.008556 323.702125) scale(0.12 -0.12)">
       <defs>
        <path id="DejaVuSans-32" d="M 1228 531 
L 3431 531 
L 3431 0 
L 469 0 
L 469 531 
Q 828 903 1448 1529 
Q 2069 2156 2228 2338 
Q 2531 2678 2651 2914 
Q 2772 3150 2772 3378 
Q 2772 3750 2511 3984 
Q 2250 4219 1831 4219 
Q 1534 4219 1204 4116 
Q 875 4013 500 3803 
L 500 4441 
Q 881 4594 1212 4672 
Q 1544 4750 1819 4750 
Q 2544 4750 2975 4387 
Q 3406 4025 3406 3419 
Q 3406 3131 3298 2873 
Q 3191 2616 2906 2266 
Q 2828 2175 2409 1742 
Q 1991 1309 1228 531 
z
" transform="scale(0.015625)"/>
        <path id="DejaVuSans-35" d="M 691 4666 
L 3169 4666 
L 3169 4134 
L 1269 4134 
L 1269 2991 
Q 1406 3038 1543 3061 
Q 1681 3084 1819 3084 
Q 2600 3084 3056 2656 
Q 3513 2228 3513 1497 
Q 3513 744 3044 326 
Q 2575 -91 1722 -91 
Q 1428 -91 1123 -41 
Q 819 9 494 109 
L 494 744 
Q 775 591 1075 516 
Q 1375 441 1709 441 
Q 2250 441 2565 725 
Q 2881 1009 2881 1497 
Q 2881 1984 2565 2268 
Q 2250 2553 1709 2553 
Q 1456 2553 1204 2497 
Q 953 2441 691 2322 
L 691 4666 
z
" transform="scale(0.015625)"/>
       </defs>
       <use xlink:href="#DejaVuSans-32"/>
       <use xlink:href="#DejaVuSans-2e" x="63.623047"/>
       <use xlink:href="#DejaVuSans-35" x="95.410156"/>
      </g>
     </g>
    </g>
    <g id="xtick_3">
     <g id="line2d_3">
      <g>
       <use xlink:href="#m0730e27fe7" x="159.268134" y="307.584" style="stroke: #000000; stroke-width: 0.8"/>
      </g>
     </g>
     <g id="text_3">
      <!-- 5.0 -->
      <g transform="translate(149.726259 323.702125) scale(0.12 -0.12)">
       <use xlink:href="#DejaVuSans-35"/>
       <use xlink:href="#DejaVuSans-2e" x="63.623047"/>
       <use xlink:href="#DejaVuSans-30" x="95.410156"/>
      </g>
     </g>
    </g>
    <g id="xtick_4">
     <g id="line2d_4">
      <g>
       <use xlink:href="#m0730e27fe7" x="201.985837" y="307.584" style="stroke: #000000; stroke-width: 0.8"/>
      </g>
     </g>
     <g id="text_4">
      <!-- 7.5 -->
      <g transform="translate(192.443962 323.702125) scale(0.12 -0.12)">
       <defs>
        <path id="DejaVuSans-37" d="M 525 4666 
L 3525 4666 
L 3525 4397 
L 1831 0 
L 1172 0 
L 2766 4134 
L 525 4134 
L 525 4666 
z
" transform="scale(0.015625)"/>
       </defs>
       <use xlink:href="#DejaVuSans-37"/>
       <use xlink:href="#DejaVuSans-2e" x="63.623047"/>
       <use xlink:href="#DejaVuSans-35" x="95.410156"/>
      </g>
     </g>
    </g>
    <g id="xtick_5">
     <g id="line2d_5">
      <g>
       <use xlink:href="#m0730e27fe7" x="244.703541" y="307.584" style="stroke: #000000; stroke-width: 0.8"/>
      </g>
     </g>
     <g id="text_5">
      <!-- 10.0 -->
      <g transform="translate(231.344166 323.702125) scale(0.12 -0.12)">
       <defs>
        <path id="DejaVuSans-31" d="M 794 531 
L 1825 531 
L 1825 4091 
L 703 3866 
L 703 4441 
L 1819 4666 
L 2450 4666 
L 2450 531 
L 3481 531 
L 3481 0 
L 794 0 
L 794 531 
z
" transform="scale(0.015625)"/>
       </defs>
       <use xlink:href="#DejaVuSans-31"/>
       <use xlink:href="#DejaVuSans-30" x="63.623047"/>
       <use xlink:href="#DejaVuSans-2e" x="127.246094"/>
       <use xlink:href="#DejaVuSans-30" x="159.033203"/>
      </g>
     </g>
    </g>
    <g id="xtick_6">
     <g id="line2d_6">
      <g>
       <use xlink:href="#m0730e27fe7" x="287.421244" y="307.584" style="stroke: #000000; stroke-width: 0.8"/>
      </g>
     </g>
     <g id="text_6">
      <!-- 12.5 -->
      <g transform="translate(274.061869 323.702125) scale(0.12 -0.12)">
       <use xlink:href="#DejaVuSans-31"/>
       <use xlink:href="#DejaVuSans-32" x="63.623047"/>
       <use xlink:href="#DejaVuSans-2e" x="127.246094"/>
       <use xlink:href="#DejaVuSans-35" x="159.033203"/>
      </g>
     </g>
    </g>
    <g id="xtick_7">
     <g id="line2d_7">
      <g>
       <use xlink:href="#m0730e27fe7" x="330.138947" y="307.584" style="stroke: #000000; stroke-width: 0.8"/>
      </g>
     </g>
     <g id="text_7">
      <!-- 15.0 -->
      <g transform="translate(316.779572 323.702125) scale(0.12 -0.12)">
       <use xlink:href="#DejaVuSans-31"/>
       <use xlink:href="#DejaVuSans-35" x="63.623047"/>
       <use xlink:href="#DejaVuSans-2e" x="127.246094"/>
       <use xlink:href="#DejaVuSans-30" x="159.033203"/>
      </g>
     </g>
    </g>
    <g id="xtick_8">
     <g id="line2d_8">
      <g>
       <use xlink:href="#m0730e27fe7" x="372.856651" y="307.584" style="stroke: #000000; stroke-width: 0.8"/>
      </g>
     </g>
     <g id="text_8">
      <!-- 17.5 -->
      <g transform="translate(359.497276 323.702125) scale(0.12 -0.12)">
       <use xlink:href="#DejaVuSans-31"/>
       <use xlink:href="#DejaVuSans-37" x="63.623047"/>
       <use xlink:href="#DejaVuSans-2e" x="127.246094"/>
       <use xlink:href="#DejaVuSans-35" x="159.033203"/>
      </g>
     </g>
    </g>
    <g id="text_9">
     <!-- Years -->
     <g transform="translate(216.371719 341.595406) scale(0.15 -0.15)">
      <defs>
       <path id="DejaVuSans-59" d="M -13 4666 
L 666 4666 
L 1959 2747 
L 3244 4666 
L 3922 4666 
L 2272 2222 
L 2272 0 
L 1638 0 
L 1638 2222 
L -13 4666 
z
" transform="scale(0.015625)"/>
       <path id="DejaVuSans-65" d="M 3597 1894 
L 3597 1613 
L 953 1613 
Q 991 1019 1311 708 
Q 1631 397 2203 397 
Q 2534 397 2845 478 
Q 3156 559 3463 722 
L 3463 178 
Q 3153 47 2828 -22 
Q 2503 -91 2169 -91 
Q 1331 -91 842 396 
Q 353 884 353 1716 
Q 353 2575 817 3079 
Q 1281 3584 2069 3584 
Q 2775 3584 3186 3129 
Q 3597 2675 3597 1894 
z
M 3022 2063 
Q 3016 2534 2758 2815 
Q 2500 3097 2075 3097 
Q 1594 3097 1305 2825 
Q 1016 2553 972 2059 
L 3022 2063 
z
" transform="scale(0.015625)"/>
       <path id="DejaVuSans-61" d="M 2194 1759 
Q 1497 1759 1228 1600 
Q 959 1441 959 1056 
Q 959 750 1161 570 
Q 1363 391 1709 391 
Q 2188 391 2477 730 
Q 2766 1069 2766 1631 
L 2766 1759 
L 2194 1759 
z
M 3341 1997 
L 3341 0 
L 2766 0 
L 2766 531 
Q 2569 213 2275 61 
Q 1981 -91 1556 -91 
Q 1019 -91 701 211 
Q 384 513 384 1019 
Q 384 1609 779 1909 
Q 1175 2209 1959 2209 
L 2766 2209 
L 2766 2266 
Q 2766 2663 2505 2880 
Q 2244 3097 1772 3097 
Q 1472 3097 1187 3025 
Q 903 2953 641 2809 
L 641 3341 
Q 956 3463 1253 3523 
Q 1550 3584 1831 3584 
Q 2591 3584 2966 3190 
Q 3341 2797 3341 1997 
z
" transform="scale(0.015625)"/>
       <path id="DejaVuSans-72" d="M 2631 2963 
Q 2534 3019 2420 3045 
Q 2306 3072 2169 3072 
Q 1681 3072 1420 2755 
Q 1159 2438 1159 1844 
L 1159 0 
L 581 0 
L 581 3500 
L 1159 3500 
L 1159 2956 
Q 1341 3275 1631 3429 
Q 1922 3584 2338 3584 
Q 2397 3584 2469 3576 
Q 2541 3569 2628 3553 
L 2631 2963 
z
" transform="scale(0.015625)"/>
       <path id="DejaVuSans-73" d="M 2834 3397 
L 2834 2853 
Q 2591 2978 2328 3040 
Q 2066 3103 1784 3103 
Q 1356 3103 1142 2972 
Q 928 2841 928 2578 
Q 928 2378 1081 2264 
Q 1234 2150 1697 2047 
L 1894 2003 
Q 2506 1872 2764 1633 
Q 3022 1394 3022 966 
Q 3022 478 2636 193 
Q 2250 -91 1575 -91 
Q 1294 -91 989 -36 
Q 684 19 347 128 
L 347 722 
Q 666 556 975 473 
Q 1284 391 1588 391 
Q 1994 391 2212 530 
Q 2431 669 2431 922 
Q 2431 1156 2273 1281 
Q 2116 1406 1581 1522 
L 1381 1569 
Q 847 1681 609 1914 
Q 372 2147 372 2553 
Q 372 3047 722 3315 
Q 1072 3584 1716 3584 
Q 2034 3584 2315 3537 
Q 2597 3491 2834 3397 
z
" transform="scale(0.015625)"/>
      </defs>
      <use xlink:href="#DejaVuSans-59"/>
      <use xlink:href="#DejaVuSans-65" x="47.833984"/>
      <use xlink:href="#DejaVuSans-61" x="109.357422"/>
      <use xlink:href="#DejaVuSans-72" x="170.636719"/>
      <use xlink:href="#DejaVuSans-73" x="211.75"/>
     </g>
    </g>
   </g>
   <g id="matplotlib.axis_2">
    <g id="ytick_1">
     <g id="line2d_9">
      <defs>
       <path id="m6a0622466c" d="M 0 0 
L -3.5 0 
" style="stroke: #000000; stroke-width: 0.8"/>
      </defs>
      <g>
       <use xlink:href="#m6a0622466c" x="57.6" y="277.982487" style="stroke: #000000; stroke-width: 0.8"/>
      </g>
     </g>
     <g id="text_10">
      <!-- 12 -->
      <g transform="translate(35.33 282.541549) scale(0.12 -0.12)">
       <use xlink:href="#DejaVuSans-31"/>
       <use xlink:href="#DejaVuSans-32" x="63.623047"/>
      </g>
     </g>
    </g>
    <g id="ytick_2">
     <g id="line2d_10">
      <g>
       <use xlink:href="#m6a0622466c" x="57.6" y="246.016901" style="stroke: #000000; stroke-width: 0.8"/>
      </g>
     </g>
     <g id="text_11">
      <!-- 14 -->
      <g transform="translate(35.33 250.575964) scale(0.12 -0.12)">
       <defs>
        <path id="DejaVuSans-34" d="M 2419 4116 
L 825 1625 
L 2419 1625 
L 2419 4116 
z
M 2253 4666 
L 3047 4666 
L 3047 1625 
L 3713 1625 
L 3713 1100 
L 3047 1100 
L 3047 0 
L 2419 0 
L 2419 1100 
L 313 1100 
L 313 1709 
L 2253 4666 
z
" transform="scale(0.015625)"/>
       </defs>
       <use xlink:href="#DejaVuSans-31"/>
       <use xlink:href="#DejaVuSans-34" x="63.623047"/>
      </g>
     </g>
    </g>
    <g id="ytick_3">
     <g id="line2d_11">
      <g>
       <use xlink:href="#m6a0622466c" x="57.6" y="214.051316" style="stroke: #000000; stroke-width: 0.8"/>
      </g>
     </g>
     <g id="text_12">
      <!-- 16 -->
      <g transform="translate(35.33 218.610378) scale(0.12 -0.12)">
       <defs>
        <path id="DejaVuSans-36" d="M 2113 2584 
Q 1688 2584 1439 2293 
Q 1191 2003 1191 1497 
Q 1191 994 1439 701 
Q 1688 409 2113 409 
Q 2538 409 2786 701 
Q 3034 994 3034 1497 
Q 3034 2003 2786 2293 
Q 2538 2584 2113 2584 
z
M 3366 4563 
L 3366 3988 
Q 3128 4100 2886 4159 
Q 2644 4219 2406 4219 
Q 1781 4219 1451 3797 
Q 1122 3375 1075 2522 
Q 1259 2794 1537 2939 
Q 1816 3084 2150 3084 
Q 2853 3084 3261 2657 
Q 3669 2231 3669 1497 
Q 3669 778 3244 343 
Q 2819 -91 2113 -91 
Q 1303 -91 875 529 
Q 447 1150 447 2328 
Q 447 3434 972 4092 
Q 1497 4750 2381 4750 
Q 2619 4750 2861 4703 
Q 3103 4656 3366 4563 
z
" transform="scale(0.015625)"/>
       </defs>
       <use xlink:href="#DejaVuSans-31"/>
       <use xlink:href="#DejaVuSans-36" x="63.623047"/>
      </g>
     </g>
    </g>
    <g id="ytick_4">
     <g id="line2d_12">
      <g>
       <use xlink:href="#m6a0622466c" x="57.6" y="182.08573" style="stroke: #000000; stroke-width: 0.8"/>
      </g>
     </g>
     <g id="text_13">
      <!-- 18 -->
      <g transform="translate(35.33 186.644792) scale(0.12 -0.12)">
       <defs>
        <path id="DejaVuSans-38" d="M 2034 2216 
Q 1584 2216 1326 1975 
Q 1069 1734 1069 1313 
Q 1069 891 1326 650 
Q 1584 409 2034 409 
Q 2484 409 2743 651 
Q 3003 894 3003 1313 
Q 3003 1734 2745 1975 
Q 2488 2216 2034 2216 
z
M 1403 2484 
Q 997 2584 770 2862 
Q 544 3141 544 3541 
Q 544 4100 942 4425 
Q 1341 4750 2034 4750 
Q 2731 4750 3128 4425 
Q 3525 4100 3525 3541 
Q 3525 3141 3298 2862 
Q 3072 2584 2669 2484 
Q 3125 2378 3379 2068 
Q 3634 1759 3634 1313 
Q 3634 634 3220 271 
Q 2806 -91 2034 -91 
Q 1263 -91 848 271 
Q 434 634 434 1313 
Q 434 1759 690 2068 
Q 947 2378 1403 2484 
z
M 1172 3481 
Q 1172 3119 1398 2916 
Q 1625 2713 2034 2713 
Q 2441 2713 2670 2916 
Q 2900 3119 2900 3481 
Q 2900 3844 2670 4047 
Q 2441 4250 2034 4250 
Q 1625 4250 1398 4047 
Q 1172 3844 1172 3481 
z
" transform="scale(0.015625)"/>
       </defs>
       <use xlink:href="#DejaVuSans-31"/>
       <use xlink:href="#DejaVuSans-38" x="63.623047"/>
      </g>
     </g>
    </g>
    <g id="ytick_5">
     <g id="line2d_13">
      <g>
       <use xlink:href="#m6a0622466c" x="57.6" y="150.120144" style="stroke: #000000; stroke-width: 0.8"/>
      </g>
     </g>
     <g id="text_14">
      <!-- 20 -->
      <g transform="translate(35.33 154.679207) scale(0.12 -0.12)">
       <use xlink:href="#DejaVuSans-32"/>
       <use xlink:href="#DejaVuSans-30" x="63.623047"/>
      </g>
     </g>
    </g>
    <g id="ytick_6">
     <g id="line2d_14">
      <g>
       <use xlink:href="#m6a0622466c" x="57.6" y="118.154558" style="stroke: #000000; stroke-width: 0.8"/>
      </g>
     </g>
     <g id="text_15">
      <!-- 22 -->
      <g transform="translate(35.33 122.713621) scale(0.12 -0.12)">
       <use xlink:href="#DejaVuSans-32"/>
       <use xlink:href="#DejaVuSans-32" x="63.623047"/>
      </g>
     </g>
    </g>
    <g id="ytick_7">
     <g id="line2d_15">
      <g>
       <use xlink:href="#m6a0622466c" x="57.6" y="86.188973" style="stroke: #000000; stroke-width: 0.8"/>
      </g>
     </g>
     <g id="text_16">
      <!-- 24 -->
      <g transform="translate(35.33 90.748035) scale(0.12 -0.12)">
       <use xlink:href="#DejaVuSans-32"/>
       <use xlink:href="#DejaVuSans-34" x="63.623047"/>
      </g>
     </g>
    </g>
    <g id="ytick_8">
     <g id="line2d_16">
      <g>
       <use xlink:href="#m6a0622466c" x="57.6" y="54.223387" style="stroke: #000000; stroke-width: 0.8"/>
      </g>
     </g>
     <g id="text_17">
      <!-- 26 -->
      <g transform="translate(35.33 58.782449) scale(0.12 -0.12)">
       <use xlink:href="#DejaVuSans-32"/>
       <use xlink:href="#DejaVuSans-36" x="63.623047"/>
      </g>
     </g>
    </g>
    <g id="text_18">
     <!-- Total coral cover (%) -->
     <g transform="translate(28.210469 251.497922) rotate(-90) scale(0.15 -0.15)">
      <defs>
       <path id="DejaVuSans-54" d="M -19 4666 
L 3928 4666 
L 3928 4134 
L 2272 4134 
L 2272 0 
L 1638 0 
L 1638 4134 
L -19 4134 
L -19 4666 
z
" transform="scale(0.015625)"/>
       <path id="DejaVuSans-6f" d="M 1959 3097 
Q 1497 3097 1228 2736 
Q 959 2375 959 1747 
Q 959 1119 1226 758 
Q 1494 397 1959 397 
Q 2419 397 2687 759 
Q 2956 1122 2956 1747 
Q 2956 2369 2687 2733 
Q 2419 3097 1959 3097 
z
M 1959 3584 
Q 2709 3584 3137 3096 
Q 3566 2609 3566 1747 
Q 3566 888 3137 398 
Q 2709 -91 1959 -91 
Q 1206 -91 779 398 
Q 353 888 353 1747 
Q 353 2609 779 3096 
Q 1206 3584 1959 3584 
z
" transform="scale(0.015625)"/>
       <path id="DejaVuSans-74" d="M 1172 4494 
L 1172 3500 
L 2356 3500 
L 2356 3053 
L 1172 3053 
L 1172 1153 
Q 1172 725 1289 603 
Q 1406 481 1766 481 
L 2356 481 
L 2356 0 
L 1766 0 
Q 1100 0 847 248 
Q 594 497 594 1153 
L 594 3053 
L 172 3053 
L 172 3500 
L 594 3500 
L 594 4494 
L 1172 4494 
z
" transform="scale(0.015625)"/>
       <path id="DejaVuSans-6c" d="M 603 4863 
L 1178 4863 
L 1178 0 
L 603 0 
L 603 4863 
z
" transform="scale(0.015625)"/>
       <path id="DejaVuSans-20" transform="scale(0.015625)"/>
       <path id="DejaVuSans-63" d="M 3122 3366 
L 3122 2828 
Q 2878 2963 2633 3030 
Q 2388 3097 2138 3097 
Q 1578 3097 1268 2742 
Q 959 2388 959 1747 
Q 959 1106 1268 751 
Q 1578 397 2138 397 
Q 2388 397 2633 464 
Q 2878 531 3122 666 
L 3122 134 
Q 2881 22 2623 -34 
Q 2366 -91 2075 -91 
Q 1284 -91 818 406 
Q 353 903 353 1747 
Q 353 2603 823 3093 
Q 1294 3584 2113 3584 
Q 2378 3584 2631 3529 
Q 2884 3475 3122 3366 
z
" transform="scale(0.015625)"/>
       <path id="DejaVuSans-76" d="M 191 3500 
L 800 3500 
L 1894 563 
L 2988 3500 
L 3597 3500 
L 2284 0 
L 1503 0 
L 191 3500 
z
" transform="scale(0.015625)"/>
       <path id="DejaVuSans-28" d="M 1984 4856 
Q 1566 4138 1362 3434 
Q 1159 2731 1159 2009 
Q 1159 1288 1364 580 
Q 1569 -128 1984 -844 
L 1484 -844 
Q 1016 -109 783 600 
Q 550 1309 550 2009 
Q 550 2706 781 3412 
Q 1013 4119 1484 4856 
L 1984 4856 
z
" transform="scale(0.015625)"/>
       <path id="DejaVuSans-25" d="M 4653 2053 
Q 4381 2053 4226 1822 
Q 4072 1591 4072 1178 
Q 4072 772 4226 539 
Q 4381 306 4653 306 
Q 4919 306 5073 539 
Q 5228 772 5228 1178 
Q 5228 1588 5073 1820 
Q 4919 2053 4653 2053 
z
M 4653 2450 
Q 5147 2450 5437 2106 
Q 5728 1763 5728 1178 
Q 5728 594 5436 251 
Q 5144 -91 4653 -91 
Q 4153 -91 3862 251 
Q 3572 594 3572 1178 
Q 3572 1766 3864 2108 
Q 4156 2450 4653 2450 
z
M 1428 4353 
Q 1159 4353 1004 4120 
Q 850 3888 850 3481 
Q 850 3069 1003 2837 
Q 1156 2606 1428 2606 
Q 1700 2606 1854 2837 
Q 2009 3069 2009 3481 
Q 2009 3884 1853 4118 
Q 1697 4353 1428 4353 
z
M 4250 4750 
L 4750 4750 
L 1831 -91 
L 1331 -91 
L 4250 4750 
z
M 1428 4750 
Q 1922 4750 2215 4408 
Q 2509 4066 2509 3481 
Q 2509 2891 2217 2550 
Q 1925 2209 1428 2209 
Q 931 2209 642 2551 
Q 353 2894 353 3481 
Q 353 4063 643 4406 
Q 934 4750 1428 4750 
z
" transform="scale(0.015625)"/>
       <path id="DejaVuSans-29" d="M 513 4856 
L 1013 4856 
Q 1481 4119 1714 3412 
Q 1947 2706 1947 2009 
Q 1947 1309 1714 600 
Q 1481 -109 1013 -844 
L 513 -844 
Q 928 -128 1133 580 
Q 1338 1288 1338 2009 
Q 1338 2731 1133 3434 
Q 928 4138 513 4856 
z
" transform="scale(0.015625)"/>
      </defs>
      <use xlink:href="#DejaVuSans-54"/>
      <use xlink:href="#DejaVuSans-6f" x="44.083984"/>
      <use xlink:href="#DejaVuSans-74" x="105.265625"/>
      <use xlink:href="#DejaVuSans-61" x="144.474609"/>
      <use xlink:href="#DejaVuSans-6c" x="205.753906"/>
      <use xlink:href="#DejaVuSans-20" x="233.537109"/>
      <use xlink:href="#DejaVuSans-63" x="265.324219"/>
      <use xlink:href="#DejaVuSans-6f" x="320.304688"/>
      <use xlink:href="#DejaVuSans-72" x="381.486328"/>
      <use xlink:href="#DejaVuSans-61" x="422.599609"/>
      <use xlink:href="#DejaVuSans-6c" x="483.878906"/>
      <use xlink:href="#DejaVuSans-20" x="511.662109"/>
      <use xlink:href="#DejaVuSans-63" x="543.449219"/>
      <use xlink:href="#DejaVuSans-6f" x="598.429688"/>
      <use xlink:href="#DejaVuSans-76" x="659.611328"/>
      <use xlink:href="#DejaVuSans-65" x="718.791016"/>
      <use xlink:href="#DejaVuSans-72" x="780.314453"/>
      <use xlink:href="#DejaVuSans-20" x="821.427734"/>
      <use xlink:href="#DejaVuSans-28" x="853.214844"/>
      <use xlink:href="#DejaVuSans-25" x="892.228516"/>
      <use xlink:href="#DejaVuSans-29" x="987.248047"/>
     </g>
    </g>
   </g>
   <g id="line2d_17">
    <path d="M 73.832727 183.684009 
L 90.919809 276.819641 
L 108.00689 261.042398 
L 125.093971 242.055585 
L 142.181053 220.339115 
L 159.268134 196.067682 
L 176.355215 272.44521 
L 193.442297 240.380368 
L 210.529378 205.318507 
L 227.616459 165.977185 
L 244.703541 127.159479 
L 261.790622 87.988418 
L 278.877703 200.2235 
L 295.964785 186.544652 
L 313.051866 147.789278 
L 330.138947 174.673103 
L 347.226029 136.902971 
L 364.31311 122.123395 
L 381.400191 82.719508 
L 398.487273 177.858547 
" clip-path="url(#p307490bb52)" style="fill: none; stroke-dasharray: 3.7,1.6; stroke-dashoffset: 0; stroke: #1f77b4"/>
   </g>
   <g id="line2d_18">
    <path d="M 73.832727 183.684009 
L 90.919809 277.979211 
L 108.00689 262.524413 
L 125.093971 242.938055 
L 142.181053 221.065972 
L 159.268134 196.251123 
L 176.355215 272.775853 
L 193.442297 240.958379 
L 210.529378 206.42691 
L 227.616459 170.861828 
L 244.703541 133.976723 
L 261.790622 98.073921 
L 278.877703 206.910563 
L 295.964785 196.377932 
L 313.051866 159.352185 
L 330.138947 187.748314 
L 347.226029 153.172727 
L 364.31311 140.017491 
L 381.400191 101.670399 
L 398.487273 192.425666 
" clip-path="url(#p307490bb52)" style="fill: none; stroke-dasharray: 3.7,1.6; stroke-dashoffset: 0; stroke: #ff7f0e"/>
   </g>
   <g id="line2d_19">
    <path d="M 73.832727 183.684009 
L 90.919809 277.718896 
L 108.00689 261.708761 
L 125.093971 240.454299 
L 142.181053 216.262475 
L 159.268134 189.430205 
L 176.355215 267.274716 
L 193.442297 233.33979 
L 210.529378 198.56887 
L 227.616459 160.929732 
L 244.703541 122.865428 
L 261.790622 83.998647 
L 278.877703 195.386257 
L 295.964785 183.432015 
L 313.051866 143.897736 
L 330.138947 171.18639 
L 347.226029 132.735893 
L 364.31311 117.112451 
L 381.400191 76.25416 
L 398.487273 169.847157 
" clip-path="url(#p307490bb52)" style="fill: none; stroke-dasharray: 3.7,1.6; stroke-dashoffset: 0; stroke: #2ca02c"/>
   </g>
   <g id="line2d_20">
    <path d="M 73.832727 183.684009 
L 90.919809 278.117606 
L 108.00689 261.874652 
L 125.093971 241.011685 
L 142.181053 215.293612 
L 159.268134 187.468424 
L 176.355215 266.945003 
L 193.442297 233.250365 
L 210.529378 195.302614 
L 227.616459 156.964245 
L 244.703541 117.739717 
L 261.790622 78.683695 
L 278.877703 194.2951 
L 295.964785 183.047427 
L 313.051866 144.04837 
L 330.138947 176.22542 
L 347.226029 139.101603 
L 364.31311 126.038317 
L 381.400191 86.908867 
L 398.487273 184.715388 
" clip-path="url(#p307490bb52)" style="fill: none; stroke-dasharray: 3.7,1.6; stroke-dashoffset: 0; stroke: #d62728"/>
   </g>
   <g id="line2d_21">
    <path d="M 73.832727 183.684009 
L 90.919809 278.465634 
L 108.00689 265.164847 
L 125.093971 246.636461 
L 142.181053 226.024416 
L 159.268134 201.667699 
L 176.355215 277.40695 
L 193.442297 244.58226 
L 210.529378 208.14735 
L 227.616459 170.175852 
L 244.703541 131.123424 
L 261.790622 91.962151 
L 278.877703 205.682894 
L 295.964785 193.087201 
L 313.051866 152.792376 
L 330.138947 180.544701 
L 347.226029 142.21173 
L 364.31311 127.424152 
L 381.400191 85.869334 
L 398.487273 181.239972 
" clip-path="url(#p307490bb52)" style="fill: none; stroke-dasharray: 3.7,1.6; stroke-dashoffset: 0; stroke: #9467bd"/>
   </g>
   <g id="line2d_22">
    <path d="M 73.832727 183.684009 
L 90.919809 277.743531 
L 108.00689 262.539106 
L 125.093971 240.560212 
L 142.181053 214.570328 
L 159.268134 184.89601 
L 176.355215 265.119818 
L 193.442297 230.33681 
L 210.529378 191.858355 
L 227.616459 151.011128 
L 244.703541 108.62275 
L 261.790622 66.750103 
L 278.877703 183.336613 
L 295.964785 168.038447 
L 313.051866 124.764986 
L 330.138947 156.32271 
L 347.226029 114.450304 
L 364.31311 98.060197 
L 381.400191 55.224203 
L 398.487273 159.80597 
" clip-path="url(#p307490bb52)" style="fill: none; stroke-dasharray: 3.7,1.6; stroke-dashoffset: 0; stroke: #8c564b"/>
   </g>
   <g id="line2d_23">
    <path d="M 73.832727 183.684009 
L 90.919809 276.657081 
L 108.00689 259.816161 
L 125.093971 238.426301 
L 142.181053 213.759177 
L 159.268134 184.863957 
L 176.355215 266.338611 
L 193.442297 233.921299 
L 210.529378 199.206295 
L 227.616459 162.689779 
L 244.703541 124.271971 
L 261.790622 85.808603 
L 278.877703 197.380121 
L 295.964785 187.363099 
L 313.051866 148.08223 
L 330.138947 180.127162 
L 347.226029 142.740833 
L 364.31311 128.73263 
L 381.400191 87.846252 
L 398.487273 182.832773 
" clip-path="url(#p307490bb52)" style="fill: none; stroke-dasharray: 3.7,1.6; stroke-dashoffset: 0; stroke: #e377c2"/>
   </g>
   <g id="line2d_24">
    <path d="M 73.832727 183.684009 
L 90.919809 277.930725 
L 108.00689 263.342599 
L 125.093971 243.29796 
L 142.181053 219.448121 
L 159.268134 190.081242 
L 176.355215 267.827378 
L 193.442297 231.092084 
L 210.529378 191.192968 
L 227.616459 147.503852 
L 244.703541 103.995191 
L 261.790622 62.395757 
L 278.877703 183.316372 
L 295.964785 168.312727 
L 313.051866 125.306799 
L 330.138947 157.838624 
L 347.226029 117.19938 
L 364.31311 101.177071 
L 381.400191 58.133955 
L 398.487273 163.24357 
" clip-path="url(#p307490bb52)" style="fill: none; stroke-dasharray: 3.7,1.6; stroke-dashoffset: 0; stroke: #7f7f7f"/>
   </g>
   <g id="line2d_25">
    <path d="M 73.832727 183.684009 
L 90.919809 279.394702 
L 108.00689 267.627016 
L 125.093971 252.960854 
L 142.181053 236.081679 
L 159.268134 214.999142 
L 176.355215 292.801134 
L 193.442297 263.365101 
L 210.529378 229.627724 
L 227.616459 192.483701 
L 244.703541 154.621739 
L 261.790622 116.191268 
L 278.877703 222.439545 
L 295.964785 210.088633 
L 313.051866 170.183731 
L 330.138947 194.704009 
L 347.226029 155.612689 
L 364.31311 138.930885 
L 381.400191 96.383606 
L 398.487273 189.713464 
" clip-path="url(#p307490bb52)" style="fill: none; stroke-dasharray: 3.7,1.6; stroke-dashoffset: 0; stroke: #bcbd22"/>
   </g>
   <g id="line2d_26">
    <path d="M 73.832727 183.684009 
L 90.919809 277.943906 
L 108.00689 262.612008 
L 125.093971 243.573634 
L 142.181053 219.811892 
L 159.268134 192.104656 
L 176.355215 271.630148 
L 193.442297 236.712587 
L 210.529378 198.603912 
L 227.616459 158.289213 
L 244.703541 118.083737 
L 261.790622 77.37459 
L 278.877703 192.473053 
L 295.964785 179.573738 
L 313.051866 138.950969 
L 330.138947 169.755364 
L 347.226029 130.514508 
L 364.31311 115.876623 
L 381.400191 74.223892 
L 398.487273 173.658204 
" clip-path="url(#p307490bb52)" style="fill: none; stroke-dasharray: 3.7,1.6; stroke-dashoffset: 0; stroke: #17becf"/>
   </g>
   <g id="line2d_27">
    <path d="M 73.832727 183.684009 
L 90.919809 277.149781 
L 108.00689 261.54431 
L 125.093971 240.227748 
L 142.181053 214.557368 
L 159.268134 185.30919 
L 176.355215 262.018229 
L 193.442297 225.444438 
L 210.529378 186.745403 
L 227.616459 146.595591 
L 244.703541 105.563419 
L 261.790622 65.757674 
L 278.877703 186.256564 
L 295.964785 172.49628 
L 313.051866 130.982259 
L 330.138947 162.472197 
L 347.226029 121.714956 
L 364.31311 106.223476 
L 381.400191 63.481786 
L 398.487273 166.224873 
" clip-path="url(#p307490bb52)" style="fill: none; stroke-dasharray: 3.7,1.6; stroke-dashoffset: 0; stroke: #1f77b4"/>
   </g>
   <g id="line2d_28">
    <path d="M 73.832727 183.684009 
L 90.919809 279.700992 
L 108.00689 267.513078 
L 125.093971 250.324963 
L 142.181053 232.226832 
L 159.268134 211.533978 
L 176.355215 290.000882 
L 193.442297 261.480878 
L 210.529378 230.426265 
L 227.616459 196.542512 
L 244.703541 160.638919 
L 261.790622 122.621454 
L 278.877703 221.951239 
L 295.964785 208.983981 
L 313.051866 169.998576 
L 330.138947 193.279103 
L 347.226029 154.704019 
L 364.31311 138.396917 
L 381.400191 96.408241 
L 398.487273 187.139344 
" clip-path="url(#p307490bb52)" style="fill: none; stroke-dasharray: 3.7,1.6; stroke-dashoffset: 0; stroke: #ff7f0e"/>
   </g>
   <g id="line2d_29">
    <path d="M 73.832727 183.684009 
L 90.919809 279.088883 
L 108.00689 266.473586 
L 125.093971 251.288999 
L 142.181053 231.14167 
L 159.268134 207.467086 
L 176.355215 284.941939 
L 193.442297 253.945791 
L 210.529378 220.400674 
L 227.616459 184.420219 
L 244.703541 146.290196 
L 261.790622 107.866289 
L 278.877703 212.709512 
L 295.964785 200.28799 
L 313.051866 162.392957 
L 330.138947 188.187821 
L 347.226029 151.65289 
L 364.31311 137.230914 
L 381.400191 97.619906 
L 398.487273 188.74407 
" clip-path="url(#p307490bb52)" style="fill: none; stroke-dasharray: 3.7,1.6; stroke-dashoffset: 0; stroke: #2ca02c"/>
   </g>
   <g id="line2d_30">
    <path d="M 73.832727 183.684009 
L 90.919809 279.488221 
L 108.00689 266.893513 
L 125.093971 252.223733 
L 142.181053 233.8746 
L 159.268134 214.09959 
L 176.355215 291.408562 
L 193.442297 263.075793 
L 210.529378 229.942656 
L 227.616459 195.975431 
L 244.703541 160.642065 
L 261.790622 123.555604 
L 278.877703 223.775169 
L 295.964785 211.990076 
L 313.051866 173.636237 
L 330.138947 197.070379 
L 347.226029 160.672118 
L 364.31311 145.251405 
L 381.400191 105.03221 
L 398.487273 192.314259 
" clip-path="url(#p307490bb52)" style="fill: none; stroke-dasharray: 3.7,1.6; stroke-dashoffset: 0; stroke: #d62728"/>
   </g>
   <g id="line2d_31">
    <path d="M 73.832727 183.684009 
L 90.919809 277.35047 
L 108.00689 263.141757 
L 125.093971 244.026274 
L 142.181053 221.681429 
L 159.268134 193.459953 
L 176.355215 270.346568 
L 193.442297 234.564024 
L 210.529378 194.879626 
L 227.616459 152.519098 
L 244.703541 108.572697 
L 261.790622 66.504608 
L 278.877703 186.512172 
L 295.964785 170.393677 
L 313.051866 126.762303 
L 330.138947 156.725813 
L 347.226029 116.40447 
L 364.31311 100.514751 
L 381.400191 57.908945 
L 398.487273 162.51927 
" clip-path="url(#p307490bb52)" style="fill: none; stroke-dasharray: 3.7,1.6; stroke-dashoffset: 0; stroke: #9467bd"/>
   </g>
   <g id="line2d_32">
    <path d="M 73.832727 183.684009 
L 90.919809 276.171286 
L 108.00689 258.835368 
L 125.093971 236.51734 
L 142.181053 211.682802 
L 159.268134 182.860066 
L 176.355215 260.709421 
L 193.442297 224.665806 
L 210.529378 186.906127 
L 227.616459 147.408544 
L 244.703541 108.590546 
L 261.790622 67.906853 
L 278.877703 186.977883 
L 295.964785 173.937348 
L 313.051866 133.437127 
L 330.138947 161.754958 
L 347.226029 123.556146 
L 364.31311 108.801205 
L 381.400191 67.94464 
L 398.487273 164.079904 
" clip-path="url(#p307490bb52)" style="fill: none; stroke-dasharray: 3.7,1.6; stroke-dashoffset: 0; stroke: #8c564b"/>
   </g>
   <g id="line2d_33">
    <path d="M 73.832727 183.684009 
L 90.919809 278.073357 
L 108.00689 261.633843 
L 125.093971 241.310655 
L 142.181053 216.999389 
L 159.268134 188.571826 
L 176.355215 268.167826 
L 193.442297 234.416811 
L 210.529378 197.187739 
L 227.616459 156.822408 
L 244.703541 116.992975 
L 261.790622 75.906822 
L 278.877703 191.414062 
L 295.964785 177.46219 
L 313.051866 134.746233 
L 330.138947 165.330169 
L 347.226029 125.416166 
L 364.31311 110.310686 
L 381.400191 68.762615 
L 398.487273 170.651638 
" clip-path="url(#p307490bb52)" style="fill: none; stroke-dasharray: 3.7,1.6; stroke-dashoffset: 0; stroke: #e377c2"/>
   </g>
   <g id="line2d_34">
    <path d="M 73.832727 183.684009 
L 90.919809 277.585208 
L 108.00689 262.559677 
L 125.093971 242.457917 
L 142.181053 218.750122 
L 159.268134 192.837115 
L 176.355215 272.384398 
L 193.442297 239.667847 
L 210.529378 202.881575 
L 227.616459 164.173764 
L 244.703541 125.834658 
L 261.790622 87.144794 
L 278.877703 198.027064 
L 295.964785 185.729031 
L 313.051866 146.514065 
L 330.138947 176.397551 
L 347.226029 138.393152 
L 364.31311 123.495422 
L 381.400191 83.128104 
L 398.487273 179.469392 
" clip-path="url(#p307490bb52)" style="fill: none; stroke-dasharray: 3.7,1.6; stroke-dashoffset: 0; stroke: #7f7f7f"/>
   </g>
   <g id="line2d_35">
    <path d="M 73.832727 183.684009 
L 90.919809 277.43834 
L 108.00689 261.283211 
L 125.093971 239.738765 
L 142.181053 215.0756 
L 159.268134 186.43899 
L 176.355215 265.72822 
L 193.442297 228.37851 
L 210.529378 188.769292 
L 227.616459 147.502149 
L 244.703541 107.28433 
L 261.790622 66.142226 
L 278.877703 187.893771 
L 295.964785 175.768496 
L 313.051866 134.969831 
L 330.138947 168.509493 
L 347.226029 127.957021 
L 364.31311 112.551842 
L 381.400191 69.609306 
L 398.487273 172.255109 
" clip-path="url(#p307490bb52)" style="fill: none; stroke-dasharray: 3.7,1.6; stroke-dashoffset: 0; stroke: #bcbd22"/>
   </g>
   <g id="line2d_36">
    <path d="M 73.832727 183.684009 
L 90.919809 279.629598 
L 108.00689 266.308239 
L 125.093971 251.062381 
L 142.181053 232.675208 
L 159.268134 211.485913 
L 176.355215 289.657121 
L 193.442297 261.54128 
L 210.529378 229.091257 
L 227.616459 193.767852 
L 244.703541 158.286795 
L 261.790622 122.148194 
L 278.877703 223.487708 
L 295.964785 213.568598 
L 313.051866 175.703692 
L 330.138947 200.241545 
L 347.226029 164.25737 
L 364.31311 149.841513 
L 381.400191 111.294203 
L 398.487273 198.615165 
" clip-path="url(#p307490bb52)" style="fill: none; stroke-dasharray: 3.7,1.6; stroke-dashoffset: 0; stroke: #17becf"/>
   </g>
   <g id="line2d_37">
    <path d="M 73.832727 183.684009 
L 90.919809 278.715279 
L 108.00689 264.102917 
L 125.093971 246.228749 
L 142.181053 225.956564 
L 159.268134 201.944168 
L 176.355215 279.845052 
L 193.442297 248.637383 
L 210.529378 215.891103 
L 227.616459 180.830086 
L 244.703541 144.492523 
L 261.790622 105.540801 
L 278.877703 210.001704 
L 295.964785 198.252388 
L 313.051866 159.7669 
L 330.138947 185.727462 
L 347.226029 147.058545 
L 364.31311 130.662946 
L 381.400191 89.880442 
L 398.487273 181.24672 
" clip-path="url(#p307490bb52)" style="fill: none; stroke-dasharray: 3.7,1.6; stroke-dashoffset: 0; stroke: #1f77b4"/>
   </g>
   <g id="line2d_38">
    <path d="M 73.832727 183.684009 
L 90.919809 276.605458 
L 108.00689 261.427376 
L 125.093971 240.514199 
L 142.181053 216.456283 
L 159.268134 189.971883 
L 176.355215 269.183432 
L 193.442297 236.248723 
L 210.529378 200.758784 
L 227.616459 163.458005 
L 244.703541 126.834731 
L 261.790622 89.469466 
L 278.877703 200.717455 
L 295.964785 189.802589 
L 313.051866 152.180738 
L 330.138947 181.645273 
L 347.226029 145.376462 
L 364.31311 131.010817 
L 381.400191 91.540087 
L 398.487273 184.601313 
" clip-path="url(#p307490bb52)" style="fill: none; stroke-dasharray: 3.7,1.6; stroke-dashoffset: 0; stroke: #ff7f0e"/>
   </g>
   <g id="line2d_39">
    <path d="M 73.832727 183.684009 
L 90.919809 276.769272 
L 108.00689 260.848511 
L 125.093971 240.933519 
L 142.181053 218.237545 
L 159.268134 189.708322 
L 176.355215 266.891713 
L 193.442297 232.706847 
L 210.529378 196.058061 
L 227.616459 158.912292 
L 244.703541 118.524188 
L 261.790622 79.21117 
L 278.877703 194.23767 
L 295.964785 181.698622 
L 313.051866 142.651551 
L 330.138947 172.404174 
L 347.226029 134.345483 
L 364.31311 120.2083 
L 381.400191 79.380763 
L 398.487273 175.278464 
" clip-path="url(#p307490bb52)" style="fill: none; stroke-dasharray: 3.7,1.6; stroke-dashoffset: 0; stroke: #2ca02c"/>
   </g>
   <g id="line2d_40">
    <path d="M 73.832727 183.684009 
L 90.919809 278.693625 
L 108.00689 265.741245 
L 125.093971 249.86369 
L 142.181053 232.509847 
L 159.268134 212.784298 
L 176.355215 291.836038 
L 193.442297 265.019101 
L 210.529378 235.024599 
L 227.616459 203.809169 
L 244.703541 170.903424 
L 261.790622 136.104221 
L 278.877703 232.789688 
L 295.964785 222.59316 
L 313.051866 187.096037 
L 330.138947 210.977218 
L 347.226029 176.489815 
L 364.31311 161.976673 
L 381.400191 122.966162 
L 398.487273 207.633922 
" clip-path="url(#p307490bb52)" style="fill: none; stroke-dasharray: 3.7,1.6; stroke-dashoffset: 0; stroke: #d62728"/>
   </g>
   <g id="line2d_41">
    <path d="M 73.832727 183.684009 
L 90.919809 278.79342 
L 108.00689 265.37522 
L 125.093971 248.873454 
L 142.181053 228.059989 
L 159.268134 205.460095 
L 176.355215 282.51453 
L 193.442297 250.976207 
L 210.529378 215.8112 
L 227.616459 179.601333 
L 244.703541 143.316986 
L 261.790622 106.329389 
L 278.877703 214.23233 
L 295.964785 204.502141 
L 313.051866 167.448463 
L 330.138947 196.059404 
L 347.226029 160.884888 
L 364.31311 148.07768 
L 381.400191 109.923431 
L 398.487273 200.603381 
" clip-path="url(#p307490bb52)" style="fill: none; stroke-dasharray: 3.7,1.6; stroke-dashoffset: 0; stroke: #9467bd"/>
   </g>
   <g id="line2d_42">
    <path d="M 73.832727 183.684009 
L 90.919809 276.909237 
L 108.00689 261.366635 
L 125.093971 240.949771 
L 142.181053 215.475687 
L 159.268134 188.33239 
L 176.355215 266.869277 
L 193.442297 231.985287 
L 210.529378 194.806486 
L 227.616459 155.062837 
L 244.703541 113.010057 
L 261.790622 72.361803 
L 278.877703 187.910717 
L 295.964785 173.62133 
L 313.051866 131.565339 
L 330.138947 161.892098 
L 347.226029 122.918147 
L 364.31311 108.432465 
L 381.400191 67.509213 
L 398.487273 167.18046 
" clip-path="url(#p307490bb52)" style="fill: none; stroke-dasharray: 3.7,1.6; stroke-dashoffset: 0; stroke: #8c564b"/>
   </g>
   <g id="line2d_43">
    <path d="M 73.832727 183.684009 
L 90.919809 277.876434 
L 108.00689 263.547897 
L 125.093971 245.506913 
L 142.181053 224.835821 
L 159.268134 200.111901 
L 176.355215 277.635252 
L 193.442297 245.103014 
L 210.529378 209.917885 
L 227.616459 175.066413 
L 244.703541 136.866491 
L 261.790622 100.915058 
L 278.877703 208.739357 
L 295.964785 198.24721 
L 313.051866 160.924587 
L 330.138947 187.551235 
L 347.226029 152.256369 
L 364.31311 139.122786 
L 381.400191 99.45278 
L 398.487273 187.12585 
" clip-path="url(#p307490bb52)" style="fill: none; stroke-dasharray: 3.7,1.6; stroke-dashoffset: 0; stroke: #e377c2"/>
   </g>
   <g id="line2d_44">
    <path d="M 73.832727 183.684009 
L 90.919809 279.190718 
L 108.00689 265.40507 
L 125.093971 247.997792 
L 142.181053 227.216266 
L 159.268134 204.048392 
L 176.355215 280.822526 
L 193.442297 249.037576 
L 210.529378 214.757198 
L 227.616459 177.873334 
L 244.703541 139.064885 
L 261.790622 99.57428 
L 278.877703 206.463211 
L 295.964785 194.165021 
L 313.051866 155.264818 
L 330.138947 181.178777 
L 347.226029 145.239793 
L 364.31311 131.12238 
L 381.400191 92.92451 
L 398.487273 182.930842 
" clip-path="url(#p307490bb52)" style="fill: none; stroke-dasharray: 3.7,1.6; stroke-dashoffset: 0; stroke: #7f7f7f"/>
   </g>
   <g id="line2d_45">
    <path d="M 73.832727 183.684009 
L 90.919809 279.574208 
L 108.00689 267.150596 
L 125.093971 252.102776 
L 142.181053 234.755147 
L 159.268134 215.009716 
L 176.355215 295.488 
L 193.442297 271.476136 
L 210.529378 243.518277 
L 227.616459 212.268224 
L 244.703541 179.651616 
L 261.790622 143.11359 
L 278.877703 236.542835 
L 295.964785 226.782048 
L 313.051866 191.545867 
L 330.138947 214.854952 
L 347.226029 181.683088 
L 364.31311 167.643503 
L 381.400191 130.94005 
L 398.487273 214.316435 
" clip-path="url(#p307490bb52)" style="fill: none; stroke-dasharray: 3.7,1.6; stroke-dashoffset: 0; stroke: #bcbd22"/>
   </g>
   <g id="line2d_46">
    <path d="M 73.832727 183.684009 
L 90.919809 279.041026 
L 108.00689 263.365081 
L 125.093971 246.049289 
L 142.181053 224.103689 
L 159.268134 200.446807 
L 176.355215 277.656899 
L 193.442297 244.547222 
L 210.529378 209.866518 
L 227.616459 173.747077 
L 244.703541 133.809637 
L 261.790622 95.847528 
L 278.877703 204.972245 
L 295.964785 192.387066 
L 313.051866 153.153271 
L 330.138947 178.904357 
L 347.226029 141.669604 
L 364.31311 126.656074 
L 381.400191 85.343212 
L 398.487273 177.426572 
" clip-path="url(#p307490bb52)" style="fill: none; stroke-dasharray: 3.7,1.6; stroke-dashoffset: 0; stroke: #17becf"/>
   </g>
   <g id="line2d_47">
    <path d="M 73.832727 183.684009 
L 90.919809 278.399731 
L 108.00689 263.145007 
L 125.093971 244.873914 
L 142.181053 224.081186 
L 159.268134 199.084713 
L 176.355215 274.447757 
L 193.442297 241.010652 
L 210.529378 203.685076 
L 227.616459 165.121739 
L 244.703541 126.179531 
L 261.790622 88.256543 
L 278.877703 200.442076 
L 295.964785 188.995598 
L 313.051866 151.163643 
L 330.138947 179.066288 
L 347.226029 143.033315 
L 364.31311 128.665316 
L 381.400191 88.119433 
L 398.487273 178.673855 
" clip-path="url(#p307490bb52)" style="fill: none; stroke-dasharray: 3.7,1.6; stroke-dashoffset: 0; stroke: #1f77b4"/>
   </g>
   <g id="line2d_48">
    <path d="M 73.832727 183.684009 
L 90.919809 278.21897 
L 108.00689 265.544997 
L 125.093971 250.527369 
L 142.181053 233.137556 
L 159.268134 211.95455 
L 176.355215 290.311062 
L 193.442297 263.015813 
L 210.529378 233.252477 
L 227.616459 201.705043 
L 244.703541 168.043374 
L 261.790622 133.536316 
L 278.877703 231.565785 
L 295.964785 222.044757 
L 313.051866 187.733094 
L 330.138947 212.646748 
L 347.226029 178.612032 
L 364.31311 165.184556 
L 381.400191 126.72182 
L 398.487273 212.628703 
" clip-path="url(#p307490bb52)" style="fill: none; stroke-dasharray: 3.7,1.6; stroke-dashoffset: 0; stroke: #ff7f0e"/>
   </g>
   <g id="line2d_49">
    <path d="M 73.832727 183.684009 
L 90.919809 279.132818 
L 108.00689 266.870679 
L 125.093971 250.586562 
L 142.181053 232.059644 
L 159.268134 209.496747 
L 176.355215 286.691978 
L 193.442297 256.233393 
L 210.529378 222.57436 
L 227.616459 184.646203 
L 244.703541 145.774771 
L 261.790622 105.914567 
L 278.877703 214.12673 
L 295.964785 200.297405 
L 313.051866 159.219595 
L 330.138947 185.164466 
L 347.226029 146.190829 
L 364.31311 130.097597 
L 381.400191 89.332196 
L 398.487273 186.416456 
" clip-path="url(#p307490bb52)" style="fill: none; stroke-dasharray: 3.7,1.6; stroke-dashoffset: 0; stroke: #2ca02c"/>
   </g>
   <g id="line2d_50">
    <path d="M 73.832727 183.684009 
L 90.919809 278.392357 
L 108.00689 261.64338 
L 125.093971 240.854705 
L 142.181053 216.977564 
L 159.268134 190.491511 
L 176.355215 267.56447 
L 193.442297 231.752429 
L 210.529378 192.885844 
L 227.616459 152.254689 
L 244.703541 111.846781 
L 261.790622 71.676571 
L 278.877703 191.205842 
L 295.964785 176.954427 
L 313.051866 134.07136 
L 330.138947 162.951873 
L 347.226029 120.845514 
L 364.31311 104.083528 
L 381.400191 60.255231 
L 398.487273 163.489763 
" clip-path="url(#p307490bb52)" style="fill: none; stroke-dasharray: 3.7,1.6; stroke-dashoffset: 0; stroke: #d62728"/>
   </g>
   <g id="line2d_51">
    <path d="M 73.832727 183.684009 
L 90.919809 277.776796 
L 108.00689 261.476627 
L 125.093971 239.61442 
L 142.181053 214.700735 
L 159.268134 185.594822 
L 176.355215 264.705133 
L 193.442297 228.274364 
L 210.529378 187.95966 
L 227.616459 147.650652 
L 244.703541 106.837406 
L 261.790622 66.777572 
L 278.877703 186.09479 
L 295.964785 172.668882 
L 313.051866 130.873677 
L 330.138947 162.256288 
L 347.226029 122.053726 
L 364.31311 106.413809 
L 381.400191 65.015274 
L 398.487273 167.261269 
" clip-path="url(#p307490bb52)" style="fill: none; stroke-dasharray: 3.7,1.6; stroke-dashoffset: 0; stroke: #9467bd"/>
   </g>
   <g id="line2d_52">
    <path d="M 73.832727 183.684009 
L 90.919809 279.288474 
L 108.00689 265.264685 
L 125.093971 248.3068 
L 142.181053 229.174904 
L 159.268134 207.758547 
L 176.355215 284.302875 
L 193.442297 254.241309 
L 210.529378 222.30356 
L 227.616459 189.016784 
L 244.703541 154.715405 
L 261.790622 118.435072 
L 278.877703 220.090748 
L 295.964785 208.895013 
L 313.051866 171.06855 
L 330.138947 195.104288 
L 347.226029 158.622236 
L 364.31311 143.256285 
L 381.400191 103.860087 
L 398.487273 192.321634 
" clip-path="url(#p307490bb52)" style="fill: none; stroke-dasharray: 3.7,1.6; stroke-dashoffset: 0; stroke: #8c564b"/>
   </g>
   <g id="line2d_53">
    <path d="M 73.832727 183.684009 
L 90.919809 279.817263 
L 108.00689 264.845155 
L 125.093971 247.521925 
L 142.181053 226.154857 
L 159.268134 202.305267 
L 176.355215 279.892441 
L 193.442297 247.198493 
L 210.529378 212.157674 
L 227.616459 175.09348 
L 244.703541 136.777643 
L 261.790622 97.349251 
L 278.877703 206.66233 
L 295.964785 193.858103 
L 313.051866 154.443547 
L 330.138947 181.932262 
L 347.226029 144.518945 
L 364.31311 129.865683 
L 381.400191 89.506681 
L 398.487273 182.726544 
" clip-path="url(#p307490bb52)" style="fill: none; stroke-dasharray: 3.7,1.6; stroke-dashoffset: 0; stroke: #e377c2"/>
   </g>
   <g id="line2d_54">
    <path d="M 73.832727 183.684009 
L 90.919809 276.90908 
L 108.00689 260.118724 
L 125.093971 238.436249 
L 142.181053 212.654147 
L 159.268134 184.961972 
L 176.355215 262.15836 
L 193.442297 224.378573 
L 210.529378 185.583978 
L 227.616459 145.521177 
L 244.703541 105.970584 
L 261.790622 66.84231 
L 278.877703 185.846871 
L 295.964785 174.164398 
L 313.051866 136.322715 
L 330.138947 167.092747 
L 347.226029 131.157842 
L 364.31311 118.484636 
L 381.400191 80.160923 
L 398.487273 174.520742 
" clip-path="url(#p307490bb52)" style="fill: none; stroke-dasharray: 3.7,1.6; stroke-dashoffset: 0; stroke: #7f7f7f"/>
   </g>
   <g id="line2d_55">
    <path d="M 73.832727 183.684009 
L 90.919809 277.080897 
L 108.00689 262.220514 
L 125.093971 241.801726 
L 142.181053 216.230957 
L 159.268134 189.380129 
L 176.355215 266.656279 
L 193.442297 232.562469 
L 210.529378 195.282571 
L 227.616459 155.513024 
L 244.703541 114.757913 
L 261.790622 73.265765 
L 278.877703 188.678795 
L 295.964785 173.276754 
L 313.051866 129.593599 
L 330.138947 158.310768 
L 347.226029 116.923845 
L 364.31311 100.427352 
L 381.400191 58.684084 
L 398.487273 160.778503 
" clip-path="url(#p307490bb52)" style="fill: none; stroke-dasharray: 3.7,1.6; stroke-dashoffset: 0; stroke: #bcbd22"/>
   </g>
   <g id="line2d_56">
    <path d="M 73.832727 183.684009 
L 90.919809 277.771147 
L 108.00689 263.580178 
L 125.093971 245.147844 
L 142.181053 224.557024 
L 159.268134 199.635887 
L 176.355215 278.505342 
L 193.442297 247.458259 
L 210.529378 213.49651 
L 227.616459 178.135196 
L 244.703541 140.668902 
L 261.790622 103.979033 
L 278.877703 212.144634 
L 295.964785 202.091051 
L 313.051866 165.139836 
L 330.138947 193.34124 
L 347.226029 156.914263 
L 364.31311 143.611374 
L 381.400191 105.116158 
L 398.487273 196.606081 
" clip-path="url(#p307490bb52)" style="fill: none; stroke-dasharray: 3.7,1.6; stroke-dashoffset: 0; stroke: #17becf"/>
   </g>
   <g id="line2d_57">
    <path d="M 73.832727 183.684009 
L 90.919809 277.855879 
L 108.00689 263.205854 
L 125.093971 243.50834 
L 142.181053 220.065741 
L 159.268134 193.333522 
L 176.355215 269.662742 
L 193.442297 234.2315 
L 210.529378 194.834858 
L 227.616459 152.189395 
L 244.703541 108.806615 
L 261.790622 67.077435 
L 278.877703 186.839645 
L 295.964785 172.365574 
L 313.051866 130.905216 
L 330.138947 162.611063 
L 347.226029 121.715113 
L 364.31311 105.969438 
L 381.400191 64.004926 
L 398.487273 166.96408 
" clip-path="url(#p307490bb52)" style="fill: none; stroke-dasharray: 3.7,1.6; stroke-dashoffset: 0; stroke: #1f77b4"/>
   </g>
   <g id="line2d_58">
    <path d="M 73.832727 183.684009 
L 90.919809 278.564488 
L 108.00689 262.781109 
L 125.093971 243.219853 
L 142.181053 218.530947 
L 159.268134 189.512591 
L 176.355215 266.344541 
L 193.442297 230.690072 
L 210.529378 191.353133 
L 227.616459 149.364005 
L 244.703541 109.366792 
L 261.790622 70.037132 
L 278.877703 188.918868 
L 295.964785 175.990211 
L 313.051866 136.467543 
L 330.138947 166.557681 
L 347.226029 129.168528 
L 364.31311 115.117489 
L 381.400191 73.784542 
L 398.487273 171.5079 
" clip-path="url(#p307490bb52)" style="fill: none; stroke-dasharray: 3.7,1.6; stroke-dashoffset: 0; stroke: #ff7f0e"/>
   </g>
   <g id="line2d_59">
    <path d="M 73.832727 183.684009 
L 90.919809 279.217864 
L 108.00689 264.165289 
L 125.093971 246.405462 
L 142.181053 225.780623 
L 159.268134 201.878652 
L 176.355215 275.931664 
L 193.442297 242.159839 
L 210.529378 203.746024 
L 227.616459 163.483303 
L 244.703541 122.764735 
L 261.790622 82.723578 
L 278.877703 198.011843 
L 295.964785 183.661418 
L 313.051866 141.068793 
L 330.138947 166.855811 
L 347.226029 126.663763 
L 364.31311 110.078772 
L 381.400191 67.916396 
L 398.487273 165.829615 
" clip-path="url(#p307490bb52)" style="fill: none; stroke-dasharray: 3.7,1.6; stroke-dashoffset: 0; stroke: #2ca02c"/>
   </g>
   <g id="line2d_60">
    <path d="M 73.832727 183.684009 
L 90.919809 276.724082 
L 108.00689 260.778264 
L 125.093971 241.789617 
L 142.181053 218.919997 
L 159.268134 192.876114 
L 176.355215 270.979352 
L 193.442297 237.567077 
L 210.529378 201.56491 
L 227.616459 164.278271 
L 244.703541 127.114139 
L 261.790622 89.840761 
L 278.877703 204.043334 
L 295.964785 193.794241 
L 313.051866 158.002753 
L 330.138947 188.13557 
L 347.226029 153.171786 
L 364.31311 139.902162 
L 381.400191 101.804714 
L 398.487273 194.052673 
" clip-path="url(#p307490bb52)" style="fill: none; stroke-dasharray: 3.7,1.6; stroke-dashoffset: 0; stroke: #d62728"/>
   </g>
   <g id="line2d_61">
    <path d="M 73.832727 183.684009 
L 90.919809 277.733802 
L 108.00689 262.167866 
L 125.093971 241.719488 
L 142.181053 217.59134 
L 159.268134 190.608814 
L 176.355215 270.557087 
L 193.442297 238.475971 
L 210.529378 204.507434 
L 227.616459 169.861115 
L 244.703541 134.347118 
L 261.790622 98.31575 
L 278.877703 206.575402 
L 295.964785 198.881913 
L 313.051866 162.418691 
L 330.138947 194.401956 
L 347.226029 157.654568 
L 364.31311 143.79135 
L 381.400191 103.765156 
L 398.487273 194.703538 
" clip-path="url(#p307490bb52)" style="fill: none; stroke-dasharray: 3.7,1.6; stroke-dashoffset: 0; stroke: #9467bd"/>
   </g>
   <g id="line2d_62">
    <path d="M 73.832727 183.684009 
L 90.919809 279.864179 
L 108.00689 267.455627 
L 125.093971 253.04063 
L 142.181053 234.888249 
L 159.268134 213.340613 
L 176.355215 288.71356 
L 193.442297 256.355971 
L 210.529378 221.385411 
L 227.616459 181.999165 
L 244.703541 143.137776 
L 261.790622 100.767064 
L 278.877703 210.256213 
L 295.964785 195.8493 
L 313.051866 155.615043 
L 330.138947 181.188819 
L 347.226029 143.415079 
L 364.31311 128.383504 
L 381.400191 87.18095 
L 398.487273 183.093559 
" clip-path="url(#p307490bb52)" style="fill: none; stroke-dasharray: 3.7,1.6; stroke-dashoffset: 0; stroke: #8c564b"/>
   </g>
   <g id="line2d_63">
    <path d="M 73.832727 183.684009 
L 90.919809 277.716699 
L 108.00689 262.301415 
L 125.093971 240.922546 
L 142.181053 215.495353 
L 159.268134 188.167275 
L 176.355215 269.448162 
L 193.442297 234.360355 
L 210.529378 196.105672 
L 227.616459 157.24341 
L 244.703541 116.65357 
L 261.790622 75.452574 
L 278.877703 191.69352 
L 295.964785 177.918487 
L 313.051866 133.720665 
L 330.138947 163.503728 
L 347.226029 121.282196 
L 364.31311 104.807357 
L 381.400191 62.407732 
L 398.487273 166.044112 
" clip-path="url(#p307490bb52)" style="fill: none; stroke-dasharray: 3.7,1.6; stroke-dashoffset: 0; stroke: #e377c2"/>
   </g>
   <g id="line2d_64">
    <path d="M 73.832727 183.684009 
L 90.919809 278.069121 
L 108.00689 263.075386 
L 125.093971 243.208838 
L 142.181053 219.570355 
L 159.268134 191.674211 
L 176.355215 270.566936 
L 193.442297 234.280115 
L 210.529378 195.747183 
L 227.616459 155.741783 
L 244.703541 114.675723 
L 261.790622 74.567772 
L 278.877703 192.732269 
L 295.964785 178.875642 
L 313.051866 137.268416 
L 330.138947 167.888755 
L 347.226029 127.478757 
L 364.31311 112.556078 
L 381.400191 72.483753 
L 398.487273 176.017984 
" clip-path="url(#p307490bb52)" style="fill: none; stroke-dasharray: 3.7,1.6; stroke-dashoffset: 0; stroke: #7f7f7f"/>
   </g>
   <g id="line2d_65">
    <path d="M 73.832727 183.684009 
L 90.919809 279.383248 
L 108.00689 266.174036 
L 125.093971 251.23486 
L 142.181053 231.335528 
L 159.268134 209.705658 
L 176.355215 287.770086 
L 193.442297 259.200737 
L 210.529378 225.954906 
L 227.616459 191.104013 
L 244.703541 153.702077 
L 261.790622 115.160513 
L 278.877703 219.774416 
L 295.964785 207.720066 
L 313.051866 168.289661 
L 330.138947 193.489363 
L 347.226029 157.332273 
L 364.31311 143.103925 
L 381.400191 103.341968 
L 398.487273 194.299022 
" clip-path="url(#p307490bb52)" style="fill: none; stroke-dasharray: 3.7,1.6; stroke-dashoffset: 0; stroke: #bcbd22"/>
   </g>
   <g id="line2d_66">
    <path d="M 73.832727 183.684009 
L 90.919809 279.985471 
L 108.00689 266.478411 
L 125.093971 250.103115 
L 142.181053 229.053675 
L 159.268134 204.432896 
L 176.355215 280.704648 
L 193.442297 246.943445 
L 210.529378 210.015192 
L 227.616459 170.813456 
L 244.703541 131.352743 
L 261.790622 91.95638 
L 278.877703 204.688551 
L 295.964785 192.305629 
L 313.051866 153.544292 
L 330.138947 182.442065 
L 347.226029 143.940573 
L 364.31311 129.087562 
L 381.400191 88.629864 
L 398.487273 183.31339 
" clip-path="url(#p307490bb52)" style="fill: none; stroke-dasharray: 3.7,1.6; stroke-dashoffset: 0; stroke: #17becf"/>
   </g>
   <g id="line2d_67">
    <path d="M 73.832727 183.684009 
L 90.919809 278.141456 
L 108.00689 263.632968 
L 125.093971 244.345311 
L 142.181053 220.939323 
L 159.268134 193.016952 
L 176.355215 270.161526 
L 193.442297 232.454765 
L 210.529378 190.222855 
L 227.616459 144.255473 
L 244.703541 99.303065 
L 261.790622 57.968384 
L 278.877703 181.451174 
L 295.964785 165.956713 
L 313.051866 123.237931 
L 330.138947 154.750935 
L 347.226029 115.191394 
L 364.31311 100.289271 
L 381.400191 59.910812 
L 398.487273 164.953269 
" clip-path="url(#p307490bb52)" style="fill: none; stroke-dasharray: 3.7,1.6; stroke-dashoffset: 0; stroke: #1f77b4"/>
   </g>
   <g id="line2d_68">
    <path d="M 73.832727 183.684009 
L 90.919809 278.957863 
L 108.00689 266.205098 
L 125.093971 248.033626 
L 142.181053 225.813364 
L 159.268134 201.263344 
L 176.355215 277.947787 
L 193.442297 245.295595 
L 210.529378 207.916627 
L 227.616459 169.657064 
L 244.703541 129.243394 
L 261.790622 89.681283 
L 278.877703 200.214556 
L 295.964785 186.976314 
L 313.051866 148.018368 
L 330.138947 174.331351 
L 347.226029 138.398173 
L 364.31311 124.98576 
L 381.400191 85.581246 
L 398.487273 177.041356 
" clip-path="url(#p307490bb52)" style="fill: none; stroke-dasharray: 3.7,1.6; stroke-dashoffset: 0; stroke: #ff7f0e"/>
   </g>
   <g id="line2d_69">
    <path d="M 73.832727 183.684009 
L 90.919809 276.591022 
L 108.00689 261.552449 
L 125.093971 242.661852 
L 142.181053 219.771545 
L 159.268134 193.515114 
L 176.355215 269.995569 
L 193.442297 233.886419 
L 210.529378 194.919541 
L 227.616459 154.649724 
L 244.703541 114.970141 
L 261.790622 75.396831 
L 278.877703 195.256962 
L 295.964785 181.880639 
L 313.051866 140.729866 
L 330.138947 169.898624 
L 347.226029 129.552332 
L 364.31311 114.037943 
L 381.400191 70.735454 
L 398.487273 171.078749 
" clip-path="url(#p307490bb52)" style="fill: none; stroke-dasharray: 3.7,1.6; stroke-dashoffset: 0; stroke: #2ca02c"/>
   </g>
   <g id="line2d_70">
    <path d="M 73.832727 183.684009 
L 90.919809 279.330526 
L 108.00689 265.778992 
L 125.093971 247.312048 
L 142.181053 225.673107 
L 159.268134 202.111072 
L 176.355215 281.017388 
L 193.442297 249.144273 
L 210.529378 213.438301 
L 227.616459 174.256658 
L 244.703541 134.416571 
L 261.790622 93.662463 
L 278.877703 205.062783 
L 295.964785 191.981451 
L 313.051866 152.485459 
L 330.138947 180.542504 
L 347.226029 142.106914 
L 364.31311 126.810474 
L 381.400191 85.619218 
L 398.487273 182.14927 
" clip-path="url(#p307490bb52)" style="fill: none; stroke-dasharray: 3.7,1.6; stroke-dashoffset: 0; stroke: #d62728"/>
   </g>
   <g id="line2d_71">
    <path d="M 73.832727 183.684009 
L 90.919809 278.716534 
L 108.00689 263.432279 
L 125.093971 244.32048 
L 142.181053 222.732411 
L 159.268134 194.988513 
L 176.355215 271.769031 
L 193.442297 236.63655 
L 210.529378 200.498698 
L 227.616459 162.447741 
L 244.703541 124.72032 
L 261.790622 85.595382 
L 278.877703 197.694413 
L 295.964785 184.953421 
L 313.051866 142.954859 
L 330.138947 170.77905 
L 347.226029 132.798971 
L 364.31311 118.11464 
L 381.400191 76.667463 
L 398.487273 172.550101 
" clip-path="url(#p307490bb52)" style="fill: none; stroke-dasharray: 3.7,1.6; stroke-dashoffset: 0; stroke: #9467bd"/>
   </g>
   <g id="line2d_72">
    <path d="M 73.832727 183.684009 
L 90.919809 277.88632 
L 108.00689 262.844769 
L 125.093971 244.25158 
L 142.181053 222.460877 
L 159.268134 197.971599 
L 176.355215 278.406656 
L 193.442297 248.461623 
L 210.529378 216.385348 
L 227.616459 181.517412 
L 244.703541 144.379266 
L 261.790622 104.595527 
L 278.877703 208.723353 
L 295.964785 194.345468 
L 313.051866 152.920886 
L 330.138947 179.733943 
L 347.226029 138.81885 
L 364.31311 121.913605 
L 381.400191 78.418586 
L 398.487273 176.628367 
" clip-path="url(#p307490bb52)" style="fill: none; stroke-dasharray: 3.7,1.6; stroke-dashoffset: 0; stroke: #8c564b"/>
   </g>
   <g id="line2d_73">
    <path d="M 73.832727 183.684009 
L 90.919809 277.917388 
L 108.00689 262.176923 
L 125.093971 242.945174 
L 142.181053 218.368186 
L 159.268134 190.072525 
L 176.355215 268.059599 
L 193.442297 235.148424 
L 210.529378 200.462369 
L 227.616459 164.552962 
L 244.703541 127.13518 
L 261.790622 91.547365 
L 278.877703 203.645408 
L 295.964785 194.897009 
L 313.051866 158.787934 
L 330.138947 189.358532 
L 347.226029 154.479794 
L 364.31311 141.959104 
L 381.400191 103.759821 
L 398.487273 194.822477 
" clip-path="url(#p307490bb52)" style="fill: none; stroke-dasharray: 3.7,1.6; stroke-dashoffset: 0; stroke: #e377c2"/>
   </g>
   <g id="line2d_74">
    <path d="M 73.832727 183.684009 
L 90.919809 278.150557 
L 108.00689 262.394775 
L 125.093971 242.408262 
L 142.181053 218.626386 
L 159.268134 191.571339 
L 176.355215 270.487035 
L 193.442297 236.381164 
L 210.529378 199.982666 
L 227.616459 162.442459 
L 244.703541 123.395703 
L 261.790622 83.631759 
L 278.877703 197.004948 
L 295.964785 183.758232 
L 313.051866 142.874835 
L 330.138947 171.816073 
L 347.226029 132.542893 
L 364.31311 117.341698 
L 381.400191 75.30689 
L 398.487273 173.830492 
" clip-path="url(#p307490bb52)" style="fill: none; stroke-dasharray: 3.7,1.6; stroke-dashoffset: 0; stroke: #7f7f7f"/>
   </g>
   <g id="line2d_75">
    <path d="M 73.832727 183.684009 
L 90.919809 279.135643 
L 108.00689 266.559836 
L 125.093971 249.616627 
L 142.181053 230.654681 
L 159.268134 207.891142 
L 176.355215 286.021105 
L 193.442297 256.842029 
L 210.529378 225.08162 
L 227.616459 190.928929 
L 244.703541 154.259263 
L 261.790622 116.902266 
L 278.877703 218.966169 
L 295.964785 208.311619 
L 313.051866 171.138375 
L 330.138947 197.0754 
L 347.226029 160.731116 
L 364.31311 145.963151 
L 381.400191 104.825559 
L 398.487273 192.929506 
" clip-path="url(#p307490bb52)" style="fill: none; stroke-dasharray: 3.7,1.6; stroke-dashoffset: 0; stroke: #bcbd22"/>
   </g>
   <g id="line2d_76">
    <path d="M 73.832727 183.684009 
L 90.919809 277.752004 
L 108.00689 261.48701 
L 125.093971 241.154989 
L 142.181053 216.454596 
L 159.268134 189.114315 
L 176.355215 269.0429 
L 193.442297 234.93593 
L 210.529378 199.267833 
L 227.616459 162.470732 
L 244.703541 124.577775 
L 261.790622 87.206712 
L 278.877703 197.265733 
L 295.964785 185.538855 
L 313.051866 145.927533 
L 330.138947 173.52075 
L 347.226029 133.685674 
L 364.31311 117.551174 
L 381.400191 74.136022 
L 398.487273 168.115491 
" clip-path="url(#p307490bb52)" style="fill: none; stroke-dasharray: 3.7,1.6; stroke-dashoffset: 0; stroke: #17becf"/>
   </g>
   <g id="line2d_77">
    <path d="M 73.832727 183.684009 
L 90.919809 278.016556 
L 108.00689 261.305961 
L 125.093971 242.947573 
L 142.181053 218.799268 
L 159.268134 193.777511 
L 176.355215 272.011241 
L 193.442297 240.352611 
L 210.529378 205.63292 
L 227.616459 167.420468 
L 244.703541 129.392763 
L 261.790622 89.416416 
L 278.877703 199.627553 
L 295.964785 186.923906 
L 313.051866 147.000488 
L 330.138947 174.243638 
L 347.226029 136.706989 
L 364.31311 121.761245 
L 381.400191 81.089049 
L 398.487273 173.839279 
" clip-path="url(#p307490bb52)" style="fill: none; stroke-dasharray: 3.7,1.6; stroke-dashoffset: 0; stroke: #1f77b4"/>
   </g>
   <g id="line2d_78">
    <path d="M 73.832727 183.684009 
L 90.919809 278.061589 
L 108.00689 264.272152 
L 125.093971 247.159099 
L 142.181053 226.649362 
L 159.268134 202.798642 
L 176.355215 281.49704 
L 193.442297 250.506811 
L 210.529378 217.751481 
L 227.616459 182.462783 
L 244.703541 145.899143 
L 261.790622 108.880001 
L 278.877703 213.79251 
L 295.964785 203.063584 
L 313.051866 165.119751 
L 330.138947 191.762718 
L 347.226029 154.547422 
L 364.31311 139.194808 
L 381.400191 98.539089 
L 398.487273 190.409363 
" clip-path="url(#p307490bb52)" style="fill: none; stroke-dasharray: 3.7,1.6; stroke-dashoffset: 0; stroke: #ff7f0e"/>
   </g>
   <g id="line2d_79">
    <path d="M 73.832727 183.684009 
L 90.919809 276.868911 
L 108.00689 261.034185 
L 125.093971 240.565506 
L 142.181053 216.605612 
L 159.268134 190.045519 
L 176.355215 269.665028 
L 193.442297 237.084244 
L 210.529378 203.041123 
L 227.616459 166.842871 
L 244.703541 130.468447 
L 261.790622 93.099084 
L 278.877703 203.370344 
L 295.964785 192.918836 
L 313.051866 155.548042 
L 330.138947 184.895992 
L 347.226029 148.528014 
L 364.31311 134.756903 
L 381.400191 96.521688 
L 398.487273 190.806033 
" clip-path="url(#p307490bb52)" style="fill: none; stroke-dasharray: 3.7,1.6; stroke-dashoffset: 0; stroke: #2ca02c"/>
   </g>
   <g id="line2d_80">
    <path d="M 73.832727 183.684009 
L 90.919809 276.818856 
L 108.00689 261.099828 
L 125.093971 242.60266 
L 142.181053 220.429253 
L 159.268134 195.523632 
L 176.355215 274.576825 
L 193.442297 244.730073 
L 210.529378 213.887087 
L 227.616459 181.288406 
L 244.703541 146.284179 
L 261.790622 109.616892 
L 278.877703 210.962468 
L 295.964785 200.341497 
L 313.051866 163.248434 
L 330.138947 187.586383 
L 347.226029 151.649281 
L 364.31311 137.13159 
L 381.400191 97.854644 
L 398.487273 183.558642 
" clip-path="url(#p307490bb52)" style="fill: none; stroke-dasharray: 3.7,1.6; stroke-dashoffset: 0; stroke: #d62728"/>
   </g>
   <g id="line2d_81">
    <path d="M 73.832727 183.684009 
L 90.919809 277.138954 
L 108.00689 260.653069 
L 125.093971 240.238163 
L 142.181053 217.945463 
L 159.268134 192.46793 
L 176.355215 271.589485 
L 193.442297 238.962331 
L 210.529378 204.11665 
L 227.616459 165.854151 
L 244.703541 127.157354 
L 261.790622 89.835598 
L 278.877703 201.776759 
L 295.964785 190.402145 
L 313.051866 152.434306 
L 330.138947 180.954709 
L 347.226029 143.55928 
L 364.31311 129.083797 
L 381.400191 89.789748 
L 398.487273 183.094814 
" clip-path="url(#p307490bb52)" style="fill: none; stroke-dasharray: 3.7,1.6; stroke-dashoffset: 0; stroke: #9467bd"/>
   </g>
   <g id="line2d_82">
    <path d="M 73.832727 183.684009 
L 90.919809 278.385296 
L 108.00689 264.228335 
L 125.093971 245.5813 
L 142.181053 223.673686 
L 159.268134 198.509795 
L 176.355215 278.378264 
L 193.442297 247.657501 
L 210.529378 212.260639 
L 227.616459 174.351926 
L 244.703541 136.663172 
L 261.790622 97.829957 
L 278.877703 205.87558 
L 295.964785 194.121243 
L 313.051866 154.841316 
L 330.138947 183.78224 
L 347.226029 146.307727 
L 364.31311 131.268935 
L 381.400191 90.762123 
L 398.487273 184.864296 
" clip-path="url(#p307490bb52)" style="fill: none; stroke-dasharray: 3.7,1.6; stroke-dashoffset: 0; stroke: #8c564b"/>
   </g>
   <g id="line2d_83">
    <path d="M 73.832727 183.684009 
L 90.919809 278.571863 
L 108.00689 264.543992 
L 125.093971 245.510504 
L 142.181053 223.184711 
L 159.268134 196.954667 
L 176.355215 275.300663 
L 193.442297 241.098669 
L 210.529378 202.203639 
L 227.616459 160.959828 
L 244.703541 117.775855 
L 261.790622 74.180084 
L 278.877703 191.739181 
L 295.964785 175.854483 
L 313.051866 131.889517 
L 330.138947 162.800454 
L 347.226029 120.769255 
L 364.31311 104.441598 
L 381.400191 61.610312 
L 398.487273 167.303164 
" clip-path="url(#p307490bb52)" style="fill: none; stroke-dasharray: 3.7,1.6; stroke-dashoffset: 0; stroke: #e377c2"/>
   </g>
   <g id="line2d_84">
    <path d="M 73.832727 183.684009 
L 90.919809 277.421864 
L 108.00689 262.761485 
L 125.093971 244.133211 
L 142.181053 222.6516 
L 159.268134 197.633693 
L 176.355215 275.679668 
L 193.442297 242.426927 
L 210.529378 206.473418 
L 227.616459 169.830368 
L 244.703541 133.068893 
L 261.790622 96.580475 
L 278.877703 206.163041 
L 295.964785 195.7721 
L 313.051866 157.604356 
L 330.138947 186.5412 
L 347.226029 149.209163 
L 364.31311 134.391615 
L 381.400191 94.430696 
L 398.487273 187.803861 
" clip-path="url(#p307490bb52)" style="fill: none; stroke-dasharray: 3.7,1.6; stroke-dashoffset: 0; stroke: #7f7f7f"/>
   </g>
   <g id="line2d_85">
    <path d="M 73.832727 183.684009 
L 90.919809 277.806295 
L 108.00689 261.900411 
L 125.093971 242.484674 
L 142.181053 220.05497 
L 159.268134 195.028586 
L 176.355215 273.468376 
L 193.442297 242.017381 
L 210.529378 208.256222 
L 227.616459 171.294543 
L 244.703541 133.464464 
L 261.790622 94.174836 
L 278.877703 203.472336 
L 295.964785 191.470236 
L 313.051866 152.683794 
L 330.138947 180.1882 
L 347.226029 143.367535 
L 364.31311 128.505581 
L 381.400191 89.660453 
L 398.487273 183.428092 
" clip-path="url(#p307490bb52)" style="fill: none; stroke-dasharray: 3.7,1.6; stroke-dashoffset: 0; stroke: #bcbd22"/>
   </g>
   <g id="line2d_86">
    <path d="M 73.832727 183.684009 
L 90.919809 278.573745 
L 108.00689 264.209457 
L 125.093971 246.718832 
L 142.181053 226.473714 
L 159.268134 203.366553 
L 176.355215 280.822274 
L 193.442297 247.744907 
L 210.529378 212.483838 
L 227.616459 175.976442 
L 244.703541 136.215464 
L 261.790622 96.354254 
L 278.877703 203.7474 
L 295.964785 189.261561 
L 313.051866 146.716009 
L 330.138947 172.478393 
L 347.226029 132.418777 
L 364.31311 115.84885 
L 381.400191 72.72618 
L 398.487273 170.899871 
" clip-path="url(#p307490bb52)" style="fill: none; stroke-dasharray: 3.7,1.6; stroke-dashoffset: 0; stroke: #17becf"/>
   </g>
   <g id="line2d_87">
    <path d="M 73.832727 183.684009 
L 90.919809 278.686564 
L 108.00689 261.979005 
L 125.093971 243.660856 
L 142.181053 220.803078 
L 159.268134 193.978267 
L 176.355215 268.397559 
L 193.442297 230.364886 
L 210.529378 189.957788 
L 227.616459 147.696108 
L 244.703541 106.797944 
L 261.790622 66.299275 
L 278.877703 187.521108 
L 295.964785 173.916165 
L 313.051866 132.088323 
L 330.138947 162.010252 
L 347.226029 123.809714 
L 364.31311 108.607734 
L 381.400191 66.681352 
L 398.487273 165.180162 
" clip-path="url(#p307490bb52)" style="fill: none; stroke-dasharray: 3.7,1.6; stroke-dashoffset: 0; stroke: #1f77b4"/>
   </g>
   <g id="line2d_88">
    <path d="M 73.832727 183.684009 
L 90.919809 279.070682 
L 108.00689 266.671941 
L 125.093971 249.601505 
L 142.181053 230.229092 
L 159.268134 207.949364 
L 176.355215 285.133763 
L 193.442297 255.094168 
L 210.529378 221.679836 
L 227.616459 186.395809 
L 244.703541 149.177874 
L 261.790622 112.441578 
L 278.877703 216.022525 
L 295.964785 205.358559 
L 313.051866 168.487683 
L 330.138947 194.292746 
L 347.226029 158.397854 
L 364.31311 144.691547 
L 381.400191 105.528833 
L 398.487273 193.950995 
" clip-path="url(#p307490bb52)" style="fill: none; stroke-dasharray: 3.7,1.6; stroke-dashoffset: 0; stroke: #ff7f0e"/>
   </g>
   <g id="line2d_89">
    <path d="M 73.832727 183.684009 
L 90.919809 278.588495 
L 108.00689 266.204717 
L 125.093971 248.456053 
L 142.181053 227.935072 
L 159.268134 205.583407 
L 176.355215 281.138536 
L 193.442297 250.107179 
L 210.529378 217.134134 
L 227.616459 182.340323 
L 244.703541 144.145999 
L 261.790622 103.641077 
L 278.877703 209.326831 
L 295.964785 195.103504 
L 313.051866 155.883831 
L 330.138947 180.072871 
L 347.226029 142.423089 
L 364.31311 126.420865 
L 381.400191 86.17986 
L 398.487273 179.006976 
" clip-path="url(#p307490bb52)" style="fill: none; stroke-dasharray: 3.7,1.6; stroke-dashoffset: 0; stroke: #2ca02c"/>
   </g>
   <g id="line2d_90">
    <path d="M 73.832727 183.684009 
L 90.919809 276.486833 
L 108.00689 260.965089 
L 125.093971 241.833471 
L 142.181053 218.425754 
L 159.268134 193.724551 
L 176.355215 273.426434 
L 193.442297 242.636733 
L 210.529378 207.923472 
L 227.616459 171.042858 
L 244.703541 134.484848 
L 261.790622 96.684381 
L 278.877703 204.575889 
L 295.964785 192.524676 
L 313.051866 154.103365 
L 330.138947 180.738643 
L 347.226029 143.11381 
L 364.31311 128.022923 
L 381.400191 87.908702 
L 398.487273 179.259916 
" clip-path="url(#p307490bb52)" style="fill: none; stroke-dasharray: 3.7,1.6; stroke-dashoffset: 0; stroke: #d62728"/>
   </g>
   <g id="line2d_91">
    <path d="M 73.832727 183.684009 
L 90.919809 279.863081 
L 108.00689 266.361176 
L 125.093971 249.985592 
L 142.181053 228.914255 
L 159.268134 206.582324 
L 176.355215 283.942404 
L 193.442297 253.421079 
L 210.529378 219.352159 
L 227.616459 182.416784 
L 244.703541 145.959856 
L 261.790622 107.074512 
L 278.877703 211.388481 
L 295.964785 199.130146 
L 313.051866 159.80597 
L 330.138947 184.314951 
L 347.226029 146.668936 
L 364.31311 131.110455 
L 381.400191 89.892367 
L 398.487273 179.347315 
" clip-path="url(#p307490bb52)" style="fill: none; stroke-dasharray: 3.7,1.6; stroke-dashoffset: 0; stroke: #9467bd"/>
   </g>
   <g id="line2d_92">
    <path d="M 73.832727 183.684009 
L 90.919809 278.91079 
L 108.00689 264.562608 
L 125.093971 247.084625 
L 142.181053 226.416725 
L 159.268134 202.110624 
L 176.355215 277.64321 
L 193.442297 245.759751 
L 210.529378 210.355166 
L 227.616459 172.986629 
L 244.703541 132.729575 
L 261.790622 90.091532 
L 278.877703 200.11884 
L 295.964785 184.617005 
L 313.051866 141.167803 
L 330.138947 167.322464 
L 347.226029 126.246851 
L 364.31311 109.021194 
L 381.400191 65.736279 
L 398.487273 166.153479 
" clip-path="url(#p307490bb52)" style="fill: none; stroke-dasharray: 3.7,1.6; stroke-dashoffset: 0; stroke: #8c564b"/>
   </g>
   <g id="line2d_93">
    <path d="M 73.832727 183.684009 
L 90.919809 277.373849 
L 108.00689 264.339274 
L 125.093971 247.15585 
L 142.181053 227.138177 
L 159.268134 204.112007 
L 176.355215 281.945355 
L 193.442297 250.356986 
L 210.529378 215.904351 
L 227.616459 179.4503 
L 244.703541 141.998497 
L 261.790622 103.807326 
L 278.877703 213.346256 
L 295.964785 201.572461 
L 313.051866 162.910919 
L 330.138947 188.912278 
L 347.226029 152.221535 
L 364.31311 137.784966 
L 381.400191 98.153716 
L 398.487273 190.866915 
" clip-path="url(#p307490bb52)" style="fill: none; stroke-dasharray: 3.7,1.6; stroke-dashoffset: 0; stroke: #e377c2"/>
   </g>
   <g id="line2d_94">
    <path d="M 73.832727 183.684009 
L 90.919809 277.417314 
L 108.00689 260.606321 
L 125.093971 238.688986 
L 142.181053 213.049582 
L 159.268134 184.905092 
L 176.355215 262.636267 
L 193.442297 227.943321 
L 210.529378 189.408562 
L 227.616459 148.235352 
L 244.703541 106.991887 
L 261.790622 67.506594 
L 278.877703 185.56349 
L 295.964785 171.924812 
L 313.051866 130.17511 
L 330.138947 160.154155 
L 347.226029 119.917544 
L 364.31311 104.561478 
L 381.400191 63.015918 
L 398.487273 161.984205 
" clip-path="url(#p307490bb52)" style="fill: none; stroke-dasharray: 3.7,1.6; stroke-dashoffset: 0; stroke: #7f7f7f"/>
   </g>
   <g id="line2d_95">
    <path d="M 73.832727 183.684009 
L 90.919809 275.841459 
L 108.00689 261.011136 
L 125.093971 242.779342 
L 142.181053 222.481782 
L 159.268134 197.626474 
L 176.355215 275.875782 
L 193.442297 244.362759 
L 210.529378 209.640112 
L 227.616459 174.099155 
L 244.703541 136.711786 
L 261.790622 98.840374 
L 278.877703 210.617892 
L 295.964785 199.26148 
L 313.051866 161.931326 
L 330.138947 189.443578 
L 347.226029 153.949749 
L 364.31311 140.386545 
L 381.400191 101.316094 
L 398.487273 193.479164 
" clip-path="url(#p307490bb52)" style="fill: none; stroke-dasharray: 3.7,1.6; stroke-dashoffset: 0; stroke: #bcbd22"/>
   </g>
   <g id="line2d_96">
    <path d="M 73.832727 183.684009 
L 90.919809 278.151499 
L 108.00689 262.465384 
L 125.093971 242.428412 
L 142.181053 219.345058 
L 159.268134 193.373272 
L 176.355215 270.667515 
L 193.442297 235.425452 
L 210.529378 196.40576 
L 227.616459 154.882788 
L 244.703541 112.733587 
L 261.790622 70.800839 
L 278.877703 189.387561 
L 295.964785 173.481209 
L 313.051866 129.682254 
L 330.138947 157.964937 
L 347.226029 117.135831 
L 364.31311 100.358782 
L 381.400191 56.815905 
L 398.487273 160.684357 
" clip-path="url(#p307490bb52)" style="fill: none; stroke-dasharray: 3.7,1.6; stroke-dashoffset: 0; stroke: #17becf"/>
   </g>
   <g id="line2d_97">
    <path d="M 73.832727 183.684009 
L 90.919809 278.372586 
L 108.00689 264.187866 
L 125.093971 246.426961 
L 142.181053 224.538054 
L 159.268134 199.59935 
L 176.355215 278.836256 
L 193.442297 246.262346 
L 210.529378 211.928413 
L 227.616459 176.722693 
L 244.703541 139.109289 
L 261.790622 99.652842 
L 278.877703 206.82489 
L 295.964785 194.384225 
L 313.051866 155.311577 
L 330.138947 182.943238 
L 347.226029 145.279178 
L 364.31311 130.428835 
L 381.400191 90.04206 
L 398.487273 183.69484 
" clip-path="url(#p307490bb52)" style="fill: none; stroke-dasharray: 3.7,1.6; stroke-dashoffset: 0; stroke: #1f77b4"/>
   </g>
   <g id="line2d_98">
    <path d="M 73.832727 183.684009 
L 90.919809 277.07666 
L 108.00689 262.413832 
L 125.093971 243.192497 
L 142.181053 221.220947 
L 159.268134 194.222616 
L 176.355215 272.113167 
L 193.442297 239.054452 
L 210.529378 201.23978 
L 227.616459 163.300815 
L 244.703541 124.484775 
L 261.790622 86.013145 
L 278.877703 199.949848 
L 295.964785 188.755838 
L 313.051866 148.897068 
L 330.138947 178.786517 
L 347.226029 142.827134 
L 364.31311 129.451909 
L 381.400191 90.851563 
L 398.487273 185.65387 
" clip-path="url(#p307490bb52)" style="fill: none; stroke-dasharray: 3.7,1.6; stroke-dashoffset: 0; stroke: #ff7f0e"/>
   </g>
   <g id="line2d_99">
    <path d="M 73.832727 183.684009 
L 90.919809 276.652688 
L 108.00689 261.988908 
L 125.093971 241.397921 
L 142.181053 217.523137 
L 159.268134 190.014477 
L 176.355215 268.493866 
L 193.442297 235.175805 
L 210.529378 199.325497 
L 227.616459 160.493715 
L 244.703541 120.45983 
L 261.790622 80.914538 
L 278.877703 196.405549 
L 295.964785 183.236818 
L 313.051866 143.340232 
L 330.138947 172.74012 
L 347.226029 134.506944 
L 364.31311 119.704302 
L 381.400191 79.539713 
L 398.487273 178.342773 
" clip-path="url(#p307490bb52)" style="fill: none; stroke-dasharray: 3.7,1.6; stroke-dashoffset: 0; stroke: #2ca02c"/>
   </g>
   <g id="line2d_100">
    <path d="M 73.832727 183.684009 
L 90.919809 278.301505 
L 108.00689 263.841484 
L 125.093971 246.215517 
L 142.181053 224.876357 
L 159.268134 200.802141 
L 176.355215 277.222505 
L 193.442297 246.306974 
L 210.529378 211.456916 
L 227.616459 175.396238 
L 244.703541 138.90693 
L 261.790622 101.007517 
L 278.877703 207.519534 
L 295.964785 195.4826 
L 313.051866 156.677799 
L 330.138947 182.824927 
L 347.226029 143.640873 
L 364.31311 127.619035 
L 381.400191 85.496514 
L 398.487273 178.012633 
" clip-path="url(#p307490bb52)" style="fill: none; stroke-dasharray: 3.7,1.6; stroke-dashoffset: 0; stroke: #d62728"/>
   </g>
   <g id="line2d_101">
    <path d="M 73.832727 183.684009 
L 90.919809 278.748544 
L 108.00689 265.009354 
L 125.093971 247.156757 
L 142.181053 225.539536 
L 159.268134 200.395606 
L 176.355215 278.112363 
L 193.442297 243.99672 
L 210.529378 206.2352 
L 227.616459 166.047626 
L 244.703541 124.906822 
L 261.790622 82.496701 
L 278.877703 195.982204 
L 295.964785 180.66819 
L 313.051866 138.29979 
L 330.138947 166.324983 
L 347.226029 127.059962 
L 364.31311 111.483594 
L 381.400191 70.680849 
L 398.487273 171.664811 
" clip-path="url(#p307490bb52)" style="fill: none; stroke-dasharray: 3.7,1.6; stroke-dashoffset: 0; stroke: #9467bd"/>
   </g>
   <g id="line2d_102">
    <path d="M 73.832727 183.684009 
L 90.919809 277.215526 
L 108.00689 258.126567 
L 125.093971 235.258744 
L 142.181053 208.608245 
L 159.268134 177.721036 
L 176.355215 258.618185 
L 193.442297 221.215707 
L 210.529378 179.264711 
L 227.616459 137.706454 
L 244.703541 94.413406 
L 261.790622 53.568 
L 278.877703 177.084036 
L 295.964785 163.734073 
L 313.051866 120.70555 
L 330.138947 155.083743 
L 347.226029 115.360543 
L 364.31311 101.091869 
L 381.400191 59.096132 
L 398.487273 164.591433 
" clip-path="url(#p307490bb52)" style="fill: none; stroke-dasharray: 3.7,1.6; stroke-dashoffset: 0; stroke: #8c564b"/>
   </g>
   <g id="line2d_103">
    <path d="M 73.832727 183.684009 
L 90.919809 278.104112 
L 108.00689 264.465576 
L 125.093971 247.376741 
L 142.181053 225.697491 
L 159.268134 201.989105 
L 176.355215 280.00481 
L 193.442297 250.141138 
L 210.529378 218.666648 
L 227.616459 185.52829 
L 244.703541 151.655145 
L 261.790622 116.040846 
L 278.877703 220.075685 
L 295.964785 211.504752 
L 313.051866 175.167371 
L 330.138947 201.245459 
L 347.226029 167.883106 
L 364.31311 155.54051 
L 381.400191 118.602789 
L 398.487273 202.402205 
" clip-path="url(#p307490bb52)" style="fill: none; stroke-dasharray: 3.7,1.6; stroke-dashoffset: 0; stroke: #e377c2"/>
   </g>
   <g id="line2d_104">
    <path d="M 73.832727 183.684009 
L 90.919809 276.849454 
L 108.00689 261.616345 
L 125.093971 242.514872 
L 142.181053 220.295969 
L 159.268134 192.998667 
L 176.355215 270.190875 
L 193.442297 235.368468 
L 210.529378 200.175333 
L 227.616459 163.880367 
L 244.703541 126.113012 
L 261.790622 87.579386 
L 278.877703 197.92413 
L 295.964785 185.298782 
L 313.051866 146.091348 
L 330.138947 173.591674 
L 347.226029 135.141962 
L 364.31311 120.097834 
L 381.400191 77.668396 
L 398.487273 171.032617 
" clip-path="url(#p307490bb52)" style="fill: none; stroke-dasharray: 3.7,1.6; stroke-dashoffset: 0; stroke: #7f7f7f"/>
   </g>
   <g id="line2d_105">
    <path d="M 73.832727 183.684009 
L 90.919809 276.428619 
L 108.00689 261.193614 
L 125.093971 242.463408 
L 142.181053 218.614618 
L 159.268134 192.972427 
L 176.355215 271.821127 
L 193.442297 240.108625 
L 210.529378 205.085883 
L 227.616459 166.294105 
L 244.703541 125.89286 
L 261.790622 85.717978 
L 278.877703 197.080422 
L 295.964785 182.404564 
L 313.051866 140.699268 
L 330.138947 167.769659 
L 347.226029 127.301291 
L 364.31311 110.93268 
L 381.400191 69.003159 
L 398.487273 167.978664 
" clip-path="url(#p307490bb52)" style="fill: none; stroke-dasharray: 3.7,1.6; stroke-dashoffset: 0; stroke: #bcbd22"/>
   </g>
   <g id="line2d_106">
    <path d="M 73.832727 183.684009 
L 90.919809 278.129531 
L 108.00689 264.445307 
L 125.093971 247.348647 
L 142.181053 227.050407 
L 159.268134 203.484055 
L 176.355215 281.807488 
L 193.442297 252.378471 
L 210.529378 219.260937 
L 227.616459 184.131799 
L 244.703541 147.356703 
L 261.790622 110.451687 
L 278.877703 214.418113 
L 295.964785 204.547959 
L 313.051866 170.051612 
L 330.138947 195.779318 
L 347.226029 163.067987 
L 364.31311 150.632971 
L 381.400191 115.234073 
L 398.487273 199.554746 
" clip-path="url(#p307490bb52)" style="fill: none; stroke-dasharray: 3.7,1.6; stroke-dashoffset: 0; stroke: #17becf"/>
   </g>
   <g id="line2d_107">
    <path d="M 73.832727 183.684009 
L 90.919809 279.162004 
L 108.00689 265.060525 
L 125.093971 246.978044 
L 142.181053 225.227915 
L 159.268134 200.010827 
L 176.355215 277.944301 
L 193.442297 246.41791 
L 210.529378 212.044944 
L 227.616459 175.63829 
L 244.703541 135.700187 
L 261.790622 95.855236 
L 278.877703 205.469495 
L 295.964785 191.811517 
L 313.051866 150.897679 
L 330.138947 177.407742 
L 347.226029 137.596673 
L 364.31311 121.318286 
L 381.400191 78.029918 
L 398.487273 174.720333 
" clip-path="url(#p307490bb52)" style="fill: none; stroke-dasharray: 3.7,1.6; stroke-dashoffset: 0; stroke: #1f77b4"/>
   </g>
   <g id="line2d_108">
    <path d="M 73.832727 183.684009 
L 90.919809 278.864344 
L 108.00689 266.176015 
L 125.093971 250.664554 
L 142.181053 231.448432 
L 159.268134 207.722764 
L 176.355215 284.598748 
L 193.442297 253.158554 
L 210.529378 219.226623 
L 227.616459 181.087775 
L 244.703541 140.887081 
L 261.790622 100.401977 
L 278.877703 207.083479 
L 295.964785 192.085012 
L 313.051866 152.46302 
L 330.138947 176.770999 
L 347.226029 139.194965 
L 364.31311 123.650607 
L 381.400191 82.034123 
L 398.487273 175.550704 
" clip-path="url(#p307490bb52)" style="fill: none; stroke-dasharray: 3.7,1.6; stroke-dashoffset: 0; stroke: #ff7f0e"/>
   </g>
   <g id="line2d_109">
    <path d="M 73.832727 183.684009 
L 90.919809 279.151491 
L 108.00689 267.020665 
L 125.093971 250.746548 
L 142.181053 231.016478 
L 159.268134 208.411895 
L 176.355215 286.219036 
L 193.442297 256.760584 
L 210.529378 223.686139 
L 227.616459 186.946489 
L 244.703541 150.695631 
L 261.790622 112.818691 
L 278.877703 216.539545 
L 295.964785 205.648217 
L 313.051866 168.335793 
L 330.138947 193.162204 
L 347.226029 157.264645 
L 364.31311 142.861811 
L 381.400191 103.02595 
L 398.487273 191.653979 
" clip-path="url(#p307490bb52)" style="fill: none; stroke-dasharray: 3.7,1.6; stroke-dashoffset: 0; stroke: #2ca02c"/>
   </g>
   <g id="line2d_110">
    <path d="M 73.832727 183.684009 
L 90.919809 279.130622 
L 108.00689 266.001553 
L 125.093971 249.582838 
L 142.181053 230.723219 
L 159.268134 209.990126 
L 176.355215 290.339566 
L 193.442297 263.491164 
L 210.529378 234.982336 
L 227.616459 205.006719 
L 244.703541 172.788591 
L 261.790622 138.372578 
L 278.877703 232.219161 
L 295.964785 224.204633 
L 313.051866 190.282736 
L 330.138947 215.031947 
L 347.226029 181.427951 
L 364.31311 166.684151 
L 381.400191 128.723843 
L 398.487273 209.667484 
" clip-path="url(#p307490bb52)" style="fill: none; stroke-dasharray: 3.7,1.6; stroke-dashoffset: 0; stroke: #d62728"/>
   </g>
   <g id="line2d_111">
    <path d="M 73.832727 183.684009 
L 90.919809 278.440371 
L 108.00689 264.461758 
L 125.093971 246.088688 
L 142.181053 225.085173 
L 159.268134 201.546488 
L 176.355215 281.291824 
L 193.442297 250.293872 
L 210.529378 216.754163 
L 227.616459 181.805972 
L 244.703541 145.140379 
L 261.790622 108.356786 
L 278.877703 213.632147 
L 295.964785 203.158044 
L 313.051866 165.387284 
L 330.138947 193.309073 
L 347.226029 156.321611 
L 364.31311 141.877354 
L 381.400191 100.943588 
L 398.487273 192.037625 
" clip-path="url(#p307490bb52)" style="fill: none; stroke-dasharray: 3.7,1.6; stroke-dashoffset: 0; stroke: #9467bd"/>
   </g>
   <g id="line2d_112">
    <path d="M 73.832727 183.684009 
L 90.919809 278.229326 
L 108.00689 263.534803 
L 125.093971 244.375604 
L 142.181053 221.959367 
L 159.268134 195.211268 
L 176.355215 270.593795 
L 193.442297 234.284296 
L 210.529378 196.492617 
L 227.616459 156.446214 
L 244.703541 114.216664 
L 261.790622 73.690346 
L 278.877703 188.925145 
L 295.964785 175.09174 
L 313.051866 133.190934 
L 330.138947 161.808151 
L 347.226029 120.35203 
L 364.31311 103.639 
L 381.400191 59.301214 
L 398.487273 158.408838 
" clip-path="url(#p307490bb52)" style="fill: none; stroke-dasharray: 3.7,1.6; stroke-dashoffset: 0; stroke: #8c564b"/>
   </g>
   <g id="line2d_113">
    <path d="M 73.832727 183.684009 
L 90.919809 278.195434 
L 108.00689 261.941725 
L 125.093971 241.581081 
L 142.181053 216.525108 
L 159.268134 188.173138 
L 176.355215 267.769821 
L 193.442297 233.762226 
L 210.529378 196.451552 
L 227.616459 157.828098 
L 244.703541 117.072079 
L 261.790622 77.560202 
L 278.877703 192.458303 
L 295.964785 179.25819 
L 313.051866 137.65928 
L 330.138947 167.494281 
L 347.226029 127.463066 
L 364.31311 111.477004 
L 381.400191 68.639911 
L 398.487273 169.112658 
" clip-path="url(#p307490bb52)" style="fill: none; stroke-dasharray: 3.7,1.6; stroke-dashoffset: 0; stroke: #e377c2"/>
   </g>
   <g id="line2d_114">
    <path d="M 73.832727 183.684009 
L 90.919809 278.738659 
L 108.00689 263.290878 
L 125.093971 242.935896 
L 142.181053 219.33119 
L 159.268134 192.31398 
L 176.355215 271.031254 
L 193.442297 239.636443 
L 210.529378 205.802521 
L 227.616459 169.619087 
L 244.703541 130.982558 
L 261.790622 92.082327 
L 278.877703 200.925832 
L 295.964785 188.80401 
L 313.051866 148.936923 
L 330.138947 176.92838 
L 347.226029 139.750586 
L 364.31311 125.555032 
L 381.400191 85.618748 
L 398.487273 178.927579 
" clip-path="url(#p307490bb52)" style="fill: none; stroke-dasharray: 3.7,1.6; stroke-dashoffset: 0; stroke: #7f7f7f"/>
   </g>
   <g id="line2d_115">
    <path d="M 73.832727 183.684009 
L 90.919809 278.280636 
L 108.00689 263.089905 
L 125.093971 244.430086 
L 142.181053 222.576537 
L 159.268134 197.649583 
L 176.355215 278.23486 
L 193.442297 247.275198 
L 210.529378 214.987139 
L 227.616459 179.923681 
L 244.703541 143.334148 
L 261.790622 107.047504 
L 278.877703 210.64645 
L 295.964785 200.387942 
L 313.051866 162.876556 
L 330.138947 189.140112 
L 347.226029 152.075922 
L 364.31311 136.880846 
L 381.400191 95.554333 
L 398.487273 184.808749 
" clip-path="url(#p307490bb52)" style="fill: none; stroke-dasharray: 3.7,1.6; stroke-dashoffset: 0; stroke: #bcbd22"/>
   </g>
   <g id="line2d_116">
    <path d="M 73.832727 183.684009 
L 90.919809 277.625848 
L 108.00689 262.402408 
L 125.093971 243.117561 
L 142.181053 219.453562 
L 159.268134 192.761687 
L 176.355215 269.017642 
L 193.442297 235.074749 
L 210.529378 199.661168 
L 227.616459 163.030244 
L 244.703541 124.185338 
L 261.790622 85.808883 
L 278.877703 198.922553 
L 295.964785 187.729799 
L 313.051866 150.653526 
L 330.138947 178.574687 
L 347.226029 143.301632 
L 364.31311 129.280406 
L 381.400191 90.918563 
L 398.487273 181.250485 
" clip-path="url(#p307490bb52)" style="fill: none; stroke-dasharray: 3.7,1.6; stroke-dashoffset: 0; stroke: #17becf"/>
   </g>
   <g id="line2d_117">
    <path d="M 73.832727 183.684009 
L 90.919809 278.128499 
L 108.00689 263.43572 
L 125.093971 244.794574 
L 142.181053 222.699015 
L 159.268134 197.414654 
L 176.355215 275.41551 
L 193.442297 242.786528 
L 210.529378 207.270634 
L 227.616459 169.738205 
L 244.703541 131.139486 
L 261.790622 92.239612 
L 278.877703 202.912171 
L 295.964785 190.529602 
L 313.051866 151.011642 
L 330.138947 178.942167 
L 347.226029 141.040609 
L 364.31311 126.12439 
L 381.400191 85.465562 
L 398.487273 180.260341 
" clip-path="url(#p307490bb52)" style="fill: none; stroke: #000000; stroke-width: 2.5; stroke-linecap: square"/>
   </g>
   <g id="patch_3">
    <path d="M 57.6 307.584 
L 57.6 41.472 
" style="fill: none; stroke: #000000; stroke-width: 0.8; stroke-linejoin: miter; stroke-linecap: square"/>
   </g>
   <g id="patch_4">
    <path d="M 414.72 307.584 
L 414.72 41.472 
" style="fill: none; stroke: #000000; stroke-width: 0.8; stroke-linejoin: miter; stroke-linecap: square"/>
   </g>
   <g id="patch_5">
    <path d="M 57.6 307.584 
L 414.72 307.584 
" style="fill: none; stroke: #000000; stroke-width: 0.8; stroke-linejoin: miter; stroke-linecap: square"/>
   </g>
   <g id="patch_6">
    <path d="M 57.6 41.472 
L 414.72 41.472 
" style="fill: none; stroke: #000000; stroke-width: 0.8; stroke-linejoin: miter; stroke-linecap: square"/>
   </g>
   <g id="legend_1">
    <g id="patch_7">
     <path d="M 64.6 64.150125 
L 137.665625 64.150125 
Q 139.665625 64.150125 139.665625 62.150125 
L 139.665625 48.472 
Q 139.665625 46.472 137.665625 46.472 
L 64.6 46.472 
Q 62.6 46.472 62.6 48.472 
L 62.6 62.150125 
Q 62.6 64.150125 64.6 64.150125 
z
" style="fill: #ffffff; opacity: 0.8; stroke: #cccccc; stroke-linejoin: miter"/>
    </g>
    <g id="line2d_118">
     <path d="M 66.6 54.570438 
L 76.6 54.570438 
L 86.6 54.570438 
" style="fill: none; stroke: #000000; stroke-width: 2.5; stroke-linecap: square"/>
    </g>
    <g id="text_19">
     <!-- Average -->
     <g transform="translate(94.6 58.070438) scale(0.1 -0.1)">
      <defs>
       <path id="DejaVuSans-41" d="M 2188 4044 
L 1331 1722 
L 3047 1722 
L 2188 4044 
z
M 1831 4666 
L 2547 4666 
L 4325 0 
L 3669 0 
L 3244 1197 
L 1141 1197 
L 716 0 
L 50 0 
L 1831 4666 
z
" transform="scale(0.015625)"/>
       <path id="DejaVuSans-67" d="M 2906 1791 
Q 2906 2416 2648 2759 
Q 2391 3103 1925 3103 
Q 1463 3103 1205 2759 
Q 947 2416 947 1791 
Q 947 1169 1205 825 
Q 1463 481 1925 481 
Q 2391 481 2648 825 
Q 2906 1169 2906 1791 
z
M 3481 434 
Q 3481 -459 3084 -895 
Q 2688 -1331 1869 -1331 
Q 1566 -1331 1297 -1286 
Q 1028 -1241 775 -1147 
L 775 -588 
Q 1028 -725 1275 -790 
Q 1522 -856 1778 -856 
Q 2344 -856 2625 -561 
Q 2906 -266 2906 331 
L 2906 616 
Q 2728 306 2450 153 
Q 2172 0 1784 0 
Q 1141 0 747 490 
Q 353 981 353 1791 
Q 353 2603 747 3093 
Q 1141 3584 1784 3584 
Q 2172 3584 2450 3431 
Q 2728 3278 2906 2969 
L 2906 3500 
L 3481 3500 
L 3481 434 
z
" transform="scale(0.015625)"/>
      </defs>
      <use xlink:href="#DejaVuSans-41"/>
      <use xlink:href="#DejaVuSans-76" x="62.533203"/>
      <use xlink:href="#DejaVuSans-65" x="121.712891"/>
      <use xlink:href="#DejaVuSans-72" x="183.236328"/>
      <use xlink:href="#DejaVuSans-61" x="224.349609"/>
      <use xlink:href="#DejaVuSans-67" x="285.628906"/>
      <use xlink:href="#DejaVuSans-65" x="349.105469"/>
     </g>
    </g>
   </g>
  </g>
 </g>
 <defs>
  <clipPath id="p307490bb52">
   <rect x="57.6" y="41.472" width="357.12" height="266.112"/>
  </clipPath>
 </defs>
</svg>
