<?xml version="1.0" encoding="utf-8" standalone="no"?>
<!DOCTYPE svg PUBLIC "-//W3C//DTD SVG 1.1//EN"
  "http://www.w3.org/Graphics/SVG/1.1/DTD/svg11.dtd">
<svg xmlns:xlink="http://www.w3.org/1999/xlink" width="460.8pt" height="345.6pt" viewBox="0 0 460.8 345.6" xmlns="http://www.w3.org/2000/svg" version="1.1">
 <metadata>
  <rdf:RDF xmlns:dc="http://purl.org/dc/elements/1.1/" xmlns:cc="http://creativecommons.org/ns#" xmlns:rdf="http://www.w3.org/1999/02/22-rdf-syntax-ns#">
   <cc:Work>
    <dc:type rdf:resource="http://purl.org/dc/dcmitype/StillImage"/>
    <dc:date>2025-07-28T18:11:04.081019</dc:date>
    <dc:format>image/svg+xml</dc:format>
    <dc:creator>
     <cc:Agent>
      <dc:title>Matplotlib v3.8.0, https://matplotlib.org/</dc:title>
     </cc:Agent>
    </dc:creator>
   </cc:Work>
  </rdf:RDF>
 </metadata>
 <defs>
  <style type="text/css">*{stroke-linejoin: round; stroke-linecap: butt}</style>
 </defs>
 <g id="figure_1">
  <g id="patch_1">
   <path d="M 0 345.6 
L 460.8 345.6 
L 460.8 0 
L 0 0 
z
" style="fill: #ffffff"/>
  </g>
  <g id="axes_1">
   <g id="patch_2">
    <path d="M 57.6 307.584 
L 414.72 307.584 
L 414.72 41.472 
L 57.6 41.472 
z
" style="fill: #ffffff"/>
   </g>
   <g id="matplotlib.axis_1">
    <g id="xtick_1">
     <g id="line2d_1">
      <defs>
       <path id="m7edbe164b1" d="M 0 0 
L 0 3.5 
" style="stroke: #000000; stroke-width: 0.8"/>
      </defs>
      <g>
       <use xlink:href="#m7edbe164b1" x="73.832727" y="307.584" style="stroke: #000000; stroke-width: 0.8"/>
      </g>
     </g>
     <g id="text_1">
      <!-- 0.0 -->
      <g transform="translate(64.290852 323.702125) scale(0.12 -0.12)">
       <defs>
        <path id="DejaVuSans-30" d="M 2034 4250 
Q 1547 4250 1301 3770 
Q 1056 3291 1056 2328 
Q 1056 1369 1301 889 
Q 1547 409 2034 409 
Q 2525 409 2770 889 
Q 3016 1369 3016 2328 
Q 3016 3291 2770 3770 
Q 2525 4250 2034 4250 
z
M 2034 4750 
Q 2819 4750 3233 4129 
Q 3647 3509 3647 2328 
Q 3647 1150 3233 529 
Q 2819 -91 2034 -91 
Q 1250 -91 836 529 
Q 422 1150 422 2328 
Q 422 3509 836 4129 
Q 1250 4750 2034 4750 
z
" transform="scale(0.015625)"/>
        <path id="DejaVuSans-2e" d="M 684 794 
L 1344 794 
L 1344 0 
L 684 0 
L 684 794 
z
" transform="scale(0.015625)"/>
       </defs>
       <use xlink:href="#DejaVuSans-30"/>
       <use xlink:href="#DejaVuSans-2e" x="63.623047"/>
       <use xlink:href="#DejaVuSans-30" x="95.410156"/>
      </g>
     </g>
    </g>
    <g id="xtick_2">
     <g id="line2d_2">
      <g>
       <use xlink:href="#m7edbe164b1" x="116.550431" y="307.584" style="stroke: #000000; stroke-width: 0.8"/>
      </g>
     </g>
     <g id="text_2">
      <!-- 2.5 -->
      <g transform="translate(107.008556 323.702125) scale(0.12 -0.12)">
       <defs>
        <path id="DejaVuSans-32" d="M 1228 531 
L 3431 531 
L 3431 0 
L 469 0 
L 469 531 
Q 828 903 1448 1529 
Q 2069 2156 2228 2338 
Q 2531 2678 2651 2914 
Q 2772 3150 2772 3378 
Q 2772 3750 2511 3984 
Q 2250 4219 1831 4219 
Q 1534 4219 1204 4116 
Q 875 4013 500 3803 
L 500 4441 
Q 881 4594 1212 4672 
Q 1544 4750 1819 4750 
Q 2544 4750 2975 4387 
Q 3406 4025 3406 3419 
Q 3406 3131 3298 2873 
Q 3191 2616 2906 2266 
Q 2828 2175 2409 1742 
Q 1991 1309 1228 531 
z
" transform="scale(0.015625)"/>
        <path id="DejaVuSans-35" d="M 691 4666 
L 3169 4666 
L 3169 4134 
L 1269 4134 
L 1269 2991 
Q 1406 3038 1543 3061 
Q 1681 3084 1819 3084 
Q 2600 3084 3056 2656 
Q 3513 2228 3513 1497 
Q 3513 744 3044 326 
Q 2575 -91 1722 -91 
Q 1428 -91 1123 -41 
Q 819 9 494 109 
L 494 744 
Q 775 591 1075 516 
Q 1375 441 1709 441 
Q 2250 441 2565 725 
Q 2881 1009 2881 1497 
Q 2881 1984 2565 2268 
Q 2250 2553 1709 2553 
Q 1456 2553 1204 2497 
Q 953 2441 691 2322 
L 691 4666 
z
" transform="scale(0.015625)"/>
       </defs>
       <use xlink:href="#DejaVuSans-32"/>
       <use xlink:href="#DejaVuSans-2e" x="63.623047"/>
       <use xlink:href="#DejaVuSans-35" x="95.410156"/>
      </g>
     </g>
    </g>
    <g id="xtick_3">
     <g id="line2d_3">
      <g>
       <use xlink:href="#m7edbe164b1" x="159.268134" y="307.584" style="stroke: #000000; stroke-width: 0.8"/>
      </g>
     </g>
     <g id="text_3">
      <!-- 5.0 -->
      <g transform="translate(149.726259 323.702125) scale(0.12 -0.12)">
       <use xlink:href="#DejaVuSans-35"/>
       <use xlink:href="#DejaVuSans-2e" x="63.623047"/>
       <use xlink:href="#DejaVuSans-30" x="95.410156"/>
      </g>
     </g>
    </g>
    <g id="xtick_4">
     <g id="line2d_4">
      <g>
       <use xlink:href="#m7edbe164b1" x="201.985837" y="307.584" style="stroke: #000000; stroke-width: 0.8"/>
      </g>
     </g>
     <g id="text_4">
      <!-- 7.5 -->
      <g transform="translate(192.443962 323.702125) scale(0.12 -0.12)">
       <defs>
        <path id="DejaVuSans-37" d="M 525 4666 
L 3525 4666 
L 3525 4397 
L 1831 0 
L 1172 0 
L 2766 4134 
L 525 4134 
L 525 4666 
z
" transform="scale(0.015625)"/>
       </defs>
       <use xlink:href="#DejaVuSans-37"/>
       <use xlink:href="#DejaVuSans-2e" x="63.623047"/>
       <use xlink:href="#DejaVuSans-35" x="95.410156"/>
      </g>
     </g>
    </g>
    <g id="xtick_5">
     <g id="line2d_5">
      <g>
       <use xlink:href="#m7edbe164b1" x="244.703541" y="307.584" style="stroke: #000000; stroke-width: 0.8"/>
      </g>
     </g>
     <g id="text_5">
      <!-- 10.0 -->
      <g transform="translate(231.344166 323.702125) scale(0.12 -0.12)">
       <defs>
        <path id="DejaVuSans-31" d="M 794 531 
L 1825 531 
L 1825 4091 
L 703 3866 
L 703 4441 
L 1819 4666 
L 2450 4666 
L 2450 531 
L 3481 531 
L 3481 0 
L 794 0 
L 794 531 
z
" transform="scale(0.015625)"/>
       </defs>
       <use xlink:href="#DejaVuSans-31"/>
       <use xlink:href="#DejaVuSans-30" x="63.623047"/>
       <use xlink:href="#DejaVuSans-2e" x="127.246094"/>
       <use xlink:href="#DejaVuSans-30" x="159.033203"/>
      </g>
     </g>
    </g>
    <g id="xtick_6">
     <g id="line2d_6">
      <g>
       <use xlink:href="#m7edbe164b1" x="287.421244" y="307.584" style="stroke: #000000; stroke-width: 0.8"/>
      </g>
     </g>
     <g id="text_6">
      <!-- 12.5 -->
      <g transform="translate(274.061869 323.702125) scale(0.12 -0.12)">
       <use xlink:href="#DejaVuSans-31"/>
       <use xlink:href="#DejaVuSans-32" x="63.623047"/>
       <use xlink:href="#DejaVuSans-2e" x="127.246094"/>
       <use xlink:href="#DejaVuSans-35" x="159.033203"/>
      </g>
     </g>
    </g>
    <g id="xtick_7">
     <g id="line2d_7">
      <g>
       <use xlink:href="#m7edbe164b1" x="330.138947" y="307.584" style="stroke: #000000; stroke-width: 0.8"/>
      </g>
     </g>
     <g id="text_7">
      <!-- 15.0 -->
      <g transform="translate(316.779572 323.702125) scale(0.12 -0.12)">
       <use xlink:href="#DejaVuSans-31"/>
       <use xlink:href="#DejaVuSans-35" x="63.623047"/>
       <use xlink:href="#DejaVuSans-2e" x="127.246094"/>
       <use xlink:href="#DejaVuSans-30" x="159.033203"/>
      </g>
     </g>
    </g>
    <g id="xtick_8">
     <g id="line2d_8">
      <g>
       <use xlink:href="#m7edbe164b1" x="372.856651" y="307.584" style="stroke: #000000; stroke-width: 0.8"/>
      </g>
     </g>
     <g id="text_8">
      <!-- 17.5 -->
      <g transform="translate(359.497276 323.702125) scale(0.12 -0.12)">
       <use xlink:href="#DejaVuSans-31"/>
       <use xlink:href="#DejaVuSans-37" x="63.623047"/>
       <use xlink:href="#DejaVuSans-2e" x="127.246094"/>
       <use xlink:href="#DejaVuSans-35" x="159.033203"/>
      </g>
     </g>
    </g>
    <g id="text_9">
     <!-- Years -->
     <g transform="translate(216.371719 341.595406) scale(0.15 -0.15)">
      <defs>
       <path id="DejaVuSans-59" d="M -13 4666 
L 666 4666 
L 1959 2747 
L 3244 4666 
L 3922 4666 
L 2272 2222 
L 2272 0 
L 1638 0 
L 1638 2222 
L -13 4666 
z
" transform="scale(0.015625)"/>
       <path id="DejaVuSans-65" d="M 3597 1894 
L 3597 1613 
L 953 1613 
Q 991 1019 1311 708 
Q 1631 397 2203 397 
Q 2534 397 2845 478 
Q 3156 559 3463 722 
L 3463 178 
Q 3153 47 2828 -22 
Q 2503 -91 2169 -91 
Q 1331 -91 842 396 
Q 353 884 353 1716 
Q 353 2575 817 3079 
Q 1281 3584 2069 3584 
Q 2775 3584 3186 3129 
Q 3597 2675 3597 1894 
z
M 3022 2063 
Q 3016 2534 2758 2815 
Q 2500 3097 2075 3097 
Q 1594 3097 1305 2825 
Q 1016 2553 972 2059 
L 3022 2063 
z
" transform="scale(0.015625)"/>
       <path id="DejaVuSans-61" d="M 2194 1759 
Q 1497 1759 1228 1600 
Q 959 1441 959 1056 
Q 959 750 1161 570 
Q 1363 391 1709 391 
Q 2188 391 2477 730 
Q 2766 1069 2766 1631 
L 2766 1759 
L 2194 1759 
z
M 3341 1997 
L 3341 0 
L 2766 0 
L 2766 531 
Q 2569 213 2275 61 
Q 1981 -91 1556 -91 
Q 1019 -91 701 211 
Q 384 513 384 1019 
Q 384 1609 779 1909 
Q 1175 2209 1959 2209 
L 2766 2209 
L 2766 2266 
Q 2766 2663 2505 2880 
Q 2244 3097 1772 3097 
Q 1472 3097 1187 3025 
Q 903 2953 641 2809 
L 641 3341 
Q 956 3463 1253 3523 
Q 1550 3584 1831 3584 
Q 2591 3584 2966 3190 
Q 3341 2797 3341 1997 
z
" transform="scale(0.015625)"/>
       <path id="DejaVuSans-72" d="M 2631 2963 
Q 2534 3019 2420 3045 
Q 2306 3072 2169 3072 
Q 1681 3072 1420 2755 
Q 1159 2438 1159 1844 
L 1159 0 
L 581 0 
L 581 3500 
L 1159 3500 
L 1159 2956 
Q 1341 3275 1631 3429 
Q 1922 3584 2338 3584 
Q 2397 3584 2469 3576 
Q 2541 3569 2628 3553 
L 2631 2963 
z
" transform="scale(0.015625)"/>
       <path id="DejaVuSans-73" d="M 2834 3397 
L 2834 2853 
Q 2591 2978 2328 3040 
Q 2066 3103 1784 3103 
Q 1356 3103 1142 2972 
Q 928 2841 928 2578 
Q 928 2378 1081 2264 
Q 1234 2150 1697 2047 
L 1894 2003 
Q 2506 1872 2764 1633 
Q 3022 1394 3022 966 
Q 3022 478 2636 193 
Q 2250 -91 1575 -91 
Q 1294 -91 989 -36 
Q 684 19 347 128 
L 347 722 
Q 666 556 975 473 
Q 1284 391 1588 391 
Q 1994 391 2212 530 
Q 2431 669 2431 922 
Q 2431 1156 2273 1281 
Q 2116 1406 1581 1522 
L 1381 1569 
Q 847 1681 609 1914 
Q 372 2147 372 2553 
Q 372 3047 722 3315 
Q 1072 3584 1716 3584 
Q 2034 3584 2315 3537 
Q 2597 3491 2834 3397 
z
" transform="scale(0.015625)"/>
      </defs>
      <use xlink:href="#DejaVuSans-59"/>
      <use xlink:href="#DejaVuSans-65" x="47.833984"/>
      <use xlink:href="#DejaVuSans-61" x="109.357422"/>
      <use xlink:href="#DejaVuSans-72" x="170.636719"/>
      <use xlink:href="#DejaVuSans-73" x="211.75"/>
     </g>
    </g>
   </g>
   <g id="matplotlib.axis_2">
    <g id="ytick_1">
     <g id="line2d_9">
      <defs>
       <path id="m2c7dd84add" d="M 0 0 
L -3.5 0 
" style="stroke: #000000; stroke-width: 0.8"/>
      </defs>
      <g>
       <use xlink:href="#m2c7dd84add" x="57.6" y="281.476923" style="stroke: #000000; stroke-width: 0.8"/>
      </g>
     </g>
     <g id="text_10">
      <!-- 12 -->
      <g transform="translate(35.33 286.035985) scale(0.12 -0.12)">
       <use xlink:href="#DejaVuSans-31"/>
       <use xlink:href="#DejaVuSans-32" x="63.623047"/>
      </g>
     </g>
    </g>
    <g id="ytick_2">
     <g id="line2d_10">
      <g>
       <use xlink:href="#m2c7dd84add" x="57.6" y="250.916423" style="stroke: #000000; stroke-width: 0.8"/>
      </g>
     </g>
     <g id="text_11">
      <!-- 14 -->
      <g transform="translate(35.33 255.475485) scale(0.12 -0.12)">
       <defs>
        <path id="DejaVuSans-34" d="M 2419 4116 
L 825 1625 
L 2419 1625 
L 2419 4116 
z
M 2253 4666 
L 3047 4666 
L 3047 1625 
L 3713 1625 
L 3713 1100 
L 3047 1100 
L 3047 0 
L 2419 0 
L 2419 1100 
L 313 1100 
L 313 1709 
L 2253 4666 
z
" transform="scale(0.015625)"/>
       </defs>
       <use xlink:href="#DejaVuSans-31"/>
       <use xlink:href="#DejaVuSans-34" x="63.623047"/>
      </g>
     </g>
    </g>
    <g id="ytick_3">
     <g id="line2d_11">
      <g>
       <use xlink:href="#m2c7dd84add" x="57.6" y="220.355922" style="stroke: #000000; stroke-width: 0.8"/>
      </g>
     </g>
     <g id="text_12">
      <!-- 16 -->
      <g transform="translate(35.33 224.914985) scale(0.12 -0.12)">
       <defs>
        <path id="DejaVuSans-36" d="M 2113 2584 
Q 1688 2584 1439 2293 
Q 1191 2003 1191 1497 
Q 1191 994 1439 701 
Q 1688 409 2113 409 
Q 2538 409 2786 701 
Q 3034 994 3034 1497 
Q 3034 2003 2786 2293 
Q 2538 2584 2113 2584 
z
M 3366 4563 
L 3366 3988 
Q 3128 4100 2886 4159 
Q 2644 4219 2406 4219 
Q 1781 4219 1451 3797 
Q 1122 3375 1075 2522 
Q 1259 2794 1537 2939 
Q 1816 3084 2150 3084 
Q 2853 3084 3261 2657 
Q 3669 2231 3669 1497 
Q 3669 778 3244 343 
Q 2819 -91 2113 -91 
Q 1303 -91 875 529 
Q 447 1150 447 2328 
Q 447 3434 972 4092 
Q 1497 4750 2381 4750 
Q 2619 4750 2861 4703 
Q 3103 4656 3366 4563 
z
" transform="scale(0.015625)"/>
       </defs>
       <use xlink:href="#DejaVuSans-31"/>
       <use xlink:href="#DejaVuSans-36" x="63.623047"/>
      </g>
     </g>
    </g>
    <g id="ytick_4">
     <g id="line2d_12">
      <g>
       <use xlink:href="#m2c7dd84add" x="57.6" y="189.795422" style="stroke: #000000; stroke-width: 0.8"/>
      </g>
     </g>
     <g id="text_13">
      <!-- 18 -->
      <g transform="translate(35.33 194.354485) scale(0.12 -0.12)">
       <defs>
        <path id="DejaVuSans-38" d="M 2034 2216 
Q 1584 2216 1326 1975 
Q 1069 1734 1069 1313 
Q 1069 891 1326 650 
Q 1584 409 2034 409 
Q 2484 409 2743 651 
Q 3003 894 3003 1313 
Q 3003 1734 2745 1975 
Q 2488 2216 2034 2216 
z
M 1403 2484 
Q 997 2584 770 2862 
Q 544 3141 544 3541 
Q 544 4100 942 4425 
Q 1341 4750 2034 4750 
Q 2731 4750 3128 4425 
Q 3525 4100 3525 3541 
Q 3525 3141 3298 2862 
Q 3072 2584 2669 2484 
Q 3125 2378 3379 2068 
Q 3634 1759 3634 1313 
Q 3634 634 3220 271 
Q 2806 -91 2034 -91 
Q 1263 -91 848 271 
Q 434 634 434 1313 
Q 434 1759 690 2068 
Q 947 2378 1403 2484 
z
M 1172 3481 
Q 1172 3119 1398 2916 
Q 1625 2713 2034 2713 
Q 2441 2713 2670 2916 
Q 2900 3119 2900 3481 
Q 2900 3844 2670 4047 
Q 2441 4250 2034 4250 
Q 1625 4250 1398 4047 
Q 1172 3844 1172 3481 
z
" transform="scale(0.015625)"/>
       </defs>
       <use xlink:href="#DejaVuSans-31"/>
       <use xlink:href="#DejaVuSans-38" x="63.623047"/>
      </g>
     </g>
    </g>
    <g id="ytick_5">
     <g id="line2d_13">
      <g>
       <use xlink:href="#m2c7dd84add" x="57.6" y="159.234922" style="stroke: #000000; stroke-width: 0.8"/>
      </g>
     </g>
     <g id="text_14">
      <!-- 20 -->
      <g transform="translate(35.33 163.793985) scale(0.12 -0.12)">
       <use xlink:href="#DejaVuSans-32"/>
       <use xlink:href="#DejaVuSans-30" x="63.623047"/>
      </g>
     </g>
    </g>
    <g id="ytick_6">
     <g id="line2d_14">
      <g>
       <use xlink:href="#m2c7dd84add" x="57.6" y="128.674422" style="stroke: #000000; stroke-width: 0.8"/>
      </g>
     </g>
     <g id="text_15">
      <!-- 22 -->
      <g transform="translate(35.33 133.233484) scale(0.12 -0.12)">
       <use xlink:href="#DejaVuSans-32"/>
       <use xlink:href="#DejaVuSans-32" x="63.623047"/>
      </g>
     </g>
    </g>
    <g id="ytick_7">
     <g id="line2d_15">
      <g>
       <use xlink:href="#m2c7dd84add" x="57.6" y="98.113922" style="stroke: #000000; stroke-width: 0.8"/>
      </g>
     </g>
     <g id="text_16">
      <!-- 24 -->
      <g transform="translate(35.33 102.672984) scale(0.12 -0.12)">
       <use xlink:href="#DejaVuSans-32"/>
       <use xlink:href="#DejaVuSans-34" x="63.623047"/>
      </g>
     </g>
    </g>
    <g id="ytick_8">
     <g id="line2d_16">
      <g>
       <use xlink:href="#m2c7dd84add" x="57.6" y="67.553422" style="stroke: #000000; stroke-width: 0.8"/>
      </g>
     </g>
     <g id="text_17">
      <!-- 26 -->
      <g transform="translate(35.33 72.112484) scale(0.12 -0.12)">
       <use xlink:href="#DejaVuSans-32"/>
       <use xlink:href="#DejaVuSans-36" x="63.623047"/>
      </g>
     </g>
    </g>
    <g id="text_18">
     <!-- Total coral cover (%) -->
     <g transform="translate(28.210469 251.497922) rotate(-90) scale(0.15 -0.15)">
      <defs>
       <path id="DejaVuSans-54" d="M -19 4666 
L 3928 4666 
L 3928 4134 
L 2272 4134 
L 2272 0 
L 1638 0 
L 1638 4134 
L -19 4134 
L -19 4666 
z
" transform="scale(0.015625)"/>
       <path id="DejaVuSans-6f" d="M 1959 3097 
Q 1497 3097 1228 2736 
Q 959 2375 959 1747 
Q 959 1119 1226 758 
Q 1494 397 1959 397 
Q 2419 397 2687 759 
Q 2956 1122 2956 1747 
Q 2956 2369 2687 2733 
Q 2419 3097 1959 3097 
z
M 1959 3584 
Q 2709 3584 3137 3096 
Q 3566 2609 3566 1747 
Q 3566 888 3137 398 
Q 2709 -91 1959 -91 
Q 1206 -91 779 398 
Q 353 888 353 1747 
Q 353 2609 779 3096 
Q 1206 3584 1959 3584 
z
" transform="scale(0.015625)"/>
       <path id="DejaVuSans-74" d="M 1172 4494 
L 1172 3500 
L 2356 3500 
L 2356 3053 
L 1172 3053 
L 1172 1153 
Q 1172 725 1289 603 
Q 1406 481 1766 481 
L 2356 481 
L 2356 0 
L 1766 0 
Q 1100 0 847 248 
Q 594 497 594 1153 
L 594 3053 
L 172 3053 
L 172 3500 
L 594 3500 
L 594 4494 
L 1172 4494 
z
" transform="scale(0.015625)"/>
       <path id="DejaVuSans-6c" d="M 603 4863 
L 1178 4863 
L 1178 0 
L 603 0 
L 603 4863 
z
" transform="scale(0.015625)"/>
       <path id="DejaVuSans-20" transform="scale(0.015625)"/>
       <path id="DejaVuSans-63" d="M 3122 3366 
L 3122 2828 
Q 2878 2963 2633 3030 
Q 2388 3097 2138 3097 
Q 1578 3097 1268 2742 
Q 959 2388 959 1747 
Q 959 1106 1268 751 
Q 1578 397 2138 397 
Q 2388 397 2633 464 
Q 2878 531 3122 666 
L 3122 134 
Q 2881 22 2623 -34 
Q 2366 -91 2075 -91 
Q 1284 -91 818 406 
Q 353 903 353 1747 
Q 353 2603 823 3093 
Q 1294 3584 2113 3584 
Q 2378 3584 2631 3529 
Q 2884 3475 3122 3366 
z
" transform="scale(0.015625)"/>
       <path id="DejaVuSans-76" d="M 191 3500 
L 800 3500 
L 1894 563 
L 2988 3500 
L 3597 3500 
L 2284 0 
L 1503 0 
L 191 3500 
z
" transform="scale(0.015625)"/>
       <path id="DejaVuSans-28" d="M 1984 4856 
Q 1566 4138 1362 3434 
Q 1159 2731 1159 2009 
Q 1159 1288 1364 580 
Q 1569 -128 1984 -844 
L 1484 -844 
Q 1016 -109 783 600 
Q 550 1309 550 2009 
Q 550 2706 781 3412 
Q 1013 4119 1484 4856 
L 1984 4856 
z
" transform="scale(0.015625)"/>
       <path id="DejaVuSans-25" d="M 4653 2053 
Q 4381 2053 4226 1822 
Q 4072 1591 4072 1178 
Q 4072 772 4226 539 
Q 4381 306 4653 306 
Q 4919 306 5073 539 
Q 5228 772 5228 1178 
Q 5228 1588 5073 1820 
Q 4919 2053 4653 2053 
z
M 4653 2450 
Q 5147 2450 5437 2106 
Q 5728 1763 5728 1178 
Q 5728 594 5436 251 
Q 5144 -91 4653 -91 
Q 4153 -91 3862 251 
Q 3572 594 3572 1178 
Q 3572 1766 3864 2108 
Q 4156 2450 4653 2450 
z
M 1428 4353 
Q 1159 4353 1004 4120 
Q 850 3888 850 3481 
Q 850 3069 1003 2837 
Q 1156 2606 1428 2606 
Q 1700 2606 1854 2837 
Q 2009 3069 2009 3481 
Q 2009 3884 1853 4118 
Q 1697 4353 1428 4353 
z
M 4250 4750 
L 4750 4750 
L 1831 -91 
L 1331 -91 
L 4250 4750 
z
M 1428 4750 
Q 1922 4750 2215 4408 
Q 2509 4066 2509 3481 
Q 2509 2891 2217 2550 
Q 1925 2209 1428 2209 
Q 931 2209 642 2551 
Q 353 2894 353 3481 
Q 353 4063 643 4406 
Q 934 4750 1428 4750 
z
" transform="scale(0.015625)"/>
       <path id="DejaVuSans-29" d="M 513 4856 
L 1013 4856 
Q 1481 4119 1714 3412 
Q 1947 2706 1947 2009 
Q 1947 1309 1714 600 
Q 1481 -109 1013 -844 
L 513 -844 
Q 928 -128 1133 580 
Q 1338 1288 1338 2009 
Q 1338 2731 1133 3434 
Q 928 4138 513 4856 
z
" transform="scale(0.015625)"/>
      </defs>
      <use xlink:href="#DejaVuSans-54"/>
      <use xlink:href="#DejaVuSans-6f" x="44.083984"/>
      <use xlink:href="#DejaVuSans-74" x="105.265625"/>
      <use xlink:href="#DejaVuSans-61" x="144.474609"/>
      <use xlink:href="#DejaVuSans-6c" x="205.753906"/>
      <use xlink:href="#DejaVuSans-20" x="233.537109"/>
      <use xlink:href="#DejaVuSans-63" x="265.324219"/>
      <use xlink:href="#DejaVuSans-6f" x="320.304688"/>
      <use xlink:href="#DejaVuSans-72" x="381.486328"/>
      <use xlink:href="#DejaVuSans-61" x="422.599609"/>
      <use xlink:href="#DejaVuSans-6c" x="483.878906"/>
      <use xlink:href="#DejaVuSans-20" x="511.662109"/>
      <use xlink:href="#DejaVuSans-63" x="543.449219"/>
      <use xlink:href="#DejaVuSans-6f" x="598.429688"/>
      <use xlink:href="#DejaVuSans-76" x="659.611328"/>
      <use xlink:href="#DejaVuSans-65" x="718.791016"/>
      <use xlink:href="#DejaVuSans-72" x="780.314453"/>
      <use xlink:href="#DejaVuSans-20" x="821.427734"/>
      <use xlink:href="#DejaVuSans-28" x="853.214844"/>
      <use xlink:href="#DejaVuSans-25" x="892.228516"/>
      <use xlink:href="#DejaVuSans-29" x="987.248047"/>
     </g>
    </g>
   </g>
   <g id="line2d_17">
    <path d="M 73.832727 191.323447 
L 90.919809 283.044432 
L 108.00689 269.668529 
L 125.093971 253.04703 
L 142.181053 232.7442 
L 159.268134 208.815962 
L 176.355215 279.843188 
L 193.442297 248.104867 
L 210.529378 212.782385 
L 227.616459 177.25236 
L 244.703541 141.128962 
L 261.790622 105.323353 
L 278.877703 213.351434 
L 295.964785 202.284488 
L 313.051866 164.86662 
L 330.138947 191.184389 
L 347.226029 155.690444 
L 364.31311 140.979069 
L 381.400191 102.505106 
L 398.487273 192.497157 
" clip-path="url(#p6ed5718c39)" style="fill: none; stroke-dasharray: 3.7,1.6; stroke-dashoffset: 0; stroke: #1f77b4"/>
   </g>
   <g id="line2d_18">
    <path d="M 73.832727 191.323447 
L 90.919809 280.841484 
L 108.00689 266.553652 
L 125.093971 247.299179 
L 142.181053 224.722998 
L 159.268134 199.234853 
L 176.355215 272.452319 
L 193.442297 239.834655 
L 210.529378 205.850625 
L 227.616459 169.724001 
L 244.703541 133.144769 
L 261.790622 96.073465 
L 278.877703 204.07865 
L 295.964785 191.129784 
L 313.051866 151.061777 
L 330.138947 176.621828 
L 347.226029 137.926745 
L 364.31311 121.929304 
L 381.400191 80.356662 
L 398.487273 174.301869 
" clip-path="url(#p6ed5718c39)" style="fill: none; stroke-dasharray: 3.7,1.6; stroke-dashoffset: 0; stroke: #ff7f0e"/>
   </g>
   <g id="line2d_19">
    <path d="M 73.832727 191.323447 
L 90.919809 282.283713 
L 108.00689 269.65856 
L 125.093971 253.433746 
L 142.181053 234.59346 
L 159.268134 211.126178 
L 176.355215 284.15861 
L 193.442297 250.993518 
L 210.529378 215.34556 
L 227.616459 177.246401 
L 244.703541 137.174246 
L 261.790622 96.199144 
L 278.877703 207.664122 
L 295.964785 192.917795 
L 313.051866 152.187628 
L 330.138947 178.87143 
L 347.226029 140.044935 
L 364.31311 124.716405 
L 381.400191 84.759108 
L 398.487273 182.457803 
" clip-path="url(#p6ed5718c39)" style="fill: none; stroke-dasharray: 3.7,1.6; stroke-dashoffset: 0; stroke: #2ca02c"/>
   </g>
   <g id="line2d_20">
    <path d="M 73.832727 191.323447 
L 90.919809 280.786279 
L 108.00689 266.939547 
L 125.093971 248.56607 
L 142.181053 227.23671 
L 159.268134 203.362767 
L 176.355215 275.40319 
L 193.442297 242.124707 
L 210.529378 206.449784 
L 227.616459 169.684565 
L 244.703541 131.979406 
L 261.790622 93.629124 
L 278.877703 203.203171 
L 295.964785 188.97229 
L 313.051866 148.297178 
L 330.138947 173.041456 
L 347.226029 133.807224 
L 364.31311 117.66247 
L 381.400191 77.66632 
L 398.487273 173.695064 
" clip-path="url(#p6ed5718c39)" style="fill: none; stroke-dasharray: 3.7,1.6; stroke-dashoffset: 0; stroke: #d62728"/>
   </g>
   <g id="line2d_21">
    <path d="M 73.832727 191.323447 
L 90.919809 281.500793 
L 108.00689 268.533413 
L 125.093971 252.77769 
L 142.181053 234.833932 
L 159.268134 216.039601 
L 176.355215 292.933669 
L 193.442297 267.643334 
L 210.529378 238.195488 
L 227.616459 207.332494 
L 244.703541 172.983749 
L 261.790622 136.047472 
L 278.877703 230.598037 
L 295.964785 220.123344 
L 313.051866 184.999182 
L 330.138947 208.421091 
L 347.226029 173.877931 
L 364.31311 159.774861 
L 381.400191 122.31904 
L 398.487273 205.054938 
" clip-path="url(#p6ed5718c39)" style="fill: none; stroke-dasharray: 3.7,1.6; stroke-dashoffset: 0; stroke: #9467bd"/>
   </g>
   <g id="line2d_22">
    <path d="M 73.832727 191.323447 
L 90.919809 281.048052 
L 108.00689 267.520565 
L 125.093971 250.5423 
L 142.181053 230.304383 
L 159.268134 208.097526 
L 176.355215 284.409483 
L 193.442297 256.02419 
L 210.529378 225.371412 
L 227.616459 192.704137 
L 244.703541 157.407984 
L 261.790622 121.917085 
L 278.877703 220.829458 
L 295.964785 210.945068 
L 313.051866 174.847468 
L 330.138947 201.074179 
L 347.226029 166.375906 
L 364.31311 153.031904 
L 381.400191 115.972118 
L 398.487273 202.583165 
" clip-path="url(#p6ed5718c39)" style="fill: none; stroke-dasharray: 3.7,1.6; stroke-dashoffset: 0; stroke: #8c564b"/>
   </g>
   <g id="line2d_23">
    <path d="M 73.832727 191.323447 
L 90.919809 282.527635 
L 108.00689 270.61523 
L 125.093971 254.885958 
L 142.181053 236.342542 
L 159.268134 213.9812 
L 176.355215 287.3623 
L 193.442297 259.758474 
L 210.529378 229.327612 
L 227.616459 196.613501 
L 244.703541 161.857574 
L 261.790622 127.198374 
L 278.877703 224.454834 
L 295.964785 213.63046 
L 313.051866 177.960098 
L 330.138947 201.760191 
L 347.226029 167.328341 
L 364.31311 152.815435 
L 381.400191 114.494935 
L 398.487273 198.981491 
" clip-path="url(#p6ed5718c39)" style="fill: none; stroke-dasharray: 3.7,1.6; stroke-dashoffset: 0; stroke: #e377c2"/>
   </g>
   <g id="line2d_24">
    <path d="M 73.832727 191.323447 
L 90.919809 282.197756 
L 108.00689 270.003385 
L 125.093971 253.178841 
L 142.181053 233.788471 
L 159.268134 211.144259 
L 176.355215 286.054114 
L 193.442297 256.731944 
L 210.529378 225.142481 
L 227.616459 191.507089 
L 244.703541 153.873632 
L 261.790622 117.388843 
L 278.877703 219.030196 
L 295.964785 207.123924 
L 313.051866 169.350673 
L 330.138947 193.705216 
L 347.226029 157.480105 
L 364.31311 142.970799 
L 381.400191 105.779451 
L 398.487273 194.894223 
" clip-path="url(#p6ed5718c39)" style="fill: none; stroke-dasharray: 3.7,1.6; stroke-dashoffset: 0; stroke: #7f7f7f"/>
   </g>
   <g id="line2d_25">
    <path d="M 73.832727 191.323447 
L 90.919809 281.991037 
L 108.00689 268.136393 
L 125.093971 249.740975 
L 142.181053 230.550091 
L 159.268134 206.593457 
L 176.355215 280.032888 
L 193.442297 248.329465 
L 210.529378 213.420688 
L 227.616459 176.899993 
L 244.703541 139.334932 
L 261.790622 102.249767 
L 278.877703 207.849689 
L 295.964785 195.050837 
L 313.051866 157.220731 
L 330.138947 182.98 
L 347.226029 146.130833 
L 364.31311 131.76914 
L 381.400191 93.639308 
L 398.487273 183.968739 
" clip-path="url(#p6ed5718c39)" style="fill: none; stroke-dasharray: 3.7,1.6; stroke-dashoffset: 0; stroke: #bcbd22"/>
   </g>
   <g id="line2d_26">
    <path d="M 73.832727 191.323447 
L 90.919809 281.509944 
L 108.00689 267.271789 
L 125.093971 248.92741 
L 142.181053 227.666005 
L 159.268134 203.928933 
L 176.355215 280.752288 
L 193.442297 251.692764 
L 210.529378 218.767663 
L 227.616459 184.55839 
L 244.703541 147.605699 
L 261.790622 110.088235 
L 278.877703 213.098362 
L 295.964785 200.249405 
L 313.051866 161.232393 
L 330.138947 187.19253 
L 347.226029 148.673862 
L 364.31311 133.196969 
L 381.400191 92.292487 
L 398.487273 185.557982 
" clip-path="url(#p6ed5718c39)" style="fill: none; stroke-dasharray: 3.7,1.6; stroke-dashoffset: 0; stroke: #17becf"/>
   </g>
   <g id="line2d_27">
    <path d="M 73.832727 191.323447 
L 90.919809 281.719963 
L 108.00689 268.411813 
L 125.093971 251.859322 
L 142.181053 233.111162 
L 159.268134 211.678643 
L 176.355215 288.618335 
L 193.442297 261.437972 
L 210.529378 231.059451 
L 227.616459 200.142895 
L 244.703541 167.769527 
L 261.790622 134.587096 
L 278.877703 232.780583 
L 295.964785 226.198141 
L 313.051866 193.608907 
L 330.138947 220.125744 
L 347.226029 187.512658 
L 364.31311 175.154246 
L 381.400191 138.155815 
L 398.487273 219.579995 
" clip-path="url(#p6ed5718c39)" style="fill: none; stroke-dasharray: 3.7,1.6; stroke-dashoffset: 0; stroke: #1f77b4"/>
   </g>
   <g id="line2d_28">
    <path d="M 73.832727 191.323447 
L 90.919809 282.071744 
L 108.00689 267.100611 
L 125.093971 249.365669 
L 142.181053 228.510681 
L 159.268134 205.407098 
L 176.355215 279.074368 
L 193.442297 249.813528 
L 210.529378 217.825015 
L 227.616459 183.099066 
L 244.703541 145.73511 
L 261.790622 108.051835 
L 278.877703 212.734129 
L 295.964785 200.060388 
L 313.051866 160.98277 
L 330.138947 186.259446 
L 347.226029 150.120592 
L 364.31311 135.87576 
L 381.400191 96.291247 
L 398.487273 186.367605 
" clip-path="url(#p6ed5718c39)" style="fill: none; stroke-dasharray: 3.7,1.6; stroke-dashoffset: 0; stroke: #ff7f0e"/>
   </g>
   <g id="line2d_29">
    <path d="M 73.832727 191.323447 
L 90.919809 281.265722 
L 108.00689 267.510877 
L 125.093971 249.309062 
L 142.181053 230.286211 
L 159.268134 209.477974 
L 176.355215 284.386099 
L 193.442297 258.215231 
L 210.529378 229.516657 
L 227.616459 198.098476 
L 244.703541 164.997751 
L 261.790622 132.054603 
L 278.877703 226.876352 
L 295.964785 217.804135 
L 313.051866 185.494827 
L 330.138947 209.586245 
L 347.226029 178.42424 
L 364.31311 165.992471 
L 381.400191 130.780101 
L 398.487273 210.40922 
" clip-path="url(#p6ed5718c39)" style="fill: none; stroke-dasharray: 3.7,1.6; stroke-dashoffset: 0; stroke: #2ca02c"/>
   </g>
   <g id="line2d_30">
    <path d="M 73.832727 191.323447 
L 90.919809 282.004988 
L 108.00689 269.133367 
L 125.093971 253.947696 
L 142.181053 236.436109 
L 159.268134 215.055454 
L 176.355215 290.308733 
L 193.442297 262.968742 
L 210.529378 232.646645 
L 227.616459 200.660879 
L 244.703541 167.203934 
L 261.790622 133.251418 
L 278.877703 229.641251 
L 295.964785 219.546992 
L 313.051866 183.75452 
L 330.138947 206.905354 
L 347.226029 173.610307 
L 364.31311 159.878221 
L 381.400191 121.395556 
L 398.487273 204.144356 
" clip-path="url(#p6ed5718c39)" style="fill: none; stroke-dasharray: 3.7,1.6; stroke-dashoffset: 0; stroke: #d62728"/>
   </g>
   <g id="line2d_31">
    <path d="M 73.832727 191.323447 
L 90.919809 282.935072 
L 108.00689 268.182165 
L 125.093971 249.430625 
L 142.181053 227.013629 
L 159.268134 200.869389 
L 176.355215 272.415961 
L 193.442297 236.631936 
L 210.529378 195.646579 
L 227.616459 153.672809 
L 244.703541 112.402294 
L 261.790622 73.42745 
L 278.877703 192.86589 
L 295.964785 178.170717 
L 313.051866 137.834186 
L 330.138947 166.97716 
L 347.226029 128.820775 
L 364.31311 114.252663 
L 381.400191 73.945835 
L 398.487273 174.31282 
" clip-path="url(#p6ed5718c39)" style="fill: none; stroke-dasharray: 3.7,1.6; stroke-dashoffset: 0; stroke: #9467bd"/>
   </g>
   <g id="line2d_32">
    <path d="M 73.832727 191.323447 
L 90.919809 281.454139 
L 108.00689 267.747243 
L 125.093971 250.171083 
L 142.181053 229.002128 
L 159.268134 204.441623 
L 176.355215 276.901618 
L 193.442297 242.810738 
L 210.529378 207.704306 
L 227.616459 171.329669 
L 244.703541 133.952793 
L 261.790622 96.628406 
L 278.877703 205.252205 
L 295.964785 193.835578 
L 313.051866 157.001712 
L 330.138947 185.147845 
L 347.226029 149.165006 
L 364.31311 135.559381 
L 381.400191 97.545209 
L 398.487273 188.610457 
" clip-path="url(#p6ed5718c39)" style="fill: none; stroke-dasharray: 3.7,1.6; stroke-dashoffset: 0; stroke: #8c564b"/>
   </g>
   <g id="line2d_33">
    <path d="M 73.832727 191.323447 
L 90.919809 283.077735 
L 108.00689 268.710357 
L 125.093971 250.437541 
L 142.181053 228.732505 
L 159.268134 204.663685 
L 176.355215 277.349556 
L 193.442297 245.15086 
L 210.529378 209.57338 
L 227.616459 170.824263 
L 244.703541 131.409317 
L 261.790622 92.166364 
L 278.877703 201.75164 
L 295.964785 187.005313 
L 313.051866 145.934315 
L 330.138947 171.887702 
L 347.226029 132.587764 
L 364.31311 116.153034 
L 381.400191 73.89393 
L 398.487273 170.786603 
" clip-path="url(#p6ed5718c39)" style="fill: none; stroke-dasharray: 3.7,1.6; stroke-dashoffset: 0; stroke: #e377c2"/>
   </g>
   <g id="line2d_34">
    <path d="M 73.832727 191.323447 
L 90.919809 281.070854 
L 108.00689 264.610578 
L 125.093971 245.797481 
L 142.181053 223.672505 
L 159.268134 198.531124 
L 176.355215 275.433581 
L 193.442297 243.164878 
L 210.529378 209.01952 
L 227.616459 173.961577 
L 244.703541 134.82546 
L 261.790622 96.893297 
L 278.877703 205.893963 
L 295.964785 193.899033 
L 313.051866 154.988681 
L 330.138947 182.794134 
L 347.226029 145.447972 
L 364.31311 131.351503 
L 381.400191 92.984049 
L 398.487273 185.64379 
" clip-path="url(#p6ed5718c39)" style="fill: none; stroke-dasharray: 3.7,1.6; stroke-dashoffset: 0; stroke: #7f7f7f"/>
   </g>
   <g id="line2d_35">
    <path d="M 73.832727 191.323447 
L 90.919809 282.904319 
L 108.00689 270.474255 
L 125.093971 254.399893 
L 142.181053 235.663018 
L 159.268134 213.922682 
L 176.355215 289.362702 
L 193.442297 261.034349 
L 210.529378 231.608984 
L 227.616459 199.257048 
L 244.703541 165.209067 
L 261.790622 131.811438 
L 278.877703 227.126724 
L 295.964785 217.592016 
L 313.051866 183.324731 
L 330.138947 206.799595 
L 347.226029 172.021064 
L 364.31311 157.408548 
L 381.400191 120.135443 
L 398.487273 202.583615 
" clip-path="url(#p6ed5718c39)" style="fill: none; stroke-dasharray: 3.7,1.6; stroke-dashoffset: 0; stroke: #bcbd22"/>
   </g>
   <g id="line2d_36">
    <path d="M 73.832727 191.323447 
L 90.919809 282.174804 
L 108.00689 269.637377 
L 125.093971 254.032323 
L 142.181053 233.684603 
L 159.268134 212.427487 
L 176.355215 287.187562 
L 193.442297 257.923601 
L 210.529378 224.703695 
L 227.616459 190.491896 
L 244.703541 154.684365 
L 261.790622 117.334825 
L 278.877703 219.834568 
L 295.964785 207.021315 
L 313.051866 167.992151 
L 330.138947 192.235534 
L 347.226029 155.687143 
L 364.31311 140.121442 
L 381.400191 101.128282 
L 398.487273 192.741079 
" clip-path="url(#p6ed5718c39)" style="fill: none; stroke-dasharray: 3.7,1.6; stroke-dashoffset: 0; stroke: #17becf"/>
   </g>
   <g id="line2d_37">
    <path d="M 73.832727 191.323447 
L 90.919809 281.226868 
L 108.00689 268.444453 
L 125.093971 252.88273 
L 142.181053 232.609042 
L 159.268134 210.53216 
L 176.355215 285.427271 
L 193.442297 258.43848 
L 210.529378 228.075518 
L 227.616459 195.911374 
L 244.703541 161.678867 
L 261.790622 126.510998 
L 278.877703 223.718718 
L 295.964785 213.219422 
L 313.051866 176.812945 
L 330.138947 199.86657 
L 347.226029 164.837817 
L 364.31311 149.894222 
L 381.400191 110.678592 
L 398.487273 195.798054 
" clip-path="url(#p6ed5718c39)" style="fill: none; stroke-dasharray: 3.7,1.6; stroke-dashoffset: 0; stroke: #1f77b4"/>
   </g>
   <g id="line2d_38">
    <path d="M 73.832727 191.323447 
L 90.919809 282.972125 
L 108.00689 270.834514 
L 125.093971 256.163193 
L 142.181053 238.477916 
L 159.268134 218.35553 
L 176.355215 292.127443 
L 193.442297 264.869831 
L 210.529378 234.756683 
L 227.616459 201.986511 
L 244.703541 168.555043 
L 261.790622 133.886343 
L 278.877703 227.436202 
L 295.964785 217.728078 
L 313.051866 184.317971 
L 330.138947 207.261486 
L 347.226029 174.836967 
L 364.31311 161.524919 
L 381.400191 126.008322 
L 398.487273 205.533931 
" clip-path="url(#p6ed5718c39)" style="fill: none; stroke-dasharray: 3.7,1.6; stroke-dashoffset: 0; stroke: #ff7f0e"/>
   </g>
   <g id="line2d_39">
    <path d="M 73.832727 191.323447 
L 90.919809 281.933282 
L 108.00689 269.523331 
L 125.093971 254.276866 
L 142.181053 235.640673 
L 159.268134 214.895723 
L 176.355215 290.878573 
L 193.442297 265.413715 
L 210.529378 237.044614 
L 227.616459 204.912314 
L 244.703541 171.413444 
L 261.790622 137.824472 
L 278.877703 232.236784 
L 295.964785 222.458904 
L 313.051866 187.785833 
L 330.138947 211.442363 
L 347.226029 178.463394 
L 364.31311 165.09119 
L 381.400191 128.290927 
L 398.487273 210.746 
" clip-path="url(#p6ed5718c39)" style="fill: none; stroke-dasharray: 3.7,1.6; stroke-dashoffset: 0; stroke: #2ca02c"/>
   </g>
   <g id="line2d_40">
    <path d="M 73.832727 191.323447 
L 90.919809 281.623654 
L 108.00689 268.920614 
L 125.093971 252.681166 
L 142.181053 234.218388 
L 159.268134 212.687061 
L 176.355215 287.32195 
L 193.442297 257.154699 
L 210.529378 224.881156 
L 227.616459 191.234074 
L 244.703541 155.663961 
L 261.790622 119.825207 
L 278.877703 221.551323 
L 295.964785 211.230843 
L 313.051866 174.941677 
L 330.138947 200.144996 
L 347.226029 165.851308 
L 364.31311 152.699624 
L 381.400191 115.408968 
L 398.487273 201.442162 
" clip-path="url(#p6ed5718c39)" style="fill: none; stroke-dasharray: 3.7,1.6; stroke-dashoffset: 0; stroke: #d62728"/>
   </g>
   <g id="line2d_41">
    <path d="M 73.832727 191.323447 
L 90.919809 280.510404 
L 108.00689 266.606967 
L 125.093971 250.074051 
L 142.181053 230.443202 
L 159.268134 208.324406 
L 176.355215 282.559144 
L 193.442297 252.82681 
L 210.529378 221.077069 
L 227.616459 186.979013 
L 244.703541 151.244345 
L 261.790622 112.987126 
L 278.877703 216.142886 
L 295.964785 202.793634 
L 313.051866 162.444802 
L 330.138947 185.809405 
L 347.226029 147.930095 
L 364.31311 131.591824 
L 381.400191 90.66139 
L 398.487273 182.048266 
" clip-path="url(#p6ed5718c39)" style="fill: none; stroke-dasharray: 3.7,1.6; stroke-dashoffset: 0; stroke: #9467bd"/>
   </g>
   <g id="line2d_42">
    <path d="M 73.832727 191.323447 
L 90.919809 279.941403 
L 108.00689 265.909422 
L 125.093971 247.666637 
L 142.181053 226.604501 
L 159.268134 201.317533 
L 176.355215 276.254719 
L 193.442297 244.594858 
L 210.529378 210.502968 
L 227.616459 175.532869 
L 244.703541 139.484395 
L 261.790622 104.711475 
L 278.877703 210.257406 
L 295.964785 201.018824 
L 313.051866 166.063277 
L 330.138947 194.329122 
L 347.226029 160.412419 
L 364.31311 147.668622 
L 381.400191 110.187297 
L 398.487273 197.312741 
" clip-path="url(#p6ed5718c39)" style="fill: none; stroke-dasharray: 3.7,1.6; stroke-dashoffset: 0; stroke: #8c564b"/>
   </g>
   <g id="line2d_43">
    <path d="M 73.832727 191.323447 
L 90.919809 281.434637 
L 108.00689 266.717722 
L 125.093971 249.810453 
L 142.181053 227.072977 
L 159.268134 203.253536 
L 176.355215 276.597324 
L 193.442297 245.615552 
L 210.529378 211.534237 
L 227.616459 175.353924 
L 244.703541 138.240496 
L 261.790622 101.307601 
L 278.877703 207.9748 
L 295.964785 195.960369 
L 313.051866 158.041605 
L 330.138947 184.062648 
L 347.226029 146.373255 
L 364.31311 131.019823 
L 381.400191 91.77074 
L 398.487273 183.940837 
" clip-path="url(#p6ed5718c39)" style="fill: none; stroke-dasharray: 3.7,1.6; stroke-dashoffset: 0; stroke: #e377c2"/>
   </g>
   <g id="line2d_44">
    <path d="M 73.832727 191.323447 
L 90.919809 279.721783 
L 108.00689 263.713163 
L 125.093971 242.928414 
L 142.181053 216.964413 
L 159.268134 188.776202 
L 176.355215 262.654412 
L 193.442297 226.186454 
L 210.529378 184.81242 
L 227.616459 142.796473 
L 244.703541 101.542009 
L 261.790622 61.821605 
L 278.877703 183.811825 
L 295.964785 169.841968 
L 313.051866 129.31942 
L 330.138947 161.194739 
L 347.226029 122.843787 
L 364.31311 109.21671 
L 381.400191 68.67046 
L 398.487273 170.461373 
" clip-path="url(#p6ed5718c39)" style="fill: none; stroke-dasharray: 3.7,1.6; stroke-dashoffset: 0; stroke: #7f7f7f"/>
   </g>
   <g id="line2d_45">
    <path d="M 73.832727 191.323447 
L 90.919809 281.183964 
L 108.00689 267.721735 
L 125.093971 248.782951 
L 142.181053 228.215543 
L 159.268134 203.302402 
L 176.355215 277.776236 
L 193.442297 244.569872 
L 210.529378 209.508711 
L 227.616459 173.639622 
L 244.703541 136.690265 
L 261.790622 99.557334 
L 278.877703 210.002233 
L 295.964785 199.055147 
L 313.051866 160.766751 
L 330.138947 187.846138 
L 347.226029 151.786342 
L 364.31311 137.252134 
L 381.400191 97.21758 
L 398.487273 187.869991 
" clip-path="url(#p6ed5718c39)" style="fill: none; stroke-dasharray: 3.7,1.6; stroke-dashoffset: 0; stroke: #bcbd22"/>
   </g>
   <g id="line2d_46">
    <path d="M 73.832727 191.323447 
L 90.919809 281.350779 
L 108.00689 265.891989 
L 125.093971 247.083631 
L 142.181053 224.796114 
L 159.268134 199.76772 
L 176.355215 277.718065 
L 193.442297 246.608439 
L 210.529378 213.81835 
L 227.616459 178.750812 
L 244.703541 142.405611 
L 261.790622 104.156161 
L 278.877703 208.315931 
L 295.964785 196.340953 
L 313.051866 157.191479 
L 330.138947 184.353074 
L 347.226029 144.361274 
L 364.31311 127.715025 
L 381.400191 85.609985 
L 398.487273 179.158856 
" clip-path="url(#p6ed5718c39)" style="fill: none; stroke-dasharray: 3.7,1.6; stroke-dashoffset: 0; stroke: #17becf"/>
   </g>
   <g id="line2d_47">
    <path d="M 73.832727 191.323447 
L 90.919809 281.285824 
L 108.00689 267.472152 
L 125.093971 249.121568 
L 142.181053 226.504968 
L 159.268134 201.237306 
L 176.355215 275.976662 
L 193.442297 243.910199 
L 210.529378 208.276081 
L 227.616459 170.692723 
L 244.703541 132.038633 
L 261.790622 92.175063 
L 278.877703 202.796334 
L 295.964785 189.668052 
L 313.051866 150.118492 
L 330.138947 178.440742 
L 347.226029 141.830846 
L 364.31311 127.996001 
L 381.400191 88.956186 
L 398.487273 183.42614 
" clip-path="url(#p6ed5718c39)" style="fill: none; stroke-dasharray: 3.7,1.6; stroke-dashoffset: 0; stroke: #1f77b4"/>
   </g>
   <g id="line2d_48">
    <path d="M 73.832727 191.323447 
L 90.919809 282.489382 
L 108.00689 269.767545 
L 125.093971 253.636598 
L 142.181053 234.724685 
L 159.268134 211.968891 
L 176.355215 284.439015 
L 193.442297 254.017487 
L 210.529378 219.571463 
L 227.616459 183.903156 
L 244.703541 146.022312 
L 261.790622 107.731813 
L 278.877703 211.398559 
L 295.964785 198.126264 
L 313.051866 158.451592 
L 330.138947 183.399138 
L 347.226029 144.860069 
L 364.31311 128.444391 
L 381.400191 87.864238 
L 398.487273 181.002372 
" clip-path="url(#p6ed5718c39)" style="fill: none; stroke-dasharray: 3.7,1.6; stroke-dashoffset: 0; stroke: #ff7f0e"/>
   </g>
   <g id="line2d_49">
    <path d="M 73.832727 191.323447 
L 90.919809 280.942293 
L 108.00689 266.142506 
L 125.093971 248.455727 
L 142.181053 226.014012 
L 159.268134 201.861483 
L 176.355215 276.990485 
L 193.442297 246.515585 
L 210.529378 213.260858 
L 227.616459 179.263575 
L 244.703541 144.541743 
L 261.790622 109.141818 
L 278.877703 213.136315 
L 295.964785 202.895343 
L 313.051866 166.158536 
L 330.138947 192.505858 
L 347.226029 157.118572 
L 364.31311 142.994651 
L 381.400191 105.562981 
L 398.487273 193.157517 
" clip-path="url(#p6ed5718c39)" style="fill: none; stroke-dasharray: 3.7,1.6; stroke-dashoffset: 0; stroke: #2ca02c"/>
   </g>
   <g id="line2d_50">
    <path d="M 73.832727 191.323447 
L 90.919809 279.91815 
L 108.00689 265.023168 
L 125.093971 245.237736 
L 142.181053 221.086227 
L 159.268134 194.564709 
L 176.355215 267.587752 
L 193.442297 233.068534 
L 210.529378 194.550446 
L 227.616459 155.508487 
L 244.703541 116.232746 
L 261.790622 78.095589 
L 278.877703 194.838718 
L 295.964785 181.921805 
L 313.051866 143.151865 
L 330.138947 172.697625 
L 347.226029 135.139044 
L 364.31311 120.298058 
L 381.400191 79.795162 
L 398.487273 176.964459 
" clip-path="url(#p6ed5718c39)" style="fill: none; stroke-dasharray: 3.7,1.6; stroke-dashoffset: 0; stroke: #d62728"/>
   </g>
   <g id="line2d_51">
    <path d="M 73.832727 191.323447 
L 90.919809 280.753126 
L 108.00689 265.363091 
L 125.093971 245.200186 
L 142.181053 221.575184 
L 159.268134 195.256223 
L 176.355215 268.369663 
L 193.442297 234.29654 
L 210.529378 196.792229 
L 227.616459 158.80309 
L 244.703541 118.657082 
L 261.790622 81.157029 
L 278.877703 195.19455 
L 295.964785 182.516609 
L 313.051866 143.87058 
L 330.138947 173.212321 
L 347.226029 136.061177 
L 364.31311 121.854448 
L 381.400191 82.11572 
L 398.487273 177.616117 
" clip-path="url(#p6ed5718c39)" style="fill: none; stroke-dasharray: 3.7,1.6; stroke-dashoffset: 0; stroke: #9467bd"/>
   </g>
   <g id="line2d_52">
    <path d="M 73.832727 191.323447 
L 90.919809 282.529436 
L 108.00689 268.825267 
L 125.093971 252.3592 
L 142.181053 233.396408 
L 159.268134 211.89044 
L 176.355215 286.471816 
L 193.442297 258.587521 
L 210.529378 225.916914 
L 227.616459 191.365994 
L 244.703541 154.538695 
L 261.790622 116.477629 
L 278.877703 216.311351 
L 295.964785 202.478756 
L 313.051866 163.76372 
L 330.138947 187.86039 
L 347.226029 150.832856 
L 364.31311 135.614736 
L 381.400191 93.568201 
L 398.487273 184.400628 
" clip-path="url(#p6ed5718c39)" style="fill: none; stroke-dasharray: 3.7,1.6; stroke-dashoffset: 0; stroke: #8c564b"/>
   </g>
   <g id="line2d_53">
    <path d="M 73.832727 191.323447 
L 90.919809 282.510834 
L 108.00689 269.308181 
L 125.093971 252.125779 
L 142.181053 231.704342 
L 159.268134 208.840419 
L 176.355215 283.833303 
L 193.442297 250.86643 
L 210.529378 213.775375 
L 227.616459 174.515292 
L 244.703541 134.405911 
L 261.790622 93.690512 
L 278.877703 203.424591 
L 295.964785 188.881532 
L 313.051866 147.385546 
L 330.138947 174.354824 
L 347.226029 134.452432 
L 364.31311 118.278876 
L 381.400191 75.168745 
L 398.487273 172.884241 
" clip-path="url(#p6ed5718c39)" style="fill: none; stroke-dasharray: 3.7,1.6; stroke-dashoffset: 0; stroke: #e377c2"/>
   </g>
   <g id="line2d_54">
    <path d="M 73.832727 191.323447 
L 90.919809 282.721603 
L 108.00689 270.804335 
L 125.093971 256.362335 
L 142.181053 239.278535 
L 159.268134 218.589613 
L 176.355215 291.89574 
L 193.442297 263.352371 
L 210.529378 231.537447 
L 227.616459 197.53543 
L 244.703541 161.685542 
L 261.790622 125.474414 
L 278.877703 224.102002 
L 295.964785 213.098362 
L 313.051866 177.953798 
L 330.138947 202.466304 
L 347.226029 169.475185 
L 364.31311 156.791693 
L 381.400191 120.007631 
L 398.487273 203.735719 
" clip-path="url(#p6ed5718c39)" style="fill: none; stroke-dasharray: 3.7,1.6; stroke-dashoffset: 0; stroke: #7f7f7f"/>
   </g>
   <g id="line2d_55">
    <path d="M 73.832727 191.323447 
L 90.919809 282.061093 
L 108.00689 268.979542 
L 125.093971 250.233335 
L 142.181053 229.979554 
L 159.268134 207.173574 
L 176.355215 283.082623 
L 193.442297 252.088907 
L 210.529378 219.310715 
L 227.616459 183.912645 
L 244.703541 145.745758 
L 261.790622 107.928021 
L 278.877703 213.184619 
L 295.964785 200.474275 
L 313.051866 161.64553 
L 330.138947 187.723277 
L 347.226029 149.87037 
L 364.31311 135.119092 
L 381.400191 95.88756 
L 398.487273 188.786123 
" clip-path="url(#p6ed5718c39)" style="fill: none; stroke-dasharray: 3.7,1.6; stroke-dashoffset: 0; stroke: #bcbd22"/>
   </g>
   <g id="line2d_56">
    <path d="M 73.832727 191.323447 
L 90.919809 281.957884 
L 108.00689 267.93076 
L 125.093971 251.654257 
L 142.181053 231.778348 
L 159.268134 210.961621 
L 176.355215 286.203503 
L 193.442297 257.823863 
L 210.529378 225.789911 
L 227.616459 190.950995 
L 244.703541 155.367563 
L 261.790622 117.874027 
L 278.877703 217.891743 
L 295.964785 206.481716 
L 313.051866 168.942337 
L 330.138947 194.058648 
L 347.226029 158.386786 
L 364.31311 143.517298 
L 381.400191 104.571392 
L 398.487273 191.495967 
" clip-path="url(#p6ed5718c39)" style="fill: none; stroke-dasharray: 3.7,1.6; stroke-dashoffset: 0; stroke: #17becf"/>
   </g>
   <g id="line2d_57">
    <path d="M 73.832727 191.323447 
L 90.919809 282.034691 
L 108.00689 268.420921 
L 125.093971 250.856799 
L 142.181053 229.860275 
L 159.268134 205.605652 
L 176.355215 282.530774 
L 193.442297 251.646466 
L 210.529378 217.772087 
L 227.616459 180.979471 
L 244.703541 142.310307 
L 261.790622 103.563169 
L 278.877703 208.507948 
L 295.964785 194.782913 
L 313.051866 155.105241 
L 330.138947 183.353534 
L 347.226029 144.998531 
L 364.31311 129.832016 
L 381.400191 88.611905 
L 398.487273 184.488686 
" clip-path="url(#p6ed5718c39)" style="fill: none; stroke-dasharray: 3.7,1.6; stroke-dashoffset: 0; stroke: #1f77b4"/>
   </g>
   <g id="line2d_58">
    <path d="M 73.832727 191.323447 
L 90.919809 281.874327 
L 108.00689 266.554928 
L 125.093971 248.07982 
L 142.181053 226.630841 
L 159.268134 201.091892 
L 176.355215 278.080223 
L 193.442297 247.470496 
L 210.529378 216.196856 
L 227.616459 183.726686 
L 244.703541 149.752643 
L 261.790622 114.539442 
L 278.877703 216.876452 
L 295.964785 208.178219 
L 313.051866 173.029455 
L 330.138947 201.482066 
L 347.226029 166.008223 
L 364.31311 152.214631 
L 381.400191 113.235572 
L 398.487273 200.695995 
" clip-path="url(#p6ed5718c39)" style="fill: none; stroke-dasharray: 3.7,1.6; stroke-dashoffset: 0; stroke: #ff7f0e"/>
   </g>
   <g id="line2d_59">
    <path d="M 73.832727 191.323447 
L 90.919809 282.191605 
L 108.00689 268.43095 
L 125.093971 250.073056 
L 142.181053 229.626872 
L 159.268134 206.757021 
L 176.355215 283.204215 
L 193.442297 252.925543 
L 210.529378 221.294513 
L 227.616459 186.289586 
L 244.703541 149.004224 
L 261.790622 113.415023 
L 278.877703 214.539091 
L 295.964785 203.573404 
L 313.051866 167.283787 
L 330.138947 192.75098 
L 347.226029 158.186368 
L 364.31311 144.374325 
L 381.400191 107.117571 
L 398.487273 192.392298 
" clip-path="url(#p6ed5718c39)" style="fill: none; stroke-dasharray: 3.7,1.6; stroke-dashoffset: 0; stroke: #2ca02c"/>
   </g>
   <g id="line2d_60">
    <path d="M 73.832727 191.323447 
L 90.919809 282.35542 
L 108.00689 266.939337 
L 125.093971 248.181291 
L 142.181053 227.20752 
L 159.268134 202.914659 
L 176.355215 277.193709 
L 193.442297 247.029231 
L 210.529378 213.416671 
L 227.616459 178.176567 
L 244.703541 140.587275 
L 261.790622 104.46113 
L 278.877703 209.879822 
L 295.964785 198.571804 
L 313.051866 161.678233 
L 330.138947 188.629059 
L 347.226029 152.942346 
L 364.31311 138.567002 
L 381.400191 98.55495 
L 398.487273 187.723577 
" clip-path="url(#p6ed5718c39)" style="fill: none; stroke-dasharray: 3.7,1.6; stroke-dashoffset: 0; stroke: #d62728"/>
   </g>
   <g id="line2d_61">
    <path d="M 73.832727 191.323447 
L 90.919809 282.496283 
L 108.00689 268.764698 
L 125.093971 252.721755 
L 142.181053 233.342317 
L 159.268134 210.61437 
L 176.355215 283.564685 
L 193.442297 250.181603 
L 210.529378 214.034731 
L 227.616459 177.233123 
L 244.703541 140.056207 
L 261.790622 102.313417 
L 278.877703 209.41178 
L 295.964785 196.840498 
L 313.051866 158.243674 
L 330.138947 184.404379 
L 347.226029 146.738238 
L 364.31311 131.501816 
L 381.400191 90.67009 
L 398.487273 183.052007 
" clip-path="url(#p6ed5718c39)" style="fill: none; stroke-dasharray: 3.7,1.6; stroke-dashoffset: 0; stroke: #9467bd"/>
   </g>
   <g id="line2d_62">
    <path d="M 73.832727 191.323447 
L 90.919809 281.414085 
L 108.00689 266.857707 
L 125.093971 249.527675 
L 142.181053 230.448961 
L 159.268134 207.470133 
L 176.355215 282.535676 
L 193.442297 253.137758 
L 210.529378 221.959675 
L 227.616459 187.35321 
L 244.703541 153.569204 
L 261.790622 117.177732 
L 278.877703 218.695815 
L 295.964785 208.08056 
L 313.051866 172.105821 
L 330.138947 196.773442 
L 347.226029 162.20493 
L 364.31311 148.309029 
L 381.400191 110.460622 
L 398.487273 196.064328 
" clip-path="url(#p6ed5718c39)" style="fill: none; stroke-dasharray: 3.7,1.6; stroke-dashoffset: 0; stroke: #8c564b"/>
   </g>
   <g id="line2d_63">
    <path d="M 73.832727 191.323447 
L 90.919809 282.774708 
L 108.00689 269.303842 
L 125.093971 253.565861 
L 142.181053 234.245003 
L 159.268134 212.490776 
L 176.355215 288.28677 
L 193.442297 260.251899 
L 210.529378 229.438987 
L 227.616459 194.577572 
L 244.703541 158.914049 
L 261.790622 121.963945 
L 278.877703 221.395609 
L 295.964785 209.502538 
L 313.051866 170.42417 
L 330.138947 193.685714 
L 347.226029 155.679043 
L 364.31311 139.166606 
L 381.400191 98.762419 
L 398.487273 188.961489 
" clip-path="url(#p6ed5718c39)" style="fill: none; stroke-dasharray: 3.7,1.6; stroke-dashoffset: 0; stroke: #e377c2"/>
   </g>
   <g id="line2d_64">
    <path d="M 73.832727 191.323447 
L 90.919809 282.731354 
L 108.00689 269.385346 
L 125.093971 252.497717 
L 142.181053 231.55032 
L 159.268134 207.599799 
L 176.355215 280.072707 
L 193.442297 247.409096 
L 210.529378 212.2093 
L 227.616459 175.935249 
L 244.703541 138.95696 
L 261.790622 101.621499 
L 278.877703 210.109793 
L 295.964785 198.247775 
L 313.051866 159.496286 
L 330.138947 186.852449 
L 347.226029 150.019033 
L 364.31311 135.886561 
L 381.400191 95.933164 
L 398.487273 187.938397 
" clip-path="url(#p6ed5718c39)" style="fill: none; stroke-dasharray: 3.7,1.6; stroke-dashoffset: 0; stroke: #7f7f7f"/>
   </g>
   <g id="line2d_65">
    <path d="M 73.832727 191.323447 
L 90.919809 282.414075 
L 108.00689 268.507364 
L 125.093971 250.706317 
L 142.181053 229.875668 
L 159.268134 205.628598 
L 176.355215 280.320575 
L 193.442297 248.233036 
L 210.529378 212.987756 
L 227.616459 175.032249 
L 244.703541 137.270216 
L 261.790622 101.11165 
L 278.877703 211.175789 
L 295.964785 200.331462 
L 313.051866 161.990561 
L 330.138947 189.85872 
L 347.226029 153.747019 
L 364.31311 139.377225 
L 381.400191 98.597104 
L 398.487273 190.568133 
" clip-path="url(#p6ed5718c39)" style="fill: none; stroke-dasharray: 3.7,1.6; stroke-dashoffset: 0; stroke: #bcbd22"/>
   </g>
   <g id="line2d_66">
    <path d="M 73.832727 191.323447 
L 90.919809 283.165793 
L 108.00689 270.874355 
L 125.093971 254.15255 
L 142.181053 233.702583 
L 159.268134 210.031343 
L 176.355215 282.754099 
L 193.442297 252.943567 
L 210.529378 221.832656 
L 227.616459 187.176107 
L 244.703541 152.30653 
L 261.790622 115.860237 
L 278.877703 216.788244 
L 295.964785 206.615978 
L 313.051866 170.828906 
L 330.138947 196.802245 
L 347.226029 161.689334 
L 364.31311 147.828236 
L 381.400191 109.98868 
L 398.487273 195.049787 
" clip-path="url(#p6ed5718c39)" style="fill: none; stroke-dasharray: 3.7,1.6; stroke-dashoffset: 0; stroke: #17becf"/>
   </g>
   <g id="line2d_67">
    <path d="M 73.832727 191.323447 
L 90.919809 280.181724 
L 108.00689 265.428068 
L 125.093971 246.032088 
L 142.181053 221.074844 
L 159.268134 191.872877 
L 176.355215 265.699466 
L 193.442297 229.322493 
L 210.529378 190.794365 
L 227.616459 150.076415 
L 244.703541 109.058898 
L 261.790622 69.21411 
L 278.877703 189.659352 
L 295.964785 175.87041 
L 313.051866 132.922144 
L 330.138947 163.507947 
L 347.226029 121.87965 
L 364.31311 105.379665 
L 381.400191 62.347691 
L 398.487273 165.150895 
" clip-path="url(#p6ed5718c39)" style="fill: none; stroke-dasharray: 3.7,1.6; stroke-dashoffset: 0; stroke: #1f77b4"/>
   </g>
   <g id="line2d_68">
    <path d="M 73.832727 191.323447 
L 90.919809 280.882287 
L 108.00689 265.818692 
L 125.093971 246.293478 
L 142.181053 224.624519 
L 159.268134 199.380212 
L 176.355215 274.283694 
L 193.442297 240.937875 
L 210.529378 205.348501 
L 227.616459 164.12334 
L 244.703541 124.503329 
L 261.790622 84.920663 
L 278.877703 197.657472 
L 295.964785 183.391037 
L 313.051866 141.928355 
L 330.138947 169.074949 
L 347.226029 128.888881 
L 364.31311 112.794832 
L 381.400191 70.748147 
L 398.487273 167.974299 
" clip-path="url(#p6ed5718c39)" style="fill: none; stroke-dasharray: 3.7,1.6; stroke-dashoffset: 0; stroke: #ff7f0e"/>
   </g>
   <g id="line2d_69">
    <path d="M 73.832727 191.323447 
L 90.919809 281.233019 
L 108.00689 268.081264 
L 125.093971 251.944856 
L 142.181053 231.698274 
L 159.268134 210.686278 
L 176.355215 286.683701 
L 193.442297 257.942662 
L 210.529378 226.428531 
L 227.616459 191.878666 
L 244.703541 155.60291 
L 261.790622 117.318969 
L 278.877703 219.508439 
L 295.964785 206.054027 
L 313.051866 166.588925 
L 330.138947 191.874301 
L 347.226029 153.481495 
L 364.31311 137.835686 
L 381.400191 97.893691 
L 398.487273 191.699385 
" clip-path="url(#p6ed5718c39)" style="fill: none; stroke-dasharray: 3.7,1.6; stroke-dashoffset: 0; stroke: #2ca02c"/>
   </g>
   <g id="line2d_70">
    <path d="M 73.832727 191.323447 
L 90.919809 281.794519 
L 108.00689 268.556645 
L 125.093971 252.946333 
L 142.181053 233.927408 
L 159.268134 210.759288 
L 176.355215 284.661629 
L 193.442297 256.869668 
L 210.529378 225.720514 
L 227.616459 192.34022 
L 244.703541 158.717986 
L 261.790622 124.395197 
L 278.877703 222.623769 
L 295.964785 213.064309 
L 313.051866 177.825836 
L 330.138947 202.839988 
L 347.226029 169.482985 
L 364.31311 156.937206 
L 381.400191 120.32146 
L 398.487273 203.328882 
" clip-path="url(#p6ed5718c39)" style="fill: none; stroke-dasharray: 3.7,1.6; stroke-dashoffset: 0; stroke: #d62728"/>
   </g>
   <g id="line2d_71">
    <path d="M 73.832727 191.323447 
L 90.919809 280.982346 
L 108.00689 266.78797 
L 125.093971 250.020985 
L 142.181053 230.367717 
L 159.268134 206.52135 
L 176.355215 278.285937 
L 193.442297 245.736542 
L 210.529378 210.232591 
L 227.616459 173.252752 
L 244.703541 135.352941 
L 261.790622 97.265843 
L 278.877703 205.111043 
L 295.964785 191.30365 
L 313.051866 151.141734 
L 330.138947 177.005713 
L 347.226029 138.977139 
L 364.31311 124.137353 
L 381.400191 85.052685 
L 398.487273 178.42439 
" clip-path="url(#p6ed5718c39)" style="fill: none; stroke-dasharray: 3.7,1.6; stroke-dashoffset: 0; stroke: #9467bd"/>
   </g>
   <g id="line2d_72">
    <path d="M 73.832727 191.323447 
L 90.919809 280.744875 
L 108.00689 267.414385 
L 125.093971 250.708456 
L 142.181053 231.045843 
L 159.268134 208.517577 
L 176.355215 282.931396 
L 193.442297 253.815906 
L 210.529378 221.811781 
L 227.616459 188.606047 
L 244.703541 151.87248 
L 261.790622 115.301062 
L 278.877703 216.235294 
L 295.964785 204.392028 
L 313.051866 167.231883 
L 330.138947 191.52702 
L 347.226029 156.346153 
L 364.31311 141.87345 
L 381.400191 104.626747 
L 398.487273 191.75729 
" clip-path="url(#p6ed5718c39)" style="fill: none; stroke-dasharray: 3.7,1.6; stroke-dashoffset: 0; stroke: #8c564b"/>
   </g>
   <g id="line2d_73">
    <path d="M 73.832727 191.323447 
L 90.919809 280.790629 
L 108.00689 267.700261 
L 125.093971 249.022175 
L 142.181053 225.97479 
L 159.268134 201.179838 
L 176.355215 273.578351 
L 193.442297 240.329647 
L 210.529378 204.096827 
L 227.616459 165.781489 
L 244.703541 125.200983 
L 261.790622 84.951678 
L 278.877703 198.460494 
L 295.964785 184.586495 
L 313.051866 145.027934 
L 330.138947 171.393707 
L 347.226029 133.855678 
L 364.31311 118.726066 
L 381.400191 78.189867 
L 398.487273 171.942907 
" clip-path="url(#p6ed5718c39)" style="fill: none; stroke-dasharray: 3.7,1.6; stroke-dashoffset: 0; stroke: #e377c2"/>
   </g>
   <g id="line2d_74">
    <path d="M 73.832727 191.323447 
L 90.919809 278.622784 
L 108.00689 261.497603 
L 125.093971 239.6948 
L 142.181053 214.76706 
L 159.268134 185.287263 
L 176.355215 257.578433 
L 193.442297 219.71215 
L 210.529378 178.385975 
L 227.616459 136.78666 
L 244.703541 94.067303 
L 261.790622 53.568 
L 278.877703 176.432661 
L 295.964785 161.145535 
L 313.051866 118.491295 
L 330.138947 149.20491 
L 347.226029 110.648589 
L 364.31311 96.66508 
L 381.400191 56.933253 
L 398.487273 160.294208 
" clip-path="url(#p6ed5718c39)" style="fill: none; stroke-dasharray: 3.7,1.6; stroke-dashoffset: 0; stroke: #7f7f7f"/>
   </g>
   <g id="line2d_75">
    <path d="M 73.832727 191.323447 
L 90.919809 280.147971 
L 108.00689 264.60318 
L 125.093971 244.065013 
L 142.181053 220.210278 
L 159.268134 192.598899 
L 176.355215 269.019409 
L 193.442297 236.857026 
L 210.529378 201.231367 
L 227.616459 162.492372 
L 244.703541 122.519535 
L 261.790622 82.323662 
L 278.877703 194.412379 
L 295.964785 179.355674 
L 313.051866 137.753929 
L 330.138947 167.693324 
L 347.226029 127.425649 
L 364.31311 111.982659 
L 381.400191 70.030933 
L 398.487273 171.052877 
" clip-path="url(#p6ed5718c39)" style="fill: none; stroke-dasharray: 3.7,1.6; stroke-dashoffset: 0; stroke: #bcbd22"/>
   </g>
   <g id="line2d_76">
    <path d="M 73.832727 191.323447 
L 90.919809 280.516554 
L 108.00689 266.634713 
L 125.093971 247.914863 
L 142.181053 227.740618 
L 159.268134 203.952552 
L 176.355215 276.286685 
L 193.442297 243.368789 
L 210.529378 207.11304 
L 227.616459 168.976331 
L 244.703541 127.518406 
L 261.790622 86.018481 
L 278.877703 198.660162 
L 295.964785 182.517059 
L 313.051866 140.330861 
L 330.138947 166.393607 
L 347.226029 126.646329 
L 364.31311 110.609135 
L 381.400191 68.538298 
L 398.487273 167.999652 
" clip-path="url(#p6ed5718c39)" style="fill: none; stroke-dasharray: 3.7,1.6; stroke-dashoffset: 0; stroke: #17becf"/>
   </g>
   <g id="line2d_77">
    <path d="M 73.832727 191.323447 
L 90.919809 279.657427 
L 108.00689 265.077455 
L 125.093971 246.644239 
L 142.181053 225.195875 
L 159.268134 198.9905 
L 176.355215 274.540856 
L 193.442297 243.03005 
L 210.529378 208.711502 
L 227.616459 172.591003 
L 244.703541 135.948012 
L 261.790622 99.696639 
L 278.877703 207.247235 
L 295.964785 196.476415 
L 313.051866 158.844028 
L 330.138947 187.497057 
L 347.226029 152.514508 
L 364.31311 138.919984 
L 381.400191 98.874179 
L 398.487273 189.181559 
" clip-path="url(#p6ed5718c39)" style="fill: none; stroke-dasharray: 3.7,1.6; stroke-dashoffset: 0; stroke: #1f77b4"/>
   </g>
   <g id="line2d_78">
    <path d="M 73.832727 191.323447 
L 90.919809 282.823612 
L 108.00689 270.804673 
L 125.093971 254.357268 
L 142.181053 235.241616 
L 159.268134 214.338991 
L 176.355215 290.44022 
L 193.442297 263.576662 
L 210.529378 234.625985 
L 227.616459 203.192582 
L 244.703541 170.010104 
L 261.790622 135.661815 
L 278.877703 230.709797 
L 295.964785 221.434312 
L 313.051866 186.457613 
L 330.138947 212.129274 
L 347.226029 177.887642 
L 364.31311 164.255915 
L 381.400191 125.892211 
L 398.487273 210.783203 
" clip-path="url(#p6ed5718c39)" style="fill: none; stroke-dasharray: 3.7,1.6; stroke-dashoffset: 0; stroke: #ff7f0e"/>
   </g>
   <g id="line2d_79">
    <path d="M 73.832727 191.323447 
L 90.919809 281.776818 
L 108.00689 266.294461 
L 125.093971 246.366981 
L 142.181053 225.267368 
L 159.268134 202.371241 
L 176.355215 277.306065 
L 193.442297 247.828252 
L 210.529378 215.57782 
L 227.616459 181.722543 
L 244.703541 144.757989 
L 261.790622 109.403699 
L 278.877703 211.895553 
L 295.964785 200.97757 
L 313.051866 164.684353 
L 330.138947 190.881362 
L 347.226029 156.725387 
L 364.31311 143.182318 
L 381.400191 106.943555 
L 398.487273 193.775422 
" clip-path="url(#p6ed5718c39)" style="fill: none; stroke-dasharray: 3.7,1.6; stroke-dashoffset: 0; stroke: #2ca02c"/>
   </g>
   <g id="line2d_80">
    <path d="M 73.832727 191.323447 
L 90.919809 280.537406 
L 108.00689 267.309001 
L 125.093971 249.994504 
L 142.181053 229.567042 
L 159.268134 207.149617 
L 176.355215 281.651029 
L 193.442297 250.662132 
L 210.529378 216.994367 
L 227.616459 182.178818 
L 244.703541 147.038557 
L 261.790622 111.970047 
L 278.877703 216.142736 
L 295.964785 206.333203 
L 313.051866 170.988221 
L 330.138947 197.206681 
L 347.226029 163.54155 
L 364.31311 150.695594 
L 381.400191 112.514907 
L 398.487273 197.557863 
" clip-path="url(#p6ed5718c39)" style="fill: none; stroke-dasharray: 3.7,1.6; stroke-dashoffset: 0; stroke: #d62728"/>
   </g>
   <g id="line2d_81">
    <path d="M 73.832727 191.323447 
L 90.919809 282.766607 
L 108.00689 270.40885 
L 125.093971 255.154131 
L 142.181053 237.16041 
L 159.268134 215.883922 
L 176.355215 291.656329 
L 193.442297 264.252332 
L 210.529378 234.549418 
L 227.616459 202.965621 
L 244.703541 169.201661 
L 261.790622 134.99684 
L 278.877703 230.898514 
L 295.964785 221.115233 
L 313.051866 184.537591 
L 330.138947 209.388978 
L 347.226029 173.669712 
L 364.31311 158.894282 
L 381.400191 120.829555 
L 398.487273 207.828987 
" clip-path="url(#p6ed5718c39)" style="fill: none; stroke-dasharray: 3.7,1.6; stroke-dashoffset: 0; stroke: #9467bd"/>
   </g>
   <g id="line2d_82">
    <path d="M 73.832727 191.323447 
L 90.919809 282.702551 
L 108.00689 270.262657 
L 125.093971 254.331282 
L 142.181053 234.957946 
L 159.268134 212.207768 
L 176.355215 282.945552 
L 193.442297 251.070506 
L 210.529378 217.19013 
L 227.616459 181.899074 
L 244.703541 146.235762 
L 261.790622 107.93996 
L 278.877703 212.235784 
L 295.964785 199.389077 
L 313.051866 160.396967 
L 330.138947 185.175898 
L 347.226029 148.344132 
L 364.31311 133.518898 
L 381.400191 95.282106 
L 398.487273 185.928966 
" clip-path="url(#p6ed5718c39)" style="fill: none; stroke-dasharray: 3.7,1.6; stroke-dashoffset: 0; stroke: #8c564b"/>
   </g>
   <g id="line2d_83">
    <path d="M 73.832727 191.323447 
L 90.919809 280.69327 
L 108.00689 264.919867 
L 125.093971 242.473889 
L 142.181053 215.302923 
L 159.268134 185.406737 
L 176.355215 259.251287 
L 193.442297 221.724587 
L 210.529378 183.326747 
L 227.616459 143.541595 
L 244.703541 104.627538 
L 261.790622 66.191457 
L 278.877703 183.220922 
L 295.964785 170.961068 
L 313.051866 131.534819 
L 330.138947 162.183178 
L 347.226029 122.908593 
L 364.31311 107.502506 
L 381.400191 65.854107 
L 398.487273 162.461903 
" clip-path="url(#p6ed5718c39)" style="fill: none; stroke-dasharray: 3.7,1.6; stroke-dashoffset: 0; stroke: #e377c2"/>
   </g>
   <g id="line2d_84">
    <path d="M 73.832727 191.323447 
L 90.919809 282.228508 
L 108.00689 267.21355 
L 125.093971 250.10038 
L 142.181053 228.260484 
L 159.268134 202.210966 
L 176.355215 274.847106 
L 193.442297 242.329391 
L 210.529378 207.894716 
L 227.616459 171.743211 
L 244.703541 134.798557 
L 261.790622 97.953953 
L 278.877703 205.757301 
L 295.964785 194.180459 
L 313.051866 156.942606 
L 330.138947 183.521699 
L 347.226029 147.043815 
L 364.31311 132.057316 
L 381.400191 92.237432 
L 398.487273 183.063108 
" clip-path="url(#p6ed5718c39)" style="fill: none; stroke-dasharray: 3.7,1.6; stroke-dashoffset: 0; stroke: #7f7f7f"/>
   </g>
   <g id="line2d_85">
    <path d="M 73.832727 191.323447 
L 90.919809 281.221918 
L 108.00689 264.959945 
L 125.093971 242.179857 
L 142.181053 218.084614 
L 159.268134 189.568849 
L 176.355215 264.179535 
L 193.442297 229.070149 
L 210.529378 192.215051 
L 227.616459 154.451753 
L 244.703541 117.063263 
L 261.790622 80.030742 
L 278.877703 194.761611 
L 295.964785 184.037896 
L 313.051866 146.592425 
L 330.138947 176.613427 
L 347.226029 138.832976 
L 364.31311 124.506236 
L 381.400191 84.250563 
L 398.487273 177.524909 
" clip-path="url(#p6ed5718c39)" style="fill: none; stroke-dasharray: 3.7,1.6; stroke-dashoffset: 0; stroke: #bcbd22"/>
   </g>
   <g id="line2d_86">
    <path d="M 73.832727 191.323447 
L 90.919809 281.501993 
L 108.00689 267.62103 
L 125.093971 249.652135 
L 142.181053 229.755785 
L 159.268134 205.545484 
L 176.355215 281.777882 
L 193.442297 251.770114 
L 210.529378 218.890374 
L 227.616459 184.100238 
L 244.703541 146.576867 
L 261.790622 110.372568 
L 278.877703 213.576605 
L 295.964785 202.848989 
L 313.051866 166.042726 
L 330.138947 193.713767 
L 347.226029 158.212321 
L 364.31311 144.470034 
L 381.400191 107.141273 
L 398.487273 194.952128 
" clip-path="url(#p6ed5718c39)" style="fill: none; stroke-dasharray: 3.7,1.6; stroke-dashoffset: 0; stroke: #17becf"/>
   </g>
   <g id="line2d_87">
    <path d="M 73.832727 191.323447 
L 90.919809 282.405974 
L 108.00689 270.328387 
L 125.093971 253.50727 
L 142.181053 233.833221 
L 159.268134 210.089448 
L 176.355215 282.407468 
L 193.442297 251.302624 
L 210.529378 216.640064 
L 227.616459 181.263583 
L 244.703541 143.069288 
L 261.790622 105.801236 
L 278.877703 210.97312 
L 295.964785 198.257526 
L 313.051866 160.508427 
L 330.138947 187.881092 
L 347.226029 151.160336 
L 364.31311 137.122672 
L 381.400191 97.119621 
L 398.487273 189.071149 
" clip-path="url(#p6ed5718c39)" style="fill: none; stroke-dasharray: 3.7,1.6; stroke-dashoffset: 0; stroke: #1f77b4"/>
   </g>
   <g id="line2d_88">
    <path d="M 73.832727 191.323447 
L 90.919809 282.068294 
L 108.00689 266.60092 
L 125.093971 247.097213 
L 142.181053 225.027036 
L 159.268134 198.869707 
L 176.355215 272.452355 
L 193.442297 239.37147 
L 210.529378 202.684139 
L 227.616459 164.826556 
L 244.703541 127.272784 
L 261.790622 89.903477 
L 278.877703 202.018664 
L 295.964785 189.995232 
L 313.051866 152.224382 
L 330.138947 180.727998 
L 347.226029 145.103841 
L 364.31311 131.495966 
L 381.400191 92.787531 
L 398.487273 186.072529 
" clip-path="url(#p6ed5718c39)" style="fill: none; stroke-dasharray: 3.7,1.6; stroke-dashoffset: 0; stroke: #ff7f0e"/>
   </g>
   <g id="line2d_89">
    <path d="M 73.832727 191.323447 
L 90.919809 282.216807 
L 108.00689 266.562655 
L 125.093971 248.330025 
L 142.181053 227.935503 
L 159.268134 203.932451 
L 176.355215 277.920006 
L 193.442297 244.970183 
L 210.529378 207.1303 
L 227.616459 168.092732 
L 244.703541 128.066557 
L 261.790622 89.85163 
L 278.877703 200.993772 
L 295.964785 187.240984 
L 313.051866 146.240193 
L 330.138947 172.31104 
L 347.226029 133.609656 
L 364.31311 117.88344 
L 381.400191 78.119211 
L 398.487273 171.75749 
" clip-path="url(#p6ed5718c39)" style="fill: none; stroke-dasharray: 3.7,1.6; stroke-dashoffset: 0; stroke: #2ca02c"/>
   </g>
   <g id="line2d_90">
    <path d="M 73.832727 191.323447 
L 90.919809 283.069334 
L 108.00689 271.004673 
L 125.093971 255.570888 
L 142.181053 236.466996 
L 159.268134 212.406041 
L 176.355215 284.423516 
L 193.442297 252.072056 
L 210.529378 217.304651 
L 227.616459 179.48398 
L 244.703541 141.58682 
L 261.790622 103.698551 
L 278.877703 210.675493 
L 295.964785 197.952098 
L 313.051866 160.577134 
L 330.138947 186.782843 
L 347.226029 151.289197 
L 364.31311 137.620867 
L 381.400191 98.654409 
L 398.487273 189.227763 
" clip-path="url(#p6ed5718c39)" style="fill: none; stroke-dasharray: 3.7,1.6; stroke-dashoffset: 0; stroke: #d62728"/>
   </g>
   <g id="line2d_91">
    <path d="M 73.832727 191.323447 
L 90.919809 283.081635 
L 108.00689 271.510655 
L 125.093971 256.804673 
L 142.181053 238.049273 
L 159.268134 217.858864 
L 176.355215 294.523209 
L 193.442297 267.98155 
L 210.529378 237.728273 
L 227.616459 203.098882 
L 244.703541 166.976105 
L 261.790622 129.861075 
L 278.877703 228.016455 
L 295.964785 215.441723 
L 313.051866 176.461764 
L 330.138947 199.994232 
L 347.226029 162.062567 
L 364.31311 145.87896 
L 381.400191 105.458572 
L 398.487273 195.724398 
" clip-path="url(#p6ed5718c39)" style="fill: none; stroke-dasharray: 3.7,1.6; stroke-dashoffset: 0; stroke: #9467bd"/>
   </g>
   <g id="line2d_92">
    <path d="M 73.832727 191.323447 
L 90.919809 280.287334 
L 108.00689 264.367358 
L 125.093971 244.07023 
L 142.181053 220.303714 
L 159.268134 190.656226 
L 176.355215 266.355826 
L 193.442297 231.936673 
L 210.529378 195.914969 
L 227.616459 158.873353 
L 244.703541 119.784759 
L 261.790622 82.334641 
L 278.877703 193.75637 
L 295.964785 181.274797 
L 313.051866 141.465263 
L 330.138947 171.193739 
L 347.226029 132.647319 
L 364.31311 117.961297 
L 381.400191 77.426298 
L 398.487273 173.553602 
" clip-path="url(#p6ed5718c39)" style="fill: none; stroke-dasharray: 3.7,1.6; stroke-dashoffset: 0; stroke: #8c564b"/>
   </g>
   <g id="line2d_93">
    <path d="M 73.832727 191.323447 
L 90.919809 282.125299 
L 108.00689 269.700887 
L 125.093971 253.62427 
L 142.181053 235.121113 
L 159.268134 214.367309 
L 176.355215 290.253542 
L 193.442297 262.15474 
L 210.529378 230.492777 
L 227.616459 195.780122 
L 244.703541 159.341703 
L 261.790622 122.520124 
L 278.877703 223.126764 
L 295.964785 211.230243 
L 313.051866 172.801734 
L 330.138947 197.481956 
L 347.226029 159.53499 
L 364.31311 143.794823 
L 381.400191 102.566611 
L 398.487273 193.203721 
" clip-path="url(#p6ed5718c39)" style="fill: none; stroke-dasharray: 3.7,1.6; stroke-dashoffset: 0; stroke: #e377c2"/>
   </g>
   <g id="line2d_94">
    <path d="M 73.832727 191.323447 
L 90.919809 282.02209 
L 108.00689 268.70341 
L 125.093971 249.898015 
L 142.181053 228.660291 
L 159.268134 205.291243 
L 176.355215 281.132536 
L 193.442297 250.910137 
L 210.529378 216.852574 
L 227.616459 181.983596 
L 244.703541 145.417675 
L 261.790622 109.457783 
L 278.877703 214.594296 
L 295.964785 203.273677 
L 313.051866 165.246604 
L 330.138947 192.471955 
L 347.226029 156.223742 
L 364.31311 141.776091 
L 381.400191 102.836636 
L 398.487273 193.19997 
" clip-path="url(#p6ed5718c39)" style="fill: none; stroke-dasharray: 3.7,1.6; stroke-dashoffset: 0; stroke: #7f7f7f"/>
   </g>
   <g id="line2d_95">
    <path d="M 73.832727 191.323447 
L 90.919809 281.450988 
L 108.00689 267.652288 
L 125.093971 249.478297 
L 142.181053 228.397846 
L 159.268134 204.971008 
L 176.355215 281.867909 
L 193.442297 252.767706 
L 210.529378 221.670395 
L 227.616459 188.267437 
L 244.703541 153.045577 
L 261.790622 116.754255 
L 278.877703 215.680994 
L 295.964785 203.484446 
L 313.051866 165.20025 
L 330.138947 191.543671 
L 347.226029 153.841827 
L 364.31311 138.142164 
L 381.400191 98.749668 
L 398.487273 191.255495 
" clip-path="url(#p6ed5718c39)" style="fill: none; stroke-dasharray: 3.7,1.6; stroke-dashoffset: 0; stroke: #bcbd22"/>
   </g>
   <g id="line2d_96">
    <path d="M 73.832727 191.323447 
L 90.919809 283.009479 
L 108.00689 269.851284 
L 125.093971 252.27247 
L 142.181053 230.41285 
L 159.268134 204.677671 
L 176.355215 275.495295 
L 193.442297 238.818887 
L 210.529378 200.885259 
L 227.616459 160.663313 
L 244.703541 120.624576 
L 261.790622 80.659274 
L 278.877703 196.464864 
L 295.964785 181.923455 
L 313.051866 140.447872 
L 330.138947 169.132104 
L 347.226029 128.948736 
L 364.31311 113.002151 
L 381.400191 72.218129 
L 398.487273 172.814035 
" clip-path="url(#p6ed5718c39)" style="fill: none; stroke-dasharray: 3.7,1.6; stroke-dashoffset: 0; stroke: #17becf"/>
   </g>
   <g id="line2d_97">
    <path d="M 73.832727 191.323447 
L 90.919809 279.773537 
L 108.00689 261.75228 
L 125.093971 240.317308 
L 142.181053 215.280995 
L 159.268134 187.722272 
L 176.355215 263.254498 
L 193.442297 227.207777 
L 210.529378 189.489283 
L 227.616459 150.77076 
L 244.703541 112.555862 
L 261.790622 74.089342 
L 278.877703 191.695335 
L 295.964785 180.328962 
L 313.051866 142.405248 
L 330.138947 173.822876 
L 347.226029 135.745098 
L 364.31311 121.512417 
L 381.400191 80.468272 
L 398.487273 175.850158 
" clip-path="url(#p6ed5718c39)" style="fill: none; stroke-dasharray: 3.7,1.6; stroke-dashoffset: 0; stroke: #1f77b4"/>
   </g>
   <g id="line2d_98">
    <path d="M 73.832727 191.323447 
L 90.919809 280.641066 
L 108.00689 267.748128 
L 125.093971 251.396726 
L 142.181053 232.014484 
L 159.268134 208.694648 
L 176.355215 280.216262 
L 193.442297 247.982996 
L 210.529378 210.587649 
L 227.616459 172.171206 
L 244.703541 132.264703 
L 261.790622 91.720747 
L 278.877703 204.910925 
L 295.964785 190.982171 
L 313.051866 151.822495 
L 330.138947 178.915234 
L 347.226029 142.597265 
L 364.31311 128.690563 
L 381.400191 88.66606 
L 398.487273 182.909794 
" clip-path="url(#p6ed5718c39)" style="fill: none; stroke-dasharray: 3.7,1.6; stroke-dashoffset: 0; stroke: #ff7f0e"/>
   </g>
   <g id="line2d_99">
    <path d="M 73.832727 191.323447 
L 90.919809 283.420066 
L 108.00689 272.672439 
L 125.093971 258.907242 
L 142.181053 243.443126 
L 159.268134 223.394599 
L 176.355215 295.488 
L 193.442297 266.392247 
L 210.529378 234.097263 
L 227.616459 198.922329 
L 244.703541 163.41536 
L 261.790622 127.622146 
L 278.877703 227.684175 
L 295.964785 216.274598 
L 313.051866 181.145335 
L 330.138947 205.698795 
L 347.226029 171.834297 
L 364.31311 158.570253 
L 381.400191 121.622977 
L 398.487273 207.592266 
" clip-path="url(#p6ed5718c39)" style="fill: none; stroke-dasharray: 3.7,1.6; stroke-dashoffset: 0; stroke: #2ca02c"/>
   </g>
   <g id="line2d_100">
    <path d="M 73.832727 191.323447 
L 90.919809 282.395023 
L 108.00689 268.445879 
L 125.093971 249.855695 
L 142.181053 230.934364 
L 159.268134 207.998526 
L 176.355215 282.615041 
L 193.442297 254.398531 
L 210.529378 224.771452 
L 227.616459 193.303106 
L 244.703541 160.59111 
L 261.790622 126.740065 
L 278.877703 224.726658 
L 295.964785 216.18864 
L 313.051866 182.024414 
L 330.138947 206.252945 
L 347.226029 171.483415 
L 364.31311 157.248934 
L 381.400191 119.681352 
L 398.487273 201.505468 
" clip-path="url(#p6ed5718c39)" style="fill: none; stroke-dasharray: 3.7,1.6; stroke-dashoffset: 0; stroke: #d62728"/>
   </g>
   <g id="line2d_101">
    <path d="M 73.832727 191.323447 
L 90.919809 281.760616 
L 108.00689 267.179258 
L 125.093971 248.623867 
L 142.181053 227.187948 
L 159.268134 201.753205 
L 176.355215 277.869386 
L 193.442297 245.932171 
L 210.529378 209.709234 
L 227.616459 172.675771 
L 244.703541 133.32634 
L 261.790622 93.71309 
L 278.877703 203.650811 
L 295.964785 190.094391 
L 313.051866 148.779322 
L 330.138947 177.493856 
L 347.226029 137.532209 
L 364.31311 121.587274 
L 381.400191 80.66179 
L 398.487273 180.071839 
" clip-path="url(#p6ed5718c39)" style="fill: none; stroke-dasharray: 3.7,1.6; stroke-dashoffset: 0; stroke: #9467bd"/>
   </g>
   <g id="line2d_102">
    <path d="M 73.832727 191.323447 
L 90.919809 281.670608 
L 108.00689 267.318719 
L 125.093971 248.644809 
L 142.181053 227.54518 
L 159.268134 201.860686 
L 176.355215 278.440931 
L 193.442297 247.433565 
L 210.529378 212.86812 
L 227.616459 175.806458 
L 244.703541 135.237164 
L 261.790622 96.675148 
L 278.877703 205.558983 
L 295.964785 193.004503 
L 313.051866 152.54406 
L 330.138947 180.951968 
L 347.226029 140.550931 
L 364.31311 124.504886 
L 381.400191 82.029013 
L 398.487273 179.301969 
" clip-path="url(#p6ed5718c39)" style="fill: none; stroke-dasharray: 3.7,1.6; stroke-dashoffset: 0; stroke: #8c564b"/>
   </g>
   <g id="line2d_103">
    <path d="M 73.832727 191.323447 
L 90.919809 281.880477 
L 108.00689 267.721576 
L 125.093971 251.137834 
L 142.181053 231.78299 
L 159.268134 209.97454 
L 176.355215 285.80259 
L 193.442297 258.56478 
L 210.529378 229.763143 
L 227.616459 198.988954 
L 244.703541 164.766828 
L 261.790622 130.409449 
L 278.877703 226.331803 
L 295.964785 216.799195 
L 313.051866 182.86434 
L 330.138947 208.343684 
L 347.226029 174.861419 
L 364.31311 161.504667 
L 381.400191 124.040295 
L 398.487273 206.773192 
" clip-path="url(#p6ed5718c39)" style="fill: none; stroke-dasharray: 3.7,1.6; stroke-dashoffset: 0; stroke: #e377c2"/>
   </g>
   <g id="line2d_104">
    <path d="M 73.832727 191.323447 
L 90.919809 280.487302 
L 108.00689 265.126209 
L 125.093971 245.795647 
L 142.181053 222.916276 
L 159.268134 196.785108 
L 176.355215 272.029668 
L 193.442297 239.792827 
L 210.529378 205.503181 
L 227.616459 170.86096 
L 244.703541 136.189972 
L 261.790622 100.416137 
L 278.877703 208.259526 
L 295.964785 198.712667 
L 313.051866 162.492506 
L 330.138947 191.110732 
L 347.226029 155.820955 
L 364.31311 141.998711 
L 381.400191 104.030893 
L 398.487273 193.734618 
" clip-path="url(#p6ed5718c39)" style="fill: none; stroke-dasharray: 3.7,1.6; stroke-dashoffset: 0; stroke: #7f7f7f"/>
   </g>
   <g id="line2d_105">
    <path d="M 73.832727 191.323447 
L 90.919809 281.5773 
L 108.00689 266.973489 
L 125.093971 247.183047 
L 142.181053 222.826721 
L 159.268134 194.170626 
L 176.355215 269.660777 
L 193.442297 236.291547 
L 210.529378 200.606327 
L 227.616459 162.255542 
L 244.703541 124.48777 
L 261.790622 85.155434 
L 278.877703 197.430651 
L 295.964785 184.923425 
L 313.051866 145.110291 
L 330.138947 174.662202 
L 347.226029 136.267895 
L 364.31311 120.984519 
L 381.400191 79.142003 
L 398.487273 175.336962 
" clip-path="url(#p6ed5718c39)" style="fill: none; stroke-dasharray: 3.7,1.6; stroke-dashoffset: 0; stroke: #bcbd22"/>
   </g>
   <g id="line2d_106">
    <path d="M 73.832727 191.323447 
L 90.919809 282.427126 
L 108.00689 269.583997 
L 125.093971 253.720177 
L 142.181053 233.813158 
L 159.268134 211.224636 
L 176.355215 284.310395 
L 193.442297 255.328293 
L 210.529378 223.109109 
L 227.616459 189.226157 
L 244.703541 153.14379 
L 261.790622 116.225755 
L 278.877703 215.934367 
L 295.964785 205.034386 
L 313.051866 168.933186 
L 330.138947 194.340523 
L 347.226029 159.972579 
L 364.31311 146.520568 
L 381.400191 108.900632 
L 398.487273 193.164717 
" clip-path="url(#p6ed5718c39)" style="fill: none; stroke-dasharray: 3.7,1.6; stroke-dashoffset: 0; stroke: #17becf"/>
   </g>
   <g id="line2d_107">
    <path d="M 73.832727 191.323447 
L 90.919809 282.669698 
L 108.00689 270.3446 
L 125.093971 253.852977 
L 142.181053 232.537658 
L 159.268134 207.277245 
L 176.355215 281.729912 
L 193.442297 251.375214 
L 210.529378 217.349689 
L 227.616459 181.67771 
L 244.703541 143.048192 
L 261.790622 105.244139 
L 278.877703 209.866321 
L 295.964785 197.269387 
L 313.051866 159.692504 
L 330.138947 185.884562 
L 347.226029 150.571533 
L 364.31311 137.137224 
L 381.400191 99.397126 
L 398.487273 189.589745 
" clip-path="url(#p6ed5718c39)" style="fill: none; stroke-dasharray: 3.7,1.6; stroke-dashoffset: 0; stroke: #1f77b4"/>
   </g>
   <g id="line2d_108">
    <path d="M 73.832727 191.323447 
L 90.919809 281.638955 
L 108.00689 267.760993 
L 125.093971 250.667963 
L 142.181053 231.235695 
L 159.268134 209.769699 
L 176.355215 282.826102 
L 193.442297 253.819037 
L 210.529378 222.183797 
L 227.616459 189.180917 
L 244.703541 153.992527 
L 261.790622 119.232281 
L 278.877703 220.118394 
L 295.964785 210.203851 
L 313.051866 174.108652 
L 330.138947 198.770872 
L 347.226029 164.162006 
L 364.31311 150.443271 
L 381.400191 113.110911 
L 398.487273 198.073759 
" clip-path="url(#p6ed5718c39)" style="fill: none; stroke-dasharray: 3.7,1.6; stroke-dashoffset: 0; stroke: #ff7f0e"/>
   </g>
   <g id="line2d_109">
    <path d="M 73.832727 191.323447 
L 90.919809 282.383922 
L 108.00689 268.247124 
L 125.093971 251.049774 
L 142.181053 231.09807 
L 159.268134 208.994529 
L 176.355215 282.054412 
L 193.442297 251.797603 
L 210.529378 218.955755 
L 227.616459 184.578612 
L 244.703541 148.361566 
L 261.790622 111.014363 
L 278.877703 214.062798 
L 295.964785 201.692085 
L 313.051866 163.818475 
L 330.138947 189.440182 
L 347.226029 153.101361 
L 364.31311 137.595215 
L 381.400191 98.475743 
L 398.487273 189.544141 
" clip-path="url(#p6ed5718c39)" style="fill: none; stroke-dasharray: 3.7,1.6; stroke-dashoffset: 0; stroke: #2ca02c"/>
   </g>
   <g id="line2d_110">
    <path d="M 73.832727 191.323447 
L 90.919809 282.300965 
L 108.00689 266.585665 
L 125.093971 248.779023 
L 142.181053 227.187323 
L 159.268134 201.976676 
L 176.355215 274.286923 
L 193.442297 240.496261 
L 210.529378 204.719145 
L 227.616459 166.921229 
L 244.703541 128.811304 
L 261.790622 90.17509 
L 278.877703 200.208751 
L 295.964785 185.823356 
L 313.051866 144.103701 
L 330.138947 169.828166 
L 347.226029 129.176007 
L 364.31311 111.629827 
L 381.400191 70.201948 
L 398.487273 168.778072 
" clip-path="url(#p6ed5718c39)" style="fill: none; stroke-dasharray: 3.7,1.6; stroke-dashoffset: 0; stroke: #d62728"/>
   </g>
   <g id="line2d_111">
    <path d="M 73.832727 191.323447 
L 90.919809 282.35947 
L 108.00689 269.165383 
L 125.093971 253.117305 
L 142.181053 235.816116 
L 159.268134 214.085823 
L 176.355215 288.686613 
L 193.442297 259.603057 
L 210.529378 226.552085 
L 227.616459 191.817541 
L 244.703541 155.613523 
L 261.790622 119.586798 
L 278.877703 220.656792 
L 295.964785 210.507628 
L 313.051866 175.188899 
L 330.138947 199.431531 
L 347.226029 166.785442 
L 364.31311 154.802514 
L 381.400191 119.119102 
L 398.487273 202.076419 
" clip-path="url(#p6ed5718c39)" style="fill: none; stroke-dasharray: 3.7,1.6; stroke-dashoffset: 0; stroke: #9467bd"/>
   </g>
   <g id="line2d_112">
    <path d="M 73.832727 191.323447 
L 90.919809 282.051793 
L 108.00689 269.682216 
L 125.093971 252.862624 
L 142.181053 234.391207 
L 159.268134 213.095717 
L 176.355215 284.511286 
L 193.442297 253.401636 
L 210.529378 217.294844 
L 227.616459 179.72494 
L 244.703541 141.128743 
L 261.790622 102.55244 
L 278.877703 209.272117 
L 295.964785 194.758011 
L 313.051866 155.634489 
L 330.138947 179.141755 
L 347.226029 142.088269 
L 364.31311 126.893251 
L 381.400191 87.251583 
L 398.487273 179.988431 
" clip-path="url(#p6ed5718c39)" style="fill: none; stroke-dasharray: 3.7,1.6; stroke-dashoffset: 0; stroke: #8c564b"/>
   </g>
   <g id="line2d_113">
    <path d="M 73.832727 191.323447 
L 90.919809 281.5821 
L 108.00689 268.769896 
L 125.093971 251.475608 
L 142.181053 230.690627 
L 159.268134 207.75709 
L 176.355215 281.85874 
L 193.442297 253.043343 
L 210.529378 221.250185 
L 227.616459 185.103047 
L 244.703541 149.125368 
L 261.790622 110.854884 
L 278.877703 214.29727 
L 295.964785 201.091881 
L 313.051866 162.266286 
L 330.138947 186.615278 
L 347.226029 151.105131 
L 364.31311 136.98706 
L 381.400191 96.979959 
L 398.487273 185.967969 
" clip-path="url(#p6ed5718c39)" style="fill: none; stroke-dasharray: 3.7,1.6; stroke-dashoffset: 0; stroke: #e377c2"/>
   </g>
   <g id="line2d_114">
    <path d="M 73.832727 191.323447 
L 90.919809 281.35723 
L 108.00689 266.968778 
L 125.093971 248.429059 
L 142.181053 225.085533 
L 159.268134 200.710224 
L 176.355215 276.316559 
L 193.442297 244.119704 
L 210.529378 209.149738 
L 227.616459 174.333539 
L 244.703541 137.341758 
L 261.790622 98.832612 
L 278.877703 203.776672 
L 295.964785 192.375796 
L 313.051866 154.130453 
L 330.138947 181.914004 
L 347.226029 145.623637 
L 364.31311 131.897102 
L 381.400191 92.856987 
L 398.487273 183.291428 
" clip-path="url(#p6ed5718c39)" style="fill: none; stroke-dasharray: 3.7,1.6; stroke-dashoffset: 0; stroke: #7f7f7f"/>
   </g>
   <g id="line2d_115">
    <path d="M 73.832727 191.323447 
L 90.919809 282.824662 
L 108.00689 269.757278 
L 125.093971 252.049169 
L 142.181053 232.139966 
L 159.268134 209.912746 
L 176.355215 285.415646 
L 193.442297 255.986906 
L 210.529378 223.596551 
L 227.616459 189.070125 
L 244.703541 152.504173 
L 261.790622 116.479071 
L 278.877703 218.480846 
L 295.964785 207.156927 
L 313.051866 169.20651 
L 330.138947 194.265966 
L 347.226029 157.191479 
L 364.31311 141.703185 
L 381.400191 103.042604 
L 398.487273 192.396498 
" clip-path="url(#p6ed5718c39)" style="fill: none; stroke-dasharray: 3.7,1.6; stroke-dashoffset: 0; stroke: #bcbd22"/>
   </g>
   <g id="line2d_116">
    <path d="M 73.832727 191.323447 
L 90.919809 280.962845 
L 108.00689 265.174296 
L 125.093971 246.672232 
L 142.181053 223.530316 
L 159.268134 198.384076 
L 176.355215 271.594676 
L 193.442297 239.109937 
L 210.529378 203.928149 
L 227.616459 168.10265 
L 244.703541 131.770485 
L 261.790622 93.313713 
L 278.877703 202.940797 
L 295.964785 191.372506 
L 313.051866 153.345583 
L 330.138947 180.489776 
L 347.226029 143.710365 
L 364.31311 128.574453 
L 381.400191 88.561201 
L 398.487273 180.580534 
" clip-path="url(#p6ed5718c39)" style="fill: none; stroke-dasharray: 3.7,1.6; stroke-dashoffset: 0; stroke: #17becf"/>
   </g>
   <g id="line2d_117">
    <path d="M 73.832727 191.323447 
L 90.919809 281.706401 
L 108.00689 267.850146 
L 125.093971 250.233387 
L 142.181053 229.523617 
L 159.268134 205.756535 
L 176.355215 280.105543 
L 193.442297 249.16995 
L 210.529378 215.39822 
L 227.616459 179.756155 
L 244.703541 142.770981 
L 261.790622 105.610732 
L 278.877703 211.113944 
L 295.964785 199.1858 
L 313.051866 161.193091 
L 330.138947 187.569156 
L 347.226029 151.005876 
L 364.31311 136.42643 
L 381.400191 97.14654 
L 398.487273 187.989791 
" clip-path="url(#p6ed5718c39)" style="fill: none; stroke: #000000; stroke-width: 2.5; stroke-linecap: square"/>
   </g>
   <g id="patch_3">
    <path d="M 57.6 307.584 
L 57.6 41.472 
" style="fill: none; stroke: #000000; stroke-width: 0.8; stroke-linejoin: miter; stroke-linecap: square"/>
   </g>
   <g id="patch_4">
    <path d="M 414.72 307.584 
L 414.72 41.472 
" style="fill: none; stroke: #000000; stroke-width: 0.8; stroke-linejoin: miter; stroke-linecap: square"/>
   </g>
   <g id="patch_5">
    <path d="M 57.6 307.584 
L 414.72 307.584 
" style="fill: none; stroke: #000000; stroke-width: 0.8; stroke-linejoin: miter; stroke-linecap: square"/>
   </g>
   <g id="patch_6">
    <path d="M 57.6 41.472 
L 414.72 41.472 
" style="fill: none; stroke: #000000; stroke-width: 0.8; stroke-linejoin: miter; stroke-linecap: square"/>
   </g>
   <g id="legend_1">
    <g id="patch_7">
     <path d="M 64.6 64.150125 
L 137.665625 64.150125 
Q 139.665625 64.150125 139.665625 62.150125 
L 139.665625 48.472 
Q 139.665625 46.472 137.665625 46.472 
L 64.6 46.472 
Q 62.6 46.472 62.6 48.472 
L 62.6 62.150125 
Q 62.6 64.150125 64.6 64.150125 
z
" style="fill: #ffffff; opacity: 0.8; stroke: #cccccc; stroke-linejoin: miter"/>
    </g>
    <g id="line2d_118">
     <path d="M 66.6 54.570438 
L 76.6 54.570438 
L 86.6 54.570438 
" style="fill: none; stroke: #000000; stroke-width: 2.5; stroke-linecap: square"/>
    </g>
    <g id="text_19">
     <!-- Average -->
     <g transform="translate(94.6 58.070438) scale(0.1 -0.1)">
      <defs>
       <path id="DejaVuSans-41" d="M 2188 4044 
L 1331 1722 
L 3047 1722 
L 2188 4044 
z
M 1831 4666 
L 2547 4666 
L 4325 0 
L 3669 0 
L 3244 1197 
L 1141 1197 
L 716 0 
L 50 0 
L 1831 4666 
z
" transform="scale(0.015625)"/>
       <path id="DejaVuSans-67" d="M 2906 1791 
Q 2906 2416 2648 2759 
Q 2391 3103 1925 3103 
Q 1463 3103 1205 2759 
Q 947 2416 947 1791 
Q 947 1169 1205 825 
Q 1463 481 1925 481 
Q 2391 481 2648 825 
Q 2906 1169 2906 1791 
z
M 3481 434 
Q 3481 -459 3084 -895 
Q 2688 -1331 1869 -1331 
Q 1566 -1331 1297 -1286 
Q 1028 -1241 775 -1147 
L 775 -588 
Q 1028 -725 1275 -790 
Q 1522 -856 1778 -856 
Q 2344 -856 2625 -561 
Q 2906 -266 2906 331 
L 2906 616 
Q 2728 306 2450 153 
Q 2172 0 1784 0 
Q 1141 0 747 490 
Q 353 981 353 1791 
Q 353 2603 747 3093 
Q 1141 3584 1784 3584 
Q 2172 3584 2450 3431 
Q 2728 3278 2906 2969 
L 2906 3500 
L 3481 3500 
L 3481 434 
z
" transform="scale(0.015625)"/>
      </defs>
      <use xlink:href="#DejaVuSans-41"/>
      <use xlink:href="#DejaVuSans-76" x="62.533203"/>
      <use xlink:href="#DejaVuSans-65" x="121.712891"/>
      <use xlink:href="#DejaVuSans-72" x="183.236328"/>
      <use xlink:href="#DejaVuSans-61" x="224.349609"/>
      <use xlink:href="#DejaVuSans-67" x="285.628906"/>
      <use xlink:href="#DejaVuSans-65" x="349.105469"/>
     </g>
    </g>
   </g>
  </g>
 </g>
 <defs>
  <clipPath id="p6ed5718c39">
   <rect x="57.6" y="41.472" width="357.12" height="266.112"/>
  </clipPath>
 </defs>
</svg>
