<?xml version="1.0" encoding="utf-8" standalone="no"?>
<!DOCTYPE svg PUBLIC "-//W3C//DTD SVG 1.1//EN"
  "http://www.w3.org/Graphics/SVG/1.1/DTD/svg11.dtd">
<svg xmlns:xlink="http://www.w3.org/1999/xlink" width="648pt" height="360pt" viewBox="0 0 648 360" xmlns="http://www.w3.org/2000/svg" version="1.1">
 <metadata>
  <rdf:RDF xmlns:dc="http://purl.org/dc/elements/1.1/" xmlns:cc="http://creativecommons.org/ns#" xmlns:rdf="http://www.w3.org/1999/02/22-rdf-syntax-ns#">
   <cc:Work>
    <dc:type rdf:resource="http://purl.org/dc/dcmitype/StillImage"/>
    <dc:date>2025-08-20T12:53:28.504515</dc:date>
    <dc:format>image/svg+xml</dc:format>
    <dc:creator>
     <cc:Agent>
      <dc:title>Matplotlib v3.7.2, https://matplotlib.org/</dc:title>
     </cc:Agent>
    </dc:creator>
   </cc:Work>
  </rdf:RDF>
 </metadata>
 <defs>
  <style type="text/css">*{stroke-linejoin: round; stroke-linecap: butt}</style>
 </defs>
 <g id="figure_1">
  <g id="patch_1">
   <path d="M 0 360 
L 648 360 
L 648 0 
L 0 0 
z
" style="fill: #ffffff"/>
  </g>
  <g id="axes_1">
   <g id="patch_2">
    <path d="M 81 320.4 
L 583.2 320.4 
L 583.2 43.2 
L 81 43.2 
z
" style="fill: #ffffff"/>
   </g>
   <g id="matplotlib.axis_1">
    <g id="xtick_1">
     <g id="line2d_1">
      <defs>
       <path id="m8238559749" d="M 0 0 
L 0 3.5 
" style="stroke: #000000; stroke-width: 0.8"/>
      </defs>
      <g>
       <use xlink:href="#m8238559749" x="103.827273" y="320.4" style="stroke: #000000; stroke-width: 0.8"/>
      </g>
     </g>
     <g id="text_1">
      <!-- 2005 -->
      <g transform="translate(88.557273 336.518125) scale(0.12 -0.12)">
       <defs>
        <path id="DejaVuSans-32" d="M 1228 531 
L 3431 531 
L 3431 0 
L 469 0 
L 469 531 
Q 828 903 1448 1529 
Q 2069 2156 2228 2338 
Q 2531 2678 2651 2914 
Q 2772 3150 2772 3378 
Q 2772 3750 2511 3984 
Q 2250 4219 1831 4219 
Q 1534 4219 1204 4116 
Q 875 4013 500 3803 
L 500 4441 
Q 881 4594 1212 4672 
Q 1544 4750 1819 4750 
Q 2544 4750 2975 4387 
Q 3406 4025 3406 3419 
Q 3406 3131 3298 2873 
Q 3191 2616 2906 2266 
Q 2828 2175 2409 1742 
Q 1991 1309 1228 531 
z
" transform="scale(0.015625)"/>
        <path id="DejaVuSans-30" d="M 2034 4250 
Q 1547 4250 1301 3770 
Q 1056 3291 1056 2328 
Q 1056 1369 1301 889 
Q 1547 409 2034 409 
Q 2525 409 2770 889 
Q 3016 1369 3016 2328 
Q 3016 3291 2770 3770 
Q 2525 4250 2034 4250 
z
M 2034 4750 
Q 2819 4750 3233 4129 
Q 3647 3509 3647 2328 
Q 3647 1150 3233 529 
Q 2819 -91 2034 -91 
Q 1250 -91 836 529 
Q 422 1150 422 2328 
Q 422 3509 836 4129 
Q 1250 4750 2034 4750 
z
" transform="scale(0.015625)"/>
        <path id="DejaVuSans-35" d="M 691 4666 
L 3169 4666 
L 3169 4134 
L 1269 4134 
L 1269 2991 
Q 1406 3038 1543 3061 
Q 1681 3084 1819 3084 
Q 2600 3084 3056 2656 
Q 3513 2228 3513 1497 
Q 3513 744 3044 326 
Q 2575 -91 1722 -91 
Q 1428 -91 1123 -41 
Q 819 9 494 109 
L 494 744 
Q 775 591 1075 516 
Q 1375 441 1709 441 
Q 2250 441 2565 725 
Q 2881 1009 2881 1497 
Q 2881 1984 2565 2268 
Q 2250 2553 1709 2553 
Q 1456 2553 1204 2497 
Q 953 2441 691 2322 
L 691 4666 
z
" transform="scale(0.015625)"/>
       </defs>
       <use xlink:href="#DejaVuSans-32"/>
       <use xlink:href="#DejaVuSans-30" x="63.623047"/>
       <use xlink:href="#DejaVuSans-30" x="127.246094"/>
       <use xlink:href="#DejaVuSans-35" x="190.869141"/>
      </g>
     </g>
    </g>
    <g id="xtick_2">
     <g id="line2d_2">
      <g>
       <use xlink:href="#m8238559749" x="163.899043" y="320.4" style="stroke: #000000; stroke-width: 0.8"/>
      </g>
     </g>
     <g id="text_2">
      <!-- 2007 -->
      <g transform="translate(148.629043 336.518125) scale(0.12 -0.12)">
       <defs>
        <path id="DejaVuSans-37" d="M 525 4666 
L 3525 4666 
L 3525 4397 
L 1831 0 
L 1172 0 
L 2766 4134 
L 525 4134 
L 525 4666 
z
" transform="scale(0.015625)"/>
       </defs>
       <use xlink:href="#DejaVuSans-32"/>
       <use xlink:href="#DejaVuSans-30" x="63.623047"/>
       <use xlink:href="#DejaVuSans-30" x="127.246094"/>
       <use xlink:href="#DejaVuSans-37" x="190.869141"/>
      </g>
     </g>
    </g>
    <g id="xtick_3">
     <g id="line2d_3">
      <g>
       <use xlink:href="#m8238559749" x="223.970813" y="320.4" style="stroke: #000000; stroke-width: 0.8"/>
      </g>
     </g>
     <g id="text_3">
      <!-- 2010 -->
      <g transform="translate(208.700813 336.518125) scale(0.12 -0.12)">
       <defs>
        <path id="DejaVuSans-31" d="M 794 531 
L 1825 531 
L 1825 4091 
L 703 3866 
L 703 4441 
L 1819 4666 
L 2450 4666 
L 2450 531 
L 3481 531 
L 3481 0 
L 794 0 
L 794 531 
z
" transform="scale(0.015625)"/>
       </defs>
       <use xlink:href="#DejaVuSans-32"/>
       <use xlink:href="#DejaVuSans-30" x="63.623047"/>
       <use xlink:href="#DejaVuSans-31" x="127.246094"/>
       <use xlink:href="#DejaVuSans-30" x="190.869141"/>
      </g>
     </g>
    </g>
    <g id="xtick_4">
     <g id="line2d_4">
      <g>
       <use xlink:href="#m8238559749" x="284.042584" y="320.4" style="stroke: #000000; stroke-width: 0.8"/>
      </g>
     </g>
     <g id="text_4">
      <!-- 2012 -->
      <g transform="translate(268.772584 336.518125) scale(0.12 -0.12)">
       <use xlink:href="#DejaVuSans-32"/>
       <use xlink:href="#DejaVuSans-30" x="63.623047"/>
       <use xlink:href="#DejaVuSans-31" x="127.246094"/>
       <use xlink:href="#DejaVuSans-32" x="190.869141"/>
      </g>
     </g>
    </g>
    <g id="xtick_5">
     <g id="line2d_5">
      <g>
       <use xlink:href="#m8238559749" x="344.114354" y="320.4" style="stroke: #000000; stroke-width: 0.8"/>
      </g>
     </g>
     <g id="text_5">
      <!-- 2015 -->
      <g transform="translate(328.844354 336.518125) scale(0.12 -0.12)">
       <use xlink:href="#DejaVuSans-32"/>
       <use xlink:href="#DejaVuSans-30" x="63.623047"/>
       <use xlink:href="#DejaVuSans-31" x="127.246094"/>
       <use xlink:href="#DejaVuSans-35" x="190.869141"/>
      </g>
     </g>
    </g>
    <g id="xtick_6">
     <g id="line2d_6">
      <g>
       <use xlink:href="#m8238559749" x="404.186124" y="320.4" style="stroke: #000000; stroke-width: 0.8"/>
      </g>
     </g>
     <g id="text_6">
      <!-- 2017 -->
      <g transform="translate(388.916124 336.518125) scale(0.12 -0.12)">
       <use xlink:href="#DejaVuSans-32"/>
       <use xlink:href="#DejaVuSans-30" x="63.623047"/>
       <use xlink:href="#DejaVuSans-31" x="127.246094"/>
       <use xlink:href="#DejaVuSans-37" x="190.869141"/>
      </g>
     </g>
    </g>
    <g id="xtick_7">
     <g id="line2d_7">
      <g>
       <use xlink:href="#m8238559749" x="464.257895" y="320.4" style="stroke: #000000; stroke-width: 0.8"/>
      </g>
     </g>
     <g id="text_7">
      <!-- 2020 -->
      <g transform="translate(448.987895 336.518125) scale(0.12 -0.12)">
       <use xlink:href="#DejaVuSans-32"/>
       <use xlink:href="#DejaVuSans-30" x="63.623047"/>
       <use xlink:href="#DejaVuSans-32" x="127.246094"/>
       <use xlink:href="#DejaVuSans-30" x="190.869141"/>
      </g>
     </g>
    </g>
    <g id="xtick_8">
     <g id="line2d_8">
      <g>
       <use xlink:href="#m8238559749" x="524.329665" y="320.4" style="stroke: #000000; stroke-width: 0.8"/>
      </g>
     </g>
     <g id="text_8">
      <!-- 2022 -->
      <g transform="translate(509.059665 336.518125) scale(0.12 -0.12)">
       <use xlink:href="#DejaVuSans-32"/>
       <use xlink:href="#DejaVuSans-30" x="63.623047"/>
       <use xlink:href="#DejaVuSans-32" x="127.246094"/>
       <use xlink:href="#DejaVuSans-32" x="190.869141"/>
      </g>
     </g>
    </g>
    <g id="text_9">
     <!-- Year -->
     <g transform="translate(316.21875 354.411406) scale(0.15 -0.15)">
      <defs>
       <path id="DejaVuSans-59" d="M -13 4666 
L 666 4666 
L 1959 2747 
L 3244 4666 
L 3922 4666 
L 2272 2222 
L 2272 0 
L 1638 0 
L 1638 2222 
L -13 4666 
z
" transform="scale(0.015625)"/>
       <path id="DejaVuSans-65" d="M 3597 1894 
L 3597 1613 
L 953 1613 
Q 991 1019 1311 708 
Q 1631 397 2203 397 
Q 2534 397 2845 478 
Q 3156 559 3463 722 
L 3463 178 
Q 3153 47 2828 -22 
Q 2503 -91 2169 -91 
Q 1331 -91 842 396 
Q 353 884 353 1716 
Q 353 2575 817 3079 
Q 1281 3584 2069 3584 
Q 2775 3584 3186 3129 
Q 3597 2675 3597 1894 
z
M 3022 2063 
Q 3016 2534 2758 2815 
Q 2500 3097 2075 3097 
Q 1594 3097 1305 2825 
Q 1016 2553 972 2059 
L 3022 2063 
z
" transform="scale(0.015625)"/>
       <path id="DejaVuSans-61" d="M 2194 1759 
Q 1497 1759 1228 1600 
Q 959 1441 959 1056 
Q 959 750 1161 570 
Q 1363 391 1709 391 
Q 2188 391 2477 730 
Q 2766 1069 2766 1631 
L 2766 1759 
L 2194 1759 
z
M 3341 1997 
L 3341 0 
L 2766 0 
L 2766 531 
Q 2569 213 2275 61 
Q 1981 -91 1556 -91 
Q 1019 -91 701 211 
Q 384 513 384 1019 
Q 384 1609 779 1909 
Q 1175 2209 1959 2209 
L 2766 2209 
L 2766 2266 
Q 2766 2663 2505 2880 
Q 2244 3097 1772 3097 
Q 1472 3097 1187 3025 
Q 903 2953 641 2809 
L 641 3341 
Q 956 3463 1253 3523 
Q 1550 3584 1831 3584 
Q 2591 3584 2966 3190 
Q 3341 2797 3341 1997 
z
" transform="scale(0.015625)"/>
       <path id="DejaVuSans-72" d="M 2631 2963 
Q 2534 3019 2420 3045 
Q 2306 3072 2169 3072 
Q 1681 3072 1420 2755 
Q 1159 2438 1159 1844 
L 1159 0 
L 581 0 
L 581 3500 
L 1159 3500 
L 1159 2956 
Q 1341 3275 1631 3429 
Q 1922 3584 2338 3584 
Q 2397 3584 2469 3576 
Q 2541 3569 2628 3553 
L 2631 2963 
z
" transform="scale(0.015625)"/>
      </defs>
      <use xlink:href="#DejaVuSans-59"/>
      <use xlink:href="#DejaVuSans-65" x="47.833984"/>
      <use xlink:href="#DejaVuSans-61" x="109.357422"/>
      <use xlink:href="#DejaVuSans-72" x="170.636719"/>
     </g>
    </g>
   </g>
   <g id="matplotlib.axis_2">
    <g id="ytick_1">
     <g id="line2d_9">
      <defs>
       <path id="m00b716060c" d="M 0 0 
L -3.5 0 
" style="stroke: #000000; stroke-width: 0.8"/>
      </defs>
      <g>
       <use xlink:href="#m00b716060c" x="81" y="314.100789" style="stroke: #000000; stroke-width: 0.8"/>
      </g>
     </g>
     <g id="text_10">
      <!-- 10 -->
      <g transform="translate(58.73 318.659852) scale(0.12 -0.12)">
       <use xlink:href="#DejaVuSans-31"/>
       <use xlink:href="#DejaVuSans-30" x="63.623047"/>
      </g>
     </g>
    </g>
    <g id="ytick_2">
     <g id="line2d_10">
      <g>
       <use xlink:href="#m00b716060c" x="81" y="277.249339" style="stroke: #000000; stroke-width: 0.8"/>
      </g>
     </g>
     <g id="text_11">
      <!-- 12 -->
      <g transform="translate(58.73 281.808402) scale(0.12 -0.12)">
       <use xlink:href="#DejaVuSans-31"/>
       <use xlink:href="#DejaVuSans-32" x="63.623047"/>
      </g>
     </g>
    </g>
    <g id="ytick_3">
     <g id="line2d_11">
      <g>
       <use xlink:href="#m00b716060c" x="81" y="240.397889" style="stroke: #000000; stroke-width: 0.8"/>
      </g>
     </g>
     <g id="text_12">
      <!-- 14 -->
      <g transform="translate(58.73 244.956951) scale(0.12 -0.12)">
       <defs>
        <path id="DejaVuSans-34" d="M 2419 4116 
L 825 1625 
L 2419 1625 
L 2419 4116 
z
M 2253 4666 
L 3047 4666 
L 3047 1625 
L 3713 1625 
L 3713 1100 
L 3047 1100 
L 3047 0 
L 2419 0 
L 2419 1100 
L 313 1100 
L 313 1709 
L 2253 4666 
z
" transform="scale(0.015625)"/>
       </defs>
       <use xlink:href="#DejaVuSans-31"/>
       <use xlink:href="#DejaVuSans-34" x="63.623047"/>
      </g>
     </g>
    </g>
    <g id="ytick_4">
     <g id="line2d_12">
      <g>
       <use xlink:href="#m00b716060c" x="81" y="203.546438" style="stroke: #000000; stroke-width: 0.8"/>
      </g>
     </g>
     <g id="text_13">
      <!-- 16 -->
      <g transform="translate(58.73 208.105501) scale(0.12 -0.12)">
       <defs>
        <path id="DejaVuSans-36" d="M 2113 2584 
Q 1688 2584 1439 2293 
Q 1191 2003 1191 1497 
Q 1191 994 1439 701 
Q 1688 409 2113 409 
Q 2538 409 2786 701 
Q 3034 994 3034 1497 
Q 3034 2003 2786 2293 
Q 2538 2584 2113 2584 
z
M 3366 4563 
L 3366 3988 
Q 3128 4100 2886 4159 
Q 2644 4219 2406 4219 
Q 1781 4219 1451 3797 
Q 1122 3375 1075 2522 
Q 1259 2794 1537 2939 
Q 1816 3084 2150 3084 
Q 2853 3084 3261 2657 
Q 3669 2231 3669 1497 
Q 3669 778 3244 343 
Q 2819 -91 2113 -91 
Q 1303 -91 875 529 
Q 447 1150 447 2328 
Q 447 3434 972 4092 
Q 1497 4750 2381 4750 
Q 2619 4750 2861 4703 
Q 3103 4656 3366 4563 
z
" transform="scale(0.015625)"/>
       </defs>
       <use xlink:href="#DejaVuSans-31"/>
       <use xlink:href="#DejaVuSans-36" x="63.623047"/>
      </g>
     </g>
    </g>
    <g id="ytick_5">
     <g id="line2d_13">
      <g>
       <use xlink:href="#m00b716060c" x="81" y="166.694988" style="stroke: #000000; stroke-width: 0.8"/>
      </g>
     </g>
     <g id="text_14">
      <!-- 18 -->
      <g transform="translate(58.73 171.254051) scale(0.12 -0.12)">
       <defs>
        <path id="DejaVuSans-38" d="M 2034 2216 
Q 1584 2216 1326 1975 
Q 1069 1734 1069 1313 
Q 1069 891 1326 650 
Q 1584 409 2034 409 
Q 2484 409 2743 651 
Q 3003 894 3003 1313 
Q 3003 1734 2745 1975 
Q 2488 2216 2034 2216 
z
M 1403 2484 
Q 997 2584 770 2862 
Q 544 3141 544 3541 
Q 544 4100 942 4425 
Q 1341 4750 2034 4750 
Q 2731 4750 3128 4425 
Q 3525 4100 3525 3541 
Q 3525 3141 3298 2862 
Q 3072 2584 2669 2484 
Q 3125 2378 3379 2068 
Q 3634 1759 3634 1313 
Q 3634 634 3220 271 
Q 2806 -91 2034 -91 
Q 1263 -91 848 271 
Q 434 634 434 1313 
Q 434 1759 690 2068 
Q 947 2378 1403 2484 
z
M 1172 3481 
Q 1172 3119 1398 2916 
Q 1625 2713 2034 2713 
Q 2441 2713 2670 2916 
Q 2900 3119 2900 3481 
Q 2900 3844 2670 4047 
Q 2441 4250 2034 4250 
Q 1625 4250 1398 4047 
Q 1172 3844 1172 3481 
z
" transform="scale(0.015625)"/>
       </defs>
       <use xlink:href="#DejaVuSans-31"/>
       <use xlink:href="#DejaVuSans-38" x="63.623047"/>
      </g>
     </g>
    </g>
    <g id="ytick_6">
     <g id="line2d_14">
      <g>
       <use xlink:href="#m00b716060c" x="81" y="129.843538" style="stroke: #000000; stroke-width: 0.8"/>
      </g>
     </g>
     <g id="text_15">
      <!-- 20 -->
      <g transform="translate(58.73 134.4026) scale(0.12 -0.12)">
       <use xlink:href="#DejaVuSans-32"/>
       <use xlink:href="#DejaVuSans-30" x="63.623047"/>
      </g>
     </g>
    </g>
    <g id="ytick_7">
     <g id="line2d_15">
      <g>
       <use xlink:href="#m00b716060c" x="81" y="92.992087" style="stroke: #000000; stroke-width: 0.8"/>
      </g>
     </g>
     <g id="text_16">
      <!-- 22 -->
      <g transform="translate(58.73 97.55115) scale(0.12 -0.12)">
       <use xlink:href="#DejaVuSans-32"/>
       <use xlink:href="#DejaVuSans-32" x="63.623047"/>
      </g>
     </g>
    </g>
    <g id="ytick_8">
     <g id="line2d_16">
      <g>
       <use xlink:href="#m00b716060c" x="81" y="56.140637" style="stroke: #000000; stroke-width: 0.8"/>
      </g>
     </g>
     <g id="text_17">
      <!-- 24 -->
      <g transform="translate(58.73 60.6997) scale(0.12 -0.12)">
       <use xlink:href="#DejaVuSans-32"/>
       <use xlink:href="#DejaVuSans-34" x="63.623047"/>
      </g>
     </g>
    </g>
    <g id="text_18">
     <!-- Total coral cover (%) -->
     <g transform="translate(51.610469 258.769922) rotate(-90) scale(0.15 -0.15)">
      <defs>
       <path id="DejaVuSans-54" d="M -19 4666 
L 3928 4666 
L 3928 4134 
L 2272 4134 
L 2272 0 
L 1638 0 
L 1638 4134 
L -19 4134 
L -19 4666 
z
" transform="scale(0.015625)"/>
       <path id="DejaVuSans-6f" d="M 1959 3097 
Q 1497 3097 1228 2736 
Q 959 2375 959 1747 
Q 959 1119 1226 758 
Q 1494 397 1959 397 
Q 2419 397 2687 759 
Q 2956 1122 2956 1747 
Q 2956 2369 2687 2733 
Q 2419 3097 1959 3097 
z
M 1959 3584 
Q 2709 3584 3137 3096 
Q 3566 2609 3566 1747 
Q 3566 888 3137 398 
Q 2709 -91 1959 -91 
Q 1206 -91 779 398 
Q 353 888 353 1747 
Q 353 2609 779 3096 
Q 1206 3584 1959 3584 
z
" transform="scale(0.015625)"/>
       <path id="DejaVuSans-74" d="M 1172 4494 
L 1172 3500 
L 2356 3500 
L 2356 3053 
L 1172 3053 
L 1172 1153 
Q 1172 725 1289 603 
Q 1406 481 1766 481 
L 2356 481 
L 2356 0 
L 1766 0 
Q 1100 0 847 248 
Q 594 497 594 1153 
L 594 3053 
L 172 3053 
L 172 3500 
L 594 3500 
L 594 4494 
L 1172 4494 
z
" transform="scale(0.015625)"/>
       <path id="DejaVuSans-6c" d="M 603 4863 
L 1178 4863 
L 1178 0 
L 603 0 
L 603 4863 
z
" transform="scale(0.015625)"/>
       <path id="DejaVuSans-20" transform="scale(0.015625)"/>
       <path id="DejaVuSans-63" d="M 3122 3366 
L 3122 2828 
Q 2878 2963 2633 3030 
Q 2388 3097 2138 3097 
Q 1578 3097 1268 2742 
Q 959 2388 959 1747 
Q 959 1106 1268 751 
Q 1578 397 2138 397 
Q 2388 397 2633 464 
Q 2878 531 3122 666 
L 3122 134 
Q 2881 22 2623 -34 
Q 2366 -91 2075 -91 
Q 1284 -91 818 406 
Q 353 903 353 1747 
Q 353 2603 823 3093 
Q 1294 3584 2113 3584 
Q 2378 3584 2631 3529 
Q 2884 3475 3122 3366 
z
" transform="scale(0.015625)"/>
       <path id="DejaVuSans-76" d="M 191 3500 
L 800 3500 
L 1894 563 
L 2988 3500 
L 3597 3500 
L 2284 0 
L 1503 0 
L 191 3500 
z
" transform="scale(0.015625)"/>
       <path id="DejaVuSans-28" d="M 1984 4856 
Q 1566 4138 1362 3434 
Q 1159 2731 1159 2009 
Q 1159 1288 1364 580 
Q 1569 -128 1984 -844 
L 1484 -844 
Q 1016 -109 783 600 
Q 550 1309 550 2009 
Q 550 2706 781 3412 
Q 1013 4119 1484 4856 
L 1984 4856 
z
" transform="scale(0.015625)"/>
       <path id="DejaVuSans-25" d="M 4653 2053 
Q 4381 2053 4226 1822 
Q 4072 1591 4072 1178 
Q 4072 772 4226 539 
Q 4381 306 4653 306 
Q 4919 306 5073 539 
Q 5228 772 5228 1178 
Q 5228 1588 5073 1820 
Q 4919 2053 4653 2053 
z
M 4653 2450 
Q 5147 2450 5437 2106 
Q 5728 1763 5728 1178 
Q 5728 594 5436 251 
Q 5144 -91 4653 -91 
Q 4153 -91 3862 251 
Q 3572 594 3572 1178 
Q 3572 1766 3864 2108 
Q 4156 2450 4653 2450 
z
M 1428 4353 
Q 1159 4353 1004 4120 
Q 850 3888 850 3481 
Q 850 3069 1003 2837 
Q 1156 2606 1428 2606 
Q 1700 2606 1854 2837 
Q 2009 3069 2009 3481 
Q 2009 3884 1853 4118 
Q 1697 4353 1428 4353 
z
M 4250 4750 
L 4750 4750 
L 1831 -91 
L 1331 -91 
L 4250 4750 
z
M 1428 4750 
Q 1922 4750 2215 4408 
Q 2509 4066 2509 3481 
Q 2509 2891 2217 2550 
Q 1925 2209 1428 2209 
Q 931 2209 642 2551 
Q 353 2894 353 3481 
Q 353 4063 643 4406 
Q 934 4750 1428 4750 
z
" transform="scale(0.015625)"/>
       <path id="DejaVuSans-29" d="M 513 4856 
L 1013 4856 
Q 1481 4119 1714 3412 
Q 1947 2706 1947 2009 
Q 1947 1309 1714 600 
Q 1481 -109 1013 -844 
L 513 -844 
Q 928 -128 1133 580 
Q 1338 1288 1338 2009 
Q 1338 2731 1133 3434 
Q 928 4138 513 4856 
z
" transform="scale(0.015625)"/>
      </defs>
      <use xlink:href="#DejaVuSans-54"/>
      <use xlink:href="#DejaVuSans-6f" x="44.083984"/>
      <use xlink:href="#DejaVuSans-74" x="105.265625"/>
      <use xlink:href="#DejaVuSans-61" x="144.474609"/>
      <use xlink:href="#DejaVuSans-6c" x="205.753906"/>
      <use xlink:href="#DejaVuSans-20" x="233.537109"/>
      <use xlink:href="#DejaVuSans-63" x="265.324219"/>
      <use xlink:href="#DejaVuSans-6f" x="320.304688"/>
      <use xlink:href="#DejaVuSans-72" x="381.486328"/>
      <use xlink:href="#DejaVuSans-61" x="422.599609"/>
      <use xlink:href="#DejaVuSans-6c" x="483.878906"/>
      <use xlink:href="#DejaVuSans-20" x="511.662109"/>
      <use xlink:href="#DejaVuSans-63" x="543.449219"/>
      <use xlink:href="#DejaVuSans-6f" x="598.429688"/>
      <use xlink:href="#DejaVuSans-76" x="659.611328"/>
      <use xlink:href="#DejaVuSans-65" x="718.791016"/>
      <use xlink:href="#DejaVuSans-72" x="780.314453"/>
      <use xlink:href="#DejaVuSans-20" x="821.427734"/>
      <use xlink:href="#DejaVuSans-28" x="853.214844"/>
      <use xlink:href="#DejaVuSans-25" x="892.228516"/>
      <use xlink:href="#DejaVuSans-29" x="987.248047"/>
     </g>
    </g>
   </g>
   <g id="line2d_17">
    <path d="M 103.827273 168.537561 
L 127.855981 161.60038 
L 151.884689 293.211919 
L 175.913397 279.401368 
L 199.942105 261.709374 
L 223.970813 241.151016 
L 247.999522 218.885883 
L 272.02823 194.184765 
L 296.056938 266.554509 
L 320.085646 266.998966 
L 344.114354 239.461633 
L 368.143062 260.002162 
L 392.17177 230.781971 
L 416.200478 218.169308 
L 440.229187 181.53101 
L 464.257895 251.837867 
L 488.286603 277.767051 
L 512.315311 236.288931 
L 536.344019 191.596322 
L 560.372727 147.357938 
" clip-path="url(#pbb1791d917)" style="fill: none; stroke-dasharray: 3.7,1.6; stroke-dashoffset: 0; stroke: #1f77b4; stroke-opacity: 0.6"/>
   </g>
   <g id="line2d_18">
    <path d="M 103.827273 168.537561 
L 127.855981 161.645061 
L 151.884689 292.98651 
L 175.913397 276.685877 
L 199.942105 256.514017 
L 223.970813 233.84039 
L 247.999522 206.482924 
L 272.02823 176.346687 
L 296.056938 253.476768 
L 320.085646 249.161358 
L 344.114354 216.778775 
L 368.143062 236.467654 
L 392.17177 203.398036 
L 416.200478 188.221199 
L 440.229187 148.889388 
L 464.257895 228.507589 
L 488.286603 256.479792 
L 512.315311 213.509475 
L 536.344019 167.499776 
L 560.372727 121.785839 
" clip-path="url(#pbb1791d917)" style="fill: none; stroke-dasharray: 3.7,1.6; stroke-dashoffset: 0; stroke: #ff7f0e; stroke-opacity: 0.6"/>
   </g>
   <g id="line2d_19">
    <path d="M 103.827273 168.537561 
L 127.855981 159.193765 
L 151.884689 288.891502 
L 175.913397 270.753252 
L 199.942105 248.148882 
L 223.970813 223.57804 
L 247.999522 196.129278 
L 272.02823 167.750222 
L 296.056938 250.193178 
L 320.085646 247.821113 
L 344.114354 218.006142 
L 368.143062 239.587536 
L 392.17177 208.321793 
L 416.200478 195.329253 
L 440.229187 156.287958 
L 464.257895 232.650426 
L 488.286603 259.136403 
L 512.315311 214.186924 
L 536.344019 166.489844 
L 560.372727 119.013274 
" clip-path="url(#pbb1791d917)" style="fill: none; stroke-dasharray: 3.7,1.6; stroke-dashoffset: 0; stroke: #2ca02c; stroke-opacity: 0.6"/>
   </g>
   <g id="line2d_20">
    <path d="M 103.827273 168.537561 
L 127.855981 160.570912 
L 151.884689 293.205018 
L 175.913397 277.578705 
L 199.942105 258.771244 
L 223.970813 236.212437 
L 247.999522 209.32404 
L 272.02823 180.653835 
L 296.056938 258.385692 
L 320.085646 255.131045 
L 344.114354 225.391687 
L 368.143062 246.743707 
L 392.17177 215.676406 
L 416.200478 202.162529 
L 440.229187 163.593548 
L 464.257895 242.615703 
L 488.286603 271.746352 
L 512.315311 229.99472 
L 536.344019 187.337712 
L 560.372727 142.178939 
" clip-path="url(#pbb1791d917)" style="fill: none; stroke-dasharray: 3.7,1.6; stroke-dashoffset: 0; stroke: #d62728; stroke-opacity: 0.6"/>
   </g>
   <g id="line2d_21">
    <path d="M 103.827273 168.537561 
L 127.855981 161.615395 
L 151.884689 294.63953 
L 175.913397 277.210408 
L 199.942105 253.56607 
L 223.970813 225.126262 
L 247.999522 194.05712 
L 272.02823 159.509354 
L 296.056938 244.671384 
L 320.085646 236.595547 
L 344.114354 200.354854 
L 368.143062 220.470282 
L 392.17177 183.31535 
L 416.200478 166.48098 
L 440.229187 122.447549 
L 464.257895 210.62747 
L 488.286603 237.887854 
L 512.315311 189.66582 
L 536.344019 138.971686 
L 560.372727 89.815695 
" clip-path="url(#pbb1791d917)" style="fill: none; stroke-dasharray: 3.7,1.6; stroke-dashoffset: 0; stroke: #9467bd; stroke-opacity: 0.6"/>
   </g>
   <g id="line2d_22">
    <path d="M 103.827273 168.537561 
L 127.855981 162.036697 
L 151.884689 293.632536 
L 175.913397 278.808755 
L 199.942105 259.860535 
L 223.970813 237.789046 
L 247.999522 212.987984 
L 272.02823 184.908156 
L 296.056938 260.022422 
L 320.085646 257.227789 
L 344.114354 226.932544 
L 368.143062 247.313343 
L 392.17177 215.747498 
L 416.200478 201.764743 
L 440.229187 163.181833 
L 464.257895 241.12206 
L 488.286603 268.634611 
L 512.315311 226.700457 
L 536.344019 181.129245 
L 560.372727 134.045577 
" clip-path="url(#pbb1791d917)" style="fill: none; stroke-dasharray: 3.7,1.6; stroke-dashoffset: 0; stroke: #8c564b; stroke-opacity: 0.6"/>
   </g>
   <g id="line2d_23">
    <path d="M 103.827273 168.537561 
L 127.855981 159.188519 
L 151.884689 290.3799 
L 175.913397 270.279506 
L 199.942105 246.24008 
L 223.970813 218.313896 
L 247.999522 186.794663 
L 272.02823 152.539973 
L 296.056938 241.675416 
L 320.085646 233.394082 
L 344.114354 196.275149 
L 368.143062 217.731725 
L 392.17177 179.539728 
L 416.200478 162.334887 
L 440.229187 119.153648 
L 464.257895 213.163787 
L 488.286603 244.109346 
L 512.315311 196.223232 
L 536.344019 146.331002 
L 560.372727 94.750668 
" clip-path="url(#pbb1791d917)" style="fill: none; stroke-dasharray: 3.7,1.6; stroke-dashoffset: 0; stroke: #e377c2; stroke-opacity: 0.6"/>
   </g>
   <g id="line2d_24">
    <path d="M 103.827273 168.537561 
L 127.855981 160.995109 
L 151.884689 291.553316 
L 175.913397 274.600193 
L 199.942105 253.341992 
L 223.970813 228.763649 
L 247.999522 200.832485 
L 272.02823 171.142727 
L 296.056938 253.962107 
L 320.085646 249.941916 
L 344.114354 218.267715 
L 368.143062 240.604884 
L 392.17177 208.04792 
L 416.200478 194.866707 
L 440.229187 155.075605 
L 464.257895 237.396003 
L 488.286603 266.676975 
L 512.315311 224.950668 
L 536.344019 180.535731 
L 560.372727 135.940081 
" clip-path="url(#pbb1791d917)" style="fill: none; stroke-dasharray: 3.7,1.6; stroke-dashoffset: 0; stroke: #7f7f7f; stroke-opacity: 0.6"/>
   </g>
   <g id="line2d_25">
    <path d="M 103.827273 168.537561 
L 127.855981 159.522811 
L 151.884689 291.260746 
L 175.913397 272.782535 
L 199.942105 250.368357 
L 223.970813 223.248034 
L 247.999522 193.68289 
L 272.02823 161.159561 
L 296.056938 246.185468 
L 320.085646 240.01734 
L 344.114354 206.347515 
L 368.143062 228.057524 
L 392.17177 192.986312 
L 416.200478 177.266612 
L 440.229187 135.579016 
L 464.257895 221.691136 
L 488.286603 249.567646 
L 512.315311 203.307046 
L 536.344019 155.40628 
L 560.372727 108.702851 
" clip-path="url(#pbb1791d917)" style="fill: none; stroke-dasharray: 3.7,1.6; stroke-dashoffset: 0; stroke: #bcbd22; stroke-opacity: 0.6"/>
   </g>
   <g id="line2d_26">
    <path d="M 103.827273 168.537561 
L 127.855981 159.397452 
L 151.884689 288.06493 
L 175.913397 266.191623 
L 199.942105 238.02714 
L 223.970813 204.905355 
L 247.999522 169.557699 
L 272.02823 131.553305 
L 296.056938 228.105461 
L 320.085646 217.356189 
L 344.114354 178.271479 
L 368.143062 201.488518 
L 392.17177 162.887699 
L 416.200478 146.616453 
L 440.229187 101.712378 
L 464.257895 199.689344 
L 488.286603 230.701473 
L 512.315311 180.879611 
L 536.344019 128.819183 
L 560.372727 77.134292 
" clip-path="url(#pbb1791d917)" style="fill: none; stroke-dasharray: 3.7,1.6; stroke-dashoffset: 0; stroke: #17becf; stroke-opacity: 0.6"/>
   </g>
   <g id="line2d_27">
    <path d="M 103.827273 168.537561 
L 127.855981 161.420753 
L 151.884689 292.794654 
L 175.913397 276.061063 
L 199.942105 255.602652 
L 223.970813 230.434313 
L 247.999522 204.140699 
L 272.02823 174.142446 
L 296.056938 254.720234 
L 320.085646 251.593841 
L 344.114354 219.259557 
L 368.143062 239.245827 
L 392.17177 205.498217 
L 416.200478 189.968636 
L 440.229187 149.330227 
L 464.257895 229.226643 
L 488.286603 256.300887 
L 512.315311 210.759885 
L 536.344019 164.688862 
L 560.372727 118.019984 
" clip-path="url(#pbb1791d917)" style="fill: none; stroke-dasharray: 3.7,1.6; stroke-dashoffset: 0; stroke: #1f77b4; stroke-opacity: 0.6"/>
   </g>
   <g id="line2d_28">
    <path d="M 103.827273 168.537561 
L 127.855981 161.550634 
L 151.884689 291.810729 
L 175.913397 274.819649 
L 199.942105 252.942274 
L 223.970813 226.828855 
L 247.999522 199.172792 
L 272.02823 169.06923 
L 296.056938 253.517107 
L 320.085646 250.446972 
L 344.114354 220.286674 
L 368.143062 243.475312 
L 392.17177 212.700336 
L 416.200478 199.691696 
L 440.229187 161.178611 
L 464.257895 240.010104 
L 488.286603 267.334344 
L 512.315311 223.885744 
L 536.344019 178.3527 
L 560.372727 133.114876 
" clip-path="url(#pbb1791d917)" style="fill: none; stroke-dasharray: 3.7,1.6; stroke-dashoffset: 0; stroke: #ff7f0e; stroke-opacity: 0.6"/>
   </g>
   <g id="line2d_29">
    <path d="M 103.827273 168.537561 
L 127.855981 159.601319 
L 151.884689 290.707004 
L 175.913397 272.18166 
L 199.942105 248.637593 
L 223.970813 221.551351 
L 247.999522 192.284639 
L 272.02823 160.396843 
L 296.056938 247.689784 
L 320.085646 242.499569 
L 344.114354 208.192454 
L 368.143062 230.456904 
L 392.17177 195.593539 
L 416.200478 181.063037 
L 440.229187 140.868361 
L 464.257895 227.992764 
L 488.286603 258.581239 
L 512.315311 214.7647 
L 536.344019 167.469024 
L 560.372727 119.464243 
" clip-path="url(#pbb1791d917)" style="fill: none; stroke-dasharray: 3.7,1.6; stroke-dashoffset: 0; stroke: #2ca02c; stroke-opacity: 0.6"/>
   </g>
   <g id="line2d_30">
    <path d="M 103.827273 168.537561 
L 127.855981 161.130779 
L 151.884689 292.196713 
L 175.913397 275.192986 
L 199.942105 254.563223 
L 223.970813 230.501514 
L 247.999522 203.557866 
L 272.02823 173.98864 
L 296.056938 255.65817 
L 320.085646 252.811259 
L 344.114354 222.303282 
L 368.143062 244.081127 
L 392.17177 212.025963 
L 416.200478 198.571781 
L 440.229187 158.360823 
L 464.257895 237.117969 
L 488.286603 264.039719 
L 512.315311 218.576139 
L 536.344019 171.989207 
L 560.372727 124.79248 
" clip-path="url(#pbb1791d917)" style="fill: none; stroke-dasharray: 3.7,1.6; stroke-dashoffset: 0; stroke: #d62728; stroke-opacity: 0.6"/>
   </g>
   <g id="line2d_31">
    <path d="M 103.827273 168.537561 
L 127.855981 159.915352 
L 151.884689 292.14899 
L 175.913397 276.219495 
L 199.942105 257.298345 
L 223.970813 232.933058 
L 247.999522 206.796689 
L 272.02823 177.589474 
L 296.056938 255.172289 
L 320.085646 252.696572 
L 344.114354 221.952528 
L 368.143062 241.95146 
L 392.17177 209.302421 
L 416.200478 194.834869 
L 440.229187 157.107046 
L 464.257895 233.878517 
L 488.286603 261.39559 
L 512.315311 220.169997 
L 536.344019 175.755242 
L 560.372727 131.670979 
" clip-path="url(#pbb1791d917)" style="fill: none; stroke-dasharray: 3.7,1.6; stroke-dashoffset: 0; stroke: #9467bd; stroke-opacity: 0.6"/>
   </g>
   <g id="line2d_32">
    <path d="M 103.827273 168.537561 
L 127.855981 159.007806 
L 151.884689 288.792794 
L 175.913397 268.164773 
L 199.942105 242.149114 
L 223.970813 210.593456 
L 247.999522 177.216079 
L 272.02823 142.138823 
L 296.056938 236.752201 
L 320.085646 228.709467 
L 344.114354 191.036274 
L 368.143062 212.638832 
L 392.17177 173.232311 
L 416.200478 155.047205 
L 440.229187 110.218744 
L 464.257895 204.920441 
L 488.286603 234.351374 
L 512.315311 185.213653 
L 536.344019 134.234068 
L 560.372727 84.340753 
" clip-path="url(#pbb1791d917)" style="fill: none; stroke-dasharray: 3.7,1.6; stroke-dashoffset: 0; stroke: #8c564b; stroke-opacity: 0.6"/>
   </g>
   <g id="line2d_33">
    <path d="M 103.827273 168.537561 
L 127.855981 159.036206 
L 151.884689 287.943849 
L 175.913397 265.725107 
L 199.942105 238.058878 
L 223.970813 206.278447 
L 247.999522 172.66832 
L 272.02823 136.552249 
L 296.056938 234.358791 
L 320.085646 227.171686 
L 344.114354 191.669946 
L 368.143062 216.153786 
L 392.17177 180.888655 
L 416.200478 166.606159 
L 440.229187 126.345094 
L 464.257895 218.20603 
L 488.286603 249.954217 
L 512.315311 206.043432 
L 536.344019 158.973512 
L 560.372727 111.916616 
" clip-path="url(#pbb1791d917)" style="fill: none; stroke-dasharray: 3.7,1.6; stroke-dashoffset: 0; stroke: #e377c2; stroke-opacity: 0.6"/>
   </g>
   <g id="line2d_34">
    <path d="M 103.827273 168.537561 
L 127.855981 162.110864 
L 151.884689 294.745373 
L 175.913397 279.46556 
L 199.942105 261.20703 
L 223.970813 238.376996 
L 247.999522 212.241179 
L 272.02823 184.389294 
L 296.056938 259.014661 
L 320.085646 256.415574 
L 344.114354 226.535481 
L 368.143062 246.057757 
L 392.17177 214.347015 
L 416.200478 199.945852 
L 440.229187 161.586528 
L 464.257895 238.484986 
L 488.286603 265.99229 
L 512.315311 224.122715 
L 536.344019 179.834947 
L 560.372727 135.669644 
" clip-path="url(#pbb1791d917)" style="fill: none; stroke-dasharray: 3.7,1.6; stroke-dashoffset: 0; stroke: #7f7f7f; stroke-opacity: 0.6"/>
   </g>
   <g id="line2d_35">
    <path d="M 103.827273 168.537561 
L 127.855981 160.788889 
L 151.884689 293.285264 
L 175.913397 277.368386 
L 199.942105 258.182047 
L 223.970813 236.93812 
L 247.999522 212.616943 
L 272.02823 184.266421 
L 296.056938 262.344018 
L 320.085646 259.34226 
L 344.114354 227.223602 
L 368.143062 248.146541 
L 392.17177 215.354957 
L 416.200478 201.358636 
L 440.229187 161.371264 
L 464.257895 241.743613 
L 488.286603 269.187966 
L 512.315311 224.343949 
L 536.344019 176.698424 
L 560.372727 127.76656 
" clip-path="url(#pbb1791d917)" style="fill: none; stroke-dasharray: 3.7,1.6; stroke-dashoffset: 0; stroke: #bcbd22; stroke-opacity: 0.6"/>
   </g>
   <g id="line2d_36">
    <path d="M 103.827273 168.537561 
L 127.855981 162.511906 
L 151.884689 297.300552 
L 175.913397 285.70104 
L 199.942105 271.776488 
L 223.970813 255.967321 
L 247.999522 237.347673 
L 272.02823 215.655924 
L 296.056938 281.641261 
L 320.085646 285.052924 
L 344.114354 262.141959 
L 368.143062 283.452373 
L 392.17177 259.000551 
L 416.200478 249.651942 
L 440.229187 217.843337 
L 464.257895 281.002524 
L 488.286603 307.8 
L 512.315311 272.146671 
L 536.344019 233.936584 
L 560.372727 193.933655 
" clip-path="url(#pbb1791d917)" style="fill: none; stroke-dasharray: 3.7,1.6; stroke-dashoffset: 0; stroke: #17becf; stroke-opacity: 0.6"/>
   </g>
   <g id="line2d_37">
    <path d="M 103.827273 168.537561 
L 127.855981 162.016618 
L 151.884689 296.815375 
L 175.913397 283.162793 
L 199.942105 267.045407 
L 223.970813 248.88157 
L 247.999522 228.221603 
L 272.02823 205.184219 
L 296.056938 274.771083 
L 320.085646 276.737764 
L 344.114354 252.171436 
L 368.143062 273.426135 
L 392.17177 246.142054 
L 416.200478 234.270695 
L 440.229187 198.729701 
L 464.257895 264.701068 
L 488.286603 289.019752 
L 512.315311 249.071453 
L 536.344019 206.214558 
L 560.372727 162.967293 
" clip-path="url(#pbb1791d917)" style="fill: none; stroke-dasharray: 3.7,1.6; stroke-dashoffset: 0; stroke: #1f77b4; stroke-opacity: 0.6"/>
   </g>
   <g id="line2d_38">
    <path d="M 103.827273 168.537561 
L 127.855981 160.878251 
L 151.884689 293.129847 
L 175.913397 277.023462 
L 199.942105 257.255735 
L 223.970813 233.767441 
L 247.999522 207.811225 
L 272.02823 179.559243 
L 296.056938 257.786933 
L 320.085646 255.555965 
L 344.114354 226.235559 
L 368.143062 247.184908 
L 392.17177 216.752184 
L 416.200478 203.725093 
L 440.229187 166.249798 
L 464.257895 243.014575 
L 488.286603 271.527651 
L 512.315311 230.07377 
L 536.344019 186.119752 
L 560.372727 140.739564 
" clip-path="url(#pbb1791d917)" style="fill: none; stroke-dasharray: 3.7,1.6; stroke-dashoffset: 0; stroke: #ff7f0e; stroke-opacity: 0.6"/>
   </g>
   <g id="line2d_39">
    <path d="M 103.827273 168.537561 
L 127.855981 159.37285 
L 151.884689 288.269168 
L 175.913397 267.826252 
L 199.942105 242.664235 
L 223.970813 214.536458 
L 247.999522 184.837456 
L 272.02823 153.233984 
L 296.056938 241.785037 
L 320.085646 237.784925 
L 344.114354 206.320923 
L 368.143062 230.012628 
L 392.17177 198.976622 
L 416.200478 186.697347 
L 440.229187 148.429916 
L 464.257895 230.542829 
L 488.286603 260.256318 
L 512.315311 217.316573 
L 536.344019 173.22598 
L 560.372727 128.447084 
" clip-path="url(#pbb1791d917)" style="fill: none; stroke-dasharray: 3.7,1.6; stroke-dashoffset: 0; stroke: #2ca02c; stroke-opacity: 0.6"/>
   </g>
   <g id="line2d_40">
    <path d="M 103.827273 168.537561 
L 127.855981 159.176218 
L 151.884689 289.842106 
L 175.913397 271.807418 
L 199.942105 250.272623 
L 223.970813 224.34276 
L 247.999522 195.844045 
L 272.02823 164.834391 
L 296.056938 249.63114 
L 320.085646 246.054682 
L 344.114354 215.637695 
L 368.143062 237.89708 
L 392.17177 206.867766 
L 416.200478 193.858946 
L 440.229187 155.840787 
L 464.257895 236.229598 
L 488.286603 266.067 
L 512.315311 225.400732 
L 536.344019 180.052924 
L 560.372727 133.067482 
" clip-path="url(#pbb1791d917)" style="fill: none; stroke-dasharray: 3.7,1.6; stroke-dashoffset: 0; stroke: #d62728; stroke-opacity: 0.6"/>
   </g>
   <g id="line2d_41">
    <path d="M 103.827273 168.537561 
L 127.855981 158.512698 
L 151.884689 286.044268 
L 175.913397 263.731289 
L 199.942105 237.465204 
L 223.970813 207.989868 
L 247.999522 175.831987 
L 272.02823 141.083199 
L 296.056938 235.031898 
L 320.085646 227.409381 
L 344.114354 191.003713 
L 368.143062 213.215703 
L 392.17177 175.969782 
L 416.200478 159.766371 
L 440.229187 115.15643 
L 464.257895 206.941209 
L 488.286603 235.574761 
L 512.315311 186.412439 
L 536.344019 135.522035 
L 560.372727 84.90876 
" clip-path="url(#pbb1791d917)" style="fill: none; stroke-dasharray: 3.7,1.6; stroke-dashoffset: 0; stroke: #9467bd; stroke-opacity: 0.6"/>
   </g>
   <g id="line2d_42">
    <path d="M 103.827273 168.537561 
L 127.855981 159.620675 
L 151.884689 288.266555 
L 175.913397 266.815686 
L 199.942105 240.356795 
L 223.970813 210.386949 
L 247.999522 176.534598 
L 272.02823 140.903401 
L 296.056938 235.875588 
L 320.085646 227.042889 
L 344.114354 188.976251 
L 368.143062 211.526876 
L 392.17177 172.742812 
L 416.200478 155.239495 
L 440.229187 110.59012 
L 464.257895 205.489172 
L 488.286603 234.151486 
L 512.315311 183.126497 
L 536.344019 127.823904 
L 560.372727 72.918735 
" clip-path="url(#pbb1791d917)" style="fill: none; stroke-dasharray: 3.7,1.6; stroke-dashoffset: 0; stroke: #8c564b; stroke-opacity: 0.6"/>
   </g>
   <g id="line2d_43">
    <path d="M 103.827273 168.537561 
L 127.855981 160.785633 
L 151.884689 291.158854 
L 175.913397 273.624898 
L 199.942105 251.871403 
L 223.970813 226.450958 
L 247.999522 197.310469 
L 272.02823 165.183729 
L 296.056938 249.171126 
L 320.085646 244.624714 
L 344.114354 212.311775 
L 368.143062 234.072073 
L 392.17177 201.004264 
L 416.200478 186.223404 
L 440.229187 146.048264 
L 464.257895 228.16787 
L 488.286603 255.714067 
L 512.315311 211.577164 
L 536.344019 164.647256 
L 560.372727 117.270902 
" clip-path="url(#pbb1791d917)" style="fill: none; stroke-dasharray: 3.7,1.6; stroke-dashoffset: 0; stroke: #e377c2; stroke-opacity: 0.6"/>
   </g>
   <g id="line2d_44">
    <path d="M 103.827273 168.537561 
L 127.855981 161.689742 
L 151.884689 293.775917 
L 175.913397 278.23719 
L 199.942105 260.740774 
L 223.970813 239.421058 
L 247.999522 215.566578 
L 272.02823 188.370716 
L 296.056938 261.2601 
L 320.085646 259.286726 
L 344.114354 230.870971 
L 368.143062 251.380205 
L 392.17177 220.400095 
L 416.200478 206.903403 
L 440.229187 168.561082 
L 464.257895 241.755552 
L 488.286603 267.269222 
L 512.315311 224.739383 
L 536.344019 180.119313 
L 560.372727 133.231191 
" clip-path="url(#pbb1791d917)" style="fill: none; stroke-dasharray: 3.7,1.6; stroke-dashoffset: 0; stroke: #7f7f7f; stroke-opacity: 0.6"/>
   </g>
   <g id="line2d_45">
    <path d="M 103.827273 168.537561 
L 127.855981 159.886047 
L 151.884689 291.042108 
L 175.913397 272.806202 
L 199.942105 248.429849 
L 223.970813 218.569471 
L 247.999522 186.020571 
L 272.02823 149.731902 
L 296.056938 238.983168 
L 320.085646 228.800457 
L 344.114354 189.190068 
L 368.143062 209.783961 
L 392.17177 170.010768 
L 416.200478 151.412861 
L 440.229187 105.439702 
L 464.257895 201.324989 
L 488.286603 230.315807 
L 512.315311 178.252304 
L 536.344019 124.710354 
L 560.372727 71.84947 
" clip-path="url(#pbb1791d917)" style="fill: none; stroke-dasharray: 3.7,1.6; stroke-dashoffset: 0; stroke: #bcbd22; stroke-opacity: 0.6"/>
   </g>
   <g id="line2d_46">
    <path d="M 103.827273 168.537561 
L 127.855981 159.13407 
L 151.884689 289.100092 
L 175.913397 267.752503 
L 199.942105 242.220018 
L 223.970813 212.320046 
L 247.999522 180.182501 
L 272.02823 145.95559 
L 296.056938 240.291033 
L 320.085646 234.469136 
L 344.114354 199.344018 
L 368.143062 222.44854 
L 392.17177 185.844793 
L 416.200478 169.718443 
L 440.229187 126.359566 
L 464.257895 216.618684 
L 488.286603 246.524102 
L 512.315311 197.966328 
L 536.344019 146.438272 
L 560.372727 95.968628 
" clip-path="url(#pbb1791d917)" style="fill: none; stroke-dasharray: 3.7,1.6; stroke-dashoffset: 0; stroke: #17becf; stroke-opacity: 0.6"/>
   </g>
   <g id="line2d_47">
    <path d="M 103.827273 168.537561 
L 127.855981 162.555321 
L 151.884689 295.733814 
L 175.913397 280.795754 
L 199.942105 262.544032 
L 223.970813 241.933042 
L 247.999522 218.235954 
L 272.02823 193.660286 
L 296.056938 267.04021 
L 320.085646 268.465475 
L 344.114354 242.007175 
L 368.143062 262.600887 
L 392.17177 234.309587 
L 416.200478 221.928108 
L 440.229187 185.342269 
L 464.257895 253.719528 
L 488.286603 279.473064 
L 512.315311 239.143079 
L 536.344019 196.260134 
L 560.372727 153.036566 
" clip-path="url(#pbb1791d917)" style="fill: none; stroke-dasharray: 3.7,1.6; stroke-dashoffset: 0; stroke: #1f77b4; stroke-opacity: 0.6"/>
   </g>
   <g id="line2d_48">
    <path d="M 103.827273 168.537561 
L 127.855981 161.802258 
L 151.884689 294.949884 
L 175.913397 279.080272 
L 199.942105 257.525152 
L 223.970813 232.564013 
L 247.999522 204.717361 
L 272.02823 174.100005 
L 296.056938 255.936928 
L 320.085646 251.746877 
L 344.114354 220.343837 
L 368.143062 241.917633 
L 392.17177 210.133086 
L 416.200478 196.933061 
L 440.229187 158.547506 
L 464.257895 240.237126 
L 488.286603 269.646352 
L 512.315311 226.844448 
L 536.344019 180.606822 
L 560.372727 135.214153 
" clip-path="url(#pbb1791d917)" style="fill: none; stroke-dasharray: 3.7,1.6; stroke-dashoffset: 0; stroke: #ff7f0e; stroke-opacity: 0.6"/>
   </g>
   <g id="line2d_49">
    <path d="M 103.827273 168.537561 
L 127.855981 161.861411 
L 151.884689 294.840604 
L 175.913397 279.724648 
L 199.942105 261.149241 
L 223.970813 238.800048 
L 247.999522 215.038398 
L 272.02823 188.498292 
L 296.056938 263.581876 
L 320.085646 263.013145 
L 344.114354 236.179128 
L 368.143062 258.136782 
L 392.17177 230.676329 
L 416.200478 219.901731 
L 440.229187 186.049927 
L 464.257895 258.804824 
L 488.286603 288.606047 
L 512.315311 250.780541 
L 536.344019 211.338203 
L 560.372727 171.681506 
" clip-path="url(#pbb1791d917)" style="fill: none; stroke-dasharray: 3.7,1.6; stroke-dashoffset: 0; stroke: #2ca02c; stroke-opacity: 0.6"/>
   </g>
   <g id="line2d_50">
    <path d="M 103.827273 168.537561 
L 127.855981 162.252866 
L 151.884689 295.698458 
L 175.913397 283.230357 
L 199.942105 266.936805 
L 223.970813 248.424673 
L 247.999522 226.255463 
L 272.02823 200.93701 
L 296.056938 271.229357 
L 320.085646 271.559127 
L 344.114354 244.857886 
L 368.143062 265.36712 
L 392.17177 236.596089 
L 416.200478 224.60118 
L 440.229187 189.619873 
L 464.257895 259.248557 
L 488.286603 286.140641 
L 512.315311 247.540003 
L 536.344019 206.842622 
L 560.372727 163.299595 
" clip-path="url(#pbb1791d917)" style="fill: none; stroke-dasharray: 3.7,1.6; stroke-dashoffset: 0; stroke: #d62728; stroke-opacity: 0.6"/>
   </g>
   <g id="line2d_51">
    <path d="M 103.827273 168.537561 
L 127.855981 161.347129 
L 151.884689 294.423992 
L 175.913397 279.248747 
L 199.942105 261.943521 
L 223.970813 242.226686 
L 247.999522 217.924005 
L 272.02823 190.155943 
L 296.056938 263.684443 
L 320.085646 262.135808 
L 344.114354 233.248824 
L 368.143062 254.118942 
L 392.17177 223.886648 
L 416.200478 211.246671 
L 440.229187 174.541804 
L 464.257895 248.62175 
L 488.286603 276.006771 
L 512.315311 234.993729 
L 536.344019 190.213929 
L 560.372727 143.611259 
" clip-path="url(#pbb1791d917)" style="fill: none; stroke-dasharray: 3.7,1.6; stroke-dashoffset: 0; stroke: #9467bd; stroke-opacity: 0.6"/>
   </g>
   <g id="line2d_52">
    <path d="M 103.827273 168.537561 
L 127.855981 161.172747 
L 151.884689 294.140045 
L 175.913397 280.222702 
L 199.942105 261.133372 
L 223.970813 241.013568 
L 247.999522 218.655494 
L 272.02823 192.427189 
L 296.056938 266.159979 
L 320.085646 267.566974 
L 344.114354 242.749927 
L 368.143062 265.61784 
L 392.17177 239.809674 
L 416.200478 230.502128 
L 440.229187 197.967413 
L 464.257895 265.216255 
L 488.286603 292.352545 
L 512.315311 254.922112 
L 536.344019 215.169541 
L 560.372727 174.507253 
" clip-path="url(#pbb1791d917)" style="fill: none; stroke-dasharray: 3.7,1.6; stroke-dashoffset: 0; stroke: #8c564b; stroke-opacity: 0.6"/>
   </g>
   <g id="line2d_53">
    <path d="M 103.827273 168.537561 
L 127.855981 162.153555 
L 151.884689 294.279375 
L 175.913397 280.510432 
L 199.942105 263.636664 
L 223.970813 244.563133 
L 247.999522 223.212745 
L 272.02823 199.341479 
L 296.056938 269.034206 
L 320.085646 270.683961 
L 344.114354 245.043845 
L 368.143062 265.057972 
L 392.17177 237.162288 
L 416.200478 224.404729 
L 440.229187 188.340589 
L 464.257895 255.033905 
L 488.286603 279.98409 
L 512.315311 239.740934 
L 536.344019 197.808769 
L 560.372727 155.103463 
" clip-path="url(#pbb1791d917)" style="fill: none; stroke-dasharray: 3.7,1.6; stroke-dashoffset: 0; stroke: #e377c2; stroke-opacity: 0.6"/>
   </g>
   <g id="line2d_54">
    <path d="M 103.827273 168.537561 
L 127.855981 160.371747 
L 151.884689 292.485486 
L 175.913397 278.423901 
L 199.942105 262.158355 
L 223.970813 242.708603 
L 247.999522 221.030967 
L 272.02823 196.687215 
L 296.056938 268.200646 
L 320.085646 270.255061 
L 344.114354 244.909622 
L 368.143062 266.360953 
L 392.17177 239.097855 
L 416.200478 227.637126 
L 440.229187 193.021948 
L 464.257895 259.302464 
L 488.286603 284.929555 
L 512.315311 247.146016 
L 536.344019 207.757946 
L 560.372727 168.453812 
" clip-path="url(#pbb1791d917)" style="fill: none; stroke-dasharray: 3.7,1.6; stroke-dashoffset: 0; stroke: #7f7f7f; stroke-opacity: 0.6"/>
   </g>
   <g id="line2d_55">
    <path d="M 103.827273 168.537561 
L 127.855981 161.545389 
L 151.884689 294.388291 
L 175.913397 281.286462 
L 199.942105 263.945057 
L 223.970813 244.87531 
L 247.999522 224.36713 
L 272.02823 200.321999 
L 296.056938 269.787088 
L 320.085646 271.434671 
L 344.114354 245.139538 
L 368.143062 265.702679 
L 392.17177 239.402119 
L 416.200478 228.867206 
L 440.229187 195.546326 
L 464.257895 261.095305 
L 488.286603 287.649117 
L 512.315311 251.995788 
L 536.344019 214.299078 
L 560.372727 175.055362 
" clip-path="url(#pbb1791d917)" style="fill: none; stroke-dasharray: 3.7,1.6; stroke-dashoffset: 0; stroke: #bcbd22; stroke-opacity: 0.6"/>
   </g>
   <g id="line2d_56">
    <path d="M 103.827273 168.537561 
L 127.855981 161.251978 
L 151.884689 295.311127 
L 175.913397 281.301503 
L 199.942105 263.534763 
L 223.970813 242.99472 
L 247.999522 218.090088 
L 272.02823 192.505796 
L 296.056938 267.64711 
L 320.085646 267.594651 
L 344.114354 239.788509 
L 368.143062 261.233147 
L 392.17177 231.955612 
L 416.200478 219.576122 
L 440.229187 182.081652 
L 464.257895 255.393884 
L 488.286603 282.892325 
L 512.315311 243.34326 
L 536.344019 201.029046 
L 560.372727 157.689344 
" clip-path="url(#pbb1791d917)" style="fill: none; stroke-dasharray: 3.7,1.6; stroke-dashoffset: 0; stroke: #17becf; stroke-opacity: 0.6"/>
   </g>
   <g id="line2d_57">
    <path d="M 103.827273 168.537561 
L 127.855981 160.378079 
L 151.884689 292.085527 
L 175.913397 274.580632 
L 199.942105 253.169221 
L 223.970813 227.622644 
L 247.999522 198.709137 
L 272.02823 167.685988 
L 296.056938 251.792644 
L 320.085646 246.952821 
L 344.114354 214.030451 
L 368.143062 236.16538 
L 392.17177 202.99012 
L 416.200478 188.647205 
L 440.229187 149.731269 
L 464.257895 234.223482 
L 488.286603 264.670135 
L 512.315311 222.243768 
L 536.344019 177.341321 
L 560.372727 131.003299 
" clip-path="url(#pbb1791d917)" style="fill: none; stroke-dasharray: 3.7,1.6; stroke-dashoffset: 0; stroke: #1f77b4; stroke-opacity: 0.6"/>
   </g>
   <g id="line2d_58">
    <path d="M 103.827273 168.537561 
L 127.855981 161.534897 
L 151.884689 294.189673 
L 175.913397 278.220768 
L 199.942105 259.493177 
L 223.970813 237.900013 
L 247.999522 214.411492 
L 272.02823 187.285793 
L 296.056938 262.945491 
L 320.085646 263.0041 
L 344.114354 234.968766 
L 368.143062 255.669205 
L 392.17177 225.610931 
L 416.200478 212.566655 
L 440.229187 175.529124 
L 464.257895 248.001103 
L 488.286603 275.684417 
L 512.315311 236.053045 
L 536.344019 193.585796 
L 560.372727 147.929925 
" clip-path="url(#pbb1791d917)" style="fill: none; stroke-dasharray: 3.7,1.6; stroke-dashoffset: 0; stroke: #ff7f0e; stroke-opacity: 0.6"/>
   </g>
   <g id="line2d_59">
    <path d="M 103.827273 168.537561 
L 127.855981 161.276399 
L 151.884689 294.719777 
L 175.913397 279.220773 
L 199.942105 260.042387 
L 223.970813 237.304703 
L 247.999522 210.592901 
L 272.02823 179.178044 
L 296.056938 256.511629 
L 320.085646 250.2422 
L 344.114354 215.466569 
L 368.143062 234.766888 
L 392.17177 199.497235 
L 416.200478 183.589586 
L 440.229187 143.202438 
L 464.257895 229.778732 
L 488.286603 260.01175 
L 512.315311 217.479921 
L 536.344019 173.889861 
L 560.372727 130.737566 
" clip-path="url(#pbb1791d917)" style="fill: none; stroke-dasharray: 3.7,1.6; stroke-dashoffset: 0; stroke: #2ca02c; stroke-opacity: 0.6"/>
   </g>
   <g id="line2d_60">
    <path d="M 103.827273 168.537561 
L 127.855981 160.425473 
L 151.884689 291.406435 
L 175.913397 272.989795 
L 199.942105 249.338688 
L 223.970813 223.644674 
L 247.999522 194.076052 
L 272.02823 162.549572 
L 296.056938 249.862684 
L 320.085646 245.171918 
L 344.114354 212.503342 
L 368.143062 235.261995 
L 392.17177 202.483073 
L 416.200478 188.626764 
L 440.229187 149.408192 
L 464.257895 234.328219 
L 488.286603 265.010759 
L 512.315311 222.091817 
L 536.344019 176.433233 
L 560.372727 130.101542 
" clip-path="url(#pbb1791d917)" style="fill: none; stroke-dasharray: 3.7,1.6; stroke-dashoffset: 0; stroke: #d62728; stroke-opacity: 0.6"/>
   </g>
   <g id="line2d_61">
    <path d="M 103.827273 168.537561 
L 127.855981 158.738093 
L 151.884689 288.714554 
L 175.913397 267.055306 
L 199.942105 241.273756 
L 223.970813 212.728516 
L 247.999522 181.855116 
L 272.02823 147.011072 
L 296.056938 238.10348 
L 320.085646 230.831355 
L 344.114354 194.151994 
L 368.143062 214.776639 
L 392.17177 176.303532 
L 416.200478 158.014773 
L 440.229187 112.654845 
L 464.257895 203.784788 
L 488.286603 231.362098 
L 512.315311 179.906762 
L 536.344019 126.731665 
L 560.372727 74.90441 
" clip-path="url(#pbb1791d917)" style="fill: none; stroke-dasharray: 3.7,1.6; stroke-dashoffset: 0; stroke: #9467bd; stroke-opacity: 0.6"/>
   </g>
   <g id="line2d_62">
    <path d="M 103.827273 168.537561 
L 127.855981 159.515395 
L 151.884689 290.439489 
L 175.913397 271.565513 
L 199.942105 247.923376 
L 223.970813 220.944288 
L 247.999522 190.450065 
L 272.02823 157.028854 
L 296.056938 246.263072 
L 320.085646 239.173469 
L 344.114354 203.171014 
L 368.143062 224.443079 
L 392.17177 186.409725 
L 416.200478 168.713937 
L 440.229187 123.526402 
L 464.257895 216.334861 
L 488.286603 245.755664 
L 512.315311 195.44195 
L 536.344019 143.526781 
L 560.372727 93.430502 
" clip-path="url(#pbb1791d917)" style="fill: none; stroke-dasharray: 3.7,1.6; stroke-dashoffset: 0; stroke: #8c564b; stroke-opacity: 0.6"/>
   </g>
   <g id="line2d_63">
    <path d="M 103.827273 168.537561 
L 127.855981 159.500742 
L 151.884689 288.824833 
L 175.913397 267.812373 
L 199.942105 241.287111 
L 223.970813 211.176157 
L 247.999522 178.552467 
L 272.02823 144.20079 
L 296.056938 238.328693 
L 320.085646 231.245603 
L 344.114354 196.009958 
L 368.143062 219.791748 
L 392.17177 184.205892 
L 416.200478 169.579335 
L 440.229187 127.705961 
L 464.257895 218.321983 
L 488.286603 248.534017 
L 512.315311 200.647902 
L 536.344019 151.391153 
L 560.372727 102.003075 
" clip-path="url(#pbb1791d917)" style="fill: none; stroke-dasharray: 3.7,1.6; stroke-dashoffset: 0; stroke: #e377c2; stroke-opacity: 0.6"/>
   </g>
   <g id="line2d_64">
    <path d="M 103.827273 168.537561 
L 127.855981 159.782937 
L 151.884689 288.668268 
L 175.913397 270.089076 
L 199.942105 247.843518 
L 223.970813 221.369147 
L 247.999522 191.536083 
L 272.02823 159.364515 
L 296.056938 244.463356 
L 320.085646 238.27135 
L 344.114354 204.629021 
L 368.143062 225.7665 
L 392.17177 191.685322 
L 416.200478 176.865932 
L 440.229187 137.96302 
L 464.257895 223.657094 
L 488.286603 254.182798 
L 512.315311 210.819399 
L 536.344019 166.031097 
L 560.372727 121.771186 
" clip-path="url(#pbb1791d917)" style="fill: none; stroke-dasharray: 3.7,1.6; stroke-dashoffset: 0; stroke: #7f7f7f; stroke-opacity: 0.6"/>
   </g>
   <g id="line2d_65">
    <path d="M 103.827273 168.537561 
L 127.855981 160.098959 
L 151.884689 290.418316 
L 175.913397 270.126293 
L 199.942105 245.960094 
L 223.970813 217.047977 
L 247.999522 184.75537 
L 272.02823 148.743543 
L 296.056938 238.649419 
L 320.085646 229.76209 
L 344.114354 191.608442 
L 368.143062 212.93586 
L 392.17177 174.567491 
L 416.200478 157.517133 
L 440.229187 112.630967 
L 464.257895 207.604006 
L 488.286603 237.78185 
L 512.315311 188.829365 
L 536.344019 136.616806 
L 560.372727 86.430804 
" clip-path="url(#pbb1791d917)" style="fill: none; stroke-dasharray: 3.7,1.6; stroke-dashoffset: 0; stroke: #bcbd22; stroke-opacity: 0.6"/>
   </g>
   <g id="line2d_66">
    <path d="M 103.827273 168.537561 
L 127.855981 160.039807 
L 151.884689 290.098876 
L 175.913397 270.733729 
L 199.942105 247.151709 
L 223.970813 219.676152 
L 247.999522 188.717603 
L 272.02823 155.505488 
L 296.056938 243.925739 
L 320.085646 238.206409 
L 344.114354 204.045275 
L 368.143062 225.554311 
L 392.17177 189.220639 
L 416.200478 173.206805 
L 440.229187 131.310819 
L 464.257895 218.376251 
L 488.286603 247.067327 
L 512.315311 201.326255 
L 536.344019 152.901077 
L 560.372727 104.348368 
" clip-path="url(#pbb1791d917)" style="fill: none; stroke-dasharray: 3.7,1.6; stroke-dashoffset: 0; stroke: #17becf; stroke-opacity: 0.6"/>
   </g>
   <g id="line2d_67">
    <path d="M 103.827273 168.537561 
L 127.855981 158.331804 
L 151.884689 287.505951 
L 175.913397 265.661173 
L 199.942105 238.974027 
L 223.970813 208.602702 
L 247.999522 174.667207 
L 272.02823 138.485963 
L 296.056938 232.948178 
L 320.085646 223.823335 
L 344.114354 186.695357 
L 368.143062 209.562185 
L 392.17177 172.061926 
L 416.200478 155.899216 
L 440.229187 112.009777 
L 464.257895 205.377018 
L 488.286603 233.865673 
L 512.315311 184.227237 
L 536.344019 133.430718 
L 560.372727 81.600569 
" clip-path="url(#pbb1791d917)" style="fill: none; stroke-dasharray: 3.7,1.6; stroke-dashoffset: 0; stroke: #1f77b4; stroke-opacity: 0.6"/>
   </g>
   <g id="line2d_68">
    <path d="M 103.827273 168.537561 
L 127.855981 162.398847 
L 151.884689 297.444943 
L 175.913397 285.288936 
L 199.942105 269.93011 
L 223.970813 251.727026 
L 247.999522 228.140935 
L 272.02823 200.82287 
L 296.056938 271.021147 
L 320.085646 268.138961 
L 344.114354 236.557016 
L 368.143062 254.473314 
L 392.17177 220.889594 
L 416.200478 204.012352 
L 440.229187 162.769937 
L 464.257895 240.992359 
L 488.286603 267.06445 
L 512.315311 221.690955 
L 536.344019 172.166483 
L 560.372727 123.666414 
" clip-path="url(#pbb1791d917)" style="fill: none; stroke-dasharray: 3.7,1.6; stroke-dashoffset: 0; stroke: #ff7f0e; stroke-opacity: 0.6"/>
   </g>
   <g id="line2d_69">
    <path d="M 103.827273 168.537561 
L 127.855981 160.293782 
L 151.884689 291.907373 
L 175.913397 275.356785 
L 199.942105 254.366289 
L 223.970813 230.496833 
L 247.999522 204.19667 
L 272.02823 174.771299 
L 296.056938 256.643139 
L 320.085646 254.060152 
L 344.114354 223.379964 
L 368.143062 245.731062 
L 392.17177 213.598114 
L 416.200478 200.171066 
L 440.229187 161.03462 
L 464.257895 240.645043 
L 488.286603 268.240624 
L 512.315311 221.674313 
L 536.344019 173.339039 
L 560.372727 123.290154 
" clip-path="url(#pbb1791d917)" style="fill: none; stroke-dasharray: 3.7,1.6; stroke-dashoffset: 0; stroke: #2ca02c; stroke-opacity: 0.6"/>
   </g>
   <g id="line2d_70">
    <path d="M 103.827273 168.537561 
L 127.855981 159.073108 
L 151.884689 288.602291 
L 175.913397 266.300906 
L 199.942105 239.783308 
L 223.970813 207.769141 
L 247.999522 173.127715 
L 272.02823 134.567459 
L 296.056938 228.947343 
L 320.085646 217.427823 
L 344.114354 175.965802 
L 368.143062 196.878792 
L 392.17177 155.738039 
L 416.200478 136.979318 
L 440.229187 90.262141 
L 464.257895 189.524541 
L 488.286603 219.299716 
L 512.315311 165.605091 
L 536.344019 112.183797 
L 560.372727 61.151029 
" clip-path="url(#pbb1791d917)" style="fill: none; stroke-dasharray: 3.7,1.6; stroke-dashoffset: 0; stroke: #d62728; stroke-opacity: 0.6"/>
   </g>
   <g id="line2d_71">
    <path d="M 103.827273 168.537561 
L 127.855981 162.361764 
L 151.884689 294.347324 
L 175.913397 279.161032 
L 199.942105 260.641826 
L 223.970813 238.296208 
L 247.999522 212.427126 
L 272.02823 184.263684 
L 296.056938 259.734077 
L 320.085646 257.601697 
L 344.114354 228.318735 
L 368.143062 249.12536 
L 392.17177 219.40771 
L 416.200478 206.614153 
L 440.229187 170.417418 
L 464.257895 245.833629 
L 488.286603 274.355388 
L 512.315311 234.794745 
L 536.344019 192.125799 
L 560.372727 147.087501 
" clip-path="url(#pbb1791d917)" style="fill: none; stroke-dasharray: 3.7,1.6; stroke-dashoffset: 0; stroke: #9467bd; stroke-opacity: 0.6"/>
   </g>
   <g id="line2d_72">
    <path d="M 103.827273 168.537561 
L 127.855981 161.836809 
L 151.884689 296.125865 
L 175.913397 281.558483 
L 199.942105 264.392456 
L 223.970813 244.957836 
L 247.999522 223.310206 
L 272.02823 199.248216 
L 296.056938 270.044862 
L 320.085646 270.907908 
L 344.114354 245.644956 
L 368.143062 266.682402 
L 392.17177 239.45295 
L 416.200478 228.714894 
L 440.229187 194.661211 
L 464.257895 263.289732 
L 488.286603 291.356181 
L 512.315311 254.518718 
L 536.344019 213.691998 
L 560.372727 172.646576 
" clip-path="url(#pbb1791d917)" style="fill: none; stroke-dasharray: 3.7,1.6; stroke-dashoffset: 0; stroke: #8c564b; stroke-opacity: 0.6"/>
   </g>
   <g id="line2d_73">
    <path d="M 103.827273 168.537561 
L 127.855981 160.148343 
L 151.884689 291.938353 
L 175.913397 276.070452 
L 199.942105 257.82086 
L 223.970813 238.219506 
L 247.999522 215.829703 
L 272.02823 190.738996 
L 296.056938 263.698915 
L 320.085646 264.496296 
L 344.114354 239.2972 
L 368.143062 261.254673 
L 392.17177 234.724016 
L 416.200478 224.237945 
L 440.229187 190.269282 
L 464.257895 258.11616 
L 488.286603 284.911465 
L 512.315311 246.37595 
L 536.344019 206.999457 
L 560.372727 165.776217 
" clip-path="url(#pbb1791d917)" style="fill: none; stroke-dasharray: 3.7,1.6; stroke-dashoffset: 0; stroke: #e377c2; stroke-opacity: 0.6"/>
   </g>
   <g id="line2d_74">
    <path d="M 103.827273 168.537561 
L 127.855981 160.298847 
L 151.884689 291.244033 
L 175.913397 274.80067 
L 199.942105 254.639176 
L 223.970813 231.345417 
L 247.999522 203.112869 
L 272.02823 174.22014 
L 296.056938 253.849591 
L 320.085646 251.225179 
L 344.114354 222.242682 
L 368.143062 243.880696 
L 392.17177 214.149841 
L 416.200478 201.868395 
L 440.229187 165.30354 
L 464.257895 242.190602 
L 488.286603 271.804419 
L 512.315311 232.868404 
L 536.344019 191.777216 
L 560.372727 151.141339 
" clip-path="url(#pbb1791d917)" style="fill: none; stroke-dasharray: 3.7,1.6; stroke-dashoffset: 0; stroke: #7f7f7f; stroke-opacity: 0.6"/>
   </g>
   <g id="line2d_75">
    <path d="M 103.827273 168.537561 
L 127.855981 159.932536 
L 151.884689 293.640095 
L 175.913397 278.203723 
L 199.942105 258.098044 
L 223.970813 234.976708 
L 247.999522 207.925468 
L 272.02823 177.708098 
L 296.056938 253.901507 
L 320.085646 249.109079 
L 344.114354 216.649255 
L 368.143062 236.294358 
L 392.17177 203.466595 
L 416.200478 188.365191 
L 440.229187 148.260238 
L 464.257895 227.328702 
L 488.286603 253.915075 
L 512.315311 208.463072 
L 536.344019 160.654018 
L 560.372727 114.095124 
" clip-path="url(#pbb1791d917)" style="fill: none; stroke-dasharray: 3.7,1.6; stroke-dashoffset: 0; stroke: #bcbd22; stroke-opacity: 0.6"/>
   </g>
   <g id="line2d_76">
    <path d="M 103.827273 168.537561 
L 127.855981 160.198632 
L 151.884689 293.055539 
L 175.913397 277.850619 
L 199.942105 259.02821 
L 223.970813 236.04236 
L 247.999522 211.981431 
L 272.02823 184.175245 
L 296.056938 260.496365 
L 320.085646 258.066776 
L 344.114354 227.991136 
L 368.143062 248.475588 
L 392.17177 216.850409 
L 416.200478 203.371264 
L 440.229187 166.210001 
L 464.257895 244.256594 
L 488.286603 273.387062 
L 512.315311 233.610974 
L 536.344019 192.595762 
L 560.372727 150.99789 
" clip-path="url(#pbb1791d917)" style="fill: none; stroke-dasharray: 3.7,1.6; stroke-dashoffset: 0; stroke: #17becf; stroke-opacity: 0.6"/>
   </g>
   <g id="line2d_77">
    <path d="M 103.827273 168.537561 
L 127.855981 161.534535 
L 151.884689 294.686046 
L 175.913397 279.037266 
L 199.942105 259.044581 
L 223.970813 237.031205 
L 247.999522 211.641038 
L 272.02823 182.748551 
L 296.056938 259.434697 
L 320.085646 256.249875 
L 344.114354 226.062805 
L 368.143062 246.971634 
L 392.17177 215.168094 
L 416.200478 201.066492 
L 440.229187 160.675726 
L 464.257895 238.051744 
L 488.286603 263.428297 
L 512.315311 217.456947 
L 536.344019 169.044612 
L 560.372727 120.898734 
" clip-path="url(#pbb1791d917)" style="fill: none; stroke-dasharray: 3.7,1.6; stroke-dashoffset: 0; stroke: #1f77b4; stroke-opacity: 0.6"/>
   </g>
   <g id="line2d_78">
    <path d="M 103.827273 168.537561 
L 127.855981 160.821631 
L 151.884689 294.397029 
L 175.913397 278.814991 
L 199.942105 261.00189 
L 223.970813 241.014829 
L 247.999522 218.161359 
L 272.02823 192.493112 
L 296.056938 265.543673 
L 320.085646 266.336351 
L 344.114354 240.493815 
L 368.143062 261.885994 
L 392.17177 234.255138 
L 416.200478 222.671944 
L 440.229187 186.109079 
L 464.257895 253.404772 
L 488.286603 278.600792 
L 512.315311 237.28005 
L 536.344019 194.251124 
L 560.372727 149.051107 
" clip-path="url(#pbb1791d917)" style="fill: none; stroke-dasharray: 3.7,1.6; stroke-dashoffset: 0; stroke: #ff7f0e; stroke-opacity: 0.6"/>
   </g>
   <g id="line2d_79">
    <path d="M 103.827273 168.537561 
L 127.855981 161.510114 
L 151.884689 294.621656 
L 175.913397 279.78856 
L 199.942105 259.67139 
L 223.970813 237.304712 
L 247.999522 211.704853 
L 272.02823 181.547445 
L 296.056938 257.944853 
L 320.085646 254.384857 
L 344.114354 223.290964 
L 368.143062 242.400982 
L 392.17177 209.704186 
L 416.200478 194.550323 
L 440.229187 153.976131 
L 464.257895 231.341115 
L 488.286603 256.847911 
L 512.315311 208.581919 
L 536.344019 158.911103 
L 560.372727 107.412533 
" clip-path="url(#pbb1791d917)" style="fill: none; stroke-dasharray: 3.7,1.6; stroke-dashoffset: 0; stroke: #2ca02c; stroke-opacity: 0.6"/>
   </g>
   <g id="line2d_80">
    <path d="M 103.827273 168.537561 
L 127.855981 158.889682 
L 151.884689 289.990894 
L 175.913397 269.750869 
L 199.942105 246.844825 
L 223.970813 220.524365 
L 247.999522 192.093894 
L 272.02823 161.469626 
L 296.056938 248.791248 
L 320.085646 244.387561 
L 344.114354 211.488345 
L 368.143062 233.089818 
L 392.17177 197.702222 
L 416.200478 182.125971 
L 440.229187 141.504204 
L 464.257895 228.763554 
L 488.286603 259.604738 
L 512.315311 215.637695 
L 536.344019 169.567034 
L 560.372727 123.075433 
" clip-path="url(#pbb1791d917)" style="fill: none; stroke-dasharray: 3.7,1.6; stroke-dashoffset: 0; stroke: #d62728; stroke-opacity: 0.6"/>
   </g>
   <g id="line2d_81">
    <path d="M 103.827273 168.537561 
L 127.855981 161.532364 
L 151.884689 293.864968 
L 175.913397 278.130298 
L 199.942105 258.178664 
L 223.970813 235.154649 
L 247.999522 208.660413 
L 272.02823 177.546877 
L 296.056938 253.872022 
L 320.085646 249.230821 
L 344.114354 215.528073 
L 368.143062 234.674089 
L 392.17177 200.866784 
L 416.200478 185.093901 
L 440.229187 143.957309 
L 464.257895 223.027039 
L 488.286603 248.583582 
L 512.315311 202.445809 
L 536.344019 154.165708 
L 560.372727 105.005194 
" clip-path="url(#pbb1791d917)" style="fill: none; stroke-dasharray: 3.7,1.6; stroke-dashoffset: 0; stroke: #9467bd; stroke-opacity: 0.6"/>
   </g>
   <g id="line2d_82">
    <path d="M 103.827273 168.537561 
L 127.855981 160.35601 
L 151.884689 291.981339 
L 175.913397 273.1017 
L 199.942105 250.08074 
L 223.970813 222.723701 
L 247.999522 192.031089 
L 272.02823 158.859229 
L 296.056938 243.707219 
L 320.085646 236.750392 
L 344.114354 200.932449 
L 368.143062 221.923042 
L 392.17177 185.694108 
L 416.200478 169.396451 
L 440.229187 125.819235 
L 464.257895 212.594875 
L 488.286603 239.353639 
L 512.315311 188.993074 
L 536.344019 135.457094 
L 560.372727 80.813679 
" clip-path="url(#pbb1791d917)" style="fill: none; stroke-dasharray: 3.7,1.6; stroke-dashoffset: 0; stroke: #8c564b; stroke-opacity: 0.6"/>
   </g>
   <g id="line2d_83">
    <path d="M 103.827273 168.537561 
L 127.855981 161.666226 
L 151.884689 295.501836 
L 175.913397 281.003142 
L 199.942105 262.787186 
L 223.970813 241.036284 
L 247.999522 217.287465 
L 272.02823 190.623647 
L 296.056938 265.994642 
L 320.085646 264.814489 
L 344.114354 235.830726 
L 368.143062 256.30143 
L 392.17177 225.418641 
L 416.200478 211.634869 
L 440.229187 172.866362 
L 464.257895 248.902498 
L 488.286603 275.845232 
L 512.315311 231.663106 
L 536.344019 183.053777 
L 560.372727 133.906107 
" clip-path="url(#pbb1791d917)" style="fill: none; stroke-dasharray: 3.7,1.6; stroke-dashoffset: 0; stroke: #e377c2; stroke-opacity: 0.6"/>
   </g>
   <g id="line2d_84">
    <path d="M 103.827273 168.537561 
L 127.855981 160.837007 
L 151.884689 294.273654 
L 175.913397 280.504596 
L 199.942105 263.651519 
L 223.970813 243.711371 
L 247.999522 222.144459 
L 272.02823 196.383586 
L 296.056938 268.169894 
L 320.085646 268.92983 
L 344.114354 242.830606 
L 368.143062 264.500095 
L 392.17177 237.701352 
L 416.200478 226.982109 
L 440.229187 192.362228 
L 464.257895 260.523861 
L 488.286603 286.585098 
L 512.315311 247.206977 
L 536.344019 205.013782 
L 560.372727 160.487596 
" clip-path="url(#pbb1791d917)" style="fill: none; stroke-dasharray: 3.7,1.6; stroke-dashoffset: 0; stroke: #7f7f7f; stroke-opacity: 0.6"/>
   </g>
   <g id="line2d_85">
    <path d="M 103.827273 168.537561 
L 127.855981 159.957138 
L 151.884689 291.865696 
L 175.913397 274.768663 
L 199.942105 252.011877 
L 223.970813 224.996538 
L 247.999522 195.755132 
L 272.02823 163.257526 
L 296.056938 247.738263 
L 320.085646 242.07899 
L 344.114354 208.728986 
L 368.143062 230.506469 
L 392.17177 196.073633 
L 416.200478 181.287889 
L 440.229187 138.591446 
L 464.257895 222.7642 
L 488.286603 249.412077 
L 512.315311 201.756784 
L 536.344019 152.093384 
L 560.372727 103.280188 
" clip-path="url(#pbb1791d917)" style="fill: none; stroke-dasharray: 3.7,1.6; stroke-dashoffset: 0; stroke: #bcbd22; stroke-opacity: 0.6"/>
   </g>
   <g id="line2d_86">
    <path d="M 103.827273 168.537561 
L 127.855981 159.394738 
L 151.884689 289.113575 
L 175.913397 270.433612 
L 199.942105 247.951307 
L 223.970813 223.083177 
L 247.999522 196.193473 
L 272.02823 167.310253 
L 296.056938 250.435033 
L 320.085646 246.892945 
L 344.114354 214.826746 
L 368.143062 235.274296 
L 392.17177 200.987441 
L 416.200478 184.859643 
L 440.229187 144.334835 
L 464.257895 226.009441 
L 488.286603 253.962469 
L 512.315311 208.734413 
L 536.344019 161.116022 
L 560.372727 113.96669 
" clip-path="url(#pbb1791d917)" style="fill: none; stroke-dasharray: 3.7,1.6; stroke-dashoffset: 0; stroke: #17becf; stroke-opacity: 0.6"/>
   </g>
   <g id="line2d_87">
    <path d="M 103.827273 168.537561 
L 127.855981 158.886426 
L 151.884689 289.23114 
L 175.913397 269.378047 
L 199.942105 243.884361 
L 223.970813 213.439859 
L 247.999522 180.364377 
L 272.02823 143.512787 
L 296.056938 237.972874 
L 320.085646 229.43847 
L 344.114354 192.201232 
L 368.143062 214.692342 
L 392.17177 178.1179 
L 416.200478 162.184202 
L 440.229187 119.710259 
L 464.257895 213.077862 
L 488.286603 243.77632 
L 512.315311 196.665337 
L 536.344019 147.09944 
L 560.372727 97.631045 
" clip-path="url(#pbb1791d917)" style="fill: none; stroke-dasharray: 3.7,1.6; stroke-dashoffset: 0; stroke: #1f77b4; stroke-opacity: 0.6"/>
   </g>
   <g id="line2d_88">
    <path d="M 103.827273 168.537561 
L 127.855981 159.818392 
L 151.884689 288.375932 
L 175.913397 265.937138 
L 199.942105 240.02787 
L 223.970813 210.208907 
L 247.999522 178.808345 
L 272.02823 145.746473 
L 296.056938 239.444991 
L 320.085646 234.566819 
L 344.114354 200.78701 
L 368.143062 224.336894 
L 392.17177 190.578792 
L 416.200478 176.737678 
L 440.229187 135.457817 
L 464.257895 220.842562 
L 488.286603 248.730287 
L 512.315311 201.254079 
L 536.344019 152.177138 
L 560.372727 103.165863 
" clip-path="url(#pbb1791d917)" style="fill: none; stroke-dasharray: 3.7,1.6; stroke-dashoffset: 0; stroke: #ff7f0e; stroke-opacity: 0.6"/>
   </g>
   <g id="line2d_89">
    <path d="M 103.827273 168.537561 
L 127.855981 159.736809 
L 151.884689 288.437824 
L 175.913397 268.463688 
L 199.942105 242.532706 
L 223.970813 215.4715 
L 247.999522 185.63683 
L 272.02823 153.169077 
L 296.056938 242.228047 
L 320.085646 236.148919 
L 344.114354 201.154768 
L 368.143062 223.160358 
L 392.17177 187.547549 
L 416.200478 172.609493 
L 440.229187 131.736463 
L 464.257895 220.411853 
L 488.286603 251.056766 
L 512.315311 205.680739 
L 536.344019 159.419054 
L 560.372727 112.43922 
" clip-path="url(#pbb1791d917)" style="fill: none; stroke-dasharray: 3.7,1.6; stroke-dashoffset: 0; stroke: #2ca02c; stroke-opacity: 0.6"/>
   </g>
   <g id="line2d_90">
    <path d="M 103.827273 168.537561 
L 127.855981 160.705859 
L 151.884689 292.091209 
L 175.913397 272.554674 
L 199.942105 248.963976 
L 223.970813 221.038268 
L 247.999522 189.356413 
L 272.02823 154.837042 
L 296.056938 242.908933 
L 320.085646 233.738324 
L 344.114354 195.653777 
L 368.143062 216.48446 
L 392.17177 178.456353 
L 416.200478 161.473107 
L 440.229187 118.934585 
L 464.257895 213.454303 
L 488.286603 244.41361 
L 512.315311 197.781816 
L 536.344019 150.013825 
L 560.372727 102.55426 
" clip-path="url(#pbb1791d917)" style="fill: none; stroke-dasharray: 3.7,1.6; stroke-dashoffset: 0; stroke: #d62728; stroke-opacity: 0.6"/>
   </g>
   <g id="line2d_91">
    <path d="M 103.827273 168.537561 
L 127.855981 160.907013 
L 151.884689 294.428838 
L 175.913397 280.294115 
L 199.942105 260.796102 
L 223.970813 238.721736 
L 247.999522 213.380429 
L 272.02823 184.929311 
L 296.056938 260.69969 
L 320.085646 258.090473 
L 344.114354 227.260143 
L 368.143062 246.552502 
L 392.17177 213.013102 
L 416.200478 196.978103 
L 440.229187 155.28291 
L 464.257895 234.06122 
L 488.286603 259.886028 
L 512.315311 214.259824 
L 536.344019 166.053708 
L 560.372727 119.065553 
" clip-path="url(#pbb1791d917)" style="fill: none; stroke-dasharray: 3.7,1.6; stroke-dashoffset: 0; stroke: #9467bd; stroke-opacity: 0.6"/>
   </g>
   <g id="line2d_92">
    <path d="M 103.827273 168.537561 
L 127.855981 161.888726 
L 151.884689 293.910438 
L 175.913397 277.171042 
L 199.942105 258.112966 
L 223.970813 236.715436 
L 247.999522 213.031436 
L 272.02823 187.237737 
L 296.056938 262.993066 
L 320.085646 262.845094 
L 344.114354 234.734327 
L 368.143062 255.34649 
L 392.17177 224.869446 
L 416.200478 211.768008 
L 440.229187 175.869205 
L 464.257895 249.528211 
L 488.286603 277.869438 
L 512.315311 239.7706 
L 536.344019 198.515342 
L 560.372727 158.609915 
" clip-path="url(#pbb1791d917)" style="fill: none; stroke-dasharray: 3.7,1.6; stroke-dashoffset: 0; stroke: #8c564b; stroke-opacity: 0.6"/>
   </g>
   <g id="line2d_93">
    <path d="M 103.827273 168.537561 
L 127.855981 160.877347 
L 151.884689 292.728986 
L 175.913397 275.487683 
L 199.942105 253.63834 
L 223.970813 229.850613 
L 247.999522 203.379832 
L 272.02823 175.158261 
L 296.056938 258.006538 
L 320.085646 256.823852 
L 344.114354 228.100577 
L 368.143062 251.80205 
L 392.17177 222.695641 
L 416.200478 211.444388 
L 440.229187 175.568559 
L 464.257895 253.068671 
L 488.286603 283.403532 
L 512.315311 244.218244 
L 536.344019 201.065949 
L 560.372727 157.291016 
" clip-path="url(#pbb1791d917)" style="fill: none; stroke-dasharray: 3.7,1.6; stroke-dashoffset: 0; stroke: #e377c2; stroke-opacity: 0.6"/>
   </g>
   <g id="line2d_94">
    <path d="M 103.827273 168.537561 
L 127.855981 160.539255 
L 151.884689 293.085457 
L 175.913397 275.546248 
L 199.942105 254.319318 
L 223.970813 229.847748 
L 247.999522 201.731379 
L 272.02823 170.5892 
L 296.056938 253.275795 
L 320.085646 248.372297 
L 344.114354 214.994978 
L 368.143062 236.262701 
L 392.17177 201.022715 
L 416.200478 184.104049 
L 440.229187 140.626144 
L 464.257895 223.353915 
L 488.286603 248.982272 
L 512.315311 199.156069 
L 536.344019 147.486734 
L 560.372727 97.315746 
" clip-path="url(#pbb1791d917)" style="fill: none; stroke-dasharray: 3.7,1.6; stroke-dashoffset: 0; stroke: #7f7f7f; stroke-opacity: 0.6"/>
   </g>
   <g id="line2d_95">
    <path d="M 103.827273 168.537561 
L 127.855981 160.808426 
L 151.884689 292.427096 
L 175.913397 275.518063 
L 199.942105 254.607746 
L 223.970813 231.174787 
L 247.999522 203.800569 
L 272.02823 175.586614 
L 296.056938 257.789284 
L 320.085646 255.617288 
L 344.114354 226.083969 
L 368.143062 248.091369 
L 392.17177 216.598966 
L 416.200478 203.592859 
L 440.229187 164.580687 
L 464.257895 242.008804 
L 488.286603 269.195383 
L 512.315311 224.412688 
L 536.344019 177.768412 
L 560.372727 129.33835 
" clip-path="url(#pbb1791d917)" style="fill: none; stroke-dasharray: 3.7,1.6; stroke-dashoffset: 0; stroke: #bcbd22; stroke-opacity: 0.6"/>
   </g>
   <g id="line2d_96">
    <path d="M 103.827273 168.537561 
L 127.855981 159.586124 
L 151.884689 290.590151 
L 175.913397 272.319201 
L 199.942105 249.419596 
L 223.970813 224.061561 
L 247.999522 196.239149 
L 272.02823 165.200489 
L 296.056938 250.806228 
L 320.085646 246.041296 
L 344.114354 213.680059 
L 368.143062 235.922078 
L 392.17177 202.563752 
L 416.200478 187.841864 
L 440.229187 147.213584 
L 464.257895 231.440426 
L 488.286603 260.098579 
L 512.315311 214.375416 
L 536.344019 166.186123 
L 560.372727 117.431536 
" clip-path="url(#pbb1791d917)" style="fill: none; stroke-dasharray: 3.7,1.6; stroke-dashoffset: 0; stroke: #17becf; stroke-opacity: 0.6"/>
   </g>
   <g id="line2d_97">
    <path d="M 103.827273 168.537561 
L 127.855981 160.218168 
L 151.884689 289.869083 
L 175.913397 269.612771 
L 199.942105 245.885128 
L 223.970813 217.483226 
L 247.999522 187.152839 
L 272.02823 153.146692 
L 296.056938 239.644879 
L 320.085646 233.050022 
L 344.114354 198.790301 
L 368.143062 219.934292 
L 392.17177 185.111267 
L 416.200478 170.603919 
L 440.229187 131.297976 
L 464.257895 218.495641 
L 488.286603 249.482083 
L 512.315311 206.530399 
L 536.344019 162.711689 
L 560.372727 117.551107 
" clip-path="url(#pbb1791d917)" style="fill: none; stroke-dasharray: 3.7,1.6; stroke-dashoffset: 0; stroke: #1f77b4; stroke-opacity: 0.6"/>
   </g>
   <g id="line2d_98">
    <path d="M 103.827273 168.537561 
L 127.855981 161.868285 
L 151.884689 293.623004 
L 175.913397 276.581473 
L 199.942105 256.317886 
L 223.970813 231.696403 
L 247.999522 205.551063 
L 272.02823 175.001329 
L 296.056938 255.022689 
L 320.085646 252.546429 
L 344.114354 223.031019 
L 368.143062 244.415419 
L 392.17177 214.084538 
L 416.200478 201.004807 
L 440.229187 161.521044 
L 464.257895 236.92188 
L 488.286603 262.998312 
L 512.315311 218.960358 
L 536.344019 172.879748 
L 560.372727 126.921966 
" clip-path="url(#pbb1791d917)" style="fill: none; stroke-dasharray: 3.7,1.6; stroke-dashoffset: 0; stroke: #ff7f0e; stroke-opacity: 0.6"/>
   </g>
   <g id="line2d_99">
    <path d="M 103.827273 168.537561 
L 127.855981 160.511217 
L 151.884689 293.375982 
L 175.913397 277.031621 
L 199.942105 256.836801 
L 223.970813 234.11356 
L 247.999522 208.140705 
L 272.02823 177.996745 
L 296.056938 258.128642 
L 320.085646 255.509656 
L 344.114354 225.477974 
L 368.143062 247.472892 
L 392.17177 217.37048 
L 416.200478 205.618511 
L 440.229187 169.545146 
L 464.257895 248.416616 
L 488.286603 278.921156 
L 512.315311 240.078663 
L 536.344019 198.994168 
L 560.372727 157.245792 
" clip-path="url(#pbb1791d917)" style="fill: none; stroke-dasharray: 3.7,1.6; stroke-dashoffset: 0; stroke: #2ca02c; stroke-opacity: 0.6"/>
   </g>
   <g id="line2d_100">
    <path d="M 103.827273 168.537561 
L 127.855981 161.648498 
L 151.884689 294.565534 
L 175.913397 279.327436 
L 199.942105 260.128363 
L 223.970813 238.591033 
L 247.999522 213.713106 
L 272.02823 185.930679 
L 296.056938 263.113903 
L 320.085646 260.700413 
L 344.114354 229.806952 
L 368.143062 250.540675 
L 392.17177 217.599492 
L 416.200478 203.104807 
L 440.229187 162.208442 
L 464.257895 241.213955 
L 488.286603 268.27825 
L 512.315311 223.60572 
L 536.344019 174.530227 
L 560.372727 124.276208 
" clip-path="url(#pbb1791d917)" style="fill: none; stroke-dasharray: 3.7,1.6; stroke-dashoffset: 0; stroke: #d62728; stroke-opacity: 0.6"/>
   </g>
   <g id="line2d_101">
    <path d="M 103.827273 168.537561 
L 127.855981 160.189225 
L 151.884689 293.610526 
L 175.913397 277.519138 
L 199.942105 259.871053 
L 223.970813 240.340166 
L 247.999522 216.697121 
L 272.02823 190.614716 
L 296.056938 265.586364 
L 320.085646 266.41106 
L 344.114354 240.700758 
L 368.143062 263.333328 
L 392.17177 236.415738 
L 416.200478 225.982488 
L 440.229187 192.231079 
L 464.257895 261.232061 
L 488.286603 288.57023 
L 512.315311 252.870592 
L 536.344019 213.720579 
L 560.372727 172.821139 
" clip-path="url(#pbb1791d917)" style="fill: none; stroke-dasharray: 3.7,1.6; stroke-dashoffset: 0; stroke: #9467bd; stroke-opacity: 0.6"/>
   </g>
   <g id="line2d_102">
    <path d="M 103.827273 168.537561 
L 127.855981 161.354364 
L 151.884689 292.887655 
L 175.913397 274.814864 
L 199.942105 253.61145 
L 223.970813 227.508298 
L 247.999522 198.753404 
L 272.02823 168.280601 
L 296.056938 252.065613 
L 320.085646 247.882255 
L 344.114354 216.126109 
L 368.143062 238.060065 
L 392.17177 205.015049 
L 416.200478 191.681885 
L 440.229187 152.367258 
L 464.257895 233.879783 
L 488.286603 261.912042 
L 512.315311 217.615772 
L 536.344019 170.672478 
L 560.372727 124.261375 
" clip-path="url(#pbb1791d917)" style="fill: none; stroke-dasharray: 3.7,1.6; stroke-dashoffset: 0; stroke: #8c564b; stroke-opacity: 0.6"/>
   </g>
   <g id="line2d_103">
    <path d="M 103.827273 168.537561 
L 127.855981 161.067104 
L 151.884689 290.835867 
L 175.913397 273.707616 
L 199.942105 252.64528 
L 223.970813 229.893874 
L 247.999522 203.100904 
L 272.02823 174.242388 
L 296.056938 253.971152 
L 320.085646 250.819252 
L 344.114354 220.540288 
L 368.143062 242.077001 
L 392.17177 210.390499 
L 416.200478 196.639469 
L 440.229187 157.536127 
L 464.257895 235.117641 
L 488.286603 261.332277 
L 512.315311 215.771195 
L 536.344019 169.11914 
L 560.372727 122.291438 
" clip-path="url(#pbb1791d917)" style="fill: none; stroke-dasharray: 3.7,1.6; stroke-dashoffset: 0; stroke: #e377c2; stroke-opacity: 0.6"/>
   </g>
   <g id="line2d_104">
    <path d="M 103.827273 168.537561 
L 127.855981 162.32052 
L 151.884689 296.828119 
L 175.913397 281.647685 
L 199.942105 262.666088 
L 223.970813 237.820565 
L 247.999522 208.940806 
L 272.02823 175.846139 
L 296.056938 254.83257 
L 320.085646 248.603118 
L 344.114354 214.018511 
L 368.143062 232.834034 
L 392.17177 196.766638 
L 416.200478 179.888673 
L 440.229187 136.512611 
L 464.257895 220.755009 
L 488.286603 246.407244 
L 512.315311 195.428564 
L 536.344019 142.142941 
L 560.372727 88.890421 
" clip-path="url(#pbb1791d917)" style="fill: none; stroke-dasharray: 3.7,1.6; stroke-dashoffset: 0; stroke: #7f7f7f; stroke-opacity: 0.6"/>
   </g>
   <g id="line2d_105">
    <path d="M 103.827273 168.537561 
L 127.855981 159.608012 
L 151.884689 289.347582 
L 175.913397 267.211335 
L 199.942105 238.434393 
L 223.970813 205.272334 
L 247.999522 168.899224 
L 272.02823 131.196906 
L 296.056938 229.51535 
L 320.085646 219.508648 
L 344.114354 180.461203 
L 368.143062 203.581463 
L 392.17177 164.891283 
L 416.200478 148.584943 
L 440.229187 104.456361 
L 464.257895 201.668869 
L 488.286603 232.919235 
L 512.315311 184.132268 
L 536.344019 132.586485 
L 560.372727 79.625385 
" clip-path="url(#pbb1791d917)" style="fill: none; stroke-dasharray: 3.7,1.6; stroke-dashoffset: 0; stroke: #bcbd22; stroke-opacity: 0.6"/>
   </g>
   <g id="line2d_106">
    <path d="M 103.827273 168.537561 
L 127.855981 160.017918 
L 151.884689 291.526681 
L 175.913397 273.491147 
L 199.942105 252.296697 
L 223.970813 226.397033 
L 247.999522 198.445228 
L 272.02823 167.062049 
L 296.056938 250.499793 
L 320.085646 245.518873 
L 344.114354 212.3087 
L 368.143062 232.54804 
L 392.17177 197.745275 
L 416.200478 181.773589 
L 440.229187 140.024851 
L 464.257895 224.543475 
L 488.286603 252.897907 
L 512.315311 205.860548 
L 536.344019 156.817977 
L 560.372727 107.548385 
" clip-path="url(#pbb1791d917)" style="fill: none; stroke-dasharray: 3.7,1.6; stroke-dashoffset: 0; stroke: #17becf; stroke-opacity: 0.6"/>
   </g>
   <g id="line2d_107">
    <path d="M 103.827273 168.537561 
L 127.855981 160.141831 
L 151.884689 290.67282 
L 175.913397 272.247862 
L 199.942105 249.185641 
L 223.970813 223.811429 
L 247.999522 195.394003 
L 272.02823 165.080296 
L 296.056938 250.053708 
L 320.085646 246.093755 
L 344.114354 215.279344 
L 368.143062 238.138935 
L 392.17177 206.645628 
L 416.200478 194.045628 
L 440.229187 155.748531 
L 464.257895 237.62592 
L 488.286603 267.691791 
L 512.315311 224.527918 
L 536.344019 178.697846 
L 560.372727 130.431131 
" clip-path="url(#pbb1791d917)" style="fill: none; stroke-dasharray: 3.7,1.6; stroke-dashoffset: 0; stroke: #1f77b4; stroke-opacity: 0.6"/>
   </g>
   <g id="line2d_108">
    <path d="M 103.827273 168.537561 
L 127.855981 161.147602 
L 151.884689 293.383734 
L 175.913397 279.532241 
L 199.942105 261.033944 
L 223.970813 241.026971 
L 247.999522 217.820751 
L 272.02823 192.840108 
L 296.056938 264.045508 
L 320.085646 264.922302 
L 344.114354 239.605987 
L 368.143062 260.988759 
L 392.17177 234.298191 
L 416.200478 223.95774 
L 440.229187 190.090559 
L 464.257895 256.284426 
L 488.286603 282.440813 
L 512.315311 246.137712 
L 536.344019 206.044336 
L 560.372727 166.418753 
" clip-path="url(#pbb1791d917)" style="fill: none; stroke-dasharray: 3.7,1.6; stroke-dashoffset: 0; stroke: #ff7f0e; stroke-opacity: 0.6"/>
   </g>
   <g id="line2d_109">
    <path d="M 103.827273 168.537561 
L 127.855981 158.530969 
L 151.884689 288.176642 
L 175.913397 269.749333 
L 199.942105 247.981947 
L 223.970813 222.810026 
L 247.999522 193.69205 
L 272.02823 162.258984 
L 296.056938 246.870876 
L 320.085646 242.335679 
L 344.114354 208.692626 
L 368.143062 229.160255 
L 392.17177 193.46134 
L 416.200478 176.443725 
L 440.229187 133.648695 
L 464.257895 217.236256 
L 488.286603 243.877802 
L 512.315311 196.729555 
L 536.344019 147.0307 
L 560.372727 97.458834 
" clip-path="url(#pbb1791d917)" style="fill: none; stroke-dasharray: 3.7,1.6; stroke-dashoffset: 0; stroke: #2ca02c; stroke-opacity: 0.6"/>
   </g>
   <g id="line2d_110">
    <path d="M 103.827273 168.537561 
L 127.855981 160.948076 
L 151.884689 294.167433 
L 175.913397 279.070116 
L 199.942105 260.914455 
L 223.970813 240.864486 
L 247.999522 218.20502 
L 272.02823 192.638776 
L 296.056938 264.753166 
L 320.085646 263.982918 
L 344.114354 235.636084 
L 368.143062 255.983599 
L 392.17177 226.276441 
L 416.200478 212.939478 
L 440.229187 174.182005 
L 464.257895 246.429675 
L 488.286603 271.132397 
L 512.315311 228.079774 
L 536.344019 182.270506 
L 560.372727 135.241287 
" clip-path="url(#pbb1791d917)" style="fill: none; stroke-dasharray: 3.7,1.6; stroke-dashoffset: 0; stroke: #d62728; stroke-opacity: 0.6"/>
   </g>
   <g id="line2d_111">
    <path d="M 103.827273 168.537561 
L 127.855981 160.563495 
L 151.884689 291.232189 
L 175.913397 270.652494 
L 199.942105 246.055249 
L 223.970813 216.858093 
L 247.999522 184.71855 
L 272.02823 147.256627 
L 296.056938 237.921139 
L 320.085646 228.221957 
L 344.114354 187.266802 
L 368.143062 206.562417 
L 392.17177 165.401404 
L 416.200478 145.735679 
L 440.229187 97.983427 
L 464.257895 193.184572 
L 488.286603 219.898114 
L 512.315311 165.077423 
L 536.344019 110.793626 
L 560.372727 55.8 
" clip-path="url(#pbb1791d917)" style="fill: none; stroke-dasharray: 3.7,1.6; stroke-dashoffset: 0; stroke: #9467bd; stroke-opacity: 0.6"/>
   </g>
   <g id="line2d_112">
    <path d="M 103.827273 168.537561 
L 127.855981 160.678906 
L 151.884689 294.135502 
L 175.913397 278.829461 
L 199.942105 259.082256 
L 223.970813 236.479575 
L 247.999522 211.713695 
L 272.02823 183.98712 
L 296.056938 261.265165 
L 320.085646 259.994565 
L 344.114354 232.113171 
L 368.143062 253.915255 
L 392.17177 224.612215 
L 416.200478 212.903118 
L 440.229187 176.714523 
L 464.257895 252.07918 
L 488.286603 281.024774 
L 512.315311 241.229873 
L 536.344019 199.092213 
L 560.372727 156.212344 
" clip-path="url(#pbb1791d917)" style="fill: none; stroke-dasharray: 3.7,1.6; stroke-dashoffset: 0; stroke: #8c564b; stroke-opacity: 0.6"/>
   </g>
   <g id="line2d_113">
    <path d="M 103.827273 168.537561 
L 127.855981 160.156303 
L 151.884689 290.640255 
L 175.913397 272.373594 
L 199.942105 249.048108 
L 223.970813 222.981502 
L 247.999522 195.170527 
L 272.02823 164.616389 
L 296.056938 248.253812 
L 320.085646 243.505883 
L 344.114354 209.661134 
L 368.143062 230.249419 
L 392.17177 195.130451 
L 416.200478 179.93064 
L 440.229187 139.529925 
L 464.257895 223.52685 
L 488.286603 252.914911 
L 512.315311 209.660048 
L 536.344019 164.513576 
L 560.372727 119.448867 
" clip-path="url(#pbb1791d917)" style="fill: none; stroke-dasharray: 3.7,1.6; stroke-dashoffset: 0; stroke: #e377c2; stroke-opacity: 0.6"/>
   </g>
   <g id="line2d_114">
    <path d="M 103.827273 168.537561 
L 127.855981 160.217445 
L 151.884689 291.447565 
L 175.913397 273.949135 
L 199.942105 251.623493 
L 223.970813 226.604036 
L 247.999522 197.065318 
L 272.02823 167.050651 
L 296.056938 248.893092 
L 320.085646 244.408183 
L 344.114354 213.461358 
L 368.143062 235.280989 
L 392.17177 204.316797 
L 416.200478 191.897149 
L 440.229187 153.900336 
L 464.257895 233.825696 
L 488.286603 263.6555 
L 512.315311 221.057464 
L 536.344019 177.014807 
L 560.372727 132.607649 
" clip-path="url(#pbb1791d917)" style="fill: none; stroke-dasharray: 3.7,1.6; stroke-dashoffset: 0; stroke: #7f7f7f; stroke-opacity: 0.6"/>
   </g>
   <g id="line2d_115">
    <path d="M 103.827273 168.537561 
L 127.855981 159.397271 
L 151.884689 291.199283 
L 175.913397 272.51525 
L 199.942105 250.855547 
L 223.970813 225.219581 
L 247.999522 195.219026 
L 272.02823 161.282704 
L 296.056938 246.10081 
L 320.085646 237.766474 
L 344.114354 201.253717 
L 368.143062 221.889758 
L 392.17177 185.172771 
L 416.200478 169.003006 
L 440.229187 125.476983 
L 464.257895 217.420949 
L 488.286603 247.121414 
L 512.315311 199.025825 
L 536.344019 149.479102 
L 560.372727 100.68291 
" clip-path="url(#pbb1791d917)" style="fill: none; stroke-dasharray: 3.7,1.6; stroke-dashoffset: 0; stroke: #bcbd22; stroke-opacity: 0.6"/>
   </g>
   <g id="line2d_116">
    <path d="M 103.827273 168.537561 
L 127.855981 159.952254 
L 151.884689 291.554922 
L 175.913397 274.57182 
L 199.942105 254.289605 
L 223.970813 229.557392 
L 247.999522 202.760896 
L 272.02823 173.451867 
L 296.056938 256.243363 
L 320.085646 253.003911 
L 344.114354 221.735998 
L 368.143062 243.864416 
L 392.17177 210.787019 
L 416.200478 195.894005 
L 440.229187 155.809854 
L 464.257895 238.556439 
L 488.286603 267.369076 
L 512.315311 222.140115 
L 536.344019 173.983564 
L 560.372727 123.299199 
" clip-path="url(#pbb1791d917)" style="fill: none; stroke-dasharray: 3.7,1.6; stroke-dashoffset: 0; stroke: #17becf; stroke-opacity: 0.6"/>
   </g>
   <g id="line2d_117">
    <path d="M 103.827273 168.537561 
L 127.855981 160.571843 
L 151.884689 292.173088 
L 175.913397 274.968914 
L 199.942105 253.77242 
L 223.970813 229.243908 
L 247.999522 201.833983 
L 272.02823 171.661578 
L 296.056938 253.276598 
L 320.085646 249.468507 
L 344.114354 217.769793 
L 368.143062 239.096895 
L 392.17177 206.302286 
L 416.200478 192.069651 
L 440.229187 152.449503 
L 464.257895 233.403548 
L 488.286603 261.50488 
L 512.315311 217.466413 
L 536.344019 171.112179 
L 560.372727 124.363238 
" clip-path="url(#pbb1791d917)" style="fill: none; stroke: #000000; stroke-width: 2.5; stroke-linecap: square"/>
   </g>
   <g id="patch_3">
    <path d="M 81 320.4 
L 81 43.2 
" style="fill: none; stroke: #000000; stroke-width: 0.8; stroke-linejoin: miter; stroke-linecap: square"/>
   </g>
   <g id="patch_4">
    <path d="M 583.2 320.4 
L 583.2 43.2 
" style="fill: none; stroke: #000000; stroke-width: 0.8; stroke-linejoin: miter; stroke-linecap: square"/>
   </g>
   <g id="patch_5">
    <path d="M 81 320.4 
L 583.2 320.4 
" style="fill: none; stroke: #000000; stroke-width: 0.8; stroke-linejoin: miter; stroke-linecap: square"/>
   </g>
   <g id="patch_6">
    <path d="M 81 43.2 
L 583.2 43.2 
" style="fill: none; stroke: #000000; stroke-width: 0.8; stroke-linejoin: miter; stroke-linecap: square"/>
   </g>
   <g id="legend_1">
    <g id="patch_7">
     <path d="M 88 65.878125 
L 161.065625 65.878125 
Q 163.065625 65.878125 163.065625 63.878125 
L 163.065625 50.2 
Q 163.065625 48.2 161.065625 48.2 
L 88 48.2 
Q 86 48.2 86 50.2 
L 86 63.878125 
Q 86 65.878125 88 65.878125 
z
" style="fill: #ffffff; opacity: 0.8; stroke: #cccccc; stroke-linejoin: miter"/>
    </g>
    <g id="line2d_118">
     <path d="M 90 56.298437 
L 100 56.298437 
L 110 56.298437 
" style="fill: none; stroke: #000000; stroke-width: 2.5; stroke-linecap: square"/>
    </g>
    <g id="text_19">
     <!-- Average -->
     <g transform="translate(118 59.798437) scale(0.1 -0.1)">
      <defs>
       <path id="DejaVuSans-41" d="M 2188 4044 
L 1331 1722 
L 3047 1722 
L 2188 4044 
z
M 1831 4666 
L 2547 4666 
L 4325 0 
L 3669 0 
L 3244 1197 
L 1141 1197 
L 716 0 
L 50 0 
L 1831 4666 
z
" transform="scale(0.015625)"/>
       <path id="DejaVuSans-67" d="M 2906 1791 
Q 2906 2416 2648 2759 
Q 2391 3103 1925 3103 
Q 1463 3103 1205 2759 
Q 947 2416 947 1791 
Q 947 1169 1205 825 
Q 1463 481 1925 481 
Q 2391 481 2648 825 
Q 2906 1169 2906 1791 
z
M 3481 434 
Q 3481 -459 3084 -895 
Q 2688 -1331 1869 -1331 
Q 1566 -1331 1297 -1286 
Q 1028 -1241 775 -1147 
L 775 -588 
Q 1028 -725 1275 -790 
Q 1522 -856 1778 -856 
Q 2344 -856 2625 -561 
Q 2906 -266 2906 331 
L 2906 616 
Q 2728 306 2450 153 
Q 2172 0 1784 0 
Q 1141 0 747 490 
Q 353 981 353 1791 
Q 353 2603 747 3093 
Q 1141 3584 1784 3584 
Q 2172 3584 2450 3431 
Q 2728 3278 2906 2969 
L 2906 3500 
L 3481 3500 
L 3481 434 
z
" transform="scale(0.015625)"/>
      </defs>
      <use xlink:href="#DejaVuSans-41"/>
      <use xlink:href="#DejaVuSans-76" x="62.533203"/>
      <use xlink:href="#DejaVuSans-65" x="121.712891"/>
      <use xlink:href="#DejaVuSans-72" x="183.236328"/>
      <use xlink:href="#DejaVuSans-61" x="224.349609"/>
      <use xlink:href="#DejaVuSans-67" x="285.628906"/>
      <use xlink:href="#DejaVuSans-65" x="349.105469"/>
     </g>
    </g>
   </g>
  </g>
 </g>
 <defs>
  <clipPath id="pbb1791d917">
   <rect x="81" y="43.2" width="502.2" height="277.2"/>
  </clipPath>
 </defs>
</svg>
