<?xml version="1.0" encoding="utf-8" standalone="no"?>
<!DOCTYPE svg PUBLIC "-//W3C//DTD SVG 1.1//EN"
  "http://www.w3.org/Graphics/SVG/1.1/DTD/svg11.dtd">
<svg xmlns:xlink="http://www.w3.org/1999/xlink" width="648pt" height="360pt" viewBox="0 0 648 360" xmlns="http://www.w3.org/2000/svg" version="1.1">
 <metadata>
  <rdf:RDF xmlns:dc="http://purl.org/dc/elements/1.1/" xmlns:cc="http://creativecommons.org/ns#" xmlns:rdf="http://www.w3.org/1999/02/22-rdf-syntax-ns#">
   <cc:Work>
    <dc:type rdf:resource="http://purl.org/dc/dcmitype/StillImage"/>
    <dc:date>2025-09-12T10:56:54.909767</dc:date>
    <dc:format>image/svg+xml</dc:format>
    <dc:creator>
     <cc:Agent>
      <dc:title>Matplotlib v3.7.2, https://matplotlib.org/</dc:title>
     </cc:Agent>
    </dc:creator>
   </cc:Work>
  </rdf:RDF>
 </metadata>
 <defs>
  <style type="text/css">*{stroke-linejoin: round; stroke-linecap: butt}</style>
 </defs>
 <g id="figure_1">
  <g id="patch_1">
   <path d="M 0 360 
L 648 360 
L 648 0 
L 0 0 
z
" style="fill: #ffffff"/>
  </g>
  <g id="axes_1">
   <g id="patch_2">
    <path d="M 81 320.4 
L 583.2 320.4 
L 583.2 43.2 
L 81 43.2 
z
" style="fill: #ffffff"/>
   </g>
   <g id="matplotlib.axis_1">
    <g id="xtick_1">
     <g id="line2d_1">
      <defs>
       <path id="m6c510e2753" d="M 0 0 
L 0 3.5 
" style="stroke: #000000; stroke-width: 0.8"/>
      </defs>
      <g>
       <use xlink:href="#m6c510e2753" x="103.827273" y="320.4" style="stroke: #000000; stroke-width: 0.8"/>
      </g>
     </g>
     <g id="text_1">
      <!-- 2005 -->
      <g transform="translate(88.557273 336.518125) scale(0.12 -0.12)">
       <defs>
        <path id="DejaVuSans-32" d="M 1228 531 
L 3431 531 
L 3431 0 
L 469 0 
L 469 531 
Q 828 903 1448 1529 
Q 2069 2156 2228 2338 
Q 2531 2678 2651 2914 
Q 2772 3150 2772 3378 
Q 2772 3750 2511 3984 
Q 2250 4219 1831 4219 
Q 1534 4219 1204 4116 
Q 875 4013 500 3803 
L 500 4441 
Q 881 4594 1212 4672 
Q 1544 4750 1819 4750 
Q 2544 4750 2975 4387 
Q 3406 4025 3406 3419 
Q 3406 3131 3298 2873 
Q 3191 2616 2906 2266 
Q 2828 2175 2409 1742 
Q 1991 1309 1228 531 
z
" transform="scale(0.015625)"/>
        <path id="DejaVuSans-30" d="M 2034 4250 
Q 1547 4250 1301 3770 
Q 1056 3291 1056 2328 
Q 1056 1369 1301 889 
Q 1547 409 2034 409 
Q 2525 409 2770 889 
Q 3016 1369 3016 2328 
Q 3016 3291 2770 3770 
Q 2525 4250 2034 4250 
z
M 2034 4750 
Q 2819 4750 3233 4129 
Q 3647 3509 3647 2328 
Q 3647 1150 3233 529 
Q 2819 -91 2034 -91 
Q 1250 -91 836 529 
Q 422 1150 422 2328 
Q 422 3509 836 4129 
Q 1250 4750 2034 4750 
z
" transform="scale(0.015625)"/>
        <path id="DejaVuSans-35" d="M 691 4666 
L 3169 4666 
L 3169 4134 
L 1269 4134 
L 1269 2991 
Q 1406 3038 1543 3061 
Q 1681 3084 1819 3084 
Q 2600 3084 3056 2656 
Q 3513 2228 3513 1497 
Q 3513 744 3044 326 
Q 2575 -91 1722 -91 
Q 1428 -91 1123 -41 
Q 819 9 494 109 
L 494 744 
Q 775 591 1075 516 
Q 1375 441 1709 441 
Q 2250 441 2565 725 
Q 2881 1009 2881 1497 
Q 2881 1984 2565 2268 
Q 2250 2553 1709 2553 
Q 1456 2553 1204 2497 
Q 953 2441 691 2322 
L 691 4666 
z
" transform="scale(0.015625)"/>
       </defs>
       <use xlink:href="#DejaVuSans-32"/>
       <use xlink:href="#DejaVuSans-30" x="63.623047"/>
       <use xlink:href="#DejaVuSans-30" x="127.246094"/>
       <use xlink:href="#DejaVuSans-35" x="190.869141"/>
      </g>
     </g>
    </g>
    <g id="xtick_2">
     <g id="line2d_2">
      <g>
       <use xlink:href="#m6c510e2753" x="163.899043" y="320.4" style="stroke: #000000; stroke-width: 0.8"/>
      </g>
     </g>
     <g id="text_2">
      <!-- 2007 -->
      <g transform="translate(148.629043 336.518125) scale(0.12 -0.12)">
       <defs>
        <path id="DejaVuSans-37" d="M 525 4666 
L 3525 4666 
L 3525 4397 
L 1831 0 
L 1172 0 
L 2766 4134 
L 525 4134 
L 525 4666 
z
" transform="scale(0.015625)"/>
       </defs>
       <use xlink:href="#DejaVuSans-32"/>
       <use xlink:href="#DejaVuSans-30" x="63.623047"/>
       <use xlink:href="#DejaVuSans-30" x="127.246094"/>
       <use xlink:href="#DejaVuSans-37" x="190.869141"/>
      </g>
     </g>
    </g>
    <g id="xtick_3">
     <g id="line2d_3">
      <g>
       <use xlink:href="#m6c510e2753" x="223.970813" y="320.4" style="stroke: #000000; stroke-width: 0.8"/>
      </g>
     </g>
     <g id="text_3">
      <!-- 2010 -->
      <g transform="translate(208.700813 336.518125) scale(0.12 -0.12)">
       <defs>
        <path id="DejaVuSans-31" d="M 794 531 
L 1825 531 
L 1825 4091 
L 703 3866 
L 703 4441 
L 1819 4666 
L 2450 4666 
L 2450 531 
L 3481 531 
L 3481 0 
L 794 0 
L 794 531 
z
" transform="scale(0.015625)"/>
       </defs>
       <use xlink:href="#DejaVuSans-32"/>
       <use xlink:href="#DejaVuSans-30" x="63.623047"/>
       <use xlink:href="#DejaVuSans-31" x="127.246094"/>
       <use xlink:href="#DejaVuSans-30" x="190.869141"/>
      </g>
     </g>
    </g>
    <g id="xtick_4">
     <g id="line2d_4">
      <g>
       <use xlink:href="#m6c510e2753" x="284.042584" y="320.4" style="stroke: #000000; stroke-width: 0.8"/>
      </g>
     </g>
     <g id="text_4">
      <!-- 2012 -->
      <g transform="translate(268.772584 336.518125) scale(0.12 -0.12)">
       <use xlink:href="#DejaVuSans-32"/>
       <use xlink:href="#DejaVuSans-30" x="63.623047"/>
       <use xlink:href="#DejaVuSans-31" x="127.246094"/>
       <use xlink:href="#DejaVuSans-32" x="190.869141"/>
      </g>
     </g>
    </g>
    <g id="xtick_5">
     <g id="line2d_5">
      <g>
       <use xlink:href="#m6c510e2753" x="344.114354" y="320.4" style="stroke: #000000; stroke-width: 0.8"/>
      </g>
     </g>
     <g id="text_5">
      <!-- 2015 -->
      <g transform="translate(328.844354 336.518125) scale(0.12 -0.12)">
       <use xlink:href="#DejaVuSans-32"/>
       <use xlink:href="#DejaVuSans-30" x="63.623047"/>
       <use xlink:href="#DejaVuSans-31" x="127.246094"/>
       <use xlink:href="#DejaVuSans-35" x="190.869141"/>
      </g>
     </g>
    </g>
    <g id="xtick_6">
     <g id="line2d_6">
      <g>
       <use xlink:href="#m6c510e2753" x="404.186124" y="320.4" style="stroke: #000000; stroke-width: 0.8"/>
      </g>
     </g>
     <g id="text_6">
      <!-- 2017 -->
      <g transform="translate(388.916124 336.518125) scale(0.12 -0.12)">
       <use xlink:href="#DejaVuSans-32"/>
       <use xlink:href="#DejaVuSans-30" x="63.623047"/>
       <use xlink:href="#DejaVuSans-31" x="127.246094"/>
       <use xlink:href="#DejaVuSans-37" x="190.869141"/>
      </g>
     </g>
    </g>
    <g id="xtick_7">
     <g id="line2d_7">
      <g>
       <use xlink:href="#m6c510e2753" x="464.257895" y="320.4" style="stroke: #000000; stroke-width: 0.8"/>
      </g>
     </g>
     <g id="text_7">
      <!-- 2020 -->
      <g transform="translate(448.987895 336.518125) scale(0.12 -0.12)">
       <use xlink:href="#DejaVuSans-32"/>
       <use xlink:href="#DejaVuSans-30" x="63.623047"/>
       <use xlink:href="#DejaVuSans-32" x="127.246094"/>
       <use xlink:href="#DejaVuSans-30" x="190.869141"/>
      </g>
     </g>
    </g>
    <g id="xtick_8">
     <g id="line2d_8">
      <g>
       <use xlink:href="#m6c510e2753" x="524.329665" y="320.4" style="stroke: #000000; stroke-width: 0.8"/>
      </g>
     </g>
     <g id="text_8">
      <!-- 2022 -->
      <g transform="translate(509.059665 336.518125) scale(0.12 -0.12)">
       <use xlink:href="#DejaVuSans-32"/>
       <use xlink:href="#DejaVuSans-30" x="63.623047"/>
       <use xlink:href="#DejaVuSans-32" x="127.246094"/>
       <use xlink:href="#DejaVuSans-32" x="190.869141"/>
      </g>
     </g>
    </g>
    <g id="text_9">
     <!-- Year -->
     <g transform="translate(316.21875 354.411406) scale(0.15 -0.15)">
      <defs>
       <path id="DejaVuSans-59" d="M -13 4666 
L 666 4666 
L 1959 2747 
L 3244 4666 
L 3922 4666 
L 2272 2222 
L 2272 0 
L 1638 0 
L 1638 2222 
L -13 4666 
z
" transform="scale(0.015625)"/>
       <path id="DejaVuSans-65" d="M 3597 1894 
L 3597 1613 
L 953 1613 
Q 991 1019 1311 708 
Q 1631 397 2203 397 
Q 2534 397 2845 478 
Q 3156 559 3463 722 
L 3463 178 
Q 3153 47 2828 -22 
Q 2503 -91 2169 -91 
Q 1331 -91 842 396 
Q 353 884 353 1716 
Q 353 2575 817 3079 
Q 1281 3584 2069 3584 
Q 2775 3584 3186 3129 
Q 3597 2675 3597 1894 
z
M 3022 2063 
Q 3016 2534 2758 2815 
Q 2500 3097 2075 3097 
Q 1594 3097 1305 2825 
Q 1016 2553 972 2059 
L 3022 2063 
z
" transform="scale(0.015625)"/>
       <path id="DejaVuSans-61" d="M 2194 1759 
Q 1497 1759 1228 1600 
Q 959 1441 959 1056 
Q 959 750 1161 570 
Q 1363 391 1709 391 
Q 2188 391 2477 730 
Q 2766 1069 2766 1631 
L 2766 1759 
L 2194 1759 
z
M 3341 1997 
L 3341 0 
L 2766 0 
L 2766 531 
Q 2569 213 2275 61 
Q 1981 -91 1556 -91 
Q 1019 -91 701 211 
Q 384 513 384 1019 
Q 384 1609 779 1909 
Q 1175 2209 1959 2209 
L 2766 2209 
L 2766 2266 
Q 2766 2663 2505 2880 
Q 2244 3097 1772 3097 
Q 1472 3097 1187 3025 
Q 903 2953 641 2809 
L 641 3341 
Q 956 3463 1253 3523 
Q 1550 3584 1831 3584 
Q 2591 3584 2966 3190 
Q 3341 2797 3341 1997 
z
" transform="scale(0.015625)"/>
       <path id="DejaVuSans-72" d="M 2631 2963 
Q 2534 3019 2420 3045 
Q 2306 3072 2169 3072 
Q 1681 3072 1420 2755 
Q 1159 2438 1159 1844 
L 1159 0 
L 581 0 
L 581 3500 
L 1159 3500 
L 1159 2956 
Q 1341 3275 1631 3429 
Q 1922 3584 2338 3584 
Q 2397 3584 2469 3576 
Q 2541 3569 2628 3553 
L 2631 2963 
z
" transform="scale(0.015625)"/>
      </defs>
      <use xlink:href="#DejaVuSans-59"/>
      <use xlink:href="#DejaVuSans-65" x="47.833984"/>
      <use xlink:href="#DejaVuSans-61" x="109.357422"/>
      <use xlink:href="#DejaVuSans-72" x="170.636719"/>
     </g>
    </g>
   </g>
   <g id="matplotlib.axis_2">
    <g id="ytick_1">
     <g id="line2d_9">
      <defs>
       <path id="m5d168310f9" d="M 0 0 
L -3.5 0 
" style="stroke: #000000; stroke-width: 0.8"/>
      </defs>
      <g>
       <use xlink:href="#m5d168310f9" x="81" y="293.724647" style="stroke: #000000; stroke-width: 0.8"/>
      </g>
     </g>
     <g id="text_10">
      <!-- 15.0 -->
      <g transform="translate(47.28125 298.283709) scale(0.12 -0.12)">
       <defs>
        <path id="DejaVuSans-2e" d="M 684 794 
L 1344 794 
L 1344 0 
L 684 0 
L 684 794 
z
" transform="scale(0.015625)"/>
       </defs>
       <use xlink:href="#DejaVuSans-31"/>
       <use xlink:href="#DejaVuSans-35" x="63.623047"/>
       <use xlink:href="#DejaVuSans-2e" x="127.246094"/>
       <use xlink:href="#DejaVuSans-30" x="159.033203"/>
      </g>
     </g>
    </g>
    <g id="ytick_2">
     <g id="line2d_10">
      <g>
       <use xlink:href="#m5d168310f9" x="81" y="257.218167" style="stroke: #000000; stroke-width: 0.8"/>
      </g>
     </g>
     <g id="text_11">
      <!-- 17.5 -->
      <g transform="translate(47.28125 261.77723) scale(0.12 -0.12)">
       <use xlink:href="#DejaVuSans-31"/>
       <use xlink:href="#DejaVuSans-37" x="63.623047"/>
       <use xlink:href="#DejaVuSans-2e" x="127.246094"/>
       <use xlink:href="#DejaVuSans-35" x="159.033203"/>
      </g>
     </g>
    </g>
    <g id="ytick_3">
     <g id="line2d_11">
      <g>
       <use xlink:href="#m5d168310f9" x="81" y="220.711688" style="stroke: #000000; stroke-width: 0.8"/>
      </g>
     </g>
     <g id="text_12">
      <!-- 20.0 -->
      <g transform="translate(47.28125 225.27075) scale(0.12 -0.12)">
       <use xlink:href="#DejaVuSans-32"/>
       <use xlink:href="#DejaVuSans-30" x="63.623047"/>
       <use xlink:href="#DejaVuSans-2e" x="127.246094"/>
       <use xlink:href="#DejaVuSans-30" x="159.033203"/>
      </g>
     </g>
    </g>
    <g id="ytick_4">
     <g id="line2d_12">
      <g>
       <use xlink:href="#m5d168310f9" x="81" y="184.205208" style="stroke: #000000; stroke-width: 0.8"/>
      </g>
     </g>
     <g id="text_13">
      <!-- 22.5 -->
      <g transform="translate(47.28125 188.76427) scale(0.12 -0.12)">
       <use xlink:href="#DejaVuSans-32"/>
       <use xlink:href="#DejaVuSans-32" x="63.623047"/>
       <use xlink:href="#DejaVuSans-2e" x="127.246094"/>
       <use xlink:href="#DejaVuSans-35" x="159.033203"/>
      </g>
     </g>
    </g>
    <g id="ytick_5">
     <g id="line2d_13">
      <g>
       <use xlink:href="#m5d168310f9" x="81" y="147.698728" style="stroke: #000000; stroke-width: 0.8"/>
      </g>
     </g>
     <g id="text_14">
      <!-- 25.0 -->
      <g transform="translate(47.28125 152.257791) scale(0.12 -0.12)">
       <use xlink:href="#DejaVuSans-32"/>
       <use xlink:href="#DejaVuSans-35" x="63.623047"/>
       <use xlink:href="#DejaVuSans-2e" x="127.246094"/>
       <use xlink:href="#DejaVuSans-30" x="159.033203"/>
      </g>
     </g>
    </g>
    <g id="ytick_6">
     <g id="line2d_14">
      <g>
       <use xlink:href="#m5d168310f9" x="81" y="111.192249" style="stroke: #000000; stroke-width: 0.8"/>
      </g>
     </g>
     <g id="text_15">
      <!-- 27.5 -->
      <g transform="translate(47.28125 115.751311) scale(0.12 -0.12)">
       <use xlink:href="#DejaVuSans-32"/>
       <use xlink:href="#DejaVuSans-37" x="63.623047"/>
       <use xlink:href="#DejaVuSans-2e" x="127.246094"/>
       <use xlink:href="#DejaVuSans-35" x="159.033203"/>
      </g>
     </g>
    </g>
    <g id="ytick_7">
     <g id="line2d_15">
      <g>
       <use xlink:href="#m5d168310f9" x="81" y="74.685769" style="stroke: #000000; stroke-width: 0.8"/>
      </g>
     </g>
     <g id="text_16">
      <!-- 30.0 -->
      <g transform="translate(47.28125 79.244832) scale(0.12 -0.12)">
       <defs>
        <path id="DejaVuSans-33" d="M 2597 2516 
Q 3050 2419 3304 2112 
Q 3559 1806 3559 1356 
Q 3559 666 3084 287 
Q 2609 -91 1734 -91 
Q 1441 -91 1130 -33 
Q 819 25 488 141 
L 488 750 
Q 750 597 1062 519 
Q 1375 441 1716 441 
Q 2309 441 2620 675 
Q 2931 909 2931 1356 
Q 2931 1769 2642 2001 
Q 2353 2234 1838 2234 
L 1294 2234 
L 1294 2753 
L 1863 2753 
Q 2328 2753 2575 2939 
Q 2822 3125 2822 3475 
Q 2822 3834 2567 4026 
Q 2313 4219 1838 4219 
Q 1578 4219 1281 4162 
Q 984 4106 628 3988 
L 628 4550 
Q 988 4650 1302 4700 
Q 1616 4750 1894 4750 
Q 2613 4750 3031 4423 
Q 3450 4097 3450 3541 
Q 3450 3153 3228 2886 
Q 3006 2619 2597 2516 
z
" transform="scale(0.015625)"/>
       </defs>
       <use xlink:href="#DejaVuSans-33"/>
       <use xlink:href="#DejaVuSans-30" x="63.623047"/>
       <use xlink:href="#DejaVuSans-2e" x="127.246094"/>
       <use xlink:href="#DejaVuSans-30" x="159.033203"/>
      </g>
     </g>
    </g>
    <g id="text_17">
     <!-- Total coral cover (%) -->
     <g transform="translate(40.161719 258.769922) rotate(-90) scale(0.15 -0.15)">
      <defs>
       <path id="DejaVuSans-54" d="M -19 4666 
L 3928 4666 
L 3928 4134 
L 2272 4134 
L 2272 0 
L 1638 0 
L 1638 4134 
L -19 4134 
L -19 4666 
z
" transform="scale(0.015625)"/>
       <path id="DejaVuSans-6f" d="M 1959 3097 
Q 1497 3097 1228 2736 
Q 959 2375 959 1747 
Q 959 1119 1226 758 
Q 1494 397 1959 397 
Q 2419 397 2687 759 
Q 2956 1122 2956 1747 
Q 2956 2369 2687 2733 
Q 2419 3097 1959 3097 
z
M 1959 3584 
Q 2709 3584 3137 3096 
Q 3566 2609 3566 1747 
Q 3566 888 3137 398 
Q 2709 -91 1959 -91 
Q 1206 -91 779 398 
Q 353 888 353 1747 
Q 353 2609 779 3096 
Q 1206 3584 1959 3584 
z
" transform="scale(0.015625)"/>
       <path id="DejaVuSans-74" d="M 1172 4494 
L 1172 3500 
L 2356 3500 
L 2356 3053 
L 1172 3053 
L 1172 1153 
Q 1172 725 1289 603 
Q 1406 481 1766 481 
L 2356 481 
L 2356 0 
L 1766 0 
Q 1100 0 847 248 
Q 594 497 594 1153 
L 594 3053 
L 172 3053 
L 172 3500 
L 594 3500 
L 594 4494 
L 1172 4494 
z
" transform="scale(0.015625)"/>
       <path id="DejaVuSans-6c" d="M 603 4863 
L 1178 4863 
L 1178 0 
L 603 0 
L 603 4863 
z
" transform="scale(0.015625)"/>
       <path id="DejaVuSans-20" transform="scale(0.015625)"/>
       <path id="DejaVuSans-63" d="M 3122 3366 
L 3122 2828 
Q 2878 2963 2633 3030 
Q 2388 3097 2138 3097 
Q 1578 3097 1268 2742 
Q 959 2388 959 1747 
Q 959 1106 1268 751 
Q 1578 397 2138 397 
Q 2388 397 2633 464 
Q 2878 531 3122 666 
L 3122 134 
Q 2881 22 2623 -34 
Q 2366 -91 2075 -91 
Q 1284 -91 818 406 
Q 353 903 353 1747 
Q 353 2603 823 3093 
Q 1294 3584 2113 3584 
Q 2378 3584 2631 3529 
Q 2884 3475 3122 3366 
z
" transform="scale(0.015625)"/>
       <path id="DejaVuSans-76" d="M 191 3500 
L 800 3500 
L 1894 563 
L 2988 3500 
L 3597 3500 
L 2284 0 
L 1503 0 
L 191 3500 
z
" transform="scale(0.015625)"/>
       <path id="DejaVuSans-28" d="M 1984 4856 
Q 1566 4138 1362 3434 
Q 1159 2731 1159 2009 
Q 1159 1288 1364 580 
Q 1569 -128 1984 -844 
L 1484 -844 
Q 1016 -109 783 600 
Q 550 1309 550 2009 
Q 550 2706 781 3412 
Q 1013 4119 1484 4856 
L 1984 4856 
z
" transform="scale(0.015625)"/>
       <path id="DejaVuSans-25" d="M 4653 2053 
Q 4381 2053 4226 1822 
Q 4072 1591 4072 1178 
Q 4072 772 4226 539 
Q 4381 306 4653 306 
Q 4919 306 5073 539 
Q 5228 772 5228 1178 
Q 5228 1588 5073 1820 
Q 4919 2053 4653 2053 
z
M 4653 2450 
Q 5147 2450 5437 2106 
Q 5728 1763 5728 1178 
Q 5728 594 5436 251 
Q 5144 -91 4653 -91 
Q 4153 -91 3862 251 
Q 3572 594 3572 1178 
Q 3572 1766 3864 2108 
Q 4156 2450 4653 2450 
z
M 1428 4353 
Q 1159 4353 1004 4120 
Q 850 3888 850 3481 
Q 850 3069 1003 2837 
Q 1156 2606 1428 2606 
Q 1700 2606 1854 2837 
Q 2009 3069 2009 3481 
Q 2009 3884 1853 4118 
Q 1697 4353 1428 4353 
z
M 4250 4750 
L 4750 4750 
L 1831 -91 
L 1331 -91 
L 4250 4750 
z
M 1428 4750 
Q 1922 4750 2215 4408 
Q 2509 4066 2509 3481 
Q 2509 2891 2217 2550 
Q 1925 2209 1428 2209 
Q 931 2209 642 2551 
Q 353 2894 353 3481 
Q 353 4063 643 4406 
Q 934 4750 1428 4750 
z
" transform="scale(0.015625)"/>
       <path id="DejaVuSans-29" d="M 513 4856 
L 1013 4856 
Q 1481 4119 1714 3412 
Q 1947 2706 1947 2009 
Q 1947 1309 1714 600 
Q 1481 -109 1013 -844 
L 513 -844 
Q 928 -128 1133 580 
Q 1338 1288 1338 2009 
Q 1338 2731 1133 3434 
Q 928 4138 513 4856 
z
" transform="scale(0.015625)"/>
      </defs>
      <use xlink:href="#DejaVuSans-54"/>
      <use xlink:href="#DejaVuSans-6f" x="44.083984"/>
      <use xlink:href="#DejaVuSans-74" x="105.265625"/>
      <use xlink:href="#DejaVuSans-61" x="144.474609"/>
      <use xlink:href="#DejaVuSans-6c" x="205.753906"/>
      <use xlink:href="#DejaVuSans-20" x="233.537109"/>
      <use xlink:href="#DejaVuSans-63" x="265.324219"/>
      <use xlink:href="#DejaVuSans-6f" x="320.304688"/>
      <use xlink:href="#DejaVuSans-72" x="381.486328"/>
      <use xlink:href="#DejaVuSans-61" x="422.599609"/>
      <use xlink:href="#DejaVuSans-6c" x="483.878906"/>
      <use xlink:href="#DejaVuSans-20" x="511.662109"/>
      <use xlink:href="#DejaVuSans-63" x="543.449219"/>
      <use xlink:href="#DejaVuSans-6f" x="598.429688"/>
      <use xlink:href="#DejaVuSans-76" x="659.611328"/>
      <use xlink:href="#DejaVuSans-65" x="718.791016"/>
      <use xlink:href="#DejaVuSans-72" x="780.314453"/>
      <use xlink:href="#DejaVuSans-20" x="821.427734"/>
      <use xlink:href="#DejaVuSans-28" x="853.214844"/>
      <use xlink:href="#DejaVuSans-25" x="892.228516"/>
      <use xlink:href="#DejaVuSans-29" x="987.248047"/>
     </g>
    </g>
   </g>
   <g id="line2d_16">
    <path d="M 103.827273 251.37713 
L 127.855981 301.128857 
L 151.884689 288.169632 
L 175.913397 272.474031 
L 199.942105 258.12658 
L 223.970813 243.029598 
L 247.999522 228.161375 
L 272.02823 213.393432 
L 296.056938 198.952543 
L 320.085646 184.652088 
L 344.114354 171.022923 
L 368.143062 157.335475 
L 392.17177 144.020145 
L 416.200478 131.138028 
L 440.229187 118.601943 
L 464.257895 106.440485 
L 488.286603 94.390126 
L 512.315311 82.874439 
L 536.344019 71.823794 
L 560.372727 61.295925 
" clip-path="url(#p49d692b3c1)" style="fill: none; stroke-dasharray: 3.7,1.6; stroke-dashoffset: 0; stroke: #1f77b4; stroke-opacity: 0.6"/>
   </g>
   <g id="line2d_17">
    <path d="M 103.827273 251.37713 
L 127.855981 301.496721 
L 151.884689 288.654047 
L 175.913397 272.921405 
L 199.942105 258.419496 
L 223.970813 243.357232 
L 247.999522 228.606332 
L 272.02823 213.87772 
L 296.056938 199.496006 
L 320.085646 185.264805 
L 344.114354 171.553164 
L 368.143062 157.853748 
L 392.17177 144.454058 
L 416.200478 131.709696 
L 440.229187 119.250379 
L 464.257895 107.235083 
L 488.286603 95.268327 
L 512.315311 83.735408 
L 536.344019 72.522835 
L 560.372727 61.6841 
" clip-path="url(#p49d692b3c1)" style="fill: none; stroke-dasharray: 3.7,1.6; stroke-dashoffset: 0; stroke: #ff7f0e; stroke-opacity: 0.6"/>
   </g>
   <g id="line2d_18">
    <path d="M 103.827273 251.37713 
L 127.855981 305.496482 
L 151.884689 292.491667 
L 175.913397 276.904237 
L 199.942105 262.509151 
L 223.970813 247.464952 
L 247.999522 232.595432 
L 272.02823 218.223829 
L 296.056938 203.730382 
L 320.085646 189.660439 
L 344.114354 175.650339 
L 368.143062 162.320938 
L 392.17177 148.98424 
L 416.200478 136.091965 
L 440.229187 123.44485 
L 464.257895 111.23416 
L 488.286603 99.565719 
L 512.315311 88.090082 
L 536.344019 76.877668 
L 560.372727 66.118164 
" clip-path="url(#p49d692b3c1)" style="fill: none; stroke-dasharray: 3.7,1.6; stroke-dashoffset: 0; stroke: #2ca02c; stroke-opacity: 0.6"/>
   </g>
   <g id="line2d_19">
    <path d="M 103.827273 251.37713 
L 127.855981 301.799785 
L 151.884689 289.109791 
L 175.913397 273.243456 
L 199.942105 258.82786 
L 223.970813 243.748436 
L 247.999522 229.018799 
L 272.02823 214.400947 
L 296.056938 200.058797 
L 320.085646 185.946538 
L 344.114354 171.811489 
L 368.143062 158.307333 
L 392.17177 144.833895 
L 416.200478 131.959778 
L 440.229187 119.314594 
L 464.257895 107.024646 
L 488.286603 95.139781 
L 512.315311 83.611954 
L 536.344019 72.536169 
L 560.372727 61.818845 
" clip-path="url(#p49d692b3c1)" style="fill: none; stroke-dasharray: 3.7,1.6; stroke-dashoffset: 0; stroke: #d62728; stroke-opacity: 0.6"/>
   </g>
   <g id="line2d_20">
    <path d="M 103.827273 251.37713 
L 127.855981 303.96496 
L 151.884689 290.966597 
L 175.913397 275.219696 
L 199.942105 260.739895 
L 223.970813 245.653606 
L 247.999522 230.818157 
L 272.02823 216.319569 
L 296.056938 201.85819 
L 320.085646 187.829738 
L 344.114354 173.767199 
L 368.143062 160.16961 
L 392.17177 146.742166 
L 416.200478 133.733974 
L 440.229187 121.165266 
L 464.257895 108.988918 
L 488.286603 97.167714 
L 512.315311 85.80333 
L 536.344019 74.520555 
L 560.372727 64.026293 
" clip-path="url(#p49d692b3c1)" style="fill: none; stroke-dasharray: 3.7,1.6; stroke-dashoffset: 0; stroke: #9467bd; stroke-opacity: 0.6"/>
   </g>
   <g id="line2d_21">
    <path d="M 103.827273 251.37713 
L 127.855981 302.207073 
L 151.884689 289.215877 
L 175.913397 273.365739 
L 199.942105 259.00248 
L 223.970813 243.949814 
L 247.999522 229.082244 
L 272.02823 214.51637 
L 296.056938 200.150277 
L 320.085646 185.96075 
L 344.114354 171.777037 
L 368.143062 158.175854 
L 392.17177 144.710978 
L 416.200478 131.856445 
L 440.229187 119.32248 
L 464.257895 107.006633 
L 488.286603 95.243763 
L 512.315311 83.705106 
L 536.344019 72.55222 
L 560.372727 61.842124 
" clip-path="url(#p49d692b3c1)" style="fill: none; stroke-dasharray: 3.7,1.6; stroke-dashoffset: 0; stroke: #8c564b; stroke-opacity: 0.6"/>
   </g>
   <g id="line2d_22">
    <path d="M 103.827273 251.37713 
L 127.855981 303.639102 
L 151.884689 290.634287 
L 175.913397 274.962443 
L 199.942105 260.437985 
L 223.970813 245.328598 
L 247.999522 230.409458 
L 272.02823 215.798874 
L 296.056938 201.309489 
L 320.085646 187.285991 
L 344.114354 173.398276 
L 368.143062 159.951406 
L 392.17177 146.643082 
L 416.200478 133.699881 
L 440.229187 121.18849 
L 464.257895 108.948567 
L 488.286603 97.009555 
L 512.315311 85.392896 
L 536.344019 74.075664 
L 560.372727 63.424158 
" clip-path="url(#p49d692b3c1)" style="fill: none; stroke-dasharray: 3.7,1.6; stroke-dashoffset: 0; stroke: #e377c2; stroke-opacity: 0.6"/>
   </g>
   <g id="line2d_23">
    <path d="M 103.827273 251.37713 
L 127.855981 302.19245 
L 151.884689 289.26591 
L 175.913397 273.606936 
L 199.942105 259.3889 
L 223.970813 244.552311 
L 247.999522 229.855193 
L 272.02823 215.319452 
L 296.056938 200.861251 
L 320.085646 186.848407 
L 344.114354 172.714894 
L 368.143062 159.221428 
L 392.17177 145.916865 
L 416.200478 132.915663 
L 440.229187 120.570069 
L 464.257895 108.175934 
L 488.286603 96.413682 
L 512.315311 84.944751 
L 536.344019 73.831857 
L 560.372727 63.308307 
" clip-path="url(#p49d692b3c1)" style="fill: none; stroke-dasharray: 3.7,1.6; stroke-dashoffset: 0; stroke: #7f7f7f; stroke-opacity: 0.6"/>
   </g>
   <g id="line2d_24">
    <path d="M 103.827273 251.37713 
L 127.855981 301.322394 
L 151.884689 288.332633 
L 175.913397 272.606778 
L 199.942105 258.24494 
L 223.970813 243.279837 
L 247.999522 228.458426 
L 272.02823 213.788484 
L 296.056938 199.488071 
L 320.085646 185.145595 
L 344.114354 171.316186 
L 368.143062 157.708989 
L 392.17177 144.211986 
L 416.200478 131.316843 
L 440.229187 118.834145 
L 464.257895 106.801537 
L 488.286603 94.853615 
L 512.315311 83.382844 
L 536.344019 72.215952 
L 560.372727 61.450787 
" clip-path="url(#p49d692b3c1)" style="fill: none; stroke-dasharray: 3.7,1.6; stroke-dashoffset: 0; stroke: #bcbd22; stroke-opacity: 0.6"/>
   </g>
   <g id="line2d_25">
    <path d="M 103.827273 251.37713 
L 127.855981 302.221265 
L 151.884689 289.293005 
L 175.913397 273.555077 
L 199.942105 259.239431 
L 223.970813 244.250473 
L 247.999522 229.34997 
L 272.02823 214.879913 
L 296.056938 200.1978 
L 320.085646 186.202449 
L 344.114354 172.208645 
L 368.143062 158.753787 
L 392.17177 145.465512 
L 416.200478 132.079224 
L 440.229187 119.496723 
L 464.257895 107.155578 
L 488.286603 95.298093 
L 512.315311 83.642727 
L 536.344019 72.461278 
L 560.372727 61.756673 
" clip-path="url(#p49d692b3c1)" style="fill: none; stroke-dasharray: 3.7,1.6; stroke-dashoffset: 0; stroke: #17becf; stroke-opacity: 0.6"/>
   </g>
   <g id="line2d_26">
    <path d="M 103.827273 251.37713 
L 127.855981 300.124903 
L 151.884689 287.37011 
L 175.913397 271.232594 
L 199.942105 256.744338 
L 223.970813 241.371706 
L 247.999522 226.742997 
L 272.02823 211.888198 
L 296.056938 197.335377 
L 320.085646 182.808568 
L 344.114354 169.011024 
L 368.143062 155.135448 
L 392.17177 141.871298 
L 416.200478 128.89407 
L 440.229187 116.566787 
L 464.257895 104.378002 
L 488.286603 92.495775 
L 512.315311 80.963234 
L 536.344019 69.951921 
L 560.372727 59.147065 
" clip-path="url(#p49d692b3c1)" style="fill: none; stroke-dasharray: 3.7,1.6; stroke-dashoffset: 0; stroke: #1f77b4; stroke-opacity: 0.6"/>
   </g>
   <g id="line2d_27">
    <path d="M 103.827273 251.37713 
L 127.855981 307.22111 
L 151.884689 294.363097 
L 175.913397 278.879682 
L 199.942105 264.460525 
L 223.970813 249.264863 
L 247.999522 234.801496 
L 272.02823 220.119631 
L 296.056938 206.006683 
L 320.085646 191.785375 
L 344.114354 178.115815 
L 368.143062 164.468424 
L 392.17177 151.29328 
L 416.200478 138.454681 
L 440.229187 125.821792 
L 464.257895 113.299615 
L 488.286603 101.396651 
L 512.315311 89.761287 
L 536.344019 78.658598 
L 560.372727 67.863096 
" clip-path="url(#p49d692b3c1)" style="fill: none; stroke-dasharray: 3.7,1.6; stroke-dashoffset: 0; stroke: #ff7f0e; stroke-opacity: 0.6"/>
   </g>
   <g id="line2d_28">
    <path d="M 103.827273 251.37713 
L 127.855981 304.164518 
L 151.884689 291.037847 
L 175.913397 275.194711 
L 199.942105 260.68496 
L 223.970813 245.796665 
L 247.999522 230.941617 
L 272.02823 216.402094 
L 296.056938 201.995707 
L 320.085646 188.013667 
L 344.114354 174.025687 
L 368.143062 160.55282 
L 392.17177 147.312844 
L 416.200478 134.281878 
L 440.229187 121.726841 
L 464.257895 109.503815 
L 488.286603 97.63743 
L 512.315311 86.339755 
L 536.344019 74.947514 
L 560.372727 64.155012 
" clip-path="url(#p49d692b3c1)" style="fill: none; stroke-dasharray: 3.7,1.6; stroke-dashoffset: 0; stroke: #2ca02c; stroke-opacity: 0.6"/>
   </g>
   <g id="line2d_29">
    <path d="M 103.827273 251.37713 
L 127.855981 305.282731 
L 151.884689 292.189893 
L 175.913397 276.49825 
L 199.942105 262.103075 
L 223.970813 247.255118 
L 247.999522 232.394503 
L 272.02823 217.980398 
L 296.056938 203.543423 
L 320.085646 189.511655 
L 344.114354 175.519337 
L 368.143062 162.266865 
L 392.17177 149.003892 
L 416.200478 136.228439 
L 440.229187 123.58016 
L 464.257895 111.308976 
L 488.286603 99.435079 
L 512.315311 88.09272 
L 536.344019 76.873607 
L 560.372727 66.164129 
" clip-path="url(#p49d692b3c1)" style="fill: none; stroke-dasharray: 3.7,1.6; stroke-dashoffset: 0; stroke: #d62728; stroke-opacity: 0.6"/>
   </g>
   <g id="line2d_30">
    <path d="M 103.827273 251.37713 
L 127.855981 297.034622 
L 151.884689 283.920567 
L 175.913397 268.154836 
L 199.942105 253.516873 
L 223.970813 238.313789 
L 247.999522 223.466416 
L 272.02823 208.60908 
L 296.056938 194.097643 
L 320.085646 180.086347 
L 344.114354 166.143566 
L 368.143062 152.381472 
L 392.17177 139.313398 
L 416.200478 126.171079 
L 440.229187 113.372754 
L 464.257895 101.033892 
L 488.286603 89.144444 
L 512.315311 77.51537 
L 536.344019 66.558618 
L 560.372727 55.8 
" clip-path="url(#p49d692b3c1)" style="fill: none; stroke-dasharray: 3.7,1.6; stroke-dashoffset: 0; stroke: #9467bd; stroke-opacity: 0.6"/>
   </g>
   <g id="line2d_31">
    <path d="M 103.827273 251.37713 
L 127.855981 305.55612 
L 151.884689 292.518906 
L 175.913397 276.883199 
L 199.942105 262.483509 
L 223.970813 247.551698 
L 247.999522 232.752315 
L 272.02823 218.324167 
L 296.056938 203.828909 
L 320.085646 189.717126 
L 344.114354 175.735468 
L 368.143062 162.259639 
L 392.17177 149.054538 
L 416.200478 136.191682 
L 440.229187 123.407149 
L 464.257895 111.132483 
L 488.286603 99.295134 
L 512.315311 87.854165 
L 536.344019 76.686578 
L 560.372727 66.028457 
" clip-path="url(#p49d692b3c1)" style="fill: none; stroke-dasharray: 3.7,1.6; stroke-dashoffset: 0; stroke: #8c564b; stroke-opacity: 0.6"/>
   </g>
   <g id="line2d_32">
    <path d="M 103.827273 251.37713 
L 127.855981 297.46628 
L 151.884689 284.302336 
L 175.913397 268.509784 
L 199.942105 253.920043 
L 223.970813 238.786691 
L 247.999522 223.900088 
L 272.02823 209.132994 
L 296.056938 194.685967 
L 320.085646 180.515922 
L 344.114354 166.516158 
L 368.143062 152.76043 
L 392.17177 139.548205 
L 416.200478 126.451629 
L 440.229187 113.75448 
L 464.257895 101.432642 
L 488.286603 89.685723 
L 512.315311 78.132198 
L 536.344019 67.114836 
L 560.372727 56.432448 
" clip-path="url(#p49d692b3c1)" style="fill: none; stroke-dasharray: 3.7,1.6; stroke-dashoffset: 0; stroke: #e377c2; stroke-opacity: 0.6"/>
   </g>
   <g id="line2d_33">
    <path d="M 103.827273 251.37713 
L 127.855981 299.474619 
L 151.884689 286.470235 
L 175.913397 270.490525 
L 199.942105 256.085314 
L 223.970813 240.976484 
L 247.999522 226.094423 
L 272.02823 211.217914 
L 296.056938 196.532432 
L 320.085646 182.403652 
L 344.114354 168.628235 
L 368.143062 154.622175 
L 392.17177 141.407343 
L 416.200478 128.315073 
L 440.229187 115.831754 
L 464.257895 103.548694 
L 488.286603 91.533363 
L 512.315311 80.095099 
L 536.344019 68.981972 
L 560.372727 58.315503 
" clip-path="url(#p49d692b3c1)" style="fill: none; stroke-dasharray: 3.7,1.6; stroke-dashoffset: 0; stroke: #7f7f7f; stroke-opacity: 0.6"/>
   </g>
   <g id="line2d_34">
    <path d="M 103.827273 251.37713 
L 127.855981 305.867786 
L 151.884689 292.726779 
L 175.913397 277.117443 
L 199.942105 262.630269 
L 223.970813 247.574679 
L 247.999522 232.714227 
L 272.02823 218.233709 
L 296.056938 203.800726 
L 320.085646 189.856802 
L 344.114354 175.985454 
L 368.143062 162.219063 
L 392.17177 149.043328 
L 416.200478 135.924458 
L 440.229187 123.195789 
L 464.257895 110.963153 
L 488.286603 99.037659 
L 512.315311 87.514386 
L 536.344019 76.158066 
L 560.372727 65.39121 
" clip-path="url(#p49d692b3c1)" style="fill: none; stroke-dasharray: 3.7,1.6; stroke-dashoffset: 0; stroke: #bcbd22; stroke-opacity: 0.6"/>
   </g>
   <g id="line2d_35">
    <path d="M 103.827273 251.37713 
L 127.855981 298.569154 
L 151.884689 285.53194 
L 175.913397 269.57864 
L 199.942105 255.112383 
L 223.970813 239.98676 
L 247.999522 225.207728 
L 272.02823 210.470261 
L 296.056938 196.051987 
L 320.085646 181.692011 
L 344.114354 167.792188 
L 368.143062 153.979079 
L 392.17177 140.832451 
L 416.200478 127.839734 
L 440.229187 115.503641 
L 464.257895 103.356615 
L 488.286603 91.472497 
L 512.315311 79.970459 
L 536.344019 68.825746 
L 560.372727 58.294389 
" clip-path="url(#p49d692b3c1)" style="fill: none; stroke-dasharray: 3.7,1.6; stroke-dashoffset: 0; stroke: #17becf; stroke-opacity: 0.6"/>
   </g>
   <g id="line2d_36">
    <path d="M 103.827273 251.37713 
L 127.855981 303.182355 
L 151.884689 290.196177 
L 175.913397 274.359913 
L 199.942105 259.806097 
L 223.970813 244.940518 
L 247.999522 230.118468 
L 272.02823 215.650699 
L 296.056938 201.217402 
L 320.085646 187.185233 
L 344.114354 173.316203 
L 368.143062 159.793721 
L 392.17177 146.436985 
L 416.200478 133.351628 
L 440.229187 120.916422 
L 464.257895 108.65129 
L 488.286603 96.80893 
L 512.315311 85.191099 
L 536.344019 73.908882 
L 560.372727 63.326156 
" clip-path="url(#p49d692b3c1)" style="fill: none; stroke-dasharray: 3.7,1.6; stroke-dashoffset: 0; stroke: #1f77b4; stroke-opacity: 0.6"/>
   </g>
   <g id="line2d_37">
    <path d="M 103.827273 251.37713 
L 127.855981 303.593226 
L 151.884689 290.477737 
L 175.913397 274.649998 
L 199.942105 259.767699 
L 223.970813 244.682731 
L 247.999522 229.685949 
L 272.02823 215.175106 
L 296.056938 200.628934 
L 320.085646 186.369802 
L 344.114354 172.479142 
L 368.143062 158.865017 
L 392.17177 145.447915 
L 416.200478 132.218961 
L 440.229187 119.571243 
L 464.257895 107.246069 
L 488.286603 95.146631 
L 512.315311 83.510446 
L 536.344019 72.283818 
L 560.372727 61.485278 
" clip-path="url(#p49d692b3c1)" style="fill: none; stroke-dasharray: 3.7,1.6; stroke-dashoffset: 0; stroke: #ff7f0e; stroke-opacity: 0.6"/>
   </g>
   <g id="line2d_38">
    <path d="M 103.827273 251.37713 
L 127.855981 297.555307 
L 151.884689 284.356526 
L 175.913397 268.637373 
L 199.942105 253.988267 
L 223.970813 238.908171 
L 247.999522 224.134245 
L 272.02823 209.389346 
L 296.056938 194.864695 
L 320.085646 180.767527 
L 344.114354 166.915803 
L 368.143062 153.116967 
L 392.17177 139.843455 
L 416.200478 126.767226 
L 440.229187 114.009725 
L 464.257895 101.811612 
L 488.286603 90.011286 
L 512.315311 78.497058 
L 536.344019 67.490272 
L 560.372727 56.815205 
" clip-path="url(#p49d692b3c1)" style="fill: none; stroke-dasharray: 3.7,1.6; stroke-dashoffset: 0; stroke: #2ca02c; stroke-opacity: 0.6"/>
   </g>
   <g id="line2d_39">
    <path d="M 103.827273 251.37713 
L 127.855981 303.362559 
L 151.884689 290.308285 
L 175.913397 274.60129 
L 199.942105 260.275116 
L 223.970813 245.429052 
L 247.999522 230.61506 
L 272.02823 216.003725 
L 296.056938 201.560087 
L 320.085646 187.70619 
L 344.114354 173.732645 
L 368.143062 160.446338 
L 392.17177 147.306345 
L 416.200478 134.52152 
L 440.229187 121.938606 
L 464.257895 109.800375 
L 488.286603 98.102555 
L 512.315311 86.878233 
L 536.344019 75.611968 
L 560.372727 64.91539 
" clip-path="url(#p49d692b3c1)" style="fill: none; stroke-dasharray: 3.7,1.6; stroke-dashoffset: 0; stroke: #d62728; stroke-opacity: 0.6"/>
   </g>
   <g id="line2d_40">
    <path d="M 103.827273 251.37713 
L 127.855981 302.038767 
L 151.884689 289.130291 
L 175.913397 273.169625 
L 199.942105 258.706466 
L 223.970813 243.549508 
L 247.999522 228.551597 
L 272.02823 213.969009 
L 296.056938 199.581558 
L 320.085646 185.354919 
L 344.114354 171.668644 
L 368.143062 157.917608 
L 392.17177 144.649599 
L 416.200478 131.774504 
L 440.229187 119.143722 
L 464.257895 106.83846 
L 488.286603 95.030151 
L 512.315311 83.385066 
L 536.344019 72.275898 
L 560.372727 61.737486 
" clip-path="url(#p49d692b3c1)" style="fill: none; stroke-dasharray: 3.7,1.6; stroke-dashoffset: 0; stroke: #9467bd; stroke-opacity: 0.6"/>
   </g>
   <g id="line2d_41">
    <path d="M 103.827273 251.37713 
L 127.855981 306.808231 
L 151.884689 293.799403 
L 175.913397 278.280598 
L 199.942105 263.783828 
L 223.970813 248.689298 
L 247.999522 234.175822 
L 272.02823 219.513065 
L 296.056938 205.200725 
L 320.085646 191.099067 
L 344.114354 177.227294 
L 368.143062 163.432905 
L 392.17177 150.21794 
L 416.200478 137.35324 
L 440.229187 124.919034 
L 464.257895 112.640682 
L 488.286603 100.587207 
L 512.315311 89.254473 
L 536.344019 77.96214 
L 560.372727 67.327945 
" clip-path="url(#p49d692b3c1)" style="fill: none; stroke-dasharray: 3.7,1.6; stroke-dashoffset: 0; stroke: #8c564b; stroke-opacity: 0.6"/>
   </g>
   <g id="line2d_42">
    <path d="M 103.827273 251.37713 
L 127.855981 302.172666 
L 151.884689 289.169715 
L 175.913397 273.325026 
L 199.942105 258.900299 
L 223.970813 243.685803 
L 247.999522 228.745853 
L 272.02823 214.1171 
L 296.056938 199.615529 
L 320.085646 185.344916 
L 344.114354 171.580268 
L 368.143062 157.789699 
L 392.17177 144.493259 
L 416.200478 131.647323 
L 440.229187 119.124127 
L 464.257895 106.7873 
L 488.286603 95.025183 
L 512.315311 83.416349 
L 536.344019 72.256688 
L 560.372727 61.530524 
" clip-path="url(#p49d692b3c1)" style="fill: none; stroke-dasharray: 3.7,1.6; stroke-dashoffset: 0; stroke: #e377c2; stroke-opacity: 0.6"/>
   </g>
   <g id="line2d_43">
    <path d="M 103.827273 251.37713 
L 127.855981 303.001004 
L 151.884689 289.948737 
L 175.913397 274.153443 
L 199.942105 259.626963 
L 223.970813 244.757123 
L 247.999522 229.934464 
L 272.02823 215.262099 
L 296.056938 200.739952 
L 320.085646 186.698761 
L 344.114354 172.760027 
L 368.143062 159.200976 
L 392.17177 145.974692 
L 416.200478 132.976239 
L 440.229187 120.399759 
L 464.257895 108.071167 
L 488.286603 96.201416 
L 512.315311 84.662533 
L 536.344019 73.516131 
L 560.372727 62.891686 
" clip-path="url(#p49d692b3c1)" style="fill: none; stroke-dasharray: 3.7,1.6; stroke-dashoffset: 0; stroke: #7f7f7f; stroke-opacity: 0.6"/>
   </g>
   <g id="line2d_44">
    <path d="M 103.827273 251.37713 
L 127.855981 301.725237 
L 151.884689 288.875683 
L 175.913397 273.104939 
L 199.942105 258.730293 
L 223.970813 243.60587 
L 247.999522 228.634948 
L 272.02823 214.026708 
L 296.056938 199.67594 
L 320.085646 185.458714 
L 344.114354 171.70624 
L 368.143062 157.918419 
L 392.17177 144.499037 
L 416.200478 131.680227 
L 440.229187 119.004647 
L 464.257895 106.689355 
L 488.286603 94.831347 
L 512.315311 83.322191 
L 536.344019 72.185987 
L 560.372727 61.56818 
" clip-path="url(#p49d692b3c1)" style="fill: none; stroke-dasharray: 3.7,1.6; stroke-dashoffset: 0; stroke: #bcbd22; stroke-opacity: 0.6"/>
   </g>
   <g id="line2d_45">
    <path d="M 103.827273 251.37713 
L 127.855981 304.980957 
L 151.884689 291.886399 
L 175.913397 276.198674 
L 199.942105 261.809979 
L 223.970813 246.989347 
L 247.999522 232.114107 
L 272.02823 217.633876 
L 296.056938 203.234824 
L 320.085646 189.15087 
L 344.114354 175.100315 
L 368.143062 161.667377 
L 392.17177 148.440101 
L 416.200478 135.501042 
L 440.229187 122.693555 
L 464.257895 110.60914 
L 488.286603 98.700731 
L 512.315311 87.371089 
L 536.344019 76.135623 
L 560.372727 65.589278 
" clip-path="url(#p49d692b3c1)" style="fill: none; stroke-dasharray: 3.7,1.6; stroke-dashoffset: 0; stroke: #17becf; stroke-opacity: 0.6"/>
   </g>
   <g id="line2d_46">
    <path d="M 103.827273 251.37713 
L 127.855981 307.8 
L 151.884689 294.909587 
L 175.913397 279.464683 
L 199.942105 265.152692 
L 223.970813 250.16299 
L 247.999522 235.591576 
L 272.02823 221.110152 
L 296.056938 206.89686 
L 320.085646 192.748587 
L 344.114354 179.218292 
L 368.143062 165.4166 
L 392.17177 152.448597 
L 416.200478 139.730421 
L 440.229187 127.082757 
L 464.257895 114.712809 
L 488.286603 102.81613 
L 512.315311 91.432237 
L 536.344019 80.250031 
L 560.372727 69.397357 
" clip-path="url(#p49d692b3c1)" style="fill: none; stroke-dasharray: 3.7,1.6; stroke-dashoffset: 0; stroke: #1f77b4; stroke-opacity: 0.6"/>
   </g>
   <g id="line2d_47">
    <path d="M 103.827273 251.37713 
L 127.855981 301.05388 
L 151.884689 288.168055 
L 175.913397 272.459161 
L 199.942105 257.979321 
L 223.970813 242.994647 
L 247.999522 228.197882 
L 272.02823 213.55378 
L 296.056938 199.195117 
L 320.085646 184.883337 
L 344.114354 171.23895 
L 368.143062 157.49513 
L 392.17177 144.149744 
L 416.200478 131.197735 
L 440.229187 118.654612 
L 464.257895 106.58417 
L 488.286603 94.485229 
L 512.315311 83.02264 
L 536.344019 71.882396 
L 560.372727 61.28721 
" clip-path="url(#p49d692b3c1)" style="fill: none; stroke-dasharray: 3.7,1.6; stroke-dashoffset: 0; stroke: #ff7f0e; stroke-opacity: 0.6"/>
   </g>
   <g id="line2d_48">
    <path d="M 103.827273 251.37713 
L 127.855981 299.872302 
L 151.884689 286.860319 
L 175.913397 270.907692 
L 199.942105 256.503424 
L 223.970813 241.356759 
L 247.999522 226.522217 
L 272.02823 211.685396 
L 296.056938 196.917467 
L 320.085646 182.660328 
L 344.114354 168.76539 
L 368.143062 154.828316 
L 392.17177 141.606732 
L 416.200478 128.590251 
L 440.229187 116.19576 
L 464.257895 103.920058 
L 488.286603 92.002482 
L 512.315311 80.184989 
L 536.344019 68.989139 
L 560.372727 58.321966 
" clip-path="url(#p49d692b3c1)" style="fill: none; stroke-dasharray: 3.7,1.6; stroke-dashoffset: 0; stroke: #2ca02c; stroke-opacity: 0.6"/>
   </g>
   <g id="line2d_49">
    <path d="M 103.827273 251.37713 
L 127.855981 302.165785 
L 151.884689 289.288131 
L 175.913397 273.518091 
L 199.942105 259.065941 
L 223.970813 244.046223 
L 247.999522 229.201899 
L 272.02823 214.73235 
L 296.056938 200.332476 
L 320.085646 186.183309 
L 344.114354 172.199615 
L 368.143062 158.617686 
L 392.17177 145.191328 
L 416.200478 132.243314 
L 440.229187 119.788445 
L 464.257895 107.486152 
L 488.286603 95.631564 
L 512.315311 84.040189 
L 536.344019 73.082439 
L 560.372727 62.304855 
" clip-path="url(#p49d692b3c1)" style="fill: none; stroke-dasharray: 3.7,1.6; stroke-dashoffset: 0; stroke: #d62728; stroke-opacity: 0.6"/>
   </g>
   <g id="line2d_50">
    <path d="M 103.827273 251.37713 
L 127.855981 300.076017 
L 151.884689 287.063031 
L 175.913397 271.193116 
L 199.942105 256.524311 
L 223.970813 241.274532 
L 247.999522 226.50775 
L 272.02823 211.674362 
L 296.056938 196.966924 
L 320.085646 182.629979 
L 344.114354 168.749488 
L 368.143062 154.882093 
L 392.17177 141.655222 
L 416.200478 128.733265 
L 440.229187 116.459432 
L 464.257895 104.229254 
L 488.286603 92.310662 
L 512.315311 80.718423 
L 536.344019 69.491449 
L 560.372727 58.613774 
" clip-path="url(#p49d692b3c1)" style="fill: none; stroke-dasharray: 3.7,1.6; stroke-dashoffset: 0; stroke: #9467bd; stroke-opacity: 0.6"/>
   </g>
   <g id="line2d_51">
    <path d="M 103.827273 251.37713 
L 127.855981 301.243116 
L 151.884689 288.209916 
L 175.913397 272.355797 
L 199.942105 257.883907 
L 223.970813 242.645653 
L 247.999522 227.839973 
L 272.02823 213.101201 
L 296.056938 198.5426 
L 320.085646 184.205123 
L 344.114354 170.481374 
L 368.143062 156.698041 
L 392.17177 143.241352 
L 416.200478 130.334274 
L 440.229187 117.882926 
L 464.257895 105.694748 
L 488.286603 93.857624 
L 512.315311 82.495213 
L 536.344019 71.409422 
L 560.372727 60.590531 
" clip-path="url(#p49d692b3c1)" style="fill: none; stroke-dasharray: 3.7,1.6; stroke-dashoffset: 0; stroke: #8c564b; stroke-opacity: 0.6"/>
   </g>
   <g id="line2d_52">
    <path d="M 103.827273 251.37713 
L 127.855981 305.475408 
L 151.884689 292.476328 
L 175.913397 276.992617 
L 199.942105 262.8579 
L 223.970813 248.028691 
L 247.999522 233.584349 
L 272.02823 218.852737 
L 296.056938 204.543088 
L 320.085646 190.585849 
L 344.114354 176.935843 
L 368.143062 163.257703 
L 392.17177 150.247085 
L 416.200478 137.538478 
L 440.229187 125.060499 
L 464.257895 112.669453 
L 488.286603 100.818558 
L 512.315311 89.38964 
L 536.344019 78.002997 
L 560.372727 67.740471 
" clip-path="url(#p49d692b3c1)" style="fill: none; stroke-dasharray: 3.7,1.6; stroke-dashoffset: 0; stroke: #e377c2; stroke-opacity: 0.6"/>
   </g>
   <g id="line2d_53">
    <path d="M 103.827273 251.37713 
L 127.855981 298.63639 
L 151.884689 285.494379 
L 175.913397 269.354036 
L 199.942105 254.732753 
L 223.970813 239.62837 
L 247.999522 224.828954 
L 272.02823 210.03441 
L 296.056938 195.504936 
L 320.085646 181.117222 
L 344.114354 167.075425 
L 368.143062 153.264819 
L 392.17177 140.123969 
L 416.200478 127.000689 
L 440.229187 114.356699 
L 464.257895 101.866132 
L 488.286603 90.132275 
L 512.315311 78.436809 
L 536.344019 67.32446 
L 560.372727 56.655325 
" clip-path="url(#p49d692b3c1)" style="fill: none; stroke-dasharray: 3.7,1.6; stroke-dashoffset: 0; stroke: #7f7f7f; stroke-opacity: 0.6"/>
   </g>
   <g id="line2d_54">
    <path d="M 103.827273 251.37713 
L 127.855981 302.503829 
L 151.884689 289.390777 
L 175.913397 273.420067 
L 199.942105 258.935823 
L 223.970813 243.597147 
L 247.999522 228.540305 
L 272.02823 213.862907 
L 296.056938 199.389695 
L 320.085646 185.122242 
L 344.114354 171.337884 
L 368.143062 157.534806 
L 392.17177 144.123589 
L 416.200478 131.189152 
L 440.229187 118.632443 
L 464.257895 106.456542 
L 488.286603 94.517873 
L 512.315311 82.791778 
L 536.344019 71.687566 
L 560.372727 61.071513 
" clip-path="url(#p49d692b3c1)" style="fill: none; stroke-dasharray: 3.7,1.6; stroke-dashoffset: 0; stroke: #bcbd22; stroke-opacity: 0.6"/>
   </g>
   <g id="line2d_55">
    <path d="M 103.827273 251.37713 
L 127.855981 298.890855 
L 151.884689 285.926612 
L 175.913397 269.961543 
L 199.942105 255.528025 
L 223.970813 240.381807 
L 247.999522 225.604558 
L 272.02823 210.801857 
L 296.056938 196.261142 
L 320.085646 181.873248 
L 344.114354 167.817671 
L 368.143062 153.750379 
L 392.17177 140.523757 
L 416.200478 127.467095 
L 440.229187 114.922978 
L 464.257895 102.887192 
L 488.286603 90.857566 
L 512.315311 79.303119 
L 536.344019 68.178265 
L 560.372727 57.453119 
" clip-path="url(#p49d692b3c1)" style="fill: none; stroke-dasharray: 3.7,1.6; stroke-dashoffset: 0; stroke: #17becf; stroke-opacity: 0.6"/>
   </g>
   <g id="line2d_56">
    <path d="M 103.827273 251.37713 
L 127.855981 302.52691 
L 151.884689 289.470342 
L 175.913397 273.654316 
L 199.942105 259.109664 
L 223.970813 244.03644 
L 247.999522 228.920869 
L 272.02823 214.281198 
L 296.056938 199.942105 
L 320.085646 185.68313 
L 344.114354 171.694418 
L 368.143062 157.898343 
L 392.17177 144.404906 
L 416.200478 131.492229 
L 440.229187 118.949111 
L 464.257895 106.651424 
L 488.286603 94.830049 
L 512.315311 83.349711 
L 536.344019 72.245475 
L 560.372727 61.564156 
" clip-path="url(#p49d692b3c1)" style="fill: none; stroke-dasharray: 3.7,1.6; stroke-dashoffset: 0; stroke: #1f77b4; stroke-opacity: 0.6"/>
   </g>
   <g id="line2d_57">
    <path d="M 103.827273 251.37713 
L 127.855981 300.245469 
L 151.884689 287.376704 
L 175.913397 271.095907 
L 199.942105 256.420592 
L 223.970813 241.117465 
L 247.999522 226.281324 
L 272.02823 211.314383 
L 296.056938 196.521796 
L 320.085646 182.153431 
L 344.114354 168.161751 
L 368.143062 154.250022 
L 392.17177 141.114057 
L 416.200478 128.210556 
L 440.229187 115.803861 
L 464.257895 103.534143 
L 488.286603 91.612967 
L 512.315311 80.116956 
L 536.344019 68.936173 
L 560.372727 58.441218 
" clip-path="url(#p49d692b3c1)" style="fill: none; stroke-dasharray: 3.7,1.6; stroke-dashoffset: 0; stroke: #ff7f0e; stroke-opacity: 0.6"/>
   </g>
   <g id="line2d_58">
    <path d="M 103.827273 251.37713 
L 127.855981 301.034096 
L 151.884689 288.14569 
L 175.913397 272.177315 
L 199.942105 257.598468 
L 223.970813 242.554249 
L 247.999522 227.740683 
L 272.02823 213.134157 
L 296.056938 198.594536 
L 320.085646 184.332931 
L 344.114354 170.59868 
L 368.143062 156.80909 
L 392.17177 143.289434 
L 416.200478 130.463161 
L 440.229187 117.915555 
L 464.257895 105.751011 
L 488.286603 93.866263 
L 512.315311 82.545858 
L 536.344019 71.51332 
L 560.372727 60.747292 
" clip-path="url(#p49d692b3c1)" style="fill: none; stroke-dasharray: 3.7,1.6; stroke-dashoffset: 0; stroke: #2ca02c; stroke-opacity: 0.6"/>
   </g>
   <g id="line2d_59">
    <path d="M 103.827273 251.37713 
L 127.855981 300.734472 
L 151.884689 287.891082 
L 175.913397 272.091945 
L 199.942105 257.725343 
L 223.970813 242.762663 
L 247.999522 228.078648 
L 272.02823 213.255178 
L 296.056938 198.989679 
L 320.085646 184.706983 
L 344.114354 171.039338 
L 368.143062 157.44841 
L 392.17177 144.095326 
L 416.200478 131.1642 
L 440.229187 118.676872 
L 464.257895 106.647346 
L 488.286603 94.697203 
L 512.315311 83.249469 
L 536.344019 72.275934 
L 560.372727 61.62281 
" clip-path="url(#p49d692b3c1)" style="fill: none; stroke-dasharray: 3.7,1.6; stroke-dashoffset: 0; stroke: #d62728; stroke-opacity: 0.6"/>
   </g>
   <g id="line2d_60">
    <path d="M 103.827273 251.37713 
L 127.855981 300.418936 
L 151.884689 287.589308 
L 175.913397 271.670801 
L 199.942105 257.240276 
L 223.970813 242.242356 
L 247.999522 227.572431 
L 272.02823 213.027316 
L 296.056938 198.605202 
L 320.085646 184.389943 
L 344.114354 170.604738 
L 368.143062 157.113225 
L 392.17177 143.599154 
L 416.200478 130.676185 
L 440.229187 118.163548 
L 464.257895 106.045376 
L 488.286603 94.112767 
L 512.315311 82.6731 
L 536.344019 71.598674 
L 560.372727 60.794162 
" clip-path="url(#p49d692b3c1)" style="fill: none; stroke-dasharray: 3.7,1.6; stroke-dashoffset: 0; stroke: #9467bd; stroke-opacity: 0.6"/>
   </g>
   <g id="line2d_61">
    <path d="M 103.827273 251.37713 
L 127.855981 300.325321 
L 151.884689 287.401219 
L 175.913397 271.141312 
L 199.942105 256.537649 
L 223.970813 241.154346 
L 247.999522 226.464841 
L 272.02823 211.498844 
L 296.056938 196.824334 
L 320.085646 182.454092 
L 344.114354 168.469704 
L 368.143062 154.55504 
L 392.17177 141.246684 
L 416.200478 128.130655 
L 440.229187 115.731361 
L 464.257895 103.554731 
L 488.286603 91.826885 
L 512.315311 80.170062 
L 536.344019 68.906415 
L 560.372727 58.304005 
" clip-path="url(#p49d692b3c1)" style="fill: none; stroke-dasharray: 3.7,1.6; stroke-dashoffset: 0; stroke: #8c564b; stroke-opacity: 0.6"/>
   </g>
   <g id="line2d_62">
    <path d="M 103.827273 251.37713 
L 127.855981 305.178938 
L 151.884689 292.122944 
L 175.913397 276.473451 
L 199.942105 262.153977 
L 223.970813 247.338836 
L 247.999522 232.615264 
L 272.02823 218.097488 
L 296.056938 203.694137 
L 320.085646 189.763038 
L 344.114354 175.773375 
L 368.143062 162.231905 
L 392.17177 149.049113 
L 416.200478 136.282539 
L 440.229187 123.587185 
L 464.257895 111.388605 
L 488.286603 99.56898 
L 512.315311 88.017139 
L 536.344019 76.780401 
L 560.372727 66.003564 
" clip-path="url(#p49d692b3c1)" style="fill: none; stroke-dasharray: 3.7,1.6; stroke-dashoffset: 0; stroke: #e377c2; stroke-opacity: 0.6"/>
   </g>
   <g id="line2d_63">
    <path d="M 103.827273 251.37713 
L 127.855981 304.10273 
L 151.884689 290.955702 
L 175.913397 275.233708 
L 199.942105 260.747182 
L 223.970813 245.738887 
L 247.999522 230.878835 
L 272.02823 216.309234 
L 296.056938 201.950784 
L 320.085646 187.937542 
L 344.114354 173.989633 
L 368.143062 160.542497 
L 392.17177 147.227736 
L 416.200478 134.277168 
L 440.229187 121.756879 
L 464.257895 109.586194 
L 488.286603 97.707569 
L 512.315311 86.350631 
L 536.344019 74.946363 
L 560.372727 64.217682 
" clip-path="url(#p49d692b3c1)" style="fill: none; stroke-dasharray: 3.7,1.6; stroke-dashoffset: 0; stroke: #7f7f7f; stroke-opacity: 0.6"/>
   </g>
   <g id="line2d_64">
    <path d="M 103.827273 251.37713 
L 127.855981 305.554973 
L 151.884689 292.564781 
L 175.913397 276.993262 
L 199.942105 262.643015 
L 223.970813 247.737566 
L 247.999522 233.149814 
L 272.02823 218.759006 
L 296.056938 204.340064 
L 320.085646 190.390156 
L 344.114354 176.576835 
L 368.143062 162.871312 
L 392.17177 149.626159 
L 416.200478 136.712481 
L 440.229187 124.105543 
L 464.257895 111.851774 
L 488.286603 99.966877 
L 512.315311 88.40506 
L 536.344019 77.099423 
L 560.372727 66.362238 
" clip-path="url(#p49d692b3c1)" style="fill: none; stroke-dasharray: 3.7,1.6; stroke-dashoffset: 0; stroke: #bcbd22; stroke-opacity: 0.6"/>
   </g>
   <g id="line2d_65">
    <path d="M 103.827273 251.37713 
L 127.855981 302.855062 
L 151.884689 289.774697 
L 175.913397 274.034173 
L 199.942105 259.550436 
L 223.970813 244.60895 
L 247.999522 229.712821 
L 272.02823 215.112564 
L 296.056938 200.653354 
L 320.085646 186.530746 
L 344.114354 172.587778 
L 368.143062 158.968656 
L 392.17177 145.794912 
L 416.200478 132.537433 
L 440.229187 120.024681 
L 464.257895 107.580622 
L 488.286603 95.708937 
L 512.315311 84.196186 
L 536.344019 73.167511 
L 560.372727 62.495459 
" clip-path="url(#p49d692b3c1)" style="fill: none; stroke-dasharray: 3.7,1.6; stroke-dashoffset: 0; stroke: #17becf; stroke-opacity: 0.6"/>
   </g>
   <g id="line2d_66">
    <path d="M 103.827273 251.37713 
L 127.855981 303.662326 
L 151.884689 290.584684 
L 175.913397 274.689199 
L 199.942105 260.119635 
L 223.970813 245.060337 
L 247.999522 230.340461 
L 272.02823 215.803507 
L 296.056938 201.204163 
L 320.085646 187.121442 
L 344.114354 173.152433 
L 368.143062 159.640974 
L 392.17177 146.486057 
L 416.200478 133.454269 
L 440.229187 120.879298 
L 464.257895 108.732546 
L 488.286603 96.697841 
L 512.315311 85.170148 
L 536.344019 73.953404 
L 560.372727 63.302069 
" clip-path="url(#p49d692b3c1)" style="fill: none; stroke-dasharray: 3.7,1.6; stroke-dashoffset: 0; stroke: #1f77b4; stroke-opacity: 0.6"/>
   </g>
   <g id="line2d_67">
    <path d="M 103.827273 251.37713 
L 127.855981 299.969357 
L 151.884689 286.878526 
L 175.913397 270.88418 
L 199.942105 256.42472 
L 223.970813 241.252264 
L 247.999522 226.376472 
L 272.02823 211.515638 
L 296.056938 196.720588 
L 320.085646 182.431643 
L 344.114354 168.522323 
L 368.143062 154.587811 
L 392.17177 141.352095 
L 416.200478 128.452466 
L 440.229187 116.011024 
L 464.257895 103.737619 
L 488.286603 91.829285 
L 512.315311 79.985885 
L 536.344019 68.915919 
L 560.372727 58.192091 
" clip-path="url(#p49d692b3c1)" style="fill: none; stroke-dasharray: 3.7,1.6; stroke-dashoffset: 0; stroke: #ff7f0e; stroke-opacity: 0.6"/>
   </g>
   <g id="line2d_68">
    <path d="M 103.827273 251.37713 
L 127.855981 303.06781 
L 151.884689 290.109014 
L 175.913397 274.511228 
L 199.942105 260.200713 
L 223.970813 245.302811 
L 247.999522 230.533301 
L 272.02823 216.075081 
L 296.056938 201.458151 
L 320.085646 187.539151 
L 344.114354 173.553009 
L 368.143062 160.178582 
L 392.17177 146.88845 
L 416.200478 134.000492 
L 440.229187 121.481581 
L 464.257895 109.237594 
L 488.286603 97.463247 
L 512.315311 86.044647 
L 536.344019 74.866475 
L 560.372727 64.443086 
" clip-path="url(#p49d692b3c1)" style="fill: none; stroke-dasharray: 3.7,1.6; stroke-dashoffset: 0; stroke: #2ca02c; stroke-opacity: 0.6"/>
   </g>
   <g id="line2d_69">
    <path d="M 103.827273 251.37713 
L 127.855981 302.31832 
L 151.884689 289.286984 
L 175.913397 273.348467 
L 199.942105 258.684412 
L 223.970813 243.397548 
L 247.999522 228.541247 
L 272.02823 213.955898 
L 296.056938 199.467349 
L 320.085646 184.940733 
L 344.114354 171.223837 
L 368.143062 157.195045 
L 392.17177 143.743394 
L 416.200478 130.653454 
L 440.229187 118.104774 
L 464.257895 105.872011 
L 488.286603 93.802038 
L 512.315311 82.105772 
L 536.344019 70.840654 
L 560.372727 60.04288 
" clip-path="url(#p49d692b3c1)" style="fill: none; stroke-dasharray: 3.7,1.6; stroke-dashoffset: 0; stroke: #d62728; stroke-opacity: 0.6"/>
   </g>
   <g id="line2d_70">
    <path d="M 103.827273 251.37713 
L 127.855981 303.668491 
L 151.884689 290.586118 
L 175.913397 274.846896 
L 199.942105 260.341973 
L 223.970813 245.316725 
L 247.999522 230.678188 
L 272.02823 216.11097 
L 296.056938 201.613744 
L 320.085646 187.720298 
L 344.114354 173.847187 
L 368.143062 160.261164 
L 392.17177 146.978776 
L 416.200478 134.045703 
L 440.229187 121.48105 
L 464.257895 109.289355 
L 488.286603 97.498913 
L 512.315311 86.050511 
L 536.344019 74.67318 
L 560.372727 64.078953 
" clip-path="url(#p49d692b3c1)" style="fill: none; stroke-dasharray: 3.7,1.6; stroke-dashoffset: 0; stroke: #9467bd; stroke-opacity: 0.6"/>
   </g>
   <g id="line2d_71">
    <path d="M 103.827273 251.37713 
L 127.855981 303.866902 
L 151.884689 290.724461 
L 175.913397 274.959859 
L 199.942105 260.620188 
L 223.970813 245.665269 
L 247.999522 231.003869 
L 272.02823 216.338974 
L 296.056938 201.939304 
L 320.085646 188.153827 
L 344.114354 174.07638 
L 368.143062 160.399968 
L 392.17177 146.990992 
L 416.200478 134.101589 
L 440.229187 121.660536 
L 464.257895 109.340985 
L 488.286603 97.473218 
L 512.315311 86.065887 
L 536.344019 74.807183 
L 560.372727 64.068252 
" clip-path="url(#p49d692b3c1)" style="fill: none; stroke-dasharray: 3.7,1.6; stroke-dashoffset: 0; stroke: #8c564b; stroke-opacity: 0.6"/>
   </g>
   <g id="line2d_72">
    <path d="M 103.827273 251.37713 
L 127.855981 301.746598 
L 151.884689 288.975892 
L 175.913397 273.114723 
L 199.942105 258.520375 
L 223.970813 243.418804 
L 247.999522 228.595507 
L 272.02823 214.158617 
L 296.056938 199.971094 
L 320.085646 185.678864 
L 344.114354 171.60167 
L 368.143062 157.89964 
L 392.17177 144.418425 
L 416.200478 131.642578 
L 440.229187 119.094475 
L 464.257895 106.859537 
L 488.286603 94.917993 
L 512.315311 83.4325 
L 536.344019 72.316053 
L 560.372727 61.712489 
" clip-path="url(#p49d692b3c1)" style="fill: none; stroke-dasharray: 3.7,1.6; stroke-dashoffset: 0; stroke: #e377c2; stroke-opacity: 0.6"/>
   </g>
   <g id="line2d_73">
    <path d="M 103.827273 251.37713 
L 127.855981 300.904498 
L 151.884689 288.052076 
L 175.913397 271.89637 
L 199.942105 257.242598 
L 223.970813 242.135684 
L 247.999522 227.381056 
L 272.02823 212.698178 
L 296.056938 198.247425 
L 320.085646 183.982083 
L 344.114354 170.047625 
L 368.143062 156.2061 
L 392.17177 142.751846 
L 416.200478 129.879247 
L 440.229187 117.529479 
L 464.257895 105.225572 
L 488.286603 93.43929 
L 512.315311 81.932422 
L 536.344019 70.823029 
L 560.372727 60.157702 
" clip-path="url(#p49d692b3c1)" style="fill: none; stroke-dasharray: 3.7,1.6; stroke-dashoffset: 0; stroke: #7f7f7f; stroke-opacity: 0.6"/>
   </g>
   <g id="line2d_74">
    <path d="M 103.827273 251.37713 
L 127.855981 306.221026 
L 151.884689 293.256496 
L 175.913397 277.581626 
L 199.942105 263.058844 
L 223.970813 248.123077 
L 247.999522 233.560988 
L 272.02823 218.850254 
L 296.056938 204.391617 
L 320.085646 190.217208 
L 344.114354 176.387559 
L 368.143062 162.471737 
L 392.17177 149.288365 
L 416.200478 136.376409 
L 440.229187 123.6946 
L 464.257895 111.477625 
L 488.286603 99.549575 
L 512.315311 88.062986 
L 536.344019 76.948355 
L 560.372727 66.141153 
" clip-path="url(#p49d692b3c1)" style="fill: none; stroke-dasharray: 3.7,1.6; stroke-dashoffset: 0; stroke: #bcbd22; stroke-opacity: 0.6"/>
   </g>
   <g id="line2d_75">
    <path d="M 103.827273 251.37713 
L 127.855981 299.717329 
L 151.884689 286.659184 
L 175.913397 270.79383 
L 199.942105 256.364504 
L 223.970813 241.142902 
L 247.999522 226.348091 
L 272.02823 211.62275 
L 296.056938 197.072152 
L 320.085646 182.82615 
L 344.114354 168.8254 
L 368.143062 155.02584 
L 392.17177 141.905781 
L 416.200478 128.842498 
L 440.229187 116.489486 
L 464.257895 104.339579 
L 488.286603 92.560018 
L 512.315311 80.9143 
L 536.344019 69.861153 
L 560.372727 59.219017 
" clip-path="url(#p49d692b3c1)" style="fill: none; stroke-dasharray: 3.7,1.6; stroke-dashoffset: 0; stroke: #17becf; stroke-opacity: 0.6"/>
   </g>
   <g id="line2d_76">
    <path d="M 103.827273 251.37713 
L 127.855981 302.609916 
L 151.884689 289.636211 
L 175.913397 273.953322 
L 199.942105 259.516883 
L 223.970813 244.467208 
L 247.999522 229.56001 
L 272.02823 215.156809 
L 296.056938 200.490048 
L 320.085646 186.577906 
L 344.114354 172.488571 
L 368.143062 158.856096 
L 392.17177 145.518141 
L 416.200478 132.39745 
L 440.229187 119.824925 
L 464.257895 107.51948 
L 488.286603 95.757649 
L 512.315311 84.214237 
L 536.344019 72.986727 
L 560.372727 62.29616 
" clip-path="url(#p49d692b3c1)" style="fill: none; stroke-dasharray: 3.7,1.6; stroke-dashoffset: 0; stroke: #1f77b4; stroke-opacity: 0.6"/>
   </g>
   <g id="line2d_77">
    <path d="M 103.827273 251.37713 
L 127.855981 303.186225 
L 151.884689 290.101559 
L 175.913397 274.335831 
L 199.942105 259.768978 
L 223.970813 244.915743 
L 247.999522 230.012142 
L 272.02823 215.402074 
L 296.056938 200.832913 
L 320.085646 186.835397 
L 344.114354 172.977475 
L 368.143062 159.409635 
L 392.17177 146.225494 
L 416.200478 133.217182 
L 440.229187 120.576499 
L 464.257895 108.201021 
L 488.286603 96.431965 
L 512.315311 85.008325 
L 536.344019 73.765675 
L 560.372727 63.198485 
" clip-path="url(#p49d692b3c1)" style="fill: none; stroke-dasharray: 3.7,1.6; stroke-dashoffset: 0; stroke: #ff7f0e; stroke-opacity: 0.6"/>
   </g>
   <g id="line2d_78">
    <path d="M 103.827273 251.37713 
L 127.855981 302.619378 
L 151.884689 289.572559 
L 175.913397 273.876913 
L 199.942105 259.397933 
L 223.970813 244.493917 
L 247.999522 229.634567 
L 272.02823 215.019068 
L 296.056938 200.4698 
L 320.085646 186.393124 
L 344.114354 172.534929 
L 368.143062 159.067958 
L 392.17177 145.766105 
L 416.200478 132.558357 
L 440.229187 119.967728 
L 464.257895 107.636206 
L 488.286603 95.825245 
L 512.315311 84.237485 
L 536.344019 73.216586 
L 560.372727 62.539404 
" clip-path="url(#p49d692b3c1)" style="fill: none; stroke-dasharray: 3.7,1.6; stroke-dashoffset: 0; stroke: #2ca02c; stroke-opacity: 0.6"/>
   </g>
   <g id="line2d_79">
    <path d="M 103.827273 251.37713 
L 127.855981 299.33943 
L 151.884689 286.302646 
L 175.913397 270.253166 
L 199.942105 255.488287 
L 223.970813 240.34548 
L 247.999522 225.49458 
L 272.02823 210.628711 
L 296.056938 196.179684 
L 320.085646 182.002312 
L 344.114354 168.05039 
L 368.143062 154.127987 
L 392.17177 140.79669 
L 416.200478 127.818738 
L 440.229187 115.352995 
L 464.257895 103.167303 
L 488.286603 91.218006 
L 512.315311 79.677712 
L 536.344019 68.483517 
L 560.372727 57.690494 
" clip-path="url(#p49d692b3c1)" style="fill: none; stroke-dasharray: 3.7,1.6; stroke-dashoffset: 0; stroke: #d62728; stroke-opacity: 0.6"/>
   </g>
   <g id="line2d_80">
    <path d="M 103.827273 251.37713 
L 127.855981 304.255409 
L 151.884689 291.088597 
L 175.913397 275.188258 
L 199.942105 260.670046 
L 223.970813 245.697455 
L 247.999522 230.833687 
L 272.02823 216.322025 
L 296.056938 201.986946 
L 320.085646 188.08537 
L 344.114354 174.10597 
L 368.143062 160.626617 
L 392.17177 147.412398 
L 416.200478 134.361991 
L 440.229187 121.764291 
L 464.257895 109.621638 
L 488.286603 97.7141 
L 512.315311 86.436951 
L 536.344019 74.996812 
L 560.372727 64.207794 
" clip-path="url(#p49d692b3c1)" style="fill: none; stroke-dasharray: 3.7,1.6; stroke-dashoffset: 0; stroke: #9467bd; stroke-opacity: 0.6"/>
   </g>
   <g id="line2d_81">
    <path d="M 103.827273 251.37713 
L 127.855981 300.655337 
L 151.884689 287.780121 
L 175.913397 271.664526 
L 199.942105 257.295227 
L 223.970813 242.165366 
L 247.999522 227.419647 
L 272.02823 212.745471 
L 296.056938 198.373688 
L 320.085646 183.964359 
L 344.114354 170.101918 
L 368.143062 156.357227 
L 392.17177 142.747644 
L 416.200478 129.801498 
L 440.229187 117.466186 
L 464.257895 105.385482 
L 488.286603 93.548175 
L 512.315311 82.003325 
L 536.344019 70.748539 
L 560.372727 59.855915 
" clip-path="url(#p49d692b3c1)" style="fill: none; stroke-dasharray: 3.7,1.6; stroke-dashoffset: 0; stroke: #8c564b; stroke-opacity: 0.6"/>
   </g>
   <g id="line2d_82">
    <path d="M 103.827273 251.37713 
L 127.855981 300.621504 
L 151.884689 287.801052 
L 175.913397 271.812043 
L 199.942105 257.357513 
L 223.970813 242.377468 
L 247.999522 227.592201 
L 272.02823 213.031396 
L 296.056938 198.636031 
L 320.085646 184.17971 
L 344.114354 170.209663 
L 368.143062 156.577824 
L 392.17177 142.949009 
L 416.200478 129.954244 
L 440.229187 117.632072 
L 464.257895 105.414284 
L 488.286603 93.472922 
L 512.315311 81.993579 
L 536.344019 70.849816 
L 560.372727 59.87595 
" clip-path="url(#p49d692b3c1)" style="fill: none; stroke-dasharray: 3.7,1.6; stroke-dashoffset: 0; stroke: #e377c2; stroke-opacity: 0.6"/>
   </g>
   <g id="line2d_83">
    <path d="M 103.827273 251.37713 
L 127.855981 299.1803 
L 151.884689 286.170038 
L 175.913397 270.286247 
L 199.942105 255.785019 
L 223.970813 240.585387 
L 247.999522 225.710517 
L 272.02823 210.849907 
L 296.056938 196.398928 
L 320.085646 181.944956 
L 344.114354 168.167261 
L 368.143062 154.277514 
L 392.17177 141.166443 
L 416.200478 128.186353 
L 440.229187 115.835591 
L 464.257895 103.719277 
L 488.286603 92.038926 
L 512.315311 80.267672 
L 536.344019 69.183566 
L 560.372727 58.650863 
" clip-path="url(#p49d692b3c1)" style="fill: none; stroke-dasharray: 3.7,1.6; stroke-dashoffset: 0; stroke: #7f7f7f; stroke-opacity: 0.6"/>
   </g>
   <g id="line2d_84">
    <path d="M 103.827273 251.37713 
L 127.855981 301.442674 
L 151.884689 288.521582 
L 175.913397 272.752895 
L 199.942105 258.305121 
L 223.970813 243.333389 
L 247.999522 228.573716 
L 272.02823 214.012645 
L 296.056938 199.625331 
L 320.085646 185.252019 
L 344.114354 171.529806 
L 368.143062 157.89853 
L 392.17177 144.406841 
L 416.200478 131.550622 
L 440.229187 118.952178 
L 464.257895 106.811536 
L 488.286603 94.885047 
L 512.315311 83.387651 
L 536.344019 72.285646 
L 560.372727 61.520515 
" clip-path="url(#p49d692b3c1)" style="fill: none; stroke-dasharray: 3.7,1.6; stroke-dashoffset: 0; stroke: #bcbd22; stroke-opacity: 0.6"/>
   </g>
   <g id="line2d_85">
    <path d="M 103.827273 251.37713 
L 127.855981 305.76944 
L 151.884689 292.691799 
L 175.913397 277.20156 
L 199.942105 262.804448 
L 223.970813 247.722157 
L 247.999522 232.7319 
L 272.02823 218.315702 
L 296.056938 203.683798 
L 320.085646 189.647413 
L 344.114354 175.767911 
L 368.143062 162.394744 
L 392.17177 149.095527 
L 416.200478 136.209011 
L 440.229187 123.414236 
L 464.257895 111.143223 
L 488.286603 99.522979 
L 512.315311 88.224145 
L 536.344019 77.0498 
L 560.372727 66.23305 
" clip-path="url(#p49d692b3c1)" style="fill: none; stroke-dasharray: 3.7,1.6; stroke-dashoffset: 0; stroke: #17becf; stroke-opacity: 0.6"/>
   </g>
   <g id="line2d_86">
    <path d="M 103.827273 251.37713 
L 127.855981 300.779774 
L 151.884689 288.050786 
L 175.913397 272.228172 
L 199.942105 257.775894 
L 223.970813 242.843176 
L 247.999522 228.213192 
L 272.02823 213.669581 
L 296.056938 199.380462 
L 320.085646 185.082109 
L 344.114354 171.414208 
L 368.143062 157.78771 
L 392.17177 144.44587 
L 416.200478 131.628814 
L 440.229187 118.904624 
L 464.257895 106.658502 
L 488.286603 94.697951 
L 512.315311 83.295075 
L 536.344019 72.344408 
L 560.372727 61.597586 
" clip-path="url(#p49d692b3c1)" style="fill: none; stroke-dasharray: 3.7,1.6; stroke-dashoffset: 0; stroke: #1f77b4; stroke-opacity: 0.6"/>
   </g>
   <g id="line2d_87">
    <path d="M 103.827273 251.37713 
L 127.855981 304.667714 
L 151.884689 291.59552 
L 175.913397 275.767094 
L 199.942105 261.403354 
L 223.970813 246.41465 
L 247.999522 231.675597 
L 272.02823 217.163234 
L 296.056938 202.73518 
L 320.085646 188.753011 
L 344.114354 174.823067 
L 368.143062 161.129615 
L 392.17177 147.812209 
L 416.200478 134.774057 
L 440.229187 122.311671 
L 464.257895 110.155912 
L 488.286603 98.238481 
L 512.315311 86.766565 
L 536.344019 75.529364 
L 560.372727 64.709659 
" clip-path="url(#p49d692b3c1)" style="fill: none; stroke-dasharray: 3.7,1.6; stroke-dashoffset: 0; stroke: #ff7f0e; stroke-opacity: 0.6"/>
   </g>
   <g id="line2d_88">
    <path d="M 103.827273 251.37713 
L 127.855981 306.504737 
L 151.884689 293.512395 
L 175.913397 277.869843 
L 199.942105 263.542294 
L 223.970813 248.607734 
L 247.999522 234.11248 
L 272.02823 219.505092 
L 296.056938 205.202881 
L 320.085646 191.24381 
L 344.114354 177.463011 
L 368.143062 163.950485 
L 392.17177 150.760359 
L 416.200478 137.870777 
L 440.229187 125.484314 
L 464.257895 113.299382 
L 488.286603 101.318698 
L 512.315311 89.980079 
L 536.344019 78.82494 
L 560.372727 68.24834 
" clip-path="url(#p49d692b3c1)" style="fill: none; stroke-dasharray: 3.7,1.6; stroke-dashoffset: 0; stroke: #2ca02c; stroke-opacity: 0.6"/>
   </g>
   <g id="line2d_89">
    <path d="M 103.827273 251.37713 
L 127.855981 299.956311 
L 151.884689 286.982319 
L 175.913397 271.140179 
L 199.942105 256.667222 
L 223.970813 241.424982 
L 247.999522 226.794905 
L 272.02823 212.03415 
L 296.056938 197.524292 
L 320.085646 183.273646 
L 344.114354 169.658899 
L 368.143062 155.901451 
L 392.17177 142.448818 
L 416.200478 129.560851 
L 440.229187 117.097631 
L 464.257895 104.947042 
L 488.286603 93.142775 
L 512.315311 81.50982 
L 536.344019 70.587988 
L 560.372727 59.922401 
" clip-path="url(#p49d692b3c1)" style="fill: none; stroke-dasharray: 3.7,1.6; stroke-dashoffset: 0; stroke: #d62728; stroke-opacity: 0.6"/>
   </g>
   <g id="line2d_90">
    <path d="M 103.827273 251.37713 
L 127.855981 301.635064 
L 151.884689 288.851168 
L 175.913397 273.04899 
L 199.942105 258.645518 
L 223.970813 243.734581 
L 247.999522 229.090161 
L 272.02823 214.526775 
L 296.056938 200.257464 
L 320.085646 186.173811 
L 344.114354 172.110117 
L 368.143062 158.69818 
L 392.17177 145.473796 
L 416.200478 132.397167 
L 440.229187 119.908433 
L 464.257895 107.628811 
L 488.286603 95.843837 
L 512.315311 84.464496 
L 536.344019 73.456107 
L 560.372727 62.845042 
" clip-path="url(#p49d692b3c1)" style="fill: none; stroke-dasharray: 3.7,1.6; stroke-dashoffset: 0; stroke: #9467bd; stroke-opacity: 0.6"/>
   </g>
   <g id="line2d_91">
    <path d="M 103.827273 251.37713 
L 127.855981 302.495227 
L 151.884689 289.51206 
L 175.913397 273.785451 
L 199.942105 259.392473 
L 223.970813 244.384702 
L 247.999522 229.429251 
L 272.02823 214.868313 
L 296.056938 200.247769 
L 320.085646 186.25714 
L 344.114354 172.345225 
L 368.143062 158.731388 
L 392.17177 145.553147 
L 416.200478 132.279048 
L 440.229187 119.661842 
L 464.257895 107.395165 
L 488.286603 95.60405 
L 512.315311 84.002312 
L 536.344019 72.939454 
L 560.372727 62.212329 
" clip-path="url(#p49d692b3c1)" style="fill: none; stroke-dasharray: 3.7,1.6; stroke-dashoffset: 0; stroke: #8c564b; stroke-opacity: 0.6"/>
   </g>
   <g id="line2d_92">
    <path d="M 103.827273 251.37713 
L 127.855981 305.629807 
L 151.884689 292.596177 
L 175.913397 276.922584 
L 199.942105 262.606195 
L 223.970813 247.659877 
L 247.999522 232.857447 
L 272.02823 218.287941 
L 296.056938 203.861578 
L 320.085646 189.995086 
L 344.114354 176.232471 
L 368.143062 162.585533 
L 392.17177 149.459318 
L 416.200478 136.492831 
L 440.229187 123.864098 
L 464.257895 111.551173 
L 488.286603 99.682046 
L 512.315311 88.258065 
L 536.344019 77.059741 
L 560.372727 66.369001 
" clip-path="url(#p49d692b3c1)" style="fill: none; stroke-dasharray: 3.7,1.6; stroke-dashoffset: 0; stroke: #e377c2; stroke-opacity: 0.6"/>
   </g>
   <g id="line2d_93">
    <path d="M 103.827273 251.37713 
L 127.855981 299.733959 
L 151.884689 286.716528 
L 175.913397 270.796695 
L 199.942105 256.292166 
L 223.970813 241.045172 
L 247.999522 226.246578 
L 272.02823 211.410242 
L 296.056938 196.728183 
L 320.085646 182.414056 
L 344.114354 168.482486 
L 368.143062 154.493506 
L 392.17177 141.180954 
L 416.200478 128.302767 
L 440.229187 115.767032 
L 464.257895 103.589641 
L 488.286603 91.834786 
L 512.315311 80.089484 
L 536.344019 69.025296 
L 560.372727 58.326069 
" clip-path="url(#p49d692b3c1)" style="fill: none; stroke-dasharray: 3.7,1.6; stroke-dashoffset: 0; stroke: #7f7f7f; stroke-opacity: 0.6"/>
   </g>
   <g id="line2d_94">
    <path d="M 103.827273 251.37713 
L 127.855981 305.147972 
L 151.884689 292.057428 
L 175.913397 276.308589 
L 199.942105 261.906722 
L 223.970813 247.090341 
L 247.999522 232.252896 
L 272.02823 217.796423 
L 296.056938 203.413017 
L 320.085646 189.337193 
L 344.114354 175.319257 
L 368.143062 161.894569 
L 392.17177 148.732664 
L 416.200478 135.874261 
L 440.229187 123.122582 
L 464.257895 111.12509 
L 488.286603 99.21569 
L 512.315311 87.767347 
L 536.344019 76.566064 
L 560.372727 65.898483 
" clip-path="url(#p49d692b3c1)" style="fill: none; stroke-dasharray: 3.7,1.6; stroke-dashoffset: 0; stroke: #bcbd22; stroke-opacity: 0.6"/>
   </g>
   <g id="line2d_95">
    <path d="M 103.827273 251.37713 
L 127.855981 300.622221 
L 151.884689 287.701559 
L 175.913397 271.644354 
L 199.942105 257.039081 
L 223.970813 241.910029 
L 247.999522 227.122137 
L 272.02823 212.306846 
L 296.056938 197.836914 
L 320.085646 183.611566 
L 344.114354 169.841555 
L 368.143062 155.917129 
L 392.17177 142.345686 
L 416.200478 129.531707 
L 440.229187 116.991591 
L 464.257895 104.766632 
L 488.286603 93.08254 
L 512.315311 81.627003 
L 536.344019 70.576938 
L 560.372727 59.690108 
" clip-path="url(#p49d692b3c1)" style="fill: none; stroke-dasharray: 3.7,1.6; stroke-dashoffset: 0; stroke: #17becf; stroke-opacity: 0.6"/>
   </g>
   <g id="line2d_96">
    <path d="M 103.827273 251.37713 
L 127.855981 297.188591 
L 151.884689 284.217753 
L 175.913397 268.360447 
L 199.942105 253.707641 
L 223.970813 238.585201 
L 247.999522 223.84306 
L 272.02823 209.013305 
L 296.056938 194.307099 
L 320.085646 180.15174 
L 344.114354 166.157139 
L 368.143062 152.32324 
L 392.17177 139.27647 
L 416.200478 126.13529 
L 440.229187 113.402967 
L 464.257895 100.954708 
L 488.286603 89.202515 
L 512.315311 77.697603 
L 536.344019 66.679965 
L 560.372727 55.952371 
" clip-path="url(#p49d692b3c1)" style="fill: none; stroke-dasharray: 3.7,1.6; stroke-dashoffset: 0; stroke: #1f77b4; stroke-opacity: 0.6"/>
   </g>
   <g id="line2d_97">
    <path d="M 103.827273 251.37713 
L 127.855981 298.540625 
L 151.884689 285.453378 
L 175.913397 269.393318 
L 199.942105 254.840631 
L 223.970813 239.697307 
L 247.999522 224.842216 
L 272.02823 210.019716 
L 296.056938 195.461044 
L 320.085646 181.124547 
L 344.114354 167.148292 
L 368.143062 153.33829 
L 392.17177 140.008981 
L 416.200478 127.10204 
L 440.229187 114.387354 
L 464.257895 101.999971 
L 488.286603 90.115178 
L 512.315311 78.336152 
L 536.344019 67.294309 
L 560.372727 56.648678 
" clip-path="url(#p49d692b3c1)" style="fill: none; stroke-dasharray: 3.7,1.6; stroke-dashoffset: 0; stroke: #ff7f0e; stroke-opacity: 0.6"/>
   </g>
   <g id="line2d_98">
    <path d="M 103.827273 251.37713 
L 127.855981 302.87585 
L 151.884689 289.858706 
L 175.913397 274.277702 
L 199.942105 259.952624 
L 223.970813 245.228528 
L 247.999522 230.561462 
L 272.02823 216.049272 
L 296.056938 201.557442 
L 320.085646 187.742994 
L 344.114354 173.725579 
L 368.143062 160.416705 
L 392.17177 147.352779 
L 416.200478 134.477706 
L 440.229187 121.859193 
L 464.257895 109.685028 
L 488.286603 97.834231 
L 512.315311 86.459762 
L 536.344019 75.160741 
L 560.372727 64.550323 
" clip-path="url(#p49d692b3c1)" style="fill: none; stroke-dasharray: 3.7,1.6; stroke-dashoffset: 0; stroke: #2ca02c; stroke-opacity: 0.6"/>
   </g>
   <g id="line2d_99">
    <path d="M 103.827273 251.37713 
L 127.855981 305.585652 
L 151.884689 292.524067 
L 175.913397 276.814779 
L 199.942105 262.484355 
L 223.970813 247.527032 
L 247.999522 232.742875 
L 272.02823 218.15984 
L 296.056938 203.733593 
L 320.085646 189.883462 
L 344.114354 176.159725 
L 368.143062 162.565411 
L 392.17177 149.461702 
L 416.200478 136.489455 
L 440.229187 123.852067 
L 464.257895 111.527086 
L 488.286603 99.761456 
L 512.315311 88.28789 
L 536.344019 77.137783 
L 560.372727 66.40731 
" clip-path="url(#p49d692b3c1)" style="fill: none; stroke-dasharray: 3.7,1.6; stroke-dashoffset: 0; stroke: #d62728; stroke-opacity: 0.6"/>
   </g>
   <g id="line2d_100">
    <path d="M 103.827273 251.37713 
L 127.855981 298.440846 
L 151.884689 285.458396 
L 175.913397 269.46209 
L 199.942105 254.882128 
L 223.970813 239.701257 
L 247.999522 224.926789 
L 272.02823 210.218272 
L 296.056938 195.807662 
L 320.085646 181.454522 
L 344.114354 167.584232 
L 368.143062 153.867697 
L 392.17177 140.754987 
L 416.200478 127.84372 
L 440.229187 115.51116 
L 464.257895 103.287565 
L 488.286603 91.378034 
L 512.315311 79.756139 
L 536.344019 68.616183 
L 560.372727 58.150421 
" clip-path="url(#p49d692b3c1)" style="fill: none; stroke-dasharray: 3.7,1.6; stroke-dashoffset: 0; stroke: #9467bd; stroke-opacity: 0.6"/>
   </g>
   <g id="line2d_101">
    <path d="M 103.827273 251.37713 
L 127.855981 302.561747 
L 151.884689 289.538582 
L 175.913397 273.832042 
L 199.942105 259.4306 
L 223.970813 244.486756 
L 247.999522 229.653554 
L 272.02823 215.033014 
L 296.056938 200.380952 
L 320.085646 186.464721 
L 344.114354 172.467012 
L 368.143062 158.956034 
L 392.17177 145.841843 
L 416.200478 132.691937 
L 440.229187 120.139502 
L 464.257895 107.829104 
L 488.286603 96.099754 
L 512.315311 84.659007 
L 536.344019 73.649056 
L 560.372727 63.075458 
" clip-path="url(#p49d692b3c1)" style="fill: none; stroke-dasharray: 3.7,1.6; stroke-dashoffset: 0; stroke: #8c564b; stroke-opacity: 0.6"/>
   </g>
   <g id="line2d_102">
    <path d="M 103.827273 251.37713 
L 127.855981 306.271346 
L 151.884689 293.214348 
L 175.913397 277.440991 
L 199.942105 262.833641 
L 223.970813 247.918149 
L 247.999522 233.360087 
L 272.02823 218.643408 
L 296.056938 204.286503 
L 320.085646 190.105067 
L 344.114354 176.389044 
L 368.143062 162.574115 
L 392.17177 149.292206 
L 416.200478 136.194734 
L 440.229187 123.402981 
L 464.257895 111.062323 
L 488.286603 99.249062 
L 512.315311 87.892164 
L 536.344019 76.697038 
L 560.372727 65.958189 
" clip-path="url(#p49d692b3c1)" style="fill: none; stroke-dasharray: 3.7,1.6; stroke-dashoffset: 0; stroke: #e377c2; stroke-opacity: 0.6"/>
   </g>
   <g id="line2d_103">
    <path d="M 103.827273 251.37713 
L 127.855981 300.806296 
L 151.884689 287.96692 
L 175.913397 271.976147 
L 199.942105 257.502881 
L 223.970813 242.363196 
L 247.999522 227.578573 
L 272.02823 212.838704 
L 296.056938 198.492419 
L 320.085646 184.309674 
L 344.114354 170.516634 
L 368.143062 156.833136 
L 392.17177 143.314178 
L 416.200478 130.35955 
L 440.229187 117.858366 
L 464.257895 105.803908 
L 488.286603 93.987228 
L 512.315311 82.58619 
L 536.344019 71.527642 
L 560.372727 60.568244 
" clip-path="url(#p49d692b3c1)" style="fill: none; stroke-dasharray: 3.7,1.6; stroke-dashoffset: 0; stroke: #7f7f7f; stroke-opacity: 0.6"/>
   </g>
   <g id="line2d_104">
    <path d="M 103.827273 251.37713 
L 127.855981 304.290676 
L 151.884689 291.20902 
L 175.913397 275.523394 
L 199.942105 261.233364 
L 223.970813 246.18324 
L 247.999522 231.490495 
L 272.02823 216.920457 
L 296.056938 202.455877 
L 320.085646 188.608839 
L 344.114354 174.634143 
L 368.143062 160.952342 
L 392.17177 147.616419 
L 416.200478 134.524857 
L 440.229187 122.02496 
L 464.257895 109.829199 
L 488.286603 98.139962 
L 512.315311 86.656204 
L 536.344019 75.42042 
L 560.372727 64.738541 
" clip-path="url(#p49d692b3c1)" style="fill: none; stroke-dasharray: 3.7,1.6; stroke-dashoffset: 0; stroke: #bcbd22; stroke-opacity: 0.6"/>
   </g>
   <g id="line2d_105">
    <path d="M 103.827273 251.37713 
L 127.855981 305.505944 
L 151.884689 292.426008 
L 175.913397 276.764176 
L 199.942105 262.409247 
L 223.970813 247.468149 
L 247.999522 232.659945 
L 272.02823 218.079838 
L 296.056938 203.653953 
L 320.085646 189.82715 
L 344.114354 176.120858 
L 368.143062 162.514308 
L 392.17177 149.342768 
L 416.200478 136.403114 
L 440.229187 123.790824 
L 464.257895 111.413682 
L 488.286603 99.634517 
L 512.315311 88.172403 
L 536.344019 76.968929 
L 560.372727 66.150768 
" clip-path="url(#p49d692b3c1)" style="fill: none; stroke-dasharray: 3.7,1.6; stroke-dashoffset: 0; stroke: #17becf; stroke-opacity: 0.6"/>
   </g>
   <g id="line2d_106">
    <path d="M 103.827273 251.37713 
L 127.855981 301.033809 
L 151.884689 288.182391 
L 175.913397 272.357622 
L 199.942105 257.834104 
L 223.970813 242.831942 
L 247.999522 227.952736 
L 272.02823 213.20192 
L 296.056938 198.883632 
L 320.085646 184.725085 
L 344.114354 170.985494 
L 368.143062 157.267987 
L 392.17177 143.984088 
L 416.200478 131.042324 
L 440.229187 118.612711 
L 464.257895 106.538041 
L 488.286603 94.311337 
L 512.315311 82.796015 
L 536.344019 71.686393 
L 560.372727 60.929956 
" clip-path="url(#p49d692b3c1)" style="fill: none; stroke-dasharray: 3.7,1.6; stroke-dashoffset: 0; stroke: #1f77b4; stroke-opacity: 0.6"/>
   </g>
   <g id="line2d_107">
    <path d="M 103.827273 251.37713 
L 127.855981 304.777958 
L 151.884689 291.709922 
L 175.913397 275.952418 
L 199.942105 261.737312 
L 223.970813 246.847333 
L 247.999522 232.128897 
L 272.02823 217.61422 
L 296.056938 203.417061 
L 320.085646 189.438013 
L 344.114354 175.383682 
L 368.143062 161.829951 
L 392.17177 148.505392 
L 416.200478 135.615529 
L 440.229187 122.941865 
L 464.257895 110.711265 
L 488.286603 98.892339 
L 512.315311 87.445755 
L 536.344019 76.258787 
L 560.372727 65.561263 
" clip-path="url(#p49d692b3c1)" style="fill: none; stroke-dasharray: 3.7,1.6; stroke-dashoffset: 0; stroke: #ff7f0e; stroke-opacity: 0.6"/>
   </g>
   <g id="line2d_108">
    <path d="M 103.827273 251.37713 
L 127.855981 304.493674 
L 151.884689 291.401267 
L 175.913397 275.710005 
L 199.942105 261.481751 
L 223.970813 246.501682 
L 247.999522 231.787 
L 272.02823 217.42462 
L 296.056938 203.201241 
L 320.085646 189.197582 
L 344.114354 175.174806 
L 368.143062 161.545799 
L 392.17177 148.329646 
L 416.200478 135.409159 
L 440.229187 122.696775 
L 464.257895 110.578172 
L 488.286603 98.739656 
L 512.315311 87.196114 
L 536.344019 75.8888 
L 560.372727 65.164281 
" clip-path="url(#p49d692b3c1)" style="fill: none; stroke-dasharray: 3.7,1.6; stroke-dashoffset: 0; stroke: #2ca02c; stroke-opacity: 0.6"/>
   </g>
   <g id="line2d_109">
    <path d="M 103.827273 251.37713 
L 127.855981 304.816379 
L 151.884689 291.685694 
L 175.913397 275.860419 
L 199.942105 261.632714 
L 223.970813 246.73757 
L 247.999522 232.086983 
L 272.02823 217.542845 
L 296.056938 203.18782 
L 320.085646 189.093586 
L 344.114354 175.111275 
L 368.143062 161.659104 
L 392.17177 148.380138 
L 416.200478 135.446864 
L 440.229187 122.77055 
L 464.257895 110.69547 
L 488.286603 98.797595 
L 512.315311 87.508772 
L 536.344019 76.332043 
L 560.372727 65.619712 
" clip-path="url(#p49d692b3c1)" style="fill: none; stroke-dasharray: 3.7,1.6; stroke-dashoffset: 0; stroke: #d62728; stroke-opacity: 0.6"/>
   </g>
   <g id="line2d_110">
    <path d="M 103.827273 251.37713 
L 127.855981 304.077928 
L 151.884689 290.936635 
L 175.913397 275.157403 
L 199.942105 260.856408 
L 223.970813 245.815833 
L 247.999522 231.067453 
L 272.02823 216.604303 
L 296.056938 202.103783 
L 320.085646 188.274916 
L 344.114354 174.242482 
L 368.143062 160.55953 
L 392.17177 147.141123 
L 416.200478 134.084186 
L 440.229187 121.479046 
L 464.257895 109.194219 
L 488.286603 97.425462 
L 512.315311 86.132474 
L 536.344019 74.750685 
L 560.372727 64.135843 
" clip-path="url(#p49d692b3c1)" style="fill: none; stroke-dasharray: 3.7,1.6; stroke-dashoffset: 0; stroke: #9467bd; stroke-opacity: 0.6"/>
   </g>
   <g id="line2d_111">
    <path d="M 103.827273 251.37713 
L 127.855981 303.966107 
L 151.884689 290.847178 
L 175.913397 274.928965 
L 199.942105 260.382512 
L 223.970813 245.315838 
L 247.999522 230.375047 
L 272.02823 215.883203 
L 296.056938 201.545483 
L 320.085646 187.597604 
L 344.114354 173.529595 
L 368.143062 160.02829 
L 392.17177 146.746518 
L 416.200478 133.627802 
L 440.229187 120.978539 
L 464.257895 108.943986 
L 488.286603 97.085466 
L 512.315311 85.60484 
L 536.344019 74.367034 
L 560.372727 63.619483 
" clip-path="url(#p49d692b3c1)" style="fill: none; stroke-dasharray: 3.7,1.6; stroke-dashoffset: 0; stroke: #8c564b; stroke-opacity: 0.6"/>
   </g>
   <g id="line2d_112">
    <path d="M 103.827273 251.37713 
L 127.855981 304.145308 
L 151.884689 291.068383 
L 175.913397 275.425196 
L 199.942105 261.197403 
L 223.970813 246.250378 
L 247.999522 231.550615 
L 272.02823 216.986309 
L 296.056938 202.649447 
L 320.085646 188.838783 
L 344.114354 174.76222 
L 368.143062 161.226791 
L 392.17177 147.979173 
L 416.200478 135.111321 
L 440.229187 122.393779 
L 464.257895 110.20447 
L 488.286603 98.203795 
L 512.315311 86.824101 
L 536.344019 75.68019 
L 560.372727 65.007872 
" clip-path="url(#p49d692b3c1)" style="fill: none; stroke-dasharray: 3.7,1.6; stroke-dashoffset: 0; stroke: #e377c2; stroke-opacity: 0.6"/>
   </g>
   <g id="line2d_113">
    <path d="M 103.827273 251.37713 
L 127.855981 302.99785 
L 151.884689 289.980563 
L 175.913397 274.144019 
L 199.942105 259.558148 
L 223.970813 244.562901 
L 247.999522 229.782999 
L 272.02823 215.113841 
L 296.056938 200.507938 
L 320.085646 186.261043 
L 344.114354 172.317423 
L 368.143062 158.824332 
L 392.17177 145.464446 
L 416.200478 132.064297 
L 440.229187 119.588331 
L 464.257895 107.245245 
L 488.286603 95.339081 
L 512.315311 83.76153 
L 536.344019 72.623171 
L 560.372727 61.96653 
" clip-path="url(#p49d692b3c1)" style="fill: none; stroke-dasharray: 3.7,1.6; stroke-dashoffset: 0; stroke: #7f7f7f; stroke-opacity: 0.6"/>
   </g>
   <g id="line2d_114">
    <path d="M 103.827273 251.37713 
L 127.855981 306.911164 
L 151.884689 293.883555 
L 175.913397 278.318872 
L 199.942105 263.957678 
L 223.970813 248.915181 
L 247.999522 234.311907 
L 272.02823 219.764218 
L 296.056938 205.539921 
L 320.085646 191.440831 
L 344.114354 177.703319 
L 368.143062 164.020741 
L 392.17177 150.766772 
L 416.200478 137.79178 
L 440.229187 125.316059 
L 464.257895 112.98766 
L 488.286603 101.157458 
L 512.315311 89.694346 
L 536.344019 78.347849 
L 560.372727 67.755106 
" clip-path="url(#p49d692b3c1)" style="fill: none; stroke-dasharray: 3.7,1.6; stroke-dashoffset: 0; stroke: #bcbd22; stroke-opacity: 0.6"/>
   </g>
   <g id="line2d_115">
    <path d="M 103.827273 251.37713 
L 127.855981 303.973849 
L 151.884689 290.870115 
L 175.913397 275.114291 
L 199.942105 260.847244 
L 223.970813 246.021878 
L 247.999522 231.284554 
L 272.02823 216.714809 
L 296.056938 202.306748 
L 320.085646 188.455965 
L 344.114354 174.506215 
L 368.143062 160.809945 
L 392.17177 147.431425 
L 416.200478 134.421699 
L 440.229187 121.941998 
L 464.257895 109.775915 
L 488.286603 98.097717 
L 512.315311 86.627377 
L 536.344019 75.235063 
L 560.372727 64.674379 
" clip-path="url(#p49d692b3c1)" style="fill: none; stroke-dasharray: 3.7,1.6; stroke-dashoffset: 0; stroke: #17becf; stroke-opacity: 0.6"/>
   </g>
   <g id="line2d_116">
    <path d="M 103.827273 251.37713 
L 127.855981 302.506024 
L 151.884689 289.505821 
L 175.913397 273.703507 
L 199.942105 259.249644 
L 223.970813 244.211329 
L 247.999522 229.426207 
L 272.02823 214.798447 
L 296.056938 200.343977 
L 320.085646 186.213067 
L 344.114354 172.319766 
L 368.143062 158.656914 
L 392.17177 145.36824 
L 416.200478 132.400712 
L 440.229187 119.846979 
L 464.257895 107.613289 
L 488.286603 95.750172 
L 512.315311 84.248712 
L 536.344019 73.083752 
L 560.372727 62.393726 
" clip-path="url(#p49d692b3c1)" style="fill: none; stroke: #000000; stroke-width: 2.5; stroke-linecap: square"/>
   </g>
   <g id="patch_3">
    <path d="M 81 320.4 
L 81 43.2 
" style="fill: none; stroke: #000000; stroke-width: 0.8; stroke-linejoin: miter; stroke-linecap: square"/>
   </g>
   <g id="patch_4">
    <path d="M 583.2 320.4 
L 583.2 43.2 
" style="fill: none; stroke: #000000; stroke-width: 0.8; stroke-linejoin: miter; stroke-linecap: square"/>
   </g>
   <g id="patch_5">
    <path d="M 81 320.4 
L 583.2 320.4 
" style="fill: none; stroke: #000000; stroke-width: 0.8; stroke-linejoin: miter; stroke-linecap: square"/>
   </g>
   <g id="patch_6">
    <path d="M 81 43.2 
L 583.2 43.2 
" style="fill: none; stroke: #000000; stroke-width: 0.8; stroke-linejoin: miter; stroke-linecap: square"/>
   </g>
   <g id="legend_1">
    <g id="patch_7">
     <path d="M 88 65.878125 
L 161.065625 65.878125 
Q 163.065625 65.878125 163.065625 63.878125 
L 163.065625 50.2 
Q 163.065625 48.2 161.065625 48.2 
L 88 48.2 
Q 86 48.2 86 50.2 
L 86 63.878125 
Q 86 65.878125 88 65.878125 
z
" style="fill: #ffffff; opacity: 0.8; stroke: #cccccc; stroke-linejoin: miter"/>
    </g>
    <g id="line2d_117">
     <path d="M 90 56.298437 
L 100 56.298437 
L 110 56.298437 
" style="fill: none; stroke: #000000; stroke-width: 2.5; stroke-linecap: square"/>
    </g>
    <g id="text_18">
     <!-- Average -->
     <g transform="translate(118 59.798437) scale(0.1 -0.1)">
      <defs>
       <path id="DejaVuSans-41" d="M 2188 4044 
L 1331 1722 
L 3047 1722 
L 2188 4044 
z
M 1831 4666 
L 2547 4666 
L 4325 0 
L 3669 0 
L 3244 1197 
L 1141 1197 
L 716 0 
L 50 0 
L 1831 4666 
z
" transform="scale(0.015625)"/>
       <path id="DejaVuSans-67" d="M 2906 1791 
Q 2906 2416 2648 2759 
Q 2391 3103 1925 3103 
Q 1463 3103 1205 2759 
Q 947 2416 947 1791 
Q 947 1169 1205 825 
Q 1463 481 1925 481 
Q 2391 481 2648 825 
Q 2906 1169 2906 1791 
z
M 3481 434 
Q 3481 -459 3084 -895 
Q 2688 -1331 1869 -1331 
Q 1566 -1331 1297 -1286 
Q 1028 -1241 775 -1147 
L 775 -588 
Q 1028 -725 1275 -790 
Q 1522 -856 1778 -856 
Q 2344 -856 2625 -561 
Q 2906 -266 2906 331 
L 2906 616 
Q 2728 306 2450 153 
Q 2172 0 1784 0 
Q 1141 0 747 490 
Q 353 981 353 1791 
Q 353 2603 747 3093 
Q 1141 3584 1784 3584 
Q 2172 3584 2450 3431 
Q 2728 3278 2906 2969 
L 2906 3500 
L 3481 3500 
L 3481 434 
z
" transform="scale(0.015625)"/>
      </defs>
      <use xlink:href="#DejaVuSans-41"/>
      <use xlink:href="#DejaVuSans-76" x="62.533203"/>
      <use xlink:href="#DejaVuSans-65" x="121.712891"/>
      <use xlink:href="#DejaVuSans-72" x="183.236328"/>
      <use xlink:href="#DejaVuSans-61" x="224.349609"/>
      <use xlink:href="#DejaVuSans-67" x="285.628906"/>
      <use xlink:href="#DejaVuSans-65" x="349.105469"/>
     </g>
    </g>
   </g>
  </g>
 </g>
 <defs>
  <clipPath id="p49d692b3c1">
   <rect x="81" y="43.2" width="502.2" height="277.2"/>
  </clipPath>
 </defs>
</svg>
