<?xml version="1.0" encoding="utf-8" standalone="no"?>
<!DOCTYPE svg PUBLIC "-//W3C//DTD SVG 1.1//EN"
  "http://www.w3.org/Graphics/SVG/1.1/DTD/svg11.dtd">
<svg xmlns:xlink="http://www.w3.org/1999/xlink" width="648pt" height="360pt" viewBox="0 0 648 360" xmlns="http://www.w3.org/2000/svg" version="1.1">
 <metadata>
  <rdf:RDF xmlns:dc="http://purl.org/dc/elements/1.1/" xmlns:cc="http://creativecommons.org/ns#" xmlns:rdf="http://www.w3.org/1999/02/22-rdf-syntax-ns#">
   <cc:Work>
    <dc:type rdf:resource="http://purl.org/dc/dcmitype/StillImage"/>
    <dc:date>2025-11-06T17:45:13.821931</dc:date>
    <dc:format>image/svg+xml</dc:format>
    <dc:creator>
     <cc:Agent>
      <dc:title>Matplotlib v3.7.2, https://matplotlib.org/</dc:title>
     </cc:Agent>
    </dc:creator>
   </cc:Work>
  </rdf:RDF>
 </metadata>
 <defs>
  <style type="text/css">*{stroke-linejoin: round; stroke-linecap: butt}</style>
 </defs>
 <g id="figure_1">
  <g id="patch_1">
   <path d="M 0 360 
L 648 360 
L 648 0 
L 0 0 
z
" style="fill: #ffffff"/>
  </g>
  <g id="axes_1">
   <g id="patch_2">
    <path d="M 81 320.4 
L 583.2 320.4 
L 583.2 43.2 
L 81 43.2 
z
" style="fill: #ffffff"/>
   </g>
   <g id="matplotlib.axis_1">
    <g id="xtick_1">
     <g id="line2d_1">
      <defs>
       <path id="m6ab76187ef" d="M 0 0 
L 0 3.5 
" style="stroke: #000000; stroke-width: 0.8"/>
      </defs>
      <g>
       <use xlink:href="#m6ab76187ef" x="103.827273" y="320.4" style="stroke: #000000; stroke-width: 0.8"/>
      </g>
     </g>
     <g id="text_1">
      <!-- 2005 -->
      <g transform="translate(88.557273 336.518125) scale(0.12 -0.12)">
       <defs>
        <path id="DejaVuSans-32" d="M 1228 531 
L 3431 531 
L 3431 0 
L 469 0 
L 469 531 
Q 828 903 1448 1529 
Q 2069 2156 2228 2338 
Q 2531 2678 2651 2914 
Q 2772 3150 2772 3378 
Q 2772 3750 2511 3984 
Q 2250 4219 1831 4219 
Q 1534 4219 1204 4116 
Q 875 4013 500 3803 
L 500 4441 
Q 881 4594 1212 4672 
Q 1544 4750 1819 4750 
Q 2544 4750 2975 4387 
Q 3406 4025 3406 3419 
Q 3406 3131 3298 2873 
Q 3191 2616 2906 2266 
Q 2828 2175 2409 1742 
Q 1991 1309 1228 531 
z
" transform="scale(0.015625)"/>
        <path id="DejaVuSans-30" d="M 2034 4250 
Q 1547 4250 1301 3770 
Q 1056 3291 1056 2328 
Q 1056 1369 1301 889 
Q 1547 409 2034 409 
Q 2525 409 2770 889 
Q 3016 1369 3016 2328 
Q 3016 3291 2770 3770 
Q 2525 4250 2034 4250 
z
M 2034 4750 
Q 2819 4750 3233 4129 
Q 3647 3509 3647 2328 
Q 3647 1150 3233 529 
Q 2819 -91 2034 -91 
Q 1250 -91 836 529 
Q 422 1150 422 2328 
Q 422 3509 836 4129 
Q 1250 4750 2034 4750 
z
" transform="scale(0.015625)"/>
        <path id="DejaVuSans-35" d="M 691 4666 
L 3169 4666 
L 3169 4134 
L 1269 4134 
L 1269 2991 
Q 1406 3038 1543 3061 
Q 1681 3084 1819 3084 
Q 2600 3084 3056 2656 
Q 3513 2228 3513 1497 
Q 3513 744 3044 326 
Q 2575 -91 1722 -91 
Q 1428 -91 1123 -41 
Q 819 9 494 109 
L 494 744 
Q 775 591 1075 516 
Q 1375 441 1709 441 
Q 2250 441 2565 725 
Q 2881 1009 2881 1497 
Q 2881 1984 2565 2268 
Q 2250 2553 1709 2553 
Q 1456 2553 1204 2497 
Q 953 2441 691 2322 
L 691 4666 
z
" transform="scale(0.015625)"/>
       </defs>
       <use xlink:href="#DejaVuSans-32"/>
       <use xlink:href="#DejaVuSans-30" x="63.623047"/>
       <use xlink:href="#DejaVuSans-30" x="127.246094"/>
       <use xlink:href="#DejaVuSans-35" x="190.869141"/>
      </g>
     </g>
    </g>
    <g id="xtick_2">
     <g id="line2d_2">
      <g>
       <use xlink:href="#m6ab76187ef" x="163.899043" y="320.4" style="stroke: #000000; stroke-width: 0.8"/>
      </g>
     </g>
     <g id="text_2">
      <!-- 2007 -->
      <g transform="translate(148.629043 336.518125) scale(0.12 -0.12)">
       <defs>
        <path id="DejaVuSans-37" d="M 525 4666 
L 3525 4666 
L 3525 4397 
L 1831 0 
L 1172 0 
L 2766 4134 
L 525 4134 
L 525 4666 
z
" transform="scale(0.015625)"/>
       </defs>
       <use xlink:href="#DejaVuSans-32"/>
       <use xlink:href="#DejaVuSans-30" x="63.623047"/>
       <use xlink:href="#DejaVuSans-30" x="127.246094"/>
       <use xlink:href="#DejaVuSans-37" x="190.869141"/>
      </g>
     </g>
    </g>
    <g id="xtick_3">
     <g id="line2d_3">
      <g>
       <use xlink:href="#m6ab76187ef" x="223.970813" y="320.4" style="stroke: #000000; stroke-width: 0.8"/>
      </g>
     </g>
     <g id="text_3">
      <!-- 2010 -->
      <g transform="translate(208.700813 336.518125) scale(0.12 -0.12)">
       <defs>
        <path id="DejaVuSans-31" d="M 794 531 
L 1825 531 
L 1825 4091 
L 703 3866 
L 703 4441 
L 1819 4666 
L 2450 4666 
L 2450 531 
L 3481 531 
L 3481 0 
L 794 0 
L 794 531 
z
" transform="scale(0.015625)"/>
       </defs>
       <use xlink:href="#DejaVuSans-32"/>
       <use xlink:href="#DejaVuSans-30" x="63.623047"/>
       <use xlink:href="#DejaVuSans-31" x="127.246094"/>
       <use xlink:href="#DejaVuSans-30" x="190.869141"/>
      </g>
     </g>
    </g>
    <g id="xtick_4">
     <g id="line2d_4">
      <g>
       <use xlink:href="#m6ab76187ef" x="284.042584" y="320.4" style="stroke: #000000; stroke-width: 0.8"/>
      </g>
     </g>
     <g id="text_4">
      <!-- 2012 -->
      <g transform="translate(268.772584 336.518125) scale(0.12 -0.12)">
       <use xlink:href="#DejaVuSans-32"/>
       <use xlink:href="#DejaVuSans-30" x="63.623047"/>
       <use xlink:href="#DejaVuSans-31" x="127.246094"/>
       <use xlink:href="#DejaVuSans-32" x="190.869141"/>
      </g>
     </g>
    </g>
    <g id="xtick_5">
     <g id="line2d_5">
      <g>
       <use xlink:href="#m6ab76187ef" x="344.114354" y="320.4" style="stroke: #000000; stroke-width: 0.8"/>
      </g>
     </g>
     <g id="text_5">
      <!-- 2015 -->
      <g transform="translate(328.844354 336.518125) scale(0.12 -0.12)">
       <use xlink:href="#DejaVuSans-32"/>
       <use xlink:href="#DejaVuSans-30" x="63.623047"/>
       <use xlink:href="#DejaVuSans-31" x="127.246094"/>
       <use xlink:href="#DejaVuSans-35" x="190.869141"/>
      </g>
     </g>
    </g>
    <g id="xtick_6">
     <g id="line2d_6">
      <g>
       <use xlink:href="#m6ab76187ef" x="404.186124" y="320.4" style="stroke: #000000; stroke-width: 0.8"/>
      </g>
     </g>
     <g id="text_6">
      <!-- 2017 -->
      <g transform="translate(388.916124 336.518125) scale(0.12 -0.12)">
       <use xlink:href="#DejaVuSans-32"/>
       <use xlink:href="#DejaVuSans-30" x="63.623047"/>
       <use xlink:href="#DejaVuSans-31" x="127.246094"/>
       <use xlink:href="#DejaVuSans-37" x="190.869141"/>
      </g>
     </g>
    </g>
    <g id="xtick_7">
     <g id="line2d_7">
      <g>
       <use xlink:href="#m6ab76187ef" x="464.257895" y="320.4" style="stroke: #000000; stroke-width: 0.8"/>
      </g>
     </g>
     <g id="text_7">
      <!-- 2020 -->
      <g transform="translate(448.987895 336.518125) scale(0.12 -0.12)">
       <use xlink:href="#DejaVuSans-32"/>
       <use xlink:href="#DejaVuSans-30" x="63.623047"/>
       <use xlink:href="#DejaVuSans-32" x="127.246094"/>
       <use xlink:href="#DejaVuSans-30" x="190.869141"/>
      </g>
     </g>
    </g>
    <g id="xtick_8">
     <g id="line2d_8">
      <g>
       <use xlink:href="#m6ab76187ef" x="524.329665" y="320.4" style="stroke: #000000; stroke-width: 0.8"/>
      </g>
     </g>
     <g id="text_8">
      <!-- 2022 -->
      <g transform="translate(509.059665 336.518125) scale(0.12 -0.12)">
       <use xlink:href="#DejaVuSans-32"/>
       <use xlink:href="#DejaVuSans-30" x="63.623047"/>
       <use xlink:href="#DejaVuSans-32" x="127.246094"/>
       <use xlink:href="#DejaVuSans-32" x="190.869141"/>
      </g>
     </g>
    </g>
    <g id="text_9">
     <!-- Year -->
     <g transform="translate(316.21875 354.411406) scale(0.15 -0.15)">
      <defs>
       <path id="DejaVuSans-59" d="M -13 4666 
L 666 4666 
L 1959 2747 
L 3244 4666 
L 3922 4666 
L 2272 2222 
L 2272 0 
L 1638 0 
L 1638 2222 
L -13 4666 
z
" transform="scale(0.015625)"/>
       <path id="DejaVuSans-65" d="M 3597 1894 
L 3597 1613 
L 953 1613 
Q 991 1019 1311 708 
Q 1631 397 2203 397 
Q 2534 397 2845 478 
Q 3156 559 3463 722 
L 3463 178 
Q 3153 47 2828 -22 
Q 2503 -91 2169 -91 
Q 1331 -91 842 396 
Q 353 884 353 1716 
Q 353 2575 817 3079 
Q 1281 3584 2069 3584 
Q 2775 3584 3186 3129 
Q 3597 2675 3597 1894 
z
M 3022 2063 
Q 3016 2534 2758 2815 
Q 2500 3097 2075 3097 
Q 1594 3097 1305 2825 
Q 1016 2553 972 2059 
L 3022 2063 
z
" transform="scale(0.015625)"/>
       <path id="DejaVuSans-61" d="M 2194 1759 
Q 1497 1759 1228 1600 
Q 959 1441 959 1056 
Q 959 750 1161 570 
Q 1363 391 1709 391 
Q 2188 391 2477 730 
Q 2766 1069 2766 1631 
L 2766 1759 
L 2194 1759 
z
M 3341 1997 
L 3341 0 
L 2766 0 
L 2766 531 
Q 2569 213 2275 61 
Q 1981 -91 1556 -91 
Q 1019 -91 701 211 
Q 384 513 384 1019 
Q 384 1609 779 1909 
Q 1175 2209 1959 2209 
L 2766 2209 
L 2766 2266 
Q 2766 2663 2505 2880 
Q 2244 3097 1772 3097 
Q 1472 3097 1187 3025 
Q 903 2953 641 2809 
L 641 3341 
Q 956 3463 1253 3523 
Q 1550 3584 1831 3584 
Q 2591 3584 2966 3190 
Q 3341 2797 3341 1997 
z
" transform="scale(0.015625)"/>
       <path id="DejaVuSans-72" d="M 2631 2963 
Q 2534 3019 2420 3045 
Q 2306 3072 2169 3072 
Q 1681 3072 1420 2755 
Q 1159 2438 1159 1844 
L 1159 0 
L 581 0 
L 581 3500 
L 1159 3500 
L 1159 2956 
Q 1341 3275 1631 3429 
Q 1922 3584 2338 3584 
Q 2397 3584 2469 3576 
Q 2541 3569 2628 3553 
L 2631 2963 
z
" transform="scale(0.015625)"/>
      </defs>
      <use xlink:href="#DejaVuSans-59"/>
      <use xlink:href="#DejaVuSans-65" x="47.833984"/>
      <use xlink:href="#DejaVuSans-61" x="109.357422"/>
      <use xlink:href="#DejaVuSans-72" x="170.636719"/>
     </g>
    </g>
   </g>
   <g id="matplotlib.axis_2">
    <g id="ytick_1">
     <g id="line2d_9">
      <defs>
       <path id="me47fecc360" d="M 0 0 
L -3.5 0 
" style="stroke: #000000; stroke-width: 0.8"/>
      </defs>
      <g>
       <use xlink:href="#me47fecc360" x="81" y="313.302465" style="stroke: #000000; stroke-width: 0.8"/>
      </g>
     </g>
     <g id="text_10">
      <!-- 15 -->
      <g transform="translate(58.73 317.861527) scale(0.12 -0.12)">
       <use xlink:href="#DejaVuSans-31"/>
       <use xlink:href="#DejaVuSans-35" x="63.623047"/>
      </g>
     </g>
    </g>
    <g id="ytick_2">
     <g id="line2d_10">
      <g>
       <use xlink:href="#me47fecc360" x="81" y="266.74086" style="stroke: #000000; stroke-width: 0.8"/>
      </g>
     </g>
     <g id="text_11">
      <!-- 20 -->
      <g transform="translate(58.73 271.299923) scale(0.12 -0.12)">
       <use xlink:href="#DejaVuSans-32"/>
       <use xlink:href="#DejaVuSans-30" x="63.623047"/>
      </g>
     </g>
    </g>
    <g id="ytick_3">
     <g id="line2d_11">
      <g>
       <use xlink:href="#me47fecc360" x="81" y="220.179256" style="stroke: #000000; stroke-width: 0.8"/>
      </g>
     </g>
     <g id="text_12">
      <!-- 25 -->
      <g transform="translate(58.73 224.738318) scale(0.12 -0.12)">
       <use xlink:href="#DejaVuSans-32"/>
       <use xlink:href="#DejaVuSans-35" x="63.623047"/>
      </g>
     </g>
    </g>
    <g id="ytick_4">
     <g id="line2d_12">
      <g>
       <use xlink:href="#me47fecc360" x="81" y="173.617651" style="stroke: #000000; stroke-width: 0.8"/>
      </g>
     </g>
     <g id="text_13">
      <!-- 30 -->
      <g transform="translate(58.73 178.176714) scale(0.12 -0.12)">
       <defs>
        <path id="DejaVuSans-33" d="M 2597 2516 
Q 3050 2419 3304 2112 
Q 3559 1806 3559 1356 
Q 3559 666 3084 287 
Q 2609 -91 1734 -91 
Q 1441 -91 1130 -33 
Q 819 25 488 141 
L 488 750 
Q 750 597 1062 519 
Q 1375 441 1716 441 
Q 2309 441 2620 675 
Q 2931 909 2931 1356 
Q 2931 1769 2642 2001 
Q 2353 2234 1838 2234 
L 1294 2234 
L 1294 2753 
L 1863 2753 
Q 2328 2753 2575 2939 
Q 2822 3125 2822 3475 
Q 2822 3834 2567 4026 
Q 2313 4219 1838 4219 
Q 1578 4219 1281 4162 
Q 984 4106 628 3988 
L 628 4550 
Q 988 4650 1302 4700 
Q 1616 4750 1894 4750 
Q 2613 4750 3031 4423 
Q 3450 4097 3450 3541 
Q 3450 3153 3228 2886 
Q 3006 2619 2597 2516 
z
" transform="scale(0.015625)"/>
       </defs>
       <use xlink:href="#DejaVuSans-33"/>
       <use xlink:href="#DejaVuSans-30" x="63.623047"/>
      </g>
     </g>
    </g>
    <g id="ytick_5">
     <g id="line2d_13">
      <g>
       <use xlink:href="#me47fecc360" x="81" y="127.056047" style="stroke: #000000; stroke-width: 0.8"/>
      </g>
     </g>
     <g id="text_14">
      <!-- 35 -->
      <g transform="translate(58.73 131.615109) scale(0.12 -0.12)">
       <use xlink:href="#DejaVuSans-33"/>
       <use xlink:href="#DejaVuSans-35" x="63.623047"/>
      </g>
     </g>
    </g>
    <g id="ytick_6">
     <g id="line2d_14">
      <g>
       <use xlink:href="#me47fecc360" x="81" y="80.494442" style="stroke: #000000; stroke-width: 0.8"/>
      </g>
     </g>
     <g id="text_15">
      <!-- 40 -->
      <g transform="translate(58.73 85.053505) scale(0.12 -0.12)">
       <defs>
        <path id="DejaVuSans-34" d="M 2419 4116 
L 825 1625 
L 2419 1625 
L 2419 4116 
z
M 2253 4666 
L 3047 4666 
L 3047 1625 
L 3713 1625 
L 3713 1100 
L 3047 1100 
L 3047 0 
L 2419 0 
L 2419 1100 
L 313 1100 
L 313 1709 
L 2253 4666 
z
" transform="scale(0.015625)"/>
       </defs>
       <use xlink:href="#DejaVuSans-34"/>
       <use xlink:href="#DejaVuSans-30" x="63.623047"/>
      </g>
     </g>
    </g>
    <g id="text_16">
     <!-- Total coral cover (%) -->
     <g transform="translate(51.610469 258.769922) rotate(-90) scale(0.15 -0.15)">
      <defs>
       <path id="DejaVuSans-54" d="M -19 4666 
L 3928 4666 
L 3928 4134 
L 2272 4134 
L 2272 0 
L 1638 0 
L 1638 4134 
L -19 4134 
L -19 4666 
z
" transform="scale(0.015625)"/>
       <path id="DejaVuSans-6f" d="M 1959 3097 
Q 1497 3097 1228 2736 
Q 959 2375 959 1747 
Q 959 1119 1226 758 
Q 1494 397 1959 397 
Q 2419 397 2687 759 
Q 2956 1122 2956 1747 
Q 2956 2369 2687 2733 
Q 2419 3097 1959 3097 
z
M 1959 3584 
Q 2709 3584 3137 3096 
Q 3566 2609 3566 1747 
Q 3566 888 3137 398 
Q 2709 -91 1959 -91 
Q 1206 -91 779 398 
Q 353 888 353 1747 
Q 353 2609 779 3096 
Q 1206 3584 1959 3584 
z
" transform="scale(0.015625)"/>
       <path id="DejaVuSans-74" d="M 1172 4494 
L 1172 3500 
L 2356 3500 
L 2356 3053 
L 1172 3053 
L 1172 1153 
Q 1172 725 1289 603 
Q 1406 481 1766 481 
L 2356 481 
L 2356 0 
L 1766 0 
Q 1100 0 847 248 
Q 594 497 594 1153 
L 594 3053 
L 172 3053 
L 172 3500 
L 594 3500 
L 594 4494 
L 1172 4494 
z
" transform="scale(0.015625)"/>
       <path id="DejaVuSans-6c" d="M 603 4863 
L 1178 4863 
L 1178 0 
L 603 0 
L 603 4863 
z
" transform="scale(0.015625)"/>
       <path id="DejaVuSans-20" transform="scale(0.015625)"/>
       <path id="DejaVuSans-63" d="M 3122 3366 
L 3122 2828 
Q 2878 2963 2633 3030 
Q 2388 3097 2138 3097 
Q 1578 3097 1268 2742 
Q 959 2388 959 1747 
Q 959 1106 1268 751 
Q 1578 397 2138 397 
Q 2388 397 2633 464 
Q 2878 531 3122 666 
L 3122 134 
Q 2881 22 2623 -34 
Q 2366 -91 2075 -91 
Q 1284 -91 818 406 
Q 353 903 353 1747 
Q 353 2603 823 3093 
Q 1294 3584 2113 3584 
Q 2378 3584 2631 3529 
Q 2884 3475 3122 3366 
z
" transform="scale(0.015625)"/>
       <path id="DejaVuSans-76" d="M 191 3500 
L 800 3500 
L 1894 563 
L 2988 3500 
L 3597 3500 
L 2284 0 
L 1503 0 
L 191 3500 
z
" transform="scale(0.015625)"/>
       <path id="DejaVuSans-28" d="M 1984 4856 
Q 1566 4138 1362 3434 
Q 1159 2731 1159 2009 
Q 1159 1288 1364 580 
Q 1569 -128 1984 -844 
L 1484 -844 
Q 1016 -109 783 600 
Q 550 1309 550 2009 
Q 550 2706 781 3412 
Q 1013 4119 1484 4856 
L 1984 4856 
z
" transform="scale(0.015625)"/>
       <path id="DejaVuSans-25" d="M 4653 2053 
Q 4381 2053 4226 1822 
Q 4072 1591 4072 1178 
Q 4072 772 4226 539 
Q 4381 306 4653 306 
Q 4919 306 5073 539 
Q 5228 772 5228 1178 
Q 5228 1588 5073 1820 
Q 4919 2053 4653 2053 
z
M 4653 2450 
Q 5147 2450 5437 2106 
Q 5728 1763 5728 1178 
Q 5728 594 5436 251 
Q 5144 -91 4653 -91 
Q 4153 -91 3862 251 
Q 3572 594 3572 1178 
Q 3572 1766 3864 2108 
Q 4156 2450 4653 2450 
z
M 1428 4353 
Q 1159 4353 1004 4120 
Q 850 3888 850 3481 
Q 850 3069 1003 2837 
Q 1156 2606 1428 2606 
Q 1700 2606 1854 2837 
Q 2009 3069 2009 3481 
Q 2009 3884 1853 4118 
Q 1697 4353 1428 4353 
z
M 4250 4750 
L 4750 4750 
L 1831 -91 
L 1331 -91 
L 4250 4750 
z
M 1428 4750 
Q 1922 4750 2215 4408 
Q 2509 4066 2509 3481 
Q 2509 2891 2217 2550 
Q 1925 2209 1428 2209 
Q 931 2209 642 2551 
Q 353 2894 353 3481 
Q 353 4063 643 4406 
Q 934 4750 1428 4750 
z
" transform="scale(0.015625)"/>
       <path id="DejaVuSans-29" d="M 513 4856 
L 1013 4856 
Q 1481 4119 1714 3412 
Q 1947 2706 1947 2009 
Q 1947 1309 1714 600 
Q 1481 -109 1013 -844 
L 513 -844 
Q 928 -128 1133 580 
Q 1338 1288 1338 2009 
Q 1338 2731 1133 3434 
Q 928 4138 513 4856 
z
" transform="scale(0.015625)"/>
      </defs>
      <use xlink:href="#DejaVuSans-54"/>
      <use xlink:href="#DejaVuSans-6f" x="44.083984"/>
      <use xlink:href="#DejaVuSans-74" x="105.265625"/>
      <use xlink:href="#DejaVuSans-61" x="144.474609"/>
      <use xlink:href="#DejaVuSans-6c" x="205.753906"/>
      <use xlink:href="#DejaVuSans-20" x="233.537109"/>
      <use xlink:href="#DejaVuSans-63" x="265.324219"/>
      <use xlink:href="#DejaVuSans-6f" x="320.304688"/>
      <use xlink:href="#DejaVuSans-72" x="381.486328"/>
      <use xlink:href="#DejaVuSans-61" x="422.599609"/>
      <use xlink:href="#DejaVuSans-6c" x="483.878906"/>
      <use xlink:href="#DejaVuSans-20" x="511.662109"/>
      <use xlink:href="#DejaVuSans-63" x="543.449219"/>
      <use xlink:href="#DejaVuSans-6f" x="598.429688"/>
      <use xlink:href="#DejaVuSans-76" x="659.611328"/>
      <use xlink:href="#DejaVuSans-65" x="718.791016"/>
      <use xlink:href="#DejaVuSans-72" x="780.314453"/>
      <use xlink:href="#DejaVuSans-20" x="821.427734"/>
      <use xlink:href="#DejaVuSans-28" x="853.214844"/>
      <use xlink:href="#DejaVuSans-25" x="892.228516"/>
      <use xlink:href="#DejaVuSans-29" x="987.248047"/>
     </g>
    </g>
   </g>
   <g id="line2d_15">
    <path d="M 103.827273 117.743726 
L 127.855981 105.474318 
L 151.884689 99.485164 
L 175.913397 106.286249 
L 199.942105 117.850773 
L 223.970813 117.97776 
L 247.999522 138.778525 
L 272.02823 158.970867 
L 296.056938 179.712573 
L 320.085646 168.05434 
L 344.114354 170.289828 
L 368.143062 185.629593 
L 392.17177 189.636411 
L 416.200478 211.489552 
L 440.229187 221.524835 
L 464.257895 241.727691 
L 488.286603 258.609953 
L 512.315311 276.549712 
L 536.344019 280.700887 
L 560.372727 290.332535 
" clip-path="url(#pf184c8cce9)" style="fill: none; stroke-dasharray: 3.7,1.6; stroke-dashoffset: 0; stroke: #1f77b4; stroke-opacity: 0.6"/>
   </g>
   <g id="line2d_16">
    <path d="M 103.827273 117.743726 
L 127.855981 133.850708 
L 151.884689 123.776295 
L 175.913397 134.853532 
L 199.942105 149.647956 
L 223.970813 145.3111 
L 247.999522 148.740487 
L 272.02823 152.467 
L 296.056938 177.29305 
L 320.085646 192.477762 
L 344.114354 190.605774 
L 368.143062 201.711443 
L 392.17177 200.341736 
L 416.200478 216.910234 
L 440.229187 230.587829 
L 464.257895 240.536808 
L 488.286603 252.208846 
L 512.315311 270.835743 
L 536.344019 270.269009 
L 560.372727 284.496791 
" clip-path="url(#pf184c8cce9)" style="fill: none; stroke-dasharray: 3.7,1.6; stroke-dashoffset: 0; stroke: #ff7f0e; stroke-opacity: 0.6"/>
   </g>
   <g id="line2d_17">
    <path d="M 103.827273 117.743726 
L 127.855981 131.204364 
L 151.884689 128.380931 
L 175.913397 138.959635 
L 199.942105 135.337345 
L 223.970813 149.934569 
L 247.999522 154.684659 
L 272.02823 157.655923 
L 296.056938 175.497036 
L 320.085646 181.634661 
L 344.114354 181.896223 
L 368.143062 188.273195 
L 392.17177 206.309222 
L 416.200478 214.617881 
L 440.229187 236.717866 
L 464.257895 236.729842 
L 488.286603 240.587091 
L 512.315311 255.794384 
L 536.344019 265.486463 
L 560.372727 272.281606 
" clip-path="url(#pf184c8cce9)" style="fill: none; stroke-dasharray: 3.7,1.6; stroke-dashoffset: 0; stroke: #2ca02c; stroke-opacity: 0.6"/>
   </g>
   <g id="line2d_18">
    <path d="M 103.827273 117.743726 
L 127.855981 127.0142 
L 151.884689 117.61234 
L 175.913397 130.71671 
L 199.942105 146.431129 
L 223.970813 157.697064 
L 247.999522 169.038514 
L 272.02823 178.605343 
L 296.056938 192.66518 
L 320.085646 192.856621 
L 344.114354 211.354977 
L 368.143062 229.011688 
L 392.17177 228.257993 
L 416.200478 242.210315 
L 440.229187 254.598016 
L 464.257895 263.78434 
L 488.286603 275.305621 
L 512.315311 276.234758 
L 536.344019 275.311655 
L 560.372727 278.172479 
" clip-path="url(#pf184c8cce9)" style="fill: none; stroke-dasharray: 3.7,1.6; stroke-dashoffset: 0; stroke: #d62728; stroke-opacity: 0.6"/>
   </g>
   <g id="line2d_19">
    <path d="M 103.827273 117.743726 
L 127.855981 134.163792 
L 151.884689 126.351147 
L 175.913397 134.748486 
L 199.942105 150.847432 
L 223.970813 150.43237 
L 247.999522 162.694272 
L 272.02823 160.612468 
L 296.056938 164.784762 
L 320.085646 183.632995 
L 344.114354 193.478483 
L 368.143062 210.133559 
L 392.17177 225.087517 
L 416.200478 233.340042 
L 440.229187 251.716805 
L 464.257895 261.29817 
L 488.286603 273.78598 
L 512.315311 285.711443 
L 536.344019 298.117063 
L 560.372727 307.8 
" clip-path="url(#pf184c8cce9)" style="fill: none; stroke-dasharray: 3.7,1.6; stroke-dashoffset: 0; stroke: #9467bd; stroke-opacity: 0.6"/>
   </g>
   <g id="line2d_20">
    <path d="M 103.827273 117.743726 
L 127.855981 82.016561 
L 151.884689 96.119042 
L 175.913397 105.518566 
L 199.942105 116.726721 
L 223.970813 134.565365 
L 247.999522 138.248909 
L 272.02823 147.389064 
L 296.056938 156.419877 
L 320.085646 164.612337 
L 344.114354 185.83877 
L 368.143062 194.943362 
L 392.17177 218.805352 
L 416.200478 234.341678 
L 440.229187 246.453371 
L 464.257895 261.607638 
L 488.286603 274.260193 
L 512.315311 290.636427 
L 536.344019 300.080474 
L 560.372727 305.639846 
" clip-path="url(#pf184c8cce9)" style="fill: none; stroke-dasharray: 3.7,1.6; stroke-dashoffset: 0; stroke: #8c564b; stroke-opacity: 0.6"/>
   </g>
   <g id="line2d_21">
    <path d="M 103.827273 117.743726 
L 127.855981 133.359033 
L 151.884689 117.026864 
L 175.913397 125.408387 
L 199.942105 145.354069 
L 223.970813 145.255423 
L 247.999522 160.284714 
L 272.02823 176.57501 
L 296.056938 178.517028 
L 320.085646 190.572039 
L 344.114354 194.937876 
L 368.143062 199.154785 
L 392.17177 190.017738 
L 416.200478 194.64971 
L 440.229187 208.688427 
L 464.257895 218.327115 
L 488.286603 225.013007 
L 512.315311 243.96976 
L 536.344019 260.734544 
L 560.372727 275.16364 
" clip-path="url(#pf184c8cce9)" style="fill: none; stroke-dasharray: 3.7,1.6; stroke-dashoffset: 0; stroke: #e377c2; stroke-opacity: 0.6"/>
   </g>
   <g id="line2d_22">
    <path d="M 103.827273 117.743726 
L 127.855981 125.541733 
L 151.884689 107.47192 
L 175.913397 99.271598 
L 199.942105 119.280819 
L 223.970813 124.023961 
L 247.999522 127.428664 
L 272.02823 136.74225 
L 296.056938 162.222161 
L 320.085646 169.667325 
L 344.114354 194.729522 
L 368.143062 214.143393 
L 392.17177 210.856993 
L 416.200478 224.686077 
L 440.229187 244.346059 
L 464.257895 261.759401 
L 488.286603 272.277583 
L 512.315311 288.533687 
L 536.344019 289.830529 
L 560.372727 302.34092 
" clip-path="url(#pf184c8cce9)" style="fill: none; stroke-dasharray: 3.7,1.6; stroke-dashoffset: 0; stroke: #7f7f7f; stroke-opacity: 0.6"/>
   </g>
   <g id="line2d_23">
    <path d="M 103.827273 117.743726 
L 127.855981 77.081197 
L 151.884689 67.719978 
L 175.913397 78.698477 
L 199.942105 72.627866 
L 223.970813 93.863167 
L 247.999522 110.262257 
L 272.02823 108.453077 
L 296.056938 113.783616 
L 320.085646 141.218801 
L 344.114354 156.596508 
L 368.143062 182.174516 
L 392.17177 194.885582 
L 416.200478 199.571768 
L 440.229187 209.287983 
L 464.257895 231.868124 
L 488.286603 245.538405 
L 512.315311 252.458432 
L 536.344019 259.72276 
L 560.372727 272.602411 
" clip-path="url(#pf184c8cce9)" style="fill: none; stroke-dasharray: 3.7,1.6; stroke-dashoffset: 0; stroke: #bcbd22; stroke-opacity: 0.6"/>
   </g>
   <g id="line2d_24">
    <path d="M 103.827273 117.743726 
L 127.855981 73.389839 
L 151.884689 94.385287 
L 175.913397 92.613499 
L 199.942105 113.829145 
L 223.970813 129.497212 
L 247.999522 143.601846 
L 272.02823 136.22781 
L 296.056938 134.85984 
L 320.085646 154.867232 
L 344.114354 177.884286 
L 368.143062 201.37793 
L 392.17177 216.647574 
L 416.200478 221.402053 
L 440.229187 229.427208 
L 464.257895 246.742635 
L 488.286603 261.772475 
L 512.315311 268.249281 
L 536.344019 281.027909 
L 560.372727 294.47274 
" clip-path="url(#pf184c8cce9)" style="fill: none; stroke-dasharray: 3.7,1.6; stroke-dashoffset: 0; stroke: #17becf; stroke-opacity: 0.6"/>
   </g>
   <g id="line2d_25">
    <path d="M 103.827273 117.743726 
L 127.855981 84.773387 
L 151.884689 91.236204 
L 175.913397 101.020256 
L 199.942105 105.664569 
L 223.970813 130.807219 
L 247.999522 139.322861 
L 272.02823 142.852265 
L 296.056938 161.099572 
L 320.085646 180.041789 
L 344.114354 190.90994 
L 368.143062 197.878513 
L 392.17177 213.520799 
L 416.200478 225.938578 
L 440.229187 240.492651 
L 464.257895 248.201023 
L 488.286603 251.275503 
L 512.315311 262.65334 
L 536.344019 278.866566 
L 560.372727 284.834875 
" clip-path="url(#pf184c8cce9)" style="fill: none; stroke-dasharray: 3.7,1.6; stroke-dashoffset: 0; stroke: #1f77b4; stroke-opacity: 0.6"/>
   </g>
   <g id="line2d_26">
    <path d="M 103.827273 117.743726 
L 127.855981 123.552724 
L 151.884689 111.212513 
L 175.913397 118.362104 
L 199.942105 131.097032 
L 223.970813 144.913682 
L 247.999522 143.253797 
L 272.02823 170.117311 
L 296.056938 174.787955 
L 320.085646 193.098619 
L 344.114354 193.925727 
L 368.143062 196.296338 
L 392.17177 214.985129 
L 416.200478 216.655711 
L 440.229187 240.497496 
L 464.257895 244.043448 
L 488.286603 250.46796 
L 512.315311 261.884012 
L 536.344019 277.879924 
L 560.372727 280.460078 
" clip-path="url(#pf184c8cce9)" style="fill: none; stroke-dasharray: 3.7,1.6; stroke-dashoffset: 0; stroke: #ff7f0e; stroke-opacity: 0.6"/>
   </g>
   <g id="line2d_27">
    <path d="M 103.827273 117.743726 
L 127.855981 110.469058 
L 151.884689 102.229606 
L 175.913397 110.921969 
L 199.942105 129.483224 
L 223.970813 144.719955 
L 247.999522 150.501577 
L 272.02823 165.858713 
L 296.056938 172.625881 
L 320.085646 179.55505 
L 344.114354 192.88935 
L 368.143062 204.196151 
L 392.17177 216.634409 
L 416.200478 232.489986 
L 440.229187 246.705791 
L 464.257895 250.787393 
L 488.286603 266.17799 
L 512.315311 270.640646 
L 536.344019 283.89687 
L 560.372727 282.58092 
" clip-path="url(#pf184c8cce9)" style="fill: none; stroke-dasharray: 3.7,1.6; stroke-dashoffset: 0; stroke: #2ca02c; stroke-opacity: 0.6"/>
   </g>
   <g id="line2d_28">
    <path d="M 103.827273 117.743726 
L 127.855981 123.11311 
L 151.884689 114.628734 
L 175.913397 130.607367 
L 199.942105 147.357706 
L 223.970813 161.489402 
L 247.999522 178.616588 
L 272.02823 181.896223 
L 296.056938 193.974913 
L 320.085646 197.162027 
L 344.114354 214.92095 
L 368.143062 217.422845 
L 392.17177 223.410719 
L 416.200478 240.955528 
L 440.229187 241.233089 
L 464.257895 255.628633 
L 488.286603 268.843077 
L 512.315311 278.183907 
L 536.344019 287.186287 
L 560.372727 297.0379 
" clip-path="url(#pf184c8cce9)" style="fill: none; stroke-dasharray: 3.7,1.6; stroke-dashoffset: 0; stroke: #d62728; stroke-opacity: 0.6"/>
   </g>
   <g id="line2d_29">
    <path d="M 103.827273 117.743726 
L 127.855981 69.780482 
L 151.884689 59.684767 
L 175.913397 81.797825 
L 199.942105 98.190424 
L 223.970813 114.433454 
L 247.999522 137.213904 
L 272.02823 157.518148 
L 296.056938 156.290239 
L 320.085646 166.80129 
L 344.114354 182.711904 
L 368.143062 185.2447 
L 392.17177 199.240449 
L 416.200478 213.183721 
L 440.229187 215.86572 
L 464.257895 222.13335 
L 488.286603 231.228616 
L 512.315311 244.903103 
L 536.344019 252.326599 
L 560.372727 269.893624 
" clip-path="url(#pf184c8cce9)" style="fill: none; stroke-dasharray: 3.7,1.6; stroke-dashoffset: 0; stroke: #9467bd; stroke-opacity: 0.6"/>
   </g>
   <g id="line2d_30">
    <path d="M 103.827273 117.743726 
L 127.855981 108.739192 
L 151.884689 101.761152 
L 175.913397 107.270149 
L 199.942105 120.348737 
L 223.970813 122.393332 
L 247.999522 137.265924 
L 272.02823 147.959364 
L 296.056938 164.138763 
L 320.085646 183.945938 
L 344.114354 186.457616 
L 368.143062 192.009033 
L 392.17177 198.921015 
L 416.200478 202.668556 
L 440.229187 222.007002 
L 464.257895 240.494296 
L 488.286603 246.668491 
L 512.315311 253.811957 
L 536.344019 262.757563 
L 560.372727 277.049798 
" clip-path="url(#pf184c8cce9)" style="fill: none; stroke-dasharray: 3.7,1.6; stroke-dashoffset: 0; stroke: #8c564b; stroke-opacity: 0.6"/>
   </g>
   <g id="line2d_31">
    <path d="M 103.827273 117.743726 
L 127.855981 87.413515 
L 151.884689 55.8 
L 175.913397 56.099503 
L 199.942105 69.149293 
L 223.970813 87.497349 
L 247.999522 103.300997 
L 272.02823 124.74319 
L 296.056938 142.412701 
L 320.085646 160.802354 
L 344.114354 168.26498 
L 368.143062 178.333632 
L 392.17177 196.75245 
L 416.200478 223.375521 
L 440.229187 228.542777 
L 464.257895 247.120031 
L 488.286603 258.371704 
L 512.315311 264.985371 
L 536.344019 281.362519 
L 560.372727 290.218987 
" clip-path="url(#pf184c8cce9)" style="fill: none; stroke-dasharray: 3.7,1.6; stroke-dashoffset: 0; stroke: #e377c2; stroke-opacity: 0.6"/>
   </g>
   <g id="line2d_32">
    <path d="M 103.827273 117.743726 
L 127.855981 77.569673 
L 151.884689 74.012383 
L 175.913397 91.192687 
L 199.942105 101.068527 
L 223.970813 119.968141 
L 247.999522 132.870373 
L 272.02823 132.945249 
L 296.056938 146.761259 
L 320.085646 159.075456 
L 344.114354 165.998683 
L 368.143062 179.073614 
L 392.17177 200.490574 
L 416.200478 215.856121 
L 440.229187 229.81594 
L 464.257895 239.230915 
L 488.286603 251.25283 
L 512.315311 263.867627 
L 536.344019 268.769389 
L 560.372727 272.572241 
" clip-path="url(#pf184c8cce9)" style="fill: none; stroke-dasharray: 3.7,1.6; stroke-dashoffset: 0; stroke: #7f7f7f; stroke-opacity: 0.6"/>
   </g>
   <g id="line2d_33">
    <path d="M 103.827273 117.743726 
L 127.855981 119.54476 
L 151.884689 107.135665 
L 175.913397 108.766934 
L 199.942105 128.381297 
L 223.970813 143.623788 
L 247.999522 163.077245 
L 272.02823 170.003123 
L 296.056938 167.948197 
L 320.085646 176.052982 
L 344.114354 178.490607 
L 368.143062 199.911955 
L 392.17177 216.55158 
L 416.200478 231.600618 
L 440.229187 240.472994 
L 464.257895 242.909248 
L 488.286603 251.042465 
L 512.315311 261.942523 
L 536.344019 276.088937 
L 560.372727 279.971876 
" clip-path="url(#pf184c8cce9)" style="fill: none; stroke-dasharray: 3.7,1.6; stroke-dashoffset: 0; stroke: #bcbd22; stroke-opacity: 0.6"/>
   </g>
   <g id="line2d_34">
    <path d="M 103.827273 117.743726 
L 127.855981 120.053581 
L 151.884689 107.280388 
L 175.913397 110.167542 
L 199.942105 119.511023 
L 223.970813 124.966903 
L 247.999522 140.726943 
L 272.02823 151.635503 
L 296.056938 145.050909 
L 320.085646 151.609539 
L 344.114354 166.681708 
L 368.143062 185.778613 
L 392.17177 193.652005 
L 416.200478 204.134532 
L 440.229187 223.942164 
L 464.257895 223.297902 
L 488.286603 231.286213 
L 512.315311 233.693394 
L 536.344019 250.195975 
L 560.372727 249.866393 
" clip-path="url(#pf184c8cce9)" style="fill: none; stroke-dasharray: 3.7,1.6; stroke-dashoffset: 0; stroke: #17becf; stroke-opacity: 0.6"/>
   </g>
   <g id="line2d_35">
    <path d="M 103.827273 117.743726 
L 127.855981 136.473698 
L 151.884689 123.299887 
L 175.913397 126.86385 
L 199.942105 137.955531 
L 223.970813 142.289553 
L 247.999522 149.506615 
L 272.02823 161.106429 
L 296.056938 173.781382 
L 320.085646 186.46109 
L 344.114354 193.615344 
L 368.143062 207.71175 
L 392.17177 217.808927 
L 416.200478 227.68687 
L 440.229187 240.087279 
L 464.257895 252.255746 
L 488.286603 267.619099 
L 512.315311 276.482973 
L 536.344019 286.377281 
L 560.372727 299.561554 
" clip-path="url(#pf184c8cce9)" style="fill: none; stroke-dasharray: 3.7,1.6; stroke-dashoffset: 0; stroke: #1f77b4; stroke-opacity: 0.6"/>
   </g>
   <g id="line2d_36">
    <path d="M 103.827273 117.743726 
L 127.855981 89.996046 
L 151.884689 76.545363 
L 175.913397 94.680676 
L 199.942105 113.08578 
L 223.970813 122.128204 
L 247.999522 134.466719 
L 272.02823 149.389502 
L 296.056938 162.763297 
L 320.085646 174.67459 
L 344.114354 194.943088 
L 368.143062 198.546819 
L 392.17177 208.704152 
L 416.200478 218.720145 
L 440.229187 230.270224 
L 464.257895 249.023468 
L 488.286603 257.410294 
L 512.315311 266.274625 
L 536.344019 285.388444 
L 560.372727 289.876241 
" clip-path="url(#pf184c8cce9)" style="fill: none; stroke-dasharray: 3.7,1.6; stroke-dashoffset: 0; stroke: #ff7f0e; stroke-opacity: 0.6"/>
   </g>
   <g id="line2d_37">
    <path d="M 103.827273 117.743726 
L 127.855981 100.366487 
L 151.884689 90.377555 
L 175.913397 98.806161 
L 199.942105 97.677081 
L 223.970813 121.472697 
L 247.999522 128.541654 
L 272.02823 144.333691 
L 296.056938 140.892145 
L 320.085646 152.031641 
L 344.114354 146.925273 
L 368.143062 155.745263 
L 392.17177 158.787746 
L 416.200478 183.636927 
L 440.229187 208.869355 
L 464.257895 211.514511 
L 488.286603 226.638608 
L 512.315311 237.791543 
L 536.344019 242.315452 
L 560.372727 242.567964 
" clip-path="url(#pf184c8cce9)" style="fill: none; stroke-dasharray: 3.7,1.6; stroke-dashoffset: 0; stroke: #2ca02c; stroke-opacity: 0.6"/>
   </g>
   <g id="line2d_38">
    <path d="M 103.827273 117.743726 
L 127.855981 99.498013 
L 151.884689 106.8091 
L 175.913397 98.091778 
L 199.942105 99.934876 
L 223.970813 116.796294 
L 247.999522 125.251779 
L 272.02823 144.694083 
L 296.056938 158.671455 
L 320.085646 179.586134 
L 344.114354 202.333854 
L 368.143062 217.848239 
L 392.17177 238.022205 
L 416.200478 245.809841 
L 440.229187 256.120034 
L 464.257895 263.789094 
L 488.286603 273.698396 
L 512.315311 272.055516 
L 536.344019 271.819917 
L 560.372727 276.3004 
" clip-path="url(#pf184c8cce9)" style="fill: none; stroke-dasharray: 3.7,1.6; stroke-dashoffset: 0; stroke: #d62728; stroke-opacity: 0.6"/>
   </g>
   <g id="line2d_39">
    <path d="M 103.827273 117.743726 
L 127.855981 117.488828 
L 151.884689 118.892726 
L 175.913397 123.44909 
L 199.942105 120.309059 
L 223.970813 134.458491 
L 247.999522 142.650402 
L 272.02823 140.224114 
L 296.056938 149.907873 
L 320.085646 156.696799 
L 344.114354 166.717729 
L 368.143062 184.009934 
L 392.17177 185.067156 
L 416.200478 204.667439 
L 440.229187 211.930122 
L 464.257895 230.024112 
L 488.286603 244.507788 
L 512.315311 259.752564 
L 536.344019 270.701991 
L 560.372727 280.735811 
" clip-path="url(#pf184c8cce9)" style="fill: none; stroke-dasharray: 3.7,1.6; stroke-dashoffset: 0; stroke: #9467bd; stroke-opacity: 0.6"/>
   </g>
   <g id="line2d_40">
    <path d="M 103.827273 117.743726 
L 127.855981 107.013707 
L 151.884689 103.065033 
L 175.913397 121.32898 
L 199.942105 128.968876 
L 223.970813 141.638618 
L 247.999522 141.051496 
L 272.02823 155.891358 
L 296.056938 154.089858 
L 320.085646 177.208392 
L 344.114354 191.798028 
L 368.143062 213.602258 
L 392.17177 215.997279 
L 416.200478 234.566305 
L 440.229187 247.230105 
L 464.257895 257.507295 
L 488.286603 270.851285 
L 512.315311 275.871715 
L 536.344019 284.065912 
L 560.372727 288.803295 
" clip-path="url(#pf184c8cce9)" style="fill: none; stroke-dasharray: 3.7,1.6; stroke-dashoffset: 0; stroke: #8c564b; stroke-opacity: 0.6"/>
   </g>
   <g id="line2d_41">
    <path d="M 103.827273 117.743726 
L 127.855981 105.485978 
L 151.884689 101.162328 
L 175.913397 107.143618 
L 199.942105 112.067779 
L 223.970813 116.980421 
L 247.999522 131.411803 
L 272.02823 131.664406 
L 296.056938 141.947081 
L 320.085646 140.783351 
L 344.114354 165.042759 
L 368.143062 156.396016 
L 392.17177 155.050262 
L 416.200478 176.400025 
L 440.229187 203.991088 
L 464.257895 222.13143 
L 488.286603 237.640237 
L 512.315311 253.397717 
L 536.344019 269.881008 
L 560.372727 277.077865 
" clip-path="url(#pf184c8cce9)" style="fill: none; stroke-dasharray: 3.7,1.6; stroke-dashoffset: 0; stroke: #e377c2; stroke-opacity: 0.6"/>
   </g>
   <g id="line2d_42">
    <path d="M 103.827273 117.743726 
L 127.855981 98.864174 
L 151.884689 109.196076 
L 175.913397 124.171702 
L 199.942105 126.228091 
L 223.970813 122.97314 
L 247.999522 136.933508 
L 272.02823 155.960383 
L 296.056938 172.042873 
L 320.085646 172.361118 
L 344.114354 178.841124 
L 368.143062 190.452457 
L 392.17177 201.538653 
L 416.200478 201.10878 
L 440.229187 218.19446 
L 464.257895 231.649164 
L 488.286603 243.884188 
L 512.315311 261.704639 
L 536.344019 276.417971 
L 560.372727 284.011606 
" clip-path="url(#pf184c8cce9)" style="fill: none; stroke-dasharray: 3.7,1.6; stroke-dashoffset: 0; stroke: #7f7f7f; stroke-opacity: 0.6"/>
   </g>
   <g id="line2d_43">
    <path d="M 103.827273 117.743726 
L 127.855981 129.451185 
L 151.884689 122.767894 
L 175.913397 122.131404 
L 199.942105 130.840863 
L 223.970813 143.719508 
L 247.999522 152.425036 
L 272.02823 166.728242 
L 296.056938 173.311191 
L 320.085646 185.078035 
L 344.114354 193.872884 
L 368.143062 192.717565 
L 392.17177 202.845643 
L 416.200478 219.85727 
L 440.229187 218.833784 
L 464.257895 236.564091 
L 488.286603 252.289024 
L 512.315311 271.33007 
L 536.344019 279.203645 
L 560.372727 287.00472 
" clip-path="url(#pf184c8cce9)" style="fill: none; stroke-dasharray: 3.7,1.6; stroke-dashoffset: 0; stroke: #bcbd22; stroke-opacity: 0.6"/>
   </g>
   <g id="line2d_44">
    <path d="M 103.827273 117.743726 
L 127.855981 104.232562 
L 151.884689 98.789157 
L 175.913397 112.391236 
L 199.942105 112.047118 
L 223.970813 129.518788 
L 247.999522 145.034361 
L 272.02823 148.97901 
L 296.056938 158.055078 
L 320.085646 173.732928 
L 344.114354 179.171346 
L 368.143062 194.039549 
L 392.17177 210.929583 
L 416.200478 228.832315 
L 440.229187 243.196958 
L 464.257895 258.074212 
L 488.286603 264.98016 
L 512.315311 275.724615 
L 536.344019 284.435994 
L 560.372727 285.568548 
" clip-path="url(#pf184c8cce9)" style="fill: none; stroke-dasharray: 3.7,1.6; stroke-dashoffset: 0; stroke: #17becf; stroke-opacity: 0.6"/>
   </g>
   <g id="line2d_45">
    <path d="M 103.827273 117.743726 
L 127.855981 134.447612 
L 151.884689 124.548367 
L 175.913397 126.476214 
L 199.942105 143.962055 
L 223.970813 153.846306 
L 247.999522 165.045684 
L 272.02823 179.103235 
L 296.056938 178.313519 
L 320.085646 197.59894 
L 344.114354 207.471581 
L 368.143062 203.789225 
L 392.17177 218.700489 
L 416.200478 232.3502 
L 440.229187 247.855808 
L 464.257895 257.555475 
L 488.286603 264.151497 
L 512.315311 269.835113 
L 536.344019 281.045919 
L 560.372727 291.966822 
" clip-path="url(#pf184c8cce9)" style="fill: none; stroke-dasharray: 3.7,1.6; stroke-dashoffset: 0; stroke: #1f77b4; stroke-opacity: 0.6"/>
   </g>
   <g id="line2d_46">
    <path d="M 103.827273 117.743726 
L 127.855981 103.043733 
L 151.884689 90.666545 
L 175.913397 98.080533 
L 199.942105 111.30357 
L 223.970813 115.893121 
L 247.999522 129.728056 
L 272.02823 144.644531 
L 296.056938 167.885115 
L 320.085646 163.827283 
L 344.114354 174.581795 
L 368.143062 173.388078 
L 392.17177 173.433333 
L 416.200478 192.659054 
L 440.229187 216.967739 
L 464.257895 220.576956 
L 488.286603 234.773745 
L 512.315311 239.66024 
L 536.344019 249.780181 
L 560.372727 262.945896 
" clip-path="url(#pf184c8cce9)" style="fill: none; stroke-dasharray: 3.7,1.6; stroke-dashoffset: 0; stroke: #ff7f0e; stroke-opacity: 0.6"/>
   </g>
   <g id="line2d_47">
    <path d="M 103.827273 117.743726 
L 127.855981 94.81059 
L 151.884689 102.644485 
L 175.913397 91.611864 
L 199.942105 111.677858 
L 223.970813 117.892553 
L 247.999522 126.078796 
L 272.02823 147.812721 
L 296.056938 167.339043 
L 320.085646 165.961016 
L 344.114354 161.656707 
L 368.143062 165.91567 
L 392.17177 191.674515 
L 416.200478 204.939424 
L 440.229187 214.781803 
L 464.257895 229.862658 
L 488.286603 237.17544 
L 512.315311 257.871434 
L 536.344019 266.463323 
L 560.372727 283.592429 
" clip-path="url(#pf184c8cce9)" style="fill: none; stroke-dasharray: 3.7,1.6; stroke-dashoffset: 0; stroke: #2ca02c; stroke-opacity: 0.6"/>
   </g>
   <g id="line2d_48">
    <path d="M 103.827273 117.743726 
L 127.855981 119.782601 
L 151.884689 109.278997 
L 175.913397 121.86527 
L 199.942105 134.250502 
L 223.970813 130.99482 
L 247.999522 136.529782 
L 272.02823 153.72197 
L 296.056938 173.038018 
L 320.085646 194.439893 
L 344.114354 191.854162 
L 368.143062 209.271252 
L 392.17177 208.887639 
L 416.200478 217.874569 
L 440.229187 227.231215 
L 464.257895 239.012596 
L 488.286603 258.075035 
L 512.315311 265.489572 
L 536.344019 280.389682 
L 560.372727 292.192912 
" clip-path="url(#pf184c8cce9)" style="fill: none; stroke-dasharray: 3.7,1.6; stroke-dashoffset: 0; stroke: #d62728; stroke-opacity: 0.6"/>
   </g>
   <g id="line2d_49">
    <path d="M 103.827273 117.743726 
L 127.855981 120.93394 
L 151.884689 103.585142 
L 175.913397 112.550587 
L 199.942105 114.911233 
L 223.970813 120.234183 
L 247.999522 114.910319 
L 272.02823 124.592707 
L 296.056938 133.049015 
L 320.085646 131.007345 
L 344.114354 163.283954 
L 368.143062 188.732598 
L 392.17177 201.286324 
L 416.200478 223.950392 
L 440.229187 226.55651 
L 464.257895 238.69499 
L 488.286603 233.658104 
L 512.315311 239.705403 
L 536.344019 259.765638 
L 560.372727 275.12378 
" clip-path="url(#pf184c8cce9)" style="fill: none; stroke-dasharray: 3.7,1.6; stroke-dashoffset: 0; stroke: #9467bd; stroke-opacity: 0.6"/>
   </g>
   <g id="line2d_50">
    <path d="M 103.827273 117.743726 
L 127.855981 120.686731 
L 151.884689 118.171943 
L 175.913397 128.272868 
L 199.942105 136.522193 
L 223.970813 143.316788 
L 247.999522 163.016357 
L 272.02823 179.567758 
L 296.056938 188.249425 
L 320.085646 204.139651 
L 344.114354 201.000991 
L 368.143062 213.378636 
L 392.17177 228.875558 
L 416.200478 235.5833 
L 440.229187 247.242173 
L 464.257895 257.618923 
L 488.286603 266.999339 
L 512.315311 278.683628 
L 536.344019 290.812234 
L 560.372727 303.559413 
" clip-path="url(#pf184c8cce9)" style="fill: none; stroke-dasharray: 3.7,1.6; stroke-dashoffset: 0; stroke: #8c564b; stroke-opacity: 0.6"/>
   </g>
   <g id="line2d_51">
    <path d="M 103.827273 117.743726 
L 127.855981 113.135108 
L 151.884689 100.140396 
L 175.913397 115.551106 
L 199.942105 128.60821 
L 223.970813 128.402324 
L 247.999522 141.07874 
L 272.02823 154.239336 
L 296.056938 158.871947 
L 320.085646 168.31636 
L 344.114354 189.11036 
L 368.143062 198.591434 
L 392.17177 206.7721 
L 416.200478 213.130512 
L 440.229187 218.853349 
L 464.257895 231.888602 
L 488.286603 244.014924 
L 512.315311 256.442302 
L 536.344019 263.852085 
L 560.372727 281.290386 
" clip-path="url(#pf184c8cce9)" style="fill: none; stroke-dasharray: 3.7,1.6; stroke-dashoffset: 0; stroke: #e377c2; stroke-opacity: 0.6"/>
   </g>
   <g id="line2d_52">
    <path d="M 103.827273 117.743726 
L 127.855981 97.007222 
L 151.884689 92.644858 
L 175.913397 106.252331 
L 199.942105 125.770424 
L 223.970813 132.221632 
L 247.999522 156.596965 
L 272.02823 149.728683 
L 296.056938 168.668523 
L 320.085646 174.504359 
L 344.114354 192.482973 
L 368.143062 209.027791 
L 392.17177 215.042726 
L 416.200478 207.790649 
L 440.229187 223.749351 
L 464.257895 237.202227 
L 488.286603 238.280202 
L 512.315311 247.113357 
L 536.344019 260.309608 
L 560.372727 279.915376 
" clip-path="url(#pf184c8cce9)" style="fill: none; stroke-dasharray: 3.7,1.6; stroke-dashoffset: 0; stroke: #7f7f7f; stroke-opacity: 0.6"/>
   </g>
   <g id="line2d_53">
    <path d="M 103.827273 117.743726 
L 127.855981 106.931791 
L 151.884689 107.931872 
L 175.913397 118.606205 
L 199.942105 115.548912 
L 223.970813 131.396809 
L 247.999522 148.639006 
L 272.02823 152.478062 
L 296.056938 164.773334 
L 320.085646 165.860908 
L 344.114354 172.822441 
L 368.143062 183.630436 
L 392.17177 203.294807 
L 416.200478 208.220065 
L 440.229187 198.190084 
L 464.257895 213.233364 
L 488.286603 220.808715 
L 512.315311 227.162008 
L 536.344019 230.087285 
L 560.372727 253.061461 
" clip-path="url(#pf184c8cce9)" style="fill: none; stroke-dasharray: 3.7,1.6; stroke-dashoffset: 0; stroke: #bcbd22; stroke-opacity: 0.6"/>
   </g>
   <g id="line2d_54">
    <path d="M 103.827273 117.743726 
L 127.855981 80.633183 
L 151.884689 81.900311 
L 175.913397 95.731681 
L 199.942105 93.322671 
L 223.970813 121.309141 
L 247.999522 123.795951 
L 272.02823 136.242255 
L 296.056938 141.999192 
L 320.085646 155.821419 
L 344.114354 173.366137 
L 368.143062 175.954153 
L 392.17177 195.662408 
L 416.200478 197.947172 
L 440.229187 214.303019 
L 464.257895 210.218948 
L 488.286603 229.713912 
L 512.315311 243.272748 
L 536.344019 254.883806 
L 560.372727 270.663776 
" clip-path="url(#pf184c8cce9)" style="fill: none; stroke-dasharray: 3.7,1.6; stroke-dashoffset: 0; stroke: #17becf; stroke-opacity: 0.6"/>
   </g>
   <g id="line2d_55">
    <path d="M 103.827273 117.743726 
L 127.855981 113.849624 
L 151.884689 98.860741 
L 175.913397 111.300645 
L 199.942105 121.543551 
L 223.970813 120.361262 
L 247.999522 141.517847 
L 272.02823 151.014829 
L 296.056938 173.699284 
L 320.085646 195.934484 
L 344.114354 215.965189 
L 368.143062 225.451474 
L 392.17177 232.6007 
L 416.200478 244.262224 
L 440.229187 244.959603 
L 464.257895 246.803066 
L 488.286603 260.920591 
L 512.315311 260.748258 
L 536.344019 274.091334 
L 560.372727 284.898231 
" clip-path="url(#pf184c8cce9)" style="fill: none; stroke-dasharray: 3.7,1.6; stroke-dashoffset: 0; stroke: #1f77b4; stroke-opacity: 0.6"/>
   </g>
   <g id="line2d_56">
    <path d="M 103.827273 117.743726 
L 127.855981 111.552201 
L 151.884689 94.911246 
L 175.913397 110.563863 
L 199.942105 134.016732 
L 223.970813 136.960935 
L 247.999522 152.544253 
L 272.02823 162.530441 
L 296.056938 172.65605 
L 320.085646 173.296563 
L 344.114354 186.238565 
L 368.143062 192.854701 
L 392.17177 209.88123 
L 416.200478 224.517857 
L 440.229187 225.836733 
L 464.257895 224.874683 
L 488.286603 240.147253 
L 512.315311 240.432677 
L 536.344019 256.86221 
L 560.372727 275.504467 
" clip-path="url(#pf184c8cce9)" style="fill: none; stroke-dasharray: 3.7,1.6; stroke-dashoffset: 0; stroke: #ff7f0e; stroke-opacity: 0.6"/>
   </g>
   <g id="line2d_57">
    <path d="M 103.827273 117.743726 
L 127.855981 97.455106 
L 151.884689 101.879271 
L 175.913397 101.916114 
L 199.942105 108.849124 
L 223.970813 121.552419 
L 247.999522 131.554332 
L 272.02823 132.327775 
L 296.056938 155.804506 
L 320.085646 168.249438 
L 344.114354 176.002699 
L 368.143062 193.844634 
L 392.17177 214.87405 
L 416.200478 227.822634 
L 440.229187 239.177798 
L 464.257895 253.229498 
L 488.286603 268.106569 
L 512.315311 278.218922 
L 536.344019 284.869799 
L 560.372727 289.724661 
" clip-path="url(#pf184c8cce9)" style="fill: none; stroke-dasharray: 3.7,1.6; stroke-dashoffset: 0; stroke: #2ca02c; stroke-opacity: 0.6"/>
   </g>
   <g id="line2d_58">
    <path d="M 103.827273 117.743726 
L 127.855981 103.593371 
L 151.884689 106.302797 
L 175.913397 118.456271 
L 199.942105 124.205986 
L 223.970813 133.105606 
L 247.999522 151.42404 
L 272.02823 141.107173 
L 296.056938 148.572633 
L 320.085646 161.080922 
L 344.114354 181.364413 
L 368.143062 208.767966 
L 392.17177 223.812891 
L 416.200478 235.467375 
L 440.229187 241.490264 
L 464.257895 257.116733 
L 488.286603 275.535277 
L 512.315311 284.695728 
L 536.344019 296.132442 
L 560.372727 300.807108 
" clip-path="url(#pf184c8cce9)" style="fill: none; stroke-dasharray: 3.7,1.6; stroke-dashoffset: 0; stroke: #d62728; stroke-opacity: 0.6"/>
   </g>
   <g id="line2d_59">
    <path d="M 103.827273 117.743726 
L 127.855981 104.830106 
L 151.884689 74.161861 
L 175.913397 90.927559 
L 199.942105 107.369983 
L 223.970813 108.206325 
L 247.999522 114.935826 
L 272.02823 131.30758 
L 296.056938 153.984904 
L 320.085646 176.391706 
L 344.114354 198.796222 
L 368.143062 202.516061 
L 392.17177 212.860082 
L 416.200478 225.860686 
L 440.229187 247.372726 
L 464.257895 249.311361 
L 488.286603 259.001337 
L 512.315311 269.711509 
L 536.344019 286.446397 
L 560.372727 298.919487 
" clip-path="url(#pf184c8cce9)" style="fill: none; stroke-dasharray: 3.7,1.6; stroke-dashoffset: 0; stroke: #9467bd; stroke-opacity: 0.6"/>
   </g>
   <g id="line2d_60">
    <path d="M 103.827273 117.743726 
L 127.855981 114.312867 
L 151.884689 119.802299 
L 175.913397 110.796444 
L 199.942105 123.884541 
L 223.970813 138.040738 
L 247.999522 155.253222 
L 272.02823 157.195606 
L 296.056938 170.448996 
L 320.085646 176.918488 
L 344.114354 184.993194 
L 368.143062 193.967325 
L 392.17177 208.719146 
L 416.200478 216.369281 
L 440.229187 228.742628 
L 464.257895 236.930791 
L 488.286603 242.792226 
L 512.315311 253.583124 
L 536.344019 262.428256 
L 560.372727 276.865306 
" clip-path="url(#pf184c8cce9)" style="fill: none; stroke-dasharray: 3.7,1.6; stroke-dashoffset: 0; stroke: #8c564b; stroke-opacity: 0.6"/>
   </g>
   <g id="line2d_61">
    <path d="M 103.827273 117.743726 
L 127.855981 127.532663 
L 151.884689 131.930905 
L 175.913397 125.413781 
L 199.942105 124.772446 
L 223.970813 113.764051 
L 247.999522 126.684111 
L 272.02823 152.408214 
L 296.056938 154.197646 
L 320.085646 175.948211 
L 344.114354 196.481196 
L 368.143062 204.066513 
L 392.17177 221.706036 
L 416.200478 235.725464 
L 440.229187 245.668318 
L 464.257895 252.111846 
L 488.286603 259.149901 
L 512.315311 276.185206 
L 536.344019 282.217694 
L 560.372727 287.160231 
" clip-path="url(#pf184c8cce9)" style="fill: none; stroke-dasharray: 3.7,1.6; stroke-dashoffset: 0; stroke: #e377c2; stroke-opacity: 0.6"/>
   </g>
   <g id="line2d_62">
    <path d="M 103.827273 117.743726 
L 127.855981 103.365227 
L 151.884689 102.777232 
L 175.913397 116.205973 
L 199.942105 123.992786 
L 223.970813 130.644394 
L 247.999522 139.840135 
L 272.02823 141.719162 
L 296.056938 148.231806 
L 320.085646 165.139028 
L 344.114354 168.214697 
L 368.143062 189.513812 
L 392.17177 211.326727 
L 416.200478 214.921041 
L 440.229187 218.213476 
L 464.257895 234.584681 
L 488.286603 252.955502 
L 512.315311 266.142792 
L 536.344019 278.867755 
L 560.372727 286.184011 
" clip-path="url(#pf184c8cce9)" style="fill: none; stroke-dasharray: 3.7,1.6; stroke-dashoffset: 0; stroke: #7f7f7f; stroke-opacity: 0.6"/>
   </g>
   <g id="line2d_63">
    <path d="M 103.827273 117.743726 
L 127.855981 97.108934 
L 151.884689 88.951531 
L 175.913397 98.067642 
L 199.942105 112.13589 
L 223.970813 135.955551 
L 247.999522 132.186983 
L 272.02823 139.742677 
L 296.056938 161.052123 
L 320.085646 165.313647 
L 344.114354 175.90515 
L 368.143062 190.850515 
L 392.17177 200.673238 
L 416.200478 219.93882 
L 440.229187 225.332258 
L 464.257895 235.263684 
L 488.286603 245.059163 
L 512.315311 256.25525 
L 536.344019 265.816593 
L 560.372727 266.306806 
" clip-path="url(#pf184c8cce9)" style="fill: none; stroke-dasharray: 3.7,1.6; stroke-dashoffset: 0; stroke: #bcbd22; stroke-opacity: 0.6"/>
   </g>
   <g id="line2d_64">
    <path d="M 103.827273 117.743726 
L 127.855981 103.548939 
L 151.884689 80.650735 
L 175.913397 90.090394 
L 199.942105 110.352126 
L 223.970813 124.451275 
L 247.999522 143.121416 
L 272.02823 158.288117 
L 296.056938 168.593922 
L 320.085646 161.701139 
L 344.114354 180.761658 
L 368.143062 192.450517 
L 392.17177 210.204503 
L 416.200478 218.779022 
L 440.229187 241.015684 
L 464.257895 256.048541 
L 488.286603 273.96453 
L 512.315311 283.018381 
L 536.344019 285.511043 
L 560.372727 290.551037 
" clip-path="url(#pf184c8cce9)" style="fill: none; stroke-dasharray: 3.7,1.6; stroke-dashoffset: 0; stroke: #17becf; stroke-opacity: 0.6"/>
   </g>
   <g id="line2d_65">
    <path d="M 103.827273 117.743726 
L 127.855981 131.295056 
L 151.884689 120.436778 
L 175.913397 128.420243 
L 199.942105 147.244615 
L 223.970813 137.015515 
L 247.999522 141.960429 
L 272.02823 154.431508 
L 296.056938 156.433042 
L 320.085646 175.967501 
L 344.114354 193.222406 
L 368.143062 204.779159 
L 392.17177 219.050824 
L 416.200478 225.610368 
L 440.229187 239.33596 
L 464.257895 253.998827 
L 488.286603 269.090469 
L 512.315311 274.13412 
L 536.344019 282.166954 
L 560.372727 285.803598 
" clip-path="url(#pf184c8cce9)" style="fill: none; stroke-dasharray: 3.7,1.6; stroke-dashoffset: 0; stroke: #1f77b4; stroke-opacity: 0.6"/>
   </g>
   <g id="line2d_66">
    <path d="M 103.827273 117.743726 
L 127.855981 78.111905 
L 151.884689 74.661399 
L 175.913397 93.909062 
L 199.942105 95.663844 
L 223.970813 115.919268 
L 247.999522 134.135766 
L 272.02823 154.442113 
L 296.056938 171.918903 
L 320.085646 175.664798 
L 344.114354 198.29385 
L 368.143062 216.727935 
L 392.17177 231.337044 
L 416.200478 241.08544 
L 440.229187 248.018267 
L 464.257895 252.77622 
L 488.286603 265.899697 
L 512.315311 270.665056 
L 536.344019 278.262714 
L 560.372727 282.569858 
" clip-path="url(#pf184c8cce9)" style="fill: none; stroke-dasharray: 3.7,1.6; stroke-dashoffset: 0; stroke: #ff7f0e; stroke-opacity: 0.6"/>
   </g>
   <g id="line2d_67">
    <path d="M 103.827273 117.743726 
L 127.855981 133.792929 
L 151.884689 119.240684 
L 175.913397 119.644502 
L 199.942105 137.36201 
L 223.970813 157.781173 
L 247.999522 168.371397 
L 272.02823 170.314146 
L 296.056938 185.673659 
L 320.085646 187.482107 
L 344.114354 194.629779 
L 368.143062 209.918439 
L 392.17177 231.246261 
L 416.200478 247.152487 
L 440.229187 255.768877 
L 464.257895 269.322593 
L 488.286603 283.279121 
L 512.315311 293.653402 
L 536.344019 296.290147 
L 560.372727 301.659998 
" clip-path="url(#pf184c8cce9)" style="fill: none; stroke-dasharray: 3.7,1.6; stroke-dashoffset: 0; stroke: #2ca02c; stroke-opacity: 0.6"/>
   </g>
   <g id="line2d_68">
    <path d="M 103.827273 117.743726 
L 127.855981 105.261118 
L 151.884689 102.602065 
L 175.913397 98.500624 
L 199.942105 99.352051 
L 223.970813 105.059346 
L 247.999522 113.181226 
L 272.02823 131.02563 
L 296.056938 142.208735 
L 320.085646 164.862015 
L 344.114354 175.112508 
L 368.143062 186.208395 
L 392.17177 201.424374 
L 416.200478 219.500353 
L 440.229187 225.843955 
L 464.257895 239.064067 
L 488.286603 252.4204 
L 512.315311 271.333087 
L 536.344019 278.517328 
L 560.372727 293.136494 
" clip-path="url(#pf184c8cce9)" style="fill: none; stroke-dasharray: 3.7,1.6; stroke-dashoffset: 0; stroke: #d62728; stroke-opacity: 0.6"/>
   </g>
   <g id="line2d_69">
    <path d="M 103.827273 117.743726 
L 127.855981 94.889172 
L 151.884689 94.071064 
L 175.913397 111.361167 
L 199.942105 117.907638 
L 223.970813 133.371465 
L 247.999522 154.288064 
L 272.02823 155.749286 
L 296.056938 169.229863 
L 320.085646 168.296064 
L 344.114354 179.323017 
L 368.143062 188.471127 
L 392.17177 205.012471 
L 416.200478 223.598411 
L 440.229187 242.916379 
L 464.257895 260.509368 
L 488.286603 261.481017 
L 512.315311 261.077931 
L 536.344019 255.614188 
L 560.372727 268.341162 
" clip-path="url(#pf184c8cce9)" style="fill: none; stroke-dasharray: 3.7,1.6; stroke-dashoffset: 0; stroke: #9467bd; stroke-opacity: 0.6"/>
   </g>
   <g id="line2d_70">
    <path d="M 103.827273 117.743726 
L 127.855981 110.859893 
L 151.884689 104.529729 
L 175.913397 106.41351 
L 199.942105 116.185677 
L 223.970813 115.644541 
L 247.999522 132.12326 
L 272.02823 138.453789 
L 296.056938 145.137487 
L 320.085646 147.499047 
L 344.114354 168.805933 
L 368.143062 180.643081 
L 392.17177 188.553957 
L 416.200478 203.035895 
L 440.229187 224.714601 
L 464.257895 241.264631 
L 488.286603 244.639712 
L 512.315311 253.821739 
L 536.344019 257.229824 
L 560.372727 276.026129 
" clip-path="url(#pf184c8cce9)" style="fill: none; stroke-dasharray: 3.7,1.6; stroke-dashoffset: 0; stroke: #8c564b; stroke-opacity: 0.6"/>
   </g>
   <g id="line2d_71">
    <path d="M 103.827273 117.743726 
L 127.855981 114.455214 
L 151.884689 108.539107 
L 175.913397 109.232645 
L 199.942105 97.15423 
L 223.970813 101.86894 
L 247.999522 131.288564 
L 272.02823 148.676399 
L 296.056938 159.761498 
L 320.085646 175.180345 
L 344.114354 197.200699 
L 368.143062 201.525031 
L 392.17177 208.561897 
L 416.200478 221.409093 
L 440.229187 230.561408 
L 464.257895 237.292005 
L 488.286603 235.942137 
L 512.315311 247.59845 
L 536.344019 259.851759 
L 560.372727 269.794795 
" clip-path="url(#pf184c8cce9)" style="fill: none; stroke-dasharray: 3.7,1.6; stroke-dashoffset: 0; stroke: #e377c2; stroke-opacity: 0.6"/>
   </g>
   <g id="line2d_72">
    <path d="M 103.827273 117.743726 
L 127.855981 117.040902 
L 151.884689 109.821504 
L 175.913397 112.08643 
L 199.942105 123.04701 
L 223.970813 117.912849 
L 247.999522 132.083034 
L 272.02823 125.483446 
L 296.056938 136.227444 
L 320.085646 149.32642 
L 344.114354 170.585948 
L 368.143062 182.028513 
L 392.17177 206.146946 
L 416.200478 216.693286 
L 440.229187 222.84883 
L 464.257895 236.083021 
L 488.286603 248.533804 
L 512.315311 264.776194 
L 536.344019 277.271409 
L 560.372727 282.909313 
" clip-path="url(#pf184c8cce9)" style="fill: none; stroke-dasharray: 3.7,1.6; stroke-dashoffset: 0; stroke: #7f7f7f; stroke-opacity: 0.6"/>
   </g>
   <g id="line2d_73">
    <path d="M 103.827273 117.743726 
L 127.855981 128.722174 
L 151.884689 130.385117 
L 175.913397 140.729868 
L 199.942105 143.974763 
L 223.970813 162.649383 
L 247.999522 165.281374 
L 272.02823 180.147932 
L 296.056938 178.457877 
L 320.085646 178.969849 
L 344.114354 189.394047 
L 368.143062 185.6583 
L 392.17177 198.832243 
L 416.200478 212.414118 
L 440.229187 229.760538 
L 464.257895 244.642089 
L 488.286603 258.80688 
L 512.315311 259.683082 
L 536.344019 268.671109 
L 560.372727 263.40475 
" clip-path="url(#pf184c8cce9)" style="fill: none; stroke-dasharray: 3.7,1.6; stroke-dashoffset: 0; stroke: #bcbd22; stroke-opacity: 0.6"/>
   </g>
   <g id="line2d_74">
    <path d="M 103.827273 117.743726 
L 127.855981 122.99056 
L 151.884689 97.114187 
L 175.913397 111.444088 
L 199.942105 119.001063 
L 223.970813 121.945357 
L 247.999522 119.198355 
L 272.02823 118.929021 
L 296.056938 133.436925 
L 320.085646 156.767927 
L 344.114354 182.394024 
L 368.143062 195.479104 
L 392.17177 211.186392 
L 416.200478 222.842796 
L 440.229187 235.55569 
L 464.257895 243.299992 
L 488.286603 257.826911 
L 512.315311 265.5351 
L 536.344019 270.470598 
L 560.372727 278.643858 
" clip-path="url(#pf184c8cce9)" style="fill: none; stroke-dasharray: 3.7,1.6; stroke-dashoffset: 0; stroke: #17becf; stroke-opacity: 0.6"/>
   </g>
   <g id="line2d_75">
    <path d="M 103.827273 117.743726 
L 127.855981 116.471833 
L 151.884689 126.330851 
L 175.913397 129.473259 
L 199.942105 129.164796 
L 223.970813 135.946225 
L 247.999522 149.279245 
L 272.02823 148.449486 
L 296.056938 165.189951 
L 320.085646 178.941416 
L 344.114354 170.965447 
L 368.143062 189.003486 
L 392.17177 208.58393 
L 416.200478 219.280571 
L 440.229187 227.017101 
L 464.257895 242.055078 
L 488.286603 252.044741 
L 512.315311 260.58269 
L 536.344019 267.713174 
L 560.372727 267.72131 
" clip-path="url(#pf184c8cce9)" style="fill: none; stroke-dasharray: 3.7,1.6; stroke-dashoffset: 0; stroke: #1f77b4; stroke-opacity: 0.6"/>
   </g>
   <g id="line2d_76">
    <path d="M 103.827273 117.743726 
L 127.855981 121.211776 
L 151.884689 116.410761 
L 175.913397 126.993305 
L 199.942105 140.657552 
L 223.970813 144.073226 
L 247.999522 169.347617 
L 272.02823 168.497378 
L 296.056938 160.51181 
L 320.085646 180.67444 
L 344.114354 176.981845 
L 368.143062 200.014532 
L 392.17177 218.009053 
L 416.200478 231.317023 
L 440.229187 237.503651 
L 464.257895 255.851889 
L 488.286603 258.182731 
L 512.315311 272.192102 
L 536.344019 271.977166 
L 560.372727 281.085963 
" clip-path="url(#pf184c8cce9)" style="fill: none; stroke-dasharray: 3.7,1.6; stroke-dashoffset: 0; stroke: #ff7f0e; stroke-opacity: 0.6"/>
   </g>
   <g id="line2d_77">
    <path d="M 103.827273 117.743726 
L 127.855981 122.835689 
L 151.884689 120.834561 
L 175.913397 108.070927 
L 199.942105 93.159572 
L 223.970813 92.486055 
L 247.999522 119.152735 
L 272.02823 123.635137 
L 296.056938 136.231558 
L 320.085646 144.823173 
L 344.114354 173.56352 
L 368.143062 185.088915 
L 392.17177 197.187992 
L 416.200478 213.263533 
L 440.229187 235.161381 
L 464.257895 235.443879 
L 488.286603 251.384846 
L 512.315311 255.847775 
L 536.344019 255.541415 
L 560.372727 270.405779 
" clip-path="url(#pf184c8cce9)" style="fill: none; stroke-dasharray: 3.7,1.6; stroke-dashoffset: 0; stroke: #2ca02c; stroke-opacity: 0.6"/>
   </g>
   <g id="line2d_78">
    <path d="M 103.827273 117.743726 
L 127.855981 108.446636 
L 151.884689 98.217394 
L 175.913397 101.272219 
L 199.942105 115.67919 
L 223.970813 128.625855 
L 247.999522 130.330903 
L 272.02823 130.701259 
L 296.056938 144.23148 
L 320.085646 160.85666 
L 344.114354 185.093577 
L 368.143062 203.315103 
L 392.17177 210.465152 
L 416.200478 221.221217 
L 440.229187 228.285145 
L 464.257895 229.356994 
L 488.286603 240.451601 
L 512.315311 247.759356 
L 536.344019 266.341547 
L 560.372727 268.753756 
" clip-path="url(#pf184c8cce9)" style="fill: none; stroke-dasharray: 3.7,1.6; stroke-dashoffset: 0; stroke: #d62728; stroke-opacity: 0.6"/>
   </g>
   <g id="line2d_79">
    <path d="M 103.827273 117.743726 
L 127.855981 118.042946 
L 151.884689 108.97218 
L 175.913397 131.209757 
L 199.942105 134.741447 
L 223.970813 139.653631 
L 247.999522 133.727469 
L 272.02823 135.271703 
L 296.056938 143.487567 
L 320.085646 138.01779 
L 344.114354 150.371847 
L 368.143062 164.876459 
L 392.17177 175.62192 
L 416.200478 196.661118 
L 440.229187 214.223023 
L 464.257895 221.840429 
L 488.286603 234.825674 
L 512.315311 247.836151 
L 536.344019 247.584737 
L 560.372727 265.827564 
" clip-path="url(#pf184c8cce9)" style="fill: none; stroke-dasharray: 3.7,1.6; stroke-dashoffset: 0; stroke: #9467bd; stroke-opacity: 0.6"/>
   </g>
   <g id="line2d_80">
    <path d="M 103.827273 117.743726 
L 127.855981 129.401035 
L 151.884689 101.395915 
L 175.913397 111.320941 
L 199.942105 102.487694 
L 223.970813 110.629779 
L 247.999522 124.363234 
L 272.02823 144.059055 
L 296.056938 155.181363 
L 320.085646 156.025294 
L 344.114354 176.507722 
L 368.143062 187.934745 
L 392.17177 202.154299 
L 416.200478 220.783939 
L 440.229187 231.477837 
L 464.257895 240.610221 
L 488.286603 252.033221 
L 512.315311 247.136945 
L 536.344019 260.34316 
L 560.372727 272.296874 
" clip-path="url(#pf184c8cce9)" style="fill: none; stroke-dasharray: 3.7,1.6; stroke-dashoffset: 0; stroke: #8c564b; stroke-opacity: 0.6"/>
   </g>
   <g id="line2d_81">
    <path d="M 103.827273 117.743726 
L 127.855981 99.019545 
L 151.884689 102.656096 
L 175.913397 105.621692 
L 199.942105 111.57327 
L 223.970813 115.317428 
L 247.999522 122.907406 
L 272.02823 120.147788 
L 296.056938 132.119512 
L 320.085646 139.193405 
L 344.114354 142.369 
L 368.143062 160.135145 
L 392.17177 186.920676 
L 416.200478 203.143684 
L 440.229187 213.619994 
L 464.257895 218.465165 
L 488.286603 229.765292 
L 512.315311 238.925378 
L 536.344019 251.878167 
L 560.372727 271.727762 
" clip-path="url(#pf184c8cce9)" style="fill: none; stroke-dasharray: 3.7,1.6; stroke-dashoffset: 0; stroke: #e377c2; stroke-opacity: 0.6"/>
   </g>
   <g id="line2d_82">
    <path d="M 103.827273 117.743726 
L 127.855981 110.583752 
L 151.884689 106.391934 
L 175.913397 92.492363 
L 199.942105 104.167418 
L 223.970813 103.060371 
L 247.999522 120.516956 
L 272.02823 128.785206 
L 296.056938 146.234569 
L 320.085646 173.753041 
L 344.114354 181.326746 
L 368.143062 188.456682 
L 392.17177 205.022528 
L 416.200478 221.92655 
L 440.229187 238.18695 
L 464.257895 249.570547 
L 488.286603 244.695114 
L 512.315311 255.332238 
L 536.344019 258.721307 
L 560.372727 272.054876 
" clip-path="url(#pf184c8cce9)" style="fill: none; stroke-dasharray: 3.7,1.6; stroke-dashoffset: 0; stroke: #7f7f7f; stroke-opacity: 0.6"/>
   </g>
   <g id="line2d_83">
    <path d="M 103.827273 117.743726 
L 127.855981 125.01225 
L 151.884689 123.516195 
L 175.913397 132.684326 
L 199.942105 140.565032 
L 223.970813 134.198482 
L 247.999522 137.93816 
L 272.02823 152.87292 
L 296.056938 160.435289 
L 320.085646 169.373581 
L 344.114354 176.622367 
L 368.143062 178.639993 
L 392.17177 201.12039 
L 416.200478 215.971315 
L 440.229187 230.713171 
L 464.257895 233.227042 
L 488.286603 252.495093 
L 512.315311 269.411091 
L 536.344019 274.79886 
L 560.372727 280.800722 
" clip-path="url(#pf184c8cce9)" style="fill: none; stroke-dasharray: 3.7,1.6; stroke-dashoffset: 0; stroke: #bcbd22; stroke-opacity: 0.6"/>
   </g>
   <g id="line2d_84">
    <path d="M 103.827273 117.743726 
L 127.855981 125.36414 
L 151.884689 123.348433 
L 175.913397 135.597719 
L 199.942105 143.375847 
L 223.970813 155.168107 
L 247.999522 168.623451 
L 272.02823 184.532968 
L 296.056938 187.494907 
L 320.085646 190.280398 
L 344.114354 204.874513 
L 368.143062 202.98607 
L 392.17177 195.376526 
L 416.200478 198.462069 
L 440.229187 214.800728 
L 464.257895 234.018404 
L 488.286603 236.918266 
L 512.315311 254.86671 
L 536.344019 270.416658 
L 560.372727 277.020269 
" clip-path="url(#pf184c8cce9)" style="fill: none; stroke-dasharray: 3.7,1.6; stroke-dashoffset: 0; stroke: #17becf; stroke-opacity: 0.6"/>
   </g>
   <g id="line2d_85">
    <path d="M 103.827273 117.743726 
L 127.855981 112.593789 
L 151.884689 113.238092 
L 175.913397 118.581338 
L 199.942105 127.00391 
L 223.970813 146.407999 
L 247.999522 150.194303 
L 272.02823 149.255841 
L 296.056938 156.628049 
L 320.085646 171.372922 
L 344.114354 182.682374 
L 368.143062 192.682093 
L 392.17177 195.866831 
L 416.200478 208.255994 
L 440.229187 217.8252 
L 464.257895 229.837882 
L 488.286603 234.48247 
L 512.315311 257.788696 
L 536.344019 255.825468 
L 560.372727 272.145933 
" clip-path="url(#pf184c8cce9)" style="fill: none; stroke-dasharray: 3.7,1.6; stroke-dashoffset: 0; stroke: #1f77b4; stroke-opacity: 0.6"/>
   </g>
   <g id="line2d_86">
    <path d="M 103.827273 117.743726 
L 127.855981 112.317915 
L 151.884689 120.10683 
L 175.913397 118.23018 
L 199.942105 130.514298 
L 223.970813 147.822595 
L 247.999522 165.71655 
L 272.02823 185.926445 
L 296.056938 181.786698 
L 320.085646 181.22682 
L 344.114354 179.160192 
L 368.143062 192.121301 
L 392.17177 202.516519 
L 416.200478 223.126117 
L 440.229187 234.335552 
L 464.257895 243.77576 
L 488.286603 258.437803 
L 512.315311 265.553842 
L 536.344019 265.142162 
L 560.372727 266.41432 
" clip-path="url(#pf184c8cce9)" style="fill: none; stroke-dasharray: 3.7,1.6; stroke-dashoffset: 0; stroke: #ff7f0e; stroke-opacity: 0.6"/>
   </g>
   <g id="line2d_87">
    <path d="M 103.827273 117.743726 
L 127.855981 98.791767 
L 151.884689 92.59302 
L 175.913397 85.211944 
L 199.942105 90.474281 
L 223.970813 99.381398 
L 247.999522 95.936286 
L 272.02823 125.721147 
L 296.056938 123.638977 
L 320.085646 136.094606 
L 344.114354 150.43173 
L 368.143062 174.2257 
L 392.17177 193.182728 
L 416.200478 206.33025 
L 440.229187 208.557326 
L 464.257895 218.505391 
L 488.286603 232.728602 
L 512.315311 243.984937 
L 536.344019 260.614231 
L 560.372727 275.100467 
" clip-path="url(#pf184c8cce9)" style="fill: none; stroke-dasharray: 3.7,1.6; stroke-dashoffset: 0; stroke: #2ca02c; stroke-opacity: 0.6"/>
   </g>
   <g id="line2d_88">
    <path d="M 103.827273 117.743726 
L 127.855981 121.419673 
L 151.884689 117.984708 
L 175.913397 120.551606 
L 199.942105 129.42325 
L 223.970813 133.889562 
L 247.999522 154.762827 
L 272.02823 169.843132 
L 296.056938 169.595466 
L 320.085646 178.485487 
L 344.114354 190.644995 
L 368.143062 198.331882 
L 392.17177 214.731521 
L 416.200478 232.592106 
L 440.229187 241.816097 
L 464.257895 254.518295 
L 488.286603 256.192533 
L 512.315311 262.689544 
L 536.344019 276.259717 
L 560.372727 275.715472 
" clip-path="url(#pf184c8cce9)" style="fill: none; stroke-dasharray: 3.7,1.6; stroke-dashoffset: 0; stroke: #d62728; stroke-opacity: 0.6"/>
   </g>
   <g id="line2d_89">
    <path d="M 103.827273 117.743726 
L 127.855981 121.438007 
L 151.884689 120.957617 
L 175.913397 120.233726 
L 199.942105 139.871493 
L 223.970813 149.360612 
L 247.999522 141.852 
L 272.02823 153.505571 
L 296.056938 149.229328 
L 320.085646 151.524332 
L 344.114354 164.28303 
L 368.143062 184.475463 
L 392.17177 199.560614 
L 416.200478 210.094247 
L 440.229187 222.316471 
L 464.257895 234.853101 
L 488.286603 246.288717 
L 512.315311 252.588528 
L 536.344019 260.764988 
L 560.372727 269.184635 
" clip-path="url(#pf184c8cce9)" style="fill: none; stroke-dasharray: 3.7,1.6; stroke-dashoffset: 0; stroke: #9467bd; stroke-opacity: 0.6"/>
   </g>
   <g id="line2d_90">
    <path d="M 103.827273 117.743726 
L 127.855981 101.661867 
L 151.884689 94.915543 
L 175.913397 110.07941 
L 199.942105 120.60518 
L 223.970813 130.984489 
L 247.999522 141.523059 
L 272.02823 144.797391 
L 296.056938 169.179489 
L 320.085646 176.964291 
L 344.114354 199.89431 
L 368.143062 220.470722 
L 392.17177 220.952067 
L 416.200478 226.922752 
L 440.229187 231.57822 
L 464.257895 245.697207 
L 488.286603 256.032085 
L 512.315311 268.112603 
L 536.344019 275.397319 
L 560.372727 293.778013 
" clip-path="url(#pf184c8cce9)" style="fill: none; stroke-dasharray: 3.7,1.6; stroke-dashoffset: 0; stroke: #8c564b; stroke-opacity: 0.6"/>
   </g>
   <g id="line2d_91">
    <path d="M 103.827273 117.743726 
L 127.855981 120.956753 
L 151.884689 112.18599 
L 175.913397 127.754223 
L 199.942105 141.939584 
L 223.970813 157.777242 
L 247.999522 166.675582 
L 272.02823 175.985694 
L 296.056938 177.090821 
L 320.085646 195.21489 
L 344.114354 199.19364 
L 368.143062 213.928731 
L 392.17177 213.09952 
L 416.200478 226.839283 
L 440.229187 234.108273 
L 464.257895 246.151491 
L 488.286603 263.135965 
L 512.315311 277.815196 
L 536.344019 280.989694 
L 560.372727 293.337077 
" clip-path="url(#pf184c8cce9)" style="fill: none; stroke-dasharray: 3.7,1.6; stroke-dashoffset: 0; stroke: #e377c2; stroke-opacity: 0.6"/>
   </g>
   <g id="line2d_92">
    <path d="M 103.827273 117.743726 
L 127.855981 127.199009 
L 151.884689 111.017872 
L 175.913397 120.467862 
L 199.942105 133.042524 
L 223.970813 136.246186 
L 247.999522 134.587307 
L 272.02823 148.2905 
L 296.056938 160.963625 
L 320.085646 170.953654 
L 344.114354 177.779057 
L 368.143062 193.054278 
L 392.17177 210.260272 
L 416.200478 222.827163 
L 440.229187 234.887842 
L 464.257895 247.092878 
L 488.286603 260.698066 
L 512.315311 264.322551 
L 536.344019 275.242173 
L 560.372727 278.035252 
" clip-path="url(#pf184c8cce9)" style="fill: none; stroke-dasharray: 3.7,1.6; stroke-dashoffset: 0; stroke: #7f7f7f; stroke-opacity: 0.6"/>
   </g>
   <g id="line2d_93">
    <path d="M 103.827273 117.743726 
L 127.855981 85.084459 
L 151.884689 76.542986 
L 175.913397 83.942346 
L 199.942105 110.935591 
L 223.970813 126.187498 
L 247.999522 139.571533 
L 272.02823 142.791651 
L 296.056938 164.894196 
L 320.085646 172.710447 
L 344.114354 187.605986 
L 368.143062 204.173661 
L 392.17177 208.865332 
L 416.200478 213.082515 
L 440.229187 232.225041 
L 464.257895 247.212369 
L 488.286603 264.865058 
L 512.315311 280.213508 
L 536.344019 277.95544 
L 560.372727 288.626847 
" clip-path="url(#pf184c8cce9)" style="fill: none; stroke-dasharray: 3.7,1.6; stroke-dashoffset: 0; stroke: #bcbd22; stroke-opacity: 0.6"/>
   </g>
   <g id="line2d_94">
    <path d="M 103.827273 117.743726 
L 127.855981 99.040664 
L 151.884689 83.731889 
L 175.913397 89.12103 
L 199.942105 89.401335 
L 223.970813 111.049413 
L 247.999522 121.244139 
L 272.02823 116.770238 
L 296.056938 123.301807 
L 320.085646 135.388451 
L 344.114354 166.522905 
L 368.143062 169.16733 
L 392.17177 178.40988 
L 416.200478 196.02737 
L 440.229187 196.4673 
L 464.257895 206.048665 
L 488.286603 227.668128 
L 512.315311 244.430443 
L 536.344019 262.167607 
L 560.372727 278.791416 
" clip-path="url(#pf184c8cce9)" style="fill: none; stroke-dasharray: 3.7,1.6; stroke-dashoffset: 0; stroke: #17becf; stroke-opacity: 0.6"/>
   </g>
   <g id="line2d_95">
    <path d="M 103.827273 117.743726 
L 127.855981 91.520856 
L 151.884689 112.416103 
L 175.913397 131.520871 
L 199.942105 128.103186 
L 223.970813 130.857411 
L 247.999522 144.274083 
L 272.02823 155.296466 
L 296.056938 153.758997 
L 320.085646 167.099147 
L 344.114354 187.620888 
L 368.143062 207.863239 
L 392.17177 211.156862 
L 416.200478 226.455395 
L 440.229187 238.556484 
L 464.257895 244.462807 
L 488.286603 250.456257 
L 512.315311 259.903779 
L 536.344019 257.351692 
L 560.372727 261.598862 
" clip-path="url(#pf184c8cce9)" style="fill: none; stroke-dasharray: 3.7,1.6; stroke-dashoffset: 0; stroke: #1f77b4; stroke-opacity: 0.6"/>
   </g>
   <g id="line2d_96">
    <path d="M 103.827273 117.743726 
L 127.855981 107.661168 
L 151.884689 115.48263 
L 175.913397 120.281449 
L 199.942105 121.391056 
L 223.970813 117.952984 
L 247.999522 130.401665 
L 272.02823 140.511458 
L 296.056938 152.09902 
L 320.085646 161.105972 
L 344.114354 177.214243 
L 368.143062 201.139772 
L 392.17177 218.025783 
L 416.200478 226.394142 
L 440.229187 234.503863 
L 464.257895 241.747987 
L 488.286603 253.949458 
L 512.315311 265.915148 
L 536.344019 265.546528 
L 560.372727 281.488501 
" clip-path="url(#pf184c8cce9)" style="fill: none; stroke-dasharray: 3.7,1.6; stroke-dashoffset: 0; stroke: #ff7f0e; stroke-opacity: 0.6"/>
   </g>
   <g id="line2d_97">
    <path d="M 103.827273 117.743726 
L 127.855981 132.779731 
L 151.884689 120.37589 
L 175.913397 128.11306 
L 199.942105 142.498822 
L 223.970813 145.119476 
L 247.999522 156.679977 
L 272.02823 177.344522 
L 296.056938 186.081591 
L 320.085646 180.414888 
L 344.114354 179.237445 
L 368.143062 187.790296 
L 392.17177 197.960154 
L 416.200478 207.938389 
L 440.229187 217.253163 
L 464.257895 231.865564 
L 488.286603 239.861006 
L 512.315311 254.909679 
L 536.344019 274.232766 
L 560.372727 285.742344 
" clip-path="url(#pf184c8cce9)" style="fill: none; stroke-dasharray: 3.7,1.6; stroke-dashoffset: 0; stroke: #2ca02c; stroke-opacity: 0.6"/>
   </g>
   <g id="line2d_98">
    <path d="M 103.827273 117.743726 
L 127.855981 124.601077 
L 151.884689 116.240531 
L 175.913397 132.74622 
L 199.942105 139.207759 
L 223.970813 150.52617 
L 247.999522 157.706755 
L 272.02823 173.241984 
L 296.056938 171.022495 
L 320.085646 178.617685 
L 344.114354 175.546953 
L 368.143062 190.984999 
L 392.17177 214.278974 
L 416.200478 213.915017 
L 440.229187 229.615174 
L 464.257895 240.544579 
L 488.286603 262.741564 
L 512.315311 280.308863 
L 536.344019 282.277942 
L 560.372727 295.768668 
" clip-path="url(#pf184c8cce9)" style="fill: none; stroke-dasharray: 3.7,1.6; stroke-dashoffset: 0; stroke: #d62728; stroke-opacity: 0.6"/>
   </g>
   <g id="line2d_99">
    <path d="M 103.827273 117.743726 
L 127.855981 104.585133 
L 151.884689 101.349563 
L 175.913397 111.504062 
L 199.942105 127.905255 
L 223.970813 124.167131 
L 247.999522 138.468874 
L 272.02823 150.771642 
L 296.056938 173.871892 
L 320.085646 181.691983 
L 344.114354 200.391745 
L 368.143062 218.800963 
L 392.17177 225.556337 
L 416.200478 239.350588 
L 440.229187 246.424847 
L 464.257895 256.764022 
L 488.286603 273.024422 
L 512.315311 283.655329 
L 536.344019 290.565117 
L 560.372727 303.186953 
" clip-path="url(#pf184c8cce9)" style="fill: none; stroke-dasharray: 3.7,1.6; stroke-dashoffset: 0; stroke: #9467bd; stroke-opacity: 0.6"/>
   </g>
   <g id="line2d_100">
    <path d="M 103.827273 117.743726 
L 127.855981 105.141403 
L 151.884689 101.541552 
L 175.913397 105.870181 
L 199.942105 125.687321 
L 223.970813 138.471708 
L 247.999522 144.042782 
L 272.02823 144.606682 
L 296.056938 162.632013 
L 320.085646 175.528394 
L 344.114354 182.787602 
L 368.143062 182.721412 
L 392.17177 184.88632 
L 416.200478 200.140788 
L 440.229187 217.972758 
L 464.257895 227.98747 
L 488.286603 240.266834 
L 512.315311 242.216349 
L 536.344019 258.847106 
L 560.372727 271.641733 
" clip-path="url(#pf184c8cce9)" style="fill: none; stroke-dasharray: 3.7,1.6; stroke-dashoffset: 0; stroke: #8c564b; stroke-opacity: 0.6"/>
   </g>
   <g id="line2d_101">
    <path d="M 103.827273 117.743726 
L 127.855981 95.629653 
L 151.884689 86.578086 
L 175.913397 98.598264 
L 199.942105 118.787681 
L 223.970813 127.139583 
L 247.999522 135.301781 
L 272.02823 150.826496 
L 296.056938 170.547825 
L 320.085646 191.111895 
L 344.114354 198.546088 
L 368.143062 212.099529 
L 392.17177 216.007701 
L 416.200478 202.077503 
L 440.229187 212.785846 
L 464.257895 234.184704 
L 488.286603 242.929818 
L 512.315311 251.655094 
L 536.344019 269.618805 
L 560.372727 272.322472 
" clip-path="url(#pf184c8cce9)" style="fill: none; stroke-dasharray: 3.7,1.6; stroke-dashoffset: 0; stroke: #e377c2; stroke-opacity: 0.6"/>
   </g>
   <g id="line2d_102">
    <path d="M 103.827273 117.743726 
L 127.855981 104.889348 
L 151.884689 107.257258 
L 175.913397 98.418434 
L 199.942105 88.757165 
L 223.970813 112.388493 
L 247.999522 135.371172 
L 272.02823 150.646301 
L 296.056938 169.967011 
L 320.085646 190.360119 
L 344.114354 210.463872 
L 368.143062 209.785418 
L 392.17177 224.332085 
L 416.200478 227.761106 
L 440.229187 244.915811 
L 464.257895 257.514517 
L 488.286603 259.706395 
L 512.315311 275.830575 
L 536.344019 275.913953 
L 560.372727 285.493033 
" clip-path="url(#pf184c8cce9)" style="fill: none; stroke-dasharray: 3.7,1.6; stroke-dashoffset: 0; stroke: #7f7f7f; stroke-opacity: 0.6"/>
   </g>
   <g id="line2d_103">
    <path d="M 103.827273 117.743726 
L 127.855981 134.549184 
L 151.884689 131.770183 
L 175.913397 123.095922 
L 199.942105 134.261199 
L 223.970813 144.821344 
L 247.999522 147.902225 
L 272.02823 152.304632 
L 296.056938 159.143201 
L 320.085646 154.616366 
L 344.114354 158.715156 
L 368.143062 165.369232 
L 392.17177 195.143488 
L 416.200478 201.822249 
L 440.229187 223.222386 
L 464.257895 236.772354 
L 488.286603 250.274782 
L 512.315311 268.978841 
L 536.344019 279.675573 
L 560.372727 297.88695 
" clip-path="url(#pf184c8cce9)" style="fill: none; stroke-dasharray: 3.7,1.6; stroke-dashoffset: 0; stroke: #bcbd22; stroke-opacity: 0.6"/>
   </g>
   <g id="line2d_104">
    <path d="M 103.827273 117.743726 
L 127.855981 128.539918 
L 151.884689 115.538033 
L 175.913397 101.073373 
L 199.942105 99.799935 
L 223.970813 116.524492 
L 247.999522 136.825354 
L 272.02823 148.254571 
L 296.056938 145.944025 
L 320.085646 154.758712 
L 344.114354 162.054947 
L 368.143062 166.123933 
L 392.17177 182.159889 
L 416.200478 187.028921 
L 440.229187 193.101361 
L 464.257895 212.261898 
L 488.286603 230.552631 
L 512.315311 241.599241 
L 536.344019 241.464482 
L 560.372727 256.816407 
" clip-path="url(#pf184c8cce9)" style="fill: none; stroke-dasharray: 3.7,1.6; stroke-dashoffset: 0; stroke: #17becf; stroke-opacity: 0.6"/>
   </g>
   <g id="line2d_105">
    <path d="M 103.827273 117.743726 
L 127.855981 90.537547 
L 151.884689 94.052871 
L 175.913397 111.789943 
L 199.942105 116.267683 
L 223.970813 126.140964 
L 247.999522 134.440572 
L 272.02823 136.794818 
L 296.056938 159.535499 
L 320.085646 175.517057 
L 344.114354 176.814814 
L 368.143062 184.643408 
L 392.17177 205.059829 
L 416.200478 216.657082 
L 440.229187 233.929266 
L 464.257895 246.50402 
L 488.286603 260.45168 
L 512.315311 267.98525 
L 536.344019 282.388108 
L 560.372727 288.654731 
" clip-path="url(#pf184c8cce9)" style="fill: none; stroke-dasharray: 3.7,1.6; stroke-dashoffset: 0; stroke: #1f77b4; stroke-opacity: 0.6"/>
   </g>
   <g id="line2d_106">
    <path d="M 103.827273 117.743726 
L 127.855981 138.223037 
L 151.884689 128.76043 
L 175.913397 123.387745 
L 199.942105 118.624215 
L 223.970813 128.360544 
L 247.999522 152.549738 
L 272.02823 160.273286 
L 296.056938 174.491743 
L 320.085646 187.384741 
L 344.114354 204.99245 
L 368.143062 213.310799 
L 392.17177 231.532325 
L 416.200478 242.407241 
L 440.229187 252.627474 
L 464.257895 268.309895 
L 488.286603 275.928855 
L 512.315311 279.588995 
L 536.344019 295.032069 
L 560.372727 301.588413 
" clip-path="url(#pf184c8cce9)" style="fill: none; stroke-dasharray: 3.7,1.6; stroke-dashoffset: 0; stroke: #ff7f0e; stroke-opacity: 0.6"/>
   </g>
   <g id="line2d_107">
    <path d="M 103.827273 117.743726 
L 127.855981 133.824702 
L 151.884689 131.537053 
L 175.913397 138.657298 
L 199.942105 131.453126 
L 223.970813 144.254701 
L 247.999522 165.440177 
L 272.02823 186.30375 
L 296.056938 185.000142 
L 320.085646 191.50721 
L 344.114354 204.626024 
L 368.143062 217.150403 
L 392.17177 225.261405 
L 416.200478 239.660148 
L 440.229187 239.905163 
L 464.257895 245.130382 
L 488.286603 260.763982 
L 512.315311 270.881364 
L 536.344019 287.038364 
L 560.372727 301.518657 
" clip-path="url(#pf184c8cce9)" style="fill: none; stroke-dasharray: 3.7,1.6; stroke-dashoffset: 0; stroke: #2ca02c; stroke-opacity: 0.6"/>
   </g>
   <g id="line2d_108">
    <path d="M 103.827273 117.743726 
L 127.855981 91.292297 
L 151.884689 66.204085 
L 175.913397 85.658548 
L 199.942105 83.537889 
L 223.970813 106.758634 
L 247.999522 111.057824 
L 272.02823 126.626423 
L 296.056938 141.444252 
L 320.085646 154.647633 
L 344.114354 174.500337 
L 368.143062 177.001866 
L 392.17177 189.769249 
L 416.200478 191.520283 
L 440.229187 208.044349 
L 464.257895 221.621195 
L 488.286603 222.030315 
L 512.315311 220.807069 
L 536.344019 223.679504 
L 560.372727 247.184759 
" clip-path="url(#pf184c8cce9)" style="fill: none; stroke-dasharray: 3.7,1.6; stroke-dashoffset: 0; stroke: #d62728; stroke-opacity: 0.6"/>
   </g>
   <g id="line2d_109">
    <path d="M 103.827273 117.743726 
L 127.855981 81.277261 
L 151.884689 90.44466 
L 175.913397 89.421905 
L 199.942105 103.165416 
L 223.970813 113.213864 
L 247.999522 108.705497 
L 272.02823 119.500418 
L 296.056938 134.587398 
L 320.085646 153.018192 
L 344.114354 158.453136 
L 368.143062 176.438423 
L 392.17177 190.178643 
L 416.200478 204.11003 
L 440.229187 217.276202 
L 464.257895 230.838969 
L 488.286603 234.258391 
L 512.315311 248.044871 
L 536.344019 270.163872 
L 560.372727 271.268085 
" clip-path="url(#pf184c8cce9)" style="fill: none; stroke-dasharray: 3.7,1.6; stroke-dashoffset: 0; stroke: #9467bd; stroke-opacity: 0.6"/>
   </g>
   <g id="line2d_110">
    <path d="M 103.827273 117.743726 
L 127.855981 125.946008 
L 151.884689 112.644113 
L 175.913397 130.92479 
L 199.942105 123.545451 
L 223.970813 137.755222 
L 247.999522 159.536596 
L 272.02823 169.964634 
L 296.056938 175.968781 
L 320.085646 181.462327 
L 344.114354 199.696012 
L 368.143062 210.878752 
L 392.17177 227.882425 
L 416.200478 241.919863 
L 440.229187 246.568108 
L 464.257895 258.799474 
L 488.286603 269.814177 
L 512.315311 269.192589 
L 536.344019 282.733323 
L 560.372727 289.183525 
" clip-path="url(#pf184c8cce9)" style="fill: none; stroke-dasharray: 3.7,1.6; stroke-dashoffset: 0; stroke: #8c564b; stroke-opacity: 0.6"/>
   </g>
   <g id="line2d_111">
    <path d="M 103.827273 117.743726 
L 127.855981 106.319394 
L 151.884689 100.792885 
L 175.913397 123.491328 
L 199.942105 145.054108 
L 223.970813 154.232936 
L 247.999522 169.075175 
L 272.02823 183.112521 
L 296.056938 184.157218 
L 320.085646 203.872512 
L 344.114354 209.949615 
L 368.143062 226.337916 
L 392.17177 238.264294 
L 416.200478 251.92589 
L 440.229187 258.2854 
L 464.257895 264.283421 
L 488.286603 272.382172 
L 512.315311 282.315975 
L 536.344019 296.409455 
L 560.372727 304.240518 
" clip-path="url(#pf184c8cce9)" style="fill: none; stroke-dasharray: 3.7,1.6; stroke-dashoffset: 0; stroke: #e377c2; stroke-opacity: 0.6"/>
   </g>
   <g id="line2d_112">
    <path d="M 103.827273 117.743726 
L 127.855981 122.952296 
L 151.884689 100.607753 
L 175.913397 107.643614 
L 199.942105 106.434264 
L 223.970813 112.08259 
L 247.999522 109.794443 
L 272.02823 135.538019 
L 296.056938 151.169243 
L 320.085646 174.636832 
L 344.114354 184.545585 
L 368.143062 192.002542 
L 392.17177 195.664602 
L 416.200478 206.259671 
L 440.229187 213.578762 
L 464.257895 232.731436 
L 488.286603 249.244805 
L 512.315311 248.684562 
L 536.344019 257.632453 
L 560.372727 264.797221 
" clip-path="url(#pf184c8cce9)" style="fill: none; stroke-dasharray: 3.7,1.6; stroke-dashoffset: 0; stroke: #7f7f7f; stroke-opacity: 0.6"/>
   </g>
   <g id="line2d_113">
    <path d="M 103.827273 117.743726 
L 127.855981 121.400889 
L 151.884689 116.660164 
L 175.913397 127.148085 
L 199.942105 134.491586 
L 223.970813 145.818683 
L 247.999522 164.929851 
L 272.02823 168.761592 
L 296.056938 172.806534 
L 320.085646 188.749054 
L 344.114354 204.812163 
L 368.143062 226.197398 
L 392.17177 230.454168 
L 416.200478 238.206972 
L 440.229187 227.848781 
L 464.257895 246.36917 
L 488.286603 257.496141 
L 512.315311 271.980914 
L 536.344019 290.455409 
L 560.372727 298.383197 
" clip-path="url(#pf184c8cce9)" style="fill: none; stroke-dasharray: 3.7,1.6; stroke-dashoffset: 0; stroke: #bcbd22; stroke-opacity: 0.6"/>
   </g>
   <g id="line2d_114">
    <path d="M 103.827273 117.743726 
L 127.855981 131.968165 
L 151.884689 129.839044 
L 175.913397 143.852164 
L 199.942105 153.426672 
L 223.970813 170.654516 
L 247.999522 164.233021 
L 272.02823 174.528038 
L 296.056938 156.825523 
L 320.085646 177.27056 
L 344.114354 176.779342 
L 368.143062 193.426646 
L 392.17177 202.505822 
L 416.200478 207.795128 
L 440.229187 218.764668 
L 464.257895 226.57388 
L 488.286603 237.528244 
L 512.315311 252.930543 
L 536.344019 263.737806 
L 560.372727 275.238059 
" clip-path="url(#pf184c8cce9)" style="fill: none; stroke-dasharray: 3.7,1.6; stroke-dashoffset: 0; stroke: #17becf; stroke-opacity: 0.6"/>
   </g>
   <g id="line2d_115">
    <path d="M 103.827273 117.743726 
L 127.855981 110.934889 
L 151.884689 104.988004 
L 175.913397 112.149269 
L 199.942105 120.723769 
L 223.970813 130.085726 
L 247.999522 141.08568 
L 272.02823 150.80674 
L 296.056938 160.62703 
L 320.085646 171.330665 
L 344.114354 183.180647 
L 368.143062 194.843198 
L 392.17177 206.853859 
L 416.200478 218.542913 
L 440.229187 229.907986 
L 464.257895 241.10554 
L 488.286603 252.056844 
L 512.315311 262.172066 
L 536.344019 271.466382 
L 560.372727 281.056486 
" clip-path="url(#pf184c8cce9)" style="fill: none; stroke: #000000; stroke-width: 2.5; stroke-linecap: square"/>
   </g>
   <g id="patch_3">
    <path d="M 81 320.4 
L 81 43.2 
" style="fill: none; stroke: #000000; stroke-width: 0.8; stroke-linejoin: miter; stroke-linecap: square"/>
   </g>
   <g id="patch_4">
    <path d="M 583.2 320.4 
L 583.2 43.2 
" style="fill: none; stroke: #000000; stroke-width: 0.8; stroke-linejoin: miter; stroke-linecap: square"/>
   </g>
   <g id="patch_5">
    <path d="M 81 320.4 
L 583.2 320.4 
" style="fill: none; stroke: #000000; stroke-width: 0.8; stroke-linejoin: miter; stroke-linecap: square"/>
   </g>
   <g id="patch_6">
    <path d="M 81 43.2 
L 583.2 43.2 
" style="fill: none; stroke: #000000; stroke-width: 0.8; stroke-linejoin: miter; stroke-linecap: square"/>
   </g>
   <g id="legend_1">
    <g id="patch_7">
     <path d="M 503.134375 65.878125 
L 576.2 65.878125 
Q 578.2 65.878125 578.2 63.878125 
L 578.2 50.2 
Q 578.2 48.2 576.2 48.2 
L 503.134375 48.2 
Q 501.134375 48.2 501.134375 50.2 
L 501.134375 63.878125 
Q 501.134375 65.878125 503.134375 65.878125 
z
" style="fill: #ffffff; opacity: 0.8; stroke: #cccccc; stroke-linejoin: miter"/>
    </g>
    <g id="line2d_116">
     <path d="M 505.134375 56.298437 
L 515.134375 56.298437 
L 525.134375 56.298437 
" style="fill: none; stroke: #000000; stroke-width: 2.5; stroke-linecap: square"/>
    </g>
    <g id="text_17">
     <!-- Average -->
     <g transform="translate(533.134375 59.798437) scale(0.1 -0.1)">
      <defs>
       <path id="DejaVuSans-41" d="M 2188 4044 
L 1331 1722 
L 3047 1722 
L 2188 4044 
z
M 1831 4666 
L 2547 4666 
L 4325 0 
L 3669 0 
L 3244 1197 
L 1141 1197 
L 716 0 
L 50 0 
L 1831 4666 
z
" transform="scale(0.015625)"/>
       <path id="DejaVuSans-67" d="M 2906 1791 
Q 2906 2416 2648 2759 
Q 2391 3103 1925 3103 
Q 1463 3103 1205 2759 
Q 947 2416 947 1791 
Q 947 1169 1205 825 
Q 1463 481 1925 481 
Q 2391 481 2648 825 
Q 2906 1169 2906 1791 
z
M 3481 434 
Q 3481 -459 3084 -895 
Q 2688 -1331 1869 -1331 
Q 1566 -1331 1297 -1286 
Q 1028 -1241 775 -1147 
L 775 -588 
Q 1028 -725 1275 -790 
Q 1522 -856 1778 -856 
Q 2344 -856 2625 -561 
Q 2906 -266 2906 331 
L 2906 616 
Q 2728 306 2450 153 
Q 2172 0 1784 0 
Q 1141 0 747 490 
Q 353 981 353 1791 
Q 353 2603 747 3093 
Q 1141 3584 1784 3584 
Q 2172 3584 2450 3431 
Q 2728 3278 2906 2969 
L 2906 3500 
L 3481 3500 
L 3481 434 
z
" transform="scale(0.015625)"/>
      </defs>
      <use xlink:href="#DejaVuSans-41"/>
      <use xlink:href="#DejaVuSans-76" x="62.533203"/>
      <use xlink:href="#DejaVuSans-65" x="121.712891"/>
      <use xlink:href="#DejaVuSans-72" x="183.236328"/>
      <use xlink:href="#DejaVuSans-61" x="224.349609"/>
      <use xlink:href="#DejaVuSans-67" x="285.628906"/>
      <use xlink:href="#DejaVuSans-65" x="349.105469"/>
     </g>
    </g>
   </g>
  </g>
 </g>
 <defs>
  <clipPath id="pf184c8cce9">
   <rect x="81" y="43.2" width="502.2" height="277.2"/>
  </clipPath>
 </defs>
</svg>
