<?xml version="1.0" encoding="utf-8" standalone="no"?>
<!DOCTYPE svg PUBLIC "-//W3C//DTD SVG 1.1//EN"
  "http://www.w3.org/Graphics/SVG/1.1/DTD/svg11.dtd">
<svg xmlns:xlink="http://www.w3.org/1999/xlink" width="460.8pt" height="345.6pt" viewBox="0 0 460.8 345.6" xmlns="http://www.w3.org/2000/svg" version="1.1">
 <metadata>
  <rdf:RDF xmlns:dc="http://purl.org/dc/elements/1.1/" xmlns:cc="http://creativecommons.org/ns#" xmlns:rdf="http://www.w3.org/1999/02/22-rdf-syntax-ns#">
   <cc:Work>
    <dc:type rdf:resource="http://purl.org/dc/dcmitype/StillImage"/>
    <dc:date>2025-07-31T19:02:31.294670</dc:date>
    <dc:format>image/svg+xml</dc:format>
    <dc:creator>
     <cc:Agent>
      <dc:title>Matplotlib v3.8.0, https://matplotlib.org/</dc:title>
     </cc:Agent>
    </dc:creator>
   </cc:Work>
  </rdf:RDF>
 </metadata>
 <defs>
  <style type="text/css">*{stroke-linejoin: round; stroke-linecap: butt}</style>
 </defs>
 <g id="figure_1">
  <g id="patch_1">
   <path d="M 0 345.6 
L 460.8 345.6 
L 460.8 0 
L 0 0 
z
" style="fill: #ffffff"/>
  </g>
  <g id="axes_1">
   <g id="patch_2">
    <path d="M 57.6 307.584 
L 414.72 307.584 
L 414.72 41.472 
L 57.6 41.472 
z
" style="fill: #ffffff"/>
   </g>
   <g id="matplotlib.axis_1">
    <g id="xtick_1">
     <g id="line2d_1">
      <defs>
       <path id="mb60e7a2bce" d="M 0 0 
L 0 3.5 
" style="stroke: #000000; stroke-width: 0.8"/>
      </defs>
      <g>
       <use xlink:href="#mb60e7a2bce" x="73.832727" y="307.584" style="stroke: #000000; stroke-width: 0.8"/>
      </g>
     </g>
     <g id="text_1">
      <!-- 0.0 -->
      <g transform="translate(64.290852 323.702125) scale(0.12 -0.12)">
       <defs>
        <path id="DejaVuSans-30" d="M 2034 4250 
Q 1547 4250 1301 3770 
Q 1056 3291 1056 2328 
Q 1056 1369 1301 889 
Q 1547 409 2034 409 
Q 2525 409 2770 889 
Q 3016 1369 3016 2328 
Q 3016 3291 2770 3770 
Q 2525 4250 2034 4250 
z
M 2034 4750 
Q 2819 4750 3233 4129 
Q 3647 3509 3647 2328 
Q 3647 1150 3233 529 
Q 2819 -91 2034 -91 
Q 1250 -91 836 529 
Q 422 1150 422 2328 
Q 422 3509 836 4129 
Q 1250 4750 2034 4750 
z
" transform="scale(0.015625)"/>
        <path id="DejaVuSans-2e" d="M 684 794 
L 1344 794 
L 1344 0 
L 684 0 
L 684 794 
z
" transform="scale(0.015625)"/>
       </defs>
       <use xlink:href="#DejaVuSans-30"/>
       <use xlink:href="#DejaVuSans-2e" x="63.623047"/>
       <use xlink:href="#DejaVuSans-30" x="95.410156"/>
      </g>
     </g>
    </g>
    <g id="xtick_2">
     <g id="line2d_2">
      <g>
       <use xlink:href="#mb60e7a2bce" x="116.550431" y="307.584" style="stroke: #000000; stroke-width: 0.8"/>
      </g>
     </g>
     <g id="text_2">
      <!-- 2.5 -->
      <g transform="translate(107.008556 323.702125) scale(0.12 -0.12)">
       <defs>
        <path id="DejaVuSans-32" d="M 1228 531 
L 3431 531 
L 3431 0 
L 469 0 
L 469 531 
Q 828 903 1448 1529 
Q 2069 2156 2228 2338 
Q 2531 2678 2651 2914 
Q 2772 3150 2772 3378 
Q 2772 3750 2511 3984 
Q 2250 4219 1831 4219 
Q 1534 4219 1204 4116 
Q 875 4013 500 3803 
L 500 4441 
Q 881 4594 1212 4672 
Q 1544 4750 1819 4750 
Q 2544 4750 2975 4387 
Q 3406 4025 3406 3419 
Q 3406 3131 3298 2873 
Q 3191 2616 2906 2266 
Q 2828 2175 2409 1742 
Q 1991 1309 1228 531 
z
" transform="scale(0.015625)"/>
        <path id="DejaVuSans-35" d="M 691 4666 
L 3169 4666 
L 3169 4134 
L 1269 4134 
L 1269 2991 
Q 1406 3038 1543 3061 
Q 1681 3084 1819 3084 
Q 2600 3084 3056 2656 
Q 3513 2228 3513 1497 
Q 3513 744 3044 326 
Q 2575 -91 1722 -91 
Q 1428 -91 1123 -41 
Q 819 9 494 109 
L 494 744 
Q 775 591 1075 516 
Q 1375 441 1709 441 
Q 2250 441 2565 725 
Q 2881 1009 2881 1497 
Q 2881 1984 2565 2268 
Q 2250 2553 1709 2553 
Q 1456 2553 1204 2497 
Q 953 2441 691 2322 
L 691 4666 
z
" transform="scale(0.015625)"/>
       </defs>
       <use xlink:href="#DejaVuSans-32"/>
       <use xlink:href="#DejaVuSans-2e" x="63.623047"/>
       <use xlink:href="#DejaVuSans-35" x="95.410156"/>
      </g>
     </g>
    </g>
    <g id="xtick_3">
     <g id="line2d_3">
      <g>
       <use xlink:href="#mb60e7a2bce" x="159.268134" y="307.584" style="stroke: #000000; stroke-width: 0.8"/>
      </g>
     </g>
     <g id="text_3">
      <!-- 5.0 -->
      <g transform="translate(149.726259 323.702125) scale(0.12 -0.12)">
       <use xlink:href="#DejaVuSans-35"/>
       <use xlink:href="#DejaVuSans-2e" x="63.623047"/>
       <use xlink:href="#DejaVuSans-30" x="95.410156"/>
      </g>
     </g>
    </g>
    <g id="xtick_4">
     <g id="line2d_4">
      <g>
       <use xlink:href="#mb60e7a2bce" x="201.985837" y="307.584" style="stroke: #000000; stroke-width: 0.8"/>
      </g>
     </g>
     <g id="text_4">
      <!-- 7.5 -->
      <g transform="translate(192.443962 323.702125) scale(0.12 -0.12)">
       <defs>
        <path id="DejaVuSans-37" d="M 525 4666 
L 3525 4666 
L 3525 4397 
L 1831 0 
L 1172 0 
L 2766 4134 
L 525 4134 
L 525 4666 
z
" transform="scale(0.015625)"/>
       </defs>
       <use xlink:href="#DejaVuSans-37"/>
       <use xlink:href="#DejaVuSans-2e" x="63.623047"/>
       <use xlink:href="#DejaVuSans-35" x="95.410156"/>
      </g>
     </g>
    </g>
    <g id="xtick_5">
     <g id="line2d_5">
      <g>
       <use xlink:href="#mb60e7a2bce" x="244.703541" y="307.584" style="stroke: #000000; stroke-width: 0.8"/>
      </g>
     </g>
     <g id="text_5">
      <!-- 10.0 -->
      <g transform="translate(231.344166 323.702125) scale(0.12 -0.12)">
       <defs>
        <path id="DejaVuSans-31" d="M 794 531 
L 1825 531 
L 1825 4091 
L 703 3866 
L 703 4441 
L 1819 4666 
L 2450 4666 
L 2450 531 
L 3481 531 
L 3481 0 
L 794 0 
L 794 531 
z
" transform="scale(0.015625)"/>
       </defs>
       <use xlink:href="#DejaVuSans-31"/>
       <use xlink:href="#DejaVuSans-30" x="63.623047"/>
       <use xlink:href="#DejaVuSans-2e" x="127.246094"/>
       <use xlink:href="#DejaVuSans-30" x="159.033203"/>
      </g>
     </g>
    </g>
    <g id="xtick_6">
     <g id="line2d_6">
      <g>
       <use xlink:href="#mb60e7a2bce" x="287.421244" y="307.584" style="stroke: #000000; stroke-width: 0.8"/>
      </g>
     </g>
     <g id="text_6">
      <!-- 12.5 -->
      <g transform="translate(274.061869 323.702125) scale(0.12 -0.12)">
       <use xlink:href="#DejaVuSans-31"/>
       <use xlink:href="#DejaVuSans-32" x="63.623047"/>
       <use xlink:href="#DejaVuSans-2e" x="127.246094"/>
       <use xlink:href="#DejaVuSans-35" x="159.033203"/>
      </g>
     </g>
    </g>
    <g id="xtick_7">
     <g id="line2d_7">
      <g>
       <use xlink:href="#mb60e7a2bce" x="330.138947" y="307.584" style="stroke: #000000; stroke-width: 0.8"/>
      </g>
     </g>
     <g id="text_7">
      <!-- 15.0 -->
      <g transform="translate(316.779572 323.702125) scale(0.12 -0.12)">
       <use xlink:href="#DejaVuSans-31"/>
       <use xlink:href="#DejaVuSans-35" x="63.623047"/>
       <use xlink:href="#DejaVuSans-2e" x="127.246094"/>
       <use xlink:href="#DejaVuSans-30" x="159.033203"/>
      </g>
     </g>
    </g>
    <g id="xtick_8">
     <g id="line2d_8">
      <g>
       <use xlink:href="#mb60e7a2bce" x="372.856651" y="307.584" style="stroke: #000000; stroke-width: 0.8"/>
      </g>
     </g>
     <g id="text_8">
      <!-- 17.5 -->
      <g transform="translate(359.497276 323.702125) scale(0.12 -0.12)">
       <use xlink:href="#DejaVuSans-31"/>
       <use xlink:href="#DejaVuSans-37" x="63.623047"/>
       <use xlink:href="#DejaVuSans-2e" x="127.246094"/>
       <use xlink:href="#DejaVuSans-35" x="159.033203"/>
      </g>
     </g>
    </g>
    <g id="text_9">
     <!-- Years -->
     <g transform="translate(216.371719 341.595406) scale(0.15 -0.15)">
      <defs>
       <path id="DejaVuSans-59" d="M -13 4666 
L 666 4666 
L 1959 2747 
L 3244 4666 
L 3922 4666 
L 2272 2222 
L 2272 0 
L 1638 0 
L 1638 2222 
L -13 4666 
z
" transform="scale(0.015625)"/>
       <path id="DejaVuSans-65" d="M 3597 1894 
L 3597 1613 
L 953 1613 
Q 991 1019 1311 708 
Q 1631 397 2203 397 
Q 2534 397 2845 478 
Q 3156 559 3463 722 
L 3463 178 
Q 3153 47 2828 -22 
Q 2503 -91 2169 -91 
Q 1331 -91 842 396 
Q 353 884 353 1716 
Q 353 2575 817 3079 
Q 1281 3584 2069 3584 
Q 2775 3584 3186 3129 
Q 3597 2675 3597 1894 
z
M 3022 2063 
Q 3016 2534 2758 2815 
Q 2500 3097 2075 3097 
Q 1594 3097 1305 2825 
Q 1016 2553 972 2059 
L 3022 2063 
z
" transform="scale(0.015625)"/>
       <path id="DejaVuSans-61" d="M 2194 1759 
Q 1497 1759 1228 1600 
Q 959 1441 959 1056 
Q 959 750 1161 570 
Q 1363 391 1709 391 
Q 2188 391 2477 730 
Q 2766 1069 2766 1631 
L 2766 1759 
L 2194 1759 
z
M 3341 1997 
L 3341 0 
L 2766 0 
L 2766 531 
Q 2569 213 2275 61 
Q 1981 -91 1556 -91 
Q 1019 -91 701 211 
Q 384 513 384 1019 
Q 384 1609 779 1909 
Q 1175 2209 1959 2209 
L 2766 2209 
L 2766 2266 
Q 2766 2663 2505 2880 
Q 2244 3097 1772 3097 
Q 1472 3097 1187 3025 
Q 903 2953 641 2809 
L 641 3341 
Q 956 3463 1253 3523 
Q 1550 3584 1831 3584 
Q 2591 3584 2966 3190 
Q 3341 2797 3341 1997 
z
" transform="scale(0.015625)"/>
       <path id="DejaVuSans-72" d="M 2631 2963 
Q 2534 3019 2420 3045 
Q 2306 3072 2169 3072 
Q 1681 3072 1420 2755 
Q 1159 2438 1159 1844 
L 1159 0 
L 581 0 
L 581 3500 
L 1159 3500 
L 1159 2956 
Q 1341 3275 1631 3429 
Q 1922 3584 2338 3584 
Q 2397 3584 2469 3576 
Q 2541 3569 2628 3553 
L 2631 2963 
z
" transform="scale(0.015625)"/>
       <path id="DejaVuSans-73" d="M 2834 3397 
L 2834 2853 
Q 2591 2978 2328 3040 
Q 2066 3103 1784 3103 
Q 1356 3103 1142 2972 
Q 928 2841 928 2578 
Q 928 2378 1081 2264 
Q 1234 2150 1697 2047 
L 1894 2003 
Q 2506 1872 2764 1633 
Q 3022 1394 3022 966 
Q 3022 478 2636 193 
Q 2250 -91 1575 -91 
Q 1294 -91 989 -36 
Q 684 19 347 128 
L 347 722 
Q 666 556 975 473 
Q 1284 391 1588 391 
Q 1994 391 2212 530 
Q 2431 669 2431 922 
Q 2431 1156 2273 1281 
Q 2116 1406 1581 1522 
L 1381 1569 
Q 847 1681 609 1914 
Q 372 2147 372 2553 
Q 372 3047 722 3315 
Q 1072 3584 1716 3584 
Q 2034 3584 2315 3537 
Q 2597 3491 2834 3397 
z
" transform="scale(0.015625)"/>
      </defs>
      <use xlink:href="#DejaVuSans-59"/>
      <use xlink:href="#DejaVuSans-65" x="47.833984"/>
      <use xlink:href="#DejaVuSans-61" x="109.357422"/>
      <use xlink:href="#DejaVuSans-72" x="170.636719"/>
      <use xlink:href="#DejaVuSans-73" x="211.75"/>
     </g>
    </g>
   </g>
   <g id="matplotlib.axis_2">
    <g id="ytick_1">
     <g id="line2d_9">
      <defs>
       <path id="m5ced71cdbe" d="M 0 0 
L -3.5 0 
" style="stroke: #000000; stroke-width: 0.8"/>
      </defs>
      <g>
       <use xlink:href="#m5ced71cdbe" x="57.6" y="283.761706" style="stroke: #000000; stroke-width: 0.8"/>
      </g>
     </g>
     <g id="text_10">
      <!-- 12 -->
      <g transform="translate(35.33 288.320768) scale(0.12 -0.12)">
       <use xlink:href="#DejaVuSans-31"/>
       <use xlink:href="#DejaVuSans-32" x="63.623047"/>
      </g>
     </g>
    </g>
    <g id="ytick_2">
     <g id="line2d_10">
      <g>
       <use xlink:href="#m5ced71cdbe" x="57.6" y="251.409573" style="stroke: #000000; stroke-width: 0.8"/>
      </g>
     </g>
     <g id="text_11">
      <!-- 14 -->
      <g transform="translate(35.33 255.968636) scale(0.12 -0.12)">
       <defs>
        <path id="DejaVuSans-34" d="M 2419 4116 
L 825 1625 
L 2419 1625 
L 2419 4116 
z
M 2253 4666 
L 3047 4666 
L 3047 1625 
L 3713 1625 
L 3713 1100 
L 3047 1100 
L 3047 0 
L 2419 0 
L 2419 1100 
L 313 1100 
L 313 1709 
L 2253 4666 
z
" transform="scale(0.015625)"/>
       </defs>
       <use xlink:href="#DejaVuSans-31"/>
       <use xlink:href="#DejaVuSans-34" x="63.623047"/>
      </g>
     </g>
    </g>
    <g id="ytick_3">
     <g id="line2d_11">
      <g>
       <use xlink:href="#m5ced71cdbe" x="57.6" y="219.05744" style="stroke: #000000; stroke-width: 0.8"/>
      </g>
     </g>
     <g id="text_12">
      <!-- 16 -->
      <g transform="translate(35.33 223.616503) scale(0.12 -0.12)">
       <defs>
        <path id="DejaVuSans-36" d="M 2113 2584 
Q 1688 2584 1439 2293 
Q 1191 2003 1191 1497 
Q 1191 994 1439 701 
Q 1688 409 2113 409 
Q 2538 409 2786 701 
Q 3034 994 3034 1497 
Q 3034 2003 2786 2293 
Q 2538 2584 2113 2584 
z
M 3366 4563 
L 3366 3988 
Q 3128 4100 2886 4159 
Q 2644 4219 2406 4219 
Q 1781 4219 1451 3797 
Q 1122 3375 1075 2522 
Q 1259 2794 1537 2939 
Q 1816 3084 2150 3084 
Q 2853 3084 3261 2657 
Q 3669 2231 3669 1497 
Q 3669 778 3244 343 
Q 2819 -91 2113 -91 
Q 1303 -91 875 529 
Q 447 1150 447 2328 
Q 447 3434 972 4092 
Q 1497 4750 2381 4750 
Q 2619 4750 2861 4703 
Q 3103 4656 3366 4563 
z
" transform="scale(0.015625)"/>
       </defs>
       <use xlink:href="#DejaVuSans-31"/>
       <use xlink:href="#DejaVuSans-36" x="63.623047"/>
      </g>
     </g>
    </g>
    <g id="ytick_4">
     <g id="line2d_12">
      <g>
       <use xlink:href="#m5ced71cdbe" x="57.6" y="186.705307" style="stroke: #000000; stroke-width: 0.8"/>
      </g>
     </g>
     <g id="text_13">
      <!-- 18 -->
      <g transform="translate(35.33 191.26437) scale(0.12 -0.12)">
       <defs>
        <path id="DejaVuSans-38" d="M 2034 2216 
Q 1584 2216 1326 1975 
Q 1069 1734 1069 1313 
Q 1069 891 1326 650 
Q 1584 409 2034 409 
Q 2484 409 2743 651 
Q 3003 894 3003 1313 
Q 3003 1734 2745 1975 
Q 2488 2216 2034 2216 
z
M 1403 2484 
Q 997 2584 770 2862 
Q 544 3141 544 3541 
Q 544 4100 942 4425 
Q 1341 4750 2034 4750 
Q 2731 4750 3128 4425 
Q 3525 4100 3525 3541 
Q 3525 3141 3298 2862 
Q 3072 2584 2669 2484 
Q 3125 2378 3379 2068 
Q 3634 1759 3634 1313 
Q 3634 634 3220 271 
Q 2806 -91 2034 -91 
Q 1263 -91 848 271 
Q 434 634 434 1313 
Q 434 1759 690 2068 
Q 947 2378 1403 2484 
z
M 1172 3481 
Q 1172 3119 1398 2916 
Q 1625 2713 2034 2713 
Q 2441 2713 2670 2916 
Q 2900 3119 2900 3481 
Q 2900 3844 2670 4047 
Q 2441 4250 2034 4250 
Q 1625 4250 1398 4047 
Q 1172 3844 1172 3481 
z
" transform="scale(0.015625)"/>
       </defs>
       <use xlink:href="#DejaVuSans-31"/>
       <use xlink:href="#DejaVuSans-38" x="63.623047"/>
      </g>
     </g>
    </g>
    <g id="ytick_5">
     <g id="line2d_13">
      <g>
       <use xlink:href="#m5ced71cdbe" x="57.6" y="154.353174" style="stroke: #000000; stroke-width: 0.8"/>
      </g>
     </g>
     <g id="text_14">
      <!-- 20 -->
      <g transform="translate(35.33 158.912237) scale(0.12 -0.12)">
       <use xlink:href="#DejaVuSans-32"/>
       <use xlink:href="#DejaVuSans-30" x="63.623047"/>
      </g>
     </g>
    </g>
    <g id="ytick_6">
     <g id="line2d_14">
      <g>
       <use xlink:href="#m5ced71cdbe" x="57.6" y="122.001041" style="stroke: #000000; stroke-width: 0.8"/>
      </g>
     </g>
     <g id="text_15">
      <!-- 22 -->
      <g transform="translate(35.33 126.560104) scale(0.12 -0.12)">
       <use xlink:href="#DejaVuSans-32"/>
       <use xlink:href="#DejaVuSans-32" x="63.623047"/>
      </g>
     </g>
    </g>
    <g id="ytick_7">
     <g id="line2d_15">
      <g>
       <use xlink:href="#m5ced71cdbe" x="57.6" y="89.648908" style="stroke: #000000; stroke-width: 0.8"/>
      </g>
     </g>
     <g id="text_16">
      <!-- 24 -->
      <g transform="translate(35.33 94.207971) scale(0.12 -0.12)">
       <use xlink:href="#DejaVuSans-32"/>
       <use xlink:href="#DejaVuSans-34" x="63.623047"/>
      </g>
     </g>
    </g>
    <g id="ytick_8">
     <g id="line2d_16">
      <g>
       <use xlink:href="#m5ced71cdbe" x="57.6" y="57.296775" style="stroke: #000000; stroke-width: 0.8"/>
      </g>
     </g>
     <g id="text_17">
      <!-- 26 -->
      <g transform="translate(35.33 61.855838) scale(0.12 -0.12)">
       <use xlink:href="#DejaVuSans-32"/>
       <use xlink:href="#DejaVuSans-36" x="63.623047"/>
      </g>
     </g>
    </g>
    <g id="text_18">
     <!-- Total coral cover (%) -->
     <g transform="translate(28.210469 251.497922) rotate(-90) scale(0.15 -0.15)">
      <defs>
       <path id="DejaVuSans-54" d="M -19 4666 
L 3928 4666 
L 3928 4134 
L 2272 4134 
L 2272 0 
L 1638 0 
L 1638 4134 
L -19 4134 
L -19 4666 
z
" transform="scale(0.015625)"/>
       <path id="DejaVuSans-6f" d="M 1959 3097 
Q 1497 3097 1228 2736 
Q 959 2375 959 1747 
Q 959 1119 1226 758 
Q 1494 397 1959 397 
Q 2419 397 2687 759 
Q 2956 1122 2956 1747 
Q 2956 2369 2687 2733 
Q 2419 3097 1959 3097 
z
M 1959 3584 
Q 2709 3584 3137 3096 
Q 3566 2609 3566 1747 
Q 3566 888 3137 398 
Q 2709 -91 1959 -91 
Q 1206 -91 779 398 
Q 353 888 353 1747 
Q 353 2609 779 3096 
Q 1206 3584 1959 3584 
z
" transform="scale(0.015625)"/>
       <path id="DejaVuSans-74" d="M 1172 4494 
L 1172 3500 
L 2356 3500 
L 2356 3053 
L 1172 3053 
L 1172 1153 
Q 1172 725 1289 603 
Q 1406 481 1766 481 
L 2356 481 
L 2356 0 
L 1766 0 
Q 1100 0 847 248 
Q 594 497 594 1153 
L 594 3053 
L 172 3053 
L 172 3500 
L 594 3500 
L 594 4494 
L 1172 4494 
z
" transform="scale(0.015625)"/>
       <path id="DejaVuSans-6c" d="M 603 4863 
L 1178 4863 
L 1178 0 
L 603 0 
L 603 4863 
z
" transform="scale(0.015625)"/>
       <path id="DejaVuSans-20" transform="scale(0.015625)"/>
       <path id="DejaVuSans-63" d="M 3122 3366 
L 3122 2828 
Q 2878 2963 2633 3030 
Q 2388 3097 2138 3097 
Q 1578 3097 1268 2742 
Q 959 2388 959 1747 
Q 959 1106 1268 751 
Q 1578 397 2138 397 
Q 2388 397 2633 464 
Q 2878 531 3122 666 
L 3122 134 
Q 2881 22 2623 -34 
Q 2366 -91 2075 -91 
Q 1284 -91 818 406 
Q 353 903 353 1747 
Q 353 2603 823 3093 
Q 1294 3584 2113 3584 
Q 2378 3584 2631 3529 
Q 2884 3475 3122 3366 
z
" transform="scale(0.015625)"/>
       <path id="DejaVuSans-76" d="M 191 3500 
L 800 3500 
L 1894 563 
L 2988 3500 
L 3597 3500 
L 2284 0 
L 1503 0 
L 191 3500 
z
" transform="scale(0.015625)"/>
       <path id="DejaVuSans-28" d="M 1984 4856 
Q 1566 4138 1362 3434 
Q 1159 2731 1159 2009 
Q 1159 1288 1364 580 
Q 1569 -128 1984 -844 
L 1484 -844 
Q 1016 -109 783 600 
Q 550 1309 550 2009 
Q 550 2706 781 3412 
Q 1013 4119 1484 4856 
L 1984 4856 
z
" transform="scale(0.015625)"/>
       <path id="DejaVuSans-25" d="M 4653 2053 
Q 4381 2053 4226 1822 
Q 4072 1591 4072 1178 
Q 4072 772 4226 539 
Q 4381 306 4653 306 
Q 4919 306 5073 539 
Q 5228 772 5228 1178 
Q 5228 1588 5073 1820 
Q 4919 2053 4653 2053 
z
M 4653 2450 
Q 5147 2450 5437 2106 
Q 5728 1763 5728 1178 
Q 5728 594 5436 251 
Q 5144 -91 4653 -91 
Q 4153 -91 3862 251 
Q 3572 594 3572 1178 
Q 3572 1766 3864 2108 
Q 4156 2450 4653 2450 
z
M 1428 4353 
Q 1159 4353 1004 4120 
Q 850 3888 850 3481 
Q 850 3069 1003 2837 
Q 1156 2606 1428 2606 
Q 1700 2606 1854 2837 
Q 2009 3069 2009 3481 
Q 2009 3884 1853 4118 
Q 1697 4353 1428 4353 
z
M 4250 4750 
L 4750 4750 
L 1831 -91 
L 1331 -91 
L 4250 4750 
z
M 1428 4750 
Q 1922 4750 2215 4408 
Q 2509 4066 2509 3481 
Q 2509 2891 2217 2550 
Q 1925 2209 1428 2209 
Q 931 2209 642 2551 
Q 353 2894 353 3481 
Q 353 4063 643 4406 
Q 934 4750 1428 4750 
z
" transform="scale(0.015625)"/>
       <path id="DejaVuSans-29" d="M 513 4856 
L 1013 4856 
Q 1481 4119 1714 3412 
Q 1947 2706 1947 2009 
Q 1947 1309 1714 600 
Q 1481 -109 1013 -844 
L 513 -844 
Q 928 -128 1133 580 
Q 1338 1288 1338 2009 
Q 1338 2731 1133 3434 
Q 928 4138 513 4856 
z
" transform="scale(0.015625)"/>
      </defs>
      <use xlink:href="#DejaVuSans-54"/>
      <use xlink:href="#DejaVuSans-6f" x="44.083984"/>
      <use xlink:href="#DejaVuSans-74" x="105.265625"/>
      <use xlink:href="#DejaVuSans-61" x="144.474609"/>
      <use xlink:href="#DejaVuSans-6c" x="205.753906"/>
      <use xlink:href="#DejaVuSans-20" x="233.537109"/>
      <use xlink:href="#DejaVuSans-63" x="265.324219"/>
      <use xlink:href="#DejaVuSans-6f" x="320.304688"/>
      <use xlink:href="#DejaVuSans-72" x="381.486328"/>
      <use xlink:href="#DejaVuSans-61" x="422.599609"/>
      <use xlink:href="#DejaVuSans-6c" x="483.878906"/>
      <use xlink:href="#DejaVuSans-20" x="511.662109"/>
      <use xlink:href="#DejaVuSans-63" x="543.449219"/>
      <use xlink:href="#DejaVuSans-6f" x="598.429688"/>
      <use xlink:href="#DejaVuSans-76" x="659.611328"/>
      <use xlink:href="#DejaVuSans-65" x="718.791016"/>
      <use xlink:href="#DejaVuSans-72" x="780.314453"/>
      <use xlink:href="#DejaVuSans-20" x="821.427734"/>
      <use xlink:href="#DejaVuSans-28" x="853.214844"/>
      <use xlink:href="#DejaVuSans-25" x="892.228516"/>
      <use xlink:href="#DejaVuSans-29" x="987.248047"/>
     </g>
    </g>
   </g>
   <g id="line2d_17">
    <path d="M 73.832727 188.322914 
L 90.919809 284.535597 
L 108.00689 271.359195 
L 125.093971 254.874677 
L 142.181053 236.223924 
L 159.268134 213.792125 
L 176.355215 293.578253 
L 193.442297 265.005811 
L 210.529378 232.47028 
L 227.616459 197.628486 
L 244.703541 161.819315 
L 261.790622 124.207555 
L 278.877703 226.002219 
L 295.964785 214.863732 
L 313.051866 177.687059 
L 330.138947 203.237546 
L 347.226029 167.317363 
L 364.31311 152.413693 
L 381.400191 112.354652 
L 398.487273 201.434279 
" clip-path="url(#p0eebca055e)" style="fill: none; stroke-dasharray: 3.7,1.6; stroke-dashoffset: 0; stroke: #1f77b4"/>
   </g>
   <g id="line2d_18">
    <path d="M 73.832727 188.322914 
L 90.919809 284.697582 
L 108.00689 272.002985 
L 125.093971 255.164085 
L 142.181053 234.529844 
L 159.268134 211.664299 
L 176.355215 291.095798 
L 193.442297 260.727098 
L 210.529378 226.365583 
L 227.616459 189.897083 
L 244.703541 148.886272 
L 261.790622 108.845212 
L 278.877703 217.650021 
L 295.964785 204.290761 
L 313.051866 162.857077 
L 330.138947 190.282611 
L 347.226029 150.543092 
L 364.31311 133.664325 
L 381.400191 90.653199 
L 398.487273 188.030552 
" clip-path="url(#p0eebca055e)" style="fill: none; stroke-dasharray: 3.7,1.6; stroke-dashoffset: 0; stroke: #ff7f0e"/>
   </g>
   <g id="line2d_19">
    <path d="M 73.832727 188.322914 
L 90.919809 284.813829 
L 108.00689 271.61759 
L 125.093971 255.511426 
L 142.181053 236.883592 
L 159.268134 216.687913 
L 176.355215 295.488 
L 193.442297 268.254182 
L 210.529378 236.07151 
L 227.616459 201.481531 
L 244.703541 162.311283 
L 261.790622 121.432888 
L 278.877703 223.775887 
L 295.964785 209.929245 
L 313.051866 169.876239 
L 330.138947 194.071456 
L 347.226029 155.773915 
L 364.31311 140.636321 
L 381.400191 100.088786 
L 398.487273 193.545166 
" clip-path="url(#p0eebca055e)" style="fill: none; stroke-dasharray: 3.7,1.6; stroke-dashoffset: 0; stroke: #2ca02c"/>
   </g>
   <g id="line2d_20">
    <path d="M 73.832727 188.322914 
L 90.919809 284.621354 
L 108.00689 268.550738 
L 125.093971 249.912262 
L 142.181053 226.100982 
L 159.268134 199.183993 
L 176.355215 276.744233 
L 193.442297 242.443827 
L 210.529378 205.385466 
L 227.616459 166.296857 
L 244.703541 127.700694 
L 261.790622 88.400952 
L 278.877703 204.536596 
L 295.964785 192.281053 
L 313.051866 152.037953 
L 330.138947 180.773814 
L 347.226029 141.821665 
L 364.31311 126.305473 
L 381.400191 84.800325 
L 398.487273 180.469378 
" clip-path="url(#p0eebca055e)" style="fill: none; stroke-dasharray: 3.7,1.6; stroke-dashoffset: 0; stroke: #d62728"/>
   </g>
   <g id="line2d_21">
    <path d="M 73.832727 188.322914 
L 90.919809 284.603091 
L 108.00689 271.101376 
L 125.093971 253.893487 
L 142.181053 231.419957 
L 159.268134 205.993099 
L 176.355215 282.271095 
L 193.442297 246.662851 
L 210.529378 207.846056 
L 227.616459 168.409948 
L 244.703541 128.787056 
L 261.790622 89.028274 
L 278.877703 203.363004 
L 295.964785 191.021545 
L 313.051866 151.585509 
L 330.138947 180.336773 
L 347.226029 143.775959 
L 364.31311 130.248521 
L 381.400191 90.143902 
L 398.487273 184.725437 
" clip-path="url(#p0eebca055e)" style="fill: none; stroke-dasharray: 3.7,1.6; stroke-dashoffset: 0; stroke: #9467bd"/>
   </g>
   <g id="line2d_22">
    <path d="M 73.832727 188.322914 
L 90.919809 284.568947 
L 108.00689 269.673251 
L 125.093971 253.069261 
L 142.181053 233.245394 
L 159.268134 210.355443 
L 176.355215 290.752296 
L 193.442297 260.302158 
L 210.529378 228.123272 
L 227.616459 192.771503 
L 244.703541 154.632551 
L 261.790622 116.087459 
L 278.877703 221.042799 
L 295.964785 209.45425 
L 313.051866 171.437482 
L 330.138947 198.059288 
L 347.226029 162.055254 
L 364.31311 148.341534 
L 381.400191 108.639494 
L 398.487273 200.76919 
" clip-path="url(#p0eebca055e)" style="fill: none; stroke-dasharray: 3.7,1.6; stroke-dashoffset: 0; stroke: #8c564b"/>
   </g>
   <g id="line2d_23">
    <path d="M 73.832727 188.322914 
L 90.919809 284.306755 
L 108.00689 270.726118 
L 125.093971 253.377131 
L 142.181053 233.764806 
L 159.268134 210.703853 
L 176.355215 288.540067 
L 193.442297 258.707924 
L 210.529378 225.574177 
L 227.616459 188.95862 
L 244.703541 152.675021 
L 261.790622 114.709968 
L 278.877703 220.636091 
L 295.964785 209.735023 
L 313.051866 172.748443 
L 330.138947 199.106628 
L 347.226029 164.916183 
L 364.31311 152.244404 
L 381.400191 113.839826 
L 398.487273 203.040782 
" clip-path="url(#p0eebca055e)" style="fill: none; stroke-dasharray: 3.7,1.6; stroke-dashoffset: 0; stroke: #e377c2"/>
   </g>
   <g id="line2d_24">
    <path d="M 73.832727 188.322914 
L 90.919809 285.457161 
L 108.00689 273.317881 
L 125.093971 256.210284 
L 142.181053 236.997741 
L 159.268134 214.336179 
L 176.355215 292.116125 
L 193.442297 261.904348 
L 210.529378 228.365104 
L 227.616459 191.554168 
L 244.703541 152.685157 
L 261.790622 114.507037 
L 278.877703 221.890676 
L 295.964785 209.920034 
L 313.051866 171.075876 
L 330.138947 197.792172 
L 347.226029 159.355992 
L 364.31311 144.176155 
L 381.400191 103.247639 
L 398.487273 197.483449 
" clip-path="url(#p0eebca055e)" style="fill: none; stroke-dasharray: 3.7,1.6; stroke-dashoffset: 0; stroke: #7f7f7f"/>
   </g>
   <g id="line2d_25">
    <path d="M 73.832727 188.322914 
L 90.919809 284.105227 
L 108.00689 267.570343 
L 125.093971 249.757152 
L 142.181053 226.50876 
L 159.268134 201.53038 
L 176.355215 278.472622 
L 193.442297 246.625416 
L 210.529378 211.157169 
L 227.616459 173.92025 
L 244.703541 135.511983 
L 261.790622 98.418866 
L 278.877703 209.338637 
L 295.964785 197.698952 
L 313.051866 158.113001 
L 330.138947 185.033525 
L 347.226029 146.509365 
L 364.31311 130.822612 
L 381.400191 89.718613 
L 398.487273 182.171008 
" clip-path="url(#p0eebca055e)" style="fill: none; stroke-dasharray: 3.7,1.6; stroke-dashoffset: 0; stroke: #bcbd22"/>
   </g>
   <g id="line2d_26">
    <path d="M 73.832727 188.322914 
L 90.919809 284.415856 
L 108.00689 270.015333 
L 125.093971 251.353419 
L 142.181053 229.781475 
L 159.268134 204.303754 
L 176.355215 283.899551 
L 193.442297 250.396094 
L 210.529378 213.909236 
L 227.616459 174.627657 
L 244.703541 134.634731 
L 261.790622 93.298734 
L 278.877703 205.477376 
L 295.964785 192.394283 
L 313.051866 151.866917 
L 330.138947 180.801129 
L 347.226029 141.239792 
L 364.31311 125.047077 
L 381.400191 83.416788 
L 398.487273 180.133023 
" clip-path="url(#p0eebca055e)" style="fill: none; stroke-dasharray: 3.7,1.6; stroke-dashoffset: 0; stroke: #17becf"/>
   </g>
   <g id="line2d_27">
    <path d="M 73.832727 188.322914 
L 90.919809 283.106483 
L 108.00689 267.599381 
L 125.093971 246.587683 
L 142.181053 222.82587 
L 159.268134 195.604492 
L 176.355215 276.668886 
L 193.442297 243.761131 
L 210.529378 209.03328 
L 227.616459 174.37435 
L 244.703541 138.897638 
L 261.790622 102.568962 
L 278.877703 211.923717 
L 295.964785 204.662849 
L 313.051866 169.814462 
L 330.138947 200.393768 
L 347.226029 167.188252 
L 364.31311 155.403733 
L 381.400191 118.599307 
L 398.487273 205.087025 
" clip-path="url(#p0eebca055e)" style="fill: none; stroke-dasharray: 3.7,1.6; stroke-dashoffset: 0; stroke: #1f77b4"/>
   </g>
   <g id="line2d_28">
    <path d="M 73.832727 188.322914 
L 90.919809 282.628629 
L 108.00689 266.220334 
L 125.093971 246.585483 
L 142.181053 221.845019 
L 159.268134 193.430713 
L 176.355215 270.339323 
L 193.442297 234.881334 
L 210.529378 197.173513 
L 227.616459 157.35839 
L 244.703541 117.540431 
L 261.790622 78.245117 
L 278.877703 197.883487 
L 295.964785 186.291762 
L 313.051866 146.457593 
L 330.138947 175.417373 
L 347.226029 137.383295 
L 364.31311 122.481372 
L 381.400191 79.983355 
L 398.487273 175.169632 
" clip-path="url(#p0eebca055e)" style="fill: none; stroke-dasharray: 3.7,1.6; stroke-dashoffset: 0; stroke: #ff7f0e"/>
   </g>
   <g id="line2d_29">
    <path d="M 73.832727 188.322914 
L 90.919809 284.108086 
L 108.00689 268.300699 
L 125.093971 248.983925 
L 142.181053 226.551652 
L 159.268134 198.035438 
L 176.355215 276.401736 
L 193.442297 241.666202 
L 210.529378 204.062057 
L 227.616459 164.813019 
L 244.703541 125.178656 
L 261.790622 87.649385 
L 278.877703 203.326955 
L 295.964785 192.182115 
L 313.051866 152.739409 
L 330.138947 182.656484 
L 347.226029 145.073739 
L 364.31311 130.932825 
L 381.400191 89.935704 
L 398.487273 184.187554 
" clip-path="url(#p0eebca055e)" style="fill: none; stroke-dasharray: 3.7,1.6; stroke-dashoffset: 0; stroke: #2ca02c"/>
   </g>
   <g id="line2d_30">
    <path d="M 73.832727 188.322914 
L 90.919809 285.508933 
L 108.00689 273.315918 
L 125.093971 255.834636 
L 142.181053 237.467971 
L 159.268134 215.858929 
L 176.355215 295.278467 
L 193.442297 266.688178 
L 210.529378 234.014199 
L 227.616459 198.766547 
L 244.703541 160.368691 
L 261.790622 120.436639 
L 278.877703 222.601819 
L 295.964785 207.460731 
L 313.051866 164.173438 
L 330.138947 187.274784 
L 347.226029 145.626868 
L 364.31311 128.142248 
L 381.400191 85.652172 
L 398.487273 181.401423 
" clip-path="url(#p0eebca055e)" style="fill: none; stroke-dasharray: 3.7,1.6; stroke-dashoffset: 0; stroke: #d62728"/>
   </g>
   <g id="line2d_31">
    <path d="M 73.832727 188.322914 
L 90.919809 283.016756 
L 108.00689 268.695891 
L 125.093971 251.367311 
L 142.181053 228.976042 
L 159.268134 203.594388 
L 176.355215 281.927089 
L 193.442297 249.558473 
L 210.529378 214.048341 
L 227.616459 177.734078 
L 244.703541 136.653048 
L 261.790622 96.267131 
L 278.877703 204.903761 
L 295.964785 189.890355 
L 313.051866 147.873368 
L 330.138947 171.790671 
L 347.226029 131.51581 
L 364.31311 113.775985 
L 381.400191 72.117428 
L 398.487273 167.247011 
" clip-path="url(#p0eebca055e)" style="fill: none; stroke-dasharray: 3.7,1.6; stroke-dashoffset: 0; stroke: #9467bd"/>
   </g>
   <g id="line2d_32">
    <path d="M 73.832727 188.322914 
L 90.919809 284.874176 
L 108.00689 270.298463 
L 125.093971 253.385501 
L 142.181053 232.703872 
L 159.268134 209.329359 
L 176.355215 285.779217 
L 193.442297 251.592288 
L 210.529378 216.223058 
L 227.616459 177.095354 
L 244.703541 136.916352 
L 261.790622 97.031115 
L 278.877703 209.058817 
L 295.964785 195.152463 
L 313.051866 153.859324 
L 330.138947 180.778101 
L 347.226029 141.332219 
L 364.31311 124.902085 
L 381.400191 82.910666 
L 398.487273 179.640241 
" clip-path="url(#p0eebca055e)" style="fill: none; stroke-dasharray: 3.7,1.6; stroke-dashoffset: 0; stroke: #8c564b"/>
   </g>
   <g id="line2d_33">
    <path d="M 73.832727 188.322914 
L 90.919809 284.469216 
L 108.00689 268.738298 
L 125.093971 249.011146 
L 142.181053 224.940237 
L 159.268134 198.149924 
L 176.355215 276.441782 
L 193.442297 241.257159 
L 210.529378 204.545231 
L 227.616459 163.663514 
L 244.703541 122.633951 
L 261.790622 82.466744 
L 278.877703 195.906484 
L 295.964785 182.789724 
L 313.051866 142.537096 
L 330.138947 169.768249 
L 347.226029 132.30588 
L 364.31311 117.649475 
L 381.400191 78.296336 
L 398.487273 172.259949 
" clip-path="url(#p0eebca055e)" style="fill: none; stroke-dasharray: 3.7,1.6; stroke-dashoffset: 0; stroke: #e377c2"/>
   </g>
   <g id="line2d_34">
    <path d="M 73.832727 188.322914 
L 90.919809 282.558595 
L 108.00689 267.911717 
L 125.093971 248.69873 
L 142.181053 224.822299 
L 159.268134 198.565336 
L 176.355215 276.996689 
L 193.442297 242.091022 
L 210.529378 203.421902 
L 227.616459 162.781106 
L 244.703541 120.43979 
L 261.790622 79.295095 
L 278.877703 198.597489 
L 295.964785 183.951565 
L 313.051866 141.892494 
L 330.138947 171.469402 
L 347.226029 131.396704 
L 364.31311 116.020897 
L 381.400191 74.30644 
L 398.487273 177.729937 
" clip-path="url(#p0eebca055e)" style="fill: none; stroke-dasharray: 3.7,1.6; stroke-dashoffset: 0; stroke: #7f7f7f"/>
   </g>
   <g id="line2d_35">
    <path d="M 73.832727 188.322914 
L 90.919809 283.902747 
L 108.00689 270.034949 
L 125.093971 253.330288 
L 142.181053 233.41448 
L 159.268134 210.670377 
L 176.355215 287.152725 
L 193.442297 253.137759 
L 210.529378 216.506986 
L 227.616459 179.516747 
L 244.703541 140.790111 
L 261.790622 102.35859 
L 278.877703 214.878819 
L 295.964785 202.977418 
L 313.051866 163.695266 
L 330.138947 190.645646 
L 347.226029 153.958897 
L 364.31311 139.744137 
L 381.400191 100.853289 
L 398.487273 195.06099 
" clip-path="url(#p0eebca055e)" style="fill: none; stroke-dasharray: 3.7,1.6; stroke-dashoffset: 0; stroke: #bcbd22"/>
   </g>
   <g id="line2d_36">
    <path d="M 73.832727 188.322914 
L 90.919809 283.350888 
L 108.00689 266.934503 
L 125.093971 244.199419 
L 142.181053 217.548509 
L 159.268134 187.415451 
L 176.355215 266.99039 
L 193.442297 231.30607 
L 210.529378 193.751123 
L 227.616459 155.122982 
L 244.703541 116.213791 
L 261.790622 78.54493 
L 278.877703 195.983348 
L 295.964785 185.108641 
L 313.051866 145.621468 
L 330.138947 177.468698 
L 347.226029 140.648232 
L 364.31311 126.701699 
L 381.400191 86.916761 
L 398.487273 184.21074 
" clip-path="url(#p0eebca055e)" style="fill: none; stroke-dasharray: 3.7,1.6; stroke-dashoffset: 0; stroke: #17becf"/>
   </g>
   <g id="line2d_37">
    <path d="M 73.832727 188.322914 
L 90.919809 283.184458 
L 108.00689 267.352985 
L 125.093971 245.575335 
L 142.181053 220.460848 
L 159.268134 192.497333 
L 176.355215 271.612453 
L 193.442297 236.928243 
L 210.529378 199.243592 
L 227.616459 158.96683 
L 244.703541 117.964834 
L 261.790622 75.422244 
L 278.877703 193.498159 
L 295.964785 179.802066 
L 313.051866 136.113624 
L 330.138947 166.813464 
L 347.226029 124.971802 
L 364.31311 108.874689 
L 381.400191 67.04049 
L 398.487273 169.06997 
" clip-path="url(#p0eebca055e)" style="fill: none; stroke-dasharray: 3.7,1.6; stroke-dashoffset: 0; stroke: #1f77b4"/>
   </g>
   <g id="line2d_38">
    <path d="M 73.832727 188.322914 
L 90.919809 284.796202 
L 108.00689 271.304757 
L 125.093971 254.453716 
L 142.181053 233.139208 
L 159.268134 209.163265 
L 176.355215 288.388076 
L 193.442297 254.82965 
L 210.529378 219.27454 
L 227.616459 180.680332 
L 244.703541 139.388087 
L 261.790622 98.271213 
L 278.877703 211.757762 
L 295.964785 197.921125 
L 313.051866 157.079953 
L 330.138947 185.422605 
L 347.226029 145.084697 
L 364.31311 129.460038 
L 381.400191 85.327727 
L 398.487273 183.777829 
" clip-path="url(#p0eebca055e)" style="fill: none; stroke-dasharray: 3.7,1.6; stroke-dashoffset: 0; stroke: #ff7f0e"/>
   </g>
   <g id="line2d_39">
    <path d="M 73.832727 188.322914 
L 90.919809 283.13618 
L 108.00689 267.53932 
L 125.093971 247.26472 
L 142.181053 222.989786 
L 159.268134 194.649372 
L 176.355215 274.285233 
L 193.442297 238.299347 
L 210.529378 200.034973 
L 227.616459 159.369689 
L 244.703541 115.978344 
L 261.790622 74.49948 
L 278.877703 192.903581 
L 295.964785 177.755347 
L 313.051866 134.167271 
L 330.138947 163.67875 
L 347.226029 122.528221 
L 364.31311 106.086494 
L 381.400191 64.12112 
L 398.487273 168.152535 
" clip-path="url(#p0eebca055e)" style="fill: none; stroke-dasharray: 3.7,1.6; stroke-dashoffset: 0; stroke: #2ca02c"/>
   </g>
   <g id="line2d_40">
    <path d="M 73.832727 188.322914 
L 90.919809 283.668664 
L 108.00689 268.200494 
L 125.093971 247.993677 
L 142.181053 224.321704 
L 159.268134 196.997376 
L 176.355215 278.340656 
L 193.442297 243.236379 
L 210.529378 203.228148 
L 227.616459 162.07859 
L 244.703541 120.324093 
L 261.790622 76.86448 
L 278.877703 197.656233 
L 295.964785 182.652832 
L 313.051866 138.832261 
L 330.138947 170.326142 
L 347.226029 127.990427 
L 364.31311 111.454686 
L 381.400191 67.866928 
L 398.487273 175.58031 
" clip-path="url(#p0eebca055e)" style="fill: none; stroke-dasharray: 3.7,1.6; stroke-dashoffset: 0; stroke: #d62728"/>
   </g>
   <g id="line2d_41">
    <path d="M 73.832727 188.322914 
L 90.919809 285.177024 
L 108.00689 271.198733 
L 125.093971 254.180035 
L 142.181053 234.189053 
L 159.268134 210.486309 
L 176.355215 291.186276 
L 193.442297 258.873213 
L 210.529378 221.639636 
L 227.616459 181.736624 
L 244.703541 140.968558 
L 261.790622 98.296493 
L 278.877703 211.711867 
L 295.964785 196.930956 
L 313.051866 152.745761 
L 330.138947 180.693298 
L 347.226029 137.896245 
L 364.31311 120.31904 
L 381.400191 75.232292 
L 398.487273 177.567794 
" clip-path="url(#p0eebca055e)" style="fill: none; stroke-dasharray: 3.7,1.6; stroke-dashoffset: 0; stroke: #9467bd"/>
   </g>
   <g id="line2d_42">
    <path d="M 73.832727 188.322914 
L 90.919809 283.305946 
L 108.00689 268.527081 
L 125.093971 248.287377 
L 142.181053 222.880171 
L 159.268134 193.959651 
L 176.355215 272.945449 
L 193.442297 236.718811 
L 210.529378 197.711516 
L 227.616459 156.001651 
L 244.703541 114.44329 
L 261.790622 74.223831 
L 278.877703 196.917457 
L 295.964785 184.321905 
L 313.051866 144.004166 
L 330.138947 176.195851 
L 347.226029 137.918478 
L 364.31311 123.785981 
L 381.400191 81.893659 
L 398.487273 183.572807 
" clip-path="url(#p0eebca055e)" style="fill: none; stroke-dasharray: 3.7,1.6; stroke-dashoffset: 0; stroke: #8c564b"/>
   </g>
   <g id="line2d_43">
    <path d="M 73.832727 188.322914 
L 90.919809 284.581175 
L 108.00689 270.268133 
L 125.093971 250.525321 
L 142.181053 229.565627 
L 159.268134 205.215186 
L 176.355215 284.621221 
L 193.442297 253.110663 
L 210.529378 218.757336 
L 227.616459 182.00409 
L 244.703541 143.429798 
L 261.790622 103.822363 
L 278.877703 213.165279 
L 295.964785 200.818738 
L 313.051866 160.687122 
L 330.138947 188.34007 
L 347.226029 150.226587 
L 364.31311 134.497592 
L 381.400191 92.465201 
L 398.487273 186.773109 
" clip-path="url(#p0eebca055e)" style="fill: none; stroke-dasharray: 3.7,1.6; stroke-dashoffset: 0; stroke: #e377c2"/>
   </g>
   <g id="line2d_44">
    <path d="M 73.832727 188.322914 
L 90.919809 282.91766 
L 108.00689 268.058225 
L 125.093971 249.89246 
L 142.181053 226.512856 
L 159.268134 200.665288 
L 176.355215 278.737364 
L 193.442297 245.002279 
L 210.529378 208.817206 
L 227.616459 171.348862 
L 244.703541 130.071533 
L 261.790622 91.312922 
L 278.877703 203.891676 
L 295.964785 190.33867 
L 313.051866 150.366656 
L 330.138947 177.78822 
L 347.226029 138.926593 
L 364.31311 123.322897 
L 381.400191 83.027549 
L 398.487273 179.302615 
" clip-path="url(#p0eebca055e)" style="fill: none; stroke-dasharray: 3.7,1.6; stroke-dashoffset: 0; stroke: #7f7f7f"/>
   </g>
   <g id="line2d_45">
    <path d="M 73.832727 188.322914 
L 90.919809 283.467454 
L 108.00689 268.458935 
L 125.093971 248.59359 
L 142.181053 223.626774 
L 159.268134 195.566055 
L 176.355215 274.099586 
L 193.442297 237.789148 
L 210.529378 200.012152 
L 227.616459 159.384966 
L 244.703541 120.516459 
L 261.790622 83.079699 
L 278.877703 199.79649 
L 295.964785 188.159187 
L 313.051866 147.813021 
L 330.138947 176.523631 
L 347.226029 137.278799 
L 364.31311 121.849316 
L 381.400191 80.125489 
L 398.487273 176.398649 
" clip-path="url(#p0eebca055e)" style="fill: none; stroke-dasharray: 3.7,1.6; stroke-dashoffset: 0; stroke: #bcbd22"/>
   </g>
   <g id="line2d_46">
    <path d="M 73.832727 188.322914 
L 90.919809 285.371722 
L 108.00689 272.266664 
L 125.093971 255.499195 
L 142.181053 234.378608 
L 159.268134 209.365778 
L 176.355215 286.005259 
L 193.442297 253.136079 
L 210.529378 216.612441 
L 227.616459 178.571704 
L 244.703541 138.244162 
L 261.790622 98.777373 
L 278.877703 211.422359 
L 295.964785 199.431867 
L 313.051866 161.164499 
L 330.138947 190.621349 
L 347.226029 153.526303 
L 364.31311 139.476545 
L 381.400191 98.701438 
L 398.487273 193.871358 
" clip-path="url(#p0eebca055e)" style="fill: none; stroke-dasharray: 3.7,1.6; stroke-dashoffset: 0; stroke: #17becf"/>
   </g>
   <g id="line2d_47">
    <path d="M 73.832727 188.322914 
L 90.919809 283.543364 
L 108.00689 267.497269 
L 125.093971 246.373 
L 142.181053 221.625062 
L 159.268134 192.97197 
L 176.355215 274.198146 
L 193.442297 238.458725 
L 210.529378 200.202314 
L 227.616459 160.715064 
L 244.703541 120.680803 
L 261.790622 79.362549 
L 278.877703 196.172329 
L 295.964785 182.238501 
L 313.051866 138.692509 
L 330.138947 169.433164 
L 347.226029 127.500187 
L 364.31311 110.724645 
L 381.400191 66.167363 
L 398.487273 170.75683 
" clip-path="url(#p0eebca055e)" style="fill: none; stroke-dasharray: 3.7,1.6; stroke-dashoffset: 0; stroke: #1f77b4"/>
   </g>
   <g id="line2d_48">
    <path d="M 73.832727 188.322914 
L 90.919809 283.186998 
L 108.00689 267.563086 
L 125.093971 247.882227 
L 142.181053 226.362665 
L 159.268134 199.45052 
L 176.355215 278.003828 
L 193.442297 244.905198 
L 210.529378 207.907717 
L 227.616459 169.434307 
L 244.703541 129.901929 
L 261.790622 91.280548 
L 278.877703 203.986167 
L 295.964785 191.402367 
L 313.051866 149.990281 
L 330.138947 177.562713 
L 347.226029 138.751427 
L 364.31311 122.884586 
L 381.400191 80.991946 
L 398.487273 176.736275 
" clip-path="url(#p0eebca055e)" style="fill: none; stroke-dasharray: 3.7,1.6; stroke-dashoffset: 0; stroke: #ff7f0e"/>
   </g>
   <g id="line2d_49">
    <path d="M 73.832727 188.322914 
L 90.919809 284.021218 
L 108.00689 269.903168 
L 125.093971 250.938172 
L 142.181053 229.945647 
L 159.268134 206.90716 
L 176.355215 287.277222 
L 193.442297 255.841753 
L 210.529378 219.850799 
L 227.616459 180.692562 
L 244.703541 140.587642 
L 261.790622 99.561805 
L 278.877703 210.892258 
L 295.964785 196.962241 
L 313.051866 155.08167 
L 330.138947 182.429071 
L 347.226029 142.172314 
L 364.31311 125.347066 
L 381.400191 81.863168 
L 398.487273 180.511939 
" clip-path="url(#p0eebca055e)" style="fill: none; stroke-dasharray: 3.7,1.6; stroke-dashoffset: 0; stroke: #2ca02c"/>
   </g>
   <g id="line2d_50">
    <path d="M 73.832727 188.322914 
L 90.919809 285.228954 
L 108.00689 270.849616 
L 125.093971 252.572485 
L 142.181053 231.150523 
L 159.268134 204.891184 
L 176.355215 282.574505 
L 193.442297 248.847735 
L 210.529378 213.203174 
L 227.616459 173.049094 
L 244.703541 134.108108 
L 261.790622 93.328587 
L 278.877703 207.591271 
L 295.964785 194.118304 
L 313.051866 153.389569 
L 330.138947 181.904051 
L 347.226029 142.739577 
L 364.31311 126.83621 
L 381.400191 84.884969 
L 398.487273 184.059872 
" clip-path="url(#p0eebca055e)" style="fill: none; stroke-dasharray: 3.7,1.6; stroke-dashoffset: 0; stroke: #d62728"/>
   </g>
   <g id="line2d_51">
    <path d="M 73.832727 188.322914 
L 90.919809 285.126523 
L 108.00689 270.280401 
L 125.093971 253.698515 
L 142.181053 233.618415 
L 159.268134 209.942636 
L 176.355215 288.566206 
L 193.442297 257.906179 
L 210.529378 224.677316 
L 227.616459 190.393931 
L 244.703541 154.799562 
L 261.790622 118.088061 
L 278.877703 223.077608 
L 295.964785 213.452245 
L 313.051866 177.730414 
L 330.138947 204.786084 
L 347.226029 170.336941 
L 364.31311 157.029294 
L 381.400191 119.153865 
L 398.487273 206.590939 
" clip-path="url(#p0eebca055e)" style="fill: none; stroke-dasharray: 3.7,1.6; stroke-dashoffset: 0; stroke: #9467bd"/>
   </g>
   <g id="line2d_52">
    <path d="M 73.832727 188.322914 
L 90.919809 284.079183 
L 108.00689 268.446516 
L 125.093971 250.095591 
L 142.181053 228.759215 
L 159.268134 203.302657 
L 176.355215 283.272714 
L 193.442297 251.224642 
L 210.529378 215.882883 
L 227.616459 178.95892 
L 244.703541 140.413316 
L 261.790622 98.938697 
L 278.877703 210.511118 
L 295.964785 197.327182 
L 313.051866 155.692764 
L 330.138947 184.907114 
L 347.226029 144.388005 
L 364.31311 127.675828 
L 381.400191 82.664672 
L 398.487273 180.879421 
" clip-path="url(#p0eebca055e)" style="fill: none; stroke-dasharray: 3.7,1.6; stroke-dashoffset: 0; stroke: #8c564b"/>
   </g>
   <g id="line2d_53">
    <path d="M 73.832727 188.322914 
L 90.919809 282.962444 
L 108.00689 268.21492 
L 125.093971 249.050833 
L 142.181053 226.703381 
L 159.268134 200.886455 
L 176.355215 281.04745 
L 193.442297 248.774708 
L 210.529378 213.017593 
L 227.616459 175.674005 
L 244.703541 136.271295 
L 261.790622 96.199792 
L 278.877703 207.766595 
L 295.964785 195.069248 
L 313.051866 154.879825 
L 330.138947 184.179613 
L 347.226029 145.752167 
L 364.31311 131.199623 
L 381.400191 88.673814 
L 398.487273 185.506614 
" clip-path="url(#p0eebca055e)" style="fill: none; stroke-dasharray: 3.7,1.6; stroke-dashoffset: 0; stroke: #e377c2"/>
   </g>
   <g id="line2d_54">
    <path d="M 73.832727 188.322914 
L 90.919809 284.471598 
L 108.00689 271.14678 
L 125.093971 254.91617 
L 142.181053 236.556672 
L 159.268134 212.960005 
L 176.355215 293.507277 
L 193.442297 263.15985 
L 210.529378 228.28662 
L 227.616459 191.775041 
L 244.703541 153.22408 
L 261.790622 112.233436 
L 278.877703 219.157587 
L 295.964785 204.935364 
L 313.051866 162.638874 
L 330.138947 189.018974 
L 347.226029 148.651528 
L 364.31311 132.047023 
L 381.400191 89.987158 
L 398.487273 189.512709 
" clip-path="url(#p0eebca055e)" style="fill: none; stroke-dasharray: 3.7,1.6; stroke-dashoffset: 0; stroke: #7f7f7f"/>
   </g>
   <g id="line2d_55">
    <path d="M 73.832727 188.322914 
L 90.919809 284.340263 
L 108.00689 268.989356 
L 125.093971 248.995908 
L 142.181053 224.887676 
L 159.268134 196.092947 
L 176.355215 273.654574 
L 193.442297 237.946091 
L 210.529378 199.500172 
L 227.616459 159.907375 
L 244.703541 119.084511 
L 261.790622 78.048931 
L 278.877703 197.461216 
L 295.964785 183.345076 
L 313.051866 140.66316 
L 330.138947 171.742711 
L 347.226029 130.181662 
L 364.31311 114.56685 
L 381.400191 72.521436 
L 398.487273 177.751377 
" clip-path="url(#p0eebca055e)" style="fill: none; stroke-dasharray: 3.7,1.6; stroke-dashoffset: 0; stroke: #bcbd22"/>
   </g>
   <g id="line2d_56">
    <path d="M 73.832727 188.322914 
L 90.919809 284.704093 
L 108.00689 270.904344 
L 125.093971 252.399857 
L 142.181053 230.538517 
L 159.268134 207.100261 
L 176.355215 285.827952 
L 193.442297 253.740795 
L 210.529378 218.379778 
L 227.616459 180.580437 
L 244.703541 140.413191 
L 261.790622 100.647987 
L 278.877703 211.312146 
L 295.964785 198.282254 
L 313.051866 157.638799 
L 330.138947 184.780385 
L 347.226029 145.323068 
L 364.31311 129.134958 
L 381.400191 85.737452 
L 398.487273 181.957728 
" clip-path="url(#p0eebca055e)" style="fill: none; stroke-dasharray: 3.7,1.6; stroke-dashoffset: 0; stroke: #17becf"/>
   </g>
   <g id="line2d_57">
    <path d="M 73.832727 188.322914 
L 90.919809 283.03359 
L 108.00689 266.895305 
L 125.093971 247.294745 
L 142.181053 223.950068 
L 159.268134 197.574985 
L 176.355215 276.829042 
L 193.442297 243.572691 
L 210.529378 205.361602 
L 227.616459 165.084594 
L 244.703541 124.217123 
L 261.790622 81.795728 
L 278.877703 197.034022 
L 295.964785 182.904384 
L 313.051866 140.971883 
L 330.138947 168.480633 
L 347.226029 129.348872 
L 364.31311 114.014515 
L 381.400191 74.313269 
L 398.487273 171.167825 
" clip-path="url(#p0eebca055e)" style="fill: none; stroke-dasharray: 3.7,1.6; stroke-dashoffset: 0; stroke: #1f77b4"/>
   </g>
   <g id="line2d_58">
    <path d="M 73.832727 188.322914 
L 90.919809 284.089188 
L 108.00689 270.660291 
L 125.093971 254.132322 
L 142.181053 233.483208 
L 159.268134 210.103568 
L 176.355215 287.681889 
L 193.442297 256.684811 
L 210.529378 219.385072 
L 227.616459 181.263773 
L 244.703541 141.777053 
L 261.790622 102.042283 
L 278.877703 212.754601 
L 295.964785 198.767255 
L 313.051866 158.37694 
L 330.138947 184.131494 
L 347.226029 146.309902 
L 364.31311 132.128174 
L 381.400191 90.054175 
L 398.487273 183.973639 
" clip-path="url(#p0eebca055e)" style="fill: none; stroke-dasharray: 3.7,1.6; stroke-dashoffset: 0; stroke: #ff7f0e"/>
   </g>
   <g id="line2d_59">
    <path d="M 73.832727 188.322914 
L 90.919809 285.110165 
L 108.00689 271.567559 
L 125.093971 254.989726 
L 142.181053 235.790893 
L 159.268134 212.962574 
L 176.355215 292.15857 
L 193.442297 263.881458 
L 210.529378 234.161118 
L 227.616459 202.226908 
L 244.703541 168.738883 
L 261.790622 134.358227 
L 278.877703 232.29404 
L 295.964785 223.488762 
L 313.051866 188.61052 
L 330.138947 213.475908 
L 347.226029 179.540827 
L 364.31311 165.763266 
L 381.400191 128.829729 
L 398.487273 212.263566 
" clip-path="url(#p0eebca055e)" style="fill: none; stroke-dasharray: 3.7,1.6; stroke-dashoffset: 0; stroke: #2ca02c"/>
   </g>
   <g id="line2d_60">
    <path d="M 73.832727 188.322914 
L 90.919809 285.116518 
L 108.00689 271.990935 
L 125.093971 255.575011 
L 142.181053 234.875594 
L 159.268134 211.481273 
L 176.355215 289.191097 
L 193.442297 258.804178 
L 210.529378 224.197314 
L 227.616459 187.782856 
L 244.703541 149.403104 
L 261.790622 109.148731 
L 278.877703 215.798159 
L 295.964785 201.124444 
L 313.051866 158.862099 
L 330.138947 182.478302 
L 347.226029 141.141649 
L 364.31311 123.101836 
L 381.400191 77.797202 
L 398.487273 174.835024 
" clip-path="url(#p0eebca055e)" style="fill: none; stroke-dasharray: 3.7,1.6; stroke-dashoffset: 0; stroke: #d62728"/>
   </g>
   <g id="line2d_61">
    <path d="M 73.832727 188.322914 
L 90.919809 283.916881 
L 108.00689 269.398907 
L 125.093971 248.988164 
L 142.181053 225.572035 
L 159.268134 198.248705 
L 176.355215 276.954207 
L 193.442297 241.843104 
L 210.529378 204.374143 
L 227.616459 163.855294 
L 244.703541 123.315905 
L 261.790622 82.829982 
L 278.877703 199.392482 
L 295.964785 185.620003 
L 313.051866 143.111664 
L 330.138947 171.681729 
L 347.226029 131.004924 
L 364.31311 115.061855 
L 381.400191 72.917028 
L 398.487273 173.65095 
" clip-path="url(#p0eebca055e)" style="fill: none; stroke-dasharray: 3.7,1.6; stroke-dashoffset: 0; stroke: #9467bd"/>
   </g>
   <g id="line2d_62">
    <path d="M 73.832727 188.322914 
L 90.919809 284.994077 
L 108.00689 270.060279 
L 125.093971 252.549842 
L 142.181053 229.626772 
L 159.268134 203.394723 
L 176.355215 281.018163 
L 193.442297 246.882886 
L 210.529378 207.752855 
L 227.616459 165.985967 
L 244.703541 122.944128 
L 261.790622 80.520585 
L 278.877703 199.594804 
L 295.964785 184.241866 
L 313.051866 140.839437 
L 330.138947 169.859723 
L 347.226029 129.813069 
L 364.31311 114.243675 
L 381.400191 70.952729 
L 398.487273 172.546916 
" clip-path="url(#p0eebca055e)" style="fill: none; stroke-dasharray: 3.7,1.6; stroke-dashoffset: 0; stroke: #8c564b"/>
   </g>
   <g id="line2d_63">
    <path d="M 73.832727 188.322914 
L 90.919809 282.623388 
L 108.00689 267.036614 
L 125.093971 245.916496 
L 142.181053 219.960824 
L 159.268134 191.260231 
L 176.355215 270.196408 
L 193.442297 234.234285 
L 210.529378 194.847052 
L 227.616459 152.679377 
L 244.703541 110.05591 
L 261.790622 67.653143 
L 278.877703 188.148865 
L 295.964785 174.001916 
L 313.051866 131.322858 
L 330.138947 161.888506 
L 347.226029 121.2838 
L 364.31311 104.714709 
L 381.400191 61.420111 
L 398.487273 162.94188 
" clip-path="url(#p0eebca055e)" style="fill: none; stroke-dasharray: 3.7,1.6; stroke-dashoffset: 0; stroke: #e377c2"/>
   </g>
   <g id="line2d_64">
    <path d="M 73.832727 188.322914 
L 90.919809 285.369975 
L 108.00689 270.882494 
L 125.093971 254.396007 
L 142.181053 234.741408 
L 159.268134 212.497038 
L 176.355215 293.188669 
L 193.442297 264.927501 
L 210.529378 232.814713 
L 227.616459 199.429592 
L 244.703541 164.467917 
L 261.790622 128.042031 
L 278.877703 230.423279 
L 295.964785 220.842224 
L 313.051866 184.113867 
L 330.138947 210.778551 
L 347.226029 174.584583 
L 364.31311 160.093815 
L 381.400191 119.009985 
L 398.487273 207.499957 
" clip-path="url(#p0eebca055e)" style="fill: none; stroke-dasharray: 3.7,1.6; stroke-dashoffset: 0; stroke: #7f7f7f"/>
   </g>
   <g id="line2d_65">
    <path d="M 73.832727 188.322914 
L 90.919809 284.675825 
L 108.00689 271.157038 
L 125.093971 255.986568 
L 142.181053 235.610964 
L 159.268134 213.871383 
L 176.355215 290.017751 
L 193.442297 257.961655 
L 210.529378 221.765627 
L 227.616459 181.566657 
L 244.703541 141.861167 
L 261.790622 101.999995 
L 278.877703 214.471952 
L 295.964785 200.306106 
L 313.051866 161.911057 
L 330.138947 188.043098 
L 347.226029 150.045864 
L 364.31311 134.863962 
L 381.400191 95.827328 
L 398.487273 191.176066 
" clip-path="url(#p0eebca055e)" style="fill: none; stroke-dasharray: 3.7,1.6; stroke-dashoffset: 0; stroke: #bcbd22"/>
   </g>
   <g id="line2d_66">
    <path d="M 73.832727 188.322914 
L 90.919809 283.343107 
L 108.00689 268.04331 
L 125.093971 247.066239 
L 142.181053 223.718559 
L 159.268134 197.543029 
L 176.355215 279.222927 
L 193.442297 246.938451 
L 210.529378 212.595483 
L 227.616459 175.130439 
L 244.703541 138.449469 
L 261.790622 100.449218 
L 278.877703 210.904327 
L 295.964785 201.75126 
L 313.051866 164.412603 
L 330.138947 194.67858 
L 347.226029 158.801275 
L 364.31311 144.932717 
L 381.400191 106.073789 
L 398.487273 197.684977 
" clip-path="url(#p0eebca055e)" style="fill: none; stroke-dasharray: 3.7,1.6; stroke-dashoffset: 0; stroke: #17becf"/>
   </g>
   <g id="line2d_67">
    <path d="M 73.832727 188.322914 
L 90.919809 284.475885 
L 108.00689 270.543463 
L 125.093971 250.833194 
L 142.181053 229.366371 
L 159.268134 203.886753 
L 176.355215 282.58556 
L 193.442297 250.330296 
L 210.529378 214.055271 
L 227.616459 175.131869 
L 244.703541 134.486164 
L 261.790622 94.170682 
L 278.877703 208.154723 
L 295.964785 193.497841 
L 313.051866 151.435117 
L 330.138947 178.858269 
L 347.226029 139.751919 
L 364.31311 124.659744 
L 381.400191 82.628147 
L 398.487273 182.644732 
" clip-path="url(#p0eebca055e)" style="fill: none; stroke-dasharray: 3.7,1.6; stroke-dashoffset: 0; stroke: #1f77b4"/>
   </g>
   <g id="line2d_68">
    <path d="M 73.832727 188.322914 
L 90.919809 283.448555 
L 108.00689 268.449586 
L 125.093971 250.595087 
L 142.181053 229.79744 
L 159.268134 206.599587 
L 176.355215 286.603908 
L 193.442297 256.315574 
L 210.529378 223.941508 
L 227.616459 186.530433 
L 244.703541 146.569046 
L 261.790622 106.150745 
L 278.877703 212.895146 
L 295.964785 198.492834 
L 313.051866 157.856684 
L 330.138947 185.256333 
L 347.226029 145.216984 
L 364.31311 128.810354 
L 381.400191 85.143668 
L 398.487273 182.418113 
" clip-path="url(#p0eebca055e)" style="fill: none; stroke-dasharray: 3.7,1.6; stroke-dashoffset: 0; stroke: #ff7f0e"/>
   </g>
   <g id="line2d_69">
    <path d="M 73.832727 188.322914 
L 90.919809 284.822723 
L 108.00689 270.205299 
L 125.093971 251.743138 
L 142.181053 229.808564 
L 159.268134 204.803196 
L 176.355215 283.23769 
L 193.442297 251.242048 
L 210.529378 215.74891 
L 227.616459 178.903346 
L 244.703541 139.742285 
L 261.790622 100.882315 
L 278.877703 211.184782 
L 295.964785 198.82522 
L 313.051866 160.151303 
L 330.138947 188.038175 
L 347.226029 150.665851 
L 364.31311 135.617348 
L 381.400191 96.546729 
L 398.487273 190.699641 
" clip-path="url(#p0eebca055e)" style="fill: none; stroke-dasharray: 3.7,1.6; stroke-dashoffset: 0; stroke: #2ca02c"/>
   </g>
   <g id="line2d_70">
    <path d="M 73.832727 188.322914 
L 90.919809 283.255604 
L 108.00689 266.842181 
L 125.093971 245.989115 
L 142.181053 221.912417 
L 159.268134 193.04779 
L 176.355215 274.347875 
L 193.442297 239.792166 
L 210.529378 202.511999 
L 227.616459 163.545534 
L 244.703541 123.583875 
L 261.790622 83.037819 
L 278.877703 199.332135 
L 295.964785 185.815973 
L 313.051866 142.808499 
L 330.138947 173.299349 
L 347.226029 131.413855 
L 364.31311 114.535882 
L 381.400191 71.216669 
L 398.487273 174.033836 
" clip-path="url(#p0eebca055e)" style="fill: none; stroke-dasharray: 3.7,1.6; stroke-dashoffset: 0; stroke: #d62728"/>
   </g>
   <g id="line2d_71">
    <path d="M 73.832727 188.322914 
L 90.919809 285.057917 
L 108.00689 271.077375 
L 125.093971 252.833182 
L 142.181053 231.999529 
L 159.268134 207.341928 
L 176.355215 284.906536 
L 193.442297 252.170426 
L 210.529378 214.659035 
L 227.616459 175.613478 
L 244.703541 134.365297 
L 261.790622 93.638289 
L 278.877703 205.329049 
L 295.964785 190.658986 
L 313.051866 149.354889 
L 330.138947 175.905232 
L 347.226029 136.748539 
L 364.31311 121.521059 
L 381.400191 80.279056 
L 398.487273 177.371825 
" clip-path="url(#p0eebca055e)" style="fill: none; stroke-dasharray: 3.7,1.6; stroke-dashoffset: 0; stroke: #9467bd"/>
   </g>
   <g id="line2d_72">
    <path d="M 73.832727 188.322914 
L 90.919809 283.235276 
L 108.00689 268.7001 
L 125.093971 248.928357 
L 142.181053 226.786891 
L 159.268134 199.842787 
L 176.355215 278.972972 
L 193.442297 246.259303 
L 210.529378 209.712443 
L 227.616459 171.639998 
L 244.703541 131.171297 
L 261.790622 90.828716 
L 278.877703 204.596308 
L 295.964785 190.65581 
L 313.051866 148.307391 
L 330.138947 176.116764 
L 347.226029 134.967029 
L 364.31311 117.898328 
L 381.400191 73.767128 
L 398.487273 173.88805 
" clip-path="url(#p0eebca055e)" style="fill: none; stroke-dasharray: 3.7,1.6; stroke-dashoffset: 0; stroke: #8c564b"/>
   </g>
   <g id="line2d_73">
    <path d="M 73.832727 188.322914 
L 90.919809 284.661691 
L 108.00689 269.153371 
L 125.093971 250.696261 
L 142.181053 228.36996 
L 159.268134 203.269396 
L 176.355215 282.760196 
L 193.442297 249.791229 
L 210.529378 214.770265 
L 227.616459 177.5731 
L 244.703541 139.239716 
L 261.790622 101.418252 
L 278.877703 212.363298 
L 295.964785 200.721865 
L 313.051866 163.091636 
L 330.138947 191.1235 
L 347.226029 154.958753 
L 364.31311 141.524218 
L 381.400191 102.398333 
L 398.487273 194.652694 
" clip-path="url(#p0eebca055e)" style="fill: none; stroke-dasharray: 3.7,1.6; stroke-dashoffset: 0; stroke: #e377c2"/>
   </g>
   <g id="line2d_74">
    <path d="M 73.832727 188.322914 
L 90.919809 285.105083 
L 108.00689 272.505009 
L 125.093971 255.916908 
L 142.181053 236.597869 
L 159.268134 213.42179 
L 176.355215 289.815965 
L 193.442297 256.7374 
L 210.529378 220.546716 
L 227.616459 182.651217 
L 244.703541 143.078093 
L 261.790622 101.513229 
L 278.877703 211.652472 
L 295.964785 197.57 
L 313.051866 157.19239 
L 330.138947 183.478793 
L 347.226029 143.95303 
L 364.31311 128.372361 
L 381.400191 87.38731 
L 398.487273 182.930428 
" clip-path="url(#p0eebca055e)" style="fill: none; stroke-dasharray: 3.7,1.6; stroke-dashoffset: 0; stroke: #7f7f7f"/>
   </g>
   <g id="line2d_75">
    <path d="M 73.832727 188.322914 
L 90.919809 283.936255 
L 108.00689 268.000739 
L 125.093971 250.353625 
L 142.181053 227.801485 
L 159.268134 202.775779 
L 176.355215 282.440712 
L 193.442297 252.590237 
L 210.529378 221.326833 
L 227.616459 188.143579 
L 244.703541 152.517052 
L 261.790622 115.502425 
L 278.877703 218.638126 
L 295.964785 207.431034 
L 313.051866 168.749654 
L 330.138947 194.30411 
L 347.226029 157.710104 
L 364.31311 143.25872 
L 381.400191 103.557315 
L 398.487273 193.444323 
" clip-path="url(#p0eebca055e)" style="fill: none; stroke-dasharray: 3.7,1.6; stroke-dashoffset: 0; stroke: #bcbd22"/>
   </g>
   <g id="line2d_76">
    <path d="M 73.832727 188.322914 
L 90.919809 282.301008 
L 108.00689 266.159867 
L 125.093971 244.181323 
L 142.181053 219.640899 
L 159.268134 190.001614 
L 176.355215 270.218461 
L 193.442297 234.31113 
L 210.529378 195.719108 
L 227.616459 154.491857 
L 244.703541 113.752536 
L 261.790622 72.287189 
L 278.877703 194.120687 
L 295.964785 179.620866 
L 313.051866 135.212387 
L 330.138947 167.679922 
L 347.226029 126.116173 
L 364.31311 110.656675 
L 381.400191 67.421789 
L 398.487273 174.157389 
" clip-path="url(#p0eebca055e)" style="fill: none; stroke-dasharray: 3.7,1.6; stroke-dashoffset: 0; stroke: #17becf"/>
   </g>
   <g id="line2d_77">
    <path d="M 73.832727 188.322914 
L 90.919809 285.061094 
L 108.00689 269.083853 
L 125.093971 250.067253 
L 142.181053 228.559209 
L 159.268134 204.930174 
L 176.355215 283.868249 
L 193.442297 254.015331 
L 210.529378 221.743896 
L 227.616459 184.885291 
L 244.703541 148.570081 
L 261.790622 111.351199 
L 278.877703 217.084029 
L 295.964785 207.153437 
L 313.051866 170.418251 
L 330.138947 198.512844 
L 347.226029 163.164529 
L 364.31311 150.121456 
L 381.400191 110.229005 
L 398.487273 198.862857 
" clip-path="url(#p0eebca055e)" style="fill: none; stroke-dasharray: 3.7,1.6; stroke-dashoffset: 0; stroke: #1f77b4"/>
   </g>
   <g id="line2d_78">
    <path d="M 73.832727 188.322914 
L 90.919809 283.863204 
L 108.00689 269.639719 
L 125.093971 249.957448 
L 142.181053 228.092709 
L 159.268134 203.692938 
L 176.355215 283.123379 
L 193.442297 250.768746 
L 210.529378 213.444421 
L 227.616459 172.701247 
L 244.703541 129.829143 
L 261.790622 85.522073 
L 278.877703 199.483956 
L 295.964785 181.949312 
L 313.051866 137.44793 
L 330.138947 163.793092 
L 347.226029 120.41766 
L 364.31311 102.495524 
L 381.400191 57.862967 
L 398.487273 161.196579 
" clip-path="url(#p0eebca055e)" style="fill: none; stroke-dasharray: 3.7,1.6; stroke-dashoffset: 0; stroke: #ff7f0e"/>
   </g>
   <g id="line2d_79">
    <path d="M 73.832727 188.322914 
L 90.919809 285.500039 
L 108.00689 269.724958 
L 125.093971 251.865452 
L 142.181053 232.235591 
L 159.268134 209.021899 
L 176.355215 286.76042 
L 193.442297 253.3184 
L 210.529378 214.755729 
L 227.616459 174.262826 
L 244.703541 134.234795 
L 261.790622 94.216354 
L 278.877703 210.524299 
L 295.964785 196.242999 
L 313.051866 153.943651 
L 330.138947 180.961684 
L 347.226029 140.717631 
L 364.31311 124.316242 
L 381.400191 81.537293 
L 398.487273 182.055872 
" clip-path="url(#p0eebca055e)" style="fill: none; stroke-dasharray: 3.7,1.6; stroke-dashoffset: 0; stroke: #2ca02c"/>
   </g>
   <g id="line2d_80">
    <path d="M 73.832727 188.322914 
L 90.919809 285.73984 
L 108.00689 273.759216 
L 125.093971 257.650672 
L 142.181053 238.86557 
L 159.268134 216.971823 
L 176.355215 294.110933 
L 193.442297 264.004929 
L 210.529378 229.328363 
L 227.616459 192.635735 
L 244.703541 152.584276 
L 261.790622 112.751667 
L 278.877703 218.928586 
L 295.964785 205.976669 
L 313.051866 167.232242 
L 330.138947 192.313132 
L 347.226029 154.57412 
L 364.31311 138.756827 
L 381.400191 97.110022 
L 398.487273 188.972444 
" clip-path="url(#p0eebca055e)" style="fill: none; stroke-dasharray: 3.7,1.6; stroke-dashoffset: 0; stroke: #d62728"/>
   </g>
   <g id="line2d_81">
    <path d="M 73.832727 188.322914 
L 90.919809 284.708698 
L 108.00689 271.431264 
L 125.093971 251.972927 
L 142.181053 230.79163 
L 159.268134 205.787728 
L 176.355215 283.012569 
L 193.442297 250.950422 
L 210.529378 215.04204 
L 227.616459 177.729834 
L 244.703541 138.057199 
L 261.790622 100.424862 
L 278.877703 212.498285 
L 295.964785 201.773175 
L 313.051866 164.93127 
L 330.138947 194.177381 
L 347.226029 158.488899 
L 364.31311 145.388655 
L 381.400191 105.896718 
L 398.487273 197.961462 
" clip-path="url(#p0eebca055e)" style="fill: none; stroke-dasharray: 3.7,1.6; stroke-dashoffset: 0; stroke: #9467bd"/>
   </g>
   <g id="line2d_82">
    <path d="M 73.832727 188.322914 
L 90.919809 285.435404 
L 108.00689 271.672493 
L 125.093971 254.620084 
L 142.181053 233.871409 
L 159.268134 210.254834 
L 176.355215 287.465877 
L 193.442297 255.246607 
L 210.529378 221.41336 
L 227.616459 185.97759 
L 244.703541 149.929881 
L 261.790622 114.424802 
L 278.877703 219.481874 
L 295.964785 209.696273 
L 313.051866 174.205032 
L 330.138947 199.806495 
L 347.226029 164.516622 
L 364.31311 150.796073 
L 381.400191 112.156301 
L 398.487273 197.860619 
" clip-path="url(#p0eebca055e)" style="fill: none; stroke-dasharray: 3.7,1.6; stroke-dashoffset: 0; stroke: #8c564b"/>
   </g>
   <g id="line2d_83">
    <path d="M 73.832727 188.322914 
L 90.919809 282.713115 
L 108.00689 266.736528 
L 125.093971 245.777964 
L 142.181053 220.689308 
L 159.268134 191.146129 
L 176.355215 269.380084 
L 193.442297 232.163427 
L 210.529378 192.542049 
L 227.616459 152.043022 
L 244.703541 110.119345 
L 261.790622 68.965033 
L 278.877703 189.446804 
L 295.964785 175.068789 
L 313.051866 132.160253 
L 330.138947 163.098465 
L 347.226029 121.887906 
L 364.31311 104.985001 
L 381.400191 61.342612 
L 398.487273 165.65877 
" clip-path="url(#p0eebca055e)" style="fill: none; stroke-dasharray: 3.7,1.6; stroke-dashoffset: 0; stroke: #e377c2"/>
   </g>
   <g id="line2d_84">
    <path d="M 73.832727 188.322914 
L 90.919809 285.003129 
L 108.00689 272.22943 
L 125.093971 255.555796 
L 142.181053 236.394755 
L 159.268134 214.105953 
L 176.355215 294.606554 
L 193.442297 267.182983 
L 210.529378 236.955483 
L 227.616459 205.26357 
L 244.703541 172.510395 
L 261.790622 139.470067 
L 278.877703 236.674127 
L 295.964785 229.368952 
L 313.051866 195.238696 
L 330.138947 221.681049 
L 347.226029 188.116468 
L 364.31311 174.619362 
L 381.400191 137.231315 
L 398.487273 219.506806 
" clip-path="url(#p0eebca055e)" style="fill: none; stroke-dasharray: 3.7,1.6; stroke-dashoffset: 0; stroke: #7f7f7f"/>
   </g>
   <g id="line2d_85">
    <path d="M 73.832727 188.322914 
L 90.919809 284.631517 
L 108.00689 271.128025 
L 125.093971 253.371571 
L 142.181053 233.93854 
L 159.268134 211.687384 
L 176.355215 291.615452 
L 193.442297 262.530222 
L 210.529378 230.49532 
L 227.616459 196.590109 
L 244.703541 159.249398 
L 261.790622 119.240784 
L 278.877703 222.911495 
L 295.964785 211.133805 
L 313.051866 172.025548 
L 330.138947 199.033417 
L 347.226029 161.898828 
L 364.31311 147.36947 
L 381.400191 106.858619 
L 398.487273 199.714704 
" clip-path="url(#p0eebca055e)" style="fill: none; stroke-dasharray: 3.7,1.6; stroke-dashoffset: 0; stroke: #bcbd22"/>
   </g>
   <g id="line2d_86">
    <path d="M 73.832727 188.322914 
L 90.919809 284.006131 
L 108.00689 269.284944 
L 125.093971 249.584675 
L 142.181053 225.548816 
L 159.268134 199.996589 
L 176.355215 280.857854 
L 193.442297 249.008445 
L 210.529378 215.354093 
L 227.616459 180.745405 
L 244.703541 143.89914 
L 261.790622 104.822948 
L 278.877703 211.289755 
L 295.964785 198.121699 
L 313.051866 157.291486 
L 330.138947 184.798012 
L 347.226029 145.207773 
L 364.31311 129.176407 
L 381.400191 86.628048 
L 398.487273 183.266625 
" clip-path="url(#p0eebca055e)" style="fill: none; stroke-dasharray: 3.7,1.6; stroke-dashoffset: 0; stroke: #17becf"/>
   </g>
   <g id="line2d_87">
    <path d="M 73.832727 188.322914 
L 90.919809 283.103942 
L 108.00689 266.796609 
L 125.093971 248.462812 
L 142.181053 227.376938 
L 159.268134 201.979079 
L 176.355215 278.730042 
L 193.442297 245.856718 
L 210.529378 210.922946 
L 227.616459 174.319406 
L 244.703541 134.123861 
L 261.790622 95.761338 
L 278.877703 206.713697 
L 295.964785 194.110364 
L 313.051866 154.972728 
L 330.138947 181.825282 
L 347.226029 145.069292 
L 364.31311 130.729392 
L 381.400191 91.587309 
L 398.487273 184.891392 
" clip-path="url(#p0eebca055e)" style="fill: none; stroke-dasharray: 3.7,1.6; stroke-dashoffset: 0; stroke: #1f77b4"/>
   </g>
   <g id="line2d_88">
    <path d="M 73.832727 188.322914 
L 90.919809 284.560689 
L 108.00689 270.672958 
L 125.093971 254.608894 
L 142.181053 235.865936 
L 159.268134 213.127946 
L 176.355215 294.178736 
L 193.442297 265.625049 
L 210.529378 233.759241 
L 227.616459 198.405337 
L 244.703541 159.184385 
L 261.790622 119.488332 
L 278.877703 224.614394 
L 295.964785 211.215115 
L 313.051866 169.93865 
L 330.138947 195.833591 
L 347.226029 157.024529 
L 364.31311 141.107823 
L 381.400191 98.981576 
L 398.487273 195.107521 
" clip-path="url(#p0eebca055e)" style="fill: none; stroke-dasharray: 3.7,1.6; stroke-dashoffset: 0; stroke: #ff7f0e"/>
   </g>
   <g id="line2d_89">
    <path d="M 73.832727 188.322914 
L 90.919809 283.208279 
L 108.00689 267.254339 
L 125.093971 247.709812 
L 142.181053 224.831002 
L 159.268134 197.541023 
L 176.355215 278.112201 
L 193.442297 244.319224 
L 210.529378 206.787303 
L 227.616459 168.193213 
L 244.703541 127.486357 
L 261.790622 87.289246 
L 278.877703 202.703156 
L 295.964785 188.777586 
L 313.051866 144.856331 
L 330.138947 173.283309 
L 347.226029 131.111484 
L 364.31311 112.958441 
L 381.400191 69.080222 
L 398.487273 171.58168 
" clip-path="url(#p0eebca055e)" style="fill: none; stroke-dasharray: 3.7,1.6; stroke-dashoffset: 0; stroke: #2ca02c"/>
   </g>
   <g id="line2d_90">
    <path d="M 73.832727 188.322914 
L 90.919809 284.742207 
L 108.00689 270.980212 
L 125.093971 253.134831 
L 142.181053 231.820119 
L 159.268134 208.99453 
L 176.355215 289.762419 
L 193.442297 260.613235 
L 210.529378 228.694197 
L 227.616459 193.980652 
L 244.703541 155.479991 
L 261.790622 116.77488 
L 278.877703 222.022486 
L 295.964785 209.598606 
L 313.051866 170.110957 
L 330.138947 196.897289 
L 347.226029 158.700432 
L 364.31311 143.335742 
L 381.400191 103.273684 
L 398.487273 198.524596 
" clip-path="url(#p0eebca055e)" style="fill: none; stroke-dasharray: 3.7,1.6; stroke-dashoffset: 0; stroke: #d62728"/>
   </g>
   <g id="line2d_91">
    <path d="M 73.832727 188.322914 
L 90.919809 283.649607 
L 108.00689 268.399342 
L 125.093971 249.205788 
L 142.181053 227.301155 
L 159.268134 203.18532 
L 176.355215 280.967844 
L 193.442297 249.058905 
L 210.529378 214.911076 
L 227.616459 178.450232 
L 244.703541 140.120599 
L 261.790622 100.422032 
L 278.877703 211.065359 
L 295.964785 198.176647 
L 313.051866 157.40424 
L 330.138947 183.680797 
L 347.226029 144.925412 
L 364.31311 128.835446 
L 381.400191 86.985684 
L 398.487273 180.949455 
" clip-path="url(#p0eebca055e)" style="fill: none; stroke-dasharray: 3.7,1.6; stroke-dashoffset: 0; stroke: #9467bd"/>
   </g>
   <g id="line2d_92">
    <path d="M 73.832727 188.322914 
L 90.919809 285.065699 
L 108.00689 271.086895 
L 125.093971 254.061699 
L 142.181053 233.4797 
L 159.268134 207.884229 
L 176.355215 284.269037 
L 193.442297 250.749556 
L 210.529378 214.227146 
L 227.616459 175.617437 
L 244.703541 135.898353 
L 261.790622 94.421776 
L 278.877703 207.76469 
L 295.964785 193.715567 
L 313.051866 154.091343 
L 330.138947 181.941212 
L 347.226029 144.479796 
L 364.31311 130.137673 
L 381.400191 89.591567 
L 398.487273 187.033872 
" clip-path="url(#p0eebca055e)" style="fill: none; stroke-dasharray: 3.7,1.6; stroke-dashoffset: 0; stroke: #8c564b"/>
   </g>
   <g id="line2d_93">
    <path d="M 73.832727 188.322914 
L 90.919809 284.284522 
L 108.00689 269.937342 
L 125.093971 250.941747 
L 142.181053 227.143484 
L 159.268134 200.957851 
L 176.355215 281.529282 
L 193.442297 249.338086 
L 210.529378 213.287238 
L 227.616459 174.714934 
L 244.703541 134.094196 
L 261.790622 94.171326 
L 278.877703 205.080673 
L 295.964785 191.758892 
L 313.051866 149.108101 
L 330.138947 179.388848 
L 347.226029 137.556237 
L 364.31311 119.671262 
L 381.400191 72.644672 
L 398.487273 173.475467 
" clip-path="url(#p0eebca055e)" style="fill: none; stroke-dasharray: 3.7,1.6; stroke-dashoffset: 0; stroke: #e377c2"/>
   </g>
   <g id="line2d_94">
    <path d="M 73.832727 188.322914 
L 90.919809 284.423002 
L 108.00689 270.49699 
L 125.093971 253.437937 
L 142.181053 233.148071 
L 159.268134 210.946483 
L 176.355215 291.304033 
L 193.442297 263.422105 
L 210.529378 230.862374 
L 227.616459 197.183675 
L 244.703541 161.302606 
L 261.790622 124.505423 
L 278.877703 228.006696 
L 295.964785 219.055156 
L 313.051866 183.603775 
L 330.138947 210.956893 
L 347.226029 177.261295 
L 364.31311 163.999066 
L 381.400191 127.081727 
L 398.487273 214.023796 
" clip-path="url(#p0eebca055e)" style="fill: none; stroke-dasharray: 3.7,1.6; stroke-dashoffset: 0; stroke: #7f7f7f"/>
   </g>
   <g id="line2d_95">
    <path d="M 73.832727 188.322914 
L 90.919809 284.020582 
L 108.00689 269.265713 
L 125.093971 252.361759 
L 142.181053 232.33873 
L 159.268134 208.915898 
L 176.355215 288.06043 
L 193.442297 255.649218 
L 210.529378 221.053572 
L 227.616459 183.647334 
L 244.703541 143.560746 
L 261.790622 105.191682 
L 278.877703 214.201026 
L 295.964785 201.591658 
L 313.051866 162.511828 
L 330.138947 188.429955 
L 347.226029 149.096826 
L 364.31311 132.269196 
L 381.400191 89.318258 
L 398.487273 183.644271 
" clip-path="url(#p0eebca055e)" style="fill: none; stroke-dasharray: 3.7,1.6; stroke-dashoffset: 0; stroke: #bcbd22"/>
   </g>
   <g id="line2d_96">
    <path d="M 73.832727 188.322914 
L 90.919809 284.686465 
L 108.00689 269.982323 
L 125.093971 249.994178 
L 142.181053 227.50549 
L 159.268134 201.584678 
L 176.355215 279.256692 
L 193.442297 245.849741 
L 210.529378 207.791808 
L 227.616459 168.358615 
L 244.703541 127.532771 
L 261.790622 88.917032 
L 278.877703 205.011433 
L 295.964785 192.484645 
L 313.051866 151.941398 
L 330.138947 179.970879 
L 347.226029 140.403667 
L 364.31311 124.360708 
L 381.400191 81.377691 
L 398.487273 178.330074 
" clip-path="url(#p0eebca055e)" style="fill: none; stroke-dasharray: 3.7,1.6; stroke-dashoffset: 0; stroke: #17becf"/>
   </g>
   <g id="line2d_97">
    <path d="M 73.832727 188.322914 
L 90.919809 284.697423 
L 108.00689 270.206707 
L 125.093971 252.803031 
L 142.181053 231.161368 
L 159.268134 207.055507 
L 176.355215 287.30879 
L 193.442297 256.382889 
L 210.529378 222.401628 
L 227.616459 186.886379 
L 244.703541 149.83617 
L 261.790622 112.04537 
L 278.877703 220.160143 
L 295.964785 209.634656 
L 313.051866 170.887688 
L 330.138947 199.769493 
L 347.226029 161.027448 
L 364.31311 145.082791 
L 381.400191 103.705166 
L 398.487273 198.747404 
" clip-path="url(#p0eebca055e)" style="fill: none; stroke-dasharray: 3.7,1.6; stroke-dashoffset: 0; stroke: #1f77b4"/>
   </g>
   <g id="line2d_98">
    <path d="M 73.832727 188.322914 
L 90.919809 283.795869 
L 108.00689 268.074103 
L 125.093971 248.381797 
L 142.181053 225.083893 
L 159.268134 198.729872 
L 176.355215 280.554459 
L 193.442297 248.28598 
L 210.529378 215.031133 
L 227.616459 180.708375 
L 244.703541 145.652628 
L 261.790622 109.724143 
L 278.877703 216.063845 
L 295.964785 208.340528 
L 313.051866 171.842919 
L 330.138947 202.200211 
L 347.226029 166.280028 
L 364.31311 152.074479 
L 381.400191 112.602711 
L 398.487273 202.69204 
" clip-path="url(#p0eebca055e)" style="fill: none; stroke-dasharray: 3.7,1.6; stroke-dashoffset: 0; stroke: #ff7f0e"/>
   </g>
   <g id="line2d_99">
    <path d="M 73.832727 188.322914 
L 90.919809 284.539726 
L 108.00689 271.602803 
L 125.093971 253.864653 
L 142.181053 232.277534 
L 159.268134 208.33597 
L 176.355215 284.740152 
L 193.442297 250.763523 
L 210.529378 214.054233 
L 227.616459 173.102991 
L 244.703541 130.517442 
L 261.790622 86.45804 
L 278.877703 201.648511 
L 295.964785 184.6184 
L 313.051866 140.912171 
L 330.138947 167.204768 
L 347.226029 125.479512 
L 364.31311 108.639494 
L 381.400191 65.11113 
L 398.487273 167.207785 
" clip-path="url(#p0eebca055e)" style="fill: none; stroke-dasharray: 3.7,1.6; stroke-dashoffset: 0; stroke: #2ca02c"/>
   </g>
   <g id="line2d_100">
    <path d="M 73.832727 188.322914 
L 90.919809 283.160636 
L 108.00689 267.790369 
L 125.093971 249.411451 
L 142.181053 228.428959 
L 159.268134 204.697443 
L 176.355215 284.109298 
L 193.442297 252.503694 
L 210.529378 217.982524 
L 227.616459 182.13164 
L 244.703541 144.726241 
L 261.790622 105.600583 
L 278.877703 212.28437 
L 295.964785 201.170975 
L 313.051866 164.139294 
L 330.138947 192.174493 
L 347.226029 156.03309 
L 364.31311 141.943948 
L 381.400191 100.72259 
L 398.487273 189.750127 
" clip-path="url(#p0eebca055e)" style="fill: none; stroke-dasharray: 3.7,1.6; stroke-dashoffset: 0; stroke: #d62728"/>
   </g>
   <g id="line2d_101">
    <path d="M 73.832727 188.322914 
L 90.919809 282.709462 
L 108.00689 267.718284 
L 125.093971 248.929685 
L 142.181053 223.935873 
L 159.268134 198.079665 
L 176.355215 276.038244 
L 193.442297 242.549643 
L 210.529378 205.88249 
L 227.616459 167.704418 
L 244.703541 128.599138 
L 261.790622 89.435117 
L 278.877703 203.228811 
L 295.964785 190.618649 
L 313.051866 149.881497 
L 330.138947 178.459661 
L 347.226029 139.404605 
L 364.31311 123.987191 
L 381.400191 83.185563 
L 398.487273 179.547338 
" clip-path="url(#p0eebca055e)" style="fill: none; stroke-dasharray: 3.7,1.6; stroke-dashoffset: 0; stroke: #9467bd"/>
   </g>
   <g id="line2d_102">
    <path d="M 73.832727 188.322914 
L 90.919809 285.341708 
L 108.00689 273.086465 
L 125.093971 255.843099 
L 142.181053 235.20508 
L 159.268134 212.607565 
L 176.355215 290.365071 
L 193.442297 259.80362 
L 210.529378 227.247476 
L 227.616459 190.587619 
L 244.703541 152.495981 
L 261.790622 114.552548 
L 278.877703 217.765475 
L 295.964785 205.758943 
L 313.051866 167.307675 
L 330.138947 191.100473 
L 347.226029 153.994946 
L 364.31311 138.504163 
L 381.400191 97.361733 
L 398.487273 185.996696 
" clip-path="url(#p0eebca055e)" style="fill: none; stroke-dasharray: 3.7,1.6; stroke-dashoffset: 0; stroke: #8c564b"/>
   </g>
   <g id="line2d_103">
    <path d="M 73.832727 188.322914 
L 90.919809 283.232418 
L 108.00689 269.840822 
L 125.093971 252.97332 
L 142.181053 231.62118 
L 159.268134 208.287085 
L 176.355215 285.439493 
L 193.442297 252.892545 
L 210.529378 218.523526 
L 227.616459 179.285349 
L 244.703541 139.429758 
L 261.790622 100.633898 
L 278.877703 211.777772 
L 295.964785 199.71661 
L 313.051866 162.633316 
L 330.138947 189.53923 
L 347.226029 153.511534 
L 364.31311 139.213718 
L 381.400191 99.929819 
L 398.487273 189.664688 
" clip-path="url(#p0eebca055e)" style="fill: none; stroke-dasharray: 3.7,1.6; stroke-dashoffset: 0; stroke: #e377c2"/>
   </g>
   <g id="line2d_104">
    <path d="M 73.832727 188.322914 
L 90.919809 283.547175 
L 108.00689 267.857283 
L 125.093971 249.227744 
L 142.181053 226.910952 
L 159.268134 200.151715 
L 176.355215 280.559306 
L 193.442297 248.107493 
L 210.529378 214.178596 
L 227.616459 177.824287 
L 244.703541 140.531226 
L 261.790622 104.419475 
L 278.877703 212.985349 
L 295.964785 202.98107 
L 313.051866 164.776432 
L 330.138947 193.421772 
L 347.226029 154.886336 
L 364.31311 139.545468 
L 381.400191 97.996965 
L 398.487273 190.422045 
" clip-path="url(#p0eebca055e)" style="fill: none; stroke-dasharray: 3.7,1.6; stroke-dashoffset: 0; stroke: #7f7f7f"/>
   </g>
   <g id="line2d_105">
    <path d="M 73.832727 188.322914 
L 90.919809 283.239723 
L 108.00689 268.929096 
L 125.093971 249.443864 
L 142.181053 225.919022 
L 159.268134 198.472389 
L 176.355215 275.142414 
L 193.442297 239.214964 
L 210.529378 200.532673 
L 227.616459 159.476179 
L 244.703541 117.337019 
L 261.790622 77.43223 
L 278.877703 197.910485 
L 295.964785 184.902985 
L 313.051866 143.802638 
L 330.138947 175.396728 
L 347.226029 136.217008 
L 364.31311 121.304604 
L 381.400191 78.012229 
L 398.487273 179.603715 
" clip-path="url(#p0eebca055e)" style="fill: none; stroke-dasharray: 3.7,1.6; stroke-dashoffset: 0; stroke: #bcbd22"/>
   </g>
   <g id="line2d_106">
    <path d="M 73.832727 188.322914 
L 90.919809 284.74046 
L 108.00689 270.931619 
L 125.093971 252.922094 
L 142.181053 232.083176 
L 159.268134 208.428877 
L 176.355215 286.947715 
L 193.442297 254.062966 
L 210.529378 217.715159 
L 227.616459 178.132189 
L 244.703541 135.819262 
L 261.790622 94.802107 
L 278.877703 205.368751 
L 295.964785 190.110622 
L 313.051866 148.265465 
L 330.138947 175.306843 
L 347.226029 135.253836 
L 364.31311 118.870075 
L 381.400191 75.905797 
L 398.487273 173.785143 
" clip-path="url(#p0eebca055e)" style="fill: none; stroke-dasharray: 3.7,1.6; stroke-dashoffset: 0; stroke: #17becf"/>
   </g>
   <g id="line2d_107">
    <path d="M 73.832727 188.322914 
L 90.919809 283.640713 
L 108.00689 268.757782 
L 125.093971 248.399863 
L 142.181053 226.144079 
L 159.268134 200.860383 
L 176.355215 282.726304 
L 193.442297 250.401011 
L 210.529378 213.517292 
L 227.616459 175.64625 
L 244.703541 137.282841 
L 261.790622 99.321994 
L 278.877703 210.842392 
L 295.964785 200.155397 
L 313.051866 162.083522 
L 330.138947 192.36665 
L 347.226029 153.92777 
L 364.31311 138.620093 
L 381.400191 96.925328 
L 398.487273 191.503369 
" clip-path="url(#p0eebca055e)" style="fill: none; stroke-dasharray: 3.7,1.6; stroke-dashoffset: 0; stroke: #1f77b4"/>
   </g>
   <g id="line2d_108">
    <path d="M 73.832727 188.322914 
L 90.919809 284.92166 
L 108.00689 270.585695 
L 125.093971 254.145757 
L 142.181053 231.875968 
L 159.268134 209.242277 
L 176.355215 289.226091 
L 193.442297 258.845828 
L 210.529378 224.880691 
L 227.616459 190.014243 
L 244.703541 154.527211 
L 261.790622 118.501491 
L 278.877703 223.595164 
L 295.964785 214.443208 
L 313.051866 178.828096 
L 330.138947 206.18836 
L 347.226029 171.452569 
L 364.31311 157.768546 
L 381.400191 119.520235 
L 398.487273 206.732596 
" clip-path="url(#p0eebca055e)" style="fill: none; stroke-dasharray: 3.7,1.6; stroke-dashoffset: 0; stroke: #ff7f0e"/>
   </g>
   <g id="line2d_109">
    <path d="M 73.832727 188.322914 
L 90.919809 284.05425 
L 108.00689 270.182317 
L 125.093971 250.709242 
L 142.181053 229.886111 
L 159.268134 207.938234 
L 176.355215 290.357357 
L 193.442297 263.382914 
L 210.529378 232.845779 
L 227.616459 197.484321 
L 244.703541 161.601431 
L 261.790622 124.926968 
L 278.877703 226.608707 
L 295.964785 216.286653 
L 313.051866 178.19731 
L 330.138947 204.128301 
L 347.226029 166.873176 
L 364.31311 151.871205 
L 381.400191 112.285571 
L 398.487273 201.790644 
" clip-path="url(#p0eebca055e)" style="fill: none; stroke-dasharray: 3.7,1.6; stroke-dashoffset: 0; stroke: #2ca02c"/>
   </g>
   <g id="line2d_110">
    <path d="M 73.832727 188.322914 
L 90.919809 283.919739 
L 108.00689 268.85451 
L 125.093971 251.549326 
L 142.181053 232.248906 
L 159.268134 209.802698 
L 176.355215 290.276526 
L 193.442297 262.000167 
L 210.529378 230.648989 
L 227.616459 195.505702 
L 244.703541 157.120612 
L 261.790622 120.933546 
L 278.877703 222.923564 
L 295.964785 211.873216 
L 313.051866 174.694955 
L 330.138947 198.607652 
L 347.226029 163.569014 
L 364.31311 149.837984 
L 381.400191 112.108341 
L 398.487273 198.775036 
" clip-path="url(#p0eebca055e)" style="fill: none; stroke-dasharray: 3.7,1.6; stroke-dashoffset: 0; stroke: #d62728"/>
   </g>
   <g id="line2d_111">
    <path d="M 73.832727 188.322914 
L 90.919809 285.604059 
L 108.00689 272.702338 
L 125.093971 256.521835 
L 142.181053 235.661939 
L 159.268134 212.630335 
L 176.355215 290.859441 
L 193.442297 259.861673 
L 210.529378 223.862946 
L 227.616459 185.45144 
L 244.703541 145.696671 
L 261.790622 105.918469 
L 278.877703 215.928223 
L 295.964785 202.367436 
L 313.051866 161.935195 
L 330.138947 189.746316 
L 347.226029 150.494338 
L 364.31311 134.349741 
L 381.400191 92.537617 
L 398.487273 189.595448 
" clip-path="url(#p0eebca055e)" style="fill: none; stroke-dasharray: 3.7,1.6; stroke-dashoffset: 0; stroke: #9467bd"/>
   </g>
   <g id="line2d_112">
    <path d="M 73.832727 188.322914 
L 90.919809 284.135401 
L 108.00689 267.802806 
L 125.093971 248.568451 
L 142.181053 222.992952 
L 159.268134 195.540824 
L 176.355215 274.140631 
L 193.442297 239.152773 
L 210.529378 202.147888 
L 227.616459 161.902057 
L 244.703541 121.822217 
L 261.790622 82.892663 
L 278.877703 201.573077 
L 295.964785 189.614505 
L 313.051866 149.379822 
L 330.138947 180.598172 
L 347.226029 141.38272 
L 364.31311 126.727426 
L 381.400191 84.529239 
L 398.487273 183.755596 
" clip-path="url(#p0eebca055e)" style="fill: none; stroke-dasharray: 3.7,1.6; stroke-dashoffset: 0; stroke: #8c564b"/>
   </g>
   <g id="line2d_113">
    <path d="M 73.832727 188.322914 
L 90.919809 283.365816 
L 108.00689 269.051082 
L 125.093971 250.456576 
L 142.181053 230.787351 
L 159.268134 206.845887 
L 176.355215 283.362008 
L 193.442297 247.671106 
L 210.529378 208.581197 
L 227.616459 165.801548 
L 244.703541 121.342894 
L 261.790622 75.386134 
L 278.877703 193.621394 
L 295.964785 175.102139 
L 313.051866 130.559149 
L 330.138947 157.44283 
L 347.226029 115.269735 
L 364.31311 97.802425 
L 381.400191 53.568 
L 398.487273 157.074236 
" clip-path="url(#p0eebca055e)" style="fill: none; stroke-dasharray: 3.7,1.6; stroke-dashoffset: 0; stroke: #e377c2"/>
   </g>
   <g id="line2d_114">
    <path d="M 73.832727 188.322914 
L 90.919809 284.550367 
L 108.00689 269.753787 
L 125.093971 250.397711 
L 142.181053 227.761621 
L 159.268134 202.204548 
L 176.355215 281.271857 
L 193.442297 248.792739 
L 210.529378 212.703097 
L 227.616459 173.430064 
L 244.703541 134.328185 
L 261.790622 94.138446 
L 278.877703 207.048941 
L 295.964785 193.418596 
L 313.051866 151.670153 
L 330.138947 181.461453 
L 347.226029 140.714931 
L 364.31311 123.758666 
L 381.400191 80.547124 
L 398.487273 182.681894 
" clip-path="url(#p0eebca055e)" style="fill: none; stroke-dasharray: 3.7,1.6; stroke-dashoffset: 0; stroke: #7f7f7f"/>
   </g>
   <g id="line2d_115">
    <path d="M 73.832727 188.322914 
L 90.919809 284.269117 
L 108.00689 269.568765 
L 125.093971 250.674652 
L 142.181053 227.760473 
L 159.268134 201.367549 
L 176.355215 280.79405 
L 193.442297 246.845472 
L 210.529378 211.03382 
L 227.616459 171.194784 
L 244.703541 130.736042 
L 261.790622 90.005788 
L 278.877703 204.493083 
L 295.964785 192.111287 
L 313.051866 152.693037 
L 330.138947 182.876116 
L 347.226029 145.68515 
L 364.31311 131.656673 
L 381.400191 91.36069 
L 398.487273 187.140592 
" clip-path="url(#p0eebca055e)" style="fill: none; stroke-dasharray: 3.7,1.6; stroke-dashoffset: 0; stroke: #bcbd22"/>
   </g>
   <g id="line2d_116">
    <path d="M 73.832727 188.322914 
L 90.919809 283.775065 
L 108.00689 269.339667 
L 125.093971 252.276394 
L 142.181053 233.831925 
L 159.268134 212.214299 
L 176.355215 292.581182 
L 193.442297 262.974229 
L 210.529378 230.33037 
L 227.616459 196.861346 
L 244.703541 159.816229 
L 261.790622 121.124713 
L 278.877703 223.928026 
L 295.964785 212.267378 
L 313.051866 174.25188 
L 330.138947 199.321972 
L 347.226029 162.869781 
L 364.31311 148.368691 
L 381.400191 107.647578 
L 398.487273 197.740401 
" clip-path="url(#p0eebca055e)" style="fill: none; stroke-dasharray: 3.7,1.6; stroke-dashoffset: 0; stroke: #17becf"/>
   </g>
   <g id="line2d_117">
    <path d="M 73.832727 188.322914 
L 90.919809 284.171417 
L 108.00689 269.624849 
L 125.093971 251.211046 
L 142.181053 229.395531 
L 159.268134 204.424106 
L 176.355215 283.352069 
L 193.442297 250.951362 
L 210.529378 215.420077 
L 227.616459 177.621628 
L 244.703541 138.368129 
L 261.790622 98.907173 
L 278.877703 210.037733 
L 295.964785 197.361232 
L 313.051866 157.261905 
L 330.138947 185.115575 
L 347.226029 146.542074 
L 364.31311 131.173583 
L 381.400191 89.748026 
L 398.487273 185.529349 
" clip-path="url(#p0eebca055e)" style="fill: none; stroke: #000000; stroke-width: 2.5; stroke-linecap: square"/>
   </g>
   <g id="patch_3">
    <path d="M 57.6 307.584 
L 57.6 41.472 
" style="fill: none; stroke: #000000; stroke-width: 0.8; stroke-linejoin: miter; stroke-linecap: square"/>
   </g>
   <g id="patch_4">
    <path d="M 414.72 307.584 
L 414.72 41.472 
" style="fill: none; stroke: #000000; stroke-width: 0.8; stroke-linejoin: miter; stroke-linecap: square"/>
   </g>
   <g id="patch_5">
    <path d="M 57.6 307.584 
L 414.72 307.584 
" style="fill: none; stroke: #000000; stroke-width: 0.8; stroke-linejoin: miter; stroke-linecap: square"/>
   </g>
   <g id="patch_6">
    <path d="M 57.6 41.472 
L 414.72 41.472 
" style="fill: none; stroke: #000000; stroke-width: 0.8; stroke-linejoin: miter; stroke-linecap: square"/>
   </g>
   <g id="legend_1">
    <g id="patch_7">
     <path d="M 64.6 64.150125 
L 137.665625 64.150125 
Q 139.665625 64.150125 139.665625 62.150125 
L 139.665625 48.472 
Q 139.665625 46.472 137.665625 46.472 
L 64.6 46.472 
Q 62.6 46.472 62.6 48.472 
L 62.6 62.150125 
Q 62.6 64.150125 64.6 64.150125 
z
" style="fill: #ffffff; opacity: 0.8; stroke: #cccccc; stroke-linejoin: miter"/>
    </g>
    <g id="line2d_118">
     <path d="M 66.6 54.570438 
L 76.6 54.570438 
L 86.6 54.570438 
" style="fill: none; stroke: #000000; stroke-width: 2.5; stroke-linecap: square"/>
    </g>
    <g id="text_19">
     <!-- Average -->
     <g transform="translate(94.6 58.070438) scale(0.1 -0.1)">
      <defs>
       <path id="DejaVuSans-41" d="M 2188 4044 
L 1331 1722 
L 3047 1722 
L 2188 4044 
z
M 1831 4666 
L 2547 4666 
L 4325 0 
L 3669 0 
L 3244 1197 
L 1141 1197 
L 716 0 
L 50 0 
L 1831 4666 
z
" transform="scale(0.015625)"/>
       <path id="DejaVuSans-67" d="M 2906 1791 
Q 2906 2416 2648 2759 
Q 2391 3103 1925 3103 
Q 1463 3103 1205 2759 
Q 947 2416 947 1791 
Q 947 1169 1205 825 
Q 1463 481 1925 481 
Q 2391 481 2648 825 
Q 2906 1169 2906 1791 
z
M 3481 434 
Q 3481 -459 3084 -895 
Q 2688 -1331 1869 -1331 
Q 1566 -1331 1297 -1286 
Q 1028 -1241 775 -1147 
L 775 -588 
Q 1028 -725 1275 -790 
Q 1522 -856 1778 -856 
Q 2344 -856 2625 -561 
Q 2906 -266 2906 331 
L 2906 616 
Q 2728 306 2450 153 
Q 2172 0 1784 0 
Q 1141 0 747 490 
Q 353 981 353 1791 
Q 353 2603 747 3093 
Q 1141 3584 1784 3584 
Q 2172 3584 2450 3431 
Q 2728 3278 2906 2969 
L 2906 3500 
L 3481 3500 
L 3481 434 
z
" transform="scale(0.015625)"/>
      </defs>
      <use xlink:href="#DejaVuSans-41"/>
      <use xlink:href="#DejaVuSans-76" x="62.533203"/>
      <use xlink:href="#DejaVuSans-65" x="121.712891"/>
      <use xlink:href="#DejaVuSans-72" x="183.236328"/>
      <use xlink:href="#DejaVuSans-61" x="224.349609"/>
      <use xlink:href="#DejaVuSans-67" x="285.628906"/>
      <use xlink:href="#DejaVuSans-65" x="349.105469"/>
     </g>
    </g>
   </g>
  </g>
 </g>
 <defs>
  <clipPath id="p0eebca055e">
   <rect x="57.6" y="41.472" width="357.12" height="266.112"/>
  </clipPath>
 </defs>
</svg>
