<?xml version="1.0" encoding="utf-8" standalone="no"?>
<!DOCTYPE svg PUBLIC "-//W3C//DTD SVG 1.1//EN"
  "http://www.w3.org/Graphics/SVG/1.1/DTD/svg11.dtd">
<svg xmlns:xlink="http://www.w3.org/1999/xlink" width="648pt" height="360pt" viewBox="0 0 648 360" xmlns="http://www.w3.org/2000/svg" version="1.1">
 <metadata>
  <rdf:RDF xmlns:dc="http://purl.org/dc/elements/1.1/" xmlns:cc="http://creativecommons.org/ns#" xmlns:rdf="http://www.w3.org/1999/02/22-rdf-syntax-ns#">
   <cc:Work>
    <dc:type rdf:resource="http://purl.org/dc/dcmitype/StillImage"/>
    <dc:date>2025-10-24T12:36:32.405123</dc:date>
    <dc:format>image/svg+xml</dc:format>
    <dc:creator>
     <cc:Agent>
      <dc:title>Matplotlib v3.7.2, https://matplotlib.org/</dc:title>
     </cc:Agent>
    </dc:creator>
   </cc:Work>
  </rdf:RDF>
 </metadata>
 <defs>
  <style type="text/css">*{stroke-linejoin: round; stroke-linecap: butt}</style>
 </defs>
 <g id="figure_1">
  <g id="patch_1">
   <path d="M 0 360 
L 648 360 
L 648 0 
L 0 0 
z
" style="fill: #ffffff"/>
  </g>
  <g id="axes_1">
   <g id="patch_2">
    <path d="M 81 320.4 
L 583.2 320.4 
L 583.2 43.2 
L 81 43.2 
z
" style="fill: #ffffff"/>
   </g>
   <g id="matplotlib.axis_1">
    <g id="xtick_1">
     <g id="line2d_1">
      <defs>
       <path id="m7de233b8a9" d="M 0 0 
L 0 3.5 
" style="stroke: #000000; stroke-width: 0.8"/>
      </defs>
      <g>
       <use xlink:href="#m7de233b8a9" x="103.827273" y="320.4" style="stroke: #000000; stroke-width: 0.8"/>
      </g>
     </g>
     <g id="text_1">
      <!-- 2005 -->
      <g transform="translate(88.557273 336.518125) scale(0.12 -0.12)">
       <defs>
        <path id="DejaVuSans-32" d="M 1228 531 
L 3431 531 
L 3431 0 
L 469 0 
L 469 531 
Q 828 903 1448 1529 
Q 2069 2156 2228 2338 
Q 2531 2678 2651 2914 
Q 2772 3150 2772 3378 
Q 2772 3750 2511 3984 
Q 2250 4219 1831 4219 
Q 1534 4219 1204 4116 
Q 875 4013 500 3803 
L 500 4441 
Q 881 4594 1212 4672 
Q 1544 4750 1819 4750 
Q 2544 4750 2975 4387 
Q 3406 4025 3406 3419 
Q 3406 3131 3298 2873 
Q 3191 2616 2906 2266 
Q 2828 2175 2409 1742 
Q 1991 1309 1228 531 
z
" transform="scale(0.015625)"/>
        <path id="DejaVuSans-30" d="M 2034 4250 
Q 1547 4250 1301 3770 
Q 1056 3291 1056 2328 
Q 1056 1369 1301 889 
Q 1547 409 2034 409 
Q 2525 409 2770 889 
Q 3016 1369 3016 2328 
Q 3016 3291 2770 3770 
Q 2525 4250 2034 4250 
z
M 2034 4750 
Q 2819 4750 3233 4129 
Q 3647 3509 3647 2328 
Q 3647 1150 3233 529 
Q 2819 -91 2034 -91 
Q 1250 -91 836 529 
Q 422 1150 422 2328 
Q 422 3509 836 4129 
Q 1250 4750 2034 4750 
z
" transform="scale(0.015625)"/>
        <path id="DejaVuSans-35" d="M 691 4666 
L 3169 4666 
L 3169 4134 
L 1269 4134 
L 1269 2991 
Q 1406 3038 1543 3061 
Q 1681 3084 1819 3084 
Q 2600 3084 3056 2656 
Q 3513 2228 3513 1497 
Q 3513 744 3044 326 
Q 2575 -91 1722 -91 
Q 1428 -91 1123 -41 
Q 819 9 494 109 
L 494 744 
Q 775 591 1075 516 
Q 1375 441 1709 441 
Q 2250 441 2565 725 
Q 2881 1009 2881 1497 
Q 2881 1984 2565 2268 
Q 2250 2553 1709 2553 
Q 1456 2553 1204 2497 
Q 953 2441 691 2322 
L 691 4666 
z
" transform="scale(0.015625)"/>
       </defs>
       <use xlink:href="#DejaVuSans-32"/>
       <use xlink:href="#DejaVuSans-30" x="63.623047"/>
       <use xlink:href="#DejaVuSans-30" x="127.246094"/>
       <use xlink:href="#DejaVuSans-35" x="190.869141"/>
      </g>
     </g>
    </g>
    <g id="xtick_2">
     <g id="line2d_2">
      <g>
       <use xlink:href="#m7de233b8a9" x="163.899043" y="320.4" style="stroke: #000000; stroke-width: 0.8"/>
      </g>
     </g>
     <g id="text_2">
      <!-- 2007 -->
      <g transform="translate(148.629043 336.518125) scale(0.12 -0.12)">
       <defs>
        <path id="DejaVuSans-37" d="M 525 4666 
L 3525 4666 
L 3525 4397 
L 1831 0 
L 1172 0 
L 2766 4134 
L 525 4134 
L 525 4666 
z
" transform="scale(0.015625)"/>
       </defs>
       <use xlink:href="#DejaVuSans-32"/>
       <use xlink:href="#DejaVuSans-30" x="63.623047"/>
       <use xlink:href="#DejaVuSans-30" x="127.246094"/>
       <use xlink:href="#DejaVuSans-37" x="190.869141"/>
      </g>
     </g>
    </g>
    <g id="xtick_3">
     <g id="line2d_3">
      <g>
       <use xlink:href="#m7de233b8a9" x="223.970813" y="320.4" style="stroke: #000000; stroke-width: 0.8"/>
      </g>
     </g>
     <g id="text_3">
      <!-- 2010 -->
      <g transform="translate(208.700813 336.518125) scale(0.12 -0.12)">
       <defs>
        <path id="DejaVuSans-31" d="M 794 531 
L 1825 531 
L 1825 4091 
L 703 3866 
L 703 4441 
L 1819 4666 
L 2450 4666 
L 2450 531 
L 3481 531 
L 3481 0 
L 794 0 
L 794 531 
z
" transform="scale(0.015625)"/>
       </defs>
       <use xlink:href="#DejaVuSans-32"/>
       <use xlink:href="#DejaVuSans-30" x="63.623047"/>
       <use xlink:href="#DejaVuSans-31" x="127.246094"/>
       <use xlink:href="#DejaVuSans-30" x="190.869141"/>
      </g>
     </g>
    </g>
    <g id="xtick_4">
     <g id="line2d_4">
      <g>
       <use xlink:href="#m7de233b8a9" x="284.042584" y="320.4" style="stroke: #000000; stroke-width: 0.8"/>
      </g>
     </g>
     <g id="text_4">
      <!-- 2012 -->
      <g transform="translate(268.772584 336.518125) scale(0.12 -0.12)">
       <use xlink:href="#DejaVuSans-32"/>
       <use xlink:href="#DejaVuSans-30" x="63.623047"/>
       <use xlink:href="#DejaVuSans-31" x="127.246094"/>
       <use xlink:href="#DejaVuSans-32" x="190.869141"/>
      </g>
     </g>
    </g>
    <g id="xtick_5">
     <g id="line2d_5">
      <g>
       <use xlink:href="#m7de233b8a9" x="344.114354" y="320.4" style="stroke: #000000; stroke-width: 0.8"/>
      </g>
     </g>
     <g id="text_5">
      <!-- 2015 -->
      <g transform="translate(328.844354 336.518125) scale(0.12 -0.12)">
       <use xlink:href="#DejaVuSans-32"/>
       <use xlink:href="#DejaVuSans-30" x="63.623047"/>
       <use xlink:href="#DejaVuSans-31" x="127.246094"/>
       <use xlink:href="#DejaVuSans-35" x="190.869141"/>
      </g>
     </g>
    </g>
    <g id="xtick_6">
     <g id="line2d_6">
      <g>
       <use xlink:href="#m7de233b8a9" x="404.186124" y="320.4" style="stroke: #000000; stroke-width: 0.8"/>
      </g>
     </g>
     <g id="text_6">
      <!-- 2017 -->
      <g transform="translate(388.916124 336.518125) scale(0.12 -0.12)">
       <use xlink:href="#DejaVuSans-32"/>
       <use xlink:href="#DejaVuSans-30" x="63.623047"/>
       <use xlink:href="#DejaVuSans-31" x="127.246094"/>
       <use xlink:href="#DejaVuSans-37" x="190.869141"/>
      </g>
     </g>
    </g>
    <g id="xtick_7">
     <g id="line2d_7">
      <g>
       <use xlink:href="#m7de233b8a9" x="464.257895" y="320.4" style="stroke: #000000; stroke-width: 0.8"/>
      </g>
     </g>
     <g id="text_7">
      <!-- 2020 -->
      <g transform="translate(448.987895 336.518125) scale(0.12 -0.12)">
       <use xlink:href="#DejaVuSans-32"/>
       <use xlink:href="#DejaVuSans-30" x="63.623047"/>
       <use xlink:href="#DejaVuSans-32" x="127.246094"/>
       <use xlink:href="#DejaVuSans-30" x="190.869141"/>
      </g>
     </g>
    </g>
    <g id="xtick_8">
     <g id="line2d_8">
      <g>
       <use xlink:href="#m7de233b8a9" x="524.329665" y="320.4" style="stroke: #000000; stroke-width: 0.8"/>
      </g>
     </g>
     <g id="text_8">
      <!-- 2022 -->
      <g transform="translate(509.059665 336.518125) scale(0.12 -0.12)">
       <use xlink:href="#DejaVuSans-32"/>
       <use xlink:href="#DejaVuSans-30" x="63.623047"/>
       <use xlink:href="#DejaVuSans-32" x="127.246094"/>
       <use xlink:href="#DejaVuSans-32" x="190.869141"/>
      </g>
     </g>
    </g>
    <g id="text_9">
     <!-- Year -->
     <g transform="translate(316.21875 354.411406) scale(0.15 -0.15)">
      <defs>
       <path id="DejaVuSans-59" d="M -13 4666 
L 666 4666 
L 1959 2747 
L 3244 4666 
L 3922 4666 
L 2272 2222 
L 2272 0 
L 1638 0 
L 1638 2222 
L -13 4666 
z
" transform="scale(0.015625)"/>
       <path id="DejaVuSans-65" d="M 3597 1894 
L 3597 1613 
L 953 1613 
Q 991 1019 1311 708 
Q 1631 397 2203 397 
Q 2534 397 2845 478 
Q 3156 559 3463 722 
L 3463 178 
Q 3153 47 2828 -22 
Q 2503 -91 2169 -91 
Q 1331 -91 842 396 
Q 353 884 353 1716 
Q 353 2575 817 3079 
Q 1281 3584 2069 3584 
Q 2775 3584 3186 3129 
Q 3597 2675 3597 1894 
z
M 3022 2063 
Q 3016 2534 2758 2815 
Q 2500 3097 2075 3097 
Q 1594 3097 1305 2825 
Q 1016 2553 972 2059 
L 3022 2063 
z
" transform="scale(0.015625)"/>
       <path id="DejaVuSans-61" d="M 2194 1759 
Q 1497 1759 1228 1600 
Q 959 1441 959 1056 
Q 959 750 1161 570 
Q 1363 391 1709 391 
Q 2188 391 2477 730 
Q 2766 1069 2766 1631 
L 2766 1759 
L 2194 1759 
z
M 3341 1997 
L 3341 0 
L 2766 0 
L 2766 531 
Q 2569 213 2275 61 
Q 1981 -91 1556 -91 
Q 1019 -91 701 211 
Q 384 513 384 1019 
Q 384 1609 779 1909 
Q 1175 2209 1959 2209 
L 2766 2209 
L 2766 2266 
Q 2766 2663 2505 2880 
Q 2244 3097 1772 3097 
Q 1472 3097 1187 3025 
Q 903 2953 641 2809 
L 641 3341 
Q 956 3463 1253 3523 
Q 1550 3584 1831 3584 
Q 2591 3584 2966 3190 
Q 3341 2797 3341 1997 
z
" transform="scale(0.015625)"/>
       <path id="DejaVuSans-72" d="M 2631 2963 
Q 2534 3019 2420 3045 
Q 2306 3072 2169 3072 
Q 1681 3072 1420 2755 
Q 1159 2438 1159 1844 
L 1159 0 
L 581 0 
L 581 3500 
L 1159 3500 
L 1159 2956 
Q 1341 3275 1631 3429 
Q 1922 3584 2338 3584 
Q 2397 3584 2469 3576 
Q 2541 3569 2628 3553 
L 2631 2963 
z
" transform="scale(0.015625)"/>
      </defs>
      <use xlink:href="#DejaVuSans-59"/>
      <use xlink:href="#DejaVuSans-65" x="47.833984"/>
      <use xlink:href="#DejaVuSans-61" x="109.357422"/>
      <use xlink:href="#DejaVuSans-72" x="170.636719"/>
     </g>
    </g>
   </g>
   <g id="matplotlib.axis_2">
    <g id="ytick_1">
     <g id="line2d_9">
      <defs>
       <path id="me98e5c5fad" d="M 0 0 
L -3.5 0 
" style="stroke: #000000; stroke-width: 0.8"/>
      </defs>
      <g>
       <use xlink:href="#me98e5c5fad" x="81" y="297.09204" style="stroke: #000000; stroke-width: 0.8"/>
      </g>
     </g>
     <g id="text_10">
      <!-- 10 -->
      <g transform="translate(58.73 301.651103) scale(0.12 -0.12)">
       <use xlink:href="#DejaVuSans-31"/>
       <use xlink:href="#DejaVuSans-30" x="63.623047"/>
      </g>
     </g>
    </g>
    <g id="ytick_2">
     <g id="line2d_10">
      <g>
       <use xlink:href="#me98e5c5fad" x="81" y="243.552243" style="stroke: #000000; stroke-width: 0.8"/>
      </g>
     </g>
     <g id="text_11">
      <!-- 20 -->
      <g transform="translate(58.73 248.111305) scale(0.12 -0.12)">
       <use xlink:href="#DejaVuSans-32"/>
       <use xlink:href="#DejaVuSans-30" x="63.623047"/>
      </g>
     </g>
    </g>
    <g id="ytick_3">
     <g id="line2d_11">
      <g>
       <use xlink:href="#me98e5c5fad" x="81" y="190.012445" style="stroke: #000000; stroke-width: 0.8"/>
      </g>
     </g>
     <g id="text_12">
      <!-- 30 -->
      <g transform="translate(58.73 194.571507) scale(0.12 -0.12)">
       <defs>
        <path id="DejaVuSans-33" d="M 2597 2516 
Q 3050 2419 3304 2112 
Q 3559 1806 3559 1356 
Q 3559 666 3084 287 
Q 2609 -91 1734 -91 
Q 1441 -91 1130 -33 
Q 819 25 488 141 
L 488 750 
Q 750 597 1062 519 
Q 1375 441 1716 441 
Q 2309 441 2620 675 
Q 2931 909 2931 1356 
Q 2931 1769 2642 2001 
Q 2353 2234 1838 2234 
L 1294 2234 
L 1294 2753 
L 1863 2753 
Q 2328 2753 2575 2939 
Q 2822 3125 2822 3475 
Q 2822 3834 2567 4026 
Q 2313 4219 1838 4219 
Q 1578 4219 1281 4162 
Q 984 4106 628 3988 
L 628 4550 
Q 988 4650 1302 4700 
Q 1616 4750 1894 4750 
Q 2613 4750 3031 4423 
Q 3450 4097 3450 3541 
Q 3450 3153 3228 2886 
Q 3006 2619 2597 2516 
z
" transform="scale(0.015625)"/>
       </defs>
       <use xlink:href="#DejaVuSans-33"/>
       <use xlink:href="#DejaVuSans-30" x="63.623047"/>
      </g>
     </g>
    </g>
    <g id="ytick_4">
     <g id="line2d_12">
      <g>
       <use xlink:href="#me98e5c5fad" x="81" y="136.472647" style="stroke: #000000; stroke-width: 0.8"/>
      </g>
     </g>
     <g id="text_13">
      <!-- 40 -->
      <g transform="translate(58.73 141.031709) scale(0.12 -0.12)">
       <defs>
        <path id="DejaVuSans-34" d="M 2419 4116 
L 825 1625 
L 2419 1625 
L 2419 4116 
z
M 2253 4666 
L 3047 4666 
L 3047 1625 
L 3713 1625 
L 3713 1100 
L 3047 1100 
L 3047 0 
L 2419 0 
L 2419 1100 
L 313 1100 
L 313 1709 
L 2253 4666 
z
" transform="scale(0.015625)"/>
       </defs>
       <use xlink:href="#DejaVuSans-34"/>
       <use xlink:href="#DejaVuSans-30" x="63.623047"/>
      </g>
     </g>
    </g>
    <g id="ytick_5">
     <g id="line2d_13">
      <g>
       <use xlink:href="#me98e5c5fad" x="81" y="82.932849" style="stroke: #000000; stroke-width: 0.8"/>
      </g>
     </g>
     <g id="text_14">
      <!-- 50 -->
      <g transform="translate(58.73 87.491911) scale(0.12 -0.12)">
       <use xlink:href="#DejaVuSans-35"/>
       <use xlink:href="#DejaVuSans-30" x="63.623047"/>
      </g>
     </g>
    </g>
    <g id="text_15">
     <!-- Total coral cover (%) -->
     <g transform="translate(51.610469 258.769922) rotate(-90) scale(0.15 -0.15)">
      <defs>
       <path id="DejaVuSans-54" d="M -19 4666 
L 3928 4666 
L 3928 4134 
L 2272 4134 
L 2272 0 
L 1638 0 
L 1638 4134 
L -19 4134 
L -19 4666 
z
" transform="scale(0.015625)"/>
       <path id="DejaVuSans-6f" d="M 1959 3097 
Q 1497 3097 1228 2736 
Q 959 2375 959 1747 
Q 959 1119 1226 758 
Q 1494 397 1959 397 
Q 2419 397 2687 759 
Q 2956 1122 2956 1747 
Q 2956 2369 2687 2733 
Q 2419 3097 1959 3097 
z
M 1959 3584 
Q 2709 3584 3137 3096 
Q 3566 2609 3566 1747 
Q 3566 888 3137 398 
Q 2709 -91 1959 -91 
Q 1206 -91 779 398 
Q 353 888 353 1747 
Q 353 2609 779 3096 
Q 1206 3584 1959 3584 
z
" transform="scale(0.015625)"/>
       <path id="DejaVuSans-74" d="M 1172 4494 
L 1172 3500 
L 2356 3500 
L 2356 3053 
L 1172 3053 
L 1172 1153 
Q 1172 725 1289 603 
Q 1406 481 1766 481 
L 2356 481 
L 2356 0 
L 1766 0 
Q 1100 0 847 248 
Q 594 497 594 1153 
L 594 3053 
L 172 3053 
L 172 3500 
L 594 3500 
L 594 4494 
L 1172 4494 
z
" transform="scale(0.015625)"/>
       <path id="DejaVuSans-6c" d="M 603 4863 
L 1178 4863 
L 1178 0 
L 603 0 
L 603 4863 
z
" transform="scale(0.015625)"/>
       <path id="DejaVuSans-20" transform="scale(0.015625)"/>
       <path id="DejaVuSans-63" d="M 3122 3366 
L 3122 2828 
Q 2878 2963 2633 3030 
Q 2388 3097 2138 3097 
Q 1578 3097 1268 2742 
Q 959 2388 959 1747 
Q 959 1106 1268 751 
Q 1578 397 2138 397 
Q 2388 397 2633 464 
Q 2878 531 3122 666 
L 3122 134 
Q 2881 22 2623 -34 
Q 2366 -91 2075 -91 
Q 1284 -91 818 406 
Q 353 903 353 1747 
Q 353 2603 823 3093 
Q 1294 3584 2113 3584 
Q 2378 3584 2631 3529 
Q 2884 3475 3122 3366 
z
" transform="scale(0.015625)"/>
       <path id="DejaVuSans-76" d="M 191 3500 
L 800 3500 
L 1894 563 
L 2988 3500 
L 3597 3500 
L 2284 0 
L 1503 0 
L 191 3500 
z
" transform="scale(0.015625)"/>
       <path id="DejaVuSans-28" d="M 1984 4856 
Q 1566 4138 1362 3434 
Q 1159 2731 1159 2009 
Q 1159 1288 1364 580 
Q 1569 -128 1984 -844 
L 1484 -844 
Q 1016 -109 783 600 
Q 550 1309 550 2009 
Q 550 2706 781 3412 
Q 1013 4119 1484 4856 
L 1984 4856 
z
" transform="scale(0.015625)"/>
       <path id="DejaVuSans-25" d="M 4653 2053 
Q 4381 2053 4226 1822 
Q 4072 1591 4072 1178 
Q 4072 772 4226 539 
Q 4381 306 4653 306 
Q 4919 306 5073 539 
Q 5228 772 5228 1178 
Q 5228 1588 5073 1820 
Q 4919 2053 4653 2053 
z
M 4653 2450 
Q 5147 2450 5437 2106 
Q 5728 1763 5728 1178 
Q 5728 594 5436 251 
Q 5144 -91 4653 -91 
Q 4153 -91 3862 251 
Q 3572 594 3572 1178 
Q 3572 1766 3864 2108 
Q 4156 2450 4653 2450 
z
M 1428 4353 
Q 1159 4353 1004 4120 
Q 850 3888 850 3481 
Q 850 3069 1003 2837 
Q 1156 2606 1428 2606 
Q 1700 2606 1854 2837 
Q 2009 3069 2009 3481 
Q 2009 3884 1853 4118 
Q 1697 4353 1428 4353 
z
M 4250 4750 
L 4750 4750 
L 1831 -91 
L 1331 -91 
L 4250 4750 
z
M 1428 4750 
Q 1922 4750 2215 4408 
Q 2509 4066 2509 3481 
Q 2509 2891 2217 2550 
Q 1925 2209 1428 2209 
Q 931 2209 642 2551 
Q 353 2894 353 3481 
Q 353 4063 643 4406 
Q 934 4750 1428 4750 
z
" transform="scale(0.015625)"/>
       <path id="DejaVuSans-29" d="M 513 4856 
L 1013 4856 
Q 1481 4119 1714 3412 
Q 1947 2706 1947 2009 
Q 1947 1309 1714 600 
Q 1481 -109 1013 -844 
L 513 -844 
Q 928 -128 1133 580 
Q 1338 1288 1338 2009 
Q 1338 2731 1133 3434 
Q 928 4138 513 4856 
z
" transform="scale(0.015625)"/>
      </defs>
      <use xlink:href="#DejaVuSans-54"/>
      <use xlink:href="#DejaVuSans-6f" x="44.083984"/>
      <use xlink:href="#DejaVuSans-74" x="105.265625"/>
      <use xlink:href="#DejaVuSans-61" x="144.474609"/>
      <use xlink:href="#DejaVuSans-6c" x="205.753906"/>
      <use xlink:href="#DejaVuSans-20" x="233.537109"/>
      <use xlink:href="#DejaVuSans-63" x="265.324219"/>
      <use xlink:href="#DejaVuSans-6f" x="320.304688"/>
      <use xlink:href="#DejaVuSans-72" x="381.486328"/>
      <use xlink:href="#DejaVuSans-61" x="422.599609"/>
      <use xlink:href="#DejaVuSans-6c" x="483.878906"/>
      <use xlink:href="#DejaVuSans-20" x="511.662109"/>
      <use xlink:href="#DejaVuSans-63" x="543.449219"/>
      <use xlink:href="#DejaVuSans-6f" x="598.429688"/>
      <use xlink:href="#DejaVuSans-76" x="659.611328"/>
      <use xlink:href="#DejaVuSans-65" x="718.791016"/>
      <use xlink:href="#DejaVuSans-72" x="780.314453"/>
      <use xlink:href="#DejaVuSans-20" x="821.427734"/>
      <use xlink:href="#DejaVuSans-28" x="853.214844"/>
      <use xlink:href="#DejaVuSans-25" x="892.228516"/>
      <use xlink:href="#DejaVuSans-29" x="987.248047"/>
     </g>
    </g>
   </g>
   <g id="line2d_14">
    <path d="M 103.827273 307.8 
L 127.855981 298.842809 
L 151.884689 279.317798 
L 175.913397 247.516592 
L 199.942105 205.298932 
L 223.970813 160.563374 
L 247.999522 123.745066 
L 272.02823 93.459894 
L 296.056938 76.562347 
L 320.085646 64.571354 
L 344.114354 60.356608 
L 368.143062 61.834136 
L 392.17177 58.032336 
L 416.200478 59.967545 
L 440.229187 61.311697 
L 464.257895 57.534856 
L 488.286603 59.500371 
L 512.315311 61.175371 
L 536.344019 57.119038 
L 560.372727 58.628382 
" clip-path="url(#p793bdf1328)" style="fill: none; stroke-dasharray: 3.7,1.6; stroke-dashoffset: 0; stroke: #1f77b4; stroke-opacity: 0.6"/>
   </g>
   <g id="line2d_15">
    <path d="M 103.827273 307.8 
L 127.855981 300.392455 
L 151.884689 285.119001 
L 175.913397 262.147732 
L 199.942105 231.238325 
L 223.970813 192.381617 
L 247.999522 154.174951 
L 272.02823 119.542666 
L 296.056938 96.505487 
L 320.085646 80.282524 
L 344.114354 68.874279 
L 368.143062 63.317162 
L 392.17177 59.367124 
L 416.200478 61.059694 
L 440.229187 57.629055 
L 464.257895 59.124073 
L 488.286603 60.740795 
L 512.315311 57.37557 
L 536.344019 58.760358 
L 560.372727 60.442249 
" clip-path="url(#p793bdf1328)" style="fill: none; stroke-dasharray: 3.7,1.6; stroke-dashoffset: 0; stroke: #ff7f0e; stroke-opacity: 0.6"/>
   </g>
   <g id="line2d_16">
    <path d="M 103.827273 307.8 
L 127.855981 300.52961 
L 151.884689 285.895506 
L 175.913397 263.591891 
L 199.942105 230.224406 
L 223.970813 193.066598 
L 247.999522 153.616173 
L 272.02823 119.801894 
L 296.056938 94.831447 
L 320.085646 77.201441 
L 344.114354 66.973823 
L 368.143062 61.162267 
L 392.17177 57.60177 
L 416.200478 59.185462 
L 440.229187 60.992569 
L 464.257895 57.149442 
L 488.286603 58.598273 
L 512.315311 60.117464 
L 536.344019 61.234819 
L 560.372727 57.115058 
" clip-path="url(#p793bdf1328)" style="fill: none; stroke-dasharray: 3.7,1.6; stroke-dashoffset: 0; stroke: #2ca02c; stroke-opacity: 0.6"/>
   </g>
   <g id="line2d_17">
    <path d="M 103.827273 307.8 
L 127.855981 298.13078 
L 151.884689 277.408447 
L 175.913397 247.879741 
L 199.942105 211.752647 
L 223.970813 173.100951 
L 247.999522 139.292614 
L 272.02823 111.108068 
L 296.056938 91.045562 
L 320.085646 76.057738 
L 344.114354 67.218383 
L 368.143062 62.326439 
L 392.17177 58.665891 
L 416.200478 60.447766 
L 440.229187 57.200709 
L 464.257895 59.035692 
L 488.286603 60.760758 
L 512.315311 57.110431 
L 536.344019 58.582435 
L 560.372727 59.98916 
" clip-path="url(#p793bdf1328)" style="fill: none; stroke-dasharray: 3.7,1.6; stroke-dashoffset: 0; stroke: #d62728; stroke-opacity: 0.6"/>
   </g>
   <g id="line2d_18">
    <path d="M 103.827273 307.8 
L 127.855981 300.452046 
L 151.884689 283.447341 
L 175.913397 255.249735 
L 199.942105 221.396013 
L 223.970813 180.322313 
L 247.999522 142.999159 
L 272.02823 109.410755 
L 296.056938 86.86774 
L 320.085646 73.942663 
L 344.114354 66.111598 
L 368.143062 61.4059 
L 392.17177 57.94362 
L 416.200478 59.611055 
L 440.229187 61.439286 
L 464.257895 57.797724 
L 488.286603 59.538004 
L 512.315311 61.110812 
L 536.344019 57.577544 
L 560.372727 59.229852 
" clip-path="url(#p793bdf1328)" style="fill: none; stroke-dasharray: 3.7,1.6; stroke-dashoffset: 0; stroke: #9467bd; stroke-opacity: 0.6"/>
   </g>
   <g id="line2d_19">
    <path d="M 103.827273 307.8 
L 127.855981 292.472589 
L 151.884689 269.660372 
L 175.913397 235.32025 
L 199.942105 195.316198 
L 223.970813 156.841158 
L 247.999522 119.530254 
L 272.02823 93.449297 
L 296.056938 76.565587 
L 320.085646 66.07864 
L 344.114354 61.221518 
L 368.143062 57.269744 
L 392.17177 59.335574 
L 416.200478 61.071122 
L 440.229187 57.204476 
L 464.257895 59.102389 
L 488.286603 60.830751 
L 512.315311 57.182391 
L 536.344019 58.938242 
L 560.372727 60.469886 
" clip-path="url(#p793bdf1328)" style="fill: none; stroke-dasharray: 3.7,1.6; stroke-dashoffset: 0; stroke: #8c564b; stroke-opacity: 0.6"/>
   </g>
   <g id="line2d_20">
    <path d="M 103.827273 307.8 
L 127.855981 298.994466 
L 151.884689 278.906275 
L 175.913397 245.359872 
L 199.942105 206.375264 
L 223.970813 162.429667 
L 247.999522 126.013685 
L 272.02823 98.838159 
L 296.056938 79.57142 
L 320.085646 69.333927 
L 344.114354 63.384471 
L 368.143062 59.679377 
L 392.17177 60.742617 
L 416.200478 57.0559 
L 440.229187 58.74328 
L 464.257895 60.190968 
L 488.286603 61.438249 
L 512.315311 58.026435 
L 536.344019 59.720933 
L 560.372727 61.227767 
" clip-path="url(#p793bdf1328)" style="fill: none; stroke-dasharray: 3.7,1.6; stroke-dashoffset: 0; stroke: #e377c2; stroke-opacity: 0.6"/>
   </g>
   <g id="line2d_21">
    <path d="M 103.827273 307.8 
L 127.855981 299.112938 
L 151.884689 280.345309 
L 175.913397 249.273785 
L 199.942105 210.882183 
L 223.970813 166.891202 
L 247.999522 127.853578 
L 272.02823 97.135227 
L 296.056938 79.929114 
L 320.085646 68.148835 
L 344.114354 62.874898 
L 368.143062 59.208235 
L 392.17177 60.555825 
L 416.200478 56.663554 
L 440.229187 58.654914 
L 464.257895 60.489197 
L 488.286603 56.5925 
L 512.315311 58.552601 
L 536.344019 59.777837 
L 560.372727 61.272999 
" clip-path="url(#p793bdf1328)" style="fill: none; stroke-dasharray: 3.7,1.6; stroke-dashoffset: 0; stroke: #7f7f7f; stroke-opacity: 0.6"/>
   </g>
   <g id="line2d_22">
    <path d="M 103.827273 307.8 
L 127.855981 291.958162 
L 151.884689 267.072036 
L 175.913397 231.280444 
L 199.942105 185.478111 
L 223.970813 146.497999 
L 247.999522 113.513696 
L 272.02823 87.274918 
L 296.056938 72.734346 
L 320.085646 65.71844 
L 344.114354 60.383857 
L 368.143062 62.292086 
L 392.17177 57.796532 
L 416.200478 59.529541 
L 440.229187 60.940105 
L 464.257895 56.862104 
L 488.286603 58.577685 
L 512.315311 60.2421 
L 536.344019 61.306328 
L 560.372727 56.582037 
" clip-path="url(#p793bdf1328)" style="fill: none; stroke-dasharray: 3.7,1.6; stroke-dashoffset: 0; stroke: #bcbd22; stroke-opacity: 0.6"/>
   </g>
   <g id="line2d_23">
    <path d="M 103.827273 307.8 
L 127.855981 289.990517 
L 151.884689 263.96883 
L 175.913397 224.695348 
L 199.942105 183.184277 
L 223.970813 142.757166 
L 247.999522 109.834933 
L 272.02823 84.8958 
L 296.056938 70.338019 
L 320.085646 63.611344 
L 344.114354 59.868447 
L 368.143062 61.765358 
L 392.17177 57.884894 
L 416.200478 59.375103 
L 440.229187 60.859966 
L 464.257895 57.088581 
L 488.286603 59.002976 
L 512.315311 60.385401 
L 536.344019 61.861454 
L 560.372727 57.666813 
" clip-path="url(#p793bdf1328)" style="fill: none; stroke-dasharray: 3.7,1.6; stroke-dashoffset: 0; stroke: #17becf; stroke-opacity: 0.6"/>
   </g>
   <g id="line2d_24">
    <path d="M 103.827273 307.8 
L 127.855981 290.192455 
L 151.884689 260.689096 
L 175.913397 219.427806 
L 199.942105 173.053877 
L 223.970813 135.543937 
L 247.999522 104.259196 
L 272.02823 82.439683 
L 296.056938 71.006257 
L 320.085646 64.371657 
L 344.114354 60.456064 
L 368.143062 56.631759 
L 392.17177 58.607965 
L 416.200478 60.410257 
L 440.229187 62.103801 
L 464.257895 58.078626 
L 488.286603 59.582888 
L 512.315311 61.21147 
L 536.344019 57.441918 
L 560.372727 59.013595 
" clip-path="url(#p793bdf1328)" style="fill: none; stroke-dasharray: 3.7,1.6; stroke-dashoffset: 0; stroke: #1f77b4; stroke-opacity: 0.6"/>
   </g>
   <g id="line2d_25">
    <path d="M 103.827273 307.8 
L 127.855981 296.815937 
L 151.884689 271.627053 
L 175.913397 234.630228 
L 199.942105 190.945074 
L 223.970813 149.470813 
L 247.999522 111.943607 
L 272.02823 89.644349 
L 296.056938 73.055275 
L 320.085646 65.864589 
L 344.114354 60.388697 
L 368.143062 61.74248 
L 392.17177 58.387022 
L 416.200478 59.806131 
L 440.229187 61.648498 
L 464.257895 57.696566 
L 488.286603 59.2054 
L 512.315311 60.593898 
L 536.344019 57.10475 
L 560.372727 58.523391 
" clip-path="url(#p793bdf1328)" style="fill: none; stroke-dasharray: 3.7,1.6; stroke-dashoffset: 0; stroke: #ff7f0e; stroke-opacity: 0.6"/>
   </g>
   <g id="line2d_26">
    <path d="M 103.827273 307.8 
L 127.855981 295.300666 
L 151.884689 268.850335 
L 175.913397 230.831961 
L 199.942105 187.588786 
L 223.970813 147.225466 
L 247.999522 111.33955 
L 272.02823 88.815451 
L 296.056938 74.820032 
L 320.085646 66.973759 
L 344.114354 61.415825 
L 368.143062 57.898102 
L 392.17177 59.697852 
L 416.200478 61.432444 
L 440.229187 57.958953 
L 464.257895 59.447772 
L 488.286603 61.150797 
L 512.315311 57.257761 
L 536.344019 59.036529 
L 560.372727 60.092156 
" clip-path="url(#p793bdf1328)" style="fill: none; stroke-dasharray: 3.7,1.6; stroke-dashoffset: 0; stroke: #2ca02c; stroke-opacity: 0.6"/>
   </g>
   <g id="line2d_27">
    <path d="M 103.827273 307.8 
L 127.855981 297.267968 
L 151.884689 273.297033 
L 175.913397 239.328486 
L 199.942105 200.417818 
L 223.970813 160.778809 
L 247.999522 128.253741 
L 272.02823 101.745189 
L 296.056938 84.002087 
L 320.085646 72.083303 
L 344.114354 65.541978 
L 368.143062 60.945907 
L 392.17177 57.337043 
L 416.200478 59.143668 
L 440.229187 60.445756 
L 464.257895 61.915169 
L 488.286603 58.48529 
L 512.315311 59.957869 
L 536.344019 61.402275 
L 560.372727 57.764164 
" clip-path="url(#p793bdf1328)" style="fill: none; stroke-dasharray: 3.7,1.6; stroke-dashoffset: 0; stroke: #d62728; stroke-opacity: 0.6"/>
   </g>
   <g id="line2d_28">
    <path d="M 103.827273 307.8 
L 127.855981 290.053856 
L 151.884689 260.868406 
L 175.913397 223.124134 
L 199.942105 180.580709 
L 223.970813 141.308209 
L 247.999522 112.233306 
L 272.02823 90.531596 
L 296.056938 73.576864 
L 320.085646 66.13921 
L 344.114354 61.06258 
L 368.143062 57.038811 
L 392.17177 58.907697 
L 416.200478 60.635413 
L 440.229187 56.315098 
L 464.257895 57.997053 
L 488.286603 59.549363 
L 512.315311 60.88892 
L 536.344019 56.389237 
L 560.372727 58.106256 
" clip-path="url(#p793bdf1328)" style="fill: none; stroke-dasharray: 3.7,1.6; stroke-dashoffset: 0; stroke: #9467bd; stroke-opacity: 0.6"/>
   </g>
   <g id="line2d_29">
    <path d="M 103.827273 307.8 
L 127.855981 297.634154 
L 151.884689 278.475708 
L 175.913397 248.097197 
L 199.942105 211.064664 
L 223.970813 170.121454 
L 247.999522 134.106581 
L 272.02823 103.741795 
L 296.056938 84.09054 
L 320.085646 72.771013 
L 344.114354 65.122418 
L 368.143062 60.89227 
L 392.17177 56.870152 
L 416.200478 58.71952 
L 440.229187 60.567443 
L 464.257895 56.993569 
L 488.286603 58.730859 
L 512.315311 60.490174 
L 536.344019 55.885117 
L 560.372727 57.724681 
" clip-path="url(#p793bdf1328)" style="fill: none; stroke-dasharray: 3.7,1.6; stroke-dashoffset: 0; stroke: #8c564b; stroke-opacity: 0.6"/>
   </g>
   <g id="line2d_30">
    <path d="M 103.827273 307.8 
L 127.855981 294.21337 
L 151.884689 269.995282 
L 175.913397 231.798115 
L 199.942105 189.526588 
L 223.970813 146.959323 
L 247.999522 113.164616 
L 272.02823 90.168145 
L 296.056938 74.020457 
L 320.085646 66.550062 
L 344.114354 60.281492 
L 368.143062 61.800602 
L 392.17177 57.771548 
L 416.200478 59.824762 
L 440.229187 61.10396 
L 464.257895 57.147906 
L 488.286603 58.753807 
L 512.315311 60.230176 
L 536.344019 62.00262 
L 560.372727 57.609426 
" clip-path="url(#p793bdf1328)" style="fill: none; stroke-dasharray: 3.7,1.6; stroke-dashoffset: 0; stroke: #e377c2; stroke-opacity: 0.6"/>
   </g>
   <g id="line2d_31">
    <path d="M 103.827273 307.8 
L 127.855981 291.283926 
L 151.884689 265.036559 
L 175.913397 229.83427 
L 199.942105 186.749167 
L 223.970813 146.391004 
L 247.999522 112.391674 
L 272.02823 87.929656 
L 296.056938 74.189601 
L 320.085646 66.619502 
L 344.114354 60.60978 
L 368.143062 56.824543 
L 392.17177 58.860299 
L 416.200478 60.48868 
L 440.229187 56.612559 
L 464.257895 58.419764 
L 488.286603 60.155258 
L 512.315311 61.750099 
L 536.344019 57.381432 
L 560.372727 58.94518 
" clip-path="url(#p793bdf1328)" style="fill: none; stroke-dasharray: 3.7,1.6; stroke-dashoffset: 0; stroke: #7f7f7f; stroke-opacity: 0.6"/>
   </g>
   <g id="line2d_32">
    <path d="M 103.827273 307.8 
L 127.855981 298.777818 
L 151.884689 281.165983 
L 175.913397 250.683031 
L 199.942105 213.012572 
L 223.970813 172.645227 
L 247.999522 137.282799 
L 272.02823 106.583295 
L 296.056938 84.163686 
L 320.085646 72.241088 
L 344.114354 65.052072 
L 368.143062 61.462361 
L 392.17177 57.73869 
L 416.200478 59.566251 
L 440.229187 61.000712 
L 464.257895 57.04039 
L 488.286603 58.657397 
L 512.315311 60.315385 
L 536.344019 61.93749 
L 560.372727 57.739114 
" clip-path="url(#p793bdf1328)" style="fill: none; stroke-dasharray: 3.7,1.6; stroke-dashoffset: 0; stroke: #bcbd22; stroke-opacity: 0.6"/>
   </g>
   <g id="line2d_33">
    <path d="M 103.827273 307.8 
L 127.855981 298.566925 
L 151.884689 280.160967 
L 175.913397 250.973001 
L 199.942105 213.596232 
L 223.970813 170.217471 
L 247.999522 134.270235 
L 272.02823 104.759414 
L 296.056938 81.989275 
L 320.085646 70.019571 
L 344.114354 64.406099 
L 368.143062 60.620016 
L 392.17177 56.812528 
L 416.200478 58.671141 
L 440.229187 60.448019 
L 464.257895 56.128844 
L 488.286603 57.89819 
L 512.315311 59.159937 
L 536.344019 60.789608 
L 560.372727 56.243085 
" clip-path="url(#p793bdf1328)" style="fill: none; stroke-dasharray: 3.7,1.6; stroke-dashoffset: 0; stroke: #17becf; stroke-opacity: 0.6"/>
   </g>
   <g id="line2d_34">
    <path d="M 103.827273 307.8 
L 127.855981 301.067147 
L 151.884689 286.263791 
L 175.913397 261.348767 
L 199.942105 227.333437 
L 223.970813 186.294522 
L 247.999522 145.301829 
L 272.02823 113.193333 
L 296.056938 90.919713 
L 320.085646 75.638815 
L 344.114354 66.087444 
L 368.143062 61.625804 
L 392.17177 58.014743 
L 416.200478 59.648212 
L 440.229187 61.226399 
L 464.257895 57.710157 
L 488.286603 59.539668 
L 512.315311 61.012654 
L 536.344019 57.504316 
L 560.372727 59.282246 
" clip-path="url(#p793bdf1328)" style="fill: none; stroke-dasharray: 3.7,1.6; stroke-dashoffset: 0; stroke: #1f77b4; stroke-opacity: 0.6"/>
   </g>
   <g id="line2d_35">
    <path d="M 103.827273 307.8 
L 127.855981 295.312467 
L 151.884689 272.944599 
L 175.913397 242.152842 
L 199.942105 206.956349 
L 223.970813 166.503518 
L 247.999522 131.665682 
L 272.02823 105.031354 
L 296.056938 84.474789 
L 320.085646 72.274122 
L 344.114354 66.023936 
L 368.143062 60.955288 
L 392.17177 56.738037 
L 416.200478 58.643489 
L 440.229187 60.28502 
L 464.257895 61.945568 
L 488.286603 57.680452 
L 512.315311 59.260577 
L 536.344019 61.116138 
L 560.372727 56.623644 
" clip-path="url(#p793bdf1328)" style="fill: none; stroke-dasharray: 3.7,1.6; stroke-dashoffset: 0; stroke: #ff7f0e; stroke-opacity: 0.6"/>
   </g>
   <g id="line2d_36">
    <path d="M 103.827273 307.8 
L 127.855981 294.600625 
L 151.884689 272.982417 
L 175.913397 240.066739 
L 199.942105 197.364434 
L 223.970813 156.353342 
L 247.999522 118.710135 
L 272.02823 92.443695 
L 296.056938 74.064769 
L 320.085646 66.240968 
L 344.114354 60.100123 
L 368.143062 61.614711 
L 392.17177 57.421014 
L 416.200478 59.212774 
L 440.229187 60.996547 
L 464.257895 56.782525 
L 488.286603 58.401673 
L 512.315311 59.894826 
L 536.344019 60.929364 
L 560.372727 56.382944 
" clip-path="url(#p793bdf1328)" style="fill: none; stroke-dasharray: 3.7,1.6; stroke-dashoffset: 0; stroke: #2ca02c; stroke-opacity: 0.6"/>
   </g>
   <g id="line2d_37">
    <path d="M 103.827273 307.8 
L 127.855981 296.232832 
L 151.884689 278.261758 
L 175.913397 246.723162 
L 199.942105 205.091094 
L 223.970813 164.420361 
L 247.999522 128.231158 
L 272.02823 103.115551 
L 296.056938 83.308115 
L 320.085646 72.567898 
L 344.114354 66.285503 
L 368.143062 60.88259 
L 392.17177 57.127497 
L 416.200478 58.893248 
L 440.229187 60.615193 
L 464.257895 56.148254 
L 488.286603 58.076838 
L 512.315311 59.212136 
L 536.344019 59.967202 
L 560.372727 60.906047 
" clip-path="url(#p793bdf1328)" style="fill: none; stroke-dasharray: 3.7,1.6; stroke-dashoffset: 0; stroke: #d62728; stroke-opacity: 0.6"/>
   </g>
   <g id="line2d_38">
    <path d="M 103.827273 307.8 
L 127.855981 297.176827 
L 151.884689 275.182327 
L 175.913397 241.310999 
L 199.942105 198.876037 
L 223.970813 157.331889 
L 247.999522 120.271695 
L 272.02823 92.084398 
L 296.056938 75.459949 
L 320.085646 65.262116 
L 344.114354 61.206769 
L 368.143062 57.46606 
L 392.17177 59.076858 
L 416.200478 60.88916 
L 440.229187 56.742403 
L 464.257895 58.598366 
L 488.286603 60.215733 
L 512.315311 61.771538 
L 536.344019 57.739561 
L 560.372727 59.228811 
" clip-path="url(#p793bdf1328)" style="fill: none; stroke-dasharray: 3.7,1.6; stroke-dashoffset: 0; stroke: #9467bd; stroke-opacity: 0.6"/>
   </g>
   <g id="line2d_39">
    <path d="M 103.827273 307.8 
L 127.855981 296.483389 
L 151.884689 275.905898 
L 175.913397 244.512575 
L 199.942105 206.724641 
L 223.970813 165.661053 
L 247.999522 127.388687 
L 272.02823 100.118467 
L 296.056938 80.18087 
L 320.085646 69.667407 
L 344.114354 63.905375 
L 368.143062 60.456043 
L 392.17177 56.592425 
L 416.200478 58.618975 
L 440.229187 60.357626 
L 464.257895 61.94528 
L 488.286603 58.176475 
L 512.315311 59.81342 
L 536.344019 61.306478 
L 560.372727 57.452976 
" clip-path="url(#p793bdf1328)" style="fill: none; stroke-dasharray: 3.7,1.6; stroke-dashoffset: 0; stroke: #8c564b; stroke-opacity: 0.6"/>
   </g>
   <g id="line2d_40">
    <path d="M 103.827273 307.8 
L 127.855981 296.252181 
L 151.884689 276.030094 
L 175.913397 245.798696 
L 199.942105 207.530958 
L 223.970813 162.953057 
L 247.999522 124.652791 
L 272.02823 95.09318 
L 296.056938 76.152148 
L 320.085646 64.646417 
L 344.114354 60.9735 
L 368.143062 56.721212 
L 392.17177 58.295832 
L 416.200478 60.000382 
L 440.229187 61.715467 
L 464.257895 57.87379 
L 488.286603 59.513167 
L 512.315311 60.968186 
L 536.344019 57.215984 
L 560.372727 58.687147 
" clip-path="url(#p793bdf1328)" style="fill: none; stroke-dasharray: 3.7,1.6; stroke-dashoffset: 0; stroke: #e377c2; stroke-opacity: 0.6"/>
   </g>
   <g id="line2d_41">
    <path d="M 103.827273 307.8 
L 127.855981 294.778915 
L 151.884689 273.272224 
L 175.913397 242.475947 
L 199.942105 203.453904 
L 223.970813 159.854542 
L 247.999522 125.311991 
L 272.02823 99.454192 
L 296.056938 82.558772 
L 320.085646 69.829105 
L 344.114354 63.938443 
L 368.143062 59.799033 
L 392.17177 61.450983 
L 416.200478 57.028891 
L 440.229187 58.892209 
L 464.257895 60.610382 
L 488.286603 56.504074 
L 512.315311 58.437371 
L 536.344019 60.041609 
L 560.372727 61.602404 
" clip-path="url(#p793bdf1328)" style="fill: none; stroke-dasharray: 3.7,1.6; stroke-dashoffset: 0; stroke: #7f7f7f; stroke-opacity: 0.6"/>
   </g>
   <g id="line2d_42">
    <path d="M 103.827273 307.8 
L 127.855981 295.765515 
L 151.884689 269.444806 
L 175.913397 227.843688 
L 199.942105 181.810905 
L 223.970813 138.114241 
L 247.999522 103.851646 
L 272.02823 82.008514 
L 296.056938 69.311768 
L 320.085646 63.614086 
L 344.114354 60.020042 
L 368.143062 61.373807 
L 392.17177 57.804853 
L 416.200478 59.666998 
L 440.229187 60.854278 
L 464.257895 57.497212 
L 488.286603 59.337746 
L 512.315311 61.126151 
L 536.344019 57.36538 
L 560.372727 58.922415 
" clip-path="url(#p793bdf1328)" style="fill: none; stroke-dasharray: 3.7,1.6; stroke-dashoffset: 0; stroke: #bcbd22; stroke-opacity: 0.6"/>
   </g>
   <g id="line2d_43">
    <path d="M 103.827273 307.8 
L 127.855981 296.125727 
L 151.884689 275.363682 
L 175.913397 243.643184 
L 199.942105 202.438313 
L 223.970813 163.701233 
L 247.999522 128.866345 
L 272.02823 98.846349 
L 296.056938 80.278345 
L 320.085646 69.004248 
L 344.114354 62.831001 
L 368.143062 59.039628 
L 392.17177 60.771096 
L 416.200478 57.168208 
L 440.229187 59.021229 
L 464.257895 60.808111 
L 488.286603 56.822118 
L 512.315311 58.507054 
L 536.344019 60.141143 
L 560.372727 61.302049 
" clip-path="url(#p793bdf1328)" style="fill: none; stroke-dasharray: 3.7,1.6; stroke-dashoffset: 0; stroke: #17becf; stroke-opacity: 0.6"/>
   </g>
   <g id="line2d_44">
    <path d="M 103.827273 307.8 
L 127.855981 299.530136 
L 151.884689 278.928343 
L 175.913397 247.378467 
L 199.942105 208.952171 
L 223.970813 168.554546 
L 247.999522 131.582181 
L 272.02823 103.590109 
L 296.056938 82.392221 
L 320.085646 71.679442 
L 344.114354 65.039906 
L 368.143062 60.99963 
L 392.17177 57.536691 
L 416.200478 59.25636 
L 440.229187 61.018675 
L 464.257895 57.481105 
L 488.286603 59.050588 
L 512.315311 60.318911 
L 536.344019 61.693363 
L 560.372727 57.959545 
" clip-path="url(#p793bdf1328)" style="fill: none; stroke-dasharray: 3.7,1.6; stroke-dashoffset: 0; stroke: #1f77b4; stroke-opacity: 0.6"/>
   </g>
   <g id="line2d_45">
    <path d="M 103.827273 307.8 
L 127.855981 296.121972 
L 151.884689 275.559511 
L 175.913397 246.097363 
L 199.942105 209.653238 
L 223.970813 168.994888 
L 247.999522 131.438993 
L 272.02823 102.683748 
L 296.056938 85.687783 
L 320.085646 71.827805 
L 344.114354 65.467046 
L 368.143062 60.35863 
L 392.17177 61.792673 
L 416.200478 57.885028 
L 440.229187 59.9019 
L 464.257895 61.384663 
L 488.286603 57.466033 
L 512.315311 59.036921 
L 536.344019 60.497961 
L 560.372727 56.247913 
" clip-path="url(#p793bdf1328)" style="fill: none; stroke-dasharray: 3.7,1.6; stroke-dashoffset: 0; stroke: #ff7f0e; stroke-opacity: 0.6"/>
   </g>
   <g id="line2d_46">
    <path d="M 103.827273 307.8 
L 127.855981 293.12903 
L 151.884689 268.294625 
L 175.913397 228.479209 
L 199.942105 186.249061 
L 223.970813 142.753607 
L 247.999522 108.266809 
L 272.02823 86.041299 
L 296.056938 72.899837 
L 320.085646 64.570331 
L 344.114354 59.896917 
L 368.143062 61.333731 
L 392.17177 57.732711 
L 416.200478 59.507568 
L 440.229187 60.95101 
L 464.257895 56.947017 
L 488.286603 58.537595 
L 512.315311 60.37463 
L 536.344019 61.61603 
L 560.372727 57.812256 
" clip-path="url(#p793bdf1328)" style="fill: none; stroke-dasharray: 3.7,1.6; stroke-dashoffset: 0; stroke: #2ca02c; stroke-opacity: 0.6"/>
   </g>
   <g id="line2d_47">
    <path d="M 103.827273 307.8 
L 127.855981 297.513715 
L 151.884689 276.675618 
L 175.913397 247.374055 
L 199.942105 212.049387 
L 223.970813 170.235724 
L 247.999522 132.584007 
L 272.02823 103.755709 
L 296.056938 84.072223 
L 320.085646 73.080168 
L 344.114354 65.187898 
L 368.143062 61.579461 
L 392.17177 57.768518 
L 416.200478 59.498971 
L 440.229187 61.027479 
L 464.257895 57.04362 
L 488.286603 58.982963 
L 512.315311 60.471686 
L 536.344019 56.82848 
L 560.372727 58.585151 
" clip-path="url(#p793bdf1328)" style="fill: none; stroke-dasharray: 3.7,1.6; stroke-dashoffset: 0; stroke: #d62728; stroke-opacity: 0.6"/>
   </g>
   <g id="line2d_48">
    <path d="M 103.827273 307.8 
L 127.855981 298.220409 
L 151.884689 278.128179 
L 175.913397 249.854557 
L 199.942105 209.739137 
L 223.970813 167.339401 
L 247.999522 127.214816 
L 272.02823 97.812416 
L 296.056938 79.289247 
L 320.085646 67.513468 
L 344.114354 62.007379 
L 368.143062 58.476975 
L 392.17177 60.306563 
L 416.200478 62.156496 
L 440.229187 57.849719 
L 464.257895 59.454616 
L 488.286603 60.364997 
L 512.315311 61.422649 
L 536.344019 57.685617 
L 560.372727 59.361258 
" clip-path="url(#p793bdf1328)" style="fill: none; stroke-dasharray: 3.7,1.6; stroke-dashoffset: 0; stroke: #9467bd; stroke-opacity: 0.6"/>
   </g>
   <g id="line2d_49">
    <path d="M 103.827273 307.8 
L 127.855981 298.997223 
L 151.884689 282.157742 
L 175.913397 255.729292 
L 199.942105 220.308374 
L 223.970813 179.446694 
L 247.999522 142.788295 
L 272.02823 112.715792 
L 296.056938 90.857755 
L 320.085646 76.62279 
L 344.114354 66.211587 
L 368.143062 61.323897 
L 392.17177 58.083498 
L 416.200478 59.736042 
L 440.229187 61.349055 
L 464.257895 57.963756 
L 488.286603 59.45604 
L 512.315311 61.072497 
L 536.344019 57.571517 
L 560.372727 59.255089 
" clip-path="url(#p793bdf1328)" style="fill: none; stroke-dasharray: 3.7,1.6; stroke-dashoffset: 0; stroke: #8c564b; stroke-opacity: 0.6"/>
   </g>
   <g id="line2d_50">
    <path d="M 103.827273 307.8 
L 127.855981 296.206942 
L 151.884689 273.967479 
L 175.913397 243.567398 
L 199.942105 205.790535 
L 223.970813 160.991017 
L 247.999522 123.110334 
L 272.02823 95.794689 
L 296.056938 77.179849 
L 320.085646 66.70292 
L 344.114354 61.37555 
L 368.143062 57.294001 
L 392.17177 59.031592 
L 416.200478 60.50225 
L 440.229187 56.2734 
L 464.257895 58.105645 
L 488.286603 59.767904 
L 512.315311 61.21571 
L 536.344019 56.974128 
L 560.372727 58.791409 
" clip-path="url(#p793bdf1328)" style="fill: none; stroke-dasharray: 3.7,1.6; stroke-dashoffset: 0; stroke: #e377c2; stroke-opacity: 0.6"/>
   </g>
   <g id="line2d_51">
    <path d="M 103.827273 307.8 
L 127.855981 294.173905 
L 151.884689 270.008069 
L 175.913397 237.216839 
L 199.942105 199.092006 
L 223.970813 157.998472 
L 247.999522 125.913584 
L 272.02823 97.437759 
L 296.056938 80.395959 
L 320.085646 68.502023 
L 344.114354 63.238492 
L 368.143062 59.751433 
L 392.17177 61.151919 
L 416.200478 56.865637 
L 440.229187 58.627039 
L 464.257895 60.318631 
L 488.286603 61.427358 
L 512.315311 57.574904 
L 536.344019 59.274488 
L 560.372727 61.047223 
" clip-path="url(#p793bdf1328)" style="fill: none; stroke-dasharray: 3.7,1.6; stroke-dashoffset: 0; stroke: #7f7f7f; stroke-opacity: 0.6"/>
   </g>
   <g id="line2d_52">
    <path d="M 103.827273 307.8 
L 127.855981 296.379939 
L 151.884689 274.037942 
L 175.913397 241.933937 
L 199.942105 200.061953 
L 223.970813 157.874387 
L 247.999522 123.32554 
L 272.02823 95.670893 
L 296.056938 77.667258 
L 320.085646 66.706783 
L 344.114354 60.84069 
L 368.143062 57.025685 
L 392.17177 58.99485 
L 416.200478 60.464294 
L 440.229187 56.13066 
L 464.257895 57.880742 
L 488.286603 59.265324 
L 512.315311 60.475508 
L 536.344019 56.220348 
L 560.372727 58.054453 
" clip-path="url(#p793bdf1328)" style="fill: none; stroke-dasharray: 3.7,1.6; stroke-dashoffset: 0; stroke: #bcbd22; stroke-opacity: 0.6"/>
   </g>
   <g id="line2d_53">
    <path d="M 103.827273 307.8 
L 127.855981 289.897133 
L 151.884689 260.294544 
L 175.913397 218.198629 
L 199.942105 170.240495 
L 223.970813 130.824463 
L 247.999522 97.629071 
L 272.02823 78.763957 
L 296.056938 67.298925 
L 320.085646 61.481727 
L 344.114354 57.821996 
L 368.143062 59.447723 
L 392.17177 61.239631 
L 416.200478 56.994477 
L 440.229187 58.836105 
L 464.257895 59.881732 
L 488.286603 61.457084 
L 512.315311 57.39732 
L 536.344019 58.999663 
L 560.372727 60.606864 
" clip-path="url(#p793bdf1328)" style="fill: none; stroke-dasharray: 3.7,1.6; stroke-dashoffset: 0; stroke: #17becf; stroke-opacity: 0.6"/>
   </g>
   <g id="line2d_54">
    <path d="M 103.827273 307.8 
L 127.855981 298.050592 
L 151.884689 279.665928 
L 175.913397 252.80177 
L 199.942105 216.37584 
L 223.970813 175.4181 
L 247.999522 139.598043 
L 272.02823 109.233591 
L 296.056938 89.067512 
L 320.085646 75.506371 
L 344.114354 67.025717 
L 368.143062 61.848734 
L 392.17177 57.986477 
L 416.200478 59.701162 
L 440.229187 60.874786 
L 464.257895 56.999647 
L 488.286603 58.76878 
L 512.315311 60.16214 
L 536.344019 61.57143 
L 560.372727 57.693512 
" clip-path="url(#p793bdf1328)" style="fill: none; stroke-dasharray: 3.7,1.6; stroke-dashoffset: 0; stroke: #1f77b4; stroke-opacity: 0.6"/>
   </g>
   <g id="line2d_55">
    <path d="M 103.827273 307.8 
L 127.855981 296.710297 
L 151.884689 274.177825 
L 175.913397 242.821663 
L 199.942105 206.646089 
L 223.970813 166.957615 
L 247.999522 131.882441 
L 272.02823 102.727683 
L 296.056938 84.84443 
L 320.085646 72.242427 
L 344.114354 65.286789 
L 368.143062 61.225246 
L 392.17177 58.041402 
L 416.200478 59.75803 
L 440.229187 61.039773 
L 464.257895 57.19626 
L 488.286603 58.84429 
L 512.315311 60.124648 
L 536.344019 61.667184 
L 560.372727 58.278585 
" clip-path="url(#p793bdf1328)" style="fill: none; stroke-dasharray: 3.7,1.6; stroke-dashoffset: 0; stroke: #ff7f0e; stroke-opacity: 0.6"/>
   </g>
   <g id="line2d_56">
    <path d="M 103.827273 307.8 
L 127.855981 295.151297 
L 151.884689 275.36864 
L 175.913397 243.59138 
L 199.942105 201.320049 
L 223.970813 158.961645 
L 247.999522 123.999033 
L 272.02823 95.974633 
L 296.056938 78.908189 
L 320.085646 68.146312 
L 344.114354 62.01564 
L 368.143062 58.304392 
L 392.17177 60.263505 
L 416.200478 61.663309 
L 440.229187 57.762306 
L 464.257895 59.56475 
L 488.286603 61.290727 
L 512.315311 57.383395 
L 536.344019 58.993397 
L 560.372727 60.460525 
" clip-path="url(#p793bdf1328)" style="fill: none; stroke-dasharray: 3.7,1.6; stroke-dashoffset: 0; stroke: #2ca02c; stroke-opacity: 0.6"/>
   </g>
   <g id="line2d_57">
    <path d="M 103.827273 307.8 
L 127.855981 297.533102 
L 151.884689 282.562899 
L 175.913397 258.332611 
L 199.942105 225.464721 
L 223.970813 189.303072 
L 247.999522 153.710995 
L 272.02823 117.561616 
L 296.056938 92.819007 
L 320.085646 77.597247 
L 344.114354 67.867638 
L 368.143062 62.936283 
L 392.17177 58.937166 
L 416.200478 60.600277 
L 440.229187 56.503338 
L 464.257895 58.423751 
L 488.286603 60.39061 
L 512.315311 62.011466 
L 536.344019 57.534495 
L 560.372727 59.211038 
" clip-path="url(#p793bdf1328)" style="fill: none; stroke-dasharray: 3.7,1.6; stroke-dashoffset: 0; stroke: #d62728; stroke-opacity: 0.6"/>
   </g>
   <g id="line2d_58">
    <path d="M 103.827273 307.8 
L 127.855981 296.609205 
L 151.884689 275.111387 
L 175.913397 242.224518 
L 199.942105 204.583539 
L 223.970813 160.429304 
L 247.999522 121.855824 
L 272.02823 95.93376 
L 296.056938 79.342788 
L 320.085646 69.233648 
L 344.114354 63.940349 
L 368.143062 59.330253 
L 392.17177 60.788591 
L 416.200478 56.645738 
L 440.229187 58.659823 
L 464.257895 60.179209 
L 488.286603 61.533331 
L 512.315311 57.36405 
L 536.344019 59.140254 
L 560.372727 60.666543 
" clip-path="url(#p793bdf1328)" style="fill: none; stroke-dasharray: 3.7,1.6; stroke-dashoffset: 0; stroke: #9467bd; stroke-opacity: 0.6"/>
   </g>
   <g id="line2d_59">
    <path d="M 103.827273 307.8 
L 127.855981 297.658737 
L 151.884689 278.867839 
L 175.913397 245.184055 
L 199.942105 205.677691 
L 223.970813 166.164364 
L 247.999522 129.572741 
L 272.02823 99.507304 
L 296.056938 81.393318 
L 320.085646 69.354099 
L 344.114354 63.605476 
L 368.143062 59.62727 
L 392.17177 61.300254 
L 416.200478 57.413927 
L 440.229187 59.173123 
L 464.257895 60.675473 
L 488.286603 56.550465 
L 512.315311 58.257859 
L 536.344019 59.674914 
L 560.372727 61.006894 
" clip-path="url(#p793bdf1328)" style="fill: none; stroke-dasharray: 3.7,1.6; stroke-dashoffset: 0; stroke: #8c564b; stroke-opacity: 0.6"/>
   </g>
   <g id="line2d_60">
    <path d="M 103.827273 307.8 
L 127.855981 298.721283 
L 151.884689 280.315645 
L 175.913397 248.517323 
L 199.942105 208.339849 
L 223.970813 161.581431 
L 247.999522 123.882772 
L 272.02823 98.299564 
L 296.056938 78.749792 
L 320.085646 68.475322 
L 344.114354 63.135753 
L 368.143062 58.866074 
L 392.17177 60.793377 
L 416.200478 56.977365 
L 440.229187 58.706753 
L 464.257895 60.019376 
L 488.286603 61.398452 
L 512.315311 57.463123 
L 536.344019 58.921042 
L 560.372727 60.35211 
" clip-path="url(#p793bdf1328)" style="fill: none; stroke-dasharray: 3.7,1.6; stroke-dashoffset: 0; stroke: #e377c2; stroke-opacity: 0.6"/>
   </g>
   <g id="line2d_61">
    <path d="M 103.827273 307.8 
L 127.855981 295.862022 
L 151.884689 273.117892 
L 175.913397 241.12448 
L 199.942105 200.901043 
L 223.970813 160.065605 
L 247.999522 123.292656 
L 272.02823 95.160556 
L 296.056938 76.549934 
L 320.085646 66.050841 
L 344.114354 60.091699 
L 368.143062 61.872231 
L 392.17177 58.170088 
L 416.200478 59.657766 
L 440.229187 60.959137 
L 464.257895 57.001711 
L 488.286603 58.861961 
L 512.315311 60.403429 
L 536.344019 61.938989 
L 560.372727 57.582003 
" clip-path="url(#p793bdf1328)" style="fill: none; stroke-dasharray: 3.7,1.6; stroke-dashoffset: 0; stroke: #7f7f7f; stroke-opacity: 0.6"/>
   </g>
   <g id="line2d_62">
    <path d="M 103.827273 307.8 
L 127.855981 295.401589 
L 151.884689 273.856235 
L 175.913397 239.703022 
L 199.942105 198.694651 
L 223.970813 160.316198 
L 247.999522 122.07094 
L 272.02823 94.523685 
L 296.056938 77.75167 
L 320.085646 66.465258 
L 344.114354 60.348314 
L 368.143062 61.905553 
L 392.17177 57.869483 
L 416.200478 59.707653 
L 440.229187 61.065358 
L 464.257895 56.815673 
L 488.286603 58.415795 
L 512.315311 59.915552 
L 536.344019 61.223345 
L 560.372727 56.215079 
" clip-path="url(#p793bdf1328)" style="fill: none; stroke-dasharray: 3.7,1.6; stroke-dashoffset: 0; stroke: #bcbd22; stroke-opacity: 0.6"/>
   </g>
   <g id="line2d_63">
    <path d="M 103.827273 307.8 
L 127.855981 294.297433 
L 151.884689 266.468704 
L 175.913397 225.956149 
L 199.942105 183.472005 
L 223.970813 143.080881 
L 247.999522 111.376176 
L 272.02823 89.35848 
L 296.056938 74.263289 
L 320.085646 65.702042 
L 344.114354 60.825266 
L 368.143062 57.086095 
L 392.17177 59.064651 
L 416.200478 60.791992 
L 440.229187 57.292507 
L 464.257895 59.162823 
L 488.286603 61.003321 
L 512.315311 57.191961 
L 536.344019 58.69122 
L 560.372727 59.970596 
" clip-path="url(#p793bdf1328)" style="fill: none; stroke-dasharray: 3.7,1.6; stroke-dashoffset: 0; stroke: #17becf; stroke-opacity: 0.6"/>
   </g>
   <g id="line2d_64">
    <path d="M 103.827273 307.8 
L 127.855981 300.48837 
L 151.884689 284.050158 
L 175.913397 257.873725 
L 199.942105 224.883861 
L 223.970813 185.648693 
L 247.999522 146.241109 
L 272.02823 114.375948 
L 296.056938 90.185541 
L 320.085646 75.868866 
L 344.114354 66.695181 
L 368.143062 61.181966 
L 392.17177 57.537471 
L 416.200478 59.275342 
L 440.229187 60.956451 
L 464.257895 57.46091 
L 488.286603 59.338273 
L 512.315311 60.54083 
L 536.344019 56.718846 
L 560.372727 58.380246 
" clip-path="url(#p793bdf1328)" style="fill: none; stroke-dasharray: 3.7,1.6; stroke-dashoffset: 0; stroke: #1f77b4; stroke-opacity: 0.6"/>
   </g>
   <g id="line2d_65">
    <path d="M 103.827273 307.8 
L 127.855981 293.674784 
L 151.884689 274.440412 
L 175.913397 247.107302 
L 199.942105 209.725843 
L 223.970813 170.970048 
L 247.999522 135.609291 
L 272.02823 107.654814 
L 296.056938 87.701754 
L 320.085646 74.470697 
L 344.114354 67.834988 
L 368.143062 62.700764 
L 392.17177 59.00602 
L 416.200478 60.575606 
L 440.229187 56.863546 
L 464.257895 58.530042 
L 488.286603 60.10306 
L 512.315311 60.944888 
L 536.344019 56.869543 
L 560.372727 58.528763 
" clip-path="url(#p793bdf1328)" style="fill: none; stroke-dasharray: 3.7,1.6; stroke-dashoffset: 0; stroke: #ff7f0e; stroke-opacity: 0.6"/>
   </g>
   <g id="line2d_66">
    <path d="M 103.827273 307.8 
L 127.855981 297.407892 
L 151.884689 272.597242 
L 175.913397 234.965813 
L 199.942105 191.134134 
L 223.970813 150.651721 
L 247.999522 116.492267 
L 272.02823 90.220432 
L 296.056938 74.958307 
L 320.085646 65.492472 
L 344.114354 60.680453 
L 368.143062 57.360062 
L 392.17177 59.372977 
L 416.200478 61.154844 
L 440.229187 57.60081 
L 464.257895 59.363748 
L 488.286603 61.148138 
L 512.315311 57.610695 
L 536.344019 58.984638 
L 560.372727 60.324044 
" clip-path="url(#p793bdf1328)" style="fill: none; stroke-dasharray: 3.7,1.6; stroke-dashoffset: 0; stroke: #2ca02c; stroke-opacity: 0.6"/>
   </g>
   <g id="line2d_67">
    <path d="M 103.827273 307.8 
L 127.855981 296.620263 
L 151.884689 275.288244 
L 175.913397 243.03724 
L 199.942105 200.252393 
L 223.970813 152.391983 
L 247.999522 114.495966 
L 272.02823 89.142661 
L 296.056938 72.481418 
L 320.085646 64.886292 
L 344.114354 60.83079 
L 368.143062 57.036098 
L 392.17177 59.009438 
L 416.200478 60.846453 
L 440.229187 56.85618 
L 464.257895 58.654383 
L 488.286603 60.438797 
L 512.315311 62.191128 
L 536.344019 58.029968 
L 560.372727 59.871663 
" clip-path="url(#p793bdf1328)" style="fill: none; stroke-dasharray: 3.7,1.6; stroke-dashoffset: 0; stroke: #d62728; stroke-opacity: 0.6"/>
   </g>
   <g id="line2d_68">
    <path d="M 103.827273 307.8 
L 127.855981 292.239829 
L 151.884689 264.223735 
L 175.913397 225.589638 
L 199.942105 180.27493 
L 223.970813 138.382275 
L 247.999522 107.404945 
L 272.02823 83.545602 
L 296.056938 71.335079 
L 320.085646 63.47157 
L 344.114354 59.691134 
L 368.143062 61.286821 
L 392.17177 57.759072 
L 416.200478 59.648559 
L 440.229187 61.460887 
L 464.257895 58.012163 
L 488.286603 59.379266 
L 512.315311 60.54315 
L 536.344019 56.000564 
L 560.372727 57.747582 
" clip-path="url(#p793bdf1328)" style="fill: none; stroke-dasharray: 3.7,1.6; stroke-dashoffset: 0; stroke: #9467bd; stroke-opacity: 0.6"/>
   </g>
   <g id="line2d_69">
    <path d="M 103.827273 307.8 
L 127.855981 297.694735 
L 151.884689 279.214905 
L 175.913397 250.431227 
L 199.942105 212.559076 
L 223.970813 170.570252 
L 247.999522 133.287295 
L 272.02823 101.1672 
L 296.056938 81.270714 
L 320.085646 69.094478 
L 344.114354 63.418053 
L 368.143062 59.267071 
L 392.17177 60.782151 
L 416.200478 56.750382 
L 440.229187 58.751172 
L 464.257895 60.626651 
L 488.286603 56.121454 
L 512.315311 57.959909 
L 536.344019 59.244395 
L 560.372727 61.024082 
" clip-path="url(#p793bdf1328)" style="fill: none; stroke-dasharray: 3.7,1.6; stroke-dashoffset: 0; stroke: #8c564b; stroke-opacity: 0.6"/>
   </g>
   <g id="line2d_70">
    <path d="M 103.827273 307.8 
L 127.855981 297.117848 
L 151.884689 276.825545 
L 175.913397 245.114436 
L 199.942105 199.851365 
L 223.970813 152.990808 
L 247.999522 120.05585 
L 272.02823 93.96168 
L 296.056938 76.670167 
L 320.085646 66.361233 
L 344.114354 61.281845 
L 368.143062 57.171101 
L 392.17177 58.996531 
L 416.200478 60.709112 
L 440.229187 56.734708 
L 464.257895 58.436016 
L 488.286603 59.667193 
L 512.315311 61.110563 
L 536.344019 56.960639 
L 560.372727 58.653529 
" clip-path="url(#p793bdf1328)" style="fill: none; stroke-dasharray: 3.7,1.6; stroke-dashoffset: 0; stroke: #e377c2; stroke-opacity: 0.6"/>
   </g>
   <g id="line2d_71">
    <path d="M 103.827273 307.8 
L 127.855981 296.336686 
L 151.884689 273.217104 
L 175.913397 236.254604 
L 199.942105 192.462402 
L 223.970813 147.036824 
L 247.999522 111.360235 
L 272.02823 84.616485 
L 296.056938 70.35108 
L 320.085646 63.082341 
L 344.114354 59.459534 
L 368.143062 61.069148 
L 392.17177 57.543924 
L 416.200478 59.251495 
L 440.229187 60.677587 
L 464.257895 56.807486 
L 488.286603 58.535079 
L 512.315311 60.28557 
L 536.344019 61.844216 
L 560.372727 57.65953 
" clip-path="url(#p793bdf1328)" style="fill: none; stroke-dasharray: 3.7,1.6; stroke-dashoffset: 0; stroke: #7f7f7f; stroke-opacity: 0.6"/>
   </g>
   <g id="line2d_72">
    <path d="M 103.827273 307.8 
L 127.855981 298.833751 
L 151.884689 277.586646 
L 175.913397 246.460324 
L 199.942105 207.044172 
L 223.970813 168.200549 
L 247.999522 130.730629 
L 272.02823 103.143757 
L 296.056938 82.051249 
L 320.085646 69.607126 
L 344.114354 63.779562 
L 368.143062 59.699201 
L 392.17177 61.325339 
L 416.200478 57.740582 
L 440.229187 59.531541 
L 464.257895 61.146741 
L 488.286603 57.567588 
L 512.315311 59.023202 
L 536.344019 60.425603 
L 560.372727 61.136719 
" clip-path="url(#p793bdf1328)" style="fill: none; stroke-dasharray: 3.7,1.6; stroke-dashoffset: 0; stroke: #bcbd22; stroke-opacity: 0.6"/>
   </g>
   <g id="line2d_73">
    <path d="M 103.827273 307.8 
L 127.855981 296.830613 
L 151.884689 273.716915 
L 175.913397 238.251576 
L 199.942105 194.62451 
L 223.970813 149.255413 
L 247.999522 109.954376 
L 272.02823 83.549283 
L 296.056938 70.101283 
L 320.085646 64.339194 
L 344.114354 60.885726 
L 368.143062 57.236431 
L 392.17177 59.079721 
L 416.200478 60.69375 
L 440.229187 56.967203 
L 464.257895 58.682386 
L 488.286603 60.404981 
L 512.315311 61.739352 
L 536.344019 57.567992 
L 560.372727 59.225747 
" clip-path="url(#p793bdf1328)" style="fill: none; stroke-dasharray: 3.7,1.6; stroke-dashoffset: 0; stroke: #17becf; stroke-opacity: 0.6"/>
   </g>
   <g id="line2d_74">
    <path d="M 103.827273 307.8 
L 127.855981 296.870326 
L 151.884689 278.441486 
L 175.913397 248.964873 
L 199.942105 210.888274 
L 223.970813 169.571816 
L 247.999522 131.26731 
L 272.02823 99.968818 
L 296.056938 80.960209 
L 320.085646 69.315673 
L 344.114354 62.620955 
L 368.143062 59.072681 
L 392.17177 60.970167 
L 416.200478 57.288483 
L 440.229187 58.94568 
L 464.257895 60.6067 
L 488.286603 57.005163 
L 512.315311 58.600159 
L 536.344019 60.011968 
L 560.372727 61.086421 
" clip-path="url(#p793bdf1328)" style="fill: none; stroke-dasharray: 3.7,1.6; stroke-dashoffset: 0; stroke: #1f77b4; stroke-opacity: 0.6"/>
   </g>
   <g id="line2d_75">
    <path d="M 103.827273 307.8 
L 127.855981 297.694038 
L 151.884689 278.542563 
L 175.913397 250.670598 
L 199.942105 214.810502 
L 223.970813 175.164152 
L 247.999522 141.447879 
L 272.02823 111.211203 
L 296.056938 88.363346 
L 320.085646 76.314543 
L 344.114354 66.132598 
L 368.143062 61.838743 
L 392.17177 58.663963 
L 416.200478 60.484045 
L 440.229187 56.93492 
L 464.257895 58.875174 
L 488.286603 60.346372 
L 512.315311 61.980232 
L 536.344019 58.097058 
L 560.372727 59.706868 
" clip-path="url(#p793bdf1328)" style="fill: none; stroke-dasharray: 3.7,1.6; stroke-dashoffset: 0; stroke: #ff7f0e; stroke-opacity: 0.6"/>
   </g>
   <g id="line2d_76">
    <path d="M 103.827273 307.8 
L 127.855981 297.287164 
L 151.884689 275.637862 
L 175.913397 240.251018 
L 199.942105 192.071119 
L 223.970813 143.486699 
L 247.999522 107.987568 
L 272.02823 82.797585 
L 296.056938 69.944139 
L 320.085646 63.426955 
L 344.114354 59.729505 
L 368.143062 61.354226 
L 392.17177 57.231395 
L 416.200478 59.150605 
L 440.229187 61.094395 
L 464.257895 56.606824 
L 488.286603 58.566112 
L 512.315311 60.049039 
L 536.344019 61.233522 
L 560.372727 57.002395 
" clip-path="url(#p793bdf1328)" style="fill: none; stroke-dasharray: 3.7,1.6; stroke-dashoffset: 0; stroke: #2ca02c; stroke-opacity: 0.6"/>
   </g>
   <g id="line2d_77">
    <path d="M 103.827273 307.8 
L 127.855981 293.807958 
L 151.884689 265.580262 
L 175.913397 222.218806 
L 199.942105 175.610415 
L 223.970813 134.008421 
L 247.999522 99.918146 
L 272.02823 78.191889 
L 296.056938 67.185609 
L 320.085646 61.19937 
L 344.114354 57.939516 
L 368.143062 59.881424 
L 392.17177 61.334454 
L 416.200478 57.723285 
L 440.229187 59.273457 
L 464.257895 60.442568 
L 488.286603 61.761402 
L 512.315311 57.887121 
L 536.344019 59.582801 
L 560.372727 60.653415 
" clip-path="url(#p793bdf1328)" style="fill: none; stroke-dasharray: 3.7,1.6; stroke-dashoffset: 0; stroke: #d62728; stroke-opacity: 0.6"/>
   </g>
   <g id="line2d_78">
    <path d="M 103.827273 307.8 
L 127.855981 297.421848 
L 151.884689 275.977533 
L 175.913397 245.877155 
L 199.942105 206.890794 
L 223.970813 163.965056 
L 247.999522 124.040853 
L 272.02823 94.253814 
L 296.056938 76.441758 
L 320.085646 64.859515 
L 344.114354 60.865178 
L 368.143062 57.075327 
L 392.17177 58.790076 
L 416.200478 60.593424 
L 440.229187 56.771569 
L 464.257895 58.536658 
L 488.286603 60.130132 
L 512.315311 61.504302 
L 536.344019 57.048727 
L 560.372727 58.906279 
" clip-path="url(#p793bdf1328)" style="fill: none; stroke-dasharray: 3.7,1.6; stroke-dashoffset: 0; stroke: #9467bd; stroke-opacity: 0.6"/>
   </g>
   <g id="line2d_79">
    <path d="M 103.827273 307.8 
L 127.855981 299.675449 
L 151.884689 282.790962 
L 175.913397 253.254513 
L 199.942105 209.603393 
L 223.970813 163.830323 
L 247.999522 124.254421 
L 272.02823 97.066107 
L 296.056938 78.817386 
L 320.085646 67.305926 
L 344.114354 61.811831 
L 368.143062 57.827346 
L 392.17177 59.626941 
L 416.200478 61.409176 
L 440.229187 57.649404 
L 464.257895 59.202336 
L 488.286603 60.857524 
L 512.315311 56.402572 
L 536.344019 58.150323 
L 560.372727 59.772493 
" clip-path="url(#p793bdf1328)" style="fill: none; stroke-dasharray: 3.7,1.6; stroke-dashoffset: 0; stroke: #8c564b; stroke-opacity: 0.6"/>
   </g>
   <g id="line2d_80">
    <path d="M 103.827273 307.8 
L 127.855981 295.810225 
L 151.884689 277.883748 
L 175.913397 247.540686 
L 199.942105 209.749182 
L 223.970813 167.70629 
L 247.999522 129.63886 
L 272.02823 98.000817 
L 296.056938 78.837742 
L 320.085646 67.202307 
L 344.114354 61.084833 
L 368.143062 56.951268 
L 392.17177 59.077882 
L 416.200478 60.805491 
L 440.229187 56.454912 
L 464.257895 58.216854 
L 488.286603 59.680819 
L 512.315311 60.868376 
L 536.344019 56.443957 
L 560.372727 58.333684 
" clip-path="url(#p793bdf1328)" style="fill: none; stroke-dasharray: 3.7,1.6; stroke-dashoffset: 0; stroke: #e377c2; stroke-opacity: 0.6"/>
   </g>
   <g id="line2d_81">
    <path d="M 103.827273 307.8 
L 127.855981 297.202199 
L 151.884689 278.288401 
L 175.913397 245.464426 
L 199.942105 204.996365 
L 223.970813 162.349134 
L 247.999522 125.656181 
L 272.02823 97.126533 
L 296.056938 79.287328 
L 320.085646 69.354381 
L 344.114354 63.560532 
L 368.143062 59.096593 
L 392.17177 60.798486 
L 416.200478 57.091008 
L 440.229187 58.874829 
L 464.257895 60.472451 
L 488.286603 56.065122 
L 512.315311 57.648245 
L 536.344019 58.98735 
L 560.372727 60.243466 
" clip-path="url(#p793bdf1328)" style="fill: none; stroke-dasharray: 3.7,1.6; stroke-dashoffset: 0; stroke: #7f7f7f; stroke-opacity: 0.6"/>
   </g>
   <g id="line2d_82">
    <path d="M 103.827273 307.8 
L 127.855981 298.699713 
L 151.884689 280.801971 
L 175.913397 253.336644 
L 199.942105 218.325012 
L 223.970813 174.568537 
L 247.999522 133.836534 
L 272.02823 103.467061 
L 296.056938 81.859031 
L 320.085646 69.944157 
L 344.114354 64.024522 
L 368.143062 59.95098 
L 392.17177 61.758092 
L 416.200478 58.026813 
L 440.229187 59.917739 
L 464.257895 61.339485 
L 488.286603 57.648184 
L 512.315311 59.445536 
L 536.344019 60.720023 
L 560.372727 56.662455 
" clip-path="url(#p793bdf1328)" style="fill: none; stroke-dasharray: 3.7,1.6; stroke-dashoffset: 0; stroke: #bcbd22; stroke-opacity: 0.6"/>
   </g>
   <g id="line2d_83">
    <path d="M 103.827273 307.8 
L 127.855981 297.101941 
L 151.884689 272.562383 
L 175.913397 235.20606 
L 199.942105 192.28212 
L 223.970813 152.282905 
L 247.999522 119.4131 
L 272.02823 95.51 
L 296.056938 78.345128 
L 320.085646 68.047385 
L 344.114354 62.635114 
L 368.143062 58.788016 
L 392.17177 60.061863 
L 416.200478 61.311726 
L 440.229187 57.865675 
L 464.257895 59.657331 
L 488.286603 60.83587 
L 512.315311 57.387863 
L 536.344019 59.087353 
L 560.372727 60.444788 
" clip-path="url(#p793bdf1328)" style="fill: none; stroke-dasharray: 3.7,1.6; stroke-dashoffset: 0; stroke: #17becf; stroke-opacity: 0.6"/>
   </g>
   <g id="line2d_84">
    <path d="M 103.827273 307.8 
L 127.855981 297.59253 
L 151.884689 281.373036 
L 175.913397 256.25671 
L 199.942105 220.844006 
L 223.970813 183.244952 
L 247.999522 143.895889 
L 272.02823 111.464766 
L 296.056938 88.811432 
L 320.085646 75.995661 
L 344.114354 65.720761 
L 368.143062 60.816428 
L 392.17177 56.856334 
L 416.200478 58.674943 
L 440.229187 60.26887 
L 464.257895 61.829921 
L 488.286603 57.851236 
L 512.315311 59.801303 
L 536.344019 60.999488 
L 560.372727 57.255809 
" clip-path="url(#p793bdf1328)" style="fill: none; stroke-dasharray: 3.7,1.6; stroke-dashoffset: 0; stroke: #1f77b4; stroke-opacity: 0.6"/>
   </g>
   <g id="line2d_85">
    <path d="M 103.827273 307.8 
L 127.855981 297.374112 
L 151.884689 279.103561 
L 175.913397 250.232996 
L 199.942105 213.277978 
L 223.970813 174.2775 
L 247.999522 138.857636 
L 272.02823 111.592167 
L 296.056938 89.186133 
L 320.085646 74.176036 
L 344.114354 65.899792 
L 368.143062 60.854255 
L 392.17177 57.306399 
L 416.200478 59.226311 
L 440.229187 60.548701 
L 464.257895 56.753916 
L 488.286603 58.462288 
L 512.315311 59.795319 
L 536.344019 60.674725 
L 560.372727 56.805201 
" clip-path="url(#p793bdf1328)" style="fill: none; stroke-dasharray: 3.7,1.6; stroke-dashoffset: 0; stroke: #ff7f0e; stroke-opacity: 0.6"/>
   </g>
   <g id="line2d_86">
    <path d="M 103.827273 307.8 
L 127.855981 295.139553 
L 151.884689 271.671976 
L 175.913397 236.116268 
L 199.942105 194.692271 
L 223.970813 151.57526 
L 247.999522 111.340567 
L 272.02823 88.943678 
L 296.056938 73.034508 
L 320.085646 64.799149 
L 344.114354 60.082412 
L 368.143062 61.959057 
L 392.17177 57.522357 
L 416.200478 59.294504 
L 440.229187 60.657877 
L 464.257895 55.8 
L 488.286603 57.758663 
L 512.315311 59.409207 
L 536.344019 61.093916 
L 560.372727 56.556883 
" clip-path="url(#p793bdf1328)" style="fill: none; stroke-dasharray: 3.7,1.6; stroke-dashoffset: 0; stroke: #2ca02c; stroke-opacity: 0.6"/>
   </g>
   <g id="line2d_87">
    <path d="M 103.827273 307.8 
L 127.855981 297.555753 
L 151.884689 280.043121 
L 175.913397 251.43231 
L 199.942105 214.935404 
L 223.970813 174.061436 
L 247.999522 137.347256 
L 272.02823 107.794931 
L 296.056938 85.549189 
L 320.085646 72.387579 
L 344.114354 65.361302 
L 368.143062 61.263456 
L 392.17177 57.926948 
L 416.200478 59.824569 
L 440.229187 61.32473 
L 464.257895 57.917887 
L 488.286603 59.54324 
L 512.315311 60.903146 
L 536.344019 57.363766 
L 560.372727 58.893495 
" clip-path="url(#p793bdf1328)" style="fill: none; stroke-dasharray: 3.7,1.6; stroke-dashoffset: 0; stroke: #d62728; stroke-opacity: 0.6"/>
   </g>
   <g id="line2d_88">
    <path d="M 103.827273 307.8 
L 127.855981 299.136833 
L 151.884689 283.577989 
L 175.913397 258.637343 
L 199.942105 226.454195 
L 223.970813 188.540038 
L 247.999522 146.508398 
L 272.02823 113.794744 
L 296.056938 88.363765 
L 320.085646 73.731654 
L 344.114354 66.222465 
L 368.143062 61.045163 
L 392.17177 57.235411 
L 416.200478 58.787062 
L 440.229187 60.354285 
L 464.257895 61.958509 
L 488.286603 57.779884 
L 512.315311 59.390886 
L 536.344019 60.565081 
L 560.372727 56.379858 
" clip-path="url(#p793bdf1328)" style="fill: none; stroke-dasharray: 3.7,1.6; stroke-dashoffset: 0; stroke: #9467bd; stroke-opacity: 0.6"/>
   </g>
   <g id="line2d_89">
    <path d="M 103.827273 307.8 
L 127.855981 294.524803 
L 151.884689 272.218459 
L 175.913397 238.036043 
L 199.942105 195.260899 
L 223.970813 153.745421 
L 247.999522 119.120136 
L 272.02823 91.94731 
L 296.056938 76.419117 
L 320.085646 65.999364 
L 344.114354 61.271052 
L 368.143062 57.961244 
L 392.17177 59.518219 
L 416.200478 60.844609 
L 440.229187 56.968095 
L 464.257895 58.863564 
L 488.286603 60.500681 
L 512.315311 56.46358 
L 536.344019 58.183624 
L 560.372727 60.036273 
" clip-path="url(#p793bdf1328)" style="fill: none; stroke-dasharray: 3.7,1.6; stroke-dashoffset: 0; stroke: #8c564b; stroke-opacity: 0.6"/>
   </g>
   <g id="line2d_90">
    <path d="M 103.827273 307.8 
L 127.855981 296.817097 
L 151.884689 272.335493 
L 175.913397 235.784583 
L 199.942105 195.021909 
L 223.970813 155.581178 
L 247.999522 121.412119 
L 272.02823 95.851803 
L 296.056938 77.835778 
L 320.085646 68.220734 
L 344.114354 62.368173 
L 368.143062 59.015314 
L 392.17177 60.37297 
L 416.200478 61.892564 
L 440.229187 58.184682 
L 464.257895 59.764974 
L 488.286603 61.301056 
L 512.315311 57.817555 
L 536.344019 59.106054 
L 560.372727 60.640973 
" clip-path="url(#p793bdf1328)" style="fill: none; stroke-dasharray: 3.7,1.6; stroke-dashoffset: 0; stroke: #e377c2; stroke-opacity: 0.6"/>
   </g>
   <g id="line2d_91">
    <path d="M 103.827273 307.8 
L 127.855981 298.718285 
L 151.884689 279.713348 
L 175.913397 247.866177 
L 199.942105 207.071153 
L 223.970813 162.607865 
L 247.999522 120.371956 
L 272.02823 92.556332 
L 296.056938 75.318081 
L 320.085646 65.334326 
L 344.114354 60.528246 
L 368.143062 57.108812 
L 392.17177 58.964517 
L 416.200478 60.603049 
L 440.229187 56.964353 
L 464.257895 58.657163 
L 488.286603 60.272856 
L 512.315311 61.354852 
L 536.344019 57.47203 
L 560.372727 58.782699 
" clip-path="url(#p793bdf1328)" style="fill: none; stroke-dasharray: 3.7,1.6; stroke-dashoffset: 0; stroke: #7f7f7f; stroke-opacity: 0.6"/>
   </g>
   <g id="line2d_92">
    <path d="M 103.827273 307.8 
L 127.855981 291.867013 
L 151.884689 263.716129 
L 175.913397 221.905486 
L 199.942105 179.20032 
L 223.970813 138.987004 
L 247.999522 107.648085 
L 272.02823 83.775861 
L 296.056938 72.206084 
L 320.085646 64.371111 
L 344.114354 60.485825 
L 368.143062 56.776504 
L 392.17177 58.581798 
L 416.200478 60.004879 
L 440.229187 61.79338 
L 464.257895 57.667993 
L 488.286603 59.524114 
L 512.315311 61.26406 
L 536.344019 56.5957 
L 560.372727 58.264019 
" clip-path="url(#p793bdf1328)" style="fill: none; stroke-dasharray: 3.7,1.6; stroke-dashoffset: 0; stroke: #bcbd22; stroke-opacity: 0.6"/>
   </g>
   <g id="line2d_93">
    <path d="M 103.827273 307.8 
L 127.855981 293.124659 
L 151.884689 265.00853 
L 175.913397 223.145333 
L 199.942105 172.405244 
L 223.970813 129.730179 
L 247.999522 96.114315 
L 272.02823 74.733926 
L 296.056938 65.876679 
L 320.085646 60.071799 
L 344.114354 62.065115 
L 368.143062 57.790834 
L 392.17177 59.489465 
L 416.200478 61.130394 
L 440.229187 56.636865 
L 464.257895 58.345085 
L 488.286603 60.091607 
L 512.315311 61.580298 
L 536.344019 57.691413 
L 560.372727 59.469323 
" clip-path="url(#p793bdf1328)" style="fill: none; stroke-dasharray: 3.7,1.6; stroke-dashoffset: 0; stroke: #17becf; stroke-opacity: 0.6"/>
   </g>
   <g id="line2d_94">
    <path d="M 103.827273 307.8 
L 127.855981 294.501278 
L 151.884689 276.596912 
L 175.913397 251.544109 
L 199.942105 215.788264 
L 223.970813 175.936084 
L 247.999522 139.164385 
L 272.02823 109.226604 
L 296.056938 85.248592 
L 320.085646 72.461593 
L 344.114354 65.680263 
L 368.143062 60.80717 
L 392.17177 56.625981 
L 416.200478 58.570962 
L 440.229187 60.123743 
L 464.257895 61.379249 
L 488.286603 57.259789 
L 512.315311 58.842412 
L 536.344019 60.062355 
L 560.372727 61.13566 
" clip-path="url(#p793bdf1328)" style="fill: none; stroke-dasharray: 3.7,1.6; stroke-dashoffset: 0; stroke: #1f77b4; stroke-opacity: 0.6"/>
   </g>
   <g id="line2d_95">
    <path d="M 103.827273 307.8 
L 127.855981 294.766562 
L 151.884689 272.128496 
L 175.913397 236.43884 
L 199.942105 195.105616 
L 223.970813 150.190888 
L 247.999522 114.687159 
L 272.02823 90.434621 
L 296.056938 73.508396 
L 320.085646 65.414596 
L 344.114354 60.84769 
L 368.143062 57.508801 
L 392.17177 59.440553 
L 416.200478 60.917462 
L 440.229187 57.184783 
L 464.257895 58.855995 
L 488.286603 60.466989 
L 512.315311 56.842133 
L 536.344019 58.246378 
L 560.372727 60.044713 
" clip-path="url(#p793bdf1328)" style="fill: none; stroke-dasharray: 3.7,1.6; stroke-dashoffset: 0; stroke: #ff7f0e; stroke-opacity: 0.6"/>
   </g>
   <g id="line2d_96">
    <path d="M 103.827273 307.8 
L 127.855981 298.530591 
L 151.884689 279.397662 
L 175.913397 248.093946 
L 199.942105 209.458493 
L 223.970813 166.385868 
L 247.999522 127.928396 
L 272.02823 101.113254 
L 296.056938 81.849142 
L 320.085646 69.194557 
L 344.114354 63.016653 
L 368.143062 59.319335 
L 392.17177 60.891862 
L 416.200478 57.310142 
L 440.229187 58.943913 
L 464.257895 60.551955 
L 488.286603 56.839741 
L 512.315311 58.539543 
L 536.344019 60.282498 
L 560.372727 61.663825 
" clip-path="url(#p793bdf1328)" style="fill: none; stroke-dasharray: 3.7,1.6; stroke-dashoffset: 0; stroke: #2ca02c; stroke-opacity: 0.6"/>
   </g>
   <g id="line2d_97">
    <path d="M 103.827273 307.8 
L 127.855981 297.768159 
L 151.884689 276.40769 
L 175.913397 244.996542 
L 199.942105 205.232822 
L 223.970813 165.416698 
L 247.999522 129.811107 
L 272.02823 102.354523 
L 296.056938 82.134633 
L 320.085646 70.510153 
L 344.114354 63.385697 
L 368.143062 59.73816 
L 392.17177 61.569411 
L 416.200478 57.574376 
L 440.229187 59.331375 
L 464.257895 60.802908 
L 488.286603 57.496336 
L 512.315311 59.349408 
L 536.344019 60.646308 
L 560.372727 57.076052 
" clip-path="url(#p793bdf1328)" style="fill: none; stroke-dasharray: 3.7,1.6; stroke-dashoffset: 0; stroke: #d62728; stroke-opacity: 0.6"/>
   </g>
   <g id="line2d_98">
    <path d="M 103.827273 307.8 
L 127.855981 297.828351 
L 151.884689 284.07335 
L 175.913397 260.823868 
L 199.942105 230.05568 
L 223.970813 188.232876 
L 247.999522 151.726282 
L 272.02823 119.742296 
L 296.056938 96.683196 
L 320.085646 80.206763 
L 344.114354 70.05336 
L 368.143062 64.851032 
L 392.17177 60.410012 
L 416.200478 62.10312 
L 440.229187 58.163067 
L 464.257895 59.69651 
L 488.286603 61.608771 
L 512.315311 57.511798 
L 536.344019 59.09406 
L 560.372727 60.725882 
" clip-path="url(#p793bdf1328)" style="fill: none; stroke-dasharray: 3.7,1.6; stroke-dashoffset: 0; stroke: #9467bd; stroke-opacity: 0.6"/>
   </g>
   <g id="line2d_99">
    <path d="M 103.827273 307.8 
L 127.855981 297.58358 
L 151.884689 280.41798 
L 175.913397 253.967377 
L 199.942105 222.590107 
L 223.970813 188.543396 
L 247.999522 151.955127 
L 272.02823 120.4154 
L 296.056938 96.47496 
L 320.085646 79.816246 
L 344.114354 68.435784 
L 368.143062 62.073743 
L 392.17177 57.810974 
L 416.200478 59.699897 
L 440.229187 61.542754 
L 464.257895 57.608076 
L 488.286603 59.396903 
L 512.315311 60.33331 
L 536.344019 62.030822 
L 560.372727 58.048689 
" clip-path="url(#p793bdf1328)" style="fill: none; stroke-dasharray: 3.7,1.6; stroke-dashoffset: 0; stroke: #8c564b; stroke-opacity: 0.6"/>
   </g>
   <g id="line2d_100">
    <path d="M 103.827273 307.8 
L 127.855981 291.546319 
L 151.884689 259.639326 
L 175.913397 215.323319 
L 199.942105 169.906468 
L 223.970813 128.382946 
L 247.999522 98.245451 
L 272.02823 79.269935 
L 296.056938 69.022684 
L 320.085646 63.720642 
L 344.114354 59.920697 
L 368.143062 61.699455 
L 392.17177 57.806064 
L 416.200478 59.049269 
L 440.229187 60.593235 
L 464.257895 57.107087 
L 488.286603 58.732179 
L 512.315311 60.221344 
L 536.344019 61.821445 
L 560.372727 57.318164 
" clip-path="url(#p793bdf1328)" style="fill: none; stroke-dasharray: 3.7,1.6; stroke-dashoffset: 0; stroke: #e377c2; stroke-opacity: 0.6"/>
   </g>
   <g id="line2d_101">
    <path d="M 103.827273 307.8 
L 127.855981 294.724964 
L 151.884689 271.145484 
L 175.913397 233.405491 
L 199.942105 182.733099 
L 223.970813 139.205113 
L 247.999522 106.895708 
L 272.02823 84.586162 
L 296.056938 71.778348 
L 320.085646 64.890363 
L 344.114354 61.37449 
L 368.143062 57.417252 
L 392.17177 59.368079 
L 416.200478 60.804976 
L 440.229187 57.271963 
L 464.257895 59.00393 
L 488.286603 60.212802 
L 512.315311 61.890709 
L 536.344019 57.483825 
L 560.372727 59.073845 
" clip-path="url(#p793bdf1328)" style="fill: none; stroke-dasharray: 3.7,1.6; stroke-dashoffset: 0; stroke: #7f7f7f; stroke-opacity: 0.6"/>
   </g>
   <g id="line2d_102">
    <path d="M 103.827273 307.8 
L 127.855981 300.195552 
L 151.884689 284.886431 
L 175.913397 255.781222 
L 199.942105 217.006425 
L 223.970813 176.627215 
L 247.999522 136.932338 
L 272.02823 103.692863 
L 296.056938 82.492287 
L 320.085646 69.700453 
L 344.114354 63.462972 
L 368.143062 59.426 
L 392.17177 61.393159 
L 416.200478 57.288567 
L 440.229187 59.149852 
L 464.257895 60.797593 
L 488.286603 56.692219 
L 512.315311 58.614143 
L 536.344019 60.280378 
L 560.372727 62.002515 
" clip-path="url(#p793bdf1328)" style="fill: none; stroke-dasharray: 3.7,1.6; stroke-dashoffset: 0; stroke: #bcbd22; stroke-opacity: 0.6"/>
   </g>
   <g id="line2d_103">
    <path d="M 103.827273 307.8 
L 127.855981 299.284885 
L 151.884689 278.323067 
L 175.913397 242.395622 
L 199.942105 196.322521 
L 223.970813 152.685088 
L 247.999522 118.651327 
L 272.02823 92.469386 
L 296.056938 74.699669 
L 320.085646 66.941573 
L 344.114354 60.923843 
L 368.143062 56.613854 
L 392.17177 58.499134 
L 416.200478 59.913632 
L 440.229187 61.129198 
L 464.257895 57.071507 
L 488.286603 58.914377 
L 512.315311 60.310171 
L 536.344019 61.026264 
L 560.372727 56.691012 
" clip-path="url(#p793bdf1328)" style="fill: none; stroke-dasharray: 3.7,1.6; stroke-dashoffset: 0; stroke: #17becf; stroke-opacity: 0.6"/>
   </g>
   <g id="line2d_104">
    <path d="M 103.827273 307.8 
L 127.855981 293.151235 
L 151.884689 270.098888 
L 175.913397 238.533914 
L 199.942105 198.212047 
L 223.970813 157.389131 
L 247.999522 120.820879 
L 272.02823 94.341576 
L 296.056938 78.427725 
L 320.085646 68.452015 
L 344.114354 62.256772 
L 368.143062 58.114087 
L 392.17177 60.020038 
L 416.200478 61.450147 
L 440.229187 57.781627 
L 464.257895 59.546697 
L 488.286603 61.081692 
L 512.315311 57.008541 
L 536.344019 58.859469 
L 560.372727 60.137214 
" clip-path="url(#p793bdf1328)" style="fill: none; stroke-dasharray: 3.7,1.6; stroke-dashoffset: 0; stroke: #1f77b4; stroke-opacity: 0.6"/>
   </g>
   <g id="line2d_105">
    <path d="M 103.827273 307.8 
L 127.855981 298.38963 
L 151.884689 274.539358 
L 175.913397 235.74808 
L 199.942105 185.873856 
L 223.970813 138.948269 
L 247.999522 104.924365 
L 272.02823 81.167747 
L 296.056938 68.567789 
L 320.085646 62.669699 
L 344.114354 59.23739 
L 368.143062 60.933555 
L 392.17177 57.608016 
L 416.200478 59.370461 
L 440.229187 60.949134 
L 464.257895 57.522154 
L 488.286603 59.16389 
L 512.315311 60.462559 
L 536.344019 57.040834 
L 560.372727 58.542326 
" clip-path="url(#p793bdf1328)" style="fill: none; stroke-dasharray: 3.7,1.6; stroke-dashoffset: 0; stroke: #ff7f0e; stroke-opacity: 0.6"/>
   </g>
   <g id="line2d_106">
    <path d="M 103.827273 307.8 
L 127.855981 297.517206 
L 151.884689 276.037993 
L 175.913397 242.783041 
L 199.942105 197.827608 
L 223.970813 152.33754 
L 247.999522 117.550804 
L 272.02823 93.095052 
L 296.056938 76.001646 
L 320.085646 66.149278 
L 344.114354 61.201123 
L 368.143062 57.852946 
L 392.17177 59.541586 
L 416.200478 61.267014 
L 440.229187 57.534241 
L 464.257895 59.108554 
L 488.286603 60.803279 
L 512.315311 57.326901 
L 536.344019 59.17729 
L 560.372727 60.762677 
" clip-path="url(#p793bdf1328)" style="fill: none; stroke-dasharray: 3.7,1.6; stroke-dashoffset: 0; stroke: #2ca02c; stroke-opacity: 0.6"/>
   </g>
   <g id="line2d_107">
    <path d="M 103.827273 307.8 
L 127.855981 293.650009 
L 151.884689 266.959544 
L 175.913397 228.904226 
L 199.942105 182.718191 
L 223.970813 141.422242 
L 247.999522 106.772635 
L 272.02823 84.222895 
L 296.056938 71.669976 
L 320.085646 64.271927 
L 344.114354 60.246674 
L 368.143062 61.591496 
L 392.17177 57.239762 
L 416.200478 58.788628 
L 440.229187 60.352587 
L 464.257895 61.759617 
L 488.286603 56.749764 
L 512.315311 58.092201 
L 536.344019 59.33687 
L 560.372727 60.960426 
" clip-path="url(#p793bdf1328)" style="fill: none; stroke-dasharray: 3.7,1.6; stroke-dashoffset: 0; stroke: #d62728; stroke-opacity: 0.6"/>
   </g>
   <g id="line2d_108">
    <path d="M 103.827273 307.8 
L 127.855981 293.617974 
L 151.884689 273.747782 
L 175.913397 243.16087 
L 199.942105 202.945933 
L 223.970813 161.252489 
L 247.999522 120.465931 
L 272.02823 92.807827 
L 296.056938 74.834386 
L 320.085646 67.08919 
L 344.114354 60.601592 
L 368.143062 56.638861 
L 392.17177 58.601666 
L 416.200478 60.189922 
L 440.229187 61.512867 
L 464.257895 57.146471 
L 488.286603 58.608017 
L 512.315311 60.236878 
L 536.344019 62.105239 
L 560.372727 57.140329 
" clip-path="url(#p793bdf1328)" style="fill: none; stroke-dasharray: 3.7,1.6; stroke-dashoffset: 0; stroke: #9467bd; stroke-opacity: 0.6"/>
   </g>
   <g id="line2d_109">
    <path d="M 103.827273 307.8 
L 127.855981 299.670453 
L 151.884689 281.378764 
L 175.913397 253.305095 
L 199.942105 212.311008 
L 223.970813 169.997932 
L 247.999522 133.701346 
L 272.02823 104.451474 
L 296.056938 83.581683 
L 320.085646 71.070895 
L 344.114354 64.608163 
L 368.143062 61.047325 
L 392.17177 57.741402 
L 416.200478 59.532144 
L 440.229187 61.046968 
L 464.257895 57.541323 
L 488.286603 59.168922 
L 512.315311 60.281084 
L 536.344019 61.844195 
L 560.372727 58.061339 
" clip-path="url(#p793bdf1328)" style="fill: none; stroke-dasharray: 3.7,1.6; stroke-dashoffset: 0; stroke: #8c564b; stroke-opacity: 0.6"/>
   </g>
   <g id="line2d_110">
    <path d="M 103.827273 307.8 
L 127.855981 293.512111 
L 151.884689 264.336175 
L 175.913397 224.78758 
L 199.942105 184.031493 
L 223.970813 144.579073 
L 247.999522 112.902518 
L 272.02823 90.587657 
L 296.056938 74.464395 
L 320.085646 67.489096 
L 344.114354 61.785226 
L 368.143062 58.544346 
L 392.17177 60.266763 
L 416.200478 61.924706 
L 440.229187 58.268029 
L 464.257895 59.709715 
L 488.286603 61.136892 
L 512.315311 57.541132 
L 536.344019 59.223159 
L 560.372727 60.625538 
" clip-path="url(#p793bdf1328)" style="fill: none; stroke-dasharray: 3.7,1.6; stroke-dashoffset: 0; stroke: #e377c2; stroke-opacity: 0.6"/>
   </g>
   <g id="line2d_111">
    <path d="M 103.827273 307.8 
L 127.855981 300.039643 
L 151.884689 282.050399 
L 175.913397 255.618235 
L 199.942105 220.42851 
L 223.970813 174.954251 
L 247.999522 132.359017 
L 272.02823 102.518225 
L 296.056938 82.655815 
L 320.085646 70.872999 
L 344.114354 63.45957 
L 368.143062 59.282822 
L 392.17177 60.859436 
L 416.200478 56.841153 
L 440.229187 58.538216 
L 464.257895 60.400904 
L 488.286603 62.149432 
L 512.315311 57.303055 
L 536.344019 58.883863 
L 560.372727 60.181412 
" clip-path="url(#p793bdf1328)" style="fill: none; stroke-dasharray: 3.7,1.6; stroke-dashoffset: 0; stroke: #7f7f7f; stroke-opacity: 0.6"/>
   </g>
   <g id="line2d_112">
    <path d="M 103.827273 307.8 
L 127.855981 298.355303 
L 151.884689 280.067475 
L 175.913397 251.049751 
L 199.942105 214.350253 
L 223.970813 173.053671 
L 247.999522 136.345334 
L 272.02823 105.5179 
L 296.056938 83.396423 
L 320.085646 72.15295 
L 344.114354 65.31244 
L 368.143062 61.409412 
L 392.17177 57.619068 
L 416.200478 59.346856 
L 440.229187 60.3975 
L 464.257895 62.054678 
L 488.286603 58.390434 
L 512.315311 60.065657 
L 536.344019 61.785565 
L 560.372727 57.858037 
" clip-path="url(#p793bdf1328)" style="fill: none; stroke-dasharray: 3.7,1.6; stroke-dashoffset: 0; stroke: #bcbd22; stroke-opacity: 0.6"/>
   </g>
   <g id="line2d_113">
    <path d="M 103.827273 307.8 
L 127.855981 299.330783 
L 151.884689 280.587981 
L 175.913397 253.209994 
L 199.942105 219.820154 
L 223.970813 183.16897 
L 247.999522 144.875918 
L 272.02823 115.040951 
L 296.056938 88.86626 
L 320.085646 76.607978 
L 344.114354 66.65331 
L 368.143062 61.296202 
L 392.17177 57.601791 
L 416.200478 59.101674 
L 440.229187 60.613981 
L 464.257895 57.013469 
L 488.286603 58.673133 
L 512.315311 60.348479 
L 536.344019 61.845886 
L 560.372727 57.948876 
" clip-path="url(#p793bdf1328)" style="fill: none; stroke-dasharray: 3.7,1.6; stroke-dashoffset: 0; stroke: #17becf; stroke-opacity: 0.6"/>
   </g>
   <g id="line2d_114">
    <path d="M 103.827273 307.8 
L 127.855981 296.455759 
L 151.884689 275.137745 
L 175.913397 242.70162 
L 199.942105 202.687955 
L 223.970813 161.180854 
L 247.999522 125.015918 
L 272.02823 97.636951 
L 296.056938 79.541124 
L 320.085646 68.932017 
L 344.114354 62.916378 
L 368.143062 59.832472 
L 392.17177 58.924791 
L 416.200478 59.500779 
L 440.229187 59.322027 
L 464.257895 58.815748 
L 488.286603 59.270829 
L 512.315311 59.554009 
L 536.344019 59.27127 
L 560.372727 58.983812 
" clip-path="url(#p793bdf1328)" style="fill: none; stroke: #000000; stroke-width: 2.5; stroke-linecap: square"/>
   </g>
   <g id="patch_3">
    <path d="M 81 320.4 
L 81 43.2 
" style="fill: none; stroke: #000000; stroke-width: 0.8; stroke-linejoin: miter; stroke-linecap: square"/>
   </g>
   <g id="patch_4">
    <path d="M 583.2 320.4 
L 583.2 43.2 
" style="fill: none; stroke: #000000; stroke-width: 0.8; stroke-linejoin: miter; stroke-linecap: square"/>
   </g>
   <g id="patch_5">
    <path d="M 81 320.4 
L 583.2 320.4 
" style="fill: none; stroke: #000000; stroke-width: 0.8; stroke-linejoin: miter; stroke-linecap: square"/>
   </g>
   <g id="patch_6">
    <path d="M 81 43.2 
L 583.2 43.2 
" style="fill: none; stroke: #000000; stroke-width: 0.8; stroke-linejoin: miter; stroke-linecap: square"/>
   </g>
   <g id="legend_1">
    <g id="patch_7">
     <path d="M 88 65.878125 
L 161.065625 65.878125 
Q 163.065625 65.878125 163.065625 63.878125 
L 163.065625 50.2 
Q 163.065625 48.2 161.065625 48.2 
L 88 48.2 
Q 86 48.2 86 50.2 
L 86 63.878125 
Q 86 65.878125 88 65.878125 
z
" style="fill: #ffffff; opacity: 0.8; stroke: #cccccc; stroke-linejoin: miter"/>
    </g>
    <g id="line2d_115">
     <path d="M 90 56.298437 
L 100 56.298437 
L 110 56.298437 
" style="fill: none; stroke: #000000; stroke-width: 2.5; stroke-linecap: square"/>
    </g>
    <g id="text_16">
     <!-- Average -->
     <g transform="translate(118 59.798437) scale(0.1 -0.1)">
      <defs>
       <path id="DejaVuSans-41" d="M 2188 4044 
L 1331 1722 
L 3047 1722 
L 2188 4044 
z
M 1831 4666 
L 2547 4666 
L 4325 0 
L 3669 0 
L 3244 1197 
L 1141 1197 
L 716 0 
L 50 0 
L 1831 4666 
z
" transform="scale(0.015625)"/>
       <path id="DejaVuSans-67" d="M 2906 1791 
Q 2906 2416 2648 2759 
Q 2391 3103 1925 3103 
Q 1463 3103 1205 2759 
Q 947 2416 947 1791 
Q 947 1169 1205 825 
Q 1463 481 1925 481 
Q 2391 481 2648 825 
Q 2906 1169 2906 1791 
z
M 3481 434 
Q 3481 -459 3084 -895 
Q 2688 -1331 1869 -1331 
Q 1566 -1331 1297 -1286 
Q 1028 -1241 775 -1147 
L 775 -588 
Q 1028 -725 1275 -790 
Q 1522 -856 1778 -856 
Q 2344 -856 2625 -561 
Q 2906 -266 2906 331 
L 2906 616 
Q 2728 306 2450 153 
Q 2172 0 1784 0 
Q 1141 0 747 490 
Q 353 981 353 1791 
Q 353 2603 747 3093 
Q 1141 3584 1784 3584 
Q 2172 3584 2450 3431 
Q 2728 3278 2906 2969 
L 2906 3500 
L 3481 3500 
L 3481 434 
z
" transform="scale(0.015625)"/>
      </defs>
      <use xlink:href="#DejaVuSans-41"/>
      <use xlink:href="#DejaVuSans-76" x="62.533203"/>
      <use xlink:href="#DejaVuSans-65" x="121.712891"/>
      <use xlink:href="#DejaVuSans-72" x="183.236328"/>
      <use xlink:href="#DejaVuSans-61" x="224.349609"/>
      <use xlink:href="#DejaVuSans-67" x="285.628906"/>
      <use xlink:href="#DejaVuSans-65" x="349.105469"/>
     </g>
    </g>
   </g>
  </g>
 </g>
 <defs>
  <clipPath id="p793bdf1328">
   <rect x="81" y="43.2" width="502.2" height="277.2"/>
  </clipPath>
 </defs>
</svg>
