<?xml version="1.0" encoding="utf-8" standalone="no"?>
<!DOCTYPE svg PUBLIC "-//W3C//DTD SVG 1.1//EN"
  "http://www.w3.org/Graphics/SVG/1.1/DTD/svg11.dtd">
<svg xmlns:xlink="http://www.w3.org/1999/xlink" width="648pt" height="360pt" viewBox="0 0 648 360" xmlns="http://www.w3.org/2000/svg" version="1.1">
 <metadata>
  <rdf:RDF xmlns:dc="http://purl.org/dc/elements/1.1/" xmlns:cc="http://creativecommons.org/ns#" xmlns:rdf="http://www.w3.org/1999/02/22-rdf-syntax-ns#">
   <cc:Work>
    <dc:type rdf:resource="http://purl.org/dc/dcmitype/StillImage"/>
    <dc:date>2025-08-29T13:21:18.570838</dc:date>
    <dc:format>image/svg+xml</dc:format>
    <dc:creator>
     <cc:Agent>
      <dc:title>Matplotlib v3.7.2, https://matplotlib.org/</dc:title>
     </cc:Agent>
    </dc:creator>
   </cc:Work>
  </rdf:RDF>
 </metadata>
 <defs>
  <style type="text/css">*{stroke-linejoin: round; stroke-linecap: butt}</style>
 </defs>
 <g id="figure_1">
  <g id="patch_1">
   <path d="M 0 360 
L 648 360 
L 648 0 
L 0 0 
z
" style="fill: #ffffff"/>
  </g>
  <g id="axes_1">
   <g id="patch_2">
    <path d="M 81 320.4 
L 583.2 320.4 
L 583.2 43.2 
L 81 43.2 
z
" style="fill: #ffffff"/>
   </g>
   <g id="matplotlib.axis_1">
    <g id="xtick_1">
     <g id="line2d_1">
      <defs>
       <path id="m153268b5e2" d="M 0 0 
L 0 3.5 
" style="stroke: #000000; stroke-width: 0.8"/>
      </defs>
      <g>
       <use xlink:href="#m153268b5e2" x="103.827273" y="320.4" style="stroke: #000000; stroke-width: 0.8"/>
      </g>
     </g>
     <g id="text_1">
      <!-- 2005 -->
      <g transform="translate(88.557273 336.518125) scale(0.12 -0.12)">
       <defs>
        <path id="DejaVuSans-32" d="M 1228 531 
L 3431 531 
L 3431 0 
L 469 0 
L 469 531 
Q 828 903 1448 1529 
Q 2069 2156 2228 2338 
Q 2531 2678 2651 2914 
Q 2772 3150 2772 3378 
Q 2772 3750 2511 3984 
Q 2250 4219 1831 4219 
Q 1534 4219 1204 4116 
Q 875 4013 500 3803 
L 500 4441 
Q 881 4594 1212 4672 
Q 1544 4750 1819 4750 
Q 2544 4750 2975 4387 
Q 3406 4025 3406 3419 
Q 3406 3131 3298 2873 
Q 3191 2616 2906 2266 
Q 2828 2175 2409 1742 
Q 1991 1309 1228 531 
z
" transform="scale(0.015625)"/>
        <path id="DejaVuSans-30" d="M 2034 4250 
Q 1547 4250 1301 3770 
Q 1056 3291 1056 2328 
Q 1056 1369 1301 889 
Q 1547 409 2034 409 
Q 2525 409 2770 889 
Q 3016 1369 3016 2328 
Q 3016 3291 2770 3770 
Q 2525 4250 2034 4250 
z
M 2034 4750 
Q 2819 4750 3233 4129 
Q 3647 3509 3647 2328 
Q 3647 1150 3233 529 
Q 2819 -91 2034 -91 
Q 1250 -91 836 529 
Q 422 1150 422 2328 
Q 422 3509 836 4129 
Q 1250 4750 2034 4750 
z
" transform="scale(0.015625)"/>
        <path id="DejaVuSans-35" d="M 691 4666 
L 3169 4666 
L 3169 4134 
L 1269 4134 
L 1269 2991 
Q 1406 3038 1543 3061 
Q 1681 3084 1819 3084 
Q 2600 3084 3056 2656 
Q 3513 2228 3513 1497 
Q 3513 744 3044 326 
Q 2575 -91 1722 -91 
Q 1428 -91 1123 -41 
Q 819 9 494 109 
L 494 744 
Q 775 591 1075 516 
Q 1375 441 1709 441 
Q 2250 441 2565 725 
Q 2881 1009 2881 1497 
Q 2881 1984 2565 2268 
Q 2250 2553 1709 2553 
Q 1456 2553 1204 2497 
Q 953 2441 691 2322 
L 691 4666 
z
" transform="scale(0.015625)"/>
       </defs>
       <use xlink:href="#DejaVuSans-32"/>
       <use xlink:href="#DejaVuSans-30" x="63.623047"/>
       <use xlink:href="#DejaVuSans-30" x="127.246094"/>
       <use xlink:href="#DejaVuSans-35" x="190.869141"/>
      </g>
     </g>
    </g>
    <g id="xtick_2">
     <g id="line2d_2">
      <g>
       <use xlink:href="#m153268b5e2" x="163.899043" y="320.4" style="stroke: #000000; stroke-width: 0.8"/>
      </g>
     </g>
     <g id="text_2">
      <!-- 2007 -->
      <g transform="translate(148.629043 336.518125) scale(0.12 -0.12)">
       <defs>
        <path id="DejaVuSans-37" d="M 525 4666 
L 3525 4666 
L 3525 4397 
L 1831 0 
L 1172 0 
L 2766 4134 
L 525 4134 
L 525 4666 
z
" transform="scale(0.015625)"/>
       </defs>
       <use xlink:href="#DejaVuSans-32"/>
       <use xlink:href="#DejaVuSans-30" x="63.623047"/>
       <use xlink:href="#DejaVuSans-30" x="127.246094"/>
       <use xlink:href="#DejaVuSans-37" x="190.869141"/>
      </g>
     </g>
    </g>
    <g id="xtick_3">
     <g id="line2d_3">
      <g>
       <use xlink:href="#m153268b5e2" x="223.970813" y="320.4" style="stroke: #000000; stroke-width: 0.8"/>
      </g>
     </g>
     <g id="text_3">
      <!-- 2010 -->
      <g transform="translate(208.700813 336.518125) scale(0.12 -0.12)">
       <defs>
        <path id="DejaVuSans-31" d="M 794 531 
L 1825 531 
L 1825 4091 
L 703 3866 
L 703 4441 
L 1819 4666 
L 2450 4666 
L 2450 531 
L 3481 531 
L 3481 0 
L 794 0 
L 794 531 
z
" transform="scale(0.015625)"/>
       </defs>
       <use xlink:href="#DejaVuSans-32"/>
       <use xlink:href="#DejaVuSans-30" x="63.623047"/>
       <use xlink:href="#DejaVuSans-31" x="127.246094"/>
       <use xlink:href="#DejaVuSans-30" x="190.869141"/>
      </g>
     </g>
    </g>
    <g id="xtick_4">
     <g id="line2d_4">
      <g>
       <use xlink:href="#m153268b5e2" x="284.042584" y="320.4" style="stroke: #000000; stroke-width: 0.8"/>
      </g>
     </g>
     <g id="text_4">
      <!-- 2012 -->
      <g transform="translate(268.772584 336.518125) scale(0.12 -0.12)">
       <use xlink:href="#DejaVuSans-32"/>
       <use xlink:href="#DejaVuSans-30" x="63.623047"/>
       <use xlink:href="#DejaVuSans-31" x="127.246094"/>
       <use xlink:href="#DejaVuSans-32" x="190.869141"/>
      </g>
     </g>
    </g>
    <g id="xtick_5">
     <g id="line2d_5">
      <g>
       <use xlink:href="#m153268b5e2" x="344.114354" y="320.4" style="stroke: #000000; stroke-width: 0.8"/>
      </g>
     </g>
     <g id="text_5">
      <!-- 2015 -->
      <g transform="translate(328.844354 336.518125) scale(0.12 -0.12)">
       <use xlink:href="#DejaVuSans-32"/>
       <use xlink:href="#DejaVuSans-30" x="63.623047"/>
       <use xlink:href="#DejaVuSans-31" x="127.246094"/>
       <use xlink:href="#DejaVuSans-35" x="190.869141"/>
      </g>
     </g>
    </g>
    <g id="xtick_6">
     <g id="line2d_6">
      <g>
       <use xlink:href="#m153268b5e2" x="404.186124" y="320.4" style="stroke: #000000; stroke-width: 0.8"/>
      </g>
     </g>
     <g id="text_6">
      <!-- 2017 -->
      <g transform="translate(388.916124 336.518125) scale(0.12 -0.12)">
       <use xlink:href="#DejaVuSans-32"/>
       <use xlink:href="#DejaVuSans-30" x="63.623047"/>
       <use xlink:href="#DejaVuSans-31" x="127.246094"/>
       <use xlink:href="#DejaVuSans-37" x="190.869141"/>
      </g>
     </g>
    </g>
    <g id="xtick_7">
     <g id="line2d_7">
      <g>
       <use xlink:href="#m153268b5e2" x="464.257895" y="320.4" style="stroke: #000000; stroke-width: 0.8"/>
      </g>
     </g>
     <g id="text_7">
      <!-- 2020 -->
      <g transform="translate(448.987895 336.518125) scale(0.12 -0.12)">
       <use xlink:href="#DejaVuSans-32"/>
       <use xlink:href="#DejaVuSans-30" x="63.623047"/>
       <use xlink:href="#DejaVuSans-32" x="127.246094"/>
       <use xlink:href="#DejaVuSans-30" x="190.869141"/>
      </g>
     </g>
    </g>
    <g id="xtick_8">
     <g id="line2d_8">
      <g>
       <use xlink:href="#m153268b5e2" x="524.329665" y="320.4" style="stroke: #000000; stroke-width: 0.8"/>
      </g>
     </g>
     <g id="text_8">
      <!-- 2022 -->
      <g transform="translate(509.059665 336.518125) scale(0.12 -0.12)">
       <use xlink:href="#DejaVuSans-32"/>
       <use xlink:href="#DejaVuSans-30" x="63.623047"/>
       <use xlink:href="#DejaVuSans-32" x="127.246094"/>
       <use xlink:href="#DejaVuSans-32" x="190.869141"/>
      </g>
     </g>
    </g>
    <g id="text_9">
     <!-- Year -->
     <g transform="translate(316.21875 354.411406) scale(0.15 -0.15)">
      <defs>
       <path id="DejaVuSans-59" d="M -13 4666 
L 666 4666 
L 1959 2747 
L 3244 4666 
L 3922 4666 
L 2272 2222 
L 2272 0 
L 1638 0 
L 1638 2222 
L -13 4666 
z
" transform="scale(0.015625)"/>
       <path id="DejaVuSans-65" d="M 3597 1894 
L 3597 1613 
L 953 1613 
Q 991 1019 1311 708 
Q 1631 397 2203 397 
Q 2534 397 2845 478 
Q 3156 559 3463 722 
L 3463 178 
Q 3153 47 2828 -22 
Q 2503 -91 2169 -91 
Q 1331 -91 842 396 
Q 353 884 353 1716 
Q 353 2575 817 3079 
Q 1281 3584 2069 3584 
Q 2775 3584 3186 3129 
Q 3597 2675 3597 1894 
z
M 3022 2063 
Q 3016 2534 2758 2815 
Q 2500 3097 2075 3097 
Q 1594 3097 1305 2825 
Q 1016 2553 972 2059 
L 3022 2063 
z
" transform="scale(0.015625)"/>
       <path id="DejaVuSans-61" d="M 2194 1759 
Q 1497 1759 1228 1600 
Q 959 1441 959 1056 
Q 959 750 1161 570 
Q 1363 391 1709 391 
Q 2188 391 2477 730 
Q 2766 1069 2766 1631 
L 2766 1759 
L 2194 1759 
z
M 3341 1997 
L 3341 0 
L 2766 0 
L 2766 531 
Q 2569 213 2275 61 
Q 1981 -91 1556 -91 
Q 1019 -91 701 211 
Q 384 513 384 1019 
Q 384 1609 779 1909 
Q 1175 2209 1959 2209 
L 2766 2209 
L 2766 2266 
Q 2766 2663 2505 2880 
Q 2244 3097 1772 3097 
Q 1472 3097 1187 3025 
Q 903 2953 641 2809 
L 641 3341 
Q 956 3463 1253 3523 
Q 1550 3584 1831 3584 
Q 2591 3584 2966 3190 
Q 3341 2797 3341 1997 
z
" transform="scale(0.015625)"/>
       <path id="DejaVuSans-72" d="M 2631 2963 
Q 2534 3019 2420 3045 
Q 2306 3072 2169 3072 
Q 1681 3072 1420 2755 
Q 1159 2438 1159 1844 
L 1159 0 
L 581 0 
L 581 3500 
L 1159 3500 
L 1159 2956 
Q 1341 3275 1631 3429 
Q 1922 3584 2338 3584 
Q 2397 3584 2469 3576 
Q 2541 3569 2628 3553 
L 2631 2963 
z
" transform="scale(0.015625)"/>
      </defs>
      <use xlink:href="#DejaVuSans-59"/>
      <use xlink:href="#DejaVuSans-65" x="47.833984"/>
      <use xlink:href="#DejaVuSans-61" x="109.357422"/>
      <use xlink:href="#DejaVuSans-72" x="170.636719"/>
     </g>
    </g>
   </g>
   <g id="matplotlib.axis_2">
    <g id="ytick_1">
     <g id="line2d_9">
      <defs>
       <path id="ma6b6f9e671" d="M 0 0 
L -3.5 0 
" style="stroke: #000000; stroke-width: 0.8"/>
      </defs>
      <g>
       <use xlink:href="#ma6b6f9e671" x="81" y="287.195803" style="stroke: #000000; stroke-width: 0.8"/>
      </g>
     </g>
     <g id="text_10">
      <!-- 20 -->
      <g transform="translate(58.73 291.754865) scale(0.12 -0.12)">
       <use xlink:href="#DejaVuSans-32"/>
       <use xlink:href="#DejaVuSans-30" x="63.623047"/>
      </g>
     </g>
    </g>
    <g id="ytick_2">
     <g id="line2d_10">
      <g>
       <use xlink:href="#ma6b6f9e671" x="81" y="238.138191" style="stroke: #000000; stroke-width: 0.8"/>
      </g>
     </g>
     <g id="text_11">
      <!-- 25 -->
      <g transform="translate(58.73 242.697253) scale(0.12 -0.12)">
       <use xlink:href="#DejaVuSans-32"/>
       <use xlink:href="#DejaVuSans-35" x="63.623047"/>
      </g>
     </g>
    </g>
    <g id="ytick_3">
     <g id="line2d_11">
      <g>
       <use xlink:href="#ma6b6f9e671" x="81" y="189.080579" style="stroke: #000000; stroke-width: 0.8"/>
      </g>
     </g>
     <g id="text_12">
      <!-- 30 -->
      <g transform="translate(58.73 193.639641) scale(0.12 -0.12)">
       <defs>
        <path id="DejaVuSans-33" d="M 2597 2516 
Q 3050 2419 3304 2112 
Q 3559 1806 3559 1356 
Q 3559 666 3084 287 
Q 2609 -91 1734 -91 
Q 1441 -91 1130 -33 
Q 819 25 488 141 
L 488 750 
Q 750 597 1062 519 
Q 1375 441 1716 441 
Q 2309 441 2620 675 
Q 2931 909 2931 1356 
Q 2931 1769 2642 2001 
Q 2353 2234 1838 2234 
L 1294 2234 
L 1294 2753 
L 1863 2753 
Q 2328 2753 2575 2939 
Q 2822 3125 2822 3475 
Q 2822 3834 2567 4026 
Q 2313 4219 1838 4219 
Q 1578 4219 1281 4162 
Q 984 4106 628 3988 
L 628 4550 
Q 988 4650 1302 4700 
Q 1616 4750 1894 4750 
Q 2613 4750 3031 4423 
Q 3450 4097 3450 3541 
Q 3450 3153 3228 2886 
Q 3006 2619 2597 2516 
z
" transform="scale(0.015625)"/>
       </defs>
       <use xlink:href="#DejaVuSans-33"/>
       <use xlink:href="#DejaVuSans-30" x="63.623047"/>
      </g>
     </g>
    </g>
    <g id="ytick_4">
     <g id="line2d_12">
      <g>
       <use xlink:href="#ma6b6f9e671" x="81" y="140.022966" style="stroke: #000000; stroke-width: 0.8"/>
      </g>
     </g>
     <g id="text_13">
      <!-- 35 -->
      <g transform="translate(58.73 144.582029) scale(0.12 -0.12)">
       <use xlink:href="#DejaVuSans-33"/>
       <use xlink:href="#DejaVuSans-35" x="63.623047"/>
      </g>
     </g>
    </g>
    <g id="ytick_5">
     <g id="line2d_13">
      <g>
       <use xlink:href="#ma6b6f9e671" x="81" y="90.965354" style="stroke: #000000; stroke-width: 0.8"/>
      </g>
     </g>
     <g id="text_14">
      <!-- 40 -->
      <g transform="translate(58.73 95.524417) scale(0.12 -0.12)">
       <defs>
        <path id="DejaVuSans-34" d="M 2419 4116 
L 825 1625 
L 2419 1625 
L 2419 4116 
z
M 2253 4666 
L 3047 4666 
L 3047 1625 
L 3713 1625 
L 3713 1100 
L 3047 1100 
L 3047 0 
L 2419 0 
L 2419 1100 
L 313 1100 
L 313 1709 
L 2253 4666 
z
" transform="scale(0.015625)"/>
       </defs>
       <use xlink:href="#DejaVuSans-34"/>
       <use xlink:href="#DejaVuSans-30" x="63.623047"/>
      </g>
     </g>
    </g>
    <g id="text_15">
     <!-- Total coral cover (%) -->
     <g transform="translate(51.610469 258.769922) rotate(-90) scale(0.15 -0.15)">
      <defs>
       <path id="DejaVuSans-54" d="M -19 4666 
L 3928 4666 
L 3928 4134 
L 2272 4134 
L 2272 0 
L 1638 0 
L 1638 4134 
L -19 4134 
L -19 4666 
z
" transform="scale(0.015625)"/>
       <path id="DejaVuSans-6f" d="M 1959 3097 
Q 1497 3097 1228 2736 
Q 959 2375 959 1747 
Q 959 1119 1226 758 
Q 1494 397 1959 397 
Q 2419 397 2687 759 
Q 2956 1122 2956 1747 
Q 2956 2369 2687 2733 
Q 2419 3097 1959 3097 
z
M 1959 3584 
Q 2709 3584 3137 3096 
Q 3566 2609 3566 1747 
Q 3566 888 3137 398 
Q 2709 -91 1959 -91 
Q 1206 -91 779 398 
Q 353 888 353 1747 
Q 353 2609 779 3096 
Q 1206 3584 1959 3584 
z
" transform="scale(0.015625)"/>
       <path id="DejaVuSans-74" d="M 1172 4494 
L 1172 3500 
L 2356 3500 
L 2356 3053 
L 1172 3053 
L 1172 1153 
Q 1172 725 1289 603 
Q 1406 481 1766 481 
L 2356 481 
L 2356 0 
L 1766 0 
Q 1100 0 847 248 
Q 594 497 594 1153 
L 594 3053 
L 172 3053 
L 172 3500 
L 594 3500 
L 594 4494 
L 1172 4494 
z
" transform="scale(0.015625)"/>
       <path id="DejaVuSans-6c" d="M 603 4863 
L 1178 4863 
L 1178 0 
L 603 0 
L 603 4863 
z
" transform="scale(0.015625)"/>
       <path id="DejaVuSans-20" transform="scale(0.015625)"/>
       <path id="DejaVuSans-63" d="M 3122 3366 
L 3122 2828 
Q 2878 2963 2633 3030 
Q 2388 3097 2138 3097 
Q 1578 3097 1268 2742 
Q 959 2388 959 1747 
Q 959 1106 1268 751 
Q 1578 397 2138 397 
Q 2388 397 2633 464 
Q 2878 531 3122 666 
L 3122 134 
Q 2881 22 2623 -34 
Q 2366 -91 2075 -91 
Q 1284 -91 818 406 
Q 353 903 353 1747 
Q 353 2603 823 3093 
Q 1294 3584 2113 3584 
Q 2378 3584 2631 3529 
Q 2884 3475 3122 3366 
z
" transform="scale(0.015625)"/>
       <path id="DejaVuSans-76" d="M 191 3500 
L 800 3500 
L 1894 563 
L 2988 3500 
L 3597 3500 
L 2284 0 
L 1503 0 
L 191 3500 
z
" transform="scale(0.015625)"/>
       <path id="DejaVuSans-28" d="M 1984 4856 
Q 1566 4138 1362 3434 
Q 1159 2731 1159 2009 
Q 1159 1288 1364 580 
Q 1569 -128 1984 -844 
L 1484 -844 
Q 1016 -109 783 600 
Q 550 1309 550 2009 
Q 550 2706 781 3412 
Q 1013 4119 1484 4856 
L 1984 4856 
z
" transform="scale(0.015625)"/>
       <path id="DejaVuSans-25" d="M 4653 2053 
Q 4381 2053 4226 1822 
Q 4072 1591 4072 1178 
Q 4072 772 4226 539 
Q 4381 306 4653 306 
Q 4919 306 5073 539 
Q 5228 772 5228 1178 
Q 5228 1588 5073 1820 
Q 4919 2053 4653 2053 
z
M 4653 2450 
Q 5147 2450 5437 2106 
Q 5728 1763 5728 1178 
Q 5728 594 5436 251 
Q 5144 -91 4653 -91 
Q 4153 -91 3862 251 
Q 3572 594 3572 1178 
Q 3572 1766 3864 2108 
Q 4156 2450 4653 2450 
z
M 1428 4353 
Q 1159 4353 1004 4120 
Q 850 3888 850 3481 
Q 850 3069 1003 2837 
Q 1156 2606 1428 2606 
Q 1700 2606 1854 2837 
Q 2009 3069 2009 3481 
Q 2009 3884 1853 4118 
Q 1697 4353 1428 4353 
z
M 4250 4750 
L 4750 4750 
L 1831 -91 
L 1331 -91 
L 4250 4750 
z
M 1428 4750 
Q 1922 4750 2215 4408 
Q 2509 4066 2509 3481 
Q 2509 2891 2217 2550 
Q 1925 2209 1428 2209 
Q 931 2209 642 2551 
Q 353 2894 353 3481 
Q 353 4063 643 4406 
Q 934 4750 1428 4750 
z
" transform="scale(0.015625)"/>
       <path id="DejaVuSans-29" d="M 513 4856 
L 1013 4856 
Q 1481 4119 1714 3412 
Q 1947 2706 1947 2009 
Q 1947 1309 1714 600 
Q 1481 -109 1013 -844 
L 513 -844 
Q 928 -128 1133 580 
Q 1338 1288 1338 2009 
Q 1338 2731 1133 3434 
Q 928 4138 513 4856 
z
" transform="scale(0.015625)"/>
      </defs>
      <use xlink:href="#DejaVuSans-54"/>
      <use xlink:href="#DejaVuSans-6f" x="44.083984"/>
      <use xlink:href="#DejaVuSans-74" x="105.265625"/>
      <use xlink:href="#DejaVuSans-61" x="144.474609"/>
      <use xlink:href="#DejaVuSans-6c" x="205.753906"/>
      <use xlink:href="#DejaVuSans-20" x="233.537109"/>
      <use xlink:href="#DejaVuSans-63" x="265.324219"/>
      <use xlink:href="#DejaVuSans-6f" x="320.304688"/>
      <use xlink:href="#DejaVuSans-72" x="381.486328"/>
      <use xlink:href="#DejaVuSans-61" x="422.599609"/>
      <use xlink:href="#DejaVuSans-6c" x="483.878906"/>
      <use xlink:href="#DejaVuSans-20" x="511.662109"/>
      <use xlink:href="#DejaVuSans-63" x="543.449219"/>
      <use xlink:href="#DejaVuSans-6f" x="598.429688"/>
      <use xlink:href="#DejaVuSans-76" x="659.611328"/>
      <use xlink:href="#DejaVuSans-65" x="718.791016"/>
      <use xlink:href="#DejaVuSans-72" x="780.314453"/>
      <use xlink:href="#DejaVuSans-20" x="821.427734"/>
      <use xlink:href="#DejaVuSans-28" x="853.214844"/>
      <use xlink:href="#DejaVuSans-25" x="892.228516"/>
      <use xlink:href="#DejaVuSans-29" x="987.248047"/>
     </g>
    </g>
   </g>
   <g id="line2d_14">
    <path d="M 103.827273 307.8 
L 127.855981 301.777897 
L 151.884689 294.376492 
L 175.913397 284.910105 
L 199.942105 273.548867 
L 223.970813 259.590897 
L 247.999522 245.871277 
L 272.02823 231.484617 
L 296.056938 216.732099 
L 320.085646 201.63287 
L 344.114354 186.698714 
L 368.143062 172.673257 
L 392.17177 159.259604 
L 416.200478 146.725533 
L 440.229187 135.322195 
L 464.257895 124.082375 
L 488.286603 114.074496 
L 512.315311 104.142152 
L 536.344019 95.004277 
L 560.372727 88.752227 
" clip-path="url(#p489e4da74a)" style="fill: none; stroke-dasharray: 3.7,1.6; stroke-dashoffset: 0; stroke: #1f77b4; stroke-opacity: 0.6"/>
   </g>
   <g id="line2d_15">
    <path d="M 103.827273 307.8 
L 127.855981 301.772407 
L 151.884689 292.962549 
L 175.913397 281.502475 
L 199.942105 268.927987 
L 223.970813 255.216541 
L 247.999522 240.893429 
L 272.02823 226.181019 
L 296.056938 211.089115 
L 320.085646 195.737945 
L 344.114354 181.268439 
L 368.143062 165.697606 
L 392.17177 151.516138 
L 416.200478 139.18393 
L 440.229187 127.851226 
L 464.257895 116.704936 
L 488.286603 106.90181 
L 512.315311 99.313027 
L 536.344019 93.290541 
L 560.372727 87.064973 
" clip-path="url(#p489e4da74a)" style="fill: none; stroke-dasharray: 3.7,1.6; stroke-dashoffset: 0; stroke: #ff7f0e; stroke-opacity: 0.6"/>
   </g>
   <g id="line2d_16">
    <path d="M 103.827273 307.8 
L 127.855981 300.576828 
L 151.884689 291.928761 
L 175.913397 281.909378 
L 199.942105 270.007946 
L 223.970813 256.495494 
L 247.999522 241.38859 
L 272.02823 225.604404 
L 296.056938 210.115571 
L 320.085646 194.404394 
L 344.114354 178.705851 
L 368.143062 164.116814 
L 392.17177 150.875069 
L 416.200478 138.188665 
L 440.229187 126.037559 
L 464.257895 115.374863 
L 488.286603 106.436693 
L 512.315311 97.826815 
L 536.344019 90.427334 
L 560.372727 84.292314 
" clip-path="url(#p489e4da74a)" style="fill: none; stroke-dasharray: 3.7,1.6; stroke-dashoffset: 0; stroke: #2ca02c; stroke-opacity: 0.6"/>
   </g>
   <g id="line2d_17">
    <path d="M 103.827273 307.8 
L 127.855981 298.640515 
L 151.884689 287.383474 
L 175.913397 273.52271 
L 199.942105 256.353 
L 223.970813 238.979274 
L 247.999522 221.322152 
L 272.02823 203.082471 
L 296.056938 185.771358 
L 320.085646 167.673804 
L 344.114354 151.081536 
L 368.143062 136.321402 
L 392.17177 122.896832 
L 416.200478 111.44363 
L 440.229187 100.7698 
L 464.257895 90.870895 
L 488.286603 82.039921 
L 512.315311 74.638665 
L 536.344019 68.04708 
L 560.372727 61.977773 
" clip-path="url(#p489e4da74a)" style="fill: none; stroke-dasharray: 3.7,1.6; stroke-dashoffset: 0; stroke: #d62728; stroke-opacity: 0.6"/>
   </g>
   <g id="line2d_18">
    <path d="M 103.827273 307.8 
L 127.855981 301.801882 
L 151.884689 294.294892 
L 175.913397 284.324293 
L 199.942105 273.116272 
L 223.970813 260.002973 
L 247.999522 245.96863 
L 272.02823 229.346915 
L 296.056938 213.636553 
L 320.085646 197.360752 
L 344.114354 180.385754 
L 368.143062 164.185148 
L 392.17177 150.033051 
L 416.200478 135.442436 
L 440.229187 122.609782 
L 464.257895 112.887528 
L 488.286603 103.616299 
L 512.315311 95.425585 
L 536.344019 88.444779 
L 560.372727 82.714316 
" clip-path="url(#p489e4da74a)" style="fill: none; stroke-dasharray: 3.7,1.6; stroke-dashoffset: 0; stroke: #9467bd; stroke-opacity: 0.6"/>
   </g>
   <g id="line2d_19">
    <path d="M 103.827273 307.8 
L 127.855981 303.427163 
L 151.884689 295.871042 
L 175.913397 287.26371 
L 199.942105 277.328086 
L 223.970813 265.10545 
L 247.999522 252.794896 
L 272.02823 239.872476 
L 296.056938 225.956799 
L 320.085646 212.233846 
L 344.114354 196.895987 
L 368.143062 182.515359 
L 392.17177 168.042964 
L 416.200478 154.937188 
L 440.229187 142.21747 
L 464.257895 131.082436 
L 488.286603 121.81849 
L 512.315311 112.307548 
L 536.344019 103.612568 
L 560.372727 95.987628 
" clip-path="url(#p489e4da74a)" style="fill: none; stroke-dasharray: 3.7,1.6; stroke-dashoffset: 0; stroke: #8c564b; stroke-opacity: 0.6"/>
   </g>
   <g id="line2d_20">
    <path d="M 103.827273 307.8 
L 127.855981 302.619194 
L 151.884689 295.272531 
L 175.913397 285.131998 
L 199.942105 274.635457 
L 223.970813 261.65559 
L 247.999522 247.534524 
L 272.02823 232.807653 
L 296.056938 218.078436 
L 320.085646 203.261972 
L 344.114354 188.230773 
L 368.143062 172.878661 
L 392.17177 159.347608 
L 416.200478 145.865937 
L 440.229187 134.031936 
L 464.257895 123.934545 
L 488.286603 113.889366 
L 512.315311 105.163588 
L 536.344019 96.084578 
L 560.372727 89.917079 
" clip-path="url(#p489e4da74a)" style="fill: none; stroke-dasharray: 3.7,1.6; stroke-dashoffset: 0; stroke: #e377c2; stroke-opacity: 0.6"/>
   </g>
   <g id="line2d_21">
    <path d="M 103.827273 307.8 
L 127.855981 299.935308 
L 151.884689 289.583701 
L 175.913397 276.600037 
L 199.942105 262.042607 
L 223.970813 246.70414 
L 247.999522 230.074203 
L 272.02823 213.061083 
L 296.056938 196.22389 
L 320.085646 179.703544 
L 344.114354 163.173054 
L 368.143062 146.546485 
L 392.17177 132.376147 
L 416.200478 119.749055 
L 440.229187 108.142736 
L 464.257895 97.955627 
L 488.286603 88.746698 
L 512.315311 80.800211 
L 536.344019 74.163592 
L 560.372727 68.366596 
" clip-path="url(#p489e4da74a)" style="fill: none; stroke-dasharray: 3.7,1.6; stroke-dashoffset: 0; stroke: #7f7f7f; stroke-opacity: 0.6"/>
   </g>
   <g id="line2d_22">
    <path d="M 103.827273 307.8 
L 127.855981 301.649786 
L 151.884689 293.437783 
L 175.913397 282.612511 
L 199.942105 271.08228 
L 223.970813 256.83255 
L 247.999522 241.164389 
L 272.02823 225.594413 
L 296.056938 209.572213 
L 320.085646 193.548805 
L 344.114354 177.628601 
L 368.143062 162.561854 
L 392.17177 149.265885 
L 416.200478 136.72269 
L 440.229187 125.194515 
L 464.257895 114.127343 
L 488.286603 105.288459 
L 512.315311 97.741914 
L 536.344019 90.510497 
L 560.372727 83.98263 
" clip-path="url(#p489e4da74a)" style="fill: none; stroke-dasharray: 3.7,1.6; stroke-dashoffset: 0; stroke: #bcbd22; stroke-opacity: 0.6"/>
   </g>
   <g id="line2d_23">
    <path d="M 103.827273 307.8 
L 127.855981 301.190415 
L 151.884689 292.431728 
L 175.913397 280.983926 
L 199.942105 267.404931 
L 223.970813 251.971712 
L 247.999522 235.183183 
L 272.02823 217.035883 
L 296.056938 199.856592 
L 320.085646 182.423305 
L 344.114354 166.458229 
L 368.143062 151.353792 
L 392.17177 135.095359 
L 416.200478 120.082172 
L 440.229187 107.057114 
L 464.257895 96.237391 
L 488.286603 86.516579 
L 512.315311 77.844408 
L 536.344019 71.32874 
L 560.372727 65.558771 
" clip-path="url(#p489e4da74a)" style="fill: none; stroke-dasharray: 3.7,1.6; stroke-dashoffset: 0; stroke: #17becf; stroke-opacity: 0.6"/>
   </g>
   <g id="line2d_24">
    <path d="M 103.827273 307.8 
L 127.855981 301.399246 
L 151.884689 293.393126 
L 175.913397 282.870831 
L 199.942105 270.655303 
L 223.970813 257.662581 
L 247.999522 242.176449 
L 272.02823 226.82399 
L 296.056938 211.386712 
L 320.085646 196.217143 
L 344.114354 181.627082 
L 368.143062 167.359019 
L 392.17177 154.393582 
L 416.200478 141.853646 
L 440.229187 130.102586 
L 464.257895 118.501752 
L 488.286603 108.744605 
L 512.315311 99.651822 
L 536.344019 91.574202 
L 560.372727 84.94399 
" clip-path="url(#p489e4da74a)" style="fill: none; stroke-dasharray: 3.7,1.6; stroke-dashoffset: 0; stroke: #1f77b4; stroke-opacity: 0.6"/>
   </g>
   <g id="line2d_25">
    <path d="M 103.827273 307.8 
L 127.855981 301.575038 
L 151.884689 294.154573 
L 175.913397 284.070304 
L 199.942105 272.25994 
L 223.970813 257.62806 
L 247.999522 242.36809 
L 272.02823 225.615695 
L 296.056938 209.946179 
L 320.085646 194.232476 
L 344.114354 179.659182 
L 368.143062 165.155742 
L 392.17177 152.085636 
L 416.200478 139.455479 
L 440.229187 127.740378 
L 464.257895 116.54662 
L 488.286603 105.797671 
L 512.315311 96.978114 
L 536.344019 90.261869 
L 560.372727 83.983387 
" clip-path="url(#p489e4da74a)" style="fill: none; stroke-dasharray: 3.7,1.6; stroke-dashoffset: 0; stroke: #ff7f0e; stroke-opacity: 0.6"/>
   </g>
   <g id="line2d_26">
    <path d="M 103.827273 307.8 
L 127.855981 300.872833 
L 151.884689 291.267914 
L 175.913397 278.088777 
L 199.942105 262.69804 
L 223.970813 245.246936 
L 247.999522 225.766621 
L 272.02823 206.650878 
L 296.056938 187.300479 
L 320.085646 168.027056 
L 344.114354 150.38922 
L 368.143062 134.825767 
L 392.17177 120.693662 
L 416.200478 108.726312 
L 440.229187 96.978247 
L 464.257895 87.912383 
L 488.286603 79.83354 
L 512.315311 73.664081 
L 536.344019 67.335777 
L 560.372727 62.491275 
" clip-path="url(#p489e4da74a)" style="fill: none; stroke-dasharray: 3.7,1.6; stroke-dashoffset: 0; stroke: #2ca02c; stroke-opacity: 0.6"/>
   </g>
   <g id="line2d_27">
    <path d="M 103.827273 307.8 
L 127.855981 301.569066 
L 151.884689 294.613851 
L 175.913397 285.23663 
L 199.942105 274.501209 
L 223.970813 262.958261 
L 247.999522 249.850147 
L 272.02823 234.867205 
L 296.056938 220.39637 
L 320.085646 205.780936 
L 344.114354 189.461026 
L 368.143062 173.955823 
L 392.17177 159.722834 
L 416.200478 146.470149 
L 440.229187 134.223684 
L 464.257895 123.175004 
L 488.286603 113.008592 
L 512.315311 104.126059 
L 536.344019 97.091206 
L 560.372727 90.928103 
" clip-path="url(#p489e4da74a)" style="fill: none; stroke-dasharray: 3.7,1.6; stroke-dashoffset: 0; stroke: #d62728; stroke-opacity: 0.6"/>
   </g>
   <g id="line2d_28">
    <path d="M 103.827273 307.8 
L 127.855981 302.421151 
L 151.884689 294.498864 
L 175.913397 284.923821 
L 199.942105 272.398368 
L 223.970813 258.601072 
L 247.999522 243.130621 
L 272.02823 227.486132 
L 296.056938 211.556769 
L 320.085646 196.110154 
L 344.114354 181.518136 
L 368.143062 165.925904 
L 392.17177 151.829628 
L 416.200478 139.897725 
L 440.229187 128.04115 
L 464.257895 117.53819 
L 488.286603 108.324155 
L 512.315311 100.748746 
L 536.344019 94.098593 
L 560.372727 87.998025 
" clip-path="url(#p489e4da74a)" style="fill: none; stroke-dasharray: 3.7,1.6; stroke-dashoffset: 0; stroke: #9467bd; stroke-opacity: 0.6"/>
   </g>
   <g id="line2d_29">
    <path d="M 103.827273 307.8 
L 127.855981 300.920803 
L 151.884689 290.292218 
L 175.913397 278.359684 
L 199.942105 264.351174 
L 223.970813 249.290066 
L 247.999522 233.150478 
L 272.02823 217.809306 
L 296.056938 202.480357 
L 320.085646 187.274499 
L 344.114354 172.721371 
L 368.143062 159.099327 
L 392.17177 146.178283 
L 416.200478 134.010611 
L 440.229187 122.823715 
L 464.257895 113.719518 
L 488.286603 105.260983 
L 512.315311 96.91782 
L 536.344019 90.469579 
L 560.372727 84.449122 
" clip-path="url(#p489e4da74a)" style="fill: none; stroke-dasharray: 3.7,1.6; stroke-dashoffset: 0; stroke: #8c564b; stroke-opacity: 0.6"/>
   </g>
   <g id="line2d_30">
    <path d="M 103.827273 307.8 
L 127.855981 300.400555 
L 151.884689 289.723219 
L 175.913397 274.448573 
L 199.942105 257.923309 
L 223.970813 239.340245 
L 247.999522 220.651129 
L 272.02823 201.631783 
L 296.056938 182.580198 
L 320.085646 164.367383 
L 344.114354 147.381885 
L 368.143062 133.076058 
L 392.17177 119.134405 
L 416.200478 107.399447 
L 440.229187 97.505134 
L 464.257895 88.474905 
L 488.286603 79.754509 
L 512.315311 71.94067 
L 536.344019 65.583927 
L 560.372727 59.19792 
" clip-path="url(#p489e4da74a)" style="fill: none; stroke-dasharray: 3.7,1.6; stroke-dashoffset: 0; stroke: #e377c2; stroke-opacity: 0.6"/>
   </g>
   <g id="line2d_31">
    <path d="M 103.827273 307.8 
L 127.855981 301.210739 
L 151.884689 291.296438 
L 175.913397 278.367617 
L 199.942105 263.120129 
L 223.970813 246.721191 
L 247.999522 227.845437 
L 272.02823 209.806517 
L 296.056938 191.784521 
L 320.085646 173.896486 
L 344.114354 158.153042 
L 368.143062 142.85101 
L 392.17177 129.088576 
L 416.200478 115.984204 
L 440.229187 104.719752 
L 464.257895 94.660436 
L 488.286603 85.401442 
L 512.315311 76.941226 
L 536.344019 70.882687 
L 560.372727 64.516538 
" clip-path="url(#p489e4da74a)" style="fill: none; stroke-dasharray: 3.7,1.6; stroke-dashoffset: 0; stroke: #7f7f7f; stroke-opacity: 0.6"/>
   </g>
   <g id="line2d_32">
    <path d="M 103.827273 307.8 
L 127.855981 301.794561 
L 151.884689 294.912528 
L 175.913397 284.356309 
L 199.942105 272.431496 
L 223.970813 260.039872 
L 247.999522 246.034789 
L 272.02823 231.142342 
L 296.056938 215.996866 
L 320.085646 200.321644 
L 344.114354 184.69852 
L 368.143062 171.165219 
L 392.17177 157.18261 
L 416.200478 144.021501 
L 440.229187 132.835084 
L 464.257895 122.377887 
L 488.286603 112.475034 
L 512.315311 104.106203 
L 536.344019 96.755714 
L 560.372727 88.982838 
" clip-path="url(#p489e4da74a)" style="fill: none; stroke-dasharray: 3.7,1.6; stroke-dashoffset: 0; stroke: #bcbd22; stroke-opacity: 0.6"/>
   </g>
   <g id="line2d_33">
    <path d="M 103.827273 307.8 
L 127.855981 301.586404 
L 151.884689 293.189107 
L 175.913397 282.616253 
L 199.942105 269.219843 
L 223.970813 254.160117 
L 247.999522 236.999707 
L 272.02823 220.017455 
L 296.056938 202.420898 
L 320.085646 186.050403 
L 344.114354 170.168979 
L 368.143062 155.166865 
L 392.17177 141.684569 
L 416.200478 129.048667 
L 440.229187 117.297175 
L 464.257895 106.096057 
L 488.286603 96.136233 
L 512.315311 86.770505 
L 536.344019 78.468189 
L 560.372727 71.308905 
" clip-path="url(#p489e4da74a)" style="fill: none; stroke-dasharray: 3.7,1.6; stroke-dashoffset: 0; stroke: #17becf; stroke-opacity: 0.6"/>
   </g>
   <g id="line2d_34">
    <path d="M 103.827273 307.8 
L 127.855981 300.141731 
L 151.884689 291.213592 
L 175.913397 278.866955 
L 199.942105 264.657113 
L 223.970813 250.00778 
L 247.999522 232.911123 
L 272.02823 216.303964 
L 296.056938 199.888903 
L 320.085646 183.135013 
L 344.114354 168.245676 
L 368.143062 152.393493 
L 392.17177 138.537207 
L 416.200478 125.321219 
L 440.229187 114.556902 
L 464.257895 104.676868 
L 488.286603 95.521944 
L 512.315311 88.080102 
L 536.344019 81.277057 
L 560.372727 75.465302 
" clip-path="url(#p489e4da74a)" style="fill: none; stroke-dasharray: 3.7,1.6; stroke-dashoffset: 0; stroke: #1f77b4; stroke-opacity: 0.6"/>
   </g>
   <g id="line2d_35">
    <path d="M 103.827273 307.8 
L 127.855981 301.083591 
L 151.884689 292.031172 
L 175.913397 279.527983 
L 199.942105 263.818879 
L 223.970813 247.768158 
L 247.999522 230.894556 
L 272.02823 213.602831 
L 296.056938 195.911345 
L 320.085646 179.662921 
L 344.114354 163.833972 
L 368.143062 148.662291 
L 392.17177 134.483703 
L 416.200478 120.97038 
L 440.229187 109.737688 
L 464.257895 99.428595 
L 488.286603 90.313207 
L 512.315311 82.987845 
L 536.344019 76.652475 
L 560.372727 71.548219 
" clip-path="url(#p489e4da74a)" style="fill: none; stroke-dasharray: 3.7,1.6; stroke-dashoffset: 0; stroke: #ff7f0e; stroke-opacity: 0.6"/>
   </g>
   <g id="line2d_36">
    <path d="M 103.827273 307.8 
L 127.855981 301.9403 
L 151.884689 295.360647 
L 175.913397 287.282688 
L 199.942105 277.322279 
L 223.970813 266.588031 
L 247.999522 254.793529 
L 272.02823 240.959145 
L 296.056938 226.931565 
L 320.085646 212.334672 
L 344.114354 197.719683 
L 368.143062 183.3557 
L 392.17177 169.623657 
L 416.200478 157.186947 
L 440.229187 144.960937 
L 464.257895 133.159139 
L 488.286603 122.856782 
L 512.315311 113.2932 
L 536.344019 103.658002 
L 560.372727 96.165648 
" clip-path="url(#p489e4da74a)" style="fill: none; stroke-dasharray: 3.7,1.6; stroke-dashoffset: 0; stroke: #2ca02c; stroke-opacity: 0.6"/>
   </g>
   <g id="line2d_37">
    <path d="M 103.827273 307.8 
L 127.855981 299.884641 
L 151.884689 290.629426 
L 175.913397 279.053147 
L 199.942105 263.790595 
L 223.970813 248.543438 
L 247.999522 231.452835 
L 272.02823 212.670411 
L 296.056938 195.556436 
L 320.085646 178.586538 
L 344.114354 162.973701 
L 368.143062 148.472184 
L 392.17177 135.480505 
L 416.200478 122.36609 
L 440.229187 111.675554 
L 464.257895 101.662733 
L 488.286603 92.573605 
L 512.315311 84.825895 
L 536.344019 78.681925 
L 560.372727 73.459839 
" clip-path="url(#p489e4da74a)" style="fill: none; stroke-dasharray: 3.7,1.6; stroke-dashoffset: 0; stroke: #d62728; stroke-opacity: 0.6"/>
   </g>
   <g id="line2d_38">
    <path d="M 103.827273 307.8 
L 127.855981 302.753278 
L 151.884689 295.978806 
L 175.913397 287.51015 
L 199.942105 277.197483 
L 223.970813 265.420634 
L 247.999522 252.670516 
L 272.02823 240.181531 
L 296.056938 227.193089 
L 320.085646 212.859431 
L 344.114354 199.288865 
L 368.143062 186.212274 
L 392.17177 173.530897 
L 416.200478 160.89792 
L 440.229187 149.159807 
L 464.257895 138.658486 
L 488.286603 128.96993 
L 512.315311 120.599308 
L 536.344019 112.350861 
L 560.372727 105.12138 
" clip-path="url(#p489e4da74a)" style="fill: none; stroke-dasharray: 3.7,1.6; stroke-dashoffset: 0; stroke: #9467bd; stroke-opacity: 0.6"/>
   </g>
   <g id="line2d_39">
    <path d="M 103.827273 307.8 
L 127.855981 301.319682 
L 151.884689 293.258796 
L 175.913397 284.230669 
L 199.942105 273.134402 
L 223.970813 261.553674 
L 247.999522 248.10897 
L 272.02823 233.266047 
L 296.056938 218.436514 
L 320.085646 203.07186 
L 344.114354 189.31681 
L 368.143062 175.167181 
L 392.17177 161.72589 
L 416.200478 147.990388 
L 440.229187 135.442596 
L 464.257895 123.607614 
L 488.286603 114.98647 
L 512.315311 105.168491 
L 536.344019 97.208616 
L 560.372727 89.602424 
" clip-path="url(#p489e4da74a)" style="fill: none; stroke-dasharray: 3.7,1.6; stroke-dashoffset: 0; stroke: #8c564b; stroke-opacity: 0.6"/>
   </g>
   <g id="line2d_40">
    <path d="M 103.827273 307.8 
L 127.855981 303.377364 
L 151.884689 297.176168 
L 175.913397 288.900897 
L 199.942105 277.753023 
L 223.970813 266.124546 
L 247.999522 253.358891 
L 272.02823 237.996777 
L 296.056938 222.723914 
L 320.085646 208.161767 
L 344.114354 193.135321 
L 368.143062 178.383364 
L 392.17177 164.751442 
L 416.200478 152.160265 
L 440.229187 139.56527 
L 464.257895 127.781228 
L 488.286603 117.236849 
L 512.315311 106.837831 
L 536.344019 98.012592 
L 560.372727 89.868281 
" clip-path="url(#p489e4da74a)" style="fill: none; stroke-dasharray: 3.7,1.6; stroke-dashoffset: 0; stroke: #e377c2; stroke-opacity: 0.6"/>
   </g>
   <g id="line2d_41">
    <path d="M 103.827273 307.8 
L 127.855981 302.580665 
L 151.884689 294.973272 
L 175.913397 284.787928 
L 199.942105 273.070501 
L 223.970813 259.308413 
L 247.999522 244.622808 
L 272.02823 229.653881 
L 296.056938 215.056058 
L 320.085646 200.252797 
L 344.114354 185.177787 
L 368.143062 170.494818 
L 392.17177 157.058338 
L 416.200478 144.666882 
L 440.229187 133.106074 
L 464.257895 122.315223 
L 488.286603 112.248022 
L 512.315311 103.316026 
L 536.344019 95.730696 
L 560.372727 88.475095 
" clip-path="url(#p489e4da74a)" style="fill: none; stroke-dasharray: 3.7,1.6; stroke-dashoffset: 0; stroke: #7f7f7f; stroke-opacity: 0.6"/>
   </g>
   <g id="line2d_42">
    <path d="M 103.827273 307.8 
L 127.855981 299.03795 
L 151.884689 287.364287 
L 175.913397 271.641664 
L 199.942105 255.686413 
L 223.970813 238.556632 
L 247.999522 219.655022 
L 272.02823 201.657113 
L 296.056938 183.417026 
L 320.085646 165.195562 
L 344.114354 149.12718 
L 368.143062 134.047978 
L 392.17177 119.850672 
L 416.200478 107.283417 
L 440.229187 96.299761 
L 464.257895 88.088088 
L 488.286603 80.305433 
L 512.315311 73.922019 
L 536.344019 67.363739 
L 560.372727 61.509686 
" clip-path="url(#p489e4da74a)" style="fill: none; stroke-dasharray: 3.7,1.6; stroke-dashoffset: 0; stroke: #bcbd22; stroke-opacity: 0.6"/>
   </g>
   <g id="line2d_43">
    <path d="M 103.827273 307.8 
L 127.855981 300.236129 
L 151.884689 291.867873 
L 175.913397 281.054634 
L 199.942105 268.371375 
L 223.970813 253.824482 
L 247.999522 239.067652 
L 272.02823 223.302474 
L 296.056938 207.563078 
L 320.085646 191.717267 
L 344.114354 176.738302 
L 368.143062 161.437154 
L 392.17177 148.011997 
L 416.200478 134.656003 
L 440.229187 122.998286 
L 464.257895 113.169289 
L 488.286603 103.228523 
L 512.315311 94.880097 
L 536.344019 87.738904 
L 560.372727 81.301476 
" clip-path="url(#p489e4da74a)" style="fill: none; stroke-dasharray: 3.7,1.6; stroke-dashoffset: 0; stroke: #17becf; stroke-opacity: 0.6"/>
   </g>
   <g id="line2d_44">
    <path d="M 103.827273 307.8 
L 127.855981 300.079505 
L 151.884689 289.902747 
L 175.913397 277.461684 
L 199.942105 262.554462 
L 223.970813 245.67378 
L 247.999522 227.89131 
L 272.02823 209.959802 
L 296.056938 189.969342 
L 320.085646 171.299801 
L 344.114354 154.653107 
L 368.143062 140.113833 
L 392.17177 124.562196 
L 416.200478 110.684279 
L 440.229187 99.350726 
L 464.257895 90.32245 
L 488.286603 82.043968 
L 512.315311 74.590317 
L 536.344019 67.687449 
L 560.372727 61.786925 
" clip-path="url(#p489e4da74a)" style="fill: none; stroke-dasharray: 3.7,1.6; stroke-dashoffset: 0; stroke: #1f77b4; stroke-opacity: 0.6"/>
   </g>
   <g id="line2d_45">
    <path d="M 103.827273 307.8 
L 127.855981 301.212666 
L 151.884689 292.262281 
L 175.913397 281.223761 
L 199.942105 266.988756 
L 223.970813 252.590215 
L 247.999522 237.130686 
L 272.02823 222.529298 
L 296.056938 206.319056 
L 320.085646 189.995197 
L 344.114354 174.306088 
L 368.143062 160.24372 
L 392.17177 146.22179 
L 416.200478 133.886805 
L 440.229187 123.189126 
L 464.257895 112.957556 
L 488.286603 104.28279 
L 512.315311 96.37176 
L 536.344019 90.156382 
L 560.372727 83.437795 
" clip-path="url(#p489e4da74a)" style="fill: none; stroke-dasharray: 3.7,1.6; stroke-dashoffset: 0; stroke: #ff7f0e; stroke-opacity: 0.6"/>
   </g>
   <g id="line2d_46">
    <path d="M 103.827273 307.8 
L 127.855981 301.782424 
L 151.884689 292.423801 
L 175.913397 280.651846 
L 199.942105 266.678575 
L 223.970813 251.453655 
L 247.999522 235.819814 
L 272.02823 219.273437 
L 296.056938 202.926331 
L 320.085646 187.845901 
L 344.114354 170.767543 
L 368.143062 156.904708 
L 392.17177 141.834084 
L 416.200478 129.173609 
L 440.229187 117.001935 
L 464.257895 107.517569 
L 488.286603 98.004711 
L 512.315311 89.274915 
L 536.344019 82.144154 
L 560.372727 76.618898 
" clip-path="url(#p489e4da74a)" style="fill: none; stroke-dasharray: 3.7,1.6; stroke-dashoffset: 0; stroke: #2ca02c; stroke-opacity: 0.6"/>
   </g>
   <g id="line2d_47">
    <path d="M 103.827273 307.8 
L 127.855981 300.879479 
L 151.884689 293.747782 
L 175.913397 283.730337 
L 199.942105 272.643227 
L 223.970813 259.465183 
L 247.999522 246.085502 
L 272.02823 231.948503 
L 296.056938 217.130288 
L 320.085646 202.802631 
L 344.114354 187.189253 
L 368.143062 171.828929 
L 392.17177 158.703301 
L 416.200478 146.526037 
L 440.229187 134.178122 
L 464.257895 123.778968 
L 488.286603 113.540063 
L 512.315311 104.8195 
L 536.344019 96.68819 
L 560.372727 89.432668 
" clip-path="url(#p489e4da74a)" style="fill: none; stroke-dasharray: 3.7,1.6; stroke-dashoffset: 0; stroke: #d62728; stroke-opacity: 0.6"/>
   </g>
   <g id="line2d_48">
    <path d="M 103.827273 307.8 
L 127.855981 303.174408 
L 151.884689 296.29173 
L 175.913397 286.272449 
L 199.942105 275.326475 
L 223.970813 262.740542 
L 247.999522 249.016062 
L 272.02823 233.840069 
L 296.056938 219.08441 
L 320.085646 204.69129 
L 344.114354 189.652619 
L 368.143062 175.34781 
L 392.17177 161.11405 
L 416.200478 147.851875 
L 440.229187 136.458289 
L 464.257895 125.834076 
L 488.286603 116.088037 
L 512.315311 107.424872 
L 536.344019 100.223393 
L 560.372727 94.314022 
" clip-path="url(#p489e4da74a)" style="fill: none; stroke-dasharray: 3.7,1.6; stroke-dashoffset: 0; stroke: #9467bd; stroke-opacity: 0.6"/>
   </g>
   <g id="line2d_49">
    <path d="M 103.827273 307.8 
L 127.855981 301.450587 
L 151.884689 292.048699 
L 175.913397 280.788647 
L 199.942105 266.878126 
L 223.970813 253.091904 
L 247.999522 237.11742 
L 272.02823 220.50498 
L 296.056938 204.755591 
L 320.085646 189.20443 
L 344.114354 173.5815 
L 368.143062 159.456582 
L 392.17177 145.828041 
L 416.200478 132.795038 
L 440.229187 120.961231 
L 464.257895 110.768072 
L 488.286603 101.490191 
L 512.315311 93.464441 
L 536.344019 86.614115 
L 560.372727 79.64177 
" clip-path="url(#p489e4da74a)" style="fill: none; stroke-dasharray: 3.7,1.6; stroke-dashoffset: 0; stroke: #8c564b; stroke-opacity: 0.6"/>
   </g>
   <g id="line2d_50">
    <path d="M 103.827273 307.8 
L 127.855981 298.366569 
L 151.884689 287.145313 
L 175.913397 273.797233 
L 199.942105 257.912642 
L 223.970813 239.837831 
L 247.999522 220.470214 
L 272.02823 202.154793 
L 296.056938 183.030899 
L 320.085646 163.91133 
L 344.114354 147.359772 
L 368.143062 132.401379 
L 392.17177 117.244654 
L 416.200478 103.56551 
L 440.229187 90.736752 
L 464.257895 81.689723 
L 488.286603 73.60828 
L 512.315311 67.121333 
L 536.344019 61.647633 
L 560.372727 56.812451 
" clip-path="url(#p489e4da74a)" style="fill: none; stroke-dasharray: 3.7,1.6; stroke-dashoffset: 0; stroke: #e377c2; stroke-opacity: 0.6"/>
   </g>
   <g id="line2d_51">
    <path d="M 103.827273 307.8 
L 127.855981 300.217153 
L 151.884689 291.765394 
L 175.913397 281.783108 
L 199.942105 269.819256 
L 223.970813 256.346438 
L 247.999522 242.685292 
L 272.02823 227.914413 
L 296.056938 213.311519 
L 320.085646 197.573552 
L 344.114354 181.51931 
L 368.143062 166.160673 
L 392.17177 152.383467 
L 416.200478 138.904484 
L 440.229187 127.338263 
L 464.257895 116.294452 
L 488.286603 106.30711 
L 512.315311 98.398446 
L 536.344019 90.97877 
L 560.372727 84.781203 
" clip-path="url(#p489e4da74a)" style="fill: none; stroke-dasharray: 3.7,1.6; stroke-dashoffset: 0; stroke: #7f7f7f; stroke-opacity: 0.6"/>
   </g>
   <g id="line2d_52">
    <path d="M 103.827273 307.8 
L 127.855981 303.20475 
L 151.884689 295.577372 
L 175.913397 287.153235 
L 199.942105 275.683635 
L 223.970813 263.320448 
L 247.999522 248.614174 
L 272.02823 233.396508 
L 296.056938 218.21263 
L 320.085646 202.499298 
L 344.114354 186.785017 
L 368.143062 172.078728 
L 392.17177 157.919781 
L 416.200478 143.286566 
L 440.229187 130.855196 
L 464.257895 120.345273 
L 488.286603 110.962009 
L 512.315311 102.290774 
L 536.344019 94.390724 
L 560.372727 87.775919 
" clip-path="url(#p489e4da74a)" style="fill: none; stroke-dasharray: 3.7,1.6; stroke-dashoffset: 0; stroke: #bcbd22; stroke-opacity: 0.6"/>
   </g>
   <g id="line2d_53">
    <path d="M 103.827273 307.8 
L 127.855981 302.760984 
L 151.884689 295.505753 
L 175.913397 285.627467 
L 199.942105 274.469831 
L 223.970813 261.355758 
L 247.999522 247.852682 
L 272.02823 233.280768 
L 296.056938 218.575299 
L 320.085646 203.696922 
L 344.114354 188.639388 
L 368.143062 174.076729 
L 392.17177 159.002198 
L 416.200478 145.768017 
L 440.229187 133.87863 
L 464.257895 122.975074 
L 488.286603 113.408702 
L 512.315311 105.351393 
L 536.344019 97.653423 
L 560.372727 91.533987 
" clip-path="url(#p489e4da74a)" style="fill: none; stroke-dasharray: 3.7,1.6; stroke-dashoffset: 0; stroke: #17becf; stroke-opacity: 0.6"/>
   </g>
   <g id="line2d_54">
    <path d="M 103.827273 307.8 
L 127.855981 301.571474 
L 151.884689 293.644344 
L 175.913397 284.155748 
L 199.942105 271.514265 
L 223.970813 257.854966 
L 247.999522 243.973487 
L 272.02823 229.080793 
L 296.056938 214.189826 
L 320.085646 199.705265 
L 344.114354 185.257486 
L 368.143062 171.574379 
L 392.17177 158.211516 
L 416.200478 145.793597 
L 440.229187 133.915908 
L 464.257895 123.235375 
L 488.286603 114.731444 
L 512.315311 106.28167 
L 536.344019 99.180134 
L 560.372727 92.370317 
" clip-path="url(#p489e4da74a)" style="fill: none; stroke-dasharray: 3.7,1.6; stroke-dashoffset: 0; stroke: #1f77b4; stroke-opacity: 0.6"/>
   </g>
   <g id="line2d_55">
    <path d="M 103.827273 307.8 
L 127.855981 300.600909 
L 151.884689 291.666746 
L 175.913397 281.030071 
L 199.942105 267.989938 
L 223.970813 253.334329 
L 247.999522 237.034597 
L 272.02823 219.058345 
L 296.056938 201.790062 
L 320.085646 185.485825 
L 344.114354 170.337262 
L 368.143062 155.920655 
L 392.17177 140.940738 
L 416.200478 128.414077 
L 440.229187 117.228315 
L 464.257895 106.511178 
L 488.286603 97.955788 
L 512.315311 90.170201 
L 536.344019 82.691038 
L 560.372727 76.745917 
" clip-path="url(#p489e4da74a)" style="fill: none; stroke-dasharray: 3.7,1.6; stroke-dashoffset: 0; stroke: #ff7f0e; stroke-opacity: 0.6"/>
   </g>
   <g id="line2d_56">
    <path d="M 103.827273 307.8 
L 127.855981 301.116823 
L 151.884689 291.895818 
L 175.913397 280.031817 
L 199.942105 267.333618 
L 223.970813 253.507095 
L 247.999522 238.810026 
L 272.02823 223.070579 
L 296.056938 206.255623 
L 320.085646 190.107465 
L 344.114354 172.791715 
L 368.143062 157.613699 
L 392.17177 143.520923 
L 416.200478 130.655898 
L 440.229187 119.412548 
L 464.257895 109.7089 
L 488.286603 100.08623 
L 512.315311 92.930513 
L 536.344019 85.30087 
L 560.372727 78.763075 
" clip-path="url(#p489e4da74a)" style="fill: none; stroke-dasharray: 3.7,1.6; stroke-dashoffset: 0; stroke: #2ca02c; stroke-opacity: 0.6"/>
   </g>
   <g id="line2d_57">
    <path d="M 103.827273 307.8 
L 127.855981 301.495185 
L 151.884689 293.147544 
L 175.913397 282.44073 
L 199.942105 268.634569 
L 223.970813 254.300245 
L 247.999522 239.560602 
L 272.02823 224.043775 
L 296.056938 207.869633 
L 320.085646 191.450937 
L 344.114354 176.042974 
L 368.143062 159.994395 
L 392.17177 145.854319 
L 416.200478 132.015744 
L 440.229187 119.505001 
L 464.257895 108.833455 
L 488.286603 99.539008 
L 512.315311 90.555651 
L 536.344019 84.032506 
L 560.372727 78.529245 
" clip-path="url(#p489e4da74a)" style="fill: none; stroke-dasharray: 3.7,1.6; stroke-dashoffset: 0; stroke: #d62728; stroke-opacity: 0.6"/>
   </g>
   <g id="line2d_58">
    <path d="M 103.827273 307.8 
L 127.855981 300.627976 
L 151.884689 290.370012 
L 175.913397 276.913306 
L 199.942105 261.541504 
L 223.970813 245.515711 
L 247.999522 228.456172 
L 272.02823 210.21754 
L 296.056938 192.867176 
L 320.085646 175.347794 
L 344.114354 159.734148 
L 368.143062 144.048103 
L 392.17177 130.036149 
L 416.200478 117.64458 
L 440.229187 106.765656 
L 464.257895 97.240051 
L 488.286603 88.853414 
L 512.315311 80.877701 
L 536.344019 74.164808 
L 560.372727 69.020938 
" clip-path="url(#p489e4da74a)" style="fill: none; stroke-dasharray: 3.7,1.6; stroke-dashoffset: 0; stroke: #9467bd; stroke-opacity: 0.6"/>
   </g>
   <g id="line2d_59">
    <path d="M 103.827273 307.8 
L 127.855981 301.640731 
L 151.884689 292.213119 
L 175.913397 280.456702 
L 199.942105 266.472482 
L 223.970813 250.619288 
L 247.999522 233.97882 
L 272.02823 217.673107 
L 296.056938 201.198892 
L 320.085646 185.076184 
L 344.114354 170.573691 
L 368.143062 156.848212 
L 392.17177 144.335655 
L 416.200478 132.33768 
L 440.229187 120.929062 
L 464.257895 110.925114 
L 488.286603 102.2292 
L 512.315311 94.115365 
L 536.344019 86.698123 
L 560.372727 81.092051 
" clip-path="url(#p489e4da74a)" style="fill: none; stroke-dasharray: 3.7,1.6; stroke-dashoffset: 0; stroke: #8c564b; stroke-opacity: 0.6"/>
   </g>
   <g id="line2d_60">
    <path d="M 103.827273 307.8 
L 127.855981 300.590603 
L 151.884689 290.379569 
L 175.913397 278.670569 
L 199.942105 264.294119 
L 223.970813 248.417465 
L 247.999522 230.421085 
L 272.02823 212.07814 
L 296.056938 193.654434 
L 320.085646 175.87623 
L 344.114354 158.159476 
L 368.143062 143.043636 
L 392.17177 128.246796 
L 416.200478 115.728893 
L 440.229187 103.731814 
L 464.257895 94.514101 
L 488.286603 85.64143 
L 512.315311 78.000206 
L 536.344019 71.282853 
L 560.372727 65.34564 
" clip-path="url(#p489e4da74a)" style="fill: none; stroke-dasharray: 3.7,1.6; stroke-dashoffset: 0; stroke: #e377c2; stroke-opacity: 0.6"/>
   </g>
   <g id="line2d_61">
    <path d="M 103.827273 307.8 
L 127.855981 301.905142 
L 151.884689 294.428824 
L 175.913397 284.655512 
L 199.942105 273.004578 
L 223.970813 260.169704 
L 247.999522 245.77884 
L 272.02823 230.158422 
L 296.056938 214.095551 
L 320.085646 198.388025 
L 344.114354 183.150201 
L 368.143062 167.741734 
L 392.17177 153.933591 
L 416.200478 141.441221 
L 440.229187 129.525313 
L 464.257895 118.742417 
L 488.286603 109.41189 
L 512.315311 100.624078 
L 536.344019 92.769322 
L 560.372727 86.0684 
" clip-path="url(#p489e4da74a)" style="fill: none; stroke-dasharray: 3.7,1.6; stroke-dashoffset: 0; stroke: #7f7f7f; stroke-opacity: 0.6"/>
   </g>
   <g id="line2d_62">
    <path d="M 103.827273 307.8 
L 127.855981 301.192148 
L 151.884689 291.89992 
L 175.913397 279.193942 
L 199.942105 265.15347 
L 223.970813 249.893841 
L 247.999522 233.338799 
L 272.02823 216.505514 
L 296.056938 200.173185 
L 320.085646 184.316885 
L 344.114354 169.249307 
L 368.143062 155.021303 
L 392.17177 141.92231 
L 416.200478 129.961387 
L 440.229187 119.044613 
L 464.257895 109.007165 
L 488.286603 99.644986 
L 512.315311 92.286735 
L 536.344019 85.760736 
L 560.372727 80.128747 
" clip-path="url(#p489e4da74a)" style="fill: none; stroke-dasharray: 3.7,1.6; stroke-dashoffset: 0; stroke: #bcbd22; stroke-opacity: 0.6"/>
   </g>
   <g id="line2d_63">
    <path d="M 103.827273 307.8 
L 127.855981 302.547336 
L 151.884689 295.991728 
L 175.913397 286.295612 
L 199.942105 275.127067 
L 223.970813 263.491901 
L 247.999522 249.498954 
L 272.02823 234.713068 
L 296.056938 217.823304 
L 320.085646 202.145376 
L 344.114354 186.952923 
L 368.143062 172.222155 
L 392.17177 158.603396 
L 416.200478 145.772432 
L 440.229187 132.965358 
L 464.257895 121.815987 
L 488.286603 112.062614 
L 512.315311 103.397771 
L 536.344019 95.289797 
L 560.372727 89.080274 
" clip-path="url(#p489e4da74a)" style="fill: none; stroke-dasharray: 3.7,1.6; stroke-dashoffset: 0; stroke: #17becf; stroke-opacity: 0.6"/>
   </g>
   <g id="line2d_64">
    <path d="M 103.827273 307.8 
L 127.855981 303.13742 
L 151.884689 296.756323 
L 175.913397 288.093986 
L 199.942105 276.459527 
L 223.970813 264.991418 
L 247.999522 252.215428 
L 272.02823 237.863518 
L 296.056938 223.611688 
L 320.085646 209.266346 
L 344.114354 194.394116 
L 368.143062 179.818605 
L 392.17177 165.131583 
L 416.200478 151.51897 
L 440.229187 138.787808 
L 464.257895 127.227411 
L 488.286603 116.985453 
L 512.315311 107.751475 
L 536.344019 99.603023 
L 560.372727 91.315156 
" clip-path="url(#p489e4da74a)" style="fill: none; stroke-dasharray: 3.7,1.6; stroke-dashoffset: 0; stroke: #1f77b4; stroke-opacity: 0.6"/>
   </g>
   <g id="line2d_65">
    <path d="M 103.827273 307.8 
L 127.855981 301.476594 
L 151.884689 294.273105 
L 175.913397 284.536889 
L 199.942105 273.085536 
L 223.970813 260.070706 
L 247.999522 245.020585 
L 272.02823 228.871378 
L 296.056938 212.868237 
L 320.085646 197.008514 
L 344.114354 182.840881 
L 368.143062 169.313351 
L 392.17177 155.834856 
L 416.200478 143.529028 
L 440.229187 132.080969 
L 464.257895 122.563901 
L 488.286603 113.473118 
L 512.315311 104.948374 
L 536.344019 97.612611 
L 560.372727 91.294091 
" clip-path="url(#p489e4da74a)" style="fill: none; stroke-dasharray: 3.7,1.6; stroke-dashoffset: 0; stroke: #ff7f0e; stroke-opacity: 0.6"/>
   </g>
   <g id="line2d_66">
    <path d="M 103.827273 307.8 
L 127.855981 301.665679 
L 151.884689 292.704553 
L 175.913397 281.976793 
L 199.942105 269.315828 
L 223.970813 256.804151 
L 247.999522 243.040541 
L 272.02823 228.302579 
L 296.056938 213.513545 
L 320.085646 199.371078 
L 344.114354 185.605785 
L 368.143062 171.333404 
L 392.17177 158.81187 
L 416.200478 146.480575 
L 440.229187 135.914108 
L 464.257895 126.083959 
L 488.286603 116.781396 
L 512.315311 107.34614 
L 536.344019 99.6074 
L 560.372727 94.2885 
" clip-path="url(#p489e4da74a)" style="fill: none; stroke-dasharray: 3.7,1.6; stroke-dashoffset: 0; stroke: #2ca02c; stroke-opacity: 0.6"/>
   </g>
   <g id="line2d_67">
    <path d="M 103.827273 307.8 
L 127.855981 302.667357 
L 151.884689 295.604728 
L 175.913397 286.71227 
L 199.942105 276.353478 
L 223.970813 264.805779 
L 247.999522 251.617123 
L 272.02823 237.365909 
L 296.056938 222.870994 
L 320.085646 208.739077 
L 344.114354 193.516211 
L 368.143062 178.00568 
L 392.17177 163.662264 
L 416.200478 151.02731 
L 440.229187 139.101641 
L 464.257895 127.802791 
L 488.286603 117.583831 
L 512.315311 109.143108 
L 536.344019 100.7143 
L 560.372727 94.302277 
" clip-path="url(#p489e4da74a)" style="fill: none; stroke-dasharray: 3.7,1.6; stroke-dashoffset: 0; stroke: #d62728; stroke-opacity: 0.6"/>
   </g>
   <g id="line2d_68">
    <path d="M 103.827273 307.8 
L 127.855981 301.111525 
L 151.884689 293.395496 
L 175.913397 281.688326 
L 199.942105 269.162959 
L 223.970813 254.654287 
L 247.999522 239.025073 
L 272.02823 222.524633 
L 296.056938 205.176607 
L 320.085646 188.544782 
L 344.114354 172.678896 
L 368.143062 158.16898 
L 392.17177 144.718999 
L 416.200478 132.288447 
L 440.229187 121.212446 
L 464.257895 111.034421 
L 488.286603 101.882702 
L 512.315311 94.331897 
L 536.344019 87.176289 
L 560.372727 80.751698 
" clip-path="url(#p489e4da74a)" style="fill: none; stroke-dasharray: 3.7,1.6; stroke-dashoffset: 0; stroke: #9467bd; stroke-opacity: 0.6"/>
   </g>
   <g id="line2d_69">
    <path d="M 103.827273 307.8 
L 127.855981 302.01447 
L 151.884689 292.855114 
L 175.913397 282.654724 
L 199.942105 270.384031 
L 223.970813 255.739997 
L 247.999522 239.814882 
L 272.02823 223.424896 
L 296.056938 207.270216 
L 320.085646 191.444322 
L 344.114354 176.145726 
L 368.143062 160.777945 
L 392.17177 147.147504 
L 416.200478 134.87724 
L 440.229187 123.408069 
L 464.257895 113.131583 
L 488.286603 103.604758 
L 512.315311 95.62803 
L 536.344019 89.206722 
L 560.372727 82.874065 
" clip-path="url(#p489e4da74a)" style="fill: none; stroke-dasharray: 3.7,1.6; stroke-dashoffset: 0; stroke: #8c564b; stroke-opacity: 0.6"/>
   </g>
   <g id="line2d_70">
    <path d="M 103.827273 307.8 
L 127.855981 304.053754 
L 151.884689 296.987393 
L 175.913397 288.057873 
L 199.942105 277.966296 
L 223.970813 267.206832 
L 247.999522 254.110663 
L 272.02823 240.339874 
L 296.056938 224.776599 
L 320.085646 208.927792 
L 344.114354 193.910226 
L 368.143062 178.113627 
L 392.17177 163.683225 
L 416.200478 149.277903 
L 440.229187 137.314188 
L 464.257895 125.669584 
L 488.286603 115.282111 
L 512.315311 106.767519 
L 536.344019 99.178634 
L 560.372727 92.498133 
" clip-path="url(#p489e4da74a)" style="fill: none; stroke-dasharray: 3.7,1.6; stroke-dashoffset: 0; stroke: #e377c2; stroke-opacity: 0.6"/>
   </g>
   <g id="line2d_71">
    <path d="M 103.827273 307.8 
L 127.855981 302.037973 
L 151.884689 295.034344 
L 175.913397 285.400447 
L 199.942105 275.048939 
L 223.970813 263.78582 
L 247.999522 251.001159 
L 272.02823 236.826703 
L 296.056938 221.683565 
L 320.085646 207.259585 
L 344.114354 192.804623 
L 368.143062 177.414497 
L 392.17177 163.803529 
L 416.200478 150.784615 
L 440.229187 139.125499 
L 464.257895 128.520893 
L 488.286603 119.633625 
L 512.315311 109.620741 
L 536.344019 101.841376 
L 560.372727 94.699845 
" clip-path="url(#p489e4da74a)" style="fill: none; stroke-dasharray: 3.7,1.6; stroke-dashoffset: 0; stroke: #7f7f7f; stroke-opacity: 0.6"/>
   </g>
   <g id="line2d_72">
    <path d="M 103.827273 307.8 
L 127.855981 302.675159 
L 151.884689 295.843512 
L 175.913397 286.847272 
L 199.942105 276.17129 
L 223.970813 263.868314 
L 247.999522 250.109238 
L 272.02823 235.573911 
L 296.056938 220.44807 
L 320.085646 204.701167 
L 344.114354 189.044228 
L 368.143062 173.397364 
L 392.17177 158.892513 
L 416.200478 144.809401 
L 440.229187 132.53421 
L 464.257895 120.996611 
L 488.286603 111.260286 
L 512.315311 101.498426 
L 536.344019 92.879961 
L 560.372727 85.776131 
" clip-path="url(#p489e4da74a)" style="fill: none; stroke-dasharray: 3.7,1.6; stroke-dashoffset: 0; stroke: #bcbd22; stroke-opacity: 0.6"/>
   </g>
   <g id="line2d_73">
    <path d="M 103.827273 307.8 
L 127.855981 302.154429 
L 151.884689 293.254689 
L 175.913397 283.124864 
L 199.942105 271.347919 
L 223.970813 257.815418 
L 247.999522 244.262561 
L 272.02823 228.868828 
L 296.056938 213.333898 
L 320.085646 197.397828 
L 344.114354 181.715857 
L 368.143062 166.042684 
L 392.17177 150.071185 
L 416.200478 137.129414 
L 440.229187 125.242509 
L 464.257895 114.463633 
L 488.286603 105.486337 
L 512.315311 97.640782 
L 536.344019 91.009812 
L 560.372727 85.121125 
" clip-path="url(#p489e4da74a)" style="fill: none; stroke-dasharray: 3.7,1.6; stroke-dashoffset: 0; stroke: #17becf; stroke-opacity: 0.6"/>
   </g>
   <g id="line2d_74">
    <path d="M 103.827273 307.8 
L 127.855981 302.745765 
L 151.884689 295.177584 
L 175.913397 284.694088 
L 199.942105 273.257392 
L 223.970813 260.08083 
L 247.999522 246.113591 
L 272.02823 231.378212 
L 296.056938 215.932455 
L 320.085646 201.083183 
L 344.114354 185.453229 
L 368.143062 171.208967 
L 392.17177 157.360238 
L 416.200478 144.373968 
L 440.229187 133.319599 
L 464.257895 122.389249 
L 488.286603 112.352343 
L 512.315311 103.413587 
L 536.344019 95.761054 
L 560.372727 89.522025 
" clip-path="url(#p489e4da74a)" style="fill: none; stroke-dasharray: 3.7,1.6; stroke-dashoffset: 0; stroke: #1f77b4; stroke-opacity: 0.6"/>
   </g>
   <g id="line2d_75">
    <path d="M 103.827273 307.8 
L 127.855981 300.994298 
L 151.884689 293.368395 
L 175.913397 282.509478 
L 199.942105 271.093673 
L 223.970813 258.553341 
L 247.999522 243.893414 
L 272.02823 229.863625 
L 296.056938 215.041471 
L 320.085646 198.803577 
L 344.114354 183.597279 
L 368.143062 168.258231 
L 392.17177 155.388007 
L 416.200478 142.83633 
L 440.229187 130.449923 
L 464.257895 119.484524 
L 488.286603 110.922615 
L 512.315311 102.511246 
L 536.344019 94.22662 
L 560.372727 87.748689 
" clip-path="url(#p489e4da74a)" style="fill: none; stroke-dasharray: 3.7,1.6; stroke-dashoffset: 0; stroke: #ff7f0e; stroke-opacity: 0.6"/>
   </g>
   <g id="line2d_76">
    <path d="M 103.827273 307.8 
L 127.855981 302.846327 
L 151.884689 295.034873 
L 175.913397 285.351043 
L 199.942105 273.861846 
L 223.970813 259.743124 
L 247.999522 244.1842 
L 272.02823 228.406168 
L 296.056938 212.169475 
L 320.085646 195.247985 
L 344.114354 178.756096 
L 368.143062 162.646374 
L 392.17177 148.495834 
L 416.200478 133.857271 
L 440.229187 121.331095 
L 464.257895 110.694297 
L 488.286603 100.137129 
L 512.315311 91.901183 
L 536.344019 84.743759 
L 560.372727 77.597378 
" clip-path="url(#p489e4da74a)" style="fill: none; stroke-dasharray: 3.7,1.6; stroke-dashoffset: 0; stroke: #2ca02c; stroke-opacity: 0.6"/>
   </g>
   <g id="line2d_77">
    <path d="M 103.827273 307.8 
L 127.855981 301.676371 
L 151.884689 293.369475 
L 175.913397 283.417036 
L 199.942105 271.549098 
L 223.970813 258.175894 
L 247.999522 243.346411 
L 272.02823 228.235964 
L 296.056938 212.868386 
L 320.085646 197.820753 
L 344.114354 182.632006 
L 368.143062 168.426043 
L 392.17177 153.818379 
L 416.200478 140.390859 
L 440.229187 128.537374 
L 464.257895 118.269651 
L 488.286603 108.95115 
L 512.315311 100.284687 
L 536.344019 92.658405 
L 560.372727 85.622768 
" clip-path="url(#p489e4da74a)" style="fill: none; stroke-dasharray: 3.7,1.6; stroke-dashoffset: 0; stroke: #d62728; stroke-opacity: 0.6"/>
   </g>
   <g id="line2d_78">
    <path d="M 103.827273 307.8 
L 127.855981 300.116109 
L 151.884689 290.622559 
L 175.913397 277.821221 
L 199.942105 262.931869 
L 223.970813 246.133762 
L 247.999522 227.163187 
L 272.02823 208.117985 
L 296.056938 188.633942 
L 320.085646 170.558681 
L 344.114354 153.612321 
L 368.143062 138.74419 
L 392.17177 125.386066 
L 416.200478 112.732267 
L 440.229187 102.15525 
L 464.257895 92.629451 
L 488.286603 84.087767 
L 512.315311 76.643666 
L 536.344019 70.310708 
L 560.372727 64.934543 
" clip-path="url(#p489e4da74a)" style="fill: none; stroke-dasharray: 3.7,1.6; stroke-dashoffset: 0; stroke: #9467bd; stroke-opacity: 0.6"/>
   </g>
   <g id="line2d_79">
    <path d="M 103.827273 307.8 
L 127.855981 300.497264 
L 151.884689 292.191962 
L 175.913397 281.077224 
L 199.942105 267.940338 
L 223.970813 252.958973 
L 247.999522 237.994613 
L 272.02823 222.710116 
L 296.056938 206.559257 
L 320.085646 191.437055 
L 344.114354 176.604945 
L 368.143062 161.959338 
L 392.17177 148.555579 
L 416.200478 136.287358 
L 440.229187 125.856752 
L 464.257895 115.826321 
L 488.286603 105.881879 
L 512.315311 98.175141 
L 536.344019 90.81543 
L 560.372727 84.458031 
" clip-path="url(#p489e4da74a)" style="fill: none; stroke-dasharray: 3.7,1.6; stroke-dashoffset: 0; stroke: #8c564b; stroke-opacity: 0.6"/>
   </g>
   <g id="line2d_80">
    <path d="M 103.827273 307.8 
L 127.855981 301.521578 
L 151.884689 292.679779 
L 175.913397 281.608353 
L 199.942105 269.151917 
L 223.970813 255.737607 
L 247.999522 239.522848 
L 272.02823 223.659838 
L 296.056938 207.320152 
L 320.085646 189.277197 
L 344.114354 172.321937 
L 368.143062 156.174946 
L 392.17177 140.843178 
L 416.200478 127.864083 
L 440.229187 115.087442 
L 464.257895 104.46009 
L 488.286603 94.511373 
L 512.315311 85.79988 
L 536.344019 78.404292 
L 560.372727 71.78486 
" clip-path="url(#p489e4da74a)" style="fill: none; stroke-dasharray: 3.7,1.6; stroke-dashoffset: 0; stroke: #e377c2; stroke-opacity: 0.6"/>
   </g>
   <g id="line2d_81">
    <path d="M 103.827273 307.8 
L 127.855981 301.141193 
L 151.884689 291.969975 
L 175.913397 281.227918 
L 199.942105 268.475164 
L 223.970813 254.204421 
L 247.999522 239.660764 
L 272.02823 223.558988 
L 296.056938 206.720307 
L 320.085646 190.413778 
L 344.114354 175.014291 
L 368.143062 160.001196 
L 392.17177 145.762577 
L 416.200478 134.058416 
L 440.229187 122.14414 
L 464.257895 112.445361 
L 488.286603 103.04332 
L 512.315311 94.978724 
L 536.344019 87.199344 
L 560.372727 80.260731 
" clip-path="url(#p489e4da74a)" style="fill: none; stroke-dasharray: 3.7,1.6; stroke-dashoffset: 0; stroke: #7f7f7f; stroke-opacity: 0.6"/>
   </g>
   <g id="line2d_82">
    <path d="M 103.827273 307.8 
L 127.855981 302.71234 
L 151.884689 293.568695 
L 175.913397 283.312 
L 199.942105 271.527879 
L 223.970813 257.674564 
L 247.999522 241.819502 
L 272.02823 226.203344 
L 296.056938 209.371621 
L 320.085646 193.195856 
L 344.114354 176.467238 
L 368.143062 160.627301 
L 392.17177 146.434601 
L 416.200478 132.517046 
L 440.229187 119.451021 
L 464.257895 108.551499 
L 488.286603 98.222082 
L 512.315311 89.759174 
L 536.344019 82.471864 
L 560.372727 76.430929 
" clip-path="url(#p489e4da74a)" style="fill: none; stroke-dasharray: 3.7,1.6; stroke-dashoffset: 0; stroke: #bcbd22; stroke-opacity: 0.6"/>
   </g>
   <g id="line2d_83">
    <path d="M 103.827273 307.8 
L 127.855981 301.190896 
L 151.884689 291.988347 
L 175.913397 279.221538 
L 199.942105 264.694319 
L 223.970813 249.095419 
L 247.999522 232.853932 
L 272.02823 216.481315 
L 296.056938 199.287613 
L 320.085646 182.21764 
L 344.114354 166.333829 
L 368.143062 150.261014 
L 392.17177 136.078782 
L 416.200478 123.222525 
L 440.229187 111.646804 
L 464.257895 101.439928 
L 488.286603 92.678846 
L 512.315311 84.515731 
L 536.344019 77.827274 
L 560.372727 72.079746 
" clip-path="url(#p489e4da74a)" style="fill: none; stroke-dasharray: 3.7,1.6; stroke-dashoffset: 0; stroke: #17becf; stroke-opacity: 0.6"/>
   </g>
   <g id="line2d_84">
    <path d="M 103.827273 307.8 
L 127.855981 301.313132 
L 151.884689 293.857263 
L 175.913397 283.309374 
L 199.942105 270.545101 
L 223.970813 256.089055 
L 247.999522 240.440617 
L 272.02823 224.121374 
L 296.056938 207.624725 
L 320.085646 191.089883 
L 344.114354 175.149349 
L 368.143062 160.453831 
L 392.17177 147.264781 
L 416.200478 136.072115 
L 440.229187 125.79405 
L 464.257895 115.498798 
L 488.286603 106.549032 
L 512.315311 99.792612 
L 536.344019 93.871837 
L 560.372727 87.627584 
" clip-path="url(#p489e4da74a)" style="fill: none; stroke-dasharray: 3.7,1.6; stroke-dashoffset: 0; stroke: #1f77b4; stroke-opacity: 0.6"/>
   </g>
   <g id="line2d_85">
    <path d="M 103.827273 307.8 
L 127.855981 301.705846 
L 151.884689 294.335882 
L 175.913397 284.529014 
L 199.942105 272.502213 
L 223.970813 258.607229 
L 247.999522 244.181067 
L 272.02823 228.909972 
L 296.056938 213.728326 
L 320.085646 197.994284 
L 344.114354 182.677182 
L 368.143062 168.29692 
L 392.17177 154.792047 
L 416.200478 142.413922 
L 440.229187 130.429924 
L 464.257895 120.003555 
L 488.286603 110.404645 
L 512.315311 101.187366 
L 536.344019 93.796153 
L 560.372727 86.121292 
" clip-path="url(#p489e4da74a)" style="fill: none; stroke-dasharray: 3.7,1.6; stroke-dashoffset: 0; stroke: #ff7f0e; stroke-opacity: 0.6"/>
   </g>
   <g id="line2d_86">
    <path d="M 103.827273 307.8 
L 127.855981 301.442592 
L 151.884689 292.881235 
L 175.913397 281.278855 
L 199.942105 267.436789 
L 223.970813 251.568031 
L 247.999522 234.662106 
L 272.02823 216.482458 
L 296.056938 197.053084 
L 320.085646 179.058268 
L 344.114354 162.430439 
L 368.143062 146.693197 
L 392.17177 131.793125 
L 416.200478 117.699024 
L 440.229187 104.446293 
L 464.257895 94.474129 
L 488.286603 84.535244 
L 512.315311 77.338746 
L 536.344019 70.920875 
L 560.372727 65.548622 
" clip-path="url(#p489e4da74a)" style="fill: none; stroke-dasharray: 3.7,1.6; stroke-dashoffset: 0; stroke: #2ca02c; stroke-opacity: 0.6"/>
   </g>
   <g id="line2d_87">
    <path d="M 103.827273 307.8 
L 127.855981 303.096867 
L 151.884689 296.284837 
L 175.913397 287.533867 
L 199.942105 276.77728 
L 223.970813 263.955078 
L 247.999522 249.79136 
L 272.02823 233.798287 
L 296.056938 217.383332 
L 320.085646 201.036226 
L 344.114354 184.918599 
L 368.143062 169.971619 
L 392.17177 155.233057 
L 416.200478 141.724467 
L 440.229187 129.752014 
L 464.257895 117.812873 
L 488.286603 107.618535 
L 512.315311 98.802613 
L 536.344019 90.152711 
L 560.372727 83.158688 
" clip-path="url(#p489e4da74a)" style="fill: none; stroke-dasharray: 3.7,1.6; stroke-dashoffset: 0; stroke: #d62728; stroke-opacity: 0.6"/>
   </g>
   <g id="line2d_88">
    <path d="M 103.827273 307.8 
L 127.855981 300.393138 
L 151.884689 290.697448 
L 175.913397 278.053064 
L 199.942105 263.770406 
L 223.970813 247.405237 
L 247.999522 230.25909 
L 272.02823 213.959825 
L 296.056938 197.117612 
L 320.085646 180.944436 
L 344.114354 165.993324 
L 368.143062 150.39583 
L 392.17177 137.049177 
L 416.200478 124.405677 
L 440.229187 113.226667 
L 464.257895 103.721557 
L 488.286603 94.173215 
L 512.315311 86.671629 
L 536.344019 79.327527 
L 560.372727 73.73629 
" clip-path="url(#p489e4da74a)" style="fill: none; stroke-dasharray: 3.7,1.6; stroke-dashoffset: 0; stroke: #9467bd; stroke-opacity: 0.6"/>
   </g>
   <g id="line2d_89">
    <path d="M 103.827273 307.8 
L 127.855981 299.734279 
L 151.884689 289.75883 
L 175.913397 275.229551 
L 199.942105 259.324379 
L 223.970813 242.8129 
L 247.999522 224.32399 
L 272.02823 205.402647 
L 296.056938 186.30894 
L 320.085646 167.485061 
L 344.114354 149.325075 
L 368.143062 132.51548 
L 392.17177 117.845588 
L 416.200478 104.262196 
L 440.229187 92.393647 
L 464.257895 82.316824 
L 488.286603 73.386486 
L 512.315311 66.547066 
L 536.344019 60.882954 
L 560.372727 55.8 
" clip-path="url(#p489e4da74a)" style="fill: none; stroke-dasharray: 3.7,1.6; stroke-dashoffset: 0; stroke: #8c564b; stroke-opacity: 0.6"/>
   </g>
   <g id="line2d_90">
    <path d="M 103.827273 307.8 
L 127.855981 302.680649 
L 151.884689 296.4727 
L 175.913397 287.71384 
L 199.942105 277.62054 
L 223.970813 265.561665 
L 247.999522 252.849799 
L 272.02823 240.082167 
L 296.056938 225.644377 
L 320.085646 211.149007 
L 344.114354 197.081041 
L 368.143062 183.362985 
L 392.17177 170.342349 
L 416.200478 158.792379 
L 440.229187 146.950938 
L 464.257895 136.576065 
L 488.286603 127.053103 
L 512.315311 118.147084 
L 536.344019 109.947571 
L 560.372727 101.594312 
" clip-path="url(#p489e4da74a)" style="fill: none; stroke-dasharray: 3.7,1.6; stroke-dashoffset: 0; stroke: #e377c2; stroke-opacity: 0.6"/>
   </g>
   <g id="line2d_91">
    <path d="M 103.827273 307.8 
L 127.855981 303.470509 
L 151.884689 296.671185 
L 175.913397 287.737632 
L 199.942105 278.007519 
L 223.970813 265.459515 
L 247.999522 250.660216 
L 272.02823 234.817093 
L 296.056938 218.346265 
L 320.085646 202.048831 
L 344.114354 185.164341 
L 368.143062 169.627818 
L 392.17177 154.130614 
L 416.200478 140.038307 
L 440.229187 126.806959 
L 464.257895 114.594365 
L 488.286603 105.160856 
L 512.315311 96.953503 
L 536.344019 89.494053 
L 560.372727 82.469372 
" clip-path="url(#p489e4da74a)" style="fill: none; stroke-dasharray: 3.7,1.6; stroke-dashoffset: 0; stroke: #7f7f7f; stroke-opacity: 0.6"/>
   </g>
   <g id="line2d_92">
    <path d="M 103.827273 307.8 
L 127.855981 301.749385 
L 151.884689 293.724776 
L 175.913397 283.186672 
L 199.942105 270.431899 
L 223.970813 257.471834 
L 247.999522 242.702159 
L 272.02823 227.659604 
L 296.056938 212.422302 
L 320.085646 197.301912 
L 344.114354 183.268025 
L 368.143062 169.332383 
L 392.17177 155.856376 
L 416.200478 142.456347 
L 440.229187 130.15668 
L 464.257895 120.126086 
L 488.286603 110.045269 
L 512.315311 100.872141 
L 536.344019 92.98178 
L 560.372727 85.954798 
" clip-path="url(#p489e4da74a)" style="fill: none; stroke-dasharray: 3.7,1.6; stroke-dashoffset: 0; stroke: #bcbd22; stroke-opacity: 0.6"/>
   </g>
   <g id="line2d_93">
    <path d="M 103.827273 307.8 
L 127.855981 302.750099 
L 151.884689 295.982757 
L 175.913397 285.807712 
L 199.942105 274.800602 
L 223.970813 261.028693 
L 247.999522 246.376834 
L 272.02823 230.566061 
L 296.056938 213.815308 
L 320.085646 196.564678 
L 344.114354 180.726579 
L 368.143062 165.764703 
L 392.17177 151.369763 
L 416.200478 137.456407 
L 440.229187 125.303671 
L 464.257895 114.772535 
L 488.286603 104.283095 
L 512.315311 94.334023 
L 536.344019 86.060326 
L 560.372727 78.81283 
" clip-path="url(#p489e4da74a)" style="fill: none; stroke-dasharray: 3.7,1.6; stroke-dashoffset: 0; stroke: #17becf; stroke-opacity: 0.6"/>
   </g>
   <g id="line2d_94">
    <path d="M 103.827273 307.8 
L 127.855981 299.558294 
L 151.884689 288.375898 
L 175.913397 276.540972 
L 199.942105 262.547021 
L 223.970813 246.840775 
L 247.999522 230.273208 
L 272.02823 212.992531 
L 296.056938 194.543605 
L 320.085646 176.5809 
L 344.114354 159.979184 
L 368.143062 142.951685 
L 392.17177 128.840143 
L 416.200478 114.812797 
L 440.229187 103.597274 
L 464.257895 93.404142 
L 488.286603 83.810752 
L 512.315311 76.530158 
L 536.344019 70.475291 
L 560.372727 65.205819 
" clip-path="url(#p489e4da74a)" style="fill: none; stroke-dasharray: 3.7,1.6; stroke-dashoffset: 0; stroke: #1f77b4; stroke-opacity: 0.6"/>
   </g>
   <g id="line2d_95">
    <path d="M 103.827273 307.8 
L 127.855981 301.705269 
L 151.884689 293.593317 
L 175.913397 284.025084 
L 199.942105 271.387817 
L 223.970813 256.747437 
L 247.999522 241.714234 
L 272.02823 225.617143 
L 296.056938 208.266841 
L 320.085646 191.216247 
L 344.114354 174.383603 
L 368.143062 159.019024 
L 392.17177 144.57104 
L 416.200478 131.433613 
L 440.229187 119.568136 
L 464.257895 108.859427 
L 488.286603 99.235619 
L 512.315311 90.5904 
L 536.344019 83.625861 
L 560.372727 75.915206 
" clip-path="url(#p489e4da74a)" style="fill: none; stroke-dasharray: 3.7,1.6; stroke-dashoffset: 0; stroke: #ff7f0e; stroke-opacity: 0.6"/>
   </g>
   <g id="line2d_96">
    <path d="M 103.827273 307.8 
L 127.855981 301.6468 
L 151.884689 293.474773 
L 175.913397 284.081728 
L 199.942105 273.205918 
L 223.970813 261.264011 
L 247.999522 247.555931 
L 272.02823 231.81918 
L 296.056938 216.611185 
L 320.085646 201.318487 
L 344.114354 186.018097 
L 368.143062 171.111901 
L 392.17177 156.22273 
L 416.200478 141.621562 
L 440.229187 129.033628 
L 464.257895 117.592361 
L 488.286603 106.972653 
L 512.315311 97.99892 
L 536.344019 90.44933 
L 560.372727 84.331435 
" clip-path="url(#p489e4da74a)" style="fill: none; stroke-dasharray: 3.7,1.6; stroke-dashoffset: 0; stroke: #2ca02c; stroke-opacity: 0.6"/>
   </g>
   <g id="line2d_97">
    <path d="M 103.827273 307.8 
L 127.855981 301.271712 
L 151.884689 292.388339 
L 175.913397 282.997951 
L 199.942105 270.272545 
L 223.970813 257.294737 
L 247.999522 242.050369 
L 272.02823 227.476254 
L 296.056938 211.134022 
L 320.085646 195.277855 
L 344.114354 179.771819 
L 368.143062 165.236946 
L 392.17177 151.125368 
L 416.200478 137.985547 
L 440.229187 126.809524 
L 464.257895 115.650814 
L 488.286603 106.369434 
L 512.315311 97.61564 
L 536.344019 90.389444 
L 560.372727 83.816725 
" clip-path="url(#p489e4da74a)" style="fill: none; stroke-dasharray: 3.7,1.6; stroke-dashoffset: 0; stroke: #d62728; stroke-opacity: 0.6"/>
   </g>
   <g id="line2d_98">
    <path d="M 103.827273 307.8 
L 127.855981 300.585112 
L 151.884689 293.844938 
L 175.913397 284.678188 
L 199.942105 273.911186 
L 223.970813 262.371099 
L 247.999522 249.484041 
L 272.02823 236.0596 
L 296.056938 221.283227 
L 320.085646 206.70937 
L 344.114354 192.165105 
L 368.143062 178.121078 
L 392.17177 164.105929 
L 416.200478 151.651248 
L 440.229187 139.429433 
L 464.257895 128.86751 
L 488.286603 118.241828 
L 512.315311 109.587873 
L 536.344019 101.090215 
L 560.372727 94.456225 
" clip-path="url(#p489e4da74a)" style="fill: none; stroke-dasharray: 3.7,1.6; stroke-dashoffset: 0; stroke: #9467bd; stroke-opacity: 0.6"/>
   </g>
   <g id="line2d_99">
    <path d="M 103.827273 307.8 
L 127.855981 301.286835 
L 151.884689 291.827626 
L 175.913397 280.225562 
L 199.942105 267.004974 
L 223.970813 252.966822 
L 247.999522 237.50566 
L 272.02823 220.930089 
L 296.056938 204.025806 
L 320.085646 186.876419 
L 344.114354 170.948134 
L 368.143062 156.323385 
L 392.17177 142.653152 
L 416.200478 128.741335 
L 440.229187 117.093223 
L 464.257895 106.389003 
L 488.286603 96.618583 
L 512.315311 88.206944 
L 536.344019 80.667382 
L 560.372727 73.681436 
" clip-path="url(#p489e4da74a)" style="fill: none; stroke-dasharray: 3.7,1.6; stroke-dashoffset: 0; stroke: #8c564b; stroke-opacity: 0.6"/>
   </g>
   <g id="line2d_100">
    <path d="M 103.827273 307.8 
L 127.855981 301.639383 
L 151.884689 293.09131 
L 175.913397 281.561141 
L 199.942105 268.1354 
L 223.970813 252.688862 
L 247.999522 236.396841 
L 272.02823 218.931142 
L 296.056938 202.146145 
L 320.085646 186.232906 
L 344.114354 170.521675 
L 368.143062 154.840445 
L 392.17177 140.705066 
L 416.200478 127.551257 
L 440.229187 115.779406 
L 464.257895 106.331287 
L 488.286603 97.436466 
L 512.315311 89.249634 
L 536.344019 82.6793 
L 560.372727 76.192944 
" clip-path="url(#p489e4da74a)" style="fill: none; stroke-dasharray: 3.7,1.6; stroke-dashoffset: 0; stroke: #e377c2; stroke-opacity: 0.6"/>
   </g>
   <g id="line2d_101">
    <path d="M 103.827273 307.8 
L 127.855981 299.378456 
L 151.884689 289.313808 
L 175.913397 277.121818 
L 199.942105 263.920556 
L 223.970813 248.01796 
L 247.999522 231.225924 
L 272.02823 214.769807 
L 296.056938 197.45389 
L 320.085646 182.592949 
L 344.114354 168.009263 
L 368.143062 154.217056 
L 392.17177 140.529001 
L 416.200478 128.611154 
L 440.229187 117.7229 
L 464.257895 108.26183 
L 488.286603 99.242031 
L 512.315311 91.396749 
L 536.344019 84.419434 
L 560.372727 79.054191 
" clip-path="url(#p489e4da74a)" style="fill: none; stroke-dasharray: 3.7,1.6; stroke-dashoffset: 0; stroke: #7f7f7f; stroke-opacity: 0.6"/>
   </g>
   <g id="line2d_102">
    <path d="M 103.827273 307.8 
L 127.855981 302.226769 
L 151.884689 294.000104 
L 175.913397 283.344306 
L 199.942105 271.055235 
L 223.970813 257.154434 
L 247.999522 242.476993 
L 272.02823 226.330663 
L 296.056938 208.879791 
L 320.085646 192.719569 
L 344.114354 176.068241 
L 368.143062 160.815778 
L 392.17177 147.344452 
L 416.200478 133.96892 
L 440.229187 122.798488 
L 464.257895 112.242195 
L 488.286603 102.947938 
L 512.315311 93.989135 
L 536.344019 87.224115 
L 560.372727 81.213593 
" clip-path="url(#p489e4da74a)" style="fill: none; stroke-dasharray: 3.7,1.6; stroke-dashoffset: 0; stroke: #bcbd22; stroke-opacity: 0.6"/>
   </g>
   <g id="line2d_103">
    <path d="M 103.827273 307.8 
L 127.855981 302.307007 
L 151.884689 294.113531 
L 175.913397 283.456508 
L 199.942105 271.435435 
L 223.970813 257.776838 
L 247.999522 243.364934 
L 272.02823 226.404821 
L 296.056938 209.881064 
L 320.085646 193.766186 
L 344.114354 178.481913 
L 368.143062 164.024598 
L 392.17177 150.085239 
L 416.200478 137.111573 
L 440.229187 124.668689 
L 464.257895 114.750222 
L 488.286603 104.958655 
L 512.315311 95.46124 
L 536.344019 88.232147 
L 560.372727 81.29089 
" clip-path="url(#p489e4da74a)" style="fill: none; stroke-dasharray: 3.7,1.6; stroke-dashoffset: 0; stroke: #17becf; stroke-opacity: 0.6"/>
   </g>
   <g id="line2d_104">
    <path d="M 103.827273 307.8 
L 127.855981 300.605726 
L 151.884689 291.13484 
L 175.913397 278.455426 
L 199.942105 263.472518 
L 223.970813 246.661414 
L 247.999522 228.420198 
L 272.02823 209.46364 
L 296.056938 190.279216 
L 320.085646 172.398372 
L 344.114354 156.23754 
L 368.143062 141.203062 
L 392.17177 127.870059 
L 416.200478 115.038906 
L 440.229187 104.818302 
L 464.257895 94.655482 
L 488.286603 85.183928 
L 512.315311 78.355101 
L 536.344019 71.986969 
L 560.372727 65.253969 
" clip-path="url(#p489e4da74a)" style="fill: none; stroke-dasharray: 3.7,1.6; stroke-dashoffset: 0; stroke: #1f77b4; stroke-opacity: 0.6"/>
   </g>
   <g id="line2d_105">
    <path d="M 103.827273 307.8 
L 127.855981 301.76971 
L 151.884689 293.192958 
L 175.913397 282.096667 
L 199.942105 267.845678 
L 223.970813 252.97868 
L 247.999522 237.499632 
L 272.02823 221.18959 
L 296.056938 205.220424 
L 320.085646 189.589873 
L 344.114354 174.535568 
L 368.143062 159.778044 
L 392.17177 146.6654 
L 416.200478 134.580263 
L 440.229187 123.56395 
L 464.257895 114.288998 
L 488.286603 105.27466 
L 512.315311 98.026231 
L 536.344019 91.657561 
L 560.372727 84.711799 
" clip-path="url(#p489e4da74a)" style="fill: none; stroke-dasharray: 3.7,1.6; stroke-dashoffset: 0; stroke: #ff7f0e; stroke-opacity: 0.6"/>
   </g>
   <g id="line2d_106">
    <path d="M 103.827273 307.8 
L 127.855981 303.216598 
L 151.884689 295.273173 
L 175.913397 284.933125 
L 199.942105 273.394161 
L 223.970813 258.469003 
L 247.999522 243.538637 
L 272.02823 227.830132 
L 296.056938 211.508718 
L 320.085646 195.063561 
L 344.114354 177.344693 
L 368.143062 160.269822 
L 392.17177 145.611491 
L 416.200478 131.758429 
L 440.229187 119.249344 
L 464.257895 108.320669 
L 488.286603 98.850691 
L 512.315311 90.111918 
L 536.344019 82.344721 
L 560.372727 75.354725 
" clip-path="url(#p489e4da74a)" style="fill: none; stroke-dasharray: 3.7,1.6; stroke-dashoffset: 0; stroke: #2ca02c; stroke-opacity: 0.6"/>
   </g>
   <g id="line2d_107">
    <path d="M 103.827273 307.8 
L 127.855981 303.473688 
L 151.884689 297.189987 
L 175.913397 288.585467 
L 199.942105 278.296511 
L 223.970813 265.112349 
L 247.999522 249.902105 
L 272.02823 235.103977 
L 296.056938 220.864485 
L 320.085646 205.303853 
L 344.114354 189.488703 
L 368.143062 174.17429 
L 392.17177 160.296422 
L 416.200478 147.564031 
L 440.229187 135.93736 
L 464.257895 125.456183 
L 488.286603 115.418125 
L 512.315311 106.659938 
L 536.344019 98.922036 
L 560.372727 92.394628 
" clip-path="url(#p489e4da74a)" style="fill: none; stroke-dasharray: 3.7,1.6; stroke-dashoffset: 0; stroke: #d62728; stroke-opacity: 0.6"/>
   </g>
   <g id="line2d_108">
    <path d="M 103.827273 307.8 
L 127.855981 299.92635 
L 151.884689 291.261773 
L 175.913397 279.636106 
L 199.942105 266.661469 
L 223.970813 251.379784 
L 247.999522 235.655775 
L 272.02823 218.940772 
L 296.056938 202.703129 
L 320.085646 187.296024 
L 344.114354 172.501965 
L 368.143062 157.951622 
L 392.17177 144.057475 
L 416.200478 132.193867 
L 440.229187 121.804564 
L 464.257895 111.292842 
L 488.286603 101.746366 
L 512.315311 93.486649 
L 536.344019 87.162488 
L 560.372727 81.476816 
" clip-path="url(#p489e4da74a)" style="fill: none; stroke-dasharray: 3.7,1.6; stroke-dashoffset: 0; stroke: #9467bd; stroke-opacity: 0.6"/>
   </g>
   <g id="line2d_109">
    <path d="M 103.827273 307.8 
L 127.855981 299.76674 
L 151.884689 289.82412 
L 175.913397 278.106416 
L 199.942105 264.598425 
L 223.970813 249.535114 
L 247.999522 233.487904 
L 272.02823 217.26356 
L 296.056938 200.944674 
L 320.085646 184.339364 
L 344.114354 169.180249 
L 368.143062 154.578436 
L 392.17177 141.448869 
L 416.200478 128.77359 
L 440.229187 117.594086 
L 464.257895 107.58354 
L 488.286603 98.637025 
L 512.315311 91.411323 
L 536.344019 85.119895 
L 560.372727 79.377102 
" clip-path="url(#p489e4da74a)" style="fill: none; stroke-dasharray: 3.7,1.6; stroke-dashoffset: 0; stroke: #8c564b; stroke-opacity: 0.6"/>
   </g>
   <g id="line2d_110">
    <path d="M 103.827273 307.8 
L 127.855981 302.247382 
L 151.884689 293.794922 
L 175.913397 283.517024 
L 199.942105 271.559214 
L 223.970813 257.359595 
L 247.999522 241.026096 
L 272.02823 223.891959 
L 296.056938 205.774695 
L 320.085646 187.579069 
L 344.114354 169.976836 
L 368.143062 154.268613 
L 392.17177 139.269098 
L 416.200478 126.002664 
L 440.229187 114.501721 
L 464.257895 103.864083 
L 488.286603 94.57038 
L 512.315311 87.49773 
L 536.344019 80.114298 
L 560.372727 74.211782 
" clip-path="url(#p489e4da74a)" style="fill: none; stroke-dasharray: 3.7,1.6; stroke-dashoffset: 0; stroke: #e377c2; stroke-opacity: 0.6"/>
   </g>
   <g id="line2d_111">
    <path d="M 103.827273 307.8 
L 127.855981 300.814846 
L 151.884689 291.096006 
L 175.913397 278.542693 
L 199.942105 265.851959 
L 223.970813 251.592394 
L 247.999522 237.270677 
L 272.02823 221.013671 
L 296.056938 204.617883 
L 320.085646 188.754562 
L 344.114354 172.596008 
L 368.143062 157.428074 
L 392.17177 144.053704 
L 416.200478 130.886546 
L 440.229187 120.322661 
L 464.257895 110.809478 
L 488.286603 101.210689 
L 512.315311 92.654997 
L 536.344019 86.078319 
L 560.372727 79.290523 
" clip-path="url(#p489e4da74a)" style="fill: none; stroke-dasharray: 3.7,1.6; stroke-dashoffset: 0; stroke: #7f7f7f; stroke-opacity: 0.6"/>
   </g>
   <g id="line2d_112">
    <path d="M 103.827273 307.8 
L 127.855981 301.012985 
L 151.884689 290.229462 
L 175.913397 278.365638 
L 199.942105 264.572119 
L 223.970813 248.638757 
L 247.999522 232.254992 
L 272.02823 215.708983 
L 296.056938 200.154829 
L 320.085646 184.914773 
L 344.114354 169.172764 
L 368.143062 155.020918 
L 392.17177 140.661129 
L 416.200478 129.35745 
L 440.229187 118.168254 
L 464.257895 108.935565 
L 488.286603 100.680579 
L 512.315311 92.852591 
L 536.344019 86.7687 
L 560.372727 81.057145 
" clip-path="url(#p489e4da74a)" style="fill: none; stroke-dasharray: 3.7,1.6; stroke-dashoffset: 0; stroke: #bcbd22; stroke-opacity: 0.6"/>
   </g>
   <g id="line2d_113">
    <path d="M 103.827273 307.8 
L 127.855981 302.363453 
L 151.884689 295.089171 
L 175.913397 285.067714 
L 199.942105 274.320208 
L 223.970813 261.976585 
L 247.999522 248.411713 
L 272.02823 234.620179 
L 296.056938 220.280547 
L 320.085646 205.052609 
L 344.114354 190.063755 
L 368.143062 175.488306 
L 392.17177 162.240775 
L 416.200478 149.757215 
L 440.229187 137.391248 
L 464.257895 126.663721 
L 488.286603 117.3831 
L 512.315311 109.062476 
L 536.344019 101.171256 
L 560.372727 93.472253 
" clip-path="url(#p489e4da74a)" style="fill: none; stroke-dasharray: 3.7,1.6; stroke-dashoffset: 0; stroke: #17becf; stroke-opacity: 0.6"/>
   </g>
   <g id="line2d_114">
    <path d="M 103.827273 307.8 
L 127.855981 301.494901 
L 151.884689 293.065052 
L 175.913397 282.263429 
L 199.942105 269.632733 
L 223.970813 255.537657 
L 247.999522 240.23772 
L 272.02823 224.276532 
L 296.056938 208.042695 
L 320.085646 191.976293 
L 344.114354 176.361942 
L 368.143062 161.426305 
L 392.17177 147.480899 
L 416.200478 134.555021 
L 440.229187 122.857899 
L 464.257895 112.456262 
L 488.286603 103.029593 
L 512.315311 94.733596 
L 536.344019 87.487284 
L 560.372727 81.091557 
" clip-path="url(#p489e4da74a)" style="fill: none; stroke: #000000; stroke-width: 2.5; stroke-linecap: square"/>
   </g>
   <g id="patch_3">
    <path d="M 81 320.4 
L 81 43.2 
" style="fill: none; stroke: #000000; stroke-width: 0.8; stroke-linejoin: miter; stroke-linecap: square"/>
   </g>
   <g id="patch_4">
    <path d="M 583.2 320.4 
L 583.2 43.2 
" style="fill: none; stroke: #000000; stroke-width: 0.8; stroke-linejoin: miter; stroke-linecap: square"/>
   </g>
   <g id="patch_5">
    <path d="M 81 320.4 
L 583.2 320.4 
" style="fill: none; stroke: #000000; stroke-width: 0.8; stroke-linejoin: miter; stroke-linecap: square"/>
   </g>
   <g id="patch_6">
    <path d="M 81 43.2 
L 583.2 43.2 
" style="fill: none; stroke: #000000; stroke-width: 0.8; stroke-linejoin: miter; stroke-linecap: square"/>
   </g>
   <g id="legend_1">
    <g id="patch_7">
     <path d="M 88 65.878125 
L 161.065625 65.878125 
Q 163.065625 65.878125 163.065625 63.878125 
L 163.065625 50.2 
Q 163.065625 48.2 161.065625 48.2 
L 88 48.2 
Q 86 48.2 86 50.2 
L 86 63.878125 
Q 86 65.878125 88 65.878125 
z
" style="fill: #ffffff; opacity: 0.8; stroke: #cccccc; stroke-linejoin: miter"/>
    </g>
    <g id="line2d_115">
     <path d="M 90 56.298437 
L 100 56.298437 
L 110 56.298437 
" style="fill: none; stroke: #000000; stroke-width: 2.5; stroke-linecap: square"/>
    </g>
    <g id="text_16">
     <!-- Average -->
     <g transform="translate(118 59.798437) scale(0.1 -0.1)">
      <defs>
       <path id="DejaVuSans-41" d="M 2188 4044 
L 1331 1722 
L 3047 1722 
L 2188 4044 
z
M 1831 4666 
L 2547 4666 
L 4325 0 
L 3669 0 
L 3244 1197 
L 1141 1197 
L 716 0 
L 50 0 
L 1831 4666 
z
" transform="scale(0.015625)"/>
       <path id="DejaVuSans-67" d="M 2906 1791 
Q 2906 2416 2648 2759 
Q 2391 3103 1925 3103 
Q 1463 3103 1205 2759 
Q 947 2416 947 1791 
Q 947 1169 1205 825 
Q 1463 481 1925 481 
Q 2391 481 2648 825 
Q 2906 1169 2906 1791 
z
M 3481 434 
Q 3481 -459 3084 -895 
Q 2688 -1331 1869 -1331 
Q 1566 -1331 1297 -1286 
Q 1028 -1241 775 -1147 
L 775 -588 
Q 1028 -725 1275 -790 
Q 1522 -856 1778 -856 
Q 2344 -856 2625 -561 
Q 2906 -266 2906 331 
L 2906 616 
Q 2728 306 2450 153 
Q 2172 0 1784 0 
Q 1141 0 747 490 
Q 353 981 353 1791 
Q 353 2603 747 3093 
Q 1141 3584 1784 3584 
Q 2172 3584 2450 3431 
Q 2728 3278 2906 2969 
L 2906 3500 
L 3481 3500 
L 3481 434 
z
" transform="scale(0.015625)"/>
      </defs>
      <use xlink:href="#DejaVuSans-41"/>
      <use xlink:href="#DejaVuSans-76" x="62.533203"/>
      <use xlink:href="#DejaVuSans-65" x="121.712891"/>
      <use xlink:href="#DejaVuSans-72" x="183.236328"/>
      <use xlink:href="#DejaVuSans-61" x="224.349609"/>
      <use xlink:href="#DejaVuSans-67" x="285.628906"/>
      <use xlink:href="#DejaVuSans-65" x="349.105469"/>
     </g>
    </g>
   </g>
  </g>
 </g>
 <defs>
  <clipPath id="p489e4da74a">
   <rect x="81" y="43.2" width="502.2" height="277.2"/>
  </clipPath>
 </defs>
</svg>
