<?xml version="1.0" encoding="utf-8" standalone="no"?>
<!DOCTYPE svg PUBLIC "-//W3C//DTD SVG 1.1//EN"
  "http://www.w3.org/Graphics/SVG/1.1/DTD/svg11.dtd">
<svg xmlns:xlink="http://www.w3.org/1999/xlink" width="648pt" height="360pt" viewBox="0 0 648 360" xmlns="http://www.w3.org/2000/svg" version="1.1">
 <metadata>
  <rdf:RDF xmlns:dc="http://purl.org/dc/elements/1.1/" xmlns:cc="http://creativecommons.org/ns#" xmlns:rdf="http://www.w3.org/1999/02/22-rdf-syntax-ns#">
   <cc:Work>
    <dc:type rdf:resource="http://purl.org/dc/dcmitype/StillImage"/>
    <dc:date>2025-08-10T22:42:22.012770</dc:date>
    <dc:format>image/svg+xml</dc:format>
    <dc:creator>
     <cc:Agent>
      <dc:title>Matplotlib v3.8.0, https://matplotlib.org/</dc:title>
     </cc:Agent>
    </dc:creator>
   </cc:Work>
  </rdf:RDF>
 </metadata>
 <defs>
  <style type="text/css">*{stroke-linejoin: round; stroke-linecap: butt}</style>
 </defs>
 <g id="figure_1">
  <g id="patch_1">
   <path d="M 0 360 
L 648 360 
L 648 0 
L 0 0 
z
" style="fill: #ffffff"/>
  </g>
  <g id="axes_1">
   <g id="patch_2">
    <path d="M 81 320.4 
L 583.2 320.4 
L 583.2 43.2 
L 81 43.2 
z
" style="fill: #ffffff"/>
   </g>
   <g id="matplotlib.axis_1">
    <g id="xtick_1">
     <g id="line2d_1">
      <defs>
       <path id="m9ad56171a2" d="M 0 0 
L 0 3.5 
" style="stroke: #000000; stroke-width: 0.8"/>
      </defs>
      <g>
       <use xlink:href="#m9ad56171a2" x="103.827273" y="320.4" style="stroke: #000000; stroke-width: 0.8"/>
      </g>
     </g>
     <g id="text_1">
      <!-- 2005 -->
      <g transform="translate(88.557273 336.518125) scale(0.12 -0.12)">
       <defs>
        <path id="DejaVuSans-32" d="M 1228 531 
L 3431 531 
L 3431 0 
L 469 0 
L 469 531 
Q 828 903 1448 1529 
Q 2069 2156 2228 2338 
Q 2531 2678 2651 2914 
Q 2772 3150 2772 3378 
Q 2772 3750 2511 3984 
Q 2250 4219 1831 4219 
Q 1534 4219 1204 4116 
Q 875 4013 500 3803 
L 500 4441 
Q 881 4594 1212 4672 
Q 1544 4750 1819 4750 
Q 2544 4750 2975 4387 
Q 3406 4025 3406 3419 
Q 3406 3131 3298 2873 
Q 3191 2616 2906 2266 
Q 2828 2175 2409 1742 
Q 1991 1309 1228 531 
z
" transform="scale(0.015625)"/>
        <path id="DejaVuSans-30" d="M 2034 4250 
Q 1547 4250 1301 3770 
Q 1056 3291 1056 2328 
Q 1056 1369 1301 889 
Q 1547 409 2034 409 
Q 2525 409 2770 889 
Q 3016 1369 3016 2328 
Q 3016 3291 2770 3770 
Q 2525 4250 2034 4250 
z
M 2034 4750 
Q 2819 4750 3233 4129 
Q 3647 3509 3647 2328 
Q 3647 1150 3233 529 
Q 2819 -91 2034 -91 
Q 1250 -91 836 529 
Q 422 1150 422 2328 
Q 422 3509 836 4129 
Q 1250 4750 2034 4750 
z
" transform="scale(0.015625)"/>
        <path id="DejaVuSans-35" d="M 691 4666 
L 3169 4666 
L 3169 4134 
L 1269 4134 
L 1269 2991 
Q 1406 3038 1543 3061 
Q 1681 3084 1819 3084 
Q 2600 3084 3056 2656 
Q 3513 2228 3513 1497 
Q 3513 744 3044 326 
Q 2575 -91 1722 -91 
Q 1428 -91 1123 -41 
Q 819 9 494 109 
L 494 744 
Q 775 591 1075 516 
Q 1375 441 1709 441 
Q 2250 441 2565 725 
Q 2881 1009 2881 1497 
Q 2881 1984 2565 2268 
Q 2250 2553 1709 2553 
Q 1456 2553 1204 2497 
Q 953 2441 691 2322 
L 691 4666 
z
" transform="scale(0.015625)"/>
       </defs>
       <use xlink:href="#DejaVuSans-32"/>
       <use xlink:href="#DejaVuSans-30" x="63.623047"/>
       <use xlink:href="#DejaVuSans-30" x="127.246094"/>
       <use xlink:href="#DejaVuSans-35" x="190.869141"/>
      </g>
     </g>
    </g>
    <g id="xtick_2">
     <g id="line2d_2">
      <g>
       <use xlink:href="#m9ad56171a2" x="163.899043" y="320.4" style="stroke: #000000; stroke-width: 0.8"/>
      </g>
     </g>
     <g id="text_2">
      <!-- 2007 -->
      <g transform="translate(148.629043 336.518125) scale(0.12 -0.12)">
       <defs>
        <path id="DejaVuSans-37" d="M 525 4666 
L 3525 4666 
L 3525 4397 
L 1831 0 
L 1172 0 
L 2766 4134 
L 525 4134 
L 525 4666 
z
" transform="scale(0.015625)"/>
       </defs>
       <use xlink:href="#DejaVuSans-32"/>
       <use xlink:href="#DejaVuSans-30" x="63.623047"/>
       <use xlink:href="#DejaVuSans-30" x="127.246094"/>
       <use xlink:href="#DejaVuSans-37" x="190.869141"/>
      </g>
     </g>
    </g>
    <g id="xtick_3">
     <g id="line2d_3">
      <g>
       <use xlink:href="#m9ad56171a2" x="223.970813" y="320.4" style="stroke: #000000; stroke-width: 0.8"/>
      </g>
     </g>
     <g id="text_3">
      <!-- 2010 -->
      <g transform="translate(208.700813 336.518125) scale(0.12 -0.12)">
       <defs>
        <path id="DejaVuSans-31" d="M 794 531 
L 1825 531 
L 1825 4091 
L 703 3866 
L 703 4441 
L 1819 4666 
L 2450 4666 
L 2450 531 
L 3481 531 
L 3481 0 
L 794 0 
L 794 531 
z
" transform="scale(0.015625)"/>
       </defs>
       <use xlink:href="#DejaVuSans-32"/>
       <use xlink:href="#DejaVuSans-30" x="63.623047"/>
       <use xlink:href="#DejaVuSans-31" x="127.246094"/>
       <use xlink:href="#DejaVuSans-30" x="190.869141"/>
      </g>
     </g>
    </g>
    <g id="xtick_4">
     <g id="line2d_4">
      <g>
       <use xlink:href="#m9ad56171a2" x="284.042584" y="320.4" style="stroke: #000000; stroke-width: 0.8"/>
      </g>
     </g>
     <g id="text_4">
      <!-- 2012 -->
      <g transform="translate(268.772584 336.518125) scale(0.12 -0.12)">
       <use xlink:href="#DejaVuSans-32"/>
       <use xlink:href="#DejaVuSans-30" x="63.623047"/>
       <use xlink:href="#DejaVuSans-31" x="127.246094"/>
       <use xlink:href="#DejaVuSans-32" x="190.869141"/>
      </g>
     </g>
    </g>
    <g id="xtick_5">
     <g id="line2d_5">
      <g>
       <use xlink:href="#m9ad56171a2" x="344.114354" y="320.4" style="stroke: #000000; stroke-width: 0.8"/>
      </g>
     </g>
     <g id="text_5">
      <!-- 2015 -->
      <g transform="translate(328.844354 336.518125) scale(0.12 -0.12)">
       <use xlink:href="#DejaVuSans-32"/>
       <use xlink:href="#DejaVuSans-30" x="63.623047"/>
       <use xlink:href="#DejaVuSans-31" x="127.246094"/>
       <use xlink:href="#DejaVuSans-35" x="190.869141"/>
      </g>
     </g>
    </g>
    <g id="xtick_6">
     <g id="line2d_6">
      <g>
       <use xlink:href="#m9ad56171a2" x="404.186124" y="320.4" style="stroke: #000000; stroke-width: 0.8"/>
      </g>
     </g>
     <g id="text_6">
      <!-- 2017 -->
      <g transform="translate(388.916124 336.518125) scale(0.12 -0.12)">
       <use xlink:href="#DejaVuSans-32"/>
       <use xlink:href="#DejaVuSans-30" x="63.623047"/>
       <use xlink:href="#DejaVuSans-31" x="127.246094"/>
       <use xlink:href="#DejaVuSans-37" x="190.869141"/>
      </g>
     </g>
    </g>
    <g id="xtick_7">
     <g id="line2d_7">
      <g>
       <use xlink:href="#m9ad56171a2" x="464.257895" y="320.4" style="stroke: #000000; stroke-width: 0.8"/>
      </g>
     </g>
     <g id="text_7">
      <!-- 2020 -->
      <g transform="translate(448.987895 336.518125) scale(0.12 -0.12)">
       <use xlink:href="#DejaVuSans-32"/>
       <use xlink:href="#DejaVuSans-30" x="63.623047"/>
       <use xlink:href="#DejaVuSans-32" x="127.246094"/>
       <use xlink:href="#DejaVuSans-30" x="190.869141"/>
      </g>
     </g>
    </g>
    <g id="xtick_8">
     <g id="line2d_8">
      <g>
       <use xlink:href="#m9ad56171a2" x="524.329665" y="320.4" style="stroke: #000000; stroke-width: 0.8"/>
      </g>
     </g>
     <g id="text_8">
      <!-- 2022 -->
      <g transform="translate(509.059665 336.518125) scale(0.12 -0.12)">
       <use xlink:href="#DejaVuSans-32"/>
       <use xlink:href="#DejaVuSans-30" x="63.623047"/>
       <use xlink:href="#DejaVuSans-32" x="127.246094"/>
       <use xlink:href="#DejaVuSans-32" x="190.869141"/>
      </g>
     </g>
    </g>
    <g id="text_9">
     <!-- Year -->
     <g transform="translate(316.21875 354.411406) scale(0.15 -0.15)">
      <defs>
       <path id="DejaVuSans-59" d="M -13 4666 
L 666 4666 
L 1959 2747 
L 3244 4666 
L 3922 4666 
L 2272 2222 
L 2272 0 
L 1638 0 
L 1638 2222 
L -13 4666 
z
" transform="scale(0.015625)"/>
       <path id="DejaVuSans-65" d="M 3597 1894 
L 3597 1613 
L 953 1613 
Q 991 1019 1311 708 
Q 1631 397 2203 397 
Q 2534 397 2845 478 
Q 3156 559 3463 722 
L 3463 178 
Q 3153 47 2828 -22 
Q 2503 -91 2169 -91 
Q 1331 -91 842 396 
Q 353 884 353 1716 
Q 353 2575 817 3079 
Q 1281 3584 2069 3584 
Q 2775 3584 3186 3129 
Q 3597 2675 3597 1894 
z
M 3022 2063 
Q 3016 2534 2758 2815 
Q 2500 3097 2075 3097 
Q 1594 3097 1305 2825 
Q 1016 2553 972 2059 
L 3022 2063 
z
" transform="scale(0.015625)"/>
       <path id="DejaVuSans-61" d="M 2194 1759 
Q 1497 1759 1228 1600 
Q 959 1441 959 1056 
Q 959 750 1161 570 
Q 1363 391 1709 391 
Q 2188 391 2477 730 
Q 2766 1069 2766 1631 
L 2766 1759 
L 2194 1759 
z
M 3341 1997 
L 3341 0 
L 2766 0 
L 2766 531 
Q 2569 213 2275 61 
Q 1981 -91 1556 -91 
Q 1019 -91 701 211 
Q 384 513 384 1019 
Q 384 1609 779 1909 
Q 1175 2209 1959 2209 
L 2766 2209 
L 2766 2266 
Q 2766 2663 2505 2880 
Q 2244 3097 1772 3097 
Q 1472 3097 1187 3025 
Q 903 2953 641 2809 
L 641 3341 
Q 956 3463 1253 3523 
Q 1550 3584 1831 3584 
Q 2591 3584 2966 3190 
Q 3341 2797 3341 1997 
z
" transform="scale(0.015625)"/>
       <path id="DejaVuSans-72" d="M 2631 2963 
Q 2534 3019 2420 3045 
Q 2306 3072 2169 3072 
Q 1681 3072 1420 2755 
Q 1159 2438 1159 1844 
L 1159 0 
L 581 0 
L 581 3500 
L 1159 3500 
L 1159 2956 
Q 1341 3275 1631 3429 
Q 1922 3584 2338 3584 
Q 2397 3584 2469 3576 
Q 2541 3569 2628 3553 
L 2631 2963 
z
" transform="scale(0.015625)"/>
      </defs>
      <use xlink:href="#DejaVuSans-59"/>
      <use xlink:href="#DejaVuSans-65" x="47.833984"/>
      <use xlink:href="#DejaVuSans-61" x="109.357422"/>
      <use xlink:href="#DejaVuSans-72" x="170.636719"/>
     </g>
    </g>
   </g>
   <g id="matplotlib.axis_2">
    <g id="ytick_1">
     <g id="line2d_9">
      <defs>
       <path id="m6c191e6f3d" d="M 0 0 
L -3.5 0 
" style="stroke: #000000; stroke-width: 0.8"/>
      </defs>
      <g>
       <use xlink:href="#m6c191e6f3d" x="81" y="293.460995" style="stroke: #000000; stroke-width: 0.8"/>
      </g>
     </g>
     <g id="text_10">
      <!-- 12 -->
      <g transform="translate(58.73 298.020058) scale(0.12 -0.12)">
       <use xlink:href="#DejaVuSans-31"/>
       <use xlink:href="#DejaVuSans-32" x="63.623047"/>
      </g>
     </g>
    </g>
    <g id="ytick_2">
     <g id="line2d_10">
      <g>
       <use xlink:href="#m6c191e6f3d" x="81" y="260.660407" style="stroke: #000000; stroke-width: 0.8"/>
      </g>
     </g>
     <g id="text_11">
      <!-- 14 -->
      <g transform="translate(58.73 265.219469) scale(0.12 -0.12)">
       <defs>
        <path id="DejaVuSans-34" d="M 2419 4116 
L 825 1625 
L 2419 1625 
L 2419 4116 
z
M 2253 4666 
L 3047 4666 
L 3047 1625 
L 3713 1625 
L 3713 1100 
L 3047 1100 
L 3047 0 
L 2419 0 
L 2419 1100 
L 313 1100 
L 313 1709 
L 2253 4666 
z
" transform="scale(0.015625)"/>
       </defs>
       <use xlink:href="#DejaVuSans-31"/>
       <use xlink:href="#DejaVuSans-34" x="63.623047"/>
      </g>
     </g>
    </g>
    <g id="ytick_3">
     <g id="line2d_11">
      <g>
       <use xlink:href="#m6c191e6f3d" x="81" y="227.859818" style="stroke: #000000; stroke-width: 0.8"/>
      </g>
     </g>
     <g id="text_12">
      <!-- 16 -->
      <g transform="translate(58.73 232.418881) scale(0.12 -0.12)">
       <defs>
        <path id="DejaVuSans-36" d="M 2113 2584 
Q 1688 2584 1439 2293 
Q 1191 2003 1191 1497 
Q 1191 994 1439 701 
Q 1688 409 2113 409 
Q 2538 409 2786 701 
Q 3034 994 3034 1497 
Q 3034 2003 2786 2293 
Q 2538 2584 2113 2584 
z
M 3366 4563 
L 3366 3988 
Q 3128 4100 2886 4159 
Q 2644 4219 2406 4219 
Q 1781 4219 1451 3797 
Q 1122 3375 1075 2522 
Q 1259 2794 1537 2939 
Q 1816 3084 2150 3084 
Q 2853 3084 3261 2657 
Q 3669 2231 3669 1497 
Q 3669 778 3244 343 
Q 2819 -91 2113 -91 
Q 1303 -91 875 529 
Q 447 1150 447 2328 
Q 447 3434 972 4092 
Q 1497 4750 2381 4750 
Q 2619 4750 2861 4703 
Q 3103 4656 3366 4563 
z
" transform="scale(0.015625)"/>
       </defs>
       <use xlink:href="#DejaVuSans-31"/>
       <use xlink:href="#DejaVuSans-36" x="63.623047"/>
      </g>
     </g>
    </g>
    <g id="ytick_4">
     <g id="line2d_12">
      <g>
       <use xlink:href="#m6c191e6f3d" x="81" y="195.05923" style="stroke: #000000; stroke-width: 0.8"/>
      </g>
     </g>
     <g id="text_13">
      <!-- 18 -->
      <g transform="translate(58.73 199.618292) scale(0.12 -0.12)">
       <defs>
        <path id="DejaVuSans-38" d="M 2034 2216 
Q 1584 2216 1326 1975 
Q 1069 1734 1069 1313 
Q 1069 891 1326 650 
Q 1584 409 2034 409 
Q 2484 409 2743 651 
Q 3003 894 3003 1313 
Q 3003 1734 2745 1975 
Q 2488 2216 2034 2216 
z
M 1403 2484 
Q 997 2584 770 2862 
Q 544 3141 544 3541 
Q 544 4100 942 4425 
Q 1341 4750 2034 4750 
Q 2731 4750 3128 4425 
Q 3525 4100 3525 3541 
Q 3525 3141 3298 2862 
Q 3072 2584 2669 2484 
Q 3125 2378 3379 2068 
Q 3634 1759 3634 1313 
Q 3634 634 3220 271 
Q 2806 -91 2034 -91 
Q 1263 -91 848 271 
Q 434 634 434 1313 
Q 434 1759 690 2068 
Q 947 2378 1403 2484 
z
M 1172 3481 
Q 1172 3119 1398 2916 
Q 1625 2713 2034 2713 
Q 2441 2713 2670 2916 
Q 2900 3119 2900 3481 
Q 2900 3844 2670 4047 
Q 2441 4250 2034 4250 
Q 1625 4250 1398 4047 
Q 1172 3844 1172 3481 
z
" transform="scale(0.015625)"/>
       </defs>
       <use xlink:href="#DejaVuSans-31"/>
       <use xlink:href="#DejaVuSans-38" x="63.623047"/>
      </g>
     </g>
    </g>
    <g id="ytick_5">
     <g id="line2d_13">
      <g>
       <use xlink:href="#m6c191e6f3d" x="81" y="162.258641" style="stroke: #000000; stroke-width: 0.8"/>
      </g>
     </g>
     <g id="text_14">
      <!-- 20 -->
      <g transform="translate(58.73 166.817703) scale(0.12 -0.12)">
       <use xlink:href="#DejaVuSans-32"/>
       <use xlink:href="#DejaVuSans-30" x="63.623047"/>
      </g>
     </g>
    </g>
    <g id="ytick_6">
     <g id="line2d_14">
      <g>
       <use xlink:href="#m6c191e6f3d" x="81" y="129.458052" style="stroke: #000000; stroke-width: 0.8"/>
      </g>
     </g>
     <g id="text_15">
      <!-- 22 -->
      <g transform="translate(58.73 134.017115) scale(0.12 -0.12)">
       <use xlink:href="#DejaVuSans-32"/>
       <use xlink:href="#DejaVuSans-32" x="63.623047"/>
      </g>
     </g>
    </g>
    <g id="ytick_7">
     <g id="line2d_15">
      <g>
       <use xlink:href="#m6c191e6f3d" x="81" y="96.657464" style="stroke: #000000; stroke-width: 0.8"/>
      </g>
     </g>
     <g id="text_16">
      <!-- 24 -->
      <g transform="translate(58.73 101.216526) scale(0.12 -0.12)">
       <use xlink:href="#DejaVuSans-32"/>
       <use xlink:href="#DejaVuSans-34" x="63.623047"/>
      </g>
     </g>
    </g>
    <g id="ytick_8">
     <g id="line2d_16">
      <g>
       <use xlink:href="#m6c191e6f3d" x="81" y="63.856875" style="stroke: #000000; stroke-width: 0.8"/>
      </g>
     </g>
     <g id="text_17">
      <!-- 26 -->
      <g transform="translate(58.73 68.415938) scale(0.12 -0.12)">
       <use xlink:href="#DejaVuSans-32"/>
       <use xlink:href="#DejaVuSans-36" x="63.623047"/>
      </g>
     </g>
    </g>
    <g id="text_18">
     <!-- Total coral cover (%) -->
     <g transform="translate(51.610469 258.769922) rotate(-90) scale(0.15 -0.15)">
      <defs>
       <path id="DejaVuSans-54" d="M -19 4666 
L 3928 4666 
L 3928 4134 
L 2272 4134 
L 2272 0 
L 1638 0 
L 1638 4134 
L -19 4134 
L -19 4666 
z
" transform="scale(0.015625)"/>
       <path id="DejaVuSans-6f" d="M 1959 3097 
Q 1497 3097 1228 2736 
Q 959 2375 959 1747 
Q 959 1119 1226 758 
Q 1494 397 1959 397 
Q 2419 397 2687 759 
Q 2956 1122 2956 1747 
Q 2956 2369 2687 2733 
Q 2419 3097 1959 3097 
z
M 1959 3584 
Q 2709 3584 3137 3096 
Q 3566 2609 3566 1747 
Q 3566 888 3137 398 
Q 2709 -91 1959 -91 
Q 1206 -91 779 398 
Q 353 888 353 1747 
Q 353 2609 779 3096 
Q 1206 3584 1959 3584 
z
" transform="scale(0.015625)"/>
       <path id="DejaVuSans-74" d="M 1172 4494 
L 1172 3500 
L 2356 3500 
L 2356 3053 
L 1172 3053 
L 1172 1153 
Q 1172 725 1289 603 
Q 1406 481 1766 481 
L 2356 481 
L 2356 0 
L 1766 0 
Q 1100 0 847 248 
Q 594 497 594 1153 
L 594 3053 
L 172 3053 
L 172 3500 
L 594 3500 
L 594 4494 
L 1172 4494 
z
" transform="scale(0.015625)"/>
       <path id="DejaVuSans-6c" d="M 603 4863 
L 1178 4863 
L 1178 0 
L 603 0 
L 603 4863 
z
" transform="scale(0.015625)"/>
       <path id="DejaVuSans-20" transform="scale(0.015625)"/>
       <path id="DejaVuSans-63" d="M 3122 3366 
L 3122 2828 
Q 2878 2963 2633 3030 
Q 2388 3097 2138 3097 
Q 1578 3097 1268 2742 
Q 959 2388 959 1747 
Q 959 1106 1268 751 
Q 1578 397 2138 397 
Q 2388 397 2633 464 
Q 2878 531 3122 666 
L 3122 134 
Q 2881 22 2623 -34 
Q 2366 -91 2075 -91 
Q 1284 -91 818 406 
Q 353 903 353 1747 
Q 353 2603 823 3093 
Q 1294 3584 2113 3584 
Q 2378 3584 2631 3529 
Q 2884 3475 3122 3366 
z
" transform="scale(0.015625)"/>
       <path id="DejaVuSans-76" d="M 191 3500 
L 800 3500 
L 1894 563 
L 2988 3500 
L 3597 3500 
L 2284 0 
L 1503 0 
L 191 3500 
z
" transform="scale(0.015625)"/>
       <path id="DejaVuSans-28" d="M 1984 4856 
Q 1566 4138 1362 3434 
Q 1159 2731 1159 2009 
Q 1159 1288 1364 580 
Q 1569 -128 1984 -844 
L 1484 -844 
Q 1016 -109 783 600 
Q 550 1309 550 2009 
Q 550 2706 781 3412 
Q 1013 4119 1484 4856 
L 1984 4856 
z
" transform="scale(0.015625)"/>
       <path id="DejaVuSans-25" d="M 4653 2053 
Q 4381 2053 4226 1822 
Q 4072 1591 4072 1178 
Q 4072 772 4226 539 
Q 4381 306 4653 306 
Q 4919 306 5073 539 
Q 5228 772 5228 1178 
Q 5228 1588 5073 1820 
Q 4919 2053 4653 2053 
z
M 4653 2450 
Q 5147 2450 5437 2106 
Q 5728 1763 5728 1178 
Q 5728 594 5436 251 
Q 5144 -91 4653 -91 
Q 4153 -91 3862 251 
Q 3572 594 3572 1178 
Q 3572 1766 3864 2108 
Q 4156 2450 4653 2450 
z
M 1428 4353 
Q 1159 4353 1004 4120 
Q 850 3888 850 3481 
Q 850 3069 1003 2837 
Q 1156 2606 1428 2606 
Q 1700 2606 1854 2837 
Q 2009 3069 2009 3481 
Q 2009 3884 1853 4118 
Q 1697 4353 1428 4353 
z
M 4250 4750 
L 4750 4750 
L 1831 -91 
L 1331 -91 
L 4250 4750 
z
M 1428 4750 
Q 1922 4750 2215 4408 
Q 2509 4066 2509 3481 
Q 2509 2891 2217 2550 
Q 1925 2209 1428 2209 
Q 931 2209 642 2551 
Q 353 2894 353 3481 
Q 353 4063 643 4406 
Q 934 4750 1428 4750 
z
" transform="scale(0.015625)"/>
       <path id="DejaVuSans-29" d="M 513 4856 
L 1013 4856 
Q 1481 4119 1714 3412 
Q 1947 2706 1947 2009 
Q 1947 1309 1714 600 
Q 1481 -109 1013 -844 
L 513 -844 
Q 928 -128 1133 580 
Q 1338 1288 1338 2009 
Q 1338 2731 1133 3434 
Q 928 4138 513 4856 
z
" transform="scale(0.015625)"/>
      </defs>
      <use xlink:href="#DejaVuSans-54"/>
      <use xlink:href="#DejaVuSans-6f" x="44.083984"/>
      <use xlink:href="#DejaVuSans-74" x="105.265625"/>
      <use xlink:href="#DejaVuSans-61" x="144.474609"/>
      <use xlink:href="#DejaVuSans-6c" x="205.753906"/>
      <use xlink:href="#DejaVuSans-20" x="233.537109"/>
      <use xlink:href="#DejaVuSans-63" x="265.324219"/>
      <use xlink:href="#DejaVuSans-6f" x="320.304688"/>
      <use xlink:href="#DejaVuSans-72" x="381.486328"/>
      <use xlink:href="#DejaVuSans-61" x="422.599609"/>
      <use xlink:href="#DejaVuSans-6c" x="483.878906"/>
      <use xlink:href="#DejaVuSans-20" x="511.662109"/>
      <use xlink:href="#DejaVuSans-63" x="543.449219"/>
      <use xlink:href="#DejaVuSans-6f" x="598.429688"/>
      <use xlink:href="#DejaVuSans-76" x="659.611328"/>
      <use xlink:href="#DejaVuSans-65" x="718.791016"/>
      <use xlink:href="#DejaVuSans-72" x="780.314453"/>
      <use xlink:href="#DejaVuSans-20" x="821.427734"/>
      <use xlink:href="#DejaVuSans-28" x="853.214844"/>
      <use xlink:href="#DejaVuSans-25" x="892.228516"/>
      <use xlink:href="#DejaVuSans-29" x="987.248047"/>
     </g>
    </g>
   </g>
   <g id="line2d_17">
    <path d="M 103.827273 196.699259 
L 127.855981 187.696346 
L 151.884689 305.77299 
L 175.913397 289.557808 
L 199.942105 271.174925 
L 223.970813 248.103687 
L 247.999522 220.142819 
L 272.02823 186.890112 
L 296.056938 260.867029 
L 320.085646 252.494534 
L 344.114354 216.582328 
L 368.143062 232.894685 
L 392.17177 196.97459 
L 416.200478 179.996781 
L 440.229187 137.21124 
L 464.257895 220.394228 
L 488.286603 246.771129 
L 512.315311 199.485372 
L 536.344019 148.759486 
L 560.372727 99.352268 
" clip-path="url(#pef87467320)" style="fill: none; stroke-dasharray: 3.7,1.6; stroke-dashoffset: 0; stroke: #1f77b4; stroke-opacity: 0.6"/>
   </g>
   <g id="line2d_18">
    <path d="M 103.827273 196.699259 
L 127.855981 184.046421 
L 151.884689 296.526747 
L 175.913397 272.667754 
L 199.942105 244.009282 
L 223.970813 211.51679 
L 247.999522 176.84585 
L 272.02823 140.06624 
L 296.056938 236.227743 
L 320.085646 226.592773 
L 344.114354 190.031699 
L 368.143062 212.407835 
L 392.17177 177.075102 
L 416.200478 162.30731 
L 440.229187 121.921133 
L 464.257895 212.702965 
L 488.286603 242.658302 
L 512.315311 196.785565 
L 536.344019 149.471148 
L 560.372727 102.381984 
" clip-path="url(#pef87467320)" style="fill: none; stroke-dasharray: 3.7,1.6; stroke-dashoffset: 0; stroke: #ff7f0e; stroke-opacity: 0.6"/>
   </g>
   <g id="line2d_19">
    <path d="M 103.827273 196.699259 
L 127.855981 186.238405 
L 151.884689 301.845184 
L 175.913397 282.274913 
L 199.942105 257.780634 
L 223.970813 229.945474 
L 247.999522 198.716671 
L 272.02823 165.571791 
L 296.056938 250.894421 
L 320.085646 243.47784 
L 344.114354 209.629454 
L 368.143062 230.443798 
L 392.17177 195.681522 
L 416.200478 180.559187 
L 440.229187 140.679063 
L 464.257895 225.744897 
L 488.286603 253.508894 
L 512.315311 208.633128 
L 536.344019 161.019716 
L 560.372727 114.30184 
" clip-path="url(#pef87467320)" style="fill: none; stroke-dasharray: 3.7,1.6; stroke-dashoffset: 0; stroke: #2ca02c; stroke-opacity: 0.6"/>
   </g>
   <g id="line2d_20">
    <path d="M 103.827273 196.699259 
L 127.855981 187.029605 
L 151.884689 304.391658 
L 175.913397 288.295419 
L 199.942105 268.904213 
L 223.970813 245.68165 
L 247.999522 220.763872 
L 272.02823 192.964253 
L 296.056938 267.729576 
L 320.085646 265.685882 
L 344.114354 236.779844 
L 368.143062 255.737749 
L 392.17177 225.556837 
L 416.200478 211.782635 
L 440.229187 174.110917 
L 464.257895 245.840494 
L 488.286603 271.611676 
L 512.315311 230.64828 
L 536.344019 188.90592 
L 560.372727 147.911127 
" clip-path="url(#pef87467320)" style="fill: none; stroke-dasharray: 3.7,1.6; stroke-dashoffset: 0; stroke: #d62728; stroke-opacity: 0.6"/>
   </g>
   <g id="line2d_21">
    <path d="M 103.827273 196.699259 
L 127.855981 186.434675 
L 151.884689 302.242101 
L 175.913397 285.645389 
L 199.942105 264.676849 
L 223.970813 240.118422 
L 247.999522 212.514589 
L 272.02823 182.278453 
L 296.056938 257.881751 
L 320.085646 253.820769 
L 344.114354 224.417051 
L 368.143062 243.431147 
L 392.17177 213.214653 
L 416.200478 200.036186 
L 440.229187 164.054424 
L 464.257895 236.094588 
L 488.286603 261.702346 
L 512.315311 221.371234 
L 536.344019 178.968252 
L 560.372727 135.823177 
" clip-path="url(#pef87467320)" style="fill: none; stroke-dasharray: 3.7,1.6; stroke-dashoffset: 0; stroke: #9467bd; stroke-opacity: 0.6"/>
   </g>
   <g id="line2d_22">
    <path d="M 103.827273 196.699259 
L 127.855981 187.021233 
L 151.884689 303.146094 
L 175.913397 285.289891 
L 199.942105 262.153695 
L 223.970813 236.542586 
L 247.999522 209.604764 
L 272.02823 180.715926 
L 296.056938 260.707146 
L 320.085646 257.839245 
L 344.114354 230.079112 
L 368.143062 251.261523 
L 392.17177 223.043801 
L 416.200478 212.246503 
L 440.229187 177.103279 
L 464.257895 250.222368 
L 488.286603 278.476639 
L 512.315311 240.923424 
L 536.344019 200.242761 
L 560.372727 157.882285 
" clip-path="url(#pef87467320)" style="fill: none; stroke-dasharray: 3.7,1.6; stroke-dashoffset: 0; stroke: #8c564b; stroke-opacity: 0.6"/>
   </g>
   <g id="line2d_23">
    <path d="M 103.827273 196.699259 
L 127.855981 186.594236 
L 151.884689 303.175043 
L 175.913397 283.923565 
L 199.942105 260.267528 
L 223.970813 232.683688 
L 247.999522 202.02533 
L 272.02823 169.972161 
L 296.056938 252.469738 
L 320.085646 245.722635 
L 344.114354 211.174019 
L 368.143062 230.284399 
L 392.17177 197.256034 
L 416.200478 182.528977 
L 440.229187 143.157643 
L 464.257895 224.630711 
L 488.286603 252.487288 
L 512.315311 208.442331 
L 536.344019 161.167845 
L 560.372727 110.755284 
" clip-path="url(#pef87467320)" style="fill: none; stroke-dasharray: 3.7,1.6; stroke-dashoffset: 0; stroke: #e377c2; stroke-opacity: 0.6"/>
   </g>
   <g id="line2d_24">
    <path d="M 103.827273 196.699259 
L 127.855981 187.102543 
L 151.884689 303.07922 
L 175.913397 286.827052 
L 199.942105 268.024055 
L 223.970813 245.675649 
L 247.999522 220.161156 
L 272.02823 191.643482 
L 296.056938 264.424695 
L 320.085646 260.735484 
L 344.114354 231.505817 
L 368.143062 249.864605 
L 392.17177 219.909912 
L 416.200478 206.377706 
L 440.229187 169.208982 
L 464.257895 243.020734 
L 488.286603 269.534493 
L 512.315311 229.110156 
L 536.344019 186.932265 
L 560.372727 144.150267 
" clip-path="url(#pef87467320)" style="fill: none; stroke-dasharray: 3.7,1.6; stroke-dashoffset: 0; stroke: #7f7f7f; stroke-opacity: 0.6"/>
   </g>
   <g id="line2d_25">
    <path d="M 103.827273 196.699259 
L 127.855981 188.232185 
L 151.884689 306.410547 
L 175.913397 292.05024 
L 199.942105 273.375967 
L 223.970813 252.202052 
L 247.999522 227.017892 
L 272.02823 198.870829 
L 296.056938 268.689515 
L 320.085646 264.403603 
L 344.114354 234.589954 
L 368.143062 251.695283 
L 392.17177 220.502105 
L 416.200478 206.001588 
L 440.229187 168.877786 
L 464.257895 242.450277 
L 488.286603 268.237722 
L 512.315311 226.427416 
L 536.344019 183.498738 
L 560.372727 139.369089 
" clip-path="url(#pef87467320)" style="fill: none; stroke-dasharray: 3.7,1.6; stroke-dashoffset: 0; stroke: #bcbd22; stroke-opacity: 0.6"/>
   </g>
   <g id="line2d_26">
    <path d="M 103.827273 196.699259 
L 127.855981 185.652169 
L 151.884689 300.393435 
L 175.913397 280.562653 
L 199.942105 256.175699 
L 223.970813 229.109753 
L 247.999522 199.576619 
L 272.02823 169.985501 
L 296.056938 253.517266 
L 320.085646 250.017725 
L 344.114354 220.241269 
L 368.143062 240.626201 
L 392.17177 210.088976 
L 416.200478 196.54083 
L 440.229187 158.128952 
L 464.257895 232.702601 
L 488.286603 257.918461 
L 512.315311 212.919362 
L 536.344019 164.528758 
L 560.372727 115.40862 
" clip-path="url(#pef87467320)" style="fill: none; stroke-dasharray: 3.7,1.6; stroke-dashoffset: 0; stroke: #17becf; stroke-opacity: 0.6"/>
   </g>
   <g id="line2d_27">
    <path d="M 103.827273 196.699259 
L 127.855981 184.933906 
L 151.884689 301.620651 
L 175.913397 285.241055 
L 199.942105 266.078875 
L 223.970813 243.606353 
L 247.999522 219.253097 
L 272.02823 191.555959 
L 296.056938 265.223463 
L 320.085646 263.631079 
L 344.114354 236.153678 
L 368.143062 255.870742 
L 392.17177 227.046497 
L 416.200478 215.078338 
L 440.229187 180.867681 
L 464.257895 250.257146 
L 488.286603 276.310256 
L 512.315311 238.293817 
L 536.344019 198.069615 
L 560.372727 157.595688 
" clip-path="url(#pef87467320)" style="fill: none; stroke-dasharray: 3.7,1.6; stroke-dashoffset: 0; stroke: #1f77b4; stroke-opacity: 0.6"/>
   </g>
   <g id="line2d_28">
    <path d="M 103.827273 196.699259 
L 127.855981 187.808891 
L 151.884689 304.314329 
L 175.913397 286.477863 
L 199.942105 263.831662 
L 223.970813 237.373371 
L 247.999522 208.334324 
L 272.02823 176.267978 
L 296.056938 257.301956 
L 320.085646 250.965427 
L 344.114354 217.460152 
L 368.143062 235.36763 
L 392.17177 199.4675 
L 416.200478 181.067494 
L 440.229187 137.934495 
L 464.257895 220.083158 
L 488.286603 245.307391 
L 512.315311 196.443741 
L 536.344019 144.447168 
L 560.372727 92.884677 
" clip-path="url(#pef87467320)" style="fill: none; stroke-dasharray: 3.7,1.6; stroke-dashoffset: 0; stroke: #ff7f0e; stroke-opacity: 0.6"/>
   </g>
   <g id="line2d_29">
    <path d="M 103.827273 196.699259 
L 127.855981 185.405341 
L 151.884689 300.319054 
L 175.913397 279.134298 
L 199.942105 251.928493 
L 223.970813 221.06964 
L 247.999522 188.468628 
L 272.02823 154.706924 
L 296.056938 245.724245 
L 320.085646 239.329269 
L 344.114354 206.257271 
L 368.143062 228.404291 
L 392.17177 195.275778 
L 416.200478 181.07007 
L 440.229187 139.625255 
L 464.257895 222.658505 
L 488.286603 249.81437 
L 512.315311 203.475027 
L 536.344019 153.543401 
L 560.372727 104.846879 
" clip-path="url(#pef87467320)" style="fill: none; stroke-dasharray: 3.7,1.6; stroke-dashoffset: 0; stroke: #2ca02c; stroke-opacity: 0.6"/>
   </g>
   <g id="line2d_30">
    <path d="M 103.827273 196.699259 
L 127.855981 186.79904 
L 151.884689 301.975223 
L 175.913397 281.573599 
L 199.942105 258.264427 
L 223.970813 231.756998 
L 247.999522 202.270859 
L 272.02823 169.994332 
L 296.056938 251.990091 
L 320.085646 244.22106 
L 344.114354 208.220782 
L 368.143062 226.24467 
L 392.17177 190.042808 
L 416.200478 173.296531 
L 440.229187 132.182752 
L 464.257895 217.509582 
L 488.286603 244.677361 
L 512.315311 197.564046 
L 536.344019 147.443555 
L 560.372727 98.497469 
" clip-path="url(#pef87467320)" style="fill: none; stroke-dasharray: 3.7,1.6; stroke-dashoffset: 0; stroke: #d62728; stroke-opacity: 0.6"/>
   </g>
   <g id="line2d_31">
    <path d="M 103.827273 196.699259 
L 127.855981 188.038813 
L 151.884689 303.116101 
L 175.913397 286.009436 
L 199.942105 264.905962 
L 223.970813 241.018673 
L 247.999522 215.154263 
L 272.02823 186.626356 
L 296.056938 261.940479 
L 320.085646 259.318278 
L 344.114354 230.057214 
L 368.143062 249.064709 
L 392.17177 220.027127 
L 416.200478 207.708611 
L 440.229187 172.657323 
L 464.257895 243.305399 
L 488.286603 269.140019 
L 512.315311 229.785108 
L 536.344019 188.492126 
L 560.372727 147.191576 
" clip-path="url(#pef87467320)" style="fill: none; stroke-dasharray: 3.7,1.6; stroke-dashoffset: 0; stroke: #9467bd; stroke-opacity: 0.6"/>
   </g>
   <g id="line2d_32">
    <path d="M 103.827273 196.699259 
L 127.855981 189.131746 
L 151.884689 306.90649 
L 175.913397 289.684862 
L 199.942105 269.117324 
L 223.970813 243.161291 
L 247.999522 214.62976 
L 272.02823 183.715205 
L 296.056938 261.362133 
L 320.085646 255.636957 
L 344.114354 223.98619 
L 368.143062 242.490208 
L 392.17177 210.09123 
L 416.200478 194.693085 
L 440.229187 155.229331 
L 464.257895 233.256795 
L 488.286603 260.307199 
L 512.315311 216.789547 
L 536.344019 172.180091 
L 560.372727 126.497667 
" clip-path="url(#pef87467320)" style="fill: none; stroke-dasharray: 3.7,1.6; stroke-dashoffset: 0; stroke: #8c564b; stroke-opacity: 0.6"/>
   </g>
   <g id="line2d_33">
    <path d="M 103.827273 196.699259 
L 127.855981 185.4881 
L 151.884689 299.821962 
L 175.913397 278.620163 
L 199.942105 253.396095 
L 223.970813 224.611453 
L 247.999522 193.69982 
L 272.02823 161.170577 
L 296.056938 251.019526 
L 320.085646 245.636817 
L 344.114354 213.649057 
L 368.143062 235.728452 
L 392.17177 202.071024 
L 416.200478 187.783523 
L 440.229187 147.31346 
L 464.257895 230.088289 
L 488.286603 257.703836 
L 512.315311 210.844432 
L 536.344019 164.086626 
L 560.372727 117.316743 
" clip-path="url(#pef87467320)" style="fill: none; stroke-dasharray: 3.7,1.6; stroke-dashoffset: 0; stroke: #e377c2; stroke-opacity: 0.6"/>
   </g>
   <g id="line2d_34">
    <path d="M 103.827273 196.699259 
L 127.855981 188.687842 
L 151.884689 307.145568 
L 175.913397 294.222062 
L 199.942105 277.510016 
L 223.970813 259.568999 
L 247.999522 239.155642 
L 272.02823 216.794488 
L 296.056938 281.525354 
L 320.085646 283.700271 
L 344.114354 260.633726 
L 368.143062 279.094754 
L 392.17177 253.849751 
L 416.200478 243.267884 
L 440.229187 210.294907 
L 464.257895 269.82109 
L 488.286603 292.922895 
L 512.315311 256.098732 
L 536.344019 216.35289 
L 560.372727 176.392744 
" clip-path="url(#pef87467320)" style="fill: none; stroke-dasharray: 3.7,1.6; stroke-dashoffset: 0; stroke: #7f7f7f; stroke-opacity: 0.6"/>
   </g>
   <g id="line2d_35">
    <path d="M 103.827273 196.699259 
L 127.855981 187.940436 
L 151.884689 303.971773 
L 175.913397 286.456864 
L 199.942105 264.925078 
L 223.970813 240.257611 
L 247.999522 213.617495 
L 272.02823 183.658614 
L 296.056938 261.176972 
L 320.085646 257.617535 
L 344.114354 228.22235 
L 368.143062 246.679675 
L 392.17177 215.891758 
L 416.200478 202.141224 
L 440.229187 165.453918 
L 464.257895 239.206741 
L 488.286603 265.754311 
L 512.315311 224.51736 
L 536.344019 180.374831 
L 560.372727 136.390574 
" clip-path="url(#pef87467320)" style="fill: none; stroke-dasharray: 3.7,1.6; stroke-dashoffset: 0; stroke: #bcbd22; stroke-opacity: 0.6"/>
   </g>
   <g id="line2d_36">
    <path d="M 103.827273 196.699259 
L 127.855981 187.713413 
L 151.884689 304.748314 
L 175.913397 287.929949 
L 199.942105 267.059019 
L 223.970813 242.142859 
L 247.999522 214.272671 
L 272.02823 181.404993 
L 296.056938 258.035032 
L 320.085646 250.54648 
L 344.114354 215.916071 
L 368.143062 233.745942 
L 392.17177 199.918005 
L 416.200478 184.578467 
L 440.229187 144.716698 
L 464.257895 226.731241 
L 488.286603 254.902431 
L 512.315311 212.748853 
L 536.344019 169.438904 
L 560.372727 125.537567 
" clip-path="url(#pef87467320)" style="fill: none; stroke-dasharray: 3.7,1.6; stroke-dashoffset: 0; stroke: #17becf; stroke-opacity: 0.6"/>
   </g>
   <g id="line2d_37">
    <path d="M 103.827273 196.699259 
L 127.855981 188.182917 
L 151.884689 305.584602 
L 175.913397 287.577833 
L 199.942105 266.141961 
L 223.970813 240.961172 
L 247.999522 213.666951 
L 272.02823 181.106631 
L 296.056938 259.314897 
L 320.085646 253.140343 
L 344.114354 221.55076 
L 368.143062 240.623464 
L 392.17177 208.436696 
L 416.200478 193.815422 
L 440.229187 155.305972 
L 464.257895 234.633427 
L 488.286603 262.423991 
L 512.315311 217.823067 
L 536.344019 170.756928 
L 560.372727 122.623295 
" clip-path="url(#pef87467320)" style="fill: none; stroke-dasharray: 3.7,1.6; stroke-dashoffset: 0; stroke: #1f77b4; stroke-opacity: 0.6"/>
   </g>
   <g id="line2d_38">
    <path d="M 103.827273 196.699259 
L 127.855981 188.246837 
L 151.884689 306.955393 
L 175.913397 292.067358 
L 199.942105 273.707415 
L 223.970813 250.891944 
L 247.999522 225.158199 
L 272.02823 197.170004 
L 296.056938 270.706964 
L 320.085646 267.440886 
L 344.114354 238.278038 
L 368.143062 256.221099 
L 392.17177 224.918435 
L 416.200478 209.979167 
L 440.229187 170.339591 
L 464.257895 243.716939 
L 488.286603 268.537039 
L 512.315311 226.166258 
L 536.344019 180.635344 
L 560.372727 135.684709 
" clip-path="url(#pef87467320)" style="fill: none; stroke-dasharray: 3.7,1.6; stroke-dashoffset: 0; stroke: #ff7f0e; stroke-opacity: 0.6"/>
   </g>
   <g id="line2d_39">
    <path d="M 103.827273 196.699259 
L 127.855981 187.602799 
L 151.884689 304.18228 
L 175.913397 286.064702 
L 199.942105 261.861437 
L 223.970813 234.981398 
L 247.999522 205.442165 
L 272.02823 172.698033 
L 296.056938 256.257809 
L 320.085646 250.197572 
L 344.114354 217.872014 
L 368.143062 238.252921 
L 392.17177 206.215731 
L 416.200478 192.474535 
L 440.229187 153.998253 
L 464.257895 235.444754 
L 488.286603 265.036692 
L 512.315311 223.395607 
L 536.344019 177.224519 
L 560.372727 130.57636 
" clip-path="url(#pef87467320)" style="fill: none; stroke-dasharray: 3.7,1.6; stroke-dashoffset: 0; stroke: #2ca02c; stroke-opacity: 0.6"/>
   </g>
   <g id="line2d_40">
    <path d="M 103.827273 196.699259 
L 127.855981 186.903052 
L 151.884689 304.794912 
L 175.913397 289.26067 
L 199.942105 270.541438 
L 223.970813 249.288216 
L 247.999522 223.740771 
L 272.02823 194.873665 
L 296.056938 267.063158 
L 320.085646 263.880966 
L 344.114354 234.603801 
L 368.143062 252.828468 
L 392.17177 222.680724 
L 416.200478 208.940656 
L 440.229187 172.719473 
L 464.257895 244.456456 
L 488.286603 270.346786 
L 512.315311 230.683058 
L 536.344019 188.692099 
L 560.372727 146.890649 
" clip-path="url(#pef87467320)" style="fill: none; stroke-dasharray: 3.7,1.6; stroke-dashoffset: 0; stroke: #d62728; stroke-opacity: 0.6"/>
   </g>
   <g id="line2d_41">
    <path d="M 103.827273 196.699259 
L 127.855981 187.018496 
L 151.884689 301.267437 
L 175.913397 280.291399 
L 199.942105 253.247919 
L 223.970813 224.27242 
L 247.999522 192.526208 
L 272.02823 157.677656 
L 296.056938 244.719385 
L 320.085646 236.342221 
L 344.114354 200.677326 
L 368.143062 220.718019 
L 392.17177 186.226722 
L 416.200478 171.281819 
L 440.229187 130.438697 
L 464.257895 215.365901 
L 488.286603 242.900782 
L 512.315311 196.536483 
L 536.344019 147.588464 
L 560.372727 100.862698 
" clip-path="url(#pef87467320)" style="fill: none; stroke-dasharray: 3.7,1.6; stroke-dashoffset: 0; stroke: #9467bd; stroke-opacity: 0.6"/>
   </g>
   <g id="line2d_42">
    <path d="M 103.827273 196.699259 
L 127.855981 185.515955 
L 151.884689 298.706469 
L 175.913397 276.369105 
L 199.942105 249.606498 
L 223.970813 219.436516 
L 247.999522 185.552058 
L 272.02823 149.974269 
L 296.056938 241.111483 
L 320.085646 232.120712 
L 344.114354 195.18835 
L 368.143062 215.923477 
L 392.17177 177.473762 
L 416.200478 159.900056 
L 440.229187 116.132196 
L 464.257895 206.376257 
L 488.286603 233.752383 
L 512.315311 184.752197 
L 536.344019 135.300701 
L 560.372727 87.193635 
" clip-path="url(#pef87467320)" style="fill: none; stroke-dasharray: 3.7,1.6; stroke-dashoffset: 0; stroke: #8c564b; stroke-opacity: 0.6"/>
   </g>
   <g id="line2d_43">
    <path d="M 103.827273 196.699259 
L 127.855981 184.856943 
L 151.884689 295.710366 
L 175.913397 269.573813 
L 199.942105 238.597954 
L 223.970813 202.569116 
L 247.999522 164.250572 
L 272.02823 124.341327 
L 296.056938 224.073618 
L 320.085646 211.041347 
L 344.114354 169.401872 
L 368.143062 190.72565 
L 392.17177 149.514943 
L 416.200478 130.757657 
L 440.229187 85.147848 
L 464.257895 184.078533 
L 488.286603 212.195946 
L 512.315311 160.593524 
L 536.344019 108.622874 
L 560.372727 60.603397 
" clip-path="url(#pef87467320)" style="fill: none; stroke-dasharray: 3.7,1.6; stroke-dashoffset: 0; stroke: #e377c2; stroke-opacity: 0.6"/>
   </g>
   <g id="line2d_44">
    <path d="M 103.827273 196.699259 
L 127.855981 185.356395 
L 151.884689 301.204318 
L 175.913397 281.302851 
L 199.942105 258.900819 
L 223.970813 233.557537 
L 247.999522 203.423416 
L 272.02823 171.096773 
L 296.056938 251.356519 
L 320.085646 245.07747 
L 344.114354 212.744666 
L 368.143062 232.580072 
L 392.17177 200.565746 
L 416.200478 186.52475 
L 440.229187 148.471762 
L 464.257895 227.570422 
L 488.286603 254.810173 
L 512.315311 212.794096 
L 536.344019 167.580049 
L 560.372727 121.52521 
" clip-path="url(#pef87467320)" style="fill: none; stroke-dasharray: 3.7,1.6; stroke-dashoffset: 0; stroke: #7f7f7f; stroke-opacity: 0.6"/>
   </g>
   <g id="line2d_45">
    <path d="M 103.827273 196.699259 
L 127.855981 186.652843 
L 151.884689 302.851857 
L 175.913397 283.298335 
L 199.942105 259.201596 
L 223.970813 231.593507 
L 247.999522 200.027737 
L 272.02823 167.115346 
L 296.056938 253.161274 
L 320.085646 245.522661 
L 344.114354 211.240033 
L 368.143062 231.152723 
L 392.17177 196.369194 
L 416.200478 181.22641 
L 440.229187 140.102327 
L 464.257895 226.249822 
L 488.286603 255.085499 
L 512.315311 209.71334 
L 536.344019 160.753246 
L 560.372727 111.988295 
" clip-path="url(#pef87467320)" style="fill: none; stroke-dasharray: 3.7,1.6; stroke-dashoffset: 0; stroke: #bcbd22; stroke-opacity: 0.6"/>
   </g>
   <g id="line2d_46">
    <path d="M 103.827273 196.699259 
L 127.855981 188.84531 
L 151.884689 305.759491 
L 175.913397 290.068236 
L 199.942105 271.823372 
L 223.970813 250.574938 
L 247.999522 227.616473 
L 272.02823 201.279274 
L 296.056938 270.389936 
L 320.085646 269.328078 
L 344.114354 243.917396 
L 368.143062 263.138873 
L 392.17177 235.755985 
L 416.200478 223.811655 
L 440.229187 188.989162 
L 464.257895 253.386044 
L 488.286603 276.660935 
L 512.315311 237.912224 
L 536.344019 196.750948 
L 560.372727 154.867382 
" clip-path="url(#pef87467320)" style="fill: none; stroke-dasharray: 3.7,1.6; stroke-dashoffset: 0; stroke: #17becf; stroke-opacity: 0.6"/>
   </g>
   <g id="line2d_47">
    <path d="M 103.827273 196.699259 
L 127.855981 186.474928 
L 151.884689 301.526225 
L 175.913397 282.574692 
L 199.942105 257.942904 
L 223.970813 231.493804 
L 247.999522 202.442594 
L 272.02823 172.171237 
L 296.056938 254.629037 
L 320.085646 250.91181 
L 344.114354 221.009285 
L 368.143062 241.196979 
L 392.17177 210.464611 
L 416.200478 196.810682 
L 440.229187 159.08567 
L 464.257895 233.649498 
L 488.286603 259.081755 
L 512.315311 215.585679 
L 536.344019 169.610057 
L 560.372727 125.092376 
" clip-path="url(#pef87467320)" style="fill: none; stroke-dasharray: 3.7,1.6; stroke-dashoffset: 0; stroke: #1f77b4; stroke-opacity: 0.6"/>
   </g>
   <g id="line2d_48">
    <path d="M 103.827273 196.699259 
L 127.855981 187.934962 
L 151.884689 303.193778 
L 175.913397 283.92002 
L 199.942105 260.914113 
L 223.970813 233.749818 
L 247.999522 204.872893 
L 272.02823 174.973592 
L 296.056938 255.388519 
L 320.085646 251.890426 
L 344.114354 223.662077 
L 368.143062 244.586713 
L 392.17177 215.087194 
L 416.200478 202.883317 
L 440.229187 166.711564 
L 464.257895 238.701493 
L 488.286603 264.611949 
L 512.315311 223.492856 
L 536.344019 179.917886 
L 560.372727 136.476875 
" clip-path="url(#pef87467320)" style="fill: none; stroke-dasharray: 3.7,1.6; stroke-dashoffset: 0; stroke: #ff7f0e; stroke-opacity: 0.6"/>
   </g>
   <g id="line2d_49">
    <path d="M 103.827273 196.699259 
L 127.855981 187.109788 
L 151.884689 305.537831 
L 175.913397 288.573166 
L 199.942105 267.971102 
L 223.970813 243.289937 
L 247.999522 217.121789 
L 272.02823 189.650012 
L 296.056938 263.619486 
L 320.085646 261.569674 
L 344.114354 234.882186 
L 368.143062 255.038967 
L 392.17177 227.762346 
L 416.200478 216.966175 
L 440.229187 181.453434 
L 464.257895 250.450035 
L 488.286603 276.844808 
L 512.315311 238.073556 
L 536.344019 197.108872 
L 560.372727 155.427695 
" clip-path="url(#pef87467320)" style="fill: none; stroke-dasharray: 3.7,1.6; stroke-dashoffset: 0; stroke: #2ca02c; stroke-opacity: 0.6"/>
   </g>
   <g id="line2d_50">
    <path d="M 103.827273 196.699259 
L 127.855981 186.192356 
L 151.884689 302.915928 
L 175.913397 285.476785 
L 199.942105 264.88834 
L 223.970813 239.332769 
L 247.999522 210.700926 
L 272.02823 179.172455 
L 296.056938 255.051043 
L 320.085646 248.060976 
L 344.114354 214.708016 
L 368.143062 232.505525 
L 392.17177 198.314672 
L 416.200478 182.360722 
L 440.229187 142.353884 
L 464.257895 222.224424 
L 488.286603 248.497634 
L 512.315311 203.666306 
L 536.344019 156.763108 
L 560.372727 110.381742 
" clip-path="url(#pef87467320)" style="fill: none; stroke-dasharray: 3.7,1.6; stroke-dashoffset: 0; stroke: #d62728; stroke-opacity: 0.6"/>
   </g>
   <g id="line2d_51">
    <path d="M 103.827273 196.699259 
L 127.855981 187.588952 
L 151.884689 303.951402 
L 175.913397 285.024836 
L 199.942105 262.040883 
L 223.970813 235.366599 
L 247.999522 206.244689 
L 272.02823 175.103343 
L 296.056938 257.86243 
L 320.085646 253.165622 
L 344.114354 221.554624 
L 368.143062 241.25768 
L 392.17177 208.685617 
L 416.200478 193.296649 
L 440.229187 153.240059 
L 464.257895 232.502305 
L 488.286603 259.214105 
L 512.315311 213.782695 
L 536.344019 166.847778 
L 560.372727 118.53478 
" clip-path="url(#pef87467320)" style="fill: none; stroke-dasharray: 3.7,1.6; stroke-dashoffset: 0; stroke: #9467bd; stroke-opacity: 0.6"/>
   </g>
   <g id="line2d_52">
    <path d="M 103.827273 196.699259 
L 127.855981 185.137744 
L 151.884689 298.716868 
L 175.913397 274.150695 
L 199.942105 243.815483 
L 223.970813 209.533174 
L 247.999522 171.364081 
L 272.02823 132.330835 
L 296.056938 229.519926 
L 320.085646 216.916906 
L 344.114354 175.310116 
L 368.143062 194.67795 
L 392.17177 153.195781 
L 416.200478 134.067851 
L 440.229187 87.532721 
L 464.257895 185.036217 
L 488.286603 211.744153 
L 512.315311 158.692485 
L 536.344019 105.99375 
L 560.372727 55.8 
" clip-path="url(#pef87467320)" style="fill: none; stroke-dasharray: 3.7,1.6; stroke-dashoffset: 0; stroke: #8c564b; stroke-opacity: 0.6"/>
   </g>
   <g id="line2d_53">
    <path d="M 103.827273 196.699259 
L 127.855981 184.951295 
L 151.884689 299.937929 
L 175.913397 279.105123 
L 199.942105 254.837425 
L 223.970813 227.279604 
L 247.999522 196.13602 
L 272.02823 164.104341 
L 296.056938 251.447972 
L 320.085646 246.789162 
L 344.114354 215.444635 
L 368.143062 238.101572 
L 392.17177 206.817584 
L 416.200478 194.50889 
L 440.229187 156.488265 
L 464.257895 236.546542 
L 488.286603 265.373846 
L 512.315311 224.190672 
L 536.344019 180.738229 
L 560.372727 137.758511 
" clip-path="url(#pef87467320)" style="fill: none; stroke-dasharray: 3.7,1.6; stroke-dashoffset: 0; stroke: #e377c2; stroke-opacity: 0.6"/>
   </g>
   <g id="line2d_54">
    <path d="M 103.827273 196.699259 
L 127.855981 185.471355 
L 151.884689 299.960925 
L 175.913397 277.263044 
L 199.942105 249.194365 
L 223.970813 218.549564 
L 247.999522 184.088453 
L 272.02823 147.026238 
L 296.056938 237.512438 
L 320.085646 228.10111 
L 344.114354 191.20095 
L 368.143062 210.816739 
L 392.17177 174.660442 
L 416.200478 159.031732 
L 440.229187 117.664041 
L 464.257895 204.892716 
L 488.286603 232.679576 
L 512.315311 185.592022 
L 536.344019 137.506853 
L 560.372727 91.351544 
" clip-path="url(#pef87467320)" style="fill: none; stroke-dasharray: 3.7,1.6; stroke-dashoffset: 0; stroke: #7f7f7f; stroke-opacity: 0.6"/>
   </g>
   <g id="line2d_55">
    <path d="M 103.827273 196.699259 
L 127.855981 188.601219 
L 151.884689 307.152872 
L 175.913397 292.797192 
L 199.942105 274.323738 
L 223.970813 252.228228 
L 247.999522 228.599552 
L 272.02823 201.868774 
L 296.056938 272.975105 
L 320.085646 271.44954 
L 344.114354 244.025595 
L 368.143062 262.24205 
L 392.17177 233.481404 
L 416.200478 220.38006 
L 440.229187 184.697453 
L 464.257895 254.425521 
L 488.286603 280.76394 
L 512.315311 240.904425 
L 536.344019 197.527335 
L 560.372727 154.106129 
" clip-path="url(#pef87467320)" style="fill: none; stroke-dasharray: 3.7,1.6; stroke-dashoffset: 0; stroke: #bcbd22; stroke-opacity: 0.6"/>
   </g>
   <g id="line2d_56">
    <path d="M 103.827273 196.699259 
L 127.855981 187.649975 
L 151.884689 303.653493 
L 175.913397 285.781201 
L 199.942105 263.862925 
L 223.970813 237.031158 
L 247.999522 208.45864 
L 272.02823 176.7545 
L 296.056938 256.703645 
L 320.085646 250.906819 
L 344.114354 218.555822 
L 368.143062 237.499879 
L 392.17177 203.385989 
L 416.200478 187.655681 
L 440.229187 145.997207 
L 464.257895 225.538482 
L 488.286603 250.817298 
L 512.315311 205.281232 
L 536.344019 158.145536 
L 560.372727 109.87263 
" clip-path="url(#pef87467320)" style="fill: none; stroke-dasharray: 3.7,1.6; stroke-dashoffset: 0; stroke: #17becf; stroke-opacity: 0.6"/>
   </g>
   <g id="line2d_57">
    <path d="M 103.827273 196.699259 
L 127.855981 188.75917 
L 151.884689 306.025377 
L 175.913397 289.006006 
L 199.942105 269.376729 
L 223.970813 247.430637 
L 247.999522 223.010392 
L 272.02823 194.494462 
L 296.056938 267.144467 
L 320.085646 262.936162 
L 344.114354 230.913141 
L 368.143062 247.695323 
L 392.17177 215.22373 
L 416.200478 199.716582 
L 440.229187 161.700626 
L 464.257895 237.358996 
L 488.286603 263.383285 
L 512.315311 219.830373 
L 536.344019 173.931552 
L 560.372727 126.54436 
" clip-path="url(#pef87467320)" style="fill: none; stroke-dasharray: 3.7,1.6; stroke-dashoffset: 0; stroke: #1f77b4; stroke-opacity: 0.6"/>
   </g>
   <g id="line2d_58">
    <path d="M 103.827273 196.699259 
L 127.855981 186.790023 
L 151.884689 302.021116 
L 175.913397 282.183302 
L 199.942105 259.872793 
L 223.970813 234.675758 
L 247.999522 207.226712 
L 272.02823 179.894694 
L 296.056938 259.810001 
L 320.085646 258.317604 
L 344.114354 231.750873 
L 368.143062 253.695343 
L 392.17177 225.636215 
L 416.200478 215.384095 
L 440.229187 180.151833 
L 464.257895 249.942533 
L 488.286603 275.915461 
L 512.315311 236.64202 
L 536.344019 194.613707 
L 560.372727 149.70268 
" clip-path="url(#pef87467320)" style="fill: none; stroke-dasharray: 3.7,1.6; stroke-dashoffset: 0; stroke: #ff7f0e; stroke-opacity: 0.6"/>
   </g>
   <g id="line2d_59">
    <path d="M 103.827273 196.699259 
L 127.855981 186.65397 
L 151.884689 303.198027 
L 175.913397 285.433921 
L 199.942105 265.19287 
L 223.970813 242.540599 
L 247.999522 216.72469 
L 272.02823 189.162931 
L 296.056938 265.544838 
L 320.085646 264.930748 
L 344.114354 238.734661 
L 368.143062 258.704993 
L 392.17177 229.264081 
L 416.200478 216.456097 
L 440.229187 178.466224 
L 464.257895 246.020019 
L 488.286603 269.804828 
L 512.315311 227.173212 
L 536.344019 182.891088 
L 560.372727 138.66902 
" clip-path="url(#pef87467320)" style="fill: none; stroke-dasharray: 3.7,1.6; stroke-dashoffset: 0; stroke: #2ca02c; stroke-opacity: 0.6"/>
   </g>
   <g id="line2d_60">
    <path d="M 103.827273 196.699259 
L 127.855981 187.930615 
L 151.884689 304.878585 
L 175.913397 287.161294 
L 199.942105 265.859879 
L 223.970813 240.950357 
L 247.999522 212.210243 
L 272.02823 181.086735 
L 296.056938 259.797281 
L 320.085646 254.424555 
L 344.114354 222.248897 
L 368.143062 241.359116 
L 392.17177 209.385203 
L 416.200478 194.844595 
L 440.229187 155.734579 
L 464.257895 233.378841 
L 488.286603 259.739801 
L 512.315311 216.178355 
L 536.344019 172.296018 
L 560.372727 127.092436 
" clip-path="url(#pef87467320)" style="fill: none; stroke-dasharray: 3.7,1.6; stroke-dashoffset: 0; stroke: #d62728; stroke-opacity: 0.6"/>
   </g>
   <g id="line2d_61">
    <path d="M 103.827273 196.699259 
L 127.855981 185.479567 
L 151.884689 298.960084 
L 175.913397 276.54276 
L 199.942105 249.521171 
L 223.970813 219.560058 
L 247.999522 186.436316 
L 272.02823 151.753441 
L 296.056938 243.098824 
L 320.085646 235.798653 
L 344.114354 201.660933 
L 368.143062 223.824053 
L 392.17177 190.094975 
L 416.200478 175.959628 
L 440.229187 135.82688 
L 464.257895 222.899536 
L 488.286603 252.383759 
L 512.315311 207.647266 
L 536.344019 159.286449 
L 560.372727 110.178065 
" clip-path="url(#pef87467320)" style="fill: none; stroke-dasharray: 3.7,1.6; stroke-dashoffset: 0; stroke: #9467bd; stroke-opacity: 0.6"/>
   </g>
   <g id="line2d_62">
    <path d="M 103.827273 196.699259 
L 127.855981 186.185755 
L 151.884689 301.394232 
L 175.913397 283.505543 
L 199.942105 260.087219 
L 223.970813 233.623704 
L 247.999522 204.652559 
L 272.02823 174.355296 
L 296.056938 254.317806 
L 320.085646 248.973578 
L 344.114354 217.848346 
L 368.143062 238.250022 
L 392.17177 208.179564 
L 416.200478 195.015426 
L 440.229187 158.546288 
L 464.257895 235.7935 
L 488.286603 263.893041 
L 512.315311 221.975342 
L 536.344019 178.330493 
L 560.372727 135.560892 
" clip-path="url(#pef87467320)" style="fill: none; stroke-dasharray: 3.7,1.6; stroke-dashoffset: 0; stroke: #8c564b; stroke-opacity: 0.6"/>
   </g>
   <g id="line2d_63">
    <path d="M 103.827273 196.699259 
L 127.855981 188.075845 
L 151.884689 305.211293 
L 175.913397 287.706965 
L 199.942105 267.83378 
L 223.970813 242.222074 
L 247.999522 212.422498 
L 272.02823 182.050292 
L 296.056938 258.580855 
L 320.085646 253.244999 
L 344.114354 223.027539 
L 368.143062 242.721257 
L 392.17177 212.060054 
L 416.200478 199.253035 
L 440.229187 162.142275 
L 464.257895 237.924783 
L 488.286603 264.918672 
L 512.315311 224.142691 
L 536.344019 182.832641 
L 560.372727 141.125703 
" clip-path="url(#pef87467320)" style="fill: none; stroke-dasharray: 3.7,1.6; stroke-dashoffset: 0; stroke: #e377c2; stroke-opacity: 0.6"/>
   </g>
   <g id="line2d_64">
    <path d="M 103.827273 196.699259 
L 127.855981 187.26001 
L 151.884689 304.027782 
L 175.913397 288.321375 
L 199.942105 268.260211 
L 223.970813 245.131585 
L 247.999522 219.436396 
L 272.02823 192.586989 
L 296.056938 265.29479 
L 320.085646 263.612402 
L 344.114354 235.173614 
L 368.143062 253.316487 
L 392.17177 223.570946 
L 416.200478 210.271721 
L 440.229187 173.657031 
L 464.257895 243.185769 
L 488.286603 268.667456 
L 512.315311 229.769812 
L 536.344019 187.4322 
L 560.372727 146.718691 
" clip-path="url(#pef87467320)" style="fill: none; stroke-dasharray: 3.7,1.6; stroke-dashoffset: 0; stroke: #7f7f7f; stroke-opacity: 0.6"/>
   </g>
   <g id="line2d_65">
    <path d="M 103.827273 196.699259 
L 127.855981 187.294949 
L 151.884689 303.451183 
L 175.913397 286.109203 
L 199.942105 265.708622 
L 223.970813 242.679785 
L 247.999522 214.62773 
L 272.02823 185.594841 
L 296.056938 261.192268 
L 320.085646 257.205994 
L 344.114354 227.845749 
L 368.143062 246.712682 
L 392.17177 216.738346 
L 416.200478 203.390658 
L 440.229187 167.464444 
L 464.257895 241.151092 
L 488.286603 267.746482 
L 512.315311 225.619953 
L 536.344019 182.130157 
L 560.372727 137.984086 
" clip-path="url(#pef87467320)" style="fill: none; stroke-dasharray: 3.7,1.6; stroke-dashoffset: 0; stroke: #bcbd22; stroke-opacity: 0.6"/>
   </g>
   <g id="line2d_66">
    <path d="M 103.827273 196.699259 
L 127.855981 185.860515 
L 151.884689 302.562576 
L 175.913397 284.621344 
L 199.942105 262.661254 
L 223.970813 238.294024 
L 247.999522 210.694556 
L 272.02823 181.542907 
L 296.056938 259.677812 
L 320.085646 255.100634 
L 344.114354 225.024862 
L 368.143062 244.11737 
L 392.17177 213.092769 
L 416.200478 199.155625 
L 440.229187 162.670708 
L 464.257895 239.873642 
L 488.286603 268.151421 
L 512.315311 227.626776 
L 536.344019 186.334759 
L 560.372727 144.54957 
" clip-path="url(#pef87467320)" style="fill: none; stroke-dasharray: 3.7,1.6; stroke-dashoffset: 0; stroke: #17becf; stroke-opacity: 0.6"/>
   </g>
   <g id="line2d_67">
    <path d="M 103.827273 196.699259 
L 127.855981 188.18034 
L 151.884689 303.873555 
L 175.913397 287.306094 
L 199.942105 267.140737 
L 223.970813 243.961485 
L 247.999522 220.552762 
L 272.02823 194.623897 
L 296.056938 267.219981 
L 320.085646 266.737274 
L 344.114354 241.037419 
L 368.143062 261.599622 
L 392.17177 235.891877 
L 416.200478 225.617538 
L 440.229187 192.989765 
L 464.257895 258.90545 
L 488.286603 285.742676 
L 512.315311 248.993704 
L 536.344019 210.801121 
L 560.372727 171.233355 
" clip-path="url(#pef87467320)" style="fill: none; stroke-dasharray: 3.7,1.6; stroke-dashoffset: 0; stroke: #1f77b4; stroke-opacity: 0.6"/>
   </g>
   <g id="line2d_68">
    <path d="M 103.827273 196.699259 
L 127.855981 187.153583 
L 151.884689 303.116379 
L 175.913397 284.386871 
L 199.942105 260.398862 
L 223.970813 234.025181 
L 247.999522 204.199016 
L 272.02823 172.449626 
L 296.056938 252.709482 
L 320.085646 246.953392 
L 344.114354 214.200675 
L 368.143062 233.699088 
L 392.17177 202.109022 
L 416.200478 188.380063 
L 440.229187 150.424486 
L 464.257895 228.97829 
L 488.286603 257.118727 
L 512.315311 214.963056 
L 536.344019 171.025653 
L 560.372727 124.513708 
" clip-path="url(#pef87467320)" style="fill: none; stroke-dasharray: 3.7,1.6; stroke-dashoffset: 0; stroke: #ff7f0e; stroke-opacity: 0.6"/>
   </g>
   <g id="line2d_69">
    <path d="M 103.827273 196.699259 
L 127.855981 188.112555 
L 151.884689 306.0936 
L 175.913397 288.821309 
L 199.942105 269.072379 
L 223.970813 245.367289 
L 247.999522 218.999325 
L 272.02823 187.584265 
L 296.056938 262.604965 
L 320.085646 258.170763 
L 344.114354 227.329391 
L 368.143062 244.951238 
L 392.17177 213.599144 
L 416.200478 198.712365 
L 440.229187 160.455378 
L 464.257895 234.184854 
L 488.286603 258.869223 
L 512.315311 215.144352 
L 536.344019 169.696036 
L 560.372727 125.147119 
" clip-path="url(#pef87467320)" style="fill: none; stroke-dasharray: 3.7,1.6; stroke-dashoffset: 0; stroke: #2ca02c; stroke-opacity: 0.6"/>
   </g>
   <g id="line2d_70">
    <path d="M 103.827273 196.699259 
L 127.855981 183.38274 
L 151.884689 295.25216 
L 175.913397 273.515241 
L 199.942105 248.101581 
L 223.970813 218.26536 
L 247.999522 187.568392 
L 272.02823 155.216447 
L 296.056938 242.466861 
L 320.085646 237.103313 
L 344.114354 204.988999 
L 368.143062 225.7135 
L 392.17177 193.438016 
L 416.200478 179.688447 
L 440.229187 141.765716 
L 464.257895 222.01173 
L 488.286603 249.877324 
L 512.315311 208.0865 
L 536.344019 163.536134 
L 560.372727 120.967634 
" clip-path="url(#pef87467320)" style="fill: none; stroke-dasharray: 3.7,1.6; stroke-dashoffset: 0; stroke: #d62728; stroke-opacity: 0.6"/>
   </g>
   <g id="line2d_71">
    <path d="M 103.827273 196.699259 
L 127.855981 187.113974 
L 151.884689 304.496901 
L 175.913397 287.929585 
L 199.942105 268.079424 
L 223.970813 244.442732 
L 247.999522 217.765422 
L 272.02823 189.202268 
L 296.056938 265.186109 
L 320.085646 261.949818 
L 344.114354 232.053249 
L 368.143062 251.099548 
L 392.17177 220.637514 
L 416.200478 207.60798 
L 440.229187 171.006815 
L 464.257895 244.574959 
L 488.286603 271.309784 
L 512.315311 230.468433 
L 536.344019 186.903123 
L 560.372727 140.049838 
" clip-path="url(#pef87467320)" style="fill: none; stroke-dasharray: 3.7,1.6; stroke-dashoffset: 0; stroke: #9467bd; stroke-opacity: 0.6"/>
   </g>
   <g id="line2d_72">
    <path d="M 103.827273 196.699259 
L 127.855981 187.855101 
L 151.884689 305.921978 
L 175.913397 290.225708 
L 199.942105 271.08668 
L 223.970813 248.244022 
L 247.999522 223.910187 
L 272.02823 194.704457 
L 296.056938 269.342891 
L 320.085646 266.950934 
L 344.114354 238.413125 
L 368.143062 257.579375 
L 392.17177 227.730627 
L 416.200478 214.89205 
L 440.229187 179.131194 
L 464.257895 250.206267 
L 488.286603 276.152628 
L 512.315311 235.650202 
L 536.344019 194.340152 
L 560.372727 151.187671 
" clip-path="url(#pef87467320)" style="fill: none; stroke-dasharray: 3.7,1.6; stroke-dashoffset: 0; stroke: #8c564b; stroke-opacity: 0.6"/>
   </g>
   <g id="line2d_73">
    <path d="M 103.827273 196.699259 
L 127.855981 187.22008 
L 151.884689 303.434811 
L 175.913397 283.300793 
L 199.942105 257.760417 
L 223.970813 229.258447 
L 247.999522 196.894708 
L 272.02823 162.831001 
L 296.056938 248.826415 
L 320.085646 242.08543 
L 344.114354 208.483389 
L 368.143062 228.562563 
L 392.17177 194.742354 
L 416.200478 180.032203 
L 440.229187 141.336465 
L 464.257895 224.362469 
L 488.286603 253.186231 
L 512.315311 209.93344 
L 536.344019 165.52122 
L 560.372727 121.166803 
" clip-path="url(#pef87467320)" style="fill: none; stroke-dasharray: 3.7,1.6; stroke-dashoffset: 0; stroke: #e377c2; stroke-opacity: 0.6"/>
   </g>
   <g id="line2d_74">
    <path d="M 103.827273 196.699259 
L 127.855981 186.958117 
L 151.884689 302.566664 
L 175.913397 284.142718 
L 199.942105 260.460074 
L 223.970813 235.089728 
L 247.999522 205.068248 
L 272.02823 173.357058 
L 296.056938 254.454342 
L 320.085646 247.731873 
L 344.114354 213.783178 
L 368.143062 232.569285 
L 392.17177 197.439585 
L 416.200478 180.598473 
L 440.229187 139.112601 
L 464.257895 221.481365 
L 488.286603 247.030515 
L 512.315311 200.991133 
L 536.344019 153.284981 
L 560.372727 107.814123 
" clip-path="url(#pef87467320)" style="fill: none; stroke-dasharray: 3.7,1.6; stroke-dashoffset: 0; stroke: #7f7f7f; stroke-opacity: 0.6"/>
   </g>
   <g id="line2d_75">
    <path d="M 103.827273 196.699259 
L 127.855981 186.859096 
L 151.884689 304.542318 
L 175.913397 286.936319 
L 199.942105 265.324474 
L 223.970813 240.02272 
L 247.999522 211.186341 
L 272.02823 179.438752 
L 296.056938 259.082882 
L 320.085646 252.209225 
L 344.114354 219.402893 
L 368.143062 238.642725 
L 392.17177 204.675836 
L 416.200478 190.154871 
L 440.229187 150.584529 
L 464.257895 232.755251 
L 488.286603 260.389152 
L 512.315311 215.230814 
L 536.344019 168.665414 
L 560.372727 121.904549 
" clip-path="url(#pef87467320)" style="fill: none; stroke-dasharray: 3.7,1.6; stroke-dashoffset: 0; stroke: #bcbd22; stroke-opacity: 0.6"/>
   </g>
   <g id="line2d_76">
    <path d="M 103.827273 196.699259 
L 127.855981 188.389492 
L 151.884689 307.290196 
L 175.913397 293.147095 
L 199.942105 275.246095 
L 223.970813 254.483263 
L 247.999522 231.056108 
L 272.02823 204.403799 
L 296.056938 275.099786 
L 320.085646 273.666802 
L 344.114354 246.960154 
L 368.143062 266.825186 
L 392.17177 239.418951 
L 416.200478 228.363394 
L 440.229187 194.887745 
L 464.257895 264.28365 
L 488.286603 291.714358 
L 512.315311 254.90388 
L 536.344019 216.39604 
L 560.372727 174.229098 
" clip-path="url(#pef87467320)" style="fill: none; stroke-dasharray: 3.7,1.6; stroke-dashoffset: 0; stroke: #17becf; stroke-opacity: 0.6"/>
   </g>
   <g id="line2d_77">
    <path d="M 103.827273 196.699259 
L 127.855981 189.030954 
L 151.884689 307.8 
L 175.913397 293.292858 
L 199.942105 274.921029 
L 223.970813 251.641031 
L 247.999522 224.377878 
L 272.02823 193.205319 
L 296.056938 265.637579 
L 320.085646 257.741834 
L 344.114354 223.335711 
L 368.143062 239.351327 
L 392.17177 204.500979 
L 416.200478 187.978827 
L 440.229187 147.238107 
L 464.257895 230.627027 
L 488.286603 258.965989 
L 512.315311 215.4741 
L 536.344019 170.551641 
L 560.372727 123.942446 
" clip-path="url(#pef87467320)" style="fill: none; stroke-dasharray: 3.7,1.6; stroke-dashoffset: 0; stroke: #1f77b4; stroke-opacity: 0.6"/>
   </g>
   <g id="line2d_78">
    <path d="M 103.827273 196.699259 
L 127.855981 187.514083 
L 151.884689 304.239659 
L 175.913397 287.029 
L 199.942105 265.750297 
L 223.970813 241.655183 
L 247.999522 214.20962 
L 272.02823 182.414094 
L 296.056938 257.623653 
L 320.085646 251.786736 
L 344.114354 219.790926 
L 368.143062 236.945684 
L 392.17177 203.919413 
L 416.200478 188.356073 
L 440.229187 149.022415 
L 464.257895 226.795645 
L 488.286603 252.879186 
L 512.315311 209.947126 
L 536.344019 165.973818 
L 560.372727 121.783147 
" clip-path="url(#pef87467320)" style="fill: none; stroke-dasharray: 3.7,1.6; stroke-dashoffset: 0; stroke: #ff7f0e; stroke-opacity: 0.6"/>
   </g>
   <g id="line2d_79">
    <path d="M 103.827273 196.699259 
L 127.855981 185.026808 
L 151.884689 302.12954 
L 175.913397 284.693655 
L 199.942105 263.036049 
L 223.970813 237.755758 
L 247.999522 211.803949 
L 272.02823 184.008779 
L 296.056938 261.393691 
L 320.085646 258.927025 
L 344.114354 230.760987 
L 368.143062 251.026449 
L 392.17177 221.871491 
L 416.200478 209.724933 
L 440.229187 174.050538 
L 464.257895 245.580302 
L 488.286603 271.978134 
L 512.315311 232.887601 
L 536.344019 191.984422 
L 560.372727 150.708345 
" clip-path="url(#pef87467320)" style="fill: none; stroke-dasharray: 3.7,1.6; stroke-dashoffset: 0; stroke: #2ca02c; stroke-opacity: 0.6"/>
   </g>
   <g id="line2d_80">
    <path d="M 103.827273 196.699259 
L 127.855981 188.018848 
L 151.884689 306.630792 
L 175.913397 290.406758 
L 199.942105 269.569516 
L 223.970813 245.275879 
L 247.999522 215.864363 
L 272.02823 183.001554 
L 296.056938 259.848965 
L 320.085646 252.914286 
L 344.114354 219.737471 
L 368.143062 237.393935 
L 392.17177 204.049187 
L 416.200478 188.798205 
L 440.229187 149.042541 
L 464.257895 229.118368 
L 488.286603 256.227861 
L 512.315311 212.452112 
L 536.344019 167.01233 
L 560.372727 118.759389 
" clip-path="url(#pef87467320)" style="fill: none; stroke-dasharray: 3.7,1.6; stroke-dashoffset: 0; stroke: #d62728; stroke-opacity: 0.6"/>
   </g>
   <g id="line2d_81">
    <path d="M 103.827273 196.699259 
L 127.855981 186.713705 
L 151.884689 302.384727 
L 175.913397 282.61497 
L 199.942105 258.233801 
L 223.970813 230.69427 
L 247.999522 200.154731 
L 272.02823 168.181411 
L 296.056938 254.226996 
L 320.085646 247.967912 
L 344.114354 214.86162 
L 368.143062 236.127917 
L 392.17177 203.41819 
L 416.200478 189.172713 
L 440.229187 148.66916 
L 464.257895 231.244337 
L 488.286603 259.490719 
L 512.315311 214.720253 
L 536.344019 169.146511 
L 560.372727 121.809875 
" clip-path="url(#pef87467320)" style="fill: none; stroke-dasharray: 3.7,1.6; stroke-dashoffset: 0; stroke: #9467bd; stroke-opacity: 0.6"/>
   </g>
   <g id="line2d_82">
    <path d="M 103.827273 196.699259 
L 127.855981 188.067634 
L 151.884689 305.432204 
L 175.913397 289.356118 
L 199.942105 268.908699 
L 223.970813 246.600937 
L 247.999522 221.278178 
L 272.02823 191.766915 
L 296.056938 265.12251 
L 320.085646 261.114339 
L 344.114354 231.117301 
L 368.143062 248.7794 
L 392.17177 216.49168 
L 416.200478 202.027873 
L 440.229187 163.766056 
L 464.257895 238.64047 
L 488.286603 264.46543 
L 512.315311 221.396513 
L 536.344019 175.855938 
L 560.372727 128.685142 
" clip-path="url(#pef87467320)" style="fill: none; stroke-dasharray: 3.7,1.6; stroke-dashoffset: 0; stroke: #8c564b; stroke-opacity: 0.6"/>
   </g>
   <g id="line2d_83">
    <path d="M 103.827273 196.699259 
L 127.855981 186.698892 
L 151.884689 302.362518 
L 175.913397 281.842965 
L 199.942105 257.432761 
L 223.970813 230.769951 
L 247.999522 200.983453 
L 272.02823 168.743996 
L 296.056938 252.924107 
L 320.085646 247.563618 
L 344.114354 216.513577 
L 368.143062 237.660567 
L 392.17177 205.849112 
L 416.200478 191.652903 
L 440.229187 152.625808 
L 464.257895 231.80143 
L 488.286603 258.549136 
L 512.315311 213.938713 
L 536.344019 167.46058 
L 560.372727 121.020445 
" clip-path="url(#pef87467320)" style="fill: none; stroke-dasharray: 3.7,1.6; stroke-dashoffset: 0; stroke: #e377c2; stroke-opacity: 0.6"/>
   </g>
   <g id="line2d_84">
    <path d="M 103.827273 196.699259 
L 127.855981 186.953287 
L 151.884689 304.772014 
L 175.913397 289.618416 
L 199.942105 270.667704 
L 223.970813 249.315551 
L 247.999522 225.772872 
L 272.02823 200.24615 
L 296.056938 273.544113 
L 320.085646 273.287785 
L 344.114354 247.533026 
L 368.143062 267.818292 
L 392.17177 239.39319 
L 416.200478 227.470919 
L 440.229187 192.921175 
L 464.257895 262.22611 
L 488.286603 289.168798 
L 512.315311 252.079129 
L 536.344019 212.498483 
L 560.372727 170.679643 
" clip-path="url(#pef87467320)" style="fill: none; stroke-dasharray: 3.7,1.6; stroke-dashoffset: 0; stroke: #7f7f7f; stroke-opacity: 0.6"/>
   </g>
   <g id="line2d_85">
    <path d="M 103.827273 196.699259 
L 127.855981 187.577199 
L 151.884689 304.851614 
L 175.913397 290.633141 
L 199.942105 273.767956 
L 223.970813 253.943259 
L 247.999522 229.766852 
L 272.02823 202.075976 
L 296.056938 270.111229 
L 320.085646 266.014986 
L 344.114354 234.297722 
L 368.143062 250.150235 
L 392.17177 218.431844 
L 416.200478 203.121933 
L 440.229187 164.564019 
L 464.257895 236.668104 
L 488.286603 260.521019 
L 512.315311 217.352437 
L 536.344019 174.077749 
L 560.372727 131.451286 
" clip-path="url(#pef87467320)" style="fill: none; stroke-dasharray: 3.7,1.6; stroke-dashoffset: 0; stroke: #bcbd22; stroke-opacity: 0.6"/>
   </g>
   <g id="line2d_86">
    <path d="M 103.827273 196.699259 
L 127.855981 187.165336 
L 151.884689 305.504142 
L 175.913397 289.228304 
L 199.942105 269.916108 
L 223.970813 246.829486 
L 247.999522 221.159881 
L 272.02823 191.534091 
L 296.056938 266.628271 
L 320.085646 263.601936 
L 344.114354 235.577425 
L 368.143062 255.346495 
L 392.17177 226.679557 
L 416.200478 215.197807 
L 440.229187 180.089039 
L 464.257895 251.243973 
L 488.286603 277.386283 
L 512.315311 238.033626 
L 536.344019 196.483994 
L 560.372727 154.393692 
" clip-path="url(#pef87467320)" style="fill: none; stroke-dasharray: 3.7,1.6; stroke-dashoffset: 0; stroke: #17becf; stroke-opacity: 0.6"/>
   </g>
   <g id="line2d_87">
    <path d="M 103.827273 196.699259 
L 127.855981 186.116843 
L 151.884689 300.086881 
L 175.913397 280.018701 
L 199.942105 256.404734 
L 223.970813 227.735727 
L 247.999522 197.804667 
L 272.02823 165.539501 
L 296.056938 249.592659 
L 320.085646 242.559281 
L 344.114354 209.176052 
L 368.143062 229.254743 
L 392.17177 195.699555 
L 416.200478 180.900849 
L 440.229187 141.762335 
L 464.257895 224.404492 
L 488.286603 251.652937 
L 512.315311 207.286605 
L 536.344019 161.621248 
L 560.372727 115.857514 
" clip-path="url(#pef87467320)" style="fill: none; stroke-dasharray: 3.7,1.6; stroke-dashoffset: 0; stroke: #1f77b4; stroke-opacity: 0.6"/>
   </g>
   <g id="line2d_88">
    <path d="M 103.827273 196.699259 
L 127.855981 185.451712 
L 151.884689 299.326238 
L 175.913397 276.25838 
L 199.942105 249.166054 
L 223.970813 219.936353 
L 247.999522 187.836015 
L 272.02823 152.967989 
L 296.056938 243.295255 
L 320.085646 235.363766 
L 344.114354 198.460547 
L 368.143062 217.63372 
L 392.17177 178.072717 
L 416.200478 159.357776 
L 440.229187 114.499882 
L 464.257895 203.136102 
L 488.286603 228.628577 
L 512.315311 177.115998 
L 536.344019 124.384095 
L 560.372727 74.331873 
" clip-path="url(#pef87467320)" style="fill: none; stroke-dasharray: 3.7,1.6; stroke-dashoffset: 0; stroke: #ff7f0e; stroke-opacity: 0.6"/>
   </g>
   <g id="line2d_89">
    <path d="M 103.827273 196.699259 
L 127.855981 186.223753 
L 151.884689 302.035185 
L 175.913397 282.129495 
L 199.942105 257.590594 
L 223.970813 229.375364 
L 247.999522 197.822438 
L 272.02823 165.226981 
L 296.056938 250.944978 
L 320.085646 244.864937 
L 344.114354 212.357117 
L 368.143062 232.81257 
L 392.17177 199.255612 
L 416.200478 184.176105 
L 440.229187 145.357033 
L 464.257895 227.654791 
L 488.286603 255.829202 
L 512.315311 211.779575 
L 536.344019 166.574545 
L 560.372727 121.768656 
" clip-path="url(#pef87467320)" style="fill: none; stroke-dasharray: 3.7,1.6; stroke-dashoffset: 0; stroke: #2ca02c; stroke-opacity: 0.6"/>
   </g>
   <g id="line2d_90">
    <path d="M 103.827273 196.699259 
L 127.855981 187.711964 
L 151.884689 305.498781 
L 175.913397 290.437199 
L 199.942105 272.494315 
L 223.970813 251.588091 
L 247.999522 229.227006 
L 272.02823 203.821532 
L 296.056938 274.420648 
L 320.085646 275.428407 
L 344.114354 249.54484 
L 368.143062 268.594519 
L 392.17177 242.810617 
L 416.200478 231.722053 
L 440.229187 197.867549 
L 464.257895 259.619688 
L 488.286603 282.870106 
L 512.315311 244.338919 
L 536.344019 204.151911 
L 560.372727 163.832875 
" clip-path="url(#pef87467320)" style="fill: none; stroke-dasharray: 3.7,1.6; stroke-dashoffset: 0; stroke: #d62728; stroke-opacity: 0.6"/>
   </g>
   <g id="line2d_91">
    <path d="M 103.827273 196.699259 
L 127.855981 188.279522 
L 151.884689 305.669871 
L 175.913397 289.012257 
L 199.942105 268.250563 
L 223.970813 244.084152 
L 247.999522 215.933358 
L 272.02823 185.627383 
L 296.056938 263.392302 
L 320.085646 258.11441 
L 344.114354 226.364622 
L 368.143062 244.062305 
L 392.17177 210.360599 
L 416.200478 194.362854 
L 440.229187 154.369702 
L 464.257895 232.913362 
L 488.286603 258.552839 
L 512.315311 211.673953 
L 536.344019 162.079159 
L 560.372727 110.054248 
" clip-path="url(#pef87467320)" style="fill: none; stroke-dasharray: 3.7,1.6; stroke-dashoffset: 0; stroke: #9467bd; stroke-opacity: 0.6"/>
   </g>
   <g id="line2d_92">
    <path d="M 103.827273 196.699259 
L 127.855981 186.949584 
L 151.884689 302.827505 
L 175.913397 285.246009 
L 199.942105 263.414914 
L 223.970813 239.266816 
L 247.999522 213.71155 
L 272.02823 185.658678 
L 296.056938 261.51477 
L 320.085646 260.100301 
L 344.114354 233.176935 
L 368.143062 253.326953 
L 392.17177 224.687547 
L 416.200478 213.597856 
L 440.229187 179.113321 
L 464.257895 247.719636 
L 488.286603 274.540439 
L 512.315311 236.50645 
L 536.344019 198.126935 
L 560.372727 159.745487 
" clip-path="url(#pef87467320)" style="fill: none; stroke-dasharray: 3.7,1.6; stroke-dashoffset: 0; stroke: #8c564b; stroke-opacity: 0.6"/>
   </g>
   <g id="line2d_93">
    <path d="M 103.827273 196.699259 
L 127.855981 186.843478 
L 151.884689 301.195906 
L 175.913397 278.858474 
L 199.942105 248.90887 
L 223.970813 216.448869 
L 247.999522 180.885241 
L 272.02823 142.867002 
L 296.056938 236.976437 
L 320.085646 226.905936 
L 344.114354 190.344218 
L 368.143062 211.4582 
L 392.17177 175.052179 
L 416.200478 159.291118 
L 440.229187 117.265059 
L 464.257895 207.731313 
L 488.286603 237.140667 
L 512.315311 190.32055 
L 536.344019 141.990485 
L 560.372727 94.538406 
" clip-path="url(#pef87467320)" style="fill: none; stroke-dasharray: 3.7,1.6; stroke-dashoffset: 0; stroke: #e377c2; stroke-opacity: 0.6"/>
   </g>
   <g id="line2d_94">
    <path d="M 103.827273 196.699259 
L 127.855981 187.811307 
L 151.884689 305.521577 
L 175.913397 289.275409 
L 199.942105 269.580665 
L 223.970813 246.828957 
L 247.999522 220.564537 
L 272.02823 190.432733 
L 296.056938 266.546961 
L 320.085646 262.409339 
L 344.114354 232.175616 
L 368.143062 251.111945 
L 392.17177 219.580808 
L 416.200478 205.426623 
L 440.229187 167.844588 
L 464.257895 243.304594 
L 488.286603 269.624175 
L 512.315311 227.16967 
L 536.344019 180.34279 
L 560.372727 131.83481 
" clip-path="url(#pef87467320)" style="fill: none; stroke-dasharray: 3.7,1.6; stroke-dashoffset: 0; stroke: #7f7f7f; stroke-opacity: 0.6"/>
   </g>
   <g id="line2d_95">
    <path d="M 103.827273 196.699259 
L 127.855981 185.55669 
L 151.884689 299.360946 
L 175.913397 276.560955 
L 199.942105 248.934833 
L 223.970813 219.482515 
L 247.999522 186.807777 
L 272.02823 152.090438 
L 296.056938 243.559472 
L 320.085646 236.077199 
L 344.114354 201.109475 
L 368.143062 223.440367 
L 392.17177 189.166272 
L 416.200478 174.25647 
L 440.229187 132.664331 
L 464.257895 219.407884 
L 488.286603 248.019436 
L 512.315311 201.68927 
L 536.344019 155.187952 
L 560.372727 108.507913 
" clip-path="url(#pef87467320)" style="fill: none; stroke-dasharray: 3.7,1.6; stroke-dashoffset: 0; stroke: #bcbd22; stroke-opacity: 0.6"/>
   </g>
   <g id="line2d_96">
    <path d="M 103.827273 196.699259 
L 127.855981 187.119932 
L 151.884689 304.541014 
L 175.913397 285.338729 
L 199.942105 262.975379 
L 223.970813 236.591715 
L 247.999522 206.201056 
L 272.02823 172.070446 
L 296.056938 254.375769 
L 320.085646 244.869284 
L 344.114354 208.166683 
L 368.143062 226.116184 
L 392.17177 188.781299 
L 416.200478 171.26765 
L 440.229187 128.386308 
L 464.257895 217.501209 
L 488.286603 245.338144 
L 512.315311 197.282762 
L 536.344019 148.072781 
L 560.372727 100.550984 
" clip-path="url(#pef87467320)" style="fill: none; stroke-dasharray: 3.7,1.6; stroke-dashoffset: 0; stroke: #17becf; stroke-opacity: 0.6"/>
   </g>
   <g id="line2d_97">
    <path d="M 103.827273 196.699259 
L 127.855981 184.552152 
L 151.884689 297.877598 
L 175.913397 274.64458 
L 199.942105 246.58667 
L 223.970813 217.719855 
L 247.999522 186.248293 
L 272.02823 153.132303 
L 296.056938 245.021921 
L 320.085646 239.083086 
L 344.114354 205.393777 
L 368.143062 227.280927 
L 392.17177 193.34302 
L 416.200478 178.641403 
L 440.229187 139.08217 
L 464.257895 224.523961 
L 488.286603 253.802897 
L 512.315311 209.582279 
L 536.344019 163.116221 
L 560.372727 118.056099 
" clip-path="url(#pef87467320)" style="fill: none; stroke-dasharray: 3.7,1.6; stroke-dashoffset: 0; stroke: #1f77b4; stroke-opacity: 0.6"/>
   </g>
   <g id="line2d_98">
    <path d="M 103.827273 196.699259 
L 127.855981 187.285611 
L 151.884689 303.755336 
L 175.913397 284.54774 
L 199.942105 262.109285 
L 223.970813 235.894107 
L 247.999522 207.527077 
L 272.02823 176.819805 
L 296.056938 256.140594 
L 320.085646 251.496758 
L 344.114354 219.816848 
L 368.143062 239.07906 
L 392.17177 206.77218 
L 416.200478 192.165236 
L 440.229187 152.408123 
L 464.257895 229.408829 
L 488.286603 255.189994 
L 512.315311 210.825594 
L 536.344019 165.769819 
L 560.372727 122.067007 
" clip-path="url(#pef87467320)" style="fill: none; stroke-dasharray: 3.7,1.6; stroke-dashoffset: 0; stroke: #ff7f0e; stroke-opacity: 0.6"/>
   </g>
   <g id="line2d_99">
    <path d="M 103.827273 196.699259 
L 127.855981 188.220271 
L 151.884689 305.748001 
L 175.913397 290.029964 
L 199.942105 270.933979 
L 223.970813 249.41278 
L 247.999522 225.149781 
L 272.02823 197.972057 
L 296.056938 269.064989 
L 320.085646 266.65677 
L 344.114354 238.373034 
L 368.143062 257.105524 
L 392.17177 228.586875 
L 416.200478 216.431945 
L 440.229187 180.54212 
L 464.257895 249.614718 
L 488.286603 274.603072 
L 512.315311 233.701504 
L 536.344019 190.290119 
L 560.372727 146.296363 
" clip-path="url(#pef87467320)" style="fill: none; stroke-dasharray: 3.7,1.6; stroke-dashoffset: 0; stroke: #2ca02c; stroke-opacity: 0.6"/>
   </g>
   <g id="line2d_100">
    <path d="M 103.827273 196.699259 
L 127.855981 186.382991 
L 151.884689 303.672222 
L 175.913397 287.523226 
L 199.942105 268.862533 
L 223.970813 246.492934 
L 247.999522 220.533766 
L 272.02823 191.701192 
L 296.056938 265.014634 
L 320.085646 261.53715 
L 344.114354 231.115691 
L 368.143062 248.709683 
L 392.17177 216.942023 
L 416.200478 201.693135 
L 440.229187 162.141309 
L 464.257895 233.753349 
L 488.286603 256.291299 
L 512.315311 208.451187 
L 536.344019 160.070243 
L 560.372727 113.341419 
" clip-path="url(#pef87467320)" style="fill: none; stroke-dasharray: 3.7,1.6; stroke-dashoffset: 0; stroke: #d62728; stroke-opacity: 0.6"/>
   </g>
   <g id="line2d_101">
    <path d="M 103.827273 196.699259 
L 127.855981 185.84216 
L 151.884689 300.293642 
L 175.913397 281.360886 
L 199.942105 259.441748 
L 223.970813 233.024569 
L 247.999522 203.352625 
L 272.02823 171.808658 
L 296.056938 252.056749 
L 320.085646 245.394819 
L 344.114354 211.186738 
L 368.143062 229.971557 
L 392.17177 195.871997 
L 416.200478 180.156824 
L 440.229187 138.993132 
L 464.257895 218.345382 
L 488.286603 241.734268 
L 512.315311 193.241262 
L 536.344019 142.984558 
L 560.372727 91.477937 
" clip-path="url(#pef87467320)" style="fill: none; stroke-dasharray: 3.7,1.6; stroke-dashoffset: 0; stroke: #9467bd; stroke-opacity: 0.6"/>
   </g>
   <g id="line2d_102">
    <path d="M 103.827273 196.699259 
L 127.855981 186.77199 
L 151.884689 302.487251 
L 175.913397 282.023587 
L 199.942105 256.757856 
L 223.970813 227.457699 
L 247.999522 194.437029 
L 272.02823 160.281032 
L 296.056938 246.382452 
L 320.085646 237.856998 
L 344.114354 202.335723 
L 368.143062 221.684881 
L 392.17177 186.292736 
L 416.200478 170.286619 
L 440.229187 128.978984 
L 464.257895 215.528038 
L 488.286603 243.246953 
L 512.315311 197.740512 
L 536.344019 150.263476 
L 560.372727 104.134412 
" clip-path="url(#pef87467320)" style="fill: none; stroke-dasharray: 3.7,1.6; stroke-dashoffset: 0; stroke: #8c564b; stroke-opacity: 0.6"/>
   </g>
   <g id="line2d_103">
    <path d="M 103.827273 196.699259 
L 127.855981 186.630302 
L 151.884689 304.054936 
L 175.913397 287.985036 
L 199.942105 267.274038 
L 223.970813 242.691967 
L 247.999522 215.465119 
L 272.02823 186.151074 
L 296.056938 262.697707 
L 320.085646 258.629479 
L 344.114354 229.156366 
L 368.143062 248.884057 
L 392.17177 217.744817 
L 416.200478 203.88222 
L 440.229187 165.263283 
L 464.257895 238.748186 
L 488.286603 262.858072 
L 512.315311 217.44711 
L 536.344019 170.425731 
L 560.372727 123.48856 
" clip-path="url(#pef87467320)" style="fill: none; stroke-dasharray: 3.7,1.6; stroke-dashoffset: 0; stroke: #e377c2; stroke-opacity: 0.6"/>
   </g>
   <g id="line2d_104">
    <path d="M 103.827273 196.699259 
L 127.855981 188.316554 
L 151.884689 306.781456 
L 175.913397 289.764244 
L 199.942105 268.994361 
L 223.970813 245.253947 
L 247.999522 217.365105 
L 272.02823 187.621864 
L 296.056938 263.193616 
L 320.085646 259.17192 
L 344.114354 230.130474 
L 368.143062 249.144248 
L 392.17177 219.369725 
L 416.200478 206.324573 
L 440.229187 169.310418 
L 464.257895 242.397788 
L 488.286603 268.929419 
L 512.315311 227.747372 
L 536.344019 185.51828 
L 560.372727 140.349476 
" clip-path="url(#pef87467320)" style="fill: none; stroke-dasharray: 3.7,1.6; stroke-dashoffset: 0; stroke: #7f7f7f; stroke-opacity: 0.6"/>
   </g>
   <g id="line2d_105">
    <path d="M 103.827273 196.699259 
L 127.855981 188.553077 
L 151.884689 305.60657 
L 175.913397 290.511095 
L 199.942105 270.405305 
L 223.970813 247.14853 
L 247.999522 221.137744 
L 272.02823 191.76439 
L 296.056938 265.206557 
L 320.085646 260.182738 
L 344.114354 230.272967 
L 368.143062 248.214257 
L 392.17177 217.525039 
L 416.200478 204.289896 
L 440.229187 167.861333 
L 464.257895 243.478967 
L 488.286603 270.876829 
L 512.315311 228.986662 
L 536.344019 185.406217 
L 560.372727 140.480699 
" clip-path="url(#pef87467320)" style="fill: none; stroke-dasharray: 3.7,1.6; stroke-dashoffset: 0; stroke: #bcbd22; stroke-opacity: 0.6"/>
   </g>
   <g id="line2d_106">
    <path d="M 103.827273 196.699259 
L 127.855981 186.852012 
L 151.884689 301.791314 
L 175.913397 280.185364 
L 199.942105 255.600392 
L 223.970813 228.088513 
L 247.999522 197.33442 
L 272.02823 163.543546 
L 296.056938 247.48102 
L 320.085646 239.351971 
L 344.114354 204.035501 
L 368.143062 222.778618 
L 392.17177 186.975899 
L 416.200478 171.303233 
L 440.229187 130.047283 
L 464.257895 214.050293 
L 488.286603 240.995557 
L 512.315311 195.94429 
L 536.344019 148.962197 
L 560.372727 102.844242 
" clip-path="url(#pef87467320)" style="fill: none; stroke-dasharray: 3.7,1.6; stroke-dashoffset: 0; stroke: #17becf; stroke-opacity: 0.6"/>
   </g>
   <g id="line2d_107">
    <path d="M 103.827273 196.699259 
L 127.855981 187.502329 
L 151.884689 303.510616 
L 175.913397 284.835222 
L 199.942105 262.622498 
L 223.970813 236.210371 
L 247.999522 206.217382 
L 272.02823 174.577684 
L 296.056938 255.538902 
L 320.085646 249.563034 
L 344.114354 217.225239 
L 368.143062 237.064992 
L 392.17177 204.455736 
L 416.200478 190.477856 
L 440.229187 151.797575 
L 464.257895 231.29586 
L 488.286603 258.283309 
L 512.315311 212.556446 
L 536.344019 165.483061 
L 560.372727 118.926678 
" clip-path="url(#pef87467320)" style="fill: none; stroke-dasharray: 3.7,1.6; stroke-dashoffset: 0; stroke: #1f77b4; stroke-opacity: 0.6"/>
   </g>
   <g id="line2d_108">
    <path d="M 103.827273 196.699259 
L 127.855981 186.399092 
L 151.884689 302.236328 
L 175.913397 281.639991 
L 199.942105 257.901177 
L 223.970813 230.059117 
L 247.999522 199.940317 
L 272.02823 166.665376 
L 296.056938 251.722976 
L 320.085646 244.820338 
L 344.114354 211.334062 
L 368.143062 231.784524 
L 392.17177 198.616726 
L 416.200478 184.592636 
L 440.229187 144.551664 
L 464.257895 226.995135 
L 488.286603 253.833811 
L 512.315311 207.740491 
L 536.344019 160.049956 
L 560.372727 113.60161 
" clip-path="url(#pef87467320)" style="fill: none; stroke-dasharray: 3.7,1.6; stroke-dashoffset: 0; stroke: #ff7f0e; stroke-opacity: 0.6"/>
   </g>
   <g id="line2d_109">
    <path d="M 103.827273 196.699259 
L 127.855981 183.791704 
L 151.884689 296.534486 
L 175.913397 270.07216 
L 199.942105 236.097097 
L 223.970813 199.182127 
L 247.999522 159.61407 
L 272.02823 118.085501 
L 296.056938 222.585407 
L 320.085646 208.832457 
L 344.114354 165.88156 
L 368.143062 187.245912 
L 392.17177 144.686106 
L 416.200478 126.139421 
L 440.229187 80.015187 
L 464.257895 182.278124 
L 488.286603 211.42471 
L 512.315311 160.104055 
L 536.344019 107.734101 
L 560.372727 57.568206 
" clip-path="url(#pef87467320)" style="fill: none; stroke-dasharray: 3.7,1.6; stroke-dashoffset: 0; stroke: #2ca02c; stroke-opacity: 0.6"/>
   </g>
   <g id="line2d_110">
    <path d="M 103.827273 196.699259 
L 127.855981 185.102161 
L 151.884689 298.9861 
L 175.913397 275.265112 
L 199.942105 246.492459 
L 223.970813 215.654641 
L 247.999522 182.947287 
L 272.02823 148.820091 
L 296.056938 241.436401 
L 320.085646 234.158288 
L 344.114354 200.77055 
L 368.143062 223.431351 
L 392.17177 190.098517 
L 416.200478 176.415768 
L 440.229187 136.587328 
L 464.257895 221.730607 
L 488.286603 250.440697 
L 512.315311 204.30648 
L 536.344019 157.662829 
L 560.372727 112.311441 
" clip-path="url(#pef87467320)" style="fill: none; stroke-dasharray: 3.7,1.6; stroke-dashoffset: 0; stroke: #d62728; stroke-opacity: 0.6"/>
   </g>
   <g id="line2d_111">
    <path d="M 103.827273 196.699259 
L 127.855981 185.674227 
L 151.884689 300.588403 
L 175.913397 280.079724 
L 199.942105 254.879876 
L 223.970813 227.392155 
L 247.999522 196.643498 
L 272.02823 164.127562 
L 296.056938 250.119 
L 320.085646 244.281439 
L 344.114354 211.10559 
L 368.143062 231.681156 
L 392.17177 198.460547 
L 416.200478 184.493132 
L 440.229187 144.290184 
L 464.257895 225.600149 
L 488.286603 252.566666 
L 512.315311 207.372745 
L 536.344019 160.028542 
L 560.372727 111.687529 
" clip-path="url(#pef87467320)" style="fill: none; stroke-dasharray: 3.7,1.6; stroke-dashoffset: 0; stroke: #9467bd; stroke-opacity: 0.6"/>
   </g>
   <g id="line2d_112">
    <path d="M 103.827273 196.699259 
L 127.855981 188.235245 
L 151.884689 306.394927 
L 175.913397 290.982278 
L 199.942105 271.91353 
L 223.970813 249.992891 
L 247.999522 224.283398 
L 272.02823 194.575066 
L 296.056938 268.513853 
L 320.085646 263.520304 
L 344.114354 231.991261 
L 368.143062 249.043134 
L 392.17177 215.414043 
L 416.200478 199.275094 
L 440.229187 157.080297 
L 464.257895 232.859907 
L 488.286603 254.621148 
L 512.315311 204.62544 
L 536.344019 152.459968 
L 560.372727 101.658246 
" clip-path="url(#pef87467320)" style="fill: none; stroke-dasharray: 3.7,1.6; stroke-dashoffset: 0; stroke: #8c564b; stroke-opacity: 0.6"/>
   </g>
   <g id="line2d_113">
    <path d="M 103.827273 196.699259 
L 127.855981 187.328439 
L 151.884689 302.663019 
L 175.913397 284.372714 
L 199.942105 261.320243 
L 223.970813 234.419423 
L 247.999522 204.001081 
L 272.02823 171.716642 
L 296.056938 254.861213 
L 320.085646 249.067929 
L 344.114354 216.842681 
L 368.143062 237.51115 
L 392.17177 206.152937 
L 416.200478 192.857254 
L 440.229187 154.4333 
L 464.257895 233.317979 
L 488.286603 260.385771 
L 512.315311 216.181576 
L 536.344019 170.411562 
L 560.372727 125.684408 
" clip-path="url(#pef87467320)" style="fill: none; stroke-dasharray: 3.7,1.6; stroke-dashoffset: 0; stroke: #e377c2; stroke-opacity: 0.6"/>
   </g>
   <g id="line2d_114">
    <path d="M 103.827273 196.699259 
L 127.855981 187.936733 
L 151.884689 303.636553 
L 175.913397 285.758279 
L 199.942105 261.430486 
L 223.970813 233.442388 
L 247.999522 203.352202 
L 272.02823 171.003799 
L 296.056938 252.409682 
L 320.085646 246.085711 
L 344.114354 214.38648 
L 368.143062 234.593818 
L 392.17177 202.977507 
L 416.200478 189.681181 
L 440.229187 150.403393 
L 464.257895 229.266336 
L 488.286603 256.094868 
L 512.315311 212.133152 
L 536.344019 167.437234 
L 560.372727 122.26843 
" clip-path="url(#pef87467320)" style="fill: none; stroke-dasharray: 3.7,1.6; stroke-dashoffset: 0; stroke: #7f7f7f; stroke-opacity: 0.6"/>
   </g>
   <g id="line2d_115">
    <path d="M 103.827273 196.699259 
L 127.855981 186.737695 
L 151.884689 302.959837 
L 175.913397 285.431205 
L 199.942105 264.370811 
L 223.970813 239.330259 
L 247.999522 211.229276 
L 272.02823 179.179985 
L 296.056938 256.144298 
L 320.085646 249.888434 
L 344.114354 217.305583 
L 368.143062 235.479854 
L 392.17177 201.799723 
L 416.200478 185.681222 
L 440.229187 144.95145 
L 464.257895 222.720011 
L 488.286603 247.942634 
L 512.315311 203.605283 
L 536.344019 157.345801 
L 560.372727 110.159871 
" clip-path="url(#pef87467320)" style="fill: none; stroke-dasharray: 3.7,1.6; stroke-dashoffset: 0; stroke: #bcbd22; stroke-opacity: 0.6"/>
   </g>
   <g id="line2d_116">
    <path d="M 103.827273 196.699259 
L 127.855981 186.293631 
L 151.884689 302.182945 
L 175.913397 282.860587 
L 199.942105 261.196742 
L 223.970813 236.770789 
L 247.999522 209.936378 
L 272.02823 180.85087 
L 296.056938 258.106198 
L 320.085646 254.814037 
L 344.114354 224.746316 
L 368.143062 243.487984 
L 392.17177 213.020798 
L 416.200478 199.007496 
L 440.229187 162.536265 
L 464.257895 236.394227 
L 488.286603 263.598877 
L 512.315311 223.18871 
L 536.344019 180.689766 
L 560.372727 138.138333 
" clip-path="url(#pef87467320)" style="fill: none; stroke-dasharray: 3.7,1.6; stroke-dashoffset: 0; stroke: #17becf; stroke-opacity: 0.6"/>
   </g>
   <g id="line2d_117">
    <path d="M 103.827273 196.699259 
L 127.855981 186.910449 
L 151.884689 303.067383 
L 175.913397 284.650141 
L 199.942105 262.191427 
L 223.970813 236.438561 
L 247.999522 207.811842 
L 272.02823 176.735561 
L 296.056938 256.88404 
L 320.085646 251.653591 
L 344.114354 220.00104 
L 368.143062 239.456544 
L 392.17177 207.191062 
L 416.200478 192.908893 
L 440.229187 154.180482 
L 464.257895 232.308873 
L 488.286603 258.966711 
L 512.315311 215.508375 
L 536.344019 170.179247 
L 560.372727 124.73242 
" clip-path="url(#pef87467320)" style="fill: none; stroke: #000000; stroke-width: 2.5; stroke-linecap: square"/>
   </g>
   <g id="patch_3">
    <path d="M 81 320.4 
L 81 43.2 
" style="fill: none; stroke: #000000; stroke-width: 0.8; stroke-linejoin: miter; stroke-linecap: square"/>
   </g>
   <g id="patch_4">
    <path d="M 583.2 320.4 
L 583.2 43.2 
" style="fill: none; stroke: #000000; stroke-width: 0.8; stroke-linejoin: miter; stroke-linecap: square"/>
   </g>
   <g id="patch_5">
    <path d="M 81 320.4 
L 583.2 320.4 
" style="fill: none; stroke: #000000; stroke-width: 0.8; stroke-linejoin: miter; stroke-linecap: square"/>
   </g>
   <g id="patch_6">
    <path d="M 81 43.2 
L 583.2 43.2 
" style="fill: none; stroke: #000000; stroke-width: 0.8; stroke-linejoin: miter; stroke-linecap: square"/>
   </g>
   <g id="legend_1">
    <g id="patch_7">
     <path d="M 88 65.878125 
L 161.065625 65.878125 
Q 163.065625 65.878125 163.065625 63.878125 
L 163.065625 50.2 
Q 163.065625 48.2 161.065625 48.2 
L 88 48.2 
Q 86 48.2 86 50.2 
L 86 63.878125 
Q 86 65.878125 88 65.878125 
z
" style="fill: #ffffff; opacity: 0.8; stroke: #cccccc; stroke-linejoin: miter"/>
    </g>
    <g id="line2d_118">
     <path d="M 90 56.298437 
L 100 56.298437 
L 110 56.298437 
" style="fill: none; stroke: #000000; stroke-width: 2.5; stroke-linecap: square"/>
    </g>
    <g id="text_19">
     <!-- Average -->
     <g transform="translate(118 59.798437) scale(0.1 -0.1)">
      <defs>
       <path id="DejaVuSans-41" d="M 2188 4044 
L 1331 1722 
L 3047 1722 
L 2188 4044 
z
M 1831 4666 
L 2547 4666 
L 4325 0 
L 3669 0 
L 3244 1197 
L 1141 1197 
L 716 0 
L 50 0 
L 1831 4666 
z
" transform="scale(0.015625)"/>
       <path id="DejaVuSans-67" d="M 2906 1791 
Q 2906 2416 2648 2759 
Q 2391 3103 1925 3103 
Q 1463 3103 1205 2759 
Q 947 2416 947 1791 
Q 947 1169 1205 825 
Q 1463 481 1925 481 
Q 2391 481 2648 825 
Q 2906 1169 2906 1791 
z
M 3481 434 
Q 3481 -459 3084 -895 
Q 2688 -1331 1869 -1331 
Q 1566 -1331 1297 -1286 
Q 1028 -1241 775 -1147 
L 775 -588 
Q 1028 -725 1275 -790 
Q 1522 -856 1778 -856 
Q 2344 -856 2625 -561 
Q 2906 -266 2906 331 
L 2906 616 
Q 2728 306 2450 153 
Q 2172 0 1784 0 
Q 1141 0 747 490 
Q 353 981 353 1791 
Q 353 2603 747 3093 
Q 1141 3584 1784 3584 
Q 2172 3584 2450 3431 
Q 2728 3278 2906 2969 
L 2906 3500 
L 3481 3500 
L 3481 434 
z
" transform="scale(0.015625)"/>
      </defs>
      <use xlink:href="#DejaVuSans-41"/>
      <use xlink:href="#DejaVuSans-76" x="62.533203"/>
      <use xlink:href="#DejaVuSans-65" x="121.712891"/>
      <use xlink:href="#DejaVuSans-72" x="183.236328"/>
      <use xlink:href="#DejaVuSans-61" x="224.349609"/>
      <use xlink:href="#DejaVuSans-67" x="285.628906"/>
      <use xlink:href="#DejaVuSans-65" x="349.105469"/>
     </g>
    </g>
   </g>
  </g>
 </g>
 <defs>
  <clipPath id="pef87467320">
   <rect x="81" y="43.2" width="502.2" height="277.2"/>
  </clipPath>
 </defs>
</svg>
