<?xml version="1.0" encoding="utf-8" standalone="no"?>
<!DOCTYPE svg PUBLIC "-//W3C//DTD SVG 1.1//EN"
  "http://www.w3.org/Graphics/SVG/1.1/DTD/svg11.dtd">
<svg xmlns:xlink="http://www.w3.org/1999/xlink" width="648pt" height="360pt" viewBox="0 0 648 360" xmlns="http://www.w3.org/2000/svg" version="1.1">
 <metadata>
  <rdf:RDF xmlns:dc="http://purl.org/dc/elements/1.1/" xmlns:cc="http://creativecommons.org/ns#" xmlns:rdf="http://www.w3.org/1999/02/22-rdf-syntax-ns#">
   <cc:Work>
    <dc:type rdf:resource="http://purl.org/dc/dcmitype/StillImage"/>
    <dc:date>2025-08-26T19:43:01.773483</dc:date>
    <dc:format>image/svg+xml</dc:format>
    <dc:creator>
     <cc:Agent>
      <dc:title>Matplotlib v3.8.0, https://matplotlib.org/</dc:title>
     </cc:Agent>
    </dc:creator>
   </cc:Work>
  </rdf:RDF>
 </metadata>
 <defs>
  <style type="text/css">*{stroke-linejoin: round; stroke-linecap: butt}</style>
 </defs>
 <g id="figure_1">
  <g id="patch_1">
   <path d="M 0 360 
L 648 360 
L 648 0 
L 0 0 
z
" style="fill: #ffffff"/>
  </g>
  <g id="axes_1">
   <g id="patch_2">
    <path d="M 81 320.4 
L 583.2 320.4 
L 583.2 43.2 
L 81 43.2 
z
" style="fill: #ffffff"/>
   </g>
   <g id="matplotlib.axis_1">
    <g id="xtick_1">
     <g id="line2d_1">
      <defs>
       <path id="m4eeca2aa67" d="M 0 0 
L 0 3.5 
" style="stroke: #000000; stroke-width: 0.8"/>
      </defs>
      <g>
       <use xlink:href="#m4eeca2aa67" x="145.331405" y="320.4" style="stroke: #000000; stroke-width: 0.8"/>
      </g>
     </g>
     <g id="text_1">
      <!-- 2012 -->
      <g transform="translate(130.061405 336.518125) scale(0.12 -0.12)">
       <defs>
        <path id="DejaVuSans-32" d="M 1228 531 
L 3431 531 
L 3431 0 
L 469 0 
L 469 531 
Q 828 903 1448 1529 
Q 2069 2156 2228 2338 
Q 2531 2678 2651 2914 
Q 2772 3150 2772 3378 
Q 2772 3750 2511 3984 
Q 2250 4219 1831 4219 
Q 1534 4219 1204 4116 
Q 875 4013 500 3803 
L 500 4441 
Q 881 4594 1212 4672 
Q 1544 4750 1819 4750 
Q 2544 4750 2975 4387 
Q 3406 4025 3406 3419 
Q 3406 3131 3298 2873 
Q 3191 2616 2906 2266 
Q 2828 2175 2409 1742 
Q 1991 1309 1228 531 
z
" transform="scale(0.015625)"/>
        <path id="DejaVuSans-30" d="M 2034 4250 
Q 1547 4250 1301 3770 
Q 1056 3291 1056 2328 
Q 1056 1369 1301 889 
Q 1547 409 2034 409 
Q 2525 409 2770 889 
Q 3016 1369 3016 2328 
Q 3016 3291 2770 3770 
Q 2525 4250 2034 4250 
z
M 2034 4750 
Q 2819 4750 3233 4129 
Q 3647 3509 3647 2328 
Q 3647 1150 3233 529 
Q 2819 -91 2034 -91 
Q 1250 -91 836 529 
Q 422 1150 422 2328 
Q 422 3509 836 4129 
Q 1250 4750 2034 4750 
z
" transform="scale(0.015625)"/>
        <path id="DejaVuSans-31" d="M 794 531 
L 1825 531 
L 1825 4091 
L 703 3866 
L 703 4441 
L 1819 4666 
L 2450 4666 
L 2450 531 
L 3481 531 
L 3481 0 
L 794 0 
L 794 531 
z
" transform="scale(0.015625)"/>
       </defs>
       <use xlink:href="#DejaVuSans-32"/>
       <use xlink:href="#DejaVuSans-30" x="63.623047"/>
       <use xlink:href="#DejaVuSans-31" x="127.246094"/>
       <use xlink:href="#DejaVuSans-32" x="190.869141"/>
      </g>
     </g>
    </g>
    <g id="xtick_2">
     <g id="line2d_2">
      <g>
       <use xlink:href="#m4eeca2aa67" x="228.339669" y="320.4" style="stroke: #000000; stroke-width: 0.8"/>
      </g>
     </g>
     <g id="text_2">
      <!-- 2014 -->
      <g transform="translate(213.069669 336.518125) scale(0.12 -0.12)">
       <defs>
        <path id="DejaVuSans-34" d="M 2419 4116 
L 825 1625 
L 2419 1625 
L 2419 4116 
z
M 2253 4666 
L 3047 4666 
L 3047 1625 
L 3713 1625 
L 3713 1100 
L 3047 1100 
L 3047 0 
L 2419 0 
L 2419 1100 
L 313 1100 
L 313 1709 
L 2253 4666 
z
" transform="scale(0.015625)"/>
       </defs>
       <use xlink:href="#DejaVuSans-32"/>
       <use xlink:href="#DejaVuSans-30" x="63.623047"/>
       <use xlink:href="#DejaVuSans-31" x="127.246094"/>
       <use xlink:href="#DejaVuSans-34" x="190.869141"/>
      </g>
     </g>
    </g>
    <g id="xtick_3">
     <g id="line2d_3">
      <g>
       <use xlink:href="#m4eeca2aa67" x="311.347934" y="320.4" style="stroke: #000000; stroke-width: 0.8"/>
      </g>
     </g>
     <g id="text_3">
      <!-- 2016 -->
      <g transform="translate(296.077934 336.518125) scale(0.12 -0.12)">
       <defs>
        <path id="DejaVuSans-36" d="M 2113 2584 
Q 1688 2584 1439 2293 
Q 1191 2003 1191 1497 
Q 1191 994 1439 701 
Q 1688 409 2113 409 
Q 2538 409 2786 701 
Q 3034 994 3034 1497 
Q 3034 2003 2786 2293 
Q 2538 2584 2113 2584 
z
M 3366 4563 
L 3366 3988 
Q 3128 4100 2886 4159 
Q 2644 4219 2406 4219 
Q 1781 4219 1451 3797 
Q 1122 3375 1075 2522 
Q 1259 2794 1537 2939 
Q 1816 3084 2150 3084 
Q 2853 3084 3261 2657 
Q 3669 2231 3669 1497 
Q 3669 778 3244 343 
Q 2819 -91 2113 -91 
Q 1303 -91 875 529 
Q 447 1150 447 2328 
Q 447 3434 972 4092 
Q 1497 4750 2381 4750 
Q 2619 4750 2861 4703 
Q 3103 4656 3366 4563 
z
" transform="scale(0.015625)"/>
       </defs>
       <use xlink:href="#DejaVuSans-32"/>
       <use xlink:href="#DejaVuSans-30" x="63.623047"/>
       <use xlink:href="#DejaVuSans-31" x="127.246094"/>
       <use xlink:href="#DejaVuSans-36" x="190.869141"/>
      </g>
     </g>
    </g>
    <g id="xtick_4">
     <g id="line2d_4">
      <g>
       <use xlink:href="#m4eeca2aa67" x="394.356198" y="320.4" style="stroke: #000000; stroke-width: 0.8"/>
      </g>
     </g>
     <g id="text_4">
      <!-- 2018 -->
      <g transform="translate(379.086198 336.518125) scale(0.12 -0.12)">
       <defs>
        <path id="DejaVuSans-38" d="M 2034 2216 
Q 1584 2216 1326 1975 
Q 1069 1734 1069 1313 
Q 1069 891 1326 650 
Q 1584 409 2034 409 
Q 2484 409 2743 651 
Q 3003 894 3003 1313 
Q 3003 1734 2745 1975 
Q 2488 2216 2034 2216 
z
M 1403 2484 
Q 997 2584 770 2862 
Q 544 3141 544 3541 
Q 544 4100 942 4425 
Q 1341 4750 2034 4750 
Q 2731 4750 3128 4425 
Q 3525 4100 3525 3541 
Q 3525 3141 3298 2862 
Q 3072 2584 2669 2484 
Q 3125 2378 3379 2068 
Q 3634 1759 3634 1313 
Q 3634 634 3220 271 
Q 2806 -91 2034 -91 
Q 1263 -91 848 271 
Q 434 634 434 1313 
Q 434 1759 690 2068 
Q 947 2378 1403 2484 
z
M 1172 3481 
Q 1172 3119 1398 2916 
Q 1625 2713 2034 2713 
Q 2441 2713 2670 2916 
Q 2900 3119 2900 3481 
Q 2900 3844 2670 4047 
Q 2441 4250 2034 4250 
Q 1625 4250 1398 4047 
Q 1172 3844 1172 3481 
z
" transform="scale(0.015625)"/>
       </defs>
       <use xlink:href="#DejaVuSans-32"/>
       <use xlink:href="#DejaVuSans-30" x="63.623047"/>
       <use xlink:href="#DejaVuSans-31" x="127.246094"/>
       <use xlink:href="#DejaVuSans-38" x="190.869141"/>
      </g>
     </g>
    </g>
    <g id="xtick_5">
     <g id="line2d_5">
      <g>
       <use xlink:href="#m4eeca2aa67" x="477.364463" y="320.4" style="stroke: #000000; stroke-width: 0.8"/>
      </g>
     </g>
     <g id="text_5">
      <!-- 2020 -->
      <g transform="translate(462.094463 336.518125) scale(0.12 -0.12)">
       <use xlink:href="#DejaVuSans-32"/>
       <use xlink:href="#DejaVuSans-30" x="63.623047"/>
       <use xlink:href="#DejaVuSans-32" x="127.246094"/>
       <use xlink:href="#DejaVuSans-30" x="190.869141"/>
      </g>
     </g>
    </g>
    <g id="xtick_6">
     <g id="line2d_6">
      <g>
       <use xlink:href="#m4eeca2aa67" x="560.372727" y="320.4" style="stroke: #000000; stroke-width: 0.8"/>
      </g>
     </g>
     <g id="text_6">
      <!-- 2022 -->
      <g transform="translate(545.102727 336.518125) scale(0.12 -0.12)">
       <use xlink:href="#DejaVuSans-32"/>
       <use xlink:href="#DejaVuSans-30" x="63.623047"/>
       <use xlink:href="#DejaVuSans-32" x="127.246094"/>
       <use xlink:href="#DejaVuSans-32" x="190.869141"/>
      </g>
     </g>
    </g>
    <g id="text_7">
     <!-- Year -->
     <g transform="translate(316.21875 354.411406) scale(0.15 -0.15)">
      <defs>
       <path id="DejaVuSans-59" d="M -13 4666 
L 666 4666 
L 1959 2747 
L 3244 4666 
L 3922 4666 
L 2272 2222 
L 2272 0 
L 1638 0 
L 1638 2222 
L -13 4666 
z
" transform="scale(0.015625)"/>
       <path id="DejaVuSans-65" d="M 3597 1894 
L 3597 1613 
L 953 1613 
Q 991 1019 1311 708 
Q 1631 397 2203 397 
Q 2534 397 2845 478 
Q 3156 559 3463 722 
L 3463 178 
Q 3153 47 2828 -22 
Q 2503 -91 2169 -91 
Q 1331 -91 842 396 
Q 353 884 353 1716 
Q 353 2575 817 3079 
Q 1281 3584 2069 3584 
Q 2775 3584 3186 3129 
Q 3597 2675 3597 1894 
z
M 3022 2063 
Q 3016 2534 2758 2815 
Q 2500 3097 2075 3097 
Q 1594 3097 1305 2825 
Q 1016 2553 972 2059 
L 3022 2063 
z
" transform="scale(0.015625)"/>
       <path id="DejaVuSans-61" d="M 2194 1759 
Q 1497 1759 1228 1600 
Q 959 1441 959 1056 
Q 959 750 1161 570 
Q 1363 391 1709 391 
Q 2188 391 2477 730 
Q 2766 1069 2766 1631 
L 2766 1759 
L 2194 1759 
z
M 3341 1997 
L 3341 0 
L 2766 0 
L 2766 531 
Q 2569 213 2275 61 
Q 1981 -91 1556 -91 
Q 1019 -91 701 211 
Q 384 513 384 1019 
Q 384 1609 779 1909 
Q 1175 2209 1959 2209 
L 2766 2209 
L 2766 2266 
Q 2766 2663 2505 2880 
Q 2244 3097 1772 3097 
Q 1472 3097 1187 3025 
Q 903 2953 641 2809 
L 641 3341 
Q 956 3463 1253 3523 
Q 1550 3584 1831 3584 
Q 2591 3584 2966 3190 
Q 3341 2797 3341 1997 
z
" transform="scale(0.015625)"/>
       <path id="DejaVuSans-72" d="M 2631 2963 
Q 2534 3019 2420 3045 
Q 2306 3072 2169 3072 
Q 1681 3072 1420 2755 
Q 1159 2438 1159 1844 
L 1159 0 
L 581 0 
L 581 3500 
L 1159 3500 
L 1159 2956 
Q 1341 3275 1631 3429 
Q 1922 3584 2338 3584 
Q 2397 3584 2469 3576 
Q 2541 3569 2628 3553 
L 2631 2963 
z
" transform="scale(0.015625)"/>
      </defs>
      <use xlink:href="#DejaVuSans-59"/>
      <use xlink:href="#DejaVuSans-65" x="47.833984"/>
      <use xlink:href="#DejaVuSans-61" x="109.357422"/>
      <use xlink:href="#DejaVuSans-72" x="170.636719"/>
     </g>
    </g>
   </g>
   <g id="matplotlib.axis_2">
    <g id="ytick_1">
     <g id="line2d_7">
      <defs>
       <path id="m00d1d748b2" d="M 0 0 
L -3.5 0 
" style="stroke: #000000; stroke-width: 0.8"/>
      </defs>
      <g>
       <use xlink:href="#m00d1d748b2" x="81" y="305.201876" style="stroke: #000000; stroke-width: 0.8"/>
      </g>
     </g>
     <g id="text_8">
      <!-- 20 -->
      <g transform="translate(58.73 309.760938) scale(0.12 -0.12)">
       <use xlink:href="#DejaVuSans-32"/>
       <use xlink:href="#DejaVuSans-30" x="63.623047"/>
      </g>
     </g>
    </g>
    <g id="ytick_2">
     <g id="line2d_8">
      <g>
       <use xlink:href="#m00d1d748b2" x="81" y="261.899807" style="stroke: #000000; stroke-width: 0.8"/>
      </g>
     </g>
     <g id="text_9">
      <!-- 25 -->
      <g transform="translate(58.73 266.45887) scale(0.12 -0.12)">
       <defs>
        <path id="DejaVuSans-35" d="M 691 4666 
L 3169 4666 
L 3169 4134 
L 1269 4134 
L 1269 2991 
Q 1406 3038 1543 3061 
Q 1681 3084 1819 3084 
Q 2600 3084 3056 2656 
Q 3513 2228 3513 1497 
Q 3513 744 3044 326 
Q 2575 -91 1722 -91 
Q 1428 -91 1123 -41 
Q 819 9 494 109 
L 494 744 
Q 775 591 1075 516 
Q 1375 441 1709 441 
Q 2250 441 2565 725 
Q 2881 1009 2881 1497 
Q 2881 1984 2565 2268 
Q 2250 2553 1709 2553 
Q 1456 2553 1204 2497 
Q 953 2441 691 2322 
L 691 4666 
z
" transform="scale(0.015625)"/>
       </defs>
       <use xlink:href="#DejaVuSans-32"/>
       <use xlink:href="#DejaVuSans-35" x="63.623047"/>
      </g>
     </g>
    </g>
    <g id="ytick_3">
     <g id="line2d_9">
      <g>
       <use xlink:href="#m00d1d748b2" x="81" y="218.597738" style="stroke: #000000; stroke-width: 0.8"/>
      </g>
     </g>
     <g id="text_10">
      <!-- 30 -->
      <g transform="translate(58.73 223.156801) scale(0.12 -0.12)">
       <defs>
        <path id="DejaVuSans-33" d="M 2597 2516 
Q 3050 2419 3304 2112 
Q 3559 1806 3559 1356 
Q 3559 666 3084 287 
Q 2609 -91 1734 -91 
Q 1441 -91 1130 -33 
Q 819 25 488 141 
L 488 750 
Q 750 597 1062 519 
Q 1375 441 1716 441 
Q 2309 441 2620 675 
Q 2931 909 2931 1356 
Q 2931 1769 2642 2001 
Q 2353 2234 1838 2234 
L 1294 2234 
L 1294 2753 
L 1863 2753 
Q 2328 2753 2575 2939 
Q 2822 3125 2822 3475 
Q 2822 3834 2567 4026 
Q 2313 4219 1838 4219 
Q 1578 4219 1281 4162 
Q 984 4106 628 3988 
L 628 4550 
Q 988 4650 1302 4700 
Q 1616 4750 1894 4750 
Q 2613 4750 3031 4423 
Q 3450 4097 3450 3541 
Q 3450 3153 3228 2886 
Q 3006 2619 2597 2516 
z
" transform="scale(0.015625)"/>
       </defs>
       <use xlink:href="#DejaVuSans-33"/>
       <use xlink:href="#DejaVuSans-30" x="63.623047"/>
      </g>
     </g>
    </g>
    <g id="ytick_4">
     <g id="line2d_10">
      <g>
       <use xlink:href="#m00d1d748b2" x="81" y="175.295669" style="stroke: #000000; stroke-width: 0.8"/>
      </g>
     </g>
     <g id="text_11">
      <!-- 35 -->
      <g transform="translate(58.73 179.854732) scale(0.12 -0.12)">
       <use xlink:href="#DejaVuSans-33"/>
       <use xlink:href="#DejaVuSans-35" x="63.623047"/>
      </g>
     </g>
    </g>
    <g id="ytick_5">
     <g id="line2d_11">
      <g>
       <use xlink:href="#m00d1d748b2" x="81" y="131.993601" style="stroke: #000000; stroke-width: 0.8"/>
      </g>
     </g>
     <g id="text_12">
      <!-- 40 -->
      <g transform="translate(58.73 136.552663) scale(0.12 -0.12)">
       <use xlink:href="#DejaVuSans-34"/>
       <use xlink:href="#DejaVuSans-30" x="63.623047"/>
      </g>
     </g>
    </g>
    <g id="ytick_6">
     <g id="line2d_12">
      <g>
       <use xlink:href="#m00d1d748b2" x="81" y="88.691532" style="stroke: #000000; stroke-width: 0.8"/>
      </g>
     </g>
     <g id="text_13">
      <!-- 45 -->
      <g transform="translate(58.73 93.250594) scale(0.12 -0.12)">
       <use xlink:href="#DejaVuSans-34"/>
       <use xlink:href="#DejaVuSans-35" x="63.623047"/>
      </g>
     </g>
    </g>
    <g id="ytick_7">
     <g id="line2d_13">
      <g>
       <use xlink:href="#m00d1d748b2" x="81" y="45.389463" style="stroke: #000000; stroke-width: 0.8"/>
      </g>
     </g>
     <g id="text_14">
      <!-- 50 -->
      <g transform="translate(58.73 49.948525) scale(0.12 -0.12)">
       <use xlink:href="#DejaVuSans-35"/>
       <use xlink:href="#DejaVuSans-30" x="63.623047"/>
      </g>
     </g>
    </g>
    <g id="text_15">
     <!-- Total coral cover (%) -->
     <g transform="translate(51.610469 258.769922) rotate(-90) scale(0.15 -0.15)">
      <defs>
       <path id="DejaVuSans-54" d="M -19 4666 
L 3928 4666 
L 3928 4134 
L 2272 4134 
L 2272 0 
L 1638 0 
L 1638 4134 
L -19 4134 
L -19 4666 
z
" transform="scale(0.015625)"/>
       <path id="DejaVuSans-6f" d="M 1959 3097 
Q 1497 3097 1228 2736 
Q 959 2375 959 1747 
Q 959 1119 1226 758 
Q 1494 397 1959 397 
Q 2419 397 2687 759 
Q 2956 1122 2956 1747 
Q 2956 2369 2687 2733 
Q 2419 3097 1959 3097 
z
M 1959 3584 
Q 2709 3584 3137 3096 
Q 3566 2609 3566 1747 
Q 3566 888 3137 398 
Q 2709 -91 1959 -91 
Q 1206 -91 779 398 
Q 353 888 353 1747 
Q 353 2609 779 3096 
Q 1206 3584 1959 3584 
z
" transform="scale(0.015625)"/>
       <path id="DejaVuSans-74" d="M 1172 4494 
L 1172 3500 
L 2356 3500 
L 2356 3053 
L 1172 3053 
L 1172 1153 
Q 1172 725 1289 603 
Q 1406 481 1766 481 
L 2356 481 
L 2356 0 
L 1766 0 
Q 1100 0 847 248 
Q 594 497 594 1153 
L 594 3053 
L 172 3053 
L 172 3500 
L 594 3500 
L 594 4494 
L 1172 4494 
z
" transform="scale(0.015625)"/>
       <path id="DejaVuSans-6c" d="M 603 4863 
L 1178 4863 
L 1178 0 
L 603 0 
L 603 4863 
z
" transform="scale(0.015625)"/>
       <path id="DejaVuSans-20" transform="scale(0.015625)"/>
       <path id="DejaVuSans-63" d="M 3122 3366 
L 3122 2828 
Q 2878 2963 2633 3030 
Q 2388 3097 2138 3097 
Q 1578 3097 1268 2742 
Q 959 2388 959 1747 
Q 959 1106 1268 751 
Q 1578 397 2138 397 
Q 2388 397 2633 464 
Q 2878 531 3122 666 
L 3122 134 
Q 2881 22 2623 -34 
Q 2366 -91 2075 -91 
Q 1284 -91 818 406 
Q 353 903 353 1747 
Q 353 2603 823 3093 
Q 1294 3584 2113 3584 
Q 2378 3584 2631 3529 
Q 2884 3475 3122 3366 
z
" transform="scale(0.015625)"/>
       <path id="DejaVuSans-76" d="M 191 3500 
L 800 3500 
L 1894 563 
L 2988 3500 
L 3597 3500 
L 2284 0 
L 1503 0 
L 191 3500 
z
" transform="scale(0.015625)"/>
       <path id="DejaVuSans-28" d="M 1984 4856 
Q 1566 4138 1362 3434 
Q 1159 2731 1159 2009 
Q 1159 1288 1364 580 
Q 1569 -128 1984 -844 
L 1484 -844 
Q 1016 -109 783 600 
Q 550 1309 550 2009 
Q 550 2706 781 3412 
Q 1013 4119 1484 4856 
L 1984 4856 
z
" transform="scale(0.015625)"/>
       <path id="DejaVuSans-25" d="M 4653 2053 
Q 4381 2053 4226 1822 
Q 4072 1591 4072 1178 
Q 4072 772 4226 539 
Q 4381 306 4653 306 
Q 4919 306 5073 539 
Q 5228 772 5228 1178 
Q 5228 1588 5073 1820 
Q 4919 2053 4653 2053 
z
M 4653 2450 
Q 5147 2450 5437 2106 
Q 5728 1763 5728 1178 
Q 5728 594 5436 251 
Q 5144 -91 4653 -91 
Q 4153 -91 3862 251 
Q 3572 594 3572 1178 
Q 3572 1766 3864 2108 
Q 4156 2450 4653 2450 
z
M 1428 4353 
Q 1159 4353 1004 4120 
Q 850 3888 850 3481 
Q 850 3069 1003 2837 
Q 1156 2606 1428 2606 
Q 1700 2606 1854 2837 
Q 2009 3069 2009 3481 
Q 2009 3884 1853 4118 
Q 1697 4353 1428 4353 
z
M 4250 4750 
L 4750 4750 
L 1831 -91 
L 1331 -91 
L 4250 4750 
z
M 1428 4750 
Q 1922 4750 2215 4408 
Q 2509 4066 2509 3481 
Q 2509 2891 2217 2550 
Q 1925 2209 1428 2209 
Q 931 2209 642 2551 
Q 353 2894 353 3481 
Q 353 4063 643 4406 
Q 934 4750 1428 4750 
z
" transform="scale(0.015625)"/>
       <path id="DejaVuSans-29" d="M 513 4856 
L 1013 4856 
Q 1481 4119 1714 3412 
Q 1947 2706 1947 2009 
Q 1947 1309 1714 600 
Q 1481 -109 1013 -844 
L 513 -844 
Q 928 -128 1133 580 
Q 1338 1288 1338 2009 
Q 1338 2731 1133 3434 
Q 928 4138 513 4856 
z
" transform="scale(0.015625)"/>
      </defs>
      <use xlink:href="#DejaVuSans-54"/>
      <use xlink:href="#DejaVuSans-6f" x="44.083984"/>
      <use xlink:href="#DejaVuSans-74" x="105.265625"/>
      <use xlink:href="#DejaVuSans-61" x="144.474609"/>
      <use xlink:href="#DejaVuSans-6c" x="205.753906"/>
      <use xlink:href="#DejaVuSans-20" x="233.537109"/>
      <use xlink:href="#DejaVuSans-63" x="265.324219"/>
      <use xlink:href="#DejaVuSans-6f" x="320.304688"/>
      <use xlink:href="#DejaVuSans-72" x="381.486328"/>
      <use xlink:href="#DejaVuSans-61" x="422.599609"/>
      <use xlink:href="#DejaVuSans-6c" x="483.878906"/>
      <use xlink:href="#DejaVuSans-20" x="511.662109"/>
      <use xlink:href="#DejaVuSans-63" x="543.449219"/>
      <use xlink:href="#DejaVuSans-6f" x="598.429688"/>
      <use xlink:href="#DejaVuSans-76" x="659.611328"/>
      <use xlink:href="#DejaVuSans-65" x="718.791016"/>
      <use xlink:href="#DejaVuSans-72" x="780.314453"/>
      <use xlink:href="#DejaVuSans-20" x="821.427734"/>
      <use xlink:href="#DejaVuSans-28" x="853.214844"/>
      <use xlink:href="#DejaVuSans-25" x="892.228516"/>
      <use xlink:href="#DejaVuSans-29" x="987.248047"/>
     </g>
    </g>
   </g>
   <g id="line2d_14">
    <path d="M 103.827273 307.8 
L 145.331405 300.473585 
L 186.835537 293.408529 
L 228.339669 283.250894 
L 269.843802 271.533393 
L 311.347934 257.50861 
L 352.852066 240.944264 
L 394.356198 222.268956 
L 435.860331 204.43317 
L 477.364463 181.072052 
L 518.868595 156.048131 
L 560.372727 132.574272 
" clip-path="url(#p3bf88194b0)" style="fill: none; stroke-dasharray: 3.7,1.6; stroke-dashoffset: 0; stroke: #1f77b4; stroke-opacity: 0.6"/>
   </g>
   <g id="line2d_15">
    <path d="M 103.827273 307.8 
L 145.331405 296.854139 
L 186.835537 285.920596 
L 228.339669 271.630404 
L 269.843802 251.271123 
L 311.347934 230.001156 
L 352.852066 208.467361 
L 394.356198 183.156316 
L 435.860331 156.898535 
L 477.364463 132.371576 
L 518.868595 107.840791 
L 560.372727 83.006557 
" clip-path="url(#p3bf88194b0)" style="fill: none; stroke-dasharray: 3.7,1.6; stroke-dashoffset: 0; stroke: #ff7f0e; stroke-opacity: 0.6"/>
   </g>
   <g id="line2d_16">
    <path d="M 103.827273 307.8 
L 145.331405 302.272851 
L 186.835537 295.324615 
L 228.339669 281.219855 
L 269.843802 263.300065 
L 311.347934 243.986742 
L 352.852066 224.491978 
L 394.356198 199.452073 
L 435.860331 173.270728 
L 477.364463 144.776577 
L 518.868595 120.076 
L 560.372727 95.774098 
" clip-path="url(#p3bf88194b0)" style="fill: none; stroke-dasharray: 3.7,1.6; stroke-dashoffset: 0; stroke: #2ca02c; stroke-opacity: 0.6"/>
   </g>
   <g id="line2d_17">
    <path d="M 103.827273 307.8 
L 145.331405 303.484774 
L 186.835537 297.121354 
L 228.339669 285.549927 
L 269.843802 270.278702 
L 311.347934 252.006235 
L 352.852066 232.182346 
L 394.356198 208.97291 
L 435.860331 186.156282 
L 477.364463 157.720711 
L 518.868595 134.787431 
L 560.372727 105.614538 
" clip-path="url(#p3bf88194b0)" style="fill: none; stroke-dasharray: 3.7,1.6; stroke-dashoffset: 0; stroke: #d62728; stroke-opacity: 0.6"/>
   </g>
   <g id="line2d_18">
    <path d="M 103.827273 307.8 
L 145.331405 302.430654 
L 186.835537 293.967781 
L 228.339669 282.892861 
L 269.843802 265.776542 
L 311.347934 249.487077 
L 352.852066 230.650819 
L 394.356198 207.310107 
L 435.860331 182.822854 
L 477.364463 158.684452 
L 518.868595 132.649858 
L 560.372727 110.102754 
" clip-path="url(#p3bf88194b0)" style="fill: none; stroke-dasharray: 3.7,1.6; stroke-dashoffset: 0; stroke: #9467bd; stroke-opacity: 0.6"/>
   </g>
   <g id="line2d_19">
    <path d="M 103.827273 307.8 
L 145.331405 305.698954 
L 186.835537 299.306833 
L 228.339669 290.942112 
L 269.843802 279.44159 
L 311.347934 263.330164 
L 352.852066 245.79519 
L 394.356198 223.437433 
L 435.860331 200.297036 
L 477.364463 174.414038 
L 518.868595 152.19487 
L 560.372727 124.099308 
" clip-path="url(#p3bf88194b0)" style="fill: none; stroke-dasharray: 3.7,1.6; stroke-dashoffset: 0; stroke: #8c564b; stroke-opacity: 0.6"/>
   </g>
   <g id="line2d_20">
    <path d="M 103.827273 307.8 
L 145.331405 297.632358 
L 186.835537 287.951497 
L 228.339669 276.331009 
L 269.843802 263.222949 
L 311.347934 244.402421 
L 352.852066 223.322056 
L 394.356198 201.942069 
L 435.860331 181.582192 
L 477.364463 161.413873 
L 518.868595 139.577565 
L 560.372727 112.968128 
" clip-path="url(#p3bf88194b0)" style="fill: none; stroke-dasharray: 3.7,1.6; stroke-dashoffset: 0; stroke: #e377c2; stroke-opacity: 0.6"/>
   </g>
   <g id="line2d_21">
    <path d="M 103.827273 307.8 
L 145.331405 293.37277 
L 186.835537 282.724343 
L 228.339669 267.343014 
L 269.843802 246.959756 
L 311.347934 221.252161 
L 352.852066 195.969174 
L 394.356198 166.99294 
L 435.860331 140.714328 
L 477.364463 111.200406 
L 518.868595 86.581196 
L 560.372727 62.333964 
" clip-path="url(#p3bf88194b0)" style="fill: none; stroke-dasharray: 3.7,1.6; stroke-dashoffset: 0; stroke: #7f7f7f; stroke-opacity: 0.6"/>
   </g>
   <g id="line2d_22">
    <path d="M 103.827273 307.8 
L 145.331405 296.631037 
L 186.835537 288.140342 
L 228.339669 277.22537 
L 269.843802 263.616862 
L 311.347934 247.174525 
L 352.852066 227.959743 
L 394.356198 208.003813 
L 435.860331 187.695971 
L 477.364463 167.206348 
L 518.868595 141.08248 
L 560.372727 116.964058 
" clip-path="url(#p3bf88194b0)" style="fill: none; stroke-dasharray: 3.7,1.6; stroke-dashoffset: 0; stroke: #bcbd22; stroke-opacity: 0.6"/>
   </g>
   <g id="line2d_23">
    <path d="M 103.827273 307.8 
L 145.331405 294.900045 
L 186.835537 286.336033 
L 228.339669 272.240787 
L 269.843802 256.487139 
L 311.347934 238.619724 
L 352.852066 219.925286 
L 394.356198 200.533316 
L 435.860331 176.447713 
L 477.364463 154.605539 
L 518.868595 135.201835 
L 560.372727 109.360839 
" clip-path="url(#p3bf88194b0)" style="fill: none; stroke-dasharray: 3.7,1.6; stroke-dashoffset: 0; stroke: #17becf; stroke-opacity: 0.6"/>
   </g>
   <g id="line2d_24">
    <path d="M 103.827273 307.8 
L 145.331405 293.175771 
L 186.835537 283.029952 
L 228.339669 269.997019 
L 269.843802 251.655429 
L 311.347934 233.24922 
L 352.852066 211.756151 
L 394.356198 188.321998 
L 435.860331 161.718087 
L 477.364463 132.896765 
L 518.868595 106.618664 
L 560.372727 82.503048 
" clip-path="url(#p3bf88194b0)" style="fill: none; stroke-dasharray: 3.7,1.6; stroke-dashoffset: 0; stroke: #1f77b4; stroke-opacity: 0.6"/>
   </g>
   <g id="line2d_25">
    <path d="M 103.827273 307.8 
L 145.331405 293.120675 
L 186.835537 281.828922 
L 228.339669 268.09309 
L 269.843802 247.305121 
L 311.347934 223.015207 
L 352.852066 200.387841 
L 394.356198 176.487674 
L 435.860331 151.853926 
L 477.364463 128.495358 
L 518.868595 104.073913 
L 560.372727 83.523754 
" clip-path="url(#p3bf88194b0)" style="fill: none; stroke-dasharray: 3.7,1.6; stroke-dashoffset: 0; stroke: #ff7f0e; stroke-opacity: 0.6"/>
   </g>
   <g id="line2d_26">
    <path d="M 103.827273 307.8 
L 145.331405 298.915361 
L 186.835537 289.869724 
L 228.339669 278.383049 
L 269.843802 261.181112 
L 311.347934 238.384549 
L 352.852066 218.645173 
L 394.356198 195.966028 
L 435.860331 172.903682 
L 477.364463 150.74165 
L 518.868595 127.422958 
L 560.372727 105.953866 
" clip-path="url(#p3bf88194b0)" style="fill: none; stroke-dasharray: 3.7,1.6; stroke-dashoffset: 0; stroke: #2ca02c; stroke-opacity: 0.6"/>
   </g>
   <g id="line2d_27">
    <path d="M 103.827273 307.8 
L 145.331405 302.984412 
L 186.835537 291.635909 
L 228.339669 279.184139 
L 269.843802 261.57239 
L 311.347934 241.624621 
L 352.852066 221.965168 
L 394.356198 201.199559 
L 435.860331 177.918618 
L 477.364463 156.873283 
L 518.868595 136.156223 
L 560.372727 116.373145 
" clip-path="url(#p3bf88194b0)" style="fill: none; stroke-dasharray: 3.7,1.6; stroke-dashoffset: 0; stroke: #d62728; stroke-opacity: 0.6"/>
   </g>
   <g id="line2d_28">
    <path d="M 103.827273 307.8 
L 145.331405 304.968943 
L 186.835537 299.2251 
L 228.339669 289.720581 
L 269.843802 278.4435 
L 311.347934 265.160888 
L 352.852066 244.800671 
L 394.356198 224.621724 
L 435.860331 204.823512 
L 477.364463 182.600773 
L 518.868595 159.885918 
L 560.372727 136.506349 
" clip-path="url(#p3bf88194b0)" style="fill: none; stroke-dasharray: 3.7,1.6; stroke-dashoffset: 0; stroke: #9467bd; stroke-opacity: 0.6"/>
   </g>
   <g id="line2d_29">
    <path d="M 103.827273 307.8 
L 145.331405 306.154595 
L 186.835537 300.847452 
L 228.339669 293.425816 
L 269.843802 283.81596 
L 311.347934 269.422601 
L 352.852066 255.420435 
L 394.356198 235.593826 
L 435.860331 212.608936 
L 477.364463 191.68765 
L 518.868595 168.700125 
L 560.372727 146.625581 
" clip-path="url(#p3bf88194b0)" style="fill: none; stroke-dasharray: 3.7,1.6; stroke-dashoffset: 0; stroke: #8c564b; stroke-opacity: 0.6"/>
   </g>
   <g id="line2d_30">
    <path d="M 103.827273 307.8 
L 145.331405 300.698557 
L 186.835537 294.47536 
L 228.339669 282.810898 
L 269.843802 269.532877 
L 311.347934 252.087943 
L 352.852066 234.395761 
L 394.356198 212.544403 
L 435.860331 191.242467 
L 477.364463 166.336389 
L 518.868595 140.306641 
L 560.372727 118.890178 
" clip-path="url(#p3bf88194b0)" style="fill: none; stroke-dasharray: 3.7,1.6; stroke-dashoffset: 0; stroke: #e377c2; stroke-opacity: 0.6"/>
   </g>
   <g id="line2d_31">
    <path d="M 103.827273 307.8 
L 145.331405 299.569021 
L 186.835537 289.297733 
L 228.339669 275.303246 
L 269.843802 260.306986 
L 311.347934 238.970531 
L 352.852066 219.150383 
L 394.356198 199.740217 
L 435.860331 172.868143 
L 477.364463 148.658661 
L 518.868595 125.089491 
L 560.372727 98.358895 
" clip-path="url(#p3bf88194b0)" style="fill: none; stroke-dasharray: 3.7,1.6; stroke-dashoffset: 0; stroke: #7f7f7f; stroke-opacity: 0.6"/>
   </g>
   <g id="line2d_32">
    <path d="M 103.827273 307.8 
L 145.331405 296.091394 
L 186.835537 287.241488 
L 228.339669 271.599796 
L 269.843802 255.796749 
L 311.347934 233.637862 
L 352.852066 213.582709 
L 394.356198 191.225633 
L 435.860331 168.539856 
L 477.364463 147.848473 
L 518.868595 124.856441 
L 560.372727 102.15332 
" clip-path="url(#p3bf88194b0)" style="fill: none; stroke-dasharray: 3.7,1.6; stroke-dashoffset: 0; stroke: #bcbd22; stroke-opacity: 0.6"/>
   </g>
   <g id="line2d_33">
    <path d="M 103.827273 307.8 
L 145.331405 297.44012 
L 186.835537 285.663043 
L 228.339669 274.581057 
L 269.843802 257.020406 
L 311.347934 237.058439 
L 352.852066 216.637005 
L 394.356198 190.088615 
L 435.860331 165.413715 
L 477.364463 141.11904 
L 518.868595 114.201222 
L 560.372727 91.572496 
" clip-path="url(#p3bf88194b0)" style="fill: none; stroke-dasharray: 3.7,1.6; stroke-dashoffset: 0; stroke: #17becf; stroke-opacity: 0.6"/>
   </g>
   <g id="line2d_34">
    <path d="M 103.827273 307.8 
L 145.331405 297.297451 
L 186.835537 285.327817 
L 228.339669 269.379494 
L 269.843802 248.50072 
L 311.347934 224.556001 
L 352.852066 201.689804 
L 394.356198 174.259806 
L 435.860331 145.827806 
L 477.364463 121.425237 
L 518.868595 96.461767 
L 560.372727 71.513602 
" clip-path="url(#p3bf88194b0)" style="fill: none; stroke-dasharray: 3.7,1.6; stroke-dashoffset: 0; stroke: #1f77b4; stroke-opacity: 0.6"/>
   </g>
   <g id="line2d_35">
    <path d="M 103.827273 307.8 
L 145.331405 304.341385 
L 186.835537 300.263956 
L 228.339669 288.578801 
L 269.843802 277.082531 
L 311.347934 261.943857 
L 352.852066 242.153807 
L 394.356198 219.643433 
L 435.860331 197.277684 
L 477.364463 175.526315 
L 518.868595 153.106151 
L 560.372727 130.86275 
" clip-path="url(#p3bf88194b0)" style="fill: none; stroke-dasharray: 3.7,1.6; stroke-dashoffset: 0; stroke: #ff7f0e; stroke-opacity: 0.6"/>
   </g>
   <g id="line2d_36">
    <path d="M 103.827273 307.8 
L 145.331405 304.373099 
L 186.835537 300.423368 
L 228.339669 288.666716 
L 269.843802 277.500166 
L 311.347934 264.537411 
L 352.852066 248.152464 
L 394.356198 230.681768 
L 435.860331 211.540532 
L 477.364463 189.066463 
L 518.868595 166.534664 
L 560.372727 140.937005 
" clip-path="url(#p3bf88194b0)" style="fill: none; stroke-dasharray: 3.7,1.6; stroke-dashoffset: 0; stroke: #2ca02c; stroke-opacity: 0.6"/>
   </g>
   <g id="line2d_37">
    <path d="M 103.827273 307.8 
L 145.331405 302.262733 
L 186.835537 294.951024 
L 228.339669 283.566416 
L 269.843802 270.211959 
L 311.347934 252.057844 
L 352.852066 232.501864 
L 394.356198 212.156016 
L 435.860331 192.600121 
L 477.364463 171.223705 
L 518.868595 151.608463 
L 560.372727 132.691179 
" clip-path="url(#p3bf88194b0)" style="fill: none; stroke-dasharray: 3.7,1.6; stroke-dashoffset: 0; stroke: #d62728; stroke-opacity: 0.6"/>
   </g>
   <g id="line2d_38">
    <path d="M 103.827273 307.8 
L 145.331405 298.872934 
L 186.835537 291.267942 
L 228.339669 279.921547 
L 269.843802 265.052823 
L 311.347934 249.055838 
L 352.852066 226.828252 
L 394.356198 206.7572 
L 435.860331 184.714285 
L 477.364463 163.203021 
L 518.868595 138.2495 
L 560.372727 114.656693 
" clip-path="url(#p3bf88194b0)" style="fill: none; stroke-dasharray: 3.7,1.6; stroke-dashoffset: 0; stroke: #9467bd; stroke-opacity: 0.6"/>
   </g>
   <g id="line2d_39">
    <path d="M 103.827273 307.8 
L 145.331405 298.571697 
L 186.835537 289.064192 
L 228.339669 276.441029 
L 269.843802 259.886885 
L 311.347934 237.103076 
L 352.852066 212.127364 
L 394.356198 188.423091 
L 435.860331 164.070855 
L 477.364463 137.617605 
L 518.868595 112.988193 
L 560.372727 88.802943 
" clip-path="url(#p3bf88194b0)" style="fill: none; stroke-dasharray: 3.7,1.6; stroke-dashoffset: 0; stroke: #8c564b; stroke-opacity: 0.6"/>
   </g>
   <g id="line2d_40">
    <path d="M 103.827273 307.8 
L 145.331405 304.864194 
L 186.835537 298.999979 
L 228.339669 289.664975 
L 269.843802 277.813307 
L 311.347934 264.2979 
L 352.852066 248.787419 
L 394.356198 230.748256 
L 435.860331 212.724483 
L 477.364463 192.527171 
L 518.868595 174.00431 
L 560.372727 152.546356 
" clip-path="url(#p3bf88194b0)" style="fill: none; stroke-dasharray: 3.7,1.6; stroke-dashoffset: 0; stroke: #e377c2; stroke-opacity: 0.6"/>
   </g>
   <g id="line2d_41">
    <path d="M 103.827273 307.8 
L 145.331405 306.363157 
L 186.835537 297.487965 
L 228.339669 283.056276 
L 269.843802 269.79781 
L 311.347934 251.561223 
L 352.852066 230.335213 
L 394.356198 209.659984 
L 435.860331 181.229515 
L 477.364463 158.435078 
L 518.868595 134.359423 
L 560.372727 109.1442 
" clip-path="url(#p3bf88194b0)" style="fill: none; stroke-dasharray: 3.7,1.6; stroke-dashoffset: 0; stroke: #7f7f7f; stroke-opacity: 0.6"/>
   </g>
   <g id="line2d_42">
    <path d="M 103.827273 307.8 
L 145.331405 302.580976 
L 186.835537 295.453197 
L 228.339669 284.566972 
L 269.843802 271.067209 
L 311.347934 254.761844 
L 352.852066 235.952369 
L 394.356198 217.81424 
L 435.860331 197.207455 
L 477.364463 176.745805 
L 518.868595 155.657448 
L 560.372727 132.853914 
" clip-path="url(#p3bf88194b0)" style="fill: none; stroke-dasharray: 3.7,1.6; stroke-dashoffset: 0; stroke: #bcbd22; stroke-opacity: 0.6"/>
   </g>
   <g id="line2d_43">
    <path d="M 103.827273 307.8 
L 145.331405 299.661697 
L 186.835537 289.750805 
L 228.339669 275.972635 
L 269.843802 256.696212 
L 311.347934 237.473268 
L 352.852066 214.535397 
L 394.356198 192.250505 
L 435.860331 169.149389 
L 477.364463 143.141747 
L 518.868595 118.676515 
L 560.372727 96.605797 
" clip-path="url(#p3bf88194b0)" style="fill: none; stroke-dasharray: 3.7,1.6; stroke-dashoffset: 0; stroke: #17becf; stroke-opacity: 0.6"/>
   </g>
   <g id="line2d_44">
    <path d="M 103.827273 307.8 
L 145.331405 292.601267 
L 186.835537 281.936229 
L 228.339669 268.245027 
L 269.843802 249.975961 
L 311.347934 229.825497 
L 352.852066 207.668141 
L 394.356198 187.505093 
L 435.860331 161.670134 
L 477.364463 139.244103 
L 518.868595 110.629814 
L 560.372727 85.347167 
" clip-path="url(#p3bf88194b0)" style="fill: none; stroke-dasharray: 3.7,1.6; stroke-dashoffset: 0; stroke: #1f77b4; stroke-opacity: 0.6"/>
   </g>
   <g id="line2d_45">
    <path d="M 103.827273 307.8 
L 145.331405 297.365639 
L 186.835537 289.199176 
L 228.339669 274.306006 
L 269.843802 255.551371 
L 311.347934 236.500515 
L 352.852066 213.052333 
L 394.356198 189.385556 
L 435.860331 163.612324 
L 477.364463 142.296784 
L 518.868595 119.87815 
L 560.372727 93.741953 
" clip-path="url(#p3bf88194b0)" style="fill: none; stroke-dasharray: 3.7,1.6; stroke-dashoffset: 0; stroke: #ff7f0e; stroke-opacity: 0.6"/>
   </g>
   <g id="line2d_46">
    <path d="M 103.827273 307.8 
L 145.331405 298.977768 
L 186.835537 292.921372 
L 228.339669 283.893246 
L 269.843802 269.678607 
L 311.347934 251.575337 
L 352.852066 235.365963 
L 394.356198 216.570092 
L 435.860331 194.151458 
L 477.364463 172.22358 
L 518.868595 146.240085 
L 560.372727 122.770732 
" clip-path="url(#p3bf88194b0)" style="fill: none; stroke-dasharray: 3.7,1.6; stroke-dashoffset: 0; stroke: #2ca02c; stroke-opacity: 0.6"/>
   </g>
   <g id="line2d_47">
    <path d="M 103.827273 307.8 
L 145.331405 297.100877 
L 186.835537 288.598108 
L 228.339669 276.981608 
L 269.843802 264.115185 
L 311.347934 249.262785 
L 352.852066 230.467849 
L 394.356198 205.803747 
L 435.860331 184.390175 
L 477.364463 159.883792 
L 518.868595 134.369796 
L 560.372727 111.743961 
" clip-path="url(#p3bf88194b0)" style="fill: none; stroke-dasharray: 3.7,1.6; stroke-dashoffset: 0; stroke: #d62728; stroke-opacity: 0.6"/>
   </g>
   <g id="line2d_48">
    <path d="M 103.827273 307.8 
L 145.331405 302.103654 
L 186.835537 294.424079 
L 228.339669 283.530451 
L 269.843802 268.951572 
L 311.347934 252.685402 
L 352.852066 232.06918 
L 394.356198 207.854257 
L 435.860331 181.82944 
L 477.364463 155.13634 
L 518.868595 131.556626 
L 560.372727 109.451134 
" clip-path="url(#p3bf88194b0)" style="fill: none; stroke-dasharray: 3.7,1.6; stroke-dashoffset: 0; stroke: #9467bd; stroke-opacity: 0.6"/>
   </g>
   <g id="line2d_49">
    <path d="M 103.827273 307.8 
L 145.331405 294.856599 
L 186.835537 283.648026 
L 228.339669 270.715977 
L 269.843802 254.853584 
L 311.347934 236.653217 
L 352.852066 217.503649 
L 394.356198 194.601657 
L 435.860331 172.903257 
L 477.364463 151.689661 
L 518.868595 124.202781 
L 560.372727 104.60565 
" clip-path="url(#p3bf88194b0)" style="fill: none; stroke-dasharray: 3.7,1.6; stroke-dashoffset: 0; stroke: #8c564b; stroke-opacity: 0.6"/>
   </g>
   <g id="line2d_50">
    <path d="M 103.827273 307.8 
L 145.331405 300.048298 
L 186.835537 291.878103 
L 228.339669 280.846347 
L 269.843802 266.916111 
L 311.347934 251.043175 
L 352.852066 233.386873 
L 394.356198 210.839344 
L 435.860331 184.959152 
L 477.364463 161.306149 
L 518.868595 139.479108 
L 560.372727 117.905607 
" clip-path="url(#p3bf88194b0)" style="fill: none; stroke-dasharray: 3.7,1.6; stroke-dashoffset: 0; stroke: #e377c2; stroke-opacity: 0.6"/>
   </g>
   <g id="line2d_51">
    <path d="M 103.827273 307.8 
L 145.331405 298.599244 
L 186.835537 290.719592 
L 228.339669 275.55636 
L 269.843802 258.736689 
L 311.347934 239.507538 
L 352.852066 218.413315 
L 394.356198 194.143721 
L 435.860331 165.752278 
L 477.364463 135.515317 
L 518.868595 109.87234 
L 560.372727 80.735752 
" clip-path="url(#p3bf88194b0)" style="fill: none; stroke-dasharray: 3.7,1.6; stroke-dashoffset: 0; stroke: #7f7f7f; stroke-opacity: 0.6"/>
   </g>
   <g id="line2d_52">
    <path d="M 103.827273 307.8 
L 145.331405 303.184557 
L 186.835537 297.178462 
L 228.339669 289.167418 
L 269.843802 277.999593 
L 311.347934 264.307253 
L 352.852066 247.666895 
L 394.356198 229.282453 
L 435.860331 208.583843 
L 477.364463 185.034568 
L 518.868595 162.288679 
L 560.372727 136.682603 
" clip-path="url(#p3bf88194b0)" style="fill: none; stroke-dasharray: 3.7,1.6; stroke-dashoffset: 0; stroke: #bcbd22; stroke-opacity: 0.6"/>
   </g>
   <g id="line2d_53">
    <path d="M 103.827273 307.8 
L 145.331405 299.381204 
L 186.835537 291.667796 
L 228.339669 276.736315 
L 269.843802 260.852751 
L 311.347934 242.520088 
L 352.852066 225.53071 
L 394.356198 203.750432 
L 435.860331 183.921271 
L 477.364463 164.404402 
L 518.868595 138.555414 
L 560.372727 113.059698 
" clip-path="url(#p3bf88194b0)" style="fill: none; stroke-dasharray: 3.7,1.6; stroke-dashoffset: 0; stroke: #17becf; stroke-opacity: 0.6"/>
   </g>
   <g id="line2d_54">
    <path d="M 103.827273 307.8 
L 145.331405 296.941288 
L 186.835537 286.287286 
L 228.339669 274.601717 
L 269.843802 256.208007 
L 311.347934 238.816298 
L 352.852066 217.459947 
L 394.356198 194.655137 
L 435.860331 174.380369 
L 477.364463 149.548176 
L 518.868595 126.532168 
L 560.372727 101.422033 
" clip-path="url(#p3bf88194b0)" style="fill: none; stroke-dasharray: 3.7,1.6; stroke-dashoffset: 0; stroke: #1f77b4; stroke-opacity: 0.6"/>
   </g>
   <g id="line2d_55">
    <path d="M 103.827273 307.8 
L 145.331405 295.80546 
L 186.835537 287.557741 
L 228.339669 275.849861 
L 269.843802 261.981777 
L 311.347934 242.673215 
L 352.852066 224.803504 
L 394.356198 203.173888 
L 435.860331 179.525986 
L 477.364463 154.979046 
L 518.868595 131.163733 
L 560.372727 109.781025 
" clip-path="url(#p3bf88194b0)" style="fill: none; stroke-dasharray: 3.7,1.6; stroke-dashoffset: 0; stroke: #ff7f0e; stroke-opacity: 0.6"/>
   </g>
   <g id="line2d_56">
    <path d="M 103.827273 307.8 
L 145.331405 303.574644 
L 186.835537 299.264777 
L 228.339669 292.335221 
L 269.843802 283.92496 
L 311.347934 271.225693 
L 352.852066 258.621142 
L 394.356198 243.595719 
L 435.860331 224.593411 
L 477.364463 203.734192 
L 518.868595 182.231431 
L 560.372727 155.419468 
" clip-path="url(#p3bf88194b0)" style="fill: none; stroke-dasharray: 3.7,1.6; stroke-dashoffset: 0; stroke: #2ca02c; stroke-opacity: 0.6"/>
   </g>
   <g id="line2d_57">
    <path d="M 103.827273 307.8 
L 145.331405 301.778525 
L 186.835537 294.900782 
L 228.339669 284.808693 
L 269.843802 270.001696 
L 311.347934 254.514681 
L 352.852066 230.073 
L 394.356198 207.508382 
L 435.860331 179.538314 
L 477.364463 150.422047 
L 518.868595 122.729071 
L 560.372727 98.572473 
" clip-path="url(#p3bf88194b0)" style="fill: none; stroke-dasharray: 3.7,1.6; stroke-dashoffset: 0; stroke: #d62728; stroke-opacity: 0.6"/>
   </g>
   <g id="line2d_58">
    <path d="M 103.827273 307.8 
L 145.331405 296.766139 
L 186.835537 286.3493 
L 228.339669 274.422998 
L 269.843802 260.601507 
L 311.347934 243.814059 
L 352.852066 224.567989 
L 394.356198 200.890414 
L 435.860331 178.530702 
L 477.364463 156.060204 
L 518.868595 132.788871 
L 560.372727 110.592488 
" clip-path="url(#p3bf88194b0)" style="fill: none; stroke-dasharray: 3.7,1.6; stroke-dashoffset: 0; stroke: #9467bd; stroke-opacity: 0.6"/>
   </g>
   <g id="line2d_59">
    <path d="M 103.827273 307.8 
L 145.331405 300.644397 
L 186.835537 295.439196 
L 228.339669 286.313778 
L 269.843802 274.333979 
L 311.347934 261.480139 
L 352.852066 244.231694 
L 394.356198 221.898509 
L 435.860331 196.422434 
L 477.364463 170.391666 
L 518.868595 146.817649 
L 560.372727 124.241637 
" clip-path="url(#p3bf88194b0)" style="fill: none; stroke-dasharray: 3.7,1.6; stroke-dashoffset: 0; stroke: #8c564b; stroke-opacity: 0.6"/>
   </g>
   <g id="line2d_60">
    <path d="M 103.827273 307.8 
L 145.331405 301.078102 
L 186.835537 292.391534 
L 228.339669 282.354662 
L 269.843802 265.771866 
L 311.347934 250.177892 
L 352.852066 228.498027 
L 394.356198 209.709638 
L 435.860331 189.227838 
L 477.364463 165.158475 
L 518.868595 139.726186 
L 560.372727 115.924307 
" clip-path="url(#p3bf88194b0)" style="fill: none; stroke-dasharray: 3.7,1.6; stroke-dashoffset: 0; stroke: #e377c2; stroke-opacity: 0.6"/>
   </g>
   <g id="line2d_61">
    <path d="M 103.827273 307.8 
L 145.331405 303.537829 
L 186.835537 293.171666 
L 228.339669 282.99778 
L 269.843802 270.431744 
L 311.347934 256.291755 
L 352.852066 239.772386 
L 394.356198 221.714604 
L 435.860331 197.931599 
L 477.364463 172.84204 
L 518.868595 150.492106 
L 560.372727 128.770919 
" clip-path="url(#p3bf88194b0)" style="fill: none; stroke-dasharray: 3.7,1.6; stroke-dashoffset: 0; stroke: #7f7f7f; stroke-opacity: 0.6"/>
   </g>
   <g id="line2d_62">
    <path d="M 103.827273 307.8 
L 145.331405 295.079105 
L 186.835537 281.925071 
L 228.339669 267.576998 
L 269.843802 251.197237 
L 311.347934 234.161266 
L 352.852066 213.80173 
L 394.356198 192.454306 
L 435.860331 171.69703 
L 477.364463 148.711545 
L 518.868595 123.921694 
L 560.372727 102.751969 
" clip-path="url(#p3bf88194b0)" style="fill: none; stroke-dasharray: 3.7,1.6; stroke-dashoffset: 0; stroke: #bcbd22; stroke-opacity: 0.6"/>
   </g>
   <g id="line2d_63">
    <path d="M 103.827273 307.8 
L 145.331405 302.624763 
L 186.835537 296.557728 
L 228.339669 283.988132 
L 269.843802 267.557783 
L 311.347934 251.991186 
L 352.852066 231.7415 
L 394.356198 208.724982 
L 435.860331 181.294558 
L 477.364463 158.67952 
L 518.868595 132.900166 
L 560.372727 110.870685 
" clip-path="url(#p3bf88194b0)" style="fill: none; stroke-dasharray: 3.7,1.6; stroke-dashoffset: 0; stroke: #17becf; stroke-opacity: 0.6"/>
   </g>
   <g id="line2d_64">
    <path d="M 103.827273 307.8 
L 145.331405 300.106284 
L 186.835537 294.581411 
L 228.339669 285.521615 
L 269.843802 274.932884 
L 311.347934 262.186174 
L 352.852066 245.830985 
L 394.356198 224.417923 
L 435.860331 201.796509 
L 477.364463 182.066401 
L 518.868595 162.388327 
L 560.372727 136.03787 
" clip-path="url(#p3bf88194b0)" style="fill: none; stroke-dasharray: 3.7,1.6; stroke-dashoffset: 0; stroke: #1f77b4; stroke-opacity: 0.6"/>
   </g>
   <g id="line2d_65">
    <path d="M 103.827273 307.8 
L 145.331405 300.181955 
L 186.835537 291.367257 
L 228.339669 281.076846 
L 269.843802 268.475525 
L 311.347934 252.391731 
L 352.852066 234.583152 
L 394.356198 212.87608 
L 435.860331 192.617041 
L 477.364463 170.145778 
L 518.868595 146.170451 
L 560.372727 122.52731 
" clip-path="url(#p3bf88194b0)" style="fill: none; stroke-dasharray: 3.7,1.6; stroke-dashoffset: 0; stroke: #ff7f0e; stroke-opacity: 0.6"/>
   </g>
   <g id="line2d_66">
    <path d="M 103.827273 307.8 
L 145.331405 301.154538 
L 186.835537 294.003734 
L 228.339669 284.714487 
L 269.843802 272.919104 
L 311.347934 254.708704 
L 352.852066 232.655076 
L 394.356198 209.274488 
L 435.860331 182.967394 
L 477.364463 159.022165 
L 518.868595 134.285538 
L 560.372727 109.698042 
" clip-path="url(#p3bf88194b0)" style="fill: none; stroke-dasharray: 3.7,1.6; stroke-dashoffset: 0; stroke: #2ca02c; stroke-opacity: 0.6"/>
   </g>
   <g id="line2d_67">
    <path d="M 103.827273 307.8 
L 145.331405 299.102158 
L 186.835537 286.668387 
L 228.339669 271.043318 
L 269.843802 254.405171 
L 311.347934 235.330253 
L 352.852066 212.397058 
L 394.356198 190.459827 
L 435.860331 168.681845 
L 477.364463 143.613542 
L 518.868595 120.033913 
L 560.372727 98.214525 
" clip-path="url(#p3bf88194b0)" style="fill: none; stroke-dasharray: 3.7,1.6; stroke-dashoffset: 0; stroke: #d62728; stroke-opacity: 0.6"/>
   </g>
   <g id="line2d_68">
    <path d="M 103.827273 307.8 
L 145.331405 292.569979 
L 186.835537 280.705776 
L 228.339669 261.221583 
L 269.843802 239.43918 
L 311.347934 214.187991 
L 352.852066 189.179119 
L 394.356198 164.739904 
L 435.860331 137.422902 
L 477.364463 111.077377 
L 518.868595 79.836884 
L 560.372727 55.8 
" clip-path="url(#p3bf88194b0)" style="fill: none; stroke-dasharray: 3.7,1.6; stroke-dashoffset: 0; stroke: #9467bd; stroke-opacity: 0.6"/>
   </g>
   <g id="line2d_69">
    <path d="M 103.827273 307.8 
L 145.331405 301.849264 
L 186.835537 294.427869 
L 228.339669 281.961089 
L 269.843802 265.326598 
L 311.347934 248.440778 
L 352.852066 231.423257 
L 394.356198 212.379033 
L 435.860331 192.057587 
L 477.364463 166.382897 
L 518.868595 139.462614 
L 560.372727 115.982973 
" clip-path="url(#p3bf88194b0)" style="fill: none; stroke-dasharray: 3.7,1.6; stroke-dashoffset: 0; stroke: #8c564b; stroke-opacity: 0.6"/>
   </g>
   <g id="line2d_70">
    <path d="M 103.827273 307.8 
L 145.331405 296.056449 
L 186.835537 285.146262 
L 228.339669 268.896306 
L 269.843802 253.079061 
L 311.347934 233.239527 
L 352.852066 213.039325 
L 394.356198 187.810922 
L 435.860331 161.936852 
L 477.364463 131.485632 
L 518.868595 106.394883 
L 560.372727 83.021266 
" clip-path="url(#p3bf88194b0)" style="fill: none; stroke-dasharray: 3.7,1.6; stroke-dashoffset: 0; stroke: #e377c2; stroke-opacity: 0.6"/>
   </g>
   <g id="line2d_71">
    <path d="M 103.827273 307.8 
L 145.331405 300.979815 
L 186.835537 289.690784 
L 228.339669 279.09682 
L 269.843802 263.455148 
L 311.347934 247.478398 
L 352.852066 231.70409 
L 394.356198 210.910764 
L 435.860331 188.407787 
L 477.364463 167.216381 
L 518.868595 144.262695 
L 560.372727 123.420141 
" clip-path="url(#p3bf88194b0)" style="fill: none; stroke-dasharray: 3.7,1.6; stroke-dashoffset: 0; stroke: #7f7f7f; stroke-opacity: 0.6"/>
   </g>
   <g id="line2d_72">
    <path d="M 103.827273 307.8 
L 145.331405 302.533192 
L 186.835537 295.378385 
L 228.339669 283.240776 
L 269.843802 270.429449 
L 311.347934 252.527684 
L 352.852066 233.549098 
L 394.356198 211.761678 
L 435.860331 191.236601 
L 477.364463 170.231311 
L 518.868595 143.869887 
L 560.372727 121.068903 
" clip-path="url(#p3bf88194b0)" style="fill: none; stroke-dasharray: 3.7,1.6; stroke-dashoffset: 0; stroke: #bcbd22; stroke-opacity: 0.6"/>
   </g>
   <g id="line2d_73">
    <path d="M 103.827273 307.8 
L 145.331405 300.714117 
L 186.835537 292.74275 
L 228.339669 285.182116 
L 269.843802 274.257373 
L 311.347934 258.705485 
L 352.852066 240.325379 
L 394.356198 218.779425 
L 435.860331 197.536836 
L 477.364463 173.008516 
L 518.868595 150.207362 
L 560.372727 127.079208 
" clip-path="url(#p3bf88194b0)" style="fill: none; stroke-dasharray: 3.7,1.6; stroke-dashoffset: 0; stroke: #17becf; stroke-opacity: 0.6"/>
   </g>
   <g id="line2d_74">
    <path d="M 103.827273 307.8 
L 145.331405 304.898374 
L 186.835537 299.278679 
L 228.339669 287.95575 
L 269.843802 274.906016 
L 311.347934 256.804872 
L 352.852066 238.587245 
L 394.356198 217.364636 
L 435.860331 197.16979 
L 477.364463 175.904924 
L 518.868595 154.311698 
L 560.372727 132.753246 
" clip-path="url(#p3bf88194b0)" style="fill: none; stroke-dasharray: 3.7,1.6; stroke-dashoffset: 0; stroke: #1f77b4; stroke-opacity: 0.6"/>
   </g>
   <g id="line2d_75">
    <path d="M 103.827273 307.8 
L 145.331405 304.564232 
L 186.835537 300.204395 
L 228.339669 293.362389 
L 269.843802 280.842606 
L 311.347934 269.536533 
L 352.852066 253.83832 
L 394.356198 236.198597 
L 435.860331 217.661112 
L 477.364463 195.875648 
L 518.868595 170.325943 
L 560.372727 148.267213 
" clip-path="url(#p3bf88194b0)" style="fill: none; stroke-dasharray: 3.7,1.6; stroke-dashoffset: 0; stroke: #ff7f0e; stroke-opacity: 0.6"/>
   </g>
   <g id="line2d_76">
    <path d="M 103.827273 307.8 
L 145.331405 302.960945 
L 186.835537 297.496067 
L 228.339669 290.586204 
L 269.843802 278.536091 
L 311.347934 261.508112 
L 352.852066 243.136423 
L 394.356198 222.02732 
L 435.860331 201.650439 
L 477.364463 180.102955 
L 518.868595 156.628075 
L 560.372727 131.329019 
" clip-path="url(#p3bf88194b0)" style="fill: none; stroke-dasharray: 3.7,1.6; stroke-dashoffset: 0; stroke: #2ca02c; stroke-opacity: 0.6"/>
   </g>
   <g id="line2d_77">
    <path d="M 103.827273 307.8 
L 145.331405 304.599687 
L 186.835537 300.317639 
L 228.339669 293.153741 
L 269.843802 283.275211 
L 311.347934 270.069884 
L 352.852066 254.132161 
L 394.356198 236.882866 
L 435.860331 214.834594 
L 477.364463 191.659932 
L 518.868595 168.530843 
L 560.372727 144.233022 
" clip-path="url(#p3bf88194b0)" style="fill: none; stroke-dasharray: 3.7,1.6; stroke-dashoffset: 0; stroke: #d62728; stroke-opacity: 0.6"/>
   </g>
   <g id="line2d_78">
    <path d="M 103.827273 307.8 
L 145.331405 302.537614 
L 186.835537 293.487379 
L 228.339669 282.252719 
L 269.843802 267.490104 
L 311.347934 248.941651 
L 352.852066 225.886277 
L 394.356198 199.156872 
L 435.860331 169.18952 
L 477.364463 141.868436 
L 518.868595 115.782743 
L 560.372727 89.674858 
" clip-path="url(#p3bf88194b0)" style="fill: none; stroke-dasharray: 3.7,1.6; stroke-dashoffset: 0; stroke: #9467bd; stroke-opacity: 0.6"/>
   </g>
   <g id="line2d_79">
    <path d="M 103.827273 307.8 
L 145.331405 303.380621 
L 186.835537 294.048457 
L 228.339669 281.518202 
L 269.843802 261.655882 
L 311.347934 238.490913 
L 352.852066 214.447823 
L 394.356198 189.905644 
L 435.860331 165.25217 
L 477.364463 139.203207 
L 518.868595 114.453742 
L 560.372727 87.556755 
" clip-path="url(#p3bf88194b0)" style="fill: none; stroke-dasharray: 3.7,1.6; stroke-dashoffset: 0; stroke: #8c564b; stroke-opacity: 0.6"/>
   </g>
   <g id="line2d_80">
    <path d="M 103.827273 307.8 
L 145.331405 296.669043 
L 186.835537 285.981251 
L 228.339669 269.197969 
L 269.843802 248.014726 
L 311.347934 226.899927 
L 352.852066 204.713577 
L 394.356198 181.187173 
L 435.860331 154.927012 
L 477.364463 127.851221 
L 518.868595 104.918451 
L 560.372727 81.21911 
" clip-path="url(#p3bf88194b0)" style="fill: none; stroke-dasharray: 3.7,1.6; stroke-dashoffset: 0; stroke: #e377c2; stroke-opacity: 0.6"/>
   </g>
   <g id="line2d_81">
    <path d="M 103.827273 307.8 
L 145.331405 301.064243 
L 186.835537 294.411523 
L 228.339669 284.742885 
L 269.843802 271.194489 
L 311.347934 253.440155 
L 352.852066 234.639523 
L 394.356198 212.346384 
L 435.860331 191.163226 
L 477.364463 170.462915 
L 518.868595 148.143589 
L 560.372727 123.556348 
" clip-path="url(#p3bf88194b0)" style="fill: none; stroke-dasharray: 3.7,1.6; stroke-dashoffset: 0; stroke: #7f7f7f; stroke-opacity: 0.6"/>
   </g>
   <g id="line2d_82">
    <path d="M 103.827273 307.8 
L 145.331405 302.988323 
L 186.835537 293.094825 
L 228.339669 283.929126 
L 269.843802 271.21583 
L 311.347934 257.833485 
L 352.852066 240.367975 
L 394.356198 220.172364 
L 435.860331 196.89899 
L 477.364463 175.713451 
L 518.868595 154.293333 
L 560.372727 131.22614 
" clip-path="url(#p3bf88194b0)" style="fill: none; stroke-dasharray: 3.7,1.6; stroke-dashoffset: 0; stroke: #bcbd22; stroke-opacity: 0.6"/>
   </g>
   <g id="line2d_83">
    <path d="M 103.827273 307.8 
L 145.331405 300.521198 
L 186.835537 292.630131 
L 228.339669 278.091503 
L 269.843802 263.405494 
L 311.347934 248.129848 
L 352.852066 229.722449 
L 394.356198 208.132368 
L 435.860331 182.903711 
L 477.364463 159.016723 
L 518.868595 131.49575 
L 560.372727 107.205921 
" clip-path="url(#p3bf88194b0)" style="fill: none; stroke-dasharray: 3.7,1.6; stroke-dashoffset: 0; stroke: #17becf; stroke-opacity: 0.6"/>
   </g>
   <g id="line2d_84">
    <path d="M 103.827273 307.8 
L 145.331405 304.795921 
L 186.835537 300.123917 
L 228.339669 292.255894 
L 269.843802 277.978762 
L 311.347934 263.090398 
L 352.852066 246.55649 
L 394.356198 229.221491 
L 435.860331 211.092629 
L 477.364463 188.042016 
L 518.868595 167.963567 
L 560.372727 145.473259 
" clip-path="url(#p3bf88194b0)" style="fill: none; stroke-dasharray: 3.7,1.6; stroke-dashoffset: 0; stroke: #1f77b4; stroke-opacity: 0.6"/>
   </g>
   <g id="line2d_85">
    <path d="M 103.827273 307.8 
L 145.331405 297.864302 
L 186.835537 285.914037 
L 228.339669 274.777206 
L 269.843802 259.886375 
L 311.347934 241.160394 
L 352.852066 222.661084 
L 394.356198 204.502039 
L 435.860331 183.167624 
L 477.364463 157.655583 
L 518.868595 131.76825 
L 560.372727 109.922164 
" clip-path="url(#p3bf88194b0)" style="fill: none; stroke-dasharray: 3.7,1.6; stroke-dashoffset: 0; stroke: #ff7f0e; stroke-opacity: 0.6"/>
   </g>
   <g id="line2d_86">
    <path d="M 103.827273 307.8 
L 145.331405 304.714808 
L 186.835537 298.412582 
L 228.339669 288.037712 
L 269.843802 273.499899 
L 311.347934 258.544961 
L 352.852066 239.145339 
L 394.356198 219.068335 
L 435.860331 198.607536 
L 477.364463 177.533887 
L 518.868595 155.409945 
L 560.372727 135.730256 
" clip-path="url(#p3bf88194b0)" style="fill: none; stroke-dasharray: 3.7,1.6; stroke-dashoffset: 0; stroke: #2ca02c; stroke-opacity: 0.6"/>
   </g>
   <g id="line2d_87">
    <path d="M 103.827273 307.8 
L 145.331405 301.119168 
L 186.835537 293.405771 
L 228.339669 282.65386 
L 269.843802 267.396578 
L 311.347934 251.15294 
L 352.852066 233.681479 
L 394.356198 215.741029 
L 435.860331 196.622579 
L 477.364463 175.7109 
L 518.868595 156.175666 
L 560.372727 133.806261 
" clip-path="url(#p3bf88194b0)" style="fill: none; stroke-dasharray: 3.7,1.6; stroke-dashoffset: 0; stroke: #d62728; stroke-opacity: 0.6"/>
   </g>
   <g id="line2d_88">
    <path d="M 103.827273 307.8 
L 145.331405 299.736857 
L 186.835537 292.70578 
L 228.339669 281.998159 
L 269.843802 269.433824 
L 311.347934 253.372306 
L 352.852066 237.481856 
L 394.356198 219.089761 
L 435.860331 194.35696 
L 477.364463 170.782688 
L 518.868595 145.288588 
L 560.372727 119.353046 
" clip-path="url(#p3bf88194b0)" style="fill: none; stroke-dasharray: 3.7,1.6; stroke-dashoffset: 0; stroke: #9467bd; stroke-opacity: 0.6"/>
   </g>
   <g id="line2d_89">
    <path d="M 103.827273 307.8 
L 145.331405 300.943255 
L 186.835537 292.694073 
L 228.339669 280.481852 
L 269.843802 265.955176 
L 311.347934 250.213857 
L 352.852066 233.987903 
L 394.356198 212.439059 
L 435.860331 192.642463 
L 477.364463 172.236589 
L 518.868595 148.160254 
L 560.372727 127.777081 
" clip-path="url(#p3bf88194b0)" style="fill: none; stroke-dasharray: 3.7,1.6; stroke-dashoffset: 0; stroke: #8c564b; stroke-opacity: 0.6"/>
   </g>
   <g id="line2d_90">
    <path d="M 103.827273 307.8 
L 145.331405 302.970213 
L 186.835537 294.329028 
L 228.339669 285.382941 
L 269.843802 274.784178 
L 311.347934 261.000182 
L 352.852066 245.944406 
L 394.356198 228.522853 
L 435.860331 207.568068 
L 477.364463 184.94997 
L 518.868595 159.257425 
L 560.372727 133.620315 
" clip-path="url(#p3bf88194b0)" style="fill: none; stroke-dasharray: 3.7,1.6; stroke-dashoffset: 0; stroke: #e377c2; stroke-opacity: 0.6"/>
   </g>
   <g id="line2d_91">
    <path d="M 103.827273 307.8 
L 145.331405 305.247055 
L 186.835537 299.015037 
L 228.339669 286.833951 
L 269.843802 269.737613 
L 311.347934 252.110219 
L 352.852066 233.967838 
L 394.356198 213.289804 
L 435.860331 192.521645 
L 477.364463 165.010619 
L 518.868595 141.949633 
L 560.372727 120.028897 
" clip-path="url(#p3bf88194b0)" style="fill: none; stroke-dasharray: 3.7,1.6; stroke-dashoffset: 0; stroke: #7f7f7f; stroke-opacity: 0.6"/>
   </g>
   <g id="line2d_92">
    <path d="M 103.827273 307.8 
L 145.331405 299.159718 
L 186.835537 291.874615 
L 228.339669 282.643487 
L 269.843802 265.633533 
L 311.347934 249.673278 
L 352.852066 230.830729 
L 394.356198 211.348974 
L 435.860331 190.076201 
L 477.364463 170.767979 
L 518.868595 150.510556 
L 560.372727 130.884516 
" clip-path="url(#p3bf88194b0)" style="fill: none; stroke-dasharray: 3.7,1.6; stroke-dashoffset: 0; stroke: #bcbd22; stroke-opacity: 0.6"/>
   </g>
   <g id="line2d_93">
    <path d="M 103.827273 307.8 
L 145.331405 302.499863 
L 186.835537 297.78872 
L 228.339669 290.18906 
L 269.843802 278.677315 
L 311.347934 263.732919 
L 352.852066 249.150044 
L 394.356198 232.146466 
L 435.860331 207.285705 
L 477.364463 182.22905 
L 518.868595 158.138857 
L 560.372727 131.256579 
" clip-path="url(#p3bf88194b0)" style="fill: none; stroke-dasharray: 3.7,1.6; stroke-dashoffset: 0; stroke: #17becf; stroke-opacity: 0.6"/>
   </g>
   <g id="line2d_94">
    <path d="M 103.827273 307.8 
L 145.331405 304.099579 
L 186.835537 298.485569 
L 228.339669 291.112414 
L 269.843802 278.120922 
L 311.347934 261.725602 
L 352.852066 240.938482 
L 394.356198 220.90144 
L 435.860331 199.754927 
L 477.364463 177.258922 
L 518.868595 149.392158 
L 560.372727 124.163926 
" clip-path="url(#p3bf88194b0)" style="fill: none; stroke-dasharray: 3.7,1.6; stroke-dashoffset: 0; stroke: #1f77b4; stroke-opacity: 0.6"/>
   </g>
   <g id="line2d_95">
    <path d="M 103.827273 307.8 
L 145.331405 304.602492 
L 186.835537 296.351382 
L 228.339669 285.052285 
L 269.843802 273.624713 
L 311.347934 256.705904 
L 352.852066 237.563733 
L 394.356198 216.166741 
L 435.860331 193.828284 
L 477.364463 172.608821 
L 518.868595 151.887085 
L 560.372727 130.578772 
" clip-path="url(#p3bf88194b0)" style="fill: none; stroke-dasharray: 3.7,1.6; stroke-dashoffset: 0; stroke: #ff7f0e; stroke-opacity: 0.6"/>
   </g>
   <g id="line2d_96">
    <path d="M 103.827273 307.8 
L 145.331405 303.750473 
L 186.835537 295.335981 
L 228.339669 284.334773 
L 269.843802 271.908091 
L 311.347934 254.323803 
L 352.852066 237.109368 
L 394.356198 213.31225 
L 435.860331 192.8858 
L 477.364463 168.192705 
L 518.868595 145.766334 
L 560.372727 118.773696 
" clip-path="url(#p3bf88194b0)" style="fill: none; stroke-dasharray: 3.7,1.6; stroke-dashoffset: 0; stroke: #2ca02c; stroke-opacity: 0.6"/>
   </g>
   <g id="line2d_97">
    <path d="M 103.827273 307.8 
L 145.331405 303.424833 
L 186.835537 294.308961 
L 228.339669 284.546991 
L 269.843802 269.821191 
L 311.347934 251.56913 
L 352.852066 230.085499 
L 394.356198 209.782928 
L 435.860331 184.800243 
L 477.364463 162.232394 
L 518.868595 138.285464 
L 560.372727 116.125642 
" clip-path="url(#p3bf88194b0)" style="fill: none; stroke-dasharray: 3.7,1.6; stroke-dashoffset: 0; stroke: #d62728; stroke-opacity: 0.6"/>
   </g>
   <g id="line2d_98">
    <path d="M 103.827273 307.8 
L 145.331405 294.090282 
L 186.835537 284.30837 
L 228.339669 271.817541 
L 269.843802 255.228112 
L 311.347934 235.283065 
L 352.852066 212.251923 
L 394.356198 189.505014 
L 435.860331 168.958851 
L 477.364463 141.544157 
L 518.868595 118.743003 
L 560.372727 96.332107 
" clip-path="url(#p3bf88194b0)" style="fill: none; stroke-dasharray: 3.7,1.6; stroke-dashoffset: 0; stroke: #9467bd; stroke-opacity: 0.6"/>
   </g>
   <g id="line2d_99">
    <path d="M 103.827273 307.8 
L 145.331405 298.806446 
L 186.835537 287.708789 
L 228.339669 275.288877 
L 269.843802 261.982202 
L 311.347934 242.094036 
L 352.852066 222.941236 
L 394.356198 204.106765 
L 435.860331 181.223478 
L 477.364463 159.599389 
L 518.868595 139.008929 
L 560.372727 117.556586 
" clip-path="url(#p3bf88194b0)" style="fill: none; stroke-dasharray: 3.7,1.6; stroke-dashoffset: 0; stroke: #8c564b; stroke-opacity: 0.6"/>
   </g>
   <g id="line2d_100">
    <path d="M 103.827273 307.8 
L 145.331405 300.89003 
L 186.835537 295.192156 
L 228.339669 285.75815 
L 269.843802 272.108236 
L 311.347934 254.979164 
L 352.852066 238.232442 
L 394.356198 219.242888 
L 435.860331 200.03814 
L 477.364463 178.029829 
L 518.868595 155.034227 
L 560.372727 132.778583 
" clip-path="url(#p3bf88194b0)" style="fill: none; stroke-dasharray: 3.7,1.6; stroke-dashoffset: 0; stroke: #e377c2; stroke-opacity: 0.6"/>
   </g>
   <g id="line2d_101">
    <path d="M 103.827273 307.8 
L 145.331405 302.28756 
L 186.835537 294.786499 
L 228.339669 285.002036 
L 269.843802 273.497433 
L 311.347934 257.249289 
L 352.852066 236.446525 
L 394.356198 217.291941 
L 435.860331 196.122216 
L 477.364463 170.968039 
L 518.868595 145.506248 
L 560.372727 118.359717 
" clip-path="url(#p3bf88194b0)" style="fill: none; stroke-dasharray: 3.7,1.6; stroke-dashoffset: 0; stroke: #7f7f7f; stroke-opacity: 0.6"/>
   </g>
   <g id="line2d_102">
    <path d="M 103.827273 307.8 
L 145.331405 299.309275 
L 186.835537 289.18147 
L 228.339669 275.82631 
L 269.843802 259.060118 
L 311.347934 233.714043 
L 352.852066 209.787434 
L 394.356198 185.873154 
L 435.860331 159.958528 
L 477.364463 133.227422 
L 518.868595 107.118602 
L 560.372727 78.791946 
" clip-path="url(#p3bf88194b0)" style="fill: none; stroke-dasharray: 3.7,1.6; stroke-dashoffset: 0; stroke: #bcbd22; stroke-opacity: 0.6"/>
   </g>
   <g id="line2d_103">
    <path d="M 103.827273 307.8 
L 145.331405 300.68895 
L 186.835537 289.261981 
L 228.339669 274.91928 
L 269.843802 254.945835 
L 311.347934 233.843449 
L 352.852066 207.598762 
L 394.356198 184.816653 
L 435.860331 158.977357 
L 477.364463 132.617719 
L 518.868595 103.761707 
L 560.372727 76.38944 
" clip-path="url(#p3bf88194b0)" style="fill: none; stroke-dasharray: 3.7,1.6; stroke-dashoffset: 0; stroke: #17becf; stroke-opacity: 0.6"/>
   </g>
   <g id="line2d_104">
    <path d="M 103.827273 307.8 
L 145.331405 297.276365 
L 186.835537 286.325231 
L 228.339669 272.148027 
L 269.843802 254.084292 
L 311.347934 229.862482 
L 352.852066 204.506885 
L 394.356198 179.796871 
L 435.860331 154.054502 
L 477.364463 128.419858 
L 518.868595 102.760812 
L 560.372727 79.882202 
" clip-path="url(#p3bf88194b0)" style="fill: none; stroke-dasharray: 3.7,1.6; stroke-dashoffset: 0; stroke: #1f77b4; stroke-opacity: 0.6"/>
   </g>
   <g id="line2d_105">
    <path d="M 103.827273 307.8 
L 145.331405 297.78659 
L 186.835537 288.505991 
L 228.339669 277.286842 
L 269.843802 261.858578 
L 311.347934 244.654601 
L 352.852066 225.544908 
L 394.356198 201.695926 
L 435.860331 178.877682 
L 477.364463 154.857038 
L 518.868595 129.604149 
L 560.372727 106.341063 
" clip-path="url(#p3bf88194b0)" style="fill: none; stroke-dasharray: 3.7,1.6; stroke-dashoffset: 0; stroke: #ff7f0e; stroke-opacity: 0.6"/>
   </g>
   <g id="line2d_106">
    <path d="M 103.827273 307.8 
L 145.331405 302.083929 
L 186.835537 293.028254 
L 228.339669 279.150725 
L 269.843802 262.500845 
L 311.347934 244.537439 
L 352.852066 225.128549 
L 394.356198 203.532772 
L 435.860331 179.762776 
L 477.364463 155.55474 
L 518.868595 130.723822 
L 560.372727 104.641275 
" clip-path="url(#p3bf88194b0)" style="fill: none; stroke-dasharray: 3.7,1.6; stroke-dashoffset: 0; stroke: #2ca02c; stroke-opacity: 0.6"/>
   </g>
   <g id="line2d_107">
    <path d="M 103.827273 307.8 
L 145.331405 298.930155 
L 186.835537 291.646625 
L 228.339669 279.202249 
L 269.843802 260.850796 
L 311.347934 243.749697 
L 352.852066 221.367113 
L 394.356198 196.732089 
L 435.860331 175.16488 
L 477.364463 151.075281 
L 518.868595 126.381846 
L 560.372727 103.014777 
" clip-path="url(#p3bf88194b0)" style="fill: none; stroke-dasharray: 3.7,1.6; stroke-dashoffset: 0; stroke: #d62728; stroke-opacity: 0.6"/>
   </g>
   <g id="line2d_108">
    <path d="M 103.827273 307.8 
L 145.331405 294.578657 
L 186.835537 282.815442 
L 228.339669 268.688169 
L 269.843802 247.750473 
L 311.347934 229.179829 
L 352.852066 208.9003 
L 394.356198 186.837915 
L 435.860331 162.125604 
L 477.364463 140.620802 
L 518.868595 120.435734 
L 560.372727 96.714372 
" clip-path="url(#p3bf88194b0)" style="fill: none; stroke-dasharray: 3.7,1.6; stroke-dashoffset: 0; stroke: #9467bd; stroke-opacity: 0.6"/>
   </g>
   <g id="line2d_109">
    <path d="M 103.827273 307.8 
L 145.331405 301.712461 
L 186.835537 297.063025 
L 228.339669 289.963663 
L 269.843802 276.9879 
L 311.347934 260.947808 
L 352.852066 240.566165 
L 394.356198 220.729692 
L 435.860331 195.345357 
L 477.364463 173.362809 
L 518.868595 150.54363 
L 560.372727 128.812411 
" clip-path="url(#p3bf88194b0)" style="fill: none; stroke-dasharray: 3.7,1.6; stroke-dashoffset: 0; stroke: #8c564b; stroke-opacity: 0.6"/>
   </g>
   <g id="line2d_110">
    <path d="M 103.827273 307.8 
L 145.331405 302.355749 
L 186.835537 294.69075 
L 228.339669 284.920244 
L 269.843802 270.566591 
L 311.347934 250.318776 
L 352.852066 231.86742 
L 394.356198 212.261871 
L 435.860331 191.199105 
L 477.364463 169.420188 
L 518.868595 145.808846 
L 560.372727 122.447983 
" clip-path="url(#p3bf88194b0)" style="fill: none; stroke-dasharray: 3.7,1.6; stroke-dashoffset: 0; stroke: #e377c2; stroke-opacity: 0.6"/>
   </g>
   <g id="line2d_111">
    <path d="M 103.827273 307.8 
L 145.331405 301.414114 
L 186.835537 294.251358 
L 228.339669 282.228488 
L 269.843802 262.204964 
L 311.347934 244.266809 
L 352.852066 221.894683 
L 394.356198 194.295318 
L 435.860331 168.33835 
L 477.364463 139.527741 
L 518.868595 112.823078 
L 560.372727 89.169989 
" clip-path="url(#p3bf88194b0)" style="fill: none; stroke-dasharray: 3.7,1.6; stroke-dashoffset: 0; stroke: #7f7f7f; stroke-opacity: 0.6"/>
   </g>
   <g id="line2d_112">
    <path d="M 103.827273 307.8 
L 145.331405 298.975983 
L 186.835537 290.272128 
L 228.339669 280.687353 
L 269.843802 269.073495 
L 311.347934 251.917301 
L 352.852066 233.42896 
L 394.356198 213.141098 
L 435.860331 189.756003 
L 477.364463 164.887165 
L 518.868595 141.961877 
L 560.372727 120.864592 
" clip-path="url(#p3bf88194b0)" style="fill: none; stroke-dasharray: 3.7,1.6; stroke-dashoffset: 0; stroke: #bcbd22; stroke-opacity: 0.6"/>
   </g>
   <g id="line2d_113">
    <path d="M 103.827273 307.8 
L 145.331405 293.234097 
L 186.835537 283.098811 
L 228.339669 267.61951 
L 269.843802 249.58902 
L 311.347934 228.168816 
L 352.852066 208.097679 
L 394.356198 187.905468 
L 435.860331 161.286933 
L 477.364463 139.369938 
L 518.868595 115.243354 
L 560.372727 95.510185 
" clip-path="url(#p3bf88194b0)" style="fill: none; stroke-dasharray: 3.7,1.6; stroke-dashoffset: 0; stroke: #17becf; stroke-opacity: 0.6"/>
   </g>
   <g id="line2d_114">
    <path d="M 103.827273 307.8 
L 145.331405 300.268899 
L 186.835537 292.008682 
L 228.339669 280.443219 
L 269.843802 265.477733 
L 311.347934 247.807505 
L 352.852066 228.260328 
L 394.356198 206.743987 
L 435.860331 183.741798 
L 477.364463 160.07101 
L 518.868595 136.125844 
L 560.372727 112.552384 
" clip-path="url(#p3bf88194b0)" style="fill: none; stroke: #000000; stroke-width: 2.5; stroke-linecap: square"/>
   </g>
   <g id="patch_3">
    <path d="M 81 320.4 
L 81 43.2 
" style="fill: none; stroke: #000000; stroke-width: 0.8; stroke-linejoin: miter; stroke-linecap: square"/>
   </g>
   <g id="patch_4">
    <path d="M 583.2 320.4 
L 583.2 43.2 
" style="fill: none; stroke: #000000; stroke-width: 0.8; stroke-linejoin: miter; stroke-linecap: square"/>
   </g>
   <g id="patch_5">
    <path d="M 81 320.4 
L 583.2 320.4 
" style="fill: none; stroke: #000000; stroke-width: 0.8; stroke-linejoin: miter; stroke-linecap: square"/>
   </g>
   <g id="patch_6">
    <path d="M 81 43.2 
L 583.2 43.2 
" style="fill: none; stroke: #000000; stroke-width: 0.8; stroke-linejoin: miter; stroke-linecap: square"/>
   </g>
   <g id="legend_1">
    <g id="patch_7">
     <path d="M 88 65.878125 
L 161.065625 65.878125 
Q 163.065625 65.878125 163.065625 63.878125 
L 163.065625 50.2 
Q 163.065625 48.2 161.065625 48.2 
L 88 48.2 
Q 86 48.2 86 50.2 
L 86 63.878125 
Q 86 65.878125 88 65.878125 
z
" style="fill: #ffffff; opacity: 0.8; stroke: #cccccc; stroke-linejoin: miter"/>
    </g>
    <g id="line2d_115">
     <path d="M 90 56.298437 
L 100 56.298437 
L 110 56.298437 
" style="fill: none; stroke: #000000; stroke-width: 2.5; stroke-linecap: square"/>
    </g>
    <g id="text_16">
     <!-- Average -->
     <g transform="translate(118 59.798437) scale(0.1 -0.1)">
      <defs>
       <path id="DejaVuSans-41" d="M 2188 4044 
L 1331 1722 
L 3047 1722 
L 2188 4044 
z
M 1831 4666 
L 2547 4666 
L 4325 0 
L 3669 0 
L 3244 1197 
L 1141 1197 
L 716 0 
L 50 0 
L 1831 4666 
z
" transform="scale(0.015625)"/>
       <path id="DejaVuSans-67" d="M 2906 1791 
Q 2906 2416 2648 2759 
Q 2391 3103 1925 3103 
Q 1463 3103 1205 2759 
Q 947 2416 947 1791 
Q 947 1169 1205 825 
Q 1463 481 1925 481 
Q 2391 481 2648 825 
Q 2906 1169 2906 1791 
z
M 3481 434 
Q 3481 -459 3084 -895 
Q 2688 -1331 1869 -1331 
Q 1566 -1331 1297 -1286 
Q 1028 -1241 775 -1147 
L 775 -588 
Q 1028 -725 1275 -790 
Q 1522 -856 1778 -856 
Q 2344 -856 2625 -561 
Q 2906 -266 2906 331 
L 2906 616 
Q 2728 306 2450 153 
Q 2172 0 1784 0 
Q 1141 0 747 490 
Q 353 981 353 1791 
Q 353 2603 747 3093 
Q 1141 3584 1784 3584 
Q 2172 3584 2450 3431 
Q 2728 3278 2906 2969 
L 2906 3500 
L 3481 3500 
L 3481 434 
z
" transform="scale(0.015625)"/>
      </defs>
      <use xlink:href="#DejaVuSans-41"/>
      <use xlink:href="#DejaVuSans-76" x="62.533203"/>
      <use xlink:href="#DejaVuSans-65" x="121.712891"/>
      <use xlink:href="#DejaVuSans-72" x="183.236328"/>
      <use xlink:href="#DejaVuSans-61" x="224.349609"/>
      <use xlink:href="#DejaVuSans-67" x="285.628906"/>
      <use xlink:href="#DejaVuSans-65" x="349.105469"/>
     </g>
    </g>
   </g>
  </g>
 </g>
 <defs>
  <clipPath id="p3bf88194b0">
   <rect x="81" y="43.2" width="502.2" height="277.2"/>
  </clipPath>
 </defs>
</svg>
