<?xml version="1.0" encoding="utf-8" standalone="no"?>
<!DOCTYPE svg PUBLIC "-//W3C//DTD SVG 1.1//EN"
  "http://www.w3.org/Graphics/SVG/1.1/DTD/svg11.dtd">
<svg xmlns:xlink="http://www.w3.org/1999/xlink" width="648pt" height="360pt" viewBox="0 0 648 360" xmlns="http://www.w3.org/2000/svg" version="1.1">
 <metadata>
  <rdf:RDF xmlns:dc="http://purl.org/dc/elements/1.1/" xmlns:cc="http://creativecommons.org/ns#" xmlns:rdf="http://www.w3.org/1999/02/22-rdf-syntax-ns#">
   <cc:Work>
    <dc:type rdf:resource="http://purl.org/dc/dcmitype/StillImage"/>
    <dc:date>2025-09-21T22:07:57.347157</dc:date>
    <dc:format>image/svg+xml</dc:format>
    <dc:creator>
     <cc:Agent>
      <dc:title>Matplotlib v3.8.0, https://matplotlib.org/</dc:title>
     </cc:Agent>
    </dc:creator>
   </cc:Work>
  </rdf:RDF>
 </metadata>
 <defs>
  <style type="text/css">*{stroke-linejoin: round; stroke-linecap: butt}</style>
 </defs>
 <g id="figure_1">
  <g id="patch_1">
   <path d="M 0 360 
L 648 360 
L 648 0 
L 0 0 
z
" style="fill: #ffffff"/>
  </g>
  <g id="axes_1">
   <g id="patch_2">
    <path d="M 81 320.4 
L 583.2 320.4 
L 583.2 43.2 
L 81 43.2 
z
" style="fill: #ffffff"/>
   </g>
   <g id="matplotlib.axis_1">
    <g id="xtick_1">
     <g id="line2d_1">
      <defs>
       <path id="mfce4fb340d" d="M 0 0 
L 0 3.5 
" style="stroke: #000000; stroke-width: 0.8"/>
      </defs>
      <g>
       <use xlink:href="#mfce4fb340d" x="134.263636" y="320.4" style="stroke: #000000; stroke-width: 0.8"/>
      </g>
     </g>
     <g id="text_1">
      <!-- 2010 -->
      <g transform="translate(118.993636 336.518125) scale(0.12 -0.12)">
       <defs>
        <path id="DejaVuSans-32" d="M 1228 531 
L 3431 531 
L 3431 0 
L 469 0 
L 469 531 
Q 828 903 1448 1529 
Q 2069 2156 2228 2338 
Q 2531 2678 2651 2914 
Q 2772 3150 2772 3378 
Q 2772 3750 2511 3984 
Q 2250 4219 1831 4219 
Q 1534 4219 1204 4116 
Q 875 4013 500 3803 
L 500 4441 
Q 881 4594 1212 4672 
Q 1544 4750 1819 4750 
Q 2544 4750 2975 4387 
Q 3406 4025 3406 3419 
Q 3406 3131 3298 2873 
Q 3191 2616 2906 2266 
Q 2828 2175 2409 1742 
Q 1991 1309 1228 531 
z
" transform="scale(0.015625)"/>
        <path id="DejaVuSans-30" d="M 2034 4250 
Q 1547 4250 1301 3770 
Q 1056 3291 1056 2328 
Q 1056 1369 1301 889 
Q 1547 409 2034 409 
Q 2525 409 2770 889 
Q 3016 1369 3016 2328 
Q 3016 3291 2770 3770 
Q 2525 4250 2034 4250 
z
M 2034 4750 
Q 2819 4750 3233 4129 
Q 3647 3509 3647 2328 
Q 3647 1150 3233 529 
Q 2819 -91 2034 -91 
Q 1250 -91 836 529 
Q 422 1150 422 2328 
Q 422 3509 836 4129 
Q 1250 4750 2034 4750 
z
" transform="scale(0.015625)"/>
        <path id="DejaVuSans-31" d="M 794 531 
L 1825 531 
L 1825 4091 
L 703 3866 
L 703 4441 
L 1819 4666 
L 2450 4666 
L 2450 531 
L 3481 531 
L 3481 0 
L 794 0 
L 794 531 
z
" transform="scale(0.015625)"/>
       </defs>
       <use xlink:href="#DejaVuSans-32"/>
       <use xlink:href="#DejaVuSans-30" x="63.623047"/>
       <use xlink:href="#DejaVuSans-31" x="127.246094"/>
       <use xlink:href="#DejaVuSans-30" x="190.869141"/>
      </g>
     </g>
    </g>
    <g id="xtick_2">
     <g id="line2d_2">
      <g>
       <use xlink:href="#mfce4fb340d" x="195.136364" y="320.4" style="stroke: #000000; stroke-width: 0.8"/>
      </g>
     </g>
     <g id="text_2">
      <!-- 2012 -->
      <g transform="translate(179.866364 336.518125) scale(0.12 -0.12)">
       <use xlink:href="#DejaVuSans-32"/>
       <use xlink:href="#DejaVuSans-30" x="63.623047"/>
       <use xlink:href="#DejaVuSans-31" x="127.246094"/>
       <use xlink:href="#DejaVuSans-32" x="190.869141"/>
      </g>
     </g>
    </g>
    <g id="xtick_3">
     <g id="line2d_3">
      <g>
       <use xlink:href="#mfce4fb340d" x="256.009091" y="320.4" style="stroke: #000000; stroke-width: 0.8"/>
      </g>
     </g>
     <g id="text_3">
      <!-- 2014 -->
      <g transform="translate(240.739091 336.518125) scale(0.12 -0.12)">
       <defs>
        <path id="DejaVuSans-34" d="M 2419 4116 
L 825 1625 
L 2419 1625 
L 2419 4116 
z
M 2253 4666 
L 3047 4666 
L 3047 1625 
L 3713 1625 
L 3713 1100 
L 3047 1100 
L 3047 0 
L 2419 0 
L 2419 1100 
L 313 1100 
L 313 1709 
L 2253 4666 
z
" transform="scale(0.015625)"/>
       </defs>
       <use xlink:href="#DejaVuSans-32"/>
       <use xlink:href="#DejaVuSans-30" x="63.623047"/>
       <use xlink:href="#DejaVuSans-31" x="127.246094"/>
       <use xlink:href="#DejaVuSans-34" x="190.869141"/>
      </g>
     </g>
    </g>
    <g id="xtick_4">
     <g id="line2d_4">
      <g>
       <use xlink:href="#mfce4fb340d" x="316.881818" y="320.4" style="stroke: #000000; stroke-width: 0.8"/>
      </g>
     </g>
     <g id="text_4">
      <!-- 2016 -->
      <g transform="translate(301.611818 336.518125) scale(0.12 -0.12)">
       <defs>
        <path id="DejaVuSans-36" d="M 2113 2584 
Q 1688 2584 1439 2293 
Q 1191 2003 1191 1497 
Q 1191 994 1439 701 
Q 1688 409 2113 409 
Q 2538 409 2786 701 
Q 3034 994 3034 1497 
Q 3034 2003 2786 2293 
Q 2538 2584 2113 2584 
z
M 3366 4563 
L 3366 3988 
Q 3128 4100 2886 4159 
Q 2644 4219 2406 4219 
Q 1781 4219 1451 3797 
Q 1122 3375 1075 2522 
Q 1259 2794 1537 2939 
Q 1816 3084 2150 3084 
Q 2853 3084 3261 2657 
Q 3669 2231 3669 1497 
Q 3669 778 3244 343 
Q 2819 -91 2113 -91 
Q 1303 -91 875 529 
Q 447 1150 447 2328 
Q 447 3434 972 4092 
Q 1497 4750 2381 4750 
Q 2619 4750 2861 4703 
Q 3103 4656 3366 4563 
z
" transform="scale(0.015625)"/>
       </defs>
       <use xlink:href="#DejaVuSans-32"/>
       <use xlink:href="#DejaVuSans-30" x="63.623047"/>
       <use xlink:href="#DejaVuSans-31" x="127.246094"/>
       <use xlink:href="#DejaVuSans-36" x="190.869141"/>
      </g>
     </g>
    </g>
    <g id="xtick_5">
     <g id="line2d_5">
      <g>
       <use xlink:href="#mfce4fb340d" x="377.754545" y="320.4" style="stroke: #000000; stroke-width: 0.8"/>
      </g>
     </g>
     <g id="text_5">
      <!-- 2018 -->
      <g transform="translate(362.484545 336.518125) scale(0.12 -0.12)">
       <defs>
        <path id="DejaVuSans-38" d="M 2034 2216 
Q 1584 2216 1326 1975 
Q 1069 1734 1069 1313 
Q 1069 891 1326 650 
Q 1584 409 2034 409 
Q 2484 409 2743 651 
Q 3003 894 3003 1313 
Q 3003 1734 2745 1975 
Q 2488 2216 2034 2216 
z
M 1403 2484 
Q 997 2584 770 2862 
Q 544 3141 544 3541 
Q 544 4100 942 4425 
Q 1341 4750 2034 4750 
Q 2731 4750 3128 4425 
Q 3525 4100 3525 3541 
Q 3525 3141 3298 2862 
Q 3072 2584 2669 2484 
Q 3125 2378 3379 2068 
Q 3634 1759 3634 1313 
Q 3634 634 3220 271 
Q 2806 -91 2034 -91 
Q 1263 -91 848 271 
Q 434 634 434 1313 
Q 434 1759 690 2068 
Q 947 2378 1403 2484 
z
M 1172 3481 
Q 1172 3119 1398 2916 
Q 1625 2713 2034 2713 
Q 2441 2713 2670 2916 
Q 2900 3119 2900 3481 
Q 2900 3844 2670 4047 
Q 2441 4250 2034 4250 
Q 1625 4250 1398 4047 
Q 1172 3844 1172 3481 
z
" transform="scale(0.015625)"/>
       </defs>
       <use xlink:href="#DejaVuSans-32"/>
       <use xlink:href="#DejaVuSans-30" x="63.623047"/>
       <use xlink:href="#DejaVuSans-31" x="127.246094"/>
       <use xlink:href="#DejaVuSans-38" x="190.869141"/>
      </g>
     </g>
    </g>
    <g id="xtick_6">
     <g id="line2d_6">
      <g>
       <use xlink:href="#mfce4fb340d" x="438.627273" y="320.4" style="stroke: #000000; stroke-width: 0.8"/>
      </g>
     </g>
     <g id="text_6">
      <!-- 2020 -->
      <g transform="translate(423.357273 336.518125) scale(0.12 -0.12)">
       <use xlink:href="#DejaVuSans-32"/>
       <use xlink:href="#DejaVuSans-30" x="63.623047"/>
       <use xlink:href="#DejaVuSans-32" x="127.246094"/>
       <use xlink:href="#DejaVuSans-30" x="190.869141"/>
      </g>
     </g>
    </g>
    <g id="xtick_7">
     <g id="line2d_7">
      <g>
       <use xlink:href="#mfce4fb340d" x="499.5" y="320.4" style="stroke: #000000; stroke-width: 0.8"/>
      </g>
     </g>
     <g id="text_7">
      <!-- 2022 -->
      <g transform="translate(484.23 336.518125) scale(0.12 -0.12)">
       <use xlink:href="#DejaVuSans-32"/>
       <use xlink:href="#DejaVuSans-30" x="63.623047"/>
       <use xlink:href="#DejaVuSans-32" x="127.246094"/>
       <use xlink:href="#DejaVuSans-32" x="190.869141"/>
      </g>
     </g>
    </g>
    <g id="xtick_8">
     <g id="line2d_8">
      <g>
       <use xlink:href="#mfce4fb340d" x="560.372727" y="320.4" style="stroke: #000000; stroke-width: 0.8"/>
      </g>
     </g>
     <g id="text_8">
      <!-- 2024 -->
      <g transform="translate(545.102727 336.518125) scale(0.12 -0.12)">
       <use xlink:href="#DejaVuSans-32"/>
       <use xlink:href="#DejaVuSans-30" x="63.623047"/>
       <use xlink:href="#DejaVuSans-32" x="127.246094"/>
       <use xlink:href="#DejaVuSans-34" x="190.869141"/>
      </g>
     </g>
    </g>
    <g id="text_9">
     <!-- Year -->
     <g transform="translate(316.21875 354.411406) scale(0.15 -0.15)">
      <defs>
       <path id="DejaVuSans-59" d="M -13 4666 
L 666 4666 
L 1959 2747 
L 3244 4666 
L 3922 4666 
L 2272 2222 
L 2272 0 
L 1638 0 
L 1638 2222 
L -13 4666 
z
" transform="scale(0.015625)"/>
       <path id="DejaVuSans-65" d="M 3597 1894 
L 3597 1613 
L 953 1613 
Q 991 1019 1311 708 
Q 1631 397 2203 397 
Q 2534 397 2845 478 
Q 3156 559 3463 722 
L 3463 178 
Q 3153 47 2828 -22 
Q 2503 -91 2169 -91 
Q 1331 -91 842 396 
Q 353 884 353 1716 
Q 353 2575 817 3079 
Q 1281 3584 2069 3584 
Q 2775 3584 3186 3129 
Q 3597 2675 3597 1894 
z
M 3022 2063 
Q 3016 2534 2758 2815 
Q 2500 3097 2075 3097 
Q 1594 3097 1305 2825 
Q 1016 2553 972 2059 
L 3022 2063 
z
" transform="scale(0.015625)"/>
       <path id="DejaVuSans-61" d="M 2194 1759 
Q 1497 1759 1228 1600 
Q 959 1441 959 1056 
Q 959 750 1161 570 
Q 1363 391 1709 391 
Q 2188 391 2477 730 
Q 2766 1069 2766 1631 
L 2766 1759 
L 2194 1759 
z
M 3341 1997 
L 3341 0 
L 2766 0 
L 2766 531 
Q 2569 213 2275 61 
Q 1981 -91 1556 -91 
Q 1019 -91 701 211 
Q 384 513 384 1019 
Q 384 1609 779 1909 
Q 1175 2209 1959 2209 
L 2766 2209 
L 2766 2266 
Q 2766 2663 2505 2880 
Q 2244 3097 1772 3097 
Q 1472 3097 1187 3025 
Q 903 2953 641 2809 
L 641 3341 
Q 956 3463 1253 3523 
Q 1550 3584 1831 3584 
Q 2591 3584 2966 3190 
Q 3341 2797 3341 1997 
z
" transform="scale(0.015625)"/>
       <path id="DejaVuSans-72" d="M 2631 2963 
Q 2534 3019 2420 3045 
Q 2306 3072 2169 3072 
Q 1681 3072 1420 2755 
Q 1159 2438 1159 1844 
L 1159 0 
L 581 0 
L 581 3500 
L 1159 3500 
L 1159 2956 
Q 1341 3275 1631 3429 
Q 1922 3584 2338 3584 
Q 2397 3584 2469 3576 
Q 2541 3569 2628 3553 
L 2631 2963 
z
" transform="scale(0.015625)"/>
      </defs>
      <use xlink:href="#DejaVuSans-59"/>
      <use xlink:href="#DejaVuSans-65" x="47.833984"/>
      <use xlink:href="#DejaVuSans-61" x="109.357422"/>
      <use xlink:href="#DejaVuSans-72" x="170.636719"/>
     </g>
    </g>
   </g>
   <g id="matplotlib.axis_2">
    <g id="ytick_1">
     <g id="line2d_9">
      <defs>
       <path id="m7ab1844177" d="M 0 0 
L -3.5 0 
" style="stroke: #000000; stroke-width: 0.8"/>
      </defs>
      <g>
       <use xlink:href="#m7ab1844177" x="81" y="290.655016" style="stroke: #000000; stroke-width: 0.8"/>
      </g>
     </g>
     <g id="text_10">
      <!-- 15 -->
      <g transform="translate(58.73 295.214079) scale(0.12 -0.12)">
       <defs>
        <path id="DejaVuSans-35" d="M 691 4666 
L 3169 4666 
L 3169 4134 
L 1269 4134 
L 1269 2991 
Q 1406 3038 1543 3061 
Q 1681 3084 1819 3084 
Q 2600 3084 3056 2656 
Q 3513 2228 3513 1497 
Q 3513 744 3044 326 
Q 2575 -91 1722 -91 
Q 1428 -91 1123 -41 
Q 819 9 494 109 
L 494 744 
Q 775 591 1075 516 
Q 1375 441 1709 441 
Q 2250 441 2565 725 
Q 2881 1009 2881 1497 
Q 2881 1984 2565 2268 
Q 2250 2553 1709 2553 
Q 1456 2553 1204 2497 
Q 953 2441 691 2322 
L 691 4666 
z
" transform="scale(0.015625)"/>
       </defs>
       <use xlink:href="#DejaVuSans-31"/>
       <use xlink:href="#DejaVuSans-35" x="63.623047"/>
      </g>
     </g>
    </g>
    <g id="ytick_2">
     <g id="line2d_10">
      <g>
       <use xlink:href="#m7ab1844177" x="81" y="258.816543" style="stroke: #000000; stroke-width: 0.8"/>
      </g>
     </g>
     <g id="text_11">
      <!-- 20 -->
      <g transform="translate(58.73 263.375605) scale(0.12 -0.12)">
       <use xlink:href="#DejaVuSans-32"/>
       <use xlink:href="#DejaVuSans-30" x="63.623047"/>
      </g>
     </g>
    </g>
    <g id="ytick_3">
     <g id="line2d_11">
      <g>
       <use xlink:href="#m7ab1844177" x="81" y="226.978069" style="stroke: #000000; stroke-width: 0.8"/>
      </g>
     </g>
     <g id="text_12">
      <!-- 25 -->
      <g transform="translate(58.73 231.537131) scale(0.12 -0.12)">
       <use xlink:href="#DejaVuSans-32"/>
       <use xlink:href="#DejaVuSans-35" x="63.623047"/>
      </g>
     </g>
    </g>
    <g id="ytick_4">
     <g id="line2d_12">
      <g>
       <use xlink:href="#m7ab1844177" x="81" y="195.139595" style="stroke: #000000; stroke-width: 0.8"/>
      </g>
     </g>
     <g id="text_13">
      <!-- 30 -->
      <g transform="translate(58.73 199.698658) scale(0.12 -0.12)">
       <defs>
        <path id="DejaVuSans-33" d="M 2597 2516 
Q 3050 2419 3304 2112 
Q 3559 1806 3559 1356 
Q 3559 666 3084 287 
Q 2609 -91 1734 -91 
Q 1441 -91 1130 -33 
Q 819 25 488 141 
L 488 750 
Q 750 597 1062 519 
Q 1375 441 1716 441 
Q 2309 441 2620 675 
Q 2931 909 2931 1356 
Q 2931 1769 2642 2001 
Q 2353 2234 1838 2234 
L 1294 2234 
L 1294 2753 
L 1863 2753 
Q 2328 2753 2575 2939 
Q 2822 3125 2822 3475 
Q 2822 3834 2567 4026 
Q 2313 4219 1838 4219 
Q 1578 4219 1281 4162 
Q 984 4106 628 3988 
L 628 4550 
Q 988 4650 1302 4700 
Q 1616 4750 1894 4750 
Q 2613 4750 3031 4423 
Q 3450 4097 3450 3541 
Q 3450 3153 3228 2886 
Q 3006 2619 2597 2516 
z
" transform="scale(0.015625)"/>
       </defs>
       <use xlink:href="#DejaVuSans-33"/>
       <use xlink:href="#DejaVuSans-30" x="63.623047"/>
      </g>
     </g>
    </g>
    <g id="ytick_5">
     <g id="line2d_13">
      <g>
       <use xlink:href="#m7ab1844177" x="81" y="163.301121" style="stroke: #000000; stroke-width: 0.8"/>
      </g>
     </g>
     <g id="text_14">
      <!-- 35 -->
      <g transform="translate(58.73 167.860184) scale(0.12 -0.12)">
       <use xlink:href="#DejaVuSans-33"/>
       <use xlink:href="#DejaVuSans-35" x="63.623047"/>
      </g>
     </g>
    </g>
    <g id="ytick_6">
     <g id="line2d_14">
      <g>
       <use xlink:href="#m7ab1844177" x="81" y="131.462648" style="stroke: #000000; stroke-width: 0.8"/>
      </g>
     </g>
     <g id="text_15">
      <!-- 40 -->
      <g transform="translate(58.73 136.02171) scale(0.12 -0.12)">
       <use xlink:href="#DejaVuSans-34"/>
       <use xlink:href="#DejaVuSans-30" x="63.623047"/>
      </g>
     </g>
    </g>
    <g id="ytick_7">
     <g id="line2d_15">
      <g>
       <use xlink:href="#m7ab1844177" x="81" y="99.624174" style="stroke: #000000; stroke-width: 0.8"/>
      </g>
     </g>
     <g id="text_16">
      <!-- 45 -->
      <g transform="translate(58.73 104.183236) scale(0.12 -0.12)">
       <use xlink:href="#DejaVuSans-34"/>
       <use xlink:href="#DejaVuSans-35" x="63.623047"/>
      </g>
     </g>
    </g>
    <g id="ytick_8">
     <g id="line2d_16">
      <g>
       <use xlink:href="#m7ab1844177" x="81" y="67.7857" style="stroke: #000000; stroke-width: 0.8"/>
      </g>
     </g>
     <g id="text_17">
      <!-- 50 -->
      <g transform="translate(58.73 72.344763) scale(0.12 -0.12)">
       <use xlink:href="#DejaVuSans-35"/>
       <use xlink:href="#DejaVuSans-30" x="63.623047"/>
      </g>
     </g>
    </g>
    <g id="text_18">
     <!-- Total coral cover (%) -->
     <g transform="translate(51.610469 258.769922) rotate(-90) scale(0.15 -0.15)">
      <defs>
       <path id="DejaVuSans-54" d="M -19 4666 
L 3928 4666 
L 3928 4134 
L 2272 4134 
L 2272 0 
L 1638 0 
L 1638 4134 
L -19 4134 
L -19 4666 
z
" transform="scale(0.015625)"/>
       <path id="DejaVuSans-6f" d="M 1959 3097 
Q 1497 3097 1228 2736 
Q 959 2375 959 1747 
Q 959 1119 1226 758 
Q 1494 397 1959 397 
Q 2419 397 2687 759 
Q 2956 1122 2956 1747 
Q 2956 2369 2687 2733 
Q 2419 3097 1959 3097 
z
M 1959 3584 
Q 2709 3584 3137 3096 
Q 3566 2609 3566 1747 
Q 3566 888 3137 398 
Q 2709 -91 1959 -91 
Q 1206 -91 779 398 
Q 353 888 353 1747 
Q 353 2609 779 3096 
Q 1206 3584 1959 3584 
z
" transform="scale(0.015625)"/>
       <path id="DejaVuSans-74" d="M 1172 4494 
L 1172 3500 
L 2356 3500 
L 2356 3053 
L 1172 3053 
L 1172 1153 
Q 1172 725 1289 603 
Q 1406 481 1766 481 
L 2356 481 
L 2356 0 
L 1766 0 
Q 1100 0 847 248 
Q 594 497 594 1153 
L 594 3053 
L 172 3053 
L 172 3500 
L 594 3500 
L 594 4494 
L 1172 4494 
z
" transform="scale(0.015625)"/>
       <path id="DejaVuSans-6c" d="M 603 4863 
L 1178 4863 
L 1178 0 
L 603 0 
L 603 4863 
z
" transform="scale(0.015625)"/>
       <path id="DejaVuSans-20" transform="scale(0.015625)"/>
       <path id="DejaVuSans-63" d="M 3122 3366 
L 3122 2828 
Q 2878 2963 2633 3030 
Q 2388 3097 2138 3097 
Q 1578 3097 1268 2742 
Q 959 2388 959 1747 
Q 959 1106 1268 751 
Q 1578 397 2138 397 
Q 2388 397 2633 464 
Q 2878 531 3122 666 
L 3122 134 
Q 2881 22 2623 -34 
Q 2366 -91 2075 -91 
Q 1284 -91 818 406 
Q 353 903 353 1747 
Q 353 2603 823 3093 
Q 1294 3584 2113 3584 
Q 2378 3584 2631 3529 
Q 2884 3475 3122 3366 
z
" transform="scale(0.015625)"/>
       <path id="DejaVuSans-76" d="M 191 3500 
L 800 3500 
L 1894 563 
L 2988 3500 
L 3597 3500 
L 2284 0 
L 1503 0 
L 191 3500 
z
" transform="scale(0.015625)"/>
       <path id="DejaVuSans-28" d="M 1984 4856 
Q 1566 4138 1362 3434 
Q 1159 2731 1159 2009 
Q 1159 1288 1364 580 
Q 1569 -128 1984 -844 
L 1484 -844 
Q 1016 -109 783 600 
Q 550 1309 550 2009 
Q 550 2706 781 3412 
Q 1013 4119 1484 4856 
L 1984 4856 
z
" transform="scale(0.015625)"/>
       <path id="DejaVuSans-25" d="M 4653 2053 
Q 4381 2053 4226 1822 
Q 4072 1591 4072 1178 
Q 4072 772 4226 539 
Q 4381 306 4653 306 
Q 4919 306 5073 539 
Q 5228 772 5228 1178 
Q 5228 1588 5073 1820 
Q 4919 2053 4653 2053 
z
M 4653 2450 
Q 5147 2450 5437 2106 
Q 5728 1763 5728 1178 
Q 5728 594 5436 251 
Q 5144 -91 4653 -91 
Q 4153 -91 3862 251 
Q 3572 594 3572 1178 
Q 3572 1766 3864 2108 
Q 4156 2450 4653 2450 
z
M 1428 4353 
Q 1159 4353 1004 4120 
Q 850 3888 850 3481 
Q 850 3069 1003 2837 
Q 1156 2606 1428 2606 
Q 1700 2606 1854 2837 
Q 2009 3069 2009 3481 
Q 2009 3884 1853 4118 
Q 1697 4353 1428 4353 
z
M 4250 4750 
L 4750 4750 
L 1831 -91 
L 1331 -91 
L 4250 4750 
z
M 1428 4750 
Q 1922 4750 2215 4408 
Q 2509 4066 2509 3481 
Q 2509 2891 2217 2550 
Q 1925 2209 1428 2209 
Q 931 2209 642 2551 
Q 353 2894 353 3481 
Q 353 4063 643 4406 
Q 934 4750 1428 4750 
z
" transform="scale(0.015625)"/>
       <path id="DejaVuSans-29" d="M 513 4856 
L 1013 4856 
Q 1481 4119 1714 3412 
Q 1947 2706 1947 2009 
Q 1947 1309 1714 600 
Q 1481 -109 1013 -844 
L 513 -844 
Q 928 -128 1133 580 
Q 1338 1288 1338 2009 
Q 1338 2731 1133 3434 
Q 928 4138 513 4856 
z
" transform="scale(0.015625)"/>
      </defs>
      <use xlink:href="#DejaVuSans-54"/>
      <use xlink:href="#DejaVuSans-6f" x="44.083984"/>
      <use xlink:href="#DejaVuSans-74" x="105.265625"/>
      <use xlink:href="#DejaVuSans-61" x="144.474609"/>
      <use xlink:href="#DejaVuSans-6c" x="205.753906"/>
      <use xlink:href="#DejaVuSans-20" x="233.537109"/>
      <use xlink:href="#DejaVuSans-63" x="265.324219"/>
      <use xlink:href="#DejaVuSans-6f" x="320.304688"/>
      <use xlink:href="#DejaVuSans-72" x="381.486328"/>
      <use xlink:href="#DejaVuSans-61" x="422.599609"/>
      <use xlink:href="#DejaVuSans-6c" x="483.878906"/>
      <use xlink:href="#DejaVuSans-20" x="511.662109"/>
      <use xlink:href="#DejaVuSans-63" x="543.449219"/>
      <use xlink:href="#DejaVuSans-6f" x="598.429688"/>
      <use xlink:href="#DejaVuSans-76" x="659.611328"/>
      <use xlink:href="#DejaVuSans-65" x="718.791016"/>
      <use xlink:href="#DejaVuSans-72" x="780.314453"/>
      <use xlink:href="#DejaVuSans-20" x="821.427734"/>
      <use xlink:href="#DejaVuSans-28" x="853.214844"/>
      <use xlink:href="#DejaVuSans-25" x="892.228516"/>
      <use xlink:href="#DejaVuSans-29" x="987.248047"/>
     </g>
    </g>
   </g>
   <g id="line2d_17">
    <path d="M 103.827273 204.054368 
L 134.263636 204.012857 
L 164.7 305.910739 
L 195.136364 298.174676 
L 225.572727 288.653182 
L 256.009091 277.254274 
L 286.445455 263.569849 
L 316.881818 245.765668 
L 347.318182 224.191324 
L 377.754545 196.50846 
L 408.190909 169.133892 
L 438.627273 140.536856 
L 469.063636 112.511961 
L 499.5 86.425986 
L 529.936364 64.116237 
L 560.372727 168.954246 
" clip-path="url(#p0e41f7b461)" style="fill: none; stroke-dasharray: 3.7,1.6; stroke-dashoffset: 0; stroke: #1f77b4; stroke-opacity: 0.6"/>
   </g>
   <g id="line2d_18">
    <path d="M 103.827273 204.054368 
L 134.263636 204.312177 
L 164.7 306.84223 
L 195.136364 301.561508 
L 225.572727 293.352911 
L 256.009091 281.661646 
L 286.445455 268.880219 
L 316.881818 251.062598 
L 347.318182 230.116346 
L 377.754545 204.655771 
L 408.190909 174.422032 
L 438.627273 142.77811 
L 469.063636 113.443765 
L 499.5 86.967319 
L 529.936364 64.235413 
L 560.372727 169.872087 
" clip-path="url(#p0e41f7b461)" style="fill: none; stroke-dasharray: 3.7,1.6; stroke-dashoffset: 0; stroke: #ff7f0e; stroke-opacity: 0.6"/>
   </g>
   <g id="line2d_19">
    <path d="M 103.827273 204.054368 
L 134.263636 204.561486 
L 164.7 304.788088 
L 195.136364 299.76911 
L 225.572727 290.613227 
L 256.009091 280.59701 
L 286.445455 268.441743 
L 316.881818 252.071334 
L 347.318182 230.974198 
L 377.754545 205.504847 
L 408.190909 178.324505 
L 438.627273 149.496822 
L 469.063636 121.173962 
L 499.5 94.323349 
L 529.936364 71.245544 
L 560.372727 172.396618 
" clip-path="url(#p0e41f7b461)" style="fill: none; stroke-dasharray: 3.7,1.6; stroke-dashoffset: 0; stroke: #2ca02c; stroke-opacity: 0.6"/>
   </g>
   <g id="line2d_20">
    <path d="M 103.827273 204.054368 
L 134.263636 203.058632 
L 164.7 303.526996 
L 195.136364 296.447251 
L 225.572727 287.44809 
L 256.009091 276.090969 
L 286.445455 260.903342 
L 316.881818 239.672984 
L 347.318182 215.411099 
L 377.754545 188.943434 
L 408.190909 161.148904 
L 438.627273 132.640171 
L 469.063636 104.930075 
L 499.5 80.779923 
L 529.936364 59.762589 
L 560.372727 166.547305 
" clip-path="url(#p0e41f7b461)" style="fill: none; stroke-dasharray: 3.7,1.6; stroke-dashoffset: 0; stroke: #d62728; stroke-opacity: 0.6"/>
   </g>
   <g id="line2d_21">
    <path d="M 103.827273 204.054368 
L 134.263636 203.998666 
L 164.7 304.370004 
L 195.136364 298.689236 
L 225.572727 291.371931 
L 256.009091 279.533401 
L 286.445455 265.106369 
L 316.881818 246.888588 
L 347.318182 227.203343 
L 377.754545 202.956482 
L 408.190909 176.1037 
L 438.627273 147.999261 
L 469.063636 118.846019 
L 499.5 91.829284 
L 529.936364 69.560863 
L 560.372727 171.02592 
" clip-path="url(#p0e41f7b461)" style="fill: none; stroke-dasharray: 3.7,1.6; stroke-dashoffset: 0; stroke: #9467bd; stroke-opacity: 0.6"/>
   </g>
   <g id="line2d_22">
    <path d="M 103.827273 204.054368 
L 134.263636 203.312567 
L 164.7 303.114739 
L 195.136364 296.198063 
L 225.572727 288.981023 
L 256.009091 278.537759 
L 286.445455 265.440579 
L 316.881818 247.252508 
L 347.318182 227.321756 
L 377.754545 203.432566 
L 408.190909 175.846564 
L 438.627273 147.113865 
L 469.063636 118.324874 
L 499.5 92.87464 
L 529.936364 69.157039 
L 560.372727 171.121443 
" clip-path="url(#p0e41f7b461)" style="fill: none; stroke-dasharray: 3.7,1.6; stroke-dashoffset: 0; stroke: #8c564b; stroke-opacity: 0.6"/>
   </g>
   <g id="line2d_23">
    <path d="M 103.827273 204.054368 
L 134.263636 203.349326 
L 164.7 304.634654 
L 195.136364 296.934614 
L 225.572727 285.374982 
L 256.009091 274.286707 
L 286.445455 259.23405 
L 316.881818 240.356073 
L 347.318182 216.647975 
L 377.754545 190.469097 
L 408.190909 160.071617 
L 438.627273 130.578803 
L 469.063636 101.80957 
L 499.5 76.702491 
L 529.936364 55.8 
L 560.372727 164.11167 
" clip-path="url(#p0e41f7b461)" style="fill: none; stroke-dasharray: 3.7,1.6; stroke-dashoffset: 0; stroke: #e377c2; stroke-opacity: 0.6"/>
   </g>
   <g id="line2d_24">
    <path d="M 103.827273 204.054368 
L 134.263636 203.444473 
L 164.7 302.52552 
L 195.136364 296.84421 
L 225.572727 287.629733 
L 256.009091 278.831672 
L 286.445455 265.169484 
L 316.881818 248.872938 
L 347.318182 227.99798 
L 377.754545 203.998469 
L 408.190909 177.019097 
L 438.627273 148.829772 
L 469.063636 120.301002 
L 499.5 94.306247 
L 529.936364 70.311516 
L 560.372727 171.506033 
" clip-path="url(#p0e41f7b461)" style="fill: none; stroke-dasharray: 3.7,1.6; stroke-dashoffset: 0; stroke: #7f7f7f; stroke-opacity: 0.6"/>
   </g>
   <g id="line2d_25">
    <path d="M 103.827273 204.054368 
L 134.263636 202.816888 
L 164.7 305.505556 
L 195.136364 299.890371 
L 225.572727 293.370036 
L 256.009091 284.425358 
L 286.445455 271.630553 
L 316.881818 254.234988 
L 347.318182 233.991131 
L 377.754545 210.224844 
L 408.190909 183.678985 
L 438.627273 155.268472 
L 469.063636 126.446141 
L 499.5 100.373551 
L 529.936364 76.916047 
L 560.372727 175.430456 
" clip-path="url(#p0e41f7b461)" style="fill: none; stroke-dasharray: 3.7,1.6; stroke-dashoffset: 0; stroke: #bcbd22; stroke-opacity: 0.6"/>
   </g>
   <g id="line2d_26">
    <path d="M 103.827273 204.054368 
L 134.263636 203.760797 
L 164.7 305.714039 
L 195.136364 299.919049 
L 225.572727 290.694726 
L 256.009091 281.329021 
L 286.445455 268.980847 
L 316.881818 251.850874 
L 347.318182 229.748164 
L 377.754545 203.833418 
L 408.190909 177.133714 
L 438.627273 148.818355 
L 469.063636 118.328985 
L 499.5 92.60727 
L 529.936364 69.888672 
L 560.372727 171.901501 
" clip-path="url(#p0e41f7b461)" style="fill: none; stroke-dasharray: 3.7,1.6; stroke-dashoffset: 0; stroke: #17becf; stroke-opacity: 0.6"/>
   </g>
   <g id="line2d_27">
    <path d="M 103.827273 204.054368 
L 134.263636 204.565862 
L 164.7 305.47056 
L 195.136364 300.752362 
L 225.572727 293.791771 
L 256.009091 284.390477 
L 286.445455 270.286107 
L 316.881818 253.817099 
L 347.318182 234.122757 
L 377.754545 210.358305 
L 408.190909 185.27933 
L 438.627273 157.918844 
L 469.063636 128.836157 
L 499.5 101.643889 
L 529.936364 77.684985 
L 560.372727 175.450773 
" clip-path="url(#p0e41f7b461)" style="fill: none; stroke-dasharray: 3.7,1.6; stroke-dashoffset: 0; stroke: #1f77b4; stroke-opacity: 0.6"/>
   </g>
   <g id="line2d_28">
    <path d="M 103.827273 204.054368 
L 134.263636 204.151577 
L 164.7 305.681228 
L 195.136364 300.662794 
L 225.572727 292.265452 
L 256.009091 282.700268 
L 286.445455 267.568168 
L 316.881818 251.398625 
L 347.318182 231.408222 
L 377.754545 204.897682 
L 408.190909 176.293073 
L 438.627273 146.962993 
L 469.063636 118.65837 
L 499.5 92.409438 
L 529.936364 68.627659 
L 560.372727 171.979269 
" clip-path="url(#p0e41f7b461)" style="fill: none; stroke-dasharray: 3.7,1.6; stroke-dashoffset: 0; stroke: #ff7f0e; stroke-opacity: 0.6"/>
   </g>
   <g id="line2d_29">
    <path d="M 103.827273 204.054368 
L 134.263636 204.374379 
L 164.7 305.012291 
L 195.136364 299.645182 
L 225.572727 292.147468 
L 256.009091 281.035179 
L 286.445455 266.96118 
L 316.881818 248.830132 
L 347.318182 228.934221 
L 377.754545 204.683318 
L 408.190909 174.654897 
L 438.627273 146.082145 
L 469.063636 117.561857 
L 499.5 91.521622 
L 529.936364 68.238228 
L 560.372727 171.671822 
" clip-path="url(#p0e41f7b461)" style="fill: none; stroke-dasharray: 3.7,1.6; stroke-dashoffset: 0; stroke: #2ca02c; stroke-opacity: 0.6"/>
   </g>
   <g id="line2d_30">
    <path d="M 103.827273 204.054368 
L 134.263636 204.119382 
L 164.7 304.005589 
L 195.136364 297.758523 
L 225.572727 289.6668 
L 256.009091 279.641175 
L 286.445455 267.870104 
L 316.881818 250.948751 
L 347.318182 230.457664 
L 377.754545 206.861082 
L 408.190909 181.262054 
L 438.627273 154.419845 
L 469.063636 126.244603 
L 499.5 99.717814 
L 529.936364 77.478658 
L 560.372727 174.273309 
" clip-path="url(#p0e41f7b461)" style="fill: none; stroke-dasharray: 3.7,1.6; stroke-dashoffset: 0; stroke: #d62728; stroke-opacity: 0.6"/>
   </g>
   <g id="line2d_31">
    <path d="M 103.827273 204.054368 
L 134.263636 201.899985 
L 164.7 304.414299 
L 195.136364 299.302395 
L 225.572727 292.07506 
L 256.009091 281.675499 
L 286.445455 269.351515 
L 316.881818 253.679671 
L 347.318182 234.421249 
L 377.754545 209.450733 
L 408.190909 180.058187 
L 438.627273 151.362856 
L 469.063636 121.612875 
L 499.5 94.787743 
L 529.936364 71.141901 
L 560.372727 172.98982 
" clip-path="url(#p0e41f7b461)" style="fill: none; stroke-dasharray: 3.7,1.6; stroke-dashoffset: 0; stroke: #9467bd; stroke-opacity: 0.6"/>
   </g>
   <g id="line2d_32">
    <path d="M 103.827273 204.054368 
L 134.263636 202.45274 
L 164.7 301.822178 
L 195.136364 295.900066 
L 225.572727 287.618989 
L 256.009091 278.106011 
L 286.445455 265.267771 
L 316.881818 247.154288 
L 347.318182 227.102243 
L 377.754545 202.20139 
L 408.190909 173.686915 
L 438.627273 144.063084 
L 469.063636 115.683715 
L 499.5 89.689547 
L 529.936364 66.674583 
L 560.372727 170.185473 
" clip-path="url(#p0e41f7b461)" style="fill: none; stroke-dasharray: 3.7,1.6; stroke-dashoffset: 0; stroke: #8c564b; stroke-opacity: 0.6"/>
   </g>
   <g id="line2d_33">
    <path d="M 103.827273 204.054368 
L 134.263636 203.764298 
L 164.7 305.784493 
L 195.136364 300.196534 
L 225.572727 293.897695 
L 256.009091 284.411692 
L 286.445455 272.099407 
L 316.881818 256.961773 
L 347.318182 237.987115 
L 377.754545 213.067457 
L 408.190909 185.609941 
L 438.627273 156.228342 
L 469.063636 126.242909 
L 499.5 99.227967 
L 529.936364 75.537884 
L 560.372727 175.605684 
" clip-path="url(#p0e41f7b461)" style="fill: none; stroke-dasharray: 3.7,1.6; stroke-dashoffset: 0; stroke: #e377c2; stroke-opacity: 0.6"/>
   </g>
   <g id="line2d_34">
    <path d="M 103.827273 204.054368 
L 134.263636 204.469464 
L 164.7 301.368671 
L 195.136364 295.310022 
L 225.572727 286.667924 
L 256.009091 272.897027 
L 286.445455 257.46397 
L 316.881818 240.418807 
L 347.318182 217.887569 
L 377.754545 192.344417 
L 408.190909 165.338774 
L 438.627273 137.765707 
L 469.063636 110.724432 
L 499.5 86.653345 
L 529.936364 65.306219 
L 560.372727 169.156668 
" clip-path="url(#p0e41f7b461)" style="fill: none; stroke-dasharray: 3.7,1.6; stroke-dashoffset: 0; stroke: #7f7f7f; stroke-opacity: 0.6"/>
   </g>
   <g id="line2d_35">
    <path d="M 103.827273 204.054368 
L 134.263636 203.874762 
L 164.7 305.354064 
L 195.136364 297.322196 
L 225.572727 288.680728 
L 256.009091 277.914938 
L 286.445455 264.119891 
L 316.881818 245.27939 
L 347.318182 223.944754 
L 377.754545 199.112433 
L 408.190909 170.021416 
L 438.627273 141.212695 
L 469.063636 113.51061 
L 499.5 88.216702 
L 529.936364 66.440329 
L 560.372727 170.118957 
" clip-path="url(#p0e41f7b461)" style="fill: none; stroke-dasharray: 3.7,1.6; stroke-dashoffset: 0; stroke: #bcbd22; stroke-opacity: 0.6"/>
   </g>
   <g id="line2d_36">
    <path d="M 103.827273 204.054368 
L 134.263636 204.343372 
L 164.7 306.65118 
L 195.136364 301.258978 
L 225.572727 292.462209 
L 256.009091 283.652776 
L 286.445455 271.83438 
L 316.881818 256.602486 
L 347.318182 237.350365 
L 377.754545 214.373088 
L 408.190909 187.441241 
L 438.627273 159.025063 
L 469.063636 129.660507 
L 499.5 102.016481 
L 529.936364 77.576858 
L 560.372727 177.207123 
" clip-path="url(#p0e41f7b461)" style="fill: none; stroke-dasharray: 3.7,1.6; stroke-dashoffset: 0; stroke: #17becf; stroke-opacity: 0.6"/>
   </g>
   <g id="line2d_37">
    <path d="M 103.827273 204.054368 
L 134.263636 204.910005 
L 164.7 304.809357 
L 195.136364 298.598711 
L 225.572727 289.021907 
L 256.009091 278.711306 
L 286.445455 263.837675 
L 316.881818 246.717508 
L 347.318182 226.352899 
L 377.754545 200.557487 
L 408.190909 173.717764 
L 438.627273 145.522659 
L 469.063636 117.063567 
L 499.5 91.523838 
L 529.936364 69.559788 
L 560.372727 170.78874 
" clip-path="url(#p0e41f7b461)" style="fill: none; stroke-dasharray: 3.7,1.6; stroke-dashoffset: 0; stroke: #1f77b4; stroke-opacity: 0.6"/>
   </g>
   <g id="line2d_38">
    <path d="M 103.827273 204.054368 
L 134.263636 203.382584 
L 164.7 304.363774 
L 195.136364 299.362308 
L 225.572727 291.217328 
L 256.009091 280.315056 
L 286.445455 267.929958 
L 316.881818 249.263075 
L 347.318182 228.766543 
L 377.754545 203.273902 
L 408.190909 174.275261 
L 438.627273 144.784429 
L 469.063636 116.317565 
L 499.5 89.839654 
L 529.936364 66.39313 
L 560.372727 169.802258 
" clip-path="url(#p0e41f7b461)" style="fill: none; stroke-dasharray: 3.7,1.6; stroke-dashoffset: 0; stroke: #ff7f0e; stroke-opacity: 0.6"/>
   </g>
   <g id="line2d_39">
    <path d="M 103.827273 204.054368 
L 134.263636 203.971222 
L 164.7 304.588184 
L 195.136364 298.364549 
L 225.572727 289.682754 
L 256.009091 278.529768 
L 286.445455 264.928753 
L 316.881818 246.144718 
L 347.318182 222.916272 
L 377.754545 198.04687 
L 408.190909 169.952389 
L 438.627273 141.345299 
L 469.063636 113.511602 
L 499.5 87.006931 
L 529.936364 64.623329 
L 560.372727 168.93968 
" clip-path="url(#p0e41f7b461)" style="fill: none; stroke-dasharray: 3.7,1.6; stroke-dashoffset: 0; stroke: #2ca02c; stroke-opacity: 0.6"/>
   </g>
   <g id="line2d_40">
    <path d="M 103.827273 204.054368 
L 134.263636 204.624375 
L 164.7 306.051376 
L 195.136364 297.263328 
L 225.572727 289.27478 
L 256.009091 277.21014 
L 286.445455 262.892122 
L 316.881818 244.805807 
L 347.318182 221.646213 
L 377.754545 195.827532 
L 408.190909 167.29181 
L 438.627273 138.358381 
L 469.063636 109.20719 
L 499.5 84.713359 
L 529.936364 62.708204 
L 560.372727 167.746962 
" clip-path="url(#p0e41f7b461)" style="fill: none; stroke-dasharray: 3.7,1.6; stroke-dashoffset: 0; stroke: #d62728; stroke-opacity: 0.6"/>
   </g>
   <g id="line2d_41">
    <path d="M 103.827273 204.054368 
L 134.263636 202.980239 
L 164.7 303.268571 
L 195.136364 296.688383 
L 225.572727 289.299235 
L 256.009091 279.910994 
L 286.445455 267.216873 
L 316.881818 252.202979 
L 347.318182 233.410098 
L 377.754545 210.498374 
L 408.190909 182.225967 
L 438.627273 155.934995 
L 469.063636 128.213539 
L 499.5 102.802235 
L 529.936364 79.180942 
L 560.372727 176.350047 
" clip-path="url(#p0e41f7b461)" style="fill: none; stroke-dasharray: 3.7,1.6; stroke-dashoffset: 0; stroke: #9467bd; stroke-opacity: 0.6"/>
   </g>
   <g id="line2d_42">
    <path d="M 103.827273 204.054368 
L 134.263636 204.21653 
L 164.7 303.956127 
L 195.136364 298.329216 
L 225.572727 289.426647 
L 256.009091 278.321634 
L 286.445455 263.71577 
L 316.881818 244.199341 
L 347.318182 221.13639 
L 377.754545 197.748478 
L 408.190909 172.418049 
L 438.627273 143.825409 
L 469.063636 116.949298 
L 499.5 92.113925 
L 529.936364 69.373191 
L 560.372727 169.837516 
" clip-path="url(#p0e41f7b461)" style="fill: none; stroke-dasharray: 3.7,1.6; stroke-dashoffset: 0; stroke: #8c564b; stroke-opacity: 0.6"/>
   </g>
   <g id="line2d_43">
    <path d="M 103.827273 204.054368 
L 134.263636 203.928399 
L 164.7 304.577437 
L 195.136364 300.261379 
L 225.572727 293.40162 
L 256.009091 282.732584 
L 286.445455 268.972371 
L 316.881818 252.28165 
L 347.318182 231.817312 
L 377.754545 208.060258 
L 408.190909 181.280483 
L 438.627273 151.687096 
L 469.063636 123.098834 
L 499.5 96.683092 
L 529.936364 73.266188 
L 560.372727 173.511067 
" clip-path="url(#p0e41f7b461)" style="fill: none; stroke-dasharray: 3.7,1.6; stroke-dashoffset: 0; stroke: #e377c2; stroke-opacity: 0.6"/>
   </g>
   <g id="line2d_44">
    <path d="M 103.827273 204.054368 
L 134.263636 203.914959 
L 164.7 306.012839 
L 195.136364 299.407081 
L 225.572727 291.018141 
L 256.009091 278.529047 
L 286.445455 262.184071 
L 316.881818 243.7313 
L 347.318182 220.414803 
L 377.754545 192.393166 
L 408.190909 160.927054 
L 438.627273 131.873324 
L 469.063636 103.856615 
L 499.5 78.489974 
L 529.936364 57.371977 
L 560.372727 165.614961 
" clip-path="url(#p0e41f7b461)" style="fill: none; stroke-dasharray: 3.7,1.6; stroke-dashoffset: 0; stroke: #7f7f7f; stroke-opacity: 0.6"/>
   </g>
   <g id="line2d_45">
    <path d="M 103.827273 204.054368 
L 134.263636 204.895189 
L 164.7 307.8 
L 195.136364 302.793279 
L 225.572727 293.762315 
L 256.009091 284.075621 
L 286.445455 269.205321 
L 316.881818 250.169716 
L 347.318182 227.969079 
L 377.754545 203.510746 
L 408.190909 175.341242 
L 438.627273 145.384931 
L 469.063636 116.79717 
L 499.5 89.661099 
L 529.936364 66.040286 
L 560.372727 169.893217 
" clip-path="url(#p0e41f7b461)" style="fill: none; stroke-dasharray: 3.7,1.6; stroke-dashoffset: 0; stroke: #bcbd22; stroke-opacity: 0.6"/>
   </g>
   <g id="line2d_46">
    <path d="M 103.827273 204.054368 
L 134.263636 203.474105 
L 164.7 305.496903 
L 195.136364 299.844694 
L 225.572727 289.659556 
L 256.009091 280.76818 
L 286.445455 266.1473 
L 316.881818 250.087919 
L 347.318182 230.241823 
L 377.754545 205.290592 
L 408.190909 177.592939 
L 438.627273 147.541665 
L 469.063636 118.479848 
L 499.5 92.001489 
L 529.936364 69.156713 
L 560.372727 170.907517 
" clip-path="url(#p0e41f7b461)" style="fill: none; stroke-dasharray: 3.7,1.6; stroke-dashoffset: 0; stroke: #17becf; stroke-opacity: 0.6"/>
   </g>
   <g id="line2d_47">
    <path d="M 103.827273 204.054368 
L 134.263636 204.046302 
L 164.7 306.413853 
L 195.136364 299.725037 
L 225.572727 293.24 
L 256.009091 284.868192 
L 286.445455 271.073676 
L 316.881818 254.506884 
L 347.318182 234.832263 
L 377.754545 209.967297 
L 408.190909 183.177873 
L 438.627273 154.540806 
L 469.063636 125.478405 
L 499.5 97.152489 
L 529.936364 72.907942 
L 560.372727 174.553937 
" clip-path="url(#p0e41f7b461)" style="fill: none; stroke-dasharray: 3.7,1.6; stroke-dashoffset: 0; stroke: #1f77b4; stroke-opacity: 0.6"/>
   </g>
   <g id="line2d_48">
    <path d="M 103.827273 204.054368 
L 134.263636 204.74803 
L 164.7 307.065535 
L 195.136364 302.180653 
L 225.572727 295.712548 
L 256.009091 287.281377 
L 286.445455 275.142379 
L 316.881818 261.271771 
L 347.318182 240.811339 
L 377.754545 217.748682 
L 408.190909 190.996606 
L 438.627273 163.503426 
L 469.063636 134.239625 
L 499.5 105.813329 
L 529.936364 80.711866 
L 560.372727 178.657652 
" clip-path="url(#p0e41f7b461)" style="fill: none; stroke-dasharray: 3.7,1.6; stroke-dashoffset: 0; stroke: #ff7f0e; stroke-opacity: 0.6"/>
   </g>
   <g id="line2d_49">
    <path d="M 103.827273 204.054368 
L 134.263636 204.790039 
L 164.7 305.716837 
L 195.136364 300.49658 
L 225.572727 291.830707 
L 256.009091 279.616502 
L 286.445455 265.630718 
L 316.881818 247.085447 
L 347.318182 224.58715 
L 377.754545 199.657272 
L 408.190909 172.568467 
L 438.627273 143.242344 
L 469.063636 113.576926 
L 499.5 87.755573 
L 529.936364 66.025991 
L 560.372727 169.55645 
" clip-path="url(#p0e41f7b461)" style="fill: none; stroke-dasharray: 3.7,1.6; stroke-dashoffset: 0; stroke: #2ca02c; stroke-opacity: 0.6"/>
   </g>
   <g id="line2d_50">
    <path d="M 103.827273 204.054368 
L 134.263636 204.145075 
L 164.7 306.137837 
L 195.136364 300.919181 
L 225.572727 293.313374 
L 256.009091 282.875151 
L 286.445455 268.715255 
L 316.881818 251.692562 
L 347.318182 230.412122 
L 377.754545 202.221264 
L 408.190909 172.81283 
L 438.627273 143.318179 
L 469.063636 114.607115 
L 499.5 87.554881 
L 529.936364 65.156604 
L 560.372727 170.918458 
" clip-path="url(#p0e41f7b461)" style="fill: none; stroke-dasharray: 3.7,1.6; stroke-dashoffset: 0; stroke: #d62728; stroke-opacity: 0.6"/>
   </g>
   <g id="line2d_51">
    <path d="M 103.827273 204.054368 
L 134.263636 204.678826 
L 164.7 306.079813 
L 195.136364 300.437621 
L 225.572727 292.08314 
L 256.009091 280.57427 
L 286.445455 265.29977 
L 316.881818 246.377675 
L 347.318182 221.760064 
L 377.754545 194.994342 
L 408.190909 165.907846 
L 438.627273 135.589371 
L 469.063636 107.62089 
L 499.5 82.578946 
L 529.936364 60.899417 
L 560.372727 167.633748 
" clip-path="url(#p0e41f7b461)" style="fill: none; stroke-dasharray: 3.7,1.6; stroke-dashoffset: 0; stroke: #9467bd; stroke-opacity: 0.6"/>
   </g>
   <g id="line2d_52">
    <path d="M 103.827273 204.054368 
L 134.263636 204.339496 
L 164.7 305.64982 
L 195.136364 298.855221 
L 225.572727 292.070625 
L 256.009091 283.283988 
L 286.445455 272.375681 
L 316.881818 258.160982 
L 347.318182 238.636373 
L 377.754545 216.466699 
L 408.190909 190.315066 
L 438.627273 160.131292 
L 469.063636 130.631853 
L 499.5 102.471259 
L 529.936364 78.65307 
L 560.372727 177.130293 
" clip-path="url(#p0e41f7b461)" style="fill: none; stroke-dasharray: 3.7,1.6; stroke-dashoffset: 0; stroke: #8c564b; stroke-opacity: 0.6"/>
   </g>
   <g id="line2d_53">
    <path d="M 103.827273 204.054368 
L 134.263636 203.432283 
L 164.7 301.87862 
L 195.136364 296.460276 
L 225.572727 286.859837 
L 256.009091 276.858549 
L 286.445455 263.919573 
L 316.881818 244.209459 
L 347.318182 224.286504 
L 377.754545 200.699309 
L 408.190909 174.729712 
L 438.627273 147.266669 
L 469.063636 119.761755 
L 499.5 93.859841 
L 529.936364 70.584788 
L 560.372727 171.831922 
" clip-path="url(#p0e41f7b461)" style="fill: none; stroke-dasharray: 3.7,1.6; stroke-dashoffset: 0; stroke: #e377c2; stroke-opacity: 0.6"/>
   </g>
   <g id="line2d_54">
    <path d="M 103.827273 204.054368 
L 134.263636 203.880326 
L 164.7 305.03005 
L 195.136364 297.659228 
L 225.572727 289.718909 
L 256.009091 278.826919 
L 286.445455 265.512954 
L 316.881818 249.427892 
L 347.318182 226.937688 
L 377.754545 203.659457 
L 408.190909 176.655887 
L 438.627273 148.828434 
L 469.063636 121.532602 
L 499.5 94.909722 
L 529.936364 71.853936 
L 560.372727 172.414497 
" clip-path="url(#p0e41f7b461)" style="fill: none; stroke-dasharray: 3.7,1.6; stroke-dashoffset: 0; stroke: #7f7f7f; stroke-opacity: 0.6"/>
   </g>
   <g id="line2d_55">
    <path d="M 103.827273 204.054368 
L 134.263636 203.226734 
L 164.7 304.654926 
L 195.136364 299.244735 
L 225.572727 292.031249 
L 256.009091 281.932611 
L 286.445455 268.953188 
L 316.881818 251.57023 
L 347.318182 230.325927 
L 377.754545 206.746018 
L 408.190909 178.129726 
L 438.627273 149.642556 
L 469.063636 121.331692 
L 499.5 94.291523 
L 529.936364 71.338571 
L 560.372727 172.867541 
" clip-path="url(#p0e41f7b461)" style="fill: none; stroke-dasharray: 3.7,1.6; stroke-dashoffset: 0; stroke: #bcbd22; stroke-opacity: 0.6"/>
   </g>
   <g id="line2d_56">
    <path d="M 103.827273 204.054368 
L 134.263636 203.68628 
L 164.7 304.933929 
L 195.136364 298.919579 
L 225.572727 289.546089 
L 256.009091 276.60264 
L 286.445455 261.175546 
L 316.881818 240.854979 
L 347.318182 216.534998 
L 377.754545 191.128533 
L 408.190909 162.680777 
L 438.627273 132.834524 
L 469.063636 104.541892 
L 499.5 80.073874 
L 529.936364 59.435324 
L 560.372727 166.272678 
" clip-path="url(#p0e41f7b461)" style="fill: none; stroke-dasharray: 3.7,1.6; stroke-dashoffset: 0; stroke: #17becf; stroke-opacity: 0.6"/>
   </g>
   <g id="line2d_57">
    <path d="M 103.827273 204.054368 
L 134.263636 202.695172 
L 164.7 301.712994 
L 195.136364 296.856465 
L 225.572727 288.280248 
L 256.009091 278.322515 
L 286.445455 266.223043 
L 316.881818 248.045206 
L 347.318182 228.336055 
L 377.754545 204.857961 
L 408.190909 179.932246 
L 438.627273 150.797306 
L 469.063636 123.932783 
L 499.5 97.573741 
L 529.936364 73.863649 
L 560.372727 171.91663 
" clip-path="url(#p0e41f7b461)" style="fill: none; stroke-dasharray: 3.7,1.6; stroke-dashoffset: 0; stroke: #1f77b4; stroke-opacity: 0.6"/>
   </g>
   <g id="line2d_58">
    <path d="M 103.827273 204.054368 
L 134.263636 203.152905 
L 164.7 304.540471 
L 195.136364 297.606014 
L 225.572727 289.359863 
L 256.009091 279.631652 
L 286.445455 263.987559 
L 316.881818 248.307518 
L 347.318182 225.926147 
L 377.754545 202.244337 
L 408.190909 173.867857 
L 438.627273 147.196831 
L 469.063636 119.663746 
L 499.5 92.6886 
L 529.936364 70.510786 
L 560.372727 171.043049 
" clip-path="url(#p0e41f7b461)" style="fill: none; stroke-dasharray: 3.7,1.6; stroke-dashoffset: 0; stroke: #ff7f0e; stroke-opacity: 0.6"/>
   </g>
   <g id="line2d_59">
    <path d="M 103.827273 204.054368 
L 134.263636 202.851084 
L 164.7 306.166645 
L 195.136364 300.386946 
L 225.572727 294.075309 
L 256.009091 284.037812 
L 286.445455 273.3704 
L 316.881818 259.382346 
L 347.318182 240.397924 
L 377.754545 218.453668 
L 408.190909 190.022704 
L 438.627273 159.790953 
L 469.063636 132.032345 
L 499.5 105.675868 
L 529.936364 81.590582 
L 560.372727 177.854526 
" clip-path="url(#p0e41f7b461)" style="fill: none; stroke-dasharray: 3.7,1.6; stroke-dashoffset: 0; stroke: #2ca02c; stroke-opacity: 0.6"/>
   </g>
   <g id="line2d_60">
    <path d="M 103.827273 204.054368 
L 134.263636 204.293048 
L 164.7 306.025353 
L 195.136364 301.51495 
L 225.572727 294.582074 
L 256.009091 286.171244 
L 286.445455 274.445072 
L 316.881818 257.576522 
L 347.318182 238.62522 
L 377.754545 214.835556 
L 408.190909 187.051603 
L 438.627273 156.875945 
L 469.063636 127.506567 
L 499.5 99.770084 
L 529.936364 74.453727 
L 560.372727 175.792853 
" clip-path="url(#p0e41f7b461)" style="fill: none; stroke-dasharray: 3.7,1.6; stroke-dashoffset: 0; stroke: #d62728; stroke-opacity: 0.6"/>
   </g>
   <g id="line2d_61">
    <path d="M 103.827273 204.054368 
L 134.263636 204.358375 
L 164.7 306.563095 
L 195.136364 301.678534 
L 225.572727 294.935572 
L 256.009091 284.862094 
L 286.445455 272.726391 
L 316.881818 254.37851 
L 347.318182 232.947794 
L 377.754545 209.206444 
L 408.190909 180.518686 
L 438.627273 151.175522 
L 469.063636 121.517147 
L 499.5 96.313845 
L 529.936364 72.362415 
L 560.372727 173.010637 
" clip-path="url(#p0e41f7b461)" style="fill: none; stroke-dasharray: 3.7,1.6; stroke-dashoffset: 0; stroke: #9467bd; stroke-opacity: 0.6"/>
   </g>
   <g id="line2d_62">
    <path d="M 103.827273 204.054368 
L 134.263636 202.971237 
L 164.7 302.824655 
L 195.136364 296.964243 
L 225.572727 288.556361 
L 256.009091 279.014737 
L 286.445455 266.392534 
L 316.881818 249.837706 
L 347.318182 231.373484 
L 377.754545 208.451735 
L 408.190909 182.82922 
L 438.627273 153.472304 
L 469.063636 123.640894 
L 499.5 96.162484 
L 529.936364 72.892209 
L 560.372727 172.750888 
" clip-path="url(#p0e41f7b461)" style="fill: none; stroke-dasharray: 3.7,1.6; stroke-dashoffset: 0; stroke: #8c564b; stroke-opacity: 0.6"/>
   </g>
   <g id="line2d_63">
    <path d="M 103.827273 204.054368 
L 134.263636 202.492562 
L 164.7 300.454538 
L 195.136364 295.326249 
L 225.572727 288.139259 
L 256.009091 279.000709 
L 286.445455 264.786417 
L 316.881818 249.312441 
L 347.318182 230.54507 
L 377.754545 206.59082 
L 408.190909 179.424168 
L 438.627273 151.363157 
L 469.063636 124.047849 
L 499.5 96.847153 
L 529.936364 72.917701 
L 560.372727 172.739636 
" clip-path="url(#p0e41f7b461)" style="fill: none; stroke-dasharray: 3.7,1.6; stroke-dashoffset: 0; stroke: #e377c2; stroke-opacity: 0.6"/>
   </g>
   <g id="line2d_64">
    <path d="M 103.827273 204.054368 
L 134.263636 203.989164 
L 164.7 303.081514 
L 195.136364 298.133104 
L 225.572727 292.072484 
L 256.009091 280.945601 
L 286.445455 269.699048 
L 316.881818 255.382194 
L 347.318182 236.078975 
L 377.754545 212.723457 
L 408.190909 187.627149 
L 438.627273 160.451793 
L 469.063636 132.829607 
L 499.5 106.237037 
L 529.936364 82.141959 
L 560.372727 178.199169 
" clip-path="url(#p0e41f7b461)" style="fill: none; stroke-dasharray: 3.7,1.6; stroke-dashoffset: 0; stroke: #7f7f7f; stroke-opacity: 0.6"/>
   </g>
   <g id="line2d_65">
    <path d="M 103.827273 204.054368 
L 134.263636 203.03619 
L 164.7 305.366494 
L 195.136364 299.427573 
L 225.572727 290.791055 
L 256.009091 280.215706 
L 286.445455 267.566067 
L 316.881818 249.663403 
L 347.318182 229.228777 
L 377.754545 203.071108 
L 408.190909 176.181572 
L 438.627273 146.712008 
L 469.063636 117.240288 
L 499.5 90.838763 
L 529.936364 67.389366 
L 560.372727 171.002227 
" clip-path="url(#p0e41f7b461)" style="fill: none; stroke-dasharray: 3.7,1.6; stroke-dashoffset: 0; stroke: #bcbd22; stroke-opacity: 0.6"/>
   </g>
   <g id="line2d_66">
    <path d="M 103.827273 204.054368 
L 134.263636 204.838613 
L 164.7 306.415995 
L 195.136364 299.308997 
L 225.572727 291.82207 
L 256.009091 281.797772 
L 286.445455 270.254373 
L 316.881818 253.835695 
L 347.318182 233.229659 
L 377.754545 211.049961 
L 408.190909 184.123404 
L 438.627273 156.549742 
L 469.063636 128.333579 
L 499.5 101.653042 
L 529.936364 77.99654 
L 560.372727 176.111678 
" clip-path="url(#p0e41f7b461)" style="fill: none; stroke-dasharray: 3.7,1.6; stroke-dashoffset: 0; stroke: #17becf; stroke-opacity: 0.6"/>
   </g>
   <g id="line2d_67">
    <path d="M 103.827273 204.054368 
L 134.263636 203.859321 
L 164.7 306.354114 
L 195.136364 300.615353 
L 225.572727 289.625583 
L 256.009091 278.806838 
L 286.445455 263.523084 
L 316.881818 245.688136 
L 347.318182 224.751707 
L 377.754545 199.737804 
L 408.190909 172.033252 
L 438.627273 141.770406 
L 469.063636 114.133574 
L 499.5 88.280715 
L 529.936364 65.726766 
L 560.372727 169.86546 
" clip-path="url(#p0e41f7b461)" style="fill: none; stroke-dasharray: 3.7,1.6; stroke-dashoffset: 0; stroke: #1f77b4; stroke-opacity: 0.6"/>
   </g>
   <g id="line2d_68">
    <path d="M 103.827273 204.054368 
L 134.263636 203.333384 
L 164.7 302.38344 
L 195.136364 295.46475 
L 225.572727 285.771226 
L 256.009091 275.035396 
L 286.445455 261.035072 
L 316.881818 242.794657 
L 347.318182 219.271494 
L 377.754545 193.225646 
L 408.190909 164.299102 
L 438.627273 134.749939 
L 469.063636 105.015176 
L 499.5 81.187238 
L 529.936364 60.177689 
L 560.372727 166.41815 
" clip-path="url(#p0e41f7b461)" style="fill: none; stroke-dasharray: 3.7,1.6; stroke-dashoffset: 0; stroke: #ff7f0e; stroke-opacity: 0.6"/>
   </g>
   <g id="line2d_69">
    <path d="M 103.827273 204.054368 
L 134.263636 204.260915 
L 164.7 305.971157 
L 195.136364 300.376576 
L 225.572727 292.933085 
L 256.009091 282.911719 
L 286.445455 268.901179 
L 316.881818 252.188767 
L 347.318182 229.260617 
L 377.754545 201.388703 
L 408.190909 173.261706 
L 438.627273 143.143863 
L 469.063636 114.062041 
L 499.5 88.663337 
L 529.936364 66.29204 
L 560.372727 170.509361 
" clip-path="url(#p0e41f7b461)" style="fill: none; stroke-dasharray: 3.7,1.6; stroke-dashoffset: 0; stroke: #2ca02c; stroke-opacity: 0.6"/>
   </g>
   <g id="line2d_70">
    <path d="M 103.827273 204.054368 
L 134.263636 203.400275 
L 164.7 303.798513 
L 195.136364 297.671231 
L 225.572727 290.228836 
L 256.009091 281.731616 
L 286.445455 269.100728 
L 316.881818 252.940132 
L 347.318182 235.570629 
L 377.754545 213.118541 
L 408.190909 188.535273 
L 438.627273 161.132323 
L 469.063636 133.584222 
L 499.5 105.049075 
L 529.936364 80.699433 
L 560.372727 177.343781 
" clip-path="url(#p0e41f7b461)" style="fill: none; stroke-dasharray: 3.7,1.6; stroke-dashoffset: 0; stroke: #d62728; stroke-opacity: 0.6"/>
   </g>
   <g id="line2d_71">
    <path d="M 103.827273 204.054368 
L 134.263636 204.234971 
L 164.7 305.610388 
L 195.136364 300.623976 
L 225.572727 293.149175 
L 256.009091 283.763461 
L 286.445455 272.228371 
L 316.881818 257.672157 
L 347.318182 237.586163 
L 377.754545 213.592457 
L 408.190909 187.103162 
L 438.627273 157.884937 
L 469.063636 128.448979 
L 499.5 99.599266 
L 529.936364 74.311724 
L 560.372727 175.357564 
" clip-path="url(#p0e41f7b461)" style="fill: none; stroke-dasharray: 3.7,1.6; stroke-dashoffset: 0; stroke: #9467bd; stroke-opacity: 0.6"/>
   </g>
   <g id="line2d_72">
    <path d="M 103.827273 204.054368 
L 134.263636 204.231846 
L 164.7 306.860057 
L 195.136364 301.135666 
L 225.572727 291.942645 
L 256.009091 279.585593 
L 286.445455 265.590534 
L 316.881818 246.507253 
L 347.318182 226.464805 
L 377.754545 202.483043 
L 408.190909 173.945581 
L 438.627273 145.759686 
L 469.063636 117.107935 
L 499.5 91.394544 
L 529.936364 67.789961 
L 560.372727 170.710784 
" clip-path="url(#p0e41f7b461)" style="fill: none; stroke-dasharray: 3.7,1.6; stroke-dashoffset: 0; stroke: #8c564b; stroke-opacity: 0.6"/>
   </g>
   <g id="line2d_73">
    <path d="M 103.827273 204.054368 
L 134.263636 204.646818 
L 164.7 306.243731 
L 195.136364 300.191528 
L 225.572727 291.919002 
L 256.009091 278.401274 
L 286.445455 263.059704 
L 316.881818 244.700339 
L 347.318182 220.789178 
L 377.754545 192.112651 
L 408.190909 163.744782 
L 438.627273 133.982179 
L 469.063636 106.375604 
L 499.5 82.359987 
L 529.936364 61.073562 
L 560.372727 166.847375 
" clip-path="url(#p0e41f7b461)" style="fill: none; stroke-dasharray: 3.7,1.6; stroke-dashoffset: 0; stroke: #e377c2; stroke-opacity: 0.6"/>
   </g>
   <g id="line2d_74">
    <path d="M 103.827273 204.054368 
L 134.263636 204.022984 
L 164.7 306.11291 
L 195.136364 298.026652 
L 225.572727 289.195478 
L 256.009091 278.937495 
L 286.445455 265.241325 
L 316.881818 249.590621 
L 347.318182 229.671097 
L 377.754545 205.465706 
L 408.190909 178.299967 
L 438.627273 149.576146 
L 469.063636 122.073012 
L 499.5 95.511057 
L 529.936364 73.569638 
L 560.372727 173.353968 
" clip-path="url(#p0e41f7b461)" style="fill: none; stroke-dasharray: 3.7,1.6; stroke-dashoffset: 0; stroke: #7f7f7f; stroke-opacity: 0.6"/>
   </g>
   <g id="line2d_75">
    <path d="M 103.827273 204.054368 
L 134.263636 202.312082 
L 164.7 303.577359 
L 195.136364 296.749681 
L 225.572727 287.732326 
L 256.009091 276.520289 
L 286.445455 260.886935 
L 316.881818 239.6939 
L 347.318182 215.842854 
L 377.754545 188.682173 
L 408.190909 158.820654 
L 438.627273 129.288963 
L 469.063636 102.160919 
L 499.5 77.95024 
L 529.936364 56.512244 
L 560.372727 164.706685 
" clip-path="url(#p0e41f7b461)" style="fill: none; stroke-dasharray: 3.7,1.6; stroke-dashoffset: 0; stroke: #bcbd22; stroke-opacity: 0.6"/>
   </g>
   <g id="line2d_76">
    <path d="M 103.827273 204.054368 
L 134.263636 201.970377 
L 164.7 299.503948 
L 195.136364 294.652898 
L 225.572727 285.360018 
L 256.009091 274.661368 
L 286.445455 262.293094 
L 316.881818 243.831759 
L 347.318182 224.371434 
L 377.754545 201.548883 
L 408.190909 173.505205 
L 438.627273 145.789514 
L 469.063636 118.733869 
L 499.5 94.58722 
L 529.936364 72.500172 
L 560.372727 172.208823 
" clip-path="url(#p0e41f7b461)" style="fill: none; stroke-dasharray: 3.7,1.6; stroke-dashoffset: 0; stroke: #17becf; stroke-opacity: 0.6"/>
   </g>
   <g id="line2d_77">
    <path d="M 103.827273 204.054368 
L 134.263636 203.706285 
L 164.7 303.679881 
L 195.136364 297.588878 
L 225.572727 290.03779 
L 256.009091 280.163114 
L 286.445455 266.505767 
L 316.881818 249.996568 
L 347.318182 227.831158 
L 377.754545 200.963141 
L 408.190909 172.258648 
L 438.627273 142.646087 
L 469.063636 115.395161 
L 499.5 89.512258 
L 529.936364 66.791708 
L 560.372727 170.016495 
" clip-path="url(#p0e41f7b461)" style="fill: none; stroke-dasharray: 3.7,1.6; stroke-dashoffset: 0; stroke: #1f77b4; stroke-opacity: 0.6"/>
   </g>
   <g id="line2d_78">
    <path d="M 103.827273 204.054368 
L 134.263636 202.999056 
L 164.7 301.495589 
L 195.136364 293.235304 
L 225.572727 283.745651 
L 256.009091 271.671465 
L 286.445455 254.073034 
L 316.881818 236.958068 
L 347.318182 215.639518 
L 377.754545 189.609617 
L 408.190909 163.175317 
L 438.627273 135.323559 
L 469.063636 108.033659 
L 499.5 84.081504 
L 529.936364 63.238878 
L 560.372727 167.154635 
" clip-path="url(#p0e41f7b461)" style="fill: none; stroke-dasharray: 3.7,1.6; stroke-dashoffset: 0; stroke: #ff7f0e; stroke-opacity: 0.6"/>
   </g>
   <g id="line2d_79">
    <path d="M 103.827273 204.054368 
L 134.263636 204.128134 
L 164.7 306.361079 
L 195.136364 301.246394 
L 225.572727 295.182913 
L 256.009091 286.996081 
L 286.445455 274.015164 
L 316.881818 256.998441 
L 347.318182 237.357011 
L 377.754545 211.272838 
L 408.190909 184.402135 
L 438.627273 155.097045 
L 469.063636 125.395411 
L 499.5 97.990466 
L 529.936364 74.469126 
L 560.372727 175.421391 
" clip-path="url(#p0e41f7b461)" style="fill: none; stroke-dasharray: 3.7,1.6; stroke-dashoffset: 0; stroke: #2ca02c; stroke-opacity: 0.6"/>
   </g>
   <g id="line2d_80">
    <path d="M 103.827273 204.054368 
L 134.263636 204.297299 
L 164.7 301.03124 
L 195.136364 294.542074 
L 225.572727 286.975323 
L 256.009091 277.280005 
L 286.445455 265.738578 
L 316.881818 250.301736 
L 347.318182 231.456653 
L 377.754545 206.982655 
L 408.190909 177.865943 
L 438.627273 149.967243 
L 469.063636 121.917167 
L 499.5 94.620835 
L 529.936364 71.776442 
L 560.372727 173.109723 
" clip-path="url(#p0e41f7b461)" style="fill: none; stroke-dasharray: 3.7,1.6; stroke-dashoffset: 0; stroke: #d62728; stroke-opacity: 0.6"/>
   </g>
   <g id="line2d_81">
    <path d="M 103.827273 204.054368 
L 134.263636 203.978724 
L 164.7 305.467889 
L 195.136364 300.046104 
L 225.572727 293.028706 
L 256.009091 284.001205 
L 286.445455 269.637148 
L 316.881818 251.911593 
L 347.318182 233.383114 
L 377.754545 211.074725 
L 408.190909 185.259903 
L 438.627273 156.57088 
L 469.063636 128.039626 
L 499.5 100.956473 
L 529.936364 76.644659 
L 560.372727 175.609998 
" clip-path="url(#p0e41f7b461)" style="fill: none; stroke-dasharray: 3.7,1.6; stroke-dashoffset: 0; stroke: #9467bd; stroke-opacity: 0.6"/>
   </g>
   <g id="line2d_82">
    <path d="M 103.827273 204.054368 
L 134.263636 204.753468 
L 164.7 306.124626 
L 195.136364 300.923025 
L 225.572727 293.724056 
L 256.009091 283.38603 
L 286.445455 270.777165 
L 316.881818 253.985877 
L 347.318182 233.46748 
L 377.754545 209.957256 
L 408.190909 181.447761 
L 438.627273 151.831746 
L 469.063636 122.837097 
L 499.5 94.373737 
L 529.936364 70.933496 
L 560.372727 173.544075 
" clip-path="url(#p0e41f7b461)" style="fill: none; stroke-dasharray: 3.7,1.6; stroke-dashoffset: 0; stroke: #8c564b; stroke-opacity: 0.6"/>
   </g>
   <g id="line2d_83">
    <path d="M 103.827273 204.054368 
L 134.263636 204.69833 
L 164.7 303.417622 
L 195.136364 297.547834 
L 225.572727 290.46532 
L 256.009091 281.004453 
L 286.445455 268.193486 
L 316.881818 250.646538 
L 347.318182 232.673608 
L 377.754545 209.151921 
L 408.190909 182.367043 
L 438.627273 152.274205 
L 469.063636 123.248508 
L 499.5 97.310204 
L 529.936364 74.090355 
L 560.372727 174.022625 
" clip-path="url(#p0e41f7b461)" style="fill: none; stroke-dasharray: 3.7,1.6; stroke-dashoffset: 0; stroke: #e377c2; stroke-opacity: 0.6"/>
   </g>
   <g id="line2d_84">
    <path d="M 103.827273 204.054368 
L 134.263636 203.341761 
L 164.7 303.160309 
L 195.136364 296.168853 
L 225.572727 288.268407 
L 256.009091 278.257571 
L 286.445455 262.972407 
L 316.881818 245.424735 
L 347.318182 222.591609 
L 377.754545 196.921634 
L 408.190909 167.576155 
L 438.627273 139.074316 
L 469.063636 110.879002 
L 499.5 86.107007 
L 529.936364 64.438299 
L 560.372727 168.708313 
" clip-path="url(#p0e41f7b461)" style="fill: none; stroke-dasharray: 3.7,1.6; stroke-dashoffset: 0; stroke: #7f7f7f; stroke-opacity: 0.6"/>
   </g>
   <g id="line2d_85">
    <path d="M 103.827273 204.054368 
L 134.263636 204.281107 
L 164.7 306.621244 
L 195.136364 302.038554 
L 225.572727 294.569009 
L 256.009091 284.675671 
L 286.445455 272.12055 
L 316.881818 252.879768 
L 347.318182 232.364006 
L 377.754545 207.392969 
L 408.190909 179.633146 
L 438.627273 148.675794 
L 469.063636 118.858732 
L 499.5 90.137038 
L 529.936364 66.778043 
L 560.372727 171.301923 
" clip-path="url(#p0e41f7b461)" style="fill: none; stroke-dasharray: 3.7,1.6; stroke-dashoffset: 0; stroke: #bcbd22; stroke-opacity: 0.6"/>
   </g>
   <g id="line2d_86">
    <path d="M 103.827273 204.054368 
L 134.263636 204.713271 
L 164.7 305.377205 
L 195.136364 300.27206 
L 225.572727 292.705393 
L 256.009091 281.880096 
L 286.445455 268.129016 
L 316.881818 250.702079 
L 347.318182 229.617797 
L 377.754545 203.745437 
L 408.190909 175.613979 
L 438.627273 146.184204 
L 469.063636 116.179988 
L 499.5 89.227677 
L 529.936364 65.982932 
L 560.372727 170.914644 
" clip-path="url(#p0e41f7b461)" style="fill: none; stroke-dasharray: 3.7,1.6; stroke-dashoffset: 0; stroke: #17becf; stroke-opacity: 0.6"/>
   </g>
   <g id="line2d_87">
    <path d="M 103.827273 204.054368 
L 134.263636 202.77419 
L 164.7 299.667752 
L 195.136364 294.24826 
L 225.572727 283.749177 
L 256.009091 273.611346 
L 286.445455 260.395678 
L 316.881818 244.635182 
L 347.318182 224.211758 
L 377.754545 201.081 
L 408.190909 175.595356 
L 438.627273 147.649965 
L 469.063636 120.658387 
L 499.5 95.859732 
L 529.936364 74.37062 
L 560.372727 172.854163 
" clip-path="url(#p0e41f7b461)" style="fill: none; stroke-dasharray: 3.7,1.6; stroke-dashoffset: 0; stroke: #1f77b4; stroke-opacity: 0.6"/>
   </g>
   <g id="line2d_88">
    <path d="M 103.827273 204.054368 
L 134.263636 203.704597 
L 164.7 305.576827 
L 195.136364 301.000409 
L 225.572727 292.727893 
L 256.009091 283.043173 
L 286.445455 270.51745 
L 316.881818 253.936783 
L 347.318182 232.735603 
L 377.754545 206.124052 
L 408.190909 177.07502 
L 438.627273 147.521563 
L 469.063636 118.474009 
L 499.5 91.327202 
L 529.936364 66.940569 
L 560.372727 171.087435 
" clip-path="url(#p0e41f7b461)" style="fill: none; stroke-dasharray: 3.7,1.6; stroke-dashoffset: 0; stroke: #ff7f0e; stroke-opacity: 0.6"/>
   </g>
   <g id="line2d_89">
    <path d="M 103.827273 204.054368 
L 134.263636 204.341371 
L 164.7 304.698284 
L 195.136364 298.846825 
L 225.572727 290.55829 
L 256.009091 277.543448 
L 286.445455 262.492365 
L 316.881818 243.892352 
L 347.318182 221.469566 
L 377.754545 196.553773 
L 408.190909 168.365009 
L 438.627273 138.154552 
L 469.063636 109.597384 
L 499.5 84.498601 
L 529.936364 62.667384 
L 560.372727 168.203069 
" clip-path="url(#p0e41f7b461)" style="fill: none; stroke-dasharray: 3.7,1.6; stroke-dashoffset: 0; stroke: #2ca02c; stroke-opacity: 0.6"/>
   </g>
   <g id="line2d_90">
    <path d="M 103.827273 204.054368 
L 134.263636 202.859773 
L 164.7 304.687108 
L 195.136364 296.359108 
L 225.572727 287.794032 
L 256.009091 276.6966 
L 286.445455 262.650743 
L 316.881818 242.460777 
L 347.318182 221.360729 
L 377.754545 195.962438 
L 408.190909 167.476172 
L 438.627273 137.264374 
L 469.063636 108.628872 
L 499.5 84.199807 
L 529.936364 63.460326 
L 560.372727 168.454003 
" clip-path="url(#p0e41f7b461)" style="fill: none; stroke-dasharray: 3.7,1.6; stroke-dashoffset: 0; stroke: #d62728; stroke-opacity: 0.6"/>
   </g>
   <g id="line2d_91">
    <path d="M 103.827273 204.054368 
L 134.263636 204.172582 
L 164.7 306.006427 
L 195.136364 300.631767 
L 225.572727 292.973218 
L 256.009091 284.382669 
L 286.445455 271.174619 
L 316.881818 255.022646 
L 347.318182 235.106635 
L 377.754545 211.141742 
L 408.190909 184.825693 
L 438.627273 154.55361 
L 469.063636 126.360653 
L 499.5 99.484855 
L 529.936364 74.423332 
L 560.372727 174.566628 
" clip-path="url(#p0e41f7b461)" style="fill: none; stroke-dasharray: 3.7,1.6; stroke-dashoffset: 0; stroke: #9467bd; stroke-opacity: 0.6"/>
   </g>
   <g id="line2d_92">
    <path d="M 103.827273 204.054368 
L 134.263636 203.629079 
L 164.7 303.666013 
L 195.136364 295.301919 
L 225.572727 287.419307 
L 256.009091 276.809823 
L 286.445455 260.544687 
L 316.881818 242.747231 
L 347.318182 221.067055 
L 377.754545 195.956479 
L 408.190909 166.633381 
L 438.627273 137.804566 
L 469.063636 108.607039 
L 499.5 84.532696 
L 529.936364 63.808521 
L 560.372727 167.822605 
" clip-path="url(#p0e41f7b461)" style="fill: none; stroke-dasharray: 3.7,1.6; stroke-dashoffset: 0; stroke: #8c564b; stroke-opacity: 0.6"/>
   </g>
   <g id="line2d_93">
    <path d="M 103.827273 204.054368 
L 134.263636 202.906909 
L 164.7 302.580232 
L 195.136364 297.3394 
L 225.572727 289.450113 
L 256.009091 277.590438 
L 286.445455 264.048069 
L 316.881818 246.833607 
L 347.318182 224.862351 
L 377.754545 200.224427 
L 408.190909 171.405491 
L 438.627273 143.425371 
L 469.063636 113.998776 
L 499.5 88.723521 
L 529.936364 66.041492 
L 560.372727 169.479244 
" clip-path="url(#p0e41f7b461)" style="fill: none; stroke-dasharray: 3.7,1.6; stroke-dashoffset: 0; stroke: #e377c2; stroke-opacity: 0.6"/>
   </g>
   <g id="line2d_94">
    <path d="M 103.827273 204.054368 
L 134.263636 204.2491 
L 164.7 303.740821 
L 195.136364 299.431772 
L 225.572727 292.745618 
L 256.009091 282.426719 
L 286.445455 269.993389 
L 316.881818 254.53325 
L 347.318182 236.107266 
L 377.754545 213.042851 
L 408.190909 186.902513 
L 438.627273 159.448463 
L 469.063636 130.330896 
L 499.5 104.194416 
L 529.936364 79.762023 
L 560.372727 177.289955 
" clip-path="url(#p0e41f7b461)" style="fill: none; stroke-dasharray: 3.7,1.6; stroke-dashoffset: 0; stroke: #7f7f7f; stroke-opacity: 0.6"/>
   </g>
   <g id="line2d_95">
    <path d="M 103.827273 204.054368 
L 134.263636 203.628204 
L 164.7 303.99159 
L 195.136364 298.951011 
L 225.572727 292.653149 
L 256.009091 281.72328 
L 286.445455 270.772023 
L 316.881818 255.380188 
L 347.318182 233.987583 
L 377.754545 210.565403 
L 408.190909 183.68859 
L 438.627273 153.658053 
L 469.063636 122.522559 
L 499.5 96.071935 
L 529.936364 73.094302 
L 560.372727 174.377146 
" clip-path="url(#p0e41f7b461)" style="fill: none; stroke-dasharray: 3.7,1.6; stroke-dashoffset: 0; stroke: #bcbd22; stroke-opacity: 0.6"/>
   </g>
   <g id="line2d_96">
    <path d="M 103.827273 204.054368 
L 134.263636 204.382694 
L 164.7 302.439497 
L 195.136364 296.46499 
L 225.572727 287.851564 
L 256.009091 276.757666 
L 286.445455 261.784944 
L 316.881818 241.653587 
L 347.318182 218.123885 
L 377.754545 191.296202 
L 408.190909 163.028575 
L 438.627273 131.916314 
L 469.063636 103.042923 
L 499.5 78.06011 
L 529.936364 56.601111 
L 560.372727 164.693432 
" clip-path="url(#p0e41f7b461)" style="fill: none; stroke-dasharray: 3.7,1.6; stroke-dashoffset: 0; stroke: #17becf; stroke-opacity: 0.6"/>
   </g>
   <g id="line2d_97">
    <path d="M 103.827273 204.054368 
L 134.263636 204.408887 
L 164.7 305.371183 
L 195.136364 298.928545 
L 225.572727 290.933331 
L 256.009091 281.708971 
L 286.445455 269.64884 
L 316.881818 254.935273 
L 347.318182 236.619989 
L 377.754545 212.958876 
L 408.190909 184.563497 
L 438.627273 156.846019 
L 469.063636 129.329481 
L 499.5 102.185298 
L 529.936364 78.872633 
L 560.372727 176.118117 
" clip-path="url(#p0e41f7b461)" style="fill: none; stroke-dasharray: 3.7,1.6; stroke-dashoffset: 0; stroke: #1f77b4; stroke-opacity: 0.6"/>
   </g>
   <g id="line2d_98">
    <path d="M 103.827273 204.054368 
L 134.263636 204.074809 
L 164.7 305.0896 
L 195.136364 299.011687 
L 225.572727 291.372501 
L 256.009091 280.758972 
L 286.445455 267.389304 
L 316.881818 249.298203 
L 347.318182 228.204953 
L 377.754545 203.165933 
L 408.190909 175.035145 
L 438.627273 145.125859 
L 469.063636 116.221272 
L 499.5 88.519919 
L 529.936364 67.001649 
L 560.372727 170.121145 
" clip-path="url(#p0e41f7b461)" style="fill: none; stroke-dasharray: 3.7,1.6; stroke-dashoffset: 0; stroke: #ff7f0e; stroke-opacity: 0.6"/>
   </g>
   <g id="line2d_99">
    <path d="M 103.827273 204.054368 
L 134.263636 203.663837 
L 164.7 305.886968 
L 195.136364 299.687281 
L 225.572727 291.403613 
L 256.009091 280.756902 
L 286.445455 265.707815 
L 316.881818 247.616998 
L 347.318182 226.380983 
L 377.754545 199.146296 
L 408.190909 169.561397 
L 438.627273 140.223001 
L 469.063636 111.048353 
L 499.5 84.772005 
L 529.936364 63.226969 
L 560.372727 168.610165 
" clip-path="url(#p0e41f7b461)" style="fill: none; stroke-dasharray: 3.7,1.6; stroke-dashoffset: 0; stroke: #2ca02c; stroke-opacity: 0.6"/>
   </g>
   <g id="line2d_100">
    <path d="M 103.827273 204.054368 
L 134.263636 203.898142 
L 164.7 305.193648 
L 195.136364 298.177745 
L 225.572727 289.026618 
L 256.009091 277.774035 
L 286.445455 265.018189 
L 316.881818 247.966669 
L 347.318182 227.035777 
L 377.754545 202.344159 
L 408.190909 173.613976 
L 438.627273 144.623059 
L 469.063636 117.115663 
L 499.5 91.009978 
L 529.936364 69.120928 
L 560.372727 171.359124 
" clip-path="url(#p0e41f7b461)" style="fill: none; stroke-dasharray: 3.7,1.6; stroke-dashoffset: 0; stroke: #d62728; stroke-opacity: 0.6"/>
   </g>
   <g id="line2d_101">
    <path d="M 103.827273 204.054368 
L 134.263636 204.95289 
L 164.7 304.257472 
L 195.136364 298.902721 
L 225.572727 291.344704 
L 256.009091 278.115184 
L 286.445455 262.44563 
L 316.881818 242.976038 
L 347.318182 219.741018 
L 377.754545 194.270847 
L 408.190909 166.93664 
L 438.627273 138.910744 
L 469.063636 110.660579 
L 499.5 86.134819 
L 529.936364 63.890731 
L 560.372727 168.289152 
" clip-path="url(#p0e41f7b461)" style="fill: none; stroke-dasharray: 3.7,1.6; stroke-dashoffset: 0; stroke: #9467bd; stroke-opacity: 0.6"/>
   </g>
   <g id="line2d_102">
    <path d="M 103.827273 204.054368 
L 134.263636 203.562501 
L 164.7 303.062443 
L 195.136364 297.408258 
L 225.572727 289.629754 
L 256.009091 279.509599 
L 286.445455 266.322017 
L 316.881818 247.696144 
L 347.318182 224.699473 
L 377.754545 198.13179 
L 408.190909 169.660256 
L 438.627273 138.591408 
L 469.063636 109.913883 
L 499.5 85.303876 
L 529.936364 63.014243 
L 560.372727 168.65405 
" clip-path="url(#p0e41f7b461)" style="fill: none; stroke-dasharray: 3.7,1.6; stroke-dashoffset: 0; stroke: #8c564b; stroke-opacity: 0.6"/>
   </g>
   <g id="line2d_103">
    <path d="M 103.827273 204.054368 
L 134.263636 204.716085 
L 164.7 307.162437 
L 195.136364 300.411906 
L 225.572727 293.4641 
L 256.009091 284.044786 
L 286.445455 268.411072 
L 316.881818 251.340828 
L 347.318182 231.129237 
L 377.754545 206.026952 
L 408.190909 176.434129 
L 438.627273 148.21611 
L 469.063636 118.253093 
L 499.5 92.130345 
L 529.936364 68.100572 
L 560.372727 171.184458 
" clip-path="url(#p0e41f7b461)" style="fill: none; stroke-dasharray: 3.7,1.6; stroke-dashoffset: 0; stroke: #e377c2; stroke-opacity: 0.6"/>
   </g>
   <g id="line2d_104">
    <path d="M 103.827273 204.054368 
L 134.263636 204.206215 
L 164.7 303.046914 
L 195.136364 297.088395 
L 225.572727 290.390215 
L 256.009091 280.297724 
L 286.445455 266.480621 
L 316.881818 251.37645 
L 347.318182 232.276136 
L 377.754545 210.957522 
L 408.190909 185.440259 
L 438.627273 156.561748 
L 469.063636 128.350233 
L 499.5 101.745911 
L 529.936364 78.265001 
L 560.372727 175.8323 
" clip-path="url(#p0e41f7b461)" style="fill: none; stroke-dasharray: 3.7,1.6; stroke-dashoffset: 0; stroke: #7f7f7f; stroke-opacity: 0.6"/>
   </g>
   <g id="line2d_105">
    <path d="M 103.827273 204.054368 
L 134.263636 203.793055 
L 164.7 303.890481 
L 195.136364 297.464472 
L 225.572727 288.302215 
L 256.009091 276.236826 
L 286.445455 261.606317 
L 316.881818 242.268763 
L 347.318182 219.198925 
L 377.754545 193.354984 
L 408.190909 163.989458 
L 438.627273 135.329035 
L 469.063636 107.609317 
L 499.5 81.951361 
L 529.936364 60.943292 
L 560.372727 167.006975 
" clip-path="url(#p0e41f7b461)" style="fill: none; stroke-dasharray: 3.7,1.6; stroke-dashoffset: 0; stroke: #bcbd22; stroke-opacity: 0.6"/>
   </g>
   <g id="line2d_106">
    <path d="M 103.827273 204.054368 
L 134.263636 202.379285 
L 164.7 300.48031 
L 195.136364 294.264011 
L 225.572727 288.105986 
L 256.009091 276.73226 
L 286.445455 264.63587 
L 316.881818 249.72796 
L 347.318182 230.62923 
L 377.754545 207.613482 
L 408.190909 179.758495 
L 438.627273 150.678848 
L 469.063636 124.852768 
L 499.5 97.852639 
L 529.936364 74.731582 
L 560.372727 172.344855 
" clip-path="url(#p0e41f7b461)" style="fill: none; stroke-dasharray: 3.7,1.6; stroke-dashoffset: 0; stroke: #17becf; stroke-opacity: 0.6"/>
   </g>
   <g id="line2d_107">
    <path d="M 103.827273 204.054368 
L 134.263636 202.789257 
L 164.7 304.762698 
L 195.136364 299.272723 
L 225.572727 291.648266 
L 256.009091 280.575079 
L 286.445455 266.714926 
L 316.881818 249.989093 
L 347.318182 228.184997 
L 377.754545 200.800497 
L 408.190909 172.814381 
L 438.627273 143.070369 
L 469.063636 112.490131 
L 499.5 85.419046 
L 529.936364 64.116125 
L 560.372727 168.787081 
" clip-path="url(#p0e41f7b461)" style="fill: none; stroke-dasharray: 3.7,1.6; stroke-dashoffset: 0; stroke: #1f77b4; stroke-opacity: 0.6"/>
   </g>
   <g id="line2d_108">
    <path d="M 103.827273 204.054368 
L 134.263636 203.033439 
L 164.7 304.300931 
L 195.136364 298.15222 
L 225.572727 289.513903 
L 256.009091 276.313014 
L 286.445455 262.934506 
L 316.881818 244.875887 
L 347.318182 223.334418 
L 377.754545 196.442277 
L 408.190909 168.505296 
L 438.627273 138.736162 
L 469.063636 111.479277 
L 499.5 86.02081 
L 529.936364 64.880442 
L 560.372727 168.787894 
" clip-path="url(#p0e41f7b461)" style="fill: none; stroke-dasharray: 3.7,1.6; stroke-dashoffset: 0; stroke: #ff7f0e; stroke-opacity: 0.6"/>
   </g>
   <g id="line2d_109">
    <path d="M 103.827273 204.054368 
L 134.263636 204.284608 
L 164.7 305.365636 
L 195.136364 299.609414 
L 225.572727 291.454927 
L 256.009091 282.915954 
L 286.445455 268.717174 
L 316.881818 253.36686 
L 347.318182 235.237712 
L 377.754545 213.627503 
L 408.190909 187.462518 
L 438.627273 159.094679 
L 469.063636 130.534719 
L 499.5 102.303859 
L 529.936364 78.094336 
L 560.372727 176.400121 
" clip-path="url(#p0e41f7b461)" style="fill: none; stroke-dasharray: 3.7,1.6; stroke-dashoffset: 0; stroke: #2ca02c; stroke-opacity: 0.6"/>
   </g>
   <g id="line2d_110">
    <path d="M 103.827273 204.054368 
L 134.263636 203.950405 
L 164.7 303.891148 
L 195.136364 299.692032 
L 225.572727 292.186555 
L 256.009091 283.456625 
L 286.445455 271.075379 
L 316.881818 254.602861 
L 347.318182 235.760751 
L 377.754545 212.398538 
L 408.190909 185.329202 
L 438.627273 154.104827 
L 469.063636 124.495368 
L 499.5 97.163782 
L 529.936364 73.279266 
L 560.372727 174.708223 
" clip-path="url(#p0e41f7b461)" style="fill: none; stroke-dasharray: 3.7,1.6; stroke-dashoffset: 0; stroke: #d62728; stroke-opacity: 0.6"/>
   </g>
   <g id="line2d_111">
    <path d="M 103.827273 204.054368 
L 134.263636 203.417217 
L 164.7 306.431192 
L 195.136364 301.299754 
L 225.572727 292.746876 
L 256.009091 283.369377 
L 286.445455 272.413155 
L 316.881818 257.649335 
L 347.318182 239.521806 
L 377.754545 215.962236 
L 408.190909 188.394321 
L 438.627273 160.909398 
L 469.063636 132.242273 
L 499.5 105.246022 
L 529.936364 80.561103 
L 560.372727 177.996372 
" clip-path="url(#p0e41f7b461)" style="fill: none; stroke-dasharray: 3.7,1.6; stroke-dashoffset: 0; stroke: #9467bd; stroke-opacity: 0.6"/>
   </g>
   <g id="line2d_112">
    <path d="M 103.827273 204.054368 
L 134.263636 203.329884 
L 164.7 306.673574 
L 195.136364 300.541656 
L 225.572727 291.780306 
L 256.009091 282.214941 
L 286.445455 268.557648 
L 316.881818 251.838883 
L 347.318182 230.926141 
L 377.754545 205.034119 
L 408.190909 177.116762 
L 438.627273 146.898727 
L 469.063636 118.547741 
L 499.5 91.087244 
L 529.936364 68.401459 
L 560.372727 170.392334 
" clip-path="url(#p0e41f7b461)" style="fill: none; stroke-dasharray: 3.7,1.6; stroke-dashoffset: 0; stroke: #8c564b; stroke-opacity: 0.6"/>
   </g>
   <g id="line2d_113">
    <path d="M 103.827273 204.054368 
L 134.263636 202.115286 
L 164.7 304.05231 
L 195.136364 299.069706 
L 225.572727 290.771253 
L 256.009091 279.635417 
L 286.445455 266.01258 
L 316.881818 248.426701 
L 347.318182 226.159564 
L 377.754545 200.182625 
L 408.190909 171.514398 
L 438.627273 139.642274 
L 469.063636 110.979833 
L 499.5 85.116996 
L 529.936364 62.494236 
L 560.372727 168.93943 
" clip-path="url(#p0e41f7b461)" style="fill: none; stroke-dasharray: 3.7,1.6; stroke-dashoffset: 0; stroke: #e377c2; stroke-opacity: 0.6"/>
   </g>
   <g id="line2d_114">
    <path d="M 103.827273 204.054368 
L 134.263636 204.415764 
L 164.7 306.210754 
L 195.136364 301.118354 
L 225.572727 295.251963 
L 256.009091 286.872449 
L 286.445455 274.741191 
L 316.881818 260.266974 
L 347.318182 241.708607 
L 377.754545 219.1014 
L 408.190909 193.773457 
L 438.627273 166.000175 
L 469.063636 136.463772 
L 499.5 109.08361 
L 529.936364 83.940513 
L 560.372727 179.725528 
" clip-path="url(#p0e41f7b461)" style="fill: none; stroke-dasharray: 3.7,1.6; stroke-dashoffset: 0; stroke: #7f7f7f; stroke-opacity: 0.6"/>
   </g>
   <g id="line2d_115">
    <path d="M 103.827273 204.054368 
L 134.263636 204.325868 
L 164.7 305.480345 
L 195.136364 299.610567 
L 225.572727 291.850667 
L 256.009091 282.606281 
L 286.445455 269.239405 
L 316.881818 251.816635 
L 347.318182 230.300684 
L 377.754545 204.852203 
L 408.190909 175.627227 
L 438.627273 147.063744 
L 469.063636 118.677336 
L 499.5 90.928985 
L 529.936364 68.226573 
L 560.372727 171.328054 
" clip-path="url(#p0e41f7b461)" style="fill: none; stroke-dasharray: 3.7,1.6; stroke-dashoffset: 0; stroke: #bcbd22; stroke-opacity: 0.6"/>
   </g>
   <g id="line2d_116">
    <path d="M 103.827273 204.054368 
L 134.263636 203.84688 
L 164.7 304.241557 
L 195.136364 298.612148 
L 225.572727 292.019294 
L 256.009091 283.469231 
L 286.445455 269.993681 
L 316.881818 254.718152 
L 347.318182 235.965853 
L 377.754545 212.475065 
L 408.190909 185.449164 
L 438.627273 156.916325 
L 469.063636 127.287882 
L 499.5 100.394815 
L 529.936364 76.806474 
L 560.372727 176.002903 
" clip-path="url(#p0e41f7b461)" style="fill: none; stroke-dasharray: 3.7,1.6; stroke-dashoffset: 0; stroke: #17becf; stroke-opacity: 0.6"/>
   </g>
   <g id="line2d_117">
    <path d="M 103.827273 204.054368 
L 134.263636 203.795763 
L 164.7 304.611931 
L 195.136364 298.715677 
L 225.572727 290.692283 
L 256.009091 280.324168 
L 286.445455 266.80921 
L 316.881818 249.628664 
L 347.318182 228.797151 
L 377.754545 204.070821 
L 408.190909 176.362297 
L 438.627273 147.383058 
L 469.063636 118.836693 
L 499.5 92.583563 
L 529.936364 69.699964 
L 560.372727 171.756983 
" clip-path="url(#p0e41f7b461)" style="fill: none; stroke: #000000; stroke-width: 2.5; stroke-linecap: square"/>
   </g>
   <g id="patch_3">
    <path d="M 81 320.4 
L 81 43.2 
" style="fill: none; stroke: #000000; stroke-width: 0.8; stroke-linejoin: miter; stroke-linecap: square"/>
   </g>
   <g id="patch_4">
    <path d="M 583.2 320.4 
L 583.2 43.2 
" style="fill: none; stroke: #000000; stroke-width: 0.8; stroke-linejoin: miter; stroke-linecap: square"/>
   </g>
   <g id="patch_5">
    <path d="M 81 320.4 
L 583.2 320.4 
" style="fill: none; stroke: #000000; stroke-width: 0.8; stroke-linejoin: miter; stroke-linecap: square"/>
   </g>
   <g id="patch_6">
    <path d="M 81 43.2 
L 583.2 43.2 
" style="fill: none; stroke: #000000; stroke-width: 0.8; stroke-linejoin: miter; stroke-linecap: square"/>
   </g>
   <g id="legend_1">
    <g id="patch_7">
     <path d="M 88 65.878125 
L 161.065625 65.878125 
Q 163.065625 65.878125 163.065625 63.878125 
L 163.065625 50.2 
Q 163.065625 48.2 161.065625 48.2 
L 88 48.2 
Q 86 48.2 86 50.2 
L 86 63.878125 
Q 86 65.878125 88 65.878125 
z
" style="fill: #ffffff; opacity: 0.8; stroke: #cccccc; stroke-linejoin: miter"/>
    </g>
    <g id="line2d_118">
     <path d="M 90 56.298437 
L 100 56.298437 
L 110 56.298437 
" style="fill: none; stroke: #000000; stroke-width: 2.5; stroke-linecap: square"/>
    </g>
    <g id="text_19">
     <!-- Average -->
     <g transform="translate(118 59.798437) scale(0.1 -0.1)">
      <defs>
       <path id="DejaVuSans-41" d="M 2188 4044 
L 1331 1722 
L 3047 1722 
L 2188 4044 
z
M 1831 4666 
L 2547 4666 
L 4325 0 
L 3669 0 
L 3244 1197 
L 1141 1197 
L 716 0 
L 50 0 
L 1831 4666 
z
" transform="scale(0.015625)"/>
       <path id="DejaVuSans-67" d="M 2906 1791 
Q 2906 2416 2648 2759 
Q 2391 3103 1925 3103 
Q 1463 3103 1205 2759 
Q 947 2416 947 1791 
Q 947 1169 1205 825 
Q 1463 481 1925 481 
Q 2391 481 2648 825 
Q 2906 1169 2906 1791 
z
M 3481 434 
Q 3481 -459 3084 -895 
Q 2688 -1331 1869 -1331 
Q 1566 -1331 1297 -1286 
Q 1028 -1241 775 -1147 
L 775 -588 
Q 1028 -725 1275 -790 
Q 1522 -856 1778 -856 
Q 2344 -856 2625 -561 
Q 2906 -266 2906 331 
L 2906 616 
Q 2728 306 2450 153 
Q 2172 0 1784 0 
Q 1141 0 747 490 
Q 353 981 353 1791 
Q 353 2603 747 3093 
Q 1141 3584 1784 3584 
Q 2172 3584 2450 3431 
Q 2728 3278 2906 2969 
L 2906 3500 
L 3481 3500 
L 3481 434 
z
" transform="scale(0.015625)"/>
      </defs>
      <use xlink:href="#DejaVuSans-41"/>
      <use xlink:href="#DejaVuSans-76" x="62.533203"/>
      <use xlink:href="#DejaVuSans-65" x="121.712891"/>
      <use xlink:href="#DejaVuSans-72" x="183.236328"/>
      <use xlink:href="#DejaVuSans-61" x="224.349609"/>
      <use xlink:href="#DejaVuSans-67" x="285.628906"/>
      <use xlink:href="#DejaVuSans-65" x="349.105469"/>
     </g>
    </g>
   </g>
  </g>
 </g>
 <defs>
  <clipPath id="p0e41f7b461">
   <rect x="81" y="43.2" width="502.2" height="277.2"/>
  </clipPath>
 </defs>
</svg>
