<?xml version="1.0" encoding="utf-8" standalone="no"?>
<!DOCTYPE svg PUBLIC "-//W3C//DTD SVG 1.1//EN"
  "http://www.w3.org/Graphics/SVG/1.1/DTD/svg11.dtd">
<svg xmlns:xlink="http://www.w3.org/1999/xlink" width="648pt" height="360pt" viewBox="0 0 648 360" xmlns="http://www.w3.org/2000/svg" version="1.1">
 <metadata>
  <rdf:RDF xmlns:dc="http://purl.org/dc/elements/1.1/" xmlns:cc="http://creativecommons.org/ns#" xmlns:rdf="http://www.w3.org/1999/02/22-rdf-syntax-ns#">
   <cc:Work>
    <dc:type rdf:resource="http://purl.org/dc/dcmitype/StillImage"/>
    <dc:date>2025-08-28T15:05:52.169905</dc:date>
    <dc:format>image/svg+xml</dc:format>
    <dc:creator>
     <cc:Agent>
      <dc:title>Matplotlib v3.8.0, https://matplotlib.org/</dc:title>
     </cc:Agent>
    </dc:creator>
   </cc:Work>
  </rdf:RDF>
 </metadata>
 <defs>
  <style type="text/css">*{stroke-linejoin: round; stroke-linecap: butt}</style>
 </defs>
 <g id="figure_1">
  <g id="patch_1">
   <path d="M 0 360 
L 648 360 
L 648 0 
L 0 0 
z
" style="fill: #ffffff"/>
  </g>
  <g id="axes_1">
   <g id="patch_2">
    <path d="M 81 320.4 
L 583.2 320.4 
L 583.2 43.2 
L 81 43.2 
z
" style="fill: #ffffff"/>
   </g>
   <g id="matplotlib.axis_1">
    <g id="xtick_1">
     <g id="line2d_1">
      <defs>
       <path id="mbd3da64ad8" d="M 0 0 
L 0 3.5 
" style="stroke: #000000; stroke-width: 0.8"/>
      </defs>
      <g>
       <use xlink:href="#mbd3da64ad8" x="134.263636" y="320.4" style="stroke: #000000; stroke-width: 0.8"/>
      </g>
     </g>
     <g id="text_1">
      <!-- 2010 -->
      <g transform="translate(118.993636 336.518125) scale(0.12 -0.12)">
       <defs>
        <path id="DejaVuSans-32" d="M 1228 531 
L 3431 531 
L 3431 0 
L 469 0 
L 469 531 
Q 828 903 1448 1529 
Q 2069 2156 2228 2338 
Q 2531 2678 2651 2914 
Q 2772 3150 2772 3378 
Q 2772 3750 2511 3984 
Q 2250 4219 1831 4219 
Q 1534 4219 1204 4116 
Q 875 4013 500 3803 
L 500 4441 
Q 881 4594 1212 4672 
Q 1544 4750 1819 4750 
Q 2544 4750 2975 4387 
Q 3406 4025 3406 3419 
Q 3406 3131 3298 2873 
Q 3191 2616 2906 2266 
Q 2828 2175 2409 1742 
Q 1991 1309 1228 531 
z
" transform="scale(0.015625)"/>
        <path id="DejaVuSans-30" d="M 2034 4250 
Q 1547 4250 1301 3770 
Q 1056 3291 1056 2328 
Q 1056 1369 1301 889 
Q 1547 409 2034 409 
Q 2525 409 2770 889 
Q 3016 1369 3016 2328 
Q 3016 3291 2770 3770 
Q 2525 4250 2034 4250 
z
M 2034 4750 
Q 2819 4750 3233 4129 
Q 3647 3509 3647 2328 
Q 3647 1150 3233 529 
Q 2819 -91 2034 -91 
Q 1250 -91 836 529 
Q 422 1150 422 2328 
Q 422 3509 836 4129 
Q 1250 4750 2034 4750 
z
" transform="scale(0.015625)"/>
        <path id="DejaVuSans-31" d="M 794 531 
L 1825 531 
L 1825 4091 
L 703 3866 
L 703 4441 
L 1819 4666 
L 2450 4666 
L 2450 531 
L 3481 531 
L 3481 0 
L 794 0 
L 794 531 
z
" transform="scale(0.015625)"/>
       </defs>
       <use xlink:href="#DejaVuSans-32"/>
       <use xlink:href="#DejaVuSans-30" x="63.623047"/>
       <use xlink:href="#DejaVuSans-31" x="127.246094"/>
       <use xlink:href="#DejaVuSans-30" x="190.869141"/>
      </g>
     </g>
    </g>
    <g id="xtick_2">
     <g id="line2d_2">
      <g>
       <use xlink:href="#mbd3da64ad8" x="195.136364" y="320.4" style="stroke: #000000; stroke-width: 0.8"/>
      </g>
     </g>
     <g id="text_2">
      <!-- 2012 -->
      <g transform="translate(179.866364 336.518125) scale(0.12 -0.12)">
       <use xlink:href="#DejaVuSans-32"/>
       <use xlink:href="#DejaVuSans-30" x="63.623047"/>
       <use xlink:href="#DejaVuSans-31" x="127.246094"/>
       <use xlink:href="#DejaVuSans-32" x="190.869141"/>
      </g>
     </g>
    </g>
    <g id="xtick_3">
     <g id="line2d_3">
      <g>
       <use xlink:href="#mbd3da64ad8" x="256.009091" y="320.4" style="stroke: #000000; stroke-width: 0.8"/>
      </g>
     </g>
     <g id="text_3">
      <!-- 2014 -->
      <g transform="translate(240.739091 336.518125) scale(0.12 -0.12)">
       <defs>
        <path id="DejaVuSans-34" d="M 2419 4116 
L 825 1625 
L 2419 1625 
L 2419 4116 
z
M 2253 4666 
L 3047 4666 
L 3047 1625 
L 3713 1625 
L 3713 1100 
L 3047 1100 
L 3047 0 
L 2419 0 
L 2419 1100 
L 313 1100 
L 313 1709 
L 2253 4666 
z
" transform="scale(0.015625)"/>
       </defs>
       <use xlink:href="#DejaVuSans-32"/>
       <use xlink:href="#DejaVuSans-30" x="63.623047"/>
       <use xlink:href="#DejaVuSans-31" x="127.246094"/>
       <use xlink:href="#DejaVuSans-34" x="190.869141"/>
      </g>
     </g>
    </g>
    <g id="xtick_4">
     <g id="line2d_4">
      <g>
       <use xlink:href="#mbd3da64ad8" x="316.881818" y="320.4" style="stroke: #000000; stroke-width: 0.8"/>
      </g>
     </g>
     <g id="text_4">
      <!-- 2016 -->
      <g transform="translate(301.611818 336.518125) scale(0.12 -0.12)">
       <defs>
        <path id="DejaVuSans-36" d="M 2113 2584 
Q 1688 2584 1439 2293 
Q 1191 2003 1191 1497 
Q 1191 994 1439 701 
Q 1688 409 2113 409 
Q 2538 409 2786 701 
Q 3034 994 3034 1497 
Q 3034 2003 2786 2293 
Q 2538 2584 2113 2584 
z
M 3366 4563 
L 3366 3988 
Q 3128 4100 2886 4159 
Q 2644 4219 2406 4219 
Q 1781 4219 1451 3797 
Q 1122 3375 1075 2522 
Q 1259 2794 1537 2939 
Q 1816 3084 2150 3084 
Q 2853 3084 3261 2657 
Q 3669 2231 3669 1497 
Q 3669 778 3244 343 
Q 2819 -91 2113 -91 
Q 1303 -91 875 529 
Q 447 1150 447 2328 
Q 447 3434 972 4092 
Q 1497 4750 2381 4750 
Q 2619 4750 2861 4703 
Q 3103 4656 3366 4563 
z
" transform="scale(0.015625)"/>
       </defs>
       <use xlink:href="#DejaVuSans-32"/>
       <use xlink:href="#DejaVuSans-30" x="63.623047"/>
       <use xlink:href="#DejaVuSans-31" x="127.246094"/>
       <use xlink:href="#DejaVuSans-36" x="190.869141"/>
      </g>
     </g>
    </g>
    <g id="xtick_5">
     <g id="line2d_5">
      <g>
       <use xlink:href="#mbd3da64ad8" x="377.754545" y="320.4" style="stroke: #000000; stroke-width: 0.8"/>
      </g>
     </g>
     <g id="text_5">
      <!-- 2018 -->
      <g transform="translate(362.484545 336.518125) scale(0.12 -0.12)">
       <defs>
        <path id="DejaVuSans-38" d="M 2034 2216 
Q 1584 2216 1326 1975 
Q 1069 1734 1069 1313 
Q 1069 891 1326 650 
Q 1584 409 2034 409 
Q 2484 409 2743 651 
Q 3003 894 3003 1313 
Q 3003 1734 2745 1975 
Q 2488 2216 2034 2216 
z
M 1403 2484 
Q 997 2584 770 2862 
Q 544 3141 544 3541 
Q 544 4100 942 4425 
Q 1341 4750 2034 4750 
Q 2731 4750 3128 4425 
Q 3525 4100 3525 3541 
Q 3525 3141 3298 2862 
Q 3072 2584 2669 2484 
Q 3125 2378 3379 2068 
Q 3634 1759 3634 1313 
Q 3634 634 3220 271 
Q 2806 -91 2034 -91 
Q 1263 -91 848 271 
Q 434 634 434 1313 
Q 434 1759 690 2068 
Q 947 2378 1403 2484 
z
M 1172 3481 
Q 1172 3119 1398 2916 
Q 1625 2713 2034 2713 
Q 2441 2713 2670 2916 
Q 2900 3119 2900 3481 
Q 2900 3844 2670 4047 
Q 2441 4250 2034 4250 
Q 1625 4250 1398 4047 
Q 1172 3844 1172 3481 
z
" transform="scale(0.015625)"/>
       </defs>
       <use xlink:href="#DejaVuSans-32"/>
       <use xlink:href="#DejaVuSans-30" x="63.623047"/>
       <use xlink:href="#DejaVuSans-31" x="127.246094"/>
       <use xlink:href="#DejaVuSans-38" x="190.869141"/>
      </g>
     </g>
    </g>
    <g id="xtick_6">
     <g id="line2d_6">
      <g>
       <use xlink:href="#mbd3da64ad8" x="438.627273" y="320.4" style="stroke: #000000; stroke-width: 0.8"/>
      </g>
     </g>
     <g id="text_6">
      <!-- 2020 -->
      <g transform="translate(423.357273 336.518125) scale(0.12 -0.12)">
       <use xlink:href="#DejaVuSans-32"/>
       <use xlink:href="#DejaVuSans-30" x="63.623047"/>
       <use xlink:href="#DejaVuSans-32" x="127.246094"/>
       <use xlink:href="#DejaVuSans-30" x="190.869141"/>
      </g>
     </g>
    </g>
    <g id="xtick_7">
     <g id="line2d_7">
      <g>
       <use xlink:href="#mbd3da64ad8" x="499.5" y="320.4" style="stroke: #000000; stroke-width: 0.8"/>
      </g>
     </g>
     <g id="text_7">
      <!-- 2022 -->
      <g transform="translate(484.23 336.518125) scale(0.12 -0.12)">
       <use xlink:href="#DejaVuSans-32"/>
       <use xlink:href="#DejaVuSans-30" x="63.623047"/>
       <use xlink:href="#DejaVuSans-32" x="127.246094"/>
       <use xlink:href="#DejaVuSans-32" x="190.869141"/>
      </g>
     </g>
    </g>
    <g id="xtick_8">
     <g id="line2d_8">
      <g>
       <use xlink:href="#mbd3da64ad8" x="560.372727" y="320.4" style="stroke: #000000; stroke-width: 0.8"/>
      </g>
     </g>
     <g id="text_8">
      <!-- 2024 -->
      <g transform="translate(545.102727 336.518125) scale(0.12 -0.12)">
       <use xlink:href="#DejaVuSans-32"/>
       <use xlink:href="#DejaVuSans-30" x="63.623047"/>
       <use xlink:href="#DejaVuSans-32" x="127.246094"/>
       <use xlink:href="#DejaVuSans-34" x="190.869141"/>
      </g>
     </g>
    </g>
    <g id="text_9">
     <!-- Year -->
     <g transform="translate(316.21875 354.411406) scale(0.15 -0.15)">
      <defs>
       <path id="DejaVuSans-59" d="M -13 4666 
L 666 4666 
L 1959 2747 
L 3244 4666 
L 3922 4666 
L 2272 2222 
L 2272 0 
L 1638 0 
L 1638 2222 
L -13 4666 
z
" transform="scale(0.015625)"/>
       <path id="DejaVuSans-65" d="M 3597 1894 
L 3597 1613 
L 953 1613 
Q 991 1019 1311 708 
Q 1631 397 2203 397 
Q 2534 397 2845 478 
Q 3156 559 3463 722 
L 3463 178 
Q 3153 47 2828 -22 
Q 2503 -91 2169 -91 
Q 1331 -91 842 396 
Q 353 884 353 1716 
Q 353 2575 817 3079 
Q 1281 3584 2069 3584 
Q 2775 3584 3186 3129 
Q 3597 2675 3597 1894 
z
M 3022 2063 
Q 3016 2534 2758 2815 
Q 2500 3097 2075 3097 
Q 1594 3097 1305 2825 
Q 1016 2553 972 2059 
L 3022 2063 
z
" transform="scale(0.015625)"/>
       <path id="DejaVuSans-61" d="M 2194 1759 
Q 1497 1759 1228 1600 
Q 959 1441 959 1056 
Q 959 750 1161 570 
Q 1363 391 1709 391 
Q 2188 391 2477 730 
Q 2766 1069 2766 1631 
L 2766 1759 
L 2194 1759 
z
M 3341 1997 
L 3341 0 
L 2766 0 
L 2766 531 
Q 2569 213 2275 61 
Q 1981 -91 1556 -91 
Q 1019 -91 701 211 
Q 384 513 384 1019 
Q 384 1609 779 1909 
Q 1175 2209 1959 2209 
L 2766 2209 
L 2766 2266 
Q 2766 2663 2505 2880 
Q 2244 3097 1772 3097 
Q 1472 3097 1187 3025 
Q 903 2953 641 2809 
L 641 3341 
Q 956 3463 1253 3523 
Q 1550 3584 1831 3584 
Q 2591 3584 2966 3190 
Q 3341 2797 3341 1997 
z
" transform="scale(0.015625)"/>
       <path id="DejaVuSans-72" d="M 2631 2963 
Q 2534 3019 2420 3045 
Q 2306 3072 2169 3072 
Q 1681 3072 1420 2755 
Q 1159 2438 1159 1844 
L 1159 0 
L 581 0 
L 581 3500 
L 1159 3500 
L 1159 2956 
Q 1341 3275 1631 3429 
Q 1922 3584 2338 3584 
Q 2397 3584 2469 3576 
Q 2541 3569 2628 3553 
L 2631 2963 
z
" transform="scale(0.015625)"/>
      </defs>
      <use xlink:href="#DejaVuSans-59"/>
      <use xlink:href="#DejaVuSans-65" x="47.833984"/>
      <use xlink:href="#DejaVuSans-61" x="109.357422"/>
      <use xlink:href="#DejaVuSans-72" x="170.636719"/>
     </g>
    </g>
   </g>
   <g id="matplotlib.axis_2">
    <g id="ytick_1">
     <g id="line2d_9">
      <defs>
       <path id="ma4168b068d" d="M 0 0 
L -3.5 0 
" style="stroke: #000000; stroke-width: 0.8"/>
      </defs>
      <g>
       <use xlink:href="#ma4168b068d" x="81" y="318.201352" style="stroke: #000000; stroke-width: 0.8"/>
      </g>
     </g>
     <g id="text_10">
      <!-- 10 -->
      <g transform="translate(58.73 322.760414) scale(0.12 -0.12)">
       <use xlink:href="#DejaVuSans-31"/>
       <use xlink:href="#DejaVuSans-30" x="63.623047"/>
      </g>
     </g>
    </g>
    <g id="ytick_2">
     <g id="line2d_10">
      <g>
       <use xlink:href="#ma4168b068d" x="81" y="283.846684" style="stroke: #000000; stroke-width: 0.8"/>
      </g>
     </g>
     <g id="text_11">
      <!-- 15 -->
      <g transform="translate(58.73 288.405746) scale(0.12 -0.12)">
       <defs>
        <path id="DejaVuSans-35" d="M 691 4666 
L 3169 4666 
L 3169 4134 
L 1269 4134 
L 1269 2991 
Q 1406 3038 1543 3061 
Q 1681 3084 1819 3084 
Q 2600 3084 3056 2656 
Q 3513 2228 3513 1497 
Q 3513 744 3044 326 
Q 2575 -91 1722 -91 
Q 1428 -91 1123 -41 
Q 819 9 494 109 
L 494 744 
Q 775 591 1075 516 
Q 1375 441 1709 441 
Q 2250 441 2565 725 
Q 2881 1009 2881 1497 
Q 2881 1984 2565 2268 
Q 2250 2553 1709 2553 
Q 1456 2553 1204 2497 
Q 953 2441 691 2322 
L 691 4666 
z
" transform="scale(0.015625)"/>
       </defs>
       <use xlink:href="#DejaVuSans-31"/>
       <use xlink:href="#DejaVuSans-35" x="63.623047"/>
      </g>
     </g>
    </g>
    <g id="ytick_3">
     <g id="line2d_11">
      <g>
       <use xlink:href="#ma4168b068d" x="81" y="249.492016" style="stroke: #000000; stroke-width: 0.8"/>
      </g>
     </g>
     <g id="text_12">
      <!-- 20 -->
      <g transform="translate(58.73 254.051078) scale(0.12 -0.12)">
       <use xlink:href="#DejaVuSans-32"/>
       <use xlink:href="#DejaVuSans-30" x="63.623047"/>
      </g>
     </g>
    </g>
    <g id="ytick_4">
     <g id="line2d_12">
      <g>
       <use xlink:href="#ma4168b068d" x="81" y="215.137348" style="stroke: #000000; stroke-width: 0.8"/>
      </g>
     </g>
     <g id="text_13">
      <!-- 25 -->
      <g transform="translate(58.73 219.696411) scale(0.12 -0.12)">
       <use xlink:href="#DejaVuSans-32"/>
       <use xlink:href="#DejaVuSans-35" x="63.623047"/>
      </g>
     </g>
    </g>
    <g id="ytick_5">
     <g id="line2d_13">
      <g>
       <use xlink:href="#ma4168b068d" x="81" y="180.78268" style="stroke: #000000; stroke-width: 0.8"/>
      </g>
     </g>
     <g id="text_14">
      <!-- 30 -->
      <g transform="translate(58.73 185.341743) scale(0.12 -0.12)">
       <defs>
        <path id="DejaVuSans-33" d="M 2597 2516 
Q 3050 2419 3304 2112 
Q 3559 1806 3559 1356 
Q 3559 666 3084 287 
Q 2609 -91 1734 -91 
Q 1441 -91 1130 -33 
Q 819 25 488 141 
L 488 750 
Q 750 597 1062 519 
Q 1375 441 1716 441 
Q 2309 441 2620 675 
Q 2931 909 2931 1356 
Q 2931 1769 2642 2001 
Q 2353 2234 1838 2234 
L 1294 2234 
L 1294 2753 
L 1863 2753 
Q 2328 2753 2575 2939 
Q 2822 3125 2822 3475 
Q 2822 3834 2567 4026 
Q 2313 4219 1838 4219 
Q 1578 4219 1281 4162 
Q 984 4106 628 3988 
L 628 4550 
Q 988 4650 1302 4700 
Q 1616 4750 1894 4750 
Q 2613 4750 3031 4423 
Q 3450 4097 3450 3541 
Q 3450 3153 3228 2886 
Q 3006 2619 2597 2516 
z
" transform="scale(0.015625)"/>
       </defs>
       <use xlink:href="#DejaVuSans-33"/>
       <use xlink:href="#DejaVuSans-30" x="63.623047"/>
      </g>
     </g>
    </g>
    <g id="ytick_6">
     <g id="line2d_14">
      <g>
       <use xlink:href="#ma4168b068d" x="81" y="146.428012" style="stroke: #000000; stroke-width: 0.8"/>
      </g>
     </g>
     <g id="text_15">
      <!-- 35 -->
      <g transform="translate(58.73 150.987075) scale(0.12 -0.12)">
       <use xlink:href="#DejaVuSans-33"/>
       <use xlink:href="#DejaVuSans-35" x="63.623047"/>
      </g>
     </g>
    </g>
    <g id="ytick_7">
     <g id="line2d_15">
      <g>
       <use xlink:href="#ma4168b068d" x="81" y="112.073344" style="stroke: #000000; stroke-width: 0.8"/>
      </g>
     </g>
     <g id="text_16">
      <!-- 40 -->
      <g transform="translate(58.73 116.632407) scale(0.12 -0.12)">
       <use xlink:href="#DejaVuSans-34"/>
       <use xlink:href="#DejaVuSans-30" x="63.623047"/>
      </g>
     </g>
    </g>
    <g id="ytick_8">
     <g id="line2d_16">
      <g>
       <use xlink:href="#ma4168b068d" x="81" y="77.718677" style="stroke: #000000; stroke-width: 0.8"/>
      </g>
     </g>
     <g id="text_17">
      <!-- 45 -->
      <g transform="translate(58.73 82.277739) scale(0.12 -0.12)">
       <use xlink:href="#DejaVuSans-34"/>
       <use xlink:href="#DejaVuSans-35" x="63.623047"/>
      </g>
     </g>
    </g>
    <g id="ytick_9">
     <g id="line2d_17">
      <g>
       <use xlink:href="#ma4168b068d" x="81" y="43.364009" style="stroke: #000000; stroke-width: 0.8"/>
      </g>
     </g>
     <g id="text_18">
      <!-- 50 -->
      <g transform="translate(58.73 47.923071) scale(0.12 -0.12)">
       <use xlink:href="#DejaVuSans-35"/>
       <use xlink:href="#DejaVuSans-30" x="63.623047"/>
      </g>
     </g>
    </g>
    <g id="text_19">
     <!-- Total coral cover (%) -->
     <g transform="translate(51.610469 258.769922) rotate(-90) scale(0.15 -0.15)">
      <defs>
       <path id="DejaVuSans-54" d="M -19 4666 
L 3928 4666 
L 3928 4134 
L 2272 4134 
L 2272 0 
L 1638 0 
L 1638 4134 
L -19 4134 
L -19 4666 
z
" transform="scale(0.015625)"/>
       <path id="DejaVuSans-6f" d="M 1959 3097 
Q 1497 3097 1228 2736 
Q 959 2375 959 1747 
Q 959 1119 1226 758 
Q 1494 397 1959 397 
Q 2419 397 2687 759 
Q 2956 1122 2956 1747 
Q 2956 2369 2687 2733 
Q 2419 3097 1959 3097 
z
M 1959 3584 
Q 2709 3584 3137 3096 
Q 3566 2609 3566 1747 
Q 3566 888 3137 398 
Q 2709 -91 1959 -91 
Q 1206 -91 779 398 
Q 353 888 353 1747 
Q 353 2609 779 3096 
Q 1206 3584 1959 3584 
z
" transform="scale(0.015625)"/>
       <path id="DejaVuSans-74" d="M 1172 4494 
L 1172 3500 
L 2356 3500 
L 2356 3053 
L 1172 3053 
L 1172 1153 
Q 1172 725 1289 603 
Q 1406 481 1766 481 
L 2356 481 
L 2356 0 
L 1766 0 
Q 1100 0 847 248 
Q 594 497 594 1153 
L 594 3053 
L 172 3053 
L 172 3500 
L 594 3500 
L 594 4494 
L 1172 4494 
z
" transform="scale(0.015625)"/>
       <path id="DejaVuSans-6c" d="M 603 4863 
L 1178 4863 
L 1178 0 
L 603 0 
L 603 4863 
z
" transform="scale(0.015625)"/>
       <path id="DejaVuSans-20" transform="scale(0.015625)"/>
       <path id="DejaVuSans-63" d="M 3122 3366 
L 3122 2828 
Q 2878 2963 2633 3030 
Q 2388 3097 2138 3097 
Q 1578 3097 1268 2742 
Q 959 2388 959 1747 
Q 959 1106 1268 751 
Q 1578 397 2138 397 
Q 2388 397 2633 464 
Q 2878 531 3122 666 
L 3122 134 
Q 2881 22 2623 -34 
Q 2366 -91 2075 -91 
Q 1284 -91 818 406 
Q 353 903 353 1747 
Q 353 2603 823 3093 
Q 1294 3584 2113 3584 
Q 2378 3584 2631 3529 
Q 2884 3475 3122 3366 
z
" transform="scale(0.015625)"/>
       <path id="DejaVuSans-76" d="M 191 3500 
L 800 3500 
L 1894 563 
L 2988 3500 
L 3597 3500 
L 2284 0 
L 1503 0 
L 191 3500 
z
" transform="scale(0.015625)"/>
       <path id="DejaVuSans-28" d="M 1984 4856 
Q 1566 4138 1362 3434 
Q 1159 2731 1159 2009 
Q 1159 1288 1364 580 
Q 1569 -128 1984 -844 
L 1484 -844 
Q 1016 -109 783 600 
Q 550 1309 550 2009 
Q 550 2706 781 3412 
Q 1013 4119 1484 4856 
L 1984 4856 
z
" transform="scale(0.015625)"/>
       <path id="DejaVuSans-25" d="M 4653 2053 
Q 4381 2053 4226 1822 
Q 4072 1591 4072 1178 
Q 4072 772 4226 539 
Q 4381 306 4653 306 
Q 4919 306 5073 539 
Q 5228 772 5228 1178 
Q 5228 1588 5073 1820 
Q 4919 2053 4653 2053 
z
M 4653 2450 
Q 5147 2450 5437 2106 
Q 5728 1763 5728 1178 
Q 5728 594 5436 251 
Q 5144 -91 4653 -91 
Q 4153 -91 3862 251 
Q 3572 594 3572 1178 
Q 3572 1766 3864 2108 
Q 4156 2450 4653 2450 
z
M 1428 4353 
Q 1159 4353 1004 4120 
Q 850 3888 850 3481 
Q 850 3069 1003 2837 
Q 1156 2606 1428 2606 
Q 1700 2606 1854 2837 
Q 2009 3069 2009 3481 
Q 2009 3884 1853 4118 
Q 1697 4353 1428 4353 
z
M 4250 4750 
L 4750 4750 
L 1831 -91 
L 1331 -91 
L 4250 4750 
z
M 1428 4750 
Q 1922 4750 2215 4408 
Q 2509 4066 2509 3481 
Q 2509 2891 2217 2550 
Q 1925 2209 1428 2209 
Q 931 2209 642 2551 
Q 353 2894 353 3481 
Q 353 4063 643 4406 
Q 934 4750 1428 4750 
z
" transform="scale(0.015625)"/>
       <path id="DejaVuSans-29" d="M 513 4856 
L 1013 4856 
Q 1481 4119 1714 3412 
Q 1947 2706 1947 2009 
Q 1947 1309 1714 600 
Q 1481 -109 1013 -844 
L 513 -844 
Q 928 -128 1133 580 
Q 1338 1288 1338 2009 
Q 1338 2731 1133 3434 
Q 928 4138 513 4856 
z
" transform="scale(0.015625)"/>
      </defs>
      <use xlink:href="#DejaVuSans-54"/>
      <use xlink:href="#DejaVuSans-6f" x="44.083984"/>
      <use xlink:href="#DejaVuSans-74" x="105.265625"/>
      <use xlink:href="#DejaVuSans-61" x="144.474609"/>
      <use xlink:href="#DejaVuSans-6c" x="205.753906"/>
      <use xlink:href="#DejaVuSans-20" x="233.537109"/>
      <use xlink:href="#DejaVuSans-63" x="265.324219"/>
      <use xlink:href="#DejaVuSans-6f" x="320.304688"/>
      <use xlink:href="#DejaVuSans-72" x="381.486328"/>
      <use xlink:href="#DejaVuSans-61" x="422.599609"/>
      <use xlink:href="#DejaVuSans-6c" x="483.878906"/>
      <use xlink:href="#DejaVuSans-20" x="511.662109"/>
      <use xlink:href="#DejaVuSans-63" x="543.449219"/>
      <use xlink:href="#DejaVuSans-6f" x="598.429688"/>
      <use xlink:href="#DejaVuSans-76" x="659.611328"/>
      <use xlink:href="#DejaVuSans-65" x="718.791016"/>
      <use xlink:href="#DejaVuSans-72" x="780.314453"/>
      <use xlink:href="#DejaVuSans-20" x="821.427734"/>
      <use xlink:href="#DejaVuSans-28" x="853.214844"/>
      <use xlink:href="#DejaVuSans-25" x="892.228516"/>
      <use xlink:href="#DejaVuSans-29" x="987.248047"/>
     </g>
    </g>
   </g>
   <g id="line2d_18">
    <path d="M 103.827273 190.401987 
L 134.263636 198.519918 
L 164.7 306.237197 
L 195.136364 301.26008 
L 225.572727 294.416747 
L 256.009091 285.542674 
L 286.445455 274.351311 
L 316.881818 258.862713 
L 347.318182 238.75161 
L 377.754545 211.749145 
L 408.190909 183.269276 
L 438.627273 152.495794 
L 469.063636 121.444195 
L 499.5 92.237428 
L 529.936364 66.776788 
L 560.372727 176.963359 
" clip-path="url(#p927c77cab1)" style="fill: none; stroke-dasharray: 3.7,1.6; stroke-dashoffset: 0; stroke: #1f77b4; stroke-opacity: 0.6"/>
   </g>
   <g id="line2d_19">
    <path d="M 103.827273 190.401987 
L 134.263636 198.733549 
L 164.7 307.042006 
L 195.136364 304.31479 
L 225.572727 298.63054 
L 256.009091 289.541622 
L 286.445455 279.129435 
L 316.881818 263.634698 
L 347.318182 244.230863 
L 377.754545 219.00436 
L 408.190909 188.365317 
L 438.627273 154.87231 
L 469.063636 122.421351 
L 499.5 92.767491 
L 529.936364 67.019626 
L 560.372727 177.881492 
" clip-path="url(#p927c77cab1)" style="fill: none; stroke-dasharray: 3.7,1.6; stroke-dashoffset: 0; stroke: #ff7f0e; stroke-opacity: 0.6"/>
   </g>
   <g id="line2d_20">
    <path d="M 103.827273 190.401987 
L 134.263636 198.902187 
L 164.7 304.88047 
L 195.136364 302.338959 
L 225.572727 295.798432 
L 256.009091 288.26112 
L 286.445455 278.391542 
L 316.881818 264.274848 
L 347.318182 244.808887 
L 377.754545 220.149413 
L 408.190909 192.582146 
L 438.627273 161.932242 
L 469.063636 130.570078 
L 499.5 100.182912 
L 529.936364 74.153894 
L 560.372727 180.575114 
" clip-path="url(#p927c77cab1)" style="fill: none; stroke-dasharray: 3.7,1.6; stroke-dashoffset: 0; stroke: #2ca02c; stroke-opacity: 0.6"/>
   </g>
   <g id="line2d_21">
    <path d="M 103.827273 190.401987 
L 134.263636 197.850222 
L 164.7 304.115932 
L 195.136364 299.557645 
L 225.572727 293.109262 
L 256.009091 284.076399 
L 286.445455 271.086883 
L 316.881818 252.14606 
L 347.318182 229.362381 
L 377.754545 203.099158 
L 408.190909 174.346568 
L 438.627273 143.382457 
L 469.063636 112.697747 
L 499.5 85.431127 
L 529.936364 61.329171 
L 560.372727 174.249972 
" clip-path="url(#p927c77cab1)" style="fill: none; stroke-dasharray: 3.7,1.6; stroke-dashoffset: 0; stroke: #d62728; stroke-opacity: 0.6"/>
   </g>
   <g id="line2d_22">
    <path d="M 103.827273 190.401987 
L 134.263636 198.53179 
L 164.7 304.66259 
L 195.136364 301.347502 
L 225.572727 296.436357 
L 256.009091 287.011781 
L 286.445455 274.935676 
L 316.881818 258.935025 
L 347.318182 240.465242 
L 377.754545 216.556207 
L 408.190909 189.300583 
L 438.627273 159.149309 
L 469.063636 127.135055 
L 499.5 97.168608 
L 529.936364 71.716804 
L 560.372727 178.684546 
" clip-path="url(#p927c77cab1)" style="fill: none; stroke-dasharray: 3.7,1.6; stroke-dashoffset: 0; stroke: #9467bd; stroke-opacity: 0.6"/>
   </g>
   <g id="line2d_23">
    <path d="M 103.827273 190.401987 
L 134.263636 198.034982 
L 164.7 303.624386 
L 195.136364 299.243034 
L 225.572727 294.493444 
L 256.009091 286.400637 
L 286.445455 275.653804 
L 316.881818 259.836969 
L 347.318182 241.353763 
L 377.754545 218.062348 
L 408.190909 190.228228 
L 438.627273 159.523011 
L 469.063636 127.649334 
L 499.5 99.149296 
L 529.936364 72.568899 
L 560.372727 179.270732 
" clip-path="url(#p927c77cab1)" style="fill: none; stroke-dasharray: 3.7,1.6; stroke-dashoffset: 0; stroke: #8c564b; stroke-opacity: 0.6"/>
   </g>
   <g id="line2d_24">
    <path d="M 103.827273 190.401987 
L 134.263636 198.055421 
L 164.7 305.102128 
L 195.136364 299.741528 
L 225.572727 290.557161 
L 256.009091 281.463858 
L 286.445455 268.268738 
L 316.881818 250.903198 
L 347.318182 227.970038 
L 377.754545 201.104507 
L 408.190909 169.327359 
L 438.627273 137.324033 
L 469.063636 105.756873 
L 499.5 78.113516 
L 529.936364 55.8 
L 560.372727 171.217792 
" clip-path="url(#p927c77cab1)" style="fill: none; stroke-dasharray: 3.7,1.6; stroke-dashoffset: 0; stroke: #e377c2; stroke-opacity: 0.6"/>
   </g>
   <g id="line2d_25">
    <path d="M 103.827273 190.401987 
L 134.263636 198.141629 
L 164.7 303.067813 
L 195.136364 299.983625 
L 225.572727 293.557637 
L 256.009091 287.280253 
L 286.445455 276.393923 
L 316.881818 262.646681 
L 347.318182 243.538705 
L 377.754545 220.327157 
L 408.190909 193.159697 
L 438.627273 163.16222 
L 469.063636 131.724709 
L 499.5 101.942482 
L 529.936364 74.739406 
L 560.372727 180.561691 
" clip-path="url(#p927c77cab1)" style="fill: none; stroke-dasharray: 3.7,1.6; stroke-dashoffset: 0; stroke: #7f7f7f; stroke-opacity: 0.6"/>
   </g>
   <g id="line2d_26">
    <path d="M 103.827273 190.401987 
L 134.263636 197.684485 
L 164.7 306.21723 
L 195.136364 303.409137 
L 225.572727 299.600547 
L 256.009091 293.281408 
L 286.445455 283.163595 
L 316.881818 268.46166 
L 347.318182 250.401601 
L 377.754545 227.606521 
L 408.190909 200.61856 
L 438.627273 170.593359 
L 469.063636 138.744775 
L 499.5 108.979344 
L 529.936364 81.637513 
L 560.372727 184.639427 
" clip-path="url(#p927c77cab1)" style="fill: none; stroke-dasharray: 3.7,1.6; stroke-dashoffset: 0; stroke: #bcbd22; stroke-opacity: 0.6"/>
   </g>
   <g id="line2d_27">
    <path d="M 103.827273 190.401987 
L 134.263636 198.333809 
L 164.7 306.143299 
L 195.136364 303.141609 
L 225.572727 296.75171 
L 256.009091 290.026963 
L 286.445455 280.299581 
L 316.881818 265.557172 
L 347.318182 245.599193 
L 377.754545 220.514143 
L 408.190909 193.505473 
L 438.627273 163.267788 
L 469.063636 129.925611 
L 499.5 100.198899 
L 529.936364 74.121178 
L 560.372727 180.745641 
" clip-path="url(#p927c77cab1)" style="fill: none; stroke-dasharray: 3.7,1.6; stroke-dashoffset: 0; stroke: #17becf; stroke-opacity: 0.6"/>
   </g>
   <g id="line2d_28">
    <path d="M 103.827273 190.401987 
L 134.263636 198.906639 
L 164.7 305.628346 
L 195.136364 303.770292 
L 225.572727 299.680346 
L 256.009091 293.147172 
L 286.445455 282.13153 
L 316.881818 268.641833 
L 347.318182 251.638325 
L 377.754545 229.411353 
L 408.190909 204.658656 
L 438.627273 176.120573 
L 469.063636 144.351047 
L 499.5 113.479958 
L 529.936364 85.37487 
L 560.372727 185.827381 
" clip-path="url(#p927c77cab1)" style="fill: none; stroke-dasharray: 3.7,1.6; stroke-dashoffset: 0; stroke: #1f77b4; stroke-opacity: 0.6"/>
   </g>
   <g id="line2d_29">
    <path d="M 103.827273 190.401987 
L 134.263636 198.582044 
L 164.7 305.959349 
L 195.136364 303.694405 
L 225.572727 298.041589 
L 256.009091 291.098692 
L 286.445455 278.753507 
L 316.881818 265.123098 
L 347.318182 247.106682 
L 377.754545 221.762065 
L 408.190909 193.032409 
L 438.627273 161.695946 
L 469.063636 129.829217 
L 499.5 99.489 
L 529.936364 72.41301 
L 560.372727 180.440743 
" clip-path="url(#p927c77cab1)" style="fill: none; stroke-dasharray: 3.7,1.6; stroke-dashoffset: 0; stroke: #ff7f0e; stroke-opacity: 0.6"/>
   </g>
   <g id="line2d_30">
    <path d="M 103.827273 190.401987 
L 134.263636 198.789671 
L 164.7 305.168436 
L 195.136364 302.323242 
L 225.572727 297.405823 
L 256.009091 288.894794 
L 286.445455 277.461604 
L 316.881818 261.954456 
L 347.318182 243.584237 
L 377.754545 219.722489 
L 408.190909 189.663425 
L 438.627273 158.96293 
L 469.063636 127.106926 
L 499.5 97.730577 
L 529.936364 71.320235 
L 560.372727 179.807474 
" clip-path="url(#p927c77cab1)" style="fill: none; stroke-dasharray: 3.7,1.6; stroke-dashoffset: 0; stroke: #2ca02c; stroke-opacity: 0.6"/>
   </g>
   <g id="line2d_31">
    <path d="M 103.827273 190.401987 
L 134.263636 198.603967 
L 164.7 304.279714 
L 195.136364 300.525223 
L 225.572727 294.96273 
L 256.009091 287.302851 
L 286.445455 277.839016 
L 316.881818 263.343157 
L 347.318182 244.451982 
L 377.754545 221.470119 
L 408.190909 195.831532 
L 438.627273 167.40104 
L 469.063636 136.534942 
L 499.5 106.717975 
L 529.936364 81.168631 
L 560.372727 182.804172 
" clip-path="url(#p927c77cab1)" style="fill: none; stroke-dasharray: 3.7,1.6; stroke-dashoffset: 0; stroke: #d62728; stroke-opacity: 0.6"/>
   </g>
   <g id="line2d_32">
    <path d="M 103.827273 190.401987 
L 134.263636 197.023963 
L 164.7 305.356367 
L 195.136364 302.724668 
L 225.572727 298.091033 
L 256.009091 290.258199 
L 286.445455 280.323055 
L 316.881818 266.672005 
L 347.318182 248.827465 
L 377.754545 224.389176 
L 408.190909 194.581856 
L 438.627273 163.87104 
L 469.063636 130.933797 
L 499.5 100.579077 
L 529.936364 74.044819 
L 560.372727 181.067537 
" clip-path="url(#p927c77cab1)" style="fill: none; stroke-dasharray: 3.7,1.6; stroke-dashoffset: 0; stroke: #9467bd; stroke-opacity: 0.6"/>
   </g>
   <g id="line2d_33">
    <path d="M 103.827273 190.401987 
L 134.263636 197.455744 
L 164.7 302.628477 
L 195.136364 299.164921 
L 225.572727 293.339082 
L 256.009091 286.117932 
L 286.445455 275.537107 
L 316.881818 259.704419 
L 347.318182 241.033553 
L 377.754545 216.634658 
L 408.190909 187.686312 
L 438.627273 156.005153 
L 469.063636 124.486898 
L 499.5 94.749798 
L 529.936364 68.994783 
L 560.372727 178.455536 
" clip-path="url(#p927c77cab1)" style="fill: none; stroke-dasharray: 3.7,1.6; stroke-dashoffset: 0; stroke: #8c564b; stroke-opacity: 0.6"/>
   </g>
   <g id="line2d_34">
    <path d="M 103.827273 190.401987 
L 134.263636 198.356946 
L 164.7 306.190248 
L 195.136364 303.309573 
L 225.572727 299.57262 
L 256.009091 292.597749 
L 286.445455 282.755761 
L 316.881818 269.816768 
L 347.318182 252.480908 
L 377.754545 228.512985 
L 408.190909 200.777687 
L 438.627273 169.704164 
L 469.063636 136.588839 
L 499.5 106.053946 
L 529.936364 79.082241 
L 560.372727 183.7418 
" clip-path="url(#p927c77cab1)" style="fill: none; stroke-dasharray: 3.7,1.6; stroke-dashoffset: 0; stroke: #e377c2; stroke-opacity: 0.6"/>
   </g>
   <g id="line2d_35">
    <path d="M 103.827273 190.401987 
L 134.263636 198.82947 
L 164.7 301.470338 
L 195.136364 297.869578 
L 225.572727 291.701134 
L 256.009091 280.418707 
L 286.445455 267.34224 
L 316.881818 252.115773 
L 347.318182 231.086334 
L 377.754545 205.714802 
L 408.190909 177.690728 
L 438.627273 148.094138 
L 469.063636 118.269144 
L 499.5 91.037399 
L 529.936364 66.900838 
L 560.372727 176.492251 
" clip-path="url(#p927c77cab1)" style="fill: none; stroke-dasharray: 3.7,1.6; stroke-dashoffset: 0; stroke: #7f7f7f; stroke-opacity: 0.6"/>
   </g>
   <g id="line2d_36">
    <path d="M 103.827273 190.401987 
L 134.263636 198.419005 
L 164.7 305.679747 
L 195.136364 300.307275 
L 225.572727 294.054108 
L 256.009091 285.516838 
L 286.445455 273.93039 
L 316.881818 257.112722 
L 347.318182 236.934163 
L 377.754545 212.138025 
L 408.190909 182.200043 
L 438.627273 151.25509 
L 469.063636 120.549603 
L 499.5 91.741969 
L 529.936364 66.936454 
L 560.372727 177.150682 
" clip-path="url(#p927c77cab1)" style="fill: none; stroke-dasharray: 3.7,1.6; stroke-dashoffset: 0; stroke: #bcbd22; stroke-opacity: 0.6"/>
   </g>
   <g id="line2d_37">
    <path d="M 103.827273 190.401987 
L 134.263636 198.763836 
L 164.7 306.886656 
L 195.136364 304.174281 
L 225.572727 298.109584 
L 256.009091 291.905658 
L 286.445455 282.696333 
L 316.881818 269.797004 
L 347.318182 252.316452 
L 377.754545 230.222165 
L 408.190909 203.312519 
L 438.627273 173.225664 
L 469.063636 140.906243 
L 499.5 109.643711 
L 529.936364 81.857079 
L 560.372727 185.797161 
" clip-path="url(#p927c77cab1)" style="fill: none; stroke-dasharray: 3.7,1.6; stroke-dashoffset: 0; stroke: #17becf; stroke-opacity: 0.6"/>
   </g>
   <g id="line2d_38">
    <path d="M 103.827273 190.401987 
L 134.263636 199.150557 
L 164.7 304.789271 
L 195.136364 301.0907 
L 225.572727 294.160754 
L 256.009091 286.310584 
L 286.445455 274.04466 
L 316.881818 259.373214 
L 347.318182 240.654319 
L 377.754545 215.534058 
L 408.190909 188.218129 
L 438.627273 157.975048 
L 469.063636 126.625633 
L 499.5 97.574216 
L 529.936364 72.270274 
L 560.372727 178.746808 
" clip-path="url(#p927c77cab1)" style="fill: none; stroke-dasharray: 3.7,1.6; stroke-dashoffset: 0; stroke: #1f77b4; stroke-opacity: 0.6"/>
   </g>
   <g id="line2d_39">
    <path d="M 103.827273 190.401987 
L 134.263636 198.046652 
L 164.7 304.8659 
L 195.136364 302.389753 
L 225.572727 296.966285 
L 256.009091 288.722783 
L 286.445455 278.808955 
L 316.881818 262.706852 
L 347.318182 243.666398 
L 377.754545 218.752482 
L 408.190909 189.560556 
L 438.627273 158.005538 
L 469.063636 126.120866 
L 499.5 95.996775 
L 529.936364 69.446194 
L 560.372727 178.394286 
" clip-path="url(#p927c77cab1)" style="fill: none; stroke-dasharray: 3.7,1.6; stroke-dashoffset: 0; stroke: #ff7f0e; stroke-opacity: 0.6"/>
   </g>
   <g id="line2d_40">
    <path d="M 103.827273 190.401987 
L 134.263636 198.50609 
L 164.7 304.912039 
L 195.136364 301.088811 
L 225.572727 294.854059 
L 256.009091 285.970812 
L 286.445455 274.490336 
L 316.881818 257.771894 
L 347.318182 236.011376 
L 377.754545 211.19952 
L 408.190909 182.079163 
L 438.627273 151.425954 
L 469.063636 120.61544 
L 499.5 90.846164 
L 529.936364 65.768737 
L 560.372727 176.118347 
" clip-path="url(#p927c77cab1)" style="fill: none; stroke-dasharray: 3.7,1.6; stroke-dashoffset: 0; stroke: #2ca02c; stroke-opacity: 0.6"/>
   </g>
   <g id="line2d_41">
    <path d="M 103.827273 190.401987 
L 134.263636 198.932811 
L 164.7 306.09291 
L 195.136364 299.946929 
L 225.572727 294.333844 
L 256.009091 284.574354 
L 286.445455 272.411164 
L 316.881818 256.374357 
L 347.318182 234.526012 
L 377.754545 208.956566 
L 408.190909 179.450298 
L 438.627273 148.272759 
L 469.063636 116.506674 
L 499.5 88.902846 
L 529.936364 64.414505 
L 560.372727 175.675166 
" clip-path="url(#p927c77cab1)" style="fill: none; stroke-dasharray: 3.7,1.6; stroke-dashoffset: 0; stroke: #d62728; stroke-opacity: 0.6"/>
   </g>
   <g id="line2d_42">
    <path d="M 103.827273 190.401987 
L 134.263636 197.817102 
L 164.7 303.92382 
L 195.136364 299.951381 
L 225.572727 295.248065 
L 256.009091 288.395288 
L 286.445455 278.444562 
L 316.881818 266.035902 
L 347.318182 249.053373 
L 377.754545 227.089275 
L 408.190909 198.87329 
L 438.627273 170.888678 
L 469.063636 140.149531 
L 499.5 111.161251 
L 529.936364 84.111298 
L 560.372727 185.159911 
" clip-path="url(#p927c77cab1)" style="fill: none; stroke-dasharray: 3.7,1.6; stroke-dashoffset: 0; stroke: #9467bd; stroke-opacity: 0.6"/>
   </g>
   <g id="line2d_43">
    <path d="M 103.827273 190.401987 
L 134.263636 198.659483 
L 164.7 304.208279 
L 195.136364 301.104866 
L 225.572727 294.85669 
L 256.009091 286.210278 
L 286.445455 274.101524 
L 316.881818 257.157377 
L 347.318182 236.083553 
L 377.754545 212.97312 
L 408.190909 186.876512 
L 438.627273 156.659401 
L 469.063636 126.802973 
L 499.5 98.499769 
L 529.936364 73.008235 
L 560.372727 178.380795 
" clip-path="url(#p927c77cab1)" style="fill: none; stroke-dasharray: 3.7,1.6; stroke-dashoffset: 0; stroke: #8c564b; stroke-opacity: 0.6"/>
   </g>
   <g id="line2d_44">
    <path d="M 103.827273 190.401987 
L 134.263636 198.445515 
L 164.7 304.927689 
L 195.136364 303.108489 
L 225.572727 298.8723 
L 256.009091 290.907186 
L 286.445455 279.797714 
L 316.881818 265.396292 
L 347.318182 246.836254 
L 377.754545 223.87935 
L 408.190909 196.589526 
L 438.627273 165.357686 
L 469.063636 133.484751 
L 499.5 103.777871 
L 529.936364 77.179464 
L 560.372727 181.853188 
" clip-path="url(#p927c77cab1)" style="fill: none; stroke-dasharray: 3.7,1.6; stroke-dashoffset: 0; stroke: #e377c2; stroke-opacity: 0.6"/>
   </g>
   <g id="line2d_45">
    <path d="M 103.827273 190.401987 
L 134.263636 198.447943 
L 164.7 306.345328 
L 195.136364 302.393665 
L 225.572727 296.519664 
L 256.009091 286.554098 
L 286.445455 272.687528 
L 316.881818 256.413076 
L 347.318182 234.578762 
L 377.754545 206.873683 
L 408.190909 174.42576 
L 438.627273 142.754921 
L 469.063636 111.45367 
L 499.5 82.951271 
L 529.936364 59.282511 
L 560.372727 173.88052 
" clip-path="url(#p927c77cab1)" style="fill: none; stroke-dasharray: 3.7,1.6; stroke-dashoffset: 0; stroke: #7f7f7f; stroke-opacity: 0.6"/>
   </g>
   <g id="line2d_46">
    <path d="M 103.827273 190.401987 
L 134.263636 199.132277 
L 164.7 307.8 
L 195.136364 305.392927 
L 225.572727 299.058611 
L 256.009091 291.873617 
L 286.445455 279.58867 
L 316.881818 262.847428 
L 347.318182 242.333685 
L 377.754545 218.462155 
L 408.190909 189.854054 
L 438.627273 157.872044 
L 469.063636 126.107307 
L 499.5 95.561082 
L 529.936364 69.328956 
L 560.372727 178.489331 
" clip-path="url(#p927c77cab1)" style="fill: none; stroke-dasharray: 3.7,1.6; stroke-dashoffset: 0; stroke: #bcbd22; stroke-opacity: 0.6"/>
   </g>
   <g id="line2d_47">
    <path d="M 103.827273 190.401987 
L 134.263636 198.139808 
L 164.7 306.019114 
L 195.136364 303.17446 
L 225.572727 295.910071 
L 256.009091 289.593091 
L 286.445455 277.776013 
L 316.881818 264.190327 
L 347.318182 246.137013 
L 377.754545 222.107368 
L 408.190909 194.199317 
L 438.627273 162.409083 
L 469.063636 130.320831 
L 499.5 100.041594 
L 529.936364 73.782148 
L 560.372727 179.985825 
" clip-path="url(#p927c77cab1)" style="fill: none; stroke-dasharray: 3.7,1.6; stroke-dashoffset: 0; stroke: #17becf; stroke-opacity: 0.6"/>
   </g>
   <g id="line2d_48">
    <path d="M 103.827273 190.401987 
L 134.263636 198.550947 
L 164.7 306.771847 
L 195.136364 302.86855 
L 225.572727 299.10583 
L 256.009091 293.431631 
L 286.445455 282.46631 
L 316.881818 268.547058 
L 347.318182 250.914193 
L 377.754545 227.302635 
L 408.190909 200.162832 
L 438.627273 169.646152 
L 469.063636 137.299682 
L 499.5 105.341956 
L 529.936364 77.4306 
L 560.372727 183.08971 
" clip-path="url(#p927c77cab1)" style="fill: none; stroke-dasharray: 3.7,1.6; stroke-dashoffset: 0; stroke: #1f77b4; stroke-opacity: 0.6"/>
   </g>
   <g id="line2d_49">
    <path d="M 103.827273 190.401987 
L 134.263636 199.028868 
L 164.7 307.154116 
L 195.136364 305.014639 
L 225.572727 301.390134 
L 256.009091 295.747166 
L 286.445455 286.550792 
L 316.881818 275.427829 
L 347.318182 257.798809 
L 377.754545 236.459413 
L 408.190909 210.101619 
L 438.627273 181.375943 
L 469.063636 149.445199 
L 499.5 117.581775 
L 529.936364 88.356796 
L 560.372727 188.587649 
" clip-path="url(#p927c77cab1)" style="fill: none; stroke-dasharray: 3.7,1.6; stroke-dashoffset: 0; stroke: #ff7f0e; stroke-opacity: 0.6"/>
   </g>
   <g id="line2d_50">
    <path d="M 103.827273 190.401987 
L 134.263636 199.04472 
L 164.7 305.732092 
L 195.136364 303.15193 
L 225.572727 297.072594 
L 256.009091 287.492602 
L 286.445455 275.927942 
L 316.881818 259.765534 
L 347.318182 238.850769 
L 377.754545 214.263944 
L 408.190909 186.147861 
L 438.627273 154.750688 
L 469.063636 122.297166 
L 499.5 93.371957 
L 529.936364 68.622633 
L 560.372727 177.818893 
" clip-path="url(#p927c77cab1)" style="fill: none; stroke-dasharray: 3.7,1.6; stroke-dashoffset: 0; stroke: #2ca02c; stroke-opacity: 0.6"/>
   </g>
   <g id="line2d_51">
    <path d="M 103.827273 190.401987 
L 134.263636 198.606733 
L 164.7 306.414807 
L 195.136364 303.873903 
L 225.572727 298.902587 
L 256.009091 291.086752 
L 286.445455 279.509883 
L 316.881818 264.774354 
L 347.318182 245.432848 
L 377.754545 218.181879 
L 408.190909 188.417055 
L 438.627273 156.837078 
L 469.063636 124.967381 
L 499.5 94.34311 
L 529.936364 68.905338 
L 560.372727 179.562948 
" clip-path="url(#p927c77cab1)" style="fill: none; stroke-dasharray: 3.7,1.6; stroke-dashoffset: 0; stroke: #d62728; stroke-opacity: 0.6"/>
   </g>
   <g id="line2d_52">
    <path d="M 103.827273 190.401987 
L 134.263636 198.965055 
L 164.7 306.111865 
L 195.136364 303.053243 
L 225.572727 297.178836 
L 256.009091 288.060575 
L 286.445455 275.091295 
L 316.881818 258.148429 
L 347.318182 234.862276 
L 377.754545 208.191624 
L 408.190909 178.133639 
L 438.627273 145.673237 
L 469.063636 114.553103 
L 499.5 85.993704 
L 529.936364 61.659634 
L 560.372727 174.915823 
" clip-path="url(#p927c77cab1)" style="fill: none; stroke-dasharray: 3.7,1.6; stroke-dashoffset: 0; stroke: #9467bd; stroke-opacity: 0.6"/>
   </g>
   <g id="line2d_53">
    <path d="M 103.827273 190.401987 
L 134.263636 198.759991 
L 164.7 305.904306 
L 195.136364 301.956825 
L 225.572727 297.91565 
L 256.009091 291.874764 
L 286.445455 283.657705 
L 316.881818 271.968725 
L 347.318182 254.920292 
L 377.754545 233.848289 
L 408.190909 208.047674 
L 438.627273 176.827571 
L 469.063636 144.576348 
L 499.5 112.496325 
L 529.936364 84.87786 
L 560.372727 186.403786 
" clip-path="url(#p927c77cab1)" style="fill: none; stroke-dasharray: 3.7,1.6; stroke-dashoffset: 0; stroke: #8c564b; stroke-opacity: 0.6"/>
   </g>
   <g id="line2d_54">
    <path d="M 103.827273 190.401987 
L 134.263636 198.115389 
L 164.7 302.356363 
L 195.136364 299.358989 
L 225.572727 292.294673 
L 256.009091 284.586496 
L 286.445455 273.875684 
L 316.881818 256.56222 
L 347.318182 238.031188 
L 377.754545 214.89175 
L 408.190909 188.059407 
L 438.627273 158.617829 
L 469.063636 127.955378 
L 499.5 99.20643 
L 529.936364 73.128305 
L 560.372727 179.773813 
" clip-path="url(#p927c77cab1)" style="fill: none; stroke-dasharray: 3.7,1.6; stroke-dashoffset: 0; stroke: #e377c2; stroke-opacity: 0.6"/>
   </g>
   <g id="line2d_55">
    <path d="M 103.827273 190.401987 
L 134.263636 198.415295 
L 164.7 305.367902 
L 195.136364 300.571835 
L 225.572727 295.11646 
L 256.009091 286.684151 
L 286.445455 275.835326 
L 316.881818 261.962888 
L 347.318182 241.262833 
L 377.754545 218.508227 
L 408.190909 191.25321 
L 438.627273 161.453512 
L 469.063636 130.962533 
L 499.5 100.957771 
L 529.936364 75.050914 
L 560.372727 180.933301 
" clip-path="url(#p927c77cab1)" style="fill: none; stroke-dasharray: 3.7,1.6; stroke-dashoffset: 0; stroke: #7f7f7f; stroke-opacity: 0.6"/>
   </g>
   <g id="line2d_56">
    <path d="M 103.827273 190.401987 
L 134.263636 197.984796 
L 164.7 305.199061 
L 195.136364 302.237911 
L 225.572727 297.457831 
L 256.009091 289.70655 
L 286.445455 278.897591 
L 316.881818 263.61743 
L 347.318182 243.864784 
L 377.754545 220.384157 
L 408.190909 191.501783 
L 438.627273 160.975119 
L 469.063636 129.32337 
L 499.5 98.514272 
L 529.936364 72.49969 
L 560.372727 180.104412 
" clip-path="url(#p927c77cab1)" style="fill: none; stroke-dasharray: 3.7,1.6; stroke-dashoffset: 0; stroke: #bcbd22; stroke-opacity: 0.6"/>
   </g>
   <g id="line2d_57">
    <path d="M 103.827273 190.401987 
L 134.263636 198.311144 
L 164.7 305.347598 
L 195.136364 301.781847 
L 225.572727 294.863435 
L 256.009091 284.234919 
L 286.445455 270.971939 
L 316.881818 252.659597 
L 347.318182 229.618441 
L 377.754545 203.920763 
L 408.190909 174.143865 
L 438.627273 141.969473 
L 469.063636 110.577899 
L 499.5 83.122 
L 529.936364 60.054739 
L 560.372727 173.456361 
" clip-path="url(#p927c77cab1)" style="fill: none; stroke-dasharray: 3.7,1.6; stroke-dashoffset: 0; stroke: #17becf; stroke-opacity: 0.6"/>
   </g>
   <g id="line2d_58">
    <path d="M 103.827273 190.401987 
L 134.263636 197.606911 
L 164.7 302.486484 
L 195.136364 300.218437 
L 225.572727 294.442987 
L 256.009091 287.095089 
L 286.445455 277.692301 
L 316.881818 262.378749 
L 347.318182 244.656708 
L 377.754545 222.202143 
L 408.190909 197.19433 
L 438.627273 166.574713 
L 469.063636 136.441719 
L 499.5 106.510078 
L 529.936364 79.660872 
L 560.372727 181.676793 
" clip-path="url(#p927c77cab1)" style="fill: none; stroke-dasharray: 3.7,1.6; stroke-dashoffset: 0; stroke: #1f77b4; stroke-opacity: 0.6"/>
   </g>
   <g id="line2d_59">
    <path d="M 103.827273 190.401987 
L 134.263636 197.912079 
L 164.7 305.10712 
L 195.136364 300.680707 
L 225.572727 294.954568 
L 256.009091 287.572132 
L 286.445455 274.509898 
L 316.881818 260.949305 
L 347.318182 240.321495 
L 377.754545 216.870481 
L 408.190909 188.245921 
L 438.627273 159.194234 
L 469.063636 128.431815 
L 499.5 98.436294 
L 529.936364 73.082368 
L 560.372727 179.218387 
" clip-path="url(#p927c77cab1)" style="fill: none; stroke-dasharray: 3.7,1.6; stroke-dashoffset: 0; stroke: #ff7f0e; stroke-opacity: 0.6"/>
   </g>
   <g id="line2d_60">
    <path d="M 103.827273 190.401987 
L 134.263636 197.724486 
L 164.7 306.886521 
L 195.136364 303.862571 
L 225.572727 300.259652 
L 256.009091 293.076681 
L 286.445455 285.060099 
L 316.881818 273.58131 
L 347.318182 256.820978 
L 377.754545 236.142981 
L 408.190909 208.048416 
L 438.627273 176.747502 
L 469.063636 146.026028 
L 499.5 115.685339 
L 529.936364 87.773241 
L 560.372727 187.744863 
" clip-path="url(#p927c77cab1)" style="fill: none; stroke-dasharray: 3.7,1.6; stroke-dashoffset: 0; stroke: #2ca02c; stroke-opacity: 0.6"/>
   </g>
   <g id="line2d_61">
    <path d="M 103.827273 190.401987 
L 134.263636 198.711019 
L 164.7 306.301684 
L 195.136364 304.581374 
L 225.572727 300.42748 
L 256.009091 294.692976 
L 286.445455 285.658292 
L 316.881818 271.688853 
L 347.318182 254.832398 
L 377.754545 232.125685 
L 408.190909 204.323943 
L 438.627273 172.666865 
L 469.063636 140.270545 
L 499.5 108.617245 
L 529.936364 79.492976 
L 560.372727 184.437398 
" clip-path="url(#p927c77cab1)" style="fill: none; stroke-dasharray: 3.7,1.6; stroke-dashoffset: 0; stroke: #d62728; stroke-opacity: 0.6"/>
   </g>
   <g id="line2d_62">
    <path d="M 103.827273 190.401987 
L 134.263636 198.778204 
L 164.7 306.819403 
L 195.136364 304.64323 
L 225.572727 300.61251 
L 256.009091 293.266635 
L 286.445455 283.710927 
L 316.881818 268.046068 
L 347.318182 248.825914 
L 377.754545 225.856125 
L 408.190909 197.040397 
L 438.627273 166.244115 
L 469.063636 133.282048 
L 499.5 104.180242 
L 529.936364 76.649603 
L 560.372727 181.974338 
" clip-path="url(#p927c77cab1)" style="fill: none; stroke-dasharray: 3.7,1.6; stroke-dashoffset: 0; stroke: #9467bd; stroke-opacity: 0.6"/>
   </g>
   <g id="line2d_63">
    <path d="M 103.827273 190.401987 
L 134.263636 197.789445 
L 164.7 303.501011 
L 195.136364 300.307275 
L 225.572727 294.736417 
L 256.009091 287.89848 
L 286.445455 278.12786 
L 316.881818 264.424936 
L 347.318182 247.954999 
L 377.754545 226.195223 
L 408.190909 200.270693 
L 438.627273 169.466991 
L 469.063636 136.690089 
L 499.5 105.549651 
L 529.936364 78.66584 
L 560.372727 182.156535 
" clip-path="url(#p927c77cab1)" style="fill: none; stroke-dasharray: 3.7,1.6; stroke-dashoffset: 0; stroke: #8c564b; stroke-opacity: 0.6"/>
   </g>
   <g id="line2d_64">
    <path d="M 103.827273 190.401987 
L 134.263636 197.443332 
L 164.7 301.242542 
L 195.136364 298.696579 
L 225.572727 294.205005 
L 256.009091 287.601542 
L 286.445455 276.242351 
L 316.881818 263.374119 
L 347.318182 246.381876 
L 377.754545 223.6185 
L 408.190909 196.184592 
L 438.627273 166.44783 
L 469.063636 135.901133 
L 499.5 105.170147 
L 529.936364 78.09301 
L 560.372727 181.828432 
" clip-path="url(#p927c77cab1)" style="fill: none; stroke-dasharray: 3.7,1.6; stroke-dashoffset: 0; stroke: #e377c2; stroke-opacity: 0.6"/>
   </g>
   <g id="line2d_65">
    <path d="M 103.827273 190.401987 
L 134.263636 198.499479 
L 164.7 303.38863 
L 195.136364 300.911674 
L 225.572727 297.336749 
L 256.009091 288.822145 
L 286.445455 280.032526 
L 316.881818 267.909404 
L 347.318182 250.479039 
L 377.754545 228.230212 
L 408.190909 202.872509 
L 438.627273 174.228319 
L 469.063636 143.717912 
L 499.5 113.661075 
L 529.936364 85.968408 
L 560.372727 186.395826 
" clip-path="url(#p927c77cab1)" style="fill: none; stroke-dasharray: 3.7,1.6; stroke-dashoffset: 0; stroke: #7f7f7f; stroke-opacity: 0.6"/>
   </g>
   <g id="line2d_66">
    <path d="M 103.827273 190.401987 
L 134.263636 197.819395 
L 164.7 305.934256 
L 195.136364 302.628949 
L 225.572727 296.533087 
L 256.009091 288.363314 
L 286.445455 277.92428 
L 316.881818 262.162285 
L 347.318182 242.957376 
L 377.754545 217.240473 
L 408.190909 189.654926 
L 438.627273 158.133163 
L 469.063636 125.4252 
L 499.5 95.561554 
L 529.936364 69.34636 
L 560.372727 178.88934 
" clip-path="url(#p927c77cab1)" style="fill: none; stroke-dasharray: 3.7,1.6; stroke-dashoffset: 0; stroke: #bcbd22; stroke-opacity: 0.6"/>
   </g>
   <g id="line2d_67">
    <path d="M 103.827273 190.401987 
L 134.263636 199.097335 
L 164.7 306.431603 
L 195.136364 302.050656 
L 225.572727 297.208786 
L 256.009091 289.772859 
L 286.445455 280.687314 
L 316.881818 266.659189 
L 347.318182 248.023331 
L 377.754545 226.621675 
L 408.190909 199.501906 
L 438.627273 170.103903 
L 469.063636 138.75287 
L 499.5 108.97044 
L 529.936364 81.775594 
L 560.372727 184.576289 
" clip-path="url(#p927c77cab1)" style="fill: none; stroke-dasharray: 3.7,1.6; stroke-dashoffset: 0; stroke: #17becf; stroke-opacity: 0.6"/>
   </g>
   <g id="line2d_68">
    <path d="M 103.827273 190.401987 
L 134.263636 198.406458 
L 164.7 306.683144 
L 195.136364 303.479492 
L 225.572727 295.073828 
L 256.009091 286.55855 
L 286.445455 273.718918 
L 316.881818 258.115848 
L 347.318182 238.396256 
L 377.754545 213.702716 
L 408.190909 185.002336 
L 438.627273 152.888384 
L 469.063636 122.209609 
L 499.5 93.362514 
L 529.936364 67.941874 
L 560.372727 177.875084 
" clip-path="url(#p927c77cab1)" style="fill: none; stroke-dasharray: 3.7,1.6; stroke-dashoffset: 0; stroke: #1f77b4; stroke-opacity: 0.6"/>
   </g>
   <g id="line2d_69">
    <path d="M 103.827273 190.401987 
L 134.263636 198.059941 
L 164.7 302.870574 
L 195.136364 298.314243 
L 225.572727 291.006413 
L 256.009091 282.317369 
L 286.445455 270.207739 
L 316.881818 253.624949 
L 347.318182 231.308802 
L 377.754545 205.226899 
L 408.190909 175.114276 
L 438.627273 143.209907 
L 469.063636 111.100339 
L 499.5 84.366954 
L 529.936364 60.956818 
L 560.372727 173.739336 
" clip-path="url(#p927c77cab1)" style="fill: none; stroke-dasharray: 3.7,1.6; stroke-dashoffset: 0; stroke: #ff7f0e; stroke-opacity: 0.6"/>
   </g>
   <g id="line2d_70">
    <path d="M 103.827273 190.401987 
L 134.263636 198.702654 
L 164.7 306.195847 
L 195.136364 303.23888 
L 225.572727 298.311275 
L 256.009091 290.725664 
L 286.445455 279.070614 
L 316.881818 264.478968 
L 347.318182 243.334586 
L 377.754545 216.219201 
L 408.190909 187.428768 
L 438.627273 155.385981 
L 469.063636 123.443365 
L 499.5 94.566657 
L 529.936364 69.320929 
L 560.372727 178.997539 
" clip-path="url(#p927c77cab1)" style="fill: none; stroke-dasharray: 3.7,1.6; stroke-dashoffset: 0; stroke: #2ca02c; stroke-opacity: 0.6"/>
   </g>
   <g id="line2d_71">
    <path d="M 103.827273 190.401987 
L 134.263636 198.125979 
L 164.7 304.317286 
L 195.136364 300.739596 
L 225.572727 295.890172 
L 256.009091 289.856301 
L 286.445455 279.773498 
L 316.881818 265.983962 
L 347.318182 250.316472 
L 377.754545 229.042711 
L 408.190909 204.295207 
L 438.627273 175.425244 
L 469.063636 144.892443 
L 499.5 113.328048 
L 529.936364 85.198879 
L 560.372727 185.9573 
" clip-path="url(#p927c77cab1)" style="fill: none; stroke-dasharray: 3.7,1.6; stroke-dashoffset: 0; stroke: #d62728; stroke-opacity: 0.6"/>
   </g>
   <g id="line2d_72">
    <path d="M 103.827273 190.401987 
L 134.263636 198.661911 
L 164.7 305.823562 
L 195.136364 303.474636 
L 225.572727 298.542849 
L 256.009091 291.655737 
L 286.445455 282.479262 
L 316.881818 269.977919 
L 347.318182 251.639269 
L 377.754545 228.423741 
L 408.190909 201.536356 
L 438.627273 170.605163 
L 469.063636 138.283179 
L 499.5 106.422926 
L 529.936364 78.210854 
L 560.372727 183.357238 
" clip-path="url(#p927c77cab1)" style="fill: none; stroke-dasharray: 3.7,1.6; stroke-dashoffset: 0; stroke: #9467bd; stroke-opacity: 0.6"/>
   </g>
   <g id="line2d_73">
    <path d="M 103.827273 190.401987 
L 134.263636 198.668859 
L 164.7 307.118365 
L 195.136364 304.000247 
L 225.572727 297.424373 
L 256.009091 287.746976 
L 286.445455 276.310278 
L 316.881818 259.783207 
L 347.318182 241.191803 
L 377.754545 217.611882 
L 408.190909 188.767485 
L 438.627273 158.317316 
L 469.063636 126.361276 
L 499.5 96.983173 
L 529.936364 70.362843 
L 560.372727 179.024791 
" clip-path="url(#p927c77cab1)" style="fill: none; stroke-dasharray: 3.7,1.6; stroke-dashoffset: 0; stroke: #8c564b; stroke-opacity: 0.6"/>
   </g>
   <g id="line2d_74">
    <path d="M 103.827273 190.401987 
L 134.263636 198.966337 
L 164.7 306.301482 
L 195.136364 302.806087 
L 225.572727 296.968578 
L 256.009091 286.016075 
L 286.445455 272.928073 
L 316.881818 256.660772 
L 347.318182 234.095512 
L 377.754545 205.679051 
L 408.190909 175.927449 
L 438.627273 143.85687 
L 469.063636 113.387949 
L 499.5 85.567117 
L 529.936364 61.539698 
L 560.372727 174.228926 
" clip-path="url(#p927c77cab1)" style="fill: none; stroke-dasharray: 3.7,1.6; stroke-dashoffset: 0; stroke: #e377c2; stroke-opacity: 0.6"/>
   </g>
   <g id="line2d_75">
    <path d="M 103.827273 190.401987 
L 134.263636 198.524302 
L 164.7 306.481453 
L 195.136364 301.300958 
L 225.572727 295.366652 
L 256.009091 287.872578 
L 286.445455 277.188546 
L 316.881818 264.342573 
L 347.318182 246.568255 
L 377.754545 223.480959 
L 408.190909 196.285775 
L 438.627273 165.995745 
L 469.063636 135.223949 
L 499.5 104.731351 
L 529.936364 78.972154 
L 560.372727 182.686395 
" clip-path="url(#p927c77cab1)" style="fill: none; stroke-dasharray: 3.7,1.6; stroke-dashoffset: 0; stroke: #7f7f7f; stroke-opacity: 0.6"/>
   </g>
   <g id="line2d_76">
    <path d="M 103.827273 190.401987 
L 134.263636 197.317191 
L 164.7 304.391622 
L 195.136364 300.042851 
L 225.572727 293.461986 
L 256.009091 284.493003 
L 286.445455 271.014436 
L 316.881818 251.890607 
L 347.318182 229.121498 
L 377.754545 201.756192 
L 408.190909 170.458313 
L 438.627273 138.447298 
L 469.063636 108.049879 
L 499.5 80.589933 
L 529.936364 56.60184 
L 560.372727 171.967354 
" clip-path="url(#p927c77cab1)" style="fill: none; stroke-dasharray: 3.7,1.6; stroke-dashoffset: 0; stroke: #bcbd22; stroke-opacity: 0.6"/>
   </g>
   <g id="line2d_77">
    <path d="M 103.827273 190.401987 
L 134.263636 197.137963 
L 164.7 300.509506 
L 195.136364 298.196803 
L 225.572727 291.68798 
L 256.009091 283.537567 
L 286.445455 273.609506 
L 316.881818 257.85338 
L 347.318182 240.087358 
L 377.754545 217.7959 
L 408.190909 189.516777 
L 438.627273 159.781432 
L 469.063636 129.394401 
L 499.5 101.319533 
L 529.936364 76.157315 
L 560.372727 180.992999 
" clip-path="url(#p927c77cab1)" style="fill: none; stroke-dasharray: 3.7,1.6; stroke-dashoffset: 0; stroke: #17becf; stroke-opacity: 0.6"/>
   </g>
   <g id="line2d_78">
    <path d="M 103.827273 190.401987 
L 134.263636 198.311346 
L 164.7 304.053941 
L 195.136364 300.355033 
L 225.572727 295.134673 
L 256.009091 287.484845 
L 286.445455 275.983795 
L 316.881818 261.280376 
L 347.318182 240.498228 
L 377.754545 214.040802 
L 408.190909 184.543708 
L 438.627273 152.854926 
L 469.063636 122.747497 
L 499.5 93.881379 
L 529.936364 68.552209 
L 560.372727 177.832519 
" clip-path="url(#p927c77cab1)" style="fill: none; stroke-dasharray: 3.7,1.6; stroke-dashoffset: 0; stroke: #1f77b4; stroke-opacity: 0.6"/>
   </g>
   <g id="line2d_79">
    <path d="M 103.827273 190.401987 
L 134.263636 197.824792 
L 164.7 302.100303 
L 195.136364 296.321615 
L 225.572727 289.20691 
L 256.009091 279.330519 
L 286.445455 264.190327 
L 316.881818 248.634408 
L 347.318182 228.259218 
L 377.754545 202.188985 
L 408.190909 174.603775 
L 438.627273 144.562182 
L 469.063636 114.59479 
L 499.5 87.490738 
L 529.936364 63.983197 
L 560.372727 174.67413 
" clip-path="url(#p927c77cab1)" style="fill: none; stroke-dasharray: 3.7,1.6; stroke-dashoffset: 0; stroke: #ff7f0e; stroke-opacity: 0.6"/>
   </g>
   <g id="line2d_80">
    <path d="M 103.827273 190.401987 
L 134.263636 198.590004 
L 164.7 306.655689 
L 195.136364 304.233102 
L 225.572727 300.802059 
L 256.009091 295.207052 
L 286.445455 285.056929 
L 316.881818 270.752979 
L 347.318182 253.085712 
L 377.754545 228.322424 
L 408.190909 201.365829 
L 438.627273 170.367384 
L 469.063636 137.680264 
L 499.5 106.633117 
L 529.936364 79.466601 
L 560.372727 184.01695 
" clip-path="url(#p927c77cab1)" style="fill: none; stroke-dasharray: 3.7,1.6; stroke-dashoffset: 0; stroke: #2ca02c; stroke-opacity: 0.6"/>
   </g>
   <g id="line2d_81">
    <path d="M 103.827273 190.401987 
L 134.263636 198.716617 
L 164.7 301.257517 
L 195.136364 297.347609 
L 225.572727 292.40874 
L 256.009091 285.207691 
L 286.445455 276.148184 
L 316.881818 263.182209 
L 347.318182 246.041834 
L 377.754545 222.641142 
L 408.190909 193.544529 
L 438.627273 163.891074 
L 469.063636 132.809389 
L 499.5 102.151526 
L 529.936364 76.120686 
L 560.372727 182.017914 
" clip-path="url(#p927c77cab1)" style="fill: none; stroke-dasharray: 3.7,1.6; stroke-dashoffset: 0; stroke: #d62728; stroke-opacity: 0.6"/>
   </g>
   <g id="line2d_82">
    <path d="M 103.827273 190.401987 
L 134.263636 198.484436 
L 164.7 305.812297 
L 195.136364 303.171627 
L 225.572727 298.862654 
L 256.009091 292.4538 
L 286.445455 280.908769 
L 316.881818 265.778021 
L 347.318182 249.237593 
L 377.754545 227.812395 
L 408.190909 201.705263 
L 438.627273 171.451187 
L 469.063636 139.659873 
L 499.5 109.146836 
L 529.936364 81.116893 
L 560.372727 184.347413 
" clip-path="url(#p927c77cab1)" style="fill: none; stroke-dasharray: 3.7,1.6; stroke-dashoffset: 0; stroke: #9467bd; stroke-opacity: 0.6"/>
   </g>
   <g id="line2d_83">
    <path d="M 103.827273 190.401987 
L 134.263636 199.034669 
L 164.7 306.179253 
L 195.136364 303.712753 
L 225.572727 299.245867 
L 256.009091 291.62808 
L 286.445455 281.715062 
L 316.881818 267.521199 
L 347.318182 249.151992 
L 377.754545 226.655672 
L 408.190909 198.111788 
L 438.627273 167.112399 
L 469.063636 135.024349 
L 499.5 103.044903 
L 529.936364 76.045811 
L 560.372727 182.718437 
" clip-path="url(#p927c77cab1)" style="fill: none; stroke-dasharray: 3.7,1.6; stroke-dashoffset: 0; stroke: #8c564b; stroke-opacity: 0.6"/>
   </g>
   <g id="line2d_84">
    <path d="M 103.827273 190.401987 
L 134.263636 198.978141 
L 164.7 303.424584 
L 195.136364 299.988212 
L 225.572727 295.360176 
L 256.009091 288.280614 
L 286.445455 277.882525 
L 316.881818 262.832858 
L 347.318182 246.264032 
L 377.754545 223.610676 
L 408.190909 196.282335 
L 438.627273 164.793895 
L 469.063636 132.834348 
L 499.5 103.689303 
L 529.936364 77.303379 
L 560.372727 181.92233 
" clip-path="url(#p927c77cab1)" style="fill: none; stroke-dasharray: 3.7,1.6; stroke-dashoffset: 0; stroke: #e377c2; stroke-opacity: 0.6"/>
   </g>
   <g id="line2d_85">
    <path d="M 103.827273 190.401987 
L 134.263636 198.041256 
L 164.7 303.634302 
L 195.136364 299.107314 
L 225.572727 293.614907 
L 256.009091 285.783759 
L 286.445455 272.790195 
L 316.881818 257.347938 
L 347.318182 235.846313 
L 377.754545 210.388843 
L 408.190909 180.285664 
L 438.627273 149.603651 
L 469.063636 118.477041 
L 499.5 89.927356 
L 529.936364 65.900409 
L 560.372727 176.207051 
" clip-path="url(#p927c77cab1)" style="fill: none; stroke-dasharray: 3.7,1.6; stroke-dashoffset: 0; stroke: #7f7f7f; stroke-opacity: 0.6"/>
   </g>
   <g id="line2d_86">
    <path d="M 103.827273 190.401987 
L 134.263636 198.706027 
L 164.7 306.832894 
L 195.136364 304.808023 
L 225.572727 299.891818 
L 256.009091 292.477746 
L 286.445455 282.357842 
L 316.881818 265.571271 
L 347.318182 246.740333 
L 377.754545 222.427916 
L 408.190909 194.208086 
L 438.627273 161.176001 
L 469.063636 128.082397 
L 499.5 96.191991 
L 529.936364 69.73045 
L 560.372727 179.667369 
" clip-path="url(#p927c77cab1)" style="fill: none; stroke-dasharray: 3.7,1.6; stroke-dashoffset: 0; stroke: #bcbd22; stroke-opacity: 0.6"/>
   </g>
   <g id="line2d_87">
    <path d="M 103.827273 190.401987 
L 134.263636 199.013758 
L 164.7 305.397852 
L 195.136364 302.807166 
L 225.572727 297.594158 
L 256.009091 289.042049 
L 286.445455 277.474893 
L 316.881818 262.063531 
L 347.318182 242.080458 
L 377.754545 216.376102 
L 408.190909 187.499866 
L 438.627273 155.864711 
L 469.063636 122.689958 
L 499.5 92.640405 
L 529.936364 66.614221 
L 560.372727 177.895657 
" clip-path="url(#p927c77cab1)" style="fill: none; stroke-dasharray: 3.7,1.6; stroke-dashoffset: 0; stroke: #17becf; stroke-opacity: 0.6"/>
   </g>
   <g id="line2d_88">
    <path d="M 103.827273 190.401987 
L 134.263636 197.696829 
L 164.7 300.408525 
L 195.136364 297.52387 
L 225.572727 289.818256 
L 256.009091 282.196962 
L 286.445455 271.435356 
L 316.881818 258.148497 
L 347.318182 239.670687 
L 377.754545 217.261654 
L 408.190909 191.440128 
L 438.627273 161.955311 
L 469.063636 132.061041 
L 499.5 103.797366 
L 529.936364 78.620982 
L 560.372727 181.528729 
" clip-path="url(#p927c77cab1)" style="fill: none; stroke-dasharray: 3.7,1.6; stroke-dashoffset: 0; stroke: #1f77b4; stroke-opacity: 0.6"/>
   </g>
   <g id="line2d_89">
    <path d="M 103.827273 190.401987 
L 134.263636 198.297046 
L 164.7 305.959282 
L 195.136364 303.980685 
L 225.572727 298.230329 
L 256.009091 290.869411 
L 286.445455 280.46633 
L 316.881818 265.686821 
L 347.318182 245.847563 
L 377.754545 219.707041 
L 408.190909 190.087516 
L 438.627273 158.441906 
L 469.063636 126.108589 
L 499.5 95.687898 
L 529.936364 68.956536 
L 560.372727 178.734666 
" clip-path="url(#p927c77cab1)" style="fill: none; stroke-dasharray: 3.7,1.6; stroke-dashoffset: 0; stroke: #ff7f0e; stroke-opacity: 0.6"/>
   </g>
   <g id="line2d_90">
    <path d="M 103.827273 190.401987 
L 134.263636 198.768693 
L 164.7 304.895648 
L 195.136364 301.458871 
L 225.572727 295.566859 
L 256.009091 285.038446 
L 286.445455 272.274027 
L 316.881818 255.75134 
L 347.318182 234.638662 
L 377.754545 209.737698 
L 408.190909 180.380978 
L 438.627273 148.066212 
L 469.063636 116.613388 
L 499.5 88.228496 
L 529.936364 63.743258 
L 560.372727 175.670309 
" clip-path="url(#p927c77cab1)" style="fill: none; stroke-dasharray: 3.7,1.6; stroke-dashoffset: 0; stroke: #2ca02c; stroke-opacity: 0.6"/>
   </g>
   <g id="line2d_91">
    <path d="M 103.827273 190.401987 
L 134.263636 197.742969 
L 164.7 305.335051 
L 195.136364 299.464287 
L 225.572727 293.143934 
L 256.009091 284.190601 
L 286.445455 272.133316 
L 316.881818 254.013828 
L 347.318182 233.744273 
L 377.754545 208.320733 
L 408.190909 178.692439 
L 438.627273 146.394941 
L 469.063636 114.695029 
L 499.5 86.887958 
L 529.936364 63.186281 
L 560.372727 175.409797 
" clip-path="url(#p927c77cab1)" style="fill: none; stroke-dasharray: 3.7,1.6; stroke-dashoffset: 0; stroke: #d62728; stroke-opacity: 0.6"/>
   </g>
   <g id="line2d_92">
    <path d="M 103.827273 190.401987 
L 134.263636 198.641877 
L 164.7 306.289475 
L 195.136364 303.626882 
L 225.572727 298.620422 
L 256.009091 292.534071 
L 286.445455 281.953044 
L 316.881818 268.234268 
L 347.318182 250.350739 
L 377.754545 227.618798 
L 408.190909 200.960625 
L 438.627273 169.204725 
L 469.063636 137.974167 
L 499.5 107.655603 
L 529.936364 79.132832 
L 560.372727 183.256257 
" clip-path="url(#p927c77cab1)" style="fill: none; stroke-dasharray: 3.7,1.6; stroke-dashoffset: 0; stroke: #9467bd; stroke-opacity: 0.6"/>
   </g>
   <g id="line2d_93">
    <path d="M 103.827273 190.401987 
L 134.263636 198.228039 
L 164.7 304.102914 
L 195.136364 298.368612 
L 225.572727 293.103259 
L 256.009091 284.966606 
L 286.445455 271.416604 
L 316.881818 256.006591 
L 347.318182 235.871204 
L 377.754545 210.895027 
L 408.190909 180.785237 
L 438.627273 149.594342 
L 469.063636 117.594255 
L 499.5 89.90631 
L 529.936364 66.543527 
L 560.372727 176.088802 
" clip-path="url(#p927c77cab1)" style="fill: none; stroke-dasharray: 3.7,1.6; stroke-dashoffset: 0; stroke: #8c564b; stroke-opacity: 0.6"/>
   </g>
   <g id="line2d_94">
    <path d="M 103.827273 190.401987 
L 134.263636 197.754099 
L 164.7 303.261882 
L 195.136364 300.556252 
L 225.572727 295.28267 
L 256.009091 286.025653 
L 286.445455 274.951325 
L 316.881818 260.016804 
L 347.318182 239.685392 
L 377.754545 215.2639 
L 408.190909 185.794193 
L 438.627273 155.580724 
L 469.063636 123.453079 
L 499.5 94.796747 
L 529.936364 69.472164 
L 560.372727 178.233743 
" clip-path="url(#p927c77cab1)" style="fill: none; stroke-dasharray: 3.7,1.6; stroke-dashoffset: 0; stroke: #e377c2; stroke-opacity: 0.6"/>
   </g>
   <g id="line2d_95">
    <path d="M 103.827273 190.401987 
L 134.263636 198.694694 
L 164.7 304.018595 
L 195.136364 302.331876 
L 225.572727 298.446185 
L 256.009091 291.031439 
L 286.445455 281.416572 
L 316.881818 268.640551 
L 347.318182 252.630187 
L 377.754545 231.204448 
L 408.190909 205.432435 
L 438.627273 176.680586 
L 469.063636 144.825392 
L 499.5 114.779145 
L 529.936364 86.516685 
L 560.372727 186.937492 
" clip-path="url(#p927c77cab1)" style="fill: none; stroke-dasharray: 3.7,1.6; stroke-dashoffset: 0; stroke: #7f7f7f; stroke-opacity: 0.6"/>
   </g>
   <g id="line2d_96">
    <path d="M 103.827273 190.401987 
L 134.263636 198.224869 
L 164.7 304.425822 
L 195.136364 301.974836 
L 225.572727 298.338931 
L 256.009091 290.202481 
L 286.445455 281.814423 
L 316.881818 268.912733 
L 347.318182 249.806443 
L 377.754545 227.292585 
L 408.190909 200.215245 
L 438.627273 168.627713 
L 469.063636 134.833788 
L 499.5 104.342269 
L 529.936364 77.570299 
L 560.372727 183.001951 
" clip-path="url(#p927c77cab1)" style="fill: none; stroke-dasharray: 3.7,1.6; stroke-dashoffset: 0; stroke: #bcbd22; stroke-opacity: 0.6"/>
   </g>
   <g id="line2d_97">
    <path d="M 103.827273 190.401987 
L 134.263636 198.758305 
L 164.7 302.546991 
L 195.136364 298.981105 
L 225.572727 292.78406 
L 256.009091 283.886176 
L 286.445455 271.073661 
L 316.881818 252.969689 
L 347.318182 230.49799 
L 377.754545 203.627198 
L 408.190909 174.295841 
L 438.627273 141.181326 
L 469.063636 109.373418 
L 499.5 81.528438 
L 529.936364 57.673704 
L 560.372727 172.395425 
" clip-path="url(#p927c77cab1)" style="fill: none; stroke-dasharray: 3.7,1.6; stroke-dashoffset: 0; stroke: #17becf; stroke-opacity: 0.6"/>
   </g>
   <g id="line2d_98">
    <path d="M 103.827273 190.401987 
L 134.263636 198.804309 
L 164.7 305.534718 
L 195.136364 301.861039 
L 225.572727 296.544487 
L 256.009091 289.864261 
L 286.445455 280.324877 
L 316.881818 267.825624 
L 347.318182 251.333495 
L 377.754545 228.692483 
L 408.190909 200.433193 
L 438.627273 171.154451 
L 469.063636 140.452944 
L 499.5 109.730526 
L 529.936364 82.995656 
L 560.372727 184.468023 
" clip-path="url(#p927c77cab1)" style="fill: none; stroke-dasharray: 3.7,1.6; stroke-dashoffset: 0; stroke: #1f77b4; stroke-opacity: 0.6"/>
   </g>
   <g id="line2d_99">
    <path d="M 103.827273 190.401987 
L 134.263636 198.549801 
L 164.7 305.391578 
L 195.136364 301.919455 
L 225.572727 296.924463 
L 256.009091 288.96859 
L 286.445455 278.253124 
L 316.881818 262.808507 
L 347.318182 243.430912 
L 377.754545 219.130839 
L 408.190909 190.832559 
L 438.627273 159.054736 
L 469.063636 126.90962 
L 499.5 95.922507 
L 529.936364 71.131563 
L 560.372727 179.372657 
" clip-path="url(#p927c77cab1)" style="fill: none; stroke-dasharray: 3.7,1.6; stroke-dashoffset: 0; stroke: #ff7f0e; stroke-opacity: 0.6"/>
   </g>
   <g id="line2d_100">
    <path d="M 103.827273 190.401987 
L 134.263636 198.274044 
L 164.7 306.295681 
L 195.136364 302.742544 
L 225.572727 296.994414 
L 256.009091 288.7613 
L 286.445455 276.156953 
L 316.881818 260.16298 
L 347.318182 240.271444 
L 377.754545 213.40679 
L 408.190909 183.013621 
L 438.627273 151.390473 
L 469.063636 119.31949 
L 499.5 89.572946 
L 529.936364 65.311593 
L 560.372727 176.870473 
" clip-path="url(#p927c77cab1)" style="fill: none; stroke-dasharray: 3.7,1.6; stroke-dashoffset: 0; stroke: #2ca02c; stroke-opacity: 0.6"/>
   </g>
   <g id="line2d_101">
    <path d="M 103.827273 190.401987 
L 134.263636 198.459883 
L 164.7 305.561296 
L 195.136364 301.161326 
L 225.572727 294.60859 
L 256.009091 285.799071 
L 286.445455 275.395316 
L 316.881818 260.583766 
L 347.318182 241.329884 
L 377.754545 217.244386 
L 408.190909 188.288215 
L 438.627273 157.146765 
L 469.063636 126.516086 
L 499.5 96.914774 
L 529.936364 71.583445 
L 560.372727 179.317614 
" clip-path="url(#p927c77cab1)" style="fill: none; stroke-dasharray: 3.7,1.6; stroke-dashoffset: 0; stroke: #d62728; stroke-opacity: 0.6"/>
   </g>
   <g id="line2d_102">
    <path d="M 103.827273 190.401987 
L 134.263636 199.175853 
L 164.7 304.19816 
L 195.136364 301.261429 
L 225.572727 296.126332 
L 256.009091 285.42402 
L 286.445455 272.21642 
L 316.881818 255.146806 
L 347.318182 233.43155 
L 377.754545 208.294628 
L 408.190909 180.25713 
L 438.627273 150.143563 
L 469.063636 119.244075 
L 499.5 91.166036 
L 529.936364 65.928336 
L 560.372727 176.016624 
" clip-path="url(#p927c77cab1)" style="fill: none; stroke-dasharray: 3.7,1.6; stroke-dashoffset: 0; stroke: #9467bd; stroke-opacity: 0.6"/>
   </g>
   <g id="line2d_103">
    <path d="M 103.827273 190.401987 
L 134.263636 198.205509 
L 164.7 303.478818 
L 195.136364 300.205755 
L 225.572727 294.790989 
L 256.009091 286.824593 
L 286.445455 275.70082 
L 316.881818 258.983795 
L 347.318182 237.219162 
L 377.754545 210.731988 
L 408.190909 181.188012 
L 438.627273 148.043816 
L 469.063636 116.606912 
L 499.5 88.895561 
L 529.936364 64.379294 
L 560.372727 176.252246 
" clip-path="url(#p927c77cab1)" style="fill: none; stroke-dasharray: 3.7,1.6; stroke-dashoffset: 0; stroke: #8c564b; stroke-opacity: 0.6"/>
   </g>
   <g id="line2d_104">
    <path d="M 103.827273 190.401987 
L 134.263636 199.008699 
L 164.7 307.228452 
L 195.136364 303.128253 
L 225.572727 298.700626 
L 256.009091 291.806634 
L 286.445455 278.911959 
L 316.881818 264.34824 
L 347.318182 245.796567 
L 377.754545 221.467421 
L 408.190909 191.778416 
L 438.627273 161.423427 
L 469.063636 128.399369 
L 499.5 98.81094 
L 529.936364 71.737176 
L 560.372727 179.48841 
" clip-path="url(#p927c77cab1)" style="fill: none; stroke-dasharray: 3.7,1.6; stroke-dashoffset: 0; stroke: #e377c2; stroke-opacity: 0.6"/>
   </g>
   <g id="line2d_105">
    <path d="M 103.827273 190.401987 
L 134.263636 198.668454 
L 164.7 303.364751 
L 195.136364 300.075229 
L 225.572727 296.152505 
L 256.009091 288.888386 
L 286.445455 278.038414 
L 316.881818 265.865982 
L 347.318182 249.209397 
L 377.754545 229.227605 
L 408.190909 203.988893 
L 438.627273 174.030203 
L 469.063636 142.783388 
L 499.5 112.418819 
L 529.936364 85.190312 
L 560.372727 185.675202 
" clip-path="url(#p927c77cab1)" style="fill: none; stroke-dasharray: 3.7,1.6; stroke-dashoffset: 0; stroke: #7f7f7f; stroke-opacity: 0.6"/>
   </g>
   <g id="line2d_106">
    <path d="M 103.827273 190.401987 
L 134.263636 198.353911 
L 164.7 304.226829 
L 195.136364 300.239415 
L 225.572727 293.535579 
L 256.009091 283.778585 
L 286.445455 271.331475 
L 316.881818 254.06071 
L 347.318182 232.312401 
L 377.754545 206.606358 
L 408.190909 176.309313 
L 438.627273 145.338187 
L 469.063636 114.687002 
L 499.5 85.851846 
L 529.936364 62.077789 
L 560.372727 174.59541 
" clip-path="url(#p927c77cab1)" style="fill: none; stroke-dasharray: 3.7,1.6; stroke-dashoffset: 0; stroke: #bcbd22; stroke-opacity: 0.6"/>
   </g>
   <g id="line2d_107">
    <path d="M 103.827273 190.401987 
L 134.263636 197.397935 
L 164.7 301.334753 
L 195.136364 297.721311 
L 225.572727 294.121158 
L 256.009091 285.378758 
L 286.445455 275.778529 
L 316.881818 263.258905 
L 347.318182 245.79225 
L 377.754545 223.639007 
L 408.190909 195.458572 
L 438.627273 164.6689 
L 469.063636 135.315081 
L 499.5 104.830443 
L 529.936364 78.579834 
L 560.372727 180.752319 
" clip-path="url(#p927c77cab1)" style="fill: none; stroke-dasharray: 3.7,1.6; stroke-dashoffset: 0; stroke: #17becf; stroke-opacity: 0.6"/>
   </g>
   <g id="line2d_108">
    <path d="M 103.827273 190.401987 
L 134.263636 197.632207 
L 164.7 305.479877 
L 195.136364 302.727299 
L 225.572727 297.957202 
L 256.009091 289.77495 
L 286.445455 278.728076 
L 316.881818 264.618263 
L 347.318182 244.970847 
L 377.754545 218.770088 
L 408.190909 190.420812 
L 438.627273 158.767512 
L 469.063636 125.088598 
L 499.5 94.522946 
L 529.936364 69.776927 
L 560.372727 178.768663 
" clip-path="url(#p927c77cab1)" style="fill: none; stroke-dasharray: 3.7,1.6; stroke-dashoffset: 0; stroke: #1f77b4; stroke-opacity: 0.6"/>
   </g>
   <g id="line2d_109">
    <path d="M 103.827273 190.401987 
L 134.263636 197.855754 
L 164.7 304.906373 
L 195.136364 301.164091 
L 225.572727 294.988835 
L 256.009091 284.215425 
L 286.445455 272.917145 
L 316.881818 256.897135 
L 347.318182 236.565048 
L 377.754545 209.955241 
L 408.190909 180.862878 
L 438.627273 148.853616 
L 469.063636 118.59239 
L 499.5 89.41591 
L 529.936364 65.971844 
L 560.372727 176.211165 
" clip-path="url(#p927c77cab1)" style="fill: none; stroke-dasharray: 3.7,1.6; stroke-dashoffset: 0; stroke: #ff7f0e; stroke-opacity: 0.6"/>
   </g>
   <g id="line2d_110">
    <path d="M 103.827273 190.401987 
L 134.263636 198.723295 
L 164.7 305.612494 
L 195.136364 302.619843 
L 225.572727 297.224301 
L 256.009091 291.217413 
L 286.445455 279.798051 
L 316.881818 266.816292 
L 347.318182 250.604506 
L 377.754545 230.145266 
L 408.190909 204.056483 
L 438.627273 174.203293 
L 469.063636 142.463515 
L 499.5 110.46336 
L 529.936364 82.808873 
L 560.372727 185.015827 
" clip-path="url(#p927c77cab1)" style="fill: none; stroke-dasharray: 3.7,1.6; stroke-dashoffset: 0; stroke: #2ca02c; stroke-opacity: 0.6"/>
   </g>
   <g id="line2d_111">
    <path d="M 103.827273 190.401987 
L 134.263636 198.464537 
L 164.7 304.242478 
L 195.136364 302.571815 
L 225.572727 297.751666 
L 256.009091 291.567978 
L 286.445455 281.764169 
L 316.881818 267.781644 
L 347.318182 250.802959 
L 377.754545 228.396692 
L 408.190909 200.980389 
L 438.627273 168.234044 
L 469.063636 135.597651 
L 499.5 104.580724 
L 529.936364 77.152212 
L 560.372727 182.818608 
" clip-path="url(#p927c77cab1)" style="fill: none; stroke-dasharray: 3.7,1.6; stroke-dashoffset: 0; stroke: #d62728; stroke-opacity: 0.6"/>
   </g>
   <g id="line2d_112">
    <path d="M 103.827273 190.401987 
L 134.263636 198.114377 
L 164.7 306.973673 
L 195.136364 304.579552 
L 225.572727 298.926601 
L 256.009091 292.352954 
L 286.445455 284.145474 
L 316.881818 272.000024 
L 347.318182 256.085783 
L 377.754545 234.150691 
L 408.190909 207.221955 
L 438.627273 178.391251 
L 469.063636 146.957045 
L 499.5 115.993474 
L 529.936364 87.580791 
L 560.372727 188.021632 
" clip-path="url(#p927c77cab1)" style="fill: none; stroke-dasharray: 3.7,1.6; stroke-dashoffset: 0; stroke: #9467bd; stroke-opacity: 0.6"/>
   </g>
   <g id="line2d_113">
    <path d="M 103.827273 190.401987 
L 134.263636 198.035252 
L 164.7 307.204438 
L 195.136364 303.745199 
L 225.572727 297.637262 
L 256.009091 290.575239 
L 286.445455 279.500844 
L 316.881818 264.892603 
L 347.318182 245.72068 
L 377.754545 220.609188 
L 408.190909 192.403592 
L 438.627273 160.339151 
L 469.063636 128.281997 
L 499.5 97.581164 
L 529.936364 71.271465 
L 560.372727 178.746875 
" clip-path="url(#p927c77cab1)" style="fill: none; stroke-dasharray: 3.7,1.6; stroke-dashoffset: 0; stroke: #8c564b; stroke-opacity: 0.6"/>
   </g>
   <g id="line2d_114">
    <path d="M 103.827273 190.401987 
L 134.263636 197.201101 
L 164.7 304.988196 
L 195.136364 302.54915 
L 225.572727 296.940315 
L 256.009091 288.431916 
L 286.445455 277.305378 
L 316.881818 261.913173 
L 347.318182 241.163472 
L 377.754545 215.431122 
L 408.190909 185.736316 
L 438.627273 151.769976 
L 469.063636 119.690493 
L 499.5 90.09107 
L 529.936364 64.471977 
L 560.372727 177.106836 
" clip-path="url(#p927c77cab1)" style="fill: none; stroke-dasharray: 3.7,1.6; stroke-dashoffset: 0; stroke: #e377c2; stroke-opacity: 0.6"/>
   </g>
   <g id="line2d_115">
    <path d="M 103.827273 190.401987 
L 134.263636 198.828053 
L 164.7 306.396796 
L 195.136364 304.032221 
L 225.572727 300.824185 
L 256.009091 295.069983 
L 286.445455 285.725208 
L 316.881818 273.914943 
L 347.318182 257.808185 
L 377.754545 236.624544 
L 408.190909 211.459492 
L 438.627273 182.259067 
L 469.063636 150.043527 
L 499.5 118.82565 
L 529.936364 89.562288 
L 560.372727 188.80445 
" clip-path="url(#p927c77cab1)" style="fill: none; stroke-dasharray: 3.7,1.6; stroke-dashoffset: 0; stroke: #7f7f7f; stroke-opacity: 0.6"/>
   </g>
   <g id="line2d_116">
    <path d="M 103.827273 190.401987 
L 134.263636 198.73881 
L 164.7 305.720288 
L 195.136364 302.622406 
L 225.572727 297.598273 
L 256.009091 290.979161 
L 286.445455 280.28238 
L 316.881818 265.269678 
L 347.318182 245.770192 
L 377.754545 221.108559 
L 408.190909 191.847018 
L 438.627273 161.309832 
L 469.063636 129.519395 
L 499.5 98.063334 
L 529.936364 71.882474 
L 560.372727 179.737995 
" clip-path="url(#p927c77cab1)" style="fill: none; stroke-dasharray: 3.7,1.6; stroke-dashoffset: 0; stroke: #bcbd22; stroke-opacity: 0.6"/>
   </g>
   <g id="line2d_117">
    <path d="M 103.827273 190.401987 
L 134.263636 198.418735 
L 164.7 304.637564 
L 195.136364 301.546563 
L 225.572727 297.592269 
L 256.009091 291.550844 
L 286.445455 280.734735 
L 316.881818 267.687611 
L 347.318182 250.735032 
L 377.754545 228.327618 
L 408.190909 201.102888 
L 438.627273 170.933063 
L 469.063636 138.255455 
L 499.5 107.777967 
L 529.936364 80.49961 
L 560.372727 184.17547 
" clip-path="url(#p927c77cab1)" style="fill: none; stroke-dasharray: 3.7,1.6; stroke-dashoffset: 0; stroke: #17becf; stroke-opacity: 0.6"/>
   </g>
   <g id="line2d_118">
    <path d="M 103.827273 190.401987 
L 134.263636 198.369527 
L 164.7 304.987472 
L 195.136364 301.684819 
L 225.572727 296.262365 
L 256.009091 288.401727 
L 286.445455 277.377799 
L 316.881818 262.5331 
L 347.318182 243.389961 
L 377.754545 219.313284 
L 408.190909 191.157795 
L 438.627273 160.303675 
L 469.063636 128.71914 
L 499.5 99.010547 
L 529.936364 72.990501 
L 560.372727 180.10204 
" clip-path="url(#p927c77cab1)" style="fill: none; stroke: #000000; stroke-width: 2.5; stroke-linecap: square"/>
   </g>
   <g id="patch_3">
    <path d="M 81 320.4 
L 81 43.2 
" style="fill: none; stroke: #000000; stroke-width: 0.8; stroke-linejoin: miter; stroke-linecap: square"/>
   </g>
   <g id="patch_4">
    <path d="M 583.2 320.4 
L 583.2 43.2 
" style="fill: none; stroke: #000000; stroke-width: 0.8; stroke-linejoin: miter; stroke-linecap: square"/>
   </g>
   <g id="patch_5">
    <path d="M 81 320.4 
L 583.2 320.4 
" style="fill: none; stroke: #000000; stroke-width: 0.8; stroke-linejoin: miter; stroke-linecap: square"/>
   </g>
   <g id="patch_6">
    <path d="M 81 43.2 
L 583.2 43.2 
" style="fill: none; stroke: #000000; stroke-width: 0.8; stroke-linejoin: miter; stroke-linecap: square"/>
   </g>
   <g id="legend_1">
    <g id="patch_7">
     <path d="M 88 65.878125 
L 161.065625 65.878125 
Q 163.065625 65.878125 163.065625 63.878125 
L 163.065625 50.2 
Q 163.065625 48.2 161.065625 48.2 
L 88 48.2 
Q 86 48.2 86 50.2 
L 86 63.878125 
Q 86 65.878125 88 65.878125 
z
" style="fill: #ffffff; opacity: 0.8; stroke: #cccccc; stroke-linejoin: miter"/>
    </g>
    <g id="line2d_119">
     <path d="M 90 56.298437 
L 100 56.298437 
L 110 56.298437 
" style="fill: none; stroke: #000000; stroke-width: 2.5; stroke-linecap: square"/>
    </g>
    <g id="text_20">
     <!-- Average -->
     <g transform="translate(118 59.798437) scale(0.1 -0.1)">
      <defs>
       <path id="DejaVuSans-41" d="M 2188 4044 
L 1331 1722 
L 3047 1722 
L 2188 4044 
z
M 1831 4666 
L 2547 4666 
L 4325 0 
L 3669 0 
L 3244 1197 
L 1141 1197 
L 716 0 
L 50 0 
L 1831 4666 
z
" transform="scale(0.015625)"/>
       <path id="DejaVuSans-67" d="M 2906 1791 
Q 2906 2416 2648 2759 
Q 2391 3103 1925 3103 
Q 1463 3103 1205 2759 
Q 947 2416 947 1791 
Q 947 1169 1205 825 
Q 1463 481 1925 481 
Q 2391 481 2648 825 
Q 2906 1169 2906 1791 
z
M 3481 434 
Q 3481 -459 3084 -895 
Q 2688 -1331 1869 -1331 
Q 1566 -1331 1297 -1286 
Q 1028 -1241 775 -1147 
L 775 -588 
Q 1028 -725 1275 -790 
Q 1522 -856 1778 -856 
Q 2344 -856 2625 -561 
Q 2906 -266 2906 331 
L 2906 616 
Q 2728 306 2450 153 
Q 2172 0 1784 0 
Q 1141 0 747 490 
Q 353 981 353 1791 
Q 353 2603 747 3093 
Q 1141 3584 1784 3584 
Q 2172 3584 2450 3431 
Q 2728 3278 2906 2969 
L 2906 3500 
L 3481 3500 
L 3481 434 
z
" transform="scale(0.015625)"/>
      </defs>
      <use xlink:href="#DejaVuSans-41"/>
      <use xlink:href="#DejaVuSans-76" x="62.533203"/>
      <use xlink:href="#DejaVuSans-65" x="121.712891"/>
      <use xlink:href="#DejaVuSans-72" x="183.236328"/>
      <use xlink:href="#DejaVuSans-61" x="224.349609"/>
      <use xlink:href="#DejaVuSans-67" x="285.628906"/>
      <use xlink:href="#DejaVuSans-65" x="349.105469"/>
     </g>
    </g>
   </g>
  </g>
 </g>
 <defs>
  <clipPath id="p927c77cab1">
   <rect x="81" y="43.2" width="502.2" height="277.2"/>
  </clipPath>
 </defs>
</svg>
