<?xml version="1.0" encoding="utf-8" standalone="no"?>
<!DOCTYPE svg PUBLIC "-//W3C//DTD SVG 1.1//EN"
  "http://www.w3.org/Graphics/SVG/1.1/DTD/svg11.dtd">
<svg xmlns:xlink="http://www.w3.org/1999/xlink" width="648pt" height="360pt" viewBox="0 0 648 360" xmlns="http://www.w3.org/2000/svg" version="1.1">
 <metadata>
  <rdf:RDF xmlns:dc="http://purl.org/dc/elements/1.1/" xmlns:cc="http://creativecommons.org/ns#" xmlns:rdf="http://www.w3.org/1999/02/22-rdf-syntax-ns#">
   <cc:Work>
    <dc:type rdf:resource="http://purl.org/dc/dcmitype/StillImage"/>
    <dc:date>2025-08-26T10:29:08.395126</dc:date>
    <dc:format>image/svg+xml</dc:format>
    <dc:creator>
     <cc:Agent>
      <dc:title>Matplotlib v3.8.0, https://matplotlib.org/</dc:title>
     </cc:Agent>
    </dc:creator>
   </cc:Work>
  </rdf:RDF>
 </metadata>
 <defs>
  <style type="text/css">*{stroke-linejoin: round; stroke-linecap: butt}</style>
 </defs>
 <g id="figure_1">
  <g id="patch_1">
   <path d="M 0 360 
L 648 360 
L 648 0 
L 0 0 
z
" style="fill: #ffffff"/>
  </g>
  <g id="axes_1">
   <g id="patch_2">
    <path d="M 81 320.4 
L 583.2 320.4 
L 583.2 43.2 
L 81 43.2 
z
" style="fill: #ffffff"/>
   </g>
   <g id="matplotlib.axis_1">
    <g id="xtick_1">
     <g id="line2d_1">
      <defs>
       <path id="m96f2639474" d="M 0 0 
L 0 3.5 
" style="stroke: #000000; stroke-width: 0.8"/>
      </defs>
      <g>
       <use xlink:href="#m96f2639474" x="103.827273" y="320.4" style="stroke: #000000; stroke-width: 0.8"/>
      </g>
     </g>
     <g id="text_1">
      <!-- 2005 -->
      <g transform="translate(88.557273 336.518125) scale(0.12 -0.12)">
       <defs>
        <path id="DejaVuSans-32" d="M 1228 531 
L 3431 531 
L 3431 0 
L 469 0 
L 469 531 
Q 828 903 1448 1529 
Q 2069 2156 2228 2338 
Q 2531 2678 2651 2914 
Q 2772 3150 2772 3378 
Q 2772 3750 2511 3984 
Q 2250 4219 1831 4219 
Q 1534 4219 1204 4116 
Q 875 4013 500 3803 
L 500 4441 
Q 881 4594 1212 4672 
Q 1544 4750 1819 4750 
Q 2544 4750 2975 4387 
Q 3406 4025 3406 3419 
Q 3406 3131 3298 2873 
Q 3191 2616 2906 2266 
Q 2828 2175 2409 1742 
Q 1991 1309 1228 531 
z
" transform="scale(0.015625)"/>
        <path id="DejaVuSans-30" d="M 2034 4250 
Q 1547 4250 1301 3770 
Q 1056 3291 1056 2328 
Q 1056 1369 1301 889 
Q 1547 409 2034 409 
Q 2525 409 2770 889 
Q 3016 1369 3016 2328 
Q 3016 3291 2770 3770 
Q 2525 4250 2034 4250 
z
M 2034 4750 
Q 2819 4750 3233 4129 
Q 3647 3509 3647 2328 
Q 3647 1150 3233 529 
Q 2819 -91 2034 -91 
Q 1250 -91 836 529 
Q 422 1150 422 2328 
Q 422 3509 836 4129 
Q 1250 4750 2034 4750 
z
" transform="scale(0.015625)"/>
        <path id="DejaVuSans-35" d="M 691 4666 
L 3169 4666 
L 3169 4134 
L 1269 4134 
L 1269 2991 
Q 1406 3038 1543 3061 
Q 1681 3084 1819 3084 
Q 2600 3084 3056 2656 
Q 3513 2228 3513 1497 
Q 3513 744 3044 326 
Q 2575 -91 1722 -91 
Q 1428 -91 1123 -41 
Q 819 9 494 109 
L 494 744 
Q 775 591 1075 516 
Q 1375 441 1709 441 
Q 2250 441 2565 725 
Q 2881 1009 2881 1497 
Q 2881 1984 2565 2268 
Q 2250 2553 1709 2553 
Q 1456 2553 1204 2497 
Q 953 2441 691 2322 
L 691 4666 
z
" transform="scale(0.015625)"/>
       </defs>
       <use xlink:href="#DejaVuSans-32"/>
       <use xlink:href="#DejaVuSans-30" x="63.623047"/>
       <use xlink:href="#DejaVuSans-30" x="127.246094"/>
       <use xlink:href="#DejaVuSans-35" x="190.869141"/>
      </g>
     </g>
    </g>
    <g id="xtick_2">
     <g id="line2d_2">
      <g>
       <use xlink:href="#m96f2639474" x="163.899043" y="320.4" style="stroke: #000000; stroke-width: 0.8"/>
      </g>
     </g>
     <g id="text_2">
      <!-- 2007 -->
      <g transform="translate(148.629043 336.518125) scale(0.12 -0.12)">
       <defs>
        <path id="DejaVuSans-37" d="M 525 4666 
L 3525 4666 
L 3525 4397 
L 1831 0 
L 1172 0 
L 2766 4134 
L 525 4134 
L 525 4666 
z
" transform="scale(0.015625)"/>
       </defs>
       <use xlink:href="#DejaVuSans-32"/>
       <use xlink:href="#DejaVuSans-30" x="63.623047"/>
       <use xlink:href="#DejaVuSans-30" x="127.246094"/>
       <use xlink:href="#DejaVuSans-37" x="190.869141"/>
      </g>
     </g>
    </g>
    <g id="xtick_3">
     <g id="line2d_3">
      <g>
       <use xlink:href="#m96f2639474" x="223.970813" y="320.4" style="stroke: #000000; stroke-width: 0.8"/>
      </g>
     </g>
     <g id="text_3">
      <!-- 2010 -->
      <g transform="translate(208.700813 336.518125) scale(0.12 -0.12)">
       <defs>
        <path id="DejaVuSans-31" d="M 794 531 
L 1825 531 
L 1825 4091 
L 703 3866 
L 703 4441 
L 1819 4666 
L 2450 4666 
L 2450 531 
L 3481 531 
L 3481 0 
L 794 0 
L 794 531 
z
" transform="scale(0.015625)"/>
       </defs>
       <use xlink:href="#DejaVuSans-32"/>
       <use xlink:href="#DejaVuSans-30" x="63.623047"/>
       <use xlink:href="#DejaVuSans-31" x="127.246094"/>
       <use xlink:href="#DejaVuSans-30" x="190.869141"/>
      </g>
     </g>
    </g>
    <g id="xtick_4">
     <g id="line2d_4">
      <g>
       <use xlink:href="#m96f2639474" x="284.042584" y="320.4" style="stroke: #000000; stroke-width: 0.8"/>
      </g>
     </g>
     <g id="text_4">
      <!-- 2012 -->
      <g transform="translate(268.772584 336.518125) scale(0.12 -0.12)">
       <use xlink:href="#DejaVuSans-32"/>
       <use xlink:href="#DejaVuSans-30" x="63.623047"/>
       <use xlink:href="#DejaVuSans-31" x="127.246094"/>
       <use xlink:href="#DejaVuSans-32" x="190.869141"/>
      </g>
     </g>
    </g>
    <g id="xtick_5">
     <g id="line2d_5">
      <g>
       <use xlink:href="#m96f2639474" x="344.114354" y="320.4" style="stroke: #000000; stroke-width: 0.8"/>
      </g>
     </g>
     <g id="text_5">
      <!-- 2015 -->
      <g transform="translate(328.844354 336.518125) scale(0.12 -0.12)">
       <use xlink:href="#DejaVuSans-32"/>
       <use xlink:href="#DejaVuSans-30" x="63.623047"/>
       <use xlink:href="#DejaVuSans-31" x="127.246094"/>
       <use xlink:href="#DejaVuSans-35" x="190.869141"/>
      </g>
     </g>
    </g>
    <g id="xtick_6">
     <g id="line2d_6">
      <g>
       <use xlink:href="#m96f2639474" x="404.186124" y="320.4" style="stroke: #000000; stroke-width: 0.8"/>
      </g>
     </g>
     <g id="text_6">
      <!-- 2017 -->
      <g transform="translate(388.916124 336.518125) scale(0.12 -0.12)">
       <use xlink:href="#DejaVuSans-32"/>
       <use xlink:href="#DejaVuSans-30" x="63.623047"/>
       <use xlink:href="#DejaVuSans-31" x="127.246094"/>
       <use xlink:href="#DejaVuSans-37" x="190.869141"/>
      </g>
     </g>
    </g>
    <g id="xtick_7">
     <g id="line2d_7">
      <g>
       <use xlink:href="#m96f2639474" x="464.257895" y="320.4" style="stroke: #000000; stroke-width: 0.8"/>
      </g>
     </g>
     <g id="text_7">
      <!-- 2020 -->
      <g transform="translate(448.987895 336.518125) scale(0.12 -0.12)">
       <use xlink:href="#DejaVuSans-32"/>
       <use xlink:href="#DejaVuSans-30" x="63.623047"/>
       <use xlink:href="#DejaVuSans-32" x="127.246094"/>
       <use xlink:href="#DejaVuSans-30" x="190.869141"/>
      </g>
     </g>
    </g>
    <g id="xtick_8">
     <g id="line2d_8">
      <g>
       <use xlink:href="#m96f2639474" x="524.329665" y="320.4" style="stroke: #000000; stroke-width: 0.8"/>
      </g>
     </g>
     <g id="text_8">
      <!-- 2022 -->
      <g transform="translate(509.059665 336.518125) scale(0.12 -0.12)">
       <use xlink:href="#DejaVuSans-32"/>
       <use xlink:href="#DejaVuSans-30" x="63.623047"/>
       <use xlink:href="#DejaVuSans-32" x="127.246094"/>
       <use xlink:href="#DejaVuSans-32" x="190.869141"/>
      </g>
     </g>
    </g>
    <g id="text_9">
     <!-- Year -->
     <g transform="translate(316.21875 354.411406) scale(0.15 -0.15)">
      <defs>
       <path id="DejaVuSans-59" d="M -13 4666 
L 666 4666 
L 1959 2747 
L 3244 4666 
L 3922 4666 
L 2272 2222 
L 2272 0 
L 1638 0 
L 1638 2222 
L -13 4666 
z
" transform="scale(0.015625)"/>
       <path id="DejaVuSans-65" d="M 3597 1894 
L 3597 1613 
L 953 1613 
Q 991 1019 1311 708 
Q 1631 397 2203 397 
Q 2534 397 2845 478 
Q 3156 559 3463 722 
L 3463 178 
Q 3153 47 2828 -22 
Q 2503 -91 2169 -91 
Q 1331 -91 842 396 
Q 353 884 353 1716 
Q 353 2575 817 3079 
Q 1281 3584 2069 3584 
Q 2775 3584 3186 3129 
Q 3597 2675 3597 1894 
z
M 3022 2063 
Q 3016 2534 2758 2815 
Q 2500 3097 2075 3097 
Q 1594 3097 1305 2825 
Q 1016 2553 972 2059 
L 3022 2063 
z
" transform="scale(0.015625)"/>
       <path id="DejaVuSans-61" d="M 2194 1759 
Q 1497 1759 1228 1600 
Q 959 1441 959 1056 
Q 959 750 1161 570 
Q 1363 391 1709 391 
Q 2188 391 2477 730 
Q 2766 1069 2766 1631 
L 2766 1759 
L 2194 1759 
z
M 3341 1997 
L 3341 0 
L 2766 0 
L 2766 531 
Q 2569 213 2275 61 
Q 1981 -91 1556 -91 
Q 1019 -91 701 211 
Q 384 513 384 1019 
Q 384 1609 779 1909 
Q 1175 2209 1959 2209 
L 2766 2209 
L 2766 2266 
Q 2766 2663 2505 2880 
Q 2244 3097 1772 3097 
Q 1472 3097 1187 3025 
Q 903 2953 641 2809 
L 641 3341 
Q 956 3463 1253 3523 
Q 1550 3584 1831 3584 
Q 2591 3584 2966 3190 
Q 3341 2797 3341 1997 
z
" transform="scale(0.015625)"/>
       <path id="DejaVuSans-72" d="M 2631 2963 
Q 2534 3019 2420 3045 
Q 2306 3072 2169 3072 
Q 1681 3072 1420 2755 
Q 1159 2438 1159 1844 
L 1159 0 
L 581 0 
L 581 3500 
L 1159 3500 
L 1159 2956 
Q 1341 3275 1631 3429 
Q 1922 3584 2338 3584 
Q 2397 3584 2469 3576 
Q 2541 3569 2628 3553 
L 2631 2963 
z
" transform="scale(0.015625)"/>
      </defs>
      <use xlink:href="#DejaVuSans-59"/>
      <use xlink:href="#DejaVuSans-65" x="47.833984"/>
      <use xlink:href="#DejaVuSans-61" x="109.357422"/>
      <use xlink:href="#DejaVuSans-72" x="170.636719"/>
     </g>
    </g>
   </g>
   <g id="matplotlib.axis_2">
    <g id="ytick_1">
     <g id="line2d_9">
      <defs>
       <path id="m33fd9833e9" d="M 0 0 
L -3.5 0 
" style="stroke: #000000; stroke-width: 0.8"/>
      </defs>
      <g>
       <use xlink:href="#m33fd9833e9" x="81" y="310.330493" style="stroke: #000000; stroke-width: 0.8"/>
      </g>
     </g>
     <g id="text_10">
      <!-- 10.0 -->
      <g transform="translate(47.28125 314.889555) scale(0.12 -0.12)">
       <defs>
        <path id="DejaVuSans-2e" d="M 684 794 
L 1344 794 
L 1344 0 
L 684 0 
L 684 794 
z
" transform="scale(0.015625)"/>
       </defs>
       <use xlink:href="#DejaVuSans-31"/>
       <use xlink:href="#DejaVuSans-30" x="63.623047"/>
       <use xlink:href="#DejaVuSans-2e" x="127.246094"/>
       <use xlink:href="#DejaVuSans-30" x="159.033203"/>
      </g>
     </g>
    </g>
    <g id="ytick_2">
     <g id="line2d_10">
      <g>
       <use xlink:href="#m33fd9833e9" x="81" y="274.422105" style="stroke: #000000; stroke-width: 0.8"/>
      </g>
     </g>
     <g id="text_11">
      <!-- 12.5 -->
      <g transform="translate(47.28125 278.981168) scale(0.12 -0.12)">
       <use xlink:href="#DejaVuSans-31"/>
       <use xlink:href="#DejaVuSans-32" x="63.623047"/>
       <use xlink:href="#DejaVuSans-2e" x="127.246094"/>
       <use xlink:href="#DejaVuSans-35" x="159.033203"/>
      </g>
     </g>
    </g>
    <g id="ytick_3">
     <g id="line2d_11">
      <g>
       <use xlink:href="#m33fd9833e9" x="81" y="238.513718" style="stroke: #000000; stroke-width: 0.8"/>
      </g>
     </g>
     <g id="text_12">
      <!-- 15.0 -->
      <g transform="translate(47.28125 243.07278) scale(0.12 -0.12)">
       <use xlink:href="#DejaVuSans-31"/>
       <use xlink:href="#DejaVuSans-35" x="63.623047"/>
       <use xlink:href="#DejaVuSans-2e" x="127.246094"/>
       <use xlink:href="#DejaVuSans-30" x="159.033203"/>
      </g>
     </g>
    </g>
    <g id="ytick_4">
     <g id="line2d_12">
      <g>
       <use xlink:href="#m33fd9833e9" x="81" y="202.60533" style="stroke: #000000; stroke-width: 0.8"/>
      </g>
     </g>
     <g id="text_13">
      <!-- 17.5 -->
      <g transform="translate(47.28125 207.164393) scale(0.12 -0.12)">
       <use xlink:href="#DejaVuSans-31"/>
       <use xlink:href="#DejaVuSans-37" x="63.623047"/>
       <use xlink:href="#DejaVuSans-2e" x="127.246094"/>
       <use xlink:href="#DejaVuSans-35" x="159.033203"/>
      </g>
     </g>
    </g>
    <g id="ytick_5">
     <g id="line2d_13">
      <g>
       <use xlink:href="#m33fd9833e9" x="81" y="166.696943" style="stroke: #000000; stroke-width: 0.8"/>
      </g>
     </g>
     <g id="text_14">
      <!-- 20.0 -->
      <g transform="translate(47.28125 171.256006) scale(0.12 -0.12)">
       <use xlink:href="#DejaVuSans-32"/>
       <use xlink:href="#DejaVuSans-30" x="63.623047"/>
       <use xlink:href="#DejaVuSans-2e" x="127.246094"/>
       <use xlink:href="#DejaVuSans-30" x="159.033203"/>
      </g>
     </g>
    </g>
    <g id="ytick_6">
     <g id="line2d_14">
      <g>
       <use xlink:href="#m33fd9833e9" x="81" y="130.788556" style="stroke: #000000; stroke-width: 0.8"/>
      </g>
     </g>
     <g id="text_15">
      <!-- 22.5 -->
      <g transform="translate(47.28125 135.347618) scale(0.12 -0.12)">
       <use xlink:href="#DejaVuSans-32"/>
       <use xlink:href="#DejaVuSans-32" x="63.623047"/>
       <use xlink:href="#DejaVuSans-2e" x="127.246094"/>
       <use xlink:href="#DejaVuSans-35" x="159.033203"/>
      </g>
     </g>
    </g>
    <g id="ytick_7">
     <g id="line2d_15">
      <g>
       <use xlink:href="#m33fd9833e9" x="81" y="94.880168" style="stroke: #000000; stroke-width: 0.8"/>
      </g>
     </g>
     <g id="text_16">
      <!-- 25.0 -->
      <g transform="translate(47.28125 99.439231) scale(0.12 -0.12)">
       <use xlink:href="#DejaVuSans-32"/>
       <use xlink:href="#DejaVuSans-35" x="63.623047"/>
       <use xlink:href="#DejaVuSans-2e" x="127.246094"/>
       <use xlink:href="#DejaVuSans-30" x="159.033203"/>
      </g>
     </g>
    </g>
    <g id="ytick_8">
     <g id="line2d_16">
      <g>
       <use xlink:href="#m33fd9833e9" x="81" y="58.971781" style="stroke: #000000; stroke-width: 0.8"/>
      </g>
     </g>
     <g id="text_17">
      <!-- 27.5 -->
      <g transform="translate(47.28125 63.530844) scale(0.12 -0.12)">
       <use xlink:href="#DejaVuSans-32"/>
       <use xlink:href="#DejaVuSans-37" x="63.623047"/>
       <use xlink:href="#DejaVuSans-2e" x="127.246094"/>
       <use xlink:href="#DejaVuSans-35" x="159.033203"/>
      </g>
     </g>
    </g>
    <g id="text_18">
     <!-- Total coral cover (%) -->
     <g transform="translate(40.161719 258.769922) rotate(-90) scale(0.15 -0.15)">
      <defs>
       <path id="DejaVuSans-54" d="M -19 4666 
L 3928 4666 
L 3928 4134 
L 2272 4134 
L 2272 0 
L 1638 0 
L 1638 4134 
L -19 4134 
L -19 4666 
z
" transform="scale(0.015625)"/>
       <path id="DejaVuSans-6f" d="M 1959 3097 
Q 1497 3097 1228 2736 
Q 959 2375 959 1747 
Q 959 1119 1226 758 
Q 1494 397 1959 397 
Q 2419 397 2687 759 
Q 2956 1122 2956 1747 
Q 2956 2369 2687 2733 
Q 2419 3097 1959 3097 
z
M 1959 3584 
Q 2709 3584 3137 3096 
Q 3566 2609 3566 1747 
Q 3566 888 3137 398 
Q 2709 -91 1959 -91 
Q 1206 -91 779 398 
Q 353 888 353 1747 
Q 353 2609 779 3096 
Q 1206 3584 1959 3584 
z
" transform="scale(0.015625)"/>
       <path id="DejaVuSans-74" d="M 1172 4494 
L 1172 3500 
L 2356 3500 
L 2356 3053 
L 1172 3053 
L 1172 1153 
Q 1172 725 1289 603 
Q 1406 481 1766 481 
L 2356 481 
L 2356 0 
L 1766 0 
Q 1100 0 847 248 
Q 594 497 594 1153 
L 594 3053 
L 172 3053 
L 172 3500 
L 594 3500 
L 594 4494 
L 1172 4494 
z
" transform="scale(0.015625)"/>
       <path id="DejaVuSans-6c" d="M 603 4863 
L 1178 4863 
L 1178 0 
L 603 0 
L 603 4863 
z
" transform="scale(0.015625)"/>
       <path id="DejaVuSans-20" transform="scale(0.015625)"/>
       <path id="DejaVuSans-63" d="M 3122 3366 
L 3122 2828 
Q 2878 2963 2633 3030 
Q 2388 3097 2138 3097 
Q 1578 3097 1268 2742 
Q 959 2388 959 1747 
Q 959 1106 1268 751 
Q 1578 397 2138 397 
Q 2388 397 2633 464 
Q 2878 531 3122 666 
L 3122 134 
Q 2881 22 2623 -34 
Q 2366 -91 2075 -91 
Q 1284 -91 818 406 
Q 353 903 353 1747 
Q 353 2603 823 3093 
Q 1294 3584 2113 3584 
Q 2378 3584 2631 3529 
Q 2884 3475 3122 3366 
z
" transform="scale(0.015625)"/>
       <path id="DejaVuSans-76" d="M 191 3500 
L 800 3500 
L 1894 563 
L 2988 3500 
L 3597 3500 
L 2284 0 
L 1503 0 
L 191 3500 
z
" transform="scale(0.015625)"/>
       <path id="DejaVuSans-28" d="M 1984 4856 
Q 1566 4138 1362 3434 
Q 1159 2731 1159 2009 
Q 1159 1288 1364 580 
Q 1569 -128 1984 -844 
L 1484 -844 
Q 1016 -109 783 600 
Q 550 1309 550 2009 
Q 550 2706 781 3412 
Q 1013 4119 1484 4856 
L 1984 4856 
z
" transform="scale(0.015625)"/>
       <path id="DejaVuSans-25" d="M 4653 2053 
Q 4381 2053 4226 1822 
Q 4072 1591 4072 1178 
Q 4072 772 4226 539 
Q 4381 306 4653 306 
Q 4919 306 5073 539 
Q 5228 772 5228 1178 
Q 5228 1588 5073 1820 
Q 4919 2053 4653 2053 
z
M 4653 2450 
Q 5147 2450 5437 2106 
Q 5728 1763 5728 1178 
Q 5728 594 5436 251 
Q 5144 -91 4653 -91 
Q 4153 -91 3862 251 
Q 3572 594 3572 1178 
Q 3572 1766 3864 2108 
Q 4156 2450 4653 2450 
z
M 1428 4353 
Q 1159 4353 1004 4120 
Q 850 3888 850 3481 
Q 850 3069 1003 2837 
Q 1156 2606 1428 2606 
Q 1700 2606 1854 2837 
Q 2009 3069 2009 3481 
Q 2009 3884 1853 4118 
Q 1697 4353 1428 4353 
z
M 4250 4750 
L 4750 4750 
L 1831 -91 
L 1331 -91 
L 4250 4750 
z
M 1428 4750 
Q 1922 4750 2215 4408 
Q 2509 4066 2509 3481 
Q 2509 2891 2217 2550 
Q 1925 2209 1428 2209 
Q 931 2209 642 2551 
Q 353 2894 353 3481 
Q 353 4063 643 4406 
Q 934 4750 1428 4750 
z
" transform="scale(0.015625)"/>
       <path id="DejaVuSans-29" d="M 513 4856 
L 1013 4856 
Q 1481 4119 1714 3412 
Q 1947 2706 1947 2009 
Q 1947 1309 1714 600 
Q 1481 -109 1013 -844 
L 513 -844 
Q 928 -128 1133 580 
Q 1338 1288 1338 2009 
Q 1338 2731 1133 3434 
Q 928 4138 513 4856 
z
" transform="scale(0.015625)"/>
      </defs>
      <use xlink:href="#DejaVuSans-54"/>
      <use xlink:href="#DejaVuSans-6f" x="44.083984"/>
      <use xlink:href="#DejaVuSans-74" x="105.265625"/>
      <use xlink:href="#DejaVuSans-61" x="144.474609"/>
      <use xlink:href="#DejaVuSans-6c" x="205.753906"/>
      <use xlink:href="#DejaVuSans-20" x="233.537109"/>
      <use xlink:href="#DejaVuSans-63" x="265.324219"/>
      <use xlink:href="#DejaVuSans-6f" x="320.304688"/>
      <use xlink:href="#DejaVuSans-72" x="381.486328"/>
      <use xlink:href="#DejaVuSans-61" x="422.599609"/>
      <use xlink:href="#DejaVuSans-6c" x="483.878906"/>
      <use xlink:href="#DejaVuSans-20" x="511.662109"/>
      <use xlink:href="#DejaVuSans-63" x="543.449219"/>
      <use xlink:href="#DejaVuSans-6f" x="598.429688"/>
      <use xlink:href="#DejaVuSans-76" x="659.611328"/>
      <use xlink:href="#DejaVuSans-65" x="718.791016"/>
      <use xlink:href="#DejaVuSans-72" x="780.314453"/>
      <use xlink:href="#DejaVuSans-20" x="821.427734"/>
      <use xlink:href="#DejaVuSans-28" x="853.214844"/>
      <use xlink:href="#DejaVuSans-25" x="892.228516"/>
      <use xlink:href="#DejaVuSans-29" x="987.248047"/>
     </g>
    </g>
   </g>
   <g id="line2d_17">
    <path d="M 103.827273 196.859989 
L 127.855981 197.287891 
L 151.884689 304.987555 
L 175.913397 296.341198 
L 199.942105 279.629197 
L 223.970813 258.368052 
L 247.999522 232.635286 
L 272.02823 202.563296 
L 296.056938 280.292367 
L 320.085646 267.743717 
L 344.114354 233.945983 
L 368.143062 247.244816 
L 392.17177 212.127211 
L 416.200478 191.911744 
L 440.229187 154.121963 
L 464.257895 228.769436 
L 488.286603 241.817268 
L 512.315311 198.678905 
L 536.344019 154.051457 
L 560.372727 111.059746 
" clip-path="url(#p2129804ebc)" style="fill: none; stroke-dasharray: 3.7,1.6; stroke-dashoffset: 0; stroke: #1f77b4; stroke-opacity: 0.6"/>
   </g>
   <g id="line2d_18">
    <path d="M 103.827273 196.859989 
L 127.855981 194.997858 
L 151.884689 299.923708 
L 175.913397 287.336368 
L 199.942105 267.642789 
L 223.970813 244.12687 
L 247.999522 213.588792 
L 272.02823 181.638324 
L 296.056938 267.281198 
L 320.085646 252.397391 
L 344.114354 215.288698 
L 368.143062 229.549232 
L 392.17177 190.997986 
L 416.200478 169.868762 
L 440.229187 130.305051 
L 464.257895 213.839095 
L 488.286603 229.467445 
L 512.315311 187.196305 
L 536.344019 144.768643 
L 560.372727 102.772476 
" clip-path="url(#p2129804ebc)" style="fill: none; stroke-dasharray: 3.7,1.6; stroke-dashoffset: 0; stroke: #ff7f0e; stroke-opacity: 0.6"/>
   </g>
   <g id="line2d_19">
    <path d="M 103.827273 196.859989 
L 127.855981 196.083649 
L 151.884689 299.237774 
L 175.913397 288.28807 
L 199.942105 268.486419 
L 223.970813 246.264209 
L 247.999522 221.364718 
L 272.02823 193.069809 
L 296.056938 274.244366 
L 320.085646 264.180346 
L 344.114354 231.239965 
L 368.143062 245.582286 
L 392.17177 211.945305 
L 416.200478 192.138773 
L 440.229187 154.44629 
L 464.257895 226.349672 
L 488.286603 239.270593 
L 512.315311 199.196419 
L 536.344019 157.902492 
L 560.372727 117.429254 
" clip-path="url(#p2129804ebc)" style="fill: none; stroke-dasharray: 3.7,1.6; stroke-dashoffset: 0; stroke: #2ca02c; stroke-opacity: 0.6"/>
   </g>
   <g id="line2d_20">
    <path d="M 103.827273 196.859989 
L 127.855981 194.119353 
L 151.884689 297.132169 
L 175.913397 281.739714 
L 199.942105 258.605359 
L 223.970813 229.156807 
L 247.999522 195.793182 
L 272.02823 160.115116 
L 296.056938 254.979319 
L 320.085646 236.708406 
L 344.114354 196.058904 
L 368.143062 211.206403 
L 392.17177 170.888278 
L 416.200478 149.152703 
L 440.229187 108.831758 
L 464.257895 200.772932 
L 488.286603 218.15829 
L 512.315311 172.885007 
L 536.344019 124.95647 
L 560.372727 80.79154 
" clip-path="url(#p2129804ebc)" style="fill: none; stroke-dasharray: 3.7,1.6; stroke-dashoffset: 0; stroke: #d62728; stroke-opacity: 0.6"/>
   </g>
   <g id="line2d_21">
    <path d="M 103.827273 196.859989 
L 127.855981 196.656158 
L 151.884689 303.476267 
L 175.913397 295.870523 
L 199.942105 281.856765 
L 223.970813 264.008901 
L 247.999522 241.835819 
L 272.02823 217.472355 
L 296.056938 288.722059 
L 320.085646 279.62538 
L 344.114354 249.634968 
L 368.143062 261.630851 
L 392.17177 228.550868 
L 416.200478 209.237877 
L 440.229187 172.700281 
L 464.257895 239.673887 
L 488.286603 252.056142 
L 512.315311 211.864929 
L 536.344019 170.210011 
L 560.372727 128.027709 
" clip-path="url(#p2129804ebc)" style="fill: none; stroke-dasharray: 3.7,1.6; stroke-dashoffset: 0; stroke: #9467bd; stroke-opacity: 0.6"/>
   </g>
   <g id="line2d_22">
    <path d="M 103.827273 196.859989 
L 127.855981 198.073327 
L 151.884689 305.587819 
L 175.913397 297.944879 
L 199.942105 285.661793 
L 223.970813 270.097443 
L 247.999522 249.771478 
L 272.02823 226.280599 
L 296.056938 292.735257 
L 320.085646 284.653865 
L 344.114354 257.193206 
L 368.143062 268.402243 
L 392.17177 237.93662 
L 416.200478 219.097429 
L 440.229187 184.921783 
L 464.257895 246.618723 
L 488.286603 257.379342 
L 512.315311 220.006956 
L 536.344019 180.726679 
L 560.372727 141.322312 
" clip-path="url(#p2129804ebc)" style="fill: none; stroke-dasharray: 3.7,1.6; stroke-dashoffset: 0; stroke: #8c564b; stroke-opacity: 0.6"/>
   </g>
   <g id="line2d_23">
    <path d="M 103.827273 196.859989 
L 127.855981 196.839473 
L 151.884689 304.653612 
L 175.913397 296.46446 
L 199.942105 281.846448 
L 223.970813 261.805818 
L 247.999522 238.887337 
L 272.02823 211.876848 
L 296.056938 286.712639 
L 320.085646 276.913721 
L 344.114354 247.006506 
L 368.143062 258.742927 
L 392.17177 224.847895 
L 416.200478 202.941695 
L 440.229187 165.555208 
L 464.257895 234.892173 
L 488.286603 247.40416 
L 512.315311 206.090491 
L 536.344019 162.118748 
L 560.372727 119.75031 
" clip-path="url(#p2129804ebc)" style="fill: none; stroke-dasharray: 3.7,1.6; stroke-dashoffset: 0; stroke: #e377c2; stroke-opacity: 0.6"/>
   </g>
   <g id="line2d_24">
    <path d="M 103.827273 196.859989 
L 127.855981 195.584467 
L 151.884689 301.749479 
L 175.913397 292.929784 
L 199.942105 278.377633 
L 223.970813 260.80669 
L 247.999522 240.106032 
L 272.02823 215.934669 
L 296.056938 288.696676 
L 320.085646 281.355596 
L 344.114354 253.297047 
L 368.143062 266.313856 
L 392.17177 234.964089 
L 416.200478 216.02337 
L 440.229187 181.507885 
L 464.257895 244.913889 
L 488.286603 256.692614 
L 512.315311 218.957827 
L 536.344019 177.737227 
L 560.372727 136.825442 
" clip-path="url(#p2129804ebc)" style="fill: none; stroke-dasharray: 3.7,1.6; stroke-dashoffset: 0; stroke: #7f7f7f; stroke-opacity: 0.6"/>
   </g>
   <g id="line2d_25">
    <path d="M 103.827273 196.859989 
L 127.855981 197.065092 
L 151.884689 306.153851 
L 175.913397 301.553546 
L 199.942105 292.012496 
L 223.970813 279.827687 
L 247.999522 262.818841 
L 272.02823 242.348836 
L 296.056938 303.918912 
L 320.085646 299.082203 
L 344.114354 273.82274 
L 368.143062 283.934704 
L 392.17177 255.018803 
L 416.200478 236.197943 
L 440.229187 201.984224 
L 464.257895 258.692163 
L 488.286603 268.513642 
L 512.315311 231.981687 
L 536.344019 193.402239 
L 560.372727 154.165676 
" clip-path="url(#p2129804ebc)" style="fill: none; stroke-dasharray: 3.7,1.6; stroke-dashoffset: 0; stroke: #bcbd22; stroke-opacity: 0.6"/>
   </g>
   <g id="line2d_26">
    <path d="M 103.827273 196.859989 
L 127.855981 196.529247 
L 151.884689 303.101247 
L 175.913397 294.751293 
L 199.942105 277.943801 
L 223.970813 259.391736 
L 247.999522 237.457021 
L 272.02823 210.782149 
L 296.056938 285.433661 
L 320.085646 276.176229 
L 344.114354 244.730574 
L 368.143062 256.88157 
L 392.17177 223.936958 
L 416.200478 204.148757 
L 440.229187 169.48239 
L 464.257895 237.533326 
L 488.286603 251.805141 
L 512.315311 215.538289 
L 536.344019 177.714665 
L 560.372727 138.731923 
" clip-path="url(#p2129804ebc)" style="fill: none; stroke-dasharray: 3.7,1.6; stroke-dashoffset: 0; stroke: #17becf; stroke-opacity: 0.6"/>
   </g>
   <g id="line2d_27">
    <path d="M 103.827273 196.859989 
L 127.855981 195.151561 
L 151.884689 299.819272 
L 175.913397 288.076668 
L 199.942105 267.91706 
L 223.970813 243.341881 
L 247.999522 213.420684 
L 272.02823 181.126281 
L 296.056938 266.282834 
L 320.085646 250.338617 
L 344.114354 211.972098 
L 368.143062 224.988907 
L 392.17177 185.676197 
L 416.200478 163.485153 
L 440.229187 121.75691 
L 464.257895 204.948294 
L 488.286603 218.405061 
L 512.315311 171.704737 
L 536.344019 123.729666 
L 560.372727 77.682228 
" clip-path="url(#p2129804ebc)" style="fill: none; stroke-dasharray: 3.7,1.6; stroke-dashoffset: 0; stroke: #1f77b4; stroke-opacity: 0.6"/>
   </g>
   <g id="line2d_28">
    <path d="M 103.827273 196.859989 
L 127.855981 195.86085 
L 151.884689 301.942509 
L 175.913397 292.782786 
L 199.942105 276.947518 
L 223.970813 257.137213 
L 247.999522 232.58179 
L 272.02823 206.968846 
L 296.056938 285.717095 
L 320.085646 276.963076 
L 344.114354 248.051404 
L 368.143062 263.210184 
L 392.17177 231.53891 
L 416.200478 212.481151 
L 440.229187 177.001145 
L 464.257895 245.420122 
L 488.286603 258.572303 
L 512.315311 220.270648 
L 536.344019 178.921727 
L 560.372727 135.344817 
" clip-path="url(#p2129804ebc)" style="fill: none; stroke-dasharray: 3.7,1.6; stroke-dashoffset: 0; stroke: #ff7f0e; stroke-opacity: 0.6"/>
   </g>
   <g id="line2d_29">
    <path d="M 103.827273 196.859989 
L 127.855981 195.841109 
L 151.884689 299.93169 
L 175.913397 289.152043 
L 199.942105 271.054362 
L 223.970813 249.914184 
L 247.999522 222.760884 
L 272.02823 193.511443 
L 296.056938 274.438962 
L 320.085646 262.730744 
L 344.114354 228.054506 
L 368.143062 240.848516 
L 392.17177 204.116324 
L 416.200478 183.370652 
L 440.229187 145.180398 
L 464.257895 221.23517 
L 488.286603 234.782184 
L 512.315311 193.656061 
L 536.344019 151.60913 
L 560.372727 109.378884 
" clip-path="url(#p2129804ebc)" style="fill: none; stroke-dasharray: 3.7,1.6; stroke-dashoffset: 0; stroke: #2ca02c; stroke-opacity: 0.6"/>
   </g>
   <g id="line2d_30">
    <path d="M 103.827273 196.859989 
L 127.855981 197.694005 
L 151.884689 303.973449 
L 175.913397 295.976584 
L 199.942105 279.274886 
L 223.970813 258.537248 
L 247.999522 232.72398 
L 272.02823 202.880376 
L 296.056938 278.514207 
L 320.085646 264.517365 
L 344.114354 227.831707 
L 368.143062 237.971873 
L 392.17177 199.630735 
L 416.200478 175.789852 
L 440.229187 132.088852 
L 464.257895 208.128113 
L 488.286603 217.186718 
L 512.315311 167.254401 
L 536.344019 115.680706 
L 560.372727 64.33122 
" clip-path="url(#p2129804ebc)" style="fill: none; stroke-dasharray: 3.7,1.6; stroke-dashoffset: 0; stroke: #d62728; stroke-opacity: 0.6"/>
   </g>
   <g id="line2d_31">
    <path d="M 103.827273 196.859989 
L 127.855981 194.869537 
L 151.884689 299.197569 
L 175.913397 287.85035 
L 199.942105 270.366046 
L 223.970813 249.988012 
L 247.999522 226.014531 
L 272.02823 198.274051 
L 296.056938 279.767802 
L 320.085646 269.028336 
L 344.114354 235.133303 
L 368.143062 249.936733 
L 392.17177 212.82945 
L 416.200478 192.362982 
L 440.229187 152.015245 
L 464.257895 228.353451 
L 488.286603 240.975427 
L 512.315311 196.109668 
L 536.344019 149.912757 
L 560.372727 104.301046 
" clip-path="url(#p2129804ebc)" style="fill: none; stroke-dasharray: 3.7,1.6; stroke-dashoffset: 0; stroke: #9467bd; stroke-opacity: 0.6"/>
   </g>
   <g id="line2d_32">
    <path d="M 103.827273 196.859989 
L 127.855981 197.994361 
L 151.884689 305.8995 
L 175.913397 298.75407 
L 199.942105 285.966762 
L 223.970813 269.988935 
L 247.999522 248.509566 
L 272.02823 224.193465 
L 296.056938 295.186044 
L 320.085646 285.786191 
L 344.114354 256.318932 
L 368.143062 269.225752 
L 392.17177 236.742249 
L 416.200478 217.103521 
L 440.229187 182.179102 
L 464.257895 253.150395 
L 488.286603 267.969336 
L 512.315311 230.12456 
L 536.344019 189.389041 
L 560.372727 147.478892 
" clip-path="url(#p2129804ebc)" style="fill: none; stroke-dasharray: 3.7,1.6; stroke-dashoffset: 0; stroke: #8c564b; stroke-opacity: 0.6"/>
   </g>
   <g id="line2d_33">
    <path d="M 103.827273 196.859989 
L 127.855981 196.575781 
L 151.884689 302.030941 
L 175.913397 291.892457 
L 199.942105 275.564414 
L 223.970813 253.015527 
L 247.999522 227.132648 
L 272.02823 200.094595 
L 296.056938 278.966855 
L 320.085646 268.718109 
L 344.114354 237.379623 
L 368.143062 250.760243 
L 392.17177 215.988117 
L 416.200478 196.128 
L 440.229187 158.245151 
L 464.257895 228.23077 
L 488.286603 239.899506 
L 512.315311 198.456106 
L 536.344019 157.564063 
L 560.372727 114.817714 
" clip-path="url(#p2129804ebc)" style="fill: none; stroke-dasharray: 3.7,1.6; stroke-dashoffset: 0; stroke: #e377c2; stroke-opacity: 0.6"/>
   </g>
   <g id="line2d_34">
    <path d="M 103.827273 196.859989 
L 127.855981 196.630775 
L 151.884689 305.264312 
L 175.913397 299.718625 
L 199.942105 286.733168 
L 223.970813 269.281055 
L 247.999522 246.624892 
L 272.02823 219.619981 
L 296.056938 289.893867 
L 320.085646 278.101042 
L 344.114354 244.221521 
L 368.143062 253.230772 
L 392.17177 216.106567 
L 416.200478 192.447589 
L 440.229187 150.461293 
L 464.257895 223.649294 
L 488.286603 234.395811 
L 512.315311 189.676705 
L 536.344019 144.464057 
L 560.372727 100.56282 
" clip-path="url(#p2129804ebc)" style="fill: none; stroke-dasharray: 3.7,1.6; stroke-dashoffset: 0; stroke: #7f7f7f; stroke-opacity: 0.6"/>
   </g>
   <g id="line2d_35">
    <path d="M 103.827273 196.859989 
L 127.855981 196.737945 
L 151.884689 303.545316 
L 175.913397 294.856534 
L 199.942105 279.955352 
L 223.970813 259.190337 
L 247.999522 233.177687 
L 272.02823 202.84722 
L 296.056938 278.092581 
L 320.085646 262.92816 
L 344.114354 226.576701 
L 368.143062 238.6445 
L 392.17177 202.208433 
L 416.200478 181.252654 
L 440.229187 143.976156 
L 464.257895 223.96516 
L 488.286603 240.359205 
L 512.315311 199.431909 
L 536.344019 157.17064 
L 560.372727 114.556842 
" clip-path="url(#p2129804ebc)" style="fill: none; stroke-dasharray: 3.7,1.6; stroke-dashoffset: 0; stroke: #bcbd22; stroke-opacity: 0.6"/>
   </g>
   <g id="line2d_36">
    <path d="M 103.827273 196.859989 
L 127.855981 196.431949 
L 151.884689 304.988042 
L 175.913397 298.004289 
L 199.942105 285.918782 
L 223.970813 270.792774 
L 247.999522 250.660792 
L 272.02823 227.257968 
L 296.056938 296.521427 
L 320.085646 288.585277 
L 344.114354 259.920376 
L 368.143062 271.944462 
L 392.17177 238.299021 
L 416.200478 216.787654 
L 440.229187 180.086485 
L 464.257895 246.261963 
L 488.286603 257.59368 
L 512.315311 216.752401 
L 536.344019 173.925675 
L 560.372727 130.323383 
" clip-path="url(#p2129804ebc)" style="fill: none; stroke-dasharray: 3.7,1.6; stroke-dashoffset: 0; stroke: #17becf; stroke-opacity: 0.6"/>
   </g>
   <g id="line2d_37">
    <path d="M 103.827273 196.859989 
L 127.855981 195.340517 
L 151.884689 300.424106 
L 175.913397 290.299789 
L 199.942105 272.395618 
L 223.970813 249.313871 
L 247.999522 222.892903 
L 272.02823 193.209001 
L 296.056938 273.633784 
L 320.085646 261.540603 
L 344.114354 227.04627 
L 368.143062 240.338053 
L 392.17177 204.904581 
L 416.200478 185.412505 
L 440.229187 147.037524 
L 464.257895 221.195686 
L 488.286603 233.806381 
L 512.315311 189.97142 
L 536.344019 145.752906 
L 560.372727 99.893013 
" clip-path="url(#p2129804ebc)" style="fill: none; stroke-dasharray: 3.7,1.6; stroke-dashoffset: 0; stroke: #1f77b4; stroke-opacity: 0.6"/>
   </g>
   <g id="line2d_38">
    <path d="M 103.827273 196.859989 
L 127.855981 195.341927 
L 151.884689 299.587904 
L 175.913397 287.153112 
L 199.942105 266.194835 
L 223.970813 241.718519 
L 247.999522 212.423451 
L 272.02823 182.469322 
L 296.056938 268.548895 
L 320.085646 255.282495 
L 344.114354 219.891326 
L 368.143062 235.075488 
L 392.17177 198.61404 
L 416.200478 178.914676 
L 440.229187 140.887995 
L 464.257895 221.886645 
L 488.286603 239.301615 
L 512.315311 198.061273 
L 536.344019 155.358637 
L 560.372727 115.36343 
" clip-path="url(#p2129804ebc)" style="fill: none; stroke-dasharray: 3.7,1.6; stroke-dashoffset: 0; stroke: #ff7f0e; stroke-opacity: 0.6"/>
   </g>
   <g id="line2d_39">
    <path d="M 103.827273 196.859989 
L 127.855981 197.108806 
L 151.884689 304.839595 
L 175.913397 299.002338 
L 199.942105 287.725234 
L 223.970813 274.130278 
L 247.999522 255.761995 
L 272.02823 233.954912 
L 296.056938 299.740729 
L 320.085646 292.255817 
L 344.114354 264.147913 
L 368.143062 275.82652 
L 392.17177 245.370768 
L 416.200478 226.266475 
L 440.229187 189.824767 
L 464.257895 252.865551 
L 488.286603 263.146729 
L 512.315311 224.613815 
L 536.344019 182.545733 
L 560.372727 138.015582 
" clip-path="url(#p2129804ebc)" style="fill: none; stroke-dasharray: 3.7,1.6; stroke-dashoffset: 0; stroke: #2ca02c; stroke-opacity: 0.6"/>
   </g>
   <g id="line2d_40">
    <path d="M 103.827273 196.859989 
L 127.855981 194.901969 
L 151.884689 298.158293 
L 175.913397 285.16352 
L 199.942105 264.507644 
L 223.970813 239.904588 
L 247.999522 210.243131 
L 272.02823 178.684776 
L 296.056938 263.442854 
L 320.085646 248.701469 
L 344.114354 209.198393 
L 368.143062 221.252091 
L 392.17177 182.414592 
L 416.200478 160.547875 
L 440.229187 120.074638 
L 464.257895 201.669768 
L 488.286603 215.67507 
L 512.315311 173.303812 
L 536.344019 129.626784 
L 560.372727 88.575398 
" clip-path="url(#p2129804ebc)" style="fill: none; stroke-dasharray: 3.7,1.6; stroke-dashoffset: 0; stroke: #d62728; stroke-opacity: 0.6"/>
   </g>
   <g id="line2d_41">
    <path d="M 103.827273 196.859989 
L 127.855981 198.331379 
L 151.884689 306.017758 
L 175.913397 298.308148 
L 199.942105 282.232828 
L 223.970813 260.639201 
L 247.999522 233.155717 
L 272.02823 201.892988 
L 296.056938 280.959353 
L 320.085646 266.374491 
L 344.114354 230.175325 
L 368.143062 241.811627 
L 392.17177 204.461803 
L 416.200478 183.139393 
L 440.229187 144.000128 
L 464.257895 223.742361 
L 488.286603 238.004306 
L 512.315311 192.952412 
L 536.344019 147.085468 
L 560.372727 102.352261 
" clip-path="url(#p2129804ebc)" style="fill: none; stroke-dasharray: 3.7,1.6; stroke-dashoffset: 0; stroke: #9467bd; stroke-opacity: 0.6"/>
   </g>
   <g id="line2d_42">
    <path d="M 103.827273 196.859989 
L 127.855981 197.727848 
L 151.884689 305.511869 
L 175.913397 296.85656 
L 199.942105 281.87136 
L 223.970813 262.60059 
L 247.999522 239.094739 
L 272.02823 210.099981 
L 296.056938 284.139172 
L 320.085646 271.316959 
L 344.114354 237.183617 
L 368.143062 248.996184 
L 392.17177 214.451087 
L 416.200478 194.5952 
L 440.229187 157.179101 
L 464.257895 230.763344 
L 488.286603 243.835148 
L 512.315311 202.99951 
L 536.344019 161.67456 
L 560.372727 120.552668 
" clip-path="url(#p2129804ebc)" style="fill: none; stroke-dasharray: 3.7,1.6; stroke-dashoffset: 0; stroke: #8c564b; stroke-opacity: 0.6"/>
   </g>
   <g id="line2d_43">
    <path d="M 103.827273 196.859989 
L 127.855981 196.884597 
L 151.884689 301.228407 
L 175.913397 290.016071 
L 199.942105 269.11684 
L 223.970813 241.2817 
L 247.999522 209.806809 
L 272.02823 175.333849 
L 296.056938 261.274091 
L 320.085646 243.440315 
L 344.114354 203.170134 
L 368.143062 214.637223 
L 392.17177 171.545394 
L 416.200478 146.687815 
L 440.229187 103.156029 
L 464.257895 190.480473 
L 488.286603 203.385883 
L 512.315311 157.297551 
L 536.344019 110.896172 
L 560.372727 67.006216 
" clip-path="url(#p2129804ebc)" style="fill: none; stroke-dasharray: 3.7,1.6; stroke-dashoffset: 0; stroke: #e377c2; stroke-opacity: 0.6"/>
   </g>
   <g id="line2d_44">
    <path d="M 103.827273 196.859989 
L 127.855981 196.235942 
L 151.884689 300.440519 
L 175.913397 288.741008 
L 199.942105 269.003648 
L 223.970813 245.166349 
L 247.999522 216.805927 
L 272.02823 185.745322 
L 296.056938 270.713428 
L 320.085646 256.602366 
L 344.114354 217.608344 
L 368.143062 230.70694 
L 392.17177 190.425478 
L 416.200478 167.515274 
L 440.229187 124.469979 
L 464.257895 206.67146 
L 488.286603 217.592832 
L 512.315311 168.565812 
L 536.344019 119.595197 
L 560.372727 72.49722 
" clip-path="url(#p2129804ebc)" style="fill: none; stroke-dasharray: 3.7,1.6; stroke-dashoffset: 0; stroke: #7f7f7f; stroke-opacity: 0.6"/>
   </g>
   <g id="line2d_45">
    <path d="M 103.827273 196.859989 
L 127.855981 197.244177 
L 151.884689 302.794845 
L 175.913397 293.264822 
L 199.942105 276.802781 
L 223.970813 256.40877 
L 247.999522 233.864783 
L 272.02823 208.369155 
L 296.056938 285.763629 
L 320.085646 277.72595 
L 344.114354 249.963526 
L 368.143062 265.442403 
L 392.17177 235.179837 
L 416.200478 216.890593 
L 440.229187 181.349952 
L 464.257895 246.924719 
L 488.286603 258.242335 
L 512.315311 217.901648 
L 536.344019 175.627689 
L 560.372727 132.081801 
" clip-path="url(#p2129804ebc)" style="fill: none; stroke-dasharray: 3.7,1.6; stroke-dashoffset: 0; stroke: #bcbd22; stroke-opacity: 0.6"/>
   </g>
   <g id="line2d_46">
    <path d="M 103.827273 196.859989 
L 127.855981 196.557449 
L 151.884689 302.229778 
L 175.913397 291.78795 
L 199.942105 272.93023 
L 223.970813 250.840633 
L 247.999522 223.525628 
L 272.02823 192.948483 
L 296.056938 273.642245 
L 320.085646 258.89099 
L 344.114354 220.338334 
L 368.143062 230.437607 
L 392.17177 189.7317 
L 416.200478 165.123712 
L 440.229187 119.26946 
L 464.257895 200.206064 
L 488.286603 210.165735 
L 512.315311 158.982643 
L 536.344019 106.065105 
L 560.372727 55.8 
" clip-path="url(#p2129804ebc)" style="fill: none; stroke-dasharray: 3.7,1.6; stroke-dashoffset: 0; stroke: #17becf; stroke-opacity: 0.6"/>
   </g>
   <g id="line2d_47">
    <path d="M 103.827273 196.859989 
L 127.855981 193.9586 
L 151.884689 296.853056 
L 175.913397 280.781173 
L 199.942105 257.91425 
L 223.970813 231.507956 
L 247.999522 199.590592 
L 272.02823 166.178388 
L 296.056938 258.785231 
L 320.085646 241.349108 
L 344.114354 201.060596 
L 368.143062 216.019139 
L 392.17177 174.974803 
L 416.200478 154.034535 
L 440.229187 114.018176 
L 464.257895 203.848402 
L 488.286603 220.926354 
L 512.315311 176.651435 
L 536.344019 130.852178 
L 560.372727 86.530725 
" clip-path="url(#p2129804ebc)" style="fill: none; stroke-dasharray: 3.7,1.6; stroke-dashoffset: 0; stroke: #1f77b4; stroke-opacity: 0.6"/>
   </g>
   <g id="line2d_48">
    <path d="M 103.827273 196.859989 
L 127.855981 194.397147 
L 151.884689 297.752464 
L 175.913397 281.176374 
L 199.942105 257.616581 
L 223.970813 228.828825 
L 247.999522 194.898615 
L 272.02823 158.268031 
L 296.056938 252.778123 
L 320.085646 232.892624 
L 344.114354 189.37635 
L 368.143062 203.036173 
L 392.17177 158.906497 
L 416.200478 135.301103 
L 440.229187 91.608564 
L 464.257895 186.767629 
L 488.286603 202.202793 
L 512.315311 154.010563 
L 536.344019 105.701294 
L 560.372727 59.35632 
" clip-path="url(#p2129804ebc)" style="fill: none; stroke-dasharray: 3.7,1.6; stroke-dashoffset: 0; stroke: #ff7f0e; stroke-opacity: 0.6"/>
   </g>
   <g id="line2d_49">
    <path d="M 103.827273 196.859989 
L 127.855981 198.592251 
L 151.884689 307.8 
L 175.913397 301.900822 
L 199.942105 289.961896 
L 223.970813 274.318562 
L 247.999522 253.09301 
L 272.02823 229.251962 
L 296.056938 298.08948 
L 320.085646 290.679304 
L 344.114354 263.63886 
L 368.143062 276.245325 
L 392.17177 247.062911 
L 416.200478 228.920319 
L 440.229187 195.514598 
L 464.257895 258.366425 
L 488.286603 270.445505 
L 512.315311 233.764078 
L 536.344019 194.207417 
L 560.372727 155.011748 
" clip-path="url(#p2129804ebc)" style="fill: none; stroke-dasharray: 3.7,1.6; stroke-dashoffset: 0; stroke: #2ca02c; stroke-opacity: 0.6"/>
   </g>
   <g id="line2d_50">
    <path d="M 103.827273 196.859989 
L 127.855981 197.703876 
L 151.884689 303.618093 
L 175.913397 294.865709 
L 199.942105 276.752172 
L 223.970813 255.273768 
L 247.999522 230.154453 
L 272.02823 200.541615 
L 296.056938 276.937693 
L 320.085646 264.312897 
L 344.114354 229.498468 
L 368.143062 240.669431 
L 392.17177 204.615506 
L 416.200478 182.858779 
L 440.229187 142.480019 
L 464.257895 217.678849 
L 488.286603 230.109049 
L 512.315311 187.079266 
L 536.344019 142.881903 
L 560.372727 100.340021 
" clip-path="url(#p2129804ebc)" style="fill: none; stroke-dasharray: 3.7,1.6; stroke-dashoffset: 0; stroke: #d62728; stroke-opacity: 0.6"/>
   </g>
   <g id="line2d_51">
    <path d="M 103.827273 196.859989 
L 127.855981 196.09634 
L 151.884689 303.373646 
L 175.913397 296.295423 
L 199.942105 282.787555 
L 223.970813 264.783707 
L 247.999522 242.188276 
L 272.02823 216.469351 
L 296.056938 288.346967 
L 320.085646 278.67214 
L 344.114354 248.096528 
L 368.143062 260.567621 
L 392.17177 228.378833 
L 416.200478 208.69075 
L 440.229187 172.796169 
L 464.257895 240.223833 
L 488.286603 252.308554 
L 512.315311 211.874799 
L 536.344019 169.531744 
L 560.372727 127.102671 
" clip-path="url(#p2129804ebc)" style="fill: none; stroke-dasharray: 3.7,1.6; stroke-dashoffset: 0; stroke: #9467bd; stroke-opacity: 0.6"/>
   </g>
   <g id="line2d_52">
    <path d="M 103.827273 196.859989 
L 127.855981 197.543123 
L 151.884689 305.289176 
L 175.913397 299.055249 
L 199.942105 286.157775 
L 223.970813 270.240417 
L 247.999522 248.550716 
L 272.02823 222.426811 
L 296.056938 291.994945 
L 320.085646 279.846769 
L 344.114354 245.759961 
L 368.143062 254.678964 
L 392.17177 217.739485 
L 416.200478 194.196137 
L 440.229187 154.041586 
L 464.257895 228.419726 
L 488.286603 240.405739 
L 512.315311 196.83729 
L 536.344019 153.608679 
L 560.372727 112.118746 
" clip-path="url(#p2129804ebc)" style="fill: none; stroke-dasharray: 3.7,1.6; stroke-dashoffset: 0; stroke: #8c564b; stroke-opacity: 0.6"/>
   </g>
   <g id="line2d_53">
    <path d="M 103.827273 196.859989 
L 127.855981 198.208699 
L 151.884689 305.190088 
L 175.913397 298.513412 
L 199.942105 284.195012 
L 223.970813 267.636499 
L 247.999522 242.79058 
L 272.02823 214.445303 
L 296.056938 283.88394 
L 320.085646 270.217066 
L 344.114354 234.043281 
L 368.143062 242.299529 
L 392.17177 202.830296 
L 416.200478 178.772254 
L 440.229187 136.288187 
L 464.257895 211.747889 
L 488.286603 222.442232 
L 512.315311 177.762609 
L 536.344019 131.543136 
L 560.372727 85.977958 
" clip-path="url(#p2129804ebc)" style="fill: none; stroke-dasharray: 3.7,1.6; stroke-dashoffset: 0; stroke: #e377c2; stroke-opacity: 0.6"/>
   </g>
   <g id="line2d_54">
    <path d="M 103.827273 196.859989 
L 127.855981 196.099161 
L 151.884689 301.056819 
L 175.913397 290.659746 
L 199.942105 271.129228 
L 223.970813 248.456125 
L 247.999522 222.622509 
L 272.02823 193.75812 
L 296.056938 273.515334 
L 320.085646 261.140129 
L 344.114354 226.321469 
L 368.143062 240.039108 
L 392.17177 205.101997 
L 416.200478 185.842591 
L 440.229187 149.501002 
L 464.257895 224.304999 
L 488.286603 238.52746 
L 512.315311 199.151295 
L 536.344019 161.182429 
L 560.372727 122.498632 
" clip-path="url(#p2129804ebc)" style="fill: none; stroke-dasharray: 3.7,1.6; stroke-dashoffset: 0; stroke: #7f7f7f; stroke-opacity: 0.6"/>
   </g>
   <g id="line2d_55">
    <path d="M 103.827273 196.859989 
L 127.855981 194.952734 
L 151.884689 300.226909 
L 175.913397 291.548165 
L 199.942105 275.342073 
L 223.970813 255.302062 
L 247.999522 231.082575 
L 272.02823 205.050825 
L 296.056938 280.09918 
L 320.085646 270.046442 
L 344.114354 239.734522 
L 368.143062 252.510201 
L 392.17177 220.747269 
L 416.200478 203.064375 
L 440.229187 169.122809 
L 464.257895 237.077858 
L 488.286603 250.664355 
L 512.315311 214.685167 
L 536.344019 177.219713 
L 560.372727 141.170019 
" clip-path="url(#p2129804ebc)" style="fill: none; stroke-dasharray: 3.7,1.6; stroke-dashoffset: 0; stroke: #bcbd22; stroke-opacity: 0.6"/>
   </g>
   <g id="line2d_56">
    <path d="M 103.827273 196.859989 
L 127.855981 195.638052 
L 151.884689 301.722657 
L 175.913397 293.005918 
L 199.942105 275.400786 
L 223.970813 255.931748 
L 247.999522 232.752299 
L 272.02823 205.221495 
L 296.056938 281.51635 
L 320.085646 270.345387 
L 344.114354 237.062346 
L 368.143062 249.720985 
L 392.17177 215.395867 
L 416.200478 195.802262 
L 440.229187 159.808973 
L 464.257895 232.951849 
L 488.286603 247.703105 
L 512.315311 208.501795 
L 536.344019 169.342788 
L 560.372727 127.879647 
" clip-path="url(#p2129804ebc)" style="fill: none; stroke-dasharray: 3.7,1.6; stroke-dashoffset: 0; stroke: #17becf; stroke-opacity: 0.6"/>
   </g>
   <g id="line2d_57">
    <path d="M 103.827273 196.859989 
L 127.855981 194.6693 
L 151.884689 297.701546 
L 175.913397 283.19694 
L 199.942105 261.317553 
L 223.970813 234.843329 
L 247.999522 206.173359 
L 272.02823 174.663599 
L 296.056938 264.232521 
L 320.085646 250.506422 
L 344.114354 214.48352 
L 368.143062 229.189651 
L 392.17177 190.463551 
L 416.200478 169.115759 
L 440.229187 129.113501 
L 464.257895 210.650816 
L 488.286603 225.404892 
L 512.315311 180.945248 
L 536.344019 135.306744 
L 560.372727 90.531233 
" clip-path="url(#p2129804ebc)" style="fill: none; stroke-dasharray: 3.7,1.6; stroke-dashoffset: 0; stroke: #1f77b4; stroke-opacity: 0.6"/>
   </g>
   <g id="line2d_58">
    <path d="M 103.827273 196.859989 
L 127.855981 194.354843 
L 151.884689 296.283144 
L 175.913397 279.103351 
L 199.942105 257.031879 
L 223.970813 230.585499 
L 247.999522 200.571205 
L 272.02823 169.950309 
L 296.056938 259.008029 
L 320.085646 246.087108 
L 344.114354 210.10933 
L 368.143062 225.933687 
L 392.17177 189.845919 
L 416.200478 170.654199 
L 440.229187 134.171598 
L 464.257895 211.575854 
L 488.286603 226.435689 
L 512.315311 187.412054 
L 536.344019 147.285705 
L 560.372727 108.778174 
" clip-path="url(#p2129804ebc)" style="fill: none; stroke-dasharray: 3.7,1.6; stroke-dashoffset: 0; stroke: #ff7f0e; stroke-opacity: 0.6"/>
   </g>
   <g id="line2d_59">
    <path d="M 103.827273 196.859989 
L 127.855981 197.316093 
L 151.884689 304.424902 
L 175.913397 295.842482 
L 199.942105 278.224315 
L 223.970813 257.507394 
L 247.999522 230.456984 
L 272.02823 200.138741 
L 296.056938 278.964035 
L 320.085646 265.556622 
L 344.114354 229.442063 
L 368.143062 241.873673 
L 392.17177 204.790361 
L 416.200478 183.535636 
L 440.229187 143.938083 
L 464.257895 219.655836 
L 488.286603 232.628932 
L 512.315311 190.618664 
L 536.344019 146.993811 
L 560.372727 104.47167 
" clip-path="url(#p2129804ebc)" style="fill: none; stroke-dasharray: 3.7,1.6; stroke-dashoffset: 0; stroke: #2ca02c; stroke-opacity: 0.6"/>
   </g>
   <g id="line2d_60">
    <path d="M 103.827273 196.859989 
L 127.855981 196.8014 
L 151.884689 301.637389 
L 175.913397 291.228479 
L 199.942105 276.23929 
L 223.970813 255.386173 
L 247.999522 231.248331 
L 272.02823 205.051394 
L 296.056938 278.246284 
L 320.085646 268.104708 
L 344.114354 237.974693 
L 368.143062 250.437326 
L 392.17177 217.632316 
L 416.200478 198.645062 
L 440.229187 163.640266 
L 464.257895 230.70835 
L 488.286603 242.939723 
L 512.315311 205.499651 
L 536.344019 166.248987 
L 560.372727 126.699377 
" clip-path="url(#p2129804ebc)" style="fill: none; stroke-dasharray: 3.7,1.6; stroke-dashoffset: 0; stroke: #d62728; stroke-opacity: 0.6"/>
   </g>
   <g id="line2d_61">
    <path d="M 103.827273 196.859989 
L 127.855981 195.563315 
L 151.884689 300.473334 
L 175.913397 291.365652 
L 199.942105 275.954955 
L 223.970813 257.272314 
L 247.999522 232.272661 
L 272.02823 206.227147 
L 296.056938 281.248427 
L 320.085646 270.728939 
L 344.114354 239.053434 
L 368.143062 252.896573 
L 392.17177 220.021057 
L 416.200478 202.53276 
L 440.229187 166.969557 
L 464.257895 237.302067 
L 488.286603 251.738866 
L 512.315311 213.943444 
L 536.344019 175.423221 
L 560.372727 136.56316 
" clip-path="url(#p2129804ebc)" style="fill: none; stroke-dasharray: 3.7,1.6; stroke-dashoffset: 0; stroke: #9467bd; stroke-opacity: 0.6"/>
   </g>
   <g id="line2d_62">
    <path d="M 103.827273 196.859989 
L 127.855981 195.466017 
L 151.884689 303.223121 
L 175.913397 295.362466 
L 199.942105 282.963916 
L 223.970813 266.124694 
L 247.999522 246.356763 
L 272.02823 222.914311 
L 296.056938 291.002221 
L 320.085646 284.253391 
L 344.114354 258.5441 
L 368.143062 270.219886 
L 392.17177 240.142046 
L 416.200478 221.441047 
L 440.229187 188.521817 
L 464.257895 247.044579 
L 488.286603 257.301785 
L 512.315311 219.270874 
L 536.344019 178.940058 
L 560.372727 139.365066 
" clip-path="url(#p2129804ebc)" style="fill: none; stroke-dasharray: 3.7,1.6; stroke-dashoffset: 0; stroke: #8c564b; stroke-opacity: 0.6"/>
   </g>
   <g id="line2d_63">
    <path d="M 103.827273 196.859989 
L 127.855981 194.263186 
L 151.884689 299.591335 
L 175.913397 290.258895 
L 199.942105 274.592814 
L 223.970813 256.099033 
L 247.999522 232.623439 
L 272.02823 207.178429 
L 296.056938 279.567566 
L 320.085646 268.48685 
L 344.114354 235.941302 
L 368.143062 247.463385 
L 392.17177 213.885629 
L 416.200478 194.603661 
L 440.229187 157.332804 
L 464.257895 226.929231 
L 488.286603 239.266362 
L 512.315311 201.621824 
L 536.344019 163.863065 
L 560.372727 125.585383 
" clip-path="url(#p2129804ebc)" style="fill: none; stroke-dasharray: 3.7,1.6; stroke-dashoffset: 0; stroke: #e377c2; stroke-opacity: 0.6"/>
   </g>
   <g id="line2d_64">
    <path d="M 103.827273 196.859989 
L 127.855981 193.353659 
L 151.884689 298.972807 
L 175.913397 288.735672 
L 199.942105 271.55247 
L 223.970813 251.171961 
L 247.999522 226.14971 
L 272.02823 197.36983 
L 296.056938 275.801137 
L 320.085646 264.019593 
L 344.114354 230.430556 
L 368.143062 243.37968 
L 392.17177 209.03905 
L 416.200478 189.62171 
L 440.229187 153.756742 
L 464.257895 227.807735 
L 488.286603 243.273921 
L 512.315311 203.920318 
L 536.344019 162.293603 
L 560.372727 120.497673 
" clip-path="url(#p2129804ebc)" style="fill: none; stroke-dasharray: 3.7,1.6; stroke-dashoffset: 0; stroke: #7f7f7f; stroke-opacity: 0.6"/>
   </g>
   <g id="line2d_65">
    <path d="M 103.827273 196.859989 
L 127.855981 195.171302 
L 151.884689 298.186343 
L 175.913397 285.814795 
L 199.942105 266.238442 
L 223.970813 242.54617 
L 247.999522 213.524005 
L 272.02823 182.937272 
L 296.056938 266.446408 
L 320.085646 252.678005 
L 344.114354 216.184123 
L 368.143062 229.588715 
L 392.17177 192.048525 
L 416.200478 171.465017 
L 440.229187 130.161219 
L 464.257895 208.44257 
L 488.286603 220.671122 
L 512.315311 177.379056 
L 536.344019 134.253385 
L 560.372727 92.27555 
" clip-path="url(#p2129804ebc)" style="fill: none; stroke-dasharray: 3.7,1.6; stroke-dashoffset: 0; stroke: #bcbd22; stroke-opacity: 0.6"/>
   </g>
   <g id="line2d_66">
    <path d="M 103.827273 196.859989 
L 127.855981 196.410797 
L 151.884689 302.631745 
L 175.913397 293.29512 
L 199.942105 275.963101 
L 223.970813 255.069289 
L 247.999522 230.463522 
L 272.02823 200.486689 
L 296.056938 278.44229 
L 320.085646 264.508904 
L 344.114354 229.354635 
L 368.143062 242.058398 
L 392.17177 205.162633 
L 416.200478 183.713311 
L 440.229187 144.049482 
L 464.257895 221.762554 
L 488.286603 234.14904 
L 512.315311 189.312894 
L 536.344019 142.654874 
L 560.372727 94.308942 
" clip-path="url(#p2129804ebc)" style="fill: none; stroke-dasharray: 3.7,1.6; stroke-dashoffset: 0; stroke: #17becf; stroke-opacity: 0.6"/>
   </g>
   <g id="line2d_67">
    <path d="M 103.827273 196.859989 
L 127.855981 196.883187 
L 151.884689 301.377881 
L 175.913397 291.292102 
L 199.942105 274.074888 
L 223.970813 252.342437 
L 247.999522 223.521511 
L 272.02823 190.671235 
L 296.056938 271.195689 
L 320.085646 256.151128 
L 344.114354 218.013048 
L 368.143062 229.416681 
L 392.17177 189.287512 
L 416.200478 165.856973 
L 440.229187 122.94564 
L 464.257895 203.108089 
L 488.286603 215.08423 
L 512.315311 168.382497 
L 536.344019 120.528696 
L 560.372727 76.04931 
" clip-path="url(#p2129804ebc)" style="fill: none; stroke-dasharray: 3.7,1.6; stroke-dashoffset: 0; stroke: #1f77b4; stroke-opacity: 0.6"/>
   </g>
   <g id="line2d_68">
    <path d="M 103.827273 196.859989 
L 127.855981 197.887192 
L 151.884689 306.560907 
L 175.913397 300.246883 
L 199.942105 287.29872 
L 223.970813 270.46505 
L 247.999522 248.185632 
L 272.02823 222.183247 
L 296.056938 289.084459 
L 320.085646 278.660859 
L 344.114354 247.332243 
L 368.143062 257.298965 
L 392.17177 222.999229 
L 416.200478 201.889746 
L 440.229187 165.714551 
L 464.257895 232.72764 
L 488.286603 244.256774 
L 512.315311 205.915636 
L 536.344019 167.176845 
L 560.372727 127.699151 
" clip-path="url(#p2129804ebc)" style="fill: none; stroke-dasharray: 3.7,1.6; stroke-dashoffset: 0; stroke: #ff7f0e; stroke-opacity: 0.6"/>
   </g>
   <g id="line2d_69">
    <path d="M 103.827273 196.859989 
L 127.855981 196.757686 
L 151.884689 303.610171 
L 175.913397 295.85483 
L 199.942105 280.404151 
L 223.970813 262.396887 
L 247.999522 240.989579 
L 272.02823 217.199417 
L 296.056938 286.13308 
L 320.085646 277.827479 
L 344.114354 250.971761 
L 368.143062 262.891497 
L 392.17177 232.218587 
L 416.200478 213.865887 
L 440.229187 179.244644 
L 464.257895 240.277418 
L 488.286603 250.884333 
L 512.315311 213.624757 
L 536.344019 175.481036 
L 560.372727 137.923925 
" clip-path="url(#p2129804ebc)" style="fill: none; stroke-dasharray: 3.7,1.6; stroke-dashoffset: 0; stroke: #2ca02c; stroke-opacity: 0.6"/>
   </g>
   <g id="line2d_70">
    <path d="M 103.827273 196.859989 
L 127.855981 194.693272 
L 151.884689 299.760306 
L 175.913397 289.870689 
L 199.942105 271.969875 
L 223.970813 248.035426 
L 247.999522 220.452266 
L 272.02823 188.063036 
L 296.056938 268.922577 
L 320.085646 254.495648 
L 344.114354 218.118807 
L 368.143062 230.200707 
L 392.17177 192.508224 
L 416.200478 172.09534 
L 440.229187 133.766894 
L 464.257895 213.026867 
L 488.286603 227.888112 
L 512.315311 186.319211 
L 536.344019 145.229752 
L 560.372727 105.878969 
" clip-path="url(#p2129804ebc)" style="fill: none; stroke-dasharray: 3.7,1.6; stroke-dashoffset: 0; stroke: #d62728; stroke-opacity: 0.6"/>
   </g>
   <g id="line2d_71">
    <path d="M 103.827273 196.859989 
L 127.855981 196.907159 
L 151.884689 302.960021 
L 175.913397 291.912597 
L 199.942105 273.552414 
L 223.970813 249.191933 
L 247.999522 219.663047 
L 272.02823 184.39062 
L 296.056938 267.073911 
L 320.085646 249.375506 
L 344.114354 208.699211 
L 368.143062 219.645966 
L 392.17177 177.868368 
L 416.200478 154.162856 
L 440.229187 111.135893 
L 464.257895 197.851165 
L 488.286603 211.787372 
L 512.315311 163.545788 
L 536.344019 114.085862 
L 560.372727 68.340189 
" clip-path="url(#p2129804ebc)" style="fill: none; stroke-dasharray: 3.7,1.6; stroke-dashoffset: 0; stroke: #9467bd; stroke-opacity: 0.6"/>
   </g>
   <g id="line2d_72">
    <path d="M 103.827273 196.859989 
L 127.855981 194.239214 
L 151.884689 295.874275 
L 175.913397 279.315286 
L 199.942105 254.602527 
L 223.970813 227.071065 
L 247.999522 194.104132 
L 272.02823 157.745044 
L 296.056938 251.951794 
L 320.085646 233.630116 
L 344.114354 192.265684 
L 368.143062 207.996972 
L 392.17177 165.682119 
L 416.200478 142.859342 
L 440.229187 100.057997 
L 464.257895 190.146275 
L 488.286603 203.94711 
L 512.315311 155.200704 
L 536.344019 109.08558 
L 560.372727 63.49925 
" clip-path="url(#p2129804ebc)" style="fill: none; stroke-dasharray: 3.7,1.6; stroke-dashoffset: 0; stroke: #8c564b; stroke-opacity: 0.6"/>
   </g>
   <g id="line2d_73">
    <path d="M 103.827273 196.859989 
L 127.855981 193.400193 
L 151.884689 296.224458 
L 175.913397 282.981849 
L 199.942105 264.136108 
L 223.970813 238.777662 
L 247.999522 213.044452 
L 272.02823 185.454806 
L 296.056938 269.406247 
L 320.085646 258.948804 
L 344.114354 226.764247 
L 368.143062 241.758043 
L 392.17177 208.002612 
L 416.200478 188.848965 
L 440.229187 151.771294 
L 464.257895 224.753417 
L 488.286603 239.013951 
L 512.315311 200.251188 
L 536.344019 159.759619 
L 560.372727 118.275326 
" clip-path="url(#p2129804ebc)" style="fill: none; stroke-dasharray: 3.7,1.6; stroke-dashoffset: 0; stroke: #e377c2; stroke-opacity: 0.6"/>
   </g>
   <g id="line2d_74">
    <path d="M 103.827273 196.859989 
L 127.855981 195.939817 
L 151.884689 302.433186 
L 175.913397 294.322165 
L 199.942105 279.61347 
L 223.970813 259.181608 
L 247.999522 234.433894 
L 272.02823 205.76633 
L 296.056938 282.451259 
L 320.085646 270.549854 
L 344.114354 236.708406 
L 368.143062 248.017561 
L 392.17177 210.631074 
L 416.200478 187.046833 
L 440.229187 147.002271 
L 464.257895 222.201101 
L 488.286603 234.62425 
L 512.315311 192.327729 
L 536.344019 149.845071 
L 560.372727 105.65617 
" clip-path="url(#p2129804ebc)" style="fill: none; stroke-dasharray: 3.7,1.6; stroke-dashoffset: 0; stroke: #7f7f7f; stroke-opacity: 0.6"/>
   </g>
   <g id="line2d_75">
    <path d="M 103.827273 196.859989 
L 127.855981 196.285296 
L 151.884689 299.797477 
L 175.913397 288.287463 
L 199.942105 270.980231 
L 223.970813 248.418733 
L 247.999522 223.455262 
L 272.02823 195.168383 
L 296.056938 275.795497 
L 320.085646 265.017957 
L 344.114354 232.207306 
L 368.143062 245.700736 
L 392.17177 210.844002 
L 416.200478 189.929116 
L 440.229187 150.110174 
L 464.257895 222.66362 
L 488.286603 234.249159 
L 512.315311 190.944402 
L 536.344019 145.541388 
L 560.372727 101.428633 
" clip-path="url(#p2129804ebc)" style="fill: none; stroke-dasharray: 3.7,1.6; stroke-dashoffset: 0; stroke: #bcbd22; stroke-opacity: 0.6"/>
   </g>
   <g id="line2d_76">
    <path d="M 103.827273 196.859989 
L 127.855981 195.905974 
L 151.884689 300.471729 
L 175.913397 289.577398 
L 199.942105 271.967152 
L 223.970813 249.293324 
L 247.999522 221.26485 
L 272.02823 192.235211 
L 296.056938 272.890652 
L 320.085646 260.938482 
L 344.114354 226.885517 
L 368.143062 240.154737 
L 392.17177 204.876378 
L 416.200478 185.191116 
L 440.229187 147.471841 
L 464.257895 221.990994 
L 488.286603 235.148815 
L 512.315311 193.780151 
L 536.344019 150.844846 
L 560.372727 111.092179 
" clip-path="url(#p2129804ebc)" style="fill: none; stroke-dasharray: 3.7,1.6; stroke-dashoffset: 0; stroke: #17becf; stroke-opacity: 0.6"/>
   </g>
   <g id="line2d_77">
    <path d="M 103.827273 196.859989 
L 127.855981 197.348526 
L 151.884689 304.869071 
L 175.913397 297.312832 
L 199.942105 281.300739 
L 223.970813 262.275874 
L 247.999522 237.986313 
L 272.02823 209.182914 
L 296.056938 284.385942 
L 320.085646 271.948692 
L 344.114354 237.943671 
L 368.143062 250.194785 
L 392.17177 215.297158 
L 416.200478 194.764415 
L 440.229187 157.675463 
L 464.257895 231.740557 
L 488.286603 245.129637 
L 512.315311 203.938649 
L 536.344019 160.391352 
L 560.372727 118.45018 
" clip-path="url(#p2129804ebc)" style="fill: none; stroke-dasharray: 3.7,1.6; stroke-dashoffset: 0; stroke: #1f77b4; stroke-opacity: 0.6"/>
   </g>
   <g id="line2d_78">
    <path d="M 103.827273 196.859989 
L 127.855981 197.500819 
L 151.884689 306.383452 
L 175.913397 299.805923 
L 199.942105 286.253303 
L 223.970813 269.58422 
L 247.999522 247.924701 
L 272.02823 222.080535 
L 296.056938 291.437948 
L 320.085646 282.207308 
L 344.114354 252.869781 
L 368.143062 263.204544 
L 392.17177 229.52667 
L 416.200478 207.97582 
L 440.229187 170.965835 
L 464.257895 236.51663 
L 488.286603 247.234945 
L 512.315311 208.721773 
L 536.344019 169.555716 
L 560.372727 126.926406 
" clip-path="url(#p2129804ebc)" style="fill: none; stroke-dasharray: 3.7,1.6; stroke-dashoffset: 0; stroke: #ff7f0e; stroke-opacity: 0.6"/>
   </g>
   <g id="line2d_79">
    <path d="M 103.827273 196.859989 
L 127.855981 196.577191 
L 151.884689 300.386741 
L 175.913397 288.776084 
L 199.942105 268.947008 
L 223.970813 244.517505 
L 247.999522 216.60042 
L 272.02823 184.378053 
L 296.056938 265.219604 
L 320.085646 249.259876 
L 344.114354 210.873615 
L 368.143062 222.445052 
L 392.17177 183.950211 
L 416.200478 162.035551 
L 440.229187 120.171936 
L 464.257895 200.578335 
L 488.286603 213.143907 
L 512.315311 168.806943 
L 536.344019 122.100979 
L 560.372727 79.463208 
" clip-path="url(#p2129804ebc)" style="fill: none; stroke-dasharray: 3.7,1.6; stroke-dashoffset: 0; stroke: #2ca02c; stroke-opacity: 0.6"/>
   </g>
   <g id="line2d_80">
    <path d="M 103.827273 196.859989 
L 127.855981 196.100571 
L 151.884689 301.534848 
L 175.913397 291.956647 
L 199.942105 275.912078 
L 223.970813 255.685354 
L 247.999522 228.193987 
L 272.02823 197.729819 
L 296.056938 274.314872 
L 320.085646 260.099462 
L 344.114354 223.559046 
L 368.143062 234.421193 
L 392.17177 196.235169 
L 416.200478 174.680089 
L 440.229187 136.09641 
L 464.257895 214.733111 
L 488.286603 228.634065 
L 512.315311 184.548102 
L 536.344019 140.178705 
L 560.372727 97.758093 
" clip-path="url(#p2129804ebc)" style="fill: none; stroke-dasharray: 3.7,1.6; stroke-dashoffset: 0; stroke: #d62728; stroke-opacity: 0.6"/>
   </g>
   <g id="line2d_81">
    <path d="M 103.827273 196.859989 
L 127.855981 195.425124 
L 151.884689 302.272724 
L 175.913397 293.476567 
L 199.942105 279.242539 
L 223.970813 261.239277 
L 247.999522 237.892809 
L 272.02823 209.947042 
L 296.056938 283.308611 
L 320.085646 272.433773 
L 344.114354 240.149097 
L 368.143062 252.393161 
L 392.17177 218.602477 
L 416.200478 197.755277 
L 440.229187 159.988058 
L 464.257895 229.546412 
L 488.286603 240.649689 
L 512.315311 198.064093 
L 536.344019 155.994601 
L 560.372727 115.005259 
" clip-path="url(#p2129804ebc)" style="fill: none; stroke-dasharray: 3.7,1.6; stroke-dashoffset: 0; stroke: #9467bd; stroke-opacity: 0.6"/>
   </g>
   <g id="line2d_82">
    <path d="M 103.827273 196.859989 
L 127.855981 196.79858 
L 151.884689 301.992741 
L 175.913397 289.094668 
L 199.942105 270.342419 
L 223.970813 246.953689 
L 247.999522 219.733843 
L 272.02823 188.934405 
L 296.056938 271.597573 
L 320.085646 258.06325 
L 344.114354 221.312726 
L 368.143062 233.55397 
L 392.17177 196.328237 
L 416.200478 175.025568 
L 440.229187 134.634117 
L 464.257895 211.921333 
L 488.286603 224.117453 
L 512.315311 177.191511 
L 536.344019 130.802823 
L 560.372727 86.258572 
" clip-path="url(#p2129804ebc)" style="fill: none; stroke-dasharray: 3.7,1.6; stroke-dashoffset: 0; stroke: #8c564b; stroke-opacity: 0.6"/>
   </g>
   <g id="line2d_83">
    <path d="M 103.827273 196.859989 
L 127.855981 197.63619 
L 151.884689 304.254095 
L 175.913397 294.893409 
L 199.942105 276.994114 
L 223.970813 255.216529 
L 247.999522 228.838012 
L 272.02823 198.494433 
L 296.056938 280.140074 
L 320.085646 267.110574 
L 344.114354 231.498016 
L 368.143062 243.991671 
L 392.17177 205.95794 
L 416.200478 183.927649 
L 440.229187 143.104702 
L 464.257895 221.329648 
L 488.286603 235.034595 
L 512.315311 191.701636 
L 536.344019 148.480076 
L 560.372727 104.004921 
" clip-path="url(#p2129804ebc)" style="fill: none; stroke-dasharray: 3.7,1.6; stroke-dashoffset: 0; stroke: #e377c2; stroke-opacity: 0.6"/>
   </g>
   <g id="line2d_84">
    <path d="M 103.827273 196.859989 
L 127.855981 194.940043 
L 151.884689 296.848271 
L 175.913397 282.076436 
L 199.942105 259.817417 
L 223.970813 234.022816 
L 247.999522 203.597996 
L 272.02823 170.881905 
L 296.056938 259.438116 
L 320.085646 243.727979 
L 344.114354 206.266756 
L 368.143062 220.205783 
L 392.17177 181.945022 
L 416.200478 161.575852 
L 440.229187 121.160429 
L 464.257895 204.614096 
L 488.286603 220.87841 
L 512.315311 179.570381 
L 536.344019 136.313569 
L 560.372727 92.98343 
" clip-path="url(#p2129804ebc)" style="fill: none; stroke-dasharray: 3.7,1.6; stroke-dashoffset: 0; stroke: #7f7f7f; stroke-opacity: 0.6"/>
   </g>
   <g id="line2d_85">
    <path d="M 103.827273 196.859989 
L 127.855981 198.22139 
L 151.884689 304.446948 
L 175.913397 297.150459 
L 199.942105 283.534285 
L 223.970813 266.403932 
L 247.999522 243.648998 
L 272.02823 218.946782 
L 296.056938 289.655557 
L 320.085646 279.295413 
L 344.114354 248.279843 
L 368.143062 258.338223 
L 392.17177 223.84812 
L 416.200478 201.568239 
L 440.229187 162.812526 
L 464.257895 232.24961 
L 488.286603 242.691542 
L 512.315311 201.57811 
L 536.344019 159.735647 
L 560.372727 116.824313 
" clip-path="url(#p2129804ebc)" style="fill: none; stroke-dasharray: 3.7,1.6; stroke-dashoffset: 0; stroke: #bcbd22; stroke-opacity: 0.6"/>
   </g>
   <g id="line2d_86">
    <path d="M 103.827273 196.859989 
L 127.855981 197.689775 
L 151.884689 305.246789 
L 175.913397 297.742369 
L 199.942105 282.165514 
L 223.970813 262.309256 
L 247.999522 238.167689 
L 272.02823 211.145077 
L 296.056938 286.922747 
L 320.085646 275.867413 
L 344.114354 244.489443 
L 368.143062 256.128566 
L 392.17177 220.469475 
L 416.200478 198.093706 
L 440.229187 158.538456 
L 464.257895 230.385432 
L 488.286603 242.099292 
L 512.315311 197.624136 
L 536.344019 152.694922 
L 560.372727 105.795772 
" clip-path="url(#p2129804ebc)" style="fill: none; stroke-dasharray: 3.7,1.6; stroke-dashoffset: 0; stroke: #17becf; stroke-opacity: 0.6"/>
   </g>
   <g id="line2d_87">
    <path d="M 103.827273 196.859989 
L 127.855981 196.165436 
L 151.884689 301.145619 
L 175.913397 291.022027 
L 199.942105 274.280368 
L 223.970813 253.704049 
L 247.999522 228.149181 
L 272.02823 199.430859 
L 296.056938 273.602762 
L 320.085646 260.597234 
L 344.114354 226.376464 
L 368.143062 237.440258 
L 392.17177 201.709251 
L 416.200478 181.177917 
L 440.229187 142.399643 
L 464.257895 216.435124 
L 488.286603 229.061331 
L 512.315311 187.682797 
L 536.344019 146.649742 
L 560.372727 106.691197 
" clip-path="url(#p2129804ebc)" style="fill: none; stroke-dasharray: 3.7,1.6; stroke-dashoffset: 0; stroke: #1f77b4; stroke-opacity: 0.6"/>
   </g>
   <g id="line2d_88">
    <path d="M 103.827273 196.859989 
L 127.855981 198.156524 
L 151.884689 305.772497 
L 175.913397 297.851597 
L 199.942105 281.988278 
L 223.970813 262.166008 
L 247.999522 238.456051 
L 272.02823 209.5972 
L 296.056938 283.311432 
L 320.085646 271.294397 
L 344.114354 238.551432 
L 368.143062 249.547541 
L 392.17177 213.953315 
L 416.200478 192.81845 
L 440.229187 154.889067 
L 464.257895 227.204204 
L 488.286603 239.288924 
L 512.315311 198.886193 
L 536.344019 156.622104 
L 560.372727 115.869662 
" clip-path="url(#p2129804ebc)" style="fill: none; stroke-dasharray: 3.7,1.6; stroke-dashoffset: 0; stroke: #ff7f0e; stroke-opacity: 0.6"/>
   </g>
   <g id="line2d_89">
    <path d="M 103.827273 196.859989 
L 127.855981 193.8472 
L 151.884689 298.350665 
L 175.913397 285.941021 
L 199.942105 265.483325 
L 223.970813 240.813121 
L 247.999522 212.068855 
L 272.02823 181.847178 
L 296.056938 269.370994 
L 320.085646 256.560063 
L 344.114354 221.520014 
L 368.143062 236.175381 
L 392.17177 199.588432 
L 416.200478 179.831254 
L 440.229187 141.629718 
L 464.257895 220.776881 
L 488.286603 236.1641 
L 512.315311 193.324683 
L 536.344019 149.317687 
L 560.372727 106.664405 
" clip-path="url(#p2129804ebc)" style="fill: none; stroke-dasharray: 3.7,1.6; stroke-dashoffset: 0; stroke: #2ca02c; stroke-opacity: 0.6"/>
   </g>
   <g id="line2d_90">
    <path d="M 103.827273 196.859989 
L 127.855981 198.210109 
L 151.884689 306.76378 
L 175.913397 301.797626 
L 199.942105 290.351091 
L 223.970813 274.696133 
L 247.999522 253.731121 
L 272.02823 228.312994 
L 296.056938 295.114128 
L 320.085646 286.766223 
L 344.114354 256.561473 
L 368.143062 267.409519 
L 392.17177 235.074078 
L 416.200478 214.434165 
L 440.229187 178.995053 
L 464.257895 244.613534 
L 488.286603 256.818114 
L 512.315311 219.6925 
L 536.344019 180.279671 
L 560.372727 141.138996 
" clip-path="url(#p2129804ebc)" style="fill: none; stroke-dasharray: 3.7,1.6; stroke-dashoffset: 0; stroke: #d62728; stroke-opacity: 0.6"/>
   </g>
   <g id="line2d_91">
    <path d="M 103.827273 196.859989 
L 127.855981 197.694005 
L 151.884689 306.049144 
L 175.913397 300.137464 
L 199.942105 288.273868 
L 223.970813 272.632244 
L 247.999522 253.374099 
L 272.02823 232.277032 
L 296.056938 299.017338 
L 320.085646 292.956646 
L 344.114354 266.435127 
L 368.143062 279.050052 
L 392.17177 249.027207 
L 416.200478 230.838081 
L 440.229187 197.053038 
L 464.257895 257.572528 
L 488.286603 270.212836 
L 512.315311 233.721774 
L 536.344019 192.731023 
L 560.372727 151.932048 
" clip-path="url(#p2129804ebc)" style="fill: none; stroke-dasharray: 3.7,1.6; stroke-dashoffset: 0; stroke: #9467bd; stroke-opacity: 0.6"/>
   </g>
   <g id="line2d_92">
    <path d="M 103.827273 196.859989 
L 127.855981 198.946191 
L 151.884689 305.652187 
L 175.913397 297.732732 
L 199.942105 282.852323 
L 223.970813 264.684714 
L 247.999522 240.140469 
L 272.02823 213.289499 
L 296.056938 286.883263 
L 320.085646 276.359545 
L 344.114354 246.412846 
L 368.143062 258.608966 
L 392.17177 227.097035 
L 416.200478 208.169006 
L 440.229187 173.876321 
L 464.257895 243.011639 
L 488.286603 257.098728 
L 512.315311 220.262188 
L 536.344019 182.165001 
L 560.372727 143.176618 
" clip-path="url(#p2129804ebc)" style="fill: none; stroke-dasharray: 3.7,1.6; stroke-dashoffset: 0; stroke: #8c564b; stroke-opacity: 0.6"/>
   </g>
   <g id="line2d_93">
    <path d="M 103.827273 196.859989 
L 127.855981 196.360033 
L 151.884689 304.185725 
L 175.913397 297.4438 
L 199.942105 282.548565 
L 223.970813 265.579923 
L 247.999522 244.090669 
L 272.02823 218.014663 
L 296.056938 291.257453 
L 320.085646 282.142443 
L 344.114354 252.333936 
L 368.143062 265.222424 
L 392.17177 232.01412 
L 416.200478 212.569988 
L 440.229187 177.211252 
L 464.257895 245.527291 
L 488.286603 259.653864 
L 512.315311 222.879369 
L 536.344019 182.143849 
L 560.372727 140.604561 
" clip-path="url(#p2129804ebc)" style="fill: none; stroke-dasharray: 3.7,1.6; stroke-dashoffset: 0; stroke: #e377c2; stroke-opacity: 0.6"/>
   </g>
   <g id="line2d_94">
    <path d="M 103.827273 196.859989 
L 127.855981 196.075189 
L 151.884689 301.536273 
L 175.913397 294.226954 
L 199.942105 281.14854 
L 223.970813 263.834449 
L 247.999522 242.189004 
L 272.02823 215.834232 
L 296.056938 285.318031 
L 320.085646 276.18328 
L 344.114354 247.739768 
L 368.143062 259.105328 
L 392.17177 227.319834 
L 416.200478 208.630115 
L 440.229187 174.048355 
L 464.257895 237.366932 
L 488.286603 248.561867 
L 512.315311 211.575854 
L 536.344019 173.904523 
L 560.372727 135.834128 
" clip-path="url(#p2129804ebc)" style="fill: none; stroke-dasharray: 3.7,1.6; stroke-dashoffset: 0; stroke: #7f7f7f; stroke-opacity: 0.6"/>
   </g>
   <g id="line2d_95">
    <path d="M 103.827273 196.859989 
L 127.855981 196.371314 
L 151.884689 301.560077 
L 175.913397 292.266674 
L 199.942105 276.197814 
L 223.970813 256.548964 
L 247.999522 231.541441 
L 272.02823 202.586031 
L 296.056938 276.118414 
L 320.085646 264.173296 
L 344.114354 230.334668 
L 368.143062 240.66379 
L 392.17177 205.319156 
L 416.200478 184.208263 
L 440.229187 147.178536 
L 464.257895 219.658657 
L 488.286603 232.341268 
L 512.315311 191.373078 
L 536.344019 147.894877 
L 560.372727 105.572973 
" clip-path="url(#p2129804ebc)" style="fill: none; stroke-dasharray: 3.7,1.6; stroke-dashoffset: 0; stroke: #bcbd22; stroke-opacity: 0.6"/>
   </g>
   <g id="line2d_96">
    <path d="M 103.827273 196.859989 
L 127.855981 195.657793 
L 151.884689 301.402548 
L 175.913397 292.213691 
L 199.942105 275.896782 
L 223.970813 254.351615 
L 247.999522 227.421257 
L 272.02823 194.724143 
L 296.056938 271.930361 
L 320.085646 255.455939 
L 344.114354 216.538063 
L 368.143062 227.607498 
L 392.17177 187.323216 
L 416.200478 164.238157 
L 440.229187 123.196641 
L 464.257895 206.293548 
L 488.286603 220.490627 
L 512.315311 175.317462 
L 536.344019 130.620918 
L 560.372727 87.568573 
" clip-path="url(#p2129804ebc)" style="fill: none; stroke-dasharray: 3.7,1.6; stroke-dashoffset: 0; stroke: #17becf; stroke-opacity: 0.6"/>
   </g>
   <g id="line2d_97">
    <path d="M 103.827273 196.859989 
L 127.855981 194.395737 
L 151.884689 299.854952 
L 175.913397 287.271953 
L 199.942105 268.526096 
L 223.970813 246.074035 
L 247.999522 218.406676 
L 272.02823 189.012965 
L 296.056938 272.068552 
L 320.085646 260.058568 
L 344.114354 226.348262 
L 368.143062 241.01491 
L 392.17177 205.926917 
L 416.200478 187.161052 
L 440.229187 149.876094 
L 464.257895 225.170812 
L 488.286603 238.779871 
L 512.315311 198.102166 
L 536.344019 158.027992 
L 560.372727 118.147005 
" clip-path="url(#p2129804ebc)" style="fill: none; stroke-dasharray: 3.7,1.6; stroke-dashoffset: 0; stroke: #1f77b4; stroke-opacity: 0.6"/>
   </g>
   <g id="line2d_98">
    <path d="M 103.827273 196.859989 
L 127.855981 196.405156 
L 151.884689 304.174418 
L 175.913397 297.528387 
L 199.942105 281.458439 
L 223.970813 262.28257 
L 247.999522 239.159192 
L 272.02823 212.166792 
L 296.056938 286.01181 
L 320.085646 275.24273 
L 344.114354 243.364168 
L 368.143062 255.382613 
L 392.17177 221.601801 
L 416.200478 200.653072 
L 440.229187 163.950493 
L 464.257895 235.184068 
L 488.286603 248.907346 
L 512.315311 209.861149 
L 536.344019 170.90802 
L 560.372727 133.418594 
" clip-path="url(#p2129804ebc)" style="fill: none; stroke-dasharray: 3.7,1.6; stroke-dashoffset: 0; stroke: #ff7f0e; stroke-opacity: 0.6"/>
   </g>
   <g id="line2d_99">
    <path d="M 103.827273 196.859989 
L 127.855981 196.08788 
L 151.884689 300.590076 
L 175.913397 288.64227 
L 199.942105 269.223684 
L 223.970813 243.933765 
L 247.999522 215.654785 
L 272.02823 184.36812 
L 296.056938 271.45374 
L 320.085646 257.126931 
L 344.114354 219.753135 
L 368.143062 233.958674 
L 392.17177 195.858667 
L 416.200478 175.217344 
L 440.229187 134.462082 
L 464.257895 217.705642 
L 488.286603 232.355369 
L 512.315311 186.632258 
L 536.344019 140.125121 
L 560.372727 97.106618 
" clip-path="url(#p2129804ebc)" style="fill: none; stroke-dasharray: 3.7,1.6; stroke-dashoffset: 0; stroke: #2ca02c; stroke-opacity: 0.6"/>
   </g>
   <g id="line2d_100">
    <path d="M 103.827273 196.859989 
L 127.855981 195.279881 
L 151.884689 298.904032 
L 175.913397 285.382622 
L 199.942105 262.684572 
L 223.970813 237.927998 
L 247.999522 208.351433 
L 272.02823 174.872663 
L 296.056938 261.833908 
L 320.085646 245.837517 
L 344.114354 206.616465 
L 368.143062 220.994039 
L 392.17177 181.720813 
L 416.200478 160.690297 
L 440.229187 119.471107 
L 464.257895 204.105043 
L 488.286603 218.3966 
L 512.315311 172.378774 
L 536.344019 125.575512 
L 560.372727 81.981681 
" clip-path="url(#p2129804ebc)" style="fill: none; stroke-dasharray: 3.7,1.6; stroke-dashoffset: 0; stroke: #d62728; stroke-opacity: 0.6"/>
   </g>
   <g id="line2d_101">
    <path d="M 103.827273 196.859989 
L 127.855981 196.481303 
L 151.884689 304.367562 
L 175.913397 297.846858 
L 199.942105 285.798234 
L 223.970813 270.670947 
L 247.999522 250.981873 
L 272.02823 228.587014 
L 296.056938 296.659619 
L 320.085646 289.597742 
L 344.114354 261.869161 
L 368.143062 273.495593 
L 392.17177 242.472973 
L 416.200478 223.312275 
L 440.229187 188.265176 
L 464.257895 251.109952 
L 488.286603 262.493844 
L 512.315311 225.438735 
L 536.344019 185.789007 
L 560.372727 143.533378 
" clip-path="url(#p2129804ebc)" style="fill: none; stroke-dasharray: 3.7,1.6; stroke-dashoffset: 0; stroke: #9467bd; stroke-opacity: 0.6"/>
   </g>
   <g id="line2d_102">
    <path d="M 103.827273 196.859989 
L 127.855981 195.884822 
L 151.884689 302.382452 
L 175.913397 295.46303 
L 199.942105 282.532831 
L 223.970813 263.855228 
L 247.999522 240.762917 
L 272.02823 212.743988 
L 296.056938 283.772541 
L 320.085646 273.523795 
L 344.114354 242.809992 
L 368.143062 254.444884 
L 392.17177 220.573824 
L 416.200478 200.183502 
L 440.229187 163.887037 
L 464.257895 230.00047 
L 488.286603 240.558031 
L 512.315311 200.779982 
L 536.344019 160.986422 
L 560.372727 119.894142 
" clip-path="url(#p2129804ebc)" style="fill: none; stroke-dasharray: 3.7,1.6; stroke-dashoffset: 0; stroke: #8c564b; stroke-opacity: 0.6"/>
   </g>
   <g id="line2d_103">
    <path d="M 103.827273 196.859989 
L 127.855981 197.427493 
L 151.884689 304.484064 
L 175.913397 297.428742 
L 199.942105 285.793586 
L 223.970813 271.165476 
L 247.999522 251.79603 
L 272.02823 228.724972 
L 296.056938 294.984397 
L 320.085646 285.966686 
L 344.114354 256.722226 
L 368.143062 267.144416 
L 392.17177 234.106737 
L 416.200478 212.632033 
L 440.229187 173.619679 
L 464.257895 237.964822 
L 488.286603 246.978304 
L 512.315311 204.721265 
L 536.344019 160.043053 
L 560.372727 116.302569 
" clip-path="url(#p2129804ebc)" style="fill: none; stroke-dasharray: 3.7,1.6; stroke-dashoffset: 0; stroke: #e377c2; stroke-opacity: 0.6"/>
   </g>
   <g id="line2d_104">
    <path d="M 103.827273 196.859989 
L 127.855981 197.091884 
L 151.884689 304.829734 
L 175.913397 297.807986 
L 199.942105 286.420636 
L 223.970813 271.89909 
L 247.999522 250.810004 
L 272.02823 227.672117 
L 296.056938 294.509187 
L 320.085646 287.066579 
L 344.114354 260.223552 
L 368.143062 272.414031 
L 392.17177 243.602479 
L 416.200478 225.38233 
L 440.229187 192.477201 
L 464.257895 254.347586 
L 488.286603 266.026192 
L 512.315311 232.399082 
L 536.344019 197.767968 
L 560.372727 164.401731 
" clip-path="url(#p2129804ebc)" style="fill: none; stroke-dasharray: 3.7,1.6; stroke-dashoffset: 0; stroke: #7f7f7f; stroke-opacity: 0.6"/>
   </g>
   <g id="line2d_105">
    <path d="M 103.827273 196.859989 
L 127.855981 195.862261 
L 151.884689 300.54931 
L 175.913397 288.997802 
L 199.942105 271.548846 
L 223.970813 250.515378 
L 247.999522 224.309132 
L 272.02823 196.125822 
L 296.056938 275.365411 
L 320.085646 264.372122 
L 344.114354 231.390847 
L 368.143062 244.643146 
L 392.17177 210.171376 
L 416.200478 191.069903 
L 440.229187 153.318195 
L 464.257895 225.593848 
L 488.286603 238.352605 
L 512.315311 198.203695 
L 536.344019 156.610823 
L 560.372727 114.907961 
" clip-path="url(#p2129804ebc)" style="fill: none; stroke-dasharray: 3.7,1.6; stroke-dashoffset: 0; stroke: #bcbd22; stroke-opacity: 0.6"/>
   </g>
   <g id="line2d_106">
    <path d="M 103.827273 196.859989 
L 127.855981 196.045576 
L 151.884689 300.872124 
L 175.913397 290.413167 
L 199.942105 273.260368 
L 223.970813 253.209565 
L 247.999522 229.192202 
L 272.02823 200.341891 
L 296.056938 277.091396 
L 320.085646 265.903512 
L 344.114354 233.613195 
L 368.143062 247.112265 
L 392.17177 213.000074 
L 416.200478 193.916933 
L 440.229187 158.11401 
L 464.257895 230.190836 
L 488.286603 244.184858 
L 512.315311 204.918682 
L 536.344019 165.161785 
L 560.372727 126.064823 
" clip-path="url(#p2129804ebc)" style="fill: none; stroke-dasharray: 3.7,1.6; stroke-dashoffset: 0; stroke: #17becf; stroke-opacity: 0.6"/>
   </g>
   <g id="line2d_107">
    <path d="M 103.827273 196.859989 
L 127.855981 195.238988 
L 151.884689 300.256359 
L 175.913397 288.462613 
L 199.942105 268.467571 
L 223.970813 245.383784 
L 247.999522 217.116274 
L 272.02823 186.546158 
L 296.056938 270.628821 
L 320.085646 258.594865 
L 344.114354 223.323556 
L 368.143062 237.554478 
L 392.17177 202.489047 
L 416.200478 183.796508 
L 440.229187 145.008363 
L 464.257895 220.919303 
L 488.286603 234.990881 
L 512.315311 194.47675 
L 536.344019 152.363544 
L 560.372727 111.650586 
" clip-path="url(#p2129804ebc)" style="fill: none; stroke-dasharray: 3.7,1.6; stroke-dashoffset: 0; stroke: #1f77b4; stroke-opacity: 0.6"/>
   </g>
   <g id="line2d_108">
    <path d="M 103.827273 196.859989 
L 127.855981 196.845114 
L 151.884689 303.83856 
L 175.913397 295.461153 
L 199.942105 279.384722 
L 223.970813 258.65688 
L 247.999522 232.881602 
L 272.02823 201.218828 
L 296.056938 279.708577 
L 320.085646 265.149098 
L 344.114354 228.607272 
L 368.143062 240.077181 
L 392.17177 201.043675 
L 416.200478 177.678002 
L 440.229187 136.573031 
L 464.257895 217.107751 
L 488.286603 230.11469 
L 512.315311 183.623064 
L 536.344019 135.638122 
L 560.372727 89.273407 
" clip-path="url(#p2129804ebc)" style="fill: none; stroke-dasharray: 3.7,1.6; stroke-dashoffset: 0; stroke: #ff7f0e; stroke-opacity: 0.6"/>
   </g>
   <g id="line2d_109">
    <path d="M 103.827273 196.859989 
L 127.855981 196.501045 
L 151.884689 303.29445 
L 175.913397 294.862545 
L 199.942105 279.827447 
L 223.970813 260.969041 
L 247.999522 238.584444 
L 272.02823 211.47985 
L 296.056938 287.465642 
L 320.085646 277.824658 
L 344.114354 247.598756 
L 368.143062 260.779139 
L 392.17177 226.485043 
L 416.200478 204.667681 
L 440.229187 164.766951 
L 464.257895 233.757027 
L 488.286603 242.55335 
L 512.315311 196.445276 
L 536.344019 149.037073 
L 560.372727 103.242046 
" clip-path="url(#p2129804ebc)" style="fill: none; stroke-dasharray: 3.7,1.6; stroke-dashoffset: 0; stroke: #2ca02c; stroke-opacity: 0.6"/>
   </g>
   <g id="line2d_110">
    <path d="M 103.827273 196.859989 
L 127.855981 195.568956 
L 151.884689 300.126441 
L 175.913397 287.361205 
L 199.942105 267.527927 
L 223.970813 244.600117 
L 247.999522 217.936626 
L 272.02823 188.491147 
L 296.056938 273.857993 
L 320.085646 261.481378 
L 344.114354 226.038035 
L 368.143062 241.908926 
L 392.17177 205.141481 
L 416.200478 185.162914 
L 440.229187 147.160205 
L 464.257895 227.672363 
L 488.286603 243.85348 
L 512.315311 201.493503 
L 536.344019 157.820705 
L 560.372727 114.328402 
" clip-path="url(#p2129804ebc)" style="fill: none; stroke-dasharray: 3.7,1.6; stroke-dashoffset: 0; stroke: #d62728; stroke-opacity: 0.6"/>
   </g>
   <g id="line2d_111">
    <path d="M 103.827273 196.859989 
L 127.855981 196.781658 
L 151.884689 302.188757 
L 175.913397 293.016052 
L 199.942105 275.898655 
L 223.970813 255.537935 
L 247.999522 230.80626 
L 272.02823 201.325497 
L 296.056938 280.021624 
L 320.085646 265.659561 
L 344.114354 229.020437 
L 368.143062 240.77801 
L 392.17177 202.720306 
L 416.200478 180.319155 
L 440.229187 139.219824 
L 464.257895 220.05067 
L 488.286603 234.596048 
L 512.315311 190.621485 
L 536.344019 145.953143 
L 560.372727 102.551088 
" clip-path="url(#p2129804ebc)" style="fill: none; stroke-dasharray: 3.7,1.6; stroke-dashoffset: 0; stroke: #9467bd; stroke-opacity: 0.6"/>
   </g>
   <g id="line2d_112">
    <path d="M 103.827273 196.859989 
L 127.855981 197.593887 
L 151.884689 304.873162 
L 175.913397 295.978695 
L 199.942105 278.017661 
L 223.970813 255.292904 
L 247.999522 228.630834 
L 272.02823 197.771281 
L 296.056938 277.872602 
L 320.085646 263.592327 
L 344.114354 226.487863 
L 368.143062 238.974468 
L 392.17177 201.654256 
L 416.200478 179.872147 
L 440.229187 140.23088 
L 464.257895 220.080282 
L 488.286603 233.999568 
L 512.315311 191.51691 
L 536.344019 148.021787 
L 560.372727 104.690238 
" clip-path="url(#p2129804ebc)" style="fill: none; stroke-dasharray: 3.7,1.6; stroke-dashoffset: 0; stroke: #8c564b; stroke-opacity: 0.6"/>
   </g>
   <g id="line2d_113">
    <path d="M 103.827273 196.859989 
L 127.855981 197.481077 
L 151.884689 305.495088 
L 175.913397 298.622205 
L 199.942105 284.509607 
L 223.970813 265.970994 
L 247.999522 242.729908 
L 272.02823 216.096594 
L 296.056938 288.62617 
L 320.085646 279.076844 
L 344.114354 249.570102 
L 368.143062 262.045426 
L 392.17177 230.159813 
L 416.200478 210.605692 
L 440.229187 175.536031 
L 464.257895 243.158291 
L 488.286603 256.275219 
L 512.315311 218.759001 
L 536.344019 180.551824 
L 560.372727 141.092462 
" clip-path="url(#p2129804ebc)" style="fill: none; stroke-dasharray: 3.7,1.6; stroke-dashoffset: 0; stroke: #e377c2; stroke-opacity: 0.6"/>
   </g>
   <g id="line2d_114">
    <path d="M 103.827273 196.859989 
L 127.855981 196.91985 
L 151.884689 303.705966 
L 175.913397 294.726546 
L 199.942105 278.705818 
L 223.970813 258.139377 
L 247.999522 235.239825 
L 272.02823 209.219755 
L 296.056938 288.829228 
L 320.085646 280.706942 
L 344.114354 251.972945 
L 368.143062 267.66052 
L 392.17177 236.718277 
L 416.200478 218.564404 
L 440.229187 184.17583 
L 464.257895 254.409631 
L 488.286603 269.650198 
L 512.315311 232.709309 
L 536.344019 193.845017 
L 560.372727 155.03431 
" clip-path="url(#p2129804ebc)" style="fill: none; stroke-dasharray: 3.7,1.6; stroke-dashoffset: 0; stroke: #7f7f7f; stroke-opacity: 0.6"/>
   </g>
   <g id="line2d_115">
    <path d="M 103.827273 196.859989 
L 127.855981 195.924306 
L 151.884689 298.906487 
L 175.913397 283.111907 
L 199.942105 259.170753 
L 223.970813 230.694599 
L 247.999522 199.052765 
L 272.02823 167.808243 
L 296.056938 260.054338 
L 320.085646 246.256323 
L 344.114354 210.494293 
L 368.143062 227.293041 
L 392.17177 191.680484 
L 416.200478 173.269969 
L 440.229187 136.267035 
L 464.257895 216.980841 
L 488.286603 233.79087 
L 512.315311 194.2328 
L 536.344019 153.002328 
L 560.372727 113.317347 
" clip-path="url(#p2129804ebc)" style="fill: none; stroke-dasharray: 3.7,1.6; stroke-dashoffset: 0; stroke: #bcbd22; stroke-opacity: 0.6"/>
   </g>
   <g id="line2d_116">
    <path d="M 103.827273 196.859989 
L 127.855981 197.255458 
L 151.884689 303.915883 
L 175.913397 296.91183 
L 199.942105 282.026928 
L 223.970813 263.806591 
L 247.999522 241.578657 
L 272.02823 215.291982 
L 296.056938 286.874803 
L 320.085646 277.500331 
L 344.114354 247.484536 
L 368.143062 259.149041 
L 392.17177 226.439919 
L 416.200478 207.203075 
L 440.229187 171.285932 
L 464.257895 237.811119 
L 488.286603 250.024161 
L 512.315311 212.420515 
L 536.344019 174.138603 
L 560.372727 135.395581 
" clip-path="url(#p2129804ebc)" style="fill: none; stroke-dasharray: 3.7,1.6; stroke-dashoffset: 0; stroke: #17becf; stroke-opacity: 0.6"/>
   </g>
   <g id="line2d_117">
    <path d="M 103.827273 196.859989 
L 127.855981 196.309522 
L 151.884689 302.171722 
L 175.913397 292.547612 
L 199.942105 275.847924 
L 223.970813 255.189115 
L 247.999522 229.998476 
L 272.02823 201.564714 
L 296.056938 279.081032 
L 320.085646 267.217348 
L 344.114354 233.738329 
L 368.143062 246.292168 
L 392.17177 210.89306 
L 416.200478 190.272551 
L 440.229187 152.134442 
L 464.257895 225.992136 
L 488.286603 238.984762 
L 512.315311 197.472139 
L 536.344019 154.770434 
L 560.372727 112.595549 
" clip-path="url(#p2129804ebc)" style="fill: none; stroke: #000000; stroke-width: 2.5; stroke-linecap: square"/>
   </g>
   <g id="patch_3">
    <path d="M 81 320.4 
L 81 43.2 
" style="fill: none; stroke: #000000; stroke-width: 0.8; stroke-linejoin: miter; stroke-linecap: square"/>
   </g>
   <g id="patch_4">
    <path d="M 583.2 320.4 
L 583.2 43.2 
" style="fill: none; stroke: #000000; stroke-width: 0.8; stroke-linejoin: miter; stroke-linecap: square"/>
   </g>
   <g id="patch_5">
    <path d="M 81 320.4 
L 583.2 320.4 
" style="fill: none; stroke: #000000; stroke-width: 0.8; stroke-linejoin: miter; stroke-linecap: square"/>
   </g>
   <g id="patch_6">
    <path d="M 81 43.2 
L 583.2 43.2 
" style="fill: none; stroke: #000000; stroke-width: 0.8; stroke-linejoin: miter; stroke-linecap: square"/>
   </g>
   <g id="legend_1">
    <g id="patch_7">
     <path d="M 88 65.878125 
L 161.065625 65.878125 
Q 163.065625 65.878125 163.065625 63.878125 
L 163.065625 50.2 
Q 163.065625 48.2 161.065625 48.2 
L 88 48.2 
Q 86 48.2 86 50.2 
L 86 63.878125 
Q 86 65.878125 88 65.878125 
z
" style="fill: #ffffff; opacity: 0.8; stroke: #cccccc; stroke-linejoin: miter"/>
    </g>
    <g id="line2d_118">
     <path d="M 90 56.298437 
L 100 56.298437 
L 110 56.298437 
" style="fill: none; stroke: #000000; stroke-width: 2.5; stroke-linecap: square"/>
    </g>
    <g id="text_19">
     <!-- Average -->
     <g transform="translate(118 59.798437) scale(0.1 -0.1)">
      <defs>
       <path id="DejaVuSans-41" d="M 2188 4044 
L 1331 1722 
L 3047 1722 
L 2188 4044 
z
M 1831 4666 
L 2547 4666 
L 4325 0 
L 3669 0 
L 3244 1197 
L 1141 1197 
L 716 0 
L 50 0 
L 1831 4666 
z
" transform="scale(0.015625)"/>
       <path id="DejaVuSans-67" d="M 2906 1791 
Q 2906 2416 2648 2759 
Q 2391 3103 1925 3103 
Q 1463 3103 1205 2759 
Q 947 2416 947 1791 
Q 947 1169 1205 825 
Q 1463 481 1925 481 
Q 2391 481 2648 825 
Q 2906 1169 2906 1791 
z
M 3481 434 
Q 3481 -459 3084 -895 
Q 2688 -1331 1869 -1331 
Q 1566 -1331 1297 -1286 
Q 1028 -1241 775 -1147 
L 775 -588 
Q 1028 -725 1275 -790 
Q 1522 -856 1778 -856 
Q 2344 -856 2625 -561 
Q 2906 -266 2906 331 
L 2906 616 
Q 2728 306 2450 153 
Q 2172 0 1784 0 
Q 1141 0 747 490 
Q 353 981 353 1791 
Q 353 2603 747 3093 
Q 1141 3584 1784 3584 
Q 2172 3584 2450 3431 
Q 2728 3278 2906 2969 
L 2906 3500 
L 3481 3500 
L 3481 434 
z
" transform="scale(0.015625)"/>
      </defs>
      <use xlink:href="#DejaVuSans-41"/>
      <use xlink:href="#DejaVuSans-76" x="62.533203"/>
      <use xlink:href="#DejaVuSans-65" x="121.712891"/>
      <use xlink:href="#DejaVuSans-72" x="183.236328"/>
      <use xlink:href="#DejaVuSans-61" x="224.349609"/>
      <use xlink:href="#DejaVuSans-67" x="285.628906"/>
      <use xlink:href="#DejaVuSans-65" x="349.105469"/>
     </g>
    </g>
   </g>
  </g>
 </g>
 <defs>
  <clipPath id="p2129804ebc">
   <rect x="81" y="43.2" width="502.2" height="277.2"/>
  </clipPath>
 </defs>
</svg>
