<?xml version="1.0" encoding="utf-8" standalone="no"?>
<!DOCTYPE svg PUBLIC "-//W3C//DTD SVG 1.1//EN"
  "http://www.w3.org/Graphics/SVG/1.1/DTD/svg11.dtd">
<svg xmlns:xlink="http://www.w3.org/1999/xlink" width="460.8pt" height="345.6pt" viewBox="0 0 460.8 345.6" xmlns="http://www.w3.org/2000/svg" version="1.1">
 <metadata>
  <rdf:RDF xmlns:dc="http://purl.org/dc/elements/1.1/" xmlns:cc="http://creativecommons.org/ns#" xmlns:rdf="http://www.w3.org/1999/02/22-rdf-syntax-ns#">
   <cc:Work>
    <dc:type rdf:resource="http://purl.org/dc/dcmitype/StillImage"/>
    <dc:date>2025-07-28T18:27:52.647813</dc:date>
    <dc:format>image/svg+xml</dc:format>
    <dc:creator>
     <cc:Agent>
      <dc:title>Matplotlib v3.8.0, https://matplotlib.org/</dc:title>
     </cc:Agent>
    </dc:creator>
   </cc:Work>
  </rdf:RDF>
 </metadata>
 <defs>
  <style type="text/css">*{stroke-linejoin: round; stroke-linecap: butt}</style>
 </defs>
 <g id="figure_1">
  <g id="patch_1">
   <path d="M 0 345.6 
L 460.8 345.6 
L 460.8 0 
L 0 0 
z
" style="fill: #ffffff"/>
  </g>
  <g id="axes_1">
   <g id="patch_2">
    <path d="M 57.6 307.584 
L 414.72 307.584 
L 414.72 41.472 
L 57.6 41.472 
z
" style="fill: #ffffff"/>
   </g>
   <g id="matplotlib.axis_1">
    <g id="xtick_1">
     <g id="line2d_1">
      <defs>
       <path id="m55a75af573" d="M 0 0 
L 0 3.5 
" style="stroke: #000000; stroke-width: 0.8"/>
      </defs>
      <g>
       <use xlink:href="#m55a75af573" x="73.832727" y="307.584" style="stroke: #000000; stroke-width: 0.8"/>
      </g>
     </g>
     <g id="text_1">
      <!-- 0.0 -->
      <g transform="translate(64.290852 323.702125) scale(0.12 -0.12)">
       <defs>
        <path id="DejaVuSans-30" d="M 2034 4250 
Q 1547 4250 1301 3770 
Q 1056 3291 1056 2328 
Q 1056 1369 1301 889 
Q 1547 409 2034 409 
Q 2525 409 2770 889 
Q 3016 1369 3016 2328 
Q 3016 3291 2770 3770 
Q 2525 4250 2034 4250 
z
M 2034 4750 
Q 2819 4750 3233 4129 
Q 3647 3509 3647 2328 
Q 3647 1150 3233 529 
Q 2819 -91 2034 -91 
Q 1250 -91 836 529 
Q 422 1150 422 2328 
Q 422 3509 836 4129 
Q 1250 4750 2034 4750 
z
" transform="scale(0.015625)"/>
        <path id="DejaVuSans-2e" d="M 684 794 
L 1344 794 
L 1344 0 
L 684 0 
L 684 794 
z
" transform="scale(0.015625)"/>
       </defs>
       <use xlink:href="#DejaVuSans-30"/>
       <use xlink:href="#DejaVuSans-2e" x="63.623047"/>
       <use xlink:href="#DejaVuSans-30" x="95.410156"/>
      </g>
     </g>
    </g>
    <g id="xtick_2">
     <g id="line2d_2">
      <g>
       <use xlink:href="#m55a75af573" x="116.550431" y="307.584" style="stroke: #000000; stroke-width: 0.8"/>
      </g>
     </g>
     <g id="text_2">
      <!-- 2.5 -->
      <g transform="translate(107.008556 323.702125) scale(0.12 -0.12)">
       <defs>
        <path id="DejaVuSans-32" d="M 1228 531 
L 3431 531 
L 3431 0 
L 469 0 
L 469 531 
Q 828 903 1448 1529 
Q 2069 2156 2228 2338 
Q 2531 2678 2651 2914 
Q 2772 3150 2772 3378 
Q 2772 3750 2511 3984 
Q 2250 4219 1831 4219 
Q 1534 4219 1204 4116 
Q 875 4013 500 3803 
L 500 4441 
Q 881 4594 1212 4672 
Q 1544 4750 1819 4750 
Q 2544 4750 2975 4387 
Q 3406 4025 3406 3419 
Q 3406 3131 3298 2873 
Q 3191 2616 2906 2266 
Q 2828 2175 2409 1742 
Q 1991 1309 1228 531 
z
" transform="scale(0.015625)"/>
        <path id="DejaVuSans-35" d="M 691 4666 
L 3169 4666 
L 3169 4134 
L 1269 4134 
L 1269 2991 
Q 1406 3038 1543 3061 
Q 1681 3084 1819 3084 
Q 2600 3084 3056 2656 
Q 3513 2228 3513 1497 
Q 3513 744 3044 326 
Q 2575 -91 1722 -91 
Q 1428 -91 1123 -41 
Q 819 9 494 109 
L 494 744 
Q 775 591 1075 516 
Q 1375 441 1709 441 
Q 2250 441 2565 725 
Q 2881 1009 2881 1497 
Q 2881 1984 2565 2268 
Q 2250 2553 1709 2553 
Q 1456 2553 1204 2497 
Q 953 2441 691 2322 
L 691 4666 
z
" transform="scale(0.015625)"/>
       </defs>
       <use xlink:href="#DejaVuSans-32"/>
       <use xlink:href="#DejaVuSans-2e" x="63.623047"/>
       <use xlink:href="#DejaVuSans-35" x="95.410156"/>
      </g>
     </g>
    </g>
    <g id="xtick_3">
     <g id="line2d_3">
      <g>
       <use xlink:href="#m55a75af573" x="159.268134" y="307.584" style="stroke: #000000; stroke-width: 0.8"/>
      </g>
     </g>
     <g id="text_3">
      <!-- 5.0 -->
      <g transform="translate(149.726259 323.702125) scale(0.12 -0.12)">
       <use xlink:href="#DejaVuSans-35"/>
       <use xlink:href="#DejaVuSans-2e" x="63.623047"/>
       <use xlink:href="#DejaVuSans-30" x="95.410156"/>
      </g>
     </g>
    </g>
    <g id="xtick_4">
     <g id="line2d_4">
      <g>
       <use xlink:href="#m55a75af573" x="201.985837" y="307.584" style="stroke: #000000; stroke-width: 0.8"/>
      </g>
     </g>
     <g id="text_4">
      <!-- 7.5 -->
      <g transform="translate(192.443962 323.702125) scale(0.12 -0.12)">
       <defs>
        <path id="DejaVuSans-37" d="M 525 4666 
L 3525 4666 
L 3525 4397 
L 1831 0 
L 1172 0 
L 2766 4134 
L 525 4134 
L 525 4666 
z
" transform="scale(0.015625)"/>
       </defs>
       <use xlink:href="#DejaVuSans-37"/>
       <use xlink:href="#DejaVuSans-2e" x="63.623047"/>
       <use xlink:href="#DejaVuSans-35" x="95.410156"/>
      </g>
     </g>
    </g>
    <g id="xtick_5">
     <g id="line2d_5">
      <g>
       <use xlink:href="#m55a75af573" x="244.703541" y="307.584" style="stroke: #000000; stroke-width: 0.8"/>
      </g>
     </g>
     <g id="text_5">
      <!-- 10.0 -->
      <g transform="translate(231.344166 323.702125) scale(0.12 -0.12)">
       <defs>
        <path id="DejaVuSans-31" d="M 794 531 
L 1825 531 
L 1825 4091 
L 703 3866 
L 703 4441 
L 1819 4666 
L 2450 4666 
L 2450 531 
L 3481 531 
L 3481 0 
L 794 0 
L 794 531 
z
" transform="scale(0.015625)"/>
       </defs>
       <use xlink:href="#DejaVuSans-31"/>
       <use xlink:href="#DejaVuSans-30" x="63.623047"/>
       <use xlink:href="#DejaVuSans-2e" x="127.246094"/>
       <use xlink:href="#DejaVuSans-30" x="159.033203"/>
      </g>
     </g>
    </g>
    <g id="xtick_6">
     <g id="line2d_6">
      <g>
       <use xlink:href="#m55a75af573" x="287.421244" y="307.584" style="stroke: #000000; stroke-width: 0.8"/>
      </g>
     </g>
     <g id="text_6">
      <!-- 12.5 -->
      <g transform="translate(274.061869 323.702125) scale(0.12 -0.12)">
       <use xlink:href="#DejaVuSans-31"/>
       <use xlink:href="#DejaVuSans-32" x="63.623047"/>
       <use xlink:href="#DejaVuSans-2e" x="127.246094"/>
       <use xlink:href="#DejaVuSans-35" x="159.033203"/>
      </g>
     </g>
    </g>
    <g id="xtick_7">
     <g id="line2d_7">
      <g>
       <use xlink:href="#m55a75af573" x="330.138947" y="307.584" style="stroke: #000000; stroke-width: 0.8"/>
      </g>
     </g>
     <g id="text_7">
      <!-- 15.0 -->
      <g transform="translate(316.779572 323.702125) scale(0.12 -0.12)">
       <use xlink:href="#DejaVuSans-31"/>
       <use xlink:href="#DejaVuSans-35" x="63.623047"/>
       <use xlink:href="#DejaVuSans-2e" x="127.246094"/>
       <use xlink:href="#DejaVuSans-30" x="159.033203"/>
      </g>
     </g>
    </g>
    <g id="xtick_8">
     <g id="line2d_8">
      <g>
       <use xlink:href="#m55a75af573" x="372.856651" y="307.584" style="stroke: #000000; stroke-width: 0.8"/>
      </g>
     </g>
     <g id="text_8">
      <!-- 17.5 -->
      <g transform="translate(359.497276 323.702125) scale(0.12 -0.12)">
       <use xlink:href="#DejaVuSans-31"/>
       <use xlink:href="#DejaVuSans-37" x="63.623047"/>
       <use xlink:href="#DejaVuSans-2e" x="127.246094"/>
       <use xlink:href="#DejaVuSans-35" x="159.033203"/>
      </g>
     </g>
    </g>
    <g id="text_9">
     <!-- Years -->
     <g transform="translate(216.371719 341.595406) scale(0.15 -0.15)">
      <defs>
       <path id="DejaVuSans-59" d="M -13 4666 
L 666 4666 
L 1959 2747 
L 3244 4666 
L 3922 4666 
L 2272 2222 
L 2272 0 
L 1638 0 
L 1638 2222 
L -13 4666 
z
" transform="scale(0.015625)"/>
       <path id="DejaVuSans-65" d="M 3597 1894 
L 3597 1613 
L 953 1613 
Q 991 1019 1311 708 
Q 1631 397 2203 397 
Q 2534 397 2845 478 
Q 3156 559 3463 722 
L 3463 178 
Q 3153 47 2828 -22 
Q 2503 -91 2169 -91 
Q 1331 -91 842 396 
Q 353 884 353 1716 
Q 353 2575 817 3079 
Q 1281 3584 2069 3584 
Q 2775 3584 3186 3129 
Q 3597 2675 3597 1894 
z
M 3022 2063 
Q 3016 2534 2758 2815 
Q 2500 3097 2075 3097 
Q 1594 3097 1305 2825 
Q 1016 2553 972 2059 
L 3022 2063 
z
" transform="scale(0.015625)"/>
       <path id="DejaVuSans-61" d="M 2194 1759 
Q 1497 1759 1228 1600 
Q 959 1441 959 1056 
Q 959 750 1161 570 
Q 1363 391 1709 391 
Q 2188 391 2477 730 
Q 2766 1069 2766 1631 
L 2766 1759 
L 2194 1759 
z
M 3341 1997 
L 3341 0 
L 2766 0 
L 2766 531 
Q 2569 213 2275 61 
Q 1981 -91 1556 -91 
Q 1019 -91 701 211 
Q 384 513 384 1019 
Q 384 1609 779 1909 
Q 1175 2209 1959 2209 
L 2766 2209 
L 2766 2266 
Q 2766 2663 2505 2880 
Q 2244 3097 1772 3097 
Q 1472 3097 1187 3025 
Q 903 2953 641 2809 
L 641 3341 
Q 956 3463 1253 3523 
Q 1550 3584 1831 3584 
Q 2591 3584 2966 3190 
Q 3341 2797 3341 1997 
z
" transform="scale(0.015625)"/>
       <path id="DejaVuSans-72" d="M 2631 2963 
Q 2534 3019 2420 3045 
Q 2306 3072 2169 3072 
Q 1681 3072 1420 2755 
Q 1159 2438 1159 1844 
L 1159 0 
L 581 0 
L 581 3500 
L 1159 3500 
L 1159 2956 
Q 1341 3275 1631 3429 
Q 1922 3584 2338 3584 
Q 2397 3584 2469 3576 
Q 2541 3569 2628 3553 
L 2631 2963 
z
" transform="scale(0.015625)"/>
       <path id="DejaVuSans-73" d="M 2834 3397 
L 2834 2853 
Q 2591 2978 2328 3040 
Q 2066 3103 1784 3103 
Q 1356 3103 1142 2972 
Q 928 2841 928 2578 
Q 928 2378 1081 2264 
Q 1234 2150 1697 2047 
L 1894 2003 
Q 2506 1872 2764 1633 
Q 3022 1394 3022 966 
Q 3022 478 2636 193 
Q 2250 -91 1575 -91 
Q 1294 -91 989 -36 
Q 684 19 347 128 
L 347 722 
Q 666 556 975 473 
Q 1284 391 1588 391 
Q 1994 391 2212 530 
Q 2431 669 2431 922 
Q 2431 1156 2273 1281 
Q 2116 1406 1581 1522 
L 1381 1569 
Q 847 1681 609 1914 
Q 372 2147 372 2553 
Q 372 3047 722 3315 
Q 1072 3584 1716 3584 
Q 2034 3584 2315 3537 
Q 2597 3491 2834 3397 
z
" transform="scale(0.015625)"/>
      </defs>
      <use xlink:href="#DejaVuSans-59"/>
      <use xlink:href="#DejaVuSans-65" x="47.833984"/>
      <use xlink:href="#DejaVuSans-61" x="109.357422"/>
      <use xlink:href="#DejaVuSans-72" x="170.636719"/>
      <use xlink:href="#DejaVuSans-73" x="211.75"/>
     </g>
    </g>
   </g>
   <g id="matplotlib.axis_2">
    <g id="ytick_1">
     <g id="line2d_9">
      <defs>
       <path id="m1ebbd36be9" d="M 0 0 
L -3.5 0 
" style="stroke: #000000; stroke-width: 0.8"/>
      </defs>
      <g>
       <use xlink:href="#m1ebbd36be9" x="57.6" y="279.724212" style="stroke: #000000; stroke-width: 0.8"/>
      </g>
     </g>
     <g id="text_10">
      <!-- 12 -->
      <g transform="translate(35.33 284.283275) scale(0.12 -0.12)">
       <use xlink:href="#DejaVuSans-31"/>
       <use xlink:href="#DejaVuSans-32" x="63.623047"/>
      </g>
     </g>
    </g>
    <g id="ytick_2">
     <g id="line2d_10">
      <g>
       <use xlink:href="#m1ebbd36be9" x="57.6" y="248.962859" style="stroke: #000000; stroke-width: 0.8"/>
      </g>
     </g>
     <g id="text_11">
      <!-- 14 -->
      <g transform="translate(35.33 253.521922) scale(0.12 -0.12)">
       <defs>
        <path id="DejaVuSans-34" d="M 2419 4116 
L 825 1625 
L 2419 1625 
L 2419 4116 
z
M 2253 4666 
L 3047 4666 
L 3047 1625 
L 3713 1625 
L 3713 1100 
L 3047 1100 
L 3047 0 
L 2419 0 
L 2419 1100 
L 313 1100 
L 313 1709 
L 2253 4666 
z
" transform="scale(0.015625)"/>
       </defs>
       <use xlink:href="#DejaVuSans-31"/>
       <use xlink:href="#DejaVuSans-34" x="63.623047"/>
      </g>
     </g>
    </g>
    <g id="ytick_3">
     <g id="line2d_11">
      <g>
       <use xlink:href="#m1ebbd36be9" x="57.6" y="218.201506" style="stroke: #000000; stroke-width: 0.8"/>
      </g>
     </g>
     <g id="text_12">
      <!-- 16 -->
      <g transform="translate(35.33 222.760569) scale(0.12 -0.12)">
       <defs>
        <path id="DejaVuSans-36" d="M 2113 2584 
Q 1688 2584 1439 2293 
Q 1191 2003 1191 1497 
Q 1191 994 1439 701 
Q 1688 409 2113 409 
Q 2538 409 2786 701 
Q 3034 994 3034 1497 
Q 3034 2003 2786 2293 
Q 2538 2584 2113 2584 
z
M 3366 4563 
L 3366 3988 
Q 3128 4100 2886 4159 
Q 2644 4219 2406 4219 
Q 1781 4219 1451 3797 
Q 1122 3375 1075 2522 
Q 1259 2794 1537 2939 
Q 1816 3084 2150 3084 
Q 2853 3084 3261 2657 
Q 3669 2231 3669 1497 
Q 3669 778 3244 343 
Q 2819 -91 2113 -91 
Q 1303 -91 875 529 
Q 447 1150 447 2328 
Q 447 3434 972 4092 
Q 1497 4750 2381 4750 
Q 2619 4750 2861 4703 
Q 3103 4656 3366 4563 
z
" transform="scale(0.015625)"/>
       </defs>
       <use xlink:href="#DejaVuSans-31"/>
       <use xlink:href="#DejaVuSans-36" x="63.623047"/>
      </g>
     </g>
    </g>
    <g id="ytick_4">
     <g id="line2d_12">
      <g>
       <use xlink:href="#m1ebbd36be9" x="57.6" y="187.440153" style="stroke: #000000; stroke-width: 0.8"/>
      </g>
     </g>
     <g id="text_13">
      <!-- 18 -->
      <g transform="translate(35.33 191.999216) scale(0.12 -0.12)">
       <defs>
        <path id="DejaVuSans-38" d="M 2034 2216 
Q 1584 2216 1326 1975 
Q 1069 1734 1069 1313 
Q 1069 891 1326 650 
Q 1584 409 2034 409 
Q 2484 409 2743 651 
Q 3003 894 3003 1313 
Q 3003 1734 2745 1975 
Q 2488 2216 2034 2216 
z
M 1403 2484 
Q 997 2584 770 2862 
Q 544 3141 544 3541 
Q 544 4100 942 4425 
Q 1341 4750 2034 4750 
Q 2731 4750 3128 4425 
Q 3525 4100 3525 3541 
Q 3525 3141 3298 2862 
Q 3072 2584 2669 2484 
Q 3125 2378 3379 2068 
Q 3634 1759 3634 1313 
Q 3634 634 3220 271 
Q 2806 -91 2034 -91 
Q 1263 -91 848 271 
Q 434 634 434 1313 
Q 434 1759 690 2068 
Q 947 2378 1403 2484 
z
M 1172 3481 
Q 1172 3119 1398 2916 
Q 1625 2713 2034 2713 
Q 2441 2713 2670 2916 
Q 2900 3119 2900 3481 
Q 2900 3844 2670 4047 
Q 2441 4250 2034 4250 
Q 1625 4250 1398 4047 
Q 1172 3844 1172 3481 
z
" transform="scale(0.015625)"/>
       </defs>
       <use xlink:href="#DejaVuSans-31"/>
       <use xlink:href="#DejaVuSans-38" x="63.623047"/>
      </g>
     </g>
    </g>
    <g id="ytick_5">
     <g id="line2d_13">
      <g>
       <use xlink:href="#m1ebbd36be9" x="57.6" y="156.6788" style="stroke: #000000; stroke-width: 0.8"/>
      </g>
     </g>
     <g id="text_14">
      <!-- 20 -->
      <g transform="translate(35.33 161.237863) scale(0.12 -0.12)">
       <use xlink:href="#DejaVuSans-32"/>
       <use xlink:href="#DejaVuSans-30" x="63.623047"/>
      </g>
     </g>
    </g>
    <g id="ytick_6">
     <g id="line2d_14">
      <g>
       <use xlink:href="#m1ebbd36be9" x="57.6" y="125.917447" style="stroke: #000000; stroke-width: 0.8"/>
      </g>
     </g>
     <g id="text_15">
      <!-- 22 -->
      <g transform="translate(35.33 130.476509) scale(0.12 -0.12)">
       <use xlink:href="#DejaVuSans-32"/>
       <use xlink:href="#DejaVuSans-32" x="63.623047"/>
      </g>
     </g>
    </g>
    <g id="ytick_7">
     <g id="line2d_15">
      <g>
       <use xlink:href="#m1ebbd36be9" x="57.6" y="95.156094" style="stroke: #000000; stroke-width: 0.8"/>
      </g>
     </g>
     <g id="text_16">
      <!-- 24 -->
      <g transform="translate(35.33 99.715156) scale(0.12 -0.12)">
       <use xlink:href="#DejaVuSans-32"/>
       <use xlink:href="#DejaVuSans-34" x="63.623047"/>
      </g>
     </g>
    </g>
    <g id="ytick_8">
     <g id="line2d_16">
      <g>
       <use xlink:href="#m1ebbd36be9" x="57.6" y="64.394741" style="stroke: #000000; stroke-width: 0.8"/>
      </g>
     </g>
     <g id="text_17">
      <!-- 26 -->
      <g transform="translate(35.33 68.953803) scale(0.12 -0.12)">
       <use xlink:href="#DejaVuSans-32"/>
       <use xlink:href="#DejaVuSans-36" x="63.623047"/>
      </g>
     </g>
    </g>
    <g id="text_18">
     <!-- Total coral cover (%) -->
     <g transform="translate(28.210469 251.497922) rotate(-90) scale(0.15 -0.15)">
      <defs>
       <path id="DejaVuSans-54" d="M -19 4666 
L 3928 4666 
L 3928 4134 
L 2272 4134 
L 2272 0 
L 1638 0 
L 1638 4134 
L -19 4134 
L -19 4666 
z
" transform="scale(0.015625)"/>
       <path id="DejaVuSans-6f" d="M 1959 3097 
Q 1497 3097 1228 2736 
Q 959 2375 959 1747 
Q 959 1119 1226 758 
Q 1494 397 1959 397 
Q 2419 397 2687 759 
Q 2956 1122 2956 1747 
Q 2956 2369 2687 2733 
Q 2419 3097 1959 3097 
z
M 1959 3584 
Q 2709 3584 3137 3096 
Q 3566 2609 3566 1747 
Q 3566 888 3137 398 
Q 2709 -91 1959 -91 
Q 1206 -91 779 398 
Q 353 888 353 1747 
Q 353 2609 779 3096 
Q 1206 3584 1959 3584 
z
" transform="scale(0.015625)"/>
       <path id="DejaVuSans-74" d="M 1172 4494 
L 1172 3500 
L 2356 3500 
L 2356 3053 
L 1172 3053 
L 1172 1153 
Q 1172 725 1289 603 
Q 1406 481 1766 481 
L 2356 481 
L 2356 0 
L 1766 0 
Q 1100 0 847 248 
Q 594 497 594 1153 
L 594 3053 
L 172 3053 
L 172 3500 
L 594 3500 
L 594 4494 
L 1172 4494 
z
" transform="scale(0.015625)"/>
       <path id="DejaVuSans-6c" d="M 603 4863 
L 1178 4863 
L 1178 0 
L 603 0 
L 603 4863 
z
" transform="scale(0.015625)"/>
       <path id="DejaVuSans-20" transform="scale(0.015625)"/>
       <path id="DejaVuSans-63" d="M 3122 3366 
L 3122 2828 
Q 2878 2963 2633 3030 
Q 2388 3097 2138 3097 
Q 1578 3097 1268 2742 
Q 959 2388 959 1747 
Q 959 1106 1268 751 
Q 1578 397 2138 397 
Q 2388 397 2633 464 
Q 2878 531 3122 666 
L 3122 134 
Q 2881 22 2623 -34 
Q 2366 -91 2075 -91 
Q 1284 -91 818 406 
Q 353 903 353 1747 
Q 353 2603 823 3093 
Q 1294 3584 2113 3584 
Q 2378 3584 2631 3529 
Q 2884 3475 3122 3366 
z
" transform="scale(0.015625)"/>
       <path id="DejaVuSans-76" d="M 191 3500 
L 800 3500 
L 1894 563 
L 2988 3500 
L 3597 3500 
L 2284 0 
L 1503 0 
L 191 3500 
z
" transform="scale(0.015625)"/>
       <path id="DejaVuSans-28" d="M 1984 4856 
Q 1566 4138 1362 3434 
Q 1159 2731 1159 2009 
Q 1159 1288 1364 580 
Q 1569 -128 1984 -844 
L 1484 -844 
Q 1016 -109 783 600 
Q 550 1309 550 2009 
Q 550 2706 781 3412 
Q 1013 4119 1484 4856 
L 1984 4856 
z
" transform="scale(0.015625)"/>
       <path id="DejaVuSans-25" d="M 4653 2053 
Q 4381 2053 4226 1822 
Q 4072 1591 4072 1178 
Q 4072 772 4226 539 
Q 4381 306 4653 306 
Q 4919 306 5073 539 
Q 5228 772 5228 1178 
Q 5228 1588 5073 1820 
Q 4919 2053 4653 2053 
z
M 4653 2450 
Q 5147 2450 5437 2106 
Q 5728 1763 5728 1178 
Q 5728 594 5436 251 
Q 5144 -91 4653 -91 
Q 4153 -91 3862 251 
Q 3572 594 3572 1178 
Q 3572 1766 3864 2108 
Q 4156 2450 4653 2450 
z
M 1428 4353 
Q 1159 4353 1004 4120 
Q 850 3888 850 3481 
Q 850 3069 1003 2837 
Q 1156 2606 1428 2606 
Q 1700 2606 1854 2837 
Q 2009 3069 2009 3481 
Q 2009 3884 1853 4118 
Q 1697 4353 1428 4353 
z
M 4250 4750 
L 4750 4750 
L 1831 -91 
L 1331 -91 
L 4250 4750 
z
M 1428 4750 
Q 1922 4750 2215 4408 
Q 2509 4066 2509 3481 
Q 2509 2891 2217 2550 
Q 1925 2209 1428 2209 
Q 931 2209 642 2551 
Q 353 2894 353 3481 
Q 353 4063 643 4406 
Q 934 4750 1428 4750 
z
" transform="scale(0.015625)"/>
       <path id="DejaVuSans-29" d="M 513 4856 
L 1013 4856 
Q 1481 4119 1714 3412 
Q 1947 2706 1947 2009 
Q 1947 1309 1714 600 
Q 1481 -109 1013 -844 
L 513 -844 
Q 928 -128 1133 580 
Q 1338 1288 1338 2009 
Q 1338 2731 1133 3434 
Q 928 4138 513 4856 
z
" transform="scale(0.015625)"/>
      </defs>
      <use xlink:href="#DejaVuSans-54"/>
      <use xlink:href="#DejaVuSans-6f" x="44.083984"/>
      <use xlink:href="#DejaVuSans-74" x="105.265625"/>
      <use xlink:href="#DejaVuSans-61" x="144.474609"/>
      <use xlink:href="#DejaVuSans-6c" x="205.753906"/>
      <use xlink:href="#DejaVuSans-20" x="233.537109"/>
      <use xlink:href="#DejaVuSans-63" x="265.324219"/>
      <use xlink:href="#DejaVuSans-6f" x="320.304688"/>
      <use xlink:href="#DejaVuSans-72" x="381.486328"/>
      <use xlink:href="#DejaVuSans-61" x="422.599609"/>
      <use xlink:href="#DejaVuSans-6c" x="483.878906"/>
      <use xlink:href="#DejaVuSans-20" x="511.662109"/>
      <use xlink:href="#DejaVuSans-63" x="543.449219"/>
      <use xlink:href="#DejaVuSans-6f" x="598.429688"/>
      <use xlink:href="#DejaVuSans-76" x="659.611328"/>
      <use xlink:href="#DejaVuSans-65" x="718.791016"/>
      <use xlink:href="#DejaVuSans-72" x="780.314453"/>
      <use xlink:href="#DejaVuSans-20" x="821.427734"/>
      <use xlink:href="#DejaVuSans-28" x="853.214844"/>
      <use xlink:href="#DejaVuSans-25" x="892.228516"/>
      <use xlink:href="#DejaVuSans-29" x="987.248047"/>
     </g>
    </g>
   </g>
   <g id="line2d_17">
    <path d="M 73.832727 188.978221 
L 90.919809 280.072133 
L 108.00689 266.593205 
L 125.093971 250.405258 
L 142.181053 228.801852 
L 159.268134 205.794417 
L 176.355215 280.843106 
L 193.442297 250.079669 
L 210.529378 217.427285 
L 227.616459 182.691867 
L 244.703541 146.045192 
L 261.790622 109.415958 
L 278.877703 214.159042 
L 295.964785 202.732311 
L 313.051866 165.181468 
L 330.138947 191.895383 
L 347.226029 155.498478 
L 364.31311 141.162894 
L 381.400191 101.741168 
L 398.487273 192.722407 
" clip-path="url(#p2e2f1619ed)" style="fill: none; stroke-dasharray: 3.7,1.6; stroke-dashoffset: 0; stroke: #1f77b4"/>
   </g>
   <g id="line2d_18">
    <path d="M 73.832727 188.978221 
L 90.919809 278.138736 
L 108.00689 261.429617 
L 125.093971 240.748084 
L 142.181053 217.578303 
L 159.268134 191.950473 
L 176.355215 269.505841 
L 193.442297 237.06925 
L 210.529378 202.898701 
L 227.616459 165.511682 
L 244.703541 127.593548 
L 261.790622 90.375522 
L 278.877703 202.018838 
L 295.964785 190.114949 
L 313.051866 150.784578 
L 330.138947 180.017918 
L 347.226029 143.38183 
L 364.31311 129.688446 
L 381.400191 89.993865 
L 398.487273 185.036083 
" clip-path="url(#p2e2f1619ed)" style="fill: none; stroke-dasharray: 3.7,1.6; stroke-dashoffset: 0; stroke: #ff7f0e"/>
   </g>
   <g id="line2d_19">
    <path d="M 73.832727 188.978221 
L 90.919809 280.613617 
L 108.00689 266.528439 
L 125.093971 248.83664 
L 142.181053 227.319519 
L 159.268134 201.668715 
L 176.355215 276.535938 
L 193.442297 244.904405 
L 210.529378 208.850856 
L 227.616459 172.508602 
L 244.703541 135.154227 
L 261.790622 98.396559 
L 278.877703 205.252642 
L 295.964785 193.107607 
L 313.051866 154.990516 
L 330.138947 180.968913 
L 347.226029 144.186959 
L 364.31311 129.396715 
L 381.400191 90.120704 
L 398.487273 180.987033 
" clip-path="url(#p2e2f1619ed)" style="fill: none; stroke-dasharray: 3.7,1.6; stroke-dashoffset: 0; stroke: #2ca02c"/>
   </g>
   <g id="line2d_20">
    <path d="M 73.832727 188.978221 
L 90.919809 279.48399 
L 108.00689 265.624128 
L 125.093971 247.632226 
L 142.181053 226.507068 
L 159.268134 202.580959 
L 176.355215 279.18374 
L 193.442297 249.401234 
L 210.529378 216.032907 
L 227.616459 181.182319 
L 244.703541 143.625217 
L 261.790622 106.582219 
L 278.877703 210.461217 
L 295.964785 198.554911 
L 313.051866 159.659419 
L 330.138947 187.105681 
L 347.226029 149.983828 
L 364.31311 135.248095 
L 381.400191 95.414141 
L 398.487273 187.817794 
" clip-path="url(#p2e2f1619ed)" style="fill: none; stroke-dasharray: 3.7,1.6; stroke-dashoffset: 0; stroke: #d62728"/>
   </g>
   <g id="line2d_21">
    <path d="M 73.832727 188.978221 
L 90.919809 280.19701 
L 108.00689 266.77155 
L 125.093971 249.817926 
L 142.181053 229.115114 
L 159.268134 206.033699 
L 176.355215 279.883407 
L 193.442297 247.226182 
L 210.529378 212.098349 
L 227.616459 175.732477 
L 244.703541 138.090816 
L 261.790622 101.191462 
L 278.877703 210.361557 
L 295.964785 198.41569 
L 313.051866 160.512415 
L 330.138947 188.872223 
L 347.226029 153.138508 
L 364.31311 139.614998 
L 381.400191 102.546599 
L 398.487273 196.299584 
" clip-path="url(#p2e2f1619ed)" style="fill: none; stroke-dasharray: 3.7,1.6; stroke-dashoffset: 0; stroke: #9467bd"/>
   </g>
   <g id="line2d_22">
    <path d="M 73.832727 188.978221 
L 90.919809 280.679302 
L 108.00689 267.949876 
L 125.093971 252.228725 
L 142.181053 233.54751 
L 159.268134 212.253907 
L 176.355215 288.002852 
L 193.442297 261.631037 
L 210.529378 232.16291 
L 227.616459 201.678954 
L 244.703541 167.881791 
L 261.790622 134.832272 
L 278.877703 229.795487 
L 295.964785 221.182328 
L 313.051866 187.957469 
L 330.138947 212.333006 
L 347.226029 180.16771 
L 364.31311 166.683158 
L 381.400191 130.652729 
L 398.487273 211.226935 
" clip-path="url(#p2e2f1619ed)" style="fill: none; stroke-dasharray: 3.7,1.6; stroke-dashoffset: 0; stroke: #8c564b"/>
   </g>
   <g id="line2d_23">
    <path d="M 73.832727 188.978221 
L 90.919809 279.953901 
L 108.00689 265.600513 
L 125.093971 247.679648 
L 142.181053 225.154104 
L 159.268134 198.565637 
L 176.355215 271.929473 
L 193.442297 238.990619 
L 210.529378 202.462176 
L 227.616459 165.727866 
L 244.703541 128.323605 
L 261.790622 90.393532 
L 278.877703 199.382388 
L 295.964785 186.29874 
L 313.051866 145.964374 
L 330.138947 172.079425 
L 347.226029 133.351542 
L 364.31311 117.592938 
L 381.400191 76.748647 
L 398.487273 169.967094 
" clip-path="url(#p2e2f1619ed)" style="fill: none; stroke-dasharray: 3.7,1.6; stroke-dashoffset: 0; stroke: #e377c2"/>
   </g>
   <g id="line2d_24">
    <path d="M 73.832727 188.978221 
L 90.919809 281.241926 
L 108.00689 268.152506 
L 125.093971 252.015706 
L 142.181053 233.597516 
L 159.268134 212.850624 
L 176.355215 288.134315 
L 193.442297 260.81467 
L 210.529378 229.55305 
L 227.616459 195.076993 
L 244.703541 156.083188 
L 261.790622 118.400745 
L 278.877703 218.999027 
L 295.964785 205.854979 
L 313.051866 167.26058 
L 330.138947 191.108374 
L 347.226029 152.613785 
L 364.31311 136.956502 
L 381.400191 96.378121 
L 398.487273 187.644296 
" clip-path="url(#p2e2f1619ed)" style="fill: none; stroke-dasharray: 3.7,1.6; stroke-dashoffset: 0; stroke: #7f7f7f"/>
   </g>
   <g id="line2d_25">
    <path d="M 73.832727 188.978221 
L 90.919809 281.38915 
L 108.00689 270.277964 
L 125.093971 256.397765 
L 142.181053 239.909456 
L 159.268134 219.950813 
L 176.355215 294.148444 
L 193.442297 267.673994 
L 210.529378 238.250996 
L 227.616459 207.365895 
L 244.703541 174.057531 
L 261.790622 139.27798 
L 278.877703 232.515591 
L 295.964785 222.409199 
L 313.051866 188.2643 
L 330.138947 211.145547 
L 347.226029 176.940399 
L 364.31311 163.18888 
L 381.400191 126.476084 
L 398.487273 208.911661 
" clip-path="url(#p2e2f1619ed)" style="fill: none; stroke-dasharray: 3.7,1.6; stroke-dashoffset: 0; stroke: #bcbd22"/>
   </g>
   <g id="line2d_26">
    <path d="M 73.832727 188.978221 
L 90.919809 281.051365 
L 108.00689 269.334134 
L 125.093971 252.980821 
L 142.181053 234.310028 
L 159.268134 212.489308 
L 176.355215 288.157805 
L 193.442297 259.625458 
L 210.529378 228.118566 
L 227.616459 194.220073 
L 244.703541 157.072438 
L 261.790622 119.547088 
L 278.877703 219.47377 
L 295.964785 206.940212 
L 313.051866 169.115155 
L 330.138947 193.99956 
L 347.226029 157.965658 
L 364.31311 143.559104 
L 381.400191 105.478404 
L 398.487273 196.416306 
" clip-path="url(#p2e2f1619ed)" style="fill: none; stroke-dasharray: 3.7,1.6; stroke-dashoffset: 0; stroke: #17becf"/>
   </g>
   <g id="line2d_27">
    <path d="M 73.832727 188.978221 
L 90.919809 280.621469 
L 108.00689 267.102078 
L 125.093971 248.86805 
L 142.181053 226.821349 
L 159.268134 201.926956 
L 176.355215 275.691943 
L 193.442297 241.304653 
L 210.529378 204.442399 
L 227.616459 166.365232 
L 244.703541 128.01735 
L 261.790622 89.229901 
L 278.877703 200.910352 
L 295.964785 187.412663 
L 313.051866 147.854132 
L 330.138947 174.836373 
L 347.226029 137.00452 
L 364.31311 122.36437 
L 381.400191 82.63536 
L 398.487273 178.338503 
" clip-path="url(#p2e2f1619ed)" style="fill: none; stroke-dasharray: 3.7,1.6; stroke-dashoffset: 0; stroke: #1f77b4"/>
   </g>
   <g id="line2d_28">
    <path d="M 73.832727 188.978221 
L 90.919809 278.512913 
L 108.00689 261.23865 
L 125.093971 239.713484 
L 142.181053 214.732372 
L 159.268134 187.308119 
L 176.355215 263.918453 
L 193.442297 229.304487 
L 210.529378 192.114638 
L 227.616459 152.964933 
L 244.703541 114.712823 
L 261.790622 76.103603 
L 278.877703 192.489717 
L 295.964785 181.12867 
L 313.051866 142.048958 
L 330.138947 172.654884 
L 347.226029 134.633225 
L 364.31311 119.727315 
L 381.400191 79.785699 
L 398.487273 176.162148 
" clip-path="url(#p2e2f1619ed)" style="fill: none; stroke-dasharray: 3.7,1.6; stroke-dashoffset: 0; stroke: #ff7f0e"/>
   </g>
   <g id="line2d_29">
    <path d="M 73.832727 188.978221 
L 90.919809 277.9746 
L 108.00689 261.085668 
L 125.093971 240.931902 
L 142.181053 216.031965 
L 159.268134 188.155037 
L 176.355215 262.68925 
L 193.442297 227.868079 
L 210.529378 190.20945 
L 227.616459 153.452924 
L 244.703541 115.081925 
L 261.790622 75.745059 
L 278.877703 189.859609 
L 295.964785 176.618015 
L 313.051866 136.853823 
L 330.138947 165.510496 
L 347.226029 128.279471 
L 364.31311 113.677523 
L 381.400191 74.076561 
L 398.487273 170.098161 
" clip-path="url(#p2e2f1619ed)" style="fill: none; stroke-dasharray: 3.7,1.6; stroke-dashoffset: 0; stroke: #2ca02c"/>
   </g>
   <g id="line2d_30">
    <path d="M 73.832727 188.978221 
L 90.919809 279.828873 
L 108.00689 265.095405 
L 125.093971 247.623539 
L 142.181053 227.116017 
L 159.268134 201.711454 
L 176.355215 277.148928 
L 193.442297 245.583143 
L 210.529378 211.830439 
L 227.616459 176.8412 
L 244.703541 141.863676 
L 261.790622 105.037657 
L 278.877703 209.788213 
L 295.964785 199.417571 
L 313.051866 163.940555 
L 330.138947 191.662995 
L 347.226029 156.666006 
L 364.31311 143.176924 
L 381.400191 104.482563 
L 398.487273 192.201308 
" clip-path="url(#p2e2f1619ed)" style="fill: none; stroke-dasharray: 3.7,1.6; stroke-dashoffset: 0; stroke: #d62728"/>
   </g>
   <g id="line2d_31">
    <path d="M 73.832727 188.978221 
L 90.919809 279.490483 
L 108.00689 265.752319 
L 125.093971 247.999132 
L 142.181053 227.566351 
L 159.268134 203.814824 
L 176.355215 281.042574 
L 193.442297 250.740982 
L 210.529378 217.69694 
L 227.616459 181.666272 
L 244.703541 143.801484 
L 261.790622 103.7736 
L 278.877703 209.989042 
L 295.964785 196.568967 
L 313.051866 156.005686 
L 330.138947 184.437521 
L 347.226029 146.180152 
L 364.31311 131.367409 
L 381.400191 90.184275 
L 398.487273 185.855406 
" clip-path="url(#p2e2f1619ed)" style="fill: none; stroke-dasharray: 3.7,1.6; stroke-dashoffset: 0; stroke: #9467bd"/>
   </g>
   <g id="line2d_32">
    <path d="M 73.832727 188.978221 
L 90.919809 279.128689 
L 108.00689 264.690583 
L 125.093971 246.844628 
L 142.181053 226.837977 
L 159.268134 203.507187 
L 176.355215 278.647512 
L 193.442297 248.958425 
L 210.529378 216.385326 
L 227.616459 183.163527 
L 244.703541 147.438442 
L 261.790622 110.975708 
L 278.877703 213.636282 
L 295.964785 202.54628 
L 313.051866 166.358509 
L 330.138947 192.884278 
L 347.226029 157.066457 
L 364.31311 142.68829 
L 381.400191 103.300237 
L 398.487273 191.463676 
" clip-path="url(#p2e2f1619ed)" style="fill: none; stroke-dasharray: 3.7,1.6; stroke-dashoffset: 0; stroke: #8c564b"/>
   </g>
   <g id="line2d_33">
    <path d="M 73.832727 188.978221 
L 90.919809 278.995507 
L 108.00689 262.366091 
L 125.093971 242.909117 
L 142.181053 221.405061 
L 159.268134 196.744254 
L 176.355215 273.821552 
L 193.442297 243.097148 
L 210.529378 209.670588 
L 227.616459 173.785732 
L 244.703541 137.334214 
L 261.790622 101.519732 
L 278.877703 208.16361 
L 295.964785 198.63026 
L 313.051866 162.213121 
L 330.138947 190.488672 
L 347.226029 155.213089 
L 364.31311 141.331409 
L 381.400191 102.346072 
L 398.487273 192.185755 
" clip-path="url(#p2e2f1619ed)" style="fill: none; stroke-dasharray: 3.7,1.6; stroke-dashoffset: 0; stroke: #e377c2"/>
   </g>
   <g id="line2d_34">
    <path d="M 73.832727 188.978221 
L 90.919809 278.612573 
L 108.00689 261.65983 
L 125.093971 241.601666 
L 142.181053 219.394968 
L 159.268134 193.004168 
L 176.355215 271.452945 
L 193.442297 240.78152 
L 210.529378 205.618659 
L 227.616459 168.49341 
L 244.703541 132.286176 
L 261.790622 94.537817 
L 278.877703 201.568709 
L 295.964785 189.290945 
L 313.051866 149.075264 
L 330.138947 176.594308 
L 347.226029 139.323419 
L 364.31311 124.682211 
L 381.400191 82.08542 
L 398.487273 174.549474 
" clip-path="url(#p2e2f1619ed)" style="fill: none; stroke-dasharray: 3.7,1.6; stroke-dashoffset: 0; stroke: #7f7f7f"/>
   </g>
   <g id="line2d_35">
    <path d="M 73.832727 188.978221 
L 90.919809 279.752014 
L 108.00689 267.376637 
L 125.093971 251.237735 
L 142.181053 232.89218 
L 159.268134 211.611815 
L 176.355215 285.054736 
L 193.442297 255.518229 
L 210.529378 223.400921 
L 227.616459 187.690252 
L 244.703541 150.101068 
L 261.790622 112.596132 
L 278.877703 216.450912 
L 295.964785 204.75223 
L 313.051866 167.749516 
L 330.138947 192.737809 
L 347.226029 157.78008 
L 364.31311 144.398057 
L 381.400191 107.563556 
L 398.487273 195.700116 
" clip-path="url(#p2e2f1619ed)" style="fill: none; stroke-dasharray: 3.7,1.6; stroke-dashoffset: 0; stroke: #bcbd22"/>
   </g>
   <g id="line2d_36">
    <path d="M 73.832727 188.978221 
L 90.919809 280.542647 
L 108.00689 265.420936 
L 125.093971 245.83403 
L 142.181053 222.550317 
L 159.268134 194.898526 
L 176.355215 268.683254 
L 193.442297 234.178784 
L 210.529378 197.808824 
L 227.616459 158.040851 
L 244.703541 117.058381 
L 261.790622 76.814461 
L 278.877703 191.068359 
L 295.964785 175.893067 
L 313.051866 134.483434 
L 330.138947 161.435927 
L 347.226029 122.208991 
L 364.31311 106.544309 
L 381.400191 65.943429 
L 398.487273 164.197103 
" clip-path="url(#p2e2f1619ed)" style="fill: none; stroke-dasharray: 3.7,1.6; stroke-dashoffset: 0; stroke: #17becf"/>
   </g>
   <g id="line2d_37">
    <path d="M 73.832727 188.978221 
L 90.919809 276.270873 
L 108.00689 257.553218 
L 125.093971 234.92237 
L 142.181053 208.211914 
L 159.268134 178.805751 
L 176.355215 254.673045 
L 193.442297 217.571178 
L 210.529378 178.911776 
L 227.616459 138.65703 
L 244.703541 98.494162 
L 261.790622 57.94123 
L 278.877703 180.082093 
L 295.964785 166.604336 
L 313.051866 126.444676 
L 330.138947 158.182493 
L 347.226029 120.246904 
L 364.31311 106.424265 
L 381.400191 65.782917 
L 398.487273 166.667454 
" clip-path="url(#p2e2f1619ed)" style="fill: none; stroke-dasharray: 3.7,1.6; stroke-dashoffset: 0; stroke: #1f77b4"/>
   </g>
   <g id="line2d_38">
    <path d="M 73.832727 188.978221 
L 90.919809 281.149212 
L 108.00689 268.230221 
L 125.093971 251.607427 
L 142.181053 232.435598 
L 159.268134 209.52776 
L 176.355215 284.778498 
L 193.442297 256.763275 
L 210.529378 225.683954 
L 227.616459 193.075359 
L 244.703541 158.048969 
L 261.790622 124.244527 
L 278.877703 221.149863 
L 295.964785 212.308544 
L 313.051866 178.376252 
L 330.138947 203.969751 
L 347.226029 171.66327 
L 364.31311 159.21533 
L 381.400191 124.273456 
L 398.487273 205.193602 
" clip-path="url(#p2e2f1619ed)" style="fill: none; stroke-dasharray: 3.7,1.6; stroke-dashoffset: 0; stroke: #ff7f0e"/>
   </g>
   <g id="line2d_39">
    <path d="M 73.832727 188.978221 
L 90.919809 280.539174 
L 108.00689 267.037087 
L 125.093971 248.244767 
L 142.181053 226.60882 
L 159.268134 201.788921 
L 176.355215 276.097934 
L 193.442297 244.329861 
L 210.529378 209.131294 
L 227.616459 170.978421 
L 244.703541 131.482387 
L 261.790622 91.212629 
L 278.877703 199.565249 
L 295.964785 184.628988 
L 313.051866 144.37435 
L 330.138947 170.214582 
L 347.226029 131.302479 
L 364.31311 115.795441 
L 381.400191 76.495723 
L 398.487273 172.639029 
" clip-path="url(#p2e2f1619ed)" style="fill: none; stroke-dasharray: 3.7,1.6; stroke-dashoffset: 0; stroke: #2ca02c"/>
   </g>
   <g id="line2d_40">
    <path d="M 73.832727 188.978221 
L 90.919809 280.174209 
L 108.00689 266.974971 
L 125.093971 248.792709 
L 142.181053 225.360226 
L 159.268134 199.572426 
L 176.355215 272.910005 
L 193.442297 239.964086 
L 210.529378 205.707033 
L 227.616459 168.560697 
L 244.703541 128.585627 
L 261.790622 88.787947 
L 278.877703 197.600897 
L 295.964785 182.506993 
L 313.051866 140.39476 
L 330.138947 168.299758 
L 347.226029 129.044585 
L 364.31311 114.073292 
L 381.400191 74.070219 
L 398.487273 172.887574 
" clip-path="url(#p2e2f1619ed)" style="fill: none; stroke-dasharray: 3.7,1.6; stroke-dashoffset: 0; stroke: #d62728"/>
   </g>
   <g id="line2d_41">
    <path d="M 73.832727 188.978221 
L 90.919809 279.234841 
L 108.00689 265.240558 
L 125.093971 247.394927 
L 142.181053 228.671894 
L 159.268134 206.906665 
L 176.355215 283.244774 
L 193.442297 256.637358 
L 210.529378 226.772052 
L 227.616459 192.822875 
L 244.703541 156.750572 
L 261.790622 120.781724 
L 278.877703 218.549502 
L 295.964785 206.615714 
L 313.051866 168.903001 
L 330.138947 192.83611 
L 347.226029 156.682616 
L 364.31311 141.90717 
L 381.400191 103.145916 
L 398.487273 191.373227 
" clip-path="url(#p2e2f1619ed)" style="fill: none; stroke-dasharray: 3.7,1.6; stroke-dashoffset: 0; stroke: #9467bd"/>
   </g>
   <g id="line2d_42">
    <path d="M 73.832727 188.978221 
L 90.919809 279.804864 
L 108.00689 266.057448 
L 125.093971 250.493434 
L 142.181053 231.566244 
L 159.268134 209.812054 
L 176.355215 282.007162 
L 193.442297 251.232159 
L 210.529378 217.291676 
L 227.616459 181.312215 
L 244.703541 142.332891 
L 261.790622 104.244631 
L 278.877703 210.280773 
L 295.964785 196.994785 
L 313.051866 159.818723 
L 330.138947 185.444687 
L 347.226029 149.372129 
L 364.31311 135.71876 
L 381.400191 96.874456 
L 398.487273 187.574836 
" clip-path="url(#p2e2f1619ed)" style="fill: none; stroke-dasharray: 3.7,1.6; stroke-dashoffset: 0; stroke: #8c564b"/>
   </g>
   <g id="line2d_43">
    <path d="M 73.832727 188.978221 
L 90.919809 278.50944 
L 108.00689 265.004278 
L 125.093971 246.270949 
L 142.181053 225.971953 
L 159.268134 201.242206 
L 176.355215 274.054683 
L 193.442297 242.758721 
L 210.529378 209.667581 
L 227.616459 175.567655 
L 244.703541 140.146838 
L 261.790622 106.056852 
L 278.877703 211.743202 
L 295.964785 201.619445 
L 313.051866 165.559571 
L 330.138947 190.898032 
L 347.226029 156.557286 
L 364.31311 143.724448 
L 381.400191 106.288516 
L 398.487273 191.317508 
" clip-path="url(#p2e2f1619ed)" style="fill: none; stroke-dasharray: 3.7,1.6; stroke-dashoffset: 0; stroke: #e377c2"/>
   </g>
   <g id="line2d_44">
    <path d="M 73.832727 188.978221 
L 90.919809 279.742199 
L 108.00689 266.879407 
L 125.093971 250.838546 
L 142.181053 228.789824 
L 159.268134 203.228173 
L 176.355215 276.892978 
L 193.442297 246.159896 
L 210.529378 213.4414 
L 227.616459 178.511613 
L 244.703541 141.940952 
L 261.790622 106.33708 
L 278.877703 211.323122 
L 295.964785 200.389102 
L 313.051866 163.163814 
L 330.138947 188.429644 
L 347.226029 152.440287 
L 364.31311 137.441513 
L 381.400191 97.525264 
L 398.487273 186.035699 
" clip-path="url(#p2e2f1619ed)" style="fill: none; stroke-dasharray: 3.7,1.6; stroke-dashoffset: 0; stroke: #7f7f7f"/>
   </g>
   <g id="line2d_45">
    <path d="M 73.832727 188.978221 
L 90.919809 280.091612 
L 108.00689 266.853356 
L 125.093971 249.321173 
L 142.181053 230.224066 
L 159.268134 207.301042 
L 176.355215 280.184303 
L 193.442297 249.230875 
L 210.529378 213.742164 
L 227.616459 176.899331 
L 244.703541 137.528912 
L 261.790622 96.21482 
L 278.877703 204.040268 
L 295.964785 187.445128 
L 313.051866 143.493872 
L 330.138947 167.376094 
L 347.226029 126.720401 
L 364.31311 109.844704 
L 381.400191 69.42457 
L 398.487273 168.051515 
" clip-path="url(#p2e2f1619ed)" style="fill: none; stroke-dasharray: 3.7,1.6; stroke-dashoffset: 0; stroke: #bcbd22"/>
   </g>
   <g id="line2d_46">
    <path d="M 73.832727 188.978221 
L 90.919809 279.52627 
L 108.00689 265.788369 
L 125.093971 247.553589 
L 142.181053 226.763719 
L 159.268134 202.805767 
L 176.355215 280.182222 
L 193.442297 251.502802 
L 210.529378 221.226483 
L 227.616459 186.983683 
L 244.703541 153.859761 
L 261.790622 119.413767 
L 278.877703 219.808535 
L 295.964785 211.430633 
L 313.051866 177.306723 
L 330.138947 204.459442 
L 347.226029 172.454054 
L 364.31311 160.304338 
L 381.400191 124.231478 
L 398.487273 208.270517 
" clip-path="url(#p2e2f1619ed)" style="fill: none; stroke-dasharray: 3.7,1.6; stroke-dashoffset: 0; stroke: #17becf"/>
   </g>
   <g id="line2d_47">
    <path d="M 73.832727 188.978221 
L 90.919809 279.649939 
L 108.00689 265.772228 
L 125.093971 248.189153 
L 142.181053 227.321633 
L 159.268134 201.28564 
L 176.355215 276.206498 
L 193.442297 244.194084 
L 210.529378 209.622577 
L 227.616459 172.867683 
L 244.703541 136.855795 
L 261.790622 98.437735 
L 278.877703 206.205298 
L 295.964785 195.404308 
L 313.051866 158.980827 
L 330.138947 186.485828 
L 347.226029 152.640059 
L 364.31311 139.493142 
L 381.400191 101.545926 
L 398.487273 188.888229 
" clip-path="url(#p2e2f1619ed)" style="fill: none; stroke-dasharray: 3.7,1.6; stroke-dashoffset: 0; stroke: #1f77b4"/>
   </g>
   <g id="line2d_48">
    <path d="M 73.832727 188.978221 
L 90.919809 280.307239 
L 108.00689 266.974373 
L 125.093971 250.452016 
L 142.181053 231.35484 
L 159.268134 207.811791 
L 176.355215 283.205886 
L 193.442297 253.903053 
L 210.529378 222.33549 
L 227.616459 188.252533 
L 244.703541 151.795295 
L 261.790622 114.902797 
L 278.877703 215.839817 
L 295.964785 203.633173 
L 313.051866 164.403368 
L 330.138947 189.474107 
L 347.226029 150.35272 
L 364.31311 133.599181 
L 381.400191 92.076449 
L 398.487273 183.599021 
" clip-path="url(#p2e2f1619ed)" style="fill: none; stroke-dasharray: 3.7,1.6; stroke-dashoffset: 0; stroke: #ff7f0e"/>
   </g>
   <g id="line2d_49">
    <path d="M 73.832727 188.978221 
L 90.919809 278.134508 
L 108.00689 262.962115 
L 125.093971 243.397077 
L 142.181053 219.917234 
L 159.268134 192.861865 
L 176.355215 267.118557 
L 193.442297 233.222781 
L 210.529378 196.144086 
L 227.616459 158.871145 
L 244.703541 122.484476 
L 261.790622 85.859528 
L 278.877703 198.967442 
L 295.964785 188.859237 
L 313.051866 152.3441 
L 330.138947 182.417601 
L 347.226029 147.51544 
L 364.31311 134.641077 
L 381.400191 96.71183 
L 398.487273 188.365318 
" clip-path="url(#p2e2f1619ed)" style="fill: none; stroke-dasharray: 3.7,1.6; stroke-dashoffset: 0; stroke: #2ca02c"/>
   </g>
   <g id="line2d_50">
    <path d="M 73.832727 188.978221 
L 90.919809 279.940915 
L 108.00689 267.056614 
L 125.093971 250.823404 
L 142.181053 233.683157 
L 159.268134 210.970306 
L 176.355215 283.487168 
L 193.442297 253.208766 
L 210.529378 221.063339 
L 227.616459 186.484102 
L 244.703541 151.859141 
L 261.790622 116.116303 
L 278.877703 216.528224 
L 295.964785 205.903752 
L 313.051866 171.397511 
L 330.138947 194.175475 
L 347.226029 161.78383 
L 364.31311 149.264316 
L 381.400191 115.159733 
L 398.487273 196.817663 
" clip-path="url(#p2e2f1619ed)" style="fill: none; stroke-dasharray: 3.7,1.6; stroke-dashoffset: 0; stroke: #d62728"/>
   </g>
   <g id="line2d_51">
    <path d="M 73.832727 188.978221 
L 90.919809 279.05787 
L 108.00689 266.079704 
L 125.093971 249.174817 
L 142.181053 230.081811 
L 159.268134 208.072396 
L 176.355215 280.494909 
L 193.442297 252.339174 
L 210.529378 221.229742 
L 227.616459 188.032293 
L 244.703541 153.003679 
L 261.790622 116.789293 
L 278.877703 215.570434 
L 295.964785 202.23054 
L 313.051866 164.191818 
L 330.138947 185.705161 
L 347.226029 148.410716 
L 364.31311 131.601609 
L 381.400191 91.352558 
L 398.487273 178.934044 
" clip-path="url(#p2e2f1619ed)" style="fill: none; stroke-dasharray: 3.7,1.6; stroke-dashoffset: 0; stroke: #9467bd"/>
   </g>
   <g id="line2d_52">
    <path d="M 73.832727 188.978221 
L 90.919809 279.479309 
L 108.00689 266.044817 
L 125.093971 250.385316 
L 142.181053 232.161869 
L 159.268134 212.781738 
L 176.355215 288.01886 
L 193.442297 258.469544 
L 210.529378 227.879866 
L 227.616459 193.731559 
L 244.703541 158.915059 
L 261.790622 124.251607 
L 278.877703 223.6483 
L 295.964785 213.500232 
L 313.051866 178.495995 
L 330.138947 202.858546 
L 347.226029 169.335463 
L 364.31311 156.427578 
L 381.400191 119.45612 
L 398.487273 203.052581 
" clip-path="url(#p2e2f1619ed)" style="fill: none; stroke-dasharray: 3.7,1.6; stroke-dashoffset: 0; stroke: #8c564b"/>
   </g>
   <g id="line2d_53">
    <path d="M 73.832727 188.978221 
L 90.919809 281.829616 
L 108.00689 269.06707 
L 125.093971 253.540635 
L 142.181053 234.734808 
L 159.268134 213.176502 
L 176.355215 285.700995 
L 193.442297 256.9917 
L 210.529378 224.992024 
L 227.616459 189.664156 
L 244.703541 152.114473 
L 261.790622 111.688613 
L 278.877703 213.558065 
L 295.964785 198.931806 
L 313.051866 158.487814 
L 330.138947 181.517947 
L 347.226029 142.950425 
L 364.31311 126.683256 
L 381.400191 85.374641 
L 398.487273 177.160103 
" clip-path="url(#p2e2f1619ed)" style="fill: none; stroke-dasharray: 3.7,1.6; stroke-dashoffset: 0; stroke: #e377c2"/>
   </g>
   <g id="line2d_54">
    <path d="M 73.832727 188.978221 
L 90.919809 278.944016 
L 108.00689 264.718115 
L 125.093971 246.533931 
L 142.181053 225.714479 
L 159.268134 199.482755 
L 176.355215 274.534487 
L 193.442297 243.284668 
L 210.529378 208.206027 
L 227.616459 170.111024 
L 244.703541 129.081678 
L 261.790622 87.978229 
L 278.877703 198.531204 
L 295.964785 183.413292 
L 313.051866 141.778669 
L 330.138947 168.724972 
L 347.226029 129.233636 
L 364.31311 113.657742 
L 381.400191 72.698238 
L 398.487273 171.123296 
" clip-path="url(#p2e2f1619ed)" style="fill: none; stroke-dasharray: 3.7,1.6; stroke-dashoffset: 0; stroke: #7f7f7f"/>
   </g>
   <g id="line2d_55">
    <path d="M 73.832727 188.978221 
L 90.919809 280.722337 
L 108.00689 267.379202 
L 125.093971 248.766688 
L 142.181053 226.677618 
L 159.268134 200.394348 
L 176.355215 275.531801 
L 193.442297 240.88466 
L 210.529378 204.001435 
L 227.616459 165.340298 
L 244.703541 126.051123 
L 261.790622 88.476018 
L 278.877703 200.707106 
L 295.964785 189.183886 
L 313.051866 151.014248 
L 330.138947 180.165445 
L 347.226029 142.602069 
L 364.31311 127.959956 
L 381.400191 86.815478 
L 398.487273 179.994664 
" clip-path="url(#p2e2f1619ed)" style="fill: none; stroke-dasharray: 3.7,1.6; stroke-dashoffset: 0; stroke: #bcbd22"/>
   </g>
   <g id="line2d_56">
    <path d="M 73.832727 188.978221 
L 90.919809 280.244424 
L 108.00689 266.103175 
L 125.093971 247.615493 
L 142.181053 225.718632 
L 159.268134 200.171157 
L 176.355215 276.224426 
L 193.442297 245.588145 
L 210.529378 212.064892 
L 227.616459 176.757317 
L 244.703541 139.794141 
L 261.790622 103.999078 
L 278.877703 209.820073 
L 295.964785 199.49594 
L 313.051866 162.32773 
L 330.138947 190.853336 
L 347.226029 154.912752 
L 364.31311 141.314497 
L 381.400191 101.844754 
L 398.487273 191.613618 
" clip-path="url(#p2e2f1619ed)" style="fill: none; stroke-dasharray: 3.7,1.6; stroke-dashoffset: 0; stroke: #17becf"/>
   </g>
   <g id="line2d_57">
    <path d="M 73.832727 188.978221 
L 90.919809 279.197997 
L 108.00689 264.058575 
L 125.093971 247.725826 
L 142.181053 226.913499 
L 159.268134 203.040891 
L 176.355215 275.953884 
L 193.442297 244.539124 
L 210.529378 211.002067 
L 227.616459 175.928936 
L 244.703541 139.876211 
L 261.790622 102.114671 
L 278.877703 208.9553 
L 295.964785 196.306832 
L 313.051866 156.862758 
L 330.138947 181.826892 
L 347.226029 145.793141 
L 364.31311 131.339625 
L 381.400191 92.382223 
L 398.487273 182.436778 
" clip-path="url(#p2e2f1619ed)" style="fill: none; stroke-dasharray: 3.7,1.6; stroke-dashoffset: 0; stroke: #1f77b4"/>
   </g>
   <g id="line2d_58">
    <path d="M 73.832727 188.978221 
L 90.919809 281.099231 
L 108.00689 268.952355 
L 125.093971 253.593708 
L 142.181053 236.988061 
L 159.268134 218.581857 
L 176.355215 295.488 
L 193.442297 270.836832 
L 210.529378 242.567716 
L 227.616459 209.455127 
L 244.703541 176.014441 
L 261.790622 141.761332 
L 278.877703 233.297013 
L 295.964785 223.073747 
L 313.051866 187.549619 
L 330.138947 209.84831 
L 347.226029 174.810099 
L 364.31311 160.083274 
L 381.400191 122.490907 
L 398.487273 204.935242 
" clip-path="url(#p2e2f1619ed)" style="fill: none; stroke-dasharray: 3.7,1.6; stroke-dashoffset: 0; stroke: #ff7f0e"/>
   </g>
   <g id="line2d_59">
    <path d="M 73.832727 188.978221 
L 90.919809 280.084968 
L 108.00689 266.079491 
L 125.093971 248.254615 
L 142.181053 228.997367 
L 159.268134 208.237511 
L 176.355215 282.535858 
L 193.442297 252.705136 
L 210.529378 220.75554 
L 227.616459 186.105082 
L 244.703541 151.967748 
L 261.790622 117.989612 
L 278.877703 216.642832 
L 295.964785 207.242664 
L 313.051866 173.457597 
L 330.138947 197.677454 
L 347.226029 165.181166 
L 364.31311 152.815973 
L 381.400191 114.994087 
L 398.487273 195.600154 
" clip-path="url(#p2e2f1619ed)" style="fill: none; stroke-dasharray: 3.7,1.6; stroke-dashoffset: 0; stroke: #2ca02c"/>
   </g>
   <g id="line2d_60">
    <path d="M 73.832727 188.978221 
L 90.919809 278.635373 
L 108.00689 265.047025 
L 125.093971 248.436058 
L 142.181053 230.148832 
L 159.268134 209.039898 
L 176.355215 286.147558 
L 193.442297 259.873589 
L 210.529378 231.26741 
L 227.616459 200.266022 
L 244.703541 167.652831 
L 261.790622 133.572973 
L 278.877703 229.376917 
L 295.964785 219.758404 
L 313.051866 185.587835 
L 330.138947 209.909012 
L 347.226029 177.476749 
L 364.31311 164.779357 
L 381.400191 129.024049 
L 398.487273 211.538296 
" clip-path="url(#p2e2f1619ed)" style="fill: none; stroke-dasharray: 3.7,1.6; stroke-dashoffset: 0; stroke: #d62728"/>
   </g>
   <g id="line2d_61">
    <path d="M 73.832727 188.978221 
L 90.919809 280.489345 
L 108.00689 267.384893 
L 125.093971 250.983816 
L 142.181053 232.554352 
L 159.268134 212.071241 
L 176.355215 288.345631 
L 193.442297 261.986349 
L 210.529378 232.296855 
L 227.616459 199.755639 
L 244.703541 164.31352 
L 261.790622 130.053052 
L 278.877703 226.043151 
L 295.964785 216.210823 
L 313.051866 181.107681 
L 330.138947 206.118322 
L 347.226029 172.713924 
L 364.31311 160.061983 
L 381.400191 123.01412 
L 398.487273 206.495368 
" clip-path="url(#p2e2f1619ed)" style="fill: none; stroke-dasharray: 3.7,1.6; stroke-dashoffset: 0; stroke: #9467bd"/>
   </g>
   <g id="line2d_62">
    <path d="M 73.832727 188.978221 
L 90.919809 279.545447 
L 108.00689 266.289968 
L 125.093971 250.412242 
L 142.181053 232.4327 
L 159.268134 212.603891 
L 176.355215 290.456638 
L 193.442297 264.36126 
L 210.529378 236.68035 
L 227.616459 206.470275 
L 244.703541 175.223444 
L 261.790622 142.06277 
L 278.877703 233.921245 
L 295.964785 224.705145 
L 313.051866 192.017693 
L 330.138947 215.2556 
L 347.226029 181.700958 
L 364.31311 168.090322 
L 381.400191 130.777152 
L 398.487273 210.815311 
" clip-path="url(#p2e2f1619ed)" style="fill: none; stroke-dasharray: 3.7,1.6; stroke-dashoffset: 0; stroke: #8c564b"/>
   </g>
   <g id="line2d_63">
    <path d="M 73.832727 188.978221 
L 90.919809 279.955562 
L 108.00689 266.576873 
L 125.093971 249.597286 
L 142.181053 230.992732 
L 159.268134 209.047738 
L 176.355215 283.307689 
L 193.442297 253.774717 
L 210.529378 219.931982 
L 227.616459 182.674666 
L 244.703541 144.46935 
L 261.790622 103.048965 
L 278.877703 207.977729 
L 295.964785 192.104819 
L 313.051866 149.026944 
L 330.138947 174.334752 
L 347.226029 134.129642 
L 364.31311 117.218007 
L 381.400191 75.686215 
L 398.487273 173.940795 
" clip-path="url(#p2e2f1619ed)" style="fill: none; stroke-dasharray: 3.7,1.6; stroke-dashoffset: 0; stroke: #e377c2"/>
   </g>
   <g id="line2d_64">
    <path d="M 73.832727 188.978221 
L 90.919809 279.142279 
L 108.00689 265.576331 
L 125.093971 248.302728 
L 142.181053 227.411474 
L 159.268134 202.940185 
L 176.355215 278.049743 
L 193.442297 247.581099 
L 210.529378 212.921119 
L 227.616459 177.051188 
L 244.703541 138.462652 
L 261.790622 101.464669 
L 278.877703 208.571761 
L 295.964785 196.25519 
L 313.051866 157.483064 
L 330.138947 184.484935 
L 347.226029 145.858825 
L 364.31311 129.941823 
L 381.400191 89.004517 
L 398.487273 182.609975 
" clip-path="url(#p2e2f1619ed)" style="fill: none; stroke-dasharray: 3.7,1.6; stroke-dashoffset: 0; stroke: #7f7f7f"/>
   </g>
   <g id="line2d_65">
    <path d="M 73.832727 188.978221 
L 90.919809 281.459818 
L 108.00689 268.643922 
L 125.093971 253.449421 
L 142.181053 234.292384 
L 159.268134 211.615787 
L 176.355215 286.899511 
L 193.442297 256.625126 
L 210.529378 222.144241 
L 227.616459 185.795837 
L 244.703541 147.060989 
L 261.790622 107.625253 
L 278.877703 212.53308 
L 295.964785 199.207984 
L 313.051866 159.13983 
L 330.138947 183.417369 
L 347.226029 145.237312 
L 364.31311 129.181843 
L 381.400191 88.456842 
L 398.487273 180.162878 
" clip-path="url(#p2e2f1619ed)" style="fill: none; stroke-dasharray: 3.7,1.6; stroke-dashoffset: 0; stroke: #bcbd22"/>
   </g>
   <g id="line2d_66">
    <path d="M 73.832727 188.978221 
L 90.919809 280.132684 
L 108.00689 265.622817 
L 125.093971 247.204789 
L 142.181053 224.866823 
L 159.268134 198.39 
L 176.355215 274.053903 
L 193.442297 239.348088 
L 210.529378 202.195 
L 227.616459 162.597383 
L 244.703541 123.700425 
L 261.790622 84.592496 
L 278.877703 198.137398 
L 295.964785 184.94352 
L 313.051866 144.850149 
L 330.138947 174.807381 
L 347.226029 136.509846 
L 364.31311 122.314389 
L 381.400191 82.266922 
L 398.487273 182.293329 
" clip-path="url(#p2e2f1619ed)" style="fill: none; stroke-dasharray: 3.7,1.6; stroke-dashoffset: 0; stroke: #17becf"/>
   </g>
   <g id="line2d_67">
    <path d="M 73.832727 188.978221 
L 90.919809 279.796257 
L 108.00689 265.205519 
L 125.093971 247.908829 
L 142.181053 227.352409 
L 159.268134 204.894148 
L 176.355215 280.215594 
L 193.442297 251.280204 
L 210.529378 219.987252 
L 227.616459 186.566466 
L 244.703541 150.649377 
L 261.790622 114.146829 
L 278.877703 214.144999 
L 295.964785 202.691239 
L 313.051866 165.530881 
L 330.138947 191.151107 
L 347.226029 156.168312 
L 364.31311 142.301127 
L 381.400191 103.058487 
L 398.487273 189.649115 
" clip-path="url(#p2e2f1619ed)" style="fill: none; stroke-dasharray: 3.7,1.6; stroke-dashoffset: 0; stroke: #1f77b4"/>
   </g>
   <g id="line2d_68">
    <path d="M 73.832727 188.978221 
L 90.919809 280.566203 
L 108.00689 266.335967 
L 125.093971 248.975569 
L 142.181053 228.701026 
L 159.268134 204.824244 
L 176.355215 277.41963 
L 193.442297 244.606129 
L 210.529378 206.21186 
L 227.616459 166.575032 
L 244.703541 124.859361 
L 261.790622 82.520018 
L 278.877703 196.276632 
L 295.964785 178.819889 
L 313.051866 135.183316 
L 330.138947 161.669976 
L 347.226029 120.836859 
L 364.31311 104.501438 
L 381.400191 60.692424 
L 398.487273 162.510741 
" clip-path="url(#p2e2f1619ed)" style="fill: none; stroke-dasharray: 3.7,1.6; stroke-dashoffset: 0; stroke: #ff7f0e"/>
   </g>
   <g id="line2d_69">
    <path d="M 73.832727 188.978221 
L 90.919809 278.834089 
L 108.00689 263.105107 
L 125.093971 243.766214 
L 142.181053 221.698863 
L 159.268134 195.759499 
L 176.355215 272.272159 
L 193.442297 239.840179 
L 210.529378 204.123202 
L 227.616459 166.264586 
L 244.703541 127.652596 
L 261.790622 89.446775 
L 278.877703 198.762687 
L 295.964785 186.936109 
L 313.051866 147.462288 
L 330.138947 175.530064 
L 347.226029 138.843391 
L 364.31311 125.112559 
L 381.400191 85.364524 
L 398.487273 177.129601 
" clip-path="url(#p2e2f1619ed)" style="fill: none; stroke-dasharray: 3.7,1.6; stroke-dashoffset: 0; stroke: #2ca02c"/>
   </g>
   <g id="line2d_70">
    <path d="M 73.832727 188.978221 
L 90.919809 280.744987 
L 108.00689 267.00485 
L 125.093971 249.281296 
L 142.181053 229.938838 
L 159.268134 206.219576 
L 176.355215 282.443059 
L 193.442297 254.47678 
L 210.529378 223.397842 
L 227.616459 190.843489 
L 244.703541 153.298289 
L 261.790622 115.735799 
L 278.877703 215.777303 
L 295.964785 203.905274 
L 313.051866 165.936768 
L 330.138947 190.597392 
L 347.226029 153.861192 
L 364.31311 138.174464 
L 381.400191 99.179916 
L 398.487273 188.578378 
" clip-path="url(#p2e2f1619ed)" style="fill: none; stroke-dasharray: 3.7,1.6; stroke-dashoffset: 0; stroke: #d62728"/>
   </g>
   <g id="line2d_71">
    <path d="M 73.832727 188.978221 
L 90.919809 278.155799 
L 108.00689 260.103824 
L 125.093971 238.21764 
L 142.181053 212.286577 
L 159.268134 181.289624 
L 176.355215 254.511485 
L 193.442297 215.174942 
L 210.529378 173.68221 
L 227.616459 132.107329 
L 244.703541 92.579286 
L 261.790622 53.568 
L 278.877703 174.387149 
L 295.964785 160.438274 
L 313.051866 120.406964 
L 330.138947 151.469662 
L 347.226029 112.919506 
L 364.31311 98.382488 
L 381.400191 58.26994 
L 398.487273 158.123755 
" clip-path="url(#p2e2f1619ed)" style="fill: none; stroke-dasharray: 3.7,1.6; stroke-dashoffset: 0; stroke: #9467bd"/>
   </g>
   <g id="line2d_72">
    <path d="M 73.832727 188.978221 
L 90.919809 279.374818 
L 108.00689 264.55366 
L 125.093971 245.535613 
L 142.181053 223.414563 
L 159.268134 199.084825 
L 176.355215 274.474177 
L 193.442297 243.491313 
L 210.529378 208.74413 
L 227.616459 172.91846 
L 244.703541 135.32112 
L 261.790622 97.219944 
L 278.877703 204.540076 
L 295.964785 192.43883 
L 313.051866 153.698716 
L 330.138947 181.596466 
L 347.226029 144.626519 
L 364.31311 130.058999 
L 381.400191 91.322509 
L 398.487273 183.306686 
" clip-path="url(#p2e2f1619ed)" style="fill: none; stroke-dasharray: 3.7,1.6; stroke-dashoffset: 0; stroke: #8c564b"/>
   </g>
   <g id="line2d_73">
    <path d="M 73.832727 188.978221 
L 90.919809 279.948465 
L 108.00689 265.140574 
L 125.093971 245.716349 
L 142.181053 221.40001 
L 159.268134 194.989193 
L 176.355215 270.69234 
L 193.442297 238.042631 
L 210.529378 203.332726 
L 227.616459 167.382797 
L 244.703541 131.871351 
L 261.790622 96.32301 
L 278.877703 205.473253 
L 295.964785 196.51506 
L 313.051866 160.706751 
L 330.138947 191.615279 
L 347.226029 156.810664 
L 364.31311 144.311987 
L 381.400191 105.920682 
L 398.487273 196.074897 
" clip-path="url(#p2e2f1619ed)" style="fill: none; stroke-dasharray: 3.7,1.6; stroke-dashoffset: 0; stroke: #e377c2"/>
   </g>
   <g id="line2d_74">
    <path d="M 73.832727 188.978221 
L 90.919809 280.997609 
L 108.00689 267.857419 
L 125.093971 250.9111 
L 142.181053 231.07828 
L 159.268134 207.206348 
L 176.355215 282.963249 
L 193.442297 252.145259 
L 210.529378 219.173524 
L 227.616459 183.553027 
L 244.703541 144.307983 
L 261.790622 105.400405 
L 278.877703 210.518144 
L 295.964785 196.84439 
L 313.051866 156.890995 
L 330.138947 184.885989 
L 347.226029 147.3809 
L 364.31311 132.98265 
L 381.400191 93.253792 
L 398.487273 189.517746 
" clip-path="url(#p2e2f1619ed)" style="fill: none; stroke-dasharray: 3.7,1.6; stroke-dashoffset: 0; stroke: #7f7f7f"/>
   </g>
   <g id="line2d_75">
    <path d="M 73.832727 188.978221 
L 90.919809 280.8679 
L 108.00689 266.565458 
L 125.093971 249.594722 
L 142.181053 229.773661 
L 159.268134 206.606871 
L 176.355215 282.747757 
L 193.442297 253.556357 
L 210.529378 222.351899 
L 227.616459 190.020968 
L 244.703541 154.481753 
L 261.790622 117.462058 
L 278.877703 217.649545 
L 295.964785 207.550099 
L 313.051866 171.280034 
L 330.138947 198.22377 
L 347.226029 163.084539 
L 364.31311 149.668692 
L 381.400191 111.394562 
L 398.487273 197.905614 
" clip-path="url(#p2e2f1619ed)" style="fill: none; stroke-dasharray: 3.7,1.6; stroke-dashoffset: 0; stroke: #bcbd22"/>
   </g>
   <g id="line2d_76">
    <path d="M 73.832727 188.978221 
L 90.919809 280.625244 
L 108.00689 266.540809 
L 125.093971 249.695493 
L 142.181053 230.301676 
L 159.268134 209.345012 
L 176.355215 285.166135 
L 193.442297 256.69995 
L 210.529378 226.781852 
L 227.616459 195.06801 
L 244.703541 160.992796 
L 261.790622 122.972979 
L 278.877703 220.368592 
L 295.964785 208.422423 
L 313.051866 169.810658 
L 330.138947 193.240033 
L 347.226029 155.891832 
L 364.31311 140.079775 
L 381.400191 99.463342 
L 398.487273 188.102881 
" clip-path="url(#p2e2f1619ed)" style="fill: none; stroke-dasharray: 3.7,1.6; stroke-dashoffset: 0; stroke: #17becf"/>
   </g>
   <g id="line2d_77">
    <path d="M 73.832727 188.978221 
L 90.919809 280.927696 
L 108.00689 269.603049 
L 125.093971 254.458015 
L 142.181053 236.474776 
L 159.268134 212.518981 
L 176.355215 284.882158 
L 193.442297 254.720997 
L 210.529378 219.637991 
L 227.616459 183.015532 
L 244.703541 146.006657 
L 261.790622 108.516655 
L 278.877703 213.665878 
L 295.964785 201.167504 
L 313.051866 162.31716 
L 330.138947 186.760345 
L 347.226029 149.168884 
L 364.31311 133.460261 
L 381.400191 93.117741 
L 398.487273 184.673986 
" clip-path="url(#p2e2f1619ed)" style="fill: none; stroke-dasharray: 3.7,1.6; stroke-dashoffset: 0; stroke: #1f77b4"/>
   </g>
   <g id="line2d_78">
    <path d="M 73.832727 188.978221 
L 90.919809 279.496372 
L 108.00689 266.685036 
L 125.093971 251.302693 
L 142.181053 233.727657 
L 159.268134 213.32103 
L 176.355215 287.049958 
L 193.442297 258.042049 
L 210.529378 225.090746 
L 227.616459 190.626776 
L 244.703541 155.05654 
L 261.790622 118.791684 
L 278.877703 217.476047 
L 295.964785 205.302925 
L 313.051866 168.462233 
L 330.138947 192.031736 
L 347.226029 155.735095 
L 364.31311 140.930808 
L 381.400191 103.264602 
L 398.487273 190.144998 
" clip-path="url(#p2e2f1619ed)" style="fill: none; stroke-dasharray: 3.7,1.6; stroke-dashoffset: 0; stroke: #ff7f0e"/>
   </g>
   <g id="line2d_79">
    <path d="M 73.832727 188.978221 
L 90.919809 279.984402 
L 108.00689 266.657777 
L 125.093971 250.782186 
L 142.181053 230.615145 
L 159.268134 208.142738 
L 176.355215 282.046899 
L 193.442297 252.732927 
L 210.529378 221.144475 
L 227.616459 187.948755 
L 244.703541 154.228473 
L 261.790622 118.794638 
L 278.877703 218.248258 
L 295.964785 209.290669 
L 313.051866 174.39938 
L 330.138947 197.948196 
L 347.226029 163.52727 
L 364.31311 149.094894 
L 381.400191 110.726692 
L 398.487273 192.630599 
" clip-path="url(#p2e2f1619ed)" style="fill: none; stroke-dasharray: 3.7,1.6; stroke-dashoffset: 0; stroke: #2ca02c"/>
   </g>
   <g id="line2d_80">
    <path d="M 73.832727 188.978221 
L 90.919809 279.796408 
L 108.00689 266.896713 
L 125.093971 250.075149 
L 142.181053 229.974665 
L 159.268134 206.043867 
L 176.355215 279.55275 
L 193.442297 247.305617 
L 210.529378 210.664626 
L 227.616459 172.835081 
L 244.703541 134.209086 
L 261.790622 95.11659 
L 278.877703 206.586118 
L 295.964785 192.793377 
L 313.051866 152.547496 
L 330.138947 179.654614 
L 347.226029 141.222538 
L 364.31311 126.148114 
L 381.400191 86.144436 
L 398.487273 184.060324 
" clip-path="url(#p2e2f1619ed)" style="fill: none; stroke-dasharray: 3.7,1.6; stroke-dashoffset: 0; stroke: #d62728"/>
   </g>
   <g id="line2d_81">
    <path d="M 73.832727 188.978221 
L 90.919809 279.99014 
L 108.00689 265.709344 
L 125.093971 249.244719 
L 142.181053 230.476428 
L 159.268134 209.096959 
L 176.355215 285.439211 
L 193.442297 258.203619 
L 210.529378 227.920177 
L 227.616459 194.57387 
L 244.703541 158.531955 
L 261.790622 121.969478 
L 278.877703 220.412382 
L 295.964785 207.948888 
L 313.051866 170.536815 
L 330.138947 194.611561 
L 347.226029 159.835937 
L 364.31311 145.584912 
L 381.400191 108.237768 
L 398.487273 196.568212 
" clip-path="url(#p2e2f1619ed)" style="fill: none; stroke-dasharray: 3.7,1.6; stroke-dashoffset: 0; stroke: #9467bd"/>
   </g>
   <g id="line2d_82">
    <path d="M 73.832727 188.978221 
L 90.919809 279.709584 
L 108.00689 264.923094 
L 125.093971 247.152348 
L 142.181053 225.711336 
L 159.268134 201.75347 
L 176.355215 277.076208 
L 193.442297 245.596812 
L 210.529378 211.444024 
L 227.616459 174.863926 
L 244.703541 136.168924 
L 261.790622 98.389975 
L 278.877703 207.506913 
L 295.964785 195.202422 
L 313.051866 156.870459 
L 330.138947 184.718078 
L 347.226029 147.705397 
L 364.31311 134.043723 
L 381.400191 95.076657 
L 398.487273 189.27811 
" clip-path="url(#p2e2f1619ed)" style="fill: none; stroke-dasharray: 3.7,1.6; stroke-dashoffset: 0; stroke: #8c564b"/>
   </g>
   <g id="line2d_83">
    <path d="M 73.832727 188.978221 
L 90.919809 279.800032 
L 108.00689 266.014872 
L 125.093971 249.113662 
L 142.181053 230.575359 
L 159.268134 206.786236 
L 176.355215 281.092149 
L 193.442297 251.180228 
L 210.529378 216.80641 
L 227.616459 182.759784 
L 244.703541 145.771663 
L 261.790622 108.650997 
L 278.877703 211.622705 
L 295.964785 199.096848 
L 313.051866 162.509382 
L 330.138947 186.138379 
L 347.226029 150.890731 
L 364.31311 136.248617 
L 381.400191 97.616166 
L 398.487273 184.813509 
" clip-path="url(#p2e2f1619ed)" style="fill: none; stroke-dasharray: 3.7,1.6; stroke-dashoffset: 0; stroke: #e377c2"/>
   </g>
   <g id="line2d_84">
    <path d="M 73.832727 188.978221 
L 90.919809 279.241334 
L 108.00689 264.928133 
L 125.093971 245.535158 
L 142.181053 223.41738 
L 159.268134 198.699216 
L 176.355215 274.975222 
L 193.442297 243.119178 
L 210.529378 207.585347 
L 227.616459 169.459716 
L 244.703541 131.775689 
L 261.790622 93.646895 
L 278.877703 204.269636 
L 295.964785 192.48715 
L 313.051866 154.320985 
L 330.138947 184.193204 
L 347.226029 148.594784 
L 364.31311 135.876101 
L 381.400191 98.13802 
L 398.487273 192.465104 
" clip-path="url(#p2e2f1619ed)" style="fill: none; stroke-dasharray: 3.7,1.6; stroke-dashoffset: 0; stroke: #7f7f7f"/>
   </g>
   <g id="line2d_85">
    <path d="M 73.832727 188.978221 
L 90.919809 280.339402 
L 108.00689 266.197748 
L 125.093971 247.41517 
L 142.181053 224.531775 
L 159.268134 199.057747 
L 176.355215 275.953346 
L 193.442297 244.083792 
L 210.529378 209.442073 
L 227.616459 172.413821 
L 244.703541 135.919876 
L 261.790622 99.335795 
L 278.877703 207.466143 
L 295.964785 196.456623 
L 313.051866 159.072484 
L 330.138947 187.492843 
L 347.226029 150.412062 
L 364.31311 136.230799 
L 381.400191 96.886385 
L 398.487273 188.807143 
" clip-path="url(#p2e2f1619ed)" style="fill: none; stroke-dasharray: 3.7,1.6; stroke-dashoffset: 0; stroke: #bcbd22"/>
   </g>
   <g id="line2d_86">
    <path d="M 73.832727 188.978221 
L 90.919809 278.706796 
L 108.00689 265.116105 
L 125.093971 247.174123 
L 142.181053 225.832769 
L 159.268134 201.875646 
L 176.355215 277.275338 
L 193.442297 244.499315 
L 210.529378 210.038557 
L 227.616459 173.193571 
L 244.703541 134.416221 
L 261.790622 96.624639 
L 278.877703 204.07681 
L 295.964785 191.170435 
L 313.051866 153.61627 
L 330.138947 179.937587 
L 347.226029 142.79701 
L 364.31311 128.317673 
L 381.400191 88.462127 
L 398.487273 179.371188 
" clip-path="url(#p2e2f1619ed)" style="fill: none; stroke-dasharray: 3.7,1.6; stroke-dashoffset: 0; stroke: #17becf"/>
   </g>
   <g id="line2d_87">
    <path d="M 73.832727 188.978221 
L 90.919809 278.627522 
L 108.00689 263.733338 
L 125.093971 244.56281 
L 142.181053 220.975176 
L 159.268134 194.36308 
L 176.355215 270.672669 
L 193.442297 237.87346 
L 210.529378 201.418567 
L 227.616459 164.159767 
L 244.703541 126.749468 
L 261.790622 89.344047 
L 278.877703 198.490435 
L 295.964785 186.706438 
L 313.051866 147.690599 
L 330.138947 175.471174 
L 347.226029 138.487486 
L 364.31311 124.062509 
L 381.400191 84.220401 
L 398.487273 176.825488 
" clip-path="url(#p2e2f1619ed)" style="fill: none; stroke-dasharray: 3.7,1.6; stroke-dashoffset: 0; stroke: #1f77b4"/>
   </g>
   <g id="line2d_88">
    <path d="M 73.832727 188.978221 
L 90.919809 279.776325 
L 108.00689 266.63022 
L 125.093971 250.007571 
L 142.181053 231.725284 
L 159.268134 208.243387 
L 176.355215 283.789009 
L 193.442297 254.893437 
L 210.529378 221.781495 
L 227.616459 187.379575 
L 244.703541 151.347959 
L 261.790622 114.163556 
L 278.877703 216.784017 
L 295.964785 204.668275 
L 313.051866 166.56115 
L 330.138947 191.946723 
L 347.226029 155.531698 
L 364.31311 140.636057 
L 381.400191 101.259027 
L 398.487273 191.214678 
" clip-path="url(#p2e2f1619ed)" style="fill: none; stroke-dasharray: 3.7,1.6; stroke-dashoffset: 0; stroke: #ff7f0e"/>
   </g>
   <g id="line2d_89">
    <path d="M 73.832727 188.978221 
L 90.919809 278.980709 
L 108.00689 262.983242 
L 125.093971 245.255483 
L 142.181053 224.373904 
L 159.268134 200.704827 
L 176.355215 276.447325 
L 193.442297 245.29195 
L 210.529378 211.870091 
L 227.616459 177.281579 
L 244.703541 139.460584 
L 261.790622 103.297144 
L 278.877703 210.350081 
L 295.964785 198.191758 
L 313.051866 161.40618 
L 330.138947 187.54977 
L 347.226029 151.937157 
L 364.31311 137.904779 
L 381.400191 99.536576 
L 398.487273 190.284974 
" clip-path="url(#p2e2f1619ed)" style="fill: none; stroke-dasharray: 3.7,1.6; stroke-dashoffset: 0; stroke: #2ca02c"/>
   </g>
   <g id="line2d_90">
    <path d="M 73.832727 188.978221 
L 90.919809 279.845332 
L 108.00689 264.794596 
L 125.093971 244.975978 
L 142.181053 222.245386 
L 159.268134 196.363205 
L 176.355215 271.726843 
L 193.442297 236.814553 
L 210.529378 199.930652 
L 227.616459 160.251017 
L 244.703541 119.55716 
L 261.790622 80.950775 
L 278.877703 196.145111 
L 295.964785 182.527378 
L 313.051866 140.839302 
L 330.138947 167.78183 
L 347.226029 129.072822 
L 364.31311 113.499948 
L 381.400191 72.43565 
L 398.487273 169.688349 
" clip-path="url(#p2e2f1619ed)" style="fill: none; stroke-dasharray: 3.7,1.6; stroke-dashoffset: 0; stroke: #d62728"/>
   </g>
   <g id="line2d_91">
    <path d="M 73.832727 188.978221 
L 90.919809 279.532612 
L 108.00689 264.274442 
L 125.093971 244.28911 
L 142.181053 222.434876 
L 159.268134 198.330442 
L 176.355215 271.290547 
L 193.442297 238.422309 
L 210.529378 203.999289 
L 227.616459 166.842486 
L 244.703541 130.118405 
L 261.790622 93.547654 
L 278.877703 201.747945 
L 295.964785 190.648581 
L 313.051866 153.564931 
L 330.138947 180.791488 
L 347.226029 146.661991 
L 364.31311 133.808919 
L 381.400191 97.081175 
L 398.487273 185.138913 
" clip-path="url(#p2e2f1619ed)" style="fill: none; stroke-dasharray: 3.7,1.6; stroke-dashoffset: 0; stroke: #9467bd"/>
   </g>
   <g id="line2d_92">
    <path d="M 73.832727 188.978221 
L 90.919809 280.386514 
L 108.00689 268.080055 
L 125.093971 253.178282 
L 142.181053 233.87661 
L 159.268134 211.249135 
L 176.355215 285.469986 
L 193.442297 256.746418 
L 210.529378 224.327046 
L 227.616459 188.162161 
L 244.703541 150.4659 
L 261.790622 112.485319 
L 278.877703 215.345294 
L 295.964785 202.349074 
L 313.051866 163.840442 
L 330.138947 188.471018 
L 347.226029 152.800722 
L 364.31311 138.427237 
L 381.400191 100.462354 
L 398.487273 190.93397 
" clip-path="url(#p2e2f1619ed)" style="fill: none; stroke-dasharray: 3.7,1.6; stroke-dashoffset: 0; stroke: #8c564b"/>
   </g>
   <g id="line2d_93">
    <path d="M 73.832727 188.978221 
L 90.919809 279.19845 
L 108.00689 263.913162 
L 125.093971 244.308291 
L 142.181053 221.283028 
L 159.268134 194.782377 
L 176.355215 272.077683 
L 193.442297 238.524989 
L 210.529378 202.171013 
L 227.616459 165.021842 
L 244.703541 126.301008 
L 261.790622 85.536414 
L 278.877703 195.835411 
L 295.964785 181.597674 
L 313.051866 138.81908 
L 330.138947 166.747786 
L 347.226029 124.942836 
L 364.31311 107.939997 
L 381.400191 65.735654 
L 398.487273 165.488752 
" clip-path="url(#p2e2f1619ed)" style="fill: none; stroke-dasharray: 3.7,1.6; stroke-dashoffset: 0; stroke: #e377c2"/>
   </g>
   <g id="line2d_94">
    <path d="M 73.832727 188.978221 
L 90.919809 280.033628 
L 108.00689 267.188185 
L 125.093971 251.38966 
L 142.181053 232.935894 
L 159.268134 211.072697 
L 176.355215 286.666535 
L 193.442297 257.726608 
L 210.529378 227.316851 
L 227.616459 195.286884 
L 244.703541 162.296986 
L 261.790622 127.123804 
L 278.877703 224.076081 
L 295.964785 214.428123 
L 313.051866 180.780465 
L 330.138947 205.896051 
L 347.226029 174.331279 
L 364.31311 162.314593 
L 381.400191 126.676159 
L 398.487273 209.508109 
" clip-path="url(#p2e2f1619ed)" style="fill: none; stroke-dasharray: 3.7,1.6; stroke-dashoffset: 0; stroke: #7f7f7f"/>
   </g>
   <g id="line2d_95">
    <path d="M 73.832727 188.978221 
L 90.919809 281.168993 
L 108.00689 268.497016 
L 125.093971 253.139245 
L 142.181053 235.297065 
L 159.268134 214.362896 
L 176.355215 291.257984 
L 193.442297 263.708351 
L 210.529378 232.542813 
L 227.616459 199.014028 
L 244.703541 162.291829 
L 261.790622 125.643304 
L 278.877703 224.79348 
L 295.964785 213.072299 
L 313.051866 174.948867 
L 330.138947 200.540705 
L 347.226029 163.549013 
L 364.31311 148.958995 
L 381.400191 109.416621 
L 398.487273 199.300698 
" clip-path="url(#p2e2f1619ed)" style="fill: none; stroke-dasharray: 3.7,1.6; stroke-dashoffset: 0; stroke: #bcbd22"/>
   </g>
   <g id="line2d_96">
    <path d="M 73.832727 188.978221 
L 90.919809 279.925815 
L 108.00689 264.008103 
L 125.093971 243.510526 
L 142.181053 219.03225 
L 159.268134 190.930573 
L 176.355215 267.589778 
L 193.442297 232.251843 
L 210.529378 195.580738 
L 227.616459 158.037671 
L 244.703541 120.528392 
L 261.790622 83.487789 
L 278.877703 195.051422 
L 295.964785 183.680259 
L 313.051866 145.657241 
L 330.138947 176.360561 
L 347.226029 140.525072 
L 364.31311 127.481288 
L 381.400191 86.354929 
L 398.487273 180.068352 
" clip-path="url(#p2e2f1619ed)" style="fill: none; stroke-dasharray: 3.7,1.6; stroke-dashoffset: 0; stroke: #17becf"/>
   </g>
   <g id="line2d_97">
    <path d="M 73.832727 188.978221 
L 90.919809 280.68202 
L 108.00689 268.728879 
L 125.093971 251.61586 
L 142.181053 233.834871 
L 159.268134 213.039059 
L 176.355215 288.350544 
L 193.442297 261.164583 
L 210.529378 230.815148 
L 227.616459 198.156546 
L 244.703541 162.211699 
L 261.790622 126.084291 
L 278.877703 224.031084 
L 295.964785 211.806018 
L 313.051866 173.604972 
L 330.138947 195.676862 
L 347.226029 158.972976 
L 364.31311 142.936986 
L 381.400191 102.711944 
L 398.487273 190.436427 
" clip-path="url(#p2e2f1619ed)" style="fill: none; stroke-dasharray: 3.7,1.6; stroke-dashoffset: 0; stroke: #1f77b4"/>
   </g>
   <g id="line2d_98">
    <path d="M 73.832727 188.978221 
L 90.919809 278.378372 
L 108.00689 262.265441 
L 125.093971 241.790406 
L 142.181053 216.052096 
L 159.268134 188.526744 
L 176.355215 264.555465 
L 193.442297 228.715616 
L 210.529378 191.540277 
L 227.616459 152.815302 
L 244.703541 112.693073 
L 261.790622 73.95977 
L 278.877703 190.446845 
L 295.964785 177.099099 
L 313.051866 136.056244 
L 330.138947 167.989605 
L 347.226029 128.980863 
L 364.31311 114.324404 
L 381.400191 73.088119 
L 398.487273 174.224674 
" clip-path="url(#p2e2f1619ed)" style="fill: none; stroke-dasharray: 3.7,1.6; stroke-dashoffset: 0; stroke: #ff7f0e"/>
   </g>
   <g id="line2d_99">
    <path d="M 73.832727 188.978221 
L 90.919809 279.952089 
L 108.00689 265.866274 
L 125.093971 250.110851 
L 142.181053 229.124446 
L 159.268134 207.290465 
L 176.355215 283.494328 
L 193.442297 256.378465 
L 210.529378 227.168457 
L 227.616459 196.501498 
L 244.703541 162.911353 
L 261.790622 128.005908 
L 278.877703 225.908007 
L 295.964785 216.819803 
L 313.051866 183.50374 
L 330.138947 208.331219 
L 347.226029 176.580718 
L 364.31311 164.572639 
L 381.400191 129.407134 
L 398.487273 210.686055 
" clip-path="url(#p2e2f1619ed)" style="fill: none; stroke-dasharray: 3.7,1.6; stroke-dashoffset: 0; stroke: #2ca02c"/>
   </g>
   <g id="line2d_100">
    <path d="M 73.832727 188.978221 
L 90.919809 279.779798 
L 108.00689 266.209834 
L 125.093971 248.724916 
L 142.181053 228.702514 
L 159.268134 205.812621 
L 176.355215 281.840582 
L 193.442297 252.291612 
L 210.529378 221.223782 
L 227.616459 188.069389 
L 244.703541 153.470339 
L 261.790622 115.699019 
L 278.877703 215.627361 
L 295.964785 204.878164 
L 313.051866 167.050841 
L 330.138947 192.366954 
L 347.226029 156.160762 
L 364.31311 140.783885 
L 381.400191 100.666656 
L 398.487273 187.845276 
" clip-path="url(#p2e2f1619ed)" style="fill: none; stroke-dasharray: 3.7,1.6; stroke-dashoffset: 0; stroke: #d62728"/>
   </g>
   <g id="line2d_101">
    <path d="M 73.832727 188.978221 
L 90.919809 278.522426 
L 108.00689 263.517372 
L 125.093971 244.450883 
L 142.181053 222.380721 
L 159.268134 194.412657 
L 176.355215 269.72069 
L 193.442297 236.912435 
L 210.529378 202.062074 
L 227.616459 163.332378 
L 244.703541 123.387026 
L 261.790622 82.560874 
L 278.877703 193.621609 
L 295.964785 178.367645 
L 313.051866 136.037218 
L 330.138947 164.562673 
L 347.226029 123.387995 
L 364.31311 106.488289 
L 381.400191 62.837824 
L 398.487273 163.027914 
" clip-path="url(#p2e2f1619ed)" style="fill: none; stroke-dasharray: 3.7,1.6; stroke-dashoffset: 0; stroke: #9467bd"/>
   </g>
   <g id="line2d_102">
    <path d="M 73.832727 188.978221 
L 90.919809 280.332909 
L 108.00689 267.963693 
L 125.093971 252.787114 
L 142.181053 235.733835 
L 159.268134 216.921337 
L 176.355215 295.395347 
L 193.442297 272.312211 
L 210.529378 246.467269 
L 227.616459 217.536202 
L 244.703541 186.768249 
L 261.790622 154.323766 
L 278.877703 242.83897 
L 295.964785 234.958007 
L 313.051866 202.699242 
L 330.138947 226.285052 
L 347.226029 195.388453 
L 364.31311 182.900045 
L 381.400191 147.0712 
L 398.487273 225.06543 
" clip-path="url(#p2e2f1619ed)" style="fill: none; stroke-dasharray: 3.7,1.6; stroke-dashoffset: 0; stroke: #8c564b"/>
   </g>
   <g id="line2d_103">
    <path d="M 73.832727 188.978221 
L 90.919809 280.220566 
L 108.00689 266.142763 
L 125.093971 249.943734 
L 142.181053 232.35086 
L 159.268134 212.03247 
L 176.355215 285.937688 
L 193.442297 259.591366 
L 210.529378 230.018965 
L 227.616459 198.448743 
L 244.703541 163.566288 
L 261.790622 129.107982 
L 278.877703 224.366302 
L 295.964785 214.085355 
L 313.051866 179.825696 
L 330.138947 202.329293 
L 347.226029 168.583033 
L 364.31311 155.17383 
L 381.400191 118.757295 
L 398.487273 199.78148 
" clip-path="url(#p2e2f1619ed)" style="fill: none; stroke-dasharray: 3.7,1.6; stroke-dashoffset: 0; stroke: #e377c2"/>
   </g>
   <g id="line2d_104">
    <path d="M 73.832727 188.978221 
L 90.919809 279.145903 
L 108.00689 264.90151 
L 125.093971 246.306474 
L 142.181053 226.224445 
L 159.268134 202.621833 
L 176.355215 277.692451 
L 193.442297 246.781194 
L 210.529378 213.447226 
L 227.616459 176.438615 
L 244.703541 138.500916 
L 261.790622 101.585456 
L 278.877703 207.366484 
L 295.964785 194.85316 
L 313.051866 156.900961 
L 330.138947 181.903146 
L 347.226029 145.788611 
L 364.31311 131.23755 
L 381.400191 91.630397 
L 398.487273 180.872424 
" clip-path="url(#p2e2f1619ed)" style="fill: none; stroke-dasharray: 3.7,1.6; stroke-dashoffset: 0; stroke: #7f7f7f"/>
   </g>
   <g id="line2d_105">
    <path d="M 73.832727 188.978221 
L 90.919809 280.561522 
L 108.00689 266.946463 
L 125.093971 250.994253 
L 142.181053 231.192422 
L 159.268134 209.530316 
L 176.355215 285.279047 
L 193.442297 257.15214 
L 210.529378 227.127168 
L 227.616459 194.989899 
L 244.703541 161.734917 
L 261.790622 127.852101 
L 278.877703 226.312987 
L 295.964785 217.448263 
L 313.051866 183.002724 
L 330.138947 209.233894 
L 347.226029 176.655916 
L 364.31311 163.842103 
L 381.400191 126.33641 
L 398.487273 211.270272 
" clip-path="url(#p2e2f1619ed)" style="fill: none; stroke-dasharray: 3.7,1.6; stroke-dashoffset: 0; stroke: #bcbd22"/>
   </g>
   <g id="line2d_106">
    <path d="M 73.832727 188.978221 
L 90.919809 280.613164 
L 108.00689 267.311825 
L 125.093971 249.658725 
L 142.181053 228.654683 
L 159.268134 204.51562 
L 176.355215 278.025678 
L 193.442297 249.33722 
L 210.529378 218.452998 
L 227.616459 185.773607 
L 244.703541 151.531377 
L 261.790622 116.414473 
L 278.877703 215.880134 
L 295.964785 206.388309 
L 313.051866 172.385652 
L 330.138947 197.023475 
L 347.226029 164.9219 
L 364.31311 152.783811 
L 381.400191 118.121889 
L 398.487273 199.649959 
" clip-path="url(#p2e2f1619ed)" style="fill: none; stroke-dasharray: 3.7,1.6; stroke-dashoffset: 0; stroke: #17becf"/>
   </g>
   <g id="line2d_107">
    <path d="M 73.832727 188.978221 
L 90.919809 279.472212 
L 108.00689 264.268618 
L 125.093971 246.697941 
L 142.181053 225.408776 
L 159.268134 202.702409 
L 176.355215 278.855107 
L 193.442297 248.439146 
L 210.529378 216.838691 
L 227.616459 182.026319 
L 244.703541 146.829927 
L 261.790622 111.436099 
L 278.877703 213.624051 
L 295.964785 202.173009 
L 313.051866 165.766289 
L 330.138947 190.875835 
L 347.226029 155.042007 
L 364.31311 141.216197 
L 381.400191 104.286113 
L 398.487273 191.664354 
" clip-path="url(#p2e2f1619ed)" style="fill: none; stroke-dasharray: 3.7,1.6; stroke-dashoffset: 0; stroke: #1f77b4"/>
   </g>
   <g id="line2d_108">
    <path d="M 73.832727 188.978221 
L 90.919809 281.162651 
L 108.00689 268.285473 
L 125.093971 251.730552 
L 142.181053 231.659477 
L 159.268134 206.943422 
L 176.355215 281.640239 
L 193.442297 251.099563 
L 210.529378 217.421728 
L 227.616459 182.488783 
L 244.703541 147.176528 
L 261.790622 110.713497 
L 278.877703 213.656214 
L 295.964785 202.721439 
L 313.051866 165.481202 
L 330.138947 191.668884 
L 347.226029 155.160089 
L 364.31311 140.549987 
L 381.400191 101.024374 
L 398.487273 190.032352 
" clip-path="url(#p2e2f1619ed)" style="fill: none; stroke-dasharray: 3.7,1.6; stroke-dashoffset: 0; stroke: #ff7f0e"/>
   </g>
   <g id="line2d_109">
    <path d="M 73.832727 188.978221 
L 90.919809 279.339031 
L 108.00689 266.185248 
L 125.093971 248.662871 
L 142.181053 228.449049 
L 159.268134 204.437603 
L 176.355215 278.76102 
L 193.442297 247.249728 
L 210.529378 212.275282 
L 227.616459 174.789676 
L 244.703541 135.300189 
L 261.790622 95.503721 
L 278.877703 204.414445 
L 295.964785 190.874023 
L 313.051866 151.378912 
L 330.138947 178.43937 
L 347.226029 142.628796 
L 364.31311 128.553082 
L 381.400191 90.092166 
L 398.487273 182.628397 
" clip-path="url(#p2e2f1619ed)" style="fill: none; stroke-dasharray: 3.7,1.6; stroke-dashoffset: 0; stroke: #2ca02c"/>
   </g>
   <g id="line2d_110">
    <path d="M 73.832727 188.978221 
L 90.919809 280.259372 
L 108.00689 267.341958 
L 125.093971 251.547256 
L 142.181053 232.876789 
L 159.268134 211.241577 
L 176.355215 287.60711 
L 193.442297 259.23528 
L 210.529378 229.165679 
L 227.616459 196.893149 
L 244.703541 163.473806 
L 261.790622 127.19951 
L 278.877703 224.17106 
L 295.964785 214.175048 
L 313.051866 177.941827 
L 330.138947 202.311324 
L 347.226029 168.278316 
L 364.31311 154.110794 
L 381.400191 115.758295 
L 398.487273 199.110589 
" clip-path="url(#p2e2f1619ed)" style="fill: none; stroke-dasharray: 3.7,1.6; stroke-dashoffset: 0; stroke: #d62728"/>
   </g>
   <g id="line2d_111">
    <path d="M 73.832727 188.978221 
L 90.919809 280.18342 
L 108.00689 266.424115 
L 125.093971 249.310129 
L 142.181053 228.973559 
L 159.268134 206.404597 
L 176.355215 281.705081 
L 193.442297 251.190837 
L 210.529378 216.136474 
L 227.616459 177.844556 
L 244.703541 137.994608 
L 261.790622 95.843001 
L 278.877703 202.611209 
L 295.964785 186.054574 
L 313.051866 141.788333 
L 330.138947 165.77399 
L 347.226029 122.458744 
L 364.31311 103.964484 
L 381.400191 60.142333 
L 398.487273 161.147065 
" clip-path="url(#p2e2f1619ed)" style="fill: none; stroke-dasharray: 3.7,1.6; stroke-dashoffset: 0; stroke: #9467bd"/>
   </g>
   <g id="line2d_112">
    <path d="M 73.832727 188.978221 
L 90.919809 281.123844 
L 108.00689 267.00504 
L 125.093971 249.091133 
L 142.181053 229.058193 
L 159.268134 204.720142 
L 176.355215 276.673083 
L 193.442297 244.383433 
L 210.529378 209.382463 
L 227.616459 172.790169 
L 244.703541 135.700958 
L 261.790622 98.277959 
L 278.877703 206.155015 
L 295.964785 195.133264 
L 313.051866 159.046965 
L 330.138947 187.027916 
L 347.226029 152.390759 
L 364.31311 139.024289 
L 381.400191 99.943671 
L 398.487273 188.655388 
" clip-path="url(#p2e2f1619ed)" style="fill: none; stroke-dasharray: 3.7,1.6; stroke-dashoffset: 0; stroke: #8c564b"/>
   </g>
   <g id="line2d_113">
    <path d="M 73.832727 188.978221 
L 90.919809 280.335174 
L 108.00689 268.296796 
L 125.093971 251.800652 
L 142.181053 232.225848 
L 159.268134 208.402365 
L 176.355215 281.411696 
L 193.442297 249.602606 
L 210.529378 215.424793 
L 227.616459 179.470059 
L 244.703541 142.175725 
L 261.790622 103.84717 
L 278.877703 210.109388 
L 295.964785 196.930157 
L 313.051866 157.583026 
L 330.138947 183.393058 
L 347.226029 145.813223 
L 364.31311 130.203505 
L 381.400191 89.61697 
L 398.487273 182.903367 
" clip-path="url(#p2e2f1619ed)" style="fill: none; stroke-dasharray: 3.7,1.6; stroke-dashoffset: 0; stroke: #e377c2"/>
   </g>
   <g id="line2d_114">
    <path d="M 73.832727 188.978221 
L 90.919809 280.317809 
L 108.00689 267.065414 
L 125.093971 249.673331 
L 142.181053 228.903441 
L 159.268134 203.706197 
L 176.355215 279.015553 
L 193.442297 247.559189 
L 210.529378 213.636365 
L 227.616459 178.281013 
L 244.703541 141.251948 
L 261.790622 104.099734 
L 278.877703 210.326677 
L 295.964785 199.336333 
L 313.051866 161.899043 
L 330.138947 189.902946 
L 347.226029 153.396566 
L 364.31311 138.844901 
L 381.400191 99.951372 
L 398.487273 191.613618 
" clip-path="url(#p2e2f1619ed)" style="fill: none; stroke-dasharray: 3.7,1.6; stroke-dashoffset: 0; stroke: #7f7f7f"/>
   </g>
   <g id="line2d_115">
    <path d="M 73.832727 188.978221 
L 90.919809 280.21513 
L 108.00689 265.993883 
L 125.093971 247.446403 
L 142.181053 225.141966 
L 159.268134 199.810945 
L 176.355215 277.161846 
L 193.442297 246.054309 
L 210.529378 212.68019 
L 227.616459 176.502118 
L 244.703541 138.790652 
L 261.790622 101.229716 
L 278.877703 207.069921 
L 295.964785 195.761573 
L 313.051866 156.152759 
L 330.138947 184.472251 
L 347.226029 146.627563 
L 364.31311 131.39625 
L 381.400191 91.348783 
L 398.487273 183.652173 
" clip-path="url(#p2e2f1619ed)" style="fill: none; stroke-dasharray: 3.7,1.6; stroke-dashoffset: 0; stroke: #bcbd22"/>
   </g>
   <g id="line2d_116">
    <path d="M 73.832727 188.978221 
L 90.919809 277.999968 
L 108.00689 264.425597 
L 125.093971 247.906939 
L 142.181053 227.709558 
L 159.268134 205.134587 
L 176.355215 279.645721 
L 193.442297 249.691062 
L 210.529378 215.344944 
L 227.616459 179.294098 
L 244.703541 143.286574 
L 261.790622 104.244817 
L 278.877703 210.597419 
L 295.964785 198.070052 
L 313.051866 159.257911 
L 330.138947 185.405125 
L 347.226029 149.007466 
L 364.31311 134.915594 
L 381.400191 95.561818 
L 398.487273 186.95604 
" clip-path="url(#p2e2f1619ed)" style="fill: none; stroke-dasharray: 3.7,1.6; stroke-dashoffset: 0; stroke: #17becf"/>
   </g>
   <g id="line2d_117">
    <path d="M 73.832727 188.978221 
L 90.919809 279.833533 
L 108.00689 265.864523 
L 125.093971 248.313084 
L 142.181053 227.748778 
L 159.268134 203.96514 
L 176.355215 279.092691 
L 193.442297 248.508143 
L 210.529378 215.130406 
L 227.616459 179.706123 
L 244.703541 142.874635 
L 261.790622 105.60969 
L 278.877703 210.42304 
L 295.964785 198.500601 
L 313.051866 160.576461 
L 330.138947 186.829346 
L 347.226029 150.515951 
L 364.31311 136.123348 
L 381.400191 97.04323 
L 398.487273 187.515566 
" clip-path="url(#p2e2f1619ed)" style="fill: none; stroke: #000000; stroke-width: 2.5; stroke-linecap: square"/>
   </g>
   <g id="patch_3">
    <path d="M 57.6 307.584 
L 57.6 41.472 
" style="fill: none; stroke: #000000; stroke-width: 0.8; stroke-linejoin: miter; stroke-linecap: square"/>
   </g>
   <g id="patch_4">
    <path d="M 414.72 307.584 
L 414.72 41.472 
" style="fill: none; stroke: #000000; stroke-width: 0.8; stroke-linejoin: miter; stroke-linecap: square"/>
   </g>
   <g id="patch_5">
    <path d="M 57.6 307.584 
L 414.72 307.584 
" style="fill: none; stroke: #000000; stroke-width: 0.8; stroke-linejoin: miter; stroke-linecap: square"/>
   </g>
   <g id="patch_6">
    <path d="M 57.6 41.472 
L 414.72 41.472 
" style="fill: none; stroke: #000000; stroke-width: 0.8; stroke-linejoin: miter; stroke-linecap: square"/>
   </g>
   <g id="legend_1">
    <g id="patch_7">
     <path d="M 64.6 64.150125 
L 137.665625 64.150125 
Q 139.665625 64.150125 139.665625 62.150125 
L 139.665625 48.472 
Q 139.665625 46.472 137.665625 46.472 
L 64.6 46.472 
Q 62.6 46.472 62.6 48.472 
L 62.6 62.150125 
Q 62.6 64.150125 64.6 64.150125 
z
" style="fill: #ffffff; opacity: 0.8; stroke: #cccccc; stroke-linejoin: miter"/>
    </g>
    <g id="line2d_118">
     <path d="M 66.6 54.570438 
L 76.6 54.570438 
L 86.6 54.570438 
" style="fill: none; stroke: #000000; stroke-width: 2.5; stroke-linecap: square"/>
    </g>
    <g id="text_19">
     <!-- Average -->
     <g transform="translate(94.6 58.070438) scale(0.1 -0.1)">
      <defs>
       <path id="DejaVuSans-41" d="M 2188 4044 
L 1331 1722 
L 3047 1722 
L 2188 4044 
z
M 1831 4666 
L 2547 4666 
L 4325 0 
L 3669 0 
L 3244 1197 
L 1141 1197 
L 716 0 
L 50 0 
L 1831 4666 
z
" transform="scale(0.015625)"/>
       <path id="DejaVuSans-67" d="M 2906 1791 
Q 2906 2416 2648 2759 
Q 2391 3103 1925 3103 
Q 1463 3103 1205 2759 
Q 947 2416 947 1791 
Q 947 1169 1205 825 
Q 1463 481 1925 481 
Q 2391 481 2648 825 
Q 2906 1169 2906 1791 
z
M 3481 434 
Q 3481 -459 3084 -895 
Q 2688 -1331 1869 -1331 
Q 1566 -1331 1297 -1286 
Q 1028 -1241 775 -1147 
L 775 -588 
Q 1028 -725 1275 -790 
Q 1522 -856 1778 -856 
Q 2344 -856 2625 -561 
Q 2906 -266 2906 331 
L 2906 616 
Q 2728 306 2450 153 
Q 2172 0 1784 0 
Q 1141 0 747 490 
Q 353 981 353 1791 
Q 353 2603 747 3093 
Q 1141 3584 1784 3584 
Q 2172 3584 2450 3431 
Q 2728 3278 2906 2969 
L 2906 3500 
L 3481 3500 
L 3481 434 
z
" transform="scale(0.015625)"/>
      </defs>
      <use xlink:href="#DejaVuSans-41"/>
      <use xlink:href="#DejaVuSans-76" x="62.533203"/>
      <use xlink:href="#DejaVuSans-65" x="121.712891"/>
      <use xlink:href="#DejaVuSans-72" x="183.236328"/>
      <use xlink:href="#DejaVuSans-61" x="224.349609"/>
      <use xlink:href="#DejaVuSans-67" x="285.628906"/>
      <use xlink:href="#DejaVuSans-65" x="349.105469"/>
     </g>
    </g>
   </g>
  </g>
 </g>
 <defs>
  <clipPath id="p2e2f1619ed">
   <rect x="57.6" y="41.472" width="357.12" height="266.112"/>
  </clipPath>
 </defs>
</svg>
