<?xml version="1.0" encoding="utf-8" standalone="no"?>
<!DOCTYPE svg PUBLIC "-//W3C//DTD SVG 1.1//EN"
  "http://www.w3.org/Graphics/SVG/1.1/DTD/svg11.dtd">
<svg xmlns:xlink="http://www.w3.org/1999/xlink" width="648pt" height="360pt" viewBox="0 0 648 360" xmlns="http://www.w3.org/2000/svg" version="1.1">
 <metadata>
  <rdf:RDF xmlns:dc="http://purl.org/dc/elements/1.1/" xmlns:cc="http://creativecommons.org/ns#" xmlns:rdf="http://www.w3.org/1999/02/22-rdf-syntax-ns#">
   <cc:Work>
    <dc:type rdf:resource="http://purl.org/dc/dcmitype/StillImage"/>
    <dc:date>2025-09-21T22:02:12.251580</dc:date>
    <dc:format>image/svg+xml</dc:format>
    <dc:creator>
     <cc:Agent>
      <dc:title>Matplotlib v3.8.0, https://matplotlib.org/</dc:title>
     </cc:Agent>
    </dc:creator>
   </cc:Work>
  </rdf:RDF>
 </metadata>
 <defs>
  <style type="text/css">*{stroke-linejoin: round; stroke-linecap: butt}</style>
 </defs>
 <g id="figure_1">
  <g id="patch_1">
   <path d="M 0 360 
L 648 360 
L 648 0 
L 0 0 
z
" style="fill: #ffffff"/>
  </g>
  <g id="axes_1">
   <g id="patch_2">
    <path d="M 81 320.4 
L 583.2 320.4 
L 583.2 43.2 
L 81 43.2 
z
" style="fill: #ffffff"/>
   </g>
   <g id="matplotlib.axis_1">
    <g id="xtick_1">
     <g id="line2d_1">
      <defs>
       <path id="m3f7f29c4fb" d="M 0 0 
L 0 3.5 
" style="stroke: #000000; stroke-width: 0.8"/>
      </defs>
      <g>
       <use xlink:href="#m3f7f29c4fb" x="103.827273" y="320.4" style="stroke: #000000; stroke-width: 0.8"/>
      </g>
     </g>
     <g id="text_1">
      <!-- 2005 -->
      <g transform="translate(88.557273 336.518125) scale(0.12 -0.12)">
       <defs>
        <path id="DejaVuSans-32" d="M 1228 531 
L 3431 531 
L 3431 0 
L 469 0 
L 469 531 
Q 828 903 1448 1529 
Q 2069 2156 2228 2338 
Q 2531 2678 2651 2914 
Q 2772 3150 2772 3378 
Q 2772 3750 2511 3984 
Q 2250 4219 1831 4219 
Q 1534 4219 1204 4116 
Q 875 4013 500 3803 
L 500 4441 
Q 881 4594 1212 4672 
Q 1544 4750 1819 4750 
Q 2544 4750 2975 4387 
Q 3406 4025 3406 3419 
Q 3406 3131 3298 2873 
Q 3191 2616 2906 2266 
Q 2828 2175 2409 1742 
Q 1991 1309 1228 531 
z
" transform="scale(0.015625)"/>
        <path id="DejaVuSans-30" d="M 2034 4250 
Q 1547 4250 1301 3770 
Q 1056 3291 1056 2328 
Q 1056 1369 1301 889 
Q 1547 409 2034 409 
Q 2525 409 2770 889 
Q 3016 1369 3016 2328 
Q 3016 3291 2770 3770 
Q 2525 4250 2034 4250 
z
M 2034 4750 
Q 2819 4750 3233 4129 
Q 3647 3509 3647 2328 
Q 3647 1150 3233 529 
Q 2819 -91 2034 -91 
Q 1250 -91 836 529 
Q 422 1150 422 2328 
Q 422 3509 836 4129 
Q 1250 4750 2034 4750 
z
" transform="scale(0.015625)"/>
        <path id="DejaVuSans-35" d="M 691 4666 
L 3169 4666 
L 3169 4134 
L 1269 4134 
L 1269 2991 
Q 1406 3038 1543 3061 
Q 1681 3084 1819 3084 
Q 2600 3084 3056 2656 
Q 3513 2228 3513 1497 
Q 3513 744 3044 326 
Q 2575 -91 1722 -91 
Q 1428 -91 1123 -41 
Q 819 9 494 109 
L 494 744 
Q 775 591 1075 516 
Q 1375 441 1709 441 
Q 2250 441 2565 725 
Q 2881 1009 2881 1497 
Q 2881 1984 2565 2268 
Q 2250 2553 1709 2553 
Q 1456 2553 1204 2497 
Q 953 2441 691 2322 
L 691 4666 
z
" transform="scale(0.015625)"/>
       </defs>
       <use xlink:href="#DejaVuSans-32"/>
       <use xlink:href="#DejaVuSans-30" x="63.623047"/>
       <use xlink:href="#DejaVuSans-30" x="127.246094"/>
       <use xlink:href="#DejaVuSans-35" x="190.869141"/>
      </g>
     </g>
    </g>
    <g id="xtick_2">
     <g id="line2d_2">
      <g>
       <use xlink:href="#m3f7f29c4fb" x="163.899043" y="320.4" style="stroke: #000000; stroke-width: 0.8"/>
      </g>
     </g>
     <g id="text_2">
      <!-- 2007 -->
      <g transform="translate(148.629043 336.518125) scale(0.12 -0.12)">
       <defs>
        <path id="DejaVuSans-37" d="M 525 4666 
L 3525 4666 
L 3525 4397 
L 1831 0 
L 1172 0 
L 2766 4134 
L 525 4134 
L 525 4666 
z
" transform="scale(0.015625)"/>
       </defs>
       <use xlink:href="#DejaVuSans-32"/>
       <use xlink:href="#DejaVuSans-30" x="63.623047"/>
       <use xlink:href="#DejaVuSans-30" x="127.246094"/>
       <use xlink:href="#DejaVuSans-37" x="190.869141"/>
      </g>
     </g>
    </g>
    <g id="xtick_3">
     <g id="line2d_3">
      <g>
       <use xlink:href="#m3f7f29c4fb" x="223.970813" y="320.4" style="stroke: #000000; stroke-width: 0.8"/>
      </g>
     </g>
     <g id="text_3">
      <!-- 2010 -->
      <g transform="translate(208.700813 336.518125) scale(0.12 -0.12)">
       <defs>
        <path id="DejaVuSans-31" d="M 794 531 
L 1825 531 
L 1825 4091 
L 703 3866 
L 703 4441 
L 1819 4666 
L 2450 4666 
L 2450 531 
L 3481 531 
L 3481 0 
L 794 0 
L 794 531 
z
" transform="scale(0.015625)"/>
       </defs>
       <use xlink:href="#DejaVuSans-32"/>
       <use xlink:href="#DejaVuSans-30" x="63.623047"/>
       <use xlink:href="#DejaVuSans-31" x="127.246094"/>
       <use xlink:href="#DejaVuSans-30" x="190.869141"/>
      </g>
     </g>
    </g>
    <g id="xtick_4">
     <g id="line2d_4">
      <g>
       <use xlink:href="#m3f7f29c4fb" x="284.042584" y="320.4" style="stroke: #000000; stroke-width: 0.8"/>
      </g>
     </g>
     <g id="text_4">
      <!-- 2012 -->
      <g transform="translate(268.772584 336.518125) scale(0.12 -0.12)">
       <use xlink:href="#DejaVuSans-32"/>
       <use xlink:href="#DejaVuSans-30" x="63.623047"/>
       <use xlink:href="#DejaVuSans-31" x="127.246094"/>
       <use xlink:href="#DejaVuSans-32" x="190.869141"/>
      </g>
     </g>
    </g>
    <g id="xtick_5">
     <g id="line2d_5">
      <g>
       <use xlink:href="#m3f7f29c4fb" x="344.114354" y="320.4" style="stroke: #000000; stroke-width: 0.8"/>
      </g>
     </g>
     <g id="text_5">
      <!-- 2015 -->
      <g transform="translate(328.844354 336.518125) scale(0.12 -0.12)">
       <use xlink:href="#DejaVuSans-32"/>
       <use xlink:href="#DejaVuSans-30" x="63.623047"/>
       <use xlink:href="#DejaVuSans-31" x="127.246094"/>
       <use xlink:href="#DejaVuSans-35" x="190.869141"/>
      </g>
     </g>
    </g>
    <g id="xtick_6">
     <g id="line2d_6">
      <g>
       <use xlink:href="#m3f7f29c4fb" x="404.186124" y="320.4" style="stroke: #000000; stroke-width: 0.8"/>
      </g>
     </g>
     <g id="text_6">
      <!-- 2017 -->
      <g transform="translate(388.916124 336.518125) scale(0.12 -0.12)">
       <use xlink:href="#DejaVuSans-32"/>
       <use xlink:href="#DejaVuSans-30" x="63.623047"/>
       <use xlink:href="#DejaVuSans-31" x="127.246094"/>
       <use xlink:href="#DejaVuSans-37" x="190.869141"/>
      </g>
     </g>
    </g>
    <g id="xtick_7">
     <g id="line2d_7">
      <g>
       <use xlink:href="#m3f7f29c4fb" x="464.257895" y="320.4" style="stroke: #000000; stroke-width: 0.8"/>
      </g>
     </g>
     <g id="text_7">
      <!-- 2020 -->
      <g transform="translate(448.987895 336.518125) scale(0.12 -0.12)">
       <use xlink:href="#DejaVuSans-32"/>
       <use xlink:href="#DejaVuSans-30" x="63.623047"/>
       <use xlink:href="#DejaVuSans-32" x="127.246094"/>
       <use xlink:href="#DejaVuSans-30" x="190.869141"/>
      </g>
     </g>
    </g>
    <g id="xtick_8">
     <g id="line2d_8">
      <g>
       <use xlink:href="#m3f7f29c4fb" x="524.329665" y="320.4" style="stroke: #000000; stroke-width: 0.8"/>
      </g>
     </g>
     <g id="text_8">
      <!-- 2022 -->
      <g transform="translate(509.059665 336.518125) scale(0.12 -0.12)">
       <use xlink:href="#DejaVuSans-32"/>
       <use xlink:href="#DejaVuSans-30" x="63.623047"/>
       <use xlink:href="#DejaVuSans-32" x="127.246094"/>
       <use xlink:href="#DejaVuSans-32" x="190.869141"/>
      </g>
     </g>
    </g>
    <g id="text_9">
     <!-- Year -->
     <g transform="translate(316.21875 354.411406) scale(0.15 -0.15)">
      <defs>
       <path id="DejaVuSans-59" d="M -13 4666 
L 666 4666 
L 1959 2747 
L 3244 4666 
L 3922 4666 
L 2272 2222 
L 2272 0 
L 1638 0 
L 1638 2222 
L -13 4666 
z
" transform="scale(0.015625)"/>
       <path id="DejaVuSans-65" d="M 3597 1894 
L 3597 1613 
L 953 1613 
Q 991 1019 1311 708 
Q 1631 397 2203 397 
Q 2534 397 2845 478 
Q 3156 559 3463 722 
L 3463 178 
Q 3153 47 2828 -22 
Q 2503 -91 2169 -91 
Q 1331 -91 842 396 
Q 353 884 353 1716 
Q 353 2575 817 3079 
Q 1281 3584 2069 3584 
Q 2775 3584 3186 3129 
Q 3597 2675 3597 1894 
z
M 3022 2063 
Q 3016 2534 2758 2815 
Q 2500 3097 2075 3097 
Q 1594 3097 1305 2825 
Q 1016 2553 972 2059 
L 3022 2063 
z
" transform="scale(0.015625)"/>
       <path id="DejaVuSans-61" d="M 2194 1759 
Q 1497 1759 1228 1600 
Q 959 1441 959 1056 
Q 959 750 1161 570 
Q 1363 391 1709 391 
Q 2188 391 2477 730 
Q 2766 1069 2766 1631 
L 2766 1759 
L 2194 1759 
z
M 3341 1997 
L 3341 0 
L 2766 0 
L 2766 531 
Q 2569 213 2275 61 
Q 1981 -91 1556 -91 
Q 1019 -91 701 211 
Q 384 513 384 1019 
Q 384 1609 779 1909 
Q 1175 2209 1959 2209 
L 2766 2209 
L 2766 2266 
Q 2766 2663 2505 2880 
Q 2244 3097 1772 3097 
Q 1472 3097 1187 3025 
Q 903 2953 641 2809 
L 641 3341 
Q 956 3463 1253 3523 
Q 1550 3584 1831 3584 
Q 2591 3584 2966 3190 
Q 3341 2797 3341 1997 
z
" transform="scale(0.015625)"/>
       <path id="DejaVuSans-72" d="M 2631 2963 
Q 2534 3019 2420 3045 
Q 2306 3072 2169 3072 
Q 1681 3072 1420 2755 
Q 1159 2438 1159 1844 
L 1159 0 
L 581 0 
L 581 3500 
L 1159 3500 
L 1159 2956 
Q 1341 3275 1631 3429 
Q 1922 3584 2338 3584 
Q 2397 3584 2469 3576 
Q 2541 3569 2628 3553 
L 2631 2963 
z
" transform="scale(0.015625)"/>
      </defs>
      <use xlink:href="#DejaVuSans-59"/>
      <use xlink:href="#DejaVuSans-65" x="47.833984"/>
      <use xlink:href="#DejaVuSans-61" x="109.357422"/>
      <use xlink:href="#DejaVuSans-72" x="170.636719"/>
     </g>
    </g>
   </g>
   <g id="matplotlib.axis_2">
    <g id="ytick_1">
     <g id="line2d_9">
      <defs>
       <path id="md47b97a0e5" d="M 0 0 
L -3.5 0 
" style="stroke: #000000; stroke-width: 0.8"/>
      </defs>
      <g>
       <use xlink:href="#md47b97a0e5" x="81" y="299.389705" style="stroke: #000000; stroke-width: 0.8"/>
      </g>
     </g>
     <g id="text_10">
      <!-- 8 -->
      <g transform="translate(66.365 303.948768) scale(0.12 -0.12)">
       <defs>
        <path id="DejaVuSans-38" d="M 2034 2216 
Q 1584 2216 1326 1975 
Q 1069 1734 1069 1313 
Q 1069 891 1326 650 
Q 1584 409 2034 409 
Q 2484 409 2743 651 
Q 3003 894 3003 1313 
Q 3003 1734 2745 1975 
Q 2488 2216 2034 2216 
z
M 1403 2484 
Q 997 2584 770 2862 
Q 544 3141 544 3541 
Q 544 4100 942 4425 
Q 1341 4750 2034 4750 
Q 2731 4750 3128 4425 
Q 3525 4100 3525 3541 
Q 3525 3141 3298 2862 
Q 3072 2584 2669 2484 
Q 3125 2378 3379 2068 
Q 3634 1759 3634 1313 
Q 3634 634 3220 271 
Q 2806 -91 2034 -91 
Q 1263 -91 848 271 
Q 434 634 434 1313 
Q 434 1759 690 2068 
Q 947 2378 1403 2484 
z
M 1172 3481 
Q 1172 3119 1398 2916 
Q 1625 2713 2034 2713 
Q 2441 2713 2670 2916 
Q 2900 3119 2900 3481 
Q 2900 3844 2670 4047 
Q 2441 4250 2034 4250 
Q 1625 4250 1398 4047 
Q 1172 3844 1172 3481 
z
" transform="scale(0.015625)"/>
       </defs>
       <use xlink:href="#DejaVuSans-38"/>
      </g>
     </g>
    </g>
    <g id="ytick_2">
     <g id="line2d_10">
      <g>
       <use xlink:href="#md47b97a0e5" x="81" y="261.932542" style="stroke: #000000; stroke-width: 0.8"/>
      </g>
     </g>
     <g id="text_11">
      <!-- 10 -->
      <g transform="translate(58.73 266.491605) scale(0.12 -0.12)">
       <use xlink:href="#DejaVuSans-31"/>
       <use xlink:href="#DejaVuSans-30" x="63.623047"/>
      </g>
     </g>
    </g>
    <g id="ytick_3">
     <g id="line2d_11">
      <g>
       <use xlink:href="#md47b97a0e5" x="81" y="224.475379" style="stroke: #000000; stroke-width: 0.8"/>
      </g>
     </g>
     <g id="text_12">
      <!-- 12 -->
      <g transform="translate(58.73 229.034442) scale(0.12 -0.12)">
       <use xlink:href="#DejaVuSans-31"/>
       <use xlink:href="#DejaVuSans-32" x="63.623047"/>
      </g>
     </g>
    </g>
    <g id="ytick_4">
     <g id="line2d_12">
      <g>
       <use xlink:href="#md47b97a0e5" x="81" y="187.018217" style="stroke: #000000; stroke-width: 0.8"/>
      </g>
     </g>
     <g id="text_13">
      <!-- 14 -->
      <g transform="translate(58.73 191.577279) scale(0.12 -0.12)">
       <defs>
        <path id="DejaVuSans-34" d="M 2419 4116 
L 825 1625 
L 2419 1625 
L 2419 4116 
z
M 2253 4666 
L 3047 4666 
L 3047 1625 
L 3713 1625 
L 3713 1100 
L 3047 1100 
L 3047 0 
L 2419 0 
L 2419 1100 
L 313 1100 
L 313 1709 
L 2253 4666 
z
" transform="scale(0.015625)"/>
       </defs>
       <use xlink:href="#DejaVuSans-31"/>
       <use xlink:href="#DejaVuSans-34" x="63.623047"/>
      </g>
     </g>
    </g>
    <g id="ytick_5">
     <g id="line2d_13">
      <g>
       <use xlink:href="#md47b97a0e5" x="81" y="149.561054" style="stroke: #000000; stroke-width: 0.8"/>
      </g>
     </g>
     <g id="text_14">
      <!-- 16 -->
      <g transform="translate(58.73 154.120116) scale(0.12 -0.12)">
       <defs>
        <path id="DejaVuSans-36" d="M 2113 2584 
Q 1688 2584 1439 2293 
Q 1191 2003 1191 1497 
Q 1191 994 1439 701 
Q 1688 409 2113 409 
Q 2538 409 2786 701 
Q 3034 994 3034 1497 
Q 3034 2003 2786 2293 
Q 2538 2584 2113 2584 
z
M 3366 4563 
L 3366 3988 
Q 3128 4100 2886 4159 
Q 2644 4219 2406 4219 
Q 1781 4219 1451 3797 
Q 1122 3375 1075 2522 
Q 1259 2794 1537 2939 
Q 1816 3084 2150 3084 
Q 2853 3084 3261 2657 
Q 3669 2231 3669 1497 
Q 3669 778 3244 343 
Q 2819 -91 2113 -91 
Q 1303 -91 875 529 
Q 447 1150 447 2328 
Q 447 3434 972 4092 
Q 1497 4750 2381 4750 
Q 2619 4750 2861 4703 
Q 3103 4656 3366 4563 
z
" transform="scale(0.015625)"/>
       </defs>
       <use xlink:href="#DejaVuSans-31"/>
       <use xlink:href="#DejaVuSans-36" x="63.623047"/>
      </g>
     </g>
    </g>
    <g id="ytick_6">
     <g id="line2d_14">
      <g>
       <use xlink:href="#md47b97a0e5" x="81" y="112.103891" style="stroke: #000000; stroke-width: 0.8"/>
      </g>
     </g>
     <g id="text_15">
      <!-- 18 -->
      <g transform="translate(58.73 116.662953) scale(0.12 -0.12)">
       <use xlink:href="#DejaVuSans-31"/>
       <use xlink:href="#DejaVuSans-38" x="63.623047"/>
      </g>
     </g>
    </g>
    <g id="ytick_7">
     <g id="line2d_15">
      <g>
       <use xlink:href="#md47b97a0e5" x="81" y="74.646728" style="stroke: #000000; stroke-width: 0.8"/>
      </g>
     </g>
     <g id="text_16">
      <!-- 20 -->
      <g transform="translate(58.73 79.205791) scale(0.12 -0.12)">
       <use xlink:href="#DejaVuSans-32"/>
       <use xlink:href="#DejaVuSans-30" x="63.623047"/>
      </g>
     </g>
    </g>
    <g id="text_17">
     <!-- Total coral cover (%) -->
     <g transform="translate(51.610469 258.769922) rotate(-90) scale(0.15 -0.15)">
      <defs>
       <path id="DejaVuSans-54" d="M -19 4666 
L 3928 4666 
L 3928 4134 
L 2272 4134 
L 2272 0 
L 1638 0 
L 1638 4134 
L -19 4134 
L -19 4666 
z
" transform="scale(0.015625)"/>
       <path id="DejaVuSans-6f" d="M 1959 3097 
Q 1497 3097 1228 2736 
Q 959 2375 959 1747 
Q 959 1119 1226 758 
Q 1494 397 1959 397 
Q 2419 397 2687 759 
Q 2956 1122 2956 1747 
Q 2956 2369 2687 2733 
Q 2419 3097 1959 3097 
z
M 1959 3584 
Q 2709 3584 3137 3096 
Q 3566 2609 3566 1747 
Q 3566 888 3137 398 
Q 2709 -91 1959 -91 
Q 1206 -91 779 398 
Q 353 888 353 1747 
Q 353 2609 779 3096 
Q 1206 3584 1959 3584 
z
" transform="scale(0.015625)"/>
       <path id="DejaVuSans-74" d="M 1172 4494 
L 1172 3500 
L 2356 3500 
L 2356 3053 
L 1172 3053 
L 1172 1153 
Q 1172 725 1289 603 
Q 1406 481 1766 481 
L 2356 481 
L 2356 0 
L 1766 0 
Q 1100 0 847 248 
Q 594 497 594 1153 
L 594 3053 
L 172 3053 
L 172 3500 
L 594 3500 
L 594 4494 
L 1172 4494 
z
" transform="scale(0.015625)"/>
       <path id="DejaVuSans-6c" d="M 603 4863 
L 1178 4863 
L 1178 0 
L 603 0 
L 603 4863 
z
" transform="scale(0.015625)"/>
       <path id="DejaVuSans-20" transform="scale(0.015625)"/>
       <path id="DejaVuSans-63" d="M 3122 3366 
L 3122 2828 
Q 2878 2963 2633 3030 
Q 2388 3097 2138 3097 
Q 1578 3097 1268 2742 
Q 959 2388 959 1747 
Q 959 1106 1268 751 
Q 1578 397 2138 397 
Q 2388 397 2633 464 
Q 2878 531 3122 666 
L 3122 134 
Q 2881 22 2623 -34 
Q 2366 -91 2075 -91 
Q 1284 -91 818 406 
Q 353 903 353 1747 
Q 353 2603 823 3093 
Q 1294 3584 2113 3584 
Q 2378 3584 2631 3529 
Q 2884 3475 3122 3366 
z
" transform="scale(0.015625)"/>
       <path id="DejaVuSans-76" d="M 191 3500 
L 800 3500 
L 1894 563 
L 2988 3500 
L 3597 3500 
L 2284 0 
L 1503 0 
L 191 3500 
z
" transform="scale(0.015625)"/>
       <path id="DejaVuSans-28" d="M 1984 4856 
Q 1566 4138 1362 3434 
Q 1159 2731 1159 2009 
Q 1159 1288 1364 580 
Q 1569 -128 1984 -844 
L 1484 -844 
Q 1016 -109 783 600 
Q 550 1309 550 2009 
Q 550 2706 781 3412 
Q 1013 4119 1484 4856 
L 1984 4856 
z
" transform="scale(0.015625)"/>
       <path id="DejaVuSans-25" d="M 4653 2053 
Q 4381 2053 4226 1822 
Q 4072 1591 4072 1178 
Q 4072 772 4226 539 
Q 4381 306 4653 306 
Q 4919 306 5073 539 
Q 5228 772 5228 1178 
Q 5228 1588 5073 1820 
Q 4919 2053 4653 2053 
z
M 4653 2450 
Q 5147 2450 5437 2106 
Q 5728 1763 5728 1178 
Q 5728 594 5436 251 
Q 5144 -91 4653 -91 
Q 4153 -91 3862 251 
Q 3572 594 3572 1178 
Q 3572 1766 3864 2108 
Q 4156 2450 4653 2450 
z
M 1428 4353 
Q 1159 4353 1004 4120 
Q 850 3888 850 3481 
Q 850 3069 1003 2837 
Q 1156 2606 1428 2606 
Q 1700 2606 1854 2837 
Q 2009 3069 2009 3481 
Q 2009 3884 1853 4118 
Q 1697 4353 1428 4353 
z
M 4250 4750 
L 4750 4750 
L 1831 -91 
L 1331 -91 
L 4250 4750 
z
M 1428 4750 
Q 1922 4750 2215 4408 
Q 2509 4066 2509 3481 
Q 2509 2891 2217 2550 
Q 1925 2209 1428 2209 
Q 931 2209 642 2551 
Q 353 2894 353 3481 
Q 353 4063 643 4406 
Q 934 4750 1428 4750 
z
" transform="scale(0.015625)"/>
       <path id="DejaVuSans-29" d="M 513 4856 
L 1013 4856 
Q 1481 4119 1714 3412 
Q 1947 2706 1947 2009 
Q 1947 1309 1714 600 
Q 1481 -109 1013 -844 
L 513 -844 
Q 928 -128 1133 580 
Q 1338 1288 1338 2009 
Q 1338 2731 1133 3434 
Q 928 4138 513 4856 
z
" transform="scale(0.015625)"/>
      </defs>
      <use xlink:href="#DejaVuSans-54"/>
      <use xlink:href="#DejaVuSans-6f" x="44.083984"/>
      <use xlink:href="#DejaVuSans-74" x="105.265625"/>
      <use xlink:href="#DejaVuSans-61" x="144.474609"/>
      <use xlink:href="#DejaVuSans-6c" x="205.753906"/>
      <use xlink:href="#DejaVuSans-20" x="233.537109"/>
      <use xlink:href="#DejaVuSans-63" x="265.324219"/>
      <use xlink:href="#DejaVuSans-6f" x="320.304688"/>
      <use xlink:href="#DejaVuSans-72" x="381.486328"/>
      <use xlink:href="#DejaVuSans-61" x="422.599609"/>
      <use xlink:href="#DejaVuSans-6c" x="483.878906"/>
      <use xlink:href="#DejaVuSans-20" x="511.662109"/>
      <use xlink:href="#DejaVuSans-63" x="543.449219"/>
      <use xlink:href="#DejaVuSans-6f" x="598.429688"/>
      <use xlink:href="#DejaVuSans-76" x="659.611328"/>
      <use xlink:href="#DejaVuSans-65" x="718.791016"/>
      <use xlink:href="#DejaVuSans-72" x="780.314453"/>
      <use xlink:href="#DejaVuSans-20" x="821.427734"/>
      <use xlink:href="#DejaVuSans-28" x="853.214844"/>
      <use xlink:href="#DejaVuSans-25" x="892.228516"/>
      <use xlink:href="#DejaVuSans-29" x="987.248047"/>
     </g>
    </g>
   </g>
   <g id="line2d_16">
    <path d="M 103.827273 113.976749 
L 127.855981 221.435004 
L 151.884689 207.703249 
L 175.913397 190.679988 
L 199.942105 170.873024 
L 223.970813 145.664191 
L 247.999522 247.259293 
L 272.02823 299.25563 
L 296.056938 268.525539 
L 320.085646 234.034353 
L 344.114354 196.489206 
L 368.143062 157.738067 
L 392.17177 244.699134 
L 416.200478 226.912719 
L 440.229187 188.779352 
L 464.257895 207.500916 
L 488.286603 170.109087 
L 512.315311 151.85712 
L 536.344019 109.160531 
L 560.372727 192.438865 
" clip-path="url(#p2a7a56f08b)" style="fill: none; stroke-dasharray: 3.7,1.6; stroke-dashoffset: 0; stroke: #1f77b4; stroke-opacity: 0.6"/>
   </g>
   <g id="line2d_17">
    <path d="M 103.827273 113.976749 
L 127.855981 221.902027 
L 151.884689 207.072743 
L 175.913397 188.207926 
L 199.942105 167.486624 
L 223.970813 143.999081 
L 247.999522 245.37653 
L 272.02823 297.07698 
L 296.056938 266.373707 
L 320.085646 232.007681 
L 344.114354 195.232534 
L 368.143062 153.985947 
L 392.17177 241.308619 
L 416.200478 223.671688 
L 440.229187 185.014851 
L 464.257895 202.974101 
L 488.286603 166.001856 
L 512.315311 148.160833 
L 536.344019 109.542424 
L 560.372727 190.509912 
" clip-path="url(#p2a7a56f08b)" style="fill: none; stroke-dasharray: 3.7,1.6; stroke-dashoffset: 0; stroke: #ff7f0e; stroke-opacity: 0.6"/>
   </g>
   <g id="line2d_18">
    <path d="M 103.827273 113.976749 
L 127.855981 220.012422 
L 151.884689 205.099597 
L 175.913397 188.486849 
L 199.942105 169.536464 
L 223.970813 147.64575 
L 247.999522 247.266786 
L 272.02823 297.563571 
L 296.056938 266.882155 
L 320.085646 232.934347 
L 344.114354 195.798298 
L 368.143062 157.608993 
L 392.17177 242.742417 
L 416.200478 225.298363 
L 440.229187 186.938471 
L 464.257895 203.360774 
L 488.286603 168.001047 
L 512.315311 150.61436 
L 536.344019 112.271568 
L 560.372727 190.250108 
" clip-path="url(#p2a7a56f08b)" style="fill: none; stroke-dasharray: 3.7,1.6; stroke-dashoffset: 0; stroke: #2ca02c; stroke-opacity: 0.6"/>
   </g>
   <g id="line2d_19">
    <path d="M 103.827273 113.976749 
L 127.855981 219.176193 
L 151.884689 202.877298 
L 175.913397 183.051596 
L 199.942105 157.969211 
L 223.970813 131.848725 
L 247.999522 234.207302 
L 272.02823 285.585386 
L 296.056938 251.545049 
L 320.085646 212.305431 
L 344.114354 170.834795 
L 368.143062 128.236514 
L 392.17177 222.735251 
L 416.200478 202.588163 
L 440.229187 161.094987 
L 464.257895 180.027998 
L 488.286603 139.843039 
L 512.315311 120.411195 
L 536.344019 76.93464 
L 560.372727 164.2553 
" clip-path="url(#p2a7a56f08b)" style="fill: none; stroke-dasharray: 3.7,1.6; stroke-dashoffset: 0; stroke: #d62728; stroke-opacity: 0.6"/>
   </g>
   <g id="line2d_20">
    <path d="M 103.827273 113.976749 
L 127.855981 221.268052 
L 151.884689 207.886035 
L 175.913397 190.76455 
L 199.942105 171.787607 
L 223.970813 148.955786 
L 247.999522 250.163597 
L 272.02823 299.131562 
L 296.056938 267.20896 
L 320.085646 231.099972 
L 344.114354 190.048433 
L 368.143062 146.891557 
L 392.17177 236.441096 
L 416.200478 215.410341 
L 440.229187 171.949783 
L 464.257895 189.326358 
L 488.286603 149.513546 
L 512.315311 130.108178 
L 536.344019 87.706697 
L 560.372727 175.652322 
" clip-path="url(#p2a7a56f08b)" style="fill: none; stroke-dasharray: 3.7,1.6; stroke-dashoffset: 0; stroke: #9467bd; stroke-opacity: 0.6"/>
   </g>
   <g id="line2d_21">
    <path d="M 103.827273 113.976749 
L 127.855981 222.444252 
L 151.884689 207.498095 
L 175.913397 191.012125 
L 199.942105 172.34679 
L 223.970813 149.264374 
L 247.999522 249.762919 
L 272.02823 300.918729 
L 296.056938 271.936009 
L 320.085646 240.580018 
L 344.114354 204.320774 
L 368.143062 166.977725 
L 392.17177 248.204014 
L 416.200478 231.033372 
L 440.229187 193.688244 
L 464.257895 209.535409 
L 488.286603 174.525766 
L 512.315311 157.267786 
L 536.344019 118.810996 
L 560.372727 195.235489 
" clip-path="url(#p2a7a56f08b)" style="fill: none; stroke-dasharray: 3.7,1.6; stroke-dashoffset: 0; stroke: #8c564b; stroke-opacity: 0.6"/>
   </g>
   <g id="line2d_22">
    <path d="M 103.827273 113.976749 
L 127.855981 221.843925 
L 151.884689 207.857193 
L 175.913397 189.796219 
L 199.942105 171.169343 
L 223.970813 147.60731 
L 247.999522 247.012632 
L 272.02823 296.902994 
L 296.056938 265.422768 
L 320.085646 230.651609 
L 344.114354 192.719523 
L 368.143062 152.294606 
L 392.17177 240.18335 
L 416.200478 221.603364 
L 440.229187 181.610913 
L 464.257895 198.438091 
L 488.286603 160.625573 
L 512.315311 142.119317 
L 536.344019 99.944728 
L 560.372727 180.393527 
" clip-path="url(#p2a7a56f08b)" style="fill: none; stroke-dasharray: 3.7,1.6; stroke-dashoffset: 0; stroke: #e377c2; stroke-opacity: 0.6"/>
   </g>
   <g id="line2d_23">
    <path d="M 103.827273 113.976749 
L 127.855981 220.493419 
L 151.884689 205.33215 
L 175.913397 187.012096 
L 199.942105 166.320331 
L 223.970813 143.704886 
L 247.999522 246.523118 
L 272.02823 299.504922 
L 296.056938 268.656828 
L 320.085646 233.866063 
L 344.114354 195.814006 
L 368.143062 153.469217 
L 392.17177 241.276626 
L 416.200478 221.696033 
L 440.229187 180.235952 
L 464.257895 197.770101 
L 488.286603 157.670824 
L 512.315311 137.566025 
L 536.344019 94.806186 
L 560.372727 182.84595 
" clip-path="url(#p2a7a56f08b)" style="fill: none; stroke-dasharray: 3.7,1.6; stroke-dashoffset: 0; stroke: #7f7f7f; stroke-opacity: 0.6"/>
   </g>
   <g id="line2d_24">
    <path d="M 103.827273 113.976749 
L 127.855981 221.096504 
L 151.884689 205.853224 
L 175.913397 186.21043 
L 199.942105 165.254015 
L 223.970813 139.068769 
L 247.999522 237.37827 
L 272.02823 286.8857 
L 296.056938 251.651208 
L 320.085646 212.419582 
L 344.114354 171.180907 
L 368.143062 127.594351 
L 392.17177 224.782431 
L 416.200478 204.312839 
L 440.229187 162.575855 
L 464.257895 181.079536 
L 488.286603 141.504465 
L 512.315311 122.462971 
L 536.344019 80.538809 
L 560.372727 168.146486 
" clip-path="url(#p2a7a56f08b)" style="fill: none; stroke-dasharray: 3.7,1.6; stroke-dashoffset: 0; stroke: #bcbd22; stroke-opacity: 0.6"/>
   </g>
   <g id="line2d_25">
    <path d="M 103.827273 113.976749 
L 127.855981 221.170786 
L 151.884689 207.087618 
L 175.913397 189.747786 
L 199.942105 169.918655 
L 223.970813 146.425073 
L 247.999522 247.250263 
L 272.02823 297.491945 
L 296.056938 264.98586 
L 320.085646 228.316758 
L 344.114354 189.347557 
L 368.143062 149.150703 
L 392.17177 237.982089 
L 416.200478 218.914303 
L 440.229187 177.784632 
L 464.257895 195.568656 
L 488.286603 156.757003 
L 512.315311 136.841955 
L 536.344019 94.407745 
L 560.372727 180.1203 
" clip-path="url(#p2a7a56f08b)" style="fill: none; stroke-dasharray: 3.7,1.6; stroke-dashoffset: 0; stroke: #17becf; stroke-opacity: 0.6"/>
   </g>
   <g id="line2d_26">
    <path d="M 103.827273 113.976749 
L 127.855981 221.325603 
L 151.884689 207.779872 
L 175.913397 190.77988 
L 199.942105 171.232566 
L 223.970813 149.638084 
L 247.999522 249.286853 
L 272.02823 300.248676 
L 296.056938 269.436937 
L 320.085646 235.304631 
L 344.114354 198.841184 
L 368.143062 159.981902 
L 392.17177 246.172831 
L 416.200478 229.224852 
L 440.229187 191.818864 
L 464.257895 209.502129 
L 488.286603 172.321196 
L 512.315311 154.317634 
L 536.344019 111.873679 
L 560.372727 191.779517 
" clip-path="url(#p2a7a56f08b)" style="fill: none; stroke-dasharray: 3.7,1.6; stroke-dashoffset: 0; stroke: #1f77b4; stroke-opacity: 0.6"/>
   </g>
   <g id="line2d_27">
    <path d="M 103.827273 113.976749 
L 127.855981 221.154606 
L 151.884689 207.974982 
L 175.913397 191.042782 
L 199.942105 171.584391 
L 223.970813 146.847462 
L 247.999522 245.774514 
L 272.02823 293.160747 
L 296.056938 259.732923 
L 320.085646 223.349991 
L 344.114354 186.178717 
L 368.143062 147.273597 
L 392.17177 235.62969 
L 416.200478 217.548535 
L 440.229187 179.026289 
L 464.257895 195.6468 
L 488.286603 158.153843 
L 512.315311 139.374728 
L 536.344019 100.422968 
L 560.372727 181.519715 
" clip-path="url(#p2a7a56f08b)" style="fill: none; stroke-dasharray: 3.7,1.6; stroke-dashoffset: 0; stroke: #ff7f0e; stroke-opacity: 0.6"/>
   </g>
   <g id="line2d_28">
    <path d="M 103.827273 113.976749 
L 127.855981 221.626226 
L 151.884689 207.958589 
L 175.913397 190.221131 
L 199.942105 169.708763 
L 223.970813 145.47359 
L 247.999522 244.580864 
L 272.02823 294.026483 
L 296.056938 258.617472 
L 320.085646 218.40065 
L 344.114354 175.482912 
L 368.143062 131.384757 
L 392.17177 226.230203 
L 416.200478 205.047022 
L 440.229187 161.405171 
L 464.257895 180.481599 
L 488.286603 139.502149 
L 512.315311 119.947849 
L 536.344019 76.180784 
L 560.372727 166.62958 
" clip-path="url(#p2a7a56f08b)" style="fill: none; stroke-dasharray: 3.7,1.6; stroke-dashoffset: 0; stroke: #2ca02c; stroke-opacity: 0.6"/>
   </g>
   <g id="line2d_29">
    <path d="M 103.827273 113.976749 
L 127.855981 220.767381 
L 151.884689 207.789569 
L 175.913397 190.965856 
L 199.942105 171.948642 
L 223.970813 151.1719 
L 247.999522 253.678683 
L 272.02823 305.351886 
L 296.056938 276.344724 
L 320.085646 243.119023 
L 344.114354 204.848016 
L 368.143062 163.961666 
L 392.17177 249.69904 
L 416.200478 230.773199 
L 440.229187 190.774314 
L 464.257895 208.552454 
L 488.286603 169.053872 
L 512.315311 150.027639 
L 536.344019 108.609113 
L 560.372727 194.654468 
" clip-path="url(#p2a7a56f08b)" style="fill: none; stroke-dasharray: 3.7,1.6; stroke-dashoffset: 0; stroke: #d62728; stroke-opacity: 0.6"/>
   </g>
   <g id="line2d_30">
    <path d="M 103.827273 113.976749 
L 127.855981 222.309661 
L 151.884689 208.557337 
L 175.913397 192.408908 
L 199.942105 171.986231 
L 223.970813 148.410602 
L 247.999522 248.163389 
L 272.02823 298.535212 
L 296.056938 265.599173 
L 320.085646 229.690532 
L 344.114354 191.380797 
L 368.143062 149.042793 
L 392.17177 240.590984 
L 416.200478 221.955286 
L 440.229187 180.784797 
L 464.257895 199.995448 
L 488.286603 160.70721 
L 512.315311 141.961743 
L 536.344019 100.266864 
L 560.372727 187.410275 
" clip-path="url(#p2a7a56f08b)" style="fill: none; stroke-dasharray: 3.7,1.6; stroke-dashoffset: 0; stroke: #9467bd; stroke-opacity: 0.6"/>
   </g>
   <g id="line2d_31">
    <path d="M 103.827273 113.976749 
L 127.855981 221.707128 
L 151.884689 205.652608 
L 175.913397 188.252206 
L 199.942105 167.699632 
L 223.970813 144.548746 
L 247.999522 246.55104 
L 272.02823 299.65734 
L 296.056938 270.546217 
L 320.085646 237.945046 
L 344.114354 202.882497 
L 368.143062 165.731262 
L 392.17177 248.51236 
L 416.200478 232.951477 
L 440.229187 196.697602 
L 464.257895 214.907096 
L 488.286603 179.981112 
L 512.315311 162.722581 
L 536.344019 124.122742 
L 560.372727 201.188012 
" clip-path="url(#p2a7a56f08b)" style="fill: none; stroke-dasharray: 3.7,1.6; stroke-dashoffset: 0; stroke: #8c564b; stroke-opacity: 0.6"/>
   </g>
   <g id="line2d_32">
    <path d="M 103.827273 113.976749 
L 127.855981 221.138977 
L 151.884689 205.96294 
L 175.913397 184.792221 
L 199.942105 161.842376 
L 223.970813 134.458447 
L 247.999522 236.075089 
L 272.02823 287.712663 
L 296.056938 252.16941 
L 320.085646 212.671121 
L 344.114354 169.931119 
L 368.143062 128.25535 
L 392.17177 227.220697 
L 416.200478 207.937418 
L 440.229187 167.677256 
L 464.257895 189.54185 
L 488.286603 150.558096 
L 512.315311 132.132926 
L 536.344019 89.383384 
L 560.372727 179.249872 
" clip-path="url(#p2a7a56f08b)" style="fill: none; stroke-dasharray: 3.7,1.6; stroke-dashoffset: 0; stroke: #e377c2; stroke-opacity: 0.6"/>
   </g>
   <g id="line2d_33">
    <path d="M 103.827273 113.976749 
L 127.855981 221.697383 
L 151.884689 206.279975 
L 175.913397 187.039071 
L 199.942105 164.03223 
L 223.970813 138.417062 
L 247.999522 238.367349 
L 272.02823 289.572099 
L 296.056938 253.380931 
L 320.085646 212.873216 
L 344.114354 171.380482 
L 368.143062 127.727044 
L 392.17177 224.893487 
L 416.200478 204.421137 
L 440.229187 162.011749 
L 464.257895 182.746662 
L 488.286603 141.950343 
L 512.315311 122.351915 
L 536.344019 79.781643 
L 560.372727 171.548033 
" clip-path="url(#p2a7a56f08b)" style="fill: none; stroke-dasharray: 3.7,1.6; stroke-dashoffset: 0; stroke: #7f7f7f; stroke-opacity: 0.6"/>
   </g>
   <g id="line2d_34">
    <path d="M 103.827273 113.976749 
L 127.855981 220.83817 
L 151.884689 207.279066 
L 175.913397 187.895173 
L 199.942105 166.138312 
L 223.970813 143.03721 
L 247.999522 243.541348 
L 272.02823 294.608645 
L 296.056938 262.74512 
L 320.085646 227.039536 
L 344.114354 188.575335 
L 368.143062 150.258094 
L 392.17177 240.024121 
L 416.200478 222.347291 
L 440.229187 184.986351 
L 464.257895 203.682358 
L 488.286603 167.361556 
L 512.315311 149.956482 
L 536.344019 111.492889 
L 560.372727 193.761791 
" clip-path="url(#p2a7a56f08b)" style="fill: none; stroke-dasharray: 3.7,1.6; stroke-dashoffset: 0; stroke: #bcbd22; stroke-opacity: 0.6"/>
   </g>
   <g id="line2d_35">
    <path d="M 103.827273 113.976749 
L 127.855981 221.726618 
L 151.884689 207.836009 
L 175.913397 191.409127 
L 199.942105 170.70157 
L 223.970813 146.737187 
L 247.999522 245.526232 
L 272.02823 295.086602 
L 296.056938 260.353556 
L 320.085646 222.680765 
L 344.114354 182.609263 
L 368.143062 141.179328 
L 392.17177 235.163402 
L 416.200478 215.995959 
L 440.229187 175.291022 
L 464.257895 194.155451 
L 488.286603 154.450754 
L 512.315311 135.060463 
L 536.344019 91.470831 
L 560.372727 179.042469 
" clip-path="url(#p2a7a56f08b)" style="fill: none; stroke-dasharray: 3.7,1.6; stroke-dashoffset: 0; stroke: #17becf; stroke-opacity: 0.6"/>
   </g>
   <g id="line2d_36">
    <path d="M 103.827273 113.976749 
L 127.855981 219.814948 
L 151.884689 204.682277 
L 175.913397 184.363235 
L 199.942105 160.985736 
L 223.970813 136.250789 
L 247.999522 235.078909 
L 272.02823 284.587769 
L 296.056938 249.13891 
L 320.085646 209.391514 
L 344.114354 168.642404 
L 368.143062 123.963368 
L 392.17177 222.397119 
L 416.200478 202.176851 
L 440.229187 161.165224 
L 464.257895 180.448687 
L 488.286603 141.810972 
L 512.315311 123.222895 
L 536.344019 82.672407 
L 560.372727 169.55822 
" clip-path="url(#p2a7a56f08b)" style="fill: none; stroke-dasharray: 3.7,1.6; stroke-dashoffset: 0; stroke: #1f77b4; stroke-opacity: 0.6"/>
   </g>
   <g id="line2d_37">
    <path d="M 103.827273 113.976749 
L 127.855981 220.932678 
L 151.884689 206.306291 
L 175.913397 187.235445 
L 199.942105 163.176924 
L 223.970813 137.356386 
L 247.999522 238.479577 
L 272.02823 289.649753 
L 296.056938 255.266987 
L 320.085646 218.149628 
L 344.114354 178.346917 
L 368.143062 137.229037 
L 392.17177 231.183591 
L 416.200478 212.431505 
L 440.229187 171.901242 
L 464.257895 191.357173 
L 488.286603 152.893764 
L 512.315311 134.777675 
L 536.344019 94.329601 
L 560.372727 180.459351 
" clip-path="url(#p2a7a56f08b)" style="fill: none; stroke-dasharray: 3.7,1.6; stroke-dashoffset: 0; stroke: #ff7f0e; stroke-opacity: 0.6"/>
   </g>
   <g id="line2d_38">
    <path d="M 103.827273 113.976749 
L 127.855981 220.744766 
L 151.884689 207.209495 
L 175.913397 191.39956 
L 199.942105 172.449989 
L 223.970813 151.511129 
L 247.999522 252.922758 
L 272.02823 302.943174 
L 296.056938 273.500655 
L 320.085646 240.193155 
L 344.114354 204.233226 
L 368.143062 166.067531 
L 392.17177 249.274491 
L 416.200478 232.213433 
L 440.229187 195.505774 
L 464.257895 211.659814 
L 488.286603 176.713972 
L 512.315311 159.204646 
L 536.344019 119.060872 
L 560.372727 196.003135 
" clip-path="url(#p2a7a56f08b)" style="fill: none; stroke-dasharray: 3.7,1.6; stroke-dashoffset: 0; stroke: #2ca02c; stroke-opacity: 0.6"/>
   </g>
   <g id="line2d_39">
    <path d="M 103.827273 113.976749 
L 127.855981 220.12881 
L 151.884689 205.294538 
L 175.913397 187.412239 
L 199.942105 163.644001 
L 223.970813 138.857283 
L 247.999522 238.485727 
L 272.02823 286.007465 
L 296.056938 249.307319 
L 320.085646 209.192368 
L 344.114354 166.652117 
L 368.143062 123.04729 
L 392.17177 221.42299 
L 416.200478 200.274743 
L 440.229187 157.975124 
L 464.257895 177.101748 
L 488.286603 136.219012 
L 512.315311 116.882779 
L 536.344019 75.005503 
L 560.372727 165.833066 
" clip-path="url(#p2a7a56f08b)" style="fill: none; stroke-dasharray: 3.7,1.6; stroke-dashoffset: 0; stroke: #d62728; stroke-opacity: 0.6"/>
   </g>
   <g id="line2d_40">
    <path d="M 103.827273 113.976749 
L 127.855981 222.068611 
L 151.884689 208.662255 
L 175.913397 192.647041 
L 199.942105 173.355158 
L 223.970813 151.050302 
L 247.999522 251.169525 
L 272.02823 303.054547 
L 296.056938 274.597145 
L 320.085646 242.032751 
L 344.114354 207.567167 
L 368.143062 170.76335 
L 392.17177 253.093417 
L 416.200478 237.622628 
L 440.229187 201.041654 
L 464.257895 218.650269 
L 488.286603 184.020679 
L 512.315311 167.406971 
L 536.344019 127.534402 
L 560.372727 204.948837 
" clip-path="url(#p2a7a56f08b)" style="fill: none; stroke-dasharray: 3.7,1.6; stroke-dashoffset: 0; stroke: #9467bd; stroke-opacity: 0.6"/>
   </g>
   <g id="line2d_41">
    <path d="M 103.827273 113.976749 
L 127.855981 220.956213 
L 151.884689 206.687419 
L 175.913397 191.077133 
L 199.942105 172.564296 
L 223.970813 152.716447 
L 247.999522 253.715559 
L 272.02823 304.542031 
L 296.056938 275.97009 
L 320.085646 242.696315 
L 344.114354 208.406239 
L 368.143062 172.287918 
L 392.17177 252.051992 
L 416.200478 235.855111 
L 440.229187 199.257956 
L 464.257895 214.364136 
L 488.286603 179.744107 
L 512.315311 162.281483 
L 536.344019 124.370044 
L 560.372727 198.784865 
" clip-path="url(#p2a7a56f08b)" style="fill: none; stroke-dasharray: 3.7,1.6; stroke-dashoffset: 0; stroke: #8c564b; stroke-opacity: 0.6"/>
   </g>
   <g id="line2d_42">
    <path d="M 103.827273 113.976749 
L 127.855981 222.59153 
L 151.884689 210.125562 
L 175.913397 195.035677 
L 199.942105 175.221489 
L 223.970813 154.446141 
L 247.999522 255.200983 
L 272.02823 304.23977 
L 296.056938 274.236914 
L 320.085646 241.534928 
L 344.114354 205.927507 
L 368.143062 168.010687 
L 392.17177 250.571307 
L 416.200478 234.348501 
L 440.229187 198.086537 
L 464.257895 214.169788 
L 488.286603 178.552462 
L 512.315311 160.682204 
L 536.344019 120.080049 
L 560.372727 196.839916 
" clip-path="url(#p2a7a56f08b)" style="fill: none; stroke-dasharray: 3.7,1.6; stroke-dashoffset: 0; stroke: #e377c2; stroke-opacity: 0.6"/>
   </g>
   <g id="line2d_43">
    <path d="M 103.827273 113.976749 
L 127.855981 222.151719 
L 151.884689 208.47516 
L 175.913397 190.871766 
L 199.942105 171.094105 
L 223.970813 147.031795 
L 247.999522 246.749414 
L 272.02823 297.561204 
L 296.056938 267.179945 
L 320.085646 233.767224 
L 344.114354 197.930211 
L 368.143062 159.687108 
L 392.17177 244.356589 
L 416.200478 227.161492 
L 440.229187 189.671661 
L 464.257895 206.773905 
L 488.286603 170.137586 
L 512.315311 152.161236 
L 536.344019 113.013657 
L 560.372727 192.40154 
" clip-path="url(#p2a7a56f08b)" style="fill: none; stroke-dasharray: 3.7,1.6; stroke-dashoffset: 0; stroke: #7f7f7f; stroke-opacity: 0.6"/>
   </g>
   <g id="line2d_44">
    <path d="M 103.827273 113.976749 
L 127.855981 220.113916 
L 151.884689 203.937798 
L 175.913397 181.89747 
L 199.942105 159.289311 
L 223.970813 134.273731 
L 247.999522 235.401364 
L 272.02823 286.710828 
L 296.056938 252.033914 
L 320.085646 212.098526 
L 344.114354 170.476638 
L 368.143062 128.212864 
L 392.17177 224.793095 
L 416.200478 204.402567 
L 440.229187 161.838363 
L 464.257895 180.43931 
L 488.286603 140.625762 
L 512.315311 121.329061 
L 536.344019 78.2002 
L 560.372727 166.752587 
" clip-path="url(#p2a7a56f08b)" style="fill: none; stroke-dasharray: 3.7,1.6; stroke-dashoffset: 0; stroke: #bcbd22; stroke-opacity: 0.6"/>
   </g>
   <g id="line2d_45">
    <path d="M 103.827273 113.976749 
L 127.855981 219.280997 
L 151.884689 204.341122 
L 175.913397 185.451918 
L 199.942105 163.744951 
L 223.970813 138.195526 
L 247.999522 239.989311 
L 272.02823 291.673791 
L 296.056938 259.018942 
L 320.085646 222.740555 
L 344.114354 184.563287 
L 368.143062 143.272422 
L 392.17177 236.570355 
L 416.200478 218.143714 
L 440.229187 178.271697 
L 464.257895 196.998226 
L 488.286603 158.111738 
L 512.315311 139.397896 
L 536.344019 98.469744 
L 560.372727 184.133758 
" clip-path="url(#p2a7a56f08b)" style="fill: none; stroke-dasharray: 3.7,1.6; stroke-dashoffset: 0; stroke: #17becf; stroke-opacity: 0.6"/>
   </g>
   <g id="line2d_46">
    <path d="M 103.827273 113.976749 
L 127.855981 220.636284 
L 151.884689 205.424092 
L 175.913397 187.816353 
L 199.942105 166.820944 
L 223.970813 142.196891 
L 247.999522 244.050398 
L 272.02823 295.976971 
L 296.056938 260.462565 
L 320.085646 221.133555 
L 344.114354 179.528554 
L 368.143062 137.86398 
L 392.17177 233.711033 
L 416.200478 214.152136 
L 440.229187 173.409507 
L 464.257895 193.499413 
L 488.286603 154.533494 
L 512.315311 135.91085 
L 536.344019 93.223087 
L 560.372727 182.526205 
" clip-path="url(#p2a7a56f08b)" style="fill: none; stroke-dasharray: 3.7,1.6; stroke-dashoffset: 0; stroke: #1f77b4; stroke-opacity: 0.6"/>
   </g>
   <g id="line2d_47">
    <path d="M 103.827273 113.976749 
L 127.855981 221.381131 
L 151.884689 206.601398 
L 175.913397 189.046725 
L 199.942105 166.471456 
L 223.970813 142.076009 
L 247.999522 242.633611 
L 272.02823 294.450629 
L 296.056938 262.099638 
L 320.085646 225.819996 
L 344.114354 186.717273 
L 368.143062 147.440337 
L 392.17177 233.057752 
L 416.200478 214.676894 
L 440.229187 176.055727 
L 464.257895 193.060705 
L 488.286603 156.724826 
L 512.315311 139.118785 
L 536.344019 100.930625 
L 560.372727 179.531924 
" clip-path="url(#p2a7a56f08b)" style="fill: none; stroke-dasharray: 3.7,1.6; stroke-dashoffset: 0; stroke: #ff7f0e; stroke-opacity: 0.6"/>
   </g>
   <g id="line2d_48">
    <path d="M 103.827273 113.976749 
L 127.855981 222.240711 
L 151.884689 207.995708 
L 175.913397 191.139124 
L 199.942105 171.30283 
L 223.970813 148.297226 
L 247.999522 249.439103 
L 272.02823 300.029223 
L 296.056938 270.163252 
L 320.085646 238.092816 
L 344.114354 200.801261 
L 368.143062 164.54132 
L 392.17177 245.870001 
L 416.200478 229.18293 
L 440.229187 191.758556 
L 464.257895 208.104002 
L 488.286603 172.768913 
L 512.315311 154.805066 
L 536.344019 115.489799 
L 560.372727 190.957813 
" clip-path="url(#p2a7a56f08b)" style="fill: none; stroke-dasharray: 3.7,1.6; stroke-dashoffset: 0; stroke: #2ca02c; stroke-opacity: 0.6"/>
   </g>
   <g id="line2d_49">
    <path d="M 103.827273 113.976749 
L 127.855981 220.076775 
L 151.884689 207.176117 
L 175.913397 190.188001 
L 199.942105 171.863161 
L 223.970813 149.25116 
L 247.999522 249.906869 
L 272.02823 301.268303 
L 296.056938 272.034189 
L 320.085646 240.391671 
L 344.114354 203.902153 
L 368.143062 164.286146 
L 392.17177 246.156099 
L 416.200478 228.94666 
L 440.229187 191.836699 
L 464.257895 207.108543 
L 488.286603 170.64028 
L 512.315311 152.130898 
L 536.344019 112.891936 
L 560.372727 187.228614 
" clip-path="url(#p2a7a56f08b)" style="fill: none; stroke-dasharray: 3.7,1.6; stroke-dashoffset: 0; stroke: #d62728; stroke-opacity: 0.6"/>
   </g>
   <g id="line2d_50">
    <path d="M 103.827273 113.976749 
L 127.855981 222.551263 
L 151.884689 209.709152 
L 175.913397 192.724399 
L 199.942105 174.342082 
L 223.970813 153.157328 
L 247.999522 254.928076 
L 272.02823 306.629061 
L 296.056938 279.03918 
L 320.085646 248.423015 
L 344.114354 214.769803 
L 368.143062 179.583415 
L 392.17177 258.77823 
L 416.200478 243.86603 
L 440.229187 209.370848 
L 464.257895 226.773715 
L 488.286603 193.290723 
L 512.315311 176.984625 
L 536.344019 139.608608 
L 560.372727 214.497991 
" clip-path="url(#p2a7a56f08b)" style="fill: none; stroke-dasharray: 3.7,1.6; stroke-dashoffset: 0; stroke: #9467bd; stroke-opacity: 0.6"/>
   </g>
   <g id="line2d_51">
    <path d="M 103.827273 113.976749 
L 127.855981 221.67918 
L 151.884689 206.439962 
L 175.913397 188.739823 
L 199.942105 167.321548 
L 223.970813 145.14775 
L 247.999522 244.392676 
L 272.02823 293.132951 
L 296.056938 261.367524 
L 320.085646 226.691358 
L 344.114354 189.369032 
L 368.143062 151.477819 
L 392.17177 236.954087 
L 416.200478 219.58597 
L 440.229187 182.083268 
L 464.257895 198.272243 
L 488.286603 162.774799 
L 512.315311 144.959517 
L 536.344019 107.462516 
L 560.372727 184.6188 
" clip-path="url(#p2a7a56f08b)" style="fill: none; stroke-dasharray: 3.7,1.6; stroke-dashoffset: 0; stroke: #8c564b; stroke-opacity: 0.6"/>
   </g>
   <g id="line2d_52">
    <path d="M 103.827273 113.976749 
L 127.855981 218.38446 
L 151.884689 201.613995 
L 175.913397 182.103266 
L 199.942105 158.994684 
L 223.970813 131.929832 
L 247.999522 229.529803 
L 272.02823 278.344707 
L 296.056938 240.227363 
L 320.085646 197.065286 
L 344.114354 154.086986 
L 368.143062 110.107871 
L 392.17177 212.026629 
L 416.200478 189.652906 
L 440.229187 143.853003 
L 464.257895 161.453712 
L 488.286603 119.971751 
L 512.315311 99.041939 
L 536.344019 55.8 
L 560.372727 148.609102 
" clip-path="url(#p2a7a56f08b)" style="fill: none; stroke-dasharray: 3.7,1.6; stroke-dashoffset: 0; stroke: #e377c2; stroke-opacity: 0.6"/>
   </g>
   <g id="line2d_53">
    <path d="M 103.827273 113.976749 
L 127.855981 218.470326 
L 151.884689 202.262023 
L 175.913397 183.243286 
L 199.942105 161.41848 
L 223.970813 136.733885 
L 247.999522 238.557054 
L 272.02823 289.885318 
L 296.056938 259.051725 
L 320.085646 224.011078 
L 344.114354 185.344256 
L 368.143062 144.130591 
L 392.17177 233.566513 
L 416.200478 214.526123 
L 440.229187 175.483164 
L 464.257895 192.461113 
L 488.286603 154.889645 
L 512.315311 136.70148 
L 536.344019 96.520382 
L 560.372727 178.125155 
" clip-path="url(#p2a7a56f08b)" style="fill: none; stroke-dasharray: 3.7,1.6; stroke-dashoffset: 0; stroke: #7f7f7f; stroke-opacity: 0.6"/>
   </g>
   <g id="line2d_54">
    <path d="M 103.827273 113.976749 
L 127.855981 222.268107 
L 151.884689 207.35986 
L 175.913397 191.473914 
L 199.942105 170.925829 
L 223.970813 148.539139 
L 247.999522 247.581541 
L 272.02823 298.018303 
L 296.056938 267.097317 
L 320.085646 232.726026 
L 344.114354 195.41561 
L 368.143062 157.152334 
L 392.17177 244.008528 
L 416.200478 225.803447 
L 440.229187 187.393543 
L 464.257895 204.652442 
L 488.286603 167.717707 
L 512.315311 149.788611 
L 536.344019 110.186695 
L 560.372727 193.440575 
" clip-path="url(#p2a7a56f08b)" style="fill: none; stroke-dasharray: 3.7,1.6; stroke-dashoffset: 0; stroke: #bcbd22; stroke-opacity: 0.6"/>
   </g>
   <g id="line2d_55">
    <path d="M 103.827273 113.976749 
L 127.855981 222.24733 
L 151.884689 208.663874 
L 175.913397 191.362824 
L 199.942105 171.91948 
L 223.970813 148.362779 
L 247.999522 249.719621 
L 272.02823 300.873292 
L 296.056938 270.819209 
L 320.085646 237.710167 
L 344.114354 200.976755 
L 368.143062 162.924639 
L 392.17177 246.229646 
L 416.200478 229.056797 
L 440.229187 191.695122 
L 464.257895 209.091553 
L 488.286603 172.636896 
L 512.315311 155.056413 
L 536.344019 115.772955 
L 560.372727 194.093488 
" clip-path="url(#p2a7a56f08b)" style="fill: none; stroke-dasharray: 3.7,1.6; stroke-dashoffset: 0; stroke: #17becf; stroke-opacity: 0.6"/>
   </g>
   <g id="line2d_56">
    <path d="M 103.827273 113.976749 
L 127.855981 220.692363 
L 151.884689 205.855744 
L 175.913397 188.338745 
L 199.942105 166.05254 
L 223.970813 141.207332 
L 247.999522 242.188972 
L 272.02823 293.380337 
L 296.056938 261.66029 
L 320.085646 227.585108 
L 344.114354 191.024356 
L 368.143062 153.206867 
L 392.17177 243.706985 
L 416.200478 227.279167 
L 440.229187 189.470142 
L 464.257895 208.204945 
L 488.286603 172.958848 
L 512.315311 156.355068 
L 536.344019 118.262336 
L 560.372727 199.089166 
" clip-path="url(#p2a7a56f08b)" style="fill: none; stroke-dasharray: 3.7,1.6; stroke-dashoffset: 0; stroke: #1f77b4; stroke-opacity: 0.6"/>
   </g>
   <g id="line2d_57">
    <path d="M 103.827273 113.976749 
L 127.855981 220.79441 
L 151.884689 206.539237 
L 175.913397 190.305531 
L 199.942105 171.253463 
L 223.970813 149.065043 
L 247.999522 248.493273 
L 272.02823 297.325468 
L 296.056938 264.676932 
L 320.085646 229.225379 
L 344.114354 191.623327 
L 368.143062 153.336131 
L 392.17177 240.272158 
L 416.200478 222.887677 
L 440.229187 185.83968 
L 464.257895 203.748182 
L 488.286603 168.662602 
L 512.315311 151.598602 
L 536.344019 112.782903 
L 560.372727 192.498438 
" clip-path="url(#p2a7a56f08b)" style="fill: none; stroke-dasharray: 3.7,1.6; stroke-dashoffset: 0; stroke: #ff7f0e; stroke-opacity: 0.6"/>
   </g>
   <g id="line2d_58">
    <path d="M 103.827273 113.976749 
L 127.855981 221.092459 
L 151.884689 206.066515 
L 175.913397 187.059226 
L 199.942105 167.04646 
L 223.970813 144.599452 
L 247.999522 247.693871 
L 272.02823 300.610682 
L 296.056938 269.657806 
L 320.085646 235.528242 
L 344.114354 196.057241 
L 368.143062 155.127107 
L 392.17177 243.911446 
L 416.200478 225.114312 
L 440.229187 185.201844 
L 464.257895 204.111321 
L 488.286603 165.047584 
L 512.315311 146.515771 
L 536.344019 104.395239 
L 560.372727 189.926869 
" clip-path="url(#p2a7a56f08b)" style="fill: none; stroke-dasharray: 3.7,1.6; stroke-dashoffset: 0; stroke: #2ca02c; stroke-opacity: 0.6"/>
   </g>
   <g id="line2d_59">
    <path d="M 103.827273 113.976749 
L 127.855981 221.21087 
L 151.884689 206.792094 
L 175.913397 189.039532 
L 199.942105 166.548115 
L 223.970813 142.575055 
L 247.999522 244.213432 
L 272.02823 295.687587 
L 296.056938 264.086822 
L 320.085646 228.544614 
L 344.114354 191.292461 
L 368.143062 150.413747 
L 392.17177 239.70842 
L 416.200478 220.91809 
L 440.229187 180.809987 
L 464.257895 197.625581 
L 488.286603 159.438157 
L 512.315311 139.876319 
L 536.344019 99.480279 
L 560.372727 183.743223 
" clip-path="url(#p2a7a56f08b)" style="fill: none; stroke-dasharray: 3.7,1.6; stroke-dashoffset: 0; stroke: #d62728; stroke-opacity: 0.6"/>
   </g>
   <g id="line2d_60">
    <path d="M 103.827273 113.976749 
L 127.855981 221.558011 
L 151.884689 206.792034 
L 175.913397 188.249485 
L 199.942105 166.747379 
L 223.970813 142.875554 
L 247.999522 246.411972 
L 272.02823 298.789399 
L 296.056938 266.54666 
L 320.085646 230.192101 
L 344.114354 191.621064 
L 368.143062 149.948631 
L 392.17177 239.653444 
L 416.200478 220.640266 
L 440.229187 180.119197 
L 464.257895 199.834013 
L 488.286603 161.071635 
L 512.315311 142.365332 
L 536.344019 100.632944 
L 560.372727 188.714263 
" clip-path="url(#p2a7a56f08b)" style="fill: none; stroke-dasharray: 3.7,1.6; stroke-dashoffset: 0; stroke: #9467bd; stroke-opacity: 0.6"/>
   </g>
   <g id="line2d_61">
    <path d="M 103.827273 113.976749 
L 127.855981 221.985319 
L 151.884689 206.664639 
L 175.913397 187.967161 
L 199.942105 165.619469 
L 223.970813 139.206404 
L 247.999522 239.180569 
L 272.02823 289.804795 
L 296.056938 255.150692 
L 320.085646 216.508572 
L 344.114354 176.287599 
L 368.143062 134.54038 
L 392.17177 231.376652 
L 416.200478 213.05169 
L 440.229187 172.601226 
L 464.257895 193.109614 
L 488.286603 154.742367 
L 512.315311 136.337423 
L 536.344019 93.017156 
L 560.372727 181.186547 
" clip-path="url(#p2a7a56f08b)" style="fill: none; stroke-dasharray: 3.7,1.6; stroke-dashoffset: 0; stroke: #8c564b; stroke-opacity: 0.6"/>
   </g>
   <g id="line2d_62">
    <path d="M 103.827273 113.976749 
L 127.855981 220.76591 
L 151.884689 204.655551 
L 175.913397 186.721791 
L 199.942105 164.937867 
L 223.970813 140.329917 
L 247.999522 239.155188 
L 272.02823 288.129201 
L 296.056938 251.747473 
L 320.085646 211.138057 
L 344.114354 167.361608 
L 368.143062 123.817043 
L 392.17177 221.389893 
L 416.200478 199.404499 
L 440.229187 155.553223 
L 464.257895 173.044162 
L 488.286603 131.414924 
L 512.315311 110.818831 
L 536.344019 67.169993 
L 560.372727 158.107509 
" clip-path="url(#p2a7a56f08b)" style="fill: none; stroke-dasharray: 3.7,1.6; stroke-dashoffset: 0; stroke: #e377c2; stroke-opacity: 0.6"/>
   </g>
   <g id="line2d_63">
    <path d="M 103.827273 113.976749 
L 127.855981 221.097607 
L 151.884689 207.009013 
L 175.913397 189.275839 
L 199.942105 169.142847 
L 223.970813 146.194142 
L 247.999522 247.409566 
L 272.02823 298.92151 
L 296.056938 266.551584 
L 320.085646 230.75225 
L 344.114354 192.266559 
L 368.143062 150.856146 
L 392.17177 241.199401 
L 416.200478 222.548626 
L 440.229187 181.72583 
L 464.257895 200.58364 
L 488.286603 162.081803 
L 512.315311 142.877035 
L 536.344019 100.146983 
L 560.372727 186.695031 
" clip-path="url(#p2a7a56f08b)" style="fill: none; stroke-dasharray: 3.7,1.6; stroke-dashoffset: 0; stroke: #7f7f7f; stroke-opacity: 0.6"/>
   </g>
   <g id="line2d_64">
    <path d="M 103.827273 113.976749 
L 127.855981 220.780987 
L 151.884689 204.805936 
L 175.913397 183.454962 
L 199.942105 160.354842 
L 223.970813 134.660981 
L 247.999522 235.306235 
L 272.02823 286.493067 
L 296.056938 252.982159 
L 320.085646 216.457512 
L 344.114354 177.894952 
L 368.143062 138.028144 
L 392.17177 232.010259 
L 416.200478 215.235299 
L 440.229187 176.918249 
L 464.257895 196.807923 
L 488.286603 160.362643 
L 512.315311 143.0028 
L 536.344019 104.11668 
L 560.372727 186.444236 
" clip-path="url(#p2a7a56f08b)" style="fill: none; stroke-dasharray: 3.7,1.6; stroke-dashoffset: 0; stroke: #bcbd22; stroke-opacity: 0.6"/>
   </g>
   <g id="line2d_65">
    <path d="M 103.827273 113.976749 
L 127.855981 221.717976 
L 151.884689 208.798014 
L 175.913397 191.451863 
L 199.942105 171.460176 
L 223.970813 150.183974 
L 247.999522 249.873911 
L 272.02823 299.588592 
L 296.056938 266.491505 
L 320.085646 230.407887 
L 344.114354 191.951595 
L 368.143062 151.955661 
L 392.17177 241.377753 
L 416.200478 223.12505 
L 440.229187 182.956823 
L 464.257895 199.647755 
L 488.286603 161.688143 
L 512.315311 142.680665 
L 536.344019 101.334766 
L 560.372727 184.320016 
" clip-path="url(#p2a7a56f08b)" style="fill: none; stroke-dasharray: 3.7,1.6; stroke-dashoffset: 0; stroke: #17becf; stroke-opacity: 0.6"/>
   </g>
   <g id="line2d_66">
    <path d="M 103.827273 113.976749 
L 127.855981 222.440943 
L 151.884689 210.027011 
L 175.913397 194.849422 
L 199.942105 174.664011 
L 223.970813 154.650085 
L 247.999522 256.789825 
L 272.02823 307.8 
L 296.056938 279.697151 
L 320.085646 248.730306 
L 344.114354 214.585115 
L 368.143062 178.096027 
L 392.17177 256.802942 
L 416.200478 240.7629 
L 440.229187 204.225135 
L 464.257895 220.728522 
L 488.286603 185.243949 
L 512.315311 167.453857 
L 536.344019 127.960791 
L 560.372727 205.984378 
" clip-path="url(#p2a7a56f08b)" style="fill: none; stroke-dasharray: 3.7,1.6; stroke-dashoffset: 0; stroke: #1f77b4; stroke-opacity: 0.6"/>
   </g>
   <g id="line2d_67">
    <path d="M 103.827273 113.976749 
L 127.855981 221.162329 
L 151.884689 208.273757 
L 175.913397 191.929862 
L 199.942105 173.271604 
L 223.970813 151.440111 
L 247.999522 250.89639 
L 272.02823 300.015763 
L 296.056938 268.09491 
L 320.085646 232.377581 
L 344.114354 194.994056 
L 368.143062 156.476022 
L 392.17177 244.132454 
L 416.200478 227.056503 
L 440.229187 188.908979 
L 464.257895 207.60903 
L 488.286603 170.869562 
L 512.315311 153.539507 
L 536.344019 113.846944 
L 560.372727 194.621188 
" clip-path="url(#p2a7a56f08b)" style="fill: none; stroke-dasharray: 3.7,1.6; stroke-dashoffset: 0; stroke: #ff7f0e; stroke-opacity: 0.6"/>
   </g>
   <g id="line2d_68">
    <path d="M 103.827273 113.976749 
L 127.855981 221.220431 
L 151.884689 205.287495 
L 175.913397 186.165467 
L 199.942105 163.549088 
L 223.970813 140.477676 
L 247.999522 241.813394 
L 272.02823 292.599447 
L 296.056938 260.910999 
L 320.085646 226.916181 
L 344.114354 190.431384 
L 368.143062 151.591568 
L 392.17177 238.115209 
L 416.200478 220.392413 
L 440.229187 182.773874 
L 464.257895 199.927785 
L 488.286603 164.109677 
L 512.315311 146.033487 
L 536.344019 105.691137 
L 560.372727 185.317312 
" clip-path="url(#p2a7a56f08b)" style="fill: none; stroke-dasharray: 3.7,1.6; stroke-dashoffset: 0; stroke: #2ca02c; stroke-opacity: 0.6"/>
   </g>
   <g id="line2d_69">
    <path d="M 103.827273 113.976749 
L 127.855981 221.825538 
L 151.884689 208.244992 
L 175.913397 192.212434 
L 199.942105 174.003666 
L 223.970813 153.452356 
L 247.999522 254.560355 
L 272.02823 305.676859 
L 296.056938 277.221705 
L 320.085646 245.931515 
L 344.114354 210.980985 
L 368.143062 173.008496 
L 392.17177 252.749217 
L 416.200478 235.414932 
L 440.229187 197.657206 
L 464.257895 213.8414 
L 488.286603 177.286719 
L 512.315311 159.323056 
L 536.344019 118.721821 
L 560.372727 196.885515 
" clip-path="url(#p2a7a56f08b)" style="fill: none; stroke-dasharray: 3.7,1.6; stroke-dashoffset: 0; stroke: #d62728; stroke-opacity: 0.6"/>
   </g>
   <g id="line2d_70">
    <path d="M 103.827273 113.976749 
L 127.855981 220.878253 
L 151.884689 207.41563 
L 175.913397 188.34686 
L 199.942105 168.432492 
L 223.970813 144.827731 
L 247.999522 245.285935 
L 272.02823 296.191702 
L 296.056938 262.760818 
L 320.085646 226.223295 
L 344.114354 187.623383 
L 368.143062 148.418523 
L 392.17177 240.027614 
L 416.200478 221.869052 
L 440.229187 183.587856 
L 464.257895 202.235321 
L 488.286603 165.199459 
L 512.315311 147.278637 
L 536.344019 107.052123 
L 560.372727 192.154422 
" clip-path="url(#p2a7a56f08b)" style="fill: none; stroke-dasharray: 3.7,1.6; stroke-dashoffset: 0; stroke: #9467bd; stroke-opacity: 0.6"/>
   </g>
   <g id="line2d_71">
    <path d="M 103.827273 113.976749 
L 127.855981 221.702531 
L 151.884689 205.681297 
L 175.913397 188.141667 
L 199.942105 167.705288 
L 223.970813 143.3396 
L 247.999522 242.702387 
L 272.02823 292.238595 
L 296.056938 259.233347 
L 320.085646 223.495235 
L 344.114354 185.73181 
L 368.143062 145.073196 
L 392.17177 236.912165 
L 416.200478 218.748822 
L 440.229187 179.696302 
L 464.257895 197.879318 
L 488.286603 160.618402 
L 512.315311 142.616311 
L 536.344019 103.874711 
L 560.372727 187.497061 
" clip-path="url(#p2a7a56f08b)" style="fill: none; stroke-dasharray: 3.7,1.6; stroke-dashoffset: 0; stroke: #8c564b; stroke-opacity: 0.6"/>
   </g>
   <g id="line2d_72">
    <path d="M 103.827273 113.976749 
L 127.855981 222.94051 
L 151.884689 208.202429 
L 175.913397 190.452865 
L 199.942105 170.354181 
L 223.970813 148.336129 
L 247.999522 246.91115 
L 272.02823 296.589774 
L 296.056938 263.60417 
L 320.085646 226.537977 
L 344.114354 188.38737 
L 368.143062 146.809448 
L 392.17177 234.923822 
L 416.200478 215.127921 
L 440.229187 175.814677 
L 464.257895 191.737963 
L 488.286603 154.204739 
L 512.315311 135.939717 
L 536.344019 96.892162 
L 560.372727 178.7948 
" clip-path="url(#p2a7a56f08b)" style="fill: none; stroke-dasharray: 3.7,1.6; stroke-dashoffset: 0; stroke: #e377c2; stroke-opacity: 0.6"/>
   </g>
   <g id="line2d_73">
    <path d="M 103.827273 113.976749 
L 127.855981 221.314019 
L 151.884689 207.750468 
L 175.913397 189.854168 
L 199.942105 170.585285 
L 223.970813 148.940719 
L 247.999522 250.362267 
L 272.02823 301.000849 
L 296.056938 269.506443 
L 320.085646 235.735568 
L 344.114354 199.335184 
L 368.143062 159.069101 
L 392.17177 245.578388 
L 416.200478 226.888632 
L 440.229187 188.553379 
L 464.257895 205.234751 
L 488.286603 168.394523 
L 512.315311 150.099347 
L 536.344019 109.870995 
L 560.372727 192.670722 
" clip-path="url(#p2a7a56f08b)" style="fill: none; stroke-dasharray: 3.7,1.6; stroke-dashoffset: 0; stroke: #7f7f7f; stroke-opacity: 0.6"/>
   </g>
   <g id="line2d_74">
    <path d="M 103.827273 113.976749 
L 127.855981 221.85367 
L 151.884689 208.539881 
L 175.913397 192.368064 
L 199.942105 173.754823 
L 223.970813 152.226412 
L 247.999522 253.568347 
L 272.02823 305.936994 
L 296.056938 277.565962 
L 320.085646 245.129921 
L 344.114354 209.868348 
L 368.143062 172.022194 
L 392.17177 253.778507 
L 416.200478 236.649418 
L 440.229187 198.642552 
L 464.257895 216.004785 
L 488.286603 180.374589 
L 512.315311 162.786199 
L 536.344019 122.784371 
L 560.372727 203.372541 
" clip-path="url(#p2a7a56f08b)" style="fill: none; stroke-dasharray: 3.7,1.6; stroke-dashoffset: 0; stroke: #bcbd22; stroke-opacity: 0.6"/>
   </g>
   <g id="line2d_75">
    <path d="M 103.827273 113.976749 
L 127.855981 221.959026 
L 151.884689 206.208864 
L 175.913397 188.288712 
L 199.942105 167.858896 
L 223.970813 143.603579 
L 247.999522 245.365497 
L 272.02823 296.091114 
L 296.056938 264.050623 
L 320.085646 228.263151 
L 344.114354 189.889307 
L 368.143062 148.26969 
L 392.17177 237.872137 
L 416.200478 218.261389 
L 440.229187 178.039105 
L 464.257895 195.359599 
L 488.286603 157.057074 
L 512.315311 138.44914 
L 536.344019 97.285822 
L 560.372727 183.86715 
" clip-path="url(#p2a7a56f08b)" style="fill: none; stroke-dasharray: 3.7,1.6; stroke-dashoffset: 0; stroke: #17becf; stroke-opacity: 0.6"/>
   </g>
   <g id="line2d_76">
    <path d="M 103.827273 113.976749 
L 127.855981 222.168451 
L 151.884689 208.086995 
L 175.913397 189.897811 
L 199.942105 170.189129 
L 223.970813 147.151445 
L 247.999522 247.713467 
L 272.02823 299.492893 
L 296.056938 269.507193 
L 320.085646 236.535547 
L 344.114354 200.461555 
L 368.143062 163.334184 
L 392.17177 247.97657 
L 416.200478 231.350911 
L 440.229187 195.286788 
L 464.257895 213.536916 
L 488.286603 177.499638 
L 512.315311 159.943057 
L 536.344019 120.307861 
L 560.372727 199.519048 
" clip-path="url(#p2a7a56f08b)" style="fill: none; stroke-dasharray: 3.7,1.6; stroke-dashoffset: 0; stroke: #1f77b4; stroke-opacity: 0.6"/>
   </g>
   <g id="line2d_77">
    <path d="M 103.827273 113.976749 
L 127.855981 220.966877 
L 151.884689 207.692793 
L 175.913397 189.422683 
L 199.942105 170.481152 
L 223.970813 148.500314 
L 247.999522 248.454501 
L 272.02823 300.08924 
L 296.056938 269.271257 
L 320.085646 233.290376 
L 344.114354 195.051383 
L 368.143062 153.206036 
L 392.17177 240.289625 
L 416.200478 220.79545 
L 440.229187 179.198021 
L 464.257895 195.08104 
L 488.286603 156.497749 
L 512.315311 137.033177 
L 536.344019 93.831688 
L 560.372727 177.451648 
" clip-path="url(#p2a7a56f08b)" style="fill: none; stroke-dasharray: 3.7,1.6; stroke-dashoffset: 0; stroke: #ff7f0e; stroke-opacity: 0.6"/>
   </g>
   <g id="line2d_78">
    <path d="M 103.827273 113.976749 
L 127.855981 222.170106 
L 151.884689 207.775154 
L 175.913397 191.05626 
L 199.942105 171.878048 
L 223.970813 148.065233 
L 247.999522 247.400241 
L 272.02823 298.742648 
L 296.056938 267.27189 
L 320.085646 231.777708 
L 344.114354 193.079774 
L 368.143062 151.990093 
L 392.17177 239.167299 
L 416.200478 220.481588 
L 440.229187 181.716085 
L 464.257895 199.013045 
L 488.286603 160.773035 
L 512.315311 141.936737 
L 536.344019 101.995402 
L 560.372727 184.854518 
" clip-path="url(#p2a7a56f08b)" style="fill: none; stroke-dasharray: 3.7,1.6; stroke-dashoffset: 0; stroke: #2ca02c; stroke-opacity: 0.6"/>
   </g>
   <g id="line2d_79">
    <path d="M 103.827273 113.976749 
L 127.855981 221.19046 
L 151.884689 206.505654 
L 175.913397 189.464713 
L 199.942105 169.772605 
L 223.970813 146.770415 
L 247.999522 246.892934 
L 272.02823 297.46401 
L 296.056938 266.234965 
L 320.085646 231.99626 
L 344.114354 194.921172 
L 368.143062 157.250137 
L 392.17177 242.481693 
L 416.200478 225.152189 
L 440.229187 187.6083 
L 464.257895 204.063331 
L 488.286603 167.564913 
L 512.315311 149.686565 
L 536.344019 110.263552 
L 560.372727 188.965426 
" clip-path="url(#p2a7a56f08b)" style="fill: none; stroke-dasharray: 3.7,1.6; stroke-dashoffset: 0; stroke: #d62728; stroke-opacity: 0.6"/>
   </g>
   <g id="line2d_80">
    <path d="M 103.827273 113.976749 
L 127.855981 220.081556 
L 151.884689 204.926125 
L 175.913397 185.274282 
L 199.942105 162.638011 
L 223.970813 136.609452 
L 247.999522 235.032511 
L 272.02823 283.722079 
L 296.056938 245.909683 
L 320.085646 204.897274 
L 344.114354 161.36917 
L 368.143062 118.270786 
L 392.17177 218.145553 
L 416.200478 197.014406 
L 440.229187 155.231822 
L 464.257895 174.095148 
L 488.286603 134.24924 
L 512.315311 114.557959 
L 536.344019 72.340713 
L 560.372727 162.864894 
" clip-path="url(#p2a7a56f08b)" style="fill: none; stroke-dasharray: 3.7,1.6; stroke-dashoffset: 0; stroke: #9467bd; stroke-opacity: 0.6"/>
   </g>
   <g id="line2d_81">
    <path d="M 103.827273 113.976749 
L 127.855981 220.352209 
L 151.884689 206.474508 
L 175.913397 188.584736 
L 199.942105 168.009321 
L 223.970813 143.32099 
L 247.999522 245.782619 
L 272.02823 298.892185 
L 296.056938 267.473114 
L 320.085646 232.895678 
L 344.114354 195.849 
L 368.143062 156.018944 
L 392.17177 244.042727 
L 416.200478 226.883484 
L 440.229187 189.305397 
L 464.257895 208.495823 
L 488.286603 171.176253 
L 512.315311 153.115876 
L 536.344019 111.428352 
L 560.372727 193.600356 
" clip-path="url(#p2a7a56f08b)" style="fill: none; stroke-dasharray: 3.7,1.6; stroke-dashoffset: 0; stroke: #8c564b; stroke-opacity: 0.6"/>
   </g>
   <g id="line2d_82">
    <path d="M 103.827273 113.976749 
L 127.855981 221.706576 
L 151.884689 207.484112 
L 175.913397 190.634301 
L 199.942105 172.130835 
L 223.970813 151.65412 
L 247.999522 252.261955 
L 272.02823 303.746148 
L 296.056938 273.713185 
L 320.085646 237.589368 
L 344.114354 198.549976 
L 368.143062 156.928493 
L 392.17177 244.64618 
L 416.200478 224.890177 
L 440.229187 183.78441 
L 464.257895 200.676126 
L 488.286603 160.26409 
L 512.315311 139.797256 
L 536.344019 96.32824 
L 560.372727 183.353792 
" clip-path="url(#p2a7a56f08b)" style="fill: none; stroke-dasharray: 3.7,1.6; stroke-dashoffset: 0; stroke: #e377c2; stroke-opacity: 0.6"/>
   </g>
   <g id="line2d_83">
    <path d="M 103.827273 113.976749 
L 127.855981 221.026267 
L 151.884689 205.682681 
L 175.913397 188.194528 
L 199.942105 168.068594 
L 223.970813 145.257189 
L 247.999522 247.749049 
L 272.02823 299.900672 
L 296.056938 268.587461 
L 320.085646 233.847463 
L 344.114354 196.85331 
L 368.143062 156.662582 
L 392.17177 245.136738 
L 416.200478 228.068877 
L 440.229187 189.950404 
L 464.257895 208.877348 
L 488.286603 171.943164 
L 512.315311 154.331791 
L 536.344019 113.266474 
L 560.372727 194.97881 
" clip-path="url(#p2a7a56f08b)" style="fill: none; stroke-dasharray: 3.7,1.6; stroke-dashoffset: 0; stroke: #7f7f7f; stroke-opacity: 0.6"/>
   </g>
   <g id="line2d_84">
    <path d="M 103.827273 113.976749 
L 127.855981 222.369418 
L 151.884689 206.145659 
L 175.913397 188.07527 
L 199.942105 167.837124 
L 223.970813 143.700036 
L 247.999522 242.545302 
L 272.02823 293.161434 
L 296.056938 258.89446 
L 320.085646 221.999561 
L 344.114354 181.043385 
L 368.143062 138.882374 
L 392.17177 230.95247 
L 416.200478 210.063109 
L 440.229187 167.082813 
L 464.257895 183.831848 
L 488.286603 142.366619 
L 512.315311 121.568088 
L 536.344019 78.292317 
L 560.372727 166.231323 
" clip-path="url(#p2a7a56f08b)" style="fill: none; stroke-dasharray: 3.7,1.6; stroke-dashoffset: 0; stroke: #bcbd22; stroke-opacity: 0.6"/>
   </g>
   <g id="line2d_85">
    <path d="M 103.827273 113.976749 
L 127.855981 221.553415 
L 151.884689 207.12962 
L 175.913397 187.864166 
L 199.942105 165.8886 
L 223.970813 140.951896 
L 247.999522 244.242756 
L 272.02823 297.265206 
L 296.056938 264.069447 
L 320.085646 227.054868 
L 344.114354 186.672287 
L 368.143062 143.439226 
L 392.17177 235.793148 
L 416.200478 215.372097 
L 440.229187 171.612754 
L 464.257895 191.569908 
L 488.286603 150.848423 
L 512.315311 131.150707 
L 536.344019 87.409016 
L 560.372727 178.563494 
" clip-path="url(#p2a7a56f08b)" style="fill: none; stroke-dasharray: 3.7,1.6; stroke-dashoffset: 0; stroke: #17becf; stroke-opacity: 0.6"/>
   </g>
   <g id="line2d_86">
    <path d="M 103.827273 113.976749 
L 127.855981 220.82199 
L 151.884689 207.096873 
L 175.913397 188.4991 
L 199.942105 166.637414 
L 223.970813 141.09007 
L 247.999522 239.691397 
L 272.02823 288.268122 
L 296.056938 253.32723 
L 320.085646 214.554003 
L 344.114354 173.344311 
L 368.143062 130.777725 
L 392.17177 224.722307 
L 416.200478 205.478191 
L 440.229187 166.261109 
L 464.257895 184.48329 
L 488.286603 146.161826 
L 512.315311 128.411818 
L 536.344019 88.699213 
L 560.372727 171.457203 
" clip-path="url(#p2a7a56f08b)" style="fill: none; stroke-dasharray: 3.7,1.6; stroke-dashoffset: 0; stroke: #1f77b4; stroke-opacity: 0.6"/>
   </g>
   <g id="line2d_87">
    <path d="M 103.827273 113.976749 
L 127.855981 220.89664 
L 151.884689 207.384902 
L 175.913397 190.502539 
L 199.942105 170.636497 
L 223.970813 146.596454 
L 247.999522 247.786316 
L 272.02823 299.757688 
L 296.056938 269.726821 
L 320.085646 235.984114 
L 344.114354 199.174571 
L 368.143062 161.52081 
L 392.17177 247.07084 
L 416.200478 230.295144 
L 440.229187 192.660058 
L 464.257895 210.295701 
L 488.286603 173.685308 
L 512.315311 155.397303 
L 536.344019 115.436478 
L 560.372727 195.801065 
" clip-path="url(#p2a7a56f08b)" style="fill: none; stroke-dasharray: 3.7,1.6; stroke-dashoffset: 0; stroke: #ff7f0e; stroke-opacity: 0.6"/>
   </g>
   <g id="line2d_88">
    <path d="M 103.827273 113.976749 
L 127.855981 221.746843 
L 151.884689 208.15334 
L 175.913397 191.020489 
L 199.942105 170.836962 
L 223.970813 146.808541 
L 247.999522 247.953497 
L 272.02823 299.128149 
L 296.056938 264.194781 
L 320.085646 225.440449 
L 344.114354 184.583545 
L 368.143062 141.879388 
L 392.17177 236.137347 
L 416.200478 215.225003 
L 440.229187 170.85044 
L 464.257895 189.964194 
L 488.286603 146.94216 
L 512.315311 125.526018 
L 536.344019 80.199758 
L 560.372727 173.978209 
" clip-path="url(#p2a7a56f08b)" style="fill: none; stroke-dasharray: 3.7,1.6; stroke-dashoffset: 0; stroke: #2ca02c; stroke-opacity: 0.6"/>
   </g>
   <g id="line2d_89">
    <path d="M 103.827273 113.976749 
L 127.855981 222.447562 
L 151.884689 209.151427 
L 175.913397 193.507911 
L 199.942105 174.758378 
L 223.970813 152.919738 
L 247.999522 254.519065 
L 272.02823 304.860174 
L 296.056938 274.011713 
L 320.085646 239.410073 
L 344.114354 202.002521 
L 368.143062 163.671403 
L 392.17177 250.19346 
L 416.200478 232.599187 
L 440.229187 194.807629 
L 464.257895 213.749283 
L 488.286603 177.221814 
L 512.315311 159.654753 
L 536.344019 118.774591 
L 560.372727 202.173726 
" clip-path="url(#p2a7a56f08b)" style="fill: none; stroke-dasharray: 3.7,1.6; stroke-dashoffset: 0; stroke: #d62728; stroke-opacity: 0.6"/>
   </g>
   <g id="line2d_90">
    <path d="M 103.827273 113.976749 
L 127.855981 221.241208 
L 151.884689 207.14784 
L 175.913397 189.58009 
L 199.942105 169.774553 
L 223.970813 145.597068 
L 247.999522 247.385948 
L 272.02823 300.859699 
L 296.056938 270.196572 
L 320.085646 236.519969 
L 344.114354 200.71289 
L 368.143062 161.136552 
L 392.17177 245.512747 
L 416.200478 227.657934 
L 440.229187 189.307419 
L 464.257895 208.064102 
L 488.286603 170.094745 
L 512.315311 151.720506 
L 536.344019 110.203611 
L 560.372727 192.610597 
" clip-path="url(#p2a7a56f08b)" style="fill: none; stroke-dasharray: 3.7,1.6; stroke-dashoffset: 0; stroke: #9467bd; stroke-opacity: 0.6"/>
   </g>
   <g id="line2d_91">
    <path d="M 103.827273 113.976749 
L 127.855981 220.399646 
L 151.884689 206.044752 
L 175.913397 185.8749 
L 199.942105 163.664258 
L 223.970813 139.263735 
L 247.999522 239.982849 
L 272.02823 290.36117 
L 296.056938 254.995198 
L 320.085646 214.741299 
L 344.114354 170.963871 
L 368.143062 125.352761 
L 392.17177 222.955525 
L 416.200478 200.301955 
L 440.229187 155.514978 
L 464.257895 172.655099 
L 488.286603 130.036838 
L 512.315311 108.058981 
L 536.344019 63.77911 
L 560.372727 157.315776 
" clip-path="url(#p2a7a56f08b)" style="fill: none; stroke-dasharray: 3.7,1.6; stroke-dashoffset: 0; stroke: #8c564b; stroke-opacity: 0.6"/>
   </g>
   <g id="line2d_92">
    <path d="M 103.827273 113.976749 
L 127.855981 221.594601 
L 151.884689 208.733261 
L 175.913397 192.209676 
L 199.942105 173.042537 
L 223.970813 150.437094 
L 247.999522 251.108522 
L 272.02823 302.833745 
L 296.056938 273.283155 
L 320.085646 240.139798 
L 344.114354 204.806489 
L 368.143062 167.117304 
L 392.17177 250.702405 
L 416.200478 235.203301 
L 440.229187 198.753976 
L 464.257895 216.131101 
L 488.286603 181.399098 
L 512.315311 164.744019 
L 536.344019 126.094353 
L 560.372727 201.705232 
" clip-path="url(#p2a7a56f08b)" style="fill: none; stroke-dasharray: 3.7,1.6; stroke-dashoffset: 0; stroke: #e377c2; stroke-opacity: 0.6"/>
   </g>
   <g id="line2d_93">
    <path d="M 103.827273 113.976749 
L 127.855981 222.55825 
L 151.884689 208.761307 
L 175.913397 191.865276 
L 199.942105 173.383003 
L 223.970813 150.056751 
L 247.999522 246.927266 
L 272.02823 294.306266 
L 296.056938 259.854042 
L 320.085646 221.946162 
L 344.114354 180.70635 
L 368.143062 138.735597 
L 392.17177 230.601467 
L 416.200478 209.44035 
L 440.229187 167.076561 
L 464.257895 183.34276 
L 488.286603 143.789017 
L 512.315311 124.178086 
L 536.344019 82.423267 
L 560.372727 169.852959 
" clip-path="url(#p2a7a56f08b)" style="fill: none; stroke-dasharray: 3.7,1.6; stroke-dashoffset: 0; stroke: #7f7f7f; stroke-opacity: 0.6"/>
   </g>
   <g id="line2d_94">
    <path d="M 103.827273 113.976749 
L 127.855981 221.566837 
L 151.884689 207.713934 
L 175.913397 190.364258 
L 199.942105 169.508998 
L 223.970813 147.679764 
L 247.999522 249.35353 
L 272.02823 301.683994 
L 296.056938 271.591383 
L 320.085646 238.384764 
L 344.114354 203.28149 
L 368.143062 165.9973 
L 392.17177 251.663112 
L 416.200478 235.655431 
L 440.229187 197.606459 
L 464.257895 216.2109 
L 488.286603 179.458561 
L 512.315311 161.406458 
L 536.344019 120.168857 
L 560.372727 201.903808 
" clip-path="url(#p2a7a56f08b)" style="fill: none; stroke-dasharray: 3.7,1.6; stroke-dashoffset: 0; stroke: #bcbd22; stroke-opacity: 0.6"/>
   </g>
   <g id="line2d_95">
    <path d="M 103.827273 113.976749 
L 127.855981 222.438185 
L 151.884689 210.043011 
L 175.913397 192.915669 
L 199.942105 174.724939 
L 223.970813 151.812317 
L 247.999522 251.540961 
L 272.02823 301.262045 
L 296.056938 269.121985 
L 320.085646 232.530583 
L 344.114354 193.706155 
L 368.143062 153.799545 
L 392.17177 240.079097 
L 416.200478 220.953576 
L 440.229187 181.405717 
L 464.257895 198.225357 
L 488.286603 159.821705 
L 512.315311 140.013116 
L 536.344019 98.659679 
L 560.372727 181.141132 
" clip-path="url(#p2a7a56f08b)" style="fill: none; stroke-dasharray: 3.7,1.6; stroke-dashoffset: 0; stroke: #17becf; stroke-opacity: 0.6"/>
   </g>
   <g id="line2d_96">
    <path d="M 103.827273 113.976749 
L 127.855981 219.617658 
L 151.884689 201.815106 
L 175.913397 182.653661 
L 199.942105 160.624073 
L 223.970813 135.837141 
L 247.999522 237.4072 
L 272.02823 288.506229 
L 296.056938 252.68584 
L 320.085646 212.721554 
L 344.114354 170.980165 
L 368.143062 125.35598 
L 392.17177 220.942728 
L 416.200478 198.019058 
L 440.229187 153.684394 
L 464.257895 170.922516 
L 488.286603 128.597891 
L 512.315311 107.660541 
L 536.344019 64.306074 
L 560.372727 156.515952 
" clip-path="url(#p2a7a56f08b)" style="fill: none; stroke-dasharray: 3.7,1.6; stroke-dashoffset: 0; stroke: #1f77b4; stroke-opacity: 0.6"/>
   </g>
   <g id="line2d_97">
    <path d="M 103.827273 113.976749 
L 127.855981 221.150561 
L 151.884689 206.783894 
L 175.913397 190.21804 
L 199.942105 169.360947 
L 223.970813 144.607746 
L 247.999522 245.655953 
L 272.02823 296.79141 
L 296.056938 262.945125 
L 320.085646 225.870748 
L 344.114354 185.233135 
L 368.143062 143.477583 
L 392.17177 236.489637 
L 416.200478 216.535058 
L 440.229187 174.856727 
L 464.257895 194.008725 
L 488.286603 154.700078 
L 512.315311 135.318613 
L 536.344019 92.761028 
L 560.372727 182.784171 
" clip-path="url(#p2a7a56f08b)" style="fill: none; stroke-dasharray: 3.7,1.6; stroke-dashoffset: 0; stroke: #ff7f0e; stroke-opacity: 0.6"/>
   </g>
   <g id="line2d_98">
    <path d="M 103.827273 113.976749 
L 127.855981 221.266949 
L 151.884689 206.352214 
L 175.913397 189.230942 
L 199.942105 169.87277 
L 223.970813 148.039317 
L 247.999522 249.172319 
L 272.02823 299.219012 
L 296.056938 267.326883 
L 320.085646 231.516423 
L 344.114354 193.036702 
L 368.143062 152.526904 
L 392.17177 240.859063 
L 416.200478 221.544894 
L 440.229187 180.388746 
L 464.257895 197.397218 
L 488.286603 157.172175 
L 512.315311 137.436582 
L 536.344019 94.683914 
L 560.372727 180.291297 
" clip-path="url(#p2a7a56f08b)" style="fill: none; stroke-dasharray: 3.7,1.6; stroke-dashoffset: 0; stroke: #2ca02c; stroke-opacity: 0.6"/>
   </g>
   <g id="line2d_99">
    <path d="M 103.827273 113.976749 
L 127.855981 220.420791 
L 151.884689 203.686074 
L 175.913397 185.403911 
L 199.942105 162.343085 
L 223.970813 137.829935 
L 247.999522 236.049248 
L 272.02823 286.267113 
L 296.056938 251.600067 
L 320.085646 213.97934 
L 344.114354 174.109433 
L 368.143062 133.303218 
L 392.17177 225.623441 
L 416.200478 206.051673 
L 440.229187 167.243697 
L 464.257895 184.614939 
L 488.286603 148.321901 
L 512.315311 130.457894 
L 536.344019 90.853404 
L 560.372727 173.559175 
" clip-path="url(#p2a7a56f08b)" style="fill: none; stroke-dasharray: 3.7,1.6; stroke-dashoffset: 0; stroke: #d62728; stroke-opacity: 0.6"/>
   </g>
   <g id="line2d_100">
    <path d="M 103.827273 113.976749 
L 127.855981 219.506235 
L 151.884689 206.455689 
L 175.913397 189.568614 
L 199.942105 170.527826 
L 223.970813 149.448847 
L 247.999522 250.759318 
L 272.02823 302.76809 
L 296.056938 273.789067 
L 320.085646 241.638091 
L 344.114354 207.074653 
L 368.143062 170.766007 
L 392.17177 252.612052 
L 416.200478 236.81398 
L 440.229187 200.537122 
L 464.257895 216.249696 
L 488.286603 180.924168 
L 512.315311 163.879842 
L 536.344019 124.9974 
L 560.372727 199.853503 
" clip-path="url(#p2a7a56f08b)" style="fill: none; stroke-dasharray: 3.7,1.6; stroke-dashoffset: 0; stroke: #9467bd; stroke-opacity: 0.6"/>
   </g>
   <g id="line2d_101">
    <path d="M 103.827273 113.976749 
L 127.855981 221.430223 
L 151.884689 206.123282 
L 175.913397 187.61741 
L 199.942105 167.044133 
L 223.970813 144.228984 
L 247.999522 245.901108 
L 272.02823 297.590474 
L 296.056938 265.498155 
L 320.085646 229.007893 
L 344.114354 189.743829 
L 368.143062 149.703575 
L 392.17177 240.033682 
L 416.200478 221.392284 
L 440.229187 180.981719 
L 464.257895 199.667061 
L 488.286603 160.524998 
L 512.315311 141.673071 
L 536.344019 99.368856 
L 560.372727 184.506273 
" clip-path="url(#p2a7a56f08b)" style="fill: none; stroke-dasharray: 3.7,1.6; stroke-dashoffset: 0; stroke: #8c564b; stroke-opacity: 0.6"/>
   </g>
   <g id="line2d_102">
    <path d="M 103.827273 113.976749 
L 127.855981 221.189357 
L 151.884689 206.075221 
L 175.913397 186.368278 
L 199.942105 163.692372 
L 223.970813 136.768822 
L 247.999522 237.423911 
L 272.02823 286.853087 
L 296.056938 250.831466 
L 320.085646 211.788705 
L 344.114354 170.36385 
L 368.143062 125.918366 
L 392.17177 222.913787 
L 416.200478 201.896638 
L 440.229187 158.706549 
L 464.257895 178.387166 
L 488.286603 137.543041 
L 512.315311 117.999222 
L 536.344019 75.522355 
L 560.372727 166.792302 
" clip-path="url(#p2a7a56f08b)" style="fill: none; stroke-dasharray: 3.7,1.6; stroke-dashoffset: 0; stroke: #e377c2; stroke-opacity: 0.6"/>
   </g>
   <g id="line2d_103">
    <path d="M 103.827273 113.976749 
L 127.855981 219.249004 
L 151.884689 202.837861 
L 175.913397 183.04088 
L 199.942105 161.883705 
L 223.970813 135.817808 
L 247.999522 236.093554 
L 272.02823 286.560153 
L 296.056938 251.127634 
L 320.085646 214.352286 
L 344.114354 175.558376 
L 368.143062 135.708357 
L 392.17177 228.414916 
L 416.200478 210.583454 
L 440.229187 172.045578 
L 464.257895 190.304532 
L 488.286603 153.47883 
L 512.315311 135.790233 
L 536.344019 95.579532 
L 560.372727 176.658812 
" clip-path="url(#p2a7a56f08b)" style="fill: none; stroke-dasharray: 3.7,1.6; stroke-dashoffset: 0; stroke: #7f7f7f; stroke-opacity: 0.6"/>
   </g>
   <g id="line2d_104">
    <path d="M 103.827273 113.976749 
L 127.855981 221.490348 
L 151.884689 206.479727 
L 175.913397 187.638682 
L 199.942105 166.419346 
L 223.970813 141.969346 
L 247.999522 242.614329 
L 272.02823 293.177431 
L 296.056938 258.806775 
L 320.085646 222.369987 
L 344.114354 181.566704 
L 368.143062 140.40641 
L 392.17177 232.531707 
L 416.200478 212.741689 
L 440.229187 172.674221 
L 464.257895 190.663625 
L 488.286603 152.921344 
L 512.315311 134.359193 
L 536.344019 94.251274 
L 560.372727 179.305216 
" clip-path="url(#p2a7a56f08b)" style="fill: none; stroke-dasharray: 3.7,1.6; stroke-dashoffset: 0; stroke: #bcbd22; stroke-opacity: 0.6"/>
   </g>
   <g id="line2d_105">
    <path d="M 103.827273 113.976749 
L 127.855981 221.985871 
L 151.884689 207.496454 
L 175.913397 189.318477 
L 199.942105 168.897152 
L 223.970813 145.347112 
L 247.999522 247.310011 
L 272.02823 297.085412 
L 296.056938 264.284033 
L 320.085646 228.034769 
L 344.114354 189.864007 
L 368.143062 150.00425 
L 392.17177 241.651899 
L 416.200478 224.322579 
L 440.229187 184.794945 
L 464.257895 203.523313 
L 488.286603 165.533362 
L 512.315311 146.516507 
L 536.344019 105.24342 
L 560.372727 189.722408 
" clip-path="url(#p2a7a56f08b)" style="fill: none; stroke-dasharray: 3.7,1.6; stroke-dashoffset: 0; stroke: #17becf; stroke-opacity: 0.6"/>
   </g>
   <g id="line2d_106">
    <path d="M 103.827273 113.976749 
L 127.855981 220.9803 
L 151.884689 206.418024 
L 175.913397 187.723195 
L 199.942105 165.650162 
L 223.970813 140.453506 
L 247.999522 241.163766 
L 272.02823 290.95228 
L 296.056938 253.996681 
L 320.085646 213.770837 
L 344.114354 172.220856 
L 368.143062 129.596965 
L 392.17177 228.137828 
L 416.200478 207.831326 
L 440.229187 166.719675 
L 464.257895 187.679089 
L 488.286603 147.263376 
L 512.315311 128.512025 
L 536.344019 86.248996 
L 560.372727 177.878588 
" clip-path="url(#p2a7a56f08b)" style="fill: none; stroke-dasharray: 3.7,1.6; stroke-dashoffset: 0; stroke: #1f77b4; stroke-opacity: 0.6"/>
   </g>
   <g id="line2d_107">
    <path d="M 103.827273 113.976749 
L 127.855981 222.046731 
L 151.884689 208.192133 
L 175.913397 191.324467 
L 199.942105 169.221335 
L 223.970813 145.144381 
L 247.999522 247.447474 
L 272.02823 299.150674 
L 296.056938 267.675084 
L 320.085646 232.708341 
L 344.114354 195.181297 
L 368.143062 155.475025 
L 392.17177 244.537698 
L 416.200478 226.912351 
L 440.229187 188.446368 
L 464.257895 207.979523 
L 488.286603 170.088677 
L 512.315311 152.133289 
L 536.344019 111.474319 
L 560.372727 196.472549 
" clip-path="url(#p2a7a56f08b)" style="fill: none; stroke-dasharray: 3.7,1.6; stroke-dashoffset: 0; stroke: #ff7f0e; stroke-opacity: 0.6"/>
   </g>
   <g id="line2d_108">
    <path d="M 103.827273 113.976749 
L 127.855981 222.572775 
L 151.884689 207.887735 
L 175.913397 190.024731 
L 199.942105 170.426478 
L 223.970813 144.739673 
L 247.999522 245.459208 
L 272.02823 296.462557 
L 296.056938 264.633726 
L 320.085646 229.883285 
L 344.114354 189.904696 
L 368.143062 147.146759 
L 392.17177 235.532975 
L 416.200478 215.061729 
L 440.229187 172.975028 
L 464.257895 190.189983 
L 488.286603 151.186923 
L 512.315311 131.759859 
L 536.344019 89.252838 
L 560.372727 175.276313 
" clip-path="url(#p2a7a56f08b)" style="fill: none; stroke-dasharray: 3.7,1.6; stroke-dashoffset: 0; stroke: #2ca02c; stroke-opacity: 0.6"/>
   </g>
   <g id="line2d_109">
    <path d="M 103.827273 113.976749 
L 127.855981 222.42182 
L 151.884689 209.309033 
L 175.913397 192.800933 
L 199.942105 173.501858 
L 223.970813 149.183632 
L 247.999522 245.986694 
L 272.02823 294.802001 
L 296.056938 262.439265 
L 320.085646 225.738734 
L 344.114354 185.550346 
L 368.143062 143.202002 
L 392.17177 232.375052 
L 416.200478 213.42108 
L 440.229187 174.446703 
L 464.257895 192.33259 
L 488.286603 155.670162 
L 512.315311 137.96042 
L 536.344019 98.690385 
L 560.372727 179.544979 
" clip-path="url(#p2a7a56f08b)" style="fill: none; stroke-dasharray: 3.7,1.6; stroke-dashoffset: 0; stroke: #d62728; stroke-opacity: 0.6"/>
   </g>
   <g id="line2d_110">
    <path d="M 103.827273 113.976749 
L 127.855981 219.160932 
L 151.884689 204.325641 
L 175.913397 185.340328 
L 199.942105 164.53195 
L 223.970813 139.154013 
L 247.999522 240.324838 
L 272.02823 290.945136 
L 296.056938 258.005552 
L 320.085646 222.480072 
L 344.114354 184.854169 
L 368.143062 145.06522 
L 392.17177 235.884162 
L 416.200478 218.066674 
L 440.229187 179.946361 
L 464.257895 198.648068 
L 488.286603 161.366007 
L 512.315311 143.324936 
L 536.344019 104.44378 
L 560.372727 187.201402 
" clip-path="url(#p2a7a56f08b)" style="fill: none; stroke-dasharray: 3.7,1.6; stroke-dashoffset: 0; stroke: #9467bd; stroke-opacity: 0.6"/>
   </g>
   <g id="line2d_111">
    <path d="M 103.827273 113.976749 
L 127.855981 220.018305 
L 151.884689 204.300134 
L 175.913397 186.284532 
L 199.942105 165.463758 
L 223.970813 141.597694 
L 247.999522 244.327117 
L 272.02823 296.201604 
L 296.056938 264.06678 
L 320.085646 227.669667 
L 344.114354 188.713545 
L 368.143062 147.57177 
L 392.17177 239.66705 
L 416.200478 221.385664 
L 440.229187 181.220011 
L 464.257895 201.270385 
L 488.286603 162.837682 
L 512.315311 144.801943 
L 536.344019 104.363246 
L 560.372727 190.929865 
" clip-path="url(#p2a7a56f08b)" style="fill: none; stroke-dasharray: 3.7,1.6; stroke-dashoffset: 0; stroke: #8c564b; stroke-opacity: 0.6"/>
   </g>
   <g id="line2d_112">
    <path d="M 103.827273 113.976749 
L 127.855981 222.008302 
L 151.884689 207.385738 
L 175.913397 190.491127 
L 199.942105 171.392483 
L 223.970813 148.340923 
L 247.999522 248.432315 
L 272.02823 298.321314 
L 296.056938 264.011053 
L 320.085646 224.758924 
L 344.114354 182.545533 
L 368.143062 139.298135 
L 392.17177 235.439387 
L 416.200478 214.270363 
L 440.229187 171.932132 
L 464.257895 192.14339 
L 488.286603 151.722529 
L 512.315311 132.679564 
L 536.344019 89.420709 
L 560.372727 182.102575 
" clip-path="url(#p2a7a56f08b)" style="fill: none; stroke-dasharray: 3.7,1.6; stroke-dashoffset: 0; stroke: #e377c2; stroke-opacity: 0.6"/>
   </g>
   <g id="line2d_113">
    <path d="M 103.827273 113.976749 
L 127.855981 220.985632 
L 151.884689 204.895779 
L 175.913397 184.361728 
L 199.942105 162.895204 
L 223.970813 138.339143 
L 247.999522 242.032594 
L 272.02823 294.142177 
L 296.056938 261.758743 
L 320.085646 225.930656 
L 344.114354 186.815602 
L 368.143062 146.102798 
L 392.17177 238.204385 
L 416.200478 218.856936 
L 440.229187 178.730814 
L 464.257895 197.285427 
L 488.286603 158.92958 
L 512.315311 140.169403 
L 536.344019 99.456377 
L 560.372727 186.288868 
" clip-path="url(#p2a7a56f08b)" style="fill: none; stroke-dasharray: 3.7,1.6; stroke-dashoffset: 0; stroke: #7f7f7f; stroke-opacity: 0.6"/>
   </g>
   <g id="line2d_114">
    <path d="M 103.827273 113.976749 
L 127.855981 221.510206 
L 151.884689 204.723585 
L 175.913397 186.390537 
L 199.942105 164.8686 
L 223.970813 138.781621 
L 247.999522 240.567656 
L 272.02823 291.696274 
L 296.056938 258.825222 
L 320.085646 222.990502 
L 344.114354 182.577311 
L 368.143062 141.778503 
L 392.17177 235.246142 
L 416.200478 216.868226 
L 440.229187 176.974696 
L 464.257895 196.112352 
L 488.286603 158.306086 
L 512.315311 139.695393 
L 536.344019 99.439277 
L 560.372727 185.556892 
" clip-path="url(#p2a7a56f08b)" style="fill: none; stroke-dasharray: 3.7,1.6; stroke-dashoffset: 0; stroke: #bcbd22; stroke-opacity: 0.6"/>
   </g>
   <g id="line2d_115">
    <path d="M 103.827273 113.976749 
L 127.855981 221.759898 
L 151.884689 208.317517 
L 175.913397 190.751416 
L 199.942105 172.123439 
L 223.970813 150.639085 
L 247.999522 252.295528 
L 272.02823 305.463961 
L 296.056938 277.596352 
L 320.085646 245.412222 
L 344.114354 209.662074 
L 368.143062 171.89781 
L 392.17177 253.453429 
L 416.200478 237.367972 
L 440.229187 199.640952 
L 464.257895 216.641517 
L 488.286603 181.277378 
L 512.315311 163.508063 
L 536.344019 124.037612 
L 560.372727 201.722883 
" clip-path="url(#p2a7a56f08b)" style="fill: none; stroke-dasharray: 3.7,1.6; stroke-dashoffset: 0; stroke: #17becf; stroke-opacity: 0.6"/>
   </g>
   <g id="line2d_116">
    <path d="M 103.827273 113.976749 
L 127.855981 221.229162 
L 151.884689 206.739116 
L 175.913397 188.908393 
L 199.942105 168.343874 
L 223.970813 144.730094 
L 247.999522 245.406093 
L 272.02823 296.194826 
L 296.056938 263.900644 
L 320.085646 228.049911 
L 344.114354 189.494509 
L 368.143062 149.111345 
L 392.17177 238.548855 
L 416.200478 219.979264 
L 440.229187 180.38864 
L 464.257895 198.368933 
L 488.286603 160.443592 
L 512.315311 141.909247 
L 536.344019 100.979698 
L 560.372727 184.791544 
" clip-path="url(#p2a7a56f08b)" style="fill: none; stroke: #000000; stroke-width: 2.5; stroke-linecap: square"/>
   </g>
   <g id="patch_3">
    <path d="M 81 320.4 
L 81 43.2 
" style="fill: none; stroke: #000000; stroke-width: 0.8; stroke-linejoin: miter; stroke-linecap: square"/>
   </g>
   <g id="patch_4">
    <path d="M 583.2 320.4 
L 583.2 43.2 
" style="fill: none; stroke: #000000; stroke-width: 0.8; stroke-linejoin: miter; stroke-linecap: square"/>
   </g>
   <g id="patch_5">
    <path d="M 81 320.4 
L 583.2 320.4 
" style="fill: none; stroke: #000000; stroke-width: 0.8; stroke-linejoin: miter; stroke-linecap: square"/>
   </g>
   <g id="patch_6">
    <path d="M 81 43.2 
L 583.2 43.2 
" style="fill: none; stroke: #000000; stroke-width: 0.8; stroke-linejoin: miter; stroke-linecap: square"/>
   </g>
   <g id="legend_1">
    <g id="patch_7">
     <path d="M 88 65.878125 
L 161.065625 65.878125 
Q 163.065625 65.878125 163.065625 63.878125 
L 163.065625 50.2 
Q 163.065625 48.2 161.065625 48.2 
L 88 48.2 
Q 86 48.2 86 50.2 
L 86 63.878125 
Q 86 65.878125 88 65.878125 
z
" style="fill: #ffffff; opacity: 0.8; stroke: #cccccc; stroke-linejoin: miter"/>
    </g>
    <g id="line2d_117">
     <path d="M 90 56.298437 
L 100 56.298437 
L 110 56.298437 
" style="fill: none; stroke: #000000; stroke-width: 2.5; stroke-linecap: square"/>
    </g>
    <g id="text_18">
     <!-- Average -->
     <g transform="translate(118 59.798437) scale(0.1 -0.1)">
      <defs>
       <path id="DejaVuSans-41" d="M 2188 4044 
L 1331 1722 
L 3047 1722 
L 2188 4044 
z
M 1831 4666 
L 2547 4666 
L 4325 0 
L 3669 0 
L 3244 1197 
L 1141 1197 
L 716 0 
L 50 0 
L 1831 4666 
z
" transform="scale(0.015625)"/>
       <path id="DejaVuSans-67" d="M 2906 1791 
Q 2906 2416 2648 2759 
Q 2391 3103 1925 3103 
Q 1463 3103 1205 2759 
Q 947 2416 947 1791 
Q 947 1169 1205 825 
Q 1463 481 1925 481 
Q 2391 481 2648 825 
Q 2906 1169 2906 1791 
z
M 3481 434 
Q 3481 -459 3084 -895 
Q 2688 -1331 1869 -1331 
Q 1566 -1331 1297 -1286 
Q 1028 -1241 775 -1147 
L 775 -588 
Q 1028 -725 1275 -790 
Q 1522 -856 1778 -856 
Q 2344 -856 2625 -561 
Q 2906 -266 2906 331 
L 2906 616 
Q 2728 306 2450 153 
Q 2172 0 1784 0 
Q 1141 0 747 490 
Q 353 981 353 1791 
Q 353 2603 747 3093 
Q 1141 3584 1784 3584 
Q 2172 3584 2450 3431 
Q 2728 3278 2906 2969 
L 2906 3500 
L 3481 3500 
L 3481 434 
z
" transform="scale(0.015625)"/>
      </defs>
      <use xlink:href="#DejaVuSans-41"/>
      <use xlink:href="#DejaVuSans-76" x="62.533203"/>
      <use xlink:href="#DejaVuSans-65" x="121.712891"/>
      <use xlink:href="#DejaVuSans-72" x="183.236328"/>
      <use xlink:href="#DejaVuSans-61" x="224.349609"/>
      <use xlink:href="#DejaVuSans-67" x="285.628906"/>
      <use xlink:href="#DejaVuSans-65" x="349.105469"/>
     </g>
    </g>
   </g>
  </g>
 </g>
 <defs>
  <clipPath id="p2a7a56f08b">
   <rect x="81" y="43.2" width="502.2" height="277.2"/>
  </clipPath>
 </defs>
</svg>
