<?xml version="1.0" encoding="utf-8" standalone="no"?>
<!DOCTYPE svg PUBLIC "-//W3C//DTD SVG 1.1//EN"
  "http://www.w3.org/Graphics/SVG/1.1/DTD/svg11.dtd">
<svg xmlns:xlink="http://www.w3.org/1999/xlink" width="648pt" height="360pt" viewBox="0 0 648 360" xmlns="http://www.w3.org/2000/svg" version="1.1">
 <metadata>
  <rdf:RDF xmlns:dc="http://purl.org/dc/elements/1.1/" xmlns:cc="http://creativecommons.org/ns#" xmlns:rdf="http://www.w3.org/1999/02/22-rdf-syntax-ns#">
   <cc:Work>
    <dc:type rdf:resource="http://purl.org/dc/dcmitype/StillImage"/>
    <dc:date>2025-08-28T15:18:39.586731</dc:date>
    <dc:format>image/svg+xml</dc:format>
    <dc:creator>
     <cc:Agent>
      <dc:title>Matplotlib v3.8.0, https://matplotlib.org/</dc:title>
     </cc:Agent>
    </dc:creator>
   </cc:Work>
  </rdf:RDF>
 </metadata>
 <defs>
  <style type="text/css">*{stroke-linejoin: round; stroke-linecap: butt}</style>
 </defs>
 <g id="figure_1">
  <g id="patch_1">
   <path d="M 0 360 
L 648 360 
L 648 0 
L 0 0 
z
" style="fill: #ffffff"/>
  </g>
  <g id="axes_1">
   <g id="patch_2">
    <path d="M 81 320.4 
L 583.2 320.4 
L 583.2 43.2 
L 81 43.2 
z
" style="fill: #ffffff"/>
   </g>
   <g id="matplotlib.axis_1">
    <g id="xtick_1">
     <g id="line2d_1">
      <defs>
       <path id="m2a3b56f39e" d="M 0 0 
L 0 3.5 
" style="stroke: #000000; stroke-width: 0.8"/>
      </defs>
      <g>
       <use xlink:href="#m2a3b56f39e" x="103.827273" y="320.4" style="stroke: #000000; stroke-width: 0.8"/>
      </g>
     </g>
     <g id="text_1">
      <!-- 2005 -->
      <g transform="translate(88.557273 336.518125) scale(0.12 -0.12)">
       <defs>
        <path id="DejaVuSans-32" d="M 1228 531 
L 3431 531 
L 3431 0 
L 469 0 
L 469 531 
Q 828 903 1448 1529 
Q 2069 2156 2228 2338 
Q 2531 2678 2651 2914 
Q 2772 3150 2772 3378 
Q 2772 3750 2511 3984 
Q 2250 4219 1831 4219 
Q 1534 4219 1204 4116 
Q 875 4013 500 3803 
L 500 4441 
Q 881 4594 1212 4672 
Q 1544 4750 1819 4750 
Q 2544 4750 2975 4387 
Q 3406 4025 3406 3419 
Q 3406 3131 3298 2873 
Q 3191 2616 2906 2266 
Q 2828 2175 2409 1742 
Q 1991 1309 1228 531 
z
" transform="scale(0.015625)"/>
        <path id="DejaVuSans-30" d="M 2034 4250 
Q 1547 4250 1301 3770 
Q 1056 3291 1056 2328 
Q 1056 1369 1301 889 
Q 1547 409 2034 409 
Q 2525 409 2770 889 
Q 3016 1369 3016 2328 
Q 3016 3291 2770 3770 
Q 2525 4250 2034 4250 
z
M 2034 4750 
Q 2819 4750 3233 4129 
Q 3647 3509 3647 2328 
Q 3647 1150 3233 529 
Q 2819 -91 2034 -91 
Q 1250 -91 836 529 
Q 422 1150 422 2328 
Q 422 3509 836 4129 
Q 1250 4750 2034 4750 
z
" transform="scale(0.015625)"/>
        <path id="DejaVuSans-35" d="M 691 4666 
L 3169 4666 
L 3169 4134 
L 1269 4134 
L 1269 2991 
Q 1406 3038 1543 3061 
Q 1681 3084 1819 3084 
Q 2600 3084 3056 2656 
Q 3513 2228 3513 1497 
Q 3513 744 3044 326 
Q 2575 -91 1722 -91 
Q 1428 -91 1123 -41 
Q 819 9 494 109 
L 494 744 
Q 775 591 1075 516 
Q 1375 441 1709 441 
Q 2250 441 2565 725 
Q 2881 1009 2881 1497 
Q 2881 1984 2565 2268 
Q 2250 2553 1709 2553 
Q 1456 2553 1204 2497 
Q 953 2441 691 2322 
L 691 4666 
z
" transform="scale(0.015625)"/>
       </defs>
       <use xlink:href="#DejaVuSans-32"/>
       <use xlink:href="#DejaVuSans-30" x="63.623047"/>
       <use xlink:href="#DejaVuSans-30" x="127.246094"/>
       <use xlink:href="#DejaVuSans-35" x="190.869141"/>
      </g>
     </g>
    </g>
    <g id="xtick_2">
     <g id="line2d_2">
      <g>
       <use xlink:href="#m2a3b56f39e" x="163.899043" y="320.4" style="stroke: #000000; stroke-width: 0.8"/>
      </g>
     </g>
     <g id="text_2">
      <!-- 2007 -->
      <g transform="translate(148.629043 336.518125) scale(0.12 -0.12)">
       <defs>
        <path id="DejaVuSans-37" d="M 525 4666 
L 3525 4666 
L 3525 4397 
L 1831 0 
L 1172 0 
L 2766 4134 
L 525 4134 
L 525 4666 
z
" transform="scale(0.015625)"/>
       </defs>
       <use xlink:href="#DejaVuSans-32"/>
       <use xlink:href="#DejaVuSans-30" x="63.623047"/>
       <use xlink:href="#DejaVuSans-30" x="127.246094"/>
       <use xlink:href="#DejaVuSans-37" x="190.869141"/>
      </g>
     </g>
    </g>
    <g id="xtick_3">
     <g id="line2d_3">
      <g>
       <use xlink:href="#m2a3b56f39e" x="223.970813" y="320.4" style="stroke: #000000; stroke-width: 0.8"/>
      </g>
     </g>
     <g id="text_3">
      <!-- 2010 -->
      <g transform="translate(208.700813 336.518125) scale(0.12 -0.12)">
       <defs>
        <path id="DejaVuSans-31" d="M 794 531 
L 1825 531 
L 1825 4091 
L 703 3866 
L 703 4441 
L 1819 4666 
L 2450 4666 
L 2450 531 
L 3481 531 
L 3481 0 
L 794 0 
L 794 531 
z
" transform="scale(0.015625)"/>
       </defs>
       <use xlink:href="#DejaVuSans-32"/>
       <use xlink:href="#DejaVuSans-30" x="63.623047"/>
       <use xlink:href="#DejaVuSans-31" x="127.246094"/>
       <use xlink:href="#DejaVuSans-30" x="190.869141"/>
      </g>
     </g>
    </g>
    <g id="xtick_4">
     <g id="line2d_4">
      <g>
       <use xlink:href="#m2a3b56f39e" x="284.042584" y="320.4" style="stroke: #000000; stroke-width: 0.8"/>
      </g>
     </g>
     <g id="text_4">
      <!-- 2012 -->
      <g transform="translate(268.772584 336.518125) scale(0.12 -0.12)">
       <use xlink:href="#DejaVuSans-32"/>
       <use xlink:href="#DejaVuSans-30" x="63.623047"/>
       <use xlink:href="#DejaVuSans-31" x="127.246094"/>
       <use xlink:href="#DejaVuSans-32" x="190.869141"/>
      </g>
     </g>
    </g>
    <g id="xtick_5">
     <g id="line2d_5">
      <g>
       <use xlink:href="#m2a3b56f39e" x="344.114354" y="320.4" style="stroke: #000000; stroke-width: 0.8"/>
      </g>
     </g>
     <g id="text_5">
      <!-- 2015 -->
      <g transform="translate(328.844354 336.518125) scale(0.12 -0.12)">
       <use xlink:href="#DejaVuSans-32"/>
       <use xlink:href="#DejaVuSans-30" x="63.623047"/>
       <use xlink:href="#DejaVuSans-31" x="127.246094"/>
       <use xlink:href="#DejaVuSans-35" x="190.869141"/>
      </g>
     </g>
    </g>
    <g id="xtick_6">
     <g id="line2d_6">
      <g>
       <use xlink:href="#m2a3b56f39e" x="404.186124" y="320.4" style="stroke: #000000; stroke-width: 0.8"/>
      </g>
     </g>
     <g id="text_6">
      <!-- 2017 -->
      <g transform="translate(388.916124 336.518125) scale(0.12 -0.12)">
       <use xlink:href="#DejaVuSans-32"/>
       <use xlink:href="#DejaVuSans-30" x="63.623047"/>
       <use xlink:href="#DejaVuSans-31" x="127.246094"/>
       <use xlink:href="#DejaVuSans-37" x="190.869141"/>
      </g>
     </g>
    </g>
    <g id="xtick_7">
     <g id="line2d_7">
      <g>
       <use xlink:href="#m2a3b56f39e" x="464.257895" y="320.4" style="stroke: #000000; stroke-width: 0.8"/>
      </g>
     </g>
     <g id="text_7">
      <!-- 2020 -->
      <g transform="translate(448.987895 336.518125) scale(0.12 -0.12)">
       <use xlink:href="#DejaVuSans-32"/>
       <use xlink:href="#DejaVuSans-30" x="63.623047"/>
       <use xlink:href="#DejaVuSans-32" x="127.246094"/>
       <use xlink:href="#DejaVuSans-30" x="190.869141"/>
      </g>
     </g>
    </g>
    <g id="xtick_8">
     <g id="line2d_8">
      <g>
       <use xlink:href="#m2a3b56f39e" x="524.329665" y="320.4" style="stroke: #000000; stroke-width: 0.8"/>
      </g>
     </g>
     <g id="text_8">
      <!-- 2022 -->
      <g transform="translate(509.059665 336.518125) scale(0.12 -0.12)">
       <use xlink:href="#DejaVuSans-32"/>
       <use xlink:href="#DejaVuSans-30" x="63.623047"/>
       <use xlink:href="#DejaVuSans-32" x="127.246094"/>
       <use xlink:href="#DejaVuSans-32" x="190.869141"/>
      </g>
     </g>
    </g>
    <g id="text_9">
     <!-- Year -->
     <g transform="translate(316.21875 354.411406) scale(0.15 -0.15)">
      <defs>
       <path id="DejaVuSans-59" d="M -13 4666 
L 666 4666 
L 1959 2747 
L 3244 4666 
L 3922 4666 
L 2272 2222 
L 2272 0 
L 1638 0 
L 1638 2222 
L -13 4666 
z
" transform="scale(0.015625)"/>
       <path id="DejaVuSans-65" d="M 3597 1894 
L 3597 1613 
L 953 1613 
Q 991 1019 1311 708 
Q 1631 397 2203 397 
Q 2534 397 2845 478 
Q 3156 559 3463 722 
L 3463 178 
Q 3153 47 2828 -22 
Q 2503 -91 2169 -91 
Q 1331 -91 842 396 
Q 353 884 353 1716 
Q 353 2575 817 3079 
Q 1281 3584 2069 3584 
Q 2775 3584 3186 3129 
Q 3597 2675 3597 1894 
z
M 3022 2063 
Q 3016 2534 2758 2815 
Q 2500 3097 2075 3097 
Q 1594 3097 1305 2825 
Q 1016 2553 972 2059 
L 3022 2063 
z
" transform="scale(0.015625)"/>
       <path id="DejaVuSans-61" d="M 2194 1759 
Q 1497 1759 1228 1600 
Q 959 1441 959 1056 
Q 959 750 1161 570 
Q 1363 391 1709 391 
Q 2188 391 2477 730 
Q 2766 1069 2766 1631 
L 2766 1759 
L 2194 1759 
z
M 3341 1997 
L 3341 0 
L 2766 0 
L 2766 531 
Q 2569 213 2275 61 
Q 1981 -91 1556 -91 
Q 1019 -91 701 211 
Q 384 513 384 1019 
Q 384 1609 779 1909 
Q 1175 2209 1959 2209 
L 2766 2209 
L 2766 2266 
Q 2766 2663 2505 2880 
Q 2244 3097 1772 3097 
Q 1472 3097 1187 3025 
Q 903 2953 641 2809 
L 641 3341 
Q 956 3463 1253 3523 
Q 1550 3584 1831 3584 
Q 2591 3584 2966 3190 
Q 3341 2797 3341 1997 
z
" transform="scale(0.015625)"/>
       <path id="DejaVuSans-72" d="M 2631 2963 
Q 2534 3019 2420 3045 
Q 2306 3072 2169 3072 
Q 1681 3072 1420 2755 
Q 1159 2438 1159 1844 
L 1159 0 
L 581 0 
L 581 3500 
L 1159 3500 
L 1159 2956 
Q 1341 3275 1631 3429 
Q 1922 3584 2338 3584 
Q 2397 3584 2469 3576 
Q 2541 3569 2628 3553 
L 2631 2963 
z
" transform="scale(0.015625)"/>
      </defs>
      <use xlink:href="#DejaVuSans-59"/>
      <use xlink:href="#DejaVuSans-65" x="47.833984"/>
      <use xlink:href="#DejaVuSans-61" x="109.357422"/>
      <use xlink:href="#DejaVuSans-72" x="170.636719"/>
     </g>
    </g>
   </g>
   <g id="matplotlib.axis_2">
    <g id="ytick_1">
     <g id="line2d_9">
      <defs>
       <path id="m9dd9c7ef93" d="M 0 0 
L -3.5 0 
" style="stroke: #000000; stroke-width: 0.8"/>
      </defs>
      <g>
       <use xlink:href="#m9dd9c7ef93" x="81" y="317.883103" style="stroke: #000000; stroke-width: 0.8"/>
      </g>
     </g>
     <g id="text_10">
      <!-- 6 -->
      <g transform="translate(66.365 322.442165) scale(0.12 -0.12)">
       <defs>
        <path id="DejaVuSans-36" d="M 2113 2584 
Q 1688 2584 1439 2293 
Q 1191 2003 1191 1497 
Q 1191 994 1439 701 
Q 1688 409 2113 409 
Q 2538 409 2786 701 
Q 3034 994 3034 1497 
Q 3034 2003 2786 2293 
Q 2538 2584 2113 2584 
z
M 3366 4563 
L 3366 3988 
Q 3128 4100 2886 4159 
Q 2644 4219 2406 4219 
Q 1781 4219 1451 3797 
Q 1122 3375 1075 2522 
Q 1259 2794 1537 2939 
Q 1816 3084 2150 3084 
Q 2853 3084 3261 2657 
Q 3669 2231 3669 1497 
Q 3669 778 3244 343 
Q 2819 -91 2113 -91 
Q 1303 -91 875 529 
Q 447 1150 447 2328 
Q 447 3434 972 4092 
Q 1497 4750 2381 4750 
Q 2619 4750 2861 4703 
Q 3103 4656 3366 4563 
z
" transform="scale(0.015625)"/>
       </defs>
       <use xlink:href="#DejaVuSans-36"/>
      </g>
     </g>
    </g>
    <g id="ytick_2">
     <g id="line2d_10">
      <g>
       <use xlink:href="#m9dd9c7ef93" x="81" y="274.88126" style="stroke: #000000; stroke-width: 0.8"/>
      </g>
     </g>
     <g id="text_11">
      <!-- 8 -->
      <g transform="translate(66.365 279.440323) scale(0.12 -0.12)">
       <defs>
        <path id="DejaVuSans-38" d="M 2034 2216 
Q 1584 2216 1326 1975 
Q 1069 1734 1069 1313 
Q 1069 891 1326 650 
Q 1584 409 2034 409 
Q 2484 409 2743 651 
Q 3003 894 3003 1313 
Q 3003 1734 2745 1975 
Q 2488 2216 2034 2216 
z
M 1403 2484 
Q 997 2584 770 2862 
Q 544 3141 544 3541 
Q 544 4100 942 4425 
Q 1341 4750 2034 4750 
Q 2731 4750 3128 4425 
Q 3525 4100 3525 3541 
Q 3525 3141 3298 2862 
Q 3072 2584 2669 2484 
Q 3125 2378 3379 2068 
Q 3634 1759 3634 1313 
Q 3634 634 3220 271 
Q 2806 -91 2034 -91 
Q 1263 -91 848 271 
Q 434 634 434 1313 
Q 434 1759 690 2068 
Q 947 2378 1403 2484 
z
M 1172 3481 
Q 1172 3119 1398 2916 
Q 1625 2713 2034 2713 
Q 2441 2713 2670 2916 
Q 2900 3119 2900 3481 
Q 2900 3844 2670 4047 
Q 2441 4250 2034 4250 
Q 1625 4250 1398 4047 
Q 1172 3844 1172 3481 
z
" transform="scale(0.015625)"/>
       </defs>
       <use xlink:href="#DejaVuSans-38"/>
      </g>
     </g>
    </g>
    <g id="ytick_3">
     <g id="line2d_11">
      <g>
       <use xlink:href="#m9dd9c7ef93" x="81" y="231.879418" style="stroke: #000000; stroke-width: 0.8"/>
      </g>
     </g>
     <g id="text_12">
      <!-- 10 -->
      <g transform="translate(58.73 236.43848) scale(0.12 -0.12)">
       <use xlink:href="#DejaVuSans-31"/>
       <use xlink:href="#DejaVuSans-30" x="63.623047"/>
      </g>
     </g>
    </g>
    <g id="ytick_4">
     <g id="line2d_12">
      <g>
       <use xlink:href="#m9dd9c7ef93" x="81" y="188.877576" style="stroke: #000000; stroke-width: 0.8"/>
      </g>
     </g>
     <g id="text_13">
      <!-- 12 -->
      <g transform="translate(58.73 193.436638) scale(0.12 -0.12)">
       <use xlink:href="#DejaVuSans-31"/>
       <use xlink:href="#DejaVuSans-32" x="63.623047"/>
      </g>
     </g>
    </g>
    <g id="ytick_5">
     <g id="line2d_13">
      <g>
       <use xlink:href="#m9dd9c7ef93" x="81" y="145.875733" style="stroke: #000000; stroke-width: 0.8"/>
      </g>
     </g>
     <g id="text_14">
      <!-- 14 -->
      <g transform="translate(58.73 150.434796) scale(0.12 -0.12)">
       <defs>
        <path id="DejaVuSans-34" d="M 2419 4116 
L 825 1625 
L 2419 1625 
L 2419 4116 
z
M 2253 4666 
L 3047 4666 
L 3047 1625 
L 3713 1625 
L 3713 1100 
L 3047 1100 
L 3047 0 
L 2419 0 
L 2419 1100 
L 313 1100 
L 313 1709 
L 2253 4666 
z
" transform="scale(0.015625)"/>
       </defs>
       <use xlink:href="#DejaVuSans-31"/>
       <use xlink:href="#DejaVuSans-34" x="63.623047"/>
      </g>
     </g>
    </g>
    <g id="ytick_6">
     <g id="line2d_14">
      <g>
       <use xlink:href="#m9dd9c7ef93" x="81" y="102.873891" style="stroke: #000000; stroke-width: 0.8"/>
      </g>
     </g>
     <g id="text_15">
      <!-- 16 -->
      <g transform="translate(58.73 107.432953) scale(0.12 -0.12)">
       <use xlink:href="#DejaVuSans-31"/>
       <use xlink:href="#DejaVuSans-36" x="63.623047"/>
      </g>
     </g>
    </g>
    <g id="ytick_7">
     <g id="line2d_15">
      <g>
       <use xlink:href="#m9dd9c7ef93" x="81" y="59.872049" style="stroke: #000000; stroke-width: 0.8"/>
      </g>
     </g>
     <g id="text_16">
      <!-- 18 -->
      <g transform="translate(58.73 64.431111) scale(0.12 -0.12)">
       <use xlink:href="#DejaVuSans-31"/>
       <use xlink:href="#DejaVuSans-38" x="63.623047"/>
      </g>
     </g>
    </g>
    <g id="text_17">
     <!-- Total coral cover (%) -->
     <g transform="translate(51.610469 258.769922) rotate(-90) scale(0.15 -0.15)">
      <defs>
       <path id="DejaVuSans-54" d="M -19 4666 
L 3928 4666 
L 3928 4134 
L 2272 4134 
L 2272 0 
L 1638 0 
L 1638 4134 
L -19 4134 
L -19 4666 
z
" transform="scale(0.015625)"/>
       <path id="DejaVuSans-6f" d="M 1959 3097 
Q 1497 3097 1228 2736 
Q 959 2375 959 1747 
Q 959 1119 1226 758 
Q 1494 397 1959 397 
Q 2419 397 2687 759 
Q 2956 1122 2956 1747 
Q 2956 2369 2687 2733 
Q 2419 3097 1959 3097 
z
M 1959 3584 
Q 2709 3584 3137 3096 
Q 3566 2609 3566 1747 
Q 3566 888 3137 398 
Q 2709 -91 1959 -91 
Q 1206 -91 779 398 
Q 353 888 353 1747 
Q 353 2609 779 3096 
Q 1206 3584 1959 3584 
z
" transform="scale(0.015625)"/>
       <path id="DejaVuSans-74" d="M 1172 4494 
L 1172 3500 
L 2356 3500 
L 2356 3053 
L 1172 3053 
L 1172 1153 
Q 1172 725 1289 603 
Q 1406 481 1766 481 
L 2356 481 
L 2356 0 
L 1766 0 
Q 1100 0 847 248 
Q 594 497 594 1153 
L 594 3053 
L 172 3053 
L 172 3500 
L 594 3500 
L 594 4494 
L 1172 4494 
z
" transform="scale(0.015625)"/>
       <path id="DejaVuSans-6c" d="M 603 4863 
L 1178 4863 
L 1178 0 
L 603 0 
L 603 4863 
z
" transform="scale(0.015625)"/>
       <path id="DejaVuSans-20" transform="scale(0.015625)"/>
       <path id="DejaVuSans-63" d="M 3122 3366 
L 3122 2828 
Q 2878 2963 2633 3030 
Q 2388 3097 2138 3097 
Q 1578 3097 1268 2742 
Q 959 2388 959 1747 
Q 959 1106 1268 751 
Q 1578 397 2138 397 
Q 2388 397 2633 464 
Q 2878 531 3122 666 
L 3122 134 
Q 2881 22 2623 -34 
Q 2366 -91 2075 -91 
Q 1284 -91 818 406 
Q 353 903 353 1747 
Q 353 2603 823 3093 
Q 1294 3584 2113 3584 
Q 2378 3584 2631 3529 
Q 2884 3475 3122 3366 
z
" transform="scale(0.015625)"/>
       <path id="DejaVuSans-76" d="M 191 3500 
L 800 3500 
L 1894 563 
L 2988 3500 
L 3597 3500 
L 2284 0 
L 1503 0 
L 191 3500 
z
" transform="scale(0.015625)"/>
       <path id="DejaVuSans-28" d="M 1984 4856 
Q 1566 4138 1362 3434 
Q 1159 2731 1159 2009 
Q 1159 1288 1364 580 
Q 1569 -128 1984 -844 
L 1484 -844 
Q 1016 -109 783 600 
Q 550 1309 550 2009 
Q 550 2706 781 3412 
Q 1013 4119 1484 4856 
L 1984 4856 
z
" transform="scale(0.015625)"/>
       <path id="DejaVuSans-25" d="M 4653 2053 
Q 4381 2053 4226 1822 
Q 4072 1591 4072 1178 
Q 4072 772 4226 539 
Q 4381 306 4653 306 
Q 4919 306 5073 539 
Q 5228 772 5228 1178 
Q 5228 1588 5073 1820 
Q 4919 2053 4653 2053 
z
M 4653 2450 
Q 5147 2450 5437 2106 
Q 5728 1763 5728 1178 
Q 5728 594 5436 251 
Q 5144 -91 4653 -91 
Q 4153 -91 3862 251 
Q 3572 594 3572 1178 
Q 3572 1766 3864 2108 
Q 4156 2450 4653 2450 
z
M 1428 4353 
Q 1159 4353 1004 4120 
Q 850 3888 850 3481 
Q 850 3069 1003 2837 
Q 1156 2606 1428 2606 
Q 1700 2606 1854 2837 
Q 2009 3069 2009 3481 
Q 2009 3884 1853 4118 
Q 1697 4353 1428 4353 
z
M 4250 4750 
L 4750 4750 
L 1831 -91 
L 1331 -91 
L 4250 4750 
z
M 1428 4750 
Q 1922 4750 2215 4408 
Q 2509 4066 2509 3481 
Q 2509 2891 2217 2550 
Q 1925 2209 1428 2209 
Q 931 2209 642 2551 
Q 353 2894 353 3481 
Q 353 4063 643 4406 
Q 934 4750 1428 4750 
z
" transform="scale(0.015625)"/>
       <path id="DejaVuSans-29" d="M 513 4856 
L 1013 4856 
Q 1481 4119 1714 3412 
Q 1947 2706 1947 2009 
Q 1947 1309 1714 600 
Q 1481 -109 1013 -844 
L 513 -844 
Q 928 -128 1133 580 
Q 1338 1288 1338 2009 
Q 1338 2731 1133 3434 
Q 928 4138 513 4856 
z
" transform="scale(0.015625)"/>
      </defs>
      <use xlink:href="#DejaVuSans-54"/>
      <use xlink:href="#DejaVuSans-6f" x="44.083984"/>
      <use xlink:href="#DejaVuSans-74" x="105.265625"/>
      <use xlink:href="#DejaVuSans-61" x="144.474609"/>
      <use xlink:href="#DejaVuSans-6c" x="205.753906"/>
      <use xlink:href="#DejaVuSans-20" x="233.537109"/>
      <use xlink:href="#DejaVuSans-63" x="265.324219"/>
      <use xlink:href="#DejaVuSans-6f" x="320.304688"/>
      <use xlink:href="#DejaVuSans-72" x="381.486328"/>
      <use xlink:href="#DejaVuSans-61" x="422.599609"/>
      <use xlink:href="#DejaVuSans-6c" x="483.878906"/>
      <use xlink:href="#DejaVuSans-20" x="511.662109"/>
      <use xlink:href="#DejaVuSans-63" x="543.449219"/>
      <use xlink:href="#DejaVuSans-6f" x="598.429688"/>
      <use xlink:href="#DejaVuSans-76" x="659.611328"/>
      <use xlink:href="#DejaVuSans-65" x="718.791016"/>
      <use xlink:href="#DejaVuSans-72" x="780.314453"/>
      <use xlink:href="#DejaVuSans-20" x="821.427734"/>
      <use xlink:href="#DejaVuSans-28" x="853.214844"/>
      <use xlink:href="#DejaVuSans-25" x="892.228516"/>
      <use xlink:href="#DejaVuSans-29" x="987.248047"/>
     </g>
    </g>
   </g>
   <g id="line2d_16">
    <path d="M 103.827273 62.022141 
L 127.855981 195.770137 
L 151.884689 189.801697 
L 175.913397 179.603135 
L 199.942105 166.2459 
L 223.970813 147.549697 
L 247.999522 248.464696 
L 272.02823 299.471227 
L 296.056938 270.584905 
L 320.085646 237.559 
L 344.114354 201.771894 
L 368.143062 163.960696 
L 392.17177 249.964031 
L 416.200478 230.369452 
L 440.229187 191.263037 
L 464.257895 210.304575 
L 488.286603 171.489457 
L 512.315311 152.353987 
L 536.344019 109.242661 
L 560.372727 196.582374 
" clip-path="url(#p1138551c89)" style="fill: none; stroke-dasharray: 3.7,1.6; stroke-dashoffset: 0; stroke: #1f77b4; stroke-opacity: 0.6"/>
   </g>
   <g id="line2d_17">
    <path d="M 103.827273 62.022141 
L 127.855981 195.964546 
L 151.884689 189.010129 
L 175.913397 177.24384 
L 199.942105 163.229076 
L 223.970813 145.782495 
L 247.999522 246.951007 
L 272.02823 297.953527 
L 296.056938 269.34246 
L 320.085646 236.848066 
L 344.114354 201.770205 
L 368.143062 162.331754 
L 392.17177 248.330868 
L 416.200478 228.867583 
L 440.229187 190.056476 
L 464.257895 208.256841 
L 488.286603 170.225693 
L 512.315311 151.808122 
L 536.344019 112.725771 
L 560.372727 197.452466 
" clip-path="url(#p1138551c89)" style="fill: none; stroke-dasharray: 3.7,1.6; stroke-dashoffset: 0; stroke: #ff7f0e; stroke-opacity: 0.6"/>
   </g>
   <g id="line2d_18">
    <path d="M 103.827273 62.022141 
L 127.855981 194.862895 
L 151.884689 188.187109 
L 175.913397 179.049037 
L 199.942105 166.996306 
L 223.970813 151.694769 
L 247.999522 250.782196 
L 272.02823 300.362216 
L 296.056938 272.259863 
L 320.085646 240.55366 
L 344.114354 205.907045 
L 368.143062 169.52848 
L 392.17177 252.074457 
L 416.200478 233.702692 
L 440.229187 195.856665 
L 464.257895 212.591256 
L 488.286603 176.696708 
L 512.315311 159.141208 
L 536.344019 121.112381 
L 560.372727 201.126185 
" clip-path="url(#p1138551c89)" style="fill: none; stroke-dasharray: 3.7,1.6; stroke-dashoffset: 0; stroke: #2ca02c; stroke-opacity: 0.6"/>
   </g>
   <g id="line2d_19">
    <path d="M 103.827273 62.022141 
L 127.855981 194.082725 
L 151.884689 185.717628 
L 175.913397 173.154072 
L 199.942105 155.168592 
L 223.970813 134.647983 
L 247.999522 236.283414 
L 272.02823 287.320975 
L 296.056938 255.299411 
L 320.085646 218.13371 
L 344.114354 178.488396 
L 368.143062 137.242004 
L 392.17177 230.203328 
L 416.200478 208.387292 
L 440.229187 166.519255 
L 464.257895 185.695253 
L 488.286603 144.557992 
L 512.315311 124.257756 
L 536.344019 80.492278 
L 560.372727 171.764079 
" clip-path="url(#p1138551c89)" style="fill: none; stroke-dasharray: 3.7,1.6; stroke-dashoffset: 0; stroke: #d62728; stroke-opacity: 0.6"/>
   </g>
   <g id="line2d_20">
    <path d="M 103.827273 62.022141 
L 127.855981 195.66164 
L 151.884689 189.988718 
L 175.913397 179.700023 
L 199.942105 167.179528 
L 223.970813 150.58193 
L 247.999522 251.598672 
L 272.02823 300.325698 
L 296.056938 270.127062 
L 320.085646 235.554961 
L 344.114354 196.481898 
L 368.143062 154.466313 
L 392.17177 242.759074 
L 416.200478 219.927509 
L 440.229187 175.920972 
L 464.257895 193.444176 
L 488.286603 152.155778 
L 512.315311 131.89797 
L 536.344019 89.160897 
L 560.372727 181.862798 
" clip-path="url(#p1138551c89)" style="fill: none; stroke-dasharray: 3.7,1.6; stroke-dashoffset: 0; stroke: #9467bd; stroke-opacity: 0.6"/>
   </g>
   <g id="line2d_21">
    <path d="M 103.827273 62.022141 
L 127.855981 196.600967 
L 151.884689 189.6913 
L 175.913397 180.336866 
L 199.942105 168.170149 
L 223.970813 151.643898 
L 247.999522 251.943585 
L 272.02823 303.068956 
L 296.056938 276.399658 
L 320.085646 247.07808 
L 344.114354 213.542405 
L 368.143062 178.090712 
L 392.17177 256.552832 
L 416.200478 238.288087 
L 440.229187 200.630558 
L 464.257895 216.107296 
L 488.286603 180.25011 
L 512.315311 162.116026 
L 536.344019 123.437269 
L 560.372727 202.780668 
" clip-path="url(#p1138551c89)" style="fill: none; stroke-dasharray: 3.7,1.6; stroke-dashoffset: 0; stroke: #8c564b; stroke-opacity: 0.6"/>
   </g>
   <g id="line2d_22">
    <path d="M 103.827273 62.022141 
L 127.855981 196.170143 
L 151.884689 190.207191 
L 175.913397 179.559018 
L 199.942105 167.512198 
L 223.970813 150.637657 
L 247.999522 249.360962 
L 272.02823 298.343612 
L 296.056938 268.984883 
L 320.085646 236.157397 
L 344.114354 200.401954 
L 368.143062 161.93386 
L 392.17177 247.964214 
L 416.200478 228.053007 
L 440.229187 188.450965 
L 464.257895 205.662398 
L 488.286603 167.633149 
L 512.315311 148.98043 
L 536.344019 107.223424 
L 560.372727 190.011726 
" clip-path="url(#p1138551c89)" style="fill: none; stroke-dasharray: 3.7,1.6; stroke-dashoffset: 0; stroke: #e377c2; stroke-opacity: 0.6"/>
   </g>
   <g id="line2d_23">
    <path d="M 103.827273 62.022141 
L 127.855981 194.878304 
L 151.884689 187.379288 
L 175.913397 175.983031 
L 199.942105 161.790111 
L 223.970813 144.822904 
L 247.999522 247.542044 
L 272.02823 299.640517 
L 296.056938 270.480207 
L 320.085646 236.954031 
L 344.114354 200.393932 
L 368.143062 159.554301 
L 392.17177 246.350682 
L 416.200478 224.624779 
L 440.229187 181.991137 
L 464.257895 199.686587 
L 488.286603 157.920715 
L 512.315311 136.444526 
L 536.344019 92.751239 
L 560.372727 185.37947 
" clip-path="url(#p1138551c89)" style="fill: none; stroke-dasharray: 3.7,1.6; stroke-dashoffset: 0; stroke: #7f7f7f; stroke-opacity: 0.6"/>
   </g>
   <g id="line2d_24">
    <path d="M 103.827273 62.022141 
L 127.855981 195.606124 
L 151.884689 188.42268 
L 175.913397 176.182295 
L 199.942105 161.875178 
L 223.970813 141.688716 
L 247.999522 239.877766 
L 272.02823 288.355924 
L 296.056938 254.745313 
L 320.085646 217.053589 
L 344.114354 176.954232 
L 368.143062 134.363863 
L 392.17177 230.955423 
L 416.200478 208.847456 
L 440.229187 166.414768 
L 464.257895 185.313823 
L 488.286603 144.48559 
L 512.315311 124.572905 
L 536.344019 81.70496 
L 560.372727 174.064692 
" clip-path="url(#p1138551c89)" style="fill: none; stroke-dasharray: 3.7,1.6; stroke-dashoffset: 0; stroke: #bcbd22; stroke-opacity: 0.6"/>
   </g>
   <g id="line2d_25">
    <path d="M 103.827273 62.022141 
L 127.855981 195.406438 
L 151.884689 189.006752 
L 175.913397 178.400163 
L 199.942105 164.734533 
L 223.970813 146.982934 
L 247.999522 247.469853 
L 272.02823 297.140851 
L 296.056938 266.668438 
L 320.085646 231.790897 
L 344.114354 194.900239 
L 368.143062 155.923642 
L 392.17177 243.613334 
L 416.200478 223.192146 
L 440.229187 181.59852 
L 464.257895 199.410277 
L 488.286603 158.88094 
L 512.315311 137.812144 
L 536.344019 95.351592 
L 560.372727 184.804264 
" clip-path="url(#p1138551c89)" style="fill: none; stroke-dasharray: 3.7,1.6; stroke-dashoffset: 0; stroke: #17becf; stroke-opacity: 0.6"/>
   </g>
   <g id="line2d_26">
    <path d="M 103.827273 62.022141 
L 127.855981 195.599792 
L 151.884689 189.766868 
L 175.913397 179.63712 
L 199.942105 166.725907 
L 223.970813 151.423525 
L 247.999522 251.145051 
L 272.02823 301.457535 
L 296.056938 272.337331 
L 320.085646 239.926105 
L 344.114354 205.127087 
L 368.143062 167.675999 
L 392.17177 252.614412 
L 416.200478 234.55463 
L 440.229187 196.877682 
L 464.257895 214.768385 
L 488.286603 176.750113 
L 512.315311 158.223622 
L 536.344019 116.493001 
L 560.372727 199.701152 
" clip-path="url(#p1138551c89)" style="fill: none; stroke-dasharray: 3.7,1.6; stroke-dashoffset: 0; stroke: #1f77b4; stroke-opacity: 0.6"/>
   </g>
   <g id="line2d_27">
    <path d="M 103.827273 62.022141 
L 127.855981 195.647919 
L 151.884689 190.389779 
L 175.913397 180.708375 
L 199.942105 167.96793 
L 223.970813 149.843133 
L 247.999522 248.408759 
L 272.02823 295.548216 
L 296.056938 264.849309 
L 320.085646 230.458318 
L 344.114354 195.325786 
L 368.143062 158.044622 
L 392.17177 244.104528 
L 416.200478 224.996499 
L 440.229187 186.393733 
L 464.257895 203.206637 
L 488.286603 164.79237 
L 512.315311 145.843921 
L 536.344019 107.340153 
L 560.372727 190.729204 
" clip-path="url(#p1138551c89)" style="fill: none; stroke-dasharray: 3.7,1.6; stroke-dashoffset: 0; stroke: #ff7f0e; stroke-opacity: 0.6"/>
   </g>
   <g id="line2d_28">
    <path d="M 103.827273 62.022141 
L 127.855981 195.584805 
L 151.884689 189.405069 
L 175.913397 178.31995 
L 199.942105 163.910035 
L 223.970813 145.294889 
L 247.999522 244.002997 
L 272.02823 292.933931 
L 296.056938 259.265483 
L 320.085646 220.474007 
L 344.114354 179.026029 
L 368.143062 136.12621 
L 392.17177 230.730195 
L 416.200478 207.975043 
L 440.229187 164.218641 
L 464.257895 183.529734 
L 488.286603 141.859273 
L 512.315311 121.727904 
L 536.344019 78.577528 
L 560.372727 172.275748 
" clip-path="url(#p1138551c89)" style="fill: none; stroke-dasharray: 3.7,1.6; stroke-dashoffset: 0; stroke: #2ca02c; stroke-opacity: 0.6"/>
   </g>
   <g id="line2d_29">
    <path d="M 103.827273 62.022141 
L 127.855981 195.334669 
L 151.884689 190.071041 
L 175.913397 180.159766 
L 199.942105 167.724338 
L 223.970813 153.04719 
L 247.999522 255.187747 
L 272.02823 306.25296 
L 296.056938 278.575309 
L 320.085646 246.859818 
L 344.114354 210.386053 
L 368.143062 170.652717 
L 392.17177 255.164105 
L 416.200478 234.094254 
L 440.229187 192.814721 
L 464.257895 211.060892 
L 488.286603 170.180943 
L 512.315311 149.975272 
L 536.344019 107.526541 
L 560.372727 198.739872 
" clip-path="url(#p1138551c89)" style="fill: none; stroke-dasharray: 3.7,1.6; stroke-dashoffset: 0; stroke: #d62728; stroke-opacity: 0.6"/>
   </g>
   <g id="line2d_30">
    <path d="M 103.827273 62.022141 
L 127.855981 196.345765 
L 151.884689 190.28867 
L 175.913397 181.00516 
L 199.942105 166.846436 
L 223.970813 149.051988 
L 247.999522 248.564117 
L 272.02823 298.036484 
L 296.056938 266.712344 
L 320.085646 232.010003 
L 344.114354 195.211378 
L 368.143062 154.154963 
L 392.17177 245.041112 
L 416.200478 224.429525 
L 440.229187 182.460379 
L 464.257895 202.11364 
L 488.286603 161.471373 
L 512.315311 141.907189 
L 536.344019 99.685374 
L 560.372727 191.188735 
" clip-path="url(#p1138551c89)" style="fill: none; stroke-dasharray: 3.7,1.6; stroke-dashoffset: 0; stroke: #9467bd; stroke-opacity: 0.6"/>
   </g>
   <g id="line2d_31">
    <path d="M 103.827273 62.022141 
L 127.855981 195.66755 
L 151.884689 187.479131 
L 175.913397 176.983573 
L 199.942105 162.888174 
L 223.970813 145.55769 
L 247.999522 247.249481 
L 272.02823 299.924848 
L 296.056938 272.951588 
L 320.085646 242.27379 
L 344.114354 209.222976 
L 368.143062 173.898146 
L 392.17177 255.213921 
L 416.200478 238.498538 
L 440.229187 202.042927 
L 464.257895 219.899223 
L 488.286603 184.238557 
L 512.315311 166.011174 
L 536.344019 127.289356 
L 560.372727 207.53662 
" clip-path="url(#p1138551c89)" style="fill: none; stroke-dasharray: 3.7,1.6; stroke-dashoffset: 0; stroke: #8c564b; stroke-opacity: 0.6"/>
   </g>
   <g id="line2d_32">
    <path d="M 103.827273 62.022141 
L 127.855981 195.430924 
L 151.884689 187.959982 
L 175.913397 173.862684 
L 199.942105 157.213581 
L 223.970813 135.286726 
L 247.999522 235.830426 
L 272.02823 286.321488 
L 296.056938 251.811234 
L 320.085646 213.451849 
L 344.114354 172.097593 
L 368.143062 131.07094 
L 392.17177 230.175676 
L 416.200478 209.11659 
L 440.229187 168.231997 
L 464.257895 190.576167 
L 488.286603 150.761141 
L 512.315311 131.708416 
L 536.344019 89.340108 
L 560.372727 182.655421 
" clip-path="url(#p1138551c89)" style="fill: none; stroke-dasharray: 3.7,1.6; stroke-dashoffset: 0; stroke: #e377c2; stroke-opacity: 0.6"/>
   </g>
   <g id="line2d_33">
    <path d="M 103.827273 62.022141 
L 127.855981 195.673038 
L 151.884689 187.839453 
L 175.913397 175.152834 
L 199.942105 158.145732 
L 223.970813 137.570663 
L 247.999522 237.415884 
L 272.02823 287.616916 
L 296.056938 252.953414 
L 320.085646 213.929956 
L 344.114354 173.420039 
L 368.143062 130.268818 
L 392.17177 227.800549 
L 416.200478 205.396009 
L 440.229187 161.713909 
L 464.257895 182.779117 
L 488.286603 140.547803 
L 512.315311 120.006086 
L 536.344019 76.668688 
L 560.372727 173.261936 
" clip-path="url(#p1138551c89)" style="fill: none; stroke-dasharray: 3.7,1.6; stroke-dashoffset: 0; stroke: #7f7f7f; stroke-opacity: 0.6"/>
   </g>
   <g id="line2d_34">
    <path d="M 103.827273 62.022141 
L 127.855981 195.448022 
L 151.884689 189.712408 
L 175.913397 177.580098 
L 199.942105 162.680255 
L 223.970813 145.410141 
L 247.999522 245.347818 
L 272.02823 295.447529 
L 296.056938 265.611959 
L 320.085646 231.537173 
L 344.114354 195.052431 
L 368.143062 157.502134 
L 392.17177 246.245139 
L 416.200478 227.128455 
L 440.229187 189.115038 
L 464.257895 208.160586 
L 488.286603 170.853881 
L 512.315311 152.660904 
L 536.344019 113.487998 
L 560.372727 199.309379 
" clip-path="url(#p1138551c89)" style="fill: none; stroke-dasharray: 3.7,1.6; stroke-dashoffset: 0; stroke: #bcbd22; stroke-opacity: 0.6"/>
   </g>
   <g id="line2d_35">
    <path d="M 103.827273 62.022141 
L 127.855981 195.828819 
L 151.884689 189.679057 
L 175.913397 179.873957 
L 199.942105 165.664361 
L 223.970813 147.736718 
L 247.999522 246.194057 
L 272.02823 294.700499 
L 296.056938 261.707734 
L 320.085646 225.180143 
L 344.114354 186.497165 
L 368.143062 145.865451 
L 392.17177 239.549318 
L 416.200478 218.740368 
L 440.229187 177.368591 
L 464.257895 196.290866 
L 488.286603 155.197933 
L 512.315311 134.745504 
L 536.344019 91.282933 
L 560.372727 182.368979 
" clip-path="url(#p1138551c89)" style="fill: none; stroke-dasharray: 3.7,1.6; stroke-dashoffset: 0; stroke: #17becf; stroke-opacity: 0.6"/>
   </g>
   <g id="line2d_36">
    <path d="M 103.827273 62.022141 
L 127.855981 194.602627 
L 151.884689 187.471954 
L 175.913397 174.690769 
L 199.942105 158.45286 
L 223.970813 139.402457 
L 247.999522 238.130195 
L 272.02823 286.483813 
L 296.056938 252.49536 
L 320.085646 214.066106 
L 344.114354 174.528445 
L 368.143062 131.516751 
L 392.17177 229.141149 
L 416.200478 207.311181 
L 440.229187 165.846105 
L 464.257895 185.87953 
L 488.286603 145.935109 
L 512.315311 126.619161 
L 536.344019 84.971708 
L 560.372727 176.259974 
" clip-path="url(#p1138551c89)" style="fill: none; stroke-dasharray: 3.7,1.6; stroke-dashoffset: 0; stroke: #1f77b4; stroke-opacity: 0.6"/>
   </g>
   <g id="line2d_37">
    <path d="M 103.827273 62.022141 
L 127.855981 195.351767 
L 151.884689 188.436823 
L 175.913397 176.272428 
L 199.942105 158.812549 
L 223.970813 138.701022 
L 247.999522 239.503724 
L 272.02823 289.738318 
L 296.056938 257.190519 
L 320.085646 221.390115 
L 344.114354 183.170257 
L 368.143062 143.236812 
L 392.17177 236.459037 
L 416.200478 215.77146 
L 440.229187 174.541955 
L 464.257895 194.159543 
L 488.286603 154.922889 
L 512.315311 135.949954 
L 536.344019 96.03213 
L 560.372727 186.184126 
" clip-path="url(#p1138551c89)" style="fill: none; stroke-dasharray: 3.7,1.6; stroke-dashoffset: 0; stroke: #ff7f0e; stroke-opacity: 0.6"/>
   </g>
   <g id="line2d_38">
    <path d="M 103.827273 62.022141 
L 127.855981 195.48264 
L 151.884689 189.950512 
L 175.913397 181.249385 
L 199.942105 169.149371 
L 223.970813 154.84331 
L 247.999522 256.034408 
L 272.02823 305.650946 
L 296.056938 278.336784 
L 320.085646 247.534656 
L 344.114354 213.91898 
L 368.143062 177.746011 
L 392.17177 258.403835 
L 416.200478 239.939614 
L 440.229187 202.90943 
L 464.257895 218.99177 
L 488.286603 183.644142 
L 512.315311 165.398606 
L 536.344019 125.841736 
L 560.372727 205.472844 
" clip-path="url(#p1138551c89)" style="fill: none; stroke-dasharray: 3.7,1.6; stroke-dashoffset: 0; stroke: #2ca02c; stroke-opacity: 0.6"/>
   </g>
   <g id="line2d_39">
    <path d="M 103.827273 62.022141 
L 127.855981 194.791126 
L 151.884689 187.947106 
L 175.913397 177.248906 
L 199.942105 160.568352 
L 223.970813 141.690194 
L 247.999522 240.851078 
L 272.02823 287.561612 
L 296.056938 252.878057 
L 320.085646 213.978506 
L 344.114354 172.855809 
L 368.143062 130.165386 
L 392.17177 227.698807 
L 416.200478 204.636526 
L 440.229187 161.085299 
L 464.257895 180.671646 
L 488.286603 138.86018 
L 512.315311 118.834776 
L 536.344019 76.37528 
L 560.372727 171.750147 
" clip-path="url(#p1138551c89)" style="fill: none; stroke-dasharray: 3.7,1.6; stroke-dashoffset: 0; stroke: #d62728; stroke-opacity: 0.6"/>
   </g>
   <g id="line2d_40">
    <path d="M 103.827273 62.022141 
L 127.855981 196.22798 
L 151.884689 190.596642 
L 175.913397 181.568334 
L 199.942105 168.953062 
L 223.970813 152.632619 
L 247.999522 252.76977 
L 272.02823 304.052189 
L 296.056938 277.409066 
L 320.085646 246.880082 
L 344.114354 214.143152 
L 368.143062 178.733254 
L 392.17177 259.528284 
L 416.200478 242.438225 
L 440.229187 205.404241 
L 464.257895 223.41083 
L 488.286603 187.322506 
L 512.315311 169.737665 
L 536.344019 130.102272 
L 560.372727 211.245591 
" clip-path="url(#p1138551c89)" style="fill: none; stroke-dasharray: 3.7,1.6; stroke-dashoffset: 0; stroke: #9467bd; stroke-opacity: 0.6"/>
   </g>
   <g id="line2d_41">
    <path d="M 103.827273 62.022141 
L 127.855981 195.514725 
L 151.884689 189.334566 
L 175.913397 180.886319 
L 199.942105 169.15296 
L 223.970813 155.823799 
L 247.999522 256.551988 
L 272.02823 306.784893 
L 296.056938 280.548952 
L 320.085646 250.232742 
L 344.114354 218.706805 
L 368.143062 184.914451 
L 392.17177 261.403983 
L 416.200478 244.261364 
L 440.229187 207.810608 
L 464.257895 222.841956 
L 488.286603 187.898768 
L 512.315311 169.687004 
L 536.344019 132.245205 
L 560.372727 208.395524 
" clip-path="url(#p1138551c89)" style="fill: none; stroke-dasharray: 3.7,1.6; stroke-dashoffset: 0; stroke: #8c564b; stroke-opacity: 0.6"/>
   </g>
   <g id="line2d_42">
    <path d="M 103.827273 62.022141 
L 127.855981 196.676535 
L 151.884689 191.957717 
L 175.913397 183.816599 
L 199.942105 170.92565 
L 223.970813 155.94264 
L 247.999522 256.183645 
L 272.02823 304.874365 
L 296.056938 276.936869 
L 320.085646 246.312053 
L 344.114354 212.955167 
L 368.143062 177.384634 
L 392.17177 257.803932 
L 416.200478 240.628173 
L 440.229187 204.160741 
L 464.257895 220.158646 
L 488.286603 184.195496 
L 512.315311 165.373064 
L 536.344019 125.519199 
L 560.372727 204.629138 
" clip-path="url(#p1138551c89)" style="fill: none; stroke-dasharray: 3.7,1.6; stroke-dashoffset: 0; stroke: #e377c2; stroke-opacity: 0.6"/>
   </g>
   <g id="line2d_43">
    <path d="M 103.827273 62.022141 
L 127.855981 196.290883 
L 151.884689 190.325398 
L 175.913397 179.849893 
L 199.942105 166.543529 
L 223.970813 148.920693 
L 247.999522 248.299417 
L 272.02823 298.357755 
L 296.056938 270.151971 
L 320.085646 238.641654 
L 344.114354 204.793362 
L 368.143062 168.070939 
L 392.17177 251.027899 
L 416.200478 232.646634 
L 440.229187 194.90425 
L 464.257895 212.272096 
L 488.286603 174.910087 
L 512.315311 156.455576 
L 536.344019 117.19127 
L 560.372727 199.479091 
" clip-path="url(#p1138551c89)" style="fill: none; stroke-dasharray: 3.7,1.6; stroke-dashoffset: 0; stroke: #7f7f7f; stroke-opacity: 0.6"/>
   </g>
   <g id="line2d_44">
    <path d="M 103.827273 62.022141 
L 127.855981 194.518826 
L 151.884689 186.141487 
L 175.913397 171.638483 
L 199.942105 155.823799 
L 223.970813 136.421095 
L 247.999522 237.231396 
L 272.02823 287.730479 
L 296.056938 254.589321 
L 320.085646 216.306138 
L 344.114354 176.112637 
L 368.143062 134.702865 
L 392.17177 230.500957 
L 416.200478 208.407978 
L 440.229187 165.471219 
L 464.257895 184.198029 
L 488.286603 143.381828 
L 512.315311 123.195577 
L 536.344019 80.051533 
L 560.372727 172.430051 
" clip-path="url(#p1138551c89)" style="fill: none; stroke-dasharray: 3.7,1.6; stroke-dashoffset: 0; stroke: #bcbd22; stroke-opacity: 0.6"/>
   </g>
   <g id="line2d_45">
    <path d="M 103.827273 62.022141 
L 127.855981 194.355658 
L 151.884689 187.373166 
L 175.913397 175.839071 
L 199.942105 160.98039 
L 223.970813 141.575153 
L 247.999522 242.865038 
L 272.02823 293.590616 
L 296.056938 262.627431 
L 320.085646 227.595164 
L 344.114354 190.434107 
L 368.143062 150.178969 
L 392.17177 242.574164 
L 416.200478 222.406489 
L 440.229187 181.646014 
L 464.257895 200.987714 
L 488.286603 160.850783 
L 512.315311 141.506128 
L 536.344019 99.95704 
L 560.372727 189.97542 
" clip-path="url(#p1138551c89)" style="fill: none; stroke-dasharray: 3.7,1.6; stroke-dashoffset: 0; stroke: #17becf; stroke-opacity: 0.6"/>
   </g>
   <g id="line2d_46">
    <path d="M 103.827273 62.022141 
L 127.855981 194.994189 
L 151.884689 187.41665 
L 175.913397 176.608264 
L 199.942105 161.987053 
L 223.970813 142.889156 
L 247.999522 244.035715 
L 272.02823 294.945147 
L 296.056938 261.069625 
L 320.085646 222.788974 
L 344.114354 182.516316 
L 368.143062 141.378 
L 392.17177 237.316252 
L 416.200478 216.033838 
L 440.229187 174.296674 
L 464.257895 194.719551 
L 488.286603 154.680142 
L 512.315311 135.247464 
L 536.344019 92.730974 
L 560.372727 185.758157 
" clip-path="url(#p1138551c89)" style="fill: none; stroke-dasharray: 3.7,1.6; stroke-dashoffset: 0; stroke: #1f77b4; stroke-opacity: 0.6"/>
   </g>
   <g id="line2d_47">
    <path d="M 103.827273 62.022141 
L 127.855981 195.586916 
L 151.884689 188.589437 
L 175.913397 177.960262 
L 199.942105 162.081197 
L 223.970813 143.643573 
L 247.999522 244.273607 
L 272.02823 295.920992 
L 296.056938 266.575772 
L 320.085646 232.674286 
L 344.114354 195.946798 
L 368.143062 158.057709 
L 392.17177 241.629137 
L 416.200478 222.437729 
L 440.229187 183.87338 
L 464.257895 201.513737 
L 488.286603 164.147717 
L 512.315311 146.233583 
L 536.344019 108.425763 
L 560.372727 190.070619 
" clip-path="url(#p1138551c89)" style="fill: none; stroke-dasharray: 3.7,1.6; stroke-dashoffset: 0; stroke: #ff7f0e; stroke-opacity: 0.6"/>
   </g>
   <g id="line2d_48">
    <path d="M 103.827273 62.022141 
L 127.855981 196.217004 
L 151.884689 189.772567 
L 175.913397 179.877334 
L 199.942105 166.667647 
L 223.970813 150.183402 
L 247.999522 250.873807 
L 272.02823 301.160328 
L 296.056938 273.775663 
L 320.085646 243.901254 
L 344.114354 209.610528 
L 368.143062 174.991565 
L 392.17177 253.84567 
L 416.200478 236.567957 
L 440.229187 199.735348 
L 464.257895 216.08872 
L 488.286603 180.743415 
L 512.315311 162.540517 
L 536.344019 124.358232 
L 560.372727 201.018532 
" clip-path="url(#p1138551c89)" style="fill: none; stroke-dasharray: 3.7,1.6; stroke-dashoffset: 0; stroke: #2ca02c; stroke-opacity: 0.6"/>
   </g>
   <g id="line2d_49">
    <path d="M 103.827273 62.022141 
L 127.855981 194.905112 
L 151.884689 189.99484 
L 175.913397 180.348264 
L 199.942105 168.798548 
L 223.970813 153.050145 
L 247.999522 253.596801 
L 272.02823 304.419688 
L 296.056938 277.775087 
L 320.085646 248.593669 
L 344.114354 215.141583 
L 368.143062 178.489029 
L 392.17177 257.036639 
L 416.200478 239.435544 
L 440.229187 202.879667 
L 464.257895 218.039144 
L 488.286603 181.613084 
L 512.315311 162.56627 
L 536.344019 123.366767 
L 560.372727 199.400989 
" clip-path="url(#p1138551c89)" style="fill: none; stroke-dasharray: 3.7,1.6; stroke-dashoffset: 0; stroke: #d62728; stroke-opacity: 0.6"/>
   </g>
   <g id="line2d_50">
    <path d="M 103.827273 62.022141 
L 127.855981 196.625453 
L 151.884689 191.449214 
L 175.913397 181.457937 
L 199.942105 169.262724 
L 223.970813 153.590944 
L 247.999522 254.81286 
L 272.02823 306.351325 
L 296.056938 280.444888 
L 320.085646 251.535558 
L 344.114354 219.765395 
L 368.143062 186.43595 
L 392.17177 264.167928 
L 416.200478 248.269654 
L 440.229187 213.92299 
L 464.257895 231.558914 
L 488.286603 197.503337 
L 512.315311 180.75608 
L 536.344019 144.019093 
L 560.372727 221.192329 
" clip-path="url(#p1138551c89)" style="fill: none; stroke-dasharray: 3.7,1.6; stroke-dashoffset: 0; stroke: #9467bd; stroke-opacity: 0.6"/>
   </g>
   <g id="line2d_51">
    <path d="M 103.827273 62.022141 
L 127.855981 195.843806 
L 151.884689 188.549753 
L 175.913397 178.047018 
L 199.942105 163.555835 
L 223.970813 147.4393 
L 247.999522 246.405142 
L 272.02823 295.069898 
L 296.056938 266.171967 
L 320.085646 233.760529 
L 344.114354 198.915283 
L 368.143062 162.888596 
L 392.17177 246.066773 
L 416.200478 227.815114 
L 440.229187 190.926146 
L 464.257895 207.366485 
L 488.286603 171.67479 
L 512.315311 154.021346 
L 536.344019 116.833692 
L 560.372727 195.830912 
" clip-path="url(#p1138551c89)" style="fill: none; stroke-dasharray: 3.7,1.6; stroke-dashoffset: 0; stroke: #8c564b; stroke-opacity: 0.6"/>
   </g>
   <g id="line2d_52">
    <path d="M 103.827273 62.022141 
L 127.855981 193.555646 
L 151.884689 185.004584 
L 175.913397 173.014967 
L 199.942105 157.22308 
L 223.970813 136.052119 
L 247.999522 233.439469 
L 272.02823 281.550972 
L 296.056938 245.487978 
L 320.085646 204.470402 
L 344.114354 162.082463 
L 368.143062 118.599628 
L 392.17177 219.23705 
L 416.200478 194.714485 
L 440.229187 148.199627 
L 464.257895 165.649585 
L 488.286603 122.000626 
L 512.315311 99.912501 
L 536.344019 55.8 
L 560.372727 153.600443 
" clip-path="url(#p1138551c89)" style="fill: none; stroke-dasharray: 3.7,1.6; stroke-dashoffset: 0; stroke: #e377c2; stroke-opacity: 0.6"/>
   </g>
   <g id="line2d_53">
    <path d="M 103.827273 62.022141 
L 127.855981 193.956497 
L 151.884689 186.113623 
L 175.913397 174.852672 
L 199.942105 160.096789 
L 223.970813 141.666764 
L 247.999522 242.988734 
L 272.02823 293.902177 
L 296.056938 265.411217 
L 320.085646 232.199768 
L 344.114354 195.679142 
L 368.143062 156.087444 
L 392.17177 242.977969 
L 416.200478 222.776731 
L 440.229187 182.954317 
L 464.257895 200.60945 
L 488.286603 161.768158 
L 512.315311 142.568518 
L 536.344019 102.094485 
L 560.372727 187.806524 
" clip-path="url(#p1138551c89)" style="fill: none; stroke-dasharray: 3.7,1.6; stroke-dashoffset: 0; stroke: #7f7f7f; stroke-opacity: 0.6"/>
   </g>
   <g id="line2d_54">
    <path d="M 103.827273 62.022141 
L 127.855981 196.495847 
L 151.884689 189.568448 
L 175.913397 180.581513 
L 199.942105 166.534242 
L 223.970813 150.14794 
L 247.999522 248.773091 
L 272.02823 298.319126 
L 296.056938 269.318608 
L 320.085646 236.682154 
L 344.114354 201.112465 
L 368.143062 164.059695 
L 392.17177 249.645927 
L 416.200478 229.883745 
L 440.229187 190.964563 
L 464.257895 208.18465 
L 488.286603 170.186853 
L 512.315311 151.458565 
L 536.344019 111.606177 
L 560.372727 198.050469 
" clip-path="url(#p1138551c89)" style="fill: none; stroke-dasharray: 3.7,1.6; stroke-dashoffset: 0; stroke: #bcbd22; stroke-opacity: 0.6"/>
   </g>
   <g id="line2d_55">
    <path d="M 103.827273 62.022141 
L 127.855981 196.330989 
L 151.884689 190.423342 
L 175.913397 180.001663 
L 199.942105 166.89203 
L 223.970813 149.563657 
L 247.999522 250.792328 
L 272.02823 301.683818 
L 296.056938 273.491543 
L 320.085646 242.180279 
L 344.114354 207.508546 
L 368.143062 170.603534 
L 392.17177 252.479951 
L 416.200478 234.257 
L 440.229187 196.79177 
L 464.257895 214.507906 
L 488.286603 177.30421 
L 512.315311 159.225642 
L 536.344019 119.98941 
L 560.372727 201.224551 
" clip-path="url(#p1138551c89)" style="fill: none; stroke-dasharray: 3.7,1.6; stroke-dashoffset: 0; stroke: #17becf; stroke-opacity: 0.6"/>
   </g>
   <g id="line2d_56">
    <path d="M 103.827273 62.022141 
L 127.855981 195.407705 
L 151.884689 188.583316 
L 175.913397 178.29842 
L 199.942105 162.905272 
L 223.970813 144.146377 
L 247.999522 244.222736 
L 272.02823 294.713798 
L 296.056938 265.052162 
L 320.085646 232.025623 
L 344.114354 197.196209 
L 368.143062 160.659963 
L 392.17177 249.867143 
L 416.200478 232.088315 
L 440.229187 194.037325 
L 464.257895 213.542616 
L 488.286603 177.393921 
L 512.315311 160.311462 
L 536.344019 122.402743 
L 560.372727 206.33808 
" clip-path="url(#p1138551c89)" style="fill: none; stroke-dasharray: 3.7,1.6; stroke-dashoffset: 0; stroke: #1f77b4; stroke-opacity: 0.6"/>
   </g>
   <g id="line2d_57">
    <path d="M 103.827273 62.022141 
L 127.855981 195.258256 
L 151.884689 188.848227 
L 175.913397 179.636275 
L 199.942105 167.1371 
L 223.970813 151.298985 
L 247.999522 250.552747 
L 272.02823 299.015073 
L 296.056938 268.694641 
L 320.085646 235.298493 
L 344.114354 199.924058 
L 368.143062 163.367336 
L 392.17177 248.26501 
L 416.200478 229.682793 
L 440.229187 192.714878 
L 464.257895 210.697404 
L 488.286603 175.103229 
L 512.315311 157.80673 
L 536.344019 119.245125 
L 560.372727 201.039852 
" clip-path="url(#p1138551c89)" style="fill: none; stroke-dasharray: 3.7,1.6; stroke-dashoffset: 0; stroke: #ff7f0e; stroke-opacity: 0.6"/>
   </g>
   <g id="line2d_58">
    <path d="M 103.827273 62.022141 
L 127.855981 195.47293 
L 151.884689 188.202519 
L 175.913397 176.310001 
L 199.942105 162.69862 
L 223.970813 145.864185 
L 247.999522 248.418046 
L 272.02823 300.459104 
L 296.056938 271.18713 
L 320.085646 237.803858 
L 344.114354 199.68511 
L 368.143062 159.73119 
L 392.17177 248.108385 
L 416.200478 227.666722 
L 440.229187 186.942342 
L 464.257895 206.055016 
L 488.286603 165.95988 
L 512.315311 146.752219 
L 536.344019 104.680274 
L 560.372727 194.252631 
" clip-path="url(#p1138551c89)" style="fill: none; stroke-dasharray: 3.7,1.6; stroke-dashoffset: 0; stroke: #2ca02c; stroke-opacity: 0.6"/>
   </g>
   <g id="line2d_59">
    <path d="M 103.827273 62.022141 
L 127.855981 195.647075 
L 151.884689 189.049391 
L 175.913397 178.266968 
L 199.942105 162.596244 
L 223.970813 144.537728 
L 247.999522 245.407555 
L 272.02823 296.213977 
L 296.056938 266.552341 
L 320.085646 232.619615 
L 344.114354 197.130139 
L 368.143062 157.897918 
L 392.17177 245.816004 
L 416.200478 225.574238 
L 440.229187 184.989597 
L 464.257895 201.917965 
L 488.286603 162.381782 
L 512.315311 142.21284 
L 536.344019 101.59738 
L 560.372727 189.30227 
" clip-path="url(#p1138551c89)" style="fill: none; stroke-dasharray: 3.7,1.6; stroke-dashoffset: 0; stroke: #d62728; stroke-opacity: 0.6"/>
   </g>
   <g id="line2d_60">
    <path d="M 103.827273 62.022141 
L 127.855981 195.438945 
L 151.884689 188.161357 
L 175.913397 176.173429 
L 199.942105 160.623023 
L 223.970813 141.91521 
L 247.999522 245.341696 
L 272.02823 297.232673 
L 296.056938 266.490705 
L 320.085646 231.141811 
L 344.114354 193.713098 
L 368.143062 152.760114 
L 392.17177 242.743454 
L 416.200478 221.739672 
L 440.229187 180.048735 
L 464.257895 200.291345 
L 488.286603 160.127607 
L 512.315311 140.517196 
L 536.344019 97.958701 
L 560.372727 190.485401 
" clip-path="url(#p1138551c89)" style="fill: none; stroke-dasharray: 3.7,1.6; stroke-dashoffset: 0; stroke: #9467bd; stroke-opacity: 0.6"/>
   </g>
   <g id="line2d_61">
    <path d="M 103.827273 62.022141 
L 127.855981 195.972567 
L 151.884689 188.45962 
L 175.913397 176.678133 
L 199.942105 160.871892 
L 223.970813 140.015447 
L 247.999522 239.697922 
L 272.02823 289.147069 
L 296.056938 256.007178 
L 320.085646 218.737201 
L 344.114354 179.58857 
L 368.143062 138.932582 
L 392.17177 235.680556 
L 416.200478 215.323116 
L 440.229187 173.510383 
L 464.257895 194.268463 
L 488.286603 154.044354 
L 512.315311 134.388138 
L 536.344019 90.937809 
L 560.372727 184.24299 
" clip-path="url(#p1138551c89)" style="fill: none; stroke-dasharray: 3.7,1.6; stroke-dashoffset: 0; stroke: #8c564b; stroke-opacity: 0.6"/>
   </g>
   <g id="line2d_62">
    <path d="M 103.827273 62.022141 
L 127.855981 195.181211 
L 151.884689 187.082503 
L 175.913397 176.386836 
L 199.942105 161.416702 
L 223.970813 142.594059 
L 247.999522 240.883796 
L 272.02823 288.727644 
L 296.056938 254.126412 
L 320.085646 215.35499 
L 344.114354 173.058029 
L 368.143062 130.367183 
L 392.17177 227.202968 
L 416.200478 203.511655 
L 440.229187 158.735714 
L 464.257895 176.736814 
L 488.286603 133.680792 
L 512.315311 112.310356 
L 536.344019 68.481342 
L 560.372727 163.726392 
" clip-path="url(#p1138551c89)" style="fill: none; stroke-dasharray: 3.7,1.6; stroke-dashoffset: 0; stroke: #e377c2; stroke-opacity: 0.6"/>
   </g>
   <g id="line2d_63">
    <path d="M 103.827273 62.022141 
L 127.855981 195.550609 
L 151.884689 189.270608 
L 175.913397 178.497473 
L 199.942105 164.617803 
L 223.970813 147.36162 
L 247.999522 248.025006 
L 272.02823 298.546887 
L 296.056938 267.767768 
L 320.085646 233.179412 
L 344.114354 196.060572 
L 368.143062 155.677306 
L 392.17177 245.740647 
L 416.200478 225.154179 
L 440.229187 183.362766 
L 464.257895 202.798821 
L 488.286603 162.36405 
L 512.315311 142.378964 
L 536.344019 99.021301 
L 560.372727 190.133522 
" clip-path="url(#p1138551c89)" style="fill: none; stroke-dasharray: 3.7,1.6; stroke-dashoffset: 0; stroke: #7f7f7f; stroke-opacity: 0.6"/>
   </g>
   <g id="line2d_64">
    <path d="M 103.827273 62.022141 
L 127.855981 195.377097 
L 151.884689 187.2786 
L 175.913397 173.330961 
L 199.942105 156.869935 
L 223.970813 136.573287 
L 247.999522 236.587588 
L 272.02823 287.028622 
L 296.056938 255.225742 
L 320.085646 220.51538 
L 344.114354 183.88879 
L 368.143062 145.837377 
L 392.17177 238.611046 
L 416.200478 220.469785 
L 440.229187 182.200956 
L 464.257895 202.594914 
L 488.286603 165.173167 
L 512.315311 147.425157 
L 536.344019 108.79115 
L 560.372727 194.263819 
" clip-path="url(#p1138551c89)" style="fill: none; stroke-dasharray: 3.7,1.6; stroke-dashoffset: 0; stroke: #bcbd22; stroke-opacity: 0.6"/>
   </g>
   <g id="line2d_65">
    <path d="M 103.827273 62.022141 
L 127.855981 196.092041 
L 151.884689 191.058707 
L 175.913397 180.965687 
L 199.942105 167.790196 
L 223.970813 152.907029 
L 247.999522 252.174722 
L 272.02823 300.960219 
L 296.056938 269.786583 
L 320.085646 235.530475 
L 344.114354 198.879821 
L 368.143062 160.365077 
L 392.17177 248.406014 
L 416.200478 228.478554 
L 440.229187 188.427746 
L 464.257895 205.399386 
L 488.286603 166.521999 
L 512.315311 147.004465 
L 536.344019 105.892534 
L 560.372727 191.977348 
" clip-path="url(#p1138551c89)" style="fill: none; stroke-dasharray: 3.7,1.6; stroke-dashoffset: 0; stroke: #17becf; stroke-opacity: 0.6"/>
   </g>
   <g id="line2d_66">
    <path d="M 103.827273 62.022141 
L 127.855981 196.52962 
L 151.884689 191.770485 
L 175.913397 183.451211 
L 199.942105 170.010175 
L 223.970813 155.560787 
L 247.999522 257.387673 
L 272.02823 307.8 
L 296.056938 281.682689 
L 320.085646 252.638898 
L 344.114354 220.134372 
L 368.143062 185.181262 
L 392.17177 262.479249 
L 416.200478 245.267606 
L 440.229187 208.209558 
L 464.257895 224.743831 
L 488.286603 188.085367 
L 512.315311 169.785792 
L 536.344019 130.834314 
L 560.372727 211.964123 
" clip-path="url(#p1138551c89)" style="fill: none; stroke-dasharray: 3.7,1.6; stroke-dashoffset: 0; stroke: #1f77b4; stroke-opacity: 0.6"/>
   </g>
   <g id="line2d_67">
    <path d="M 103.827273 62.022141 
L 127.855981 195.647075 
L 151.884689 190.586721 
L 175.913397 181.339519 
L 199.942105 169.113698 
L 223.970813 153.224923 
L 247.999522 252.537155 
L 272.02823 301.477799 
L 296.056938 271.176787 
L 320.085646 237.38 
L 344.114354 201.902766 
L 368.143062 164.919232 
L 392.17177 251.157294 
L 416.200478 232.932654 
L 440.229187 194.628362 
L 464.257895 213.806049 
L 488.286603 176.251953 
L 512.315311 158.555658 
L 536.344019 118.864961 
L 560.372727 202.725364 
" clip-path="url(#p1138551c89)" style="fill: none; stroke-dasharray: 3.7,1.6; stroke-dashoffset: 0; stroke: #ff7f0e; stroke-opacity: 0.6"/>
   </g>
   <g id="line2d_68">
    <path d="M 103.827273 62.022141 
L 127.855981 195.711033 
L 151.884689 187.88948 
L 175.913397 176.168363 
L 199.942105 160.754951 
L 223.970813 143.751226 
L 247.999522 244.645117 
L 272.02823 295.021982 
L 296.056938 266.158668 
L 320.085646 234.129927 
L 344.114354 199.932501 
L 368.143062 163.007226 
L 392.17177 247.079558 
L 416.200478 227.893638 
L 440.229187 189.934892 
L 464.257895 207.32258 
L 488.286603 170.121628 
L 512.315311 151.490861 
L 536.344019 110.746851 
L 560.372727 193.785712 
" clip-path="url(#p1138551c89)" style="fill: none; stroke-dasharray: 3.7,1.6; stroke-dashoffset: 0; stroke: #2ca02c; stroke-opacity: 0.6"/>
   </g>
   <g id="line2d_69">
    <path d="M 103.827273 62.022141 
L 127.855981 196.160855 
L 151.884689 190.478435 
L 175.913397 181.544271 
L 199.942105 169.82231 
L 223.970813 155.216086 
L 247.999522 255.991136 
L 272.02823 306.554178 
L 296.056938 280.136282 
L 320.085646 250.684675 
L 344.114354 217.972652 
L 368.143062 181.967496 
L 392.17177 259.544537 
L 416.200478 240.841157 
L 440.229187 202.762726 
L 464.257895 219.098156 
L 488.286603 182.328029 
L 512.315311 163.677209 
L 536.344019 123.423127 
L 560.372727 204.259106 
" clip-path="url(#p1138551c89)" style="fill: none; stroke-dasharray: 3.7,1.6; stroke-dashoffset: 0; stroke: #d62728; stroke-opacity: 0.6"/>
   </g>
   <g id="line2d_70">
    <path d="M 103.827273 62.022141 
L 127.855981 195.379841 
L 151.884689 189.808874 
L 175.913397 177.957096 
L 199.942105 164.583185 
L 223.970813 146.980823 
L 247.999522 246.597018 
L 272.02823 296.346961 
L 296.056938 264.91179 
L 320.085646 229.790024 
L 344.114354 192.846595 
L 368.143062 154.569744 
L 392.17177 245.225389 
L 416.200478 225.546164 
L 440.229187 186.649568 
L 464.257895 205.348093 
L 488.286603 167.375837 
L 512.315311 148.933358 
L 536.344019 109.096801 
L 560.372727 197.405394 
" clip-path="url(#p1138551c89)" style="fill: none; stroke-dasharray: 3.7,1.6; stroke-dashoffset: 0; stroke: #9467bd; stroke-opacity: 0.6"/>
   </g>
   <g id="line2d_71">
    <path d="M 103.827273 62.022141 
L 127.855981 195.924651 
L 151.884689 187.898979 
L 175.913397 177.431283 
L 199.942105 163.615994 
L 223.970813 145.213199 
L 247.999522 244.032971 
L 272.02823 292.747543 
L 296.056938 261.394695 
L 320.085646 226.9465 
L 344.114354 190.615218 
L 368.143062 151.207797 
L 392.17177 242.208565 
L 416.200478 222.930612 
L 440.229187 183.456488 
L 464.257895 202.287996 
L 488.286603 164.096846 
L 512.315311 145.769408 
L 536.344019 107.231656 
L 560.372727 193.943181 
" clip-path="url(#p1138551c89)" style="fill: none; stroke-dasharray: 3.7,1.6; stroke-dashoffset: 0; stroke: #8c564b; stroke-opacity: 0.6"/>
   </g>
   <g id="line2d_72">
    <path d="M 103.827273 62.022141 
L 127.855981 196.975854 
L 151.884689 190.258485 
L 175.913397 179.774958 
L 199.942105 166.204949 
L 223.970813 150.438815 
L 247.999522 248.616466 
L 272.02823 297.575474 
L 296.056938 266.941793 
L 320.085646 232.056863 
L 344.114354 195.879251 
L 368.143062 156.064225 
L 392.17177 242.547356 
L 416.200478 221.736294 
L 440.229187 182.212987 
L 464.257895 198.568049 
L 488.286603 160.317161 
L 512.315311 141.652832 
L 536.344019 103.08194 
L 560.372727 187.83692 
" clip-path="url(#p1138551c89)" style="fill: none; stroke-dasharray: 3.7,1.6; stroke-dashoffset: 0; stroke: #e377c2; stroke-opacity: 0.6"/>
   </g>
   <g id="line2d_73">
    <path d="M 103.827273 62.022141 
L 127.855981 195.718844 
L 151.884689 190.041912 
L 175.913397 179.387195 
L 199.942105 166.854035 
L 223.970813 151.636299 
L 247.999522 252.5304 
L 272.02823 302.570585 
L 296.056938 272.993805 
L 320.085646 240.84939 
L 344.114354 205.68625 
L 368.143062 166.625008 
L 392.17177 251.763107 
L 416.200478 231.533162 
L 440.229187 192.276455 
L 464.257895 209.287146 
L 488.286603 171.170508 
L 512.315311 152.025961 
L 536.344019 111.322268 
L 560.372727 198.044136 
" clip-path="url(#p1138551c89)" style="fill: none; stroke-dasharray: 3.7,1.6; stroke-dashoffset: 0; stroke: #7f7f7f; stroke-opacity: 0.6"/>
   </g>
   <g id="line2d_74">
    <path d="M 103.827273 62.022141 
L 127.855981 196.176475 
L 151.884689 190.610152 
L 175.913397 181.331075 
L 199.942105 168.963617 
L 223.970813 153.081385 
L 247.999522 254.100027 
L 272.02823 305.899604 
L 296.056938 279.007822 
L 320.085646 248.358309 
L 344.114354 214.938519 
L 368.143062 178.536523 
L 392.17177 258.707164 
L 416.200478 239.873756 
L 440.229187 201.865193 
L 464.257895 219.386498 
L 488.286603 182.873261 
L 512.315311 164.277956 
L 536.344019 124.591692 
L 560.372727 208.17304 
" clip-path="url(#p1138551c89)" style="fill: none; stroke-dasharray: 3.7,1.6; stroke-dashoffset: 0; stroke: #bcbd22; stroke-opacity: 0.6"/>
   </g>
   <g id="line2d_75">
    <path d="M 103.827273 62.022141 
L 127.855981 196.101751 
L 151.884689 188.347323 
L 175.913397 177.587697 
L 199.942105 163.69494 
L 223.970813 145.605184 
L 247.999522 246.845253 
L 272.02823 296.989925 
L 296.056938 267.222536 
L 320.085646 233.097511 
L 344.114354 196.141418 
L 368.143062 155.429281 
L 392.17177 243.828429 
L 416.200478 222.302002 
L 440.229187 180.638506 
L 464.257895 198.221659 
L 488.286603 157.87301 
L 512.315311 138.095631 
L 536.344019 96.406594 
L 560.372727 187.800824 
" clip-path="url(#p1138551c89)" style="fill: none; stroke-dasharray: 3.7,1.6; stroke-dashoffset: 0; stroke: #17becf; stroke-opacity: 0.6"/>
   </g>
   <g id="line2d_76">
    <path d="M 103.827273 62.022141 
L 127.855981 196.318324 
L 151.884689 190.113258 
L 175.913397 179.023918 
L 199.942105 165.778558 
L 223.970813 148.761957 
L 247.999522 248.929294 
L 272.02823 299.957355 
L 296.056938 272.106827 
L 320.085646 240.832714 
L 344.114354 206.427158 
L 368.143062 170.434878 
L 392.17177 253.743505 
L 416.200478 235.818395 
L 440.229187 199.337664 
L 464.257895 217.493912 
L 488.286603 180.844525 
L 512.315311 162.594977 
L 536.344019 123.066815 
L 560.372727 205.218064 
" clip-path="url(#p1138551c89)" style="fill: none; stroke-dasharray: 3.7,1.6; stroke-dashoffset: 0; stroke: #1f77b4; stroke-opacity: 0.6"/>
   </g>
   <g id="line2d_77">
    <path d="M 103.827273 62.022141 
L 127.855981 195.403061 
L 151.884689 189.968665 
L 175.913397 178.946239 
L 199.942105 166.62923 
L 223.970813 151.16959 
L 247.999522 250.895971 
L 272.02823 301.398642 
L 296.056938 272.381237 
L 320.085646 238.519013 
L 344.114354 202.164512 
L 368.143062 162.02927 
L 392.17177 247.432702 
L 416.200478 226.258153 
L 440.229187 184.359931 
L 464.257895 200.675942 
L 488.286603 160.564552 
L 512.315311 140.084472 
L 536.344019 96.821165 
L 560.372727 184.417557 
" clip-path="url(#p1138551c89)" style="fill: none; stroke-dasharray: 3.7,1.6; stroke-dashoffset: 0; stroke: #ff7f0e; stroke-opacity: 0.6"/>
   </g>
   <g id="line2d_78">
    <path d="M 103.827273 62.022141 
L 127.855981 196.318324 
L 151.884689 189.678846 
L 175.913397 179.687147 
L 199.942105 166.713664 
L 223.970813 148.837736 
L 247.999522 248.052025 
L 272.02823 298.505936 
L 296.056938 268.917758 
L 320.085646 235.182607 
L 344.114354 198.600345 
L 368.143062 159.611716 
L 392.17177 245.497477 
L 416.200478 225.606112 
L 440.229187 186.564923 
L 464.257895 203.896673 
L 488.286603 165.212007 
L 512.315311 145.994635 
L 536.344019 106.758615 
L 560.372727 191.924366 
" clip-path="url(#p1138551c89)" style="fill: none; stroke-dasharray: 3.7,1.6; stroke-dashoffset: 0; stroke: #2ca02c; stroke-opacity: 0.6"/>
   </g>
   <g id="line2d_79">
    <path d="M 103.827273 62.022141 
L 127.855981 195.58396 
L 151.884689 188.796511 
L 175.913397 178.755418 
L 199.942105 165.705945 
L 223.970813 149.075629 
L 247.999522 249.103439 
L 272.02823 299.139824 
L 296.056938 270.189121 
L 320.085646 237.941274 
L 344.114354 203.186373 
L 368.143062 167.041901 
L 392.17177 250.377335 
L 416.200478 231.624351 
L 440.229187 193.827506 
L 464.257895 210.661519 
L 488.286603 173.660465 
L 512.315311 155.185056 
L 536.344019 115.726341 
L 560.372727 197.289719 
" clip-path="url(#p1138551c89)" style="fill: none; stroke-dasharray: 3.7,1.6; stroke-dashoffset: 0; stroke: #d62728; stroke-opacity: 0.6"/>
   </g>
   <g id="line2d_80">
    <path d="M 103.827273 62.022141 
L 127.855981 194.774872 
L 151.884689 187.499395 
L 175.913397 175.114839 
L 199.942105 159.120732 
L 223.970813 138.770891 
L 247.999522 236.68152 
L 272.02823 284.34489 
L 296.056938 247.886113 
L 320.085646 208.313623 
L 344.114354 166.493713 
L 368.143062 124.53681 
L 392.17177 223.656744 
L 416.200478 200.994469 
L 440.229187 158.412754 
L 464.257895 177.848176 
L 488.286603 136.619726 
L 512.315311 116.286561 
L 536.344019 73.614713 
L 560.372727 167.731515 
" clip-path="url(#p1138551c89)" style="fill: none; stroke-dasharray: 3.7,1.6; stroke-dashoffset: 0; stroke: #9467bd; stroke-opacity: 0.6"/>
   </g>
   <g id="line2d_81">
    <path d="M 103.827273 62.022141 
L 127.855981 194.815823 
L 151.884689 188.59007 
L 175.913397 177.67382 
L 199.942105 163.360371 
L 223.970813 144.529918 
L 247.999522 246.651266 
L 272.02823 299.027738 
L 296.056938 269.470167 
L 320.085646 236.409643 
L 344.114354 200.975049 
L 368.143062 162.544106 
L 392.17177 249.846035 
L 416.200478 231.03458 
L 440.229187 192.488807 
L 464.257895 212.365396 
L 488.286603 173.441359 
L 512.315311 154.381245 
L 536.344019 112.125024 
L 560.372727 198.716652 
" clip-path="url(#p1138551c89)" style="fill: none; stroke-dasharray: 3.7,1.6; stroke-dashoffset: 0; stroke: #8c564b; stroke-opacity: 0.6"/>
   </g>
   <g id="line2d_82">
    <path d="M 103.827273 62.022141 
L 127.855981 195.902065 
L 151.884689 189.548606 
L 175.913397 179.58667 
L 199.942105 167.595787 
L 223.970813 153.1445 
L 247.999522 253.168299 
L 272.02823 303.952557 
L 296.056938 275.258534 
L 320.085646 241.018891 
L 344.114354 203.556194 
L 368.143062 163.073295 
L 392.17177 249.692365 
L 416.200478 228.240239 
L 440.229187 186.464235 
L 464.257895 203.11967 
L 488.286603 161.295117 
L 512.315311 140.071807 
L 536.344019 96.488073 
L 560.372727 187.37781 
" clip-path="url(#p1138551c89)" style="fill: none; stroke-dasharray: 3.7,1.6; stroke-dashoffset: 0; stroke: #e377c2; stroke-opacity: 0.6"/>
   </g>
   <g id="line2d_83">
    <path d="M 103.827273 62.022141 
L 127.855981 195.427969 
L 151.884689 188.020775 
L 175.913397 177.63688 
L 199.942105 164.080381 
L 223.970813 147.075601 
L 247.999522 248.824173 
L 272.02823 300.047489 
L 296.056938 270.664907 
L 320.085646 237.150762 
L 344.114354 201.493473 
L 368.143062 162.817249 
L 392.17177 250.577233 
L 416.200478 231.915437 
L 440.229187 193.191086 
L 464.257895 212.844347 
L 488.286603 174.623011 
L 512.315311 156.479217 
L 536.344019 115.364542 
L 560.372727 200.927977 
" clip-path="url(#p1138551c89)" style="fill: none; stroke-dasharray: 3.7,1.6; stroke-dashoffset: 0; stroke: #7f7f7f; stroke-opacity: 0.6"/>
   </g>
   <g id="line2d_84">
    <path d="M 103.827273 62.022141 
L 127.855981 196.45954 
L 151.884689 188.184154 
L 175.913397 177.128166 
L 199.942105 163.207756 
L 223.970813 144.651081 
L 247.999522 243.28573 
L 272.02823 292.964327 
L 296.056938 260.85664 
L 320.085646 225.409803 
L 344.114354 186.406187 
L 368.143062 145.374257 
L 392.17177 236.182727 
L 416.200478 213.506942 
L 440.229187 169.417871 
L 464.257895 186.517006 
L 488.286603 143.982153 
L 512.315311 122.436305 
L 536.344019 79.083498 
L 560.372727 170.839527 
" clip-path="url(#p1138551c89)" style="fill: none; stroke-dasharray: 3.7,1.6; stroke-dashoffset: 0; stroke: #bcbd22; stroke-opacity: 0.6"/>
   </g>
   <g id="line2d_85">
    <path d="M 103.827273 62.022141 
L 127.855981 195.475041 
L 151.884689 188.521257 
L 175.913397 175.931315 
L 199.942105 160.050139 
L 223.970813 140.42854 
L 247.999522 243.257445 
L 272.02823 295.621462 
L 296.056938 264.050353 
L 320.085646 227.811737 
L 344.114354 188.572761 
L 368.143062 145.966983 
L 392.17177 238.693158 
L 416.200478 216.147824 
L 440.229187 171.282594 
L 464.257895 191.535337 
L 488.286603 149.038478 
L 512.315311 128.202086 
L 536.344019 83.519023 
L 560.372727 180.430587 
" clip-path="url(#p1138551c89)" style="fill: none; stroke-dasharray: 3.7,1.6; stroke-dashoffset: 0; stroke: #17becf; stroke-opacity: 0.6"/>
   </g>
   <g id="line2d_86">
    <path d="M 103.827273 62.022141 
L 127.855981 195.379208 
L 151.884689 189.49879 
L 175.913397 178.138629 
L 199.942105 163.031289 
L 223.970813 143.683679 
L 247.999522 242.000013 
L 272.02823 290.107083 
L 296.056938 257.42419 
L 320.085646 220.732164 
L 344.114354 181.694774 
L 368.143062 140.598252 
L 392.17177 232.878617 
L 416.200478 212.653526 
L 440.229187 173.109111 
L 464.257895 191.488687 
L 488.286603 152.99273 
L 512.315311 134.721652 
L 536.344019 95.789382 
L 560.372727 181.717782 
" clip-path="url(#p1138551c89)" style="fill: none; stroke-dasharray: 3.7,1.6; stroke-dashoffset: 0; stroke: #1f77b4; stroke-opacity: 0.6"/>
   </g>
   <g id="line2d_87">
    <path d="M 103.827273 62.022141 
L 127.855981 195.45351 
L 151.884689 189.805919 
L 175.913397 179.888733 
L 199.942105 166.450652 
L 223.970813 148.812828 
L 247.999522 249.304813 
L 272.02823 300.405911 
L 296.056938 272.301658 
L 320.085646 240.301202 
L 344.114354 205.439281 
L 368.143062 169.217552 
L 392.17177 253.362708 
L 416.200478 235.498601 
L 440.229187 197.6264 
L 464.257895 215.375887 
L 488.286603 177.788228 
L 512.315311 158.74268 
L 536.344019 118.956572 
L 560.372727 202.315015 
" clip-path="url(#p1138551c89)" style="fill: none; stroke-dasharray: 3.7,1.6; stroke-dashoffset: 0; stroke: #ff7f0e; stroke-opacity: 0.6"/>
   </g>
   <g id="line2d_88">
    <path d="M 103.827273 62.022141 
L 127.855981 195.824597 
L 151.884689 189.856368 
L 175.913397 179.266666 
L 199.942105 165.295807 
L 223.970813 146.886046 
L 247.999522 247.298452 
L 272.02823 297.378955 
L 296.056938 263.815627 
L 320.085646 225.957357 
L 344.114354 185.850823 
L 368.143062 143.512278 
L 392.17177 238.154892 
L 416.200478 215.030552 
L 440.229187 169.26969 
L 464.257895 188.168323 
L 488.286603 143.135069 
L 512.315311 120.214004 
L 536.344019 73.97229 
L 560.372727 172.984149 
" clip-path="url(#p1138551c89)" style="fill: none; stroke-dasharray: 3.7,1.6; stroke-dashoffset: 0; stroke: #2ca02c; stroke-opacity: 0.6"/>
   </g>
   <g id="line2d_89">
    <path d="M 103.827273 62.022141 
L 127.855981 196.479593 
L 151.884689 190.874641 
L 175.913397 182.070505 
L 199.942105 169.670751 
L 223.970813 153.240332 
L 247.999522 253.820128 
L 272.02823 303.718042 
L 296.056938 274.200577 
L 320.085646 240.925802 
L 344.114354 204.701118 
L 368.143062 167.027758 
L 392.17177 253.334 
L 416.200478 234.212672 
L 440.229187 195.81297 
L 464.257895 214.780628 
L 488.286603 177.151596 
L 512.315311 159.158939 
L 536.344019 118.433715 
L 560.372727 205.224397 
" clip-path="url(#p1138551c89)" style="fill: none; stroke-dasharray: 3.7,1.6; stroke-dashoffset: 0; stroke: #d62728; stroke-opacity: 0.6"/>
   </g>
   <g id="line2d_90">
    <path d="M 103.827273 62.022141 
L 127.855981 195.333192 
L 151.884689 188.778991 
L 175.913397 177.840788 
L 199.942105 164.150883 
L 223.970813 145.914001 
L 247.999522 247.632178 
L 272.02823 300.447705 
L 296.056938 271.879911 
L 320.085646 239.765891 
L 344.114354 205.4644 
L 368.143062 167.144488 
L 392.17177 250.45987 
L 416.200478 231.108037 
L 440.229187 192.120675 
L 464.257895 211.19092 
L 488.286603 172.302134 
L 512.315311 153.162231 
L 536.344019 111.146857 
L 560.372727 197.213095 
" clip-path="url(#p1138551c89)" style="fill: none; stroke-dasharray: 3.7,1.6; stroke-dashoffset: 0; stroke: #9467bd; stroke-opacity: 0.6"/>
   </g>
   <g id="line2d_91">
    <path d="M 103.827273 62.022141 
L 127.855981 194.884425 
L 151.884689 188.242414 
L 175.913397 175.413102 
L 199.942105 159.890559 
L 223.970813 141.346548 
L 247.999522 241.631037 
L 272.02823 290.838703 
L 296.056938 257.144292 
L 320.085646 218.212656 
L 344.114354 175.962133 
L 368.143062 131.42704 
L 392.17177 228.309053 
L 416.200478 203.49899 
L 440.229187 157.331789 
L 464.257895 174.659951 
L 488.286603 129.977943 
L 512.315311 106.799565 
L 536.344019 61.939824 
L 560.372727 159.95304 
" clip-path="url(#p1138551c89)" style="fill: none; stroke-dasharray: 3.7,1.6; stroke-dashoffset: 0; stroke: #8c564b; stroke-opacity: 0.6"/>
   </g>
   <g id="line2d_92">
    <path d="M 103.827273 62.022141 
L 127.855981 195.990299 
L 151.884689 190.854588 
L 175.913397 181.346484 
L 199.942105 168.782295 
L 223.970813 152.226703 
L 247.999522 252.784124 
L 272.02823 303.895353 
L 296.056938 276.191318 
L 320.085646 245.024436 
L 344.114354 211.666283 
L 368.143062 176.107993 
L 392.17177 257.976177 
L 416.200478 241.253617 
L 440.229187 204.913469 
L 464.257895 222.734514 
L 488.286603 187.629212 
L 512.315311 170.630342 
L 536.344019 132.753919 
L 560.372727 211.219627 
" clip-path="url(#p1138551c89)" style="fill: none; stroke-dasharray: 3.7,1.6; stroke-dashoffset: 0; stroke: #e377c2; stroke-opacity: 0.6"/>
   </g>
   <g id="line2d_93">
    <path d="M 103.827273 62.022141 
L 127.855981 196.703976 
L 151.884689 190.81026 
L 175.913397 181.037667 
L 199.942105 168.836544 
L 223.970813 151.405583 
L 247.999522 248.219838 
L 272.02823 295.063354 
L 296.056938 262.831972 
L 320.085646 226.390292 
L 344.114354 186.944664 
L 368.143062 145.940386 
L 392.17177 236.452704 
L 416.200478 213.306412 
L 440.229187 169.832442 
L 464.257895 186.205023 
L 488.286603 145.513573 
L 512.315311 125.181885 
L 536.344019 83.513534 
L 560.372727 174.815098 
" clip-path="url(#p1138551c89)" style="fill: none; stroke-dasharray: 3.7,1.6; stroke-dashoffset: 0; stroke: #7f7f7f; stroke-opacity: 0.6"/>
   </g>
   <g id="line2d_94">
    <path d="M 103.827273 62.022141 
L 127.855981 195.623855 
L 151.884689 189.369818 
L 175.913397 178.725022 
L 199.942105 164.397641 
L 223.970813 148.348442 
L 247.999522 249.890363 
L 272.02823 301.429883 
L 296.056938 272.838869 
L 320.085646 240.846012 
L 344.114354 206.726265 
L 368.143062 170.286485 
L 392.17177 255.421629 
L 416.200478 237.624858 
L 440.229187 199.013649 
L 464.257895 217.879353 
L 488.286603 179.640708 
L 512.315311 160.342913 
L 536.344019 118.681529 
L 560.372727 204.67621 
" clip-path="url(#p1138551c89)" style="fill: none; stroke-dasharray: 3.7,1.6; stroke-dashoffset: 0; stroke: #bcbd22; stroke-opacity: 0.6"/>
   </g>
   <g id="line2d_95">
    <path d="M 103.827273 62.022141 
L 127.855981 196.489092 
L 151.884689 191.73059 
L 175.913397 181.708706 
L 199.942105 169.847429 
L 223.970813 152.669559 
L 247.999522 252.079312 
L 272.02823 301.521494 
L 296.056938 271.387872 
L 320.085646 236.843211 
L 344.114354 200.053875 
L 368.143062 161.86969 
L 392.17177 246.699816 
L 416.200478 226.107016 
L 440.229187 186.268349 
L 464.257895 203.072176 
L 488.286603 163.54697 
L 512.315311 143.13908 
L 536.344019 101.430623 
L 560.372727 186.685241 
" clip-path="url(#p1138551c89)" style="fill: none; stroke-dasharray: 3.7,1.6; stroke-dashoffset: 0; stroke: #17becf; stroke-opacity: 0.6"/>
   </g>
   <g id="line2d_96">
    <path d="M 103.827273 62.022141 
L 127.855981 194.337294 
L 151.884689 184.685635 
L 175.913397 172.908792 
L 199.942105 157.857601 
L 223.970813 138.56825 
L 247.999522 239.557551 
L 272.02823 289.673515 
L 296.056938 255.953985 
L 320.085646 218.071862 
L 344.114354 177.671287 
L 368.143062 133.168278 
L 392.17177 227.628938 
L 416.200478 202.598924 
L 440.229187 156.972734 
L 464.257895 174.477363 
L 488.286603 130.361695 
L 512.315311 108.029345 
L 536.344019 64.265345 
L 560.372727 161.260921 
" clip-path="url(#p1138551c89)" style="fill: none; stroke-dasharray: 3.7,1.6; stroke-dashoffset: 0; stroke: #1f77b4; stroke-opacity: 0.6"/>
   </g>
   <g id="line2d_97">
    <path d="M 103.827273 62.022141 
L 127.855981 195.520635 
L 151.884689 188.914719 
L 175.913397 179.133471 
L 199.942105 164.681128 
L 223.970813 145.786928 
L 247.999522 246.205244 
L 272.02823 296.347383 
L 296.056938 264.359804 
L 320.085646 228.313063 
L 344.114354 188.731286 
L 368.143062 147.328269 
L 392.17177 240.44284 
L 416.200478 218.294557 
L 440.229187 175.256055 
L 464.257895 194.528519 
L 488.286603 153.086873 
L 512.315311 132.364045 
L 536.344019 88.916461 
L 560.372727 184.296183 
" clip-path="url(#p1138551c89)" style="fill: none; stroke-dasharray: 3.7,1.6; stroke-dashoffset: 0; stroke: #ff7f0e; stroke-opacity: 0.6"/>
   </g>
   <g id="line2d_98">
    <path d="M 103.827273 62.022141 
L 127.855981 195.673038 
L 151.884689 188.674504 
L 175.913397 178.522592 
L 199.942105 165.64853 
L 223.970813 149.785718 
L 247.999522 250.798238 
L 272.02823 300.135722 
L 296.056938 270.248014 
L 320.085646 236.036023 
L 344.114354 199.146421 
L 368.143062 159.810135 
L 392.17177 247.001878 
L 416.200478 225.752816 
L 440.229187 183.953382 
L 464.257895 201.340225 
L 488.286603 160.004967 
L 512.315311 139.216702 
L 536.344019 96.082157 
L 560.372727 185.831614 
" clip-path="url(#p1138551c89)" style="fill: none; stroke-dasharray: 3.7,1.6; stroke-dashoffset: 0; stroke: #2ca02c; stroke-opacity: 0.6"/>
   </g>
   <g id="line2d_99">
    <path d="M 103.827273 62.022141 
L 127.855981 195.229971 
L 151.884689 186.780651 
L 175.913397 176.164352 
L 199.942105 160.258268 
L 223.970813 141.954261 
L 247.999522 240.057822 
L 272.02823 289.31847 
L 296.056938 257.354955 
L 320.085646 221.993396 
L 344.114354 184.209639 
L 368.143062 144.728549 
L 392.17177 234.568139 
L 416.200478 213.552959 
L 440.229187 173.718091 
L 464.257895 191.183458 
L 488.286603 153.869998 
L 512.315311 135.055588 
L 536.344019 96.016932 
L 560.372727 182.17647 
" clip-path="url(#p1138551c89)" style="fill: none; stroke-dasharray: 3.7,1.6; stroke-dashoffset: 0; stroke: #d62728; stroke-opacity: 0.6"/>
   </g>
   <g id="line2d_100">
    <path d="M 103.827273 62.022141 
L 127.855981 194.567165 
L 151.884689 189.548606 
L 175.913397 180.115227 
L 199.942105 168.069884 
L 223.970813 153.730049 
L 247.999522 254.817082 
L 272.02823 306.190901 
L 296.056938 279.633478 
L 320.085646 249.984084 
L 344.114354 217.758823 
L 368.143062 183.512214 
L 392.17177 262.245156 
L 416.200478 245.371459 
L 440.229187 209.378335 
L 464.257895 225.456453 
L 488.286603 189.806552 
L 512.315311 172.119546 
L 536.344019 134.22518 
L 560.372727 211.284853 
" clip-path="url(#p1138551c89)" style="fill: none; stroke-dasharray: 3.7,1.6; stroke-dashoffset: 0; stroke: #9467bd; stroke-opacity: 0.6"/>
   </g>
   <g id="line2d_101">
    <path d="M 103.827273 62.022141 
L 127.855981 195.718844 
L 151.884689 188.184576 
L 175.913397 176.742303 
L 199.942105 162.605531 
L 223.970813 145.347238 
L 247.999522 246.503929 
L 272.02823 297.468666 
L 296.056938 267.184118 
L 320.085646 232.166839 
L 344.114354 194.444085 
L 368.143062 155.06115 
L 392.17177 244.880265 
L 416.200478 224.475331 
L 440.229187 183.624934 
L 464.257895 202.799455 
L 488.286603 162.788542 
L 512.315311 143.476605 
L 536.344019 101.471363 
L 560.372727 190.254896 
" clip-path="url(#p1138551c89)" style="fill: none; stroke-dasharray: 3.7,1.6; stroke-dashoffset: 0; stroke: #8c564b; stroke-opacity: 0.6"/>
   </g>
   <g id="line2d_102">
    <path d="M 103.827273 62.022141 
L 127.855981 195.627022 
L 151.884689 188.288641 
L 175.913397 175.577748 
L 199.942105 159.14353 
L 223.970813 137.801379 
L 247.999522 237.834043 
L 272.02823 286.483179 
L 296.056938 251.916988 
L 320.085646 214.416084 
L 344.114354 174.180789 
L 368.143062 130.846135 
L 392.17177 227.393789 
L 416.200478 204.385546 
L 440.229187 160.008766 
L 464.257895 180.250954 
L 488.286603 138.026817 
L 512.315311 117.678032 
L 536.344019 74.335567 
L 560.372727 170.544853 
" clip-path="url(#p1138551c89)" style="fill: none; stroke-dasharray: 3.7,1.6; stroke-dashoffset: 0; stroke: #e377c2; stroke-opacity: 0.6"/>
   </g>
   <g id="line2d_103">
    <path d="M 103.827273 62.022141 
L 127.855981 194.122409 
L 151.884689 185.823171 
L 175.913397 173.655821 
L 199.942105 159.30311 
L 223.970813 139.639083 
L 247.999522 239.538764 
L 272.02823 289.23277 
L 296.056938 256.506605 
L 320.085646 221.897352 
L 344.114354 185.053767 
L 368.143062 146.586517 
L 392.17177 237.301054 
L 416.200478 218.095293 
L 440.229187 178.840908 
L 464.257895 197.585238 
L 488.286603 159.832721 
L 512.315311 141.516893 
L 536.344019 101.669571 
L 560.372727 186.256528 
" clip-path="url(#p1138551c89)" style="fill: none; stroke-dasharray: 3.7,1.6; stroke-dashoffset: 0; stroke: #7f7f7f; stroke-opacity: 0.6"/>
   </g>
   <g id="line2d_104">
    <path d="M 103.827273 62.022141 
L 127.855981 195.897843 
L 151.884689 188.845061 
L 175.913397 177.15624 
L 199.942105 162.538406 
L 223.970813 143.827217 
L 247.999522 243.985688 
L 272.02823 293.700591 
L 296.056938 261.801667 
L 320.085646 226.763701 
L 344.114354 187.928742 
L 368.143062 147.940204 
L 392.17177 238.761972 
L 416.200478 217.458239 
L 440.229187 176.729638 
L 464.257895 194.835014 
L 488.286603 156.276787 
L 512.315311 136.772974 
L 536.344019 96.891667 
L 560.372727 185.701164 
" clip-path="url(#p1138551c89)" style="fill: none; stroke-dasharray: 3.7,1.6; stroke-dashoffset: 0; stroke: #bcbd22; stroke-opacity: 0.6"/>
   </g>
   <g id="line2d_105">
    <path d="M 103.827273 62.022141 
L 127.855981 196.071144 
L 151.884689 189.356519 
L 175.913397 178.090079 
L 199.942105 164.153627 
L 223.970813 146.549577 
L 247.999522 247.703524 
L 272.02823 296.784329 
L 296.056938 265.690693 
L 320.085646 230.477949 
L 344.114354 193.550141 
L 368.143062 154.620405 
L 392.17177 246.144452 
L 416.200478 227.109036 
L 440.229187 187.331372 
L 464.257895 206.311061 
L 488.286603 167.334886 
L 512.315311 147.660305 
L 536.344019 106.091165 
L 560.372727 193.945503 
" clip-path="url(#p1138551c89)" style="fill: none; stroke-dasharray: 3.7,1.6; stroke-dashoffset: 0; stroke: #17becf; stroke-opacity: 0.6"/>
   </g>
   <g id="line2d_106">
    <path d="M 103.827273 62.022141 
L 127.855981 195.267333 
L 151.884689 188.384263 
L 175.913397 176.619029 
L 199.942105 160.897222 
L 223.970813 140.935777 
L 247.999522 240.931079 
L 272.02823 289.572828 
L 296.056938 254.180872 
L 320.085646 215.292086 
L 344.114354 174.440001 
L 368.143062 132.233173 
L 392.17177 231.143499 
L 416.200478 209.068462 
L 440.229187 166.943535 
L 464.257895 188.339935 
L 488.286603 146.970902 
L 512.315311 127.512261 
L 536.344019 85.127489 
L 560.372727 181.047588 
" clip-path="url(#p1138551c89)" style="fill: none; stroke-dasharray: 3.7,1.6; stroke-dashoffset: 0; stroke: #1f77b4; stroke-opacity: 0.6"/>
   </g>
   <g id="line2d_107">
    <path d="M 103.827273 62.022141 
L 127.855981 195.946182 
L 151.884689 189.672302 
L 175.913397 179.281231 
L 199.942105 163.744334 
L 223.970813 145.570566 
L 247.999522 247.400406 
L 272.02823 298.396594 
L 296.056938 268.429307 
L 320.085646 234.658695 
L 344.114354 198.473905 
L 368.143062 159.837365 
L 392.17177 248.487704 
L 416.200478 228.955606 
L 440.229187 189.370029 
L 464.257895 209.393533 
L 488.286603 170.304638 
L 512.315311 151.412127 
L 536.344019 110.106631 
L 560.372727 199.330909 
" clip-path="url(#p1138551c89)" style="fill: none; stroke-dasharray: 3.7,1.6; stroke-dashoffset: 0; stroke: #ff7f0e; stroke-opacity: 0.6"/>
   </g>
   <g id="line2d_108">
    <path d="M 103.827273 62.022141 
L 127.855981 196.638118 
L 151.884689 189.729717 
L 175.913397 178.69737 
L 199.942105 165.201663 
L 223.970813 145.736267 
L 247.999522 245.524074 
L 272.02823 295.913604 
L 296.056938 266.093865 
L 320.085646 232.810858 
L 344.114354 195.017391 
L 368.143062 153.935645 
L 392.17177 240.78923 
L 416.200478 218.735935 
L 440.229187 176.539028 
L 464.257895 193.623598 
L 488.286603 153.98905 
L 512.315311 133.889977 
L 536.344019 92.357354 
L 560.372727 181.42733 
" clip-path="url(#p1138551c89)" style="fill: none; stroke-dasharray: 3.7,1.6; stroke-dashoffset: 0; stroke: #2ca02c; stroke-opacity: 0.6"/>
   </g>
   <g id="line2d_109">
    <path d="M 103.827273 62.022141 
L 127.855981 196.563816 
L 151.884689 191.152851 
L 175.913397 181.634404 
L 199.942105 168.707993 
L 223.970813 150.171159 
L 247.999522 247.131907 
L 272.02823 295.447106 
L 296.056938 265.21132 
L 320.085646 230.266231 
L 344.114354 192.373976 
L 368.143062 152.009286 
L 392.17177 240.101938 
L 416.200478 220.204452 
L 440.229187 180.987429 
L 464.257895 199.518141 
L 488.286603 161.938715 
L 512.315311 143.607055 
L 536.344019 104.60365 
L 560.372727 188.661417 
" clip-path="url(#p1138551c89)" style="fill: none; stroke-dasharray: 3.7,1.6; stroke-dashoffset: 0; stroke: #d62728; stroke-opacity: 0.6"/>
   </g>
   <g id="line2d_110">
    <path d="M 103.827273 62.022141 
L 127.855981 194.249904 
L 151.884689 187.423616 
L 175.913397 175.887831 
L 199.942105 161.920139 
L 223.970813 142.715855 
L 247.999522 243.272643 
L 272.02823 293.345968 
L 296.056938 262.686534 
L 320.085646 228.772595 
L 344.114354 192.797624 
L 368.143062 154.182826 
L 392.17177 243.06578 
L 416.200478 224.150471 
L 440.229187 185.525963 
L 464.257895 204.668822 
L 488.286603 166.695933 
L 512.315311 148.287227 
L 536.344019 109.212476 
L 560.372727 195.241352 
" clip-path="url(#p1138551c89)" style="fill: none; stroke-dasharray: 3.7,1.6; stroke-dashoffset: 0; stroke: #9467bd; stroke-opacity: 0.6"/>
   </g>
   <g id="line2d_111">
    <path d="M 103.827273 62.022141 
L 127.855981 194.689172 
L 151.884689 186.907513 
L 175.913397 175.992318 
L 199.942105 161.805942 
L 223.970813 143.616976 
L 247.999522 245.512464 
L 272.02823 296.61525 
L 296.056938 266.102309 
L 320.085646 230.919538 
L 344.114354 193.258211 
L 368.143062 152.826395 
L 392.17177 244.469916 
L 416.200478 224.468576 
L 440.229187 183.592427 
L 464.257895 204.461747 
L 488.286603 164.870682 
L 512.315311 146.542189 
L 536.344019 106.203673 
L 560.372727 196.970137 
" clip-path="url(#p1138551c89)" style="fill: none; stroke-dasharray: 3.7,1.6; stroke-dashoffset: 0; stroke: #8c564b; stroke-opacity: 0.6"/>
   </g>
   <g id="line2d_112">
    <path d="M 103.827273 62.022141 
L 127.855981 196.187241 
L 151.884689 189.414779 
L 175.913397 179.389517 
L 199.942105 166.504268 
L 223.970813 149.416953 
L 247.999522 248.751349 
L 272.02823 297.240905 
L 296.056938 264.115156 
L 320.085646 225.868068 
L 344.114354 184.669803 
L 368.143062 141.785393 
L 392.17177 238.069403 
L 416.200478 214.811868 
L 440.229187 171.208926 
L 464.257895 191.72679 
L 488.286603 150.078915 
L 512.315311 130.314201 
L 536.344019 86.527825 
L 560.372727 183.352634 
" clip-path="url(#p1138551c89)" style="fill: none; stroke-dasharray: 3.7,1.6; stroke-dashoffset: 0; stroke: #e377c2; stroke-opacity: 0.6"/>
   </g>
   <g id="line2d_113">
    <path d="M 103.827273 62.022141 
L 127.855981 195.281898 
L 151.884689 187.123875 
L 175.913397 173.903634 
L 199.942105 159.22923 
L 223.970813 140.856198 
L 247.999522 243.969645 
L 272.02823 295.035702 
L 296.056938 264.563078 
L 320.085646 229.651763 
L 344.114354 191.781884 
L 368.143062 151.557353 
L 392.17177 243.271166 
L 416.200478 221.940202 
L 440.229187 180.513333 
L 464.257895 199.724582 
L 488.286603 159.691928 
L 512.315311 139.910327 
L 536.344019 98.365883 
L 560.372727 189.765179 
" clip-path="url(#p1138551c89)" style="fill: none; stroke-dasharray: 3.7,1.6; stroke-dashoffset: 0; stroke: #7f7f7f; stroke-opacity: 0.6"/>
   </g>
   <g id="line2d_114">
    <path d="M 103.827273 62.022141 
L 127.855981 195.631454 
L 151.884689 186.739701 
L 175.913397 175.330779 
L 199.942105 160.325182 
L 223.970813 140.177349 
L 247.999522 241.641802 
L 272.02823 291.664889 
L 296.056938 260.343915 
L 320.085646 225.721364 
L 344.114354 187.004401 
L 368.143062 147.000877 
L 392.17177 240.229011 
L 416.200478 220.277698 
L 440.229187 179.579071 
L 464.257895 199.036024 
L 488.286603 159.462479 
L 512.315311 139.958876 
L 536.344019 98.83998 
L 560.372727 189.272719 
" clip-path="url(#p1138551c89)" style="fill: none; stroke-dasharray: 3.7,1.6; stroke-dashoffset: 0; stroke: #bcbd22; stroke-opacity: 0.6"/>
   </g>
   <g id="line2d_115">
    <path d="M 103.827273 62.022141 
L 127.855981 196.047714 
L 151.884689 190.375848 
L 175.913397 179.880078 
L 199.942105 167.647925 
L 223.970813 152.160211 
L 247.999522 253.338222 
L 272.02823 305.780341 
L 296.056938 279.487407 
L 320.085646 249.203493 
L 344.114354 215.865182 
L 368.143062 180.067522 
L 392.17177 260.010401 
L 416.200478 242.71158 
L 440.229187 205.119277 
L 464.257895 222.250708 
L 488.286603 185.739581 
L 512.315311 167.422064 
L 536.344019 128.338658 
L 560.372727 209.127355 
" clip-path="url(#p1138551c89)" style="fill: none; stroke-dasharray: 3.7,1.6; stroke-dashoffset: 0; stroke: #17becf; stroke-opacity: 0.6"/>
   </g>
   <g id="line2d_116">
    <path d="M 103.827273 62.022141 
L 127.855981 195.595228 
L 151.884689 188.948779 
L 175.913397 178.184255 
L 199.942105 164.191146 
L 223.970813 146.536845 
L 247.999522 246.806127 
L 272.02823 296.875169 
L 296.056938 266.505341 
L 320.085646 232.305217 
L 344.114354 195.477867 
L 368.143062 156.396008 
L 392.17177 244.640897 
L 416.200478 224.542352 
L 440.229187 184.417086 
L 464.257895 202.670655 
L 488.286603 163.678302 
L 512.315311 144.414112 
L 536.344019 103.418498 
L 560.372727 190.824983 
" clip-path="url(#p1138551c89)" style="fill: none; stroke: #000000; stroke-width: 2.5; stroke-linecap: square"/>
   </g>
   <g id="patch_3">
    <path d="M 81 320.4 
L 81 43.2 
" style="fill: none; stroke: #000000; stroke-width: 0.8; stroke-linejoin: miter; stroke-linecap: square"/>
   </g>
   <g id="patch_4">
    <path d="M 583.2 320.4 
L 583.2 43.2 
" style="fill: none; stroke: #000000; stroke-width: 0.8; stroke-linejoin: miter; stroke-linecap: square"/>
   </g>
   <g id="patch_5">
    <path d="M 81 320.4 
L 583.2 320.4 
" style="fill: none; stroke: #000000; stroke-width: 0.8; stroke-linejoin: miter; stroke-linecap: square"/>
   </g>
   <g id="patch_6">
    <path d="M 81 43.2 
L 583.2 43.2 
" style="fill: none; stroke: #000000; stroke-width: 0.8; stroke-linejoin: miter; stroke-linecap: square"/>
   </g>
   <g id="legend_1">
    <g id="patch_7">
     <path d="M 88 315.4 
L 161.065625 315.4 
Q 163.065625 315.4 163.065625 313.4 
L 163.065625 299.721875 
Q 163.065625 297.721875 161.065625 297.721875 
L 88 297.721875 
Q 86 297.721875 86 299.721875 
L 86 313.4 
Q 86 315.4 88 315.4 
z
" style="fill: #ffffff; opacity: 0.8; stroke: #cccccc; stroke-linejoin: miter"/>
    </g>
    <g id="line2d_117">
     <path d="M 90 305.820312 
L 100 305.820312 
L 110 305.820312 
" style="fill: none; stroke: #000000; stroke-width: 2.5; stroke-linecap: square"/>
    </g>
    <g id="text_18">
     <!-- Average -->
     <g transform="translate(118 309.320312) scale(0.1 -0.1)">
      <defs>
       <path id="DejaVuSans-41" d="M 2188 4044 
L 1331 1722 
L 3047 1722 
L 2188 4044 
z
M 1831 4666 
L 2547 4666 
L 4325 0 
L 3669 0 
L 3244 1197 
L 1141 1197 
L 716 0 
L 50 0 
L 1831 4666 
z
" transform="scale(0.015625)"/>
       <path id="DejaVuSans-67" d="M 2906 1791 
Q 2906 2416 2648 2759 
Q 2391 3103 1925 3103 
Q 1463 3103 1205 2759 
Q 947 2416 947 1791 
Q 947 1169 1205 825 
Q 1463 481 1925 481 
Q 2391 481 2648 825 
Q 2906 1169 2906 1791 
z
M 3481 434 
Q 3481 -459 3084 -895 
Q 2688 -1331 1869 -1331 
Q 1566 -1331 1297 -1286 
Q 1028 -1241 775 -1147 
L 775 -588 
Q 1028 -725 1275 -790 
Q 1522 -856 1778 -856 
Q 2344 -856 2625 -561 
Q 2906 -266 2906 331 
L 2906 616 
Q 2728 306 2450 153 
Q 2172 0 1784 0 
Q 1141 0 747 490 
Q 353 981 353 1791 
Q 353 2603 747 3093 
Q 1141 3584 1784 3584 
Q 2172 3584 2450 3431 
Q 2728 3278 2906 2969 
L 2906 3500 
L 3481 3500 
L 3481 434 
z
" transform="scale(0.015625)"/>
      </defs>
      <use xlink:href="#DejaVuSans-41"/>
      <use xlink:href="#DejaVuSans-76" x="62.533203"/>
      <use xlink:href="#DejaVuSans-65" x="121.712891"/>
      <use xlink:href="#DejaVuSans-72" x="183.236328"/>
      <use xlink:href="#DejaVuSans-61" x="224.349609"/>
      <use xlink:href="#DejaVuSans-67" x="285.628906"/>
      <use xlink:href="#DejaVuSans-65" x="349.105469"/>
     </g>
    </g>
   </g>
  </g>
 </g>
 <defs>
  <clipPath id="p1138551c89">
   <rect x="81" y="43.2" width="502.2" height="277.2"/>
  </clipPath>
 </defs>
</svg>
