<?xml version="1.0" encoding="utf-8" standalone="no"?>
<!DOCTYPE svg PUBLIC "-//W3C//DTD SVG 1.1//EN"
  "http://www.w3.org/Graphics/SVG/1.1/DTD/svg11.dtd">
<svg xmlns:xlink="http://www.w3.org/1999/xlink" width="648pt" height="360pt" viewBox="0 0 648 360" xmlns="http://www.w3.org/2000/svg" version="1.1">
 <metadata>
  <rdf:RDF xmlns:dc="http://purl.org/dc/elements/1.1/" xmlns:cc="http://creativecommons.org/ns#" xmlns:rdf="http://www.w3.org/1999/02/22-rdf-syntax-ns#">
   <cc:Work>
    <dc:type rdf:resource="http://purl.org/dc/dcmitype/StillImage"/>
    <dc:date>2025-08-28T14:29:20.523286</dc:date>
    <dc:format>image/svg+xml</dc:format>
    <dc:creator>
     <cc:Agent>
      <dc:title>Matplotlib v3.8.0, https://matplotlib.org/</dc:title>
     </cc:Agent>
    </dc:creator>
   </cc:Work>
  </rdf:RDF>
 </metadata>
 <defs>
  <style type="text/css">*{stroke-linejoin: round; stroke-linecap: butt}</style>
 </defs>
 <g id="figure_1">
  <g id="patch_1">
   <path d="M 0 360 
L 648 360 
L 648 0 
L 0 0 
z
" style="fill: #ffffff"/>
  </g>
  <g id="axes_1">
   <g id="patch_2">
    <path d="M 81 320.4 
L 583.2 320.4 
L 583.2 43.2 
L 81 43.2 
z
" style="fill: #ffffff"/>
   </g>
   <g id="matplotlib.axis_1">
    <g id="xtick_1">
     <g id="line2d_1">
      <defs>
       <path id="mb379ea3bcb" d="M 0 0 
L 0 3.5 
" style="stroke: #000000; stroke-width: 0.8"/>
      </defs>
      <g>
       <use xlink:href="#mb379ea3bcb" x="103.827273" y="320.4" style="stroke: #000000; stroke-width: 0.8"/>
      </g>
     </g>
     <g id="text_1">
      <!-- 2010 -->
      <g transform="translate(88.557273 336.518125) scale(0.12 -0.12)">
       <defs>
        <path id="DejaVuSans-32" d="M 1228 531 
L 3431 531 
L 3431 0 
L 469 0 
L 469 531 
Q 828 903 1448 1529 
Q 2069 2156 2228 2338 
Q 2531 2678 2651 2914 
Q 2772 3150 2772 3378 
Q 2772 3750 2511 3984 
Q 2250 4219 1831 4219 
Q 1534 4219 1204 4116 
Q 875 4013 500 3803 
L 500 4441 
Q 881 4594 1212 4672 
Q 1544 4750 1819 4750 
Q 2544 4750 2975 4387 
Q 3406 4025 3406 3419 
Q 3406 3131 3298 2873 
Q 3191 2616 2906 2266 
Q 2828 2175 2409 1742 
Q 1991 1309 1228 531 
z
" transform="scale(0.015625)"/>
        <path id="DejaVuSans-30" d="M 2034 4250 
Q 1547 4250 1301 3770 
Q 1056 3291 1056 2328 
Q 1056 1369 1301 889 
Q 1547 409 2034 409 
Q 2525 409 2770 889 
Q 3016 1369 3016 2328 
Q 3016 3291 2770 3770 
Q 2525 4250 2034 4250 
z
M 2034 4750 
Q 2819 4750 3233 4129 
Q 3647 3509 3647 2328 
Q 3647 1150 3233 529 
Q 2819 -91 2034 -91 
Q 1250 -91 836 529 
Q 422 1150 422 2328 
Q 422 3509 836 4129 
Q 1250 4750 2034 4750 
z
" transform="scale(0.015625)"/>
        <path id="DejaVuSans-31" d="M 794 531 
L 1825 531 
L 1825 4091 
L 703 3866 
L 703 4441 
L 1819 4666 
L 2450 4666 
L 2450 531 
L 3481 531 
L 3481 0 
L 794 0 
L 794 531 
z
" transform="scale(0.015625)"/>
       </defs>
       <use xlink:href="#DejaVuSans-32"/>
       <use xlink:href="#DejaVuSans-30" x="63.623047"/>
       <use xlink:href="#DejaVuSans-31" x="127.246094"/>
       <use xlink:href="#DejaVuSans-30" x="190.869141"/>
      </g>
     </g>
    </g>
    <g id="xtick_2">
     <g id="line2d_2">
      <g>
       <use xlink:href="#mb379ea3bcb" x="169.048052" y="320.4" style="stroke: #000000; stroke-width: 0.8"/>
      </g>
     </g>
     <g id="text_2">
      <!-- 2012 -->
      <g transform="translate(153.778052 336.518125) scale(0.12 -0.12)">
       <use xlink:href="#DejaVuSans-32"/>
       <use xlink:href="#DejaVuSans-30" x="63.623047"/>
       <use xlink:href="#DejaVuSans-31" x="127.246094"/>
       <use xlink:href="#DejaVuSans-32" x="190.869141"/>
      </g>
     </g>
    </g>
    <g id="xtick_3">
     <g id="line2d_3">
      <g>
       <use xlink:href="#mb379ea3bcb" x="234.268831" y="320.4" style="stroke: #000000; stroke-width: 0.8"/>
      </g>
     </g>
     <g id="text_3">
      <!-- 2014 -->
      <g transform="translate(218.998831 336.518125) scale(0.12 -0.12)">
       <defs>
        <path id="DejaVuSans-34" d="M 2419 4116 
L 825 1625 
L 2419 1625 
L 2419 4116 
z
M 2253 4666 
L 3047 4666 
L 3047 1625 
L 3713 1625 
L 3713 1100 
L 3047 1100 
L 3047 0 
L 2419 0 
L 2419 1100 
L 313 1100 
L 313 1709 
L 2253 4666 
z
" transform="scale(0.015625)"/>
       </defs>
       <use xlink:href="#DejaVuSans-32"/>
       <use xlink:href="#DejaVuSans-30" x="63.623047"/>
       <use xlink:href="#DejaVuSans-31" x="127.246094"/>
       <use xlink:href="#DejaVuSans-34" x="190.869141"/>
      </g>
     </g>
    </g>
    <g id="xtick_4">
     <g id="line2d_4">
      <g>
       <use xlink:href="#mb379ea3bcb" x="299.48961" y="320.4" style="stroke: #000000; stroke-width: 0.8"/>
      </g>
     </g>
     <g id="text_4">
      <!-- 2016 -->
      <g transform="translate(284.21961 336.518125) scale(0.12 -0.12)">
       <defs>
        <path id="DejaVuSans-36" d="M 2113 2584 
Q 1688 2584 1439 2293 
Q 1191 2003 1191 1497 
Q 1191 994 1439 701 
Q 1688 409 2113 409 
Q 2538 409 2786 701 
Q 3034 994 3034 1497 
Q 3034 2003 2786 2293 
Q 2538 2584 2113 2584 
z
M 3366 4563 
L 3366 3988 
Q 3128 4100 2886 4159 
Q 2644 4219 2406 4219 
Q 1781 4219 1451 3797 
Q 1122 3375 1075 2522 
Q 1259 2794 1537 2939 
Q 1816 3084 2150 3084 
Q 2853 3084 3261 2657 
Q 3669 2231 3669 1497 
Q 3669 778 3244 343 
Q 2819 -91 2113 -91 
Q 1303 -91 875 529 
Q 447 1150 447 2328 
Q 447 3434 972 4092 
Q 1497 4750 2381 4750 
Q 2619 4750 2861 4703 
Q 3103 4656 3366 4563 
z
" transform="scale(0.015625)"/>
       </defs>
       <use xlink:href="#DejaVuSans-32"/>
       <use xlink:href="#DejaVuSans-30" x="63.623047"/>
       <use xlink:href="#DejaVuSans-31" x="127.246094"/>
       <use xlink:href="#DejaVuSans-36" x="190.869141"/>
      </g>
     </g>
    </g>
    <g id="xtick_5">
     <g id="line2d_5">
      <g>
       <use xlink:href="#mb379ea3bcb" x="364.71039" y="320.4" style="stroke: #000000; stroke-width: 0.8"/>
      </g>
     </g>
     <g id="text_5">
      <!-- 2018 -->
      <g transform="translate(349.44039 336.518125) scale(0.12 -0.12)">
       <defs>
        <path id="DejaVuSans-38" d="M 2034 2216 
Q 1584 2216 1326 1975 
Q 1069 1734 1069 1313 
Q 1069 891 1326 650 
Q 1584 409 2034 409 
Q 2484 409 2743 651 
Q 3003 894 3003 1313 
Q 3003 1734 2745 1975 
Q 2488 2216 2034 2216 
z
M 1403 2484 
Q 997 2584 770 2862 
Q 544 3141 544 3541 
Q 544 4100 942 4425 
Q 1341 4750 2034 4750 
Q 2731 4750 3128 4425 
Q 3525 4100 3525 3541 
Q 3525 3141 3298 2862 
Q 3072 2584 2669 2484 
Q 3125 2378 3379 2068 
Q 3634 1759 3634 1313 
Q 3634 634 3220 271 
Q 2806 -91 2034 -91 
Q 1263 -91 848 271 
Q 434 634 434 1313 
Q 434 1759 690 2068 
Q 947 2378 1403 2484 
z
M 1172 3481 
Q 1172 3119 1398 2916 
Q 1625 2713 2034 2713 
Q 2441 2713 2670 2916 
Q 2900 3119 2900 3481 
Q 2900 3844 2670 4047 
Q 2441 4250 2034 4250 
Q 1625 4250 1398 4047 
Q 1172 3844 1172 3481 
z
" transform="scale(0.015625)"/>
       </defs>
       <use xlink:href="#DejaVuSans-32"/>
       <use xlink:href="#DejaVuSans-30" x="63.623047"/>
       <use xlink:href="#DejaVuSans-31" x="127.246094"/>
       <use xlink:href="#DejaVuSans-38" x="190.869141"/>
      </g>
     </g>
    </g>
    <g id="xtick_6">
     <g id="line2d_6">
      <g>
       <use xlink:href="#mb379ea3bcb" x="429.931169" y="320.4" style="stroke: #000000; stroke-width: 0.8"/>
      </g>
     </g>
     <g id="text_6">
      <!-- 2020 -->
      <g transform="translate(414.661169 336.518125) scale(0.12 -0.12)">
       <use xlink:href="#DejaVuSans-32"/>
       <use xlink:href="#DejaVuSans-30" x="63.623047"/>
       <use xlink:href="#DejaVuSans-32" x="127.246094"/>
       <use xlink:href="#DejaVuSans-30" x="190.869141"/>
      </g>
     </g>
    </g>
    <g id="xtick_7">
     <g id="line2d_7">
      <g>
       <use xlink:href="#mb379ea3bcb" x="495.151948" y="320.4" style="stroke: #000000; stroke-width: 0.8"/>
      </g>
     </g>
     <g id="text_7">
      <!-- 2022 -->
      <g transform="translate(479.881948 336.518125) scale(0.12 -0.12)">
       <use xlink:href="#DejaVuSans-32"/>
       <use xlink:href="#DejaVuSans-30" x="63.623047"/>
       <use xlink:href="#DejaVuSans-32" x="127.246094"/>
       <use xlink:href="#DejaVuSans-32" x="190.869141"/>
      </g>
     </g>
    </g>
    <g id="xtick_8">
     <g id="line2d_8">
      <g>
       <use xlink:href="#mb379ea3bcb" x="560.372727" y="320.4" style="stroke: #000000; stroke-width: 0.8"/>
      </g>
     </g>
     <g id="text_8">
      <!-- 2024 -->
      <g transform="translate(545.102727 336.518125) scale(0.12 -0.12)">
       <use xlink:href="#DejaVuSans-32"/>
       <use xlink:href="#DejaVuSans-30" x="63.623047"/>
       <use xlink:href="#DejaVuSans-32" x="127.246094"/>
       <use xlink:href="#DejaVuSans-34" x="190.869141"/>
      </g>
     </g>
    </g>
    <g id="text_9">
     <!-- Year -->
     <g transform="translate(316.21875 354.411406) scale(0.15 -0.15)">
      <defs>
       <path id="DejaVuSans-59" d="M -13 4666 
L 666 4666 
L 1959 2747 
L 3244 4666 
L 3922 4666 
L 2272 2222 
L 2272 0 
L 1638 0 
L 1638 2222 
L -13 4666 
z
" transform="scale(0.015625)"/>
       <path id="DejaVuSans-65" d="M 3597 1894 
L 3597 1613 
L 953 1613 
Q 991 1019 1311 708 
Q 1631 397 2203 397 
Q 2534 397 2845 478 
Q 3156 559 3463 722 
L 3463 178 
Q 3153 47 2828 -22 
Q 2503 -91 2169 -91 
Q 1331 -91 842 396 
Q 353 884 353 1716 
Q 353 2575 817 3079 
Q 1281 3584 2069 3584 
Q 2775 3584 3186 3129 
Q 3597 2675 3597 1894 
z
M 3022 2063 
Q 3016 2534 2758 2815 
Q 2500 3097 2075 3097 
Q 1594 3097 1305 2825 
Q 1016 2553 972 2059 
L 3022 2063 
z
" transform="scale(0.015625)"/>
       <path id="DejaVuSans-61" d="M 2194 1759 
Q 1497 1759 1228 1600 
Q 959 1441 959 1056 
Q 959 750 1161 570 
Q 1363 391 1709 391 
Q 2188 391 2477 730 
Q 2766 1069 2766 1631 
L 2766 1759 
L 2194 1759 
z
M 3341 1997 
L 3341 0 
L 2766 0 
L 2766 531 
Q 2569 213 2275 61 
Q 1981 -91 1556 -91 
Q 1019 -91 701 211 
Q 384 513 384 1019 
Q 384 1609 779 1909 
Q 1175 2209 1959 2209 
L 2766 2209 
L 2766 2266 
Q 2766 2663 2505 2880 
Q 2244 3097 1772 3097 
Q 1472 3097 1187 3025 
Q 903 2953 641 2809 
L 641 3341 
Q 956 3463 1253 3523 
Q 1550 3584 1831 3584 
Q 2591 3584 2966 3190 
Q 3341 2797 3341 1997 
z
" transform="scale(0.015625)"/>
       <path id="DejaVuSans-72" d="M 2631 2963 
Q 2534 3019 2420 3045 
Q 2306 3072 2169 3072 
Q 1681 3072 1420 2755 
Q 1159 2438 1159 1844 
L 1159 0 
L 581 0 
L 581 3500 
L 1159 3500 
L 1159 2956 
Q 1341 3275 1631 3429 
Q 1922 3584 2338 3584 
Q 2397 3584 2469 3576 
Q 2541 3569 2628 3553 
L 2631 2963 
z
" transform="scale(0.015625)"/>
      </defs>
      <use xlink:href="#DejaVuSans-59"/>
      <use xlink:href="#DejaVuSans-65" x="47.833984"/>
      <use xlink:href="#DejaVuSans-61" x="109.357422"/>
      <use xlink:href="#DejaVuSans-72" x="170.636719"/>
     </g>
    </g>
   </g>
   <g id="matplotlib.axis_2">
    <g id="ytick_1">
     <g id="line2d_9">
      <defs>
       <path id="m3f58a48f02" d="M 0 0 
L -3.5 0 
" style="stroke: #000000; stroke-width: 0.8"/>
      </defs>
      <g>
       <use xlink:href="#m3f58a48f02" x="81" y="298.847204" style="stroke: #000000; stroke-width: 0.8"/>
      </g>
     </g>
     <g id="text_10">
      <!-- 10 -->
      <g transform="translate(58.73 303.406267) scale(0.12 -0.12)">
       <use xlink:href="#DejaVuSans-31"/>
       <use xlink:href="#DejaVuSans-30" x="63.623047"/>
      </g>
     </g>
    </g>
    <g id="ytick_2">
     <g id="line2d_10">
      <g>
       <use xlink:href="#m3f58a48f02" x="81" y="240.16179" style="stroke: #000000; stroke-width: 0.8"/>
      </g>
     </g>
     <g id="text_11">
      <!-- 20 -->
      <g transform="translate(58.73 244.720853) scale(0.12 -0.12)">
       <use xlink:href="#DejaVuSans-32"/>
       <use xlink:href="#DejaVuSans-30" x="63.623047"/>
      </g>
     </g>
    </g>
    <g id="ytick_3">
     <g id="line2d_11">
      <g>
       <use xlink:href="#m3f58a48f02" x="81" y="181.476376" style="stroke: #000000; stroke-width: 0.8"/>
      </g>
     </g>
     <g id="text_12">
      <!-- 30 -->
      <g transform="translate(58.73 186.035438) scale(0.12 -0.12)">
       <defs>
        <path id="DejaVuSans-33" d="M 2597 2516 
Q 3050 2419 3304 2112 
Q 3559 1806 3559 1356 
Q 3559 666 3084 287 
Q 2609 -91 1734 -91 
Q 1441 -91 1130 -33 
Q 819 25 488 141 
L 488 750 
Q 750 597 1062 519 
Q 1375 441 1716 441 
Q 2309 441 2620 675 
Q 2931 909 2931 1356 
Q 2931 1769 2642 2001 
Q 2353 2234 1838 2234 
L 1294 2234 
L 1294 2753 
L 1863 2753 
Q 2328 2753 2575 2939 
Q 2822 3125 2822 3475 
Q 2822 3834 2567 4026 
Q 2313 4219 1838 4219 
Q 1578 4219 1281 4162 
Q 984 4106 628 3988 
L 628 4550 
Q 988 4650 1302 4700 
Q 1616 4750 1894 4750 
Q 2613 4750 3031 4423 
Q 3450 4097 3450 3541 
Q 3450 3153 3228 2886 
Q 3006 2619 2597 2516 
z
" transform="scale(0.015625)"/>
       </defs>
       <use xlink:href="#DejaVuSans-33"/>
       <use xlink:href="#DejaVuSans-30" x="63.623047"/>
      </g>
     </g>
    </g>
    <g id="ytick_4">
     <g id="line2d_12">
      <g>
       <use xlink:href="#m3f58a48f02" x="81" y="122.790962" style="stroke: #000000; stroke-width: 0.8"/>
      </g>
     </g>
     <g id="text_13">
      <!-- 40 -->
      <g transform="translate(58.73 127.350024) scale(0.12 -0.12)">
       <use xlink:href="#DejaVuSans-34"/>
       <use xlink:href="#DejaVuSans-30" x="63.623047"/>
      </g>
     </g>
    </g>
    <g id="ytick_5">
     <g id="line2d_13">
      <g>
       <use xlink:href="#m3f58a48f02" x="81" y="64.105548" style="stroke: #000000; stroke-width: 0.8"/>
      </g>
     </g>
     <g id="text_14">
      <!-- 50 -->
      <g transform="translate(58.73 68.66461) scale(0.12 -0.12)">
       <defs>
        <path id="DejaVuSans-35" d="M 691 4666 
L 3169 4666 
L 3169 4134 
L 1269 4134 
L 1269 2991 
Q 1406 3038 1543 3061 
Q 1681 3084 1819 3084 
Q 2600 3084 3056 2656 
Q 3513 2228 3513 1497 
Q 3513 744 3044 326 
Q 2575 -91 1722 -91 
Q 1428 -91 1123 -41 
Q 819 9 494 109 
L 494 744 
Q 775 591 1075 516 
Q 1375 441 1709 441 
Q 2250 441 2565 725 
Q 2881 1009 2881 1497 
Q 2881 1984 2565 2268 
Q 2250 2553 1709 2553 
Q 1456 2553 1204 2497 
Q 953 2441 691 2322 
L 691 4666 
z
" transform="scale(0.015625)"/>
       </defs>
       <use xlink:href="#DejaVuSans-35"/>
       <use xlink:href="#DejaVuSans-30" x="63.623047"/>
      </g>
     </g>
    </g>
    <g id="text_15">
     <!-- Total coral cover (%) -->
     <g transform="translate(51.610469 258.769922) rotate(-90) scale(0.15 -0.15)">
      <defs>
       <path id="DejaVuSans-54" d="M -19 4666 
L 3928 4666 
L 3928 4134 
L 2272 4134 
L 2272 0 
L 1638 0 
L 1638 4134 
L -19 4134 
L -19 4666 
z
" transform="scale(0.015625)"/>
       <path id="DejaVuSans-6f" d="M 1959 3097 
Q 1497 3097 1228 2736 
Q 959 2375 959 1747 
Q 959 1119 1226 758 
Q 1494 397 1959 397 
Q 2419 397 2687 759 
Q 2956 1122 2956 1747 
Q 2956 2369 2687 2733 
Q 2419 3097 1959 3097 
z
M 1959 3584 
Q 2709 3584 3137 3096 
Q 3566 2609 3566 1747 
Q 3566 888 3137 398 
Q 2709 -91 1959 -91 
Q 1206 -91 779 398 
Q 353 888 353 1747 
Q 353 2609 779 3096 
Q 1206 3584 1959 3584 
z
" transform="scale(0.015625)"/>
       <path id="DejaVuSans-74" d="M 1172 4494 
L 1172 3500 
L 2356 3500 
L 2356 3053 
L 1172 3053 
L 1172 1153 
Q 1172 725 1289 603 
Q 1406 481 1766 481 
L 2356 481 
L 2356 0 
L 1766 0 
Q 1100 0 847 248 
Q 594 497 594 1153 
L 594 3053 
L 172 3053 
L 172 3500 
L 594 3500 
L 594 4494 
L 1172 4494 
z
" transform="scale(0.015625)"/>
       <path id="DejaVuSans-6c" d="M 603 4863 
L 1178 4863 
L 1178 0 
L 603 0 
L 603 4863 
z
" transform="scale(0.015625)"/>
       <path id="DejaVuSans-20" transform="scale(0.015625)"/>
       <path id="DejaVuSans-63" d="M 3122 3366 
L 3122 2828 
Q 2878 2963 2633 3030 
Q 2388 3097 2138 3097 
Q 1578 3097 1268 2742 
Q 959 2388 959 1747 
Q 959 1106 1268 751 
Q 1578 397 2138 397 
Q 2388 397 2633 464 
Q 2878 531 3122 666 
L 3122 134 
Q 2881 22 2623 -34 
Q 2366 -91 2075 -91 
Q 1284 -91 818 406 
Q 353 903 353 1747 
Q 353 2603 823 3093 
Q 1294 3584 2113 3584 
Q 2378 3584 2631 3529 
Q 2884 3475 3122 3366 
z
" transform="scale(0.015625)"/>
       <path id="DejaVuSans-76" d="M 191 3500 
L 800 3500 
L 1894 563 
L 2988 3500 
L 3597 3500 
L 2284 0 
L 1503 0 
L 191 3500 
z
" transform="scale(0.015625)"/>
       <path id="DejaVuSans-28" d="M 1984 4856 
Q 1566 4138 1362 3434 
Q 1159 2731 1159 2009 
Q 1159 1288 1364 580 
Q 1569 -128 1984 -844 
L 1484 -844 
Q 1016 -109 783 600 
Q 550 1309 550 2009 
Q 550 2706 781 3412 
Q 1013 4119 1484 4856 
L 1984 4856 
z
" transform="scale(0.015625)"/>
       <path id="DejaVuSans-25" d="M 4653 2053 
Q 4381 2053 4226 1822 
Q 4072 1591 4072 1178 
Q 4072 772 4226 539 
Q 4381 306 4653 306 
Q 4919 306 5073 539 
Q 5228 772 5228 1178 
Q 5228 1588 5073 1820 
Q 4919 2053 4653 2053 
z
M 4653 2450 
Q 5147 2450 5437 2106 
Q 5728 1763 5728 1178 
Q 5728 594 5436 251 
Q 5144 -91 4653 -91 
Q 4153 -91 3862 251 
Q 3572 594 3572 1178 
Q 3572 1766 3864 2108 
Q 4156 2450 4653 2450 
z
M 1428 4353 
Q 1159 4353 1004 4120 
Q 850 3888 850 3481 
Q 850 3069 1003 2837 
Q 1156 2606 1428 2606 
Q 1700 2606 1854 2837 
Q 2009 3069 2009 3481 
Q 2009 3884 1853 4118 
Q 1697 4353 1428 4353 
z
M 4250 4750 
L 4750 4750 
L 1831 -91 
L 1331 -91 
L 4250 4750 
z
M 1428 4750 
Q 1922 4750 2215 4408 
Q 2509 4066 2509 3481 
Q 2509 2891 2217 2550 
Q 1925 2209 1428 2209 
Q 931 2209 642 2551 
Q 353 2894 353 3481 
Q 353 4063 643 4406 
Q 934 4750 1428 4750 
z
" transform="scale(0.015625)"/>
       <path id="DejaVuSans-29" d="M 513 4856 
L 1013 4856 
Q 1481 4119 1714 3412 
Q 1947 2706 1947 2009 
Q 1947 1309 1714 600 
Q 1481 -109 1013 -844 
L 513 -844 
Q 928 -128 1133 580 
Q 1338 1288 1338 2009 
Q 1338 2731 1133 3434 
Q 928 4138 513 4856 
z
" transform="scale(0.015625)"/>
      </defs>
      <use xlink:href="#DejaVuSans-54"/>
      <use xlink:href="#DejaVuSans-6f" x="44.083984"/>
      <use xlink:href="#DejaVuSans-74" x="105.265625"/>
      <use xlink:href="#DejaVuSans-61" x="144.474609"/>
      <use xlink:href="#DejaVuSans-6c" x="205.753906"/>
      <use xlink:href="#DejaVuSans-20" x="233.537109"/>
      <use xlink:href="#DejaVuSans-63" x="265.324219"/>
      <use xlink:href="#DejaVuSans-6f" x="320.304688"/>
      <use xlink:href="#DejaVuSans-72" x="381.486328"/>
      <use xlink:href="#DejaVuSans-61" x="422.599609"/>
      <use xlink:href="#DejaVuSans-6c" x="483.878906"/>
      <use xlink:href="#DejaVuSans-20" x="511.662109"/>
      <use xlink:href="#DejaVuSans-63" x="543.449219"/>
      <use xlink:href="#DejaVuSans-6f" x="598.429688"/>
      <use xlink:href="#DejaVuSans-76" x="659.611328"/>
      <use xlink:href="#DejaVuSans-65" x="718.791016"/>
      <use xlink:href="#DejaVuSans-72" x="780.314453"/>
      <use xlink:href="#DejaVuSans-20" x="821.427734"/>
      <use xlink:href="#DejaVuSans-28" x="853.214844"/>
      <use xlink:href="#DejaVuSans-25" x="892.228516"/>
      <use xlink:href="#DejaVuSans-29" x="987.248047"/>
     </g>
    </g>
   </g>
   <g id="line2d_14">
    <path d="M 103.827273 214.340208 
L 136.437662 307.681545 
L 169.048052 304.105983 
L 201.658442 297.276791 
L 234.268831 286.482412 
L 266.879221 270.90841 
L 299.48961 250.370709 
L 332.1 224.731033 
L 364.71039 194.608276 
L 397.320779 161.879165 
L 429.931169 128.708382 
L 462.541558 99.331499 
L 495.151948 74.991544 
L 527.762338 55.8 
L 560.372727 166.450742 
" clip-path="url(#p4df3224a5d)" style="fill: none; stroke-dasharray: 3.7,1.6; stroke-dashoffset: 0; stroke: #1f77b4; stroke-opacity: 0.6"/>
   </g>
   <g id="line2d_15">
    <path d="M 103.827273 214.340208 
L 136.437662 307.528176 
L 169.048052 303.797977 
L 201.658442 297.438572 
L 234.268831 288.429716 
L 266.879221 274.580052 
L 299.48961 255.446699 
L 332.1 230.295074 
L 364.71039 200.967451 
L 397.320779 168.015372 
L 429.931169 135.321002 
L 462.541558 105.003106 
L 495.151948 78.664223 
L 527.762338 58.747892 
L 560.372727 167.803698 
" clip-path="url(#p4df3224a5d)" style="fill: none; stroke-dasharray: 3.7,1.6; stroke-dashoffset: 0; stroke: #ff7f0e; stroke-opacity: 0.6"/>
   </g>
   <g id="line2d_16">
    <path d="M 103.827273 214.340208 
L 136.437662 306.876904 
L 169.048052 303.488243 
L 201.658442 297.361196 
L 234.268831 288.549612 
L 266.879221 274.75785 
L 299.48961 256.463475 
L 332.1 232.23581 
L 364.71039 203.535204 
L 397.320779 171.723945 
L 429.931169 139.112309 
L 462.541558 108.319556 
L 495.151948 82.34468 
L 527.762338 62.067684 
L 560.372727 169.393391 
" clip-path="url(#p4df3224a5d)" style="fill: none; stroke-dasharray: 3.7,1.6; stroke-dashoffset: 0; stroke: #2ca02c; stroke-opacity: 0.6"/>
   </g>
   <g id="line2d_17">
    <path d="M 103.827273 214.340208 
L 136.437662 307.588728 
L 169.048052 303.953939 
L 201.658442 298.016097 
L 234.268831 289.908271 
L 266.879221 276.520501 
L 299.48961 258.634669 
L 332.1 234.995765 
L 364.71039 206.61146 
L 397.320779 174.746966 
L 429.931169 141.805892 
L 462.541558 110.318195 
L 495.151948 83.378626 
L 527.762338 62.692856 
L 560.372727 169.376625 
" clip-path="url(#p4df3224a5d)" style="fill: none; stroke-dasharray: 3.7,1.6; stroke-dashoffset: 0; stroke: #d62728; stroke-opacity: 0.6"/>
   </g>
   <g id="line2d_18">
    <path d="M 103.827273 214.340208 
L 136.437662 307.055393 
L 169.048052 304.108288 
L 201.658442 297.313491 
L 234.268831 287.720427 
L 266.879221 273.989218 
L 299.48961 255.344203 
L 332.1 231.383753 
L 364.71039 202.800968 
L 397.320779 171.352679 
L 429.931169 138.563073 
L 462.541558 108.054185 
L 495.151948 82.222308 
L 527.762338 62.169027 
L 560.372727 168.538107 
" clip-path="url(#p4df3224a5d)" style="fill: none; stroke-dasharray: 3.7,1.6; stroke-dashoffset: 0; stroke: #9467bd; stroke-opacity: 0.6"/>
   </g>
   <g id="line2d_19">
    <path d="M 103.827273 214.340208 
L 136.437662 307.365473 
L 169.048052 303.90393 
L 201.658442 297.932902 
L 234.268831 288.953718 
L 266.879221 275.499807 
L 299.48961 256.530308 
L 332.1 232.249523 
L 364.71039 203.122686 
L 397.320779 170.72065 
L 429.931169 138.248441 
L 462.541558 107.604736 
L 495.151948 81.732471 
L 527.762338 61.070438 
L 560.372727 168.466031 
" clip-path="url(#p4df3224a5d)" style="fill: none; stroke-dasharray: 3.7,1.6; stroke-dashoffset: 0; stroke: #8c564b; stroke-opacity: 0.6"/>
   </g>
   <g id="line2d_20">
    <path d="M 103.827273 214.340208 
L 136.437662 307.340008 
L 169.048052 303.611538 
L 201.658442 296.672533 
L 234.268831 286.787018 
L 266.879221 272.478284 
L 299.48961 252.656555 
L 332.1 227.170249 
L 364.71039 197.654227 
L 397.320779 165.631467 
L 429.931169 133.324207 
L 462.541558 103.263961 
L 495.151948 78.897849 
L 527.762338 59.966606 
L 560.372727 167.605677 
" clip-path="url(#p4df3224a5d)" style="fill: none; stroke-dasharray: 3.7,1.6; stroke-dashoffset: 0; stroke: #e377c2; stroke-opacity: 0.6"/>
   </g>
   <g id="line2d_21">
    <path d="M 103.827273 214.340208 
L 136.437662 307.272253 
L 169.048052 304.423611 
L 201.658442 298.347725 
L 234.268831 289.190974 
L 266.879221 275.772265 
L 299.48961 257.100689 
L 332.1 232.986697 
L 364.71039 204.01225 
L 397.320779 171.269484 
L 429.931169 137.937151 
L 462.541558 107.061375 
L 495.151948 80.71218 
L 527.762338 60.541482 
L 560.372727 168.640891 
" clip-path="url(#p4df3224a5d)" style="fill: none; stroke-dasharray: 3.7,1.6; stroke-dashoffset: 0; stroke: #7f7f7f; stroke-opacity: 0.6"/>
   </g>
   <g id="line2d_22">
    <path d="M 103.827273 214.340208 
L 136.437662 307.508414 
L 169.048052 304.675731 
L 201.658442 299.056899 
L 234.268831 290.318831 
L 266.879221 276.365173 
L 299.48961 257.162509 
L 332.1 232.914103 
L 364.71039 203.581065 
L 397.320779 170.7407 
L 429.931169 137.298382 
L 462.541558 106.957266 
L 495.151948 80.822223 
L 527.762338 60.555712 
L 560.372727 168.61266 
" clip-path="url(#p4df3224a5d)" style="fill: none; stroke-dasharray: 3.7,1.6; stroke-dashoffset: 0; stroke: #bcbd22; stroke-opacity: 0.6"/>
   </g>
   <g id="line2d_23">
    <path d="M 103.827273 214.340208 
L 136.437662 307.292822 
L 169.048052 304.118486 
L 201.658442 298.423488 
L 234.268831 289.808656 
L 266.879221 277.163822 
L 299.48961 259.931566 
L 332.1 237.434519 
L 364.71039 209.486816 
L 397.320779 178.121895 
L 429.931169 145.464628 
L 462.541558 114.205487 
L 495.151948 87.349632 
L 527.762338 65.483979 
L 560.372727 170.888308 
" clip-path="url(#p4df3224a5d)" style="fill: none; stroke-dasharray: 3.7,1.6; stroke-dashoffset: 0; stroke: #17becf; stroke-opacity: 0.6"/>
   </g>
   <g id="line2d_24">
    <path d="M 103.827273 214.340208 
L 136.437662 307.22282 
L 169.048052 304.02976 
L 201.658442 297.755911 
L 234.268831 288.982468 
L 266.879221 275.835986 
L 299.48961 257.712841 
L 332.1 233.833973 
L 364.71039 204.835846 
L 397.320779 172.070438 
L 429.931169 138.665223 
L 462.541558 107.925993 
L 495.151948 82.092503 
L 527.762338 61.502603 
L 560.372727 169.188399 
" clip-path="url(#p4df3224a5d)" style="fill: none; stroke-dasharray: 3.7,1.6; stroke-dashoffset: 0; stroke: #1f77b4; stroke-opacity: 0.6"/>
   </g>
   <g id="line2d_25">
    <path d="M 103.827273 214.340208 
L 136.437662 307.517978 
L 169.048052 304.271452 
L 201.658442 298.014657 
L 234.268831 289.243633 
L 266.879221 276.219236 
L 299.48961 258.36031 
L 332.1 234.840379 
L 364.71039 206.186555 
L 397.320779 173.456695 
L 429.931169 140.318925 
L 462.541558 109.427421 
L 495.151948 83.241619 
L 527.762338 62.459576 
L 560.372727 169.456248 
" clip-path="url(#p4df3224a5d)" style="fill: none; stroke-dasharray: 3.7,1.6; stroke-dashoffset: 0; stroke: #ff7f0e; stroke-opacity: 0.6"/>
   </g>
   <g id="line2d_26">
    <path d="M 103.827273 214.340208 
L 136.437662 306.757239 
L 169.048052 303.053198 
L 201.658442 296.510809 
L 234.268831 287.520448 
L 266.879221 274.095516 
L 299.48961 255.126363 
L 332.1 231.69729 
L 364.71039 203.272022 
L 397.320779 170.99017 
L 429.931169 138.522166 
L 462.541558 108.383738 
L 495.151948 82.611723 
L 527.762338 62.285293 
L 560.372727 168.805264 
" clip-path="url(#p4df3224a5d)" style="fill: none; stroke-dasharray: 3.7,1.6; stroke-dashoffset: 0; stroke: #2ca02c; stroke-opacity: 0.6"/>
   </g>
   <g id="line2d_27">
    <path d="M 103.827273 214.340208 
L 136.437662 307.508933 
L 169.048052 303.906235 
L 201.658442 297.828678 
L 234.268831 288.801444 
L 266.879221 274.685947 
L 299.48961 255.819924 
L 332.1 230.680801 
L 364.71039 201.813747 
L 397.320779 169.490183 
L 429.931169 137.251484 
L 462.541558 107.102397 
L 495.151948 81.152468 
L 527.762338 60.729362 
L 560.372727 168.34193 
" clip-path="url(#p4df3224a5d)" style="fill: none; stroke-dasharray: 3.7,1.6; stroke-dashoffset: 0; stroke: #d62728; stroke-opacity: 0.6"/>
   </g>
   <g id="line2d_28">
    <path d="M 103.827273 214.340208 
L 136.437662 307.573345 
L 169.048052 304.519769 
L 201.658442 298.912806 
L 234.268831 290.615832 
L 266.879221 277.444692 
L 299.48961 259.2111 
L 332.1 235.727754 
L 364.71039 206.845317 
L 397.320779 175.180744 
L 429.931169 142.134639 
L 462.541558 111.228039 
L 495.151948 83.994292 
L 527.762338 63.256036 
L 560.372727 169.825152 
" clip-path="url(#p4df3224a5d)" style="fill: none; stroke-dasharray: 3.7,1.6; stroke-dashoffset: 0; stroke: #9467bd; stroke-opacity: 0.6"/>
   </g>
   <g id="line2d_29">
    <path d="M 103.827273 214.340208 
L 136.437662 307.010166 
L 169.048052 303.946968 
L 201.658442 296.775086 
L 234.268831 287.175857 
L 266.879221 272.510951 
L 299.48961 252.546224 
L 332.1 226.755023 
L 364.71039 196.636586 
L 397.320779 163.402198 
L 429.931169 131.122189 
L 462.541558 101.658309 
L 495.151948 76.754541 
L 527.762338 57.349133 
L 560.372727 166.946973 
" clip-path="url(#p4df3224a5d)" style="fill: none; stroke-dasharray: 3.7,1.6; stroke-dashoffset: 0; stroke: #8c564b; stroke-opacity: 0.6"/>
   </g>
   <g id="line2d_30">
    <path d="M 103.827273 214.340208 
L 136.437662 307.693875 
L 169.048052 303.757129 
L 201.658442 297.235712 
L 234.268831 287.631816 
L 266.879221 273.456689 
L 299.48961 253.70911 
L 332.1 229.232263 
L 364.71039 199.906657 
L 397.320779 167.612476 
L 429.931169 134.998017 
L 462.541558 105.028225 
L 495.151948 79.077663 
L 527.762338 59.467724 
L 560.372727 167.960005 
" clip-path="url(#p4df3224a5d)" style="fill: none; stroke-dasharray: 3.7,1.6; stroke-dashoffset: 0; stroke: #e377c2; stroke-opacity: 0.6"/>
   </g>
   <g id="line2d_31">
    <path d="M 103.827273 214.340208 
L 136.437662 307.309991 
L 169.048052 303.439386 
L 201.658442 296.218186 
L 234.268831 286.072313 
L 266.879221 271.731488 
L 299.48961 252.105647 
L 332.1 227.51363 
L 364.71039 198.353088 
L 397.320779 166.984884 
L 429.931169 134.966214 
L 462.541558 105.519329 
L 495.151948 80.020348 
L 527.762338 60.166182 
L 560.372727 167.627456 
" clip-path="url(#p4df3224a5d)" style="fill: none; stroke-dasharray: 3.7,1.6; stroke-dashoffset: 0; stroke: #7f7f7f; stroke-opacity: 0.6"/>
   </g>
   <g id="line2d_32">
    <path d="M 103.827273 214.340208 
L 136.437662 307.485829 
L 169.048052 304.002162 
L 201.658442 297.937051 
L 234.268831 289.271058 
L 266.879221 275.079799 
L 299.48961 256.712427 
L 332.1 233.514559 
L 364.71039 205.228084 
L 397.320779 172.688005 
L 429.931169 139.828051 
L 462.541558 109.06543 
L 495.151948 83.027294 
L 527.762338 62.719359 
L 560.372727 168.638932 
" clip-path="url(#p4df3224a5d)" style="fill: none; stroke-dasharray: 3.7,1.6; stroke-dashoffset: 0; stroke: #bcbd22; stroke-opacity: 0.6"/>
   </g>
   <g id="line2d_33">
    <path d="M 103.827273 214.340208 
L 136.437662 307.679183 
L 169.048052 304.757486 
L 201.658442 298.713806 
L 234.268831 289.8472 
L 266.879221 276.580189 
L 299.48961 258.297511 
L 332.1 234.512323 
L 364.71039 205.249747 
L 397.320779 172.505425 
L 429.931169 138.762187 
L 462.541558 108.232385 
L 495.151948 82.370376 
L 527.762338 61.688639 
L 560.372727 169.6564 
" clip-path="url(#p4df3224a5d)" style="fill: none; stroke-dasharray: 3.7,1.6; stroke-dashoffset: 0; stroke: #17becf; stroke-opacity: 0.6"/>
   </g>
   <g id="line2d_34">
    <path d="M 103.827273 214.340208 
L 136.437662 307.556349 
L 169.048052 303.62018 
L 201.658442 297.061026 
L 234.268831 287.837038 
L 266.879221 274.060429 
L 299.48961 255.597706 
L 332.1 231.162399 
L 364.71039 201.984804 
L 397.320779 169.988546 
L 429.931169 137.555629 
L 462.541558 107.306524 
L 495.151948 81.627613 
L 527.762338 61.11434 
L 560.372727 168.8097 
" clip-path="url(#p4df3224a5d)" style="fill: none; stroke-dasharray: 3.7,1.6; stroke-dashoffset: 0; stroke: #1f77b4; stroke-opacity: 0.6"/>
   </g>
   <g id="line2d_35">
    <path d="M 103.827273 214.340208 
L 136.437662 307.684887 
L 169.048052 304.781799 
L 201.658442 298.687246 
L 234.268831 289.596636 
L 266.879221 275.570038 
L 299.48961 256.171141 
L 332.1 231.500422 
L 364.71039 201.876086 
L 397.320779 168.481299 
L 429.931169 134.986206 
L 462.541558 104.366122 
L 495.151948 78.224511 
L 527.762338 58.368502 
L 560.372727 168.107901 
" clip-path="url(#p4df3224a5d)" style="fill: none; stroke-dasharray: 3.7,1.6; stroke-dashoffset: 0; stroke: #ff7f0e; stroke-opacity: 0.6"/>
   </g>
   <g id="line2d_36">
    <path d="M 103.827273 214.340208 
L 136.437662 307.174828 
L 169.048052 303.881345 
L 201.658442 296.9409 
L 234.268831 288.462441 
L 266.879221 274.919861 
L 299.48961 256.466183 
L 332.1 233.425199 
L 364.71039 205.490978 
L 397.320779 173.996944 
L 429.931169 142.69246 
L 462.541558 112.169572 
L 495.151948 85.891127 
L 527.762338 65.277202 
L 560.372727 169.567904 
" clip-path="url(#p4df3224a5d)" style="fill: none; stroke-dasharray: 3.7,1.6; stroke-dashoffset: 0; stroke: #2ca02c; stroke-opacity: 0.6"/>
   </g>
   <g id="line2d_37">
    <path d="M 103.827273 214.340208 
L 136.437662 307.142506 
L 169.048052 303.864695 
L 201.658442 297.179135 
L 234.268831 287.374857 
L 266.879221 273.133473 
L 299.48961 253.514201 
L 332.1 228.270624 
L 364.71039 198.53296 
L 397.320779 166.877894 
L 429.931169 134.673015 
L 462.541558 105.119429 
L 495.151948 79.689066 
L 527.762338 60.171368 
L 560.372727 167.844719 
" clip-path="url(#p4df3224a5d)" style="fill: none; stroke-dasharray: 3.7,1.6; stroke-dashoffset: 0; stroke: #d62728; stroke-opacity: 0.6"/>
   </g>
   <g id="line2d_38">
    <path d="M 103.827273 214.340208 
L 136.437662 307.568506 
L 169.048052 303.74987 
L 201.658442 297.451593 
L 234.268831 288.803575 
L 266.879221 275.574878 
L 299.48961 257.220757 
L 332.1 233.465011 
L 364.71039 204.178583 
L 397.320779 171.918394 
L 429.931169 138.360501 
L 462.541558 107.50345 
L 495.151948 81.07152 
L 527.762338 60.58717 
L 560.372727 168.793626 
" clip-path="url(#p4df3224a5d)" style="fill: none; stroke-dasharray: 3.7,1.6; stroke-dashoffset: 0; stroke: #9467bd; stroke-opacity: 0.6"/>
   </g>
   <g id="line2d_39">
    <path d="M 103.827273 214.340208 
L 136.437662 307.55658 
L 169.048052 304.585507 
L 201.658442 298.799824 
L 234.268831 289.877217 
L 266.879221 275.831665 
L 299.48961 256.390305 
L 332.1 231.765563 
L 364.71039 201.493066 
L 397.320779 168.107498 
L 429.931169 134.893389 
L 462.541558 104.497252 
L 495.151948 78.689919 
L 527.762338 59.217506 
L 560.372727 168.483027 
" clip-path="url(#p4df3224a5d)" style="fill: none; stroke-dasharray: 3.7,1.6; stroke-dashoffset: 0; stroke: #8c564b; stroke-opacity: 0.6"/>
   </g>
   <g id="line2d_40">
    <path d="M 103.827273 214.340208 
L 136.437662 307.658211 
L 169.048052 304.059143 
L 201.658442 297.652551 
L 234.268831 288.856293 
L 266.879221 274.996949 
L 299.48961 256.38149 
L 332.1 232.211324 
L 364.71039 204.224616 
L 397.320779 172.418197 
L 429.931169 140.145333 
L 462.541558 109.999761 
L 495.151948 83.9917 
L 527.762338 63.74351 
L 560.372727 169.614168 
" clip-path="url(#p4df3224a5d)" style="fill: none; stroke-dasharray: 3.7,1.6; stroke-dashoffset: 0; stroke: #e377c2; stroke-opacity: 0.6"/>
   </g>
   <g id="line2d_41">
    <path d="M 103.827273 214.340208 
L 136.437662 307.154317 
L 169.048052 303.652156 
L 201.658442 297.436613 
L 234.268831 288.626181 
L 266.879221 274.980126 
L 299.48961 255.728375 
L 332.1 231.657824 
L 364.71039 202.712818 
L 397.320779 170.638377 
L 429.931169 138.547401 
L 462.541558 108.936317 
L 495.151948 83.179396 
L 527.762338 63.063373 
L 560.372727 168.540699 
" clip-path="url(#p4df3224a5d)" style="fill: none; stroke-dasharray: 3.7,1.6; stroke-dashoffset: 0; stroke: #7f7f7f; stroke-opacity: 0.6"/>
   </g>
   <g id="line2d_42">
    <path d="M 103.827273 214.340208 
L 136.437662 307.455121 
L 169.048052 304.631541 
L 201.658442 298.266258 
L 234.268831 289.148454 
L 266.879221 275.519741 
L 299.48961 256.220747 
L 332.1 232.452555 
L 364.71039 204.143438 
L 397.320779 172.091121 
L 429.931169 139.196023 
L 462.541558 108.704995 
L 495.151948 83.06676 
L 527.762338 62.67828 
L 560.372727 168.826005 
" clip-path="url(#p4df3224a5d)" style="fill: none; stroke-dasharray: 3.7,1.6; stroke-dashoffset: 0; stroke: #bcbd22; stroke-opacity: 0.6"/>
   </g>
   <g id="line2d_43">
    <path d="M 103.827273 214.340208 
L 136.437662 306.94391 
L 169.048052 303.777236 
L 201.658442 297.193942 
L 234.268831 288.036902 
L 266.879221 274.151172 
L 299.48961 254.640387 
L 332.1 229.987414 
L 364.71039 200.850091 
L 397.320779 168.052706 
L 429.931169 135.421597 
L 462.541558 105.77554 
L 495.151948 79.930412 
L 527.762338 60.268275 
L 560.372727 168.141144 
" clip-path="url(#p4df3224a5d)" style="fill: none; stroke-dasharray: 3.7,1.6; stroke-dashoffset: 0; stroke: #17becf; stroke-opacity: 0.6"/>
   </g>
   <g id="line2d_44">
    <path d="M 103.827273 214.340208 
L 136.437662 307.492052 
L 169.048052 304.602273 
L 201.658442 298.665813 
L 234.268831 289.587994 
L 266.879221 275.727095 
L 299.48961 257.547718 
L 332.1 234.024964 
L 364.71039 205.482393 
L 397.320779 173.126162 
L 429.931169 140.45766 
L 462.541558 109.890236 
L 495.151948 83.585001 
L 527.762338 63.063143 
L 560.372727 169.537311 
" clip-path="url(#p4df3224a5d)" style="fill: none; stroke-dasharray: 3.7,1.6; stroke-dashoffset: 0; stroke: #1f77b4; stroke-opacity: 0.6"/>
   </g>
   <g id="line2d_45">
    <path d="M 103.827273 214.340208 
L 136.437662 307.770617 
L 169.048052 304.592709 
L 201.658442 298.27323 
L 234.268831 289.447588 
L 266.879221 275.227637 
L 299.48961 256.150515 
L 332.1 232.130607 
L 364.71039 202.465941 
L 397.320779 170.176945 
L 429.931169 137.591177 
L 462.541558 106.810926 
L 495.151948 80.611182 
L 527.762338 59.922589 
L 560.372727 168.163153 
" clip-path="url(#p4df3224a5d)" style="fill: none; stroke-dasharray: 3.7,1.6; stroke-dashoffset: 0; stroke: #ff7f0e; stroke-opacity: 0.6"/>
   </g>
   <g id="line2d_46">
    <path d="M 103.827273 214.340208 
L 136.437662 307.408972 
L 169.048052 304.220636 
L 201.658442 297.980088 
L 234.268831 289.002172 
L 266.879221 275.689818 
L 299.48961 257.285343 
L 332.1 233.444212 
L 364.71039 204.58557 
L 397.320779 171.970823 
L 429.931169 138.748994 
L 462.541558 108.075214 
L 495.151948 82.309017 
L 527.762338 61.739455 
L 560.372727 169.44968 
" clip-path="url(#p4df3224a5d)" style="fill: none; stroke-dasharray: 3.7,1.6; stroke-dashoffset: 0; stroke: #2ca02c; stroke-opacity: 0.6"/>
   </g>
   <g id="line2d_47">
    <path d="M 103.827273 214.340208 
L 136.437662 307.486463 
L 169.048052 303.954631 
L 201.658442 297.278174 
L 234.268831 287.456669 
L 266.879221 273.751329 
L 299.48961 254.959628 
L 332.1 230.640068 
L 364.71039 201.765697 
L 397.320779 169.559262 
L 429.931169 137.137119 
L 462.541558 106.631343 
L 495.151948 80.705382 
L 527.762338 60.58089 
L 560.372727 168.687904 
" clip-path="url(#p4df3224a5d)" style="fill: none; stroke-dasharray: 3.7,1.6; stroke-dashoffset: 0; stroke: #d62728; stroke-opacity: 0.6"/>
   </g>
   <g id="line2d_48">
    <path d="M 103.827273 214.340208 
L 136.437662 307.679413 
L 169.048052 304.155704 
L 201.658442 297.438629 
L 234.268831 288.302619 
L 266.879221 274.742409 
L 299.48961 256.99128 
L 332.1 233.625697 
L 364.71039 206.02656 
L 397.320779 174.363486 
L 429.931169 141.713997 
L 462.541558 111.196524 
L 495.151948 84.415568 
L 527.762338 63.98307 
L 560.372727 169.391259 
" clip-path="url(#p4df3224a5d)" style="fill: none; stroke-dasharray: 3.7,1.6; stroke-dashoffset: 0; stroke: #9467bd; stroke-opacity: 0.6"/>
   </g>
   <g id="line2d_49">
    <path d="M 103.827273 214.340208 
L 136.437662 307.440717 
L 169.048052 304.288275 
L 201.658442 298.175746 
L 234.268831 289.179969 
L 266.879221 275.120993 
L 299.48961 255.782878 
L 332.1 230.837109 
L 364.71039 201.745417 
L 397.320779 169.534661 
L 429.931169 136.93086 
L 462.541558 106.713097 
L 495.151948 80.272007 
L 527.762338 60.011949 
L 560.372727 168.443389 
" clip-path="url(#p4df3224a5d)" style="fill: none; stroke-dasharray: 3.7,1.6; stroke-dashoffset: 0; stroke: #8c564b; stroke-opacity: 0.6"/>
   </g>
   <g id="line2d_50">
    <path d="M 103.827273 214.340208 
L 136.437662 307.8 
L 169.048052 304.814466 
L 201.658442 299.125057 
L 234.268831 290.040323 
L 266.879221 277.192111 
L 299.48961 260.030317 
L 332.1 236.502666 
L 364.71039 208.547069 
L 397.320779 177.29876 
L 429.931169 144.073301 
L 462.541558 112.922648 
L 495.151948 85.81836 
L 527.762338 64.55783 
L 560.372727 170.117199 
" clip-path="url(#p4df3224a5d)" style="fill: none; stroke-dasharray: 3.7,1.6; stroke-dashoffset: 0; stroke: #e377c2; stroke-opacity: 0.6"/>
   </g>
   <g id="line2d_51">
    <path d="M 103.827273 214.340208 
L 136.437662 307.571271 
L 169.048052 304.541605 
L 201.658442 298.742152 
L 234.268831 289.170982 
L 266.879221 274.885178 
L 299.48961 255.519869 
L 332.1 230.345141 
L 364.71039 200.754624 
L 397.320779 168.023554 
L 429.931169 135.03247 
L 462.541558 104.696194 
L 495.151948 79.10382 
L 527.762338 59.543142 
L 560.372727 168.07725 
" clip-path="url(#p4df3224a5d)" style="fill: none; stroke-dasharray: 3.7,1.6; stroke-dashoffset: 0; stroke: #7f7f7f; stroke-opacity: 0.6"/>
   </g>
   <g id="line2d_52">
    <path d="M 103.827273 214.340208 
L 136.437662 307.321744 
L 169.048052 304.167343 
L 201.658442 297.61637 
L 234.268831 287.473377 
L 266.879221 272.98938 
L 299.48961 253.810799 
L 332.1 229.262684 
L 364.71039 199.987432 
L 397.320779 168.357716 
L 429.931169 135.838724 
L 462.541558 106.003577 
L 495.151948 80.30623 
L 527.762338 60.191821 
L 560.372727 167.943585 
" clip-path="url(#p4df3224a5d)" style="fill: none; stroke-dasharray: 3.7,1.6; stroke-dashoffset: 0; stroke: #bcbd22; stroke-opacity: 0.6"/>
   </g>
   <g id="line2d_53">
    <path d="M 103.827273 214.340208 
L 136.437662 307.383506 
L 169.048052 303.492161 
L 201.658442 296.594638 
L 234.268831 286.821472 
L 266.879221 272.700041 
L 299.48961 253.565766 
L 332.1 229.56199 
L 364.71039 200.069072 
L 397.320779 167.500013 
L 429.931169 134.91269 
L 462.541558 104.793044 
L 495.151948 79.224234 
L 527.762338 59.56394 
L 560.372727 167.778578 
" clip-path="url(#p4df3224a5d)" style="fill: none; stroke-dasharray: 3.7,1.6; stroke-dashoffset: 0; stroke: #17becf; stroke-opacity: 0.6"/>
   </g>
   <g id="line2d_54">
    <path d="M 103.827273 214.340208 
L 136.437662 307.726945 
L 169.048052 304.577268 
L 201.658442 298.581812 
L 234.268831 289.542882 
L 266.879221 275.911806 
L 299.48961 256.976761 
L 332.1 232.170245 
L 364.71039 202.433619 
L 397.320779 169.774163 
L 429.931169 136.816726 
L 462.541558 106.000178 
L 495.151948 79.653691 
L 527.762338 59.70135 
L 560.372727 168.652701 
" clip-path="url(#p4df3224a5d)" style="fill: none; stroke-dasharray: 3.7,1.6; stroke-dashoffset: 0; stroke: #1f77b4; stroke-opacity: 0.6"/>
   </g>
   <g id="line2d_55">
    <path d="M 103.827273 214.340208 
L 136.437662 307.703554 
L 169.048052 304.573177 
L 201.658442 298.139334 
L 234.268831 288.606823 
L 266.879221 273.919966 
L 299.48961 254.453544 
L 332.1 230.019217 
L 364.71039 199.461299 
L 397.320779 166.305727 
L 429.931169 133.659176 
L 462.541558 103.663919 
L 495.151948 78.336629 
L 527.762338 58.823539 
L 560.372727 167.516779 
" clip-path="url(#p4df3224a5d)" style="fill: none; stroke-dasharray: 3.7,1.6; stroke-dashoffset: 0; stroke: #ff7f0e; stroke-opacity: 0.6"/>
   </g>
   <g id="line2d_56">
    <path d="M 103.827273 214.340208 
L 136.437662 307.506974 
L 169.048052 304.727238 
L 201.658442 298.927037 
L 234.268831 290.123057 
L 266.879221 276.744275 
L 299.48961 258.104157 
L 332.1 233.925407 
L 364.71039 204.911551 
L 397.320779 172.851169 
L 429.931169 140.122172 
L 462.541558 109.078739 
L 495.151948 83.141428 
L 527.762338 62.285984 
L 560.372727 169.042981 
" clip-path="url(#p4df3224a5d)" style="fill: none; stroke-dasharray: 3.7,1.6; stroke-dashoffset: 0; stroke: #2ca02c; stroke-opacity: 0.6"/>
   </g>
   <g id="line2d_57">
    <path d="M 103.827273 214.340208 
L 136.437662 307.53025 
L 169.048052 304.384952 
L 201.658442 297.618789 
L 234.268831 288.575941 
L 266.879221 274.438379 
L 299.48961 255.626801 
L 332.1 231.18821 
L 364.71039 202.427339 
L 397.320779 170.391846 
L 429.931169 138.352262 
L 462.541558 108.025723 
L 495.151948 82.407711 
L 527.762338 62.046251 
L 560.372727 169.10722 
" clip-path="url(#p4df3224a5d)" style="fill: none; stroke-dasharray: 3.7,1.6; stroke-dashoffset: 0; stroke: #d62728; stroke-opacity: 0.6"/>
   </g>
   <g id="line2d_58">
    <path d="M 103.827273 214.340208 
L 136.437662 307.229849 
L 169.048052 304.228298 
L 201.658442 298.453908 
L 234.268831 289.115845 
L 266.879221 276.011997 
L 299.48961 258.118618 
L 332.1 234.796246 
L 364.71039 206.535064 
L 397.320779 174.699665 
L 429.931169 141.232226 
L 462.541558 110.643658 
L 495.151948 84.124673 
L 527.762338 63.267443 
L 560.372727 169.642745 
" clip-path="url(#p4df3224a5d)" style="fill: none; stroke-dasharray: 3.7,1.6; stroke-dashoffset: 0; stroke: #9467bd; stroke-opacity: 0.6"/>
   </g>
   <g id="line2d_59">
    <path d="M 103.827273 214.340208 
L 136.437662 307.189865 
L 169.048052 304.377058 
L 201.658442 298.445842 
L 234.268831 290.016702 
L 266.879221 276.523958 
L 299.48961 258.684333 
L 332.1 235.531577 
L 364.71039 206.930643 
L 397.320779 175.093631 
L 429.931169 141.610983 
L 462.541558 110.986981 
L 495.151948 84.109809 
L 527.762338 63.271591 
L 560.372727 169.9602 
" clip-path="url(#p4df3224a5d)" style="fill: none; stroke-dasharray: 3.7,1.6; stroke-dashoffset: 0; stroke: #8c564b; stroke-opacity: 0.6"/>
   </g>
   <g id="line2d_60">
    <path d="M 103.827273 214.340208 
L 136.437662 307.563378 
L 169.048052 303.912284 
L 201.658442 297.381707 
L 234.268831 287.741226 
L 266.879221 273.197944 
L 299.48961 254.460631 
L 332.1 230.311379 
L 364.71039 200.918364 
L 397.320779 168.496279 
L 429.931169 136.232575 
L 462.541558 106.491513 
L 495.151948 80.455624 
L 527.762338 60.227253 
L 560.372727 168.33444 
" clip-path="url(#p4df3224a5d)" style="fill: none; stroke-dasharray: 3.7,1.6; stroke-dashoffset: 0; stroke: #e377c2; stroke-opacity: 0.6"/>
   </g>
   <g id="line2d_61">
    <path d="M 103.827273 214.340208 
L 136.437662 307.458059 
L 169.048052 304.540453 
L 201.658442 298.28867 
L 234.268831 288.741064 
L 266.879221 275.076054 
L 299.48961 256.466644 
L 332.1 232.361064 
L 364.71039 203.27352 
L 397.320779 171.061439 
L 429.931169 138.462708 
L 462.541558 107.722096 
L 495.151948 81.704874 
L 527.762338 61.000955 
L 560.372727 169.149913 
" clip-path="url(#p4df3224a5d)" style="fill: none; stroke-dasharray: 3.7,1.6; stroke-dashoffset: 0; stroke: #7f7f7f; stroke-opacity: 0.6"/>
   </g>
   <g id="line2d_62">
    <path d="M 103.827273 214.340208 
L 136.437662 307.50755 
L 169.048052 304.340012 
L 201.658442 298.362417 
L 234.268831 288.5185 
L 266.879221 274.453013 
L 299.48961 255.351174 
L 332.1 231.612885 
L 364.71039 202.323633 
L 397.320779 170.535997 
L 429.931169 137.841857 
L 462.541558 107.463293 
L 495.151948 81.520451 
L 527.762338 61.140209 
L 560.372727 168.844269 
" clip-path="url(#p4df3224a5d)" style="fill: none; stroke-dasharray: 3.7,1.6; stroke-dashoffset: 0; stroke: #bcbd22; stroke-opacity: 0.6"/>
   </g>
   <g id="line2d_63">
    <path d="M 103.827273 214.340208 
L 136.437662 307.016964 
L 169.048052 303.556862 
L 201.658442 296.907311 
L 234.268831 287.393697 
L 266.879221 272.473387 
L 299.48961 251.753855 
L 332.1 226.605859 
L 364.71039 196.438278 
L 397.320779 163.049195 
L 429.931169 130.253251 
L 462.541558 100.56214 
L 495.151948 75.823494 
L 527.762338 56.200995 
L 560.372727 166.335225 
" clip-path="url(#p4df3224a5d)" style="fill: none; stroke-dasharray: 3.7,1.6; stroke-dashoffset: 0; stroke: #17becf; stroke-opacity: 0.6"/>
   </g>
   <g id="line2d_64">
    <path d="M 103.827273 214.340208 
L 136.437662 307.342427 
L 169.048052 304.29444 
L 201.658442 298.06651 
L 234.268831 289.406221 
L 266.879221 275.955708 
L 299.48961 257.738134 
L 332.1 233.966197 
L 364.71039 204.820175 
L 397.320779 171.949909 
L 429.931169 138.752912 
L 462.541558 107.504832 
L 495.151948 80.671159 
L 527.762338 59.805056 
L 560.372727 168.811717 
" clip-path="url(#p4df3224a5d)" style="fill: none; stroke-dasharray: 3.7,1.6; stroke-dashoffset: 0; stroke: #1f77b4; stroke-opacity: 0.6"/>
   </g>
   <g id="line2d_65">
    <path d="M 103.827273 214.340208 
L 136.437662 307.424585 
L 169.048052 304.447405 
L 201.658442 298.089901 
L 234.268831 288.902499 
L 266.879221 275.052317 
L 299.48961 255.47637 
L 332.1 230.684892 
L 364.71039 201.611348 
L 397.320779 169.600917 
L 429.931169 137.159013 
L 462.541558 107.195213 
L 495.151948 81.501668 
L 527.762338 61.023828 
L 560.372727 168.60638 
" clip-path="url(#p4df3224a5d)" style="fill: none; stroke-dasharray: 3.7,1.6; stroke-dashoffset: 0; stroke: #ff7f0e; stroke-opacity: 0.6"/>
   </g>
   <g id="line2d_66">
    <path d="M 103.827273 214.340208 
L 136.437662 307.195108 
L 169.048052 303.73731 
L 201.658442 296.676681 
L 234.268831 287.467789 
L 266.879221 273.284999 
L 299.48961 253.933863 
L 332.1 229.713976 
L 364.71039 200.919747 
L 397.320779 169.069886 
L 429.931169 136.605282 
L 462.541558 106.580757 
L 495.151948 81.004169 
L 527.762338 60.878007 
L 560.372727 168.246982 
" clip-path="url(#p4df3224a5d)" style="fill: none; stroke-dasharray: 3.7,1.6; stroke-dashoffset: 0; stroke: #2ca02c; stroke-opacity: 0.6"/>
   </g>
   <g id="line2d_67">
    <path d="M 103.827273 214.340208 
L 136.437662 307.204038 
L 169.048052 304.200413 
L 201.658442 297.707631 
L 234.268831 288.958443 
L 266.879221 275.712807 
L 299.48961 257.882688 
L 332.1 234.648235 
L 364.71039 206.080487 
L 397.320779 174.188799 
L 429.931169 141.202325 
L 462.541558 110.384163 
L 495.151948 83.800478 
L 527.762338 63.16852 
L 560.372727 169.655824 
" clip-path="url(#p4df3224a5d)" style="fill: none; stroke-dasharray: 3.7,1.6; stroke-dashoffset: 0; stroke: #d62728; stroke-opacity: 0.6"/>
   </g>
   <g id="line2d_68">
    <path d="M 103.827273 214.340208 
L 136.437662 307.281932 
L 169.048052 303.783689 
L 201.658442 297.051346 
L 234.268831 286.885135 
L 266.879221 272.170163 
L 299.48961 252.165163 
L 332.1 227.103704 
L 364.71039 197.556974 
L 397.320779 164.552928 
L 429.931169 131.725123 
L 462.541558 101.963089 
L 495.151948 77.301415 
L 527.762338 57.547441 
L 560.372727 166.273981 
" clip-path="url(#p4df3224a5d)" style="fill: none; stroke-dasharray: 3.7,1.6; stroke-dashoffset: 0; stroke: #9467bd; stroke-opacity: 0.6"/>
   </g>
   <g id="line2d_69">
    <path d="M 103.827273 214.340208 
L 136.437662 307.68915 
L 169.048052 304.624685 
L 201.658442 298.771305 
L 234.268831 290.860981 
L 266.879221 278.260337 
L 299.48961 260.413395 
L 332.1 237.592036 
L 364.71039 209.631082 
L 397.320779 177.77546 
L 429.931169 144.262679 
L 462.541558 113.089326 
L 495.151948 86.016323 
L 527.762338 64.567797 
L 560.372727 170.371796 
" clip-path="url(#p4df3224a5d)" style="fill: none; stroke-dasharray: 3.7,1.6; stroke-dashoffset: 0; stroke: #8c564b; stroke-opacity: 0.6"/>
   </g>
   <g id="line2d_70">
    <path d="M 103.827273 214.340208 
L 136.437662 307.390651 
L 169.048052 304.136231 
L 201.658442 297.695474 
L 234.268831 288.404597 
L 266.879221 274.675865 
L 299.48961 255.201262 
L 332.1 231.24352 
L 364.71039 202.305658 
L 397.320779 170.08505 
L 429.931169 137.16512 
L 462.541558 106.912097 
L 495.151948 81.232725 
L 527.762338 60.889472 
L 560.372727 168.650282 
" clip-path="url(#p4df3224a5d)" style="fill: none; stroke-dasharray: 3.7,1.6; stroke-dashoffset: 0; stroke: #e377c2; stroke-opacity: 0.6"/>
   </g>
   <g id="line2d_71">
    <path d="M 103.827273 214.340208 
L 136.437662 307.44959 
L 169.048052 304.245467 
L 201.658442 298.454139 
L 234.268831 289.685016 
L 266.879221 275.948737 
L 299.48961 258.130372 
L 332.1 234.412362 
L 364.71039 206.143632 
L 397.320779 174.459413 
L 429.931169 141.853884 
L 462.541558 110.859596 
L 495.151948 84.077603 
L 527.762338 63.303222 
L 560.372727 169.996093 
" clip-path="url(#p4df3224a5d)" style="fill: none; stroke-dasharray: 3.7,1.6; stroke-dashoffset: 0; stroke: #7f7f7f; stroke-opacity: 0.6"/>
   </g>
   <g id="line2d_72">
    <path d="M 103.827273 214.340208 
L 136.437662 307.332345 
L 169.048052 304.350383 
L 201.658442 298.489283 
L 234.268831 289.837809 
L 266.879221 275.803664 
L 299.48961 257.521273 
L 332.1 232.665382 
L 364.71039 203.27496 
L 397.320779 170.574886 
L 429.931169 137.515876 
L 462.541558 106.88836 
L 495.151948 80.649496 
L 527.762338 59.954162 
L 560.372727 168.250784 
" clip-path="url(#p4df3224a5d)" style="fill: none; stroke-dasharray: 3.7,1.6; stroke-dashoffset: 0; stroke: #bcbd22; stroke-opacity: 0.6"/>
   </g>
   <g id="line2d_73">
    <path d="M 103.827273 214.340208 
L 136.437662 307.441178 
L 169.048052 304.715658 
L 201.658442 298.953827 
L 234.268831 290.73037 
L 266.879221 277.407358 
L 299.48961 259.729398 
L 332.1 235.790438 
L 364.71039 207.269991 
L 397.320779 174.879076 
L 429.931169 141.48233 
L 462.541558 110.412394 
L 495.151948 83.787918 
L 527.762338 63.146626 
L 560.372727 169.935426 
" clip-path="url(#p4df3224a5d)" style="fill: none; stroke-dasharray: 3.7,1.6; stroke-dashoffset: 0; stroke: #17becf; stroke-opacity: 0.6"/>
   </g>
   <g id="line2d_74">
    <path d="M 103.827273 214.340208 
L 136.437662 307.615461 
L 169.048052 304.613392 
L 201.658442 298.469176 
L 234.268831 290.058529 
L 266.879221 276.99916 
L 299.48961 258.140051 
L 332.1 233.94488 
L 364.71039 204.209982 
L 397.320779 171.647261 
L 429.931169 138.372254 
L 462.541558 107.508405 
L 495.151948 81.354694 
L 527.762338 60.91511 
L 560.372727 169.071154 
" clip-path="url(#p4df3224a5d)" style="fill: none; stroke-dasharray: 3.7,1.6; stroke-dashoffset: 0; stroke: #1f77b4; stroke-opacity: 0.6"/>
   </g>
   <g id="line2d_75">
    <path d="M 103.827273 214.340208 
L 136.437662 307.68264 
L 169.048052 304.477653 
L 201.658442 298.592989 
L 234.268831 289.893004 
L 266.879221 276.053076 
L 299.48961 257.197193 
L 332.1 233.153145 
L 364.71039 204.357993 
L 397.320779 171.987127 
L 429.931169 138.940619 
L 462.541558 108.124359 
L 495.151948 82.324343 
L 527.762338 61.981262 
L 560.372727 169.498594 
" clip-path="url(#p4df3224a5d)" style="fill: none; stroke-dasharray: 3.7,1.6; stroke-dashoffset: 0; stroke: #ff7f0e; stroke-opacity: 0.6"/>
   </g>
   <g id="line2d_76">
    <path d="M 103.827273 214.340208 
L 136.437662 307.544999 
L 169.048052 304.380919 
L 201.658442 297.897009 
L 234.268831 288.979126 
L 266.879221 274.742237 
L 299.48961 255.900066 
L 332.1 232.002185 
L 364.71039 201.973051 
L 397.320779 169.179699 
L 429.931169 136.27884 
L 462.541558 106.293147 
L 495.151948 80.69818 
L 527.762338 60.214751 
L 560.372727 168.247327 
" clip-path="url(#p4df3224a5d)" style="fill: none; stroke-dasharray: 3.7,1.6; stroke-dashoffset: 0; stroke: #2ca02c; stroke-opacity: 0.6"/>
   </g>
   <g id="line2d_77">
    <path d="M 103.827273 214.340208 
L 136.437662 307.485023 
L 169.048052 304.093884 
L 201.658442 297.968854 
L 234.268831 288.113529 
L 266.879221 273.698151 
L 299.48961 253.75428 
L 332.1 228.289521 
L 364.71039 198.640007 
L 397.320779 165.995992 
L 429.931169 133.938721 
L 462.541558 103.814754 
L 495.151948 78.91473 
L 527.762338 59.861691 
L 560.372727 167.308157 
" clip-path="url(#p4df3224a5d)" style="fill: none; stroke-dasharray: 3.7,1.6; stroke-dashoffset: 0; stroke: #d62728; stroke-opacity: 0.6"/>
   </g>
   <g id="line2d_78">
    <path d="M 103.827273 214.340208 
L 136.437662 307.166762 
L 169.048052 304.035752 
L 201.658442 297.678478 
L 234.268831 288.309821 
L 266.879221 274.807629 
L 299.48961 256.41554 
L 332.1 232.132854 
L 364.71039 203.650433 
L 397.320779 172.147583 
L 429.931169 139.420085 
L 462.541558 108.966103 
L 495.151948 83.353679 
L 527.762338 62.788208 
L 560.372727 168.809412 
" clip-path="url(#p4df3224a5d)" style="fill: none; stroke-dasharray: 3.7,1.6; stroke-dashoffset: 0; stroke: #9467bd; stroke-opacity: 0.6"/>
   </g>
   <g id="line2d_79">
    <path d="M 103.827273 214.340208 
L 136.437662 307.248862 
L 169.048052 304.275139 
L 201.658442 297.49538 
L 234.268831 287.785531 
L 266.879221 273.873125 
L 299.48961 254.674552 
L 332.1 230.075102 
L 364.71039 200.284261 
L 397.320779 167.649464 
L 429.931169 134.856862 
L 462.541558 104.906429 
L 495.151948 79.431703 
L 527.762338 59.967355 
L 560.372727 168.04948 
" clip-path="url(#p4df3224a5d)" style="fill: none; stroke-dasharray: 3.7,1.6; stroke-dashoffset: 0; stroke: #8c564b; stroke-opacity: 0.6"/>
   </g>
   <g id="line2d_80">
    <path d="M 103.827273 214.340208 
L 136.437662 307.346749 
L 169.048052 303.880769 
L 201.658442 297.425436 
L 234.268831 288.808934 
L 266.879221 275.334857 
L 299.48961 256.902439 
L 332.1 233.058197 
L 364.71039 204.519256 
L 397.320779 172.38697 
L 429.931169 139.666616 
L 462.541558 109.064796 
L 495.151948 82.788195 
L 527.762338 62.338355 
L 560.372727 169.02247 
" clip-path="url(#p4df3224a5d)" style="fill: none; stroke-dasharray: 3.7,1.6; stroke-dashoffset: 0; stroke: #e377c2; stroke-opacity: 0.6"/>
   </g>
   <g id="line2d_81">
    <path d="M 103.827273 214.340208 
L 136.437662 307.643692 
L 169.048052 304.528526 
L 201.658442 298.132421 
L 234.268831 287.685052 
L 266.879221 272.804957 
L 299.48961 252.922733 
L 332.1 227.634043 
L 364.71039 197.603354 
L 397.320779 164.870382 
L 429.931169 132.007375 
L 462.541558 102.576565 
L 495.151948 77.567536 
L 527.762338 58.342633 
L 560.372727 167.294503 
" clip-path="url(#p4df3224a5d)" style="fill: none; stroke-dasharray: 3.7,1.6; stroke-dashoffset: 0; stroke: #7f7f7f; stroke-opacity: 0.6"/>
   </g>
   <g id="line2d_82">
    <path d="M 103.827273 214.340208 
L 136.437662 307.475113 
L 169.048052 304.488888 
L 201.658442 298.652793 
L 234.268831 289.959836 
L 266.879221 275.379335 
L 299.48961 256.916093 
L 332.1 232.687045 
L 364.71039 202.693517 
L 397.320779 169.888124 
L 429.931169 137.06683 
L 462.541558 106.136436 
L 495.151948 80.087065 
L 527.762338 59.337862 
L 560.372727 168.327296 
" clip-path="url(#p4df3224a5d)" style="fill: none; stroke-dasharray: 3.7,1.6; stroke-dashoffset: 0; stroke: #bcbd22; stroke-opacity: 0.6"/>
   </g>
   <g id="line2d_83">
    <path d="M 103.827273 214.340208 
L 136.437662 307.240854 
L 169.048052 304.023422 
L 201.658442 297.5852 
L 234.268831 288.223227 
L 266.879221 273.643705 
L 299.48961 255.032913 
L 332.1 230.630504 
L 364.71039 201.942746 
L 397.320779 169.702549 
L 429.931169 137.386647 
L 462.541558 106.862606 
L 495.151948 80.520728 
L 527.762338 59.860999 
L 560.372727 168.052995 
" clip-path="url(#p4df3224a5d)" style="fill: none; stroke-dasharray: 3.7,1.6; stroke-dashoffset: 0; stroke: #17becf; stroke-opacity: 0.6"/>
   </g>
   <g id="line2d_84">
    <path d="M 103.827273 214.340208 
L 136.437662 307.2745 
L 169.048052 303.301342 
L 201.658442 296.710558 
L 234.268831 287.320238 
L 266.879221 273.563621 
L 299.48961 254.969883 
L 332.1 231.198177 
L 364.71039 202.346622 
L 397.320779 170.188007 
L 429.931169 138.078479 
L 462.541558 107.564636 
L 495.151948 81.790028 
L 527.762338 61.152251 
L 560.372727 168.354951 
" clip-path="url(#p4df3224a5d)" style="fill: none; stroke-dasharray: 3.7,1.6; stroke-dashoffset: 0; stroke: #1f77b4; stroke-opacity: 0.6"/>
   </g>
   <g id="line2d_85">
    <path d="M 103.827273 214.340208 
L 136.437662 307.251166 
L 169.048052 303.146821 
L 201.658442 297.008942 
L 234.268831 287.294831 
L 266.879221 272.835953 
L 299.48961 254.31164 
L 332.1 230.389331 
L 364.71039 201.484654 
L 397.320779 169.707158 
L 429.931169 136.813788 
L 462.541558 106.306686 
L 495.151948 80.743234 
L 527.762338 60.329634 
L 560.372727 167.660641 
" clip-path="url(#p4df3224a5d)" style="fill: none; stroke-dasharray: 3.7,1.6; stroke-dashoffset: 0; stroke: #ff7f0e; stroke-opacity: 0.6"/>
   </g>
   <g id="line2d_86">
    <path d="M 103.827273 214.340208 
L 136.437662 307.231981 
L 169.048052 304.103679 
L 201.658442 297.753319 
L 234.268831 288.298759 
L 266.879221 274.909721 
L 299.48961 256.820626 
L 332.1 233.755905 
L 364.71039 205.71262 
L 397.320779 174.281731 
L 429.931169 141.645263 
L 462.541558 110.971656 
L 495.151948 84.180214 
L 527.762338 63.430204 
L 560.372727 169.654268 
" clip-path="url(#p4df3224a5d)" style="fill: none; stroke-dasharray: 3.7,1.6; stroke-dashoffset: 0; stroke: #2ca02c; stroke-opacity: 0.6"/>
   </g>
   <g id="line2d_87">
    <path d="M 103.827273 214.340208 
L 136.437662 307.692607 
L 169.048052 304.33235 
L 201.658442 298.516938 
L 234.268831 288.935224 
L 266.879221 275.258806 
L 299.48961 256.232154 
L 332.1 232.40681 
L 364.71039 203.757307 
L 397.320779 172.056668 
L 429.931169 139.711728 
L 462.541558 109.251524 
L 495.151948 83.347054 
L 527.762338 62.922737 
L 560.372727 169.271421 
" clip-path="url(#p4df3224a5d)" style="fill: none; stroke-dasharray: 3.7,1.6; stroke-dashoffset: 0; stroke: #d62728; stroke-opacity: 0.6"/>
   </g>
   <g id="line2d_88">
    <path d="M 103.827273 214.340208 
L 136.437662 307.375152 
L 169.048052 303.867345 
L 201.658442 297.345755 
L 234.268831 288.27629 
L 266.879221 275.185117 
L 299.48961 257.243573 
L 332.1 234.522982 
L 364.71039 206.340097 
L 397.320779 174.797667 
L 429.931169 142.507749 
L 462.541558 111.574705 
L 495.151948 85.323511 
L 527.762338 64.114776 
L 560.372727 169.724385 
" clip-path="url(#p4df3224a5d)" style="fill: none; stroke-dasharray: 3.7,1.6; stroke-dashoffset: 0; stroke: #9467bd; stroke-opacity: 0.6"/>
   </g>
   <g id="line2d_89">
    <path d="M 103.827273 214.340208 
L 136.437662 307.61235 
L 169.048052 303.709021 
L 201.658442 296.746797 
L 234.268831 286.518536 
L 266.879221 270.844228 
L 299.48961 250.657801 
L 332.1 224.720087 
L 364.71039 195.040037 
L 397.320779 162.433529 
L 429.931169 130.309655 
L 462.541558 100.965555 
L 495.151948 76.373077 
L 527.762338 57.285642 
L 560.372727 166.702401 
" clip-path="url(#p4df3224a5d)" style="fill: none; stroke-dasharray: 3.7,1.6; stroke-dashoffset: 0; stroke: #8c564b; stroke-opacity: 0.6"/>
   </g>
   <g id="line2d_90">
    <path d="M 103.827273 214.340208 
L 136.437662 307.638622 
L 169.048052 304.593861 
L 201.658442 298.373075 
L 234.268831 289.805718 
L 266.879221 276.130164 
L 299.48961 258.463094 
L 332.1 235.378669 
L 364.71039 207.301046 
L 397.320779 175.798311 
L 429.931169 142.866398 
L 462.541558 111.674377 
L 495.151948 84.782513 
L 527.762338 63.956625 
L 560.372727 169.870782 
" clip-path="url(#p4df3224a5d)" style="fill: none; stroke-dasharray: 3.7,1.6; stroke-dashoffset: 0; stroke: #e377c2; stroke-opacity: 0.6"/>
   </g>
   <g id="line2d_91">
    <path d="M 103.827273 214.340208 
L 136.437662 307.745785 
L 169.048052 304.440031 
L 201.658442 298.091572 
L 234.268831 288.741122 
L 266.879221 274.413662 
L 299.48961 255.689543 
L 332.1 231.116826 
L 364.71039 201.26428 
L 397.320779 168.748629 
L 429.931169 135.644679 
L 462.541558 105.051905 
L 495.151948 79.321833 
L 527.762338 59.523841 
L 560.372727 168.058295 
" clip-path="url(#p4df3224a5d)" style="fill: none; stroke-dasharray: 3.7,1.6; stroke-dashoffset: 0; stroke: #7f7f7f; stroke-opacity: 0.6"/>
   </g>
   <g id="line2d_92">
    <path d="M 103.827273 214.340208 
L 136.437662 307.758633 
L 169.048052 304.997679 
L 201.658442 299.284936 
L 234.268831 290.149848 
L 266.879221 276.559967 
L 299.48961 258.16978 
L 332.1 233.3223 
L 364.71039 204.016341 
L 397.320779 171.805815 
L 429.931169 138.298853 
L 462.541558 107.434082 
L 495.151948 81.250182 
L 527.762338 60.808063 
L 560.372727 168.901365 
" clip-path="url(#p4df3224a5d)" style="fill: none; stroke-dasharray: 3.7,1.6; stroke-dashoffset: 0; stroke: #bcbd22; stroke-opacity: 0.6"/>
   </g>
   <g id="line2d_93">
    <path d="M 103.827273 214.340208 
L 136.437662 307.487327 
L 169.048052 304.395322 
L 201.658442 297.3582 
L 234.268831 288.023593 
L 266.879221 273.317148 
L 299.48961 253.919633 
L 332.1 229.343516 
L 364.71039 199.510501 
L 397.320779 167.328322 
L 429.931169 134.636084 
L 462.541558 104.413481 
L 495.151948 79.032494 
L 527.762338 59.579842 
L 560.372727 167.929815 
" clip-path="url(#p4df3224a5d)" style="fill: none; stroke-dasharray: 3.7,1.6; stroke-dashoffset: 0; stroke: #17becf; stroke-opacity: 0.6"/>
   </g>
   <g id="line2d_94">
    <path d="M 103.827273 214.340208 
L 136.437662 307.080167 
L 169.048052 303.518145 
L 201.658442 296.283751 
L 234.268831 286.323684 
L 266.879221 272.658789 
L 299.48961 254.295739 
L 332.1 230.663459 
L 364.71039 202.70988 
L 397.320779 171.566716 
L 429.931169 138.910544 
L 462.541558 109.017495 
L 495.151948 83.047056 
L 527.762338 62.825254 
L 560.372727 168.438664 
" clip-path="url(#p4df3224a5d)" style="fill: none; stroke-dasharray: 3.7,1.6; stroke-dashoffset: 0; stroke: #1f77b4; stroke-opacity: 0.6"/>
   </g>
   <g id="line2d_95">
    <path d="M 103.827273 214.340208 
L 136.437662 306.682514 
L 169.048052 303.515725 
L 201.658442 297.321903 
L 234.268831 288.216486 
L 266.879221 274.208152 
L 299.48961 255.604447 
L 332.1 231.716072 
L 364.71039 202.748308 
L 397.320779 170.597586 
L 429.931169 137.636577 
L 462.541558 107.280079 
L 495.151948 81.259977 
L 527.762338 60.752811 
L 560.372727 168.919167 
" clip-path="url(#p4df3224a5d)" style="fill: none; stroke-dasharray: 3.7,1.6; stroke-dashoffset: 0; stroke: #ff7f0e; stroke-opacity: 0.6"/>
   </g>
   <g id="line2d_96">
    <path d="M 103.827273 214.340208 
L 136.437662 307.586827 
L 169.048052 304.212915 
L 201.658442 298.148725 
L 234.268831 289.10847 
L 266.879221 275.772668 
L 299.48961 257.529973 
L 332.1 234.292698 
L 364.71039 206.009334 
L 397.320779 173.79852 
L 429.931169 141.103459 
L 462.541558 110.753989 
L 495.151948 84.101628 
L 527.762338 63.098979 
L 560.372727 169.64021 
" clip-path="url(#p4df3224a5d)" style="fill: none; stroke-dasharray: 3.7,1.6; stroke-dashoffset: 0; stroke: #2ca02c; stroke-opacity: 0.6"/>
   </g>
   <g id="line2d_97">
    <path d="M 103.827273 214.340208 
L 136.437662 307.714673 
L 169.048052 304.834228 
L 201.658442 298.738465 
L 234.268831 290.097995 
L 266.879221 276.428779 
L 299.48961 258.658982 
L 332.1 235.036152 
L 364.71039 206.268886 
L 397.320779 173.638756 
L 429.931169 140.307921 
L 462.541558 109.523291 
L 495.151948 83.185446 
L 527.762338 61.987081 
L 560.372727 169.694656 
" clip-path="url(#p4df3224a5d)" style="fill: none; stroke-dasharray: 3.7,1.6; stroke-dashoffset: 0; stroke: #d62728; stroke-opacity: 0.6"/>
   </g>
   <g id="line2d_98">
    <path d="M 103.827273 214.340208 
L 136.437662 307.700846 
L 169.048052 304.195055 
L 201.658442 298.235204 
L 234.268831 289.85204 
L 266.879221 276.601449 
L 299.48961 258.106174 
L 332.1 233.803668 
L 364.71039 205.012837 
L 397.320779 172.426263 
L 429.931169 139.596269 
L 462.541558 108.902439 
L 495.151948 82.883028 
L 527.762338 62.222032 
L 560.372727 169.434009 
" clip-path="url(#p4df3224a5d)" style="fill: none; stroke-dasharray: 3.7,1.6; stroke-dashoffset: 0; stroke: #9467bd; stroke-opacity: 0.6"/>
   </g>
   <g id="line2d_99">
    <path d="M 103.827273 214.340208 
L 136.437662 307.35228 
L 169.048052 303.776775 
L 201.658442 296.308756 
L 234.268831 285.669532 
L 266.879221 271.390872 
L 299.48961 252.069466 
L 332.1 227.837825 
L 364.71039 199.127079 
L 397.320779 167.181809 
L 429.931169 135.40921 
L 462.541558 105.79703 
L 495.151948 80.431829 
L 527.762338 60.448204 
L 560.372727 168.019405 
" clip-path="url(#p4df3224a5d)" style="fill: none; stroke-dasharray: 3.7,1.6; stroke-dashoffset: 0; stroke: #8c564b; stroke-opacity: 0.6"/>
   </g>
   <g id="line2d_100">
    <path d="M 103.827273 214.340208 
L 136.437662 307.325028 
L 169.048052 304.115432 
L 201.658442 297.446119 
L 234.268831 287.953995 
L 266.879221 273.00678 
L 299.48961 253.472546 
L 332.1 227.876081 
L 364.71039 198.117907 
L 397.320779 164.800439 
L 429.931169 132.401457 
L 462.541558 102.475798 
L 495.151948 77.189701 
L 527.762338 57.755198 
L 560.372727 167.1598 
" clip-path="url(#p4df3224a5d)" style="fill: none; stroke-dasharray: 3.7,1.6; stroke-dashoffset: 0; stroke: #e377c2; stroke-opacity: 0.6"/>
   </g>
   <g id="line2d_101">
    <path d="M 103.827273 214.340208 
L 136.437662 307.278303 
L 169.048052 304.188199 
L 201.658442 298.131672 
L 234.268831 289.5468 
L 266.879221 276.334292 
L 299.48961 258.592092 
L 332.1 234.942471 
L 364.71039 206.356056 
L 397.320779 174.229936 
L 429.931169 140.924221 
L 462.541558 109.96767 
L 495.151948 83.211487 
L 527.762338 62.072235 
L 560.372727 169.695693 
" clip-path="url(#p4df3224a5d)" style="fill: none; stroke-dasharray: 3.7,1.6; stroke-dashoffset: 0; stroke: #7f7f7f; stroke-opacity: 0.6"/>
   </g>
   <g id="line2d_102">
    <path d="M 103.827273 214.340208 
L 136.437662 307.666508 
L 169.048052 304.469414 
L 201.658442 298.393183 
L 234.268831 289.480082 
L 266.879221 276.183169 
L 299.48961 257.172938 
L 332.1 233.356062 
L 364.71039 204.806981 
L 397.320779 171.87236 
L 429.931169 139.164508 
L 462.541558 108.250304 
L 495.151948 82.225822 
L 527.762338 61.6611 
L 560.372727 169.52815 
" clip-path="url(#p4df3224a5d)" style="fill: none; stroke-dasharray: 3.7,1.6; stroke-dashoffset: 0; stroke: #bcbd22; stroke-opacity: 0.6"/>
   </g>
   <g id="line2d_103">
    <path d="M 103.827273 214.340208 
L 136.437662 307.534859 
L 169.048052 304.569375 
L 201.658442 298.704357 
L 234.268831 290.027303 
L 266.879221 276.257722 
L 299.48961 257.68196 
L 332.1 232.950285 
L 364.71039 203.799077 
L 397.320779 170.401352 
L 429.931169 137.47399 
L 462.541558 106.58963 
L 495.151948 80.202351 
L 527.762338 59.840085 
L 560.372727 168.584832 
" clip-path="url(#p4df3224a5d)" style="fill: none; stroke-dasharray: 3.7,1.6; stroke-dashoffset: 0; stroke: #17becf; stroke-opacity: 0.6"/>
   </g>
   <g id="line2d_104">
    <path d="M 103.827273 214.340208 
L 136.437662 307.665183 
L 169.048052 304.374235 
L 201.658442 297.992418 
L 234.268831 289.285116 
L 266.879221 276.063908 
L 299.48961 257.629415 
L 332.1 234.363102 
L 364.71039 206.614283 
L 397.320779 175.352089 
L 429.931169 143.163802 
L 462.541558 112.099398 
L 495.151948 85.995466 
L 527.762338 64.825736 
L 560.372727 169.896651 
" clip-path="url(#p4df3224a5d)" style="fill: none; stroke-dasharray: 3.7,1.6; stroke-dashoffset: 0; stroke: #1f77b4; stroke-opacity: 0.6"/>
   </g>
   <g id="line2d_105">
    <path d="M 103.827273 214.340208 
L 136.437662 307.196202 
L 169.048052 303.238024 
L 201.658442 296.096793 
L 234.268831 286.759709 
L 266.879221 272.538491 
L 299.48961 253.026899 
L 332.1 229.252255 
L 364.71039 201.027716 
L 397.320779 169.352369 
L 429.931169 137.39333 
L 462.541558 108.253069 
L 495.151948 83.355177 
L 527.762338 63.397479 
L 560.372727 168.527218 
" clip-path="url(#p4df3224a5d)" style="fill: none; stroke-dasharray: 3.7,1.6; stroke-dashoffset: 0; stroke: #ff7f0e; stroke-opacity: 0.6"/>
   </g>
   <g id="line2d_106">
    <path d="M 103.827273 214.340208 
L 136.437662 307.301579 
L 169.048052 304.203812 
L 201.658442 297.73615 
L 234.268831 288.797238 
L 266.879221 274.221288 
L 299.48961 255.62513 
L 332.1 231.46666 
L 364.71039 202.870162 
L 397.320779 170.778668 
L 429.931169 137.855051 
L 462.541558 106.905068 
L 495.151948 81.348126 
L 527.762338 61.218046 
L 560.372727 168.333288 
" clip-path="url(#p4df3224a5d)" style="fill: none; stroke-dasharray: 3.7,1.6; stroke-dashoffset: 0; stroke: #2ca02c; stroke-opacity: 0.6"/>
   </g>
   <g id="line2d_107">
    <path d="M 103.827273 214.340208 
L 136.437662 307.656713 
L 169.048052 304.307115 
L 201.658442 297.487544 
L 234.268831 287.83024 
L 266.879221 273.514534 
L 299.48961 254.779007 
L 332.1 230.687485 
L 364.71039 201.358883 
L 397.320779 168.408763 
L 429.931169 135.833424 
L 462.541558 106.216808 
L 495.151948 80.474694 
L 527.762338 60.549893 
L 560.372727 167.794479 
" clip-path="url(#p4df3224a5d)" style="fill: none; stroke-dasharray: 3.7,1.6; stroke-dashoffset: 0; stroke: #d62728; stroke-opacity: 0.6"/>
   </g>
   <g id="line2d_108">
    <path d="M 103.827273 214.340208 
L 136.437662 307.49378 
L 169.048052 304.316391 
L 201.658442 297.634691 
L 234.268831 287.543667 
L 266.879221 272.413525 
L 299.48961 251.3997 
L 332.1 226.098623 
L 364.71039 195.333524 
L 397.320779 162.346589 
L 429.931169 129.705627 
L 462.541558 99.565528 
L 495.151948 75.155284 
L 527.762338 55.865335 
L 560.372727 166.553814 
" clip-path="url(#p4df3224a5d)" style="fill: none; stroke-dasharray: 3.7,1.6; stroke-dashoffset: 0; stroke: #9467bd; stroke-opacity: 0.6"/>
   </g>
   <g id="line2d_109">
    <path d="M 103.827273 214.340208 
L 136.437662 307.67636 
L 169.048052 304.86171 
L 201.658442 298.62871 
L 234.268831 289.729206 
L 266.879221 274.987328 
L 299.48961 255.185245 
L 332.1 230.329642 
L 364.71039 200.078866 
L 397.320779 166.615 
L 429.931169 133.369722 
L 462.541558 102.743474 
L 495.151948 77.301358 
L 527.762338 57.530041 
L 560.372727 167.400743 
" clip-path="url(#p4df3224a5d)" style="fill: none; stroke-dasharray: 3.7,1.6; stroke-dashoffset: 0; stroke: #8c564b; stroke-opacity: 0.6"/>
   </g>
   <g id="line2d_110">
    <path d="M 103.827273 214.340208 
L 136.437662 307.295702 
L 169.048052 303.757475 
L 201.658442 297.940104 
L 234.268831 288.227087 
L 266.879221 274.382839 
L 299.48961 255.262852 
L 332.1 231.206301 
L 364.71039 202.474007 
L 397.320779 170.311474 
L 429.931169 137.647582 
L 462.541558 107.112537 
L 495.151948 81.75183 
L 527.762338 61.688985 
L 560.372727 168.701443 
" clip-path="url(#p4df3224a5d)" style="fill: none; stroke-dasharray: 3.7,1.6; stroke-dashoffset: 0; stroke: #e377c2; stroke-opacity: 0.6"/>
   </g>
   <g id="line2d_111">
    <path d="M 103.827273 214.340208 
L 136.437662 307.331942 
L 169.048052 303.860258 
L 201.658442 296.907484 
L 234.268831 287.020126 
L 266.879221 272.402636 
L 299.48961 253.210919 
L 332.1 228.899714 
L 364.71039 200.357489 
L 397.320779 168.451512 
L 429.931169 136.298486 
L 462.541558 106.395412 
L 495.151948 81.100155 
L 527.762338 60.71974 
L 560.372727 168.006615 
" clip-path="url(#p4df3224a5d)" style="fill: none; stroke-dasharray: 3.7,1.6; stroke-dashoffset: 0; stroke: #7f7f7f; stroke-opacity: 0.6"/>
   </g>
   <g id="line2d_112">
    <path d="M 103.827273 214.340208 
L 136.437662 307.491188 
L 169.048052 304.174199 
L 201.658442 298.101366 
L 234.268831 288.881528 
L 266.879221 275.55091 
L 299.48961 257.357303 
L 332.1 233.77728 
L 364.71039 205.165573 
L 397.320779 172.969163 
L 429.931169 140.314662 
L 462.541558 109.430993 
L 495.151948 83.571404 
L 527.762338 62.777319 
L 560.372727 169.302533 
" clip-path="url(#p4df3224a5d)" style="fill: none; stroke-dasharray: 3.7,1.6; stroke-dashoffset: 0; stroke: #bcbd22; stroke-opacity: 0.6"/>
   </g>
   <g id="line2d_113">
    <path d="M 103.827273 214.340208 
L 136.437662 307.702344 
L 169.048052 304.667434 
L 201.658442 298.676357 
L 234.268831 289.032419 
L 266.879221 275.213521 
L 299.48961 256.114333 
L 332.1 232.381575 
L 364.71039 203.990818 
L 397.320779 171.246669 
L 429.931169 137.957431 
L 462.541558 107.79083 
L 495.151948 82.156397 
L 527.762338 61.777135 
L 560.372727 168.904245 
" clip-path="url(#p4df3224a5d)" style="fill: none; stroke-dasharray: 3.7,1.6; stroke-dashoffset: 0; stroke: #17becf; stroke-opacity: 0.6"/>
   </g>
   <g id="line2d_114">
    <path d="M 103.827273 214.340208 
L 136.437662 307.429547 
L 169.048052 304.158995 
L 201.658442 297.833659 
L 234.268831 288.644925 
L 266.879221 274.759492 
L 299.48961 255.945154 
L 332.1 231.780203 
L 364.71039 202.777684 
L 397.320779 170.494084 
L 429.931169 137.744844 
L 462.541558 107.327635 
L 495.151948 81.416259 
L 527.762338 61.123412 
L 560.372727 168.642722 
" clip-path="url(#p4df3224a5d)" style="fill: none; stroke: #000000; stroke-width: 2.5; stroke-linecap: square"/>
   </g>
   <g id="patch_3">
    <path d="M 81 320.4 
L 81 43.2 
" style="fill: none; stroke: #000000; stroke-width: 0.8; stroke-linejoin: miter; stroke-linecap: square"/>
   </g>
   <g id="patch_4">
    <path d="M 583.2 320.4 
L 583.2 43.2 
" style="fill: none; stroke: #000000; stroke-width: 0.8; stroke-linejoin: miter; stroke-linecap: square"/>
   </g>
   <g id="patch_5">
    <path d="M 81 320.4 
L 583.2 320.4 
" style="fill: none; stroke: #000000; stroke-width: 0.8; stroke-linejoin: miter; stroke-linecap: square"/>
   </g>
   <g id="patch_6">
    <path d="M 81 43.2 
L 583.2 43.2 
" style="fill: none; stroke: #000000; stroke-width: 0.8; stroke-linejoin: miter; stroke-linecap: square"/>
   </g>
   <g id="legend_1">
    <g id="patch_7">
     <path d="M 88 65.878125 
L 161.065625 65.878125 
Q 163.065625 65.878125 163.065625 63.878125 
L 163.065625 50.2 
Q 163.065625 48.2 161.065625 48.2 
L 88 48.2 
Q 86 48.2 86 50.2 
L 86 63.878125 
Q 86 65.878125 88 65.878125 
z
" style="fill: #ffffff; opacity: 0.8; stroke: #cccccc; stroke-linejoin: miter"/>
    </g>
    <g id="line2d_115">
     <path d="M 90 56.298437 
L 100 56.298437 
L 110 56.298437 
" style="fill: none; stroke: #000000; stroke-width: 2.5; stroke-linecap: square"/>
    </g>
    <g id="text_16">
     <!-- Average -->
     <g transform="translate(118 59.798437) scale(0.1 -0.1)">
      <defs>
       <path id="DejaVuSans-41" d="M 2188 4044 
L 1331 1722 
L 3047 1722 
L 2188 4044 
z
M 1831 4666 
L 2547 4666 
L 4325 0 
L 3669 0 
L 3244 1197 
L 1141 1197 
L 716 0 
L 50 0 
L 1831 4666 
z
" transform="scale(0.015625)"/>
       <path id="DejaVuSans-67" d="M 2906 1791 
Q 2906 2416 2648 2759 
Q 2391 3103 1925 3103 
Q 1463 3103 1205 2759 
Q 947 2416 947 1791 
Q 947 1169 1205 825 
Q 1463 481 1925 481 
Q 2391 481 2648 825 
Q 2906 1169 2906 1791 
z
M 3481 434 
Q 3481 -459 3084 -895 
Q 2688 -1331 1869 -1331 
Q 1566 -1331 1297 -1286 
Q 1028 -1241 775 -1147 
L 775 -588 
Q 1028 -725 1275 -790 
Q 1522 -856 1778 -856 
Q 2344 -856 2625 -561 
Q 2906 -266 2906 331 
L 2906 616 
Q 2728 306 2450 153 
Q 2172 0 1784 0 
Q 1141 0 747 490 
Q 353 981 353 1791 
Q 353 2603 747 3093 
Q 1141 3584 1784 3584 
Q 2172 3584 2450 3431 
Q 2728 3278 2906 2969 
L 2906 3500 
L 3481 3500 
L 3481 434 
z
" transform="scale(0.015625)"/>
      </defs>
      <use xlink:href="#DejaVuSans-41"/>
      <use xlink:href="#DejaVuSans-76" x="62.533203"/>
      <use xlink:href="#DejaVuSans-65" x="121.712891"/>
      <use xlink:href="#DejaVuSans-72" x="183.236328"/>
      <use xlink:href="#DejaVuSans-61" x="224.349609"/>
      <use xlink:href="#DejaVuSans-67" x="285.628906"/>
      <use xlink:href="#DejaVuSans-65" x="349.105469"/>
     </g>
    </g>
   </g>
  </g>
 </g>
 <defs>
  <clipPath id="p4df3224a5d">
   <rect x="81" y="43.2" width="502.2" height="277.2"/>
  </clipPath>
 </defs>
</svg>
