<?xml version="1.0" encoding="utf-8" standalone="no"?>
<!DOCTYPE svg PUBLIC "-//W3C//DTD SVG 1.1//EN"
  "http://www.w3.org/Graphics/SVG/1.1/DTD/svg11.dtd">
<svg xmlns:xlink="http://www.w3.org/1999/xlink" width="648pt" height="360pt" viewBox="0 0 648 360" xmlns="http://www.w3.org/2000/svg" version="1.1">
 <metadata>
  <rdf:RDF xmlns:dc="http://purl.org/dc/elements/1.1/" xmlns:cc="http://creativecommons.org/ns#" xmlns:rdf="http://www.w3.org/1999/02/22-rdf-syntax-ns#">
   <cc:Work>
    <dc:type rdf:resource="http://purl.org/dc/dcmitype/StillImage"/>
    <dc:date>2025-09-21T22:10:42.952297</dc:date>
    <dc:format>image/svg+xml</dc:format>
    <dc:creator>
     <cc:Agent>
      <dc:title>Matplotlib v3.8.0, https://matplotlib.org/</dc:title>
     </cc:Agent>
    </dc:creator>
   </cc:Work>
  </rdf:RDF>
 </metadata>
 <defs>
  <style type="text/css">*{stroke-linejoin: round; stroke-linecap: butt}</style>
 </defs>
 <g id="figure_1">
  <g id="patch_1">
   <path d="M 0 360 
L 648 360 
L 648 0 
L 0 0 
z
" style="fill: #ffffff"/>
  </g>
  <g id="axes_1">
   <g id="patch_2">
    <path d="M 81 320.4 
L 583.2 320.4 
L 583.2 43.2 
L 81 43.2 
z
" style="fill: #ffffff"/>
   </g>
   <g id="matplotlib.axis_1">
    <g id="xtick_1">
     <g id="line2d_1">
      <defs>
       <path id="mb743bab633" d="M 0 0 
L 0 3.5 
" style="stroke: #000000; stroke-width: 0.8"/>
      </defs>
      <g>
       <use xlink:href="#mb743bab633" x="103.827273" y="320.4" style="stroke: #000000; stroke-width: 0.8"/>
      </g>
     </g>
     <g id="text_1">
      <!-- 2010 -->
      <g transform="translate(88.557273 336.518125) scale(0.12 -0.12)">
       <defs>
        <path id="DejaVuSans-32" d="M 1228 531 
L 3431 531 
L 3431 0 
L 469 0 
L 469 531 
Q 828 903 1448 1529 
Q 2069 2156 2228 2338 
Q 2531 2678 2651 2914 
Q 2772 3150 2772 3378 
Q 2772 3750 2511 3984 
Q 2250 4219 1831 4219 
Q 1534 4219 1204 4116 
Q 875 4013 500 3803 
L 500 4441 
Q 881 4594 1212 4672 
Q 1544 4750 1819 4750 
Q 2544 4750 2975 4387 
Q 3406 4025 3406 3419 
Q 3406 3131 3298 2873 
Q 3191 2616 2906 2266 
Q 2828 2175 2409 1742 
Q 1991 1309 1228 531 
z
" transform="scale(0.015625)"/>
        <path id="DejaVuSans-30" d="M 2034 4250 
Q 1547 4250 1301 3770 
Q 1056 3291 1056 2328 
Q 1056 1369 1301 889 
Q 1547 409 2034 409 
Q 2525 409 2770 889 
Q 3016 1369 3016 2328 
Q 3016 3291 2770 3770 
Q 2525 4250 2034 4250 
z
M 2034 4750 
Q 2819 4750 3233 4129 
Q 3647 3509 3647 2328 
Q 3647 1150 3233 529 
Q 2819 -91 2034 -91 
Q 1250 -91 836 529 
Q 422 1150 422 2328 
Q 422 3509 836 4129 
Q 1250 4750 2034 4750 
z
" transform="scale(0.015625)"/>
        <path id="DejaVuSans-31" d="M 794 531 
L 1825 531 
L 1825 4091 
L 703 3866 
L 703 4441 
L 1819 4666 
L 2450 4666 
L 2450 531 
L 3481 531 
L 3481 0 
L 794 0 
L 794 531 
z
" transform="scale(0.015625)"/>
       </defs>
       <use xlink:href="#DejaVuSans-32"/>
       <use xlink:href="#DejaVuSans-30" x="63.623047"/>
       <use xlink:href="#DejaVuSans-31" x="127.246094"/>
       <use xlink:href="#DejaVuSans-30" x="190.869141"/>
      </g>
     </g>
    </g>
    <g id="xtick_2">
     <g id="line2d_2">
      <g>
       <use xlink:href="#mb743bab633" x="169.048052" y="320.4" style="stroke: #000000; stroke-width: 0.8"/>
      </g>
     </g>
     <g id="text_2">
      <!-- 2012 -->
      <g transform="translate(153.778052 336.518125) scale(0.12 -0.12)">
       <use xlink:href="#DejaVuSans-32"/>
       <use xlink:href="#DejaVuSans-30" x="63.623047"/>
       <use xlink:href="#DejaVuSans-31" x="127.246094"/>
       <use xlink:href="#DejaVuSans-32" x="190.869141"/>
      </g>
     </g>
    </g>
    <g id="xtick_3">
     <g id="line2d_3">
      <g>
       <use xlink:href="#mb743bab633" x="234.268831" y="320.4" style="stroke: #000000; stroke-width: 0.8"/>
      </g>
     </g>
     <g id="text_3">
      <!-- 2014 -->
      <g transform="translate(218.998831 336.518125) scale(0.12 -0.12)">
       <defs>
        <path id="DejaVuSans-34" d="M 2419 4116 
L 825 1625 
L 2419 1625 
L 2419 4116 
z
M 2253 4666 
L 3047 4666 
L 3047 1625 
L 3713 1625 
L 3713 1100 
L 3047 1100 
L 3047 0 
L 2419 0 
L 2419 1100 
L 313 1100 
L 313 1709 
L 2253 4666 
z
" transform="scale(0.015625)"/>
       </defs>
       <use xlink:href="#DejaVuSans-32"/>
       <use xlink:href="#DejaVuSans-30" x="63.623047"/>
       <use xlink:href="#DejaVuSans-31" x="127.246094"/>
       <use xlink:href="#DejaVuSans-34" x="190.869141"/>
      </g>
     </g>
    </g>
    <g id="xtick_4">
     <g id="line2d_4">
      <g>
       <use xlink:href="#mb743bab633" x="299.48961" y="320.4" style="stroke: #000000; stroke-width: 0.8"/>
      </g>
     </g>
     <g id="text_4">
      <!-- 2016 -->
      <g transform="translate(284.21961 336.518125) scale(0.12 -0.12)">
       <defs>
        <path id="DejaVuSans-36" d="M 2113 2584 
Q 1688 2584 1439 2293 
Q 1191 2003 1191 1497 
Q 1191 994 1439 701 
Q 1688 409 2113 409 
Q 2538 409 2786 701 
Q 3034 994 3034 1497 
Q 3034 2003 2786 2293 
Q 2538 2584 2113 2584 
z
M 3366 4563 
L 3366 3988 
Q 3128 4100 2886 4159 
Q 2644 4219 2406 4219 
Q 1781 4219 1451 3797 
Q 1122 3375 1075 2522 
Q 1259 2794 1537 2939 
Q 1816 3084 2150 3084 
Q 2853 3084 3261 2657 
Q 3669 2231 3669 1497 
Q 3669 778 3244 343 
Q 2819 -91 2113 -91 
Q 1303 -91 875 529 
Q 447 1150 447 2328 
Q 447 3434 972 4092 
Q 1497 4750 2381 4750 
Q 2619 4750 2861 4703 
Q 3103 4656 3366 4563 
z
" transform="scale(0.015625)"/>
       </defs>
       <use xlink:href="#DejaVuSans-32"/>
       <use xlink:href="#DejaVuSans-30" x="63.623047"/>
       <use xlink:href="#DejaVuSans-31" x="127.246094"/>
       <use xlink:href="#DejaVuSans-36" x="190.869141"/>
      </g>
     </g>
    </g>
    <g id="xtick_5">
     <g id="line2d_5">
      <g>
       <use xlink:href="#mb743bab633" x="364.71039" y="320.4" style="stroke: #000000; stroke-width: 0.8"/>
      </g>
     </g>
     <g id="text_5">
      <!-- 2018 -->
      <g transform="translate(349.44039 336.518125) scale(0.12 -0.12)">
       <defs>
        <path id="DejaVuSans-38" d="M 2034 2216 
Q 1584 2216 1326 1975 
Q 1069 1734 1069 1313 
Q 1069 891 1326 650 
Q 1584 409 2034 409 
Q 2484 409 2743 651 
Q 3003 894 3003 1313 
Q 3003 1734 2745 1975 
Q 2488 2216 2034 2216 
z
M 1403 2484 
Q 997 2584 770 2862 
Q 544 3141 544 3541 
Q 544 4100 942 4425 
Q 1341 4750 2034 4750 
Q 2731 4750 3128 4425 
Q 3525 4100 3525 3541 
Q 3525 3141 3298 2862 
Q 3072 2584 2669 2484 
Q 3125 2378 3379 2068 
Q 3634 1759 3634 1313 
Q 3634 634 3220 271 
Q 2806 -91 2034 -91 
Q 1263 -91 848 271 
Q 434 634 434 1313 
Q 434 1759 690 2068 
Q 947 2378 1403 2484 
z
M 1172 3481 
Q 1172 3119 1398 2916 
Q 1625 2713 2034 2713 
Q 2441 2713 2670 2916 
Q 2900 3119 2900 3481 
Q 2900 3844 2670 4047 
Q 2441 4250 2034 4250 
Q 1625 4250 1398 4047 
Q 1172 3844 1172 3481 
z
" transform="scale(0.015625)"/>
       </defs>
       <use xlink:href="#DejaVuSans-32"/>
       <use xlink:href="#DejaVuSans-30" x="63.623047"/>
       <use xlink:href="#DejaVuSans-31" x="127.246094"/>
       <use xlink:href="#DejaVuSans-38" x="190.869141"/>
      </g>
     </g>
    </g>
    <g id="xtick_6">
     <g id="line2d_6">
      <g>
       <use xlink:href="#mb743bab633" x="429.931169" y="320.4" style="stroke: #000000; stroke-width: 0.8"/>
      </g>
     </g>
     <g id="text_6">
      <!-- 2020 -->
      <g transform="translate(414.661169 336.518125) scale(0.12 -0.12)">
       <use xlink:href="#DejaVuSans-32"/>
       <use xlink:href="#DejaVuSans-30" x="63.623047"/>
       <use xlink:href="#DejaVuSans-32" x="127.246094"/>
       <use xlink:href="#DejaVuSans-30" x="190.869141"/>
      </g>
     </g>
    </g>
    <g id="xtick_7">
     <g id="line2d_7">
      <g>
       <use xlink:href="#mb743bab633" x="495.151948" y="320.4" style="stroke: #000000; stroke-width: 0.8"/>
      </g>
     </g>
     <g id="text_7">
      <!-- 2022 -->
      <g transform="translate(479.881948 336.518125) scale(0.12 -0.12)">
       <use xlink:href="#DejaVuSans-32"/>
       <use xlink:href="#DejaVuSans-30" x="63.623047"/>
       <use xlink:href="#DejaVuSans-32" x="127.246094"/>
       <use xlink:href="#DejaVuSans-32" x="190.869141"/>
      </g>
     </g>
    </g>
    <g id="xtick_8">
     <g id="line2d_8">
      <g>
       <use xlink:href="#mb743bab633" x="560.372727" y="320.4" style="stroke: #000000; stroke-width: 0.8"/>
      </g>
     </g>
     <g id="text_8">
      <!-- 2024 -->
      <g transform="translate(545.102727 336.518125) scale(0.12 -0.12)">
       <use xlink:href="#DejaVuSans-32"/>
       <use xlink:href="#DejaVuSans-30" x="63.623047"/>
       <use xlink:href="#DejaVuSans-32" x="127.246094"/>
       <use xlink:href="#DejaVuSans-34" x="190.869141"/>
      </g>
     </g>
    </g>
    <g id="text_9">
     <!-- Year -->
     <g transform="translate(316.21875 354.411406) scale(0.15 -0.15)">
      <defs>
       <path id="DejaVuSans-59" d="M -13 4666 
L 666 4666 
L 1959 2747 
L 3244 4666 
L 3922 4666 
L 2272 2222 
L 2272 0 
L 1638 0 
L 1638 2222 
L -13 4666 
z
" transform="scale(0.015625)"/>
       <path id="DejaVuSans-65" d="M 3597 1894 
L 3597 1613 
L 953 1613 
Q 991 1019 1311 708 
Q 1631 397 2203 397 
Q 2534 397 2845 478 
Q 3156 559 3463 722 
L 3463 178 
Q 3153 47 2828 -22 
Q 2503 -91 2169 -91 
Q 1331 -91 842 396 
Q 353 884 353 1716 
Q 353 2575 817 3079 
Q 1281 3584 2069 3584 
Q 2775 3584 3186 3129 
Q 3597 2675 3597 1894 
z
M 3022 2063 
Q 3016 2534 2758 2815 
Q 2500 3097 2075 3097 
Q 1594 3097 1305 2825 
Q 1016 2553 972 2059 
L 3022 2063 
z
" transform="scale(0.015625)"/>
       <path id="DejaVuSans-61" d="M 2194 1759 
Q 1497 1759 1228 1600 
Q 959 1441 959 1056 
Q 959 750 1161 570 
Q 1363 391 1709 391 
Q 2188 391 2477 730 
Q 2766 1069 2766 1631 
L 2766 1759 
L 2194 1759 
z
M 3341 1997 
L 3341 0 
L 2766 0 
L 2766 531 
Q 2569 213 2275 61 
Q 1981 -91 1556 -91 
Q 1019 -91 701 211 
Q 384 513 384 1019 
Q 384 1609 779 1909 
Q 1175 2209 1959 2209 
L 2766 2209 
L 2766 2266 
Q 2766 2663 2505 2880 
Q 2244 3097 1772 3097 
Q 1472 3097 1187 3025 
Q 903 2953 641 2809 
L 641 3341 
Q 956 3463 1253 3523 
Q 1550 3584 1831 3584 
Q 2591 3584 2966 3190 
Q 3341 2797 3341 1997 
z
" transform="scale(0.015625)"/>
       <path id="DejaVuSans-72" d="M 2631 2963 
Q 2534 3019 2420 3045 
Q 2306 3072 2169 3072 
Q 1681 3072 1420 2755 
Q 1159 2438 1159 1844 
L 1159 0 
L 581 0 
L 581 3500 
L 1159 3500 
L 1159 2956 
Q 1341 3275 1631 3429 
Q 1922 3584 2338 3584 
Q 2397 3584 2469 3576 
Q 2541 3569 2628 3553 
L 2631 2963 
z
" transform="scale(0.015625)"/>
      </defs>
      <use xlink:href="#DejaVuSans-59"/>
      <use xlink:href="#DejaVuSans-65" x="47.833984"/>
      <use xlink:href="#DejaVuSans-61" x="109.357422"/>
      <use xlink:href="#DejaVuSans-72" x="170.636719"/>
     </g>
    </g>
   </g>
   <g id="matplotlib.axis_2">
    <g id="ytick_1">
     <g id="line2d_9">
      <defs>
       <path id="m4b5cb05ab6" d="M 0 0 
L -3.5 0 
" style="stroke: #000000; stroke-width: 0.8"/>
      </defs>
      <g>
       <use xlink:href="#m4b5cb05ab6" x="81" y="301.625838" style="stroke: #000000; stroke-width: 0.8"/>
      </g>
     </g>
     <g id="text_10">
      <!-- 10 -->
      <g transform="translate(58.73 306.184901) scale(0.12 -0.12)">
       <use xlink:href="#DejaVuSans-31"/>
       <use xlink:href="#DejaVuSans-30" x="63.623047"/>
      </g>
     </g>
    </g>
    <g id="ytick_2">
     <g id="line2d_10">
      <g>
       <use xlink:href="#m4b5cb05ab6" x="81" y="248.404182" style="stroke: #000000; stroke-width: 0.8"/>
      </g>
     </g>
     <g id="text_11">
      <!-- 20 -->
      <g transform="translate(58.73 252.963244) scale(0.12 -0.12)">
       <use xlink:href="#DejaVuSans-32"/>
       <use xlink:href="#DejaVuSans-30" x="63.623047"/>
      </g>
     </g>
    </g>
    <g id="ytick_3">
     <g id="line2d_11">
      <g>
       <use xlink:href="#m4b5cb05ab6" x="81" y="195.182526" style="stroke: #000000; stroke-width: 0.8"/>
      </g>
     </g>
     <g id="text_12">
      <!-- 30 -->
      <g transform="translate(58.73 199.741588) scale(0.12 -0.12)">
       <defs>
        <path id="DejaVuSans-33" d="M 2597 2516 
Q 3050 2419 3304 2112 
Q 3559 1806 3559 1356 
Q 3559 666 3084 287 
Q 2609 -91 1734 -91 
Q 1441 -91 1130 -33 
Q 819 25 488 141 
L 488 750 
Q 750 597 1062 519 
Q 1375 441 1716 441 
Q 2309 441 2620 675 
Q 2931 909 2931 1356 
Q 2931 1769 2642 2001 
Q 2353 2234 1838 2234 
L 1294 2234 
L 1294 2753 
L 1863 2753 
Q 2328 2753 2575 2939 
Q 2822 3125 2822 3475 
Q 2822 3834 2567 4026 
Q 2313 4219 1838 4219 
Q 1578 4219 1281 4162 
Q 984 4106 628 3988 
L 628 4550 
Q 988 4650 1302 4700 
Q 1616 4750 1894 4750 
Q 2613 4750 3031 4423 
Q 3450 4097 3450 3541 
Q 3450 3153 3228 2886 
Q 3006 2619 2597 2516 
z
" transform="scale(0.015625)"/>
       </defs>
       <use xlink:href="#DejaVuSans-33"/>
       <use xlink:href="#DejaVuSans-30" x="63.623047"/>
      </g>
     </g>
    </g>
    <g id="ytick_4">
     <g id="line2d_12">
      <g>
       <use xlink:href="#m4b5cb05ab6" x="81" y="141.960869" style="stroke: #000000; stroke-width: 0.8"/>
      </g>
     </g>
     <g id="text_13">
      <!-- 40 -->
      <g transform="translate(58.73 146.519932) scale(0.12 -0.12)">
       <use xlink:href="#DejaVuSans-34"/>
       <use xlink:href="#DejaVuSans-30" x="63.623047"/>
      </g>
     </g>
    </g>
    <g id="ytick_5">
     <g id="line2d_13">
      <g>
       <use xlink:href="#m4b5cb05ab6" x="81" y="88.739213" style="stroke: #000000; stroke-width: 0.8"/>
      </g>
     </g>
     <g id="text_14">
      <!-- 50 -->
      <g transform="translate(58.73 93.298275) scale(0.12 -0.12)">
       <defs>
        <path id="DejaVuSans-35" d="M 691 4666 
L 3169 4666 
L 3169 4134 
L 1269 4134 
L 1269 2991 
Q 1406 3038 1543 3061 
Q 1681 3084 1819 3084 
Q 2600 3084 3056 2656 
Q 3513 2228 3513 1497 
Q 3513 744 3044 326 
Q 2575 -91 1722 -91 
Q 1428 -91 1123 -41 
Q 819 9 494 109 
L 494 744 
Q 775 591 1075 516 
Q 1375 441 1709 441 
Q 2250 441 2565 725 
Q 2881 1009 2881 1497 
Q 2881 1984 2565 2268 
Q 2250 2553 1709 2553 
Q 1456 2553 1204 2497 
Q 953 2441 691 2322 
L 691 4666 
z
" transform="scale(0.015625)"/>
       </defs>
       <use xlink:href="#DejaVuSans-35"/>
       <use xlink:href="#DejaVuSans-30" x="63.623047"/>
      </g>
     </g>
    </g>
    <g id="text_15">
     <!-- Total coral cover (%) -->
     <g transform="translate(51.610469 258.769922) rotate(-90) scale(0.15 -0.15)">
      <defs>
       <path id="DejaVuSans-54" d="M -19 4666 
L 3928 4666 
L 3928 4134 
L 2272 4134 
L 2272 0 
L 1638 0 
L 1638 4134 
L -19 4134 
L -19 4666 
z
" transform="scale(0.015625)"/>
       <path id="DejaVuSans-6f" d="M 1959 3097 
Q 1497 3097 1228 2736 
Q 959 2375 959 1747 
Q 959 1119 1226 758 
Q 1494 397 1959 397 
Q 2419 397 2687 759 
Q 2956 1122 2956 1747 
Q 2956 2369 2687 2733 
Q 2419 3097 1959 3097 
z
M 1959 3584 
Q 2709 3584 3137 3096 
Q 3566 2609 3566 1747 
Q 3566 888 3137 398 
Q 2709 -91 1959 -91 
Q 1206 -91 779 398 
Q 353 888 353 1747 
Q 353 2609 779 3096 
Q 1206 3584 1959 3584 
z
" transform="scale(0.015625)"/>
       <path id="DejaVuSans-74" d="M 1172 4494 
L 1172 3500 
L 2356 3500 
L 2356 3053 
L 1172 3053 
L 1172 1153 
Q 1172 725 1289 603 
Q 1406 481 1766 481 
L 2356 481 
L 2356 0 
L 1766 0 
Q 1100 0 847 248 
Q 594 497 594 1153 
L 594 3053 
L 172 3053 
L 172 3500 
L 594 3500 
L 594 4494 
L 1172 4494 
z
" transform="scale(0.015625)"/>
       <path id="DejaVuSans-6c" d="M 603 4863 
L 1178 4863 
L 1178 0 
L 603 0 
L 603 4863 
z
" transform="scale(0.015625)"/>
       <path id="DejaVuSans-20" transform="scale(0.015625)"/>
       <path id="DejaVuSans-63" d="M 3122 3366 
L 3122 2828 
Q 2878 2963 2633 3030 
Q 2388 3097 2138 3097 
Q 1578 3097 1268 2742 
Q 959 2388 959 1747 
Q 959 1106 1268 751 
Q 1578 397 2138 397 
Q 2388 397 2633 464 
Q 2878 531 3122 666 
L 3122 134 
Q 2881 22 2623 -34 
Q 2366 -91 2075 -91 
Q 1284 -91 818 406 
Q 353 903 353 1747 
Q 353 2603 823 3093 
Q 1294 3584 2113 3584 
Q 2378 3584 2631 3529 
Q 2884 3475 3122 3366 
z
" transform="scale(0.015625)"/>
       <path id="DejaVuSans-76" d="M 191 3500 
L 800 3500 
L 1894 563 
L 2988 3500 
L 3597 3500 
L 2284 0 
L 1503 0 
L 191 3500 
z
" transform="scale(0.015625)"/>
       <path id="DejaVuSans-28" d="M 1984 4856 
Q 1566 4138 1362 3434 
Q 1159 2731 1159 2009 
Q 1159 1288 1364 580 
Q 1569 -128 1984 -844 
L 1484 -844 
Q 1016 -109 783 600 
Q 550 1309 550 2009 
Q 550 2706 781 3412 
Q 1013 4119 1484 4856 
L 1984 4856 
z
" transform="scale(0.015625)"/>
       <path id="DejaVuSans-25" d="M 4653 2053 
Q 4381 2053 4226 1822 
Q 4072 1591 4072 1178 
Q 4072 772 4226 539 
Q 4381 306 4653 306 
Q 4919 306 5073 539 
Q 5228 772 5228 1178 
Q 5228 1588 5073 1820 
Q 4919 2053 4653 2053 
z
M 4653 2450 
Q 5147 2450 5437 2106 
Q 5728 1763 5728 1178 
Q 5728 594 5436 251 
Q 5144 -91 4653 -91 
Q 4153 -91 3862 251 
Q 3572 594 3572 1178 
Q 3572 1766 3864 2108 
Q 4156 2450 4653 2450 
z
M 1428 4353 
Q 1159 4353 1004 4120 
Q 850 3888 850 3481 
Q 850 3069 1003 2837 
Q 1156 2606 1428 2606 
Q 1700 2606 1854 2837 
Q 2009 3069 2009 3481 
Q 2009 3884 1853 4118 
Q 1697 4353 1428 4353 
z
M 4250 4750 
L 4750 4750 
L 1831 -91 
L 1331 -91 
L 4250 4750 
z
M 1428 4750 
Q 1922 4750 2215 4408 
Q 2509 4066 2509 3481 
Q 2509 2891 2217 2550 
Q 1925 2209 1428 2209 
Q 931 2209 642 2551 
Q 353 2894 353 3481 
Q 353 4063 643 4406 
Q 934 4750 1428 4750 
z
" transform="scale(0.015625)"/>
       <path id="DejaVuSans-29" d="M 513 4856 
L 1013 4856 
Q 1481 4119 1714 3412 
Q 1947 2706 1947 2009 
Q 1947 1309 1714 600 
Q 1481 -109 1013 -844 
L 513 -844 
Q 928 -128 1133 580 
Q 1338 1288 1338 2009 
Q 1338 2731 1133 3434 
Q 928 4138 513 4856 
z
" transform="scale(0.015625)"/>
      </defs>
      <use xlink:href="#DejaVuSans-54"/>
      <use xlink:href="#DejaVuSans-6f" x="44.083984"/>
      <use xlink:href="#DejaVuSans-74" x="105.265625"/>
      <use xlink:href="#DejaVuSans-61" x="144.474609"/>
      <use xlink:href="#DejaVuSans-6c" x="205.753906"/>
      <use xlink:href="#DejaVuSans-20" x="233.537109"/>
      <use xlink:href="#DejaVuSans-63" x="265.324219"/>
      <use xlink:href="#DejaVuSans-6f" x="320.304688"/>
      <use xlink:href="#DejaVuSans-72" x="381.486328"/>
      <use xlink:href="#DejaVuSans-61" x="422.599609"/>
      <use xlink:href="#DejaVuSans-6c" x="483.878906"/>
      <use xlink:href="#DejaVuSans-20" x="511.662109"/>
      <use xlink:href="#DejaVuSans-63" x="543.449219"/>
      <use xlink:href="#DejaVuSans-6f" x="598.429688"/>
      <use xlink:href="#DejaVuSans-76" x="659.611328"/>
      <use xlink:href="#DejaVuSans-65" x="718.791016"/>
      <use xlink:href="#DejaVuSans-72" x="780.314453"/>
      <use xlink:href="#DejaVuSans-20" x="821.427734"/>
      <use xlink:href="#DejaVuSans-28" x="853.214844"/>
      <use xlink:href="#DejaVuSans-25" x="892.228516"/>
      <use xlink:href="#DejaVuSans-29" x="987.248047"/>
     </g>
    </g>
   </g>
   <g id="line2d_14">
    <path d="M 103.827273 224.986653 
L 136.437662 307.595806 
L 169.048052 301.748047 
L 201.658442 292.452457 
L 234.268831 278.407895 
L 266.879221 259.602409 
L 299.48961 235.911813 
L 332.1 208.440832 
L 364.71039 177.989736 
L 397.320779 146.778239 
L 429.931169 116.365556 
L 462.541558 91.666712 
L 495.151948 71.591096 
L 527.762338 56.168324 
L 560.372727 159.372506 
" clip-path="url(#p005ca2604f)" style="fill: none; stroke-dasharray: 3.7,1.6; stroke-dashoffset: 0; stroke: #1f77b4; stroke-opacity: 0.6"/>
   </g>
   <g id="line2d_15">
    <path d="M 103.827273 224.986653 
L 136.437662 307.160091 
L 169.048052 301.040643 
L 201.658442 292.453765 
L 234.268831 281.086751 
L 266.879221 264.784776 
L 299.48961 243.091649 
L 332.1 215.787789 
L 364.71039 186.354966 
L 397.320779 154.978987 
L 429.931169 125.369265 
L 462.541558 98.929521 
L 495.151948 76.6097 
L 527.762338 58.985636 
L 560.372727 161.287059 
" clip-path="url(#p005ca2604f)" style="fill: none; stroke-dasharray: 3.7,1.6; stroke-dashoffset: 0; stroke: #ff7f0e; stroke-opacity: 0.6"/>
   </g>
   <g id="line2d_16">
    <path d="M 103.827273 224.986653 
L 136.437662 305.559771 
L 169.048052 299.763653 
L 201.658442 291.243308 
L 234.268831 280.044507 
L 266.879221 263.693495 
L 299.48961 243.450383 
L 332.1 217.61728 
L 364.71039 189.202094 
L 397.320779 159.630404 
L 429.931169 130.445909 
L 462.541558 103.802627 
L 495.151948 81.21672 
L 527.762338 64.108418 
L 560.372727 163.029605 
" clip-path="url(#p005ca2604f)" style="fill: none; stroke-dasharray: 3.7,1.6; stroke-dashoffset: 0; stroke: #2ca02c; stroke-opacity: 0.6"/>
   </g>
   <g id="line2d_17">
    <path d="M 103.827273 224.986653 
L 136.437662 307.24552 
L 169.048052 301.189795 
L 201.658442 292.957069 
L 234.268831 282.551597 
L 266.879221 266.465174 
L 299.48961 246.088029 
L 332.1 220.432685 
L 364.71039 191.879953 
L 397.320779 161.509526 
L 429.931169 131.65205 
L 462.541558 103.636765 
L 495.151948 81.018293 
L 527.762338 63.436868 
L 560.372727 163.299059 
" clip-path="url(#p005ca2604f)" style="fill: none; stroke-dasharray: 3.7,1.6; stroke-dashoffset: 0; stroke: #d62728; stroke-opacity: 0.6"/>
   </g>
   <g id="line2d_18">
    <path d="M 103.827273 224.986653 
L 136.437662 305.950707 
L 169.048052 300.860439 
L 201.658442 291.346341 
L 234.268831 278.793655 
L 266.879221 262.457744 
L 299.48961 241.459623 
L 332.1 216.240521 
L 364.71039 187.795927 
L 397.320779 158.433308 
L 429.931169 128.53381 
L 462.541558 102.166744 
L 495.151948 80.261791 
L 527.762338 63.471737 
L 560.372727 161.860976 
" clip-path="url(#p005ca2604f)" style="fill: none; stroke-dasharray: 3.7,1.6; stroke-dashoffset: 0; stroke: #9467bd; stroke-opacity: 0.6"/>
   </g>
   <g id="line2d_19">
    <path d="M 103.827273 224.986653 
L 136.437662 306.68498 
L 169.048052 300.861865 
L 201.658442 292.675618 
L 234.268831 280.968819 
L 266.879221 265.101094 
L 299.48961 243.307872 
L 332.1 217.205184 
L 364.71039 187.779981 
L 397.320779 156.400475 
L 429.931169 127.180027 
L 462.541558 100.619878 
L 495.151948 79.117766 
L 527.762338 61.765324 
L 560.372727 161.544287 
" clip-path="url(#p005ca2604f)" style="fill: none; stroke-dasharray: 3.7,1.6; stroke-dashoffset: 0; stroke: #8c564b; stroke-opacity: 0.6"/>
   </g>
   <g id="line2d_20">
    <path d="M 103.827273 224.986653 
L 136.437662 306.671761 
L 169.048052 300.498416 
L 201.658442 290.908846 
L 234.268831 278.164483 
L 266.879221 261.285322 
L 299.48961 238.877759 
L 332.1 211.262436 
L 364.71039 181.585797 
L 397.320779 151.554003 
L 429.931169 122.11232 
L 462.541558 95.907039 
L 495.151948 76.13713 
L 527.762338 60.326342 
L 560.372727 160.434858 
" clip-path="url(#p005ca2604f)" style="fill: none; stroke-dasharray: 3.7,1.6; stroke-dashoffset: 0; stroke: #e377c2; stroke-opacity: 0.6"/>
   </g>
   <g id="line2d_21">
    <path d="M 103.827273 224.986653 
L 136.437662 306.451996 
L 169.048052 301.608008 
L 201.658442 293.304541 
L 234.268831 281.43224 
L 266.879221 265.931151 
L 299.48961 245.169667 
L 332.1 219.683082 
L 364.71039 190.742514 
L 397.320779 159.486266 
L 429.931169 128.655731 
L 462.541558 101.959879 
L 495.151948 79.405067 
L 527.762338 62.771611 
L 560.372727 162.707116 
" clip-path="url(#p005ca2604f)" style="fill: none; stroke-dasharray: 3.7,1.6; stroke-dashoffset: 0; stroke: #7f7f7f; stroke-opacity: 0.6"/>
   </g>
   <g id="line2d_22">
    <path d="M 103.827273 224.986653 
L 136.437662 307.082709 
L 169.048052 302.253601 
L 201.658442 294.431588 
L 234.268831 283.006741 
L 266.879221 266.103239 
L 299.48961 243.693183 
L 332.1 217.734177 
L 364.71039 187.757219 
L 397.320779 155.963375 
L 429.931169 125.115443 
L 462.541558 99.30995 
L 495.151948 77.583073 
L 527.762338 60.945177 
L 560.372727 162.010986 
" clip-path="url(#p005ca2604f)" style="fill: none; stroke-dasharray: 3.7,1.6; stroke-dashoffset: 0; stroke: #bcbd22; stroke-opacity: 0.6"/>
   </g>
   <g id="line2d_23">
    <path d="M 103.827273 224.986653 
L 136.437662 306.56517 
L 169.048052 301.116721 
L 201.658442 293.164374 
L 234.268831 281.580034 
L 266.879221 266.692745 
L 299.48961 247.118828 
L 332.1 223.270641 
L 364.71039 194.509657 
L 397.320779 164.680535 
L 429.931169 134.89521 
L 462.541558 107.305328 
L 495.151948 84.522367 
L 527.762338 66.049634 
L 560.372727 164.340302 
" clip-path="url(#p005ca2604f)" style="fill: none; stroke-dasharray: 3.7,1.6; stroke-dashoffset: 0; stroke: #17becf; stroke-opacity: 0.6"/>
   </g>
   <g id="line2d_24">
    <path d="M 103.827273 224.986653 
L 136.437662 306.328059 
L 169.048052 300.902088 
L 201.658442 292.240316 
L 234.268831 280.934535 
L 266.879221 265.608309 
L 299.48961 245.635235 
L 332.1 220.255223 
L 364.71039 191.200226 
L 397.320779 159.862174 
L 429.931169 129.150231 
L 462.541558 102.711566 
L 495.151948 81.207522 
L 527.762338 63.626182 
L 560.372727 163.188289 
" clip-path="url(#p005ca2604f)" style="fill: none; stroke-dasharray: 3.7,1.6; stroke-dashoffset: 0; stroke: #1f77b4; stroke-opacity: 0.6"/>
   </g>
   <g id="line2d_25">
    <path d="M 103.827273 224.986653 
L 136.437662 307.093734 
L 169.048052 301.629364 
L 201.658442 292.920346 
L 234.268831 281.444217 
L 266.879221 266.076073 
L 299.48961 245.85524 
L 332.1 220.572156 
L 364.71039 191.56727 
L 397.320779 159.693677 
L 429.931169 129.349365 
L 462.541558 102.416464 
L 495.151948 80.299074 
L 527.762338 62.785488 
L 560.372727 162.978661 
" clip-path="url(#p005ca2604f)" style="fill: none; stroke-dasharray: 3.7,1.6; stroke-dashoffset: 0; stroke: #ff7f0e; stroke-opacity: 0.6"/>
   </g>
   <g id="line2d_26">
    <path d="M 103.827273 224.986653 
L 136.437662 305.274589 
L 169.048052 298.855148 
L 201.658442 289.468746 
L 234.268831 277.690584 
L 266.879221 261.638443 
L 299.48961 239.666263 
L 332.1 214.952747 
L 364.71039 186.714447 
L 397.320779 155.979711 
L 429.931169 126.777893 
L 462.541558 101.467198 
L 495.151948 79.9212 
L 527.762338 63.236738 
L 560.372727 161.88313 
" clip-path="url(#p005ca2604f)" style="fill: none; stroke-dasharray: 3.7,1.6; stroke-dashoffset: 0; stroke: #2ca02c; stroke-opacity: 0.6"/>
   </g>
   <g id="line2d_27">
    <path d="M 103.827273 224.986653 
L 136.437662 307.098332 
L 169.048052 301.110466 
L 201.658442 292.831845 
L 234.268831 281.128421 
L 266.879221 264.03431 
L 299.48961 242.421615 
L 332.1 214.740025 
L 364.71039 185.854855 
L 397.320779 155.155476 
L 429.931169 126.077095 
L 462.541558 100.370158 
L 495.151948 78.600203 
L 527.762338 61.682377 
L 560.372727 161.696753 
" clip-path="url(#p005ca2604f)" style="fill: none; stroke-dasharray: 3.7,1.6; stroke-dashoffset: 0; stroke: #d62728; stroke-opacity: 0.6"/>
   </g>
   <g id="line2d_28">
    <path d="M 103.827273 224.986653 
L 136.437662 307.247192 
L 169.048052 302.116139 
L 201.658442 294.332201 
L 234.268831 283.67834 
L 266.879221 268.029976 
L 299.48961 246.910809 
L 332.1 221.727463 
L 364.71039 192.256325 
L 397.320779 162.047029 
L 429.931169 132.019715 
L 462.541558 105.480884 
L 495.151948 81.836691 
L 527.762338 63.985221 
L 560.372727 163.718524 
" clip-path="url(#p005ca2604f)" style="fill: none; stroke-dasharray: 3.7,1.6; stroke-dashoffset: 0; stroke: #9467bd; stroke-opacity: 0.6"/>
   </g>
   <g id="line2d_29">
    <path d="M 103.827273 224.986653 
L 136.437662 305.920611 
L 169.048052 300.571817 
L 201.658442 290.288167 
L 234.268831 277.657515 
L 266.879221 259.907643 
L 299.48961 236.899603 
L 332.1 208.902717 
L 364.71039 178.616999 
L 397.320779 147.271583 
L 429.931169 118.746371 
L 462.541558 93.55937 
L 495.151948 73.388224 
L 527.762338 57.611187 
L 560.372727 160.079295 
" clip-path="url(#p005ca2604f)" style="fill: none; stroke-dasharray: 3.7,1.6; stroke-dashoffset: 0; stroke: #8c564b; stroke-opacity: 0.6"/>
   </g>
   <g id="line2d_30">
    <path d="M 103.827273 224.986653 
L 136.437662 307.5318 
L 169.048052 301.161242 
L 201.658442 292.425812 
L 234.268831 280.285017 
L 266.879221 263.628671 
L 299.48961 241.261464 
L 332.1 215.509248 
L 364.71039 186.11016 
L 397.320779 155.378269 
L 429.931169 125.586462 
L 462.541558 99.696317 
L 495.151948 77.789993 
L 527.762338 60.766098 
L 560.372727 162.025198 
" clip-path="url(#p005ca2604f)" style="fill: none; stroke-dasharray: 3.7,1.6; stroke-dashoffset: 0; stroke: #e377c2; stroke-opacity: 0.6"/>
   </g>
   <g id="line2d_31">
    <path d="M 103.827273 224.986653 
L 136.437662 306.651801 
L 169.048052 300.230639 
L 201.658442 290.081347 
L 234.268831 276.710627 
L 266.879221 259.528647 
L 299.48961 236.958853 
L 332.1 210.588511 
L 364.71039 181.356981 
L 397.320779 152.142889 
L 429.931169 123.264681 
L 462.541558 98.299638 
L 495.151948 77.530503 
L 527.762338 60.735338 
L 560.372727 160.517309 
" clip-path="url(#p005ca2604f)" style="fill: none; stroke-dasharray: 3.7,1.6; stroke-dashoffset: 0; stroke: #7f7f7f; stroke-opacity: 0.6"/>
   </g>
   <g id="line2d_32">
    <path d="M 103.827273 224.986653 
L 136.437662 307.020583 
L 169.048052 301.190534 
L 201.658442 292.810316 
L 234.268831 281.614406 
L 266.879221 264.349329 
L 299.48961 243.479474 
L 332.1 219.172986 
L 364.71039 190.83552 
L 397.320779 159.320059 
L 429.931169 129.470518 
L 462.541558 102.713147 
L 495.151948 80.76232 
L 527.762338 63.870913 
L 560.372727 162.279762 
" clip-path="url(#p005ca2604f)" style="fill: none; stroke-dasharray: 3.7,1.6; stroke-dashoffset: 0; stroke: #bcbd22; stroke-opacity: 0.6"/>
   </g>
   <g id="line2d_33">
    <path d="M 103.827273 224.986653 
L 136.437662 307.526261 
L 169.048052 302.623048 
L 201.658442 294.202679 
L 234.268831 282.684979 
L 266.879221 267.118654 
L 299.48961 246.295941 
L 332.1 220.585221 
L 364.71039 190.581033 
L 397.320779 158.912483 
L 429.931169 127.697172 
L 462.541558 101.486622 
L 495.151948 79.820323 
L 527.762338 62.365004 
L 560.372727 163.24242 
" clip-path="url(#p005ca2604f)" style="fill: none; stroke-dasharray: 3.7,1.6; stroke-dashoffset: 0; stroke: #17becf; stroke-opacity: 0.6"/>
   </g>
   <g id="line2d_34">
    <path d="M 103.827273 224.986653 
L 136.437662 307.253044 
L 169.048052 300.781666 
L 201.658442 291.744314 
L 234.268831 279.894904 
L 266.879221 263.438733 
L 299.48961 242.675334 
L 332.1 216.326607 
L 364.71039 186.641602 
L 397.320779 156.639049 
L 429.931169 127.23644 
L 462.541558 101.004207 
L 495.151948 79.535466 
L 527.762338 62.422131 
L 560.372727 162.592584 
" clip-path="url(#p005ca2604f)" style="fill: none; stroke-dasharray: 3.7,1.6; stroke-dashoffset: 0; stroke: #1f77b4; stroke-opacity: 0.6"/>
   </g>
   <g id="line2d_35">
    <path d="M 103.827273 224.986653 
L 136.437662 307.535039 
L 169.048052 302.704609 
L 201.658442 294.320735 
L 234.268831 282.659563 
L 266.879221 266.182259 
L 299.48961 244.062262 
L 332.1 217.866968 
L 364.71039 187.824605 
L 397.320779 155.257286 
L 429.931169 124.39849 
L 462.541558 97.732065 
L 495.151948 75.197485 
L 527.762338 58.508884 
L 560.372727 161.995991 
" clip-path="url(#p005ca2604f)" style="fill: none; stroke-dasharray: 3.7,1.6; stroke-dashoffset: 0; stroke: #ff7f0e; stroke-opacity: 0.6"/>
   </g>
   <g id="line2d_36">
    <path d="M 103.827273 224.986653 
L 136.437662 306.339972 
L 169.048052 300.678453 
L 201.658442 290.723978 
L 234.268831 279.713813 
L 266.879221 263.201425 
L 299.48961 241.707995 
L 332.1 217.071347 
L 364.71039 188.82069 
L 397.320779 158.641523 
L 429.931169 131.050351 
L 462.541558 104.79917 
L 495.151948 82.495368 
L 527.762338 65.864293 
L 560.372727 162.289689 
" clip-path="url(#p005ca2604f)" style="fill: none; stroke-dasharray: 3.7,1.6; stroke-dashoffset: 0; stroke: #2ca02c; stroke-opacity: 0.6"/>
   </g>
   <g id="line2d_37">
    <path d="M 103.827273 224.986653 
L 136.437662 306.120991 
L 169.048052 300.495374 
L 201.658442 291.145922 
L 234.268831 278.322809 
L 266.879221 261.352794 
L 299.48961 239.225432 
L 332.1 212.153936 
L 364.71039 182.074163 
L 397.320779 152.687286 
L 429.931169 123.759504 
L 462.541558 98.864875 
L 495.151948 78.301508 
L 527.762338 61.804903 
L 560.372727 161.085269 
" clip-path="url(#p005ca2604f)" style="fill: none; stroke-dasharray: 3.7,1.6; stroke-dashoffset: 0; stroke: #d62728; stroke-opacity: 0.6"/>
   </g>
   <g id="line2d_38">
    <path d="M 103.827273 224.986653 
L 136.437662 307.262815 
L 169.048052 300.92253 
L 201.658442 292.176584 
L 234.268831 280.966987 
L 266.879221 265.148374 
L 299.48961 244.116054 
L 332.1 218.629368 
L 364.71039 188.604366 
L 397.320779 157.905435 
L 429.931169 127.019658 
L 462.541558 100.09351 
L 495.151948 77.505926 
L 527.762338 60.720042 
L 560.372727 162.243343 
" clip-path="url(#p005ca2604f)" style="fill: none; stroke-dasharray: 3.7,1.6; stroke-dashoffset: 0; stroke: #9467bd; stroke-opacity: 0.6"/>
   </g>
   <g id="line2d_39">
    <path d="M 103.827273 224.986653 
L 136.437662 307.265271 
L 169.048052 302.247909 
L 201.658442 294.203721 
L 234.268831 282.599988 
L 266.879221 265.752481 
L 299.48961 243.284026 
L 332.1 216.799094 
L 364.71039 185.44931 
L 397.320779 153.029856 
L 429.931169 122.959734 
L 462.541558 96.765203 
L 495.151948 74.716659 
L 527.762338 58.710457 
L 560.372727 161.83506 
" clip-path="url(#p005ca2604f)" style="fill: none; stroke-dasharray: 3.7,1.6; stroke-dashoffset: 0; stroke: #8c564b; stroke-opacity: 0.6"/>
   </g>
   <g id="line2d_40">
    <path d="M 103.827273 224.986653 
L 136.437662 307.478034 
L 169.048052 301.563583 
L 201.658442 292.745574 
L 234.268831 281.463498 
L 266.879221 264.744152 
L 299.48961 243.496653 
L 332.1 217.380514 
L 364.71039 189.640063 
L 397.320779 159.636804 
L 429.931169 130.62915 
L 462.541558 104.431661 
L 495.151948 82.591912 
L 527.762338 65.253262 
L 560.372727 163.823338 
" clip-path="url(#p005ca2604f)" style="fill: none; stroke-dasharray: 3.7,1.6; stroke-dashoffset: 0; stroke: #e377c2; stroke-opacity: 0.6"/>
   </g>
   <g id="line2d_41">
    <path d="M 103.827273 224.986653 
L 136.437662 306.233538 
L 169.048052 300.215179 
L 201.658442 291.46533 
L 234.268831 279.921361 
L 266.879221 263.590106 
L 299.48961 241.297068 
L 332.1 215.456529 
L 364.71039 186.20743 
L 397.320779 155.555083 
L 429.931169 126.92992 
L 462.541558 102.088185 
L 495.151948 80.382553 
L 527.762338 63.712295 
L 560.372727 161.527985 
" clip-path="url(#p005ca2604f)" style="fill: none; stroke-dasharray: 3.7,1.6; stroke-dashoffset: 0; stroke: #7f7f7f; stroke-opacity: 0.6"/>
   </g>
   <g id="line2d_42">
    <path d="M 103.827273 224.986653 
L 136.437662 306.913313 
L 169.048052 302.140159 
L 201.658442 293.235514 
L 234.268831 281.344021 
L 266.879221 265.259505 
L 299.48961 242.900473 
L 332.1 217.756509 
L 364.71039 189.693364 
L 397.320779 159.610516 
L 429.931169 129.455559 
L 462.541558 103.232971 
L 495.151948 81.748642 
L 527.762338 64.523559 
L 560.372727 162.990887 
" clip-path="url(#p005ca2604f)" style="fill: none; stroke-dasharray: 3.7,1.6; stroke-dashoffset: 0; stroke: #bcbd22; stroke-opacity: 0.6"/>
   </g>
   <g id="line2d_43">
    <path d="M 103.827273 224.986653 
L 136.437662 305.666309 
L 169.048052 300.22792 
L 201.658442 291.09045 
L 234.268831 279.525669 
L 266.879221 263.099627 
L 299.48961 240.835974 
L 332.1 214.449781 
L 364.71039 185.489325 
L 397.320779 154.535711 
L 429.931169 125.090221 
L 462.541558 99.978938 
L 495.151948 78.373175 
L 527.762338 61.735437 
L 560.372727 161.186425 
" clip-path="url(#p005ca2604f)" style="fill: none; stroke-dasharray: 3.7,1.6; stroke-dashoffset: 0; stroke: #17becf; stroke-opacity: 0.6"/>
   </g>
   <g id="line2d_44">
    <path d="M 103.827273 224.986653 
L 136.437662 306.992211 
L 169.048052 302.093948 
L 201.658442 293.861044 
L 234.268831 281.868024 
L 266.879221 265.206114 
L 299.48961 244.722639 
L 332.1 219.844363 
L 364.71039 190.98557 
L 397.320779 159.926719 
L 429.931169 130.317229 
L 462.541558 103.692325 
L 495.151948 81.38248 
L 527.762338 63.880897 
L 560.372727 163.465999 
" clip-path="url(#p005ca2604f)" style="fill: none; stroke-dasharray: 3.7,1.6; stroke-dashoffset: 0; stroke: #1f77b4; stroke-opacity: 0.6"/>
   </g>
   <g id="line2d_45">
    <path d="M 103.827273 224.986653 
L 136.437662 307.740696 
L 169.048052 302.466031 
L 201.658442 293.644944 
L 234.268831 282.207114 
L 266.879221 265.115465 
L 299.48961 242.951836 
L 332.1 217.297999 
L 364.71039 186.546768 
L 397.320779 155.804748 
L 429.931169 126.086439 
L 462.541558 99.688773 
L 495.151948 77.700335 
L 527.762338 60.147995 
L 560.372727 161.594447 
" clip-path="url(#p005ca2604f)" style="fill: none; stroke-dasharray: 3.7,1.6; stroke-dashoffset: 0; stroke: #ff7f0e; stroke-opacity: 0.6"/>
   </g>
   <g id="line2d_46">
    <path d="M 103.827273 224.986653 
L 136.437662 306.886979 
L 169.048052 301.555956 
L 201.658442 292.984651 
L 234.268831 281.379399 
L 266.879221 265.838908 
L 299.48961 244.996848 
L 332.1 219.408619 
L 364.71039 190.104449 
L 397.320779 158.669794 
L 429.931169 128.260595 
L 462.541558 101.625805 
L 495.151948 80.058082 
L 527.762338 62.681351 
L 560.372727 163.018371 
" clip-path="url(#p005ca2604f)" style="fill: none; stroke-dasharray: 3.7,1.6; stroke-dashoffset: 0; stroke: #2ca02c; stroke-opacity: 0.6"/>
   </g>
   <g id="line2d_47">
    <path d="M 103.827273 224.986653 
L 136.437662 307.042424 
L 169.048052 301.23003 
L 201.658442 292.13538 
L 234.268831 279.523659 
L 266.879221 263.531784 
L 299.48961 242.650003 
L 332.1 216.753035 
L 364.71039 188.047973 
L 397.320779 157.529479 
L 429.931169 128.064659 
L 462.541558 101.508801 
L 495.151948 79.471357 
L 527.762338 62.808009 
L 560.372727 162.947258 
" clip-path="url(#p005ca2604f)" style="fill: none; stroke-dasharray: 3.7,1.6; stroke-dashoffset: 0; stroke: #d62728; stroke-opacity: 0.6"/>
   </g>
   <g id="line2d_48">
    <path d="M 103.827273 224.986653 
L 136.437662 307.500502 
L 169.048052 301.665831 
L 201.658442 292.197898 
L 234.268831 280.209317 
L 266.879221 263.854524 
L 299.48961 244.031308 
L 332.1 219.240732 
L 364.71039 191.908286 
L 397.320779 161.550898 
L 429.931169 131.630324 
L 462.541558 104.825558 
L 495.151948 81.760325 
L 527.762338 64.539034 
L 560.372727 162.899084 
" clip-path="url(#p005ca2604f)" style="fill: none; stroke-dasharray: 3.7,1.6; stroke-dashoffset: 0; stroke: #9467bd; stroke-opacity: 0.6"/>
   </g>
   <g id="line2d_49">
    <path d="M 103.827273 224.986653 
L 136.437662 306.951561 
L 169.048052 301.637762 
L 201.658442 293.14428 
L 234.268831 281.383777 
L 266.879221 264.523394 
L 299.48961 242.018669 
L 332.1 214.587406 
L 364.71039 185.33861 
L 397.320779 154.776462 
L 429.931169 125.32489 
L 462.541558 99.427394 
L 495.151948 77.031967 
L 527.762338 60.443884 
L 560.372727 161.88684 
" clip-path="url(#p005ca2604f)" style="fill: none; stroke-dasharray: 3.7,1.6; stroke-dashoffset: 0; stroke: #8c564b; stroke-opacity: 0.6"/>
   </g>
   <g id="line2d_50">
    <path d="M 103.827273 224.986653 
L 136.437662 307.8 
L 169.048052 302.774605 
L 201.658442 294.875682 
L 234.268831 282.886332 
L 266.879221 267.752543 
L 299.48961 248.409798 
L 332.1 222.59026 
L 364.71039 193.973374 
L 397.320779 164.565019 
L 429.931169 133.856587 
L 462.541558 106.780196 
L 495.151948 83.137317 
L 527.762338 65.533755 
L 560.372727 163.898578 
" clip-path="url(#p005ca2604f)" style="fill: none; stroke-dasharray: 3.7,1.6; stroke-dashoffset: 0; stroke: #e377c2; stroke-opacity: 0.6"/>
   </g>
   <g id="line2d_51">
    <path d="M 103.827273 224.986653 
L 136.437662 307.252522 
L 169.048052 302.162275 
L 201.658442 294.110695 
L 234.268831 281.470354 
L 266.879221 264.328906 
L 299.48961 242.078969 
L 332.1 214.499726 
L 364.71039 184.630511 
L 397.320779 153.578945 
L 429.931169 123.416513 
L 462.541558 97.196023 
L 495.151948 75.760188 
L 527.762338 59.35056 
L 560.372727 161.360889 
" clip-path="url(#p005ca2604f)" style="fill: none; stroke-dasharray: 3.7,1.6; stroke-dashoffset: 0; stroke: #7f7f7f; stroke-opacity: 0.6"/>
   </g>
   <g id="line2d_52">
    <path d="M 103.827273 224.986653 
L 136.437662 306.697415 
L 169.048052 301.379139 
L 201.658442 292.294594 
L 234.268831 278.809725 
L 266.879221 261.209454 
L 299.48961 239.530856 
L 332.1 213.180083 
L 364.71039 183.506012 
L 397.320779 153.965087 
L 429.931169 124.707032 
L 462.541558 98.798569 
L 495.151948 77.570242 
L 527.762338 60.896062 
L 560.372727 160.889278 
" clip-path="url(#p005ca2604f)" style="fill: none; stroke-dasharray: 3.7,1.6; stroke-dashoffset: 0; stroke: #bcbd22; stroke-opacity: 0.6"/>
   </g>
   <g id="line2d_53">
    <path d="M 103.827273 224.986653 
L 136.437662 306.824593 
L 169.048052 300.384365 
L 201.658442 290.774081 
L 234.268831 278.066859 
L 266.879221 261.277916 
L 299.48961 239.620463 
L 332.1 214.284712 
L 364.71039 184.01607 
L 397.320779 152.759904 
L 429.931169 123.209816 
L 462.541558 97.280772 
L 495.151948 75.81463 
L 527.762338 59.183354 
L 560.372727 160.57771 
" clip-path="url(#p005ca2604f)" style="fill: none; stroke-dasharray: 3.7,1.6; stroke-dashoffset: 0; stroke: #17becf; stroke-opacity: 0.6"/>
   </g>
   <g id="line2d_54">
    <path d="M 103.827273 224.986653 
L 136.437662 307.649833 
L 169.048052 302.436534 
L 201.658442 294.226528 
L 234.268831 282.520198 
L 266.879221 266.608818 
L 299.48961 245.141505 
L 332.1 218.307549 
L 364.71039 187.939857 
L 397.320779 156.579075 
L 429.931169 126.16396 
L 462.541558 98.860476 
L 495.151948 76.640475 
L 527.762338 59.922954 
L 560.372727 162.447328 
" clip-path="url(#p005ca2604f)" style="fill: none; stroke-dasharray: 3.7,1.6; stroke-dashoffset: 0; stroke: #1f77b4; stroke-opacity: 0.6"/>
   </g>
   <g id="line2d_55">
    <path d="M 103.827273 224.986653 
L 136.437662 307.592462 
L 169.048052 302.413507 
L 201.658442 293.565536 
L 234.268831 281.280607 
L 266.879221 263.682606 
L 299.48961 241.518991 
L 332.1 215.53493 
L 364.71039 183.844645 
L 397.320779 151.710019 
L 429.931169 122.248926 
L 462.541558 96.341105 
L 495.151948 74.739627 
L 527.762338 58.477101 
L 560.372727 160.54636 
" clip-path="url(#p005ca2604f)" style="fill: none; stroke-dasharray: 3.7,1.6; stroke-dashoffset: 0; stroke: #ff7f0e; stroke-opacity: 0.6"/>
   </g>
   <g id="line2d_56">
    <path d="M 103.827273 224.986653 
L 136.437662 307.08459 
L 169.048052 302.357631 
L 201.658442 294.239742 
L 234.268831 282.72237 
L 266.879221 266.911153 
L 299.48961 245.530173 
L 332.1 219.254084 
L 364.71039 189.769581 
L 397.320779 159.457955 
L 429.931169 129.826373 
L 462.541558 102.497939 
L 495.151948 80.767167 
L 527.762338 62.88677 
L 560.372727 162.458771 
" clip-path="url(#p005ca2604f)" style="fill: none; stroke-dasharray: 3.7,1.6; stroke-dashoffset: 0; stroke: #2ca02c; stroke-opacity: 0.6"/>
   </g>
   <g id="line2d_57">
    <path d="M 103.827273 224.986653 
L 136.437662 307.127644 
L 169.048052 301.89254 
L 201.658442 292.520744 
L 234.268831 281.013441 
L 266.879221 264.108499 
L 299.48961 242.856351 
L 332.1 216.574152 
L 364.71039 187.595384 
L 397.320779 157.091375 
L 429.931169 128.232398 
L 462.541558 102.156452 
L 495.151948 80.719222 
L 527.762338 63.392874 
L 560.372727 162.664585 
" clip-path="url(#p005ca2604f)" style="fill: none; stroke-dasharray: 3.7,1.6; stroke-dashoffset: 0; stroke: #d62728; stroke-opacity: 0.6"/>
   </g>
   <g id="line2d_58">
    <path d="M 103.827273 224.986653 
L 136.437662 306.401366 
L 169.048052 301.242635 
L 201.658442 293.239363 
L 234.268831 280.678598 
L 266.879221 265.328339 
L 299.48961 245.199156 
L 332.1 220.369926 
L 364.71039 192.221228 
L 397.320779 161.870458 
L 429.931169 130.767243 
L 462.541558 104.17874 
L 495.151948 82.0199 
L 527.762338 64.272084 
L 560.372727 163.496513 
" clip-path="url(#p005ca2604f)" style="fill: none; stroke-dasharray: 3.7,1.6; stroke-dashoffset: 0; stroke: #9467bd; stroke-opacity: 0.6"/>
   </g>
   <g id="line2d_59">
    <path d="M 103.827273 224.986653 
L 136.437662 306.268023 
L 169.048052 301.444409 
L 201.658442 293.304182 
L 234.268831 282.47648 
L 266.879221 266.480397 
L 299.48961 246.502583 
L 332.1 221.993449 
L 364.71039 193.134741 
L 397.320779 163.10647 
L 429.931169 132.119847 
L 462.541558 105.808605 
L 495.151948 82.805335 
L 527.762338 64.928654 
L 560.372727 164.277863 
" clip-path="url(#p005ca2604f)" style="fill: none; stroke-dasharray: 3.7,1.6; stroke-dashoffset: 0; stroke: #8c564b; stroke-opacity: 0.6"/>
   </g>
   <g id="line2d_60">
    <path d="M 103.827273 224.986653 
L 136.437662 307.245938 
L 169.048052 301.257041 
L 201.658442 292.376076 
L 234.268831 279.961513 
L 266.879221 262.319368 
L 299.48961 241.406545 
L 332.1 215.695375 
L 364.71039 185.870823 
L 397.320779 155.145099 
L 429.931169 126.135419 
L 462.541558 99.927727 
L 495.151948 77.615516 
L 527.762338 60.742108 
L 560.372727 161.681131 
" clip-path="url(#p005ca2604f)" style="fill: none; stroke-dasharray: 3.7,1.6; stroke-dashoffset: 0; stroke: #e377c2; stroke-opacity: 0.6"/>
   </g>
   <g id="line2d_61">
    <path d="M 103.827273 224.986653 
L 136.437662 306.993256 
L 169.048052 302.083028 
L 201.658442 293.444195 
L 234.268831 280.940728 
L 266.879221 264.805552 
L 299.48961 243.786989 
L 332.1 218.117815 
L 364.71039 188.87612 
L 397.320779 158.242754 
L 429.931169 128.82932 
L 462.541558 102.129542 
L 495.151948 80.12316 
L 527.762338 62.493483 
L 560.372727 163.06921 
" clip-path="url(#p005ca2604f)" style="fill: none; stroke-dasharray: 3.7,1.6; stroke-dashoffset: 0; stroke: #7f7f7f; stroke-opacity: 0.6"/>
   </g>
   <g id="line2d_62">
    <path d="M 103.827273 224.986653 
L 136.437662 307.142692 
L 169.048052 301.829836 
L 201.658442 293.593927 
L 234.268831 280.457298 
L 266.879221 263.520082 
L 299.48961 241.440726 
L 332.1 216.275315 
L 364.71039 186.190075 
L 397.320779 156.132722 
L 429.931169 126.28741 
L 462.541558 100.193118 
L 495.151948 78.388626 
L 527.762338 61.595273 
L 560.372727 162.204939 
" clip-path="url(#p005ca2604f)" style="fill: none; stroke-dasharray: 3.7,1.6; stroke-dashoffset: 0; stroke: #bcbd22; stroke-opacity: 0.6"/>
   </g>
   <g id="line2d_63">
    <path d="M 103.827273 224.986653 
L 136.437662 305.991724 
L 169.048052 300.043653 
L 201.658442 290.664465 
L 234.268831 278.242497 
L 266.879221 259.995486 
L 299.48961 235.66057 
L 332.1 208.683691 
L 364.71039 178.487902 
L 397.320779 146.784234 
L 429.931169 117.338214 
L 462.541558 92.027069 
L 495.151948 72.111563 
L 527.762338 55.820493 
L 560.372727 158.334764 
" clip-path="url(#p005ca2604f)" style="fill: none; stroke-dasharray: 3.7,1.6; stroke-dashoffset: 0; stroke: #17becf; stroke-opacity: 0.6"/>
   </g>
   <g id="line2d_64">
    <path d="M 103.827273 224.986653 
L 136.437662 306.645844 
L 169.048052 301.529163 
L 201.658442 293.040747 
L 234.268831 282.087359 
L 266.879221 266.452223 
L 299.48961 246.279444 
L 332.1 221.098692 
L 364.71039 191.643891 
L 397.320779 160.072497 
L 429.931169 129.793366 
L 462.541558 102.437007 
L 495.151948 79.146831 
L 527.762338 61.22698 
L 560.372727 162.881423 
" clip-path="url(#p005ca2604f)" style="fill: none; stroke-dasharray: 3.7,1.6; stroke-dashoffset: 0; stroke: #1f77b4; stroke-opacity: 0.6"/>
   </g>
   <g id="line2d_65">
    <path d="M 103.827273 224.986653 
L 136.437662 306.872715 
L 169.048052 301.885345 
L 201.658442 293.112508 
L 234.268831 281.231688 
L 266.879221 264.838144 
L 299.48961 242.33959 
L 332.1 215.522799 
L 364.71039 186.305574 
L 397.320779 156.170709 
L 429.931169 126.539255 
L 462.541558 100.992614 
L 495.151948 79.404413 
L 527.762338 62.125363 
L 560.372727 162.07656 
" clip-path="url(#p005ca2604f)" style="fill: none; stroke-dasharray: 3.7,1.6; stroke-dashoffset: 0; stroke: #ff7f0e; stroke-opacity: 0.6"/>
   </g>
   <g id="line2d_66">
    <path d="M 103.827273 224.986653 
L 136.437662 306.306375 
L 169.048052 300.529549 
L 201.658442 290.792014 
L 234.268831 279.198459 
L 266.879221 262.346824 
L 299.48961 240.48285 
L 332.1 214.979738 
L 364.71039 186.542693 
L 397.320779 157.134963 
L 429.931169 127.627827 
L 462.541558 101.083307 
L 495.151948 79.617411 
L 527.762338 63.208811 
L 560.372727 161.968716 
" clip-path="url(#p005ca2604f)" style="fill: none; stroke-dasharray: 3.7,1.6; stroke-dashoffset: 0; stroke: #2ca02c; stroke-opacity: 0.6"/>
   </g>
   <g id="line2d_67">
    <path d="M 103.827273 224.986653 
L 136.437662 306.297022 
L 169.048052 301.15227 
L 201.658442 292.059563 
L 234.268831 280.718305 
L 266.879221 265.061195 
L 299.48961 245.026066 
L 332.1 220.292889 
L 364.71039 191.411724 
L 397.320779 160.99923 
L 429.931169 130.544522 
L 462.541558 103.476638 
L 495.151948 81.628292 
L 527.762338 64.012936 
L 560.372727 163.46208 
" clip-path="url(#p005ca2604f)" style="fill: none; stroke-dasharray: 3.7,1.6; stroke-dashoffset: 0; stroke: #d62728; stroke-opacity: 0.6"/>
   </g>
   <g id="line2d_68">
    <path d="M 103.827273 224.986653 
L 136.437662 306.567156 
L 169.048052 300.735816 
L 201.658442 291.547352 
L 234.268831 278.34198 
L 266.879221 260.845563 
L 299.48961 238.030775 
L 332.1 211.248764 
L 364.71039 181.966044 
L 397.320779 150.58971 
L 429.931169 120.674273 
L 462.541558 94.794163 
L 495.151948 74.781374 
L 527.762338 58.097201 
L 560.372727 159.141246 
" clip-path="url(#p005ca2604f)" style="fill: none; stroke-dasharray: 3.7,1.6; stroke-dashoffset: 0; stroke: #9467bd; stroke-opacity: 0.6"/>
   </g>
   <g id="line2d_69">
    <path d="M 103.827273 224.986653 
L 136.437662 307.519312 
L 169.048052 302.377788 
L 201.658442 294.135359 
L 234.268831 283.979385 
L 266.879221 269.078454 
L 299.48961 248.386706 
L 332.1 223.787315 
L 364.71039 195.20249 
L 397.320779 164.60007 
L 429.931169 133.477345 
L 462.541558 106.405445 
L 495.151948 82.90614 
L 527.762338 65.071289 
L 560.372727 163.990173 
" clip-path="url(#p005ca2604f)" style="fill: none; stroke-dasharray: 3.7,1.6; stroke-dashoffset: 0; stroke: #8c564b; stroke-opacity: 0.6"/>
   </g>
   <g id="line2d_70">
    <path d="M 103.827273 224.986653 
L 136.437662 306.817016 
L 169.048052 301.330932 
L 201.658442 292.344524 
L 234.268831 280.143319 
L 266.879221 263.656065 
L 299.48961 240.972697 
L 332.1 215.481667 
L 364.71039 186.414014 
L 397.320779 155.905156 
L 429.931169 125.477189 
L 462.541558 99.776782 
L 495.151948 78.578061 
L 527.762338 61.832205 
L 560.372727 162.01386 
" clip-path="url(#p005ca2604f)" style="fill: none; stroke-dasharray: 3.7,1.6; stroke-dashoffset: 0; stroke: #e377c2; stroke-opacity: 0.6"/>
   </g>
   <g id="line2d_71">
    <path d="M 103.827273 224.986653 
L 136.437662 306.932646 
L 169.048052 301.533946 
L 201.658442 293.575071 
L 234.268831 282.085604 
L 266.879221 265.664205 
L 299.48961 245.758171 
L 332.1 220.130531 
L 364.71039 191.882358 
L 397.320779 161.892065 
L 429.931169 132.322526 
L 462.541558 105.273173 
L 495.151948 82.383014 
L 527.762338 64.492179 
L 560.372727 164.340929 
" clip-path="url(#p005ca2604f)" style="fill: none; stroke-dasharray: 3.7,1.6; stroke-dashoffset: 0; stroke: #7f7f7f; stroke-opacity: 0.6"/>
   </g>
   <g id="line2d_72">
    <path d="M 103.827273 224.986653 
L 136.437662 306.682211 
L 169.048052 301.588823 
L 201.658442 293.466869 
L 234.268831 282.114133 
L 266.879221 265.119442 
L 299.48961 244.450264 
L 332.1 217.269884 
L 364.71039 187.421028 
L 397.320779 155.915939 
L 429.931169 125.88269 
L 462.541558 99.530046 
L 495.151948 77.604225 
L 527.762338 60.038616 
L 560.372727 161.462829 
" clip-path="url(#p005ca2604f)" style="fill: none; stroke-dasharray: 3.7,1.6; stroke-dashoffset: 0; stroke: #bcbd22; stroke-opacity: 0.6"/>
   </g>
   <g id="line2d_73">
    <path d="M 103.827273 224.986653 
L 136.437662 306.902393 
L 169.048052 302.238026 
L 201.658442 294.156239 
L 234.268831 283.565041 
L 266.879221 267.648421 
L 299.48961 247.623299 
L 332.1 221.60573 
L 364.71039 192.723382 
L 397.320779 161.472935 
L 429.931169 130.956114 
L 462.541558 103.752247 
L 495.151948 81.529301 
L 527.762338 63.949185 
L 560.372727 163.902027 
" clip-path="url(#p005ca2604f)" style="fill: none; stroke-dasharray: 3.7,1.6; stroke-dashoffset: 0; stroke: #17becf; stroke-opacity: 0.6"/>
   </g>
   <g id="line2d_74">
    <path d="M 103.827273 224.986653 
L 136.437662 307.331159 
L 169.048052 302.353437 
L 201.658442 293.888388 
L 234.268831 283.203838 
L 266.879221 268.134362 
L 299.48961 246.327349 
L 332.1 220.228081 
L 364.71039 189.7622 
L 397.320779 159.083002 
L 429.931169 128.804133 
L 462.541558 101.830242 
L 495.151948 79.609928 
L 527.762338 62.762536 
L 560.372727 163.239389 
" clip-path="url(#p005ca2604f)" style="fill: none; stroke-dasharray: 3.7,1.6; stroke-dashoffset: 0; stroke: #1f77b4; stroke-opacity: 0.6"/>
   </g>
   <g id="line2d_75">
    <path d="M 103.827273 224.986653 
L 136.437662 307.511474 
L 169.048052 302.192928 
L 201.658442 294.01044 
L 234.268831 282.654955 
L 266.879221 266.1237 
L 299.48961 244.439035 
L 332.1 218.60239 
L 364.71039 189.308002 
L 397.320779 158.300981 
L 429.931169 128.025353 
L 462.541558 101.411777 
L 495.151948 79.689158 
L 527.762338 62.706053 
L 560.372727 163.089693 
" clip-path="url(#p005ca2604f)" style="fill: none; stroke-dasharray: 3.7,1.6; stroke-dashoffset: 0; stroke: #ff7f0e; stroke-opacity: 0.6"/>
   </g>
   <g id="line2d_76">
    <path d="M 103.827273 224.986653 
L 136.437662 307.220388 
L 169.048052 301.965456 
L 201.658442 293.048523 
L 234.268831 281.678091 
L 266.879221 264.595576 
L 299.48961 243.356105 
L 332.1 218.22962 
L 364.71039 187.252927 
L 397.320779 155.681798 
L 429.931169 125.509413 
L 462.541558 99.578035 
L 495.151948 78.340464 
L 527.762338 60.989006 
L 560.372727 161.62679 
" clip-path="url(#p005ca2604f)" style="fill: none; stroke-dasharray: 3.7,1.6; stroke-dashoffset: 0; stroke: #2ca02c; stroke-opacity: 0.6"/>
   </g>
   <g id="line2d_77">
    <path d="M 103.827273 224.986653 
L 136.437662 307.025338 
L 169.048052 301.393107 
L 201.658442 293.104522 
L 234.268831 280.260483 
L 266.879221 263.063031 
L 299.48961 240.216493 
L 332.1 212.613719 
L 364.71039 182.605165 
L 397.320779 151.451813 
L 429.931169 122.570936 
L 462.541558 96.17396 
L 495.151948 75.094356 
L 527.762338 59.166821 
L 560.372727 159.431653 
" clip-path="url(#p005ca2604f)" style="fill: none; stroke-dasharray: 3.7,1.6; stroke-dashoffset: 0; stroke: #d62728; stroke-opacity: 0.6"/>
   </g>
   <g id="line2d_78">
    <path d="M 103.827273 224.986653 
L 136.437662 306.193775 
L 169.048052 300.780693 
L 201.658442 291.848416 
L 234.268831 279.422423 
L 266.879221 263.234839 
L 299.48961 242.363371 
L 332.1 215.989778 
L 364.71039 187.466916 
L 397.320779 158.13615 
L 429.931169 128.564595 
L 462.541558 102.880403 
L 495.151948 81.744727 
L 527.762338 64.294286 
L 560.372727 162.503654 
" clip-path="url(#p005ca2604f)" style="fill: none; stroke-dasharray: 3.7,1.6; stroke-dashoffset: 0; stroke: #9467bd; stroke-opacity: 0.6"/>
   </g>
   <g id="line2d_79">
    <path d="M 103.827273 224.986653 
L 136.437662 306.437105 
L 169.048052 301.374714 
L 201.658442 291.910324 
L 234.268831 279.146696 
L 266.879221 262.423979 
L 299.48961 240.379105 
L 332.1 213.79468 
L 364.71039 183.33418 
L 397.320779 152.764859 
L 429.931169 122.899922 
L 462.541558 97.388196 
L 495.151948 76.62254 
L 527.762338 60.559779 
L 560.372727 161.175035 
" clip-path="url(#p005ca2604f)" style="fill: none; stroke-dasharray: 3.7,1.6; stroke-dashoffset: 0; stroke: #8c564b; stroke-opacity: 0.6"/>
   </g>
   <g id="line2d_80">
    <path d="M 103.827273 224.986653 
L 136.437662 306.664498 
L 169.048052 300.8614 
L 201.658442 291.955878 
L 234.268831 281.027272 
L 266.879221 265.104056 
L 299.48961 244.267181 
L 332.1 218.98058 
L 364.71039 190.545201 
L 397.320779 160.203662 
L 429.931169 130.741983 
L 462.541558 104.141466 
L 495.151948 81.09544 
L 527.762338 64.058706 
L 560.372727 163.027724 
" clip-path="url(#p005ca2604f)" style="fill: none; stroke-dasharray: 3.7,1.6; stroke-dashoffset: 0; stroke: #e377c2; stroke-opacity: 0.6"/>
   </g>
   <g id="line2d_81">
    <path d="M 103.827273 224.986653 
L 136.437662 307.42662 
L 169.048052 302.295153 
L 201.658442 293.489498 
L 234.268831 279.700322 
L 266.879221 261.755695 
L 299.48961 239.18913 
L 332.1 211.967656 
L 364.71039 181.544825 
L 397.320779 150.339209 
L 429.931169 120.142434 
L 462.541558 94.617549 
L 495.151948 73.780975 
L 527.762338 58.158405 
L 560.372727 160.481935 
" clip-path="url(#p005ca2604f)" style="fill: none; stroke-dasharray: 3.7,1.6; stroke-dashoffset: 0; stroke: #7f7f7f; stroke-opacity: 0.6"/>
   </g>
   <g id="line2d_82">
    <path d="M 103.827273 224.986653 
L 136.437662 307.070169 
L 169.048052 302.076685 
L 201.658442 294.147147 
L 234.268831 282.942222 
L 266.879221 265.370996 
L 299.48961 244.615846 
L 332.1 218.865737 
L 364.71039 188.178812 
L 397.320779 156.518103 
L 429.931169 126.607993 
L 462.541558 99.609753 
L 495.151948 77.711719 
L 527.762338 60.142109 
L 560.372727 162.363832 
" clip-path="url(#p005ca2604f)" style="fill: none; stroke-dasharray: 3.7,1.6; stroke-dashoffset: 0; stroke: #bcbd22; stroke-opacity: 0.6"/>
   </g>
   <g id="line2d_83">
    <path d="M 103.827273 224.986653 
L 136.437662 306.528543 
L 169.048052 301.04102 
L 201.658442 292.019451 
L 234.268831 279.607908 
L 266.879221 261.493987 
L 299.48961 240.355415 
L 332.1 213.832657 
L 364.71039 185.204356 
L 397.320779 154.539233 
L 429.931169 125.406619 
L 462.541558 99.265687 
L 495.151948 77.109972 
L 527.762338 59.752128 
L 560.372727 160.977477 
" clip-path="url(#p005ca2604f)" style="fill: none; stroke-dasharray: 3.7,1.6; stroke-dashoffset: 0; stroke: #17becf; stroke-opacity: 0.6"/>
   </g>
   <g id="line2d_84">
    <path d="M 103.827273 224.986653 
L 136.437662 306.538731 
L 169.048052 299.916279 
L 201.658442 290.713973 
L 234.268831 278.524176 
L 266.879221 262.168469 
L 299.48961 241.140104 
L 332.1 215.909825 
L 364.71039 186.778706 
L 397.320779 156.236567 
L 429.931169 127.286772 
L 462.541558 100.885638 
L 495.151948 79.210194 
L 527.762338 61.808266 
L 560.372727 161.151313 
" clip-path="url(#p005ca2604f)" style="fill: none; stroke-dasharray: 3.7,1.6; stroke-dashoffset: 0; stroke: #1f77b4; stroke-opacity: 0.6"/>
   </g>
   <g id="line2d_85">
    <path d="M 103.827273 224.986653 
L 136.437662 306.413853 
L 169.048052 299.557144 
L 201.658442 291.008505 
L 234.268831 278.343515 
L 266.879221 260.805397 
L 299.48961 240.195773 
L 332.1 214.783743 
L 364.71039 185.983258 
L 397.320779 156.367489 
L 429.931169 125.914152 
L 462.541558 99.138933 
L 495.151948 78.085592 
L 527.762338 60.928082 
L 560.372727 160.258043 
" clip-path="url(#p005ca2604f)" style="fill: none; stroke-dasharray: 3.7,1.6; stroke-dashoffset: 0; stroke: #ff7f0e; stroke-opacity: 0.6"/>
   </g>
   <g id="line2d_86">
    <path d="M 103.827273 224.986653 
L 136.437662 306.357998 
L 169.048052 301.004595 
L 201.658442 292.133787 
L 234.268831 279.556893 
L 266.879221 263.502696 
L 299.48961 243.076668 
L 332.1 218.904263 
L 364.71039 190.93097 
L 397.320779 161.355473 
L 429.931169 131.825079 
L 462.541558 105.038932 
L 495.151948 82.12542 
L 527.762338 64.515613 
L 560.372727 163.551219 
" clip-path="url(#p005ca2604f)" style="fill: none; stroke-dasharray: 3.7,1.6; stroke-dashoffset: 0; stroke: #2ca02c; stroke-opacity: 0.6"/>
   </g>
   <g id="line2d_87">
    <path d="M 103.827273 224.986653 
L 136.437662 307.515915 
L 169.048052 301.978231 
L 201.658442 294.066573 
L 234.268831 281.337889 
L 266.879221 265.140438 
L 299.48961 243.286367 
L 332.1 218.179478 
L 364.71039 189.542245 
L 397.320779 159.645501 
L 429.931169 130.46271 
L 462.541558 104.134707 
L 495.151948 81.624616 
L 527.762338 64.299649 
L 560.372727 163.485697 
" clip-path="url(#p005ca2604f)" style="fill: none; stroke-dasharray: 3.7,1.6; stroke-dashoffset: 0; stroke: #d62728; stroke-opacity: 0.6"/>
   </g>
   <g id="line2d_88">
    <path d="M 103.827273 224.986653 
L 136.437662 306.776157 
L 169.048052 300.84674 
L 201.658442 291.60551 
L 234.268831 279.487331 
L 266.879221 263.654756 
L 299.48961 243.094194 
L 332.1 219.199966 
L 364.71039 190.793284 
L 397.320779 160.839424 
L 429.931169 131.815502 
L 462.541558 104.99262 
L 495.151948 82.767194 
L 527.762338 64.728508 
L 560.372727 163.032635 
" clip-path="url(#p005ca2604f)" style="fill: none; stroke-dasharray: 3.7,1.6; stroke-dashoffset: 0; stroke: #9467bd; stroke-opacity: 0.6"/>
   </g>
   <g id="line2d_89">
    <path d="M 103.827273 224.986653 
L 136.437662 307.381632 
L 169.048052 300.989536 
L 201.658442 291.414768 
L 234.268831 278.061695 
L 266.879221 259.03483 
L 299.48961 235.996742 
L 332.1 207.890458 
L 364.71039 178.002825 
L 397.320779 146.791421 
L 429.931169 117.977111 
L 462.541558 92.854849 
L 495.151948 72.688224 
L 527.762338 57.194443 
L 560.372727 159.685537 
" clip-path="url(#p005ca2604f)" style="fill: none; stroke-dasharray: 3.7,1.6; stroke-dashoffset: 0; stroke: #8c564b; stroke-opacity: 0.6"/>
   </g>
   <g id="line2d_90">
    <path d="M 103.827273 224.986653 
L 136.437662 307.405824 
L 169.048052 302.339884 
L 201.658442 293.626961 
L 234.268831 282.487608 
L 266.879221 266.044041 
L 299.48961 246.307195 
L 332.1 221.594842 
L 364.71039 193.342128 
L 397.320779 163.368724 
L 429.931169 133.363464 
L 462.541558 106.097689 
L 495.151948 82.64668 
L 527.762338 65.101553 
L 560.372727 163.800871 
" clip-path="url(#p005ca2604f)" style="fill: none; stroke-dasharray: 3.7,1.6; stroke-dashoffset: 0; stroke: #e377c2; stroke-opacity: 0.6"/>
   </g>
   <g id="line2d_91">
    <path d="M 103.827273 224.986653 
L 136.437662 307.683273 
L 169.048052 302.263525 
L 201.658442 293.564616 
L 234.268831 281.595438 
L 266.879221 264.506251 
L 299.48961 243.626361 
L 332.1 217.359027 
L 364.71039 186.713643 
L 397.320779 156.007685 
L 429.931169 125.308069 
L 462.541558 98.110706 
L 495.151948 77.240443 
L 527.762338 60.577341 
L 560.372727 162.031207 
" clip-path="url(#p005ca2604f)" style="fill: none; stroke-dasharray: 3.7,1.6; stroke-dashoffset: 0; stroke: #7f7f7f; stroke-opacity: 0.6"/>
   </g>
   <g id="line2d_92">
    <path d="M 103.827273 224.986653 
L 136.437662 307.716713 
L 169.048052 303.104483 
L 201.658442 295.273172 
L 234.268831 283.319167 
L 266.879221 267.167286 
L 299.48961 246.234762 
L 332.1 218.785259 
L 364.71039 188.892392 
L 397.320779 158.197815 
L 429.931169 127.281884 
L 462.541558 100.198194 
L 495.151948 78.031698 
L 527.762338 61.215669 
L 560.372727 162.350352 
" clip-path="url(#p005ca2604f)" style="fill: none; stroke-dasharray: 3.7,1.6; stroke-dashoffset: 0; stroke: #bcbd22; stroke-opacity: 0.6"/>
   </g>
   <g id="line2d_93">
    <path d="M 103.827273 224.986653 
L 136.437662 307.110924 
L 169.048052 301.941607 
L 201.658442 292.095677 
L 234.268831 280.053472 
L 266.879221 262.008284 
L 299.48961 239.879007 
L 332.1 213.465927 
L 364.71039 182.975357 
L 397.320779 152.974607 
L 429.931169 123.436612 
L 462.541558 97.478211 
L 495.151948 76.186135 
L 527.762338 59.588382 
L 560.372727 161.005221 
" clip-path="url(#p005ca2604f)" style="fill: none; stroke-dasharray: 3.7,1.6; stroke-dashoffset: 0; stroke: #17becf; stroke-opacity: 0.6"/>
   </g>
   <g id="line2d_94">
    <path d="M 103.827273 224.986653 
L 136.437662 306.036241 
L 169.048052 299.970647 
L 201.658442 289.707511 
L 234.268831 276.631579 
L 266.879221 260.458712 
L 299.48961 240.196186 
L 332.1 215.295616 
L 364.71039 188.060218 
L 397.320779 159.137461 
L 429.931169 129.527092 
L 462.541558 104.121156 
L 495.151948 81.451975 
L 527.762338 64.536584 
L 560.372727 161.937575 
" clip-path="url(#p005ca2604f)" style="fill: none; stroke-dasharray: 3.7,1.6; stroke-dashoffset: 0; stroke: #1f77b4; stroke-opacity: 0.6"/>
   </g>
   <g id="line2d_95">
    <path d="M 103.827273 224.986653 
L 136.437662 304.921116 
L 169.048052 299.319536 
L 201.658442 290.51298 
L 234.268831 278.594862 
L 266.879221 261.725469 
L 299.48961 240.877547 
L 332.1 215.730297 
L 364.71039 186.892938 
L 397.320779 156.719859 
L 429.931169 126.887806 
L 462.541558 101.352926 
L 495.151948 79.449761 
L 527.762338 62.512038 
L 560.372727 162.652828 
" clip-path="url(#p005ca2604f)" style="fill: none; stroke-dasharray: 3.7,1.6; stroke-dashoffset: 0; stroke: #ff7f0e; stroke-opacity: 0.6"/>
   </g>
   <g id="line2d_96">
    <path d="M 103.827273 224.986653 
L 136.437662 307.229898 
L 169.048052 301.643854 
L 201.658442 293.364373 
L 234.268831 281.653422 
L 266.879221 266.083319 
L 299.48961 245.666721 
L 332.1 221.035309 
L 364.71039 192.714522 
L 397.320779 161.762986 
L 429.931169 132.057368 
L 462.541558 105.493278 
L 495.151948 82.801125 
L 527.762338 64.56356 
L 560.372727 163.983276 
" clip-path="url(#p005ca2604f)" style="fill: none; stroke-dasharray: 3.7,1.6; stroke-dashoffset: 0; stroke: #2ca02c; stroke-opacity: 0.6"/>
   </g>
   <g id="line2d_97">
    <path d="M 103.827273 224.986653 
L 136.437662 307.589275 
L 169.048052 302.736676 
L 201.658442 294.198024 
L 234.268831 282.9655 
L 266.879221 266.559101 
L 299.48961 246.589336 
L 332.1 221.211676 
L 364.71039 192.039243 
L 397.320779 160.40623 
L 429.931169 129.675053 
L 462.541558 103.066501 
L 495.151948 80.635934 
L 527.762338 62.348438 
L 560.372727 163.103539 
" clip-path="url(#p005ca2604f)" style="fill: none; stroke-dasharray: 3.7,1.6; stroke-dashoffset: 0; stroke: #d62728; stroke-opacity: 0.6"/>
   </g>
   <g id="line2d_98">
    <path d="M 103.827273 224.986653 
L 136.437662 307.580497 
L 169.048052 301.781335 
L 201.658442 293.516893 
L 234.268831 282.674531 
L 266.879221 267.002441 
L 299.48961 245.632369 
L 332.1 218.802719 
L 364.71039 189.505921 
L 397.320779 158.029177 
L 429.931169 128.44896 
L 462.541558 101.913002 
L 495.151948 79.906898 
L 527.762338 62.738971 
L 560.372727 163.210913 
" clip-path="url(#p005ca2604f)" style="fill: none; stroke-dasharray: 3.7,1.6; stroke-dashoffset: 0; stroke: #9467bd; stroke-opacity: 0.6"/>
   </g>
   <g id="line2d_99">
    <path d="M 103.827273 224.986653 
L 136.437662 306.739686 
L 169.048052 300.841577 
L 201.658442 290.465318 
L 234.268831 276.49676 
L 266.879221 259.472094 
L 299.48961 237.550674 
L 332.1 211.946299 
L 364.71039 183.678845 
L 397.320779 153.331897 
L 429.931169 124.866639 
L 462.541558 99.438129 
L 495.151948 78.513635 
L 527.762338 61.989474 
L 560.372727 161.380587 
" clip-path="url(#p005ca2604f)" style="fill: none; stroke-dasharray: 3.7,1.6; stroke-dashoffset: 0; stroke: #8c564b; stroke-opacity: 0.6"/>
   </g>
   <g id="line2d_100">
    <path d="M 103.827273 224.986653 
L 136.437662 306.687958 
L 169.048052 301.287129 
L 201.658442 292.044244 
L 234.268831 279.738069 
L 266.879221 261.363523 
L 299.48961 239.272981 
L 332.1 211.580541 
L 364.71039 181.717164 
L 397.320779 149.666559 
L 429.931169 120.806999 
L 462.541558 95.448252 
L 495.151948 74.349429 
L 527.762338 58.370672 
L 560.372727 160.645322 
" clip-path="url(#p005ca2604f)" style="fill: none; stroke-dasharray: 3.7,1.6; stroke-dashoffset: 0; stroke: #e377c2; stroke-opacity: 0.6"/>
   </g>
   <g id="line2d_101">
    <path d="M 103.827273 224.986653 
L 136.437662 306.514226 
L 169.048052 301.237955 
L 201.658442 292.794837 
L 234.268831 281.625594 
L 266.879221 266.060643 
L 299.48961 246.277116 
L 332.1 220.784499 
L 364.71039 192.025189 
L 397.320779 161.579899 
L 429.931169 130.935618 
L 462.541558 103.784001 
L 495.151948 80.842196 
L 527.762338 62.765119 
L 560.372727 163.092566 
" clip-path="url(#p005ca2604f)" style="fill: none; stroke-dasharray: 3.7,1.6; stroke-dashoffset: 0; stroke: #7f7f7f; stroke-opacity: 0.6"/>
   </g>
   <g id="line2d_102">
    <path d="M 103.827273 224.986653 
L 136.437662 307.458492 
L 169.048052 302.195921 
L 201.658442 293.892318 
L 234.268831 282.502965 
L 266.879221 267.172946 
L 299.48961 245.512245 
L 332.1 220.147668 
L 364.71039 191.569777 
L 397.320779 159.498756 
L 429.931169 129.838851 
L 462.541558 102.912288 
L 495.151948 80.778242 
L 527.762338 63.218014 
L 560.372727 163.636909 
" clip-path="url(#p005ca2604f)" style="fill: none; stroke-dasharray: 3.7,1.6; stroke-dashoffset: 0; stroke: #bcbd22; stroke-opacity: 0.6"/>
   </g>
   <g id="line2d_103">
    <path d="M 103.827273 224.986653 
L 136.437662 307.173049 
L 169.048052 302.185913 
L 201.658442 294.08464 
L 234.268831 282.955543 
L 266.879221 266.732104 
L 299.48961 245.883038 
L 332.1 218.874715 
L 364.71039 189.504064 
L 397.320779 156.939159 
L 429.931169 126.908895 
L 462.541558 99.952117 
L 495.151948 77.304478 
L 527.762338 60.703672 
L 560.372727 162.486725 
" clip-path="url(#p005ca2604f)" style="fill: none; stroke-dasharray: 3.7,1.6; stroke-dashoffset: 0; stroke: #17becf; stroke-opacity: 0.6"/>
   </g>
   <g id="line2d_104">
    <path d="M 103.827273 224.986653 
L 136.437662 307.46936 
L 169.048052 302.001913 
L 201.658442 293.053605 
L 234.268831 281.66963 
L 266.879221 265.929836 
L 299.48961 244.517724 
L 332.1 219.478193 
L 364.71039 191.616785 
L 397.320779 161.643049 
L 429.931169 132.502462 
L 462.541558 105.028662 
L 495.151948 83.144653 
L 527.762338 65.308558 
L 560.372727 163.263738 
" clip-path="url(#p005ca2604f)" style="fill: none; stroke-dasharray: 3.7,1.6; stroke-dashoffset: 0; stroke: #1f77b4; stroke-opacity: 0.6"/>
   </g>
   <g id="line2d_105">
    <path d="M 103.827273 224.986653 
L 136.437662 306.327014 
L 169.048052 299.716425 
L 201.658442 289.643861 
L 234.268831 277.525539 
L 266.879221 260.519361 
L 299.48961 238.193545 
L 332.1 213.238832 
L 364.71039 185.320909 
L 397.320779 155.59906 
L 429.931169 126.654233 
L 462.541558 102.365239 
L 495.151948 82.172071 
L 527.762338 65.437613 
L 560.372727 162.18963 
" clip-path="url(#p005ca2604f)" style="fill: none; stroke-dasharray: 3.7,1.6; stroke-dashoffset: 0; stroke: #ff7f0e; stroke-opacity: 0.6"/>
   </g>
   <g id="line2d_106">
    <path d="M 103.827273 224.986653 
L 136.437662 306.49249 
L 169.048052 301.249247 
L 201.658442 292.317012 
L 234.268831 280.918288 
L 266.879221 263.141568 
L 299.48961 242.228542 
L 332.1 216.374587 
L 364.71039 187.9152 
L 397.320779 157.320034 
L 429.931169 127.354128 
L 462.541558 100.221515 
L 495.151948 79.426027 
L 527.762338 63.032694 
L 560.372727 161.780302 
" clip-path="url(#p005ca2604f)" style="fill: none; stroke-dasharray: 3.7,1.6; stroke-dashoffset: 0; stroke: #2ca02c; stroke-opacity: 0.6"/>
   </g>
   <g id="line2d_107">
    <path d="M 103.827273 224.986653 
L 136.437662 307.443026 
L 169.048052 301.908392 
L 201.658442 292.355894 
L 234.268831 279.679171 
L 266.879221 262.16767 
L 299.48961 240.820161 
L 332.1 214.872303 
L 364.71039 185.105704 
L 397.320779 153.038741 
L 429.931169 123.432191 
L 462.541558 97.948155 
L 495.151948 76.669356 
L 527.762338 60.391465 
L 560.372727 160.207204 
" clip-path="url(#p005ca2604f)" style="fill: none; stroke-dasharray: 3.7,1.6; stroke-dashoffset: 0; stroke: #d62728; stroke-opacity: 0.6"/>
   </g>
   <g id="line2d_108">
    <path d="M 103.827273 224.986653 
L 136.437662 307.10434 
L 169.048052 301.830473 
L 201.658442 292.656622 
L 234.268831 279.581665 
L 266.879221 261.273018 
L 299.48961 236.987705 
L 332.1 209.908271 
L 364.71039 178.640164 
L 397.320779 147.048564 
L 429.931169 117.707388 
L 462.541558 91.34181 
L 495.151948 71.178879 
L 527.762338 55.8 
L 560.372727 159.30573 
" clip-path="url(#p005ca2604f)" style="fill: none; stroke-dasharray: 3.7,1.6; stroke-dashoffset: 0; stroke: #9467bd; stroke-opacity: 0.6"/>
   </g>
   <g id="line2d_109">
    <path d="M 103.827273 224.986653 
L 136.437662 307.510377 
L 169.048052 302.854939 
L 201.658442 294.330255 
L 234.268831 283.010583 
L 266.879221 265.407529 
L 299.48961 242.578057 
L 332.1 216.065105 
L 364.71039 185.111938 
L 397.320779 152.853759 
L 429.931169 122.630425 
L 462.541558 95.992562 
L 495.151948 74.66589 
L 527.762338 58.285937 
L 560.372727 161.538331 
" clip-path="url(#p005ca2604f)" style="fill: none; stroke-dasharray: 3.7,1.6; stroke-dashoffset: 0; stroke: #8c564b; stroke-opacity: 0.6"/>
   </g>
   <g id="line2d_110">
    <path d="M 103.827273 224.986653 
L 136.437662 306.648927 
L 169.048052 300.672833 
L 201.658442 292.651029 
L 234.268831 279.515305 
L 266.879221 262.556711 
L 299.48961 240.200897 
L 332.1 214.199053 
L 364.71039 185.056405 
L 397.320779 154.343198 
L 429.931169 124.502535 
L 462.541558 98.518336 
L 495.151948 78.210594 
L 527.762338 61.921349 
L 560.372727 161.254194 
" clip-path="url(#p005ca2604f)" style="fill: none; stroke-dasharray: 3.7,1.6; stroke-dashoffset: 0; stroke: #e377c2; stroke-opacity: 0.6"/>
   </g>
   <g id="line2d_111">
    <path d="M 103.827273 224.986653 
L 136.437662 306.657131 
L 169.048052 300.833344 
L 201.658442 291.107136 
L 234.268831 278.058654 
L 266.879221 260.25782 
L 299.48961 238.580604 
L 332.1 212.815028 
L 364.71039 184.509661 
L 397.320779 154.797889 
L 429.931169 126.138794 
L 462.541558 99.873457 
L 495.151948 79.014682 
L 527.762338 61.985866 
L 560.372727 161.006528 
" clip-path="url(#p005ca2604f)" style="fill: none; stroke-dasharray: 3.7,1.6; stroke-dashoffset: 0; stroke: #7f7f7f; stroke-opacity: 0.6"/>
   </g>
   <g id="line2d_112">
    <path d="M 103.827273 224.986653 
L 136.437662 307.035109 
L 169.048052 301.44107 
L 201.658442 292.990389 
L 234.268831 280.712465 
L 266.879221 264.713069 
L 299.48961 244.083458 
L 332.1 218.878874 
L 364.71039 189.840862 
L 397.320779 159.064722 
L 429.931169 129.625399 
L 462.541558 102.582496 
L 495.151948 81.002455 
L 527.762338 63.275046 
L 560.372727 163.016647 
" clip-path="url(#p005ca2604f)" style="fill: none; stroke-dasharray: 3.7,1.6; stroke-dashoffset: 0; stroke: #bcbd22; stroke-opacity: 0.6"/>
   </g>
   <g id="line2d_113">
    <path d="M 103.827273 224.986653 
L 136.437662 307.596538 
L 169.048052 302.517536 
L 201.658442 294.240051 
L 234.268831 281.500101 
L 266.879221 264.982281 
L 299.48961 242.746017 
L 332.1 217.496034 
L 364.71039 188.924944 
L 397.320779 157.168375 
L 429.931169 126.322676 
L 462.541558 100.636057 
L 495.151948 79.4656 
L 527.762338 62.568173 
L 560.372727 162.219778 
" clip-path="url(#p005ca2604f)" style="fill: none; stroke-dasharray: 3.7,1.6; stroke-dashoffset: 0; stroke: #17becf; stroke-opacity: 0.6"/>
   </g>
   <g id="line2d_114">
    <path d="M 103.827273 224.986653 
L 136.437662 306.899838 
L 169.048052 301.410648 
L 201.658442 292.636732 
L 234.268831 280.682632 
L 266.879221 264.098284 
L 299.48961 242.693005 
L 332.1 216.803961 
L 364.71039 187.545456 
L 397.320779 156.814304 
L 429.931169 127.038804 
L 462.541558 100.727805 
L 495.151948 78.950537 
L 527.762338 61.943009 
L 560.372727 162.12208 
" clip-path="url(#p005ca2604f)" style="fill: none; stroke: #000000; stroke-width: 2.5; stroke-linecap: square"/>
   </g>
   <g id="patch_3">
    <path d="M 81 320.4 
L 81 43.2 
" style="fill: none; stroke: #000000; stroke-width: 0.8; stroke-linejoin: miter; stroke-linecap: square"/>
   </g>
   <g id="patch_4">
    <path d="M 583.2 320.4 
L 583.2 43.2 
" style="fill: none; stroke: #000000; stroke-width: 0.8; stroke-linejoin: miter; stroke-linecap: square"/>
   </g>
   <g id="patch_5">
    <path d="M 81 320.4 
L 583.2 320.4 
" style="fill: none; stroke: #000000; stroke-width: 0.8; stroke-linejoin: miter; stroke-linecap: square"/>
   </g>
   <g id="patch_6">
    <path d="M 81 43.2 
L 583.2 43.2 
" style="fill: none; stroke: #000000; stroke-width: 0.8; stroke-linejoin: miter; stroke-linecap: square"/>
   </g>
   <g id="legend_1">
    <g id="patch_7">
     <path d="M 88 65.878125 
L 161.065625 65.878125 
Q 163.065625 65.878125 163.065625 63.878125 
L 163.065625 50.2 
Q 163.065625 48.2 161.065625 48.2 
L 88 48.2 
Q 86 48.2 86 50.2 
L 86 63.878125 
Q 86 65.878125 88 65.878125 
z
" style="fill: #ffffff; opacity: 0.8; stroke: #cccccc; stroke-linejoin: miter"/>
    </g>
    <g id="line2d_115">
     <path d="M 90 56.298437 
L 100 56.298437 
L 110 56.298437 
" style="fill: none; stroke: #000000; stroke-width: 2.5; stroke-linecap: square"/>
    </g>
    <g id="text_16">
     <!-- Average -->
     <g transform="translate(118 59.798437) scale(0.1 -0.1)">
      <defs>
       <path id="DejaVuSans-41" d="M 2188 4044 
L 1331 1722 
L 3047 1722 
L 2188 4044 
z
M 1831 4666 
L 2547 4666 
L 4325 0 
L 3669 0 
L 3244 1197 
L 1141 1197 
L 716 0 
L 50 0 
L 1831 4666 
z
" transform="scale(0.015625)"/>
       <path id="DejaVuSans-67" d="M 2906 1791 
Q 2906 2416 2648 2759 
Q 2391 3103 1925 3103 
Q 1463 3103 1205 2759 
Q 947 2416 947 1791 
Q 947 1169 1205 825 
Q 1463 481 1925 481 
Q 2391 481 2648 825 
Q 2906 1169 2906 1791 
z
M 3481 434 
Q 3481 -459 3084 -895 
Q 2688 -1331 1869 -1331 
Q 1566 -1331 1297 -1286 
Q 1028 -1241 775 -1147 
L 775 -588 
Q 1028 -725 1275 -790 
Q 1522 -856 1778 -856 
Q 2344 -856 2625 -561 
Q 2906 -266 2906 331 
L 2906 616 
Q 2728 306 2450 153 
Q 2172 0 1784 0 
Q 1141 0 747 490 
Q 353 981 353 1791 
Q 353 2603 747 3093 
Q 1141 3584 1784 3584 
Q 2172 3584 2450 3431 
Q 2728 3278 2906 2969 
L 2906 3500 
L 3481 3500 
L 3481 434 
z
" transform="scale(0.015625)"/>
      </defs>
      <use xlink:href="#DejaVuSans-41"/>
      <use xlink:href="#DejaVuSans-76" x="62.533203"/>
      <use xlink:href="#DejaVuSans-65" x="121.712891"/>
      <use xlink:href="#DejaVuSans-72" x="183.236328"/>
      <use xlink:href="#DejaVuSans-61" x="224.349609"/>
      <use xlink:href="#DejaVuSans-67" x="285.628906"/>
      <use xlink:href="#DejaVuSans-65" x="349.105469"/>
     </g>
    </g>
   </g>
  </g>
 </g>
 <defs>
  <clipPath id="p005ca2604f">
   <rect x="81" y="43.2" width="502.2" height="277.2"/>
  </clipPath>
 </defs>
</svg>
