<?xml version="1.0" encoding="utf-8" standalone="no"?>
<!DOCTYPE svg PUBLIC "-//W3C//DTD SVG 1.1//EN"
  "http://www.w3.org/Graphics/SVG/1.1/DTD/svg11.dtd">
<svg xmlns:xlink="http://www.w3.org/1999/xlink" width="648pt" height="360pt" viewBox="0 0 648 360" xmlns="http://www.w3.org/2000/svg" version="1.1">
 <metadata>
  <rdf:RDF xmlns:dc="http://purl.org/dc/elements/1.1/" xmlns:cc="http://creativecommons.org/ns#" xmlns:rdf="http://www.w3.org/1999/02/22-rdf-syntax-ns#">
   <cc:Work>
    <dc:type rdf:resource="http://purl.org/dc/dcmitype/StillImage"/>
    <dc:date>2025-09-05T07:58:44.257147</dc:date>
    <dc:format>image/svg+xml</dc:format>
    <dc:creator>
     <cc:Agent>
      <dc:title>Matplotlib v3.8.0, https://matplotlib.org/</dc:title>
     </cc:Agent>
    </dc:creator>
   </cc:Work>
  </rdf:RDF>
 </metadata>
 <defs>
  <style type="text/css">*{stroke-linejoin: round; stroke-linecap: butt}</style>
 </defs>
 <g id="figure_1">
  <g id="patch_1">
   <path d="M 0 360 
L 648 360 
L 648 0 
L 0 0 
z
" style="fill: #ffffff"/>
  </g>
  <g id="axes_1">
   <g id="patch_2">
    <path d="M 81 320.4 
L 583.2 320.4 
L 583.2 43.2 
L 81 43.2 
z
" style="fill: #ffffff"/>
   </g>
   <g id="matplotlib.axis_1">
    <g id="xtick_1">
     <g id="line2d_1">
      <defs>
       <path id="mb57a497fd3" d="M 0 0 
L 0 3.5 
" style="stroke: #000000; stroke-width: 0.8"/>
      </defs>
      <g>
       <use xlink:href="#mb57a497fd3" x="145.331405" y="320.4" style="stroke: #000000; stroke-width: 0.8"/>
      </g>
     </g>
     <g id="text_1">
      <!-- 2012 -->
      <g transform="translate(130.061405 336.518125) scale(0.12 -0.12)">
       <defs>
        <path id="DejaVuSans-32" d="M 1228 531 
L 3431 531 
L 3431 0 
L 469 0 
L 469 531 
Q 828 903 1448 1529 
Q 2069 2156 2228 2338 
Q 2531 2678 2651 2914 
Q 2772 3150 2772 3378 
Q 2772 3750 2511 3984 
Q 2250 4219 1831 4219 
Q 1534 4219 1204 4116 
Q 875 4013 500 3803 
L 500 4441 
Q 881 4594 1212 4672 
Q 1544 4750 1819 4750 
Q 2544 4750 2975 4387 
Q 3406 4025 3406 3419 
Q 3406 3131 3298 2873 
Q 3191 2616 2906 2266 
Q 2828 2175 2409 1742 
Q 1991 1309 1228 531 
z
" transform="scale(0.015625)"/>
        <path id="DejaVuSans-30" d="M 2034 4250 
Q 1547 4250 1301 3770 
Q 1056 3291 1056 2328 
Q 1056 1369 1301 889 
Q 1547 409 2034 409 
Q 2525 409 2770 889 
Q 3016 1369 3016 2328 
Q 3016 3291 2770 3770 
Q 2525 4250 2034 4250 
z
M 2034 4750 
Q 2819 4750 3233 4129 
Q 3647 3509 3647 2328 
Q 3647 1150 3233 529 
Q 2819 -91 2034 -91 
Q 1250 -91 836 529 
Q 422 1150 422 2328 
Q 422 3509 836 4129 
Q 1250 4750 2034 4750 
z
" transform="scale(0.015625)"/>
        <path id="DejaVuSans-31" d="M 794 531 
L 1825 531 
L 1825 4091 
L 703 3866 
L 703 4441 
L 1819 4666 
L 2450 4666 
L 2450 531 
L 3481 531 
L 3481 0 
L 794 0 
L 794 531 
z
" transform="scale(0.015625)"/>
       </defs>
       <use xlink:href="#DejaVuSans-32"/>
       <use xlink:href="#DejaVuSans-30" x="63.623047"/>
       <use xlink:href="#DejaVuSans-31" x="127.246094"/>
       <use xlink:href="#DejaVuSans-32" x="190.869141"/>
      </g>
     </g>
    </g>
    <g id="xtick_2">
     <g id="line2d_2">
      <g>
       <use xlink:href="#mb57a497fd3" x="228.339669" y="320.4" style="stroke: #000000; stroke-width: 0.8"/>
      </g>
     </g>
     <g id="text_2">
      <!-- 2014 -->
      <g transform="translate(213.069669 336.518125) scale(0.12 -0.12)">
       <defs>
        <path id="DejaVuSans-34" d="M 2419 4116 
L 825 1625 
L 2419 1625 
L 2419 4116 
z
M 2253 4666 
L 3047 4666 
L 3047 1625 
L 3713 1625 
L 3713 1100 
L 3047 1100 
L 3047 0 
L 2419 0 
L 2419 1100 
L 313 1100 
L 313 1709 
L 2253 4666 
z
" transform="scale(0.015625)"/>
       </defs>
       <use xlink:href="#DejaVuSans-32"/>
       <use xlink:href="#DejaVuSans-30" x="63.623047"/>
       <use xlink:href="#DejaVuSans-31" x="127.246094"/>
       <use xlink:href="#DejaVuSans-34" x="190.869141"/>
      </g>
     </g>
    </g>
    <g id="xtick_3">
     <g id="line2d_3">
      <g>
       <use xlink:href="#mb57a497fd3" x="311.347934" y="320.4" style="stroke: #000000; stroke-width: 0.8"/>
      </g>
     </g>
     <g id="text_3">
      <!-- 2016 -->
      <g transform="translate(296.077934 336.518125) scale(0.12 -0.12)">
       <defs>
        <path id="DejaVuSans-36" d="M 2113 2584 
Q 1688 2584 1439 2293 
Q 1191 2003 1191 1497 
Q 1191 994 1439 701 
Q 1688 409 2113 409 
Q 2538 409 2786 701 
Q 3034 994 3034 1497 
Q 3034 2003 2786 2293 
Q 2538 2584 2113 2584 
z
M 3366 4563 
L 3366 3988 
Q 3128 4100 2886 4159 
Q 2644 4219 2406 4219 
Q 1781 4219 1451 3797 
Q 1122 3375 1075 2522 
Q 1259 2794 1537 2939 
Q 1816 3084 2150 3084 
Q 2853 3084 3261 2657 
Q 3669 2231 3669 1497 
Q 3669 778 3244 343 
Q 2819 -91 2113 -91 
Q 1303 -91 875 529 
Q 447 1150 447 2328 
Q 447 3434 972 4092 
Q 1497 4750 2381 4750 
Q 2619 4750 2861 4703 
Q 3103 4656 3366 4563 
z
" transform="scale(0.015625)"/>
       </defs>
       <use xlink:href="#DejaVuSans-32"/>
       <use xlink:href="#DejaVuSans-30" x="63.623047"/>
       <use xlink:href="#DejaVuSans-31" x="127.246094"/>
       <use xlink:href="#DejaVuSans-36" x="190.869141"/>
      </g>
     </g>
    </g>
    <g id="xtick_4">
     <g id="line2d_4">
      <g>
       <use xlink:href="#mb57a497fd3" x="394.356198" y="320.4" style="stroke: #000000; stroke-width: 0.8"/>
      </g>
     </g>
     <g id="text_4">
      <!-- 2018 -->
      <g transform="translate(379.086198 336.518125) scale(0.12 -0.12)">
       <defs>
        <path id="DejaVuSans-38" d="M 2034 2216 
Q 1584 2216 1326 1975 
Q 1069 1734 1069 1313 
Q 1069 891 1326 650 
Q 1584 409 2034 409 
Q 2484 409 2743 651 
Q 3003 894 3003 1313 
Q 3003 1734 2745 1975 
Q 2488 2216 2034 2216 
z
M 1403 2484 
Q 997 2584 770 2862 
Q 544 3141 544 3541 
Q 544 4100 942 4425 
Q 1341 4750 2034 4750 
Q 2731 4750 3128 4425 
Q 3525 4100 3525 3541 
Q 3525 3141 3298 2862 
Q 3072 2584 2669 2484 
Q 3125 2378 3379 2068 
Q 3634 1759 3634 1313 
Q 3634 634 3220 271 
Q 2806 -91 2034 -91 
Q 1263 -91 848 271 
Q 434 634 434 1313 
Q 434 1759 690 2068 
Q 947 2378 1403 2484 
z
M 1172 3481 
Q 1172 3119 1398 2916 
Q 1625 2713 2034 2713 
Q 2441 2713 2670 2916 
Q 2900 3119 2900 3481 
Q 2900 3844 2670 4047 
Q 2441 4250 2034 4250 
Q 1625 4250 1398 4047 
Q 1172 3844 1172 3481 
z
" transform="scale(0.015625)"/>
       </defs>
       <use xlink:href="#DejaVuSans-32"/>
       <use xlink:href="#DejaVuSans-30" x="63.623047"/>
       <use xlink:href="#DejaVuSans-31" x="127.246094"/>
       <use xlink:href="#DejaVuSans-38" x="190.869141"/>
      </g>
     </g>
    </g>
    <g id="xtick_5">
     <g id="line2d_5">
      <g>
       <use xlink:href="#mb57a497fd3" x="477.364463" y="320.4" style="stroke: #000000; stroke-width: 0.8"/>
      </g>
     </g>
     <g id="text_5">
      <!-- 2020 -->
      <g transform="translate(462.094463 336.518125) scale(0.12 -0.12)">
       <use xlink:href="#DejaVuSans-32"/>
       <use xlink:href="#DejaVuSans-30" x="63.623047"/>
       <use xlink:href="#DejaVuSans-32" x="127.246094"/>
       <use xlink:href="#DejaVuSans-30" x="190.869141"/>
      </g>
     </g>
    </g>
    <g id="xtick_6">
     <g id="line2d_6">
      <g>
       <use xlink:href="#mb57a497fd3" x="560.372727" y="320.4" style="stroke: #000000; stroke-width: 0.8"/>
      </g>
     </g>
     <g id="text_6">
      <!-- 2022 -->
      <g transform="translate(545.102727 336.518125) scale(0.12 -0.12)">
       <use xlink:href="#DejaVuSans-32"/>
       <use xlink:href="#DejaVuSans-30" x="63.623047"/>
       <use xlink:href="#DejaVuSans-32" x="127.246094"/>
       <use xlink:href="#DejaVuSans-32" x="190.869141"/>
      </g>
     </g>
    </g>
    <g id="text_7">
     <!-- Year -->
     <g transform="translate(316.21875 354.411406) scale(0.15 -0.15)">
      <defs>
       <path id="DejaVuSans-59" d="M -13 4666 
L 666 4666 
L 1959 2747 
L 3244 4666 
L 3922 4666 
L 2272 2222 
L 2272 0 
L 1638 0 
L 1638 2222 
L -13 4666 
z
" transform="scale(0.015625)"/>
       <path id="DejaVuSans-65" d="M 3597 1894 
L 3597 1613 
L 953 1613 
Q 991 1019 1311 708 
Q 1631 397 2203 397 
Q 2534 397 2845 478 
Q 3156 559 3463 722 
L 3463 178 
Q 3153 47 2828 -22 
Q 2503 -91 2169 -91 
Q 1331 -91 842 396 
Q 353 884 353 1716 
Q 353 2575 817 3079 
Q 1281 3584 2069 3584 
Q 2775 3584 3186 3129 
Q 3597 2675 3597 1894 
z
M 3022 2063 
Q 3016 2534 2758 2815 
Q 2500 3097 2075 3097 
Q 1594 3097 1305 2825 
Q 1016 2553 972 2059 
L 3022 2063 
z
" transform="scale(0.015625)"/>
       <path id="DejaVuSans-61" d="M 2194 1759 
Q 1497 1759 1228 1600 
Q 959 1441 959 1056 
Q 959 750 1161 570 
Q 1363 391 1709 391 
Q 2188 391 2477 730 
Q 2766 1069 2766 1631 
L 2766 1759 
L 2194 1759 
z
M 3341 1997 
L 3341 0 
L 2766 0 
L 2766 531 
Q 2569 213 2275 61 
Q 1981 -91 1556 -91 
Q 1019 -91 701 211 
Q 384 513 384 1019 
Q 384 1609 779 1909 
Q 1175 2209 1959 2209 
L 2766 2209 
L 2766 2266 
Q 2766 2663 2505 2880 
Q 2244 3097 1772 3097 
Q 1472 3097 1187 3025 
Q 903 2953 641 2809 
L 641 3341 
Q 956 3463 1253 3523 
Q 1550 3584 1831 3584 
Q 2591 3584 2966 3190 
Q 3341 2797 3341 1997 
z
" transform="scale(0.015625)"/>
       <path id="DejaVuSans-72" d="M 2631 2963 
Q 2534 3019 2420 3045 
Q 2306 3072 2169 3072 
Q 1681 3072 1420 2755 
Q 1159 2438 1159 1844 
L 1159 0 
L 581 0 
L 581 3500 
L 1159 3500 
L 1159 2956 
Q 1341 3275 1631 3429 
Q 1922 3584 2338 3584 
Q 2397 3584 2469 3576 
Q 2541 3569 2628 3553 
L 2631 2963 
z
" transform="scale(0.015625)"/>
      </defs>
      <use xlink:href="#DejaVuSans-59"/>
      <use xlink:href="#DejaVuSans-65" x="47.833984"/>
      <use xlink:href="#DejaVuSans-61" x="109.357422"/>
      <use xlink:href="#DejaVuSans-72" x="170.636719"/>
     </g>
    </g>
   </g>
   <g id="matplotlib.axis_2">
    <g id="ytick_1">
     <g id="line2d_7">
      <defs>
       <path id="m0eccdae6a9" d="M 0 0 
L -3.5 0 
" style="stroke: #000000; stroke-width: 0.8"/>
      </defs>
      <g>
       <use xlink:href="#m0eccdae6a9" x="81" y="319.668014" style="stroke: #000000; stroke-width: 0.8"/>
      </g>
     </g>
     <g id="text_8">
      <!-- 17.5 -->
      <g transform="translate(47.28125 324.227076) scale(0.12 -0.12)">
       <defs>
        <path id="DejaVuSans-37" d="M 525 4666 
L 3525 4666 
L 3525 4397 
L 1831 0 
L 1172 0 
L 2766 4134 
L 525 4134 
L 525 4666 
z
" transform="scale(0.015625)"/>
        <path id="DejaVuSans-2e" d="M 684 794 
L 1344 794 
L 1344 0 
L 684 0 
L 684 794 
z
" transform="scale(0.015625)"/>
        <path id="DejaVuSans-35" d="M 691 4666 
L 3169 4666 
L 3169 4134 
L 1269 4134 
L 1269 2991 
Q 1406 3038 1543 3061 
Q 1681 3084 1819 3084 
Q 2600 3084 3056 2656 
Q 3513 2228 3513 1497 
Q 3513 744 3044 326 
Q 2575 -91 1722 -91 
Q 1428 -91 1123 -41 
Q 819 9 494 109 
L 494 744 
Q 775 591 1075 516 
Q 1375 441 1709 441 
Q 2250 441 2565 725 
Q 2881 1009 2881 1497 
Q 2881 1984 2565 2268 
Q 2250 2553 1709 2553 
Q 1456 2553 1204 2497 
Q 953 2441 691 2322 
L 691 4666 
z
" transform="scale(0.015625)"/>
       </defs>
       <use xlink:href="#DejaVuSans-31"/>
       <use xlink:href="#DejaVuSans-37" x="63.623047"/>
       <use xlink:href="#DejaVuSans-2e" x="127.246094"/>
       <use xlink:href="#DejaVuSans-35" x="159.033203"/>
      </g>
     </g>
    </g>
    <g id="ytick_2">
     <g id="line2d_8">
      <g>
       <use xlink:href="#m0eccdae6a9" x="81" y="284.759006" style="stroke: #000000; stroke-width: 0.8"/>
      </g>
     </g>
     <g id="text_9">
      <!-- 20.0 -->
      <g transform="translate(47.28125 289.318069) scale(0.12 -0.12)">
       <use xlink:href="#DejaVuSans-32"/>
       <use xlink:href="#DejaVuSans-30" x="63.623047"/>
       <use xlink:href="#DejaVuSans-2e" x="127.246094"/>
       <use xlink:href="#DejaVuSans-30" x="159.033203"/>
      </g>
     </g>
    </g>
    <g id="ytick_3">
     <g id="line2d_9">
      <g>
       <use xlink:href="#m0eccdae6a9" x="81" y="249.849999" style="stroke: #000000; stroke-width: 0.8"/>
      </g>
     </g>
     <g id="text_10">
      <!-- 22.5 -->
      <g transform="translate(47.28125 254.409062) scale(0.12 -0.12)">
       <use xlink:href="#DejaVuSans-32"/>
       <use xlink:href="#DejaVuSans-32" x="63.623047"/>
       <use xlink:href="#DejaVuSans-2e" x="127.246094"/>
       <use xlink:href="#DejaVuSans-35" x="159.033203"/>
      </g>
     </g>
    </g>
    <g id="ytick_4">
     <g id="line2d_10">
      <g>
       <use xlink:href="#m0eccdae6a9" x="81" y="214.940992" style="stroke: #000000; stroke-width: 0.8"/>
      </g>
     </g>
     <g id="text_11">
      <!-- 25.0 -->
      <g transform="translate(47.28125 219.500054) scale(0.12 -0.12)">
       <use xlink:href="#DejaVuSans-32"/>
       <use xlink:href="#DejaVuSans-35" x="63.623047"/>
       <use xlink:href="#DejaVuSans-2e" x="127.246094"/>
       <use xlink:href="#DejaVuSans-30" x="159.033203"/>
      </g>
     </g>
    </g>
    <g id="ytick_5">
     <g id="line2d_11">
      <g>
       <use xlink:href="#m0eccdae6a9" x="81" y="180.031985" style="stroke: #000000; stroke-width: 0.8"/>
      </g>
     </g>
     <g id="text_12">
      <!-- 27.5 -->
      <g transform="translate(47.28125 184.591047) scale(0.12 -0.12)">
       <use xlink:href="#DejaVuSans-32"/>
       <use xlink:href="#DejaVuSans-37" x="63.623047"/>
       <use xlink:href="#DejaVuSans-2e" x="127.246094"/>
       <use xlink:href="#DejaVuSans-35" x="159.033203"/>
      </g>
     </g>
    </g>
    <g id="ytick_6">
     <g id="line2d_12">
      <g>
       <use xlink:href="#m0eccdae6a9" x="81" y="145.122977" style="stroke: #000000; stroke-width: 0.8"/>
      </g>
     </g>
     <g id="text_13">
      <!-- 30.0 -->
      <g transform="translate(47.28125 149.68204) scale(0.12 -0.12)">
       <defs>
        <path id="DejaVuSans-33" d="M 2597 2516 
Q 3050 2419 3304 2112 
Q 3559 1806 3559 1356 
Q 3559 666 3084 287 
Q 2609 -91 1734 -91 
Q 1441 -91 1130 -33 
Q 819 25 488 141 
L 488 750 
Q 750 597 1062 519 
Q 1375 441 1716 441 
Q 2309 441 2620 675 
Q 2931 909 2931 1356 
Q 2931 1769 2642 2001 
Q 2353 2234 1838 2234 
L 1294 2234 
L 1294 2753 
L 1863 2753 
Q 2328 2753 2575 2939 
Q 2822 3125 2822 3475 
Q 2822 3834 2567 4026 
Q 2313 4219 1838 4219 
Q 1578 4219 1281 4162 
Q 984 4106 628 3988 
L 628 4550 
Q 988 4650 1302 4700 
Q 1616 4750 1894 4750 
Q 2613 4750 3031 4423 
Q 3450 4097 3450 3541 
Q 3450 3153 3228 2886 
Q 3006 2619 2597 2516 
z
" transform="scale(0.015625)"/>
       </defs>
       <use xlink:href="#DejaVuSans-33"/>
       <use xlink:href="#DejaVuSans-30" x="63.623047"/>
       <use xlink:href="#DejaVuSans-2e" x="127.246094"/>
       <use xlink:href="#DejaVuSans-30" x="159.033203"/>
      </g>
     </g>
    </g>
    <g id="ytick_7">
     <g id="line2d_13">
      <g>
       <use xlink:href="#m0eccdae6a9" x="81" y="110.21397" style="stroke: #000000; stroke-width: 0.8"/>
      </g>
     </g>
     <g id="text_14">
      <!-- 32.5 -->
      <g transform="translate(47.28125 114.773033) scale(0.12 -0.12)">
       <use xlink:href="#DejaVuSans-33"/>
       <use xlink:href="#DejaVuSans-32" x="63.623047"/>
       <use xlink:href="#DejaVuSans-2e" x="127.246094"/>
       <use xlink:href="#DejaVuSans-35" x="159.033203"/>
      </g>
     </g>
    </g>
    <g id="ytick_8">
     <g id="line2d_14">
      <g>
       <use xlink:href="#m0eccdae6a9" x="81" y="75.304963" style="stroke: #000000; stroke-width: 0.8"/>
      </g>
     </g>
     <g id="text_15">
      <!-- 35.0 -->
      <g transform="translate(47.28125 79.864026) scale(0.12 -0.12)">
       <use xlink:href="#DejaVuSans-33"/>
       <use xlink:href="#DejaVuSans-35" x="63.623047"/>
       <use xlink:href="#DejaVuSans-2e" x="127.246094"/>
       <use xlink:href="#DejaVuSans-30" x="159.033203"/>
      </g>
     </g>
    </g>
    <g id="text_16">
     <!-- Total coral cover (%) -->
     <g transform="translate(40.161719 258.769922) rotate(-90) scale(0.15 -0.15)">
      <defs>
       <path id="DejaVuSans-54" d="M -19 4666 
L 3928 4666 
L 3928 4134 
L 2272 4134 
L 2272 0 
L 1638 0 
L 1638 4134 
L -19 4134 
L -19 4666 
z
" transform="scale(0.015625)"/>
       <path id="DejaVuSans-6f" d="M 1959 3097 
Q 1497 3097 1228 2736 
Q 959 2375 959 1747 
Q 959 1119 1226 758 
Q 1494 397 1959 397 
Q 2419 397 2687 759 
Q 2956 1122 2956 1747 
Q 2956 2369 2687 2733 
Q 2419 3097 1959 3097 
z
M 1959 3584 
Q 2709 3584 3137 3096 
Q 3566 2609 3566 1747 
Q 3566 888 3137 398 
Q 2709 -91 1959 -91 
Q 1206 -91 779 398 
Q 353 888 353 1747 
Q 353 2609 779 3096 
Q 1206 3584 1959 3584 
z
" transform="scale(0.015625)"/>
       <path id="DejaVuSans-74" d="M 1172 4494 
L 1172 3500 
L 2356 3500 
L 2356 3053 
L 1172 3053 
L 1172 1153 
Q 1172 725 1289 603 
Q 1406 481 1766 481 
L 2356 481 
L 2356 0 
L 1766 0 
Q 1100 0 847 248 
Q 594 497 594 1153 
L 594 3053 
L 172 3053 
L 172 3500 
L 594 3500 
L 594 4494 
L 1172 4494 
z
" transform="scale(0.015625)"/>
       <path id="DejaVuSans-6c" d="M 603 4863 
L 1178 4863 
L 1178 0 
L 603 0 
L 603 4863 
z
" transform="scale(0.015625)"/>
       <path id="DejaVuSans-20" transform="scale(0.015625)"/>
       <path id="DejaVuSans-63" d="M 3122 3366 
L 3122 2828 
Q 2878 2963 2633 3030 
Q 2388 3097 2138 3097 
Q 1578 3097 1268 2742 
Q 959 2388 959 1747 
Q 959 1106 1268 751 
Q 1578 397 2138 397 
Q 2388 397 2633 464 
Q 2878 531 3122 666 
L 3122 134 
Q 2881 22 2623 -34 
Q 2366 -91 2075 -91 
Q 1284 -91 818 406 
Q 353 903 353 1747 
Q 353 2603 823 3093 
Q 1294 3584 2113 3584 
Q 2378 3584 2631 3529 
Q 2884 3475 3122 3366 
z
" transform="scale(0.015625)"/>
       <path id="DejaVuSans-76" d="M 191 3500 
L 800 3500 
L 1894 563 
L 2988 3500 
L 3597 3500 
L 2284 0 
L 1503 0 
L 191 3500 
z
" transform="scale(0.015625)"/>
       <path id="DejaVuSans-28" d="M 1984 4856 
Q 1566 4138 1362 3434 
Q 1159 2731 1159 2009 
Q 1159 1288 1364 580 
Q 1569 -128 1984 -844 
L 1484 -844 
Q 1016 -109 783 600 
Q 550 1309 550 2009 
Q 550 2706 781 3412 
Q 1013 4119 1484 4856 
L 1984 4856 
z
" transform="scale(0.015625)"/>
       <path id="DejaVuSans-25" d="M 4653 2053 
Q 4381 2053 4226 1822 
Q 4072 1591 4072 1178 
Q 4072 772 4226 539 
Q 4381 306 4653 306 
Q 4919 306 5073 539 
Q 5228 772 5228 1178 
Q 5228 1588 5073 1820 
Q 4919 2053 4653 2053 
z
M 4653 2450 
Q 5147 2450 5437 2106 
Q 5728 1763 5728 1178 
Q 5728 594 5436 251 
Q 5144 -91 4653 -91 
Q 4153 -91 3862 251 
Q 3572 594 3572 1178 
Q 3572 1766 3864 2108 
Q 4156 2450 4653 2450 
z
M 1428 4353 
Q 1159 4353 1004 4120 
Q 850 3888 850 3481 
Q 850 3069 1003 2837 
Q 1156 2606 1428 2606 
Q 1700 2606 1854 2837 
Q 2009 3069 2009 3481 
Q 2009 3884 1853 4118 
Q 1697 4353 1428 4353 
z
M 4250 4750 
L 4750 4750 
L 1831 -91 
L 1331 -91 
L 4250 4750 
z
M 1428 4750 
Q 1922 4750 2215 4408 
Q 2509 4066 2509 3481 
Q 2509 2891 2217 2550 
Q 1925 2209 1428 2209 
Q 931 2209 642 2551 
Q 353 2894 353 3481 
Q 353 4063 643 4406 
Q 934 4750 1428 4750 
z
" transform="scale(0.015625)"/>
       <path id="DejaVuSans-29" d="M 513 4856 
L 1013 4856 
Q 1481 4119 1714 3412 
Q 1947 2706 1947 2009 
Q 1947 1309 1714 600 
Q 1481 -109 1013 -844 
L 513 -844 
Q 928 -128 1133 580 
Q 1338 1288 1338 2009 
Q 1338 2731 1133 3434 
Q 928 4138 513 4856 
z
" transform="scale(0.015625)"/>
      </defs>
      <use xlink:href="#DejaVuSans-54"/>
      <use xlink:href="#DejaVuSans-6f" x="44.083984"/>
      <use xlink:href="#DejaVuSans-74" x="105.265625"/>
      <use xlink:href="#DejaVuSans-61" x="144.474609"/>
      <use xlink:href="#DejaVuSans-6c" x="205.753906"/>
      <use xlink:href="#DejaVuSans-20" x="233.537109"/>
      <use xlink:href="#DejaVuSans-63" x="265.324219"/>
      <use xlink:href="#DejaVuSans-6f" x="320.304688"/>
      <use xlink:href="#DejaVuSans-72" x="381.486328"/>
      <use xlink:href="#DejaVuSans-61" x="422.599609"/>
      <use xlink:href="#DejaVuSans-6c" x="483.878906"/>
      <use xlink:href="#DejaVuSans-20" x="511.662109"/>
      <use xlink:href="#DejaVuSans-63" x="543.449219"/>
      <use xlink:href="#DejaVuSans-6f" x="598.429688"/>
      <use xlink:href="#DejaVuSans-76" x="659.611328"/>
      <use xlink:href="#DejaVuSans-65" x="718.791016"/>
      <use xlink:href="#DejaVuSans-72" x="780.314453"/>
      <use xlink:href="#DejaVuSans-20" x="821.427734"/>
      <use xlink:href="#DejaVuSans-28" x="853.214844"/>
      <use xlink:href="#DejaVuSans-25" x="892.228516"/>
      <use xlink:href="#DejaVuSans-29" x="987.248047"/>
     </g>
    </g>
   </g>
   <g id="line2d_15">
    <path d="M 103.827273 288.948087 
L 145.331405 293.901031 
L 186.835537 297.936702 
L 228.339669 297.133507 
L 269.843802 297.596177 
L 311.347934 289.707211 
L 352.852066 277.276542 
L 394.356198 252.048905 
L 435.860331 219.883826 
L 477.364463 178.908554 
L 518.868595 130.517267 
L 560.372727 72.759487 
" clip-path="url(#p690630e7e4)" style="fill: none; stroke-dasharray: 3.7,1.6; stroke-dashoffset: 0; stroke: #1f77b4; stroke-opacity: 0.6"/>
   </g>
   <g id="line2d_16">
    <path d="M 103.827273 288.948087 
L 145.331405 296.070165 
L 186.835537 301.215557 
L 228.339669 298.261325 
L 269.843802 294.057541 
L 311.347934 281.782055 
L 352.852066 268.394378 
L 394.356198 248.227869 
L 435.860331 215.933105 
L 477.364463 177.726312 
L 518.868595 131.420399 
L 560.372727 74.565476 
" clip-path="url(#p690630e7e4)" style="fill: none; stroke-dasharray: 3.7,1.6; stroke-dashoffset: 0; stroke: #ff7f0e; stroke-opacity: 0.6"/>
   </g>
   <g id="line2d_17">
    <path d="M 103.827273 288.948087 
L 145.331405 291.41413 
L 186.835537 297.723394 
L 228.339669 293.524957 
L 269.843802 290.594852 
L 311.347934 282.241983 
L 352.852066 261.586483 
L 394.356198 240.985407 
L 435.860331 209.567591 
L 477.364463 170.131536 
L 518.868595 117.808036 
L 560.372727 62.780625 
" clip-path="url(#p690630e7e4)" style="fill: none; stroke-dasharray: 3.7,1.6; stroke-dashoffset: 0; stroke: #2ca02c; stroke-opacity: 0.6"/>
   </g>
   <g id="line2d_18">
    <path d="M 103.827273 288.948087 
L 145.331405 296.237137 
L 186.835537 299.85757 
L 228.339669 304.224076 
L 269.843802 302.734074 
L 311.347934 291.956129 
L 352.852066 280.113016 
L 394.356198 260.822221 
L 435.860331 231.576691 
L 477.364463 193.550991 
L 518.868595 144.482218 
L 560.372727 86.945972 
" clip-path="url(#p690630e7e4)" style="fill: none; stroke-dasharray: 3.7,1.6; stroke-dashoffset: 0; stroke: #d62728; stroke-opacity: 0.6"/>
   </g>
   <g id="line2d_19">
    <path d="M 103.827273 288.948087 
L 145.331405 296.794945 
L 186.835537 304.260405 
L 228.339669 305.970158 
L 269.843802 304.535265 
L 311.347934 298.968147 
L 352.852066 286.880333 
L 394.356198 268.481017 
L 435.860331 237.20303 
L 477.364463 195.280759 
L 518.868595 145.324483 
L 560.372727 87.685558 
" clip-path="url(#p690630e7e4)" style="fill: none; stroke-dasharray: 3.7,1.6; stroke-dashoffset: 0; stroke: #9467bd; stroke-opacity: 0.6"/>
   </g>
   <g id="line2d_20">
    <path d="M 103.827273 288.948087 
L 145.331405 296.047545 
L 186.835537 296.697707 
L 228.339669 298.429942 
L 269.843802 298.511235 
L 311.347934 292.798394 
L 352.852066 274.999658 
L 394.356198 257.870182 
L 435.860331 227.090371 
L 477.364463 191.305774 
L 518.868595 143.927426 
L 560.372727 85.084052 
" clip-path="url(#p690630e7e4)" style="fill: none; stroke-dasharray: 3.7,1.6; stroke-dashoffset: 0; stroke: #8c564b; stroke-opacity: 0.6"/>
   </g>
   <g id="line2d_21">
    <path d="M 103.827273 288.948087 
L 145.331405 297.358786 
L 186.835537 303.503957 
L 228.339669 302.761354 
L 269.843802 298.430902 
L 311.347934 286.029021 
L 352.852066 270.189126 
L 394.356198 250.35615 
L 435.860331 221.551356 
L 477.364463 182.320932 
L 518.868595 129.526674 
L 560.372727 66.693372 
" clip-path="url(#p690630e7e4)" style="fill: none; stroke-dasharray: 3.7,1.6; stroke-dashoffset: 0; stroke: #e377c2; stroke-opacity: 0.6"/>
   </g>
   <g id="line2d_22">
    <path d="M 103.827273 288.948087 
L 145.331405 296.172158 
L 186.835537 296.586118 
L 228.339669 297.398909 
L 269.843802 292.270197 
L 311.347934 280.299729 
L 352.852066 268.303078 
L 394.356198 246.672476 
L 435.860331 220.557473 
L 477.364463 184.672254 
L 518.868595 138.416377 
L 560.372727 84.436862 
" clip-path="url(#p690630e7e4)" style="fill: none; stroke-dasharray: 3.7,1.6; stroke-dashoffset: 0; stroke: #7f7f7f; stroke-opacity: 0.6"/>
   </g>
   <g id="line2d_23">
    <path d="M 103.827273 288.948087 
L 145.331405 293.666338 
L 186.835537 295.131758 
L 228.339669 295.868465 
L 269.843802 292.117893 
L 311.347934 285.579511 
L 352.852066 270.160749 
L 394.356198 245.627733 
L 435.860331 216.356568 
L 477.364463 175.865626 
L 518.868595 128.202684 
L 560.372727 71.746001 
" clip-path="url(#p690630e7e4)" style="fill: none; stroke-dasharray: 3.7,1.6; stroke-dashoffset: 0; stroke: #bcbd22; stroke-opacity: 0.6"/>
   </g>
   <g id="line2d_24">
    <path d="M 103.827273 288.948087 
L 145.331405 297.24939 
L 186.835537 304.324836 
L 228.339669 299.363644 
L 269.843802 299.572977 
L 311.347934 291.942558 
L 352.852066 276.300754 
L 394.356198 258.327917 
L 435.860331 229.408244 
L 477.364463 193.773895 
L 518.868595 144.922954 
L 560.372727 87.772609 
" clip-path="url(#p690630e7e4)" style="fill: none; stroke-dasharray: 3.7,1.6; stroke-dashoffset: 0; stroke: #17becf; stroke-opacity: 0.6"/>
   </g>
   <g id="line2d_25">
    <path d="M 103.827273 288.948087 
L 145.331405 294.633352 
L 186.835537 298.952108 
L 228.339669 301.03186 
L 269.843802 297.465944 
L 311.347934 290.454886 
L 352.852066 276.682268 
L 394.356198 259.067092 
L 435.860331 234.449082 
L 477.364463 196.671099 
L 518.868595 149.44149 
L 560.372727 96.65066 
" clip-path="url(#p690630e7e4)" style="fill: none; stroke-dasharray: 3.7,1.6; stroke-dashoffset: 0; stroke: #1f77b4; stroke-opacity: 0.6"/>
   </g>
   <g id="line2d_26">
    <path d="M 103.827273 288.948087 
L 145.331405 296.372442 
L 186.835537 301.457654 
L 228.339669 300.942891 
L 269.843802 300.721769 
L 311.347934 292.272253 
L 352.852066 277.52892 
L 394.356198 259.55855 
L 435.860331 234.260039 
L 477.364463 198.650777 
L 518.868595 152.976288 
L 560.372727 95.732037 
" clip-path="url(#p690630e7e4)" style="fill: none; stroke-dasharray: 3.7,1.6; stroke-dashoffset: 0; stroke: #ff7f0e; stroke-opacity: 0.6"/>
   </g>
   <g id="line2d_27">
    <path d="M 103.827273 288.948087 
L 145.331405 296.484031 
L 186.835537 303.655438 
L 228.339669 307.102225 
L 269.843802 302.866226 
L 311.347934 295.296537 
L 352.852066 275.903475 
L 394.356198 253.527255 
L 435.860331 223.624391 
L 477.364463 182.893409 
L 518.868595 132.817593 
L 560.372727 72.950861 
" clip-path="url(#p690630e7e4)" style="fill: none; stroke-dasharray: 3.7,1.6; stroke-dashoffset: 0; stroke: #2ca02c; stroke-opacity: 0.6"/>
   </g>
   <g id="line2d_28">
    <path d="M 103.827273 288.948087 
L 145.331405 295.592004 
L 186.835537 295.522731 
L 228.339669 294.37106 
L 269.843802 293.014444 
L 311.347934 284.739714 
L 352.852066 277.286412 
L 394.356198 261.118193 
L 435.860331 235.204023 
L 477.364463 202.415881 
L 518.868595 159.303829 
L 560.372727 106.561801 
" clip-path="url(#p690630e7e4)" style="fill: none; stroke-dasharray: 3.7,1.6; stroke-dashoffset: 0; stroke: #d62728; stroke-opacity: 0.6"/>
   </g>
   <g id="line2d_29">
    <path d="M 103.827273 288.948087 
L 145.331405 294.988134 
L 186.835537 299.038336 
L 228.339669 300.936722 
L 269.843802 293.005807 
L 311.347934 286.905694 
L 352.852066 277.279283 
L 394.356198 257.87594 
L 435.860331 227.25748 
L 477.364463 183.704966 
L 518.868595 136.045452 
L 560.372727 82.116659 
" clip-path="url(#p690630e7e4)" style="fill: none; stroke-dasharray: 3.7,1.6; stroke-dashoffset: 0; stroke: #9467bd; stroke-opacity: 0.6"/>
   </g>
   <g id="line2d_30">
    <path d="M 103.827273 288.948087 
L 145.331405 297.070628 
L 186.835537 301.864392 
L 228.339669 304.400645 
L 269.843802 299.528286 
L 311.347934 292.307484 
L 352.852066 277.649694 
L 394.356198 260.317054 
L 435.860331 230.133847 
L 477.364463 191.680434 
L 518.868595 138.353728 
L 560.372727 80.994873 
" clip-path="url(#p690630e7e4)" style="fill: none; stroke-dasharray: 3.7,1.6; stroke-dashoffset: 0; stroke: #8c564b; stroke-opacity: 0.6"/>
   </g>
   <g id="line2d_31">
    <path d="M 103.827273 288.948087 
L 145.331405 295.203087 
L 186.835537 293.652448 
L 228.339669 291.056425 
L 269.843802 284.046738 
L 311.347934 272.988998 
L 352.852066 263.189034 
L 394.356198 245.862016 
L 435.860331 221.777413 
L 477.364463 185.524115 
L 518.868595 141.220499 
L 560.372727 86.729237 
" clip-path="url(#p690630e7e4)" style="fill: none; stroke-dasharray: 3.7,1.6; stroke-dashoffset: 0; stroke: #e377c2; stroke-opacity: 0.6"/>
   </g>
   <g id="line2d_32">
    <path d="M 103.827273 288.948087 
L 145.331405 296.555728 
L 186.835537 299.346783 
L 228.339669 303.012773 
L 269.843802 301.754859 
L 311.347934 291.917882 
L 352.852066 279.17479 
L 394.356198 257.780116 
L 435.860331 229.157922 
L 477.364463 191.787499 
L 518.868595 145.325854 
L 560.372727 88.811457 
" clip-path="url(#p690630e7e4)" style="fill: none; stroke-dasharray: 3.7,1.6; stroke-dashoffset: 0; stroke: #7f7f7f; stroke-opacity: 0.6"/>
   </g>
   <g id="line2d_33">
    <path d="M 103.827273 288.948087 
L 145.331405 294.993892 
L 186.835537 301.600225 
L 228.339669 300.331344 
L 269.843802 297.259628 
L 311.347934 286.942708 
L 352.852066 270.65865 
L 394.356198 251.545246 
L 435.860331 220.595857 
L 477.364463 182.288853 
L 518.868595 133.761713 
L 560.372727 73.529507 
" clip-path="url(#p690630e7e4)" style="fill: none; stroke-dasharray: 3.7,1.6; stroke-dashoffset: 0; stroke: #bcbd22; stroke-opacity: 0.6"/>
   </g>
   <g id="line2d_34">
    <path d="M 103.827273 288.948087 
L 145.331405 294.691614 
L 186.835537 299.376119 
L 228.339669 293.653545 
L 269.843802 287.293789 
L 311.347934 278.726378 
L 352.852066 260.125132 
L 394.356198 240.131079 
L 435.860331 212.244222 
L 477.364463 176.716938 
L 518.868595 131.743513 
L 560.372727 78.474111 
" clip-path="url(#p690630e7e4)" style="fill: none; stroke-dasharray: 3.7,1.6; stroke-dashoffset: 0; stroke: #17becf; stroke-opacity: 0.6"/>
   </g>
   <g id="line2d_35">
    <path d="M 103.827273 288.948087 
L 145.331405 290.872635 
L 186.835537 294.071524 
L 228.339669 290.059526 
L 269.843802 288.659727 
L 311.347934 282.550703 
L 352.852066 274.458026 
L 394.356198 257.618764 
L 435.860331 232.569889 
L 477.364463 198.134917 
L 518.868595 152.023805 
L 560.372727 95.987979 
" clip-path="url(#p690630e7e4)" style="fill: none; stroke-dasharray: 3.7,1.6; stroke-dashoffset: 0; stroke: #1f77b4; stroke-opacity: 0.6"/>
   </g>
   <g id="line2d_36">
    <path d="M 103.827273 288.948087 
L 145.331405 295.223239 
L 186.835537 296.489882 
L 228.339669 300.299951 
L 269.843802 300.672554 
L 311.347934 297.664035 
L 352.852066 289.48184 
L 394.356198 271.054421 
L 435.860331 247.151596 
L 477.364463 211.530819 
L 518.868595 161.793472 
L 560.372727 105.292783 
" clip-path="url(#p690630e7e4)" style="fill: none; stroke-dasharray: 3.7,1.6; stroke-dashoffset: 0; stroke: #ff7f0e; stroke-opacity: 0.6"/>
   </g>
   <g id="line2d_37">
    <path d="M 103.827273 288.948087 
L 145.331405 295.86659 
L 186.835537 301.960079 
L 228.339669 299.645222 
L 269.843802 296.301387 
L 311.347934 288.674944 
L 352.852066 275.33374 
L 394.356198 255.544632 
L 435.860331 227.613633 
L 477.364463 188.779117 
L 518.868595 139.216419 
L 560.372727 78.680016 
" clip-path="url(#p690630e7e4)" style="fill: none; stroke-dasharray: 3.7,1.6; stroke-dashoffset: 0; stroke: #2ca02c; stroke-opacity: 0.6"/>
   </g>
   <g id="line2d_38">
    <path d="M 103.827273 288.948087 
L 145.331405 296.057141 
L 186.835537 295.453913 
L 228.339669 299.490861 
L 269.843802 298.617752 
L 311.347934 290.098047 
L 352.852066 274.177682 
L 394.356198 253.470227 
L 435.860331 223.745439 
L 477.364463 186.632877 
L 518.868595 136.400782 
L 560.372727 81.01009 
" clip-path="url(#p690630e7e4)" style="fill: none; stroke-dasharray: 3.7,1.6; stroke-dashoffset: 0; stroke: #d62728; stroke-opacity: 0.6"/>
   </g>
   <g id="line2d_39">
    <path d="M 103.827273 288.948087 
L 145.331405 297.36468 
L 186.835537 302.776434 
L 228.339669 306.124518 
L 269.843802 305.862819 
L 311.347934 301.350451 
L 352.852066 288.054623 
L 394.356198 269.968689 
L 435.860331 239.637976 
L 477.364463 196.989416 
L 518.868595 145.79908 
L 560.372727 88.771701 
" clip-path="url(#p690630e7e4)" style="fill: none; stroke-dasharray: 3.7,1.6; stroke-dashoffset: 0; stroke: #9467bd; stroke-opacity: 0.6"/>
   </g>
   <g id="line2d_40">
    <path d="M 103.827273 288.948087 
L 145.331405 294.108445 
L 186.835537 300.000552 
L 228.339669 297.104856 
L 269.843802 290.342885 
L 311.347934 282.840369 
L 352.852066 271.899427 
L 394.356198 252.209023 
L 435.860331 222.35222 
L 477.364463 183.963238 
L 518.868595 136.573375 
L 560.372727 79.229462 
" clip-path="url(#p690630e7e4)" style="fill: none; stroke-dasharray: 3.7,1.6; stroke-dashoffset: 0; stroke: #8c564b; stroke-opacity: 0.6"/>
   </g>
   <g id="line2d_41">
    <path d="M 103.827273 288.948087 
L 145.331405 297.300935 
L 186.835537 301.651221 
L 228.339669 301.860005 
L 269.843802 300.415516 
L 311.347934 288.84644 
L 352.852066 271.385898 
L 394.356198 255.462243 
L 435.860331 223.674017 
L 477.364463 188.27724 
L 518.868595 143.830642 
L 560.372727 89.413133 
" clip-path="url(#p690630e7e4)" style="fill: none; stroke-dasharray: 3.7,1.6; stroke-dashoffset: 0; stroke: #e377c2; stroke-opacity: 0.6"/>
   </g>
   <g id="line2d_42">
    <path d="M 103.827273 288.948087 
L 145.331405 297.93044 
L 186.835537 300.059911 
L 228.339669 301.961587 
L 269.843802 302.646201 
L 311.347934 296.838633 
L 352.852066 287.750564 
L 394.356198 271.447725 
L 435.860331 239.578617 
L 477.364463 204.379795 
L 518.868595 153.271026 
L 560.372727 93.947708 
" clip-path="url(#p690630e7e4)" style="fill: none; stroke-dasharray: 3.7,1.6; stroke-dashoffset: 0; stroke: #7f7f7f; stroke-opacity: 0.6"/>
   </g>
   <g id="line2d_43">
    <path d="M 103.827273 288.948087 
L 145.331405 297.647766 
L 186.835537 300.734244 
L 228.339669 302.023276 
L 269.843802 293.405143 
L 311.347934 287.723146 
L 352.852066 269.720698 
L 394.356198 242.685291 
L 435.860331 208.493512 
L 477.364463 164.19771 
L 518.868595 117.439271 
L 560.372727 58.98166 
" clip-path="url(#p690630e7e4)" style="fill: none; stroke-dasharray: 3.7,1.6; stroke-dashoffset: 0; stroke: #bcbd22; stroke-opacity: 0.6"/>
   </g>
   <g id="line2d_44">
    <path d="M 103.827273 288.948087 
L 145.331405 298.127983 
L 186.835537 301.208703 
L 228.339669 302.533104 
L 269.843802 301.491651 
L 311.347934 296.848092 
L 352.852066 286.621512 
L 394.356198 266.102415 
L 435.860331 234.538052 
L 477.364463 196.399392 
L 518.868595 142.518853 
L 560.372727 79.889675 
" clip-path="url(#p690630e7e4)" style="fill: none; stroke-dasharray: 3.7,1.6; stroke-dashoffset: 0; stroke: #17becf; stroke-opacity: 0.6"/>
   </g>
   <g id="line2d_45">
    <path d="M 103.827273 288.948087 
L 145.331405 294.987037 
L 186.835537 294.819336 
L 228.339669 295.378789 
L 269.843802 294.512946 
L 311.347934 286.985479 
L 352.852066 271.559725 
L 394.356198 247.748201 
L 435.860331 218.675812 
L 477.364463 176.202586 
L 518.868595 128.624913 
L 560.372727 68.847152 
" clip-path="url(#p690630e7e4)" style="fill: none; stroke-dasharray: 3.7,1.6; stroke-dashoffset: 0; stroke: #1f77b4; stroke-opacity: 0.6"/>
   </g>
   <g id="line2d_46">
    <path d="M 103.827273 288.948087 
L 145.331405 297.420749 
L 186.835537 301.418173 
L 228.339669 303.762915 
L 269.843802 303.094065 
L 311.347934 292.951932 
L 352.852066 279.306257 
L 394.356198 260.760258 
L 435.860331 236.368991 
L 477.364463 200.216452 
L 518.868595 152.348976 
L 560.372727 95.540526 
" clip-path="url(#p690630e7e4)" style="fill: none; stroke-dasharray: 3.7,1.6; stroke-dashoffset: 0; stroke: #ff7f0e; stroke-opacity: 0.6"/>
   </g>
   <g id="line2d_47">
    <path d="M 103.827273 288.948087 
L 145.331405 294.757964 
L 186.835537 300.524089 
L 228.339669 303.719184 
L 269.843802 299.533907 
L 311.347934 293.494387 
L 352.852066 281.043017 
L 394.356198 263.786872 
L 435.860331 234.696662 
L 477.364463 201.385533 
L 518.868595 154.235846 
L 560.372727 100.598364 
" clip-path="url(#p690630e7e4)" style="fill: none; stroke-dasharray: 3.7,1.6; stroke-dashoffset: 0; stroke: #2ca02c; stroke-opacity: 0.6"/>
   </g>
   <g id="line2d_48">
    <path d="M 103.827273 288.948087 
L 145.331405 292.652029 
L 186.835537 295.582775 
L 228.339669 293.600629 
L 269.843802 291.836315 
L 311.347934 285.653264 
L 352.852066 273.307178 
L 394.356198 256.871638 
L 435.860331 231.446732 
L 477.364463 196.254764 
L 518.868595 146.886594 
L 560.372727 96.992007 
" clip-path="url(#p690630e7e4)" style="fill: none; stroke-dasharray: 3.7,1.6; stroke-dashoffset: 0; stroke: #d62728; stroke-opacity: 0.6"/>
   </g>
   <g id="line2d_49">
    <path d="M 103.827273 288.948087 
L 145.331405 291.718738 
L 186.835537 298.536596 
L 228.339669 301.718942 
L 269.843802 296.698529 
L 311.347934 292.332708 
L 352.852066 279.800868 
L 394.356198 262.118245 
L 435.860331 234.276764 
L 477.364463 197.230278 
L 518.868595 149.878936 
L 560.372727 92.133769 
" clip-path="url(#p690630e7e4)" style="fill: none; stroke-dasharray: 3.7,1.6; stroke-dashoffset: 0; stroke: #9467bd; stroke-opacity: 0.6"/>
   </g>
   <g id="line2d_50">
    <path d="M 103.827273 288.948087 
L 145.331405 294.654738 
L 186.835537 295.898625 
L 228.339669 299.92255 
L 269.843802 300.648153 
L 311.347934 291.441366 
L 352.852066 276.513788 
L 394.356198 254.691675 
L 435.860331 230.734701 
L 477.364463 195.356431 
L 518.868595 148.854208 
L 560.372727 96.438311 
" clip-path="url(#p690630e7e4)" style="fill: none; stroke-dasharray: 3.7,1.6; stroke-dashoffset: 0; stroke: #8c564b; stroke-opacity: 0.6"/>
   </g>
   <g id="line2d_51">
    <path d="M 103.827273 288.948087 
L 145.331405 291.467046 
L 186.835537 291.636716 
L 228.339669 292.083758 
L 269.843802 291.495105 
L 311.347934 285.627629 
L 352.852066 271.474731 
L 394.356198 252.969035 
L 435.860331 223.431098 
L 477.364463 187.588513 
L 518.868595 136.338681 
L 560.372727 79.074005 
" clip-path="url(#p690630e7e4)" style="fill: none; stroke-dasharray: 3.7,1.6; stroke-dashoffset: 0; stroke: #e377c2; stroke-opacity: 0.6"/>
   </g>
   <g id="line2d_52">
    <path d="M 103.827273 288.948087 
L 145.331405 294.291045 
L 186.835537 298.301903 
L 228.339669 300.454586 
L 269.843802 295.950581 
L 311.347934 290.438572 
L 352.852066 276.901334 
L 394.356198 259.506731 
L 435.860331 230.423101 
L 477.364463 191.753913 
L 518.868595 141.830538 
L 560.372727 83.830799 
" clip-path="url(#p690630e7e4)" style="fill: none; stroke-dasharray: 3.7,1.6; stroke-dashoffset: 0; stroke: #7f7f7f; stroke-opacity: 0.6"/>
   </g>
   <g id="line2d_53">
    <path d="M 103.827273 288.948087 
L 145.331405 297.559482 
L 186.835537 299.202018 
L 228.339669 299.588605 
L 269.843802 299.043408 
L 311.347934 293.198141 
L 352.852066 283.063958 
L 394.356198 262.986008 
L 435.860331 235.542628 
L 477.364463 200.068946 
L 518.868595 152.605604 
L 560.372727 97.352273 
" clip-path="url(#p690630e7e4)" style="fill: none; stroke-dasharray: 3.7,1.6; stroke-dashoffset: 0; stroke: #bcbd22; stroke-opacity: 0.6"/>
   </g>
   <g id="line2d_54">
    <path d="M 103.827273 288.948087 
L 145.331405 295.658217 
L 186.835537 296.982026 
L 228.339669 299.764488 
L 269.843802 298.15001 
L 311.347934 291.577905 
L 352.852066 282.187696 
L 394.356198 264.947043 
L 435.860331 239.617824 
L 477.364463 204.417905 
L 518.868595 159.012518 
L 560.372727 105.828109 
" clip-path="url(#p690630e7e4)" style="fill: none; stroke-dasharray: 3.7,1.6; stroke-dashoffset: 0; stroke: #17becf; stroke-opacity: 0.6"/>
   </g>
   <g id="line2d_55">
    <path d="M 103.827273 288.948087 
L 145.331405 294.194535 
L 186.835537 294.602738 
L 228.339669 296.664532 
L 269.843802 289.658134 
L 311.347934 284.473628 
L 352.852066 274.934679 
L 394.356198 256.902483 
L 435.860331 229.070597 
L 477.364463 189.07454 
L 518.868595 140.887651 
L 560.372727 84.260019 
" clip-path="url(#p690630e7e4)" style="fill: none; stroke-dasharray: 3.7,1.6; stroke-dashoffset: 0; stroke: #1f77b4; stroke-opacity: 0.6"/>
   </g>
   <g id="line2d_56">
    <path d="M 103.827273 288.948087 
L 145.331405 296.092784 
L 186.835537 300.524089 
L 228.339669 302.138018 
L 269.843802 302.156388 
L 311.347934 294.902548 
L 352.852066 282.597176 
L 394.356198 262.747202 
L 435.860331 232.112017 
L 477.364463 192.294174 
L 518.868595 145.107748 
L 560.372727 90.30187 
" clip-path="url(#p690630e7e4)" style="fill: none; stroke-dasharray: 3.7,1.6; stroke-dashoffset: 0; stroke: #ff7f0e; stroke-opacity: 0.6"/>
   </g>
   <g id="line2d_57">
    <path d="M 103.827273 288.948087 
L 145.331405 297.436377 
L 186.835537 301.562251 
L 228.339669 302.446328 
L 269.843802 297.608104 
L 311.347934 289.126098 
L 352.852066 274.122436 
L 394.356198 256.480391 
L 435.860331 228.271789 
L 477.364463 188.128363 
L 518.868595 140.157387 
L 560.372727 81.65769 
" clip-path="url(#p690630e7e4)" style="fill: none; stroke-dasharray: 3.7,1.6; stroke-dashoffset: 0; stroke: #2ca02c; stroke-opacity: 0.6"/>
   </g>
   <g id="line2d_58">
    <path d="M 103.827273 288.948087 
L 145.331405 292.124242 
L 186.835537 291.701969 
L 228.339669 294.561337 
L 269.843802 288.896477 
L 311.347934 283.680029 
L 352.852066 274.650634 
L 394.356198 253.825968 
L 435.860331 224.324496 
L 477.364463 189.286614 
L 518.868595 146.414876 
L 560.372727 97.929822 
" clip-path="url(#p690630e7e4)" style="fill: none; stroke-dasharray: 3.7,1.6; stroke-dashoffset: 0; stroke: #d62728; stroke-opacity: 0.6"/>
   </g>
   <g id="line2d_59">
    <path d="M 103.827273 288.948087 
L 145.331405 295.044751 
L 186.835537 296.616962 
L 228.339669 295.884093 
L 269.843802 293.587743 
L 311.347934 286.035601 
L 352.852066 276.196842 
L 394.356198 257.623014 
L 435.860331 233.637525 
L 477.364463 198.608554 
L 518.868595 153.54849 
L 560.372727 99.671928 
" clip-path="url(#p690630e7e4)" style="fill: none; stroke-dasharray: 3.7,1.6; stroke-dashoffset: 0; stroke: #9467bd; stroke-opacity: 0.6"/>
   </g>
   <g id="line2d_60">
    <path d="M 103.827273 288.948087 
L 145.331405 297.283113 
L 186.835537 301.794203 
L 228.339669 301.791599 
L 269.843802 300.499687 
L 311.347934 293.45847 
L 352.852066 280.109315 
L 394.356198 263.578774 
L 435.860331 234.006702 
L 477.364463 198.372216 
L 518.868595 149.742808 
L 560.372727 90.950431 
" clip-path="url(#p690630e7e4)" style="fill: none; stroke-dasharray: 3.7,1.6; stroke-dashoffset: 0; stroke: #8c564b; stroke-opacity: 0.6"/>
   </g>
   <g id="line2d_61">
    <path d="M 103.827273 288.948087 
L 145.331405 294.997456 
L 186.835537 301.108218 
L 228.339669 302.754226 
L 269.843802 303.177277 
L 311.347934 297.518723 
L 352.852066 286.443162 
L 394.356198 267.372529 
L 435.860331 241.555142 
L 477.364463 204.198839 
L 518.868595 156.82433 
L 560.372727 99.903742 
" clip-path="url(#p690630e7e4)" style="fill: none; stroke-dasharray: 3.7,1.6; stroke-dashoffset: 0; stroke: #e377c2; stroke-opacity: 0.6"/>
   </g>
   <g id="line2d_62">
    <path d="M 103.827273 288.948087 
L 145.331405 294.517787 
L 186.835537 299.104686 
L 228.339669 300.477753 
L 269.843802 300.964276 
L 311.347934 288.935547 
L 352.852066 275.110013 
L 394.356198 252.767928 
L 435.860331 222.725646 
L 477.364463 184.247969 
L 518.868595 137.50598 
L 560.372727 81.134702 
" clip-path="url(#p690630e7e4)" style="fill: none; stroke-dasharray: 3.7,1.6; stroke-dashoffset: 0; stroke: #7f7f7f; stroke-opacity: 0.6"/>
   </g>
   <g id="line2d_63">
    <path d="M 103.827273 288.948087 
L 145.331405 295.566917 
L 186.835537 296.917046 
L 228.339669 298.514251 
L 269.843802 295.176174 
L 311.347934 290.397172 
L 352.852066 273.744212 
L 394.356198 253.81363 
L 435.860331 223.351176 
L 477.364463 185.298332 
L 518.868595 134.77616 
L 560.372727 76.217242 
" clip-path="url(#p690630e7e4)" style="fill: none; stroke-dasharray: 3.7,1.6; stroke-dashoffset: 0; stroke: #bcbd22; stroke-opacity: 0.6"/>
   </g>
   <g id="line2d_64">
    <path d="M 103.827273 288.948087 
L 145.331405 297.953059 
L 186.835537 301.528117 
L 228.339669 305.249079 
L 269.843802 302.538039 
L 311.347934 293.54319 
L 352.852066 279.558087 
L 394.356198 254.209127 
L 435.860331 226.679109 
L 477.364463 188.934711 
L 518.868595 138.932648 
L 560.372727 83.710985 
" clip-path="url(#p690630e7e4)" style="fill: none; stroke-dasharray: 3.7,1.6; stroke-dashoffset: 0; stroke: #17becf; stroke-opacity: 0.6"/>
   </g>
   <g id="line2d_65">
    <path d="M 103.827273 288.948087 
L 145.331405 295.614212 
L 186.835537 301.746771 
L 228.339669 303.739061 
L 269.843802 301.429688 
L 311.347934 296.804361 
L 352.852066 281.629751 
L 394.356198 262.559255 
L 435.860331 235.85697 
L 477.364463 198.878753 
L 518.868595 152.085083 
L 560.372727 97.835917 
" clip-path="url(#p690630e7e4)" style="fill: none; stroke-dasharray: 3.7,1.6; stroke-dashoffset: 0; stroke: #1f77b4; stroke-opacity: 0.6"/>
   </g>
   <g id="line2d_66">
    <path d="M 103.827273 288.948087 
L 145.331405 293.751743 
L 186.835537 298.557845 
L 228.339669 296.144148 
L 269.843802 295.942218 
L 311.347934 291.952839 
L 352.852066 279.925206 
L 394.356198 260.54695 
L 435.860331 226.112527 
L 477.364463 189.291275 
L 518.868595 141.3532 
L 560.372727 84.536799 
" clip-path="url(#p690630e7e4)" style="fill: none; stroke-dasharray: 3.7,1.6; stroke-dashoffset: 0; stroke: #ff7f0e; stroke-opacity: 0.6"/>
   </g>
   <g id="line2d_67">
    <path d="M 103.827273 288.948087 
L 145.331405 293.578739 
L 186.835537 298.480116 
L 228.339669 299.61849 
L 269.843802 294.973559 
L 311.347934 288.059559 
L 352.852066 273.97918 
L 394.356198 249.311682 
L 435.860331 217.28931 
L 477.364463 175.016232 
L 518.868595 125.37279 
L 560.372727 65.772694 
" clip-path="url(#p690630e7e4)" style="fill: none; stroke-dasharray: 3.7,1.6; stroke-dashoffset: 0; stroke: #2ca02c; stroke-opacity: 0.6"/>
   </g>
   <g id="line2d_68">
    <path d="M 103.827273 288.948087 
L 145.331405 295.509889 
L 186.835537 299.731176 
L 228.339669 302.582318 
L 269.843802 296.184726 
L 311.347934 284.000402 
L 352.852066 270.793681 
L 394.356198 254.804498 
L 435.860331 230.097656 
L 477.364463 195.635678 
L 518.868595 147.401494 
L 560.372727 90.192612 
" clip-path="url(#p690630e7e4)" style="fill: none; stroke-dasharray: 3.7,1.6; stroke-dashoffset: 0; stroke: #d62728; stroke-opacity: 0.6"/>
   </g>
   <g id="line2d_69">
    <path d="M 103.827273 288.948087 
L 145.331405 293.504438 
L 186.835537 297.942734 
L 228.339669 297.85349 
L 269.843802 297.171618 
L 311.347934 290.403615 
L 352.852066 278.189406 
L 394.356198 259.24037 
L 435.860331 228.548706 
L 477.364463 187.263342 
L 518.868595 137.080324 
L 560.372727 73.396395 
" clip-path="url(#p690630e7e4)" style="fill: none; stroke-dasharray: 3.7,1.6; stroke-dashoffset: 0; stroke: #9467bd; stroke-opacity: 0.6"/>
   </g>
   <g id="line2d_70">
    <path d="M 103.827273 288.948087 
L 145.331405 295.118093 
L 186.835537 300.740139 
L 228.339669 302.864033 
L 269.843802 301.583911 
L 311.347934 297.588226 
L 352.852066 280.890027 
L 394.356198 263.659655 
L 435.860331 237.187265 
L 477.364463 195.933569 
L 518.868595 149.416129 
L 560.372727 94.159371 
" clip-path="url(#p690630e7e4)" style="fill: none; stroke-dasharray: 3.7,1.6; stroke-dashoffset: 0; stroke: #8c564b; stroke-opacity: 0.6"/>
   </g>
   <g id="line2d_71">
    <path d="M 103.827273 288.948087 
L 145.331405 295.676038 
L 186.835537 296.931166 
L 228.339669 297.231251 
L 269.843802 297.019588 
L 311.347934 285.188264 
L 352.852066 272.910447 
L 394.356198 253.465566 
L 435.860331 223.854835 
L 477.364463 183.344837 
L 518.868595 135.69396 
L 560.372727 76.320606 
" clip-path="url(#p690630e7e4)" style="fill: none; stroke-dasharray: 3.7,1.6; stroke-dashoffset: 0; stroke: #e377c2; stroke-opacity: 0.6"/>
   </g>
   <g id="line2d_72">
    <path d="M 103.827273 288.948087 
L 145.331405 297.944697 
L 186.835537 302.378881 
L 228.339669 301.624489 
L 269.843802 297.745877 
L 311.347934 288.330169 
L 352.852066 269.885066 
L 394.356198 250.369585 
L 435.860331 220.641233 
L 477.364463 180.496848 
L 518.868595 129.256749 
L 560.372727 69.861324 
" clip-path="url(#p690630e7e4)" style="fill: none; stroke-dasharray: 3.7,1.6; stroke-dashoffset: 0; stroke: #7f7f7f; stroke-opacity: 0.6"/>
   </g>
   <g id="line2d_73">
    <path d="M 103.827273 288.948087 
L 145.331405 297.316563 
L 186.835537 299.973957 
L 228.339669 299.768738 
L 269.843802 296.159365 
L 311.347934 287.008921 
L 352.852066 274.693268 
L 394.356198 256.053638 
L 435.860331 226.98358 
L 477.364463 194.162126 
L 518.868595 147.782322 
L 560.372727 95.076486 
" clip-path="url(#p690630e7e4)" style="fill: none; stroke-dasharray: 3.7,1.6; stroke-dashoffset: 0; stroke: #bcbd22; stroke-opacity: 0.6"/>
   </g>
   <g id="line2d_74">
    <path d="M 103.827273 288.948087 
L 145.331405 296.836209 
L 186.835537 302.041509 
L 228.339669 304.81273 
L 269.843802 300.320514 
L 311.347934 293.030346 
L 352.852066 282.013732 
L 394.356198 262.085755 
L 435.860331 233.172936 
L 477.364463 190.400449 
L 518.868595 139.493747 
L 560.372727 79.14625 
" clip-path="url(#p690630e7e4)" style="fill: none; stroke-dasharray: 3.7,1.6; stroke-dashoffset: 0; stroke: #17becf; stroke-opacity: 0.6"/>
   </g>
   <g id="line2d_75">
    <path d="M 103.827273 288.948087 
L 145.331405 297.661886 
L 186.835537 304.997386 
L 228.339669 307.8 
L 269.843802 306.968976 
L 311.347934 301.139885 
L 352.852066 284.842256 
L 394.356198 262.693875 
L 435.860331 236.233 
L 477.364463 197.490196 
L 518.868595 144.987248 
L 560.372727 88.679716 
" clip-path="url(#p690630e7e4)" style="fill: none; stroke-dasharray: 3.7,1.6; stroke-dashoffset: 0; stroke: #1f77b4; stroke-opacity: 0.6"/>
   </g>
   <g id="line2d_76">
    <path d="M 103.827273 288.948087 
L 145.331405 296.604394 
L 186.835537 297.893931 
L 228.339669 297.553132 
L 269.843802 290.577442 
L 311.347934 284.497344 
L 352.852066 271.86968 
L 394.356198 251.393353 
L 435.860331 223.764769 
L 477.364463 188.85712 
L 518.868595 143.841198 
L 560.372727 88.087498 
" clip-path="url(#p690630e7e4)" style="fill: none; stroke-dasharray: 3.7,1.6; stroke-dashoffset: 0; stroke: #ff7f0e; stroke-opacity: 0.6"/>
   </g>
   <g id="line2d_77">
    <path d="M 103.827273 288.948087 
L 145.331405 292.714129 
L 186.835537 296.035164 
L 228.339669 295.285844 
L 269.843802 294.689788 
L 311.347934 289.453051 
L 352.852066 279.142986 
L 394.356198 262.655353 
L 435.860331 232.536166 
L 477.364463 196.487127 
L 518.868595 148.577566 
L 560.372727 87.876521 
" clip-path="url(#p690630e7e4)" style="fill: none; stroke-dasharray: 3.7,1.6; stroke-dashoffset: 0; stroke: #2ca02c; stroke-opacity: 0.6"/>
   </g>
   <g id="line2d_78">
    <path d="M 103.827273 288.948087 
L 145.331405 293.332256 
L 186.835537 292.077452 
L 228.339669 295.467348 
L 269.843802 290.389906 
L 311.347934 277.679716 
L 352.852066 266.296119 
L 394.356198 246.965432 
L 435.860331 215.027369 
L 477.364463 173.271248 
L 518.868595 120.918274 
L 560.372727 64.190568 
" clip-path="url(#p690630e7e4)" style="fill: none; stroke-dasharray: 3.7,1.6; stroke-dashoffset: 0; stroke: #d62728; stroke-opacity: 0.6"/>
   </g>
   <g id="line2d_79">
    <path d="M 103.827273 288.948087 
L 145.331405 291.968237 
L 186.835537 291.484275 
L 228.339669 288.704417 
L 269.843802 283.675916 
L 311.347934 270.824251 
L 352.852066 257.752835 
L 394.356198 241.810536 
L 435.860331 217.028844 
L 477.364463 182.549457 
L 518.868595 142.476219 
L 560.372727 90.386727 
" clip-path="url(#p690630e7e4)" style="fill: none; stroke-dasharray: 3.7,1.6; stroke-dashoffset: 0; stroke: #9467bd; stroke-opacity: 0.6"/>
   </g>
   <g id="line2d_80">
    <path d="M 103.827273 288.948087 
L 145.331405 292.997352 
L 186.835537 298.451876 
L 228.339669 300.125576 
L 269.843802 299.524996 
L 311.347934 293.092172 
L 352.852066 280.772269 
L 394.356198 260.936826 
L 435.860331 232.320527 
L 477.364463 195.254849 
L 518.868595 148.06719 
L 560.372727 90.986347 
" clip-path="url(#p690630e7e4)" style="fill: none; stroke-dasharray: 3.7,1.6; stroke-dashoffset: 0; stroke: #8c564b; stroke-opacity: 0.6"/>
   </g>
   <g id="line2d_81">
    <path d="M 103.827273 288.948087 
L 145.331405 296.604805 
L 186.835537 304.166911 
L 228.339669 304.785312 
L 269.843802 304.790933 
L 311.347934 295.696284 
L 352.852066 288.420235 
L 394.356198 271.32462 
L 435.860331 243.454076 
L 477.364463 207.727468 
L 518.868595 158.904356 
L 560.372727 102.683189 
" clip-path="url(#p690630e7e4)" style="fill: none; stroke-dasharray: 3.7,1.6; stroke-dashoffset: 0; stroke: #e377c2; stroke-opacity: 0.6"/>
   </g>
   <g id="line2d_82">
    <path d="M 103.827273 288.948087 
L 145.331405 298.484273 
L 186.835537 303.285439 
L 228.339669 299.505393 
L 269.843802 296.982163 
L 311.347934 289.236865 
L 352.852066 279.017688 
L 394.356198 258.918215 
L 435.860331 228.628079 
L 477.364463 193.99721 
L 518.868595 147.120739 
L 560.372727 93.130119 
" clip-path="url(#p690630e7e4)" style="fill: none; stroke-dasharray: 3.7,1.6; stroke-dashoffset: 0; stroke: #7f7f7f; stroke-opacity: 0.6"/>
   </g>
   <g id="line2d_83">
    <path d="M 103.827273 288.948087 
L 145.331405 294.336969 
L 186.835537 297.679663 
L 228.339669 295.37125 
L 269.843802 291.145121 
L 311.347934 284.286503 
L 352.852066 275.053807 
L 394.356198 257.028192 
L 435.860331 224.110092 
L 477.364463 187.558491 
L 518.868595 139.547896 
L 560.372727 85.656665 
" clip-path="url(#p690630e7e4)" style="fill: none; stroke-dasharray: 3.7,1.6; stroke-dashoffset: 0; stroke: #bcbd22; stroke-opacity: 0.6"/>
   </g>
   <g id="line2d_84">
    <path d="M 103.827273 288.948087 
L 145.331405 296.091961 
L 186.835537 300.118722 
L 228.339669 301.289722 
L 269.843802 297.854861 
L 311.347934 290.00757 
L 352.852066 276.950959 
L 394.356198 253.336155 
L 435.860331 224.019614 
L 477.364463 182.677633 
L 518.868595 132.204401 
L 560.372727 74.306518 
" clip-path="url(#p690630e7e4)" style="fill: none; stroke-dasharray: 3.7,1.6; stroke-dashoffset: 0; stroke: #17becf; stroke-opacity: 0.6"/>
   </g>
   <g id="line2d_85">
    <path d="M 103.827273 288.948087 
L 145.331405 295.113432 
L 186.835537 297.117057 
L 228.339669 300.360818 
L 269.843802 298.954987 
L 311.347934 290.228829 
L 352.852066 276.85116 
L 394.356198 261.107226 
L 435.860331 231.527203 
L 477.364463 197.303346 
L 518.868595 149.214474 
L 560.372727 94.076708 
" clip-path="url(#p690630e7e4)" style="fill: none; stroke-dasharray: 3.7,1.6; stroke-dashoffset: 0; stroke: #1f77b4; stroke-opacity: 0.6"/>
   </g>
   <g id="line2d_86">
    <path d="M 103.827273 288.948087 
L 145.331405 297.330546 
L 186.835537 299.988626 
L 228.339669 303.047319 
L 269.843802 298.991452 
L 311.347934 292.144762 
L 352.852066 280.257232 
L 394.356198 258.145591 
L 435.860331 231.215329 
L 477.364463 189.542968 
L 518.868595 142.664989 
L 560.372727 84.494028 
" clip-path="url(#p690630e7e4)" style="fill: none; stroke-dasharray: 3.7,1.6; stroke-dashoffset: 0; stroke: #ff7f0e; stroke-opacity: 0.6"/>
   </g>
   <g id="line2d_87">
    <path d="M 103.827273 288.948087 
L 145.331405 295.418863 
L 186.835537 299.048755 
L 228.339669 301.800372 
L 269.843802 303.100234 
L 311.347934 299.286601 
L 352.852066 287.283918 
L 394.356198 266.080481 
L 435.860331 239.157896 
L 477.364463 203.951534 
L 518.868595 156.340823 
L 560.372727 98.69847 
" clip-path="url(#p690630e7e4)" style="fill: none; stroke-dasharray: 3.7,1.6; stroke-dashoffset: 0; stroke: #2ca02c; stroke-opacity: 0.6"/>
   </g>
   <g id="line2d_88">
    <path d="M 103.827273 288.948087 
L 145.331405 294.721088 
L 186.835537 302.018478 
L 228.339669 304.06437 
L 269.843802 300.922328 
L 311.347934 291.235598 
L 352.852066 279.882572 
L 394.356198 253.325737 
L 435.860331 223.369683 
L 477.364463 185.018674 
L 518.868595 135.720555 
L 560.372727 76.537752 
" clip-path="url(#p690630e7e4)" style="fill: none; stroke-dasharray: 3.7,1.6; stroke-dashoffset: 0; stroke: #d62728; stroke-opacity: 0.6"/>
   </g>
   <g id="line2d_89">
    <path d="M 103.827273 288.948087 
L 145.331405 298.323744 
L 186.835537 304.117834 
L 228.339669 305.144344 
L 269.843802 300.872154 
L 311.347934 296.484673 
L 352.852066 278.663454 
L 394.356198 258.145454 
L 435.860331 229.787975 
L 477.364463 189.364754 
L 518.868595 142.275935 
L 560.372727 82.491456 
" clip-path="url(#p690630e7e4)" style="fill: none; stroke-dasharray: 3.7,1.6; stroke-dashoffset: 0; stroke: #9467bd; stroke-opacity: 0.6"/>
   </g>
   <g id="line2d_90">
    <path d="M 103.827273 288.948087 
L 145.331405 293.150615 
L 186.835537 293.640385 
L 228.339669 293.811333 
L 269.843802 293.225421 
L 311.347934 286.90542 
L 352.852066 275.596948 
L 394.356198 254.343199 
L 435.860331 224.884498 
L 477.364463 185.371537 
L 518.868595 138.944164 
L 560.372727 84.525969 
" clip-path="url(#p690630e7e4)" style="fill: none; stroke-dasharray: 3.7,1.6; stroke-dashoffset: 0; stroke: #8c564b; stroke-opacity: 0.6"/>
   </g>
   <g id="line2d_91">
    <path d="M 103.827273 288.948087 
L 145.331405 293.000642 
L 186.835537 299.124016 
L 228.339669 303.392367 
L 269.843802 303.685872 
L 311.347934 293.507958 
L 352.852066 281.912562 
L 394.356198 263.660752 
L 435.860331 238.425027 
L 477.364463 202.912686 
L 518.868595 156.513141 
L 560.372727 95.376021 
" clip-path="url(#p690630e7e4)" style="fill: none; stroke-dasharray: 3.7,1.6; stroke-dashoffset: 0; stroke: #e377c2; stroke-opacity: 0.6"/>
   </g>
   <g id="line2d_92">
    <path d="M 103.827273 288.948087 
L 145.331405 296.34009 
L 186.835537 301.056947 
L 228.339669 303.815145 
L 269.843802 300.218795 
L 311.347934 294.175985 
L 352.852066 279.257865 
L 394.356198 258.161219 
L 435.860331 224.546441 
L 477.364463 186.349792 
L 518.868595 132.712995 
L 560.372727 75.4087 
" clip-path="url(#p690630e7e4)" style="fill: none; stroke-dasharray: 3.7,1.6; stroke-dashoffset: 0; stroke: #7f7f7f; stroke-opacity: 0.6"/>
   </g>
   <g id="line2d_93">
    <path d="M 103.827273 288.948087 
L 145.331405 298.999584 
L 186.835537 302.053435 
L 228.339669 304.956123 
L 269.843802 298.914958 
L 311.347934 290.407179 
L 352.852066 272.364154 
L 394.356198 252.002981 
L 435.860331 220.870992 
L 477.364463 181.355152 
L 518.868595 134.230141 
L 560.372727 78.745955 
" clip-path="url(#p690630e7e4)" style="fill: none; stroke-dasharray: 3.7,1.6; stroke-dashoffset: 0; stroke: #bcbd22; stroke-opacity: 0.6"/>
   </g>
   <g id="line2d_94">
    <path d="M 103.827273 288.948087 
L 145.331405 297.082418 
L 186.835537 298.629405 
L 228.339669 298.138495 
L 269.843802 293.761296 
L 311.347934 288.135368 
L 352.852066 274.683535 
L 394.356198 253.624724 
L 435.860331 223.568459 
L 477.364463 186.942832 
L 518.868595 140.479405 
L 560.372727 83.371968 
" clip-path="url(#p690630e7e4)" style="fill: none; stroke-dasharray: 3.7,1.6; stroke-dashoffset: 0; stroke: #17becf; stroke-opacity: 0.6"/>
   </g>
   <g id="line2d_95">
    <path d="M 103.827273 288.948087 
L 145.331405 297.595536 
L 186.835537 298.225545 
L 228.339669 296.803127 
L 269.843802 294.327192 
L 311.347934 287.451302 
L 352.852066 275.675224 
L 394.356198 256.477512 
L 435.860331 225.211863 
L 477.364463 187.622648 
L 518.868595 136.192272 
L 560.372727 82.164091 
" clip-path="url(#p690630e7e4)" style="fill: none; stroke-dasharray: 3.7,1.6; stroke-dashoffset: 0; stroke: #1f77b4; stroke-opacity: 0.6"/>
   </g>
   <g id="line2d_96">
    <path d="M 103.827273 288.948087 
L 145.331405 292.681365 
L 186.835537 297.089365 
L 228.339669 292.723133 
L 269.843802 286.969166 
L 311.347934 280.177721 
L 352.852066 270.599976 
L 394.356198 253.863804 
L 435.860331 230.341397 
L 477.364463 194.975191 
L 518.868595 150.268127 
L 560.372727 97.360909 
" clip-path="url(#p690630e7e4)" style="fill: none; stroke-dasharray: 3.7,1.6; stroke-dashoffset: 0; stroke: #ff7f0e; stroke-opacity: 0.6"/>
   </g>
   <g id="line2d_97">
    <path d="M 103.827273 288.948087 
L 145.331405 295.05421 
L 186.835537 294.139794 
L 228.339669 295.244581 
L 269.843802 295.143547 
L 311.347934 286.146916 
L 352.852066 274.511353 
L 394.356198 256.783765 
L 435.860331 227.514519 
L 477.364463 186.106736 
L 518.868595 135.885608 
L 560.372727 78.471506 
" clip-path="url(#p690630e7e4)" style="fill: none; stroke-dasharray: 3.7,1.6; stroke-dashoffset: 0; stroke: #2ca02c; stroke-opacity: 0.6"/>
   </g>
   <g id="line2d_98">
    <path d="M 103.827273 288.948087 
L 145.331405 294.26541 
L 186.835537 296.39022 
L 228.339669 298.902483 
L 269.843802 295.3378 
L 311.347934 286.981915 
L 352.852066 271.415783 
L 394.356198 252.700344 
L 435.860331 224.165064 
L 477.364463 189.137326 
L 518.868595 144.329503 
L 560.372727 93.362482 
" clip-path="url(#p690630e7e4)" style="fill: none; stroke-dasharray: 3.7,1.6; stroke-dashoffset: 0; stroke: #d62728; stroke-opacity: 0.6"/>
   </g>
   <g id="line2d_99">
    <path d="M 103.827273 288.948087 
L 145.331405 295.592689 
L 186.835537 299.056843 
L 228.339669 298.670531 
L 269.843802 295.104889 
L 311.347934 291.748305 
L 352.852066 280.275053 
L 394.356198 260.93806 
L 435.860331 233.808199 
L 477.364463 199.135518 
L 518.868595 153.586052 
L 560.372727 100.185731 
" clip-path="url(#p690630e7e4)" style="fill: none; stroke-dasharray: 3.7,1.6; stroke-dashoffset: 0; stroke: #9467bd; stroke-opacity: 0.6"/>
   </g>
   <g id="line2d_100">
    <path d="M 103.827273 288.948087 
L 145.331405 296.109234 
L 186.835537 301.963643 
L 228.339669 299.298528 
L 269.843802 295.022911 
L 311.347934 291.921035 
L 352.852066 282.458855 
L 394.356198 265.374207 
L 435.860331 233.658226 
L 477.364463 196.37924 
L 518.868595 150.071133 
L 560.372727 94.592704 
" clip-path="url(#p690630e7e4)" style="fill: none; stroke-dasharray: 3.7,1.6; stroke-dashoffset: 0; stroke: #8c564b; stroke-opacity: 0.6"/>
   </g>
   <g id="line2d_101">
    <path d="M 103.827273 288.948087 
L 145.331405 297.184685 
L 186.835537 295.454187 
L 228.339669 298.4856 
L 269.843802 294.924482 
L 311.347934 290.201 
L 352.852066 278.339517 
L 394.356198 258.451295 
L 435.860331 229.624704 
L 477.364463 192.135015 
L 518.868595 145.036051 
L 560.372727 87.297738 
" clip-path="url(#p690630e7e4)" style="fill: none; stroke-dasharray: 3.7,1.6; stroke-dashoffset: 0; stroke: #e377c2; stroke-opacity: 0.6"/>
   </g>
   <g id="line2d_102">
    <path d="M 103.827273 288.948087 
L 145.331405 295.088893 
L 186.835537 295.649263 
L 228.339669 294.89679 
L 269.843802 288.742254 
L 311.347934 281.652096 
L 352.852066 269.088863 
L 394.356198 252.201757 
L 435.860331 226.344341 
L 477.364463 193.209369 
L 518.868595 149.505784 
L 560.372727 96.2553 
" clip-path="url(#p690630e7e4)" style="fill: none; stroke-dasharray: 3.7,1.6; stroke-dashoffset: 0; stroke: #7f7f7f; stroke-opacity: 0.6"/>
   </g>
   <g id="line2d_103">
    <path d="M 103.827273 288.948087 
L 145.331405 294.723007 
L 186.835537 295.862982 
L 228.339669 300.604559 
L 269.843802 295.142862 
L 311.347934 288.581176 
L 352.852066 276.177238 
L 394.356198 258.278977 
L 435.860331 229.200693 
L 477.364463 192.32872 
L 518.868595 142.782884 
L 560.372727 90.675982 
" clip-path="url(#p690630e7e4)" style="fill: none; stroke-dasharray: 3.7,1.6; stroke-dashoffset: 0; stroke: #bcbd22; stroke-opacity: 0.6"/>
   </g>
   <g id="line2d_104">
    <path d="M 103.827273 288.948087 
L 145.331405 292.419803 
L 186.835537 296.268349 
L 228.339669 297.492813 
L 269.843802 295.891633 
L 311.347934 290.297235 
L 352.852066 277.651339 
L 394.356198 256.019777 
L 435.860331 224.072255 
L 477.364463 185.859705 
L 518.868595 137.746706 
L 560.372727 79.971242 
" clip-path="url(#p690630e7e4)" style="fill: none; stroke-dasharray: 3.7,1.6; stroke-dashoffset: 0; stroke: #17becf; stroke-opacity: 0.6"/>
   </g>
   <g id="line2d_105">
    <path d="M 103.827273 288.948087 
L 145.331405 296.158312 
L 186.835537 296.529638 
L 228.339669 296.406259 
L 269.843802 293.954726 
L 311.347934 289.847589 
L 352.852066 272.860821 
L 394.356198 255.741353 
L 435.860331 228.22751 
L 477.364463 188.6933 
L 518.868595 142.025202 
L 560.372727 89.424374 
" clip-path="url(#p690630e7e4)" style="fill: none; stroke-dasharray: 3.7,1.6; stroke-dashoffset: 0; stroke: #1f77b4; stroke-opacity: 0.6"/>
   </g>
   <g id="line2d_106">
    <path d="M 103.827273 288.948087 
L 145.331405 292.900705 
L 186.835537 293.892351 
L 228.339669 296.639033 
L 269.843802 290.06076 
L 311.347934 282.140538 
L 352.852066 267.642454 
L 394.356198 245.899578 
L 435.860331 221.352168 
L 477.364463 184.486912 
L 518.868595 141.453136 
L 560.372727 89.417931 
" clip-path="url(#p690630e7e4)" style="fill: none; stroke-dasharray: 3.7,1.6; stroke-dashoffset: 0; stroke: #ff7f0e; stroke-opacity: 0.6"/>
   </g>
   <g id="line2d_107">
    <path d="M 103.827273 288.948087 
L 145.331405 292.25804 
L 186.835537 294.221361 
L 228.339669 291.358429 
L 269.843802 290.576619 
L 311.347934 284.292947 
L 352.852066 275.336207 
L 394.356198 258.935899 
L 435.860331 233.234214 
L 477.364463 197.824689 
L 518.868595 153.991557 
L 560.372727 98.848992 
" clip-path="url(#p690630e7e4)" style="fill: none; stroke-dasharray: 3.7,1.6; stroke-dashoffset: 0; stroke: #2ca02c; stroke-opacity: 0.6"/>
   </g>
   <g id="line2d_108">
    <path d="M 103.827273 288.948087 
L 145.331405 298.098372 
L 186.835537 301.059963 
L 228.339669 304.659603 
L 269.843802 303.374135 
L 311.347934 292.463078 
L 352.852066 283.363768 
L 394.356198 266.712865 
L 435.860331 242.271287 
L 477.364463 207.771747 
L 518.868595 163.354212 
L 560.372727 104.896875 
" clip-path="url(#p690630e7e4)" style="fill: none; stroke-dasharray: 3.7,1.6; stroke-dashoffset: 0; stroke: #d62728; stroke-opacity: 0.6"/>
   </g>
   <g id="line2d_109">
    <path d="M 103.827273 288.948087 
L 145.331405 292.834218 
L 186.835537 294.958617 
L 228.339669 298.136576 
L 269.843802 297.33626 
L 311.347934 290.774162 
L 352.852066 276.569171 
L 394.356198 253.400723 
L 435.860331 222.924834 
L 477.364463 179.362176 
L 518.868595 130.906047 
L 560.372727 73.761459 
" clip-path="url(#p690630e7e4)" style="fill: none; stroke-dasharray: 3.7,1.6; stroke-dashoffset: 0; stroke: #9467bd; stroke-opacity: 0.6"/>
   </g>
   <g id="line2d_110">
    <path d="M 103.827273 288.948087 
L 145.331405 295.22886 
L 186.835537 301.474515 
L 228.339669 304.943922 
L 269.843802 304.948309 
L 311.347934 299.556801 
L 352.852066 287.824865 
L 394.356198 267.284245 
L 435.860331 234.289376 
L 477.364463 194.678123 
L 518.868595 146.115477 
L 560.372727 86.901967 
" clip-path="url(#p690630e7e4)" style="fill: none; stroke-dasharray: 3.7,1.6; stroke-dashoffset: 0; stroke: #8c564b; stroke-opacity: 0.6"/>
   </g>
   <g id="line2d_111">
    <path d="M 103.827273 288.948087 
L 145.331405 297.850655 
L 186.835537 303.301753 
L 228.339669 306.213077 
L 269.843802 304.176644 
L 311.347934 299.335267 
L 352.852066 288.655203 
L 394.356198 268.940945 
L 435.860331 240.17385 
L 477.364463 200.668703 
L 518.868595 150.727781 
L 560.372727 89.826177 
" clip-path="url(#p690630e7e4)" style="fill: none; stroke-dasharray: 3.7,1.6; stroke-dashoffset: 0; stroke: #e377c2; stroke-opacity: 0.6"/>
   </g>
   <g id="line2d_112">
    <path d="M 103.827273 288.948087 
L 145.331405 298.171165 
L 186.835537 304.462197 
L 228.339669 303.260627 
L 269.843802 299.27632 
L 311.347934 291.612451 
L 352.852066 277.622687 
L 394.356198 253.327107 
L 435.860331 227.531655 
L 477.364463 189.659355 
L 518.868595 143.093798 
L 560.372727 87.799615 
" clip-path="url(#p690630e7e4)" style="fill: none; stroke-dasharray: 3.7,1.6; stroke-dashoffset: 0; stroke: #7f7f7f; stroke-opacity: 0.6"/>
   </g>
   <g id="line2d_113">
    <path d="M 103.827273 288.948087 
L 145.331405 295.935408 
L 186.835537 295.375636 
L 228.339669 297.640045 
L 269.843802 292.954811 
L 311.347934 286.830022 
L 352.852066 273.852785 
L 394.356198 254.68249 
L 435.860331 228.497024 
L 477.364463 191.364722 
L 518.868595 143.020182 
L 560.372727 85.344792 
" clip-path="url(#p690630e7e4)" style="fill: none; stroke-dasharray: 3.7,1.6; stroke-dashoffset: 0; stroke: #bcbd22; stroke-opacity: 0.6"/>
   </g>
   <g id="line2d_114">
    <path d="M 103.827273 288.948087 
L 145.331405 297.536451 
L 186.835537 301.560743 
L 228.339669 300.06512 
L 269.843802 296.326337 
L 311.347934 289.178877 
L 352.852066 274.207019 
L 394.356198 249.877304 
L 435.860331 217.25449 
L 477.364463 172.890556 
L 518.868595 119.968121 
L 560.372727 55.8 
" clip-path="url(#p690630e7e4)" style="fill: none; stroke-dasharray: 3.7,1.6; stroke-dashoffset: 0; stroke: #17becf; stroke-opacity: 0.6"/>
   </g>
   <g id="line2d_115">
    <path d="M 103.827273 288.948087 
L 145.331405 295.451894 
L 186.835537 298.829203 
L 228.339669 299.644567 
L 269.843802 296.883899 
L 311.347934 289.550477 
L 352.852066 276.571011 
L 394.356198 257.011215 
L 435.860331 228.320547 
L 477.364463 190.527717 
L 518.868595 142.596572 
L 560.372727 86.049684 
" clip-path="url(#p690630e7e4)" style="fill: none; stroke: #000000; stroke-width: 2.5; stroke-linecap: square"/>
   </g>
   <g id="patch_3">
    <path d="M 81 320.4 
L 81 43.2 
" style="fill: none; stroke: #000000; stroke-width: 0.8; stroke-linejoin: miter; stroke-linecap: square"/>
   </g>
   <g id="patch_4">
    <path d="M 583.2 320.4 
L 583.2 43.2 
" style="fill: none; stroke: #000000; stroke-width: 0.8; stroke-linejoin: miter; stroke-linecap: square"/>
   </g>
   <g id="patch_5">
    <path d="M 81 320.4 
L 583.2 320.4 
" style="fill: none; stroke: #000000; stroke-width: 0.8; stroke-linejoin: miter; stroke-linecap: square"/>
   </g>
   <g id="patch_6">
    <path d="M 81 43.2 
L 583.2 43.2 
" style="fill: none; stroke: #000000; stroke-width: 0.8; stroke-linejoin: miter; stroke-linecap: square"/>
   </g>
   <g id="legend_1">
    <g id="patch_7">
     <path d="M 88 65.878125 
L 161.065625 65.878125 
Q 163.065625 65.878125 163.065625 63.878125 
L 163.065625 50.2 
Q 163.065625 48.2 161.065625 48.2 
L 88 48.2 
Q 86 48.2 86 50.2 
L 86 63.878125 
Q 86 65.878125 88 65.878125 
z
" style="fill: #ffffff; opacity: 0.8; stroke: #cccccc; stroke-linejoin: miter"/>
    </g>
    <g id="line2d_116">
     <path d="M 90 56.298437 
L 100 56.298437 
L 110 56.298437 
" style="fill: none; stroke: #000000; stroke-width: 2.5; stroke-linecap: square"/>
    </g>
    <g id="text_17">
     <!-- Average -->
     <g transform="translate(118 59.798437) scale(0.1 -0.1)">
      <defs>
       <path id="DejaVuSans-41" d="M 2188 4044 
L 1331 1722 
L 3047 1722 
L 2188 4044 
z
M 1831 4666 
L 2547 4666 
L 4325 0 
L 3669 0 
L 3244 1197 
L 1141 1197 
L 716 0 
L 50 0 
L 1831 4666 
z
" transform="scale(0.015625)"/>
       <path id="DejaVuSans-67" d="M 2906 1791 
Q 2906 2416 2648 2759 
Q 2391 3103 1925 3103 
Q 1463 3103 1205 2759 
Q 947 2416 947 1791 
Q 947 1169 1205 825 
Q 1463 481 1925 481 
Q 2391 481 2648 825 
Q 2906 1169 2906 1791 
z
M 3481 434 
Q 3481 -459 3084 -895 
Q 2688 -1331 1869 -1331 
Q 1566 -1331 1297 -1286 
Q 1028 -1241 775 -1147 
L 775 -588 
Q 1028 -725 1275 -790 
Q 1522 -856 1778 -856 
Q 2344 -856 2625 -561 
Q 2906 -266 2906 331 
L 2906 616 
Q 2728 306 2450 153 
Q 2172 0 1784 0 
Q 1141 0 747 490 
Q 353 981 353 1791 
Q 353 2603 747 3093 
Q 1141 3584 1784 3584 
Q 2172 3584 2450 3431 
Q 2728 3278 2906 2969 
L 2906 3500 
L 3481 3500 
L 3481 434 
z
" transform="scale(0.015625)"/>
      </defs>
      <use xlink:href="#DejaVuSans-41"/>
      <use xlink:href="#DejaVuSans-76" x="62.533203"/>
      <use xlink:href="#DejaVuSans-65" x="121.712891"/>
      <use xlink:href="#DejaVuSans-72" x="183.236328"/>
      <use xlink:href="#DejaVuSans-61" x="224.349609"/>
      <use xlink:href="#DejaVuSans-67" x="285.628906"/>
      <use xlink:href="#DejaVuSans-65" x="349.105469"/>
     </g>
    </g>
   </g>
  </g>
 </g>
 <defs>
  <clipPath id="p690630e7e4">
   <rect x="81" y="43.2" width="502.2" height="277.2"/>
  </clipPath>
 </defs>
</svg>
