<?xml version="1.0" encoding="utf-8" standalone="no"?>
<!DOCTYPE svg PUBLIC "-//W3C//DTD SVG 1.1//EN"
  "http://www.w3.org/Graphics/SVG/1.1/DTD/svg11.dtd">
<svg xmlns:xlink="http://www.w3.org/1999/xlink" width="648pt" height="360pt" viewBox="0 0 648 360" xmlns="http://www.w3.org/2000/svg" version="1.1">
 <metadata>
  <rdf:RDF xmlns:dc="http://purl.org/dc/elements/1.1/" xmlns:cc="http://creativecommons.org/ns#" xmlns:rdf="http://www.w3.org/1999/02/22-rdf-syntax-ns#">
   <cc:Work>
    <dc:type rdf:resource="http://purl.org/dc/dcmitype/StillImage"/>
    <dc:date>2025-09-17T21:29:18.501220</dc:date>
    <dc:format>image/svg+xml</dc:format>
    <dc:creator>
     <cc:Agent>
      <dc:title>Matplotlib v3.8.0, https://matplotlib.org/</dc:title>
     </cc:Agent>
    </dc:creator>
   </cc:Work>
  </rdf:RDF>
 </metadata>
 <defs>
  <style type="text/css">*{stroke-linejoin: round; stroke-linecap: butt}</style>
 </defs>
 <g id="figure_1">
  <g id="patch_1">
   <path d="M 0 360 
L 648 360 
L 648 0 
L 0 0 
z
" style="fill: #ffffff"/>
  </g>
  <g id="axes_1">
   <g id="patch_2">
    <path d="M 81 320.4 
L 583.2 320.4 
L 583.2 43.2 
L 81 43.2 
z
" style="fill: #ffffff"/>
   </g>
   <g id="matplotlib.axis_1">
    <g id="xtick_1">
     <g id="line2d_1">
      <defs>
       <path id="m3189c1a357" d="M 0 0 
L 0 3.5 
" style="stroke: #000000; stroke-width: 0.8"/>
      </defs>
      <g>
       <use xlink:href="#m3189c1a357" x="145.331405" y="320.4" style="stroke: #000000; stroke-width: 0.8"/>
      </g>
     </g>
     <g id="text_1">
      <!-- 2012 -->
      <g transform="translate(130.061405 336.518125) scale(0.12 -0.12)">
       <defs>
        <path id="DejaVuSans-32" d="M 1228 531 
L 3431 531 
L 3431 0 
L 469 0 
L 469 531 
Q 828 903 1448 1529 
Q 2069 2156 2228 2338 
Q 2531 2678 2651 2914 
Q 2772 3150 2772 3378 
Q 2772 3750 2511 3984 
Q 2250 4219 1831 4219 
Q 1534 4219 1204 4116 
Q 875 4013 500 3803 
L 500 4441 
Q 881 4594 1212 4672 
Q 1544 4750 1819 4750 
Q 2544 4750 2975 4387 
Q 3406 4025 3406 3419 
Q 3406 3131 3298 2873 
Q 3191 2616 2906 2266 
Q 2828 2175 2409 1742 
Q 1991 1309 1228 531 
z
" transform="scale(0.015625)"/>
        <path id="DejaVuSans-30" d="M 2034 4250 
Q 1547 4250 1301 3770 
Q 1056 3291 1056 2328 
Q 1056 1369 1301 889 
Q 1547 409 2034 409 
Q 2525 409 2770 889 
Q 3016 1369 3016 2328 
Q 3016 3291 2770 3770 
Q 2525 4250 2034 4250 
z
M 2034 4750 
Q 2819 4750 3233 4129 
Q 3647 3509 3647 2328 
Q 3647 1150 3233 529 
Q 2819 -91 2034 -91 
Q 1250 -91 836 529 
Q 422 1150 422 2328 
Q 422 3509 836 4129 
Q 1250 4750 2034 4750 
z
" transform="scale(0.015625)"/>
        <path id="DejaVuSans-31" d="M 794 531 
L 1825 531 
L 1825 4091 
L 703 3866 
L 703 4441 
L 1819 4666 
L 2450 4666 
L 2450 531 
L 3481 531 
L 3481 0 
L 794 0 
L 794 531 
z
" transform="scale(0.015625)"/>
       </defs>
       <use xlink:href="#DejaVuSans-32"/>
       <use xlink:href="#DejaVuSans-30" x="63.623047"/>
       <use xlink:href="#DejaVuSans-31" x="127.246094"/>
       <use xlink:href="#DejaVuSans-32" x="190.869141"/>
      </g>
     </g>
    </g>
    <g id="xtick_2">
     <g id="line2d_2">
      <g>
       <use xlink:href="#m3189c1a357" x="228.339669" y="320.4" style="stroke: #000000; stroke-width: 0.8"/>
      </g>
     </g>
     <g id="text_2">
      <!-- 2014 -->
      <g transform="translate(213.069669 336.518125) scale(0.12 -0.12)">
       <defs>
        <path id="DejaVuSans-34" d="M 2419 4116 
L 825 1625 
L 2419 1625 
L 2419 4116 
z
M 2253 4666 
L 3047 4666 
L 3047 1625 
L 3713 1625 
L 3713 1100 
L 3047 1100 
L 3047 0 
L 2419 0 
L 2419 1100 
L 313 1100 
L 313 1709 
L 2253 4666 
z
" transform="scale(0.015625)"/>
       </defs>
       <use xlink:href="#DejaVuSans-32"/>
       <use xlink:href="#DejaVuSans-30" x="63.623047"/>
       <use xlink:href="#DejaVuSans-31" x="127.246094"/>
       <use xlink:href="#DejaVuSans-34" x="190.869141"/>
      </g>
     </g>
    </g>
    <g id="xtick_3">
     <g id="line2d_3">
      <g>
       <use xlink:href="#m3189c1a357" x="311.347934" y="320.4" style="stroke: #000000; stroke-width: 0.8"/>
      </g>
     </g>
     <g id="text_3">
      <!-- 2016 -->
      <g transform="translate(296.077934 336.518125) scale(0.12 -0.12)">
       <defs>
        <path id="DejaVuSans-36" d="M 2113 2584 
Q 1688 2584 1439 2293 
Q 1191 2003 1191 1497 
Q 1191 994 1439 701 
Q 1688 409 2113 409 
Q 2538 409 2786 701 
Q 3034 994 3034 1497 
Q 3034 2003 2786 2293 
Q 2538 2584 2113 2584 
z
M 3366 4563 
L 3366 3988 
Q 3128 4100 2886 4159 
Q 2644 4219 2406 4219 
Q 1781 4219 1451 3797 
Q 1122 3375 1075 2522 
Q 1259 2794 1537 2939 
Q 1816 3084 2150 3084 
Q 2853 3084 3261 2657 
Q 3669 2231 3669 1497 
Q 3669 778 3244 343 
Q 2819 -91 2113 -91 
Q 1303 -91 875 529 
Q 447 1150 447 2328 
Q 447 3434 972 4092 
Q 1497 4750 2381 4750 
Q 2619 4750 2861 4703 
Q 3103 4656 3366 4563 
z
" transform="scale(0.015625)"/>
       </defs>
       <use xlink:href="#DejaVuSans-32"/>
       <use xlink:href="#DejaVuSans-30" x="63.623047"/>
       <use xlink:href="#DejaVuSans-31" x="127.246094"/>
       <use xlink:href="#DejaVuSans-36" x="190.869141"/>
      </g>
     </g>
    </g>
    <g id="xtick_4">
     <g id="line2d_4">
      <g>
       <use xlink:href="#m3189c1a357" x="394.356198" y="320.4" style="stroke: #000000; stroke-width: 0.8"/>
      </g>
     </g>
     <g id="text_4">
      <!-- 2018 -->
      <g transform="translate(379.086198 336.518125) scale(0.12 -0.12)">
       <defs>
        <path id="DejaVuSans-38" d="M 2034 2216 
Q 1584 2216 1326 1975 
Q 1069 1734 1069 1313 
Q 1069 891 1326 650 
Q 1584 409 2034 409 
Q 2484 409 2743 651 
Q 3003 894 3003 1313 
Q 3003 1734 2745 1975 
Q 2488 2216 2034 2216 
z
M 1403 2484 
Q 997 2584 770 2862 
Q 544 3141 544 3541 
Q 544 4100 942 4425 
Q 1341 4750 2034 4750 
Q 2731 4750 3128 4425 
Q 3525 4100 3525 3541 
Q 3525 3141 3298 2862 
Q 3072 2584 2669 2484 
Q 3125 2378 3379 2068 
Q 3634 1759 3634 1313 
Q 3634 634 3220 271 
Q 2806 -91 2034 -91 
Q 1263 -91 848 271 
Q 434 634 434 1313 
Q 434 1759 690 2068 
Q 947 2378 1403 2484 
z
M 1172 3481 
Q 1172 3119 1398 2916 
Q 1625 2713 2034 2713 
Q 2441 2713 2670 2916 
Q 2900 3119 2900 3481 
Q 2900 3844 2670 4047 
Q 2441 4250 2034 4250 
Q 1625 4250 1398 4047 
Q 1172 3844 1172 3481 
z
" transform="scale(0.015625)"/>
       </defs>
       <use xlink:href="#DejaVuSans-32"/>
       <use xlink:href="#DejaVuSans-30" x="63.623047"/>
       <use xlink:href="#DejaVuSans-31" x="127.246094"/>
       <use xlink:href="#DejaVuSans-38" x="190.869141"/>
      </g>
     </g>
    </g>
    <g id="xtick_5">
     <g id="line2d_5">
      <g>
       <use xlink:href="#m3189c1a357" x="477.364463" y="320.4" style="stroke: #000000; stroke-width: 0.8"/>
      </g>
     </g>
     <g id="text_5">
      <!-- 2020 -->
      <g transform="translate(462.094463 336.518125) scale(0.12 -0.12)">
       <use xlink:href="#DejaVuSans-32"/>
       <use xlink:href="#DejaVuSans-30" x="63.623047"/>
       <use xlink:href="#DejaVuSans-32" x="127.246094"/>
       <use xlink:href="#DejaVuSans-30" x="190.869141"/>
      </g>
     </g>
    </g>
    <g id="xtick_6">
     <g id="line2d_6">
      <g>
       <use xlink:href="#m3189c1a357" x="560.372727" y="320.4" style="stroke: #000000; stroke-width: 0.8"/>
      </g>
     </g>
     <g id="text_6">
      <!-- 2022 -->
      <g transform="translate(545.102727 336.518125) scale(0.12 -0.12)">
       <use xlink:href="#DejaVuSans-32"/>
       <use xlink:href="#DejaVuSans-30" x="63.623047"/>
       <use xlink:href="#DejaVuSans-32" x="127.246094"/>
       <use xlink:href="#DejaVuSans-32" x="190.869141"/>
      </g>
     </g>
    </g>
    <g id="text_7">
     <!-- Year -->
     <g transform="translate(316.21875 354.411406) scale(0.15 -0.15)">
      <defs>
       <path id="DejaVuSans-59" d="M -13 4666 
L 666 4666 
L 1959 2747 
L 3244 4666 
L 3922 4666 
L 2272 2222 
L 2272 0 
L 1638 0 
L 1638 2222 
L -13 4666 
z
" transform="scale(0.015625)"/>
       <path id="DejaVuSans-65" d="M 3597 1894 
L 3597 1613 
L 953 1613 
Q 991 1019 1311 708 
Q 1631 397 2203 397 
Q 2534 397 2845 478 
Q 3156 559 3463 722 
L 3463 178 
Q 3153 47 2828 -22 
Q 2503 -91 2169 -91 
Q 1331 -91 842 396 
Q 353 884 353 1716 
Q 353 2575 817 3079 
Q 1281 3584 2069 3584 
Q 2775 3584 3186 3129 
Q 3597 2675 3597 1894 
z
M 3022 2063 
Q 3016 2534 2758 2815 
Q 2500 3097 2075 3097 
Q 1594 3097 1305 2825 
Q 1016 2553 972 2059 
L 3022 2063 
z
" transform="scale(0.015625)"/>
       <path id="DejaVuSans-61" d="M 2194 1759 
Q 1497 1759 1228 1600 
Q 959 1441 959 1056 
Q 959 750 1161 570 
Q 1363 391 1709 391 
Q 2188 391 2477 730 
Q 2766 1069 2766 1631 
L 2766 1759 
L 2194 1759 
z
M 3341 1997 
L 3341 0 
L 2766 0 
L 2766 531 
Q 2569 213 2275 61 
Q 1981 -91 1556 -91 
Q 1019 -91 701 211 
Q 384 513 384 1019 
Q 384 1609 779 1909 
Q 1175 2209 1959 2209 
L 2766 2209 
L 2766 2266 
Q 2766 2663 2505 2880 
Q 2244 3097 1772 3097 
Q 1472 3097 1187 3025 
Q 903 2953 641 2809 
L 641 3341 
Q 956 3463 1253 3523 
Q 1550 3584 1831 3584 
Q 2591 3584 2966 3190 
Q 3341 2797 3341 1997 
z
" transform="scale(0.015625)"/>
       <path id="DejaVuSans-72" d="M 2631 2963 
Q 2534 3019 2420 3045 
Q 2306 3072 2169 3072 
Q 1681 3072 1420 2755 
Q 1159 2438 1159 1844 
L 1159 0 
L 581 0 
L 581 3500 
L 1159 3500 
L 1159 2956 
Q 1341 3275 1631 3429 
Q 1922 3584 2338 3584 
Q 2397 3584 2469 3576 
Q 2541 3569 2628 3553 
L 2631 2963 
z
" transform="scale(0.015625)"/>
      </defs>
      <use xlink:href="#DejaVuSans-59"/>
      <use xlink:href="#DejaVuSans-65" x="47.833984"/>
      <use xlink:href="#DejaVuSans-61" x="109.357422"/>
      <use xlink:href="#DejaVuSans-72" x="170.636719"/>
     </g>
    </g>
   </g>
   <g id="matplotlib.axis_2">
    <g id="ytick_1">
     <g id="line2d_7">
      <defs>
       <path id="m74b79b7708" d="M 0 0 
L -3.5 0 
" style="stroke: #000000; stroke-width: 0.8"/>
      </defs>
      <g>
       <use xlink:href="#m74b79b7708" x="81" y="304.663111" style="stroke: #000000; stroke-width: 0.8"/>
      </g>
     </g>
     <g id="text_8">
      <!-- 20 -->
      <g transform="translate(58.73 309.222173) scale(0.12 -0.12)">
       <use xlink:href="#DejaVuSans-32"/>
       <use xlink:href="#DejaVuSans-30" x="63.623047"/>
      </g>
     </g>
    </g>
    <g id="ytick_2">
     <g id="line2d_8">
      <g>
       <use xlink:href="#m74b79b7708" x="81" y="252.381626" style="stroke: #000000; stroke-width: 0.8"/>
      </g>
     </g>
     <g id="text_9">
      <!-- 25 -->
      <g transform="translate(58.73 256.940688) scale(0.12 -0.12)">
       <defs>
        <path id="DejaVuSans-35" d="M 691 4666 
L 3169 4666 
L 3169 4134 
L 1269 4134 
L 1269 2991 
Q 1406 3038 1543 3061 
Q 1681 3084 1819 3084 
Q 2600 3084 3056 2656 
Q 3513 2228 3513 1497 
Q 3513 744 3044 326 
Q 2575 -91 1722 -91 
Q 1428 -91 1123 -41 
Q 819 9 494 109 
L 494 744 
Q 775 591 1075 516 
Q 1375 441 1709 441 
Q 2250 441 2565 725 
Q 2881 1009 2881 1497 
Q 2881 1984 2565 2268 
Q 2250 2553 1709 2553 
Q 1456 2553 1204 2497 
Q 953 2441 691 2322 
L 691 4666 
z
" transform="scale(0.015625)"/>
       </defs>
       <use xlink:href="#DejaVuSans-32"/>
       <use xlink:href="#DejaVuSans-35" x="63.623047"/>
      </g>
     </g>
    </g>
    <g id="ytick_3">
     <g id="line2d_9">
      <g>
       <use xlink:href="#m74b79b7708" x="81" y="200.10014" style="stroke: #000000; stroke-width: 0.8"/>
      </g>
     </g>
     <g id="text_10">
      <!-- 30 -->
      <g transform="translate(58.73 204.659203) scale(0.12 -0.12)">
       <defs>
        <path id="DejaVuSans-33" d="M 2597 2516 
Q 3050 2419 3304 2112 
Q 3559 1806 3559 1356 
Q 3559 666 3084 287 
Q 2609 -91 1734 -91 
Q 1441 -91 1130 -33 
Q 819 25 488 141 
L 488 750 
Q 750 597 1062 519 
Q 1375 441 1716 441 
Q 2309 441 2620 675 
Q 2931 909 2931 1356 
Q 2931 1769 2642 2001 
Q 2353 2234 1838 2234 
L 1294 2234 
L 1294 2753 
L 1863 2753 
Q 2328 2753 2575 2939 
Q 2822 3125 2822 3475 
Q 2822 3834 2567 4026 
Q 2313 4219 1838 4219 
Q 1578 4219 1281 4162 
Q 984 4106 628 3988 
L 628 4550 
Q 988 4650 1302 4700 
Q 1616 4750 1894 4750 
Q 2613 4750 3031 4423 
Q 3450 4097 3450 3541 
Q 3450 3153 3228 2886 
Q 3006 2619 2597 2516 
z
" transform="scale(0.015625)"/>
       </defs>
       <use xlink:href="#DejaVuSans-33"/>
       <use xlink:href="#DejaVuSans-30" x="63.623047"/>
      </g>
     </g>
    </g>
    <g id="ytick_4">
     <g id="line2d_10">
      <g>
       <use xlink:href="#m74b79b7708" x="81" y="147.818655" style="stroke: #000000; stroke-width: 0.8"/>
      </g>
     </g>
     <g id="text_11">
      <!-- 35 -->
      <g transform="translate(58.73 152.377717) scale(0.12 -0.12)">
       <use xlink:href="#DejaVuSans-33"/>
       <use xlink:href="#DejaVuSans-35" x="63.623047"/>
      </g>
     </g>
    </g>
    <g id="ytick_5">
     <g id="line2d_11">
      <g>
       <use xlink:href="#m74b79b7708" x="81" y="95.537169" style="stroke: #000000; stroke-width: 0.8"/>
      </g>
     </g>
     <g id="text_12">
      <!-- 40 -->
      <g transform="translate(58.73 100.096232) scale(0.12 -0.12)">
       <use xlink:href="#DejaVuSans-34"/>
       <use xlink:href="#DejaVuSans-30" x="63.623047"/>
      </g>
     </g>
    </g>
    <g id="ytick_6">
     <g id="line2d_12">
      <g>
       <use xlink:href="#m74b79b7708" x="81" y="43.255684" style="stroke: #000000; stroke-width: 0.8"/>
      </g>
     </g>
     <g id="text_13">
      <!-- 45 -->
      <g transform="translate(58.73 47.814747) scale(0.12 -0.12)">
       <use xlink:href="#DejaVuSans-34"/>
       <use xlink:href="#DejaVuSans-35" x="63.623047"/>
      </g>
     </g>
    </g>
    <g id="text_14">
     <!-- Total coral cover (%) -->
     <g transform="translate(51.610469 258.769922) rotate(-90) scale(0.15 -0.15)">
      <defs>
       <path id="DejaVuSans-54" d="M -19 4666 
L 3928 4666 
L 3928 4134 
L 2272 4134 
L 2272 0 
L 1638 0 
L 1638 4134 
L -19 4134 
L -19 4666 
z
" transform="scale(0.015625)"/>
       <path id="DejaVuSans-6f" d="M 1959 3097 
Q 1497 3097 1228 2736 
Q 959 2375 959 1747 
Q 959 1119 1226 758 
Q 1494 397 1959 397 
Q 2419 397 2687 759 
Q 2956 1122 2956 1747 
Q 2956 2369 2687 2733 
Q 2419 3097 1959 3097 
z
M 1959 3584 
Q 2709 3584 3137 3096 
Q 3566 2609 3566 1747 
Q 3566 888 3137 398 
Q 2709 -91 1959 -91 
Q 1206 -91 779 398 
Q 353 888 353 1747 
Q 353 2609 779 3096 
Q 1206 3584 1959 3584 
z
" transform="scale(0.015625)"/>
       <path id="DejaVuSans-74" d="M 1172 4494 
L 1172 3500 
L 2356 3500 
L 2356 3053 
L 1172 3053 
L 1172 1153 
Q 1172 725 1289 603 
Q 1406 481 1766 481 
L 2356 481 
L 2356 0 
L 1766 0 
Q 1100 0 847 248 
Q 594 497 594 1153 
L 594 3053 
L 172 3053 
L 172 3500 
L 594 3500 
L 594 4494 
L 1172 4494 
z
" transform="scale(0.015625)"/>
       <path id="DejaVuSans-6c" d="M 603 4863 
L 1178 4863 
L 1178 0 
L 603 0 
L 603 4863 
z
" transform="scale(0.015625)"/>
       <path id="DejaVuSans-20" transform="scale(0.015625)"/>
       <path id="DejaVuSans-63" d="M 3122 3366 
L 3122 2828 
Q 2878 2963 2633 3030 
Q 2388 3097 2138 3097 
Q 1578 3097 1268 2742 
Q 959 2388 959 1747 
Q 959 1106 1268 751 
Q 1578 397 2138 397 
Q 2388 397 2633 464 
Q 2878 531 3122 666 
L 3122 134 
Q 2881 22 2623 -34 
Q 2366 -91 2075 -91 
Q 1284 -91 818 406 
Q 353 903 353 1747 
Q 353 2603 823 3093 
Q 1294 3584 2113 3584 
Q 2378 3584 2631 3529 
Q 2884 3475 3122 3366 
z
" transform="scale(0.015625)"/>
       <path id="DejaVuSans-76" d="M 191 3500 
L 800 3500 
L 1894 563 
L 2988 3500 
L 3597 3500 
L 2284 0 
L 1503 0 
L 191 3500 
z
" transform="scale(0.015625)"/>
       <path id="DejaVuSans-28" d="M 1984 4856 
Q 1566 4138 1362 3434 
Q 1159 2731 1159 2009 
Q 1159 1288 1364 580 
Q 1569 -128 1984 -844 
L 1484 -844 
Q 1016 -109 783 600 
Q 550 1309 550 2009 
Q 550 2706 781 3412 
Q 1013 4119 1484 4856 
L 1984 4856 
z
" transform="scale(0.015625)"/>
       <path id="DejaVuSans-25" d="M 4653 2053 
Q 4381 2053 4226 1822 
Q 4072 1591 4072 1178 
Q 4072 772 4226 539 
Q 4381 306 4653 306 
Q 4919 306 5073 539 
Q 5228 772 5228 1178 
Q 5228 1588 5073 1820 
Q 4919 2053 4653 2053 
z
M 4653 2450 
Q 5147 2450 5437 2106 
Q 5728 1763 5728 1178 
Q 5728 594 5436 251 
Q 5144 -91 4653 -91 
Q 4153 -91 3862 251 
Q 3572 594 3572 1178 
Q 3572 1766 3864 2108 
Q 4156 2450 4653 2450 
z
M 1428 4353 
Q 1159 4353 1004 4120 
Q 850 3888 850 3481 
Q 850 3069 1003 2837 
Q 1156 2606 1428 2606 
Q 1700 2606 1854 2837 
Q 2009 3069 2009 3481 
Q 2009 3884 1853 4118 
Q 1697 4353 1428 4353 
z
M 4250 4750 
L 4750 4750 
L 1831 -91 
L 1331 -91 
L 4250 4750 
z
M 1428 4750 
Q 1922 4750 2215 4408 
Q 2509 4066 2509 3481 
Q 2509 2891 2217 2550 
Q 1925 2209 1428 2209 
Q 931 2209 642 2551 
Q 353 2894 353 3481 
Q 353 4063 643 4406 
Q 934 4750 1428 4750 
z
" transform="scale(0.015625)"/>
       <path id="DejaVuSans-29" d="M 513 4856 
L 1013 4856 
Q 1481 4119 1714 3412 
Q 1947 2706 1947 2009 
Q 1947 1309 1714 600 
Q 1481 -109 1013 -844 
L 513 -844 
Q 928 -128 1133 580 
Q 1338 1288 1338 2009 
Q 1338 2731 1133 3434 
Q 928 4138 513 4856 
z
" transform="scale(0.015625)"/>
      </defs>
      <use xlink:href="#DejaVuSans-54"/>
      <use xlink:href="#DejaVuSans-6f" x="44.083984"/>
      <use xlink:href="#DejaVuSans-74" x="105.265625"/>
      <use xlink:href="#DejaVuSans-61" x="144.474609"/>
      <use xlink:href="#DejaVuSans-6c" x="205.753906"/>
      <use xlink:href="#DejaVuSans-20" x="233.537109"/>
      <use xlink:href="#DejaVuSans-63" x="265.324219"/>
      <use xlink:href="#DejaVuSans-6f" x="320.304688"/>
      <use xlink:href="#DejaVuSans-72" x="381.486328"/>
      <use xlink:href="#DejaVuSans-61" x="422.599609"/>
      <use xlink:href="#DejaVuSans-6c" x="483.878906"/>
      <use xlink:href="#DejaVuSans-20" x="511.662109"/>
      <use xlink:href="#DejaVuSans-63" x="543.449219"/>
      <use xlink:href="#DejaVuSans-6f" x="598.429688"/>
      <use xlink:href="#DejaVuSans-76" x="659.611328"/>
      <use xlink:href="#DejaVuSans-65" x="718.791016"/>
      <use xlink:href="#DejaVuSans-72" x="780.314453"/>
      <use xlink:href="#DejaVuSans-20" x="821.427734"/>
      <use xlink:href="#DejaVuSans-28" x="853.214844"/>
      <use xlink:href="#DejaVuSans-25" x="892.228516"/>
      <use xlink:href="#DejaVuSans-29" x="987.248047"/>
     </g>
    </g>
   </g>
   <g id="line2d_13">
    <path d="M 103.827273 307.8 
L 145.331405 299.517866 
L 186.835537 293.297523 
L 228.339669 282.854107 
L 269.843802 274.865267 
L 311.347934 260.152589 
L 352.852066 242.75254 
L 394.356198 214.317779 
L 435.860331 182.454099 
L 477.364463 146.608397 
L 518.868595 109.216517 
L 560.372727 67.864014 
" clip-path="url(#pf8b8e9b2ae)" style="fill: none; stroke-dasharray: 3.7,1.6; stroke-dashoffset: 0; stroke: #1f77b4; stroke-opacity: 0.6"/>
   </g>
   <g id="line2d_14">
    <path d="M 103.827273 307.8 
L 145.331405 302.487557 
L 186.835537 297.395112 
L 228.339669 284.906442 
L 269.843802 272.105541 
L 311.347934 252.275517 
L 352.852066 233.244553 
L 394.356198 209.884627 
L 435.860331 176.802822 
L 477.364463 143.757125 
L 518.868595 108.020897 
L 560.372727 66.68025 
" clip-path="url(#pf8b8e9b2ae)" style="fill: none; stroke-dasharray: 3.7,1.6; stroke-dashoffset: 0; stroke: #ff7f0e; stroke-opacity: 0.6"/>
   </g>
   <g id="line2d_15">
    <path d="M 103.827273 307.8 
L 145.331405 295.910486 
L 186.835537 291.891722 
L 228.339669 277.940342 
L 269.843802 267.001246 
L 311.347934 251.822857 
L 352.852066 225.443538 
L 394.356198 202.563001 
L 435.860331 171.749758 
L 477.364463 139.169835 
L 518.868595 96.977246 
L 560.372727 57.972212 
" clip-path="url(#pf8b8e9b2ae)" style="fill: none; stroke-dasharray: 3.7,1.6; stroke-dashoffset: 0; stroke: #2ca02c; stroke-opacity: 0.6"/>
   </g>
   <g id="line2d_16">
    <path d="M 103.827273 307.8 
L 145.331405 302.702926 
L 186.835537 296.194839 
L 228.339669 291.457466 
L 269.843802 281.86345 
L 311.347934 263.738896 
L 352.852066 246.813073 
L 394.356198 224.989027 
L 435.860331 196.182501 
L 477.364463 163.242089 
L 518.868595 124.585328 
L 560.372727 83.400028 
" clip-path="url(#pf8b8e9b2ae)" style="fill: none; stroke-dasharray: 3.7,1.6; stroke-dashoffset: 0; stroke: #d62728; stroke-opacity: 0.6"/>
   </g>
   <g id="line2d_17">
    <path d="M 103.827273 307.8 
L 145.331405 303.5102 
L 186.835537 300.872792 
L 228.339669 293.491583 
L 269.843802 284.060081 
L 311.347934 271.528667 
L 352.852066 254.08312 
L 394.356198 232.450378 
L 435.860331 200.622504 
L 477.364463 162.411824 
L 518.868595 122.782515 
L 560.372727 79.868153 
" clip-path="url(#pf8b8e9b2ae)" style="fill: none; stroke-dasharray: 3.7,1.6; stroke-dashoffset: 0; stroke: #9467bd; stroke-opacity: 0.6"/>
   </g>
   <g id="line2d_18">
    <path d="M 103.827273 307.8 
L 145.331405 302.528618 
L 186.835537 292.936186 
L 228.339669 285.057299 
L 269.843802 276.659183 
L 311.347934 264.20602 
L 352.852066 240.453315 
L 394.356198 220.563046 
L 435.860331 189.598695 
L 477.364463 158.670363 
L 518.868595 120.981319 
L 560.372727 77.202928 
" clip-path="url(#pf8b8e9b2ae)" style="fill: none; stroke-dasharray: 3.7,1.6; stroke-dashoffset: 0; stroke: #8c564b; stroke-opacity: 0.6"/>
   </g>
   <g id="line2d_19">
    <path d="M 103.827273 307.8 
L 145.331405 304.331333 
L 186.835537 300.223996 
L 228.339669 290.135673 
L 269.843802 277.427538 
L 311.347934 257.781049 
L 352.852066 235.994107 
L 394.356198 212.829297 
L 435.860331 184.016525 
L 477.364463 149.590652 
L 518.868595 106.409933 
L 560.372727 58.763049 
" clip-path="url(#pf8b8e9b2ae)" style="fill: none; stroke-dasharray: 3.7,1.6; stroke-dashoffset: 0; stroke: #e377c2; stroke-opacity: 0.6"/>
   </g>
   <g id="line2d_20">
    <path d="M 103.827273 307.8 
L 145.331405 302.663096 
L 186.835537 292.909614 
L 228.339669 284.165867 
L 269.843802 270.289723 
L 311.347934 251.102761 
L 352.852066 233.950669 
L 394.356198 209.268535 
L 435.860331 183.446047 
L 477.364463 152.465452 
L 518.868595 116.212493 
L 560.372727 77.565477 
" clip-path="url(#pf8b8e9b2ae)" style="fill: none; stroke-dasharray: 3.7,1.6; stroke-dashoffset: 0; stroke: #7f7f7f; stroke-opacity: 0.6"/>
   </g>
   <g id="line2d_21">
    <path d="M 103.827273 307.8 
L 145.331405 299.076452 
L 186.835537 290.286644 
L 228.339669 281.670974 
L 269.843802 269.39694 
L 311.347934 256.156606 
L 352.852066 235.506166 
L 394.356198 208.049994 
L 435.860331 179.256593 
L 477.364463 143.682592 
L 518.868595 106.641658 
L 560.372727 65.688121 
" clip-path="url(#pf8b8e9b2ae)" style="fill: none; stroke-dasharray: 3.7,1.6; stroke-dashoffset: 0; stroke: #bcbd22; stroke-opacity: 0.6"/>
   </g>
   <g id="line2d_22">
    <path d="M 103.827273 307.8 
L 145.331405 304.162261 
L 186.835537 301.088662 
L 228.339669 286.868984 
L 269.843802 278.778701 
L 311.347934 264.380032 
L 352.852066 242.892195 
L 394.356198 221.734049 
L 435.860331 192.830509 
L 477.364463 161.790044 
L 518.868595 122.500457 
L 560.372727 80.487537 
" clip-path="url(#pf8b8e9b2ae)" style="fill: none; stroke-dasharray: 3.7,1.6; stroke-dashoffset: 0; stroke: #17becf; stroke-opacity: 0.6"/>
   </g>
   <g id="line2d_23">
    <path d="M 103.827273 307.8 
L 145.331405 300.504888 
L 186.835537 294.579247 
L 228.339669 287.352039 
L 269.843802 275.238085 
L 311.347934 261.332468 
L 352.852066 242.036656 
L 394.356198 221.392657 
L 435.860331 197.082149 
L 477.364463 163.372754 
L 518.868595 126.144907 
L 560.372727 88.420969 
" clip-path="url(#pf8b8e9b2ae)" style="fill: none; stroke-dasharray: 3.7,1.6; stroke-dashoffset: 0; stroke: #1f77b4; stroke-opacity: 0.6"/>
   </g>
   <g id="line2d_24">
    <path d="M 103.827273 307.8 
L 145.331405 302.910904 
L 186.835537 297.835431 
L 228.339669 287.921666 
L 269.843802 279.35774 
L 311.347934 263.82887 
L 352.852066 243.227811 
L 394.356198 221.922818 
L 435.860331 196.674119 
L 477.364463 165.48981 
L 518.868595 130.170382 
L 560.372727 87.331009 
" clip-path="url(#pf8b8e9b2ae)" style="fill: none; stroke-dasharray: 3.7,1.6; stroke-dashoffset: 0; stroke: #ff7f0e; stroke-opacity: 0.6"/>
   </g>
   <g id="line2d_25">
    <path d="M 103.827273 307.8 
L 145.331405 303.133869 
L 186.835537 300.034452 
L 228.339669 294.224339 
L 269.843802 281.703156 
L 311.347934 266.79778 
L 352.852066 241.220693 
L 394.356198 215.559078 
L 435.860331 186.160971 
L 477.364463 150.366503 
L 518.868595 110.789512 
L 560.372727 67.160098 
" clip-path="url(#pf8b8e9b2ae)" style="fill: none; stroke-dasharray: 3.7,1.6; stroke-dashoffset: 0; stroke: #2ca02c; stroke-opacity: 0.6"/>
   </g>
   <g id="line2d_26">
    <path d="M 103.827273 307.8 
L 145.331405 301.829131 
L 186.835537 291.569692 
L 228.339669 280.709906 
L 269.843802 270.600011 
L 311.347934 255.013321 
L 352.852066 242.333622 
L 394.356198 222.527103 
L 435.860331 195.370511 
L 477.364463 165.941427 
L 518.868595 132.047166 
L 560.372727 92.527818 
" clip-path="url(#pf8b8e9b2ae)" style="fill: none; stroke-dasharray: 3.7,1.6; stroke-dashoffset: 0; stroke: #d62728; stroke-opacity: 0.6"/>
   </g>
   <g id="line2d_27">
    <path d="M 103.827273 307.8 
L 145.331405 300.924129 
L 186.835537 294.822576 
L 228.339669 287.515885 
L 269.843802 270.913974 
L 311.347934 258.081217 
L 352.852066 243.471898 
L 394.356198 221.214998 
L 435.860331 190.666516 
L 477.364463 151.137348 
L 518.868595 113.612555 
L 560.372727 75.488318 
" clip-path="url(#pf8b8e9b2ae)" style="fill: none; stroke-dasharray: 3.7,1.6; stroke-dashoffset: 0; stroke: #9467bd; stroke-opacity: 0.6"/>
   </g>
   <g id="line2d_28">
    <path d="M 103.827273 307.8 
L 145.331405 303.937038 
L 186.835537 298.566177 
L 228.339669 291.964289 
L 269.843802 278.873958 
L 311.347934 264.87152 
L 352.852066 244.528558 
L 394.356198 224.101376 
L 435.860331 193.477355 
L 477.364463 159.56176 
L 518.868595 115.708888 
L 560.372727 74.125952 
" clip-path="url(#pf8b8e9b2ae)" style="fill: none; stroke-dasharray: 3.7,1.6; stroke-dashoffset: 0; stroke: #8c564b; stroke-opacity: 0.6"/>
   </g>
   <g id="line2d_29">
    <path d="M 103.827273 307.8 
L 145.331405 301.289682 
L 186.835537 289.497448 
L 228.339669 277.336534 
L 269.843802 262.031775 
L 311.347934 243.813675 
L 352.852066 228.985839 
L 394.356198 208.938582 
L 435.860331 185.005067 
L 477.364463 152.879438 
L 518.868595 118.365109 
L 560.372727 78.573527 
" clip-path="url(#pf8b8e9b2ae)" style="fill: none; stroke-dasharray: 3.7,1.6; stroke-dashoffset: 0; stroke: #e377c2; stroke-opacity: 0.6"/>
   </g>
   <g id="line2d_30">
    <path d="M 103.827273 307.8 
L 145.331405 303.169388 
L 186.835537 295.851773 
L 228.339669 290.404852 
L 269.843802 281.229118 
L 311.347934 264.256527 
L 352.852066 246.351523 
L 394.356198 221.867359 
L 435.860331 193.730786 
L 477.364463 161.060685 
L 518.868595 124.922473 
L 560.372727 84.048374 
" clip-path="url(#pf8b8e9b2ae)" style="fill: none; stroke-dasharray: 3.7,1.6; stroke-dashoffset: 0; stroke: #7f7f7f; stroke-opacity: 0.6"/>
   </g>
   <g id="line2d_31">
    <path d="M 103.827273 307.8 
L 145.331405 301.002865 
L 186.835537 297.335095 
L 228.339669 286.631912 
L 269.843802 275.044426 
L 311.347934 257.627431 
L 352.852066 235.539576 
L 394.356198 213.699986 
L 435.860331 182.94811 
L 477.364463 150.08105 
L 518.868595 112.404068 
L 560.372727 68.242985 
" clip-path="url(#pf8b8e9b2ae)" style="fill: none; stroke-dasharray: 3.7,1.6; stroke-dashoffset: 0; stroke: #bcbd22; stroke-opacity: 0.6"/>
   </g>
   <g id="line2d_32">
    <path d="M 103.827273 307.8 
L 145.331405 300.535172 
L 186.835537 295.071763 
L 228.339669 279.88887 
L 269.843802 264.793297 
L 311.347934 249.205311 
L 352.852066 224.638475 
L 394.356198 201.589005 
L 435.860331 173.534048 
L 477.364463 143.890785 
L 518.868595 108.318532 
L 560.372727 68.989322 
" clip-path="url(#pf8b8e9b2ae)" style="fill: none; stroke-dasharray: 3.7,1.6; stroke-dashoffset: 0; stroke: #17becf; stroke-opacity: 0.6"/>
   </g>
   <g id="line2d_33">
    <path d="M 103.827273 307.8 
L 145.331405 295.11399 
L 186.835537 287.917859 
L 228.339669 274.155329 
L 269.843802 264.672769 
L 311.347934 251.631084 
L 352.852066 238.616384 
L 394.356198 218.912013 
L 435.860331 194.325116 
L 477.364463 164.532064 
L 518.868595 129.025178 
L 560.372727 87.965292 
" clip-path="url(#pf8b8e9b2ae)" style="fill: none; stroke-dasharray: 3.7,1.6; stroke-dashoffset: 0; stroke: #1f77b4; stroke-opacity: 0.6"/>
   </g>
   <g id="line2d_34">
    <path d="M 103.827273 307.8 
L 145.331405 301.213717 
L 186.835537 292.288261 
L 228.339669 286.587935 
L 269.843802 278.516612 
L 311.347934 268.842157 
L 352.852066 255.449565 
L 394.356198 233.763182 
L 435.860331 209.674398 
L 477.364463 177.952113 
L 518.868595 136.444661 
L 560.372727 94.150007 
" clip-path="url(#pf8b8e9b2ae)" style="fill: none; stroke-dasharray: 3.7,1.6; stroke-dashoffset: 0; stroke: #ff7f0e; stroke-opacity: 0.6"/>
   </g>
   <g id="line2d_35">
    <path d="M 103.827273 307.8 
L 145.331405 302.159986 
L 186.835537 298.161332 
L 228.339669 286.582457 
L 269.843802 274.86689 
L 311.347934 260.519638 
L 352.852066 242.004949 
L 394.356198 219.575003 
L 435.860331 192.615751 
L 477.364463 159.086988 
L 518.868595 120.452713 
L 560.372727 76.18366 
" clip-path="url(#pf8b8e9b2ae)" style="fill: none; stroke-dasharray: 3.7,1.6; stroke-dashoffset: 0; stroke: #2ca02c; stroke-opacity: 0.6"/>
   </g>
   <g id="line2d_36">
    <path d="M 103.827273 307.8 
L 145.331405 302.467436 
L 186.835537 291.632822 
L 228.339669 286.13435 
L 269.843802 276.756451 
L 311.347934 261.340723 
L 352.852066 239.766957 
L 394.356198 215.916905 
L 435.860331 186.066299 
L 477.364463 153.625315 
L 518.868595 112.914305 
L 560.372727 72.831524 
" clip-path="url(#pf8b8e9b2ae)" style="fill: none; stroke-dasharray: 3.7,1.6; stroke-dashoffset: 0; stroke: #d62728; stroke-opacity: 0.6"/>
   </g>
   <g id="line2d_37">
    <path d="M 103.827273 307.8 
L 145.331405 304.330101 
L 186.835537 299.59493 
L 228.339669 293.775564 
L 269.843802 285.568329 
L 311.347934 274.145193 
L 352.852066 255.319284 
L 394.356198 233.986144 
L 435.860331 203.182989 
L 477.364463 164.091213 
L 518.868595 122.748463 
L 560.372727 81.126341 
" clip-path="url(#pf8b8e9b2ae)" style="fill: none; stroke-dasharray: 3.7,1.6; stroke-dashoffset: 0; stroke: #9467bd; stroke-opacity: 0.6"/>
   </g>
   <g id="line2d_38">
    <path d="M 103.827273 307.8 
L 145.331405 299.754792 
L 186.835537 295.474056 
L 228.339669 283.197715 
L 269.843802 267.732722 
L 311.347934 253.424124 
L 352.852066 237.536248 
L 394.356198 215.16914 
L 435.860331 185.753541 
L 477.364463 152.761609 
L 518.868595 116.315101 
L 560.372727 75.362596 
" clip-path="url(#pf8b8e9b2ae)" style="fill: none; stroke-dasharray: 3.7,1.6; stroke-dashoffset: 0; stroke: #8c564b; stroke-opacity: 0.6"/>
   </g>
   <g id="line2d_39">
    <path d="M 103.827273 307.8 
L 145.331405 304.215847 
L 186.835537 298.40411 
L 228.339669 289.212442 
L 269.843802 279.563692 
L 311.347934 260.629868 
L 352.852066 237.006146 
L 394.356198 217.958823 
L 435.860331 185.050375 
L 477.364463 153.965534 
L 518.868595 119.318745 
L 560.372727 79.933298 
" clip-path="url(#pf8b8e9b2ae)" style="fill: none; stroke-dasharray: 3.7,1.6; stroke-dashoffset: 0; stroke: #e377c2; stroke-opacity: 0.6"/>
   </g>
   <g id="line2d_40">
    <path d="M 103.827273 307.8 
L 145.331405 305.186445 
L 186.835537 297.19544 
L 228.339669 289.82156 
L 269.843802 282.506982 
L 311.347934 269.580147 
L 352.852066 255.122559 
L 394.356198 235.7704 
L 435.860331 202.812853 
L 477.364463 171.495632 
L 518.868595 129.547611 
L 560.372727 83.902679 
" clip-path="url(#pf8b8e9b2ae)" style="fill: none; stroke-dasharray: 3.7,1.6; stroke-dashoffset: 0; stroke: #7f7f7f; stroke-opacity: 0.6"/>
   </g>
   <g id="line2d_41">
    <path d="M 103.827273 307.8 
L 145.331405 304.762174 
L 186.835537 297.670391 
L 228.339669 289.652454 
L 269.843802 272.626392 
L 311.347934 260.084735 
L 352.852066 236.52357 
L 394.356198 206.38679 
L 435.860331 172.695248 
L 477.364463 134.780035 
L 518.868595 99.531138 
L 560.372727 56.860707 
" clip-path="url(#pf8b8e9b2ae)" style="fill: none; stroke-dasharray: 3.7,1.6; stroke-dashoffset: 0; stroke: #bcbd22; stroke-opacity: 0.6"/>
   </g>
   <g id="line2d_42">
    <path d="M 103.827273 307.8 
L 145.331405 305.446161 
L 186.835537 298.288233 
L 228.339669 290.214001 
L 269.843802 280.941217 
L 311.347934 269.130713 
L 352.852066 253.342953 
L 394.356198 229.103614 
L 435.860331 196.867726 
L 477.364463 162.614717 
L 518.868595 117.857535 
L 560.372727 69.640323 
" clip-path="url(#pf8b8e9b2ae)" style="fill: none; stroke-dasharray: 3.7,1.6; stroke-dashoffset: 0; stroke: #17becf; stroke-opacity: 0.6"/>
   </g>
   <g id="line2d_43">
    <path d="M 103.827273 307.8 
L 145.331405 301.030274 
L 186.835537 290.496956 
L 228.339669 281.466806 
L 269.843802 272.083253 
L 311.347934 257.401872 
L 352.852066 236.476762 
L 394.356198 209.497463 
L 435.860331 180.727273 
L 477.364463 143.038386 
L 518.868595 106.430926 
L 560.372727 62.143969 
" clip-path="url(#pf8b8e9b2ae)" style="fill: none; stroke-dasharray: 3.7,1.6; stroke-dashoffset: 0; stroke: #1f77b4; stroke-opacity: 0.6"/>
   </g>
   <g id="line2d_44">
    <path d="M 103.827273 307.8 
L 145.331405 304.399701 
L 186.835537 298.249495 
L 228.339669 291.3039 
L 269.843802 282.386614 
L 311.347934 264.600463 
L 352.852066 244.937552 
L 394.356198 222.877078 
L 435.860331 198.136248 
L 477.364463 165.802472 
L 518.868595 127.328968 
L 560.372727 84.979596 
" clip-path="url(#pf8b8e9b2ae)" style="fill: none; stroke-dasharray: 3.7,1.6; stroke-dashoffset: 0; stroke: #ff7f0e; stroke-opacity: 0.6"/>
   </g>
   <g id="line2d_45">
    <path d="M 103.827273 307.8 
L 145.331405 300.692643 
L 186.835537 296.268818 
L 228.339669 290.252556 
L 269.843802 277.728076 
L 311.347934 264.847937 
L 352.852066 246.530219 
L 394.356198 226.044411 
L 435.860331 196.103033 
L 477.364463 166.625336 
L 518.868595 128.822876 
L 560.372727 89.550226 
" clip-path="url(#pf8b8e9b2ae)" style="fill: none; stroke-dasharray: 3.7,1.6; stroke-dashoffset: 0; stroke: #2ca02c; stroke-opacity: 0.6"/>
   </g>
   <g id="line2d_46">
    <path d="M 103.827273 307.8 
L 145.331405 297.616808 
L 186.835537 290.244362 
L 228.339669 278.716475 
L 269.843802 268.866567 
L 311.347934 255.725506 
L 352.852066 237.835675 
L 394.356198 218.327371 
L 435.860331 192.762084 
L 477.364463 161.44091 
L 518.868595 121.442947 
L 560.372727 86.740187 
" clip-path="url(#pf8b8e9b2ae)" style="fill: none; stroke-dasharray: 3.7,1.6; stroke-dashoffset: 0; stroke: #d62728; stroke-opacity: 0.6"/>
   </g>
   <g id="line2d_47">
    <path d="M 103.827273 307.8 
L 145.331405 296.224608 
L 186.835537 292.784923 
L 228.339669 286.648227 
L 269.843802 273.144248 
L 311.347934 262.069608 
L 352.852066 244.097368 
L 394.356198 223.215135 
L 435.860331 194.960772 
L 477.364463 162.134094 
L 518.868595 125.107895 
L 560.372727 81.530799 
" clip-path="url(#pf8b8e9b2ae)" style="fill: none; stroke-dasharray: 3.7,1.6; stroke-dashoffset: 0; stroke: #9467bd; stroke-opacity: 0.6"/>
   </g>
   <g id="line2d_48">
    <path d="M 103.827273 307.8 
L 145.331405 300.387554 
L 186.835537 291.372808 
L 228.339669 285.931239 
L 269.843802 278.301766 
L 311.347934 262.008599 
L 352.852066 241.458861 
L 394.356198 216.077649 
L 435.860331 192.157757 
L 477.364463 160.80147 
L 518.868595 124.46713 
L 560.372727 87.158429 
" clip-path="url(#pf8b8e9b2ae)" style="fill: none; stroke-dasharray: 3.7,1.6; stroke-dashoffset: 0; stroke: #8c564b; stroke-opacity: 0.6"/>
   </g>
   <g id="line2d_49">
    <path d="M 103.827273 307.8 
L 145.331405 295.933378 
L 186.835537 285.750404 
L 228.339669 276.744843 
L 269.843802 268.480244 
L 311.347934 256.275944 
L 352.852066 237.262351 
L 394.356198 216.603554 
L 435.860331 187.600721 
L 477.364463 157.50734 
L 518.868595 116.394735 
L 560.372727 75.007512 
" clip-path="url(#pf8b8e9b2ae)" style="fill: none; stroke-dasharray: 3.7,1.6; stroke-dashoffset: 0; stroke: #e377c2; stroke-opacity: 0.6"/>
   </g>
   <g id="line2d_50">
    <path d="M 103.827273 307.8 
L 145.331405 299.856112 
L 186.835537 293.697042 
L 228.339669 286.504967 
L 269.843802 273.507529 
L 311.347934 261.375989 
L 352.852066 242.728959 
L 394.356198 222.757707 
L 435.860331 193.75437 
L 477.364463 159.543596 
L 518.868595 119.518129 
L 560.372727 77.032615 
" clip-path="url(#pf8b8e9b2ae)" style="fill: none; stroke-dasharray: 3.7,1.6; stroke-dashoffset: 0; stroke: #7f7f7f; stroke-opacity: 0.6"/>
   </g>
   <g id="line2d_51">
    <path d="M 103.827273 307.8 
L 145.331405 304.570826 
L 186.835537 296.105754 
L 228.339669 287.204661 
L 269.843802 278.312651 
L 311.347934 265.763563 
L 352.852066 250.200042 
L 394.356198 226.97672 
L 435.860331 199.477604 
L 477.364463 168.716786 
L 518.868595 131.307962 
L 560.372727 90.797396 
" clip-path="url(#pf8b8e9b2ae)" style="fill: none; stroke-dasharray: 3.7,1.6; stroke-dashoffset: 0; stroke: #bcbd22; stroke-opacity: 0.6"/>
   </g>
   <g id="line2d_52">
    <path d="M 103.827273 307.8 
L 145.331405 301.993583 
L 186.835537 293.157445 
L 228.339669 286.414532 
L 269.843802 276.274075 
L 311.347934 262.830346 
L 352.852066 248.199707 
L 394.356198 227.714302 
L 435.860331 202.123794 
L 477.364463 170.758407 
L 518.868595 135.212498 
L 560.372727 96.72193 
" clip-path="url(#pf8b8e9b2ae)" style="fill: none; stroke-dasharray: 3.7,1.6; stroke-dashoffset: 0; stroke: #17becf; stroke-opacity: 0.6"/>
   </g>
   <g id="line2d_53">
    <path d="M 103.827273 307.8 
L 145.331405 299.866891 
L 186.835537 290.10146 
L 228.339669 282.814599 
L 269.843802 266.906195 
L 311.347934 255.055218 
L 352.852066 240.799425 
L 394.356198 220.267894 
L 435.860331 192.961373 
L 477.364463 157.220588 
L 518.868595 118.915325 
L 560.372727 77.591239 
" clip-path="url(#pf8b8e9b2ae)" style="fill: none; stroke-dasharray: 3.7,1.6; stroke-dashoffset: 0; stroke: #1f77b4; stroke-opacity: 0.6"/>
   </g>
   <g id="line2d_54">
    <path d="M 103.827273 307.8 
L 145.331405 302.543811 
L 186.835537 296.752561 
L 228.339669 289.038626 
L 269.843802 280.959664 
L 311.347934 266.422608 
L 352.852066 248.304805 
L 394.356198 225.239249 
L 435.860331 194.133932 
L 477.364463 157.918335 
L 518.868595 120.464396 
L 560.372727 81.455136 
" clip-path="url(#pf8b8e9b2ae)" style="fill: none; stroke-dasharray: 3.7,1.6; stroke-dashoffset: 0; stroke: #ff7f0e; stroke-opacity: 0.6"/>
   </g>
   <g id="line2d_55">
    <path d="M 103.827273 307.8 
L 145.331405 304.441584 
L 186.835537 298.285295 
L 228.339669 289.683851 
L 269.843802 276.329783 
L 311.347934 260.552678 
L 352.852066 239.730722 
L 394.356198 218.978894 
L 435.860331 190.717972 
L 477.364463 154.578502 
L 518.868595 116.683202 
L 560.372727 73.656169 
" clip-path="url(#pf8b8e9b2ae)" style="fill: none; stroke-dasharray: 3.7,1.6; stroke-dashoffset: 0; stroke: #2ca02c; stroke-opacity: 0.6"/>
   </g>
   <g id="line2d_56">
    <path d="M 103.827273 307.8 
L 145.331405 296.981788 
L 186.835537 286.035525 
L 228.339669 279.236505 
L 269.843802 264.960318 
L 311.347934 252.619723 
L 352.852066 238.279377 
L 394.356198 213.581999 
L 435.860331 183.107063 
L 477.364463 151.870669 
L 518.868595 118.29443 
L 560.372727 84.786344 
" clip-path="url(#pf8b8e9b2ae)" style="fill: none; stroke-dasharray: 3.7,1.6; stroke-dashoffset: 0; stroke: #d62728; stroke-opacity: 0.6"/>
   </g>
   <g id="line2d_57">
    <path d="M 103.827273 307.8 
L 145.331405 300.972377 
L 186.835537 292.319726 
L 228.339669 281.9089 
L 269.843802 270.913643 
L 311.347934 256.334419 
L 352.852066 241.407539 
L 394.356198 219.652032 
L 435.860331 195.816689 
L 477.364463 165.110146 
L 518.868595 130.291474 
L 560.372727 91.63631 
" clip-path="url(#pf8b8e9b2ae)" style="fill: none; stroke-dasharray: 3.7,1.6; stroke-dashoffset: 0; stroke: #9467bd; stroke-opacity: 0.6"/>
   </g>
   <g id="line2d_58">
    <path d="M 103.827273 307.8 
L 145.331405 304.21133 
L 186.835537 298.567231 
L 228.339669 289.166743 
L 269.843802 279.684519 
L 311.347934 265.712579 
L 352.852066 246.610859 
L 394.356198 227.274099 
L 435.860331 197.401935 
L 477.364463 166.314578 
L 518.868595 128.05389 
L 560.372727 84.027028 
" clip-path="url(#pf8b8e9b2ae)" style="fill: none; stroke-dasharray: 3.7,1.6; stroke-dashoffset: 0; stroke: #8c564b; stroke-opacity: 0.6"/>
   </g>
   <g id="line2d_59">
    <path d="M 103.827273 307.8 
L 145.331405 301.03746 
L 186.835537 296.907517 
L 228.339669 289.169008 
L 269.843802 281.333167 
L 311.347934 268.233153 
L 352.852066 251.307785 
L 394.356198 228.536452 
L 435.860331 202.298485 
L 477.364463 168.413812 
L 518.868595 131.161821 
L 560.372727 88.543191 
" clip-path="url(#pf8b8e9b2ae)" style="fill: none; stroke-dasharray: 3.7,1.6; stroke-dashoffset: 0; stroke: #e377c2; stroke-opacity: 0.6"/>
   </g>
   <g id="line2d_60">
    <path d="M 103.827273 307.8 
L 145.331405 300.298245 
L 186.835537 294.647953 
L 228.339669 286.723592 
L 269.843802 278.933684 
L 311.347934 259.69159 
L 352.852066 240.428665 
L 394.356198 214.953246 
L 435.860331 185.101214 
L 477.364463 151.388241 
L 518.868595 114.903964 
L 560.372727 73.924131 
" clip-path="url(#pf8b8e9b2ae)" style="fill: none; stroke-dasharray: 3.7,1.6; stroke-dashoffset: 0; stroke: #7f7f7f; stroke-opacity: 0.6"/>
   </g>
   <g id="line2d_61">
    <path d="M 103.827273 307.8 
L 145.331405 301.764253 
L 186.835537 292.830536 
L 228.339669 284.742508 
L 269.843802 272.671366 
L 311.347934 260.891541 
L 352.852066 238.398657 
L 394.356198 215.220719 
L 435.860331 184.699752 
L 477.364463 151.87358 
L 518.868595 111.759103 
L 560.372727 69.131967 
" clip-path="url(#pf8b8e9b2ae)" style="fill: none; stroke-dasharray: 3.7,1.6; stroke-dashoffset: 0; stroke: #bcbd22; stroke-opacity: 0.6"/>
   </g>
   <g id="line2d_62">
    <path d="M 103.827273 307.8 
L 145.331405 305.174948 
L 186.835537 298.635176 
L 228.339669 293.113216 
L 269.843802 282.215169 
L 311.347934 265.721599 
L 352.852066 245.787372 
L 394.356198 216.505133 
L 435.860331 188.798607 
L 477.364463 155.422674 
L 518.868595 114.786024 
L 560.372727 74.430349 
" clip-path="url(#pf8b8e9b2ae)" style="fill: none; stroke-dasharray: 3.7,1.6; stroke-dashoffset: 0; stroke: #17becf; stroke-opacity: 0.6"/>
   </g>
   <g id="line2d_63">
    <path d="M 103.827273 307.8 
L 145.331405 301.886617 
L 186.835537 297.940596 
L 228.339669 290.712931 
L 269.843802 280.201313 
L 311.347934 268.370102 
L 352.852066 247.209255 
L 394.356198 224.80124 
L 435.860331 197.805879 
L 477.364463 164.710567 
L 518.868595 127.938658 
L 560.372727 88.401848 
" clip-path="url(#pf8b8e9b2ae)" style="fill: none; stroke-dasharray: 3.7,1.6; stroke-dashoffset: 0; stroke: #1f77b4; stroke-opacity: 0.6"/>
   </g>
   <g id="line2d_64">
    <path d="M 103.827273 307.8 
L 145.331405 299.199021 
L 186.835537 293.748997 
L 228.339669 281.688574 
L 269.843802 272.894144 
L 311.347934 262.122351 
L 352.852066 244.830349 
L 394.356198 222.320891 
L 435.860331 187.109608 
L 477.364463 155.337145 
L 518.868595 117.779564 
L 560.372727 76.90051 
" clip-path="url(#pf8b8e9b2ae)" style="fill: none; stroke-dasharray: 3.7,1.6; stroke-dashoffset: 0; stroke: #ff7f0e; stroke-opacity: 0.6"/>
   </g>
   <g id="line2d_65">
    <path d="M 103.827273 307.8 
L 145.331405 298.897936 
L 186.835537 293.520989 
L 228.339669 285.285576 
L 269.843802 272.152456 
L 311.347934 258.415765 
L 352.852066 239.294427 
L 394.356198 211.543226 
L 435.860331 180.00529 
L 477.364463 143.037367 
L 518.868595 104.567819 
L 560.372727 61.138368 
" clip-path="url(#pf8b8e9b2ae)" style="fill: none; stroke-dasharray: 3.7,1.6; stroke-dashoffset: 0; stroke: #2ca02c; stroke-opacity: 0.6"/>
   </g>
   <g id="line2d_66">
    <path d="M 103.827273 307.8 
L 145.331405 301.661599 
L 186.835537 295.740343 
L 228.339669 289.366615 
L 269.843802 274.547594 
L 311.347934 254.903072 
L 352.852066 236.12263 
L 394.356198 217.31281 
L 435.860331 192.690959 
L 477.364463 162.484052 
L 518.868595 124.112129 
L 560.372727 81.408527 
" clip-path="url(#pf8b8e9b2ae)" style="fill: none; stroke-dasharray: 3.7,1.6; stroke-dashoffset: 0; stroke: #d62728; stroke-opacity: 0.6"/>
   </g>
   <g id="line2d_67">
    <path d="M 103.827273 307.8 
L 145.331405 298.919698 
L 186.835537 292.934716 
L 228.339669 283.153868 
L 269.843802 273.832424 
L 311.347934 260.078744 
L 352.852066 242.545875 
L 394.356198 220.616184 
L 435.860331 190.25407 
L 477.364463 153.69841 
L 518.868595 114.202808 
L 560.372727 65.956317 
" clip-path="url(#pf8b8e9b2ae)" style="fill: none; stroke-dasharray: 3.7,1.6; stroke-dashoffset: 0; stroke: #9467bd; stroke-opacity: 0.6"/>
   </g>
   <g id="line2d_68">
    <path d="M 103.827273 307.8 
L 145.331405 301.105417 
L 186.835537 296.63585 
L 228.339669 289.603493 
L 269.843802 280.340406 
L 311.347934 269.516639 
L 352.852066 247.130981 
L 394.356198 227.35693 
L 435.860331 201.157493 
L 477.364463 163.6152 
L 518.868595 128.094237 
L 560.372727 88.282364 
" clip-path="url(#pf8b8e9b2ae)" style="fill: none; stroke-dasharray: 3.7,1.6; stroke-dashoffset: 0; stroke: #8c564b; stroke-opacity: 0.6"/>
   </g>
   <g id="line2d_69">
    <path d="M 103.827273 307.8 
L 145.331405 301.936713 
L 186.835537 292.92497 
L 228.339669 283.53673 
L 269.843802 274.755524 
L 311.347934 255.502362 
L 352.852066 237.990751 
L 394.356198 215.618295 
L 435.860331 186.111554 
L 477.364463 150.452696 
L 518.868595 113.360259 
L 560.372727 69.771099 
" clip-path="url(#pf8b8e9b2ae)" style="fill: none; stroke-dasharray: 3.7,1.6; stroke-dashoffset: 0; stroke: #e377c2; stroke-opacity: 0.6"/>
   </g>
   <g id="line2d_70">
    <path d="M 103.827273 307.8 
L 145.331405 305.172997 
L 186.835537 299.356223 
L 228.339669 289.212824 
L 269.843802 276.91579 
L 311.347934 260.417775 
L 352.852066 235.842821 
L 394.356198 213.083457 
L 435.860331 183.433046 
L 477.364463 148.119446 
L 518.868595 106.993502 
L 560.372727 63.609175 
" clip-path="url(#pf8b8e9b2ae)" style="fill: none; stroke-dasharray: 3.7,1.6; stroke-dashoffset: 0; stroke: #7f7f7f; stroke-opacity: 0.6"/>
   </g>
   <g id="line2d_71">
    <path d="M 103.827273 307.8 
L 145.331405 304.302282 
L 186.835537 296.80285 
L 228.339669 287.227642 
L 269.843802 275.041076 
L 311.347934 258.77172 
L 352.852066 240.825452 
L 394.356198 219.079211 
L 435.860331 189.536054 
L 477.364463 161.132155 
L 518.868595 124.035973 
L 560.372727 86.47827 
" clip-path="url(#pf8b8e9b2ae)" style="fill: none; stroke-dasharray: 3.7,1.6; stroke-dashoffset: 0; stroke: #bcbd22; stroke-opacity: 0.6"/>
   </g>
   <g id="line2d_72">
    <path d="M 103.827273 307.8 
L 145.331405 303.622094 
L 186.835537 298.60652 
L 228.339669 292.170323 
L 269.843802 279.462643 
L 311.347934 265.286379 
L 352.852066 248.748037 
L 394.356198 225.703929 
L 435.860331 197.165332 
L 477.364463 158.988583 
L 518.868595 118.48689 
L 560.372727 73.977769 
" clip-path="url(#pf8b8e9b2ae)" style="fill: none; stroke-dasharray: 3.7,1.6; stroke-dashoffset: 0; stroke: #17becf; stroke-opacity: 0.6"/>
   </g>
   <g id="line2d_73">
    <path d="M 103.827273 307.8 
L 145.331405 304.784655 
L 186.835537 302.024568 
L 228.339669 295.889468 
L 269.843802 287.22163 
L 311.347934 274.647382 
L 352.852066 252.838536 
L 394.356198 227.321689 
L 435.860331 201.499465 
L 477.364463 167.379943 
L 518.868595 125.12225 
L 560.372727 84.552063 
" clip-path="url(#pf8b8e9b2ae)" style="fill: none; stroke-dasharray: 3.7,1.6; stroke-dashoffset: 0; stroke: #1f77b4; stroke-opacity: 0.6"/>
   </g>
   <g id="line2d_74">
    <path d="M 103.827273 307.8 
L 145.331405 303.288261 
L 186.835537 294.367108 
L 228.339669 284.366106 
L 269.843802 268.418002 
L 311.347934 255.333793 
L 352.852066 237.311239 
L 394.356198 213.402977 
L 435.860331 185.634017 
L 477.364463 155.386139 
L 518.868595 120.337356 
L 560.372727 79.823035 
" clip-path="url(#pf8b8e9b2ae)" style="fill: none; stroke-dasharray: 3.7,1.6; stroke-dashoffset: 0; stroke: #ff7f0e; stroke-opacity: 0.6"/>
   </g>
   <g id="line2d_75">
    <path d="M 103.827273 307.8 
L 145.331405 297.736606 
L 186.835537 290.72245 
L 228.339669 280.43652 
L 269.843802 271.325674 
L 311.347934 259.177685 
L 352.852066 243.59043 
L 394.356198 224.120384 
L 435.860331 193.341121 
L 477.364463 161.76192 
L 518.868595 124.221927 
L 560.372727 77.940688 
" clip-path="url(#pf8b8e9b2ae)" style="fill: none; stroke-dasharray: 3.7,1.6; stroke-dashoffset: 0; stroke: #2ca02c; stroke-opacity: 0.6"/>
   </g>
   <g id="line2d_76">
    <path d="M 103.827273 307.8 
L 145.331405 298.584429 
L 186.835537 286.88109 
L 228.339669 280.718449 
L 269.843802 266.833942 
L 311.347934 246.584712 
L 352.852066 230.026458 
L 394.356198 208.191319 
L 435.860331 176.485927 
L 477.364463 140.135218 
L 518.868595 97.878015 
L 560.372727 57.35022 
" clip-path="url(#pf8b8e9b2ae)" style="fill: none; stroke-dasharray: 3.7,1.6; stroke-dashoffset: 0; stroke: #d62728; stroke-opacity: 0.6"/>
   </g>
   <g id="line2d_77">
    <path d="M 103.827273 307.8 
L 145.331405 296.620136 
L 186.835537 285.661683 
L 228.339669 273.082504 
L 269.843802 259.667588 
L 311.347934 239.185443 
L 352.852066 220.566365 
L 394.356198 201.94143 
L 435.860331 177.290597 
L 477.364463 147.845634 
L 518.868595 117.464213 
L 560.372727 79.657576 
" clip-path="url(#pf8b8e9b2ae)" style="fill: none; stroke-dasharray: 3.7,1.6; stroke-dashoffset: 0; stroke: #9467bd; stroke-opacity: 0.6"/>
   </g>
   <g id="line2d_78">
    <path d="M 103.827273 307.8 
L 145.331405 298.035228 
L 186.835537 293.246634 
L 228.339669 285.560937 
L 269.843802 276.619806 
L 311.347934 263.566535 
L 352.852066 246.068313 
L 394.356198 223.171868 
L 435.860331 194.240522 
L 477.364463 161.457931 
L 518.868595 124.913938 
L 560.372727 82.823517 
" clip-path="url(#pf8b8e9b2ae)" style="fill: none; stroke-dasharray: 3.7,1.6; stroke-dashoffset: 0; stroke: #8c564b; stroke-opacity: 0.6"/>
   </g>
   <g id="line2d_79">
    <path d="M 103.827273 307.8 
L 145.331405 303.206959 
L 186.835537 300.738512 
L 228.339669 292.273206 
L 269.843802 284.239622 
L 311.347934 267.84563 
L 352.852066 255.444079 
L 394.356198 235.255277 
L 435.860331 207.184108 
L 477.364463 175.891127 
L 518.868595 136.674168 
L 560.372727 95.87375 
" clip-path="url(#pf8b8e9b2ae)" style="fill: none; stroke-dasharray: 3.7,1.6; stroke-dashoffset: 0; stroke: #e377c2; stroke-opacity: 0.6"/>
   </g>
   <g id="line2d_80">
    <path d="M 103.827273 307.8 
L 145.331405 305.952658 
L 186.835537 300.642077 
L 228.339669 287.53571 
L 269.843802 276.520291 
L 311.347934 261.880235 
L 352.852066 246.358247 
L 394.356198 222.635438 
L 435.860331 191.471324 
L 477.364463 160.83014 
L 518.868595 123.092785 
L 560.372727 83.644386 
" clip-path="url(#pf8b8e9b2ae)" style="fill: none; stroke-dasharray: 3.7,1.6; stroke-dashoffset: 0; stroke: #7f7f7f; stroke-opacity: 0.6"/>
   </g>
   <g id="line2d_81">
    <path d="M 103.827273 307.8 
L 145.331405 300.09735 
L 186.835537 293.197883 
L 228.339669 281.216915 
L 269.843802 268.244088 
L 311.347934 254.522909 
L 352.852066 240.389548 
L 394.356198 219.551932 
L 435.860331 186.185092 
L 477.364463 154.443022 
L 518.868595 116.037708 
L 560.372727 77.336214 
" clip-path="url(#pf8b8e9b2ae)" style="fill: none; stroke-dasharray: 3.7,1.6; stroke-dashoffset: 0; stroke: #bcbd22; stroke-opacity: 0.6"/>
   </g>
   <g id="line2d_82">
    <path d="M 103.827273 307.8 
L 145.331405 302.499157 
L 186.835537 296.296804 
L 228.339669 288.09941 
L 269.843802 276.263329 
L 311.347934 261.394836 
L 352.852066 242.865717 
L 394.356198 215.646573 
L 435.860331 186.526497 
L 477.364463 149.438725 
L 518.868595 108.70257 
L 560.372727 66.532416 
" clip-path="url(#pf8b8e9b2ae)" style="fill: none; stroke-dasharray: 3.7,1.6; stroke-dashoffset: 0; stroke: #17becf; stroke-opacity: 0.6"/>
   </g>
   <g id="line2d_83">
    <path d="M 103.827273 307.8 
L 145.331405 301.131902 
L 186.835537 292.937295 
L 228.339669 286.699813 
L 269.843802 276.887007 
L 311.347934 261.252246 
L 352.852066 242.416821 
L 394.356198 223.948817 
L 435.860331 193.960513 
L 477.364463 164.352807 
L 518.868595 126.309361 
L 560.372727 86.411413 
" clip-path="url(#pf8b8e9b2ae)" style="fill: none; stroke-dasharray: 3.7,1.6; stroke-dashoffset: 0; stroke: #1f77b4; stroke-opacity: 0.6"/>
   </g>
   <g id="line2d_84">
    <path d="M 103.827273 307.8 
L 145.331405 304.280006 
L 186.835537 296.759236 
L 228.339669 290.509965 
L 269.843802 278.159538 
L 311.347934 264.525778 
L 352.852066 247.00583 
L 394.356198 221.336787 
L 435.860331 194.491871 
L 477.364463 156.54641 
L 518.868595 119.524932 
L 560.372727 76.651285 
" clip-path="url(#pf8b8e9b2ae)" style="fill: none; stroke-dasharray: 3.7,1.6; stroke-dashoffset: 0; stroke: #ff7f0e; stroke-opacity: 0.6"/>
   </g>
   <g id="line2d_85">
    <path d="M 103.827273 307.8 
L 145.331405 301.596311 
L 186.835537 295.116965 
L 228.339669 288.645681 
L 269.843802 282.012914 
L 311.347934 271.287657 
L 352.852066 254.082227 
L 394.356198 229.687053 
L 435.860331 203.027802 
L 477.364463 172.417627 
L 518.868595 135.560454 
L 560.372727 93.346901 
" clip-path="url(#pf8b8e9b2ae)" style="fill: none; stroke-dasharray: 3.7,1.6; stroke-dashoffset: 0; stroke: #2ca02c; stroke-opacity: 0.6"/>
   </g>
   <g id="line2d_86">
    <path d="M 103.827273 307.8 
L 145.331405 300.615653 
L 186.835537 297.62288 
L 228.339669 290.407826 
L 269.843802 278.944624 
L 311.347934 262.04171 
L 352.852066 245.414065 
L 394.356198 214.818081 
L 435.860331 184.99719 
L 477.364463 151.883416 
L 518.868595 113.426225 
L 560.372727 70.31269 
" clip-path="url(#pf8b8e9b2ae)" style="fill: none; stroke-dasharray: 3.7,1.6; stroke-dashoffset: 0; stroke: #d62728; stroke-opacity: 0.6"/>
   </g>
   <g id="line2d_87">
    <path d="M 103.827273 307.8 
L 145.331405 305.707314 
L 186.835537 301.346139 
L 228.339669 293.147273 
L 269.843802 280.572085 
L 311.347934 269.011756 
L 352.852066 245.10701 
L 394.356198 221.036615 
L 435.860331 192.545968 
L 477.364463 156.331015 
L 518.868595 119.417552 
L 560.372727 74.954252 
" clip-path="url(#pf8b8e9b2ae)" style="fill: none; stroke-dasharray: 3.7,1.6; stroke-dashoffset: 0; stroke: #9467bd; stroke-opacity: 0.6"/>
   </g>
   <g id="line2d_88">
    <path d="M 103.827273 307.8 
L 145.331405 298.446359 
L 186.835537 288.436085 
L 228.339669 278.952985 
L 269.843802 270.159399 
L 311.347934 256.679708 
L 352.852066 239.775622 
L 394.356198 214.879138 
L 435.860331 184.835137 
L 477.364463 149.337935 
L 518.868595 113.028063 
L 560.372727 74.040195 
" clip-path="url(#pf8b8e9b2ae)" style="fill: none; stroke-dasharray: 3.7,1.6; stroke-dashoffset: 0; stroke: #8c564b; stroke-opacity: 0.6"/>
   </g>
   <g id="line2d_89">
    <path d="M 103.827273 307.8 
L 145.331405 298.058427 
L 186.835537 293.963353 
L 228.339669 289.126903 
L 269.843802 281.448901 
L 311.347934 263.859599 
L 352.852066 246.833171 
L 394.356198 225.437115 
L 435.860331 200.433927 
L 477.364463 169.245683 
L 518.868595 133.47467 
L 560.372727 86.724623 
" clip-path="url(#pf8b8e9b2ae)" style="fill: none; stroke-dasharray: 3.7,1.6; stroke-dashoffset: 0; stroke: #e377c2; stroke-opacity: 0.6"/>
   </g>
   <g id="line2d_90">
    <path d="M 103.827273 307.8 
L 145.331405 302.856291 
L 186.835537 297.330406 
L 228.339669 290.752995 
L 269.843802 278.8606 
L 311.347934 265.916291 
L 352.852066 245.168219 
L 394.356198 220.760376 
L 435.860331 186.821048 
L 477.364463 153.323995 
L 518.868595 109.470119 
L 560.372727 68.24255 
" clip-path="url(#pf8b8e9b2ae)" style="fill: none; stroke-dasharray: 3.7,1.6; stroke-dashoffset: 0; stroke: #7f7f7f; stroke-opacity: 0.6"/>
   </g>
   <g id="line2d_91">
    <path d="M 103.827273 307.8 
L 145.331405 306.65892 
L 186.835537 299.792149 
L 228.339669 293.622299 
L 269.843802 279.500994 
L 311.347934 264.400724 
L 352.852066 240.648622 
L 394.356198 217.214566 
L 435.860331 185.948418 
L 477.364463 150.789542 
L 518.868595 113.575769 
L 560.372727 73.336665 
" clip-path="url(#pf8b8e9b2ae)" style="fill: none; stroke-dasharray: 3.7,1.6; stroke-dashoffset: 0; stroke: #bcbd22; stroke-opacity: 0.6"/>
   </g>
   <g id="line2d_92">
    <path d="M 103.827273 307.8 
L 145.331405 304.033943 
L 186.835537 295.312276 
L 228.339669 285.252162 
L 269.843802 272.14768 
L 311.347934 259.534654 
L 352.852066 240.465219 
L 394.356198 215.979309 
L 435.860331 185.396528 
L 477.364463 153.203608 
L 518.868595 116.799874 
L 560.372727 74.653618 
" clip-path="url(#pf8b8e9b2ae)" style="fill: none; stroke-dasharray: 3.7,1.6; stroke-dashoffset: 0; stroke: #17becf; stroke-opacity: 0.6"/>
   </g>
   <g id="line2d_93">
    <path d="M 103.827273 307.8 
L 145.331405 304.685081 
L 186.835537 295.110958 
L 228.339669 284.095307 
L 269.843802 272.845694 
L 311.347934 258.833527 
L 352.852066 241.570788 
L 394.356198 219.214583 
L 435.860331 187.475923 
L 477.364463 154.087778 
L 518.868595 111.82621 
L 560.372727 73.278938 
" clip-path="url(#pf8b8e9b2ae)" style="fill: none; stroke-dasharray: 3.7,1.6; stroke-dashoffset: 0; stroke: #1f77b4; stroke-opacity: 0.6"/>
   </g>
   <g id="line2d_94">
    <path d="M 103.827273 307.8 
L 145.331405 297.691951 
L 186.835537 291.776124 
L 228.339669 277.582869 
L 269.843802 263.390054 
L 311.347934 249.411868 
L 352.852066 234.654931 
L 394.356198 214.772405 
L 435.860331 191.208962 
L 477.364463 159.617952 
L 518.868595 124.64671 
L 560.372727 86.508791 
" clip-path="url(#pf8b8e9b2ae)" style="fill: none; stroke-dasharray: 3.7,1.6; stroke-dashoffset: 0; stroke: #ff7f0e; stroke-opacity: 0.6"/>
   </g>
   <g id="line2d_95">
    <path d="M 103.827273 307.8 
L 145.331405 301.010667 
L 186.835537 289.856302 
L 228.339669 281.537716 
L 269.843802 273.047473 
L 311.347934 257.016389 
L 352.852066 240.354042 
L 394.356198 220.239907 
L 435.860331 191.641044 
L 477.364463 155.164026 
L 518.868595 115.401493 
L 560.372727 74.299126 
" clip-path="url(#pf8b8e9b2ae)" style="fill: none; stroke-dasharray: 3.7,1.6; stroke-dashoffset: 0; stroke: #2ca02c; stroke-opacity: 0.6"/>
   </g>
   <g id="line2d_96">
    <path d="M 103.827273 307.8 
L 145.331405 299.879107 
L 186.835537 291.821017 
L 228.339669 284.839766 
L 269.843802 272.674616 
L 311.347934 257.254745 
L 352.852066 236.026184 
L 394.356198 214.407997 
L 435.860331 185.875214 
L 477.364463 155.552141 
L 518.868595 120.552239 
L 560.372727 84.762765 
" clip-path="url(#pf8b8e9b2ae)" style="fill: none; stroke-dasharray: 3.7,1.6; stroke-dashoffset: 0; stroke: #d62728; stroke-opacity: 0.6"/>
   </g>
   <g id="line2d_97">
    <path d="M 103.827273 307.8 
L 145.331405 301.779344 
L 186.835537 295.123417 
L 228.339669 285.393238 
L 269.843802 273.27767 
L 311.347934 263.213981 
L 352.852066 246.346514 
L 394.356198 223.629145 
L 435.860331 195.820882 
L 477.364463 165.335085 
L 518.868595 130.054912 
L 560.372727 91.380128 
" clip-path="url(#pf8b8e9b2ae)" style="fill: none; stroke-dasharray: 3.7,1.6; stroke-dashoffset: 0; stroke: #9467bd; stroke-opacity: 0.6"/>
   </g>
   <g id="line2d_98">
    <path d="M 103.827273 307.8 
L 145.331405 302.534367 
L 186.835537 298.294335 
L 228.339669 286.325842 
L 269.843802 273.438638 
L 311.347934 263.60014 
L 352.852066 248.921464 
L 394.356198 228.833582 
L 435.860331 196.579123 
L 477.364463 163.833948 
L 518.868595 128.237496 
L 560.372727 87.701377 
" clip-path="url(#pf8b8e9b2ae)" style="fill: none; stroke-dasharray: 3.7,1.6; stroke-dashoffset: 0; stroke: #8c564b; stroke-opacity: 0.6"/>
   </g>
   <g id="line2d_99">
    <path d="M 103.827273 307.8 
L 145.331405 304.09492 
L 186.835537 292.071948 
L 228.339669 285.4727 
L 269.843802 273.186527 
L 311.347934 261.578651 
L 352.852066 244.416435 
L 394.356198 221.176417 
L 435.860331 192.217294 
L 477.364463 159.284068 
L 518.868595 122.098149 
L 560.372727 79.686559 
" clip-path="url(#pf8b8e9b2ae)" style="fill: none; stroke-dasharray: 3.7,1.6; stroke-dashoffset: 0; stroke: #e377c2; stroke-opacity: 0.6"/>
   </g>
   <g id="line2d_100">
    <path d="M 103.827273 307.8 
L 145.331405 301.135392 
L 186.835537 291.493253 
L 228.339669 281.11403 
L 269.843802 266.096585 
L 311.347934 252.004089 
L 352.852066 233.970602 
L 394.356198 214.05869 
L 435.860331 187.85843 
L 477.364463 158.909474 
L 518.868595 124.425681 
L 560.372727 85.598494 
" clip-path="url(#pf8b8e9b2ae)" style="fill: none; stroke-dasharray: 3.7,1.6; stroke-dashoffset: 0; stroke: #7f7f7f; stroke-opacity: 0.6"/>
   </g>
   <g id="line2d_101">
    <path d="M 103.827273 307.8 
L 145.331405 300.525214 
L 186.835537 291.364507 
L 228.339669 286.584946 
L 269.843802 272.290577 
L 311.347934 258.591867 
L 352.852066 240.579046 
L 394.356198 219.441064 
L 435.860331 189.945051 
L 477.364463 157.13991 
L 518.868595 116.250876 
L 560.372727 79.190589 
" clip-path="url(#pf8b8e9b2ae)" style="fill: none; stroke-dasharray: 3.7,1.6; stroke-dashoffset: 0; stroke: #bcbd22; stroke-opacity: 0.6"/>
   </g>
   <g id="line2d_102">
    <path d="M 103.827273 307.8 
L 145.331405 297.291393 
L 186.835537 290.822104 
L 228.339669 282.61601 
L 269.843802 272.669431 
L 311.347934 260.439118 
L 352.852066 242.806382 
L 394.356198 218.214737 
L 435.860331 186.476055 
L 477.364463 153.623813 
L 518.868595 116.521177 
L 560.372727 74.923815 
" clip-path="url(#pf8b8e9b2ae)" style="fill: none; stroke-dasharray: 3.7,1.6; stroke-dashoffset: 0; stroke: #17becf; stroke-opacity: 0.6"/>
   </g>
   <g id="line2d_103">
    <path d="M 103.827273 307.8 
L 145.331405 302.569167 
L 186.835537 292.773658 
L 228.339669 283.058502 
L 269.843802 271.9516 
L 311.347934 261.134917 
L 352.852066 238.551083 
L 394.356198 218.751775 
L 435.860331 191.607571 
L 477.364463 156.278463 
L 518.868595 119.518738 
L 560.372727 82.659569 
" clip-path="url(#pf8b8e9b2ae)" style="fill: none; stroke-dasharray: 3.7,1.6; stroke-dashoffset: 0; stroke: #1f77b4; stroke-opacity: 0.6"/>
   </g>
   <g id="line2d_104">
    <path d="M 103.827273 307.8 
L 145.331405 297.969015 
L 186.835537 288.634823 
L 228.339669 282.137025 
L 269.843802 266.774639 
L 311.347934 251.948136 
L 352.852066 232.01614 
L 394.356198 207.275502 
L 435.860331 183.365574 
L 477.364463 151.13558 
L 518.868595 118.549453 
L 560.372727 82.08677 
" clip-path="url(#pf8b8e9b2ae)" style="fill: none; stroke-dasharray: 3.7,1.6; stroke-dashoffset: 0; stroke: #ff7f0e; stroke-opacity: 0.6"/>
   </g>
   <g id="line2d_105">
    <path d="M 103.827273 307.8 
L 145.331405 297.007759 
L 186.835537 288.516153 
L 228.339669 275.896442 
L 269.843802 267.018777 
L 311.347934 253.640104 
L 352.852066 239.575325 
L 394.356198 220.062947 
L 435.860331 194.252909 
L 477.364463 162.995329 
L 518.868595 129.618804 
L 560.372727 89.63775 
" clip-path="url(#pf8b8e9b2ae)" style="fill: none; stroke-dasharray: 3.7,1.6; stroke-dashoffset: 0; stroke: #2ca02c; stroke-opacity: 0.6"/>
   </g>
   <g id="line2d_106">
    <path d="M 103.827273 307.8 
L 145.331405 305.342788 
L 186.835537 298.155671 
L 228.339669 292.533865 
L 269.843802 283.138391 
L 311.347934 264.430399 
L 352.852066 249.756161 
L 394.356198 229.7746 
L 435.860331 204.990977 
L 477.364463 174.267839 
L 518.868595 139.162638 
L 560.372727 94.672961 
" clip-path="url(#pf8b8e9b2ae)" style="fill: none; stroke-dasharray: 3.7,1.6; stroke-dashoffset: 0; stroke: #d62728; stroke-opacity: 0.6"/>
   </g>
   <g id="line2d_107">
    <path d="M 103.827273 307.8 
L 145.331405 297.972916 
L 186.835537 289.652434 
L 228.339669 283.385884 
L 269.843802 274.033999 
L 311.347934 260.656393 
L 352.852066 241.205321 
L 394.356198 214.880793 
L 435.860331 184.843047 
L 477.364463 146.00543 
L 518.868595 108.344871 
L 560.372727 67.454345 
" clip-path="url(#pf8b8e9b2ae)" style="fill: none; stroke-dasharray: 3.7,1.6; stroke-dashoffset: 0; stroke: #9467bd; stroke-opacity: 0.6"/>
   </g>
   <g id="line2d_108">
    <path d="M 103.827273 307.8 
L 145.331405 301.259091 
L 186.835537 297.340678 
L 228.339669 291.573497 
L 269.843802 283.467186 
L 311.347934 270.890944 
L 352.852066 253.752239 
L 394.356198 229.920766 
L 435.860331 196.07786 
L 477.364463 160.377173 
L 518.868595 121.625394 
L 560.372727 77.158665 
" clip-path="url(#pf8b8e9b2ae)" style="fill: none; stroke-dasharray: 3.7,1.6; stroke-dashoffset: 0; stroke: #8c564b; stroke-opacity: 0.6"/>
   </g>
   <g id="line2d_109">
    <path d="M 103.827273 307.8 
L 145.331405 305.000743 
L 186.835537 300.299319 
L 228.339669 294.034942 
L 269.843802 283.854107 
L 311.347934 271.987731 
L 352.852066 255.847544 
L 394.356198 232.723627 
L 435.860331 203.963611 
L 477.364463 169.036219 
L 518.868595 129.761972 
L 560.372727 84.130418 
" clip-path="url(#pf8b8e9b2ae)" style="fill: none; stroke-dasharray: 3.7,1.6; stroke-dashoffset: 0; stroke: #e377c2; stroke-opacity: 0.6"/>
   </g>
   <g id="line2d_110">
    <path d="M 103.827273 307.8 
L 145.331405 305.498207 
L 186.835537 301.652699 
L 228.339669 291.268623 
L 269.843802 278.943158 
L 311.347934 264.328933 
L 352.852066 244.558693 
L 394.356198 215.915409 
L 435.860331 189.851303 
L 477.364463 155.626655 
L 518.868595 118.278776 
L 560.372727 77.731695 
" clip-path="url(#pf8b8e9b2ae)" style="fill: none; stroke-dasharray: 3.7,1.6; stroke-dashoffset: 0; stroke: #7f7f7f; stroke-opacity: 0.6"/>
   </g>
   <g id="line2d_111">
    <path d="M 103.827273 307.8 
L 145.331405 302.35657 
L 186.835537 291.466697 
L 228.339669 284.011973 
L 269.843802 270.338169 
L 311.347934 257.0931 
L 352.852066 238.334026 
L 394.356198 215.801065 
L 435.860331 189.480564 
L 477.364463 156.576701 
L 518.868595 117.933359 
L 560.372727 75.725679 
" clip-path="url(#pf8b8e9b2ae)" style="fill: none; stroke-dasharray: 3.7,1.6; stroke-dashoffset: 0; stroke: #bcbd22; stroke-opacity: 0.6"/>
   </g>
   <g id="line2d_112">
    <path d="M 103.827273 307.8 
L 145.331405 304.612504 
L 186.835537 298.388454 
L 228.339669 287.443412 
L 269.843802 275.275757 
L 311.347934 261.383646 
L 352.852066 241.313913 
L 394.356198 214.495188 
L 435.860331 183.001485 
L 477.364463 144.622655 
L 518.868595 103.238508 
L 560.372727 55.8 
" clip-path="url(#pf8b8e9b2ae)" style="fill: none; stroke-dasharray: 3.7,1.6; stroke-dashoffset: 0; stroke: #17becf; stroke-opacity: 0.6"/>
   </g>
   <g id="line2d_113">
    <path d="M 103.827273 307.8 
L 145.331405 301.618878 
L 186.835537 294.773214 
L 228.339669 286.177809 
L 269.843802 275.018819 
L 311.347934 260.669093 
L 352.852066 242.224124 
L 394.356198 219.536689 
L 435.860331 190.776139 
L 477.364463 157.496028 
L 518.868595 119.629663 
L 560.372727 78.337218 
" clip-path="url(#pf8b8e9b2ae)" style="fill: none; stroke: #000000; stroke-width: 2.5; stroke-linecap: square"/>
   </g>
   <g id="patch_3">
    <path d="M 81 320.4 
L 81 43.2 
" style="fill: none; stroke: #000000; stroke-width: 0.8; stroke-linejoin: miter; stroke-linecap: square"/>
   </g>
   <g id="patch_4">
    <path d="M 583.2 320.4 
L 583.2 43.2 
" style="fill: none; stroke: #000000; stroke-width: 0.8; stroke-linejoin: miter; stroke-linecap: square"/>
   </g>
   <g id="patch_5">
    <path d="M 81 320.4 
L 583.2 320.4 
" style="fill: none; stroke: #000000; stroke-width: 0.8; stroke-linejoin: miter; stroke-linecap: square"/>
   </g>
   <g id="patch_6">
    <path d="M 81 43.2 
L 583.2 43.2 
" style="fill: none; stroke: #000000; stroke-width: 0.8; stroke-linejoin: miter; stroke-linecap: square"/>
   </g>
   <g id="legend_1">
    <g id="patch_7">
     <path d="M 88 65.878125 
L 161.065625 65.878125 
Q 163.065625 65.878125 163.065625 63.878125 
L 163.065625 50.2 
Q 163.065625 48.2 161.065625 48.2 
L 88 48.2 
Q 86 48.2 86 50.2 
L 86 63.878125 
Q 86 65.878125 88 65.878125 
z
" style="fill: #ffffff; opacity: 0.8; stroke: #cccccc; stroke-linejoin: miter"/>
    </g>
    <g id="line2d_114">
     <path d="M 90 56.298437 
L 100 56.298437 
L 110 56.298437 
" style="fill: none; stroke: #000000; stroke-width: 2.5; stroke-linecap: square"/>
    </g>
    <g id="text_15">
     <!-- Average -->
     <g transform="translate(118 59.798437) scale(0.1 -0.1)">
      <defs>
       <path id="DejaVuSans-41" d="M 2188 4044 
L 1331 1722 
L 3047 1722 
L 2188 4044 
z
M 1831 4666 
L 2547 4666 
L 4325 0 
L 3669 0 
L 3244 1197 
L 1141 1197 
L 716 0 
L 50 0 
L 1831 4666 
z
" transform="scale(0.015625)"/>
       <path id="DejaVuSans-67" d="M 2906 1791 
Q 2906 2416 2648 2759 
Q 2391 3103 1925 3103 
Q 1463 3103 1205 2759 
Q 947 2416 947 1791 
Q 947 1169 1205 825 
Q 1463 481 1925 481 
Q 2391 481 2648 825 
Q 2906 1169 2906 1791 
z
M 3481 434 
Q 3481 -459 3084 -895 
Q 2688 -1331 1869 -1331 
Q 1566 -1331 1297 -1286 
Q 1028 -1241 775 -1147 
L 775 -588 
Q 1028 -725 1275 -790 
Q 1522 -856 1778 -856 
Q 2344 -856 2625 -561 
Q 2906 -266 2906 331 
L 2906 616 
Q 2728 306 2450 153 
Q 2172 0 1784 0 
Q 1141 0 747 490 
Q 353 981 353 1791 
Q 353 2603 747 3093 
Q 1141 3584 1784 3584 
Q 2172 3584 2450 3431 
Q 2728 3278 2906 2969 
L 2906 3500 
L 3481 3500 
L 3481 434 
z
" transform="scale(0.015625)"/>
      </defs>
      <use xlink:href="#DejaVuSans-41"/>
      <use xlink:href="#DejaVuSans-76" x="62.533203"/>
      <use xlink:href="#DejaVuSans-65" x="121.712891"/>
      <use xlink:href="#DejaVuSans-72" x="183.236328"/>
      <use xlink:href="#DejaVuSans-61" x="224.349609"/>
      <use xlink:href="#DejaVuSans-67" x="285.628906"/>
      <use xlink:href="#DejaVuSans-65" x="349.105469"/>
     </g>
    </g>
   </g>
  </g>
 </g>
 <defs>
  <clipPath id="pf8b8e9b2ae">
   <rect x="81" y="43.2" width="502.2" height="277.2"/>
  </clipPath>
 </defs>
</svg>
