<?xml version="1.0" encoding="utf-8" standalone="no"?>
<!DOCTYPE svg PUBLIC "-//W3C//DTD SVG 1.1//EN"
  "http://www.w3.org/Graphics/SVG/1.1/DTD/svg11.dtd">
<svg xmlns:xlink="http://www.w3.org/1999/xlink" width="648pt" height="360pt" viewBox="0 0 648 360" xmlns="http://www.w3.org/2000/svg" version="1.1">
 <metadata>
  <rdf:RDF xmlns:dc="http://purl.org/dc/elements/1.1/" xmlns:cc="http://creativecommons.org/ns#" xmlns:rdf="http://www.w3.org/1999/02/22-rdf-syntax-ns#">
   <cc:Work>
    <dc:type rdf:resource="http://purl.org/dc/dcmitype/StillImage"/>
    <dc:date>2025-09-21T21:50:17.028879</dc:date>
    <dc:format>image/svg+xml</dc:format>
    <dc:creator>
     <cc:Agent>
      <dc:title>Matplotlib v3.8.0, https://matplotlib.org/</dc:title>
     </cc:Agent>
    </dc:creator>
   </cc:Work>
  </rdf:RDF>
 </metadata>
 <defs>
  <style type="text/css">*{stroke-linejoin: round; stroke-linecap: butt}</style>
 </defs>
 <g id="figure_1">
  <g id="patch_1">
   <path d="M 0 360 
L 648 360 
L 648 0 
L 0 0 
z
" style="fill: #ffffff"/>
  </g>
  <g id="axes_1">
   <g id="patch_2">
    <path d="M 81 320.4 
L 583.2 320.4 
L 583.2 43.2 
L 81 43.2 
z
" style="fill: #ffffff"/>
   </g>
   <g id="matplotlib.axis_1">
    <g id="xtick_1">
     <g id="line2d_1">
      <defs>
       <path id="mc159529575" d="M 0 0 
L 0 3.5 
" style="stroke: #000000; stroke-width: 0.8"/>
      </defs>
      <g>
       <use xlink:href="#mc159529575" x="145.331405" y="320.4" style="stroke: #000000; stroke-width: 0.8"/>
      </g>
     </g>
     <g id="text_1">
      <!-- 2012 -->
      <g transform="translate(130.061405 336.518125) scale(0.12 -0.12)">
       <defs>
        <path id="DejaVuSans-32" d="M 1228 531 
L 3431 531 
L 3431 0 
L 469 0 
L 469 531 
Q 828 903 1448 1529 
Q 2069 2156 2228 2338 
Q 2531 2678 2651 2914 
Q 2772 3150 2772 3378 
Q 2772 3750 2511 3984 
Q 2250 4219 1831 4219 
Q 1534 4219 1204 4116 
Q 875 4013 500 3803 
L 500 4441 
Q 881 4594 1212 4672 
Q 1544 4750 1819 4750 
Q 2544 4750 2975 4387 
Q 3406 4025 3406 3419 
Q 3406 3131 3298 2873 
Q 3191 2616 2906 2266 
Q 2828 2175 2409 1742 
Q 1991 1309 1228 531 
z
" transform="scale(0.015625)"/>
        <path id="DejaVuSans-30" d="M 2034 4250 
Q 1547 4250 1301 3770 
Q 1056 3291 1056 2328 
Q 1056 1369 1301 889 
Q 1547 409 2034 409 
Q 2525 409 2770 889 
Q 3016 1369 3016 2328 
Q 3016 3291 2770 3770 
Q 2525 4250 2034 4250 
z
M 2034 4750 
Q 2819 4750 3233 4129 
Q 3647 3509 3647 2328 
Q 3647 1150 3233 529 
Q 2819 -91 2034 -91 
Q 1250 -91 836 529 
Q 422 1150 422 2328 
Q 422 3509 836 4129 
Q 1250 4750 2034 4750 
z
" transform="scale(0.015625)"/>
        <path id="DejaVuSans-31" d="M 794 531 
L 1825 531 
L 1825 4091 
L 703 3866 
L 703 4441 
L 1819 4666 
L 2450 4666 
L 2450 531 
L 3481 531 
L 3481 0 
L 794 0 
L 794 531 
z
" transform="scale(0.015625)"/>
       </defs>
       <use xlink:href="#DejaVuSans-32"/>
       <use xlink:href="#DejaVuSans-30" x="63.623047"/>
       <use xlink:href="#DejaVuSans-31" x="127.246094"/>
       <use xlink:href="#DejaVuSans-32" x="190.869141"/>
      </g>
     </g>
    </g>
    <g id="xtick_2">
     <g id="line2d_2">
      <g>
       <use xlink:href="#mc159529575" x="228.339669" y="320.4" style="stroke: #000000; stroke-width: 0.8"/>
      </g>
     </g>
     <g id="text_2">
      <!-- 2014 -->
      <g transform="translate(213.069669 336.518125) scale(0.12 -0.12)">
       <defs>
        <path id="DejaVuSans-34" d="M 2419 4116 
L 825 1625 
L 2419 1625 
L 2419 4116 
z
M 2253 4666 
L 3047 4666 
L 3047 1625 
L 3713 1625 
L 3713 1100 
L 3047 1100 
L 3047 0 
L 2419 0 
L 2419 1100 
L 313 1100 
L 313 1709 
L 2253 4666 
z
" transform="scale(0.015625)"/>
       </defs>
       <use xlink:href="#DejaVuSans-32"/>
       <use xlink:href="#DejaVuSans-30" x="63.623047"/>
       <use xlink:href="#DejaVuSans-31" x="127.246094"/>
       <use xlink:href="#DejaVuSans-34" x="190.869141"/>
      </g>
     </g>
    </g>
    <g id="xtick_3">
     <g id="line2d_3">
      <g>
       <use xlink:href="#mc159529575" x="311.347934" y="320.4" style="stroke: #000000; stroke-width: 0.8"/>
      </g>
     </g>
     <g id="text_3">
      <!-- 2016 -->
      <g transform="translate(296.077934 336.518125) scale(0.12 -0.12)">
       <defs>
        <path id="DejaVuSans-36" d="M 2113 2584 
Q 1688 2584 1439 2293 
Q 1191 2003 1191 1497 
Q 1191 994 1439 701 
Q 1688 409 2113 409 
Q 2538 409 2786 701 
Q 3034 994 3034 1497 
Q 3034 2003 2786 2293 
Q 2538 2584 2113 2584 
z
M 3366 4563 
L 3366 3988 
Q 3128 4100 2886 4159 
Q 2644 4219 2406 4219 
Q 1781 4219 1451 3797 
Q 1122 3375 1075 2522 
Q 1259 2794 1537 2939 
Q 1816 3084 2150 3084 
Q 2853 3084 3261 2657 
Q 3669 2231 3669 1497 
Q 3669 778 3244 343 
Q 2819 -91 2113 -91 
Q 1303 -91 875 529 
Q 447 1150 447 2328 
Q 447 3434 972 4092 
Q 1497 4750 2381 4750 
Q 2619 4750 2861 4703 
Q 3103 4656 3366 4563 
z
" transform="scale(0.015625)"/>
       </defs>
       <use xlink:href="#DejaVuSans-32"/>
       <use xlink:href="#DejaVuSans-30" x="63.623047"/>
       <use xlink:href="#DejaVuSans-31" x="127.246094"/>
       <use xlink:href="#DejaVuSans-36" x="190.869141"/>
      </g>
     </g>
    </g>
    <g id="xtick_4">
     <g id="line2d_4">
      <g>
       <use xlink:href="#mc159529575" x="394.356198" y="320.4" style="stroke: #000000; stroke-width: 0.8"/>
      </g>
     </g>
     <g id="text_4">
      <!-- 2018 -->
      <g transform="translate(379.086198 336.518125) scale(0.12 -0.12)">
       <defs>
        <path id="DejaVuSans-38" d="M 2034 2216 
Q 1584 2216 1326 1975 
Q 1069 1734 1069 1313 
Q 1069 891 1326 650 
Q 1584 409 2034 409 
Q 2484 409 2743 651 
Q 3003 894 3003 1313 
Q 3003 1734 2745 1975 
Q 2488 2216 2034 2216 
z
M 1403 2484 
Q 997 2584 770 2862 
Q 544 3141 544 3541 
Q 544 4100 942 4425 
Q 1341 4750 2034 4750 
Q 2731 4750 3128 4425 
Q 3525 4100 3525 3541 
Q 3525 3141 3298 2862 
Q 3072 2584 2669 2484 
Q 3125 2378 3379 2068 
Q 3634 1759 3634 1313 
Q 3634 634 3220 271 
Q 2806 -91 2034 -91 
Q 1263 -91 848 271 
Q 434 634 434 1313 
Q 434 1759 690 2068 
Q 947 2378 1403 2484 
z
M 1172 3481 
Q 1172 3119 1398 2916 
Q 1625 2713 2034 2713 
Q 2441 2713 2670 2916 
Q 2900 3119 2900 3481 
Q 2900 3844 2670 4047 
Q 2441 4250 2034 4250 
Q 1625 4250 1398 4047 
Q 1172 3844 1172 3481 
z
" transform="scale(0.015625)"/>
       </defs>
       <use xlink:href="#DejaVuSans-32"/>
       <use xlink:href="#DejaVuSans-30" x="63.623047"/>
       <use xlink:href="#DejaVuSans-31" x="127.246094"/>
       <use xlink:href="#DejaVuSans-38" x="190.869141"/>
      </g>
     </g>
    </g>
    <g id="xtick_5">
     <g id="line2d_5">
      <g>
       <use xlink:href="#mc159529575" x="477.364463" y="320.4" style="stroke: #000000; stroke-width: 0.8"/>
      </g>
     </g>
     <g id="text_5">
      <!-- 2020 -->
      <g transform="translate(462.094463 336.518125) scale(0.12 -0.12)">
       <use xlink:href="#DejaVuSans-32"/>
       <use xlink:href="#DejaVuSans-30" x="63.623047"/>
       <use xlink:href="#DejaVuSans-32" x="127.246094"/>
       <use xlink:href="#DejaVuSans-30" x="190.869141"/>
      </g>
     </g>
    </g>
    <g id="xtick_6">
     <g id="line2d_6">
      <g>
       <use xlink:href="#mc159529575" x="560.372727" y="320.4" style="stroke: #000000; stroke-width: 0.8"/>
      </g>
     </g>
     <g id="text_6">
      <!-- 2022 -->
      <g transform="translate(545.102727 336.518125) scale(0.12 -0.12)">
       <use xlink:href="#DejaVuSans-32"/>
       <use xlink:href="#DejaVuSans-30" x="63.623047"/>
       <use xlink:href="#DejaVuSans-32" x="127.246094"/>
       <use xlink:href="#DejaVuSans-32" x="190.869141"/>
      </g>
     </g>
    </g>
    <g id="text_7">
     <!-- Year -->
     <g transform="translate(316.21875 354.411406) scale(0.15 -0.15)">
      <defs>
       <path id="DejaVuSans-59" d="M -13 4666 
L 666 4666 
L 1959 2747 
L 3244 4666 
L 3922 4666 
L 2272 2222 
L 2272 0 
L 1638 0 
L 1638 2222 
L -13 4666 
z
" transform="scale(0.015625)"/>
       <path id="DejaVuSans-65" d="M 3597 1894 
L 3597 1613 
L 953 1613 
Q 991 1019 1311 708 
Q 1631 397 2203 397 
Q 2534 397 2845 478 
Q 3156 559 3463 722 
L 3463 178 
Q 3153 47 2828 -22 
Q 2503 -91 2169 -91 
Q 1331 -91 842 396 
Q 353 884 353 1716 
Q 353 2575 817 3079 
Q 1281 3584 2069 3584 
Q 2775 3584 3186 3129 
Q 3597 2675 3597 1894 
z
M 3022 2063 
Q 3016 2534 2758 2815 
Q 2500 3097 2075 3097 
Q 1594 3097 1305 2825 
Q 1016 2553 972 2059 
L 3022 2063 
z
" transform="scale(0.015625)"/>
       <path id="DejaVuSans-61" d="M 2194 1759 
Q 1497 1759 1228 1600 
Q 959 1441 959 1056 
Q 959 750 1161 570 
Q 1363 391 1709 391 
Q 2188 391 2477 730 
Q 2766 1069 2766 1631 
L 2766 1759 
L 2194 1759 
z
M 3341 1997 
L 3341 0 
L 2766 0 
L 2766 531 
Q 2569 213 2275 61 
Q 1981 -91 1556 -91 
Q 1019 -91 701 211 
Q 384 513 384 1019 
Q 384 1609 779 1909 
Q 1175 2209 1959 2209 
L 2766 2209 
L 2766 2266 
Q 2766 2663 2505 2880 
Q 2244 3097 1772 3097 
Q 1472 3097 1187 3025 
Q 903 2953 641 2809 
L 641 3341 
Q 956 3463 1253 3523 
Q 1550 3584 1831 3584 
Q 2591 3584 2966 3190 
Q 3341 2797 3341 1997 
z
" transform="scale(0.015625)"/>
       <path id="DejaVuSans-72" d="M 2631 2963 
Q 2534 3019 2420 3045 
Q 2306 3072 2169 3072 
Q 1681 3072 1420 2755 
Q 1159 2438 1159 1844 
L 1159 0 
L 581 0 
L 581 3500 
L 1159 3500 
L 1159 2956 
Q 1341 3275 1631 3429 
Q 1922 3584 2338 3584 
Q 2397 3584 2469 3576 
Q 2541 3569 2628 3553 
L 2631 2963 
z
" transform="scale(0.015625)"/>
      </defs>
      <use xlink:href="#DejaVuSans-59"/>
      <use xlink:href="#DejaVuSans-65" x="47.833984"/>
      <use xlink:href="#DejaVuSans-61" x="109.357422"/>
      <use xlink:href="#DejaVuSans-72" x="170.636719"/>
     </g>
    </g>
   </g>
   <g id="matplotlib.axis_2">
    <g id="ytick_1">
     <g id="line2d_7">
      <defs>
       <path id="m653c27095d" d="M 0 0 
L -3.5 0 
" style="stroke: #000000; stroke-width: 0.8"/>
      </defs>
      <g>
       <use xlink:href="#m653c27095d" x="81" y="304.610194" style="stroke: #000000; stroke-width: 0.8"/>
      </g>
     </g>
     <g id="text_8">
      <!-- 20 -->
      <g transform="translate(58.73 309.169256) scale(0.12 -0.12)">
       <use xlink:href="#DejaVuSans-32"/>
       <use xlink:href="#DejaVuSans-30" x="63.623047"/>
      </g>
     </g>
    </g>
    <g id="ytick_2">
     <g id="line2d_8">
      <g>
       <use xlink:href="#m653c27095d" x="81" y="251.753333" style="stroke: #000000; stroke-width: 0.8"/>
      </g>
     </g>
     <g id="text_9">
      <!-- 25 -->
      <g transform="translate(58.73 256.312396) scale(0.12 -0.12)">
       <defs>
        <path id="DejaVuSans-35" d="M 691 4666 
L 3169 4666 
L 3169 4134 
L 1269 4134 
L 1269 2991 
Q 1406 3038 1543 3061 
Q 1681 3084 1819 3084 
Q 2600 3084 3056 2656 
Q 3513 2228 3513 1497 
Q 3513 744 3044 326 
Q 2575 -91 1722 -91 
Q 1428 -91 1123 -41 
Q 819 9 494 109 
L 494 744 
Q 775 591 1075 516 
Q 1375 441 1709 441 
Q 2250 441 2565 725 
Q 2881 1009 2881 1497 
Q 2881 1984 2565 2268 
Q 2250 2553 1709 2553 
Q 1456 2553 1204 2497 
Q 953 2441 691 2322 
L 691 4666 
z
" transform="scale(0.015625)"/>
       </defs>
       <use xlink:href="#DejaVuSans-32"/>
       <use xlink:href="#DejaVuSans-35" x="63.623047"/>
      </g>
     </g>
    </g>
    <g id="ytick_3">
     <g id="line2d_9">
      <g>
       <use xlink:href="#m653c27095d" x="81" y="198.896472" style="stroke: #000000; stroke-width: 0.8"/>
      </g>
     </g>
     <g id="text_10">
      <!-- 30 -->
      <g transform="translate(58.73 203.455535) scale(0.12 -0.12)">
       <defs>
        <path id="DejaVuSans-33" d="M 2597 2516 
Q 3050 2419 3304 2112 
Q 3559 1806 3559 1356 
Q 3559 666 3084 287 
Q 2609 -91 1734 -91 
Q 1441 -91 1130 -33 
Q 819 25 488 141 
L 488 750 
Q 750 597 1062 519 
Q 1375 441 1716 441 
Q 2309 441 2620 675 
Q 2931 909 2931 1356 
Q 2931 1769 2642 2001 
Q 2353 2234 1838 2234 
L 1294 2234 
L 1294 2753 
L 1863 2753 
Q 2328 2753 2575 2939 
Q 2822 3125 2822 3475 
Q 2822 3834 2567 4026 
Q 2313 4219 1838 4219 
Q 1578 4219 1281 4162 
Q 984 4106 628 3988 
L 628 4550 
Q 988 4650 1302 4700 
Q 1616 4750 1894 4750 
Q 2613 4750 3031 4423 
Q 3450 4097 3450 3541 
Q 3450 3153 3228 2886 
Q 3006 2619 2597 2516 
z
" transform="scale(0.015625)"/>
       </defs>
       <use xlink:href="#DejaVuSans-33"/>
       <use xlink:href="#DejaVuSans-30" x="63.623047"/>
      </g>
     </g>
    </g>
    <g id="ytick_4">
     <g id="line2d_10">
      <g>
       <use xlink:href="#m653c27095d" x="81" y="146.039612" style="stroke: #000000; stroke-width: 0.8"/>
      </g>
     </g>
     <g id="text_11">
      <!-- 35 -->
      <g transform="translate(58.73 150.598674) scale(0.12 -0.12)">
       <use xlink:href="#DejaVuSans-33"/>
       <use xlink:href="#DejaVuSans-35" x="63.623047"/>
      </g>
     </g>
    </g>
    <g id="ytick_5">
     <g id="line2d_11">
      <g>
       <use xlink:href="#m653c27095d" x="81" y="93.182751" style="stroke: #000000; stroke-width: 0.8"/>
      </g>
     </g>
     <g id="text_12">
      <!-- 40 -->
      <g transform="translate(58.73 97.741813) scale(0.12 -0.12)">
       <use xlink:href="#DejaVuSans-34"/>
       <use xlink:href="#DejaVuSans-30" x="63.623047"/>
      </g>
     </g>
    </g>
    <g id="text_13">
     <!-- Total coral cover (%) -->
     <g transform="translate(51.610469 258.769922) rotate(-90) scale(0.15 -0.15)">
      <defs>
       <path id="DejaVuSans-54" d="M -19 4666 
L 3928 4666 
L 3928 4134 
L 2272 4134 
L 2272 0 
L 1638 0 
L 1638 4134 
L -19 4134 
L -19 4666 
z
" transform="scale(0.015625)"/>
       <path id="DejaVuSans-6f" d="M 1959 3097 
Q 1497 3097 1228 2736 
Q 959 2375 959 1747 
Q 959 1119 1226 758 
Q 1494 397 1959 397 
Q 2419 397 2687 759 
Q 2956 1122 2956 1747 
Q 2956 2369 2687 2733 
Q 2419 3097 1959 3097 
z
M 1959 3584 
Q 2709 3584 3137 3096 
Q 3566 2609 3566 1747 
Q 3566 888 3137 398 
Q 2709 -91 1959 -91 
Q 1206 -91 779 398 
Q 353 888 353 1747 
Q 353 2609 779 3096 
Q 1206 3584 1959 3584 
z
" transform="scale(0.015625)"/>
       <path id="DejaVuSans-74" d="M 1172 4494 
L 1172 3500 
L 2356 3500 
L 2356 3053 
L 1172 3053 
L 1172 1153 
Q 1172 725 1289 603 
Q 1406 481 1766 481 
L 2356 481 
L 2356 0 
L 1766 0 
Q 1100 0 847 248 
Q 594 497 594 1153 
L 594 3053 
L 172 3053 
L 172 3500 
L 594 3500 
L 594 4494 
L 1172 4494 
z
" transform="scale(0.015625)"/>
       <path id="DejaVuSans-6c" d="M 603 4863 
L 1178 4863 
L 1178 0 
L 603 0 
L 603 4863 
z
" transform="scale(0.015625)"/>
       <path id="DejaVuSans-20" transform="scale(0.015625)"/>
       <path id="DejaVuSans-63" d="M 3122 3366 
L 3122 2828 
Q 2878 2963 2633 3030 
Q 2388 3097 2138 3097 
Q 1578 3097 1268 2742 
Q 959 2388 959 1747 
Q 959 1106 1268 751 
Q 1578 397 2138 397 
Q 2388 397 2633 464 
Q 2878 531 3122 666 
L 3122 134 
Q 2881 22 2623 -34 
Q 2366 -91 2075 -91 
Q 1284 -91 818 406 
Q 353 903 353 1747 
Q 353 2603 823 3093 
Q 1294 3584 2113 3584 
Q 2378 3584 2631 3529 
Q 2884 3475 3122 3366 
z
" transform="scale(0.015625)"/>
       <path id="DejaVuSans-76" d="M 191 3500 
L 800 3500 
L 1894 563 
L 2988 3500 
L 3597 3500 
L 2284 0 
L 1503 0 
L 191 3500 
z
" transform="scale(0.015625)"/>
       <path id="DejaVuSans-28" d="M 1984 4856 
Q 1566 4138 1362 3434 
Q 1159 2731 1159 2009 
Q 1159 1288 1364 580 
Q 1569 -128 1984 -844 
L 1484 -844 
Q 1016 -109 783 600 
Q 550 1309 550 2009 
Q 550 2706 781 3412 
Q 1013 4119 1484 4856 
L 1984 4856 
z
" transform="scale(0.015625)"/>
       <path id="DejaVuSans-25" d="M 4653 2053 
Q 4381 2053 4226 1822 
Q 4072 1591 4072 1178 
Q 4072 772 4226 539 
Q 4381 306 4653 306 
Q 4919 306 5073 539 
Q 5228 772 5228 1178 
Q 5228 1588 5073 1820 
Q 4919 2053 4653 2053 
z
M 4653 2450 
Q 5147 2450 5437 2106 
Q 5728 1763 5728 1178 
Q 5728 594 5436 251 
Q 5144 -91 4653 -91 
Q 4153 -91 3862 251 
Q 3572 594 3572 1178 
Q 3572 1766 3864 2108 
Q 4156 2450 4653 2450 
z
M 1428 4353 
Q 1159 4353 1004 4120 
Q 850 3888 850 3481 
Q 850 3069 1003 2837 
Q 1156 2606 1428 2606 
Q 1700 2606 1854 2837 
Q 2009 3069 2009 3481 
Q 2009 3884 1853 4118 
Q 1697 4353 1428 4353 
z
M 4250 4750 
L 4750 4750 
L 1831 -91 
L 1331 -91 
L 4250 4750 
z
M 1428 4750 
Q 1922 4750 2215 4408 
Q 2509 4066 2509 3481 
Q 2509 2891 2217 2550 
Q 1925 2209 1428 2209 
Q 931 2209 642 2551 
Q 353 2894 353 3481 
Q 353 4063 643 4406 
Q 934 4750 1428 4750 
z
" transform="scale(0.015625)"/>
       <path id="DejaVuSans-29" d="M 513 4856 
L 1013 4856 
Q 1481 4119 1714 3412 
Q 1947 2706 1947 2009 
Q 1947 1309 1714 600 
Q 1481 -109 1013 -844 
L 513 -844 
Q 928 -128 1133 580 
Q 1338 1288 1338 2009 
Q 1338 2731 1133 3434 
Q 928 4138 513 4856 
z
" transform="scale(0.015625)"/>
      </defs>
      <use xlink:href="#DejaVuSans-54"/>
      <use xlink:href="#DejaVuSans-6f" x="44.083984"/>
      <use xlink:href="#DejaVuSans-74" x="105.265625"/>
      <use xlink:href="#DejaVuSans-61" x="144.474609"/>
      <use xlink:href="#DejaVuSans-6c" x="205.753906"/>
      <use xlink:href="#DejaVuSans-20" x="233.537109"/>
      <use xlink:href="#DejaVuSans-63" x="265.324219"/>
      <use xlink:href="#DejaVuSans-6f" x="320.304688"/>
      <use xlink:href="#DejaVuSans-72" x="381.486328"/>
      <use xlink:href="#DejaVuSans-61" x="422.599609"/>
      <use xlink:href="#DejaVuSans-6c" x="483.878906"/>
      <use xlink:href="#DejaVuSans-20" x="511.662109"/>
      <use xlink:href="#DejaVuSans-63" x="543.449219"/>
      <use xlink:href="#DejaVuSans-6f" x="598.429688"/>
      <use xlink:href="#DejaVuSans-76" x="659.611328"/>
      <use xlink:href="#DejaVuSans-65" x="718.791016"/>
      <use xlink:href="#DejaVuSans-72" x="780.314453"/>
      <use xlink:href="#DejaVuSans-20" x="821.427734"/>
      <use xlink:href="#DejaVuSans-28" x="853.214844"/>
      <use xlink:href="#DejaVuSans-25" x="892.228516"/>
      <use xlink:href="#DejaVuSans-29" x="987.248047"/>
     </g>
    </g>
   </g>
   <g id="line2d_12">
    <path d="M 103.827273 307.781605 
L 145.331405 300.918069 
L 186.835537 295.688627 
L 228.339669 286.155285 
L 269.843802 278.742163 
L 311.347934 264.434666 
L 352.852066 247.149411 
L 394.356198 218.995184 
L 435.860331 187.171694 
L 477.364463 150.971185 
L 518.868595 113.438085 
L 560.372727 71.411485 
" clip-path="url(#p25fdd09228)" style="fill: none; stroke-dasharray: 3.7,1.6; stroke-dashoffset: 0; stroke: #1f77b4; stroke-opacity: 0.6"/>
   </g>
   <g id="line2d_13">
    <path d="M 103.827273 307.781605 
L 145.331405 303.759473 
L 186.835537 299.459146 
L 228.339669 287.832149 
L 269.843802 275.68131 
L 311.347934 256.610532 
L 352.852066 238.059468 
L 394.356198 215.05016 
L 435.860331 182.284242 
L 477.364463 148.650325 
L 518.868595 112.370703 
L 560.372727 70.436085 
" clip-path="url(#p25fdd09228)" style="fill: none; stroke-dasharray: 3.7,1.6; stroke-dashoffset: 0; stroke: #ff7f0e; stroke-opacity: 0.6"/>
   </g>
   <g id="line2d_14">
    <path d="M 103.827273 307.781605 
L 145.331405 297.551725 
L 186.835537 294.555203 
L 228.339669 281.531912 
L 269.843802 270.580912 
L 311.347934 255.761587 
L 352.852066 229.864722 
L 394.356198 207.099266 
L 435.860331 176.375917 
L 477.364463 142.416581 
L 518.868595 100.577488 
L 560.372727 61.486286 
" clip-path="url(#p25fdd09228)" style="fill: none; stroke-dasharray: 3.7,1.6; stroke-dashoffset: 0; stroke: #2ca02c; stroke-opacity: 0.6"/>
   </g>
   <g id="line2d_15">
    <path d="M 103.827273 307.781605 
L 145.331405 303.989667 
L 186.835537 298.498049 
L 228.339669 294.674833 
L 269.843802 285.917611 
L 311.347934 268.43536 
L 352.852066 251.877241 
L 394.356198 230.33245 
L 435.860331 201.816771 
L 477.364463 168.891523 
L 518.868595 130.29915 
L 560.372727 88.447333 
" clip-path="url(#p25fdd09228)" style="fill: none; stroke-dasharray: 3.7,1.6; stroke-dashoffset: 0; stroke: #d62728; stroke-opacity: 0.6"/>
   </g>
   <g id="line2d_16">
    <path d="M 103.827273 307.781605 
L 145.331405 304.817242 
L 186.835537 303.194083 
L 228.339669 296.801466 
L 269.843802 288.305489 
L 311.347934 276.471562 
L 352.852066 259.965438 
L 394.356198 239.125776 
L 435.860331 208.078935 
L 477.364463 170.309786 
L 518.868595 130.953622 
L 560.372727 88.019846 
" clip-path="url(#p25fdd09228)" style="fill: none; stroke-dasharray: 3.7,1.6; stroke-dashoffset: 0; stroke: #9467bd; stroke-opacity: 0.6"/>
   </g>
   <g id="line2d_17">
    <path d="M 103.827273 307.781605 
L 145.331405 303.739339 
L 186.835537 295.107583 
L 228.339669 288.103446 
L 269.843802 280.436717 
L 311.347934 268.183157 
L 352.852066 245.158358 
L 394.356198 225.628563 
L 435.860331 195.048836 
L 477.364463 164.192447 
L 518.868595 126.437345 
L 560.372727 82.524516 
" clip-path="url(#p25fdd09228)" style="fill: none; stroke-dasharray: 3.7,1.6; stroke-dashoffset: 0; stroke: #8c564b; stroke-opacity: 0.6"/>
   </g>
   <g id="line2d_18">
    <path d="M 103.827273 307.781605 
L 145.331405 305.511662 
L 186.835537 302.265253 
L 228.339669 293.013923 
L 269.843802 280.85564 
L 311.347934 261.421169 
L 352.852066 240.126789 
L 394.356198 217.322968 
L 435.860331 188.497132 
L 477.364463 153.766351 
L 518.868595 110.02426 
L 560.372727 62.050293 
" clip-path="url(#p25fdd09228)" style="fill: none; stroke-dasharray: 3.7,1.6; stroke-dashoffset: 0; stroke: #e377c2; stroke-opacity: 0.6"/>
   </g>
   <g id="line2d_19">
    <path d="M 103.827273 307.781605 
L 145.331405 303.973373 
L 186.835537 295.276902 
L 228.339669 287.440366 
L 269.843802 274.365721 
L 311.347934 255.968032 
L 352.852066 239.219043 
L 394.356198 215.101258 
L 435.860331 189.536141 
L 477.364463 158.429614 
L 518.868595 122.09175 
L 560.372727 82.92509 
" clip-path="url(#p25fdd09228)" style="fill: none; stroke-dasharray: 3.7,1.6; stroke-dashoffset: 0; stroke: #7f7f7f; stroke-opacity: 0.6"/>
   </g>
   <g id="line2d_20">
    <path d="M 103.827273 307.781605 
L 145.331405 300.536455 
L 186.835537 292.742493 
L 228.339669 284.728497 
L 269.843802 273.013249 
L 311.347934 260.134738 
L 352.852066 239.623853 
L 394.356198 212.318599 
L 435.860331 183.689386 
L 477.364463 148.137728 
L 518.868595 110.811637 
L 560.372727 69.465294 
" clip-path="url(#p25fdd09228)" style="fill: none; stroke-dasharray: 3.7,1.6; stroke-dashoffset: 0; stroke: #bcbd22; stroke-opacity: 0.6"/>
   </g>
   <g id="line2d_21">
    <path d="M 103.827273 307.781605 
L 145.331405 305.359411 
L 186.835537 303.176204 
L 228.339669 289.917632 
L 269.843802 282.453006 
L 311.347934 268.266273 
L 352.852066 247.653387 
L 394.356198 227.175447 
L 435.860331 198.907485 
L 477.364463 168.570067 
L 518.868595 129.846628 
L 560.372727 87.837292 
" clip-path="url(#p25fdd09228)" style="fill: none; stroke-dasharray: 3.7,1.6; stroke-dashoffset: 0; stroke: #17becf; stroke-opacity: 0.6"/>
   </g>
   <g id="line2d_22">
    <path d="M 103.827273 307.781605 
L 145.331405 301.826077 
L 186.835537 297.028158 
L 228.339669 290.754618 
L 269.843802 279.478681 
L 311.347934 265.846888 
L 352.852066 247.237845 
L 394.356198 227.288251 
L 435.860331 203.500687 
L 477.364463 170.37803 
L 518.868595 133.537249 
L 560.372727 96.106418 
" clip-path="url(#p25fdd09228)" style="fill: none; stroke-dasharray: 3.7,1.6; stroke-dashoffset: 0; stroke: #1f77b4; stroke-opacity: 0.6"/>
   </g>
   <g id="line2d_23">
    <path d="M 103.827273 307.781605 
L 145.331405 304.197443 
L 186.835537 300.093992 
L 228.339669 291.279472 
L 269.843802 283.389244 
L 311.347934 268.328431 
L 352.852066 248.551644 
L 394.356198 227.960333 
L 435.860331 203.103328 
L 477.364463 172.327459 
L 518.868595 136.541745 
L 560.372727 93.558321 
" clip-path="url(#p25fdd09228)" style="fill: none; stroke-dasharray: 3.7,1.6; stroke-dashoffset: 0; stroke: #ff7f0e; stroke-opacity: 0.6"/>
   </g>
   <g id="line2d_24">
    <path d="M 103.827273 307.781605 
L 145.331405 304.319804 
L 186.835537 302.099799 
L 228.339669 297.143754 
L 269.843802 285.449601 
L 311.347934 270.970462 
L 352.852066 245.92972 
L 394.356198 220.42912 
L 435.860331 191.038254 
L 477.364463 155.431673 
L 518.868595 115.488697 
L 560.372727 71.549732 
" clip-path="url(#p25fdd09228)" style="fill: none; stroke-dasharray: 3.7,1.6; stroke-dashoffset: 0; stroke: #2ca02c; stroke-opacity: 0.6"/>
   </g>
   <g id="line2d_25">
    <path d="M 103.827273 307.781605 
L 145.331405 303.222183 
L 186.835537 294.14812 
L 228.339669 284.443468 
L 269.843802 275.256818 
L 311.347934 260.817192 
L 352.852066 249.104109 
L 394.356198 230.428724 
L 435.860331 204.467873 
L 477.364463 175.956581 
L 518.868595 141.419403 
L 560.372727 102.113609 
" clip-path="url(#p25fdd09228)" style="fill: none; stroke-dasharray: 3.7,1.6; stroke-dashoffset: 0; stroke: #d62728; stroke-opacity: 0.6"/>
   </g>
   <g id="line2d_26">
    <path d="M 103.827273 307.781605 
L 145.331405 302.308466 
L 186.835537 297.216617 
L 228.339669 290.855112 
L 269.843802 275.124612 
L 311.347934 262.967801 
L 352.852066 248.800284 
L 394.356198 227.175217 
L 435.860331 196.914409 
L 477.364463 157.672864 
L 518.868595 119.959276 
L 560.372727 81.300308 
" clip-path="url(#p25fdd09228)" style="fill: none; stroke-dasharray: 3.7,1.6; stroke-dashoffset: 0; stroke: #9467bd; stroke-opacity: 0.6"/>
   </g>
   <g id="line2d_27">
    <path d="M 103.827273 307.781605 
L 145.331405 305.108564 
L 186.835537 300.694162 
L 228.339669 294.955938 
L 269.843802 282.636802 
L 311.347934 268.850371 
L 352.852066 249.30822 
L 394.356198 229.636669 
L 435.860331 199.732067 
L 477.364463 166.247887 
L 518.868595 122.645677 
L 560.372727 81.04255 
" clip-path="url(#p25fdd09228)" style="fill: none; stroke-dasharray: 3.7,1.6; stroke-dashoffset: 0; stroke: #8c564b; stroke-opacity: 0.6"/>
   </g>
   <g id="line2d_28">
    <path d="M 103.827273 307.781605 
L 145.331405 302.605601 
L 186.835537 291.900096 
L 228.339669 280.500104 
L 269.843802 265.274656 
L 311.347934 247.689271 
L 352.852066 233.474973 
L 394.356198 213.867808 
L 435.860331 190.352126 
L 477.364463 158.445801 
L 518.868595 124.126398 
L 560.372727 84.058329 
" clip-path="url(#p25fdd09228)" style="fill: none; stroke-dasharray: 3.7,1.6; stroke-dashoffset: 0; stroke: #e377c2; stroke-opacity: 0.6"/>
   </g>
   <g id="line2d_29">
    <path d="M 103.827273 307.781605 
L 145.331405 304.458356 
L 186.835537 298.206301 
L 228.339669 293.644727 
L 269.843802 285.067544 
L 311.347934 268.653812 
L 352.852066 251.217016 
L 394.356198 227.171658 
L 435.860331 199.479342 
L 477.364463 167.165457 
L 518.868595 131.025146 
L 560.372727 89.828835 
" clip-path="url(#p25fdd09228)" style="fill: none; stroke-dasharray: 3.7,1.6; stroke-dashoffset: 0; stroke: #7f7f7f; stroke-opacity: 0.6"/>
   </g>
   <g id="line2d_30">
    <path d="M 103.827273 307.781605 
L 145.331405 302.295805 
L 186.835537 299.452547 
L 228.339669 289.544771 
L 269.843802 278.491212 
L 311.347934 261.489695 
L 352.852066 239.764259 
L 394.356198 217.950576 
L 435.860331 187.126124 
L 477.364463 153.834947 
L 518.868595 115.21146 
L 560.372727 70.878657 
" clip-path="url(#p25fdd09228)" style="fill: none; stroke-dasharray: 3.7,1.6; stroke-dashoffset: 0; stroke: #bcbd22; stroke-opacity: 0.6"/>
   </g>
   <g id="line2d_31">
    <path d="M 103.827273 307.781605 
L 145.331405 301.948231 
L 186.835537 297.491836 
L 228.339669 283.383814 
L 269.843802 269.08241 
L 311.347934 254.227129 
L 352.852066 230.378975 
L 394.356198 207.982148 
L 435.860331 180.314839 
L 477.364463 149.227736 
L 518.868595 113.928033 
L 560.372727 74.503172 
" clip-path="url(#p25fdd09228)" style="fill: none; stroke-dasharray: 3.7,1.6; stroke-dashoffset: 0; stroke: #17becf; stroke-opacity: 0.6"/>
   </g>
   <g id="line2d_32">
    <path d="M 103.827273 307.781605 
L 145.331405 296.645585 
L 186.835537 290.578821 
L 228.339669 277.821838 
L 269.843802 269.226788 
L 311.347934 257.049471 
L 352.852066 244.766457 
L 394.356198 225.775297 
L 435.860331 201.798158 
L 477.364463 172.164737 
L 518.868595 136.547601 
L 560.372727 94.755678 
" clip-path="url(#p25fdd09228)" style="fill: none; stroke-dasharray: 3.7,1.6; stroke-dashoffset: 0; stroke: #1f77b4; stroke-opacity: 0.6"/>
   </g>
   <g id="line2d_33">
    <path d="M 103.827273 307.781605 
L 145.331405 302.608714 
L 186.835537 294.824734 
L 228.339669 290.160615 
L 269.843802 283.068411 
L 311.347934 273.83554 
L 352.852066 261.422995 
L 394.356198 240.765637 
L 435.860331 217.598907 
L 477.364463 186.560662 
L 518.868595 145.774226 
L 560.372727 103.467955 
" clip-path="url(#p25fdd09228)" style="fill: none; stroke-dasharray: 3.7,1.6; stroke-dashoffset: 0; stroke: #ff7f0e; stroke-opacity: 0.6"/>
   </g>
   <g id="line2d_34">
    <path d="M 103.827273 307.781605 
L 145.331405 303.481851 
L 186.835537 300.37459 
L 228.339669 289.791946 
L 269.843802 278.762355 
L 311.347934 264.916273 
L 352.852066 246.685643 
L 394.356198 224.580379 
L 435.860331 197.619466 
L 477.364463 164.07423 
L 518.868595 125.043969 
L 560.372727 80.255671 
" clip-path="url(#p25fdd09228)" style="fill: none; stroke-dasharray: 3.7,1.6; stroke-dashoffset: 0; stroke: #2ca02c; stroke-opacity: 0.6"/>
   </g>
   <g id="line2d_35">
    <path d="M 103.827273 307.781605 
L 145.331405 303.83233 
L 186.835537 294.164474 
L 228.339669 289.638532 
L 269.843802 281.079576 
L 311.347934 266.066401 
L 352.852066 245.037466 
L 394.356198 221.73651 
L 435.860331 192.378041 
L 477.364463 160.067747 
L 518.868595 119.702638 
L 560.372727 79.021396 
" clip-path="url(#p25fdd09228)" style="fill: none; stroke-dasharray: 3.7,1.6; stroke-dashoffset: 0; stroke: #d62728; stroke-opacity: 0.6"/>
   </g>
   <g id="line2d_36">
    <path d="M 103.827273 307.781605 
L 145.331405 305.556497 
L 186.835537 301.810563 
L 228.339669 297.012422 
L 269.843802 289.659373 
L 311.347934 278.965226 
L 352.852066 260.86067 
L 394.356198 240.426385 
L 435.860331 210.521343 
L 477.364463 172.200517 
L 518.868595 131.357075 
L 560.372727 89.909638 
" clip-path="url(#p25fdd09228)" style="fill: none; stroke-dasharray: 3.7,1.6; stroke-dashoffset: 0; stroke: #9467bd; stroke-opacity: 0.6"/>
   </g>
   <g id="line2d_37">
    <path d="M 103.827273 307.781605 
L 145.331405 301.229318 
L 186.835537 297.952189 
L 228.339669 286.647377 
L 269.843802 271.933682 
L 311.347934 258.085258 
L 352.852066 242.470059 
L 394.356198 220.634268 
L 435.860331 191.56063 
L 477.364463 158.441783 
L 518.868595 121.767457 
L 560.372727 80.257549 
" clip-path="url(#p25fdd09228)" style="fill: none; stroke-dasharray: 3.7,1.6; stroke-dashoffset: 0; stroke: #8c564b; stroke-opacity: 0.6"/>
   </g>
   <g id="line2d_38">
    <path d="M 103.827273 307.781605 
L 145.331405 305.477621 
L 186.835537 300.65837 
L 228.339669 292.499173 
L 269.843802 283.559621 
L 311.347934 265.153007 
L 352.852066 242.286425 
L 394.356198 224.049563 
L 435.860331 191.909181 
L 477.364463 161.196012 
L 518.868595 126.874273 
L 560.372727 87.354089 
" clip-path="url(#p25fdd09228)" style="fill: none; stroke-dasharray: 3.7,1.6; stroke-dashoffset: 0; stroke: #e377c2; stroke-opacity: 0.6"/>
   </g>
   <g id="line2d_39">
    <path d="M 103.827273 307.781605 
L 145.331405 306.30447 
L 186.835537 299.408814 
L 228.339669 293.01976 
L 269.843802 286.38325 
L 311.347934 274.123355 
L 352.852066 260.555582 
L 394.356198 241.924493 
L 435.860331 210.094166 
L 477.364463 179.365996 
L 518.868595 137.320836 
L 560.372727 91.592443 
" clip-path="url(#p25fdd09228)" style="fill: none; stroke-dasharray: 3.7,1.6; stroke-dashoffset: 0; stroke: #7f7f7f; stroke-opacity: 0.6"/>
   </g>
   <g id="line2d_40">
    <path d="M 103.827273 307.781605 
L 145.331405 305.894107 
L 186.835537 299.761781 
L 228.339669 292.577967 
L 269.843802 276.221568 
L 311.347934 264.120329 
L 352.852066 240.823989 
L 394.356198 210.703124 
L 435.860331 176.84095 
L 477.364463 137.119176 
L 518.868595 100.733878 
L 560.372727 57.732928 
" clip-path="url(#p25fdd09228)" style="fill: none; stroke-dasharray: 3.7,1.6; stroke-dashoffset: 0; stroke: #bcbd22; stroke-opacity: 0.6"/>
   </g>
   <g id="line2d_41">
    <path d="M 103.827273 307.781605 
L 145.331405 306.587904 
L 186.835537 300.477307 
L 228.339669 293.356597 
L 269.843802 284.74734 
L 311.347934 273.380231 
L 352.852066 258.143313 
L 394.356198 234.425575 
L 435.860331 202.795289 
L 477.364463 168.92464 
L 518.868595 124.661714 
L 560.372727 76.490007 
" clip-path="url(#p25fdd09228)" style="fill: none; stroke-dasharray: 3.7,1.6; stroke-dashoffset: 0; stroke: #17becf; stroke-opacity: 0.6"/>
   </g>
   <g id="line2d_42">
    <path d="M 103.827273 307.781605 
L 145.331405 302.35081 
L 186.835537 292.809099 
L 228.339669 284.376484 
L 269.843802 275.389679 
L 311.347934 261.306661 
L 352.852066 240.63907 
L 394.356198 213.968307 
L 435.860331 185.456782 
L 477.364463 147.697048 
L 518.868595 110.703712 
L 560.372727 66.089765 
" clip-path="url(#p25fdd09228)" style="fill: none; stroke-dasharray: 3.7,1.6; stroke-dashoffset: 0; stroke: #1f77b4; stroke-opacity: 0.6"/>
   </g>
   <g id="line2d_43">
    <path d="M 103.827273 307.781605 
L 145.331405 305.643157 
L 186.835537 300.570632 
L 228.339669 294.63005 
L 269.843802 286.610258 
L 311.347934 269.695636 
L 352.852066 251.009699 
L 394.356198 229.848691 
L 435.860331 205.88985 
L 477.364463 174.02656 
L 518.868595 135.451446 
L 560.372727 92.851873 
" clip-path="url(#p25fdd09228)" style="fill: none; stroke-dasharray: 3.7,1.6; stroke-dashoffset: 0; stroke: #ff7f0e; stroke-opacity: 0.6"/>
   </g>
   <g id="line2d_44">
    <path d="M 103.827273 307.781605 
L 145.331405 302.023267 
L 186.835537 298.679421 
L 228.339669 293.653344 
L 269.843802 282.030442 
L 311.347934 269.650072 
L 352.852066 252.42135 
L 394.356198 232.889562 
L 435.860331 203.983665 
L 477.364463 175.272748 
L 518.868595 137.444794 
L 560.372727 98.13407 
" clip-path="url(#p25fdd09228)" style="fill: none; stroke-dasharray: 3.7,1.6; stroke-dashoffset: 0; stroke: #2ca02c; stroke-opacity: 0.6"/>
   </g>
   <g id="line2d_45">
    <path d="M 103.827273 307.781605 
L 145.331405 299.110564 
L 186.835537 292.800124 
L 228.339669 282.230045 
L 269.843802 272.677747 
L 311.347934 260.370427 
L 352.852066 243.253903 
L 394.356198 224.617546 
L 435.860331 199.847059 
L 477.364463 169.11631 
L 518.868595 129.434744 
L 560.372727 94.243443 
" clip-path="url(#p25fdd09228)" style="fill: none; stroke-dasharray: 3.7,1.6; stroke-dashoffset: 0; stroke: #d62728; stroke-opacity: 0.6"/>
   </g>
   <g id="line2d_46">
    <path d="M 103.827273 307.781605 
L 145.331405 297.859341 
L 186.835537 295.566093 
L 228.339669 290.486073 
L 269.843802 277.892389 
L 311.347934 267.698708 
L 352.852066 250.660104 
L 394.356198 230.758533 
L 435.860331 203.469413 
L 477.364463 171.160966 
L 518.868595 134.276229 
L 560.372727 91.008758 
" clip-path="url(#p25fdd09228)" style="fill: none; stroke-dasharray: 3.7,1.6; stroke-dashoffset: 0; stroke: #9467bd; stroke-opacity: 0.6"/>
   </g>
   <g id="line2d_47">
    <path d="M 103.827273 307.781605 
L 145.331405 301.814454 
L 186.835537 293.974933 
L 228.339669 289.41598 
L 269.843802 282.562096 
L 311.347934 266.724696 
L 352.852066 246.911101 
L 394.356198 222.295474 
L 435.860331 198.980903 
L 477.364463 168.270866 
L 518.868595 132.400101 
L 560.372727 95.185109 
" clip-path="url(#p25fdd09228)" style="fill: none; stroke-dasharray: 3.7,1.6; stroke-dashoffset: 0; stroke: #8c564b; stroke-opacity: 0.6"/>
   </g>
   <g id="line2d_48">
    <path d="M 103.827273 307.781605 
L 145.331405 297.564075 
L 186.835537 288.596119 
L 228.339669 280.391387 
L 269.843802 272.135874 
L 311.347934 260.439942 
L 352.852066 241.871462 
L 394.356198 221.730465 
L 435.860331 193.332115 
L 477.364463 163.492858 
L 518.868595 122.426476 
L 560.372727 80.772747 
" clip-path="url(#p25fdd09228)" style="fill: none; stroke-dasharray: 3.7,1.6; stroke-dashoffset: 0; stroke: #e377c2; stroke-opacity: 0.6"/>
   </g>
   <g id="line2d_49">
    <path d="M 103.827273 307.781605 
L 145.331405 301.277786 
L 186.835537 296.188469 
L 228.339669 289.916614 
L 269.843802 277.75846 
L 311.347934 266.30263 
L 352.852066 248.189601 
L 394.356198 228.78546 
L 435.860331 200.252255 
L 477.364463 166.284692 
L 518.868595 126.348313 
L 560.372727 83.620423 
" clip-path="url(#p25fdd09228)" style="fill: none; stroke-dasharray: 3.7,1.6; stroke-dashoffset: 0; stroke: #7f7f7f; stroke-opacity: 0.6"/>
   </g>
   <g id="line2d_50">
    <path d="M 103.827273 307.781605 
L 145.331405 305.82727 
L 186.835537 298.489922 
L 228.339669 290.649283 
L 269.843802 282.545122 
L 311.347934 270.397479 
L 352.852066 255.825285 
L 394.356198 233.451659 
L 435.860331 206.683279 
L 477.364463 176.265163 
L 518.868595 138.343017 
L 560.372727 97.927807 
" clip-path="url(#p25fdd09228)" style="fill: none; stroke-dasharray: 3.7,1.6; stroke-dashoffset: 0; stroke: #bcbd22; stroke-opacity: 0.6"/>
   </g>
   <g id="line2d_51">
    <path d="M 103.827273 307.781605 
L 145.331405 303.212323 
L 186.835537 295.367483 
L 228.339669 289.587424 
L 269.843802 280.357092 
L 311.347934 267.408386 
L 352.852066 253.50664 
L 394.356198 233.781395 
L 435.860331 208.966506 
L 477.364463 178.189351 
L 518.868595 142.223407 
L 560.372727 104.067166 
" clip-path="url(#p25fdd09228)" style="fill: none; stroke-dasharray: 3.7,1.6; stroke-dashoffset: 0; stroke: #17becf; stroke-opacity: 0.6"/>
   </g>
   <g id="line2d_52">
    <path d="M 103.827273 307.781605 
L 145.331405 301.222676 
L 186.835537 292.586443 
L 228.339669 286.170023 
L 269.843802 271.251173 
L 311.347934 259.971302 
L 352.852066 245.958597 
L 394.356198 225.780917 
L 435.860331 198.771174 
L 477.364463 163.319387 
L 518.868595 124.897376 
L 560.372727 83.155766 
" clip-path="url(#p25fdd09228)" style="fill: none; stroke-dasharray: 3.7,1.6; stroke-dashoffset: 0; stroke: #1f77b4; stroke-opacity: 0.6"/>
   </g>
   <g id="line2d_53">
    <path d="M 103.827273 307.781605 
L 145.331405 303.703637 
L 186.835537 298.766089 
L 228.339669 291.889375 
L 269.843802 284.352915 
L 311.347934 270.331969 
L 352.852066 252.940064 
L 394.356198 230.281895 
L 435.860331 199.816145 
L 477.364463 164.049043 
L 518.868595 126.512764 
L 560.372727 87.21502 
" clip-path="url(#p25fdd09228)" style="fill: none; stroke-dasharray: 3.7,1.6; stroke-dashoffset: 0; stroke: #ff7f0e; stroke-opacity: 0.6"/>
   </g>
   <g id="line2d_54">
    <path d="M 103.827273 307.781605 
L 145.331405 305.626759 
L 186.835537 300.439245 
L 228.339669 292.740178 
L 269.843802 280.065159 
L 311.347934 264.419808 
L 352.852066 243.992529 
L 394.356198 223.409475 
L 435.860331 195.272892 
L 477.364463 159.24273 
L 518.868595 121.599394 
L 560.372727 78.325875 
" clip-path="url(#p25fdd09228)" style="fill: none; stroke-dasharray: 3.7,1.6; stroke-dashoffset: 0; stroke: #2ca02c; stroke-opacity: 0.6"/>
   </g>
   <g id="line2d_55">
    <path d="M 103.827273 307.781605 
L 145.331405 298.477376 
L 186.835537 288.845505 
L 228.339669 282.905779 
L 269.843802 268.955864 
L 311.347934 257.446499 
L 352.852066 243.889034 
L 394.356198 220.343914 
L 435.860331 191.023311 
L 477.364463 160.505053 
L 518.868595 127.496233 
L 560.372727 93.78236 
" clip-path="url(#p25fdd09228)" style="fill: none; stroke-dasharray: 3.7,1.6; stroke-dashoffset: 0; stroke: #d62728; stroke-opacity: 0.6"/>
   </g>
   <g id="line2d_56">
    <path d="M 103.827273 307.781605 
L 145.331405 302.325798 
L 186.835537 294.74603 
L 228.339669 285.379683 
L 269.843802 275.192095 
L 311.347934 261.412439 
L 352.852066 247.033578 
L 394.356198 225.993975 
L 435.860331 202.736177 
L 477.364463 172.37958 
L 518.868595 137.034488 
L 560.372727 97.796668 
" clip-path="url(#p25fdd09228)" style="fill: none; stroke-dasharray: 3.7,1.6; stroke-dashoffset: 0; stroke: #9467bd; stroke-opacity: 0.6"/>
   </g>
   <g id="line2d_57">
    <path d="M 103.827273 307.781605 
L 145.331405 305.4359 
L 186.835537 300.869374 
L 228.339669 292.584751 
L 269.843802 283.910755 
L 311.347934 270.233271 
L 352.852066 252.098754 
L 394.356198 233.327096 
L 435.860331 204.130495 
L 477.364463 173.412145 
L 518.868595 134.781111 
L 560.372727 91.027468 
" clip-path="url(#p25fdd09228)" style="fill: none; stroke-dasharray: 3.7,1.6; stroke-dashoffset: 0; stroke: #8c564b; stroke-opacity: 0.6"/>
   </g>
   <g id="line2d_58">
    <path d="M 103.827273 307.781605 
L 145.331405 302.312722 
L 186.835537 299.170354 
L 228.339669 292.505492 
L 269.843802 285.494028 
L 311.347934 273.163813 
L 352.852066 257.145662 
L 394.356198 235.319352 
L 435.860331 209.886247 
L 477.364463 176.55373 
L 518.868595 138.671819 
L 560.372727 96.238708 
" clip-path="url(#p25fdd09228)" style="fill: none; stroke-dasharray: 3.7,1.6; stroke-dashoffset: 0; stroke: #e377c2; stroke-opacity: 0.6"/>
   </g>
   <g id="line2d_59">
    <path d="M 103.827273 307.781605 
L 145.331405 301.586025 
L 186.835537 296.932008 
L 228.339669 289.927962 
L 269.843802 282.742915 
L 311.347934 263.9544 
L 352.852066 245.174645 
L 394.356198 220.138683 
L 435.860331 190.541978 
L 477.364463 157.044818 
L 518.868595 120.522519 
L 560.372727 79.515382 
" clip-path="url(#p25fdd09228)" style="fill: none; stroke-dasharray: 3.7,1.6; stroke-dashoffset: 0; stroke: #7f7f7f; stroke-opacity: 0.6"/>
   </g>
   <g id="line2d_60">
    <path d="M 103.827273 307.781605 
L 145.331405 303.044919 
L 186.835537 294.990683 
L 228.339669 287.639019 
L 269.843802 276.255195 
L 311.347934 265.044867 
L 352.852066 242.864545 
L 394.356198 220.073179 
L 435.860331 189.658273 
L 477.364463 156.568097 
L 518.868595 115.839333 
L 560.372727 72.677355 
" clip-path="url(#p25fdd09228)" style="fill: none; stroke-dasharray: 3.7,1.6; stroke-dashoffset: 0; stroke: #bcbd22; stroke-opacity: 0.6"/>
   </g>
   <g id="line2d_61">
    <path d="M 103.827273 307.781605 
L 145.331405 306.367259 
L 186.835537 300.827114 
L 228.339669 296.267192 
L 269.843802 286.312486 
L 311.347934 270.570767 
L 352.852066 251.508934 
L 394.356198 222.917929 
L 435.860331 195.642314 
L 477.364463 162.404593 
L 518.868595 121.740918 
L 560.372727 81.247886 
" clip-path="url(#p25fdd09228)" style="fill: none; stroke-dasharray: 3.7,1.6; stroke-dashoffset: 0; stroke: #17becf; stroke-opacity: 0.6"/>
   </g>
   <g id="line2d_62">
    <path d="M 103.827273 307.781605 
L 145.331405 303.203813 
L 186.835537 300.188261 
L 228.339669 293.999792 
L 269.843802 284.394928 
L 311.347934 273.472906 
L 352.852066 253.416796 
L 394.356198 231.879903 
L 435.860331 205.8266 
L 477.364463 173.291007 
L 518.868595 136.047133 
L 560.372727 96.228717 
" clip-path="url(#p25fdd09228)" style="fill: none; stroke-dasharray: 3.7,1.6; stroke-dashoffset: 0; stroke: #1f77b4; stroke-opacity: 0.6"/>
   </g>
   <g id="line2d_63">
    <path d="M 103.827273 307.781605 
L 145.331405 300.616057 
L 186.835537 296.137566 
L 228.339669 285.108999 
L 269.843802 276.969153 
L 311.347934 266.784911 
L 352.852066 249.939352 
L 394.356198 228.115336 
L 435.860331 193.432856 
L 477.364463 161.775606 
L 518.868595 124.196239 
L 560.372727 83.055326 
" clip-path="url(#p25fdd09228)" style="fill: none; stroke-dasharray: 3.7,1.6; stroke-dashoffset: 0; stroke: #ff7f0e; stroke-opacity: 0.6"/>
   </g>
   <g id="line2d_64">
    <path d="M 103.827273 307.781605 
L 145.331405 300.40714 
L 186.835537 296.002697 
L 228.339669 288.618656 
L 269.843802 276.162191 
L 311.347934 263.053379 
L 352.852066 244.3331 
L 394.356198 217.073522 
L 435.860331 185.825405 
L 477.364463 148.692311 
L 518.868595 109.796527 
L 560.372727 65.963364 
" clip-path="url(#p25fdd09228)" style="fill: none; stroke-dasharray: 3.7,1.6; stroke-dashoffset: 0; stroke: #2ca02c; stroke-opacity: 0.6"/>
   </g>
   <g id="line2d_65">
    <path d="M 103.827273 307.781605 
L 145.331405 302.998839 
L 186.835537 298.012579 
L 228.339669 292.55346 
L 269.843802 278.629652 
L 311.347934 259.951107 
L 352.852066 241.759628 
L 394.356198 223.41267 
L 435.860331 198.990155 
L 477.364463 168.822147 
L 518.868595 130.508209 
L 560.372727 87.262564 
" clip-path="url(#p25fdd09228)" style="fill: none; stroke-dasharray: 3.7,1.6; stroke-dashoffset: 0; stroke: #d62728; stroke-opacity: 0.6"/>
   </g>
   <g id="line2d_66">
    <path d="M 103.827273 307.781605 
L 145.331405 300.238698 
L 186.835537 295.078851 
L 228.339669 285.988531 
L 269.843802 277.123123 
L 311.347934 263.748729 
L 352.852066 246.342298 
L 394.356198 224.503521 
L 435.860331 194.004496 
L 477.364463 157.082208 
L 518.868595 117.295985 
L 560.372727 69.057354 
" clip-path="url(#p25fdd09228)" style="fill: none; stroke-dasharray: 3.7,1.6; stroke-dashoffset: 0; stroke: #9467bd; stroke-opacity: 0.6"/>
   </g>
   <g id="line2d_67">
    <path d="M 103.827273 307.781605 
L 145.331405 302.507421 
L 186.835537 299.034246 
L 228.339669 292.988592 
L 269.843802 284.439222 
L 311.347934 274.195473 
L 352.852066 252.70323 
L 394.356198 233.490203 
L 435.860331 207.978302 
L 477.364463 170.976454 
L 518.868595 135.70741 
L 560.372727 95.546905 
" clip-path="url(#p25fdd09228)" style="fill: none; stroke-dasharray: 3.7,1.6; stroke-dashoffset: 0; stroke: #8c564b; stroke-opacity: 0.6"/>
   </g>
   <g id="line2d_68">
    <path d="M 103.827273 307.781605 
L 145.331405 303.238373 
L 186.835537 295.199035 
L 228.339669 286.647151 
L 269.843802 278.484536 
L 311.347934 259.958137 
L 352.852066 242.779413 
L 394.356198 220.758915 
L 435.860331 191.517955 
L 477.364463 155.823447 
L 518.868595 118.177172 
L 560.372727 74.348832 
" clip-path="url(#p25fdd09228)" style="fill: none; stroke-dasharray: 3.7,1.6; stroke-dashoffset: 0; stroke: #e377c2; stroke-opacity: 0.6"/>
   </g>
   <g id="line2d_69">
    <path d="M 103.827273 307.781605 
L 145.331405 306.310593 
L 186.835537 301.42067 
L 228.339669 292.20203 
L 269.843802 280.489831 
L 311.347934 264.064811 
L 352.852066 239.999561 
L 394.356198 217.517493 
L 435.860331 187.822912 
L 477.364463 152.319126 
L 518.868595 111.16207 
L 560.372727 67.044225 
" clip-path="url(#p25fdd09228)" style="fill: none; stroke-dasharray: 3.7,1.6; stroke-dashoffset: 0; stroke: #7f7f7f; stroke-opacity: 0.6"/>
   </g>
   <g id="line2d_70">
    <path d="M 103.827273 307.781605 
L 145.331405 305.50118 
L 186.835537 299.133671 
L 228.339669 290.643804 
L 269.843802 279.316309 
L 311.347934 263.913892 
L 352.852066 246.81903 
L 394.356198 225.901522 
L 435.860331 197.046135 
L 477.364463 169.085174 
L 518.868595 132.314902 
L 560.372727 94.602504 
" clip-path="url(#p25fdd09228)" style="fill: none; stroke-dasharray: 3.7,1.6; stroke-dashoffset: 0; stroke: #bcbd22; stroke-opacity: 0.6"/>
   </g>
   <g id="line2d_71">
    <path d="M 103.827273 307.781605 
L 145.331405 304.786107 
L 186.835537 300.656567 
L 228.339669 295.010936 
L 269.843802 282.984878 
L 311.347934 269.008218 
L 352.852066 253.050207 
L 394.356198 230.412409 
L 435.860331 202.141508 
L 477.364463 164.05111 
L 518.868595 123.237045 
L 560.372727 78.646864 
" clip-path="url(#p25fdd09228)" style="fill: none; stroke-dasharray: 3.7,1.6; stroke-dashoffset: 0; stroke: #17becf; stroke-opacity: 0.6"/>
   </g>
   <g id="line2d_72">
    <path d="M 103.827273 307.781605 
L 145.331405 305.95534 
L 186.835537 304.216703 
L 228.339669 299.05363 
L 269.843802 291.209464 
L 311.347934 279.283877 
L 352.852066 258.180068 
L 394.356198 233.385618 
L 435.860331 208.136053 
L 477.364463 174.457218 
L 518.868595 132.027265 
L 560.372727 91.518342 
" clip-path="url(#p25fdd09228)" style="fill: none; stroke-dasharray: 3.7,1.6; stroke-dashoffset: 0; stroke: #1f77b4; stroke-opacity: 0.6"/>
   </g>
   <g id="line2d_73">
    <path d="M 103.827273 307.781605 
L 145.331405 304.531835 
L 186.835537 296.624508 
L 228.339669 287.593985 
L 269.843802 272.550993 
L 311.347934 260.094601 
L 352.852066 242.633679 
L 394.356198 219.526419 
L 435.860331 192.165276 
L 477.364463 162.028916 
L 518.868595 126.83058 
L 560.372727 85.967828 
" clip-path="url(#p25fdd09228)" style="fill: none; stroke-dasharray: 3.7,1.6; stroke-dashoffset: 0; stroke: #ff7f0e; stroke-opacity: 0.6"/>
   </g>
   <g id="line2d_74">
    <path d="M 103.827273 307.781605 
L 145.331405 299.287827 
L 186.835537 293.272819 
L 228.339669 283.776053 
L 269.843802 275.277456 
L 311.347934 263.901225 
L 352.852066 249.007159 
L 394.356198 230.282536 
L 435.860331 200.30604 
L 477.364463 168.979864 
L 518.868595 131.586486 
L 560.372727 85.267951 
" clip-path="url(#p25fdd09228)" style="fill: none; stroke-dasharray: 3.7,1.6; stroke-dashoffset: 0; stroke: #2ca02c; stroke-opacity: 0.6"/>
   </g>
   <g id="line2d_75">
    <path d="M 103.827273 307.781605 
L 145.331405 299.985049 
L 186.835537 289.279658 
L 228.339669 283.701763 
L 269.843802 270.340855 
L 311.347934 250.640639 
L 352.852066 234.293597 
L 394.356198 212.555954 
L 435.860331 180.775687 
L 477.364463 143.699562 
L 518.868595 101.298884 
L 560.372727 60.093333 
" clip-path="url(#p25fdd09228)" style="fill: none; stroke-dasharray: 3.7,1.6; stroke-dashoffset: 0; stroke: #d62728; stroke-opacity: 0.6"/>
   </g>
   <g id="line2d_76">
    <path d="M 103.827273 307.781605 
L 145.331405 298.127831 
L 186.835537 288.306532 
L 228.339669 276.548601 
L 269.843802 263.951881 
L 311.347934 244.441204 
L 352.852066 226.524505 
L 394.356198 208.325765 
L 435.860331 183.771681 
L 477.364463 153.69509 
L 518.868595 123.031442 
L 560.372727 85.079021 
" clip-path="url(#p25fdd09228)" style="fill: none; stroke-dasharray: 3.7,1.6; stroke-dashoffset: 0; stroke: #9467bd; stroke-opacity: 0.6"/>
   </g>
   <g id="line2d_77">
    <path d="M 103.827273 307.781605 
L 145.331405 299.569705 
L 186.835537 295.741985 
L 228.339669 288.998172 
L 269.843802 280.783698 
L 311.347934 268.004215 
L 352.852066 251.093538 
L 394.356198 228.856338 
L 435.860331 200.693572 
L 477.364463 168.357684 
L 518.868595 132.083912 
L 560.372727 90.067545 
" clip-path="url(#p25fdd09228)" style="fill: none; stroke-dasharray: 3.7,1.6; stroke-dashoffset: 0; stroke: #8c564b; stroke-opacity: 0.6"/>
   </g>
   <g id="line2d_78">
    <path d="M 103.827273 307.781605 
L 145.331405 304.526024 
L 186.835537 303.070962 
L 228.339669 295.692123 
L 269.843802 288.580533 
L 311.347934 273.205437 
L 352.852066 261.743722 
L 394.356198 242.277045 
L 435.860331 215.166319 
L 477.364463 184.083547 
L 518.868595 144.679011 
L 560.372727 103.09553 
" clip-path="url(#p25fdd09228)" style="fill: none; stroke-dasharray: 3.7,1.6; stroke-dashoffset: 0; stroke: #e377c2; stroke-opacity: 0.6"/>
   </g>
   <g id="line2d_79">
    <path d="M 103.827273 307.781605 
L 145.331405 307.034799 
L 186.835537 302.745402 
L 228.339669 290.674612 
L 269.843802 280.438817 
L 311.347934 266.016213 
L 352.852066 250.954172 
L 394.356198 228.038617 
L 435.860331 197.776586 
L 477.364463 167.754893 
L 518.868595 130.580554 
L 560.372727 91.296815 
" clip-path="url(#p25fdd09228)" style="fill: none; stroke-dasharray: 3.7,1.6; stroke-dashoffset: 0; stroke: #7f7f7f; stroke-opacity: 0.6"/>
   </g>
   <g id="line2d_80">
    <path d="M 103.827273 307.781605 
L 145.331405 301.474041 
L 186.835537 295.683926 
L 228.339669 284.726654 
L 269.843802 272.50144 
L 311.347934 259.409932 
L 352.852066 245.580211 
L 394.356198 225.268836 
L 435.860331 192.458928 
L 477.364463 160.916831 
L 518.868595 122.665776 
L 560.372727 83.68155 
" clip-path="url(#p25fdd09228)" style="fill: none; stroke-dasharray: 3.7,1.6; stroke-dashoffset: 0; stroke: #bcbd22; stroke-opacity: 0.6"/>
   </g>
   <g id="line2d_81">
    <path d="M 103.827273 307.781605 
L 145.331405 303.784901 
L 186.835537 298.473605 
L 228.339669 291.13357 
L 269.843802 279.936026 
L 311.347934 265.23484 
L 352.852066 246.950238 
L 394.356198 220.166082 
L 435.860331 191.180703 
L 477.364463 154.346715 
L 518.868595 113.020043 
L 560.372727 70.206171 
" clip-path="url(#p25fdd09228)" style="fill: none; stroke-dasharray: 3.7,1.6; stroke-dashoffset: 0; stroke: #17becf; stroke-opacity: 0.6"/>
   </g>
   <g id="line2d_82">
    <path d="M 103.827273 307.781605 
L 145.331405 302.51178 
L 186.835537 295.361633 
L 228.339669 290.054952 
L 269.843802 281.104825 
L 311.347934 266.019819 
L 352.852066 247.875056 
L 394.356198 230.132864 
L 435.860331 200.918805 
L 477.364463 171.855998 
L 518.868595 134.183293 
L 560.372727 94.532353 
" clip-path="url(#p25fdd09228)" style="fill: none; stroke-dasharray: 3.7,1.6; stroke-dashoffset: 0; stroke: #1f77b4; stroke-opacity: 0.6"/>
   </g>
   <g id="line2d_83">
    <path d="M 103.827273 307.781605 
L 145.331405 305.500246 
L 186.835537 299.031547 
L 228.339669 293.687614 
L 269.843802 282.058608 
L 311.347934 268.710469 
L 352.852066 251.973801 
L 394.356198 227.024369 
L 435.860331 200.667595 
L 477.364463 163.195859 
L 518.868595 126.158724 
L 560.372727 83.184319 
" clip-path="url(#p25fdd09228)" style="fill: none; stroke-dasharray: 3.7,1.6; stroke-dashoffset: 0; stroke: #ff7f0e; stroke-opacity: 0.6"/>
   </g>
   <g id="line2d_84">
    <path d="M 103.827273 307.781605 
L 145.331405 302.966977 
L 186.835537 297.548879 
L 228.339669 292.165956 
L 269.843802 286.271427 
L 311.347934 276.18586 
L 352.852066 259.850983 
L 394.356198 236.188185 
L 435.860331 210.23023 
L 477.364463 180.011741 
L 518.868595 142.619657 
L 560.372727 100.642157 
" clip-path="url(#p25fdd09228)" style="fill: none; stroke-dasharray: 3.7,1.6; stroke-dashoffset: 0; stroke: #2ca02c; stroke-opacity: 0.6"/>
   </g>
   <g id="line2d_85">
    <path d="M 103.827273 307.781605 
L 145.331405 301.899038 
L 186.835537 299.789215 
L 228.339669 293.337373 
L 269.843802 282.427849 
L 311.347934 265.827587 
L 352.852066 249.458913 
L 394.356198 219.847075 
L 435.860331 190.461621 
L 477.364463 157.441496 
L 518.868595 118.699991 
L 560.372727 75.442049 
" clip-path="url(#p25fdd09228)" style="fill: none; stroke-dasharray: 3.7,1.6; stroke-dashoffset: 0; stroke: #d62728; stroke-opacity: 0.6"/>
   </g>
   <g id="line2d_86">
    <path d="M 103.827273 307.781605 
L 145.331405 306.796822 
L 186.835537 303.370656 
L 228.339669 296.028321 
L 269.843802 284.227511 
L 311.347934 273.199712 
L 352.852066 250.026698 
L 394.356198 226.716331 
L 435.860331 198.608765 
L 477.364463 162.706845 
L 518.868595 125.637163 
L 560.372727 80.855507 
" clip-path="url(#p25fdd09228)" style="fill: none; stroke-dasharray: 3.7,1.6; stroke-dashoffset: 0; stroke: #9467bd; stroke-opacity: 0.6"/>
   </g>
   <g id="line2d_87">
    <path d="M 103.827273 307.781605 
L 145.331405 299.851687 
L 186.835537 290.820263 
L 228.339669 282.037221 
L 269.843802 273.384704 
L 311.347934 260.546871 
L 352.852066 244.14922 
L 394.356198 219.990868 
L 435.860331 190.472277 
L 477.364463 155.272547 
L 518.868595 118.582975 
L 560.372727 78.988784 
" clip-path="url(#p25fdd09228)" style="fill: none; stroke-dasharray: 3.7,1.6; stroke-dashoffset: 0; stroke: #8c564b; stroke-opacity: 0.6"/>
   </g>
   <g id="line2d_88">
    <path d="M 103.827273 307.781605 
L 145.331405 299.620871 
L 186.835537 296.525024 
L 228.339669 292.636005 
L 269.843802 285.687605 
L 311.347934 268.919415 
L 352.852066 252.678036 
L 394.356198 232.103691 
L 435.860331 207.933735 
L 477.364463 177.142386 
L 518.868595 140.721574 
L 560.372727 94.271444 
" clip-path="url(#p25fdd09228)" style="fill: none; stroke-dasharray: 3.7,1.6; stroke-dashoffset: 0; stroke: #e377c2; stroke-opacity: 0.6"/>
   </g>
   <g id="line2d_89">
    <path d="M 103.827273 307.781605 
L 145.331405 304.09013 
L 186.835537 299.430837 
L 228.339669 293.579015 
L 269.843802 282.160222 
L 311.347934 269.362859 
L 352.852066 249.145815 
L 394.356198 225.274833 
L 435.860331 191.682991 
L 477.364463 158.4451 
L 518.868595 114.868446 
L 560.372727 73.360158 
" clip-path="url(#p25fdd09228)" style="fill: none; stroke-dasharray: 3.7,1.6; stroke-dashoffset: 0; stroke: #7f7f7f; stroke-opacity: 0.6"/>
   </g>
   <g id="line2d_90">
    <path d="M 103.827273 307.781605 
L 145.331405 307.8 
L 186.835537 301.969635 
L 228.339669 296.665141 
L 269.843802 283.36977 
L 311.347934 268.315702 
L 352.852066 245.246192 
L 394.356198 222.349035 
L 435.860331 191.539413 
L 477.364463 156.673502 
L 518.868595 119.398898 
L 560.372727 79.057966 
" clip-path="url(#p25fdd09228)" style="fill: none; stroke-dasharray: 3.7,1.6; stroke-dashoffset: 0; stroke: #bcbd22; stroke-opacity: 0.6"/>
   </g>
   <g id="line2d_91">
    <path d="M 103.827273 307.781605 
L 145.331405 305.132435 
L 186.835537 297.42651 
L 228.339669 288.251918 
L 269.843802 275.874934 
L 311.347934 263.961789 
L 352.852066 245.453494 
L 394.356198 221.52446 
L 435.860331 191.518792 
L 477.364463 159.435006 
L 518.868595 123.053096 
L 560.372727 80.61059 
" clip-path="url(#p25fdd09228)" style="fill: none; stroke-dasharray: 3.7,1.6; stroke-dashoffset: 0; stroke: #17becf; stroke-opacity: 0.6"/>
   </g>
   <g id="line2d_92">
    <path d="M 103.827273 307.781605 
L 145.331405 305.854358 
L 186.835537 297.38233 
L 228.339669 287.336775 
L 269.843802 276.948847 
L 311.347934 263.792269 
L 352.852066 247.122964 
L 394.356198 225.348191 
L 435.860331 193.926363 
L 477.364463 160.598255 
L 518.868595 118.597171 
L 560.372727 79.373757 
" clip-path="url(#p25fdd09228)" style="fill: none; stroke-dasharray: 3.7,1.6; stroke-dashoffset: 0; stroke: #1f77b4; stroke-opacity: 0.6"/>
   </g>
   <g id="line2d_93">
    <path d="M 103.827273 307.781605 
L 145.331405 299.257522 
L 186.835537 294.379788 
L 228.339669 281.285263 
L 269.843802 267.481774 
L 311.347934 254.32186 
L 352.852066 240.055597 
L 394.356198 220.828971 
L 435.860331 197.755263 
L 477.364463 166.381998 
L 518.868595 131.372694 
L 560.372727 92.919234 
" clip-path="url(#p25fdd09228)" style="fill: none; stroke-dasharray: 3.7,1.6; stroke-dashoffset: 0; stroke: #ff7f0e; stroke-opacity: 0.6"/>
   </g>
   <g id="line2d_94">
    <path d="M 103.827273 307.781605 
L 145.331405 302.368661 
L 186.835537 292.326291 
L 228.339669 284.777834 
L 269.843802 276.916364 
L 311.347934 261.652257 
L 352.852066 245.27166 
L 394.356198 225.329802 
L 435.860331 196.831443 
L 477.364463 160.260192 
L 518.868595 120.555503 
L 560.372727 78.648127 
" clip-path="url(#p25fdd09228)" style="fill: none; stroke-dasharray: 3.7,1.6; stroke-dashoffset: 0; stroke: #2ca02c; stroke-opacity: 0.6"/>
   </g>
   <g id="line2d_95">
    <path d="M 103.827273 307.781605 
L 145.331405 301.364238 
L 186.835537 294.456912 
L 228.339669 288.470084 
L 269.843802 277.260846 
L 311.347934 262.773165 
L 352.852066 242.298907 
L 394.356198 221.174306 
L 435.860331 193.006349 
L 477.364463 162.739949 
L 518.868595 127.702687 
L 560.372727 91.452076 
" clip-path="url(#p25fdd09228)" style="fill: none; stroke-dasharray: 3.7,1.6; stroke-dashoffset: 0; stroke: #d62728; stroke-opacity: 0.6"/>
   </g>
   <g id="line2d_96">
    <path d="M 103.827273 307.781605 
L 145.331405 303.147666 
L 186.835537 297.531088 
L 228.339669 288.908957 
L 269.843802 277.763123 
L 311.347934 268.517541 
L 352.852066 252.292374 
L 394.356198 230.549102 
L 435.860331 203.701036 
L 477.364463 173.629251 
L 518.868595 137.811981 
L 560.372727 99.008697 
" clip-path="url(#p25fdd09228)" style="fill: none; stroke-dasharray: 3.7,1.6; stroke-dashoffset: 0; stroke: #9467bd; stroke-opacity: 0.6"/>
   </g>
   <g id="line2d_97">
    <path d="M 103.827273 307.781605 
L 145.331405 303.883599 
L 186.835537 300.700375 
L 228.339669 289.968601 
L 269.843802 278.155377 
L 311.347934 269.235258 
L 352.852066 255.159785 
L 394.356198 235.703389 
L 435.860331 204.181499 
L 477.364463 171.653992 
L 518.868595 135.986633 
L 560.372727 94.974491 
" clip-path="url(#p25fdd09228)" style="fill: none; stroke-dasharray: 3.7,1.6; stroke-dashoffset: 0; stroke: #8c564b; stroke-opacity: 0.6"/>
   </g>
   <g id="line2d_98">
    <path d="M 103.827273 307.781605 
L 145.331405 305.302745 
L 186.835537 294.455231 
L 228.339669 288.674221 
L 269.843802 277.109077 
L 311.347934 266.066787 
L 352.852066 249.231922 
L 394.356198 226.700551 
L 435.860331 198.082231 
L 477.364463 165.343473 
L 518.868595 128.107917 
L 560.372727 85.254508 
" clip-path="url(#p25fdd09228)" style="fill: none; stroke-dasharray: 3.7,1.6; stroke-dashoffset: 0; stroke: #e377c2; stroke-opacity: 0.6"/>
   </g>
   <g id="line2d_99">
    <path d="M 103.827273 307.781605 
L 145.331405 302.529942 
L 186.835537 294.03454 
L 228.339669 284.744759 
L 269.843802 270.580863 
L 311.347934 257.319605 
L 352.852066 240.105926 
L 394.356198 221.001992 
L 435.860331 195.537441 
L 477.364463 167.087022 
L 518.868595 132.938946 
L 560.372727 93.95559 
" clip-path="url(#p25fdd09228)" style="fill: none; stroke-dasharray: 3.7,1.6; stroke-dashoffset: 0; stroke: #7f7f7f; stroke-opacity: 0.6"/>
   </g>
   <g id="line2d_100">
    <path d="M 103.827273 307.781605 
L 145.331405 301.951449 
L 186.835537 293.971475 
L 228.339669 290.064699 
L 269.843802 276.714157 
L 311.347934 263.899291 
L 352.852066 246.591344 
L 394.356198 226.061263 
L 435.860331 196.97007 
L 477.364463 164.436182 
L 518.868595 123.857352 
L 560.372727 86.798361 
" clip-path="url(#p25fdd09228)" style="fill: none; stroke-dasharray: 3.7,1.6; stroke-dashoffset: 0; stroke: #bcbd22; stroke-opacity: 0.6"/>
   </g>
   <g id="line2d_101">
    <path d="M 103.827273 307.781605 
L 145.331405 298.802844 
L 186.835537 293.360767 
L 228.339669 285.869037 
L 269.843802 276.304561 
L 311.347934 264.674769 
L 352.852066 247.417057 
L 394.356198 223.258419 
L 435.860331 191.632072 
L 477.364463 158.775163 
L 518.868595 121.605708 
L 560.372727 79.519232 
" clip-path="url(#p25fdd09228)" style="fill: none; stroke-dasharray: 3.7,1.6; stroke-dashoffset: 0; stroke: #17becf; stroke-opacity: 0.6"/>
   </g>
   <g id="line2d_102">
    <path d="M 103.827273 307.781605 
L 145.331405 303.89076 
L 186.835537 295.159439 
L 228.339669 286.450525 
L 269.843802 276.124882 
L 311.347934 266.084969 
L 352.852066 244.071433 
L 394.356198 224.772764 
L 435.860331 197.918001 
L 477.364463 162.844242 
L 518.868595 125.992836 
L 560.372727 88.661585 
" clip-path="url(#p25fdd09228)" style="fill: none; stroke-dasharray: 3.7,1.6; stroke-dashoffset: 0; stroke: #1f77b4; stroke-opacity: 0.6"/>
   </g>
   <g id="line2d_103">
    <path d="M 103.827273 307.781605 
L 145.331405 299.496226 
L 186.835537 291.192622 
L 228.339669 285.327385 
L 269.843802 270.664135 
L 311.347934 256.469937 
L 352.852066 237.234457 
L 394.356198 213.060336 
L 435.860331 189.417191 
L 477.364463 157.294628 
L 518.868595 124.607658 
L 560.372727 87.853003 
" clip-path="url(#p25fdd09228)" style="fill: none; stroke-dasharray: 3.7,1.6; stroke-dashoffset: 0; stroke: #ff7f0e; stroke-opacity: 0.6"/>
   </g>
   <g id="line2d_104">
    <path d="M 103.827273 307.781605 
L 145.331405 298.518164 
L 186.835537 291.20451 
L 228.339669 279.461194 
L 269.843802 270.654354 
L 311.347934 257.924164 
L 352.852066 244.405913 
L 394.356198 225.669942 
L 435.860331 200.545745 
L 477.364463 169.765419 
L 518.868595 136.539295 
L 560.372727 95.981684 
" clip-path="url(#p25fdd09228)" style="fill: none; stroke-dasharray: 3.7,1.6; stroke-dashoffset: 0; stroke: #2ca02c; stroke-opacity: 0.6"/>
   </g>
   <g id="line2d_105">
    <path d="M 103.827273 307.781605 
L 145.331405 306.55625 
L 186.835537 300.525367 
L 228.339669 295.894843 
L 269.843802 287.439096 
L 311.347934 269.780989 
L 352.852066 256.004699 
L 394.356198 236.847767 
L 435.860331 212.831599 
L 477.364463 182.66993 
L 518.868595 147.619093 
L 560.372727 103.199153 
" clip-path="url(#p25fdd09228)" style="fill: none; stroke-dasharray: 3.7,1.6; stroke-dashoffset: 0; stroke: #d62728; stroke-opacity: 0.6"/>
   </g>
   <g id="line2d_106">
    <path d="M 103.827273 307.781605 
L 145.331405 299.42503 
L 186.835537 292.037961 
L 228.339669 286.24692 
L 269.843802 277.389299 
L 311.347934 264.358839 
L 352.852066 245.018779 
L 394.356198 218.827721 
L 435.860331 188.857237 
L 477.364463 149.821548 
L 518.868595 112.029516 
L 560.372727 70.477583 
" clip-path="url(#p25fdd09228)" style="fill: none; stroke-dasharray: 3.7,1.6; stroke-dashoffset: 0; stroke: #9467bd; stroke-opacity: 0.6"/>
   </g>
   <g id="line2d_107">
    <path d="M 103.827273 307.781605 
L 145.331405 302.624386 
L 186.835537 299.743998 
L 228.339669 294.994211 
L 269.843802 287.751632 
L 311.347934 275.996167 
L 352.852066 259.664674 
L 394.356198 236.555966 
L 435.860331 203.528466 
L 477.364463 168.281611 
L 518.868595 129.789791 
L 560.372727 85.12995 
" clip-path="url(#p25fdd09228)" style="fill: none; stroke-dasharray: 3.7,1.6; stroke-dashoffset: 0; stroke: #8c564b; stroke-opacity: 0.6"/>
   </g>
   <g id="line2d_108">
    <path d="M 103.827273 307.781605 
L 145.331405 306.205978 
L 186.835537 302.525167 
L 228.339669 297.246093 
L 269.843802 288.001691 
L 311.347934 276.863289 
L 352.852066 261.594451 
L 394.356198 239.088121 
L 435.860331 210.778359 
L 477.364463 176.083468 
L 518.868595 136.042032 
L 560.372727 89.830923 
" clip-path="url(#p25fdd09228)" style="fill: none; stroke-dasharray: 3.7,1.6; stroke-dashoffset: 0; stroke: #e377c2; stroke-opacity: 0.6"/>
   </g>
   <g id="line2d_109">
    <path d="M 103.827273 307.781605 
L 145.331405 306.681621 
L 186.835537 303.921571 
L 228.339669 294.566405 
L 269.843802 283.052442 
L 311.347934 268.698309 
L 352.852066 249.861651 
L 394.356198 222.375446 
L 435.860331 197.173968 
L 477.364463 163.616937 
L 518.868595 126.568167 
L 560.372727 85.940528 
" clip-path="url(#p25fdd09228)" style="fill: none; stroke-dasharray: 3.7,1.6; stroke-dashoffset: 0; stroke: #7f7f7f; stroke-opacity: 0.6"/>
   </g>
   <g id="line2d_110">
    <path d="M 103.827273 307.781605 
L 145.331405 303.604627 
L 186.835537 293.721267 
L 228.339669 287.042753 
L 269.843802 274.09591 
L 311.347934 261.470613 
L 352.852066 243.100077 
L 394.356198 221.048598 
L 435.860331 195.078453 
L 477.364463 162.177492 
L 518.868595 123.187778 
L 560.372727 80.466673 
" clip-path="url(#p25fdd09228)" style="fill: none; stroke-dasharray: 3.7,1.6; stroke-dashoffset: 0; stroke: #bcbd22; stroke-opacity: 0.6"/>
   </g>
   <g id="line2d_111">
    <path d="M 103.827273 307.781605 
L 145.331405 305.764792 
L 186.835537 300.498369 
L 228.339669 290.386819 
L 269.843802 278.628451 
L 311.347934 264.843477 
L 352.852066 244.560387 
L 394.356198 217.394792 
L 435.860331 185.305119 
L 477.364463 146.226373 
L 518.868595 103.83696 
L 560.372727 55.8 
" clip-path="url(#p25fdd09228)" style="fill: none; stroke-dasharray: 3.7,1.6; stroke-dashoffset: 0; stroke: #17becf; stroke-opacity: 0.6"/>
   </g>
   <g id="line2d_112">
    <path d="M 103.827273 307.781605 
L 145.331405 302.943379 
L 186.835537 297.122055 
L 228.339669 289.443997 
L 269.843802 278.989064 
L 311.347934 265.219444 
L 352.852066 247.374377 
L 394.356198 225.272728 
L 435.860331 196.990018 
L 477.364463 163.885018 
L 518.868595 125.935858 
L 560.372727 84.394857 
" clip-path="url(#p25fdd09228)" style="fill: none; stroke: #000000; stroke-width: 2.5; stroke-linecap: square"/>
   </g>
   <g id="patch_3">
    <path d="M 81 320.4 
L 81 43.2 
" style="fill: none; stroke: #000000; stroke-width: 0.8; stroke-linejoin: miter; stroke-linecap: square"/>
   </g>
   <g id="patch_4">
    <path d="M 583.2 320.4 
L 583.2 43.2 
" style="fill: none; stroke: #000000; stroke-width: 0.8; stroke-linejoin: miter; stroke-linecap: square"/>
   </g>
   <g id="patch_5">
    <path d="M 81 320.4 
L 583.2 320.4 
" style="fill: none; stroke: #000000; stroke-width: 0.8; stroke-linejoin: miter; stroke-linecap: square"/>
   </g>
   <g id="patch_6">
    <path d="M 81 43.2 
L 583.2 43.2 
" style="fill: none; stroke: #000000; stroke-width: 0.8; stroke-linejoin: miter; stroke-linecap: square"/>
   </g>
   <g id="legend_1">
    <g id="patch_7">
     <path d="M 88 65.878125 
L 161.065625 65.878125 
Q 163.065625 65.878125 163.065625 63.878125 
L 163.065625 50.2 
Q 163.065625 48.2 161.065625 48.2 
L 88 48.2 
Q 86 48.2 86 50.2 
L 86 63.878125 
Q 86 65.878125 88 65.878125 
z
" style="fill: #ffffff; opacity: 0.8; stroke: #cccccc; stroke-linejoin: miter"/>
    </g>
    <g id="line2d_113">
     <path d="M 90 56.298437 
L 100 56.298437 
L 110 56.298437 
" style="fill: none; stroke: #000000; stroke-width: 2.5; stroke-linecap: square"/>
    </g>
    <g id="text_14">
     <!-- Average -->
     <g transform="translate(118 59.798437) scale(0.1 -0.1)">
      <defs>
       <path id="DejaVuSans-41" d="M 2188 4044 
L 1331 1722 
L 3047 1722 
L 2188 4044 
z
M 1831 4666 
L 2547 4666 
L 4325 0 
L 3669 0 
L 3244 1197 
L 1141 1197 
L 716 0 
L 50 0 
L 1831 4666 
z
" transform="scale(0.015625)"/>
       <path id="DejaVuSans-67" d="M 2906 1791 
Q 2906 2416 2648 2759 
Q 2391 3103 1925 3103 
Q 1463 3103 1205 2759 
Q 947 2416 947 1791 
Q 947 1169 1205 825 
Q 1463 481 1925 481 
Q 2391 481 2648 825 
Q 2906 1169 2906 1791 
z
M 3481 434 
Q 3481 -459 3084 -895 
Q 2688 -1331 1869 -1331 
Q 1566 -1331 1297 -1286 
Q 1028 -1241 775 -1147 
L 775 -588 
Q 1028 -725 1275 -790 
Q 1522 -856 1778 -856 
Q 2344 -856 2625 -561 
Q 2906 -266 2906 331 
L 2906 616 
Q 2728 306 2450 153 
Q 2172 0 1784 0 
Q 1141 0 747 490 
Q 353 981 353 1791 
Q 353 2603 747 3093 
Q 1141 3584 1784 3584 
Q 2172 3584 2450 3431 
Q 2728 3278 2906 2969 
L 2906 3500 
L 3481 3500 
L 3481 434 
z
" transform="scale(0.015625)"/>
      </defs>
      <use xlink:href="#DejaVuSans-41"/>
      <use xlink:href="#DejaVuSans-76" x="62.533203"/>
      <use xlink:href="#DejaVuSans-65" x="121.712891"/>
      <use xlink:href="#DejaVuSans-72" x="183.236328"/>
      <use xlink:href="#DejaVuSans-61" x="224.349609"/>
      <use xlink:href="#DejaVuSans-67" x="285.628906"/>
      <use xlink:href="#DejaVuSans-65" x="349.105469"/>
     </g>
    </g>
   </g>
  </g>
 </g>
 <defs>
  <clipPath id="p25fdd09228">
   <rect x="81" y="43.2" width="502.2" height="277.2"/>
  </clipPath>
 </defs>
</svg>
