<?xml version="1.0" encoding="utf-8" standalone="no"?>
<!DOCTYPE svg PUBLIC "-//W3C//DTD SVG 1.1//EN"
  "http://www.w3.org/Graphics/SVG/1.1/DTD/svg11.dtd">
<svg xmlns:xlink="http://www.w3.org/1999/xlink" width="648pt" height="360pt" viewBox="0 0 648 360" xmlns="http://www.w3.org/2000/svg" version="1.1">
 <metadata>
  <rdf:RDF xmlns:dc="http://purl.org/dc/elements/1.1/" xmlns:cc="http://creativecommons.org/ns#" xmlns:rdf="http://www.w3.org/1999/02/22-rdf-syntax-ns#">
   <cc:Work>
    <dc:type rdf:resource="http://purl.org/dc/dcmitype/StillImage"/>
    <dc:date>2025-08-28T14:19:58.238215</dc:date>
    <dc:format>image/svg+xml</dc:format>
    <dc:creator>
     <cc:Agent>
      <dc:title>Matplotlib v3.8.0, https://matplotlib.org/</dc:title>
     </cc:Agent>
    </dc:creator>
   </cc:Work>
  </rdf:RDF>
 </metadata>
 <defs>
  <style type="text/css">*{stroke-linejoin: round; stroke-linecap: butt}</style>
 </defs>
 <g id="figure_1">
  <g id="patch_1">
   <path d="M 0 360 
L 648 360 
L 648 0 
L 0 0 
z
" style="fill: #ffffff"/>
  </g>
  <g id="axes_1">
   <g id="patch_2">
    <path d="M 81 320.4 
L 583.2 320.4 
L 583.2 43.2 
L 81 43.2 
z
" style="fill: #ffffff"/>
   </g>
   <g id="matplotlib.axis_1">
    <g id="xtick_1">
     <g id="line2d_1">
      <defs>
       <path id="m0ee35793bb" d="M 0 0 
L 0 3.5 
" style="stroke: #000000; stroke-width: 0.8"/>
      </defs>
      <g>
       <use xlink:href="#m0ee35793bb" x="145.331405" y="320.4" style="stroke: #000000; stroke-width: 0.8"/>
      </g>
     </g>
     <g id="text_1">
      <!-- 2012 -->
      <g transform="translate(130.061405 336.518125) scale(0.12 -0.12)">
       <defs>
        <path id="DejaVuSans-32" d="M 1228 531 
L 3431 531 
L 3431 0 
L 469 0 
L 469 531 
Q 828 903 1448 1529 
Q 2069 2156 2228 2338 
Q 2531 2678 2651 2914 
Q 2772 3150 2772 3378 
Q 2772 3750 2511 3984 
Q 2250 4219 1831 4219 
Q 1534 4219 1204 4116 
Q 875 4013 500 3803 
L 500 4441 
Q 881 4594 1212 4672 
Q 1544 4750 1819 4750 
Q 2544 4750 2975 4387 
Q 3406 4025 3406 3419 
Q 3406 3131 3298 2873 
Q 3191 2616 2906 2266 
Q 2828 2175 2409 1742 
Q 1991 1309 1228 531 
z
" transform="scale(0.015625)"/>
        <path id="DejaVuSans-30" d="M 2034 4250 
Q 1547 4250 1301 3770 
Q 1056 3291 1056 2328 
Q 1056 1369 1301 889 
Q 1547 409 2034 409 
Q 2525 409 2770 889 
Q 3016 1369 3016 2328 
Q 3016 3291 2770 3770 
Q 2525 4250 2034 4250 
z
M 2034 4750 
Q 2819 4750 3233 4129 
Q 3647 3509 3647 2328 
Q 3647 1150 3233 529 
Q 2819 -91 2034 -91 
Q 1250 -91 836 529 
Q 422 1150 422 2328 
Q 422 3509 836 4129 
Q 1250 4750 2034 4750 
z
" transform="scale(0.015625)"/>
        <path id="DejaVuSans-31" d="M 794 531 
L 1825 531 
L 1825 4091 
L 703 3866 
L 703 4441 
L 1819 4666 
L 2450 4666 
L 2450 531 
L 3481 531 
L 3481 0 
L 794 0 
L 794 531 
z
" transform="scale(0.015625)"/>
       </defs>
       <use xlink:href="#DejaVuSans-32"/>
       <use xlink:href="#DejaVuSans-30" x="63.623047"/>
       <use xlink:href="#DejaVuSans-31" x="127.246094"/>
       <use xlink:href="#DejaVuSans-32" x="190.869141"/>
      </g>
     </g>
    </g>
    <g id="xtick_2">
     <g id="line2d_2">
      <g>
       <use xlink:href="#m0ee35793bb" x="228.339669" y="320.4" style="stroke: #000000; stroke-width: 0.8"/>
      </g>
     </g>
     <g id="text_2">
      <!-- 2014 -->
      <g transform="translate(213.069669 336.518125) scale(0.12 -0.12)">
       <defs>
        <path id="DejaVuSans-34" d="M 2419 4116 
L 825 1625 
L 2419 1625 
L 2419 4116 
z
M 2253 4666 
L 3047 4666 
L 3047 1625 
L 3713 1625 
L 3713 1100 
L 3047 1100 
L 3047 0 
L 2419 0 
L 2419 1100 
L 313 1100 
L 313 1709 
L 2253 4666 
z
" transform="scale(0.015625)"/>
       </defs>
       <use xlink:href="#DejaVuSans-32"/>
       <use xlink:href="#DejaVuSans-30" x="63.623047"/>
       <use xlink:href="#DejaVuSans-31" x="127.246094"/>
       <use xlink:href="#DejaVuSans-34" x="190.869141"/>
      </g>
     </g>
    </g>
    <g id="xtick_3">
     <g id="line2d_3">
      <g>
       <use xlink:href="#m0ee35793bb" x="311.347934" y="320.4" style="stroke: #000000; stroke-width: 0.8"/>
      </g>
     </g>
     <g id="text_3">
      <!-- 2016 -->
      <g transform="translate(296.077934 336.518125) scale(0.12 -0.12)">
       <defs>
        <path id="DejaVuSans-36" d="M 2113 2584 
Q 1688 2584 1439 2293 
Q 1191 2003 1191 1497 
Q 1191 994 1439 701 
Q 1688 409 2113 409 
Q 2538 409 2786 701 
Q 3034 994 3034 1497 
Q 3034 2003 2786 2293 
Q 2538 2584 2113 2584 
z
M 3366 4563 
L 3366 3988 
Q 3128 4100 2886 4159 
Q 2644 4219 2406 4219 
Q 1781 4219 1451 3797 
Q 1122 3375 1075 2522 
Q 1259 2794 1537 2939 
Q 1816 3084 2150 3084 
Q 2853 3084 3261 2657 
Q 3669 2231 3669 1497 
Q 3669 778 3244 343 
Q 2819 -91 2113 -91 
Q 1303 -91 875 529 
Q 447 1150 447 2328 
Q 447 3434 972 4092 
Q 1497 4750 2381 4750 
Q 2619 4750 2861 4703 
Q 3103 4656 3366 4563 
z
" transform="scale(0.015625)"/>
       </defs>
       <use xlink:href="#DejaVuSans-32"/>
       <use xlink:href="#DejaVuSans-30" x="63.623047"/>
       <use xlink:href="#DejaVuSans-31" x="127.246094"/>
       <use xlink:href="#DejaVuSans-36" x="190.869141"/>
      </g>
     </g>
    </g>
    <g id="xtick_4">
     <g id="line2d_4">
      <g>
       <use xlink:href="#m0ee35793bb" x="394.356198" y="320.4" style="stroke: #000000; stroke-width: 0.8"/>
      </g>
     </g>
     <g id="text_4">
      <!-- 2018 -->
      <g transform="translate(379.086198 336.518125) scale(0.12 -0.12)">
       <defs>
        <path id="DejaVuSans-38" d="M 2034 2216 
Q 1584 2216 1326 1975 
Q 1069 1734 1069 1313 
Q 1069 891 1326 650 
Q 1584 409 2034 409 
Q 2484 409 2743 651 
Q 3003 894 3003 1313 
Q 3003 1734 2745 1975 
Q 2488 2216 2034 2216 
z
M 1403 2484 
Q 997 2584 770 2862 
Q 544 3141 544 3541 
Q 544 4100 942 4425 
Q 1341 4750 2034 4750 
Q 2731 4750 3128 4425 
Q 3525 4100 3525 3541 
Q 3525 3141 3298 2862 
Q 3072 2584 2669 2484 
Q 3125 2378 3379 2068 
Q 3634 1759 3634 1313 
Q 3634 634 3220 271 
Q 2806 -91 2034 -91 
Q 1263 -91 848 271 
Q 434 634 434 1313 
Q 434 1759 690 2068 
Q 947 2378 1403 2484 
z
M 1172 3481 
Q 1172 3119 1398 2916 
Q 1625 2713 2034 2713 
Q 2441 2713 2670 2916 
Q 2900 3119 2900 3481 
Q 2900 3844 2670 4047 
Q 2441 4250 2034 4250 
Q 1625 4250 1398 4047 
Q 1172 3844 1172 3481 
z
" transform="scale(0.015625)"/>
       </defs>
       <use xlink:href="#DejaVuSans-32"/>
       <use xlink:href="#DejaVuSans-30" x="63.623047"/>
       <use xlink:href="#DejaVuSans-31" x="127.246094"/>
       <use xlink:href="#DejaVuSans-38" x="190.869141"/>
      </g>
     </g>
    </g>
    <g id="xtick_5">
     <g id="line2d_5">
      <g>
       <use xlink:href="#m0ee35793bb" x="477.364463" y="320.4" style="stroke: #000000; stroke-width: 0.8"/>
      </g>
     </g>
     <g id="text_5">
      <!-- 2020 -->
      <g transform="translate(462.094463 336.518125) scale(0.12 -0.12)">
       <use xlink:href="#DejaVuSans-32"/>
       <use xlink:href="#DejaVuSans-30" x="63.623047"/>
       <use xlink:href="#DejaVuSans-32" x="127.246094"/>
       <use xlink:href="#DejaVuSans-30" x="190.869141"/>
      </g>
     </g>
    </g>
    <g id="xtick_6">
     <g id="line2d_6">
      <g>
       <use xlink:href="#m0ee35793bb" x="560.372727" y="320.4" style="stroke: #000000; stroke-width: 0.8"/>
      </g>
     </g>
     <g id="text_6">
      <!-- 2022 -->
      <g transform="translate(545.102727 336.518125) scale(0.12 -0.12)">
       <use xlink:href="#DejaVuSans-32"/>
       <use xlink:href="#DejaVuSans-30" x="63.623047"/>
       <use xlink:href="#DejaVuSans-32" x="127.246094"/>
       <use xlink:href="#DejaVuSans-32" x="190.869141"/>
      </g>
     </g>
    </g>
    <g id="text_7">
     <!-- Year -->
     <g transform="translate(316.21875 354.411406) scale(0.15 -0.15)">
      <defs>
       <path id="DejaVuSans-59" d="M -13 4666 
L 666 4666 
L 1959 2747 
L 3244 4666 
L 3922 4666 
L 2272 2222 
L 2272 0 
L 1638 0 
L 1638 2222 
L -13 4666 
z
" transform="scale(0.015625)"/>
       <path id="DejaVuSans-65" d="M 3597 1894 
L 3597 1613 
L 953 1613 
Q 991 1019 1311 708 
Q 1631 397 2203 397 
Q 2534 397 2845 478 
Q 3156 559 3463 722 
L 3463 178 
Q 3153 47 2828 -22 
Q 2503 -91 2169 -91 
Q 1331 -91 842 396 
Q 353 884 353 1716 
Q 353 2575 817 3079 
Q 1281 3584 2069 3584 
Q 2775 3584 3186 3129 
Q 3597 2675 3597 1894 
z
M 3022 2063 
Q 3016 2534 2758 2815 
Q 2500 3097 2075 3097 
Q 1594 3097 1305 2825 
Q 1016 2553 972 2059 
L 3022 2063 
z
" transform="scale(0.015625)"/>
       <path id="DejaVuSans-61" d="M 2194 1759 
Q 1497 1759 1228 1600 
Q 959 1441 959 1056 
Q 959 750 1161 570 
Q 1363 391 1709 391 
Q 2188 391 2477 730 
Q 2766 1069 2766 1631 
L 2766 1759 
L 2194 1759 
z
M 3341 1997 
L 3341 0 
L 2766 0 
L 2766 531 
Q 2569 213 2275 61 
Q 1981 -91 1556 -91 
Q 1019 -91 701 211 
Q 384 513 384 1019 
Q 384 1609 779 1909 
Q 1175 2209 1959 2209 
L 2766 2209 
L 2766 2266 
Q 2766 2663 2505 2880 
Q 2244 3097 1772 3097 
Q 1472 3097 1187 3025 
Q 903 2953 641 2809 
L 641 3341 
Q 956 3463 1253 3523 
Q 1550 3584 1831 3584 
Q 2591 3584 2966 3190 
Q 3341 2797 3341 1997 
z
" transform="scale(0.015625)"/>
       <path id="DejaVuSans-72" d="M 2631 2963 
Q 2534 3019 2420 3045 
Q 2306 3072 2169 3072 
Q 1681 3072 1420 2755 
Q 1159 2438 1159 1844 
L 1159 0 
L 581 0 
L 581 3500 
L 1159 3500 
L 1159 2956 
Q 1341 3275 1631 3429 
Q 1922 3584 2338 3584 
Q 2397 3584 2469 3576 
Q 2541 3569 2628 3553 
L 2631 2963 
z
" transform="scale(0.015625)"/>
      </defs>
      <use xlink:href="#DejaVuSans-59"/>
      <use xlink:href="#DejaVuSans-65" x="47.833984"/>
      <use xlink:href="#DejaVuSans-61" x="109.357422"/>
      <use xlink:href="#DejaVuSans-72" x="170.636719"/>
     </g>
    </g>
   </g>
   <g id="matplotlib.axis_2">
    <g id="ytick_1">
     <g id="line2d_7">
      <defs>
       <path id="m526d047faa" d="M 0 0 
L -3.5 0 
" style="stroke: #000000; stroke-width: 0.8"/>
      </defs>
      <g>
       <use xlink:href="#m526d047faa" x="81" y="319.573016" style="stroke: #000000; stroke-width: 0.8"/>
      </g>
     </g>
     <g id="text_8">
      <!-- 17.5 -->
      <g transform="translate(47.28125 324.132079) scale(0.12 -0.12)">
       <defs>
        <path id="DejaVuSans-37" d="M 525 4666 
L 3525 4666 
L 3525 4397 
L 1831 0 
L 1172 0 
L 2766 4134 
L 525 4134 
L 525 4666 
z
" transform="scale(0.015625)"/>
        <path id="DejaVuSans-2e" d="M 684 794 
L 1344 794 
L 1344 0 
L 684 0 
L 684 794 
z
" transform="scale(0.015625)"/>
        <path id="DejaVuSans-35" d="M 691 4666 
L 3169 4666 
L 3169 4134 
L 1269 4134 
L 1269 2991 
Q 1406 3038 1543 3061 
Q 1681 3084 1819 3084 
Q 2600 3084 3056 2656 
Q 3513 2228 3513 1497 
Q 3513 744 3044 326 
Q 2575 -91 1722 -91 
Q 1428 -91 1123 -41 
Q 819 9 494 109 
L 494 744 
Q 775 591 1075 516 
Q 1375 441 1709 441 
Q 2250 441 2565 725 
Q 2881 1009 2881 1497 
Q 2881 1984 2565 2268 
Q 2250 2553 1709 2553 
Q 1456 2553 1204 2497 
Q 953 2441 691 2322 
L 691 4666 
z
" transform="scale(0.015625)"/>
       </defs>
       <use xlink:href="#DejaVuSans-31"/>
       <use xlink:href="#DejaVuSans-37" x="63.623047"/>
       <use xlink:href="#DejaVuSans-2e" x="127.246094"/>
       <use xlink:href="#DejaVuSans-35" x="159.033203"/>
      </g>
     </g>
    </g>
    <g id="ytick_2">
     <g id="line2d_8">
      <g>
       <use xlink:href="#m526d047faa" x="81" y="284.752791" style="stroke: #000000; stroke-width: 0.8"/>
      </g>
     </g>
     <g id="text_9">
      <!-- 20.0 -->
      <g transform="translate(47.28125 289.311853) scale(0.12 -0.12)">
       <use xlink:href="#DejaVuSans-32"/>
       <use xlink:href="#DejaVuSans-30" x="63.623047"/>
       <use xlink:href="#DejaVuSans-2e" x="127.246094"/>
       <use xlink:href="#DejaVuSans-30" x="159.033203"/>
      </g>
     </g>
    </g>
    <g id="ytick_3">
     <g id="line2d_9">
      <g>
       <use xlink:href="#m526d047faa" x="81" y="249.932565" style="stroke: #000000; stroke-width: 0.8"/>
      </g>
     </g>
     <g id="text_10">
      <!-- 22.5 -->
      <g transform="translate(47.28125 254.491628) scale(0.12 -0.12)">
       <use xlink:href="#DejaVuSans-32"/>
       <use xlink:href="#DejaVuSans-32" x="63.623047"/>
       <use xlink:href="#DejaVuSans-2e" x="127.246094"/>
       <use xlink:href="#DejaVuSans-35" x="159.033203"/>
      </g>
     </g>
    </g>
    <g id="ytick_4">
     <g id="line2d_10">
      <g>
       <use xlink:href="#m526d047faa" x="81" y="215.11234" style="stroke: #000000; stroke-width: 0.8"/>
      </g>
     </g>
     <g id="text_11">
      <!-- 25.0 -->
      <g transform="translate(47.28125 219.671402) scale(0.12 -0.12)">
       <use xlink:href="#DejaVuSans-32"/>
       <use xlink:href="#DejaVuSans-35" x="63.623047"/>
       <use xlink:href="#DejaVuSans-2e" x="127.246094"/>
       <use xlink:href="#DejaVuSans-30" x="159.033203"/>
      </g>
     </g>
    </g>
    <g id="ytick_5">
     <g id="line2d_11">
      <g>
       <use xlink:href="#m526d047faa" x="81" y="180.292114" style="stroke: #000000; stroke-width: 0.8"/>
      </g>
     </g>
     <g id="text_12">
      <!-- 27.5 -->
      <g transform="translate(47.28125 184.851177) scale(0.12 -0.12)">
       <use xlink:href="#DejaVuSans-32"/>
       <use xlink:href="#DejaVuSans-37" x="63.623047"/>
       <use xlink:href="#DejaVuSans-2e" x="127.246094"/>
       <use xlink:href="#DejaVuSans-35" x="159.033203"/>
      </g>
     </g>
    </g>
    <g id="ytick_6">
     <g id="line2d_12">
      <g>
       <use xlink:href="#m526d047faa" x="81" y="145.471889" style="stroke: #000000; stroke-width: 0.8"/>
      </g>
     </g>
     <g id="text_13">
      <!-- 30.0 -->
      <g transform="translate(47.28125 150.030951) scale(0.12 -0.12)">
       <defs>
        <path id="DejaVuSans-33" d="M 2597 2516 
Q 3050 2419 3304 2112 
Q 3559 1806 3559 1356 
Q 3559 666 3084 287 
Q 2609 -91 1734 -91 
Q 1441 -91 1130 -33 
Q 819 25 488 141 
L 488 750 
Q 750 597 1062 519 
Q 1375 441 1716 441 
Q 2309 441 2620 675 
Q 2931 909 2931 1356 
Q 2931 1769 2642 2001 
Q 2353 2234 1838 2234 
L 1294 2234 
L 1294 2753 
L 1863 2753 
Q 2328 2753 2575 2939 
Q 2822 3125 2822 3475 
Q 2822 3834 2567 4026 
Q 2313 4219 1838 4219 
Q 1578 4219 1281 4162 
Q 984 4106 628 3988 
L 628 4550 
Q 988 4650 1302 4700 
Q 1616 4750 1894 4750 
Q 2613 4750 3031 4423 
Q 3450 4097 3450 3541 
Q 3450 3153 3228 2886 
Q 3006 2619 2597 2516 
z
" transform="scale(0.015625)"/>
       </defs>
       <use xlink:href="#DejaVuSans-33"/>
       <use xlink:href="#DejaVuSans-30" x="63.623047"/>
       <use xlink:href="#DejaVuSans-2e" x="127.246094"/>
       <use xlink:href="#DejaVuSans-30" x="159.033203"/>
      </g>
     </g>
    </g>
    <g id="ytick_7">
     <g id="line2d_13">
      <g>
       <use xlink:href="#m526d047faa" x="81" y="110.651663" style="stroke: #000000; stroke-width: 0.8"/>
      </g>
     </g>
     <g id="text_14">
      <!-- 32.5 -->
      <g transform="translate(47.28125 115.210726) scale(0.12 -0.12)">
       <use xlink:href="#DejaVuSans-33"/>
       <use xlink:href="#DejaVuSans-32" x="63.623047"/>
       <use xlink:href="#DejaVuSans-2e" x="127.246094"/>
       <use xlink:href="#DejaVuSans-35" x="159.033203"/>
      </g>
     </g>
    </g>
    <g id="ytick_8">
     <g id="line2d_14">
      <g>
       <use xlink:href="#m526d047faa" x="81" y="75.831438" style="stroke: #000000; stroke-width: 0.8"/>
      </g>
     </g>
     <g id="text_15">
      <!-- 35.0 -->
      <g transform="translate(47.28125 80.3905) scale(0.12 -0.12)">
       <use xlink:href="#DejaVuSans-33"/>
       <use xlink:href="#DejaVuSans-35" x="63.623047"/>
       <use xlink:href="#DejaVuSans-2e" x="127.246094"/>
       <use xlink:href="#DejaVuSans-30" x="159.033203"/>
      </g>
     </g>
    </g>
    <g id="text_16">
     <!-- Total coral cover (%) -->
     <g transform="translate(40.161719 258.769922) rotate(-90) scale(0.15 -0.15)">
      <defs>
       <path id="DejaVuSans-54" d="M -19 4666 
L 3928 4666 
L 3928 4134 
L 2272 4134 
L 2272 0 
L 1638 0 
L 1638 4134 
L -19 4134 
L -19 4666 
z
" transform="scale(0.015625)"/>
       <path id="DejaVuSans-6f" d="M 1959 3097 
Q 1497 3097 1228 2736 
Q 959 2375 959 1747 
Q 959 1119 1226 758 
Q 1494 397 1959 397 
Q 2419 397 2687 759 
Q 2956 1122 2956 1747 
Q 2956 2369 2687 2733 
Q 2419 3097 1959 3097 
z
M 1959 3584 
Q 2709 3584 3137 3096 
Q 3566 2609 3566 1747 
Q 3566 888 3137 398 
Q 2709 -91 1959 -91 
Q 1206 -91 779 398 
Q 353 888 353 1747 
Q 353 2609 779 3096 
Q 1206 3584 1959 3584 
z
" transform="scale(0.015625)"/>
       <path id="DejaVuSans-74" d="M 1172 4494 
L 1172 3500 
L 2356 3500 
L 2356 3053 
L 1172 3053 
L 1172 1153 
Q 1172 725 1289 603 
Q 1406 481 1766 481 
L 2356 481 
L 2356 0 
L 1766 0 
Q 1100 0 847 248 
Q 594 497 594 1153 
L 594 3053 
L 172 3053 
L 172 3500 
L 594 3500 
L 594 4494 
L 1172 4494 
z
" transform="scale(0.015625)"/>
       <path id="DejaVuSans-6c" d="M 603 4863 
L 1178 4863 
L 1178 0 
L 603 0 
L 603 4863 
z
" transform="scale(0.015625)"/>
       <path id="DejaVuSans-20" transform="scale(0.015625)"/>
       <path id="DejaVuSans-63" d="M 3122 3366 
L 3122 2828 
Q 2878 2963 2633 3030 
Q 2388 3097 2138 3097 
Q 1578 3097 1268 2742 
Q 959 2388 959 1747 
Q 959 1106 1268 751 
Q 1578 397 2138 397 
Q 2388 397 2633 464 
Q 2878 531 3122 666 
L 3122 134 
Q 2881 22 2623 -34 
Q 2366 -91 2075 -91 
Q 1284 -91 818 406 
Q 353 903 353 1747 
Q 353 2603 823 3093 
Q 1294 3584 2113 3584 
Q 2378 3584 2631 3529 
Q 2884 3475 3122 3366 
z
" transform="scale(0.015625)"/>
       <path id="DejaVuSans-76" d="M 191 3500 
L 800 3500 
L 1894 563 
L 2988 3500 
L 3597 3500 
L 2284 0 
L 1503 0 
L 191 3500 
z
" transform="scale(0.015625)"/>
       <path id="DejaVuSans-28" d="M 1984 4856 
Q 1566 4138 1362 3434 
Q 1159 2731 1159 2009 
Q 1159 1288 1364 580 
Q 1569 -128 1984 -844 
L 1484 -844 
Q 1016 -109 783 600 
Q 550 1309 550 2009 
Q 550 2706 781 3412 
Q 1013 4119 1484 4856 
L 1984 4856 
z
" transform="scale(0.015625)"/>
       <path id="DejaVuSans-25" d="M 4653 2053 
Q 4381 2053 4226 1822 
Q 4072 1591 4072 1178 
Q 4072 772 4226 539 
Q 4381 306 4653 306 
Q 4919 306 5073 539 
Q 5228 772 5228 1178 
Q 5228 1588 5073 1820 
Q 4919 2053 4653 2053 
z
M 4653 2450 
Q 5147 2450 5437 2106 
Q 5728 1763 5728 1178 
Q 5728 594 5436 251 
Q 5144 -91 4653 -91 
Q 4153 -91 3862 251 
Q 3572 594 3572 1178 
Q 3572 1766 3864 2108 
Q 4156 2450 4653 2450 
z
M 1428 4353 
Q 1159 4353 1004 4120 
Q 850 3888 850 3481 
Q 850 3069 1003 2837 
Q 1156 2606 1428 2606 
Q 1700 2606 1854 2837 
Q 2009 3069 2009 3481 
Q 2009 3884 1853 4118 
Q 1697 4353 1428 4353 
z
M 4250 4750 
L 4750 4750 
L 1831 -91 
L 1331 -91 
L 4250 4750 
z
M 1428 4750 
Q 1922 4750 2215 4408 
Q 2509 4066 2509 3481 
Q 2509 2891 2217 2550 
Q 1925 2209 1428 2209 
Q 931 2209 642 2551 
Q 353 2894 353 3481 
Q 353 4063 643 4406 
Q 934 4750 1428 4750 
z
" transform="scale(0.015625)"/>
       <path id="DejaVuSans-29" d="M 513 4856 
L 1013 4856 
Q 1481 4119 1714 3412 
Q 1947 2706 1947 2009 
Q 1947 1309 1714 600 
Q 1481 -109 1013 -844 
L 513 -844 
Q 928 -128 1133 580 
Q 1338 1288 1338 2009 
Q 1338 2731 1133 3434 
Q 928 4138 513 4856 
z
" transform="scale(0.015625)"/>
      </defs>
      <use xlink:href="#DejaVuSans-54"/>
      <use xlink:href="#DejaVuSans-6f" x="44.083984"/>
      <use xlink:href="#DejaVuSans-74" x="105.265625"/>
      <use xlink:href="#DejaVuSans-61" x="144.474609"/>
      <use xlink:href="#DejaVuSans-6c" x="205.753906"/>
      <use xlink:href="#DejaVuSans-20" x="233.537109"/>
      <use xlink:href="#DejaVuSans-63" x="265.324219"/>
      <use xlink:href="#DejaVuSans-6f" x="320.304688"/>
      <use xlink:href="#DejaVuSans-72" x="381.486328"/>
      <use xlink:href="#DejaVuSans-61" x="422.599609"/>
      <use xlink:href="#DejaVuSans-6c" x="483.878906"/>
      <use xlink:href="#DejaVuSans-20" x="511.662109"/>
      <use xlink:href="#DejaVuSans-63" x="543.449219"/>
      <use xlink:href="#DejaVuSans-6f" x="598.429688"/>
      <use xlink:href="#DejaVuSans-76" x="659.611328"/>
      <use xlink:href="#DejaVuSans-65" x="718.791016"/>
      <use xlink:href="#DejaVuSans-72" x="780.314453"/>
      <use xlink:href="#DejaVuSans-20" x="821.427734"/>
      <use xlink:href="#DejaVuSans-28" x="853.214844"/>
      <use xlink:href="#DejaVuSans-25" x="892.228516"/>
      <use xlink:href="#DejaVuSans-29" x="987.248047"/>
     </g>
    </g>
   </g>
   <g id="line2d_15">
    <path d="M 103.827273 288.931218 
L 145.331405 292.720934 
L 186.835537 295.903049 
L 228.339669 293.554288 
L 269.843802 294.119976 
L 311.347934 285.390304 
L 352.852066 272.83687 
L 394.356198 246.066987 
L 435.860331 213.747973 
L 477.364463 173.338404 
L 518.868595 128.07297 
L 560.372727 73.739845 
" clip-path="url(#pc7fd2e0bff)" style="fill: none; stroke-dasharray: 3.7,1.6; stroke-dashoffset: 0; stroke: #1f77b4; stroke-opacity: 0.6"/>
   </g>
   <g id="line2d_16">
    <path d="M 103.827273 288.931218 
L 145.331405 295.624581 
L 186.835537 300.253391 
L 228.339669 295.308509 
L 269.843802 290.044753 
L 311.347934 275.448716 
L 352.852066 261.228301 
L 394.356198 241.100774 
L 435.860331 208.165752 
L 477.364463 171.611804 
L 518.868595 128.528309 
L 560.372727 75.196112 
" clip-path="url(#pc7fd2e0bff)" style="fill: none; stroke-dasharray: 3.7,1.6; stroke-dashoffset: 0; stroke: #ff7f0e; stroke-opacity: 0.6"/>
   </g>
   <g id="line2d_17">
    <path d="M 103.827273 288.931218 
L 145.331405 289.11869 
L 186.835537 295.137996 
L 228.339669 288.450516 
L 269.843802 284.527482 
L 311.347934 275.031253 
L 352.852066 251.418803 
L 394.356198 231.098474 
L 435.860331 199.806095 
L 477.364463 161.842918 
L 518.868595 111.431049 
L 560.372727 61.058424 
" clip-path="url(#pc7fd2e0bff)" style="fill: none; stroke-dasharray: 3.7,1.6; stroke-dashoffset: 0; stroke: #2ca02c; stroke-opacity: 0.6"/>
   </g>
   <g id="line2d_18">
    <path d="M 103.827273 288.931218 
L 145.331405 295.694591 
L 186.835537 298.255775 
L 228.339669 302.778818 
L 269.843802 300.705312 
L 311.347934 287.781453 
L 352.852066 275.725065 
L 394.356198 256.694729 
L 435.860331 228.121399 
L 477.364463 191.852278 
L 518.868595 145.402276 
L 560.372727 91.538985 
" clip-path="url(#pc7fd2e0bff)" style="fill: none; stroke-dasharray: 3.7,1.6; stroke-dashoffset: 0; stroke: #d62728; stroke-opacity: 0.6"/>
   </g>
   <g id="line2d_19">
    <path d="M 103.827273 288.931218 
L 145.331405 296.643831 
L 186.835537 304.201447 
L 228.339669 305.337062 
L 269.843802 303.402483 
L 311.347934 297.439308 
L 352.852066 285.001282 
L 394.356198 266.518448 
L 435.860331 234.846345 
L 477.364463 192.892996 
L 518.868595 145.547219 
L 560.372727 90.52329 
" clip-path="url(#pc7fd2e0bff)" style="fill: none; stroke-dasharray: 3.7,1.6; stroke-dashoffset: 0; stroke: #9467bd; stroke-opacity: 0.6"/>
   </g>
   <g id="line2d_20">
    <path d="M 103.827273 288.931218 
L 145.331405 295.662867 
L 186.835537 294.387847 
L 228.339669 295.237268 
L 269.843802 295.236174 
L 311.347934 289.273273 
L 352.852066 269.217397 
L 394.356198 252.678166 
L 435.860331 221.776313 
L 477.364463 187.866891 
L 518.868595 142.767731 
L 560.372727 86.816577 
" clip-path="url(#pc7fd2e0bff)" style="fill: none; stroke-dasharray: 3.7,1.6; stroke-dashoffset: 0; stroke: #8c564b; stroke-opacity: 0.6"/>
   </g>
   <g id="line2d_21">
    <path d="M 103.827273 288.931218 
L 145.331405 297.398492 
L 186.835537 303.297741 
L 228.339669 301.326379 
L 269.843802 295.679071 
L 311.347934 280.944381 
L 352.852066 263.626424 
L 394.356198 243.798628 
L 435.860331 215.788525 
L 477.364463 177.919697 
L 518.868595 125.845359 
L 560.372727 64.864819 
" clip-path="url(#pc7fd2e0bff)" style="fill: none; stroke-dasharray: 3.7,1.6; stroke-dashoffset: 0; stroke: #e377c2; stroke-opacity: 0.6"/>
   </g>
   <g id="line2d_22">
    <path d="M 103.827273 288.931218 
L 145.331405 295.696779 
L 186.835537 294.08962 
L 228.339669 293.774027 
L 269.843802 286.856143 
L 311.347934 272.392059 
L 352.852066 260.079559 
L 394.356198 237.877022 
L 435.860331 213.116787 
L 477.364463 179.019077 
L 518.868595 135.694238 
L 560.372727 86.048379 
" clip-path="url(#pc7fd2e0bff)" style="fill: none; stroke-dasharray: 3.7,1.6; stroke-dashoffset: 0; stroke: #7f7f7f; stroke-opacity: 0.6"/>
   </g>
   <g id="line2d_23">
    <path d="M 103.827273 288.931218 
L 145.331405 292.182047 
L 186.835537 292.018849 
L 228.339669 291.850524 
L 269.843802 286.79967 
L 311.347934 279.695 
L 352.852066 262.968438 
L 394.356198 237.219582 
L 435.860331 208.708605 
L 477.364463 168.884277 
L 518.868595 123.99255 
L 560.372727 71.130733 
" clip-path="url(#pc7fd2e0bff)" style="fill: none; stroke-dasharray: 3.7,1.6; stroke-dashoffset: 0; stroke: #bcbd22; stroke-opacity: 0.6"/>
   </g>
   <g id="line2d_24">
    <path d="M 103.827273 288.931218 
L 145.331405 297.187504 
L 186.835537 304.276244 
L 228.339669 296.84217 
L 269.843802 297.088573 
L 311.347934 288.713328 
L 352.852066 271.571217 
L 394.356198 253.881877 
L 435.860331 225.650804 
L 477.364463 192.284235 
L 518.868595 145.680676 
L 560.372727 91.919119 
" clip-path="url(#pc7fd2e0bff)" style="fill: none; stroke-dasharray: 3.7,1.6; stroke-dashoffset: 0; stroke: #17becf; stroke-opacity: 0.6"/>
   </g>
   <g id="line2d_25">
    <path d="M 103.827273 288.931218 
L 145.331405 293.674823 
L 186.835537 297.157627 
L 228.339669 298.780852 
L 269.843802 293.790162 
L 311.347934 285.840721 
L 352.852066 270.778816 
L 394.356198 253.516238 
L 435.860331 230.522394 
L 477.364463 193.631658 
L 518.868595 149.250924 
L 560.372727 100.607223 
" clip-path="url(#pc7fd2e0bff)" style="fill: none; stroke-dasharray: 3.7,1.6; stroke-dashoffset: 0; stroke: #1f77b4; stroke-opacity: 0.6"/>
   </g>
   <g id="line2d_26">
    <path d="M 103.827273 288.931218 
L 145.331405 296.009227 
L 186.835537 300.471489 
L 228.339669 298.533491 
L 269.843802 298.03043 
L 311.347934 288.301881 
L 352.852066 272.035308 
L 394.356198 254.115837 
L 435.860331 230.297595 
L 477.364463 196.61557 
L 518.868595 154.146579 
L 560.372727 100.241173 
" clip-path="url(#pc7fd2e0bff)" style="fill: none; stroke-dasharray: 3.7,1.6; stroke-dashoffset: 0; stroke: #ff7f0e; stroke-opacity: 0.6"/>
   </g>
   <g id="line2d_27">
    <path d="M 103.827273 288.931218 
L 145.331405 296.248519 
L 186.835537 303.437899 
L 228.339669 306.869903 
L 269.843802 301.426199 
L 311.347934 292.891379 
L 352.852066 271.066651 
L 394.356198 247.911318 
L 435.860331 218.78406 
L 477.364463 179.380203 
L 518.868595 131.598504 
L 560.372727 75.055271 
" clip-path="url(#pc7fd2e0bff)" style="fill: none; stroke-dasharray: 3.7,1.6; stroke-dashoffset: 0; stroke: #2ca02c; stroke-opacity: 0.6"/>
   </g>
   <g id="line2d_28">
    <path d="M 103.827273 288.931218 
L 145.331405 294.982319 
L 186.835537 292.715943 
L 228.339669 289.789325 
L 269.843802 287.559937 
L 311.347934 277.536032 
L 352.852066 270.49645 
L 394.356198 254.436763 
L 435.860331 228.980528 
L 477.364463 198.192441 
L 518.868595 157.916739 
L 560.372727 108.845593 
" clip-path="url(#pc7fd2e0bff)" style="fill: none; stroke-dasharray: 3.7,1.6; stroke-dashoffset: 0; stroke: #d62728; stroke-opacity: 0.6"/>
   </g>
   <g id="line2d_29">
    <path d="M 103.827273 288.931218 
L 145.331405 293.923004 
L 186.835537 297.099239 
L 228.339669 298.521458 
L 269.843802 287.928584 
L 311.347934 281.274469 
L 352.852066 271.971724 
L 394.356198 252.694712 
L 435.860331 222.175863 
L 477.364463 177.935696 
L 518.868595 132.415517 
L 560.372727 83.469761 
" clip-path="url(#pc7fd2e0bff)" style="fill: none; stroke-dasharray: 3.7,1.6; stroke-dashoffset: 0; stroke: #9467bd; stroke-opacity: 0.6"/>
   </g>
   <g id="line2d_30">
    <path d="M 103.827273 288.931218 
L 145.331405 296.991831 
L 186.835537 301.09953 
L 228.339669 303.309501 
L 269.843802 296.984652 
L 311.347934 288.909548 
L 352.852066 273.111852 
L 394.356198 256.213682 
L 435.860331 225.996479 
L 477.364463 188.874109 
L 518.868595 136.27278 
L 560.372727 82.255384 
" clip-path="url(#pc7fd2e0bff)" style="fill: none; stroke-dasharray: 3.7,1.6; stroke-dashoffset: 0; stroke: #8c564b; stroke-opacity: 0.6"/>
   </g>
   <g id="line2d_31">
    <path d="M 103.827273 288.931218 
L 145.331405 294.435774 
L 186.835537 290.309342 
L 228.339669 285.678139 
L 269.843802 276.08797 
L 311.347934 262.574767 
L 352.852066 253.123114 
L 394.356198 236.440992 
L 435.860331 214.088726 
L 477.364463 179.015795 
L 518.868595 138.123264 
L 560.372727 87.518184 
" clip-path="url(#pc7fd2e0bff)" style="fill: none; stroke-dasharray: 3.7,1.6; stroke-dashoffset: 0; stroke: #e377c2; stroke-opacity: 0.6"/>
   </g>
   <g id="line2d_32">
    <path d="M 103.827273 288.931218 
L 145.331405 296.145828 
L 186.835537 297.642365 
L 228.339669 301.381895 
L 269.843802 299.685925 
L 311.347934 288.063409 
L 352.852066 274.785397 
L 394.356198 252.627573 
L 435.860331 224.703068 
L 477.364463 188.744344 
L 518.868595 145.14507 
L 560.372727 92.191639 
" clip-path="url(#pc7fd2e0bff)" style="fill: none; stroke-dasharray: 3.7,1.6; stroke-dashoffset: 0; stroke: #7f7f7f; stroke-opacity: 0.6"/>
   </g>
   <g id="line2d_33">
    <path d="M 103.827273 288.931218 
L 145.331405 294.209472 
L 186.835537 300.745513 
L 228.339669 298.017986 
L 269.843802 294.118199 
L 311.347934 282.192396 
L 352.852066 264.296034 
L 394.356198 245.821677 
L 435.860331 215.201916 
L 477.364463 178.666564 
L 518.868595 132.543231 
L 560.372727 75.492151 
" clip-path="url(#pc7fd2e0bff)" style="fill: none; stroke-dasharray: 3.7,1.6; stroke-dashoffset: 0; stroke: #bcbd22; stroke-opacity: 0.6"/>
   </g>
   <g id="line2d_34">
    <path d="M 103.827273 288.931218 
L 145.331405 293.763703 
L 186.835537 297.781702 
L 228.339669 289.23102 
L 269.843802 280.764707 
L 311.347934 270.680364 
L 352.852066 249.204183 
L 394.356198 228.750123 
L 435.860331 201.073115 
L 477.364463 166.953116 
L 518.868595 124.603909 
L 560.372727 75.142921 
" clip-path="url(#pc7fd2e0bff)" style="fill: none; stroke-dasharray: 3.7,1.6; stroke-dashoffset: 0; stroke: #17becf; stroke-opacity: 0.6"/>
   </g>
   <g id="line2d_35">
    <path d="M 103.827273 288.931218 
L 145.331405 288.006867 
L 186.835537 290.022191 
L 228.339669 283.396243 
L 269.843802 281.101631 
L 311.347934 274.206171 
L 352.852066 266.764988 
L 394.356198 250.543265 
L 435.860331 227.39682 
L 477.364463 195.522618 
L 518.868595 152.661187 
L 560.372727 100.61365 
" clip-path="url(#pc7fd2e0bff)" style="fill: none; stroke-dasharray: 3.7,1.6; stroke-dashoffset: 0; stroke: #1f77b4; stroke-opacity: 0.6"/>
   </g>
   <g id="line2d_36">
    <path d="M 103.827273 288.931218 
L 145.331405 294.335545 
L 186.835537 293.815733 
L 228.339669 297.338532 
L 269.843802 297.513147 
L 311.347934 294.890772 
L 352.852066 287.182948 
L 394.356198 268.690679 
L 435.860331 246.253088 
L 477.364463 212.317003 
L 518.868595 163.510993 
L 560.372727 110.122596 
" clip-path="url(#pc7fd2e0bff)" style="fill: none; stroke-dasharray: 3.7,1.6; stroke-dashoffset: 0; stroke: #ff7f0e; stroke-opacity: 0.6"/>
   </g>
   <g id="line2d_37">
    <path d="M 103.827273 288.931218 
L 145.331405 295.315551 
L 186.835537 301.171728 
L 228.339669 297.091445 
L 269.843802 292.77351 
L 311.347934 284.252227 
L 352.852066 270.099771 
L 394.356198 250.36318 
L 435.860331 223.78268 
L 477.364463 186.390113 
L 518.868595 139.477661 
L 560.372727 81.545984 
" clip-path="url(#pc7fd2e0bff)" style="fill: none; stroke-dasharray: 3.7,1.6; stroke-dashoffset: 0; stroke: #2ca02c; stroke-opacity: 0.6"/>
   </g>
   <g id="line2d_38">
    <path d="M 103.827273 288.931218 
L 145.331405 295.606941 
L 186.835537 292.621457 
L 228.339669 296.522475 
L 269.843802 295.267077 
L 311.347934 285.613871 
L 352.852066 267.856846 
L 394.356198 246.611617 
L 435.860331 217.139093 
L 477.364463 181.710368 
L 518.868595 133.24388 
L 560.372727 82.244309 
" clip-path="url(#pc7fd2e0bff)" style="fill: none; stroke-dasharray: 3.7,1.6; stroke-dashoffset: 0; stroke: #d62728; stroke-opacity: 0.6"/>
   </g>
   <g id="line2d_39">
    <path d="M 103.827273 288.931218 
L 145.331405 297.339968 
L 186.835537 302.247588 
L 228.339669 305.479271 
L 269.843802 305.2315 
L 311.347934 300.800346 
L 352.852066 286.669358 
L 394.356198 268.891822 
L 435.860331 238.699095 
L 477.364463 195.61601 
L 518.868595 145.708434 
L 560.372727 92.080334 
" clip-path="url(#pc7fd2e0bff)" style="fill: none; stroke-dasharray: 3.7,1.6; stroke-dashoffset: 0; stroke: #9467bd; stroke-opacity: 0.6"/>
   </g>
   <g id="line2d_40">
    <path d="M 103.827273 288.931218 
L 145.331405 292.97226 
L 186.835537 298.547986 
L 228.339669 293.644399 
L 269.843802 284.764177 
L 311.347934 276.204608 
L 352.852066 265.244864 
L 394.356198 245.913019 
L 435.860331 216.706315 
L 477.364463 179.876155 
L 518.868595 135.462056 
L 560.372727 81.96837 
" clip-path="url(#pc7fd2e0bff)" style="fill: none; stroke-dasharray: 3.7,1.6; stroke-dashoffset: 0; stroke: #8c564b; stroke-opacity: 0.6"/>
   </g>
   <g id="line2d_41">
    <path d="M 103.827273 288.931218 
L 145.331405 297.292793 
L 186.835537 300.844649 
L 228.339669 299.893768 
L 269.843802 298.023729 
L 311.347934 284.231717 
L 352.852066 264.380402 
L 394.356198 249.550405 
L 435.860331 216.89939 
L 477.364463 183.409073 
L 518.868595 142.522559 
L 560.372727 92.403447 
" clip-path="url(#pc7fd2e0bff)" style="fill: none; stroke-dasharray: 3.7,1.6; stroke-dashoffset: 0; stroke: #e377c2; stroke-opacity: 0.6"/>
   </g>
   <g id="line2d_42">
    <path d="M 103.827273 288.931218 
L 145.331405 298.207711 
L 186.835537 298.745847 
L 228.339669 299.933832 
L 269.843802 300.762332 
L 311.347934 294.280644 
L 352.852066 285.348872 
L 394.356198 269.700494 
L 435.860331 236.843004 
L 477.364463 203.161526 
L 518.868595 152.964337 
L 560.372727 95.588776 
" clip-path="url(#pc7fd2e0bff)" style="fill: none; stroke-dasharray: 3.7,1.6; stroke-dashoffset: 0; stroke: #7f7f7f; stroke-opacity: 0.6"/>
   </g>
   <g id="line2d_43">
    <path d="M 103.827273 288.931218 
L 145.331405 297.784642 
L 186.835537 299.67608 
L 228.339669 300.154255 
L 269.843802 288.940314 
L 311.347934 283.02951 
L 352.852066 262.913195 
L 394.356198 234.074729 
L 435.860331 199.338175 
L 477.364463 155.211774 
L 518.868595 112.516891 
L 560.372727 57.692737 
" clip-path="url(#pc7fd2e0bff)" style="fill: none; stroke-dasharray: 3.7,1.6; stroke-dashoffset: 0; stroke: #bcbd22; stroke-opacity: 0.6"/>
   </g>
   <g id="line2d_44">
    <path d="M 103.827273 288.931218 
L 145.331405 298.439894 
L 186.835537 300.272944 
L 228.339669 300.774229 
L 269.843802 299.392074 
L 311.347934 294.659137 
L 352.852066 284.56741 
L 394.356198 263.676197 
L 435.860331 232.180898 
L 477.364463 195.024342 
L 518.868595 142.161569 
L 560.372727 81.127974 
" clip-path="url(#pc7fd2e0bff)" style="fill: none; stroke-dasharray: 3.7,1.6; stroke-dashoffset: 0; stroke: #17becf; stroke-opacity: 0.6"/>
   </g>
   <g id="line2d_45">
    <path d="M 103.827273 288.931218 
L 145.331405 294.176107 
L 186.835537 291.90057 
L 228.339669 291.462459 
L 269.843802 290.307975 
L 311.347934 282.039248 
L 352.852066 265.360681 
L 394.356198 240.614121 
L 435.860331 212.323976 
L 477.364463 170.044642 
L 518.868595 125.229078 
L 560.372727 68.291901 
" clip-path="url(#pc7fd2e0bff)" style="fill: none; stroke-dasharray: 3.7,1.6; stroke-dashoffset: 0; stroke: #1f77b4; stroke-opacity: 0.6"/>
   </g>
   <g id="line2d_46">
    <path d="M 103.827273 288.931218 
L 145.331405 297.438556 
L 186.835537 300.475454 
L 228.339669 302.260168 
L 269.843802 301.161746 
L 311.347934 288.886029 
L 352.852066 274.140674 
L 394.356198 255.521374 
L 435.860331 232.867736 
L 477.364463 198.191211 
L 518.868595 152.288711 
L 560.372727 98.598668 
" clip-path="url(#pc7fd2e0bff)" style="fill: none; stroke-dasharray: 3.7,1.6; stroke-dashoffset: 0; stroke: #ff7f0e; stroke-opacity: 0.6"/>
   </g>
   <g id="line2d_47">
    <path d="M 103.827273 288.931218 
L 145.331405 293.828107 
L 186.835537 299.189153 
L 228.339669 302.121515 
L 269.843802 296.40406 
L 311.347934 289.671182 
L 352.852066 276.211855 
L 394.356198 259.12608 
L 435.860331 229.594212 
L 477.364463 198.044353 
L 518.868595 152.423535 
L 560.372727 102.581866 
" clip-path="url(#pc7fd2e0bff)" style="fill: none; stroke-dasharray: 3.7,1.6; stroke-dashoffset: 0; stroke: #2ca02c; stroke-opacity: 0.6"/>
   </g>
   <g id="line2d_48">
    <path d="M 103.827273 288.931218 
L 145.331405 290.767348 
L 186.835537 292.393513 
L 228.339669 288.439987 
L 269.843802 285.780146 
L 311.347934 278.6644 
L 352.852066 265.279869 
L 394.356198 249.516357 
L 435.860331 225.214471 
L 477.364463 191.591243 
L 518.868595 144.374411 
L 560.372727 99.964551 
" clip-path="url(#pc7fd2e0bff)" style="fill: none; stroke-dasharray: 3.7,1.6; stroke-dashoffset: 0; stroke: #d62728; stroke-opacity: 0.6"/>
   </g>
   <g id="line2d_49">
    <path d="M 103.827273 288.931218 
L 145.331405 289.35976 
L 186.835537 295.964718 
L 228.339669 298.780168 
L 269.843802 292.001483 
L 311.347934 287.33924 
L 352.852066 273.713092 
L 394.356198 256.116735 
L 435.860331 228.709512 
L 477.364463 192.819157 
L 518.868595 148.681133 
L 560.372727 93.340108 
" clip-path="url(#pc7fd2e0bff)" style="fill: none; stroke-dasharray: 3.7,1.6; stroke-dashoffset: 0; stroke: #9467bd; stroke-opacity: 0.6"/>
   </g>
   <g id="line2d_50">
    <path d="M 103.827273 288.931218 
L 145.331405 293.521676 
L 186.835537 293.016905 
L 228.339669 297.028545 
L 269.843802 297.890136 
L 311.347934 287.334181 
L 352.852066 270.975173 
L 394.356198 248.059953 
L 435.860331 225.767032 
L 477.364463 191.946627 
L 518.868595 149.023937 
L 560.372727 101.052444 
" clip-path="url(#pc7fd2e0bff)" style="fill: none; stroke-dasharray: 3.7,1.6; stroke-dashoffset: 0; stroke: #8c564b; stroke-opacity: 0.6"/>
   </g>
   <g id="line2d_51">
    <path d="M 103.827273 288.931218 
L 145.331405 289.206749 
L 186.835537 287.161617 
L 228.339669 286.516073 
L 269.843802 285.475355 
L 311.347934 279.222021 
L 352.852066 264.054006 
L 394.356198 246.317902 
L 435.860331 217.385496 
L 477.364463 184.049557 
L 518.868595 134.422295 
L 560.372727 80.554902 
" clip-path="url(#pc7fd2e0bff)" style="fill: none; stroke-dasharray: 3.7,1.6; stroke-dashoffset: 0; stroke: #e377c2; stroke-opacity: 0.6"/>
   </g>
   <g id="line2d_52">
    <path d="M 103.827273 288.931218 
L 145.331405 293.003026 
L 186.835537 296.116635 
L 228.339669 297.711008 
L 269.843802 291.771626 
L 311.347934 285.882426 
L 352.852066 271.408361 
L 394.356198 254.623138 
L 435.860331 225.951492 
L 477.364463 188.289687 
L 518.868595 140.030359 
L 560.372727 84.864359 
" clip-path="url(#pc7fd2e0bff)" style="fill: none; stroke-dasharray: 3.7,1.6; stroke-dashoffset: 0; stroke: #7f7f7f; stroke-opacity: 0.6"/>
   </g>
   <g id="line2d_53">
    <path d="M 103.827273 288.931218 
L 145.331405 297.602916 
L 186.835537 297.567706 
L 228.339669 296.888251 
L 269.843802 295.989331 
L 311.347934 289.781394 
L 352.852066 279.657123 
L 394.356198 259.443724 
L 435.860331 232.91997 
L 477.364463 199.555453 
L 518.868595 154.4325 
L 560.372727 103.119386 
" clip-path="url(#pc7fd2e0bff)" style="fill: none; stroke-dasharray: 3.7,1.6; stroke-dashoffset: 0; stroke: #bcbd22; stroke-opacity: 0.6"/>
   </g>
   <g id="line2d_54">
    <path d="M 103.827273 288.931218 
L 145.331405 295.152695 
L 186.835537 294.814609 
L 228.339669 297.060816 
L 269.843802 294.767844 
L 311.347934 287.480902 
L 352.852066 278.23299 
L 394.356198 261.311301 
L 435.860331 237.285764 
L 477.364463 203.805155 
L 518.868595 161.199425 
L 560.372727 112.420627 
" clip-path="url(#pc7fd2e0bff)" style="fill: none; stroke-dasharray: 3.7,1.6; stroke-dashoffset: 0; stroke: #17becf; stroke-opacity: 0.6"/>
   </g>
   <g id="line2d_55">
    <path d="M 103.827273 288.931218 
L 145.331405 293.076318 
L 186.835537 291.496644 
L 228.339669 292.834769 
L 269.843802 283.279605 
L 311.347934 277.663473 
L 352.852066 268.507586 
L 394.356198 250.853525 
L 435.860331 223.988061 
L 477.364463 184.304438 
L 518.868595 138.331791 
L 560.372727 85.078902 
" clip-path="url(#pc7fd2e0bff)" style="fill: none; stroke-dasharray: 3.7,1.6; stroke-dashoffset: 0; stroke: #1f77b4; stroke-opacity: 0.6"/>
   </g>
   <g id="line2d_56">
    <path d="M 103.827273 288.931218 
L 145.331405 295.650698 
L 186.835537 299.304561 
L 228.339669 300.241358 
L 269.843802 300.222761 
L 311.347934 291.986579 
L 352.852066 278.866637 
L 394.356198 258.892394 
L 435.860331 228.11046 
L 477.364463 188.596529 
L 518.868595 143.984159 
L 560.372727 93.182038 
" clip-path="url(#pc7fd2e0bff)" style="fill: none; stroke-dasharray: 3.7,1.6; stroke-dashoffset: 0; stroke: #ff7f0e; stroke-opacity: 0.6"/>
   </g>
   <g id="line2d_57">
    <path d="M 103.827273 288.931218 
L 145.331405 297.520326 
L 186.835537 300.739223 
L 228.339669 300.64337 
L 269.843802 294.289942 
L 311.347934 284.557565 
L 352.852066 268.197052 
L 394.356198 251.110594 
L 435.860331 223.903694 
L 477.364463 184.317565 
L 518.868595 139.306601 
L 560.372727 83.869858 
" clip-path="url(#pc7fd2e0bff)" style="fill: none; stroke-dasharray: 3.7,1.6; stroke-dashoffset: 0; stroke: #2ca02c; stroke-opacity: 0.6"/>
   </g>
   <g id="line2d_58">
    <path d="M 103.827273 288.931218 
L 145.331405 290.287669 
L 186.835537 287.443162 
L 228.339669 289.873145 
L 269.843802 281.919602 
L 311.347934 276.044623 
L 352.852066 267.152916 
L 394.356198 245.247922 
L 435.860331 215.351371 
L 477.364463 181.715564 
L 518.868595 142.188233 
L 560.372727 99.612175 
" clip-path="url(#pc7fd2e0bff)" style="fill: none; stroke-dasharray: 3.7,1.6; stroke-dashoffset: 0; stroke: #d62728; stroke-opacity: 0.6"/>
   </g>
   <g id="line2d_59">
    <path d="M 103.827273 288.931218 
L 145.331405 294.033079 
L 186.835537 293.9429 
L 228.339669 291.574995 
L 269.843802 288.195498 
L 311.347934 279.461177 
L 352.852066 269.659336 
L 394.356198 250.923672 
L 435.860331 228.667123 
L 477.364463 195.44495 
L 518.868595 153.380296 
L 560.372727 104.255548 
" clip-path="url(#pc7fd2e0bff)" style="fill: none; stroke-dasharray: 3.7,1.6; stroke-dashoffset: 0; stroke: #9467bd; stroke-opacity: 0.6"/>
   </g>
   <g id="line2d_60">
    <path d="M 103.827273 288.931218 
L 145.331405 297.268863 
L 186.835537 300.957185 
L 228.339669 299.649006 
L 269.843802 297.908595 
L 311.347934 290.04653 
L 352.852066 275.768548 
L 394.356198 260.194556 
L 435.860331 230.883657 
L 477.364463 197.17237 
L 518.868595 150.983676 
L 560.372727 94.955949 
" clip-path="url(#pc7fd2e0bff)" style="fill: none; stroke-dasharray: 3.7,1.6; stroke-dashoffset: 0; stroke: #8c564b; stroke-opacity: 0.6"/>
   </g>
   <g id="line2d_61">
    <path d="M 103.827273 288.931218 
L 145.331405 294.234221 
L 186.835537 300.072896 
L 228.339669 300.993147 
L 269.843802 301.374101 
L 311.347934 295.02587 
L 352.852066 283.455588 
L 394.356198 263.992474 
L 435.860331 239.421896 
L 477.364463 202.962161 
L 518.868595 157.849874 
L 560.372727 104.004496 
" clip-path="url(#pc7fd2e0bff)" style="fill: none; stroke-dasharray: 3.7,1.6; stroke-dashoffset: 0; stroke: #e377c2; stroke-opacity: 0.6"/>
   </g>
   <g id="line2d_62">
    <path d="M 103.827273 288.931218 
L 145.331405 293.545469 
L 186.835537 297.467887 
L 228.339669 298.260287 
L 269.843802 298.748171 
L 311.347934 284.433543 
L 352.852066 269.625151 
L 394.356198 246.482946 
L 435.860331 216.748431 
L 477.364463 179.428472 
L 518.868595 135.485712 
L 560.372727 82.965468 
" clip-path="url(#pc7fd2e0bff)" style="fill: none; stroke-dasharray: 3.7,1.6; stroke-dashoffset: 0; stroke: #7f7f7f; stroke-opacity: 0.6"/>
   </g>
   <g id="line2d_63">
    <path d="M 103.827273 288.931218 
L 145.331405 294.881816 
L 186.835537 294.600203 
L 228.339669 295.399167 
L 269.843802 290.977857 
L 311.347934 286.062921 
L 352.852066 267.492301 
L 394.356198 247.43998 
L 435.860331 217.106686 
L 477.364463 180.82813 
L 518.868595 132.355352 
L 560.372727 77.32486 
" clip-path="url(#pc7fd2e0bff)" style="fill: none; stroke-dasharray: 3.7,1.6; stroke-dashoffset: 0; stroke: #bcbd22; stroke-opacity: 0.6"/>
   </g>
   <g id="line2d_64">
    <path d="M 103.827273 288.931218 
L 145.331405 298.206207 
L 186.835537 300.66853 
L 228.339669 304.273509 
L 269.843802 300.693963 
L 311.347934 290.040514 
L 352.852066 274.921315 
L 394.356198 247.548824 
L 435.860331 220.928123 
L 477.364463 184.381969 
L 518.868595 136.251995 
L 560.372727 84.736235 
" clip-path="url(#pc7fd2e0bff)" style="fill: none; stroke-dasharray: 3.7,1.6; stroke-dashoffset: 0; stroke: #17becf; stroke-opacity: 0.6"/>
   </g>
   <g id="line2d_65">
    <path d="M 103.827273 288.931218 
L 145.331405 294.978764 
L 186.835537 300.865707 
L 228.339669 302.14394 
L 269.843802 298.87233 
L 311.347934 293.733279 
L 352.852066 276.685518 
L 394.356198 257.159094 
L 435.860331 231.234666 
L 477.364463 195.005335 
L 518.868595 151.067771 
L 560.372727 100.483611 
" clip-path="url(#pc7fd2e0bff)" style="fill: none; stroke-dasharray: 3.7,1.6; stroke-dashoffset: 0; stroke: #1f77b4; stroke-opacity: 0.6"/>
   </g>
   <g id="line2d_66">
    <path d="M 103.827273 288.931218 
L 145.331405 292.406435 
L 186.835537 296.584828 
L 228.339669 292.182525 
L 269.843802 291.692727 
L 311.347934 287.776121 
L 352.852066 275.442153 
L 394.356198 256.258943 
L 435.860331 220.55086 
L 477.364463 185.530164 
L 518.868595 140.281685 
L 560.372727 87.066399 
" clip-path="url(#pc7fd2e0bff)" style="fill: none; stroke-dasharray: 3.7,1.6; stroke-dashoffset: 0; stroke: #ff7f0e; stroke-opacity: 0.6"/>
   </g>
   <g id="line2d_67">
    <path d="M 103.827273 288.931218 
L 145.331405 292.186833 
L 186.835537 296.446995 
L 228.339669 296.834923 
L 269.843802 290.904565 
L 311.347934 283.30832 
L 352.852066 268.500886 
L 394.356198 242.527095 
L 435.860331 210.427274 
L 477.364463 168.855015 
L 518.868595 121.650626 
L 560.372727 65.251926 
" clip-path="url(#pc7fd2e0bff)" style="fill: none; stroke-dasharray: 3.7,1.6; stroke-dashoffset: 0; stroke: #2ca02c; stroke-opacity: 0.6"/>
   </g>
   <g id="line2d_68">
    <path d="M 103.827273 288.931218 
L 145.331405 294.777348 
L 186.835537 298.198755 
L 228.339669 300.749479 
L 269.843802 292.287951 
L 311.347934 277.380287 
L 352.852066 262.994281 
L 394.356198 248.160593 
L 435.860331 225.030831 
L 477.364463 192.482096 
L 518.868595 147.360648 
L 560.372727 93.019866 
" clip-path="url(#pc7fd2e0bff)" style="fill: none; stroke-dasharray: 3.7,1.6; stroke-dashoffset: 0; stroke: #d62728; stroke-opacity: 0.6"/>
   </g>
   <g id="line2d_69">
    <path d="M 103.827273 288.931218 
L 145.331405 292.125164 
L 186.835537 295.802956 
L 228.339669 294.485205 
L 269.843802 293.514497 
L 311.347934 286.206771 
L 352.852066 273.871162 
L 394.356198 255.291106 
L 435.860331 225.258911 
L 477.364463 184.645191 
L 518.868595 136.856244 
L 560.372727 74.562328 
" clip-path="url(#pc7fd2e0bff)" style="fill: none; stroke-dasharray: 3.7,1.6; stroke-dashoffset: 0; stroke: #9467bd; stroke-opacity: 0.6"/>
   </g>
   <g id="line2d_70">
    <path d="M 103.827273 288.931218 
L 145.331405 294.333494 
L 186.835537 299.518967 
L 228.339669 301.060696 
L 269.843802 299.27735 
L 311.347934 295.199255 
L 352.852066 276.489434 
L 394.356198 259.758633 
L 435.860331 234.288178 
L 477.364463 192.84418 
L 518.868595 150.026232 
L 560.372727 98.190503 
" clip-path="url(#pc7fd2e0bff)" style="fill: none; stroke-dasharray: 3.7,1.6; stroke-dashoffset: 0; stroke: #8c564b; stroke-opacity: 0.6"/>
   </g>
   <g id="line2d_71">
    <path d="M 103.827273 288.931218 
L 145.331405 295.137244 
L 186.835537 294.723678 
L 228.339669 293.85443 
L 269.843802 293.447222 
L 311.347934 279.328677 
L 352.852066 266.749263 
L 394.356198 247.541987 
L 435.860331 218.555706 
L 477.364463 179.115751 
L 518.868595 134.328629 
L 560.372727 78.171956 
" clip-path="url(#pc7fd2e0bff)" style="fill: none; stroke-dasharray: 3.7,1.6; stroke-dashoffset: 0; stroke: #e377c2; stroke-opacity: 0.6"/>
   </g>
   <g id="line2d_72">
    <path d="M 103.827273 288.931218 
L 145.331405 298.232735 
L 186.835537 301.841064 
L 228.339669 299.838526 
L 269.843802 294.891593 
L 311.347934 284.234315 
L 352.852066 263.405865 
L 394.356198 244.266685 
L 435.860331 215.239792 
L 477.364463 176.439638 
L 518.868595 127.145471 
L 560.372727 71.243543 
" clip-path="url(#pc7fd2e0bff)" style="fill: none; stroke-dasharray: 3.7,1.6; stroke-dashoffset: 0; stroke: #7f7f7f; stroke-opacity: 0.6"/>
   </g>
   <g id="line2d_73">
    <path d="M 103.827273 288.931218 
L 145.331405 297.342019 
L 186.835537 298.616082 
L 228.339669 297.065054 
L 269.843802 292.137949 
L 311.347934 281.329438 
L 352.852066 268.093815 
L 394.356198 249.372098 
L 435.860331 220.29133 
L 477.364463 189.961045 
L 518.868595 146.067646 
L 560.372727 97.939587 
" clip-path="url(#pc7fd2e0bff)" style="fill: none; stroke-dasharray: 3.7,1.6; stroke-dashoffset: 0; stroke: #bcbd22; stroke-opacity: 0.6"/>
   </g>
   <g id="line2d_74">
    <path d="M 103.827273 288.931218 
L 145.331405 296.690732 
L 186.835537 301.401586 
L 228.339669 303.976649 
L 269.843802 298.228154 
L 311.347934 290.045163 
L 352.852066 279.117689 
L 394.356198 259.257076 
L 435.860331 231.376737 
L 477.364463 188.938649 
L 518.868595 140.018736 
L 560.372727 82.126713 
" clip-path="url(#pc7fd2e0bff)" style="fill: none; stroke-dasharray: 3.7,1.6; stroke-dashoffset: 0; stroke: #17becf; stroke-opacity: 0.6"/>
   </g>
   <g id="line2d_75">
    <path d="M 103.827273 288.931218 
L 145.331405 297.872975 
L 186.835537 305.210169 
L 228.339669 307.8 
L 269.843802 306.574548 
L 311.347934 300.345689 
L 352.852066 282.32722 
L 394.356198 259.16382 
L 435.860331 234.099205 
L 477.364463 196.606819 
L 518.868595 145.326933 
L 560.372727 92.676925 
" clip-path="url(#pc7fd2e0bff)" style="fill: none; stroke-dasharray: 3.7,1.6; stroke-dashoffset: 0; stroke: #1f77b4; stroke-opacity: 0.6"/>
   </g>
   <g id="line2d_76">
    <path d="M 103.827273 288.931218 
L 145.331405 296.404538 
L 186.835537 295.979076 
L 228.339669 294.194089 
L 269.843802 284.847041 
L 311.347934 278.043607 
L 352.852066 264.707344 
L 394.356198 243.936051 
L 435.860331 217.096294 
L 477.364463 184.619484 
L 518.868595 143.224849 
L 560.372727 91.555531 
" clip-path="url(#pc7fd2e0bff)" style="fill: none; stroke-dasharray: 3.7,1.6; stroke-dashoffset: 0; stroke: #ff7f0e; stroke-opacity: 0.6"/>
   </g>
   <g id="line2d_77">
    <path d="M 103.827273 288.931218 
L 145.331405 290.899028 
L 186.835537 293.058884 
L 228.339669 290.772476 
L 269.843802 289.74338 
L 311.347934 284.092517 
L 352.852066 273.684924 
L 394.356198 257.900354 
L 435.860331 227.539576 
L 477.364463 193.225271 
L 518.868595 148.317135 
L 560.372727 89.194737 
" clip-path="url(#pc7fd2e0bff)" style="fill: none; stroke-dasharray: 3.7,1.6; stroke-dashoffset: 0; stroke: #2ca02c; stroke-opacity: 0.6"/>
   </g>
   <g id="line2d_78">
    <path d="M 103.827273 288.931218 
L 145.331405 291.854831 
L 186.835537 288.09732 
L 228.339669 291.430736 
L 269.843802 284.627575 
L 311.347934 269.247616 
L 352.852066 257.921686 
L 394.356198 239.289396 
L 435.860331 207.3646 
L 477.364463 166.285968 
L 518.868595 115.735446 
L 560.372727 62.986166 
" clip-path="url(#pc7fd2e0bff)" style="fill: none; stroke-dasharray: 3.7,1.6; stroke-dashoffset: 0; stroke: #d62728; stroke-opacity: 0.6"/>
   </g>
   <g id="line2d_79">
    <path d="M 103.827273 288.931218 
L 145.331405 289.802383 
L 186.835537 286.92793 
L 228.339669 281.991937 
L 269.843802 274.852125 
L 311.347934 258.725709 
L 352.852066 244.551512 
L 394.356198 229.678032 
L 435.860331 206.055053 
L 477.364463 173.508917 
L 518.868595 137.67148 
L 560.372727 90.134132 
" clip-path="url(#pc7fd2e0bff)" style="fill: none; stroke-dasharray: 3.7,1.6; stroke-dashoffset: 0; stroke: #9467bd; stroke-opacity: 0.6"/>
   </g>
   <g id="line2d_80">
    <path d="M 103.827273 288.931218 
L 145.331405 291.024554 
L 186.835537 295.96253 
L 228.339669 296.927769 
L 269.843802 296.091065 
L 311.347934 289.304176 
L 352.852066 276.469197 
L 394.356198 256.394588 
L 435.860331 228.234755 
L 477.364463 192.781964 
L 518.868595 148.995496 
L 560.372727 94.991501 
" clip-path="url(#pc7fd2e0bff)" style="fill: none; stroke-dasharray: 3.7,1.6; stroke-dashoffset: 0; stroke: #8c564b; stroke-opacity: 0.6"/>
   </g>
   <g id="line2d_81">
    <path d="M 103.827273 288.931218 
L 145.331405 296.294327 
L 186.835537 303.95313 
L 228.339669 303.601712 
L 269.843802 303.352437 
L 311.347934 292.621183 
L 352.852066 286.031198 
L 394.356198 269.124551 
L 435.860331 241.685195 
L 477.364463 207.564375 
L 518.868595 160.692672 
L 560.372727 108.247635 
" clip-path="url(#pc7fd2e0bff)" style="fill: none; stroke-dasharray: 3.7,1.6; stroke-dashoffset: 0; stroke: #e377c2; stroke-opacity: 0.6"/>
   </g>
   <g id="line2d_82">
    <path d="M 103.827273 288.931218 
L 145.331405 298.992592 
L 186.835537 303.110136 
L 228.339669 297.089804 
L 269.843802 293.575483 
L 311.347934 284.735599 
L 352.852066 274.406494 
L 394.356198 253.630688 
L 435.860331 223.214667 
L 477.364463 190.377414 
L 518.868595 145.722381 
L 560.372727 95.66617 
" clip-path="url(#pc7fd2e0bff)" style="fill: none; stroke-dasharray: 3.7,1.6; stroke-dashoffset: 0; stroke: #7f7f7f; stroke-opacity: 0.6"/>
   </g>
   <g id="line2d_83">
    <path d="M 103.827273 288.931218 
L 145.331405 293.20034 
L 186.835537 295.416122 
L 228.339669 291.030365 
L 269.843802 285.225534 
L 311.347934 277.447699 
L 352.852066 268.644051 
L 394.356198 251.063966 
L 435.860331 217.285814 
L 477.364463 182.497573 
L 518.868595 136.715676 
L 560.372727 86.827516 
" clip-path="url(#pc7fd2e0bff)" style="fill: none; stroke-dasharray: 3.7,1.6; stroke-dashoffset: 0; stroke: #bcbd22; stroke-opacity: 0.6"/>
   </g>
   <g id="line2d_84">
    <path d="M 103.827273 288.931218 
L 145.331405 295.583969 
L 186.835537 298.716721 
L 228.339669 299.091659 
L 269.843802 294.536482 
L 311.347934 285.733518 
L 352.852066 271.895151 
L 394.356198 246.955925 
L 435.860331 218.331318 
L 477.364463 177.542162 
L 518.868595 128.465957 
L 560.372727 73.830913 
" clip-path="url(#pc7fd2e0bff)" style="fill: none; stroke-dasharray: 3.7,1.6; stroke-dashoffset: 0; stroke: #17becf; stroke-opacity: 0.6"/>
   </g>
   <g id="line2d_85">
    <path d="M 103.827273 288.931218 
L 145.331405 294.222599 
L 186.835537 294.717661 
L 228.339669 297.59478 
L 269.843802 295.619863 
L 311.347934 285.657765 
L 352.852066 271.168931 
L 394.356198 256.325808 
L 435.860331 226.777668 
L 477.364463 194.79216 
L 518.868595 149.343906 
L 560.372727 97.794234 
" clip-path="url(#pc7fd2e0bff)" style="fill: none; stroke-dasharray: 3.7,1.6; stroke-dashoffset: 0; stroke: #1f77b4; stroke-opacity: 0.6"/>
   </g>
   <g id="line2d_86">
    <path d="M 103.827273 288.931218 
L 145.331405 297.359521 
L 186.835537 298.691288 
L 228.339669 301.454914 
L 269.843802 296.13236 
L 311.347934 288.701295 
L 352.852066 276.559718 
L 394.356198 253.525126 
L 435.860331 228.014059 
L 477.364463 186.661403 
L 518.868595 142.794395 
L 560.372727 87.842665 
" clip-path="url(#pc7fd2e0bff)" style="fill: none; stroke-dasharray: 3.7,1.6; stroke-dashoffset: 0; stroke: #ff7f0e; stroke-opacity: 0.6"/>
   </g>
   <g id="line2d_87">
    <path d="M 103.827273 288.931218 
L 145.331405 294.71814 
L 186.835537 297.293271 
L 228.339669 299.716965 
L 269.843802 301.372734 
L 311.347934 297.536666 
L 352.852066 285.26888 
L 394.356198 263.325599 
L 435.860331 237.624192 
L 477.364463 204.449878 
L 518.868595 159.560475 
L 560.372727 105.236922 
" clip-path="url(#pc7fd2e0bff)" style="fill: none; stroke-dasharray: 3.7,1.6; stroke-dashoffset: 0; stroke: #2ca02c; stroke-opacity: 0.6"/>
   </g>
   <g id="line2d_88">
    <path d="M 103.827273 288.931218 
L 145.331405 293.903314 
L 186.835537 301.379981 
L 228.339669 303.104666 
L 269.843802 299.007701 
L 311.347934 287.757798 
L 352.852066 276.476718 
L 394.356198 247.758171 
L 435.860331 218.362357 
L 477.364463 181.832612 
L 518.868595 135.285116 
L 560.372727 79.432004 
" clip-path="url(#pc7fd2e0bff)" style="fill: none; stroke-dasharray: 3.7,1.6; stroke-dashoffset: 0; stroke: #d62728; stroke-opacity: 0.6"/>
   </g>
   <g id="line2d_89">
    <path d="M 103.827273 288.931218 
L 145.331405 298.785706 
L 186.835537 304.252314 
L 228.339669 304.546713 
L 269.843802 298.940289 
L 311.347934 294.429142 
L 352.852066 274.495511 
L 394.356198 253.550423 
L 435.860331 226.107238 
L 477.364463 186.548867 
L 518.868595 142.641795 
L 560.372727 85.623395 
" clip-path="url(#pc7fd2e0bff)" style="fill: none; stroke-dasharray: 3.7,1.6; stroke-dashoffset: 0; stroke: #9467bd; stroke-opacity: 0.6"/>
   </g>
   <g id="line2d_90">
    <path d="M 103.827273 288.931218 
L 145.331405 291.724109 
L 186.835537 290.2046 
L 228.339669 289.253172 
L 269.843802 288.253065 
L 311.347934 281.239874 
L 352.852066 269.625972 
L 394.356198 247.700877 
L 435.860331 218.336651 
L 477.364463 179.404406 
L 518.868595 135.999439 
L 560.372727 85.583741 
" clip-path="url(#pc7fd2e0bff)" style="fill: none; stroke-dasharray: 3.7,1.6; stroke-dashoffset: 0; stroke: #8c564b; stroke-opacity: 0.6"/>
   </g>
   <g id="line2d_91">
    <path d="M 103.827273 288.931218 
L 145.331405 291.203955 
L 186.835537 296.987934 
L 228.339669 301.467904 
L 269.843802 301.699676 
L 311.347934 289.507369 
L 352.852066 277.355674 
L 394.356198 258.976214 
L 435.860331 234.992109 
L 477.364463 201.132734 
L 518.868595 157.303466 
L 560.372727 97.981566 
" clip-path="url(#pc7fd2e0bff)" style="fill: none; stroke-dasharray: 3.7,1.6; stroke-dashoffset: 0; stroke: #e377c2; stroke-opacity: 0.6"/>
   </g>
   <g id="line2d_92">
    <path d="M 103.827273 288.931218 
L 145.331405 296.003347 
L 186.835537 300.073306 
L 228.339669 302.61774 
L 269.843802 297.939909 
L 311.347934 291.64063 
L 352.852066 275.668182 
L 394.356198 254.390682 
L 435.860331 220.453913 
L 477.364463 183.757346 
L 518.868595 131.108432 
L 560.372727 77.405809 
" clip-path="url(#pc7fd2e0bff)" style="fill: none; stroke-dasharray: 3.7,1.6; stroke-dashoffset: 0; stroke: #7f7f7f; stroke-opacity: 0.6"/>
   </g>
   <g id="line2d_93">
    <path d="M 103.827273 288.931218 
L 145.331405 299.644288 
L 186.835537 301.654416 
L 228.339669 304.2638 
L 269.843802 296.492119 
L 311.347934 286.892515 
L 352.852066 266.738597 
L 394.356198 245.811969 
L 435.860331 214.624878 
L 477.364463 176.065521 
L 518.868595 131.443168 
L 560.372727 80.219755 
" clip-path="url(#pc7fd2e0bff)" style="fill: none; stroke-dasharray: 3.7,1.6; stroke-dashoffset: 0; stroke: #bcbd22; stroke-opacity: 0.6"/>
   </g>
   <g id="line2d_94">
    <path d="M 103.827273 288.931218 
L 145.331405 297.058286 
L 186.835537 296.928589 
L 228.339669 294.980473 
L 269.843802 289.240319 
L 311.347934 283.187717 
L 352.852066 268.690679 
L 394.356198 247.06012 
L 435.860331 216.857275 
L 477.364463 181.874044 
L 518.868595 138.502851 
L 560.372727 84.613443 
" clip-path="url(#pc7fd2e0bff)" style="fill: none; stroke-dasharray: 3.7,1.6; stroke-dashoffset: 0; stroke: #17becf; stroke-opacity: 0.6"/>
   </g>
   <g id="line2d_95">
    <path d="M 103.827273 288.931218 
L 145.331405 297.709983 
L 186.835537 296.358389 
L 228.339669 293.173744 
L 269.843802 289.609513 
L 311.347934 281.748678 
L 352.852066 269.483217 
L 394.356198 250.199094 
L 435.860331 218.476534 
L 477.364463 182.138633 
L 518.868595 131.740438 
L 560.372727 82.601744 
" clip-path="url(#pc7fd2e0bff)" style="fill: none; stroke-dasharray: 3.7,1.6; stroke-dashoffset: 0; stroke: #1f77b4; stroke-opacity: 0.6"/>
   </g>
   <g id="line2d_96">
    <path d="M 103.827273 288.931218 
L 145.331405 290.786902 
L 186.835537 294.328776 
L 228.339669 287.283588 
L 269.843802 279.263042 
L 311.347934 271.163325 
L 352.852066 261.750233 
L 394.356198 245.620398 
L 435.860331 223.939793 
L 477.364463 190.006032 
L 518.868595 148.670468 
L 560.372727 100.204254 
" clip-path="url(#pc7fd2e0bff)" style="fill: none; stroke-dasharray: 3.7,1.6; stroke-dashoffset: 0; stroke: #ff7f0e; stroke-opacity: 0.6"/>
   </g>
   <g id="line2d_97">
    <path d="M 103.827273 288.931218 
L 145.331405 294.102542 
L 186.835537 290.794901 
L 228.339669 290.945997 
L 269.843802 290.650505 
L 311.347934 280.186165 
L 352.852066 268.330099 
L 394.356198 251.380106 
L 435.860331 223.01831 
L 477.364463 181.902622 
L 518.868595 133.861939 
L 560.372727 80.274724 
" clip-path="url(#pc7fd2e0bff)" style="fill: none; stroke-dasharray: 3.7,1.6; stroke-dashoffset: 0; stroke: #2ca02c; stroke-opacity: 0.6"/>
   </g>
   <g id="line2d_98">
    <path d="M 103.827273 288.931218 
L 145.331405 293.07331 
L 186.835537 293.708393 
L 228.339669 295.648715 
L 269.843802 290.832641 
L 311.347934 281.055277 
L 352.852066 263.641329 
L 394.356198 245.197602 
L 435.860331 216.975007 
L 477.364463 183.88424 
L 518.868595 142.39211 
L 560.372727 96.561945 
" clip-path="url(#pc7fd2e0bff)" style="fill: none; stroke-dasharray: 3.7,1.6; stroke-dashoffset: 0; stroke: #d62728; stroke-opacity: 0.6"/>
   </g>
   <g id="line2d_99">
    <path d="M 103.827273 288.931218 
L 145.331405 294.854742 
L 186.835537 297.232833 
L 228.339669 295.571731 
L 269.843802 290.744308 
L 311.347934 287.491841 
L 352.852066 275.247573 
L 394.356198 255.575933 
L 435.860331 229.028797 
L 477.364463 196.248427 
L 518.868595 153.600172 
L 560.372727 104.909023 
" clip-path="url(#pc7fd2e0bff)" style="fill: none; stroke-dasharray: 3.7,1.6; stroke-dashoffset: 0; stroke: #9467bd; stroke-opacity: 0.6"/>
   </g>
   <g id="line2d_100">
    <path d="M 103.827273 288.931218 
L 145.331405 295.595455 
L 186.835537 301.011607 
L 228.339669 296.338015 
L 269.843802 290.530448 
L 311.347934 287.686967 
L 352.852066 278.242561 
L 394.356198 261.590795 
L 435.860331 229.424245 
L 477.364463 193.622634 
L 518.868595 151.220234 
L 560.372727 99.582093 
" clip-path="url(#pc7fd2e0bff)" style="fill: none; stroke-dasharray: 3.7,1.6; stroke-dashoffset: 0; stroke: #8c564b; stroke-opacity: 0.6"/>
   </g>
   <g id="line2d_101">
    <path d="M 103.827273 288.931218 
L 145.331405 297.171642 
L 186.835537 292.771049 
L 228.339669 295.451538 
L 269.843802 290.764545 
L 311.347934 286.061281 
L 352.852066 273.941309 
L 394.356198 254.037623 
L 435.860331 226.099991 
L 477.364463 190.255716 
L 518.868595 145.672882 
L 560.372727 91.183191 
" clip-path="url(#pc7fd2e0bff)" style="fill: none; stroke-dasharray: 3.7,1.6; stroke-dashoffset: 0; stroke: #e377c2; stroke-opacity: 0.6"/>
   </g>
   <g id="line2d_102">
    <path d="M 103.827273 288.931218 
L 145.331405 294.334861 
L 186.835537 292.885773 
L 228.339669 290.536738 
L 269.843802 282.129222 
L 311.347934 273.896322 
L 352.852066 260.31557 
L 394.356198 243.843205 
L 435.860331 218.750832 
L 477.364463 187.817939 
L 518.868595 147.180836 
L 560.372727 97.812284 
" clip-path="url(#pc7fd2e0bff)" style="fill: none; stroke-dasharray: 3.7,1.6; stroke-dashoffset: 0; stroke: #7f7f7f; stroke-opacity: 0.6"/>
   </g>
   <g id="line2d_103">
    <path d="M 103.827273 288.931218 
L 145.331405 293.578149 
L 186.835537 292.931854 
L 228.339669 297.876462 
L 269.843802 290.606338 
L 311.347934 283.269486 
L 352.852066 270.100865 
L 394.356198 252.515994 
L 435.860331 223.759297 
L 477.364463 188.152949 
L 518.868595 139.982637 
L 560.372727 92.432299 
" clip-path="url(#pc7fd2e0bff)" style="fill: none; stroke-dasharray: 3.7,1.6; stroke-dashoffset: 0; stroke: #bcbd22; stroke-opacity: 0.6"/>
   </g>
   <g id="line2d_104">
    <path d="M 103.827273 288.931218 
L 145.331405 290.494281 
L 186.835537 293.357111 
L 228.339669 293.759396 
L 269.843802 291.498832 
L 311.347934 285.548921 
L 352.852066 272.354456 
L 394.356198 250.051416 
L 435.860331 217.709157 
L 477.364463 181.11405 
L 518.868595 135.809782 
L 560.372727 81.363301 
" clip-path="url(#pc7fd2e0bff)" style="fill: none; stroke-dasharray: 3.7,1.6; stroke-dashoffset: 0; stroke: #17becf; stroke-opacity: 0.6"/>
   </g>
   <g id="line2d_105">
    <path d="M 103.827273 288.931218 
L 145.331405 295.707718 
L 186.835537 294.0326 
L 228.339669 292.424279 
L 269.843802 288.884798 
L 311.347934 284.805336 
L 352.852066 265.677505 
L 394.356198 249.319317 
L 435.860331 222.59442 
L 477.364463 183.333866 
L 518.868595 139.30414 
L 560.372727 91.152425 
" clip-path="url(#pc7fd2e0bff)" style="fill: none; stroke-dasharray: 3.7,1.6; stroke-dashoffset: 0; stroke: #1f77b4; stroke-opacity: 0.6"/>
   </g>
   <g id="line2d_106">
    <path d="M 103.827273 288.931218 
L 145.331405 291.148576 
L 186.835537 290.290198 
L 228.339669 292.728933 
L 269.843802 283.831072 
L 311.347934 274.652213 
L 352.852066 258.751963 
L 394.356198 236.249695 
L 435.860331 213.569939 
L 477.364463 177.797863 
L 518.868595 138.382931 
L 560.372727 91.253748 
" clip-path="url(#pc7fd2e0bff)" style="fill: none; stroke-dasharray: 3.7,1.6; stroke-dashoffset: 0; stroke: #ff7f0e; stroke-opacity: 0.6"/>
   </g>
   <g id="line2d_107">
    <path d="M 103.827273 288.931218 
L 145.331405 290.222991 
L 186.835537 290.527303 
L 228.339669 285.403294 
L 269.843802 283.983126 
L 311.347934 276.751152 
L 352.852066 268.108719 
L 394.356198 252.253182 
L 435.860331 227.855442 
L 477.364463 194.368953 
L 518.868595 154.783919 
L 560.372727 103.908505 
" clip-path="url(#pc7fd2e0bff)" style="fill: none; stroke-dasharray: 3.7,1.6; stroke-dashoffset: 0; stroke: #2ca02c; stroke-opacity: 0.6"/>
   </g>
   <g id="line2d_108">
    <path d="M 103.827273 288.931218 
L 145.331405 298.3625 
L 186.835537 299.963095 
L 228.339669 303.337806 
L 269.843802 301.512618 
L 311.347934 288.046043 
L 352.852066 279.132594 
L 394.356198 262.89665 
L 435.860331 240.011103 
L 477.364463 207.269567 
L 518.868595 166.096585 
L 560.372727 110.28846 
" clip-path="url(#pc7fd2e0bff)" style="fill: none; stroke-dasharray: 3.7,1.6; stroke-dashoffset: 0; stroke: #d62728; stroke-opacity: 0.6"/>
   </g>
   <g id="line2d_109">
    <path d="M 103.827273 288.931218 
L 145.331405 291.230072 
L 186.835537 291.848199 
L 228.339669 294.782065 
L 269.843802 293.64727 
L 311.347934 286.6684 
L 352.852066 271.665977 
L 394.356198 247.599554 
L 435.860331 217.548625 
L 477.364463 173.792103 
L 518.868595 127.992704 
L 560.372727 74.136524 
" clip-path="url(#pc7fd2e0bff)" style="fill: none; stroke-dasharray: 3.7,1.6; stroke-dashoffset: 0; stroke: #9467bd; stroke-opacity: 0.6"/>
   </g>
   <g id="line2d_110">
    <path d="M 103.827273 288.931218 
L 145.331405 294.422237 
L 186.835537 300.392591 
L 228.339669 303.666936 
L 269.843802 303.597746 
L 311.347934 297.717298 
L 352.852066 285.704803 
L 394.356198 264.608892 
L 435.860331 230.629734 
L 477.364463 191.525746 
L 518.868595 145.200176 
L 560.372727 88.432692 
" clip-path="url(#pc7fd2e0bff)" style="fill: none; stroke-dasharray: 3.7,1.6; stroke-dashoffset: 0; stroke: #8c564b; stroke-opacity: 0.6"/>
   </g>
   <g id="line2d_111">
    <path d="M 103.827273 288.931218 
L 145.331405 298.036241 
L 186.835537 302.950699 
L 228.339669 305.589209 
L 269.843802 302.863186 
L 311.347934 297.874548 
L 352.852066 287.302868 
L 394.356198 267.366365 
L 435.860331 239.333699 
L 477.364463 201.013634 
L 518.868595 153.088632 
L 560.372727 94.658542 
" clip-path="url(#pc7fd2e0bff)" style="fill: none; stroke-dasharray: 3.7,1.6; stroke-dashoffset: 0; stroke: #e377c2; stroke-opacity: 0.6"/>
   </g>
   <g id="line2d_112">
    <path d="M 103.827273 288.931218 
L 145.331405 298.562138 
L 186.835537 304.582812 
L 228.339669 302.018824 
L 269.843802 296.72854 
L 311.347934 288.029771 
L 352.852066 273.063993 
L 394.356198 246.616676 
L 435.860331 222.360871 
L 477.364463 185.46699 
L 518.868595 141.698161 
L 560.372727 90.217816 
" clip-path="url(#pc7fd2e0bff)" style="fill: none; stroke-dasharray: 3.7,1.6; stroke-dashoffset: 0; stroke: #7f7f7f; stroke-opacity: 0.6"/>
   </g>
   <g id="line2d_113">
    <path d="M 103.827273 288.931218 
L 145.331405 295.420703 
L 186.835537 292.598621 
L 228.339669 294.302386 
L 269.843802 287.95894 
L 311.347934 281.325609 
L 352.852066 267.563815 
L 394.356198 248.447881 
L 435.860331 223.572786 
L 477.364463 187.883163 
L 518.868595 141.983261 
L 560.372727 87.604876 
" clip-path="url(#pc7fd2e0bff)" style="fill: none; stroke-dasharray: 3.7,1.6; stroke-dashoffset: 0; stroke: #bcbd22; stroke-opacity: 0.6"/>
   </g>
   <g id="line2d_114">
    <path d="M 103.827273 288.931218 
L 145.331405 297.690702 
L 186.835537 300.803354 
L 228.339669 297.715247 
L 269.843802 293.022785 
L 311.347934 285.431462 
L 352.852066 269.700768 
L 394.356198 244.844132 
L 435.860331 212.681001 
L 477.364463 169.098 
L 518.868595 117.983978 
L 560.372727 55.8 
" clip-path="url(#pc7fd2e0bff)" style="fill: none; stroke-dasharray: 3.7,1.6; stroke-dashoffset: 0; stroke: #17becf; stroke-opacity: 0.6"/>
   </g>
   <g id="line2d_115">
    <path d="M 103.827273 288.931218 
L 145.331405 294.736479 
L 186.835537 296.99529 
L 228.339669 296.844913 
L 269.843802 293.098032 
L 311.347934 284.789667 
L 352.852066 271.023697 
L 394.356198 251.361868 
L 435.860331 223.225707 
L 477.364463 186.732894 
L 518.868595 141.337323 
L 560.372727 88.340977 
" clip-path="url(#pc7fd2e0bff)" style="fill: none; stroke: #000000; stroke-width: 2.5; stroke-linecap: square"/>
   </g>
   <g id="patch_3">
    <path d="M 81 320.4 
L 81 43.2 
" style="fill: none; stroke: #000000; stroke-width: 0.8; stroke-linejoin: miter; stroke-linecap: square"/>
   </g>
   <g id="patch_4">
    <path d="M 583.2 320.4 
L 583.2 43.2 
" style="fill: none; stroke: #000000; stroke-width: 0.8; stroke-linejoin: miter; stroke-linecap: square"/>
   </g>
   <g id="patch_5">
    <path d="M 81 320.4 
L 583.2 320.4 
" style="fill: none; stroke: #000000; stroke-width: 0.8; stroke-linejoin: miter; stroke-linecap: square"/>
   </g>
   <g id="patch_6">
    <path d="M 81 43.2 
L 583.2 43.2 
" style="fill: none; stroke: #000000; stroke-width: 0.8; stroke-linejoin: miter; stroke-linecap: square"/>
   </g>
   <g id="legend_1">
    <g id="patch_7">
     <path d="M 88 65.878125 
L 161.065625 65.878125 
Q 163.065625 65.878125 163.065625 63.878125 
L 163.065625 50.2 
Q 163.065625 48.2 161.065625 48.2 
L 88 48.2 
Q 86 48.2 86 50.2 
L 86 63.878125 
Q 86 65.878125 88 65.878125 
z
" style="fill: #ffffff; opacity: 0.8; stroke: #cccccc; stroke-linejoin: miter"/>
    </g>
    <g id="line2d_116">
     <path d="M 90 56.298437 
L 100 56.298437 
L 110 56.298437 
" style="fill: none; stroke: #000000; stroke-width: 2.5; stroke-linecap: square"/>
    </g>
    <g id="text_17">
     <!-- Average -->
     <g transform="translate(118 59.798437) scale(0.1 -0.1)">
      <defs>
       <path id="DejaVuSans-41" d="M 2188 4044 
L 1331 1722 
L 3047 1722 
L 2188 4044 
z
M 1831 4666 
L 2547 4666 
L 4325 0 
L 3669 0 
L 3244 1197 
L 1141 1197 
L 716 0 
L 50 0 
L 1831 4666 
z
" transform="scale(0.015625)"/>
       <path id="DejaVuSans-67" d="M 2906 1791 
Q 2906 2416 2648 2759 
Q 2391 3103 1925 3103 
Q 1463 3103 1205 2759 
Q 947 2416 947 1791 
Q 947 1169 1205 825 
Q 1463 481 1925 481 
Q 2391 481 2648 825 
Q 2906 1169 2906 1791 
z
M 3481 434 
Q 3481 -459 3084 -895 
Q 2688 -1331 1869 -1331 
Q 1566 -1331 1297 -1286 
Q 1028 -1241 775 -1147 
L 775 -588 
Q 1028 -725 1275 -790 
Q 1522 -856 1778 -856 
Q 2344 -856 2625 -561 
Q 2906 -266 2906 331 
L 2906 616 
Q 2728 306 2450 153 
Q 2172 0 1784 0 
Q 1141 0 747 490 
Q 353 981 353 1791 
Q 353 2603 747 3093 
Q 1141 3584 1784 3584 
Q 2172 3584 2450 3431 
Q 2728 3278 2906 2969 
L 2906 3500 
L 3481 3500 
L 3481 434 
z
" transform="scale(0.015625)"/>
      </defs>
      <use xlink:href="#DejaVuSans-41"/>
      <use xlink:href="#DejaVuSans-76" x="62.533203"/>
      <use xlink:href="#DejaVuSans-65" x="121.712891"/>
      <use xlink:href="#DejaVuSans-72" x="183.236328"/>
      <use xlink:href="#DejaVuSans-61" x="224.349609"/>
      <use xlink:href="#DejaVuSans-67" x="285.628906"/>
      <use xlink:href="#DejaVuSans-65" x="349.105469"/>
     </g>
    </g>
   </g>
  </g>
 </g>
 <defs>
  <clipPath id="pc7fd2e0bff">
   <rect x="81" y="43.2" width="502.2" height="277.2"/>
  </clipPath>
 </defs>
</svg>
