<?xml version="1.0" encoding="utf-8" standalone="no"?>
<!DOCTYPE svg PUBLIC "-//W3C//DTD SVG 1.1//EN"
  "http://www.w3.org/Graphics/SVG/1.1/DTD/svg11.dtd">
<svg xmlns:xlink="http://www.w3.org/1999/xlink" width="460.8pt" height="345.6pt" viewBox="0 0 460.8 345.6" xmlns="http://www.w3.org/2000/svg" version="1.1">
 <metadata>
  <rdf:RDF xmlns:dc="http://purl.org/dc/elements/1.1/" xmlns:cc="http://creativecommons.org/ns#" xmlns:rdf="http://www.w3.org/1999/02/22-rdf-syntax-ns#">
   <cc:Work>
    <dc:type rdf:resource="http://purl.org/dc/dcmitype/StillImage"/>
    <dc:date>2025-08-28T14:19:42.772671</dc:date>
    <dc:format>image/svg+xml</dc:format>
    <dc:creator>
     <cc:Agent>
      <dc:title>Matplotlib v3.8.0, https://matplotlib.org/</dc:title>
     </cc:Agent>
    </dc:creator>
   </cc:Work>
  </rdf:RDF>
 </metadata>
 <defs>
  <style type="text/css">*{stroke-linejoin: round; stroke-linecap: butt}</style>
 </defs>
 <g id="figure_1">
  <g id="patch_1">
   <path d="M 0 345.6 
L 460.8 345.6 
L 460.8 0 
L 0 0 
z
" style="fill: #ffffff"/>
  </g>
  <g id="axes_1">
   <g id="patch_2">
    <path d="M 57.6 307.584 
L 414.72 307.584 
L 414.72 41.472 
L 57.6 41.472 
z
" style="fill: #ffffff"/>
   </g>
   <g id="matplotlib.axis_1">
    <g id="xtick_1">
     <g id="line2d_1">
      <defs>
       <path id="mf8deddc1cf" d="M 0 0 
L 0 3.5 
" style="stroke: #000000; stroke-width: 0.8"/>
      </defs>
      <g>
       <use xlink:href="#mf8deddc1cf" x="61.621347" y="307.584" style="stroke: #000000; stroke-width: 0.8"/>
      </g>
     </g>
     <g id="text_1">
      <!-- 0 -->
      <g transform="translate(58.440097 322.182437) scale(0.1 -0.1)">
       <defs>
        <path id="DejaVuSans-30" d="M 2034 4250 
Q 1547 4250 1301 3770 
Q 1056 3291 1056 2328 
Q 1056 1369 1301 889 
Q 1547 409 2034 409 
Q 2525 409 2770 889 
Q 3016 1369 3016 2328 
Q 3016 3291 2770 3770 
Q 2525 4250 2034 4250 
z
M 2034 4750 
Q 2819 4750 3233 4129 
Q 3647 3509 3647 2328 
Q 3647 1150 3233 529 
Q 2819 -91 2034 -91 
Q 1250 -91 836 529 
Q 422 1150 422 2328 
Q 422 3509 836 4129 
Q 1250 4750 2034 4750 
z
" transform="scale(0.015625)"/>
       </defs>
       <use xlink:href="#DejaVuSans-30"/>
      </g>
     </g>
    </g>
    <g id="xtick_2">
     <g id="line2d_2">
      <g>
       <use xlink:href="#mf8deddc1cf" x="130.699345" y="307.584" style="stroke: #000000; stroke-width: 0.8"/>
      </g>
     </g>
     <g id="text_2">
      <!-- 20 -->
      <g transform="translate(124.336845 322.182437) scale(0.1 -0.1)">
       <defs>
        <path id="DejaVuSans-32" d="M 1228 531 
L 3431 531 
L 3431 0 
L 469 0 
L 469 531 
Q 828 903 1448 1529 
Q 2069 2156 2228 2338 
Q 2531 2678 2651 2914 
Q 2772 3150 2772 3378 
Q 2772 3750 2511 3984 
Q 2250 4219 1831 4219 
Q 1534 4219 1204 4116 
Q 875 4013 500 3803 
L 500 4441 
Q 881 4594 1212 4672 
Q 1544 4750 1819 4750 
Q 2544 4750 2975 4387 
Q 3406 4025 3406 3419 
Q 3406 3131 3298 2873 
Q 3191 2616 2906 2266 
Q 2828 2175 2409 1742 
Q 1991 1309 1228 531 
z
" transform="scale(0.015625)"/>
       </defs>
       <use xlink:href="#DejaVuSans-32"/>
       <use xlink:href="#DejaVuSans-30" x="63.623047"/>
      </g>
     </g>
    </g>
    <g id="xtick_3">
     <g id="line2d_3">
      <g>
       <use xlink:href="#mf8deddc1cf" x="199.777344" y="307.584" style="stroke: #000000; stroke-width: 0.8"/>
      </g>
     </g>
     <g id="text_3">
      <!-- 40 -->
      <g transform="translate(193.414844 322.182437) scale(0.1 -0.1)">
       <defs>
        <path id="DejaVuSans-34" d="M 2419 4116 
L 825 1625 
L 2419 1625 
L 2419 4116 
z
M 2253 4666 
L 3047 4666 
L 3047 1625 
L 3713 1625 
L 3713 1100 
L 3047 1100 
L 3047 0 
L 2419 0 
L 2419 1100 
L 313 1100 
L 313 1709 
L 2253 4666 
z
" transform="scale(0.015625)"/>
       </defs>
       <use xlink:href="#DejaVuSans-34"/>
       <use xlink:href="#DejaVuSans-30" x="63.623047"/>
      </g>
     </g>
    </g>
    <g id="xtick_4">
     <g id="line2d_4">
      <g>
       <use xlink:href="#mf8deddc1cf" x="268.855342" y="307.584" style="stroke: #000000; stroke-width: 0.8"/>
      </g>
     </g>
     <g id="text_4">
      <!-- 60 -->
      <g transform="translate(262.492842 322.182437) scale(0.1 -0.1)">
       <defs>
        <path id="DejaVuSans-36" d="M 2113 2584 
Q 1688 2584 1439 2293 
Q 1191 2003 1191 1497 
Q 1191 994 1439 701 
Q 1688 409 2113 409 
Q 2538 409 2786 701 
Q 3034 994 3034 1497 
Q 3034 2003 2786 2293 
Q 2538 2584 2113 2584 
z
M 3366 4563 
L 3366 3988 
Q 3128 4100 2886 4159 
Q 2644 4219 2406 4219 
Q 1781 4219 1451 3797 
Q 1122 3375 1075 2522 
Q 1259 2794 1537 2939 
Q 1816 3084 2150 3084 
Q 2853 3084 3261 2657 
Q 3669 2231 3669 1497 
Q 3669 778 3244 343 
Q 2819 -91 2113 -91 
Q 1303 -91 875 529 
Q 447 1150 447 2328 
Q 447 3434 972 4092 
Q 1497 4750 2381 4750 
Q 2619 4750 2861 4703 
Q 3103 4656 3366 4563 
z
" transform="scale(0.015625)"/>
       </defs>
       <use xlink:href="#DejaVuSans-36"/>
       <use xlink:href="#DejaVuSans-30" x="63.623047"/>
      </g>
     </g>
    </g>
    <g id="xtick_5">
     <g id="line2d_5">
      <g>
       <use xlink:href="#mf8deddc1cf" x="337.93334" y="307.584" style="stroke: #000000; stroke-width: 0.8"/>
      </g>
     </g>
     <g id="text_5">
      <!-- 80 -->
      <g transform="translate(331.57084 322.182437) scale(0.1 -0.1)">
       <defs>
        <path id="DejaVuSans-38" d="M 2034 2216 
Q 1584 2216 1326 1975 
Q 1069 1734 1069 1313 
Q 1069 891 1326 650 
Q 1584 409 2034 409 
Q 2484 409 2743 651 
Q 3003 894 3003 1313 
Q 3003 1734 2745 1975 
Q 2488 2216 2034 2216 
z
M 1403 2484 
Q 997 2584 770 2862 
Q 544 3141 544 3541 
Q 544 4100 942 4425 
Q 1341 4750 2034 4750 
Q 2731 4750 3128 4425 
Q 3525 4100 3525 3541 
Q 3525 3141 3298 2862 
Q 3072 2584 2669 2484 
Q 3125 2378 3379 2068 
Q 3634 1759 3634 1313 
Q 3634 634 3220 271 
Q 2806 -91 2034 -91 
Q 1263 -91 848 271 
Q 434 634 434 1313 
Q 434 1759 690 2068 
Q 947 2378 1403 2484 
z
M 1172 3481 
Q 1172 3119 1398 2916 
Q 1625 2713 2034 2713 
Q 2441 2713 2670 2916 
Q 2900 3119 2900 3481 
Q 2900 3844 2670 4047 
Q 2441 4250 2034 4250 
Q 1625 4250 1398 4047 
Q 1172 3844 1172 3481 
z
" transform="scale(0.015625)"/>
       </defs>
       <use xlink:href="#DejaVuSans-38"/>
       <use xlink:href="#DejaVuSans-30" x="63.623047"/>
      </g>
     </g>
    </g>
    <g id="xtick_6">
     <g id="line2d_6">
      <g>
       <use xlink:href="#mf8deddc1cf" x="407.011339" y="307.584" style="stroke: #000000; stroke-width: 0.8"/>
      </g>
     </g>
     <g id="text_6">
      <!-- 100 -->
      <g transform="translate(397.467589 322.182437) scale(0.1 -0.1)">
       <defs>
        <path id="DejaVuSans-31" d="M 794 531 
L 1825 531 
L 1825 4091 
L 703 3866 
L 703 4441 
L 1819 4666 
L 2450 4666 
L 2450 531 
L 3481 531 
L 3481 0 
L 794 0 
L 794 531 
z
" transform="scale(0.015625)"/>
       </defs>
       <use xlink:href="#DejaVuSans-31"/>
       <use xlink:href="#DejaVuSans-30" x="63.623047"/>
       <use xlink:href="#DejaVuSans-30" x="127.246094"/>
      </g>
     </g>
    </g>
    <g id="text_7">
     <!-- Bin Diameter (cm) -->
     <g transform="translate(167.115469 339.659781) scale(0.15 -0.15)">
      <defs>
       <path id="DejaVuSans-42" d="M 1259 2228 
L 1259 519 
L 2272 519 
Q 2781 519 3026 730 
Q 3272 941 3272 1375 
Q 3272 1813 3026 2020 
Q 2781 2228 2272 2228 
L 1259 2228 
z
M 1259 4147 
L 1259 2741 
L 2194 2741 
Q 2656 2741 2882 2914 
Q 3109 3088 3109 3444 
Q 3109 3797 2882 3972 
Q 2656 4147 2194 4147 
L 1259 4147 
z
M 628 4666 
L 2241 4666 
Q 2963 4666 3353 4366 
Q 3744 4066 3744 3513 
Q 3744 3084 3544 2831 
Q 3344 2578 2956 2516 
Q 3422 2416 3680 2098 
Q 3938 1781 3938 1306 
Q 3938 681 3513 340 
Q 3088 0 2303 0 
L 628 0 
L 628 4666 
z
" transform="scale(0.015625)"/>
       <path id="DejaVuSans-69" d="M 603 3500 
L 1178 3500 
L 1178 0 
L 603 0 
L 603 3500 
z
M 603 4863 
L 1178 4863 
L 1178 4134 
L 603 4134 
L 603 4863 
z
" transform="scale(0.015625)"/>
       <path id="DejaVuSans-6e" d="M 3513 2113 
L 3513 0 
L 2938 0 
L 2938 2094 
Q 2938 2591 2744 2837 
Q 2550 3084 2163 3084 
Q 1697 3084 1428 2787 
Q 1159 2491 1159 1978 
L 1159 0 
L 581 0 
L 581 3500 
L 1159 3500 
L 1159 2956 
Q 1366 3272 1645 3428 
Q 1925 3584 2291 3584 
Q 2894 3584 3203 3211 
Q 3513 2838 3513 2113 
z
" transform="scale(0.015625)"/>
       <path id="DejaVuSans-20" transform="scale(0.015625)"/>
       <path id="DejaVuSans-44" d="M 1259 4147 
L 1259 519 
L 2022 519 
Q 2988 519 3436 956 
Q 3884 1394 3884 2338 
Q 3884 3275 3436 3711 
Q 2988 4147 2022 4147 
L 1259 4147 
z
M 628 4666 
L 1925 4666 
Q 3281 4666 3915 4102 
Q 4550 3538 4550 2338 
Q 4550 1131 3912 565 
Q 3275 0 1925 0 
L 628 0 
L 628 4666 
z
" transform="scale(0.015625)"/>
       <path id="DejaVuSans-61" d="M 2194 1759 
Q 1497 1759 1228 1600 
Q 959 1441 959 1056 
Q 959 750 1161 570 
Q 1363 391 1709 391 
Q 2188 391 2477 730 
Q 2766 1069 2766 1631 
L 2766 1759 
L 2194 1759 
z
M 3341 1997 
L 3341 0 
L 2766 0 
L 2766 531 
Q 2569 213 2275 61 
Q 1981 -91 1556 -91 
Q 1019 -91 701 211 
Q 384 513 384 1019 
Q 384 1609 779 1909 
Q 1175 2209 1959 2209 
L 2766 2209 
L 2766 2266 
Q 2766 2663 2505 2880 
Q 2244 3097 1772 3097 
Q 1472 3097 1187 3025 
Q 903 2953 641 2809 
L 641 3341 
Q 956 3463 1253 3523 
Q 1550 3584 1831 3584 
Q 2591 3584 2966 3190 
Q 3341 2797 3341 1997 
z
" transform="scale(0.015625)"/>
       <path id="DejaVuSans-6d" d="M 3328 2828 
Q 3544 3216 3844 3400 
Q 4144 3584 4550 3584 
Q 5097 3584 5394 3201 
Q 5691 2819 5691 2113 
L 5691 0 
L 5113 0 
L 5113 2094 
Q 5113 2597 4934 2840 
Q 4756 3084 4391 3084 
Q 3944 3084 3684 2787 
Q 3425 2491 3425 1978 
L 3425 0 
L 2847 0 
L 2847 2094 
Q 2847 2600 2669 2842 
Q 2491 3084 2119 3084 
Q 1678 3084 1418 2786 
Q 1159 2488 1159 1978 
L 1159 0 
L 581 0 
L 581 3500 
L 1159 3500 
L 1159 2956 
Q 1356 3278 1631 3431 
Q 1906 3584 2284 3584 
Q 2666 3584 2933 3390 
Q 3200 3197 3328 2828 
z
" transform="scale(0.015625)"/>
       <path id="DejaVuSans-65" d="M 3597 1894 
L 3597 1613 
L 953 1613 
Q 991 1019 1311 708 
Q 1631 397 2203 397 
Q 2534 397 2845 478 
Q 3156 559 3463 722 
L 3463 178 
Q 3153 47 2828 -22 
Q 2503 -91 2169 -91 
Q 1331 -91 842 396 
Q 353 884 353 1716 
Q 353 2575 817 3079 
Q 1281 3584 2069 3584 
Q 2775 3584 3186 3129 
Q 3597 2675 3597 1894 
z
M 3022 2063 
Q 3016 2534 2758 2815 
Q 2500 3097 2075 3097 
Q 1594 3097 1305 2825 
Q 1016 2553 972 2059 
L 3022 2063 
z
" transform="scale(0.015625)"/>
       <path id="DejaVuSans-74" d="M 1172 4494 
L 1172 3500 
L 2356 3500 
L 2356 3053 
L 1172 3053 
L 1172 1153 
Q 1172 725 1289 603 
Q 1406 481 1766 481 
L 2356 481 
L 2356 0 
L 1766 0 
Q 1100 0 847 248 
Q 594 497 594 1153 
L 594 3053 
L 172 3053 
L 172 3500 
L 594 3500 
L 594 4494 
L 1172 4494 
z
" transform="scale(0.015625)"/>
       <path id="DejaVuSans-72" d="M 2631 2963 
Q 2534 3019 2420 3045 
Q 2306 3072 2169 3072 
Q 1681 3072 1420 2755 
Q 1159 2438 1159 1844 
L 1159 0 
L 581 0 
L 581 3500 
L 1159 3500 
L 1159 2956 
Q 1341 3275 1631 3429 
Q 1922 3584 2338 3584 
Q 2397 3584 2469 3576 
Q 2541 3569 2628 3553 
L 2631 2963 
z
" transform="scale(0.015625)"/>
       <path id="DejaVuSans-28" d="M 1984 4856 
Q 1566 4138 1362 3434 
Q 1159 2731 1159 2009 
Q 1159 1288 1364 580 
Q 1569 -128 1984 -844 
L 1484 -844 
Q 1016 -109 783 600 
Q 550 1309 550 2009 
Q 550 2706 781 3412 
Q 1013 4119 1484 4856 
L 1984 4856 
z
" transform="scale(0.015625)"/>
       <path id="DejaVuSans-63" d="M 3122 3366 
L 3122 2828 
Q 2878 2963 2633 3030 
Q 2388 3097 2138 3097 
Q 1578 3097 1268 2742 
Q 959 2388 959 1747 
Q 959 1106 1268 751 
Q 1578 397 2138 397 
Q 2388 397 2633 464 
Q 2878 531 3122 666 
L 3122 134 
Q 2881 22 2623 -34 
Q 2366 -91 2075 -91 
Q 1284 -91 818 406 
Q 353 903 353 1747 
Q 353 2603 823 3093 
Q 1294 3584 2113 3584 
Q 2378 3584 2631 3529 
Q 2884 3475 3122 3366 
z
" transform="scale(0.015625)"/>
       <path id="DejaVuSans-29" d="M 513 4856 
L 1013 4856 
Q 1481 4119 1714 3412 
Q 1947 2706 1947 2009 
Q 1947 1309 1714 600 
Q 1481 -109 1013 -844 
L 513 -844 
Q 928 -128 1133 580 
Q 1338 1288 1338 2009 
Q 1338 2731 1133 3434 
Q 928 4138 513 4856 
z
" transform="scale(0.015625)"/>
      </defs>
      <use xlink:href="#DejaVuSans-42"/>
      <use xlink:href="#DejaVuSans-69" x="68.603516"/>
      <use xlink:href="#DejaVuSans-6e" x="96.386719"/>
      <use xlink:href="#DejaVuSans-20" x="159.765625"/>
      <use xlink:href="#DejaVuSans-44" x="191.552734"/>
      <use xlink:href="#DejaVuSans-69" x="268.554688"/>
      <use xlink:href="#DejaVuSans-61" x="296.337891"/>
      <use xlink:href="#DejaVuSans-6d" x="357.617188"/>
      <use xlink:href="#DejaVuSans-65" x="455.029297"/>
      <use xlink:href="#DejaVuSans-74" x="516.552734"/>
      <use xlink:href="#DejaVuSans-65" x="555.761719"/>
      <use xlink:href="#DejaVuSans-72" x="617.285156"/>
      <use xlink:href="#DejaVuSans-20" x="658.398438"/>
      <use xlink:href="#DejaVuSans-28" x="690.185547"/>
      <use xlink:href="#DejaVuSans-63" x="729.199219"/>
      <use xlink:href="#DejaVuSans-6d" x="784.179688"/>
      <use xlink:href="#DejaVuSans-29" x="881.591797"/>
     </g>
    </g>
   </g>
   <g id="matplotlib.axis_2">
    <g id="ytick_1">
     <g id="line2d_7">
      <defs>
       <path id="me1316b06ac" d="M 0 0 
L -3.5 0 
" style="stroke: #000000; stroke-width: 0.8"/>
      </defs>
      <g>
       <use xlink:href="#me1316b06ac" x="57.6" y="295.488" style="stroke: #000000; stroke-width: 0.8"/>
      </g>
     </g>
     <g id="text_8">
      <!-- 0 -->
      <g transform="translate(44.2375 299.287219) scale(0.1 -0.1)">
       <use xlink:href="#DejaVuSans-30"/>
      </g>
     </g>
    </g>
    <g id="ytick_2">
     <g id="line2d_8">
      <g>
       <use xlink:href="#me1316b06ac" x="57.6" y="253.544564" style="stroke: #000000; stroke-width: 0.8"/>
      </g>
     </g>
     <g id="text_9">
      <!-- 5 -->
      <g transform="translate(44.2375 257.343782) scale(0.1 -0.1)">
       <defs>
        <path id="DejaVuSans-35" d="M 691 4666 
L 3169 4666 
L 3169 4134 
L 1269 4134 
L 1269 2991 
Q 1406 3038 1543 3061 
Q 1681 3084 1819 3084 
Q 2600 3084 3056 2656 
Q 3513 2228 3513 1497 
Q 3513 744 3044 326 
Q 2575 -91 1722 -91 
Q 1428 -91 1123 -41 
Q 819 9 494 109 
L 494 744 
Q 775 591 1075 516 
Q 1375 441 1709 441 
Q 2250 441 2565 725 
Q 2881 1009 2881 1497 
Q 2881 1984 2565 2268 
Q 2250 2553 1709 2553 
Q 1456 2553 1204 2497 
Q 953 2441 691 2322 
L 691 4666 
z
" transform="scale(0.015625)"/>
       </defs>
       <use xlink:href="#DejaVuSans-35"/>
      </g>
     </g>
    </g>
    <g id="ytick_3">
     <g id="line2d_9">
      <g>
       <use xlink:href="#me1316b06ac" x="57.6" y="211.601127" style="stroke: #000000; stroke-width: 0.8"/>
      </g>
     </g>
     <g id="text_10">
      <!-- 10 -->
      <g transform="translate(37.875 215.400346) scale(0.1 -0.1)">
       <use xlink:href="#DejaVuSans-31"/>
       <use xlink:href="#DejaVuSans-30" x="63.623047"/>
      </g>
     </g>
    </g>
    <g id="ytick_4">
     <g id="line2d_10">
      <g>
       <use xlink:href="#me1316b06ac" x="57.6" y="169.657691" style="stroke: #000000; stroke-width: 0.8"/>
      </g>
     </g>
     <g id="text_11">
      <!-- 15 -->
      <g transform="translate(37.875 173.45691) scale(0.1 -0.1)">
       <use xlink:href="#DejaVuSans-31"/>
       <use xlink:href="#DejaVuSans-35" x="63.623047"/>
      </g>
     </g>
    </g>
    <g id="ytick_5">
     <g id="line2d_11">
      <g>
       <use xlink:href="#me1316b06ac" x="57.6" y="127.714255" style="stroke: #000000; stroke-width: 0.8"/>
      </g>
     </g>
     <g id="text_12">
      <!-- 20 -->
      <g transform="translate(37.875 131.513473) scale(0.1 -0.1)">
       <use xlink:href="#DejaVuSans-32"/>
       <use xlink:href="#DejaVuSans-30" x="63.623047"/>
      </g>
     </g>
    </g>
    <g id="ytick_6">
     <g id="line2d_12">
      <g>
       <use xlink:href="#me1316b06ac" x="57.6" y="85.770818" style="stroke: #000000; stroke-width: 0.8"/>
      </g>
     </g>
     <g id="text_13">
      <!-- 25 -->
      <g transform="translate(37.875 89.570037) scale(0.1 -0.1)">
       <use xlink:href="#DejaVuSans-32"/>
       <use xlink:href="#DejaVuSans-35" x="63.623047"/>
      </g>
     </g>
    </g>
    <g id="ytick_7">
     <g id="line2d_13">
      <g>
       <use xlink:href="#me1316b06ac" x="57.6" y="43.827382" style="stroke: #000000; stroke-width: 0.8"/>
      </g>
     </g>
     <g id="text_14">
      <!-- 30 -->
      <g transform="translate(37.875 47.626601) scale(0.1 -0.1)">
       <defs>
        <path id="DejaVuSans-33" d="M 2597 2516 
Q 3050 2419 3304 2112 
Q 3559 1806 3559 1356 
Q 3559 666 3084 287 
Q 2609 -91 1734 -91 
Q 1441 -91 1130 -33 
Q 819 25 488 141 
L 488 750 
Q 750 597 1062 519 
Q 1375 441 1716 441 
Q 2309 441 2620 675 
Q 2931 909 2931 1356 
Q 2931 1769 2642 2001 
Q 2353 2234 1838 2234 
L 1294 2234 
L 1294 2753 
L 1863 2753 
Q 2328 2753 2575 2939 
Q 2822 3125 2822 3475 
Q 2822 3834 2567 4026 
Q 2313 4219 1838 4219 
Q 1578 4219 1281 4162 
Q 984 4106 628 3988 
L 628 4550 
Q 988 4650 1302 4700 
Q 1616 4750 1894 4750 
Q 2613 4750 3031 4423 
Q 3450 4097 3450 3541 
Q 3450 3153 3228 2886 
Q 3006 2619 2597 2516 
z
" transform="scale(0.015625)"/>
       </defs>
       <use xlink:href="#DejaVuSans-33"/>
       <use xlink:href="#DejaVuSans-30" x="63.623047"/>
      </g>
     </g>
    </g>
    <g id="text_15">
     <!-- Foliose Area (m$^2$) -->
     <g transform="translate(30.755469 239.703) rotate(-90) scale(0.15 -0.15)">
      <defs>
       <path id="DejaVuSans-46" d="M 628 4666 
L 3309 4666 
L 3309 4134 
L 1259 4134 
L 1259 2759 
L 3109 2759 
L 3109 2228 
L 1259 2228 
L 1259 0 
L 628 0 
L 628 4666 
z
" transform="scale(0.015625)"/>
       <path id="DejaVuSans-6f" d="M 1959 3097 
Q 1497 3097 1228 2736 
Q 959 2375 959 1747 
Q 959 1119 1226 758 
Q 1494 397 1959 397 
Q 2419 397 2687 759 
Q 2956 1122 2956 1747 
Q 2956 2369 2687 2733 
Q 2419 3097 1959 3097 
z
M 1959 3584 
Q 2709 3584 3137 3096 
Q 3566 2609 3566 1747 
Q 3566 888 3137 398 
Q 2709 -91 1959 -91 
Q 1206 -91 779 398 
Q 353 888 353 1747 
Q 353 2609 779 3096 
Q 1206 3584 1959 3584 
z
" transform="scale(0.015625)"/>
       <path id="DejaVuSans-6c" d="M 603 4863 
L 1178 4863 
L 1178 0 
L 603 0 
L 603 4863 
z
" transform="scale(0.015625)"/>
       <path id="DejaVuSans-73" d="M 2834 3397 
L 2834 2853 
Q 2591 2978 2328 3040 
Q 2066 3103 1784 3103 
Q 1356 3103 1142 2972 
Q 928 2841 928 2578 
Q 928 2378 1081 2264 
Q 1234 2150 1697 2047 
L 1894 2003 
Q 2506 1872 2764 1633 
Q 3022 1394 3022 966 
Q 3022 478 2636 193 
Q 2250 -91 1575 -91 
Q 1294 -91 989 -36 
Q 684 19 347 128 
L 347 722 
Q 666 556 975 473 
Q 1284 391 1588 391 
Q 1994 391 2212 530 
Q 2431 669 2431 922 
Q 2431 1156 2273 1281 
Q 2116 1406 1581 1522 
L 1381 1569 
Q 847 1681 609 1914 
Q 372 2147 372 2553 
Q 372 3047 722 3315 
Q 1072 3584 1716 3584 
Q 2034 3584 2315 3537 
Q 2597 3491 2834 3397 
z
" transform="scale(0.015625)"/>
       <path id="DejaVuSans-41" d="M 2188 4044 
L 1331 1722 
L 3047 1722 
L 2188 4044 
z
M 1831 4666 
L 2547 4666 
L 4325 0 
L 3669 0 
L 3244 1197 
L 1141 1197 
L 716 0 
L 50 0 
L 1831 4666 
z
" transform="scale(0.015625)"/>
      </defs>
      <use xlink:href="#DejaVuSans-46" transform="translate(0 0.765625)"/>
      <use xlink:href="#DejaVuSans-6f" transform="translate(57.519531 0.765625)"/>
      <use xlink:href="#DejaVuSans-6c" transform="translate(118.701172 0.765625)"/>
      <use xlink:href="#DejaVuSans-69" transform="translate(146.484375 0.765625)"/>
      <use xlink:href="#DejaVuSans-6f" transform="translate(174.267578 0.765625)"/>
      <use xlink:href="#DejaVuSans-73" transform="translate(235.449219 0.765625)"/>
      <use xlink:href="#DejaVuSans-65" transform="translate(287.548828 0.765625)"/>
      <use xlink:href="#DejaVuSans-20" transform="translate(349.072266 0.765625)"/>
      <use xlink:href="#DejaVuSans-41" transform="translate(380.859375 0.765625)"/>
      <use xlink:href="#DejaVuSans-72" transform="translate(449.267578 0.765625)"/>
      <use xlink:href="#DejaVuSans-65" transform="translate(490.380859 0.765625)"/>
      <use xlink:href="#DejaVuSans-61" transform="translate(551.904297 0.765625)"/>
      <use xlink:href="#DejaVuSans-20" transform="translate(613.183594 0.765625)"/>
      <use xlink:href="#DejaVuSans-28" transform="translate(644.970703 0.765625)"/>
      <use xlink:href="#DejaVuSans-6d" transform="translate(683.984375 0.765625)"/>
      <use xlink:href="#DejaVuSans-32" transform="translate(782.353516 39.046875) scale(0.7)"/>
      <use xlink:href="#DejaVuSans-29" transform="translate(829.624023 0.765625)"/>
     </g>
    </g>
   </g>
   <g id="line2d_14">
    <path d="M 73.832727 295.180846 
L 88.926823 288.193093 
L 105.650105 275.237777 
L 122.678248 274.645408 
L 139.812332 264.004717 
L 156.995276 252.661959 
L 174.20471 241.406959 
L 191.4301 231.029542 
L 208.665837 222.319533 
L 225.908666 216.066755 
L 243.156566 210.636712 
L 260.408216 214.092194 
L 277.662718 199.348803 
L 294.919439 183.376795 
L 312.177922 166.176172 
L 329.437825 147.746933 
L 346.69889 128.089078 
L 363.960918 107.202607 
L 381.223754 85.08752 
L 398.487273 61.743817 
" clip-path="url(#pc8575d5e8e)" style="fill: none; stroke: #1f77b4; stroke-width: 1.5; stroke-linecap: square"/>
    <defs>
     <path id="meb82429ae8" d="M 0 -3 
L -0.673542 -0.927051 
L -2.85317 -0.927051 
L -1.089814 0.354102 
L -1.763356 2.427051 
L -0 1.145898 
L 1.763356 2.427051 
L 1.089814 0.354102 
L 2.85317 -0.927051 
L 0.673542 -0.927051 
z
" style="stroke: #1f77b4; stroke-linejoin: bevel"/>
    </defs>
    <g clip-path="url(#pc8575d5e8e)">
     <use xlink:href="#meb82429ae8" x="73.832727" y="295.180846" style="fill: #1f77b4; stroke: #1f77b4; stroke-linejoin: bevel"/>
     <use xlink:href="#meb82429ae8" x="88.926823" y="288.193093" style="fill: #1f77b4; stroke: #1f77b4; stroke-linejoin: bevel"/>
     <use xlink:href="#meb82429ae8" x="105.650105" y="275.237777" style="fill: #1f77b4; stroke: #1f77b4; stroke-linejoin: bevel"/>
     <use xlink:href="#meb82429ae8" x="122.678248" y="274.645408" style="fill: #1f77b4; stroke: #1f77b4; stroke-linejoin: bevel"/>
     <use xlink:href="#meb82429ae8" x="139.812332" y="264.004717" style="fill: #1f77b4; stroke: #1f77b4; stroke-linejoin: bevel"/>
     <use xlink:href="#meb82429ae8" x="156.995276" y="252.661959" style="fill: #1f77b4; stroke: #1f77b4; stroke-linejoin: bevel"/>
     <use xlink:href="#meb82429ae8" x="174.20471" y="241.406959" style="fill: #1f77b4; stroke: #1f77b4; stroke-linejoin: bevel"/>
     <use xlink:href="#meb82429ae8" x="191.4301" y="231.029542" style="fill: #1f77b4; stroke: #1f77b4; stroke-linejoin: bevel"/>
     <use xlink:href="#meb82429ae8" x="208.665837" y="222.319533" style="fill: #1f77b4; stroke: #1f77b4; stroke-linejoin: bevel"/>
     <use xlink:href="#meb82429ae8" x="225.908666" y="216.066755" style="fill: #1f77b4; stroke: #1f77b4; stroke-linejoin: bevel"/>
     <use xlink:href="#meb82429ae8" x="243.156566" y="210.636712" style="fill: #1f77b4; stroke: #1f77b4; stroke-linejoin: bevel"/>
     <use xlink:href="#meb82429ae8" x="260.408216" y="214.092194" style="fill: #1f77b4; stroke: #1f77b4; stroke-linejoin: bevel"/>
     <use xlink:href="#meb82429ae8" x="277.662718" y="199.348803" style="fill: #1f77b4; stroke: #1f77b4; stroke-linejoin: bevel"/>
     <use xlink:href="#meb82429ae8" x="294.919439" y="183.376795" style="fill: #1f77b4; stroke: #1f77b4; stroke-linejoin: bevel"/>
     <use xlink:href="#meb82429ae8" x="312.177922" y="166.176172" style="fill: #1f77b4; stroke: #1f77b4; stroke-linejoin: bevel"/>
     <use xlink:href="#meb82429ae8" x="329.437825" y="147.746933" style="fill: #1f77b4; stroke: #1f77b4; stroke-linejoin: bevel"/>
     <use xlink:href="#meb82429ae8" x="346.69889" y="128.089078" style="fill: #1f77b4; stroke: #1f77b4; stroke-linejoin: bevel"/>
     <use xlink:href="#meb82429ae8" x="363.960918" y="107.202607" style="fill: #1f77b4; stroke: #1f77b4; stroke-linejoin: bevel"/>
     <use xlink:href="#meb82429ae8" x="381.223754" y="85.08752" style="fill: #1f77b4; stroke: #1f77b4; stroke-linejoin: bevel"/>
     <use xlink:href="#meb82429ae8" x="398.487273" y="61.743817" style="fill: #1f77b4; stroke: #1f77b4; stroke-linejoin: bevel"/>
    </g>
   </g>
   <g id="line2d_15">
    <path d="M 73.832727 249.624086 
L 88.926823 214.161702 
L 105.650105 231.143457 
L 122.678248 260.692698 
L 139.812332 258.683218 
L 156.995276 249.269956 
L 174.20471 238.086046 
L 191.4301 226.622126 
L 208.665837 217.867711 
L 225.908666 204.559022 
L 243.156566 213.585212 
L 260.408216 210.373338 
L 277.662718 197.534077 
L 294.919439 178.254597 
L 312.177922 153.333749 
L 329.437825 133.074236 
L 346.69889 102.487312 
L 363.960918 123.842157 
L 381.223754 233.432946 
L 398.487273 295.488 
" clip-path="url(#pc8575d5e8e)" style="fill: none; stroke: #ff7f0e; stroke-width: 1.5; stroke-linecap: square"/>
    <defs>
     <path id="mbac011fdaf" d="M 0 -3 
L -0.673542 -0.927051 
L -2.85317 -0.927051 
L -1.089814 0.354102 
L -1.763356 2.427051 
L -0 1.145898 
L 1.763356 2.427051 
L 1.089814 0.354102 
L 2.85317 -0.927051 
L 0.673542 -0.927051 
z
" style="stroke: #ff7f0e; stroke-linejoin: bevel"/>
    </defs>
    <g clip-path="url(#pc8575d5e8e)">
     <use xlink:href="#mbac011fdaf" x="73.832727" y="249.624086" style="fill: #ff7f0e; stroke: #ff7f0e; stroke-linejoin: bevel"/>
     <use xlink:href="#mbac011fdaf" x="88.926823" y="214.161702" style="fill: #ff7f0e; stroke: #ff7f0e; stroke-linejoin: bevel"/>
     <use xlink:href="#mbac011fdaf" x="105.650105" y="231.143457" style="fill: #ff7f0e; stroke: #ff7f0e; stroke-linejoin: bevel"/>
     <use xlink:href="#mbac011fdaf" x="122.678248" y="260.692698" style="fill: #ff7f0e; stroke: #ff7f0e; stroke-linejoin: bevel"/>
     <use xlink:href="#mbac011fdaf" x="139.812332" y="258.683218" style="fill: #ff7f0e; stroke: #ff7f0e; stroke-linejoin: bevel"/>
     <use xlink:href="#mbac011fdaf" x="156.995276" y="249.269956" style="fill: #ff7f0e; stroke: #ff7f0e; stroke-linejoin: bevel"/>
     <use xlink:href="#mbac011fdaf" x="174.20471" y="238.086046" style="fill: #ff7f0e; stroke: #ff7f0e; stroke-linejoin: bevel"/>
     <use xlink:href="#mbac011fdaf" x="191.4301" y="226.622126" style="fill: #ff7f0e; stroke: #ff7f0e; stroke-linejoin: bevel"/>
     <use xlink:href="#mbac011fdaf" x="208.665837" y="217.867711" style="fill: #ff7f0e; stroke: #ff7f0e; stroke-linejoin: bevel"/>
     <use xlink:href="#mbac011fdaf" x="225.908666" y="204.559022" style="fill: #ff7f0e; stroke: #ff7f0e; stroke-linejoin: bevel"/>
     <use xlink:href="#mbac011fdaf" x="243.156566" y="213.585212" style="fill: #ff7f0e; stroke: #ff7f0e; stroke-linejoin: bevel"/>
     <use xlink:href="#mbac011fdaf" x="260.408216" y="210.373338" style="fill: #ff7f0e; stroke: #ff7f0e; stroke-linejoin: bevel"/>
     <use xlink:href="#mbac011fdaf" x="277.662718" y="197.534077" style="fill: #ff7f0e; stroke: #ff7f0e; stroke-linejoin: bevel"/>
     <use xlink:href="#mbac011fdaf" x="294.919439" y="178.254597" style="fill: #ff7f0e; stroke: #ff7f0e; stroke-linejoin: bevel"/>
     <use xlink:href="#mbac011fdaf" x="312.177922" y="153.333749" style="fill: #ff7f0e; stroke: #ff7f0e; stroke-linejoin: bevel"/>
     <use xlink:href="#mbac011fdaf" x="329.437825" y="133.074236" style="fill: #ff7f0e; stroke: #ff7f0e; stroke-linejoin: bevel"/>
     <use xlink:href="#mbac011fdaf" x="346.69889" y="102.487312" style="fill: #ff7f0e; stroke: #ff7f0e; stroke-linejoin: bevel"/>
     <use xlink:href="#mbac011fdaf" x="363.960918" y="123.842157" style="fill: #ff7f0e; stroke: #ff7f0e; stroke-linejoin: bevel"/>
     <use xlink:href="#mbac011fdaf" x="381.223754" y="233.432946" style="fill: #ff7f0e; stroke: #ff7f0e; stroke-linejoin: bevel"/>
     <use xlink:href="#mbac011fdaf" x="398.487273" y="295.488" style="fill: #ff7f0e; stroke: #ff7f0e; stroke-linejoin: bevel"/>
    </g>
   </g>
   <g id="line2d_16">
    <path d="M 73.832727 268.022359 
L 88.926823 180.14878 
L 105.650105 132.110674 
L 122.678248 185.543081 
L 139.812332 233.696485 
L 156.995276 242.739146 
L 174.20471 233.885903 
L 191.4301 223.830267 
L 208.665837 214.285236 
L 225.908666 197.105827 
L 243.156566 213.585212 
L 260.408216 210.373338 
L 277.662718 192.378608 
L 294.919439 169.236643 
L 312.177922 146.399395 
L 329.437825 133.074236 
L 346.69889 151.859581 
L 363.960918 229.858707 
L 381.223754 289.846631 
L 398.487273 295.488 
" clip-path="url(#pc8575d5e8e)" style="fill: none; stroke: #2ca02c; stroke-width: 1.5; stroke-linecap: square"/>
    <defs>
     <path id="mdde47d7564" d="M 0 -3 
L -0.673542 -0.927051 
L -2.85317 -0.927051 
L -1.089814 0.354102 
L -1.763356 2.427051 
L -0 1.145898 
L 1.763356 2.427051 
L 1.089814 0.354102 
L 2.85317 -0.927051 
L 0.673542 -0.927051 
z
" style="stroke: #2ca02c; stroke-linejoin: bevel"/>
    </defs>
    <g clip-path="url(#pc8575d5e8e)">
     <use xlink:href="#mdde47d7564" x="73.832727" y="268.022359" style="fill: #2ca02c; stroke: #2ca02c; stroke-linejoin: bevel"/>
     <use xlink:href="#mdde47d7564" x="88.926823" y="180.14878" style="fill: #2ca02c; stroke: #2ca02c; stroke-linejoin: bevel"/>
     <use xlink:href="#mdde47d7564" x="105.650105" y="132.110674" style="fill: #2ca02c; stroke: #2ca02c; stroke-linejoin: bevel"/>
     <use xlink:href="#mdde47d7564" x="122.678248" y="185.543081" style="fill: #2ca02c; stroke: #2ca02c; stroke-linejoin: bevel"/>
     <use xlink:href="#mdde47d7564" x="139.812332" y="233.696485" style="fill: #2ca02c; stroke: #2ca02c; stroke-linejoin: bevel"/>
     <use xlink:href="#mdde47d7564" x="156.995276" y="242.739146" style="fill: #2ca02c; stroke: #2ca02c; stroke-linejoin: bevel"/>
     <use xlink:href="#mdde47d7564" x="174.20471" y="233.885903" style="fill: #2ca02c; stroke: #2ca02c; stroke-linejoin: bevel"/>
     <use xlink:href="#mdde47d7564" x="191.4301" y="223.830267" style="fill: #2ca02c; stroke: #2ca02c; stroke-linejoin: bevel"/>
     <use xlink:href="#mdde47d7564" x="208.665837" y="214.285236" style="fill: #2ca02c; stroke: #2ca02c; stroke-linejoin: bevel"/>
     <use xlink:href="#mdde47d7564" x="225.908666" y="197.105827" style="fill: #2ca02c; stroke: #2ca02c; stroke-linejoin: bevel"/>
     <use xlink:href="#mdde47d7564" x="243.156566" y="213.585212" style="fill: #2ca02c; stroke: #2ca02c; stroke-linejoin: bevel"/>
     <use xlink:href="#mdde47d7564" x="260.408216" y="210.373338" style="fill: #2ca02c; stroke: #2ca02c; stroke-linejoin: bevel"/>
     <use xlink:href="#mdde47d7564" x="277.662718" y="192.378608" style="fill: #2ca02c; stroke: #2ca02c; stroke-linejoin: bevel"/>
     <use xlink:href="#mdde47d7564" x="294.919439" y="169.236643" style="fill: #2ca02c; stroke: #2ca02c; stroke-linejoin: bevel"/>
     <use xlink:href="#mdde47d7564" x="312.177922" y="146.399395" style="fill: #2ca02c; stroke: #2ca02c; stroke-linejoin: bevel"/>
     <use xlink:href="#mdde47d7564" x="329.437825" y="133.074236" style="fill: #2ca02c; stroke: #2ca02c; stroke-linejoin: bevel"/>
     <use xlink:href="#mdde47d7564" x="346.69889" y="151.859581" style="fill: #2ca02c; stroke: #2ca02c; stroke-linejoin: bevel"/>
     <use xlink:href="#mdde47d7564" x="363.960918" y="229.858707" style="fill: #2ca02c; stroke: #2ca02c; stroke-linejoin: bevel"/>
     <use xlink:href="#mdde47d7564" x="381.223754" y="289.846631" style="fill: #2ca02c; stroke: #2ca02c; stroke-linejoin: bevel"/>
     <use xlink:href="#mdde47d7564" x="398.487273" y="295.488" style="fill: #2ca02c; stroke: #2ca02c; stroke-linejoin: bevel"/>
    </g>
   </g>
   <g id="line2d_17">
    <path d="M 73.832727 279.914529 
L 88.926823 203.002499 
L 105.650105 82.326626 
L 122.678248 53.568 
L 139.812332 133.749553 
L 156.995276 202.549542 
L 174.20471 224.785593 
L 191.4301 220.107787 
L 208.665837 207.120286 
L 225.908666 191.143271 
L 243.156566 215.405274 
L 260.408216 206.008483 
L 277.662718 184.645403 
L 294.919439 166.230659 
L 312.177922 156.800926 
L 329.437825 188.532594 
L 346.69889 246.115731 
L 363.960918 290.439593 
L 381.223754 295.488 
L 398.487273 295.488 
" clip-path="url(#pc8575d5e8e)" style="fill: none; stroke: #d62728; stroke-width: 1.5; stroke-linecap: square"/>
    <defs>
     <path id="m892dba52bf" d="M 0 -3 
L -0.673542 -0.927051 
L -2.85317 -0.927051 
L -1.089814 0.354102 
L -1.763356 2.427051 
L -0 1.145898 
L 1.763356 2.427051 
L 1.089814 0.354102 
L 2.85317 -0.927051 
L 0.673542 -0.927051 
z
" style="stroke: #d62728; stroke-linejoin: bevel"/>
    </defs>
    <g clip-path="url(#pc8575d5e8e)">
     <use xlink:href="#m892dba52bf" x="73.832727" y="279.914529" style="fill: #d62728; stroke: #d62728; stroke-linejoin: bevel"/>
     <use xlink:href="#m892dba52bf" x="88.926823" y="203.002499" style="fill: #d62728; stroke: #d62728; stroke-linejoin: bevel"/>
     <use xlink:href="#m892dba52bf" x="105.650105" y="82.326626" style="fill: #d62728; stroke: #d62728; stroke-linejoin: bevel"/>
     <use xlink:href="#m892dba52bf" x="122.678248" y="53.568" style="fill: #d62728; stroke: #d62728; stroke-linejoin: bevel"/>
     <use xlink:href="#m892dba52bf" x="139.812332" y="133.749553" style="fill: #d62728; stroke: #d62728; stroke-linejoin: bevel"/>
     <use xlink:href="#m892dba52bf" x="156.995276" y="202.549542" style="fill: #d62728; stroke: #d62728; stroke-linejoin: bevel"/>
     <use xlink:href="#m892dba52bf" x="174.20471" y="224.785593" style="fill: #d62728; stroke: #d62728; stroke-linejoin: bevel"/>
     <use xlink:href="#m892dba52bf" x="191.4301" y="220.107787" style="fill: #d62728; stroke: #d62728; stroke-linejoin: bevel"/>
     <use xlink:href="#m892dba52bf" x="208.665837" y="207.120286" style="fill: #d62728; stroke: #d62728; stroke-linejoin: bevel"/>
     <use xlink:href="#m892dba52bf" x="225.908666" y="191.143271" style="fill: #d62728; stroke: #d62728; stroke-linejoin: bevel"/>
     <use xlink:href="#m892dba52bf" x="243.156566" y="215.405274" style="fill: #d62728; stroke: #d62728; stroke-linejoin: bevel"/>
     <use xlink:href="#m892dba52bf" x="260.408216" y="206.008483" style="fill: #d62728; stroke: #d62728; stroke-linejoin: bevel"/>
     <use xlink:href="#m892dba52bf" x="277.662718" y="184.645403" style="fill: #d62728; stroke: #d62728; stroke-linejoin: bevel"/>
     <use xlink:href="#m892dba52bf" x="294.919439" y="166.230659" style="fill: #d62728; stroke: #d62728; stroke-linejoin: bevel"/>
     <use xlink:href="#m892dba52bf" x="312.177922" y="156.800926" style="fill: #d62728; stroke: #d62728; stroke-linejoin: bevel"/>
     <use xlink:href="#m892dba52bf" x="329.437825" y="188.532594" style="fill: #d62728; stroke: #d62728; stroke-linejoin: bevel"/>
     <use xlink:href="#m892dba52bf" x="346.69889" y="246.115731" style="fill: #d62728; stroke: #d62728; stroke-linejoin: bevel"/>
     <use xlink:href="#m892dba52bf" x="363.960918" y="290.439593" style="fill: #d62728; stroke: #d62728; stroke-linejoin: bevel"/>
     <use xlink:href="#m892dba52bf" x="381.223754" y="295.488" style="fill: #d62728; stroke: #d62728; stroke-linejoin: bevel"/>
     <use xlink:href="#m892dba52bf" x="398.487273" y="295.488" style="fill: #d62728; stroke: #d62728; stroke-linejoin: bevel"/>
    </g>
   </g>
   <g id="patch_3">
    <path d="M 57.6 307.584 
L 57.6 41.472 
" style="fill: none; stroke: #000000; stroke-width: 0.8; stroke-linejoin: miter; stroke-linecap: square"/>
   </g>
   <g id="patch_4">
    <path d="M 414.72 307.584 
L 414.72 41.472 
" style="fill: none; stroke: #000000; stroke-width: 0.8; stroke-linejoin: miter; stroke-linecap: square"/>
   </g>
   <g id="patch_5">
    <path d="M 57.6 307.584 
L 414.72 307.584 
" style="fill: none; stroke: #000000; stroke-width: 0.8; stroke-linejoin: miter; stroke-linecap: square"/>
   </g>
   <g id="patch_6">
    <path d="M 57.6 41.472 
L 414.72 41.472 
" style="fill: none; stroke: #000000; stroke-width: 0.8; stroke-linejoin: miter; stroke-linecap: square"/>
   </g>
   <g id="text_16">
    <!-- Coral cover of Foliose -->
    <g transform="translate(171.5775 35.472) scale(0.12 -0.12)">
     <defs>
      <path id="DejaVuSans-43" d="M 4122 4306 
L 4122 3641 
Q 3803 3938 3442 4084 
Q 3081 4231 2675 4231 
Q 1875 4231 1450 3742 
Q 1025 3253 1025 2328 
Q 1025 1406 1450 917 
Q 1875 428 2675 428 
Q 3081 428 3442 575 
Q 3803 722 4122 1019 
L 4122 359 
Q 3791 134 3420 21 
Q 3050 -91 2638 -91 
Q 1578 -91 968 557 
Q 359 1206 359 2328 
Q 359 3453 968 4101 
Q 1578 4750 2638 4750 
Q 3056 4750 3426 4639 
Q 3797 4528 4122 4306 
z
" transform="scale(0.015625)"/>
      <path id="DejaVuSans-76" d="M 191 3500 
L 800 3500 
L 1894 563 
L 2988 3500 
L 3597 3500 
L 2284 0 
L 1503 0 
L 191 3500 
z
" transform="scale(0.015625)"/>
      <path id="DejaVuSans-66" d="M 2375 4863 
L 2375 4384 
L 1825 4384 
Q 1516 4384 1395 4259 
Q 1275 4134 1275 3809 
L 1275 3500 
L 2222 3500 
L 2222 3053 
L 1275 3053 
L 1275 0 
L 697 0 
L 697 3053 
L 147 3053 
L 147 3500 
L 697 3500 
L 697 3744 
Q 697 4328 969 4595 
Q 1241 4863 1831 4863 
L 2375 4863 
z
" transform="scale(0.015625)"/>
     </defs>
     <use xlink:href="#DejaVuSans-43"/>
     <use xlink:href="#DejaVuSans-6f" x="69.824219"/>
     <use xlink:href="#DejaVuSans-72" x="131.005859"/>
     <use xlink:href="#DejaVuSans-61" x="172.119141"/>
     <use xlink:href="#DejaVuSans-6c" x="233.398438"/>
     <use xlink:href="#DejaVuSans-20" x="261.181641"/>
     <use xlink:href="#DejaVuSans-63" x="292.96875"/>
     <use xlink:href="#DejaVuSans-6f" x="347.949219"/>
     <use xlink:href="#DejaVuSans-76" x="409.130859"/>
     <use xlink:href="#DejaVuSans-65" x="468.310547"/>
     <use xlink:href="#DejaVuSans-72" x="529.833984"/>
     <use xlink:href="#DejaVuSans-20" x="570.947266"/>
     <use xlink:href="#DejaVuSans-6f" x="602.734375"/>
     <use xlink:href="#DejaVuSans-66" x="663.916016"/>
     <use xlink:href="#DejaVuSans-20" x="699.121094"/>
     <use xlink:href="#DejaVuSans-46" x="730.908203"/>
     <use xlink:href="#DejaVuSans-6f" x="784.802734"/>
     <use xlink:href="#DejaVuSans-6c" x="845.984375"/>
     <use xlink:href="#DejaVuSans-69" x="873.767578"/>
     <use xlink:href="#DejaVuSans-6f" x="901.550781"/>
     <use xlink:href="#DejaVuSans-73" x="962.732422"/>
     <use xlink:href="#DejaVuSans-65" x="1014.832031"/>
    </g>
   </g>
   <g id="legend_1">
    <g id="patch_7">
     <path d="M 188.911563 122.862625 
L 283.408437 122.862625 
Q 285.408437 122.862625 285.408437 120.862625 
L 285.408437 48.472 
Q 285.408437 46.472 283.408437 46.472 
L 188.911563 46.472 
Q 186.911563 46.472 186.911563 48.472 
L 186.911563 120.862625 
Q 186.911563 122.862625 188.911563 122.862625 
z
" style="fill: #ffffff; opacity: 0.8; stroke: #cccccc; stroke-linejoin: miter"/>
    </g>
    <g id="text_17">
     <!-- Year -->
     <g transform="translate(225.5725 58.070438) scale(0.1 -0.1)">
      <defs>
       <path id="DejaVuSans-59" d="M -13 4666 
L 666 4666 
L 1959 2747 
L 3244 4666 
L 3922 4666 
L 2272 2222 
L 2272 0 
L 1638 0 
L 1638 2222 
L -13 4666 
z
" transform="scale(0.015625)"/>
      </defs>
      <use xlink:href="#DejaVuSans-59"/>
      <use xlink:href="#DejaVuSans-65" x="47.833984"/>
      <use xlink:href="#DejaVuSans-61" x="109.357422"/>
      <use xlink:href="#DejaVuSans-72" x="170.636719"/>
     </g>
    </g>
    <g id="line2d_18">
     <path d="M 190.911563 69.248563 
L 200.911563 69.248563 
L 210.911563 69.248563 
" style="fill: none; stroke: #1f77b4; stroke-width: 1.5; stroke-linecap: square"/>
     <g>
      <use xlink:href="#meb82429ae8" x="200.911563" y="69.248563" style="fill: #1f77b4; stroke: #1f77b4; stroke-linejoin: bevel"/>
     </g>
    </g>
    <g id="text_18">
     <!-- year = 2011 -->
     <g transform="translate(218.911563 72.748563) scale(0.1 -0.1)">
      <defs>
       <path id="DejaVuSans-79" d="M 2059 -325 
Q 1816 -950 1584 -1140 
Q 1353 -1331 966 -1331 
L 506 -1331 
L 506 -850 
L 844 -850 
Q 1081 -850 1212 -737 
Q 1344 -625 1503 -206 
L 1606 56 
L 191 3500 
L 800 3500 
L 1894 763 
L 2988 3500 
L 3597 3500 
L 2059 -325 
z
" transform="scale(0.015625)"/>
       <path id="DejaVuSans-3d" d="M 678 2906 
L 4684 2906 
L 4684 2381 
L 678 2381 
L 678 2906 
z
M 678 1631 
L 4684 1631 
L 4684 1100 
L 678 1100 
L 678 1631 
z
" transform="scale(0.015625)"/>
      </defs>
      <use xlink:href="#DejaVuSans-79"/>
      <use xlink:href="#DejaVuSans-65" x="59.179688"/>
      <use xlink:href="#DejaVuSans-61" x="120.703125"/>
      <use xlink:href="#DejaVuSans-72" x="181.982422"/>
      <use xlink:href="#DejaVuSans-20" x="223.095703"/>
      <use xlink:href="#DejaVuSans-3d" x="254.882812"/>
      <use xlink:href="#DejaVuSans-20" x="338.671875"/>
      <use xlink:href="#DejaVuSans-32" x="370.458984"/>
      <use xlink:href="#DejaVuSans-30" x="434.082031"/>
      <use xlink:href="#DejaVuSans-31" x="497.705078"/>
      <use xlink:href="#DejaVuSans-31" x="561.328125"/>
     </g>
    </g>
    <g id="line2d_19">
     <path d="M 190.911563 83.926688 
L 200.911563 83.926688 
L 210.911563 83.926688 
" style="fill: none; stroke: #ff7f0e; stroke-width: 1.5; stroke-linecap: square"/>
     <g>
      <use xlink:href="#mbac011fdaf" x="200.911563" y="83.926688" style="fill: #ff7f0e; stroke: #ff7f0e; stroke-linejoin: bevel"/>
     </g>
    </g>
    <g id="text_19">
     <!-- year = 2015 -->
     <g transform="translate(218.911563 87.426688) scale(0.1 -0.1)">
      <use xlink:href="#DejaVuSans-79"/>
      <use xlink:href="#DejaVuSans-65" x="59.179688"/>
      <use xlink:href="#DejaVuSans-61" x="120.703125"/>
      <use xlink:href="#DejaVuSans-72" x="181.982422"/>
      <use xlink:href="#DejaVuSans-20" x="223.095703"/>
      <use xlink:href="#DejaVuSans-3d" x="254.882812"/>
      <use xlink:href="#DejaVuSans-20" x="338.671875"/>
      <use xlink:href="#DejaVuSans-32" x="370.458984"/>
      <use xlink:href="#DejaVuSans-30" x="434.082031"/>
      <use xlink:href="#DejaVuSans-31" x="497.705078"/>
      <use xlink:href="#DejaVuSans-35" x="561.328125"/>
     </g>
    </g>
    <g id="line2d_20">
     <path d="M 190.911563 98.604813 
L 200.911563 98.604813 
L 210.911563 98.604813 
" style="fill: none; stroke: #2ca02c; stroke-width: 1.5; stroke-linecap: square"/>
     <g>
      <use xlink:href="#mdde47d7564" x="200.911563" y="98.604813" style="fill: #2ca02c; stroke: #2ca02c; stroke-linejoin: bevel"/>
     </g>
    </g>
    <g id="text_20">
     <!-- year = 2018 -->
     <g transform="translate(218.911563 102.104813) scale(0.1 -0.1)">
      <use xlink:href="#DejaVuSans-79"/>
      <use xlink:href="#DejaVuSans-65" x="59.179688"/>
      <use xlink:href="#DejaVuSans-61" x="120.703125"/>
      <use xlink:href="#DejaVuSans-72" x="181.982422"/>
      <use xlink:href="#DejaVuSans-20" x="223.095703"/>
      <use xlink:href="#DejaVuSans-3d" x="254.882812"/>
      <use xlink:href="#DejaVuSans-20" x="338.671875"/>
      <use xlink:href="#DejaVuSans-32" x="370.458984"/>
      <use xlink:href="#DejaVuSans-30" x="434.082031"/>
      <use xlink:href="#DejaVuSans-31" x="497.705078"/>
      <use xlink:href="#DejaVuSans-38" x="561.328125"/>
     </g>
    </g>
    <g id="line2d_21">
     <path d="M 190.911563 113.282938 
L 200.911563 113.282938 
L 210.911563 113.282938 
" style="fill: none; stroke: #d62728; stroke-width: 1.5; stroke-linecap: square"/>
     <g>
      <use xlink:href="#m892dba52bf" x="200.911563" y="113.282938" style="fill: #d62728; stroke: #d62728; stroke-linejoin: bevel"/>
     </g>
    </g>
    <g id="text_21">
     <!-- year = 2022 -->
     <g transform="translate(218.911563 116.782938) scale(0.1 -0.1)">
      <use xlink:href="#DejaVuSans-79"/>
      <use xlink:href="#DejaVuSans-65" x="59.179688"/>
      <use xlink:href="#DejaVuSans-61" x="120.703125"/>
      <use xlink:href="#DejaVuSans-72" x="181.982422"/>
      <use xlink:href="#DejaVuSans-20" x="223.095703"/>
      <use xlink:href="#DejaVuSans-3d" x="254.882812"/>
      <use xlink:href="#DejaVuSans-20" x="338.671875"/>
      <use xlink:href="#DejaVuSans-32" x="370.458984"/>
      <use xlink:href="#DejaVuSans-30" x="434.082031"/>
      <use xlink:href="#DejaVuSans-32" x="497.705078"/>
      <use xlink:href="#DejaVuSans-32" x="561.328125"/>
     </g>
    </g>
   </g>
  </g>
 </g>
 <defs>
  <clipPath id="pc8575d5e8e">
   <rect x="57.6" y="41.472" width="357.12" height="266.112"/>
  </clipPath>
 </defs>
</svg>
