<?xml version="1.0" encoding="utf-8" standalone="no"?>
<!DOCTYPE svg PUBLIC "-//W3C//DTD SVG 1.1//EN"
  "http://www.w3.org/Graphics/SVG/1.1/DTD/svg11.dtd">
<svg xmlns:xlink="http://www.w3.org/1999/xlink" width="648pt" height="360pt" viewBox="0 0 648 360" xmlns="http://www.w3.org/2000/svg" version="1.1">
 <metadata>
  <rdf:RDF xmlns:dc="http://purl.org/dc/elements/1.1/" xmlns:cc="http://creativecommons.org/ns#" xmlns:rdf="http://www.w3.org/1999/02/22-rdf-syntax-ns#">
   <cc:Work>
    <dc:type rdf:resource="http://purl.org/dc/dcmitype/StillImage"/>
    <dc:date>2025-08-28T16:48:25.805775</dc:date>
    <dc:format>image/svg+xml</dc:format>
    <dc:creator>
     <cc:Agent>
      <dc:title>Matplotlib v3.8.0, https://matplotlib.org/</dc:title>
     </cc:Agent>
    </dc:creator>
   </cc:Work>
  </rdf:RDF>
 </metadata>
 <defs>
  <style type="text/css">*{stroke-linejoin: round; stroke-linecap: butt}</style>
 </defs>
 <g id="figure_1">
  <g id="patch_1">
   <path d="M 0 360 
L 648 360 
L 648 0 
L 0 0 
z
" style="fill: #ffffff"/>
  </g>
  <g id="axes_1">
   <g id="patch_2">
    <path d="M 81 320.4 
L 583.2 320.4 
L 583.2 43.2 
L 81 43.2 
z
" style="fill: #ffffff"/>
   </g>
   <g id="matplotlib.axis_1">
    <g id="xtick_1">
     <g id="line2d_1">
      <defs>
       <path id="m24b27b8a1a" d="M 0 0 
L 0 3.5 
" style="stroke: #000000; stroke-width: 0.8"/>
      </defs>
      <g>
       <use xlink:href="#m24b27b8a1a" x="103.827273" y="320.4" style="stroke: #000000; stroke-width: 0.8"/>
      </g>
     </g>
     <g id="text_1">
      <!-- 2004 -->
      <g transform="translate(88.557273 336.518125) scale(0.12 -0.12)">
       <defs>
        <path id="DejaVuSans-32" d="M 1228 531 
L 3431 531 
L 3431 0 
L 469 0 
L 469 531 
Q 828 903 1448 1529 
Q 2069 2156 2228 2338 
Q 2531 2678 2651 2914 
Q 2772 3150 2772 3378 
Q 2772 3750 2511 3984 
Q 2250 4219 1831 4219 
Q 1534 4219 1204 4116 
Q 875 4013 500 3803 
L 500 4441 
Q 881 4594 1212 4672 
Q 1544 4750 1819 4750 
Q 2544 4750 2975 4387 
Q 3406 4025 3406 3419 
Q 3406 3131 3298 2873 
Q 3191 2616 2906 2266 
Q 2828 2175 2409 1742 
Q 1991 1309 1228 531 
z
" transform="scale(0.015625)"/>
        <path id="DejaVuSans-30" d="M 2034 4250 
Q 1547 4250 1301 3770 
Q 1056 3291 1056 2328 
Q 1056 1369 1301 889 
Q 1547 409 2034 409 
Q 2525 409 2770 889 
Q 3016 1369 3016 2328 
Q 3016 3291 2770 3770 
Q 2525 4250 2034 4250 
z
M 2034 4750 
Q 2819 4750 3233 4129 
Q 3647 3509 3647 2328 
Q 3647 1150 3233 529 
Q 2819 -91 2034 -91 
Q 1250 -91 836 529 
Q 422 1150 422 2328 
Q 422 3509 836 4129 
Q 1250 4750 2034 4750 
z
" transform="scale(0.015625)"/>
        <path id="DejaVuSans-34" d="M 2419 4116 
L 825 1625 
L 2419 1625 
L 2419 4116 
z
M 2253 4666 
L 3047 4666 
L 3047 1625 
L 3713 1625 
L 3713 1100 
L 3047 1100 
L 3047 0 
L 2419 0 
L 2419 1100 
L 313 1100 
L 313 1709 
L 2253 4666 
z
" transform="scale(0.015625)"/>
       </defs>
       <use xlink:href="#DejaVuSans-32"/>
       <use xlink:href="#DejaVuSans-30" x="63.623047"/>
       <use xlink:href="#DejaVuSans-30" x="127.246094"/>
       <use xlink:href="#DejaVuSans-34" x="190.869141"/>
      </g>
     </g>
    </g>
    <g id="xtick_2">
     <g id="line2d_2">
      <g>
       <use xlink:href="#m24b27b8a1a" x="174.065035" y="320.4" style="stroke: #000000; stroke-width: 0.8"/>
      </g>
     </g>
     <g id="text_2">
      <!-- 2006 -->
      <g transform="translate(158.795035 336.518125) scale(0.12 -0.12)">
       <defs>
        <path id="DejaVuSans-36" d="M 2113 2584 
Q 1688 2584 1439 2293 
Q 1191 2003 1191 1497 
Q 1191 994 1439 701 
Q 1688 409 2113 409 
Q 2538 409 2786 701 
Q 3034 994 3034 1497 
Q 3034 2003 2786 2293 
Q 2538 2584 2113 2584 
z
M 3366 4563 
L 3366 3988 
Q 3128 4100 2886 4159 
Q 2644 4219 2406 4219 
Q 1781 4219 1451 3797 
Q 1122 3375 1075 2522 
Q 1259 2794 1537 2939 
Q 1816 3084 2150 3084 
Q 2853 3084 3261 2657 
Q 3669 2231 3669 1497 
Q 3669 778 3244 343 
Q 2819 -91 2113 -91 
Q 1303 -91 875 529 
Q 447 1150 447 2328 
Q 447 3434 972 4092 
Q 1497 4750 2381 4750 
Q 2619 4750 2861 4703 
Q 3103 4656 3366 4563 
z
" transform="scale(0.015625)"/>
       </defs>
       <use xlink:href="#DejaVuSans-32"/>
       <use xlink:href="#DejaVuSans-30" x="63.623047"/>
       <use xlink:href="#DejaVuSans-30" x="127.246094"/>
       <use xlink:href="#DejaVuSans-36" x="190.869141"/>
      </g>
     </g>
    </g>
    <g id="xtick_3">
     <g id="line2d_3">
      <g>
       <use xlink:href="#m24b27b8a1a" x="244.302797" y="320.4" style="stroke: #000000; stroke-width: 0.8"/>
      </g>
     </g>
     <g id="text_3">
      <!-- 2008 -->
      <g transform="translate(229.032797 336.518125) scale(0.12 -0.12)">
       <defs>
        <path id="DejaVuSans-38" d="M 2034 2216 
Q 1584 2216 1326 1975 
Q 1069 1734 1069 1313 
Q 1069 891 1326 650 
Q 1584 409 2034 409 
Q 2484 409 2743 651 
Q 3003 894 3003 1313 
Q 3003 1734 2745 1975 
Q 2488 2216 2034 2216 
z
M 1403 2484 
Q 997 2584 770 2862 
Q 544 3141 544 3541 
Q 544 4100 942 4425 
Q 1341 4750 2034 4750 
Q 2731 4750 3128 4425 
Q 3525 4100 3525 3541 
Q 3525 3141 3298 2862 
Q 3072 2584 2669 2484 
Q 3125 2378 3379 2068 
Q 3634 1759 3634 1313 
Q 3634 634 3220 271 
Q 2806 -91 2034 -91 
Q 1263 -91 848 271 
Q 434 634 434 1313 
Q 434 1759 690 2068 
Q 947 2378 1403 2484 
z
M 1172 3481 
Q 1172 3119 1398 2916 
Q 1625 2713 2034 2713 
Q 2441 2713 2670 2916 
Q 2900 3119 2900 3481 
Q 2900 3844 2670 4047 
Q 2441 4250 2034 4250 
Q 1625 4250 1398 4047 
Q 1172 3844 1172 3481 
z
" transform="scale(0.015625)"/>
       </defs>
       <use xlink:href="#DejaVuSans-32"/>
       <use xlink:href="#DejaVuSans-30" x="63.623047"/>
       <use xlink:href="#DejaVuSans-30" x="127.246094"/>
       <use xlink:href="#DejaVuSans-38" x="190.869141"/>
      </g>
     </g>
    </g>
    <g id="xtick_4">
     <g id="line2d_4">
      <g>
       <use xlink:href="#m24b27b8a1a" x="314.540559" y="320.4" style="stroke: #000000; stroke-width: 0.8"/>
      </g>
     </g>
     <g id="text_4">
      <!-- 2010 -->
      <g transform="translate(299.270559 336.518125) scale(0.12 -0.12)">
       <defs>
        <path id="DejaVuSans-31" d="M 794 531 
L 1825 531 
L 1825 4091 
L 703 3866 
L 703 4441 
L 1819 4666 
L 2450 4666 
L 2450 531 
L 3481 531 
L 3481 0 
L 794 0 
L 794 531 
z
" transform="scale(0.015625)"/>
       </defs>
       <use xlink:href="#DejaVuSans-32"/>
       <use xlink:href="#DejaVuSans-30" x="63.623047"/>
       <use xlink:href="#DejaVuSans-31" x="127.246094"/>
       <use xlink:href="#DejaVuSans-30" x="190.869141"/>
      </g>
     </g>
    </g>
    <g id="xtick_5">
     <g id="line2d_5">
      <g>
       <use xlink:href="#m24b27b8a1a" x="384.778322" y="320.4" style="stroke: #000000; stroke-width: 0.8"/>
      </g>
     </g>
     <g id="text_5">
      <!-- 2012 -->
      <g transform="translate(369.508322 336.518125) scale(0.12 -0.12)">
       <use xlink:href="#DejaVuSans-32"/>
       <use xlink:href="#DejaVuSans-30" x="63.623047"/>
       <use xlink:href="#DejaVuSans-31" x="127.246094"/>
       <use xlink:href="#DejaVuSans-32" x="190.869141"/>
      </g>
     </g>
    </g>
    <g id="xtick_6">
     <g id="line2d_6">
      <g>
       <use xlink:href="#m24b27b8a1a" x="455.016084" y="320.4" style="stroke: #000000; stroke-width: 0.8"/>
      </g>
     </g>
     <g id="text_6">
      <!-- 2014 -->
      <g transform="translate(439.746084 336.518125) scale(0.12 -0.12)">
       <use xlink:href="#DejaVuSans-32"/>
       <use xlink:href="#DejaVuSans-30" x="63.623047"/>
       <use xlink:href="#DejaVuSans-31" x="127.246094"/>
       <use xlink:href="#DejaVuSans-34" x="190.869141"/>
      </g>
     </g>
    </g>
    <g id="xtick_7">
     <g id="line2d_7">
      <g>
       <use xlink:href="#m24b27b8a1a" x="525.253846" y="320.4" style="stroke: #000000; stroke-width: 0.8"/>
      </g>
     </g>
     <g id="text_7">
      <!-- 2016 -->
      <g transform="translate(509.983846 336.518125) scale(0.12 -0.12)">
       <use xlink:href="#DejaVuSans-32"/>
       <use xlink:href="#DejaVuSans-30" x="63.623047"/>
       <use xlink:href="#DejaVuSans-31" x="127.246094"/>
       <use xlink:href="#DejaVuSans-36" x="190.869141"/>
      </g>
     </g>
    </g>
    <g id="text_8">
     <!-- Year -->
     <g transform="translate(316.21875 354.411406) scale(0.15 -0.15)">
      <defs>
       <path id="DejaVuSans-59" d="M -13 4666 
L 666 4666 
L 1959 2747 
L 3244 4666 
L 3922 4666 
L 2272 2222 
L 2272 0 
L 1638 0 
L 1638 2222 
L -13 4666 
z
" transform="scale(0.015625)"/>
       <path id="DejaVuSans-65" d="M 3597 1894 
L 3597 1613 
L 953 1613 
Q 991 1019 1311 708 
Q 1631 397 2203 397 
Q 2534 397 2845 478 
Q 3156 559 3463 722 
L 3463 178 
Q 3153 47 2828 -22 
Q 2503 -91 2169 -91 
Q 1331 -91 842 396 
Q 353 884 353 1716 
Q 353 2575 817 3079 
Q 1281 3584 2069 3584 
Q 2775 3584 3186 3129 
Q 3597 2675 3597 1894 
z
M 3022 2063 
Q 3016 2534 2758 2815 
Q 2500 3097 2075 3097 
Q 1594 3097 1305 2825 
Q 1016 2553 972 2059 
L 3022 2063 
z
" transform="scale(0.015625)"/>
       <path id="DejaVuSans-61" d="M 2194 1759 
Q 1497 1759 1228 1600 
Q 959 1441 959 1056 
Q 959 750 1161 570 
Q 1363 391 1709 391 
Q 2188 391 2477 730 
Q 2766 1069 2766 1631 
L 2766 1759 
L 2194 1759 
z
M 3341 1997 
L 3341 0 
L 2766 0 
L 2766 531 
Q 2569 213 2275 61 
Q 1981 -91 1556 -91 
Q 1019 -91 701 211 
Q 384 513 384 1019 
Q 384 1609 779 1909 
Q 1175 2209 1959 2209 
L 2766 2209 
L 2766 2266 
Q 2766 2663 2505 2880 
Q 2244 3097 1772 3097 
Q 1472 3097 1187 3025 
Q 903 2953 641 2809 
L 641 3341 
Q 956 3463 1253 3523 
Q 1550 3584 1831 3584 
Q 2591 3584 2966 3190 
Q 3341 2797 3341 1997 
z
" transform="scale(0.015625)"/>
       <path id="DejaVuSans-72" d="M 2631 2963 
Q 2534 3019 2420 3045 
Q 2306 3072 2169 3072 
Q 1681 3072 1420 2755 
Q 1159 2438 1159 1844 
L 1159 0 
L 581 0 
L 581 3500 
L 1159 3500 
L 1159 2956 
Q 1341 3275 1631 3429 
Q 1922 3584 2338 3584 
Q 2397 3584 2469 3576 
Q 2541 3569 2628 3553 
L 2631 2963 
z
" transform="scale(0.015625)"/>
      </defs>
      <use xlink:href="#DejaVuSans-59"/>
      <use xlink:href="#DejaVuSans-65" x="47.833984"/>
      <use xlink:href="#DejaVuSans-61" x="109.357422"/>
      <use xlink:href="#DejaVuSans-72" x="170.636719"/>
     </g>
    </g>
   </g>
   <g id="matplotlib.axis_2">
    <g id="ytick_1">
     <g id="line2d_8">
      <defs>
       <path id="mab9b7382f4" d="M 0 0 
L -3.5 0 
" style="stroke: #000000; stroke-width: 0.8"/>
      </defs>
      <g>
       <use xlink:href="#mab9b7382f4" x="81" y="304.15519" style="stroke: #000000; stroke-width: 0.8"/>
      </g>
     </g>
     <g id="text_9">
      <!-- 25 -->
      <g transform="translate(58.73 308.714253) scale(0.12 -0.12)">
       <defs>
        <path id="DejaVuSans-35" d="M 691 4666 
L 3169 4666 
L 3169 4134 
L 1269 4134 
L 1269 2991 
Q 1406 3038 1543 3061 
Q 1681 3084 1819 3084 
Q 2600 3084 3056 2656 
Q 3513 2228 3513 1497 
Q 3513 744 3044 326 
Q 2575 -91 1722 -91 
Q 1428 -91 1123 -41 
Q 819 9 494 109 
L 494 744 
Q 775 591 1075 516 
Q 1375 441 1709 441 
Q 2250 441 2565 725 
Q 2881 1009 2881 1497 
Q 2881 1984 2565 2268 
Q 2250 2553 1709 2553 
Q 1456 2553 1204 2497 
Q 953 2441 691 2322 
L 691 4666 
z
" transform="scale(0.015625)"/>
       </defs>
       <use xlink:href="#DejaVuSans-32"/>
       <use xlink:href="#DejaVuSans-35" x="63.623047"/>
      </g>
     </g>
    </g>
    <g id="ytick_2">
     <g id="line2d_9">
      <g>
       <use xlink:href="#mab9b7382f4" x="81" y="244.934227" style="stroke: #000000; stroke-width: 0.8"/>
      </g>
     </g>
     <g id="text_10">
      <!-- 30 -->
      <g transform="translate(58.73 249.49329) scale(0.12 -0.12)">
       <defs>
        <path id="DejaVuSans-33" d="M 2597 2516 
Q 3050 2419 3304 2112 
Q 3559 1806 3559 1356 
Q 3559 666 3084 287 
Q 2609 -91 1734 -91 
Q 1441 -91 1130 -33 
Q 819 25 488 141 
L 488 750 
Q 750 597 1062 519 
Q 1375 441 1716 441 
Q 2309 441 2620 675 
Q 2931 909 2931 1356 
Q 2931 1769 2642 2001 
Q 2353 2234 1838 2234 
L 1294 2234 
L 1294 2753 
L 1863 2753 
Q 2328 2753 2575 2939 
Q 2822 3125 2822 3475 
Q 2822 3834 2567 4026 
Q 2313 4219 1838 4219 
Q 1578 4219 1281 4162 
Q 984 4106 628 3988 
L 628 4550 
Q 988 4650 1302 4700 
Q 1616 4750 1894 4750 
Q 2613 4750 3031 4423 
Q 3450 4097 3450 3541 
Q 3450 3153 3228 2886 
Q 3006 2619 2597 2516 
z
" transform="scale(0.015625)"/>
       </defs>
       <use xlink:href="#DejaVuSans-33"/>
       <use xlink:href="#DejaVuSans-30" x="63.623047"/>
      </g>
     </g>
    </g>
    <g id="ytick_3">
     <g id="line2d_10">
      <g>
       <use xlink:href="#mab9b7382f4" x="81" y="185.713264" style="stroke: #000000; stroke-width: 0.8"/>
      </g>
     </g>
     <g id="text_11">
      <!-- 35 -->
      <g transform="translate(58.73 190.272326) scale(0.12 -0.12)">
       <use xlink:href="#DejaVuSans-33"/>
       <use xlink:href="#DejaVuSans-35" x="63.623047"/>
      </g>
     </g>
    </g>
    <g id="ytick_4">
     <g id="line2d_11">
      <g>
       <use xlink:href="#mab9b7382f4" x="81" y="126.492301" style="stroke: #000000; stroke-width: 0.8"/>
      </g>
     </g>
     <g id="text_12">
      <!-- 40 -->
      <g transform="translate(58.73 131.051363) scale(0.12 -0.12)">
       <use xlink:href="#DejaVuSans-34"/>
       <use xlink:href="#DejaVuSans-30" x="63.623047"/>
      </g>
     </g>
    </g>
    <g id="ytick_5">
     <g id="line2d_12">
      <g>
       <use xlink:href="#mab9b7382f4" x="81" y="67.271338" style="stroke: #000000; stroke-width: 0.8"/>
      </g>
     </g>
     <g id="text_13">
      <!-- 45 -->
      <g transform="translate(58.73 71.8304) scale(0.12 -0.12)">
       <use xlink:href="#DejaVuSans-34"/>
       <use xlink:href="#DejaVuSans-35" x="63.623047"/>
      </g>
     </g>
    </g>
    <g id="text_14">
     <!-- Total coral cover (%) -->
     <g transform="translate(51.610469 258.769922) rotate(-90) scale(0.15 -0.15)">
      <defs>
       <path id="DejaVuSans-54" d="M -19 4666 
L 3928 4666 
L 3928 4134 
L 2272 4134 
L 2272 0 
L 1638 0 
L 1638 4134 
L -19 4134 
L -19 4666 
z
" transform="scale(0.015625)"/>
       <path id="DejaVuSans-6f" d="M 1959 3097 
Q 1497 3097 1228 2736 
Q 959 2375 959 1747 
Q 959 1119 1226 758 
Q 1494 397 1959 397 
Q 2419 397 2687 759 
Q 2956 1122 2956 1747 
Q 2956 2369 2687 2733 
Q 2419 3097 1959 3097 
z
M 1959 3584 
Q 2709 3584 3137 3096 
Q 3566 2609 3566 1747 
Q 3566 888 3137 398 
Q 2709 -91 1959 -91 
Q 1206 -91 779 398 
Q 353 888 353 1747 
Q 353 2609 779 3096 
Q 1206 3584 1959 3584 
z
" transform="scale(0.015625)"/>
       <path id="DejaVuSans-74" d="M 1172 4494 
L 1172 3500 
L 2356 3500 
L 2356 3053 
L 1172 3053 
L 1172 1153 
Q 1172 725 1289 603 
Q 1406 481 1766 481 
L 2356 481 
L 2356 0 
L 1766 0 
Q 1100 0 847 248 
Q 594 497 594 1153 
L 594 3053 
L 172 3053 
L 172 3500 
L 594 3500 
L 594 4494 
L 1172 4494 
z
" transform="scale(0.015625)"/>
       <path id="DejaVuSans-6c" d="M 603 4863 
L 1178 4863 
L 1178 0 
L 603 0 
L 603 4863 
z
" transform="scale(0.015625)"/>
       <path id="DejaVuSans-20" transform="scale(0.015625)"/>
       <path id="DejaVuSans-63" d="M 3122 3366 
L 3122 2828 
Q 2878 2963 2633 3030 
Q 2388 3097 2138 3097 
Q 1578 3097 1268 2742 
Q 959 2388 959 1747 
Q 959 1106 1268 751 
Q 1578 397 2138 397 
Q 2388 397 2633 464 
Q 2878 531 3122 666 
L 3122 134 
Q 2881 22 2623 -34 
Q 2366 -91 2075 -91 
Q 1284 -91 818 406 
Q 353 903 353 1747 
Q 353 2603 823 3093 
Q 1294 3584 2113 3584 
Q 2378 3584 2631 3529 
Q 2884 3475 3122 3366 
z
" transform="scale(0.015625)"/>
       <path id="DejaVuSans-76" d="M 191 3500 
L 800 3500 
L 1894 563 
L 2988 3500 
L 3597 3500 
L 2284 0 
L 1503 0 
L 191 3500 
z
" transform="scale(0.015625)"/>
       <path id="DejaVuSans-28" d="M 1984 4856 
Q 1566 4138 1362 3434 
Q 1159 2731 1159 2009 
Q 1159 1288 1364 580 
Q 1569 -128 1984 -844 
L 1484 -844 
Q 1016 -109 783 600 
Q 550 1309 550 2009 
Q 550 2706 781 3412 
Q 1013 4119 1484 4856 
L 1984 4856 
z
" transform="scale(0.015625)"/>
       <path id="DejaVuSans-25" d="M 4653 2053 
Q 4381 2053 4226 1822 
Q 4072 1591 4072 1178 
Q 4072 772 4226 539 
Q 4381 306 4653 306 
Q 4919 306 5073 539 
Q 5228 772 5228 1178 
Q 5228 1588 5073 1820 
Q 4919 2053 4653 2053 
z
M 4653 2450 
Q 5147 2450 5437 2106 
Q 5728 1763 5728 1178 
Q 5728 594 5436 251 
Q 5144 -91 4653 -91 
Q 4153 -91 3862 251 
Q 3572 594 3572 1178 
Q 3572 1766 3864 2108 
Q 4156 2450 4653 2450 
z
M 1428 4353 
Q 1159 4353 1004 4120 
Q 850 3888 850 3481 
Q 850 3069 1003 2837 
Q 1156 2606 1428 2606 
Q 1700 2606 1854 2837 
Q 2009 3069 2009 3481 
Q 2009 3884 1853 4118 
Q 1697 4353 1428 4353 
z
M 4250 4750 
L 4750 4750 
L 1831 -91 
L 1331 -91 
L 4250 4750 
z
M 1428 4750 
Q 1922 4750 2215 4408 
Q 2509 4066 2509 3481 
Q 2509 2891 2217 2550 
Q 1925 2209 1428 2209 
Q 931 2209 642 2551 
Q 353 2894 353 3481 
Q 353 4063 643 4406 
Q 934 4750 1428 4750 
z
" transform="scale(0.015625)"/>
       <path id="DejaVuSans-29" d="M 513 4856 
L 1013 4856 
Q 1481 4119 1714 3412 
Q 1947 2706 1947 2009 
Q 1947 1309 1714 600 
Q 1481 -109 1013 -844 
L 513 -844 
Q 928 -128 1133 580 
Q 1338 1288 1338 2009 
Q 1338 2731 1133 3434 
Q 928 4138 513 4856 
z
" transform="scale(0.015625)"/>
      </defs>
      <use xlink:href="#DejaVuSans-54"/>
      <use xlink:href="#DejaVuSans-6f" x="44.083984"/>
      <use xlink:href="#DejaVuSans-74" x="105.265625"/>
      <use xlink:href="#DejaVuSans-61" x="144.474609"/>
      <use xlink:href="#DejaVuSans-6c" x="205.753906"/>
      <use xlink:href="#DejaVuSans-20" x="233.537109"/>
      <use xlink:href="#DejaVuSans-63" x="265.324219"/>
      <use xlink:href="#DejaVuSans-6f" x="320.304688"/>
      <use xlink:href="#DejaVuSans-72" x="381.486328"/>
      <use xlink:href="#DejaVuSans-61" x="422.599609"/>
      <use xlink:href="#DejaVuSans-6c" x="483.878906"/>
      <use xlink:href="#DejaVuSans-20" x="511.662109"/>
      <use xlink:href="#DejaVuSans-63" x="543.449219"/>
      <use xlink:href="#DejaVuSans-6f" x="598.429688"/>
      <use xlink:href="#DejaVuSans-76" x="659.611328"/>
      <use xlink:href="#DejaVuSans-65" x="718.791016"/>
      <use xlink:href="#DejaVuSans-72" x="780.314453"/>
      <use xlink:href="#DejaVuSans-20" x="821.427734"/>
      <use xlink:href="#DejaVuSans-28" x="853.214844"/>
      <use xlink:href="#DejaVuSans-25" x="892.228516"/>
      <use xlink:href="#DejaVuSans-29" x="987.248047"/>
     </g>
    </g>
   </g>
   <g id="line2d_13">
    <path d="M 103.827273 90.959723 
L 138.946154 94.850267 
L 174.065035 101.67203 
L 209.183916 99.841084 
L 244.302797 98.577817 
L 279.421678 226.863476 
L 314.540559 202.230586 
L 349.659441 277.139615 
L 384.778322 281.93082 
L 419.897203 255.631868 
L 455.016084 223.653681 
L 490.134965 181.244588 
L 525.253846 147.057428 
L 560.372727 113.705508 
" clip-path="url(#pe568498bd5)" style="fill: none; stroke-dasharray: 3.7,1.6; stroke-dashoffset: 0; stroke: #1f77b4; stroke-opacity: 0.6"/>
   </g>
   <g id="line2d_14">
    <path d="M 103.827273 90.959723 
L 138.946154 90.649416 
L 174.065035 91.87927 
L 209.183916 90.923099 
L 244.302797 79.672419 
L 279.421678 215.869543 
L 314.540559 198.185551 
L 349.659441 272.207711 
L 384.778322 276.251816 
L 419.897203 245.082939 
L 455.016084 214.865929 
L 490.134965 178.074677 
L 525.253846 143.62577 
L 560.372727 108.143947 
" clip-path="url(#pe568498bd5)" style="fill: none; stroke-dasharray: 3.7,1.6; stroke-dashoffset: 0; stroke: #ff7f0e; stroke-opacity: 0.6"/>
   </g>
   <g id="line2d_15">
    <path d="M 103.827273 90.959723 
L 138.946154 97.95355 
L 174.065035 96.008841 
L 209.183916 93.831612 
L 244.302797 78.867412 
L 279.421678 212.857772 
L 314.540559 193.69993 
L 349.659441 268.584889 
L 384.778322 274.061914 
L 419.897203 250.829035 
L 455.016084 214.803603 
L 490.134965 180.898539 
L 525.253846 150.425946 
L 560.372727 119.342418 
" clip-path="url(#pe568498bd5)" style="fill: none; stroke-dasharray: 3.7,1.6; stroke-dashoffset: 0; stroke: #2ca02c; stroke-opacity: 0.6"/>
   </g>
   <g id="line2d_16">
    <path d="M 103.827273 90.959723 
L 138.946154 99.806241 
L 174.065035 103.728443 
L 209.183916 107.899294 
L 244.302797 110.887227 
L 279.421678 249.341929 
L 314.540559 225.317533 
L 349.659441 296.775601 
L 384.778322 303.447869 
L 419.897203 275.466577 
L 455.016084 242.529079 
L 490.134965 204.294209 
L 525.253846 166.174107 
L 560.372727 128.000284 
" clip-path="url(#pe568498bd5)" style="fill: none; stroke-dasharray: 3.7,1.6; stroke-dashoffset: 0; stroke: #d62728; stroke-opacity: 0.6"/>
   </g>
   <g id="line2d_17">
    <path d="M 103.827273 90.959723 
L 138.946154 95.496087 
L 174.065035 100.433415 
L 209.183916 100.485275 
L 244.302797 99.058751 
L 279.421678 238.639277 
L 314.540559 212.846377 
L 349.659441 285.361199 
L 384.778322 289.045184 
L 419.897203 258.910502 
L 455.016084 223.720426 
L 490.134965 185.713348 
L 525.253846 143.699608 
L 560.372727 103.41658 
" clip-path="url(#pe568498bd5)" style="fill: none; stroke-dasharray: 3.7,1.6; stroke-dashoffset: 0; stroke: #9467bd; stroke-opacity: 0.6"/>
   </g>
   <g id="line2d_18">
    <path d="M 103.827273 90.959723 
L 138.946154 98.939257 
L 174.065035 91.725199 
L 209.183916 89.938788 
L 244.302797 87.026088 
L 279.421678 216.072684 
L 314.540559 186.615682 
L 349.659441 263.325075 
L 384.778322 265.503699 
L 419.897203 237.113101 
L 455.016084 201.800001 
L 490.134965 166.687019 
L 525.253846 124.457114 
L 560.372727 81.138711 
" clip-path="url(#pe568498bd5)" style="fill: none; stroke-dasharray: 3.7,1.6; stroke-dashoffset: 0; stroke: #8c564b; stroke-opacity: 0.6"/>
   </g>
   <g id="line2d_19">
    <path d="M 103.827273 90.959723 
L 138.946154 96.261326 
L 174.065035 90.149487 
L 209.183916 89.411341 
L 244.302797 75.91599 
L 279.421678 206.633532 
L 314.540559 187.638598 
L 349.659441 264.701715 
L 384.778322 268.564772 
L 419.897203 236.374723 
L 455.016084 198.470437 
L 490.134965 159.378234 
L 525.253846 123.83641 
L 560.372727 82.306163 
" clip-path="url(#pe568498bd5)" style="fill: none; stroke-dasharray: 3.7,1.6; stroke-dashoffset: 0; stroke: #e377c2; stroke-opacity: 0.6"/>
   </g>
   <g id="line2d_20">
    <path d="M 103.827273 90.959723 
L 138.946154 86.554148 
L 174.065035 79.105902 
L 209.183916 76.720765 
L 244.302797 74.980052 
L 279.421678 213.813711 
L 314.540559 186.708241 
L 349.659441 263.861126 
L 384.778322 266.535917 
L 419.897203 234.752267 
L 455.016084 203.244548 
L 490.134965 168.080636 
L 525.253846 127.477838 
L 560.372727 93.47347 
" clip-path="url(#pe568498bd5)" style="fill: none; stroke-dasharray: 3.7,1.6; stroke-dashoffset: 0; stroke: #7f7f7f; stroke-opacity: 0.6"/>
   </g>
   <g id="line2d_21">
    <path d="M 103.827273 90.959723 
L 138.946154 93.215485 
L 174.065035 91.957759 
L 209.183916 92.220552 
L 244.302797 83.120472 
L 279.421678 206.828301 
L 314.540559 188.936051 
L 349.659441 264.274037 
L 384.778322 268.809891 
L 419.897203 244.111884 
L 455.016084 214.183482 
L 490.134965 184.297406 
L 525.253846 156.314021 
L 560.372727 125.080956 
" clip-path="url(#pe568498bd5)" style="fill: none; stroke-dasharray: 3.7,1.6; stroke-dashoffset: 0; stroke: #bcbd22; stroke-opacity: 0.6"/>
   </g>
   <g id="line2d_22">
    <path d="M 103.827273 90.959723 
L 138.946154 93.828514 
L 174.065035 89.269828 
L 209.183916 90.785539 
L 244.302797 80.05905 
L 279.421678 216.757109 
L 314.540559 192.860271 
L 349.659441 266.424754 
L 384.778322 271.568403 
L 419.897203 247.333191 
L 455.016084 216.147685 
L 490.134965 178.103165 
L 525.253846 140.427137 
L 560.372727 103.780537 
" clip-path="url(#pe568498bd5)" style="fill: none; stroke-dasharray: 3.7,1.6; stroke-dashoffset: 0; stroke: #17becf; stroke-opacity: 0.6"/>
   </g>
   <g id="line2d_23">
    <path d="M 103.827273 90.959723 
L 138.946154 94.953873 
L 174.065035 100.356437 
L 209.183916 101.497029 
L 244.302797 93.707658 
L 279.421678 229.563965 
L 314.540559 203.096989 
L 349.659441 277.589503 
L 384.778322 279.287657 
L 419.897203 250.736476 
L 455.016084 215.923962 
L 490.134965 177.123622 
L 525.253846 135.79012 
L 560.372727 98.47863 
" clip-path="url(#pe568498bd5)" style="fill: none; stroke-dasharray: 3.7,1.6; stroke-dashoffset: 0; stroke: #1f77b4; stroke-opacity: 0.6"/>
   </g>
   <g id="line2d_24">
    <path d="M 103.827273 90.959723 
L 138.946154 96.135395 
L 174.065035 90.229837 
L 209.183916 81.0015 
L 244.302797 80.562659 
L 279.421678 214.912907 
L 314.540559 181.025516 
L 349.659441 258.658406 
L 384.778322 261.076567 
L 419.897203 226.678591 
L 455.016084 193.167251 
L 490.134965 149.036748 
L 525.253846 111.223858 
L 560.372727 76.08541 
" clip-path="url(#pe568498bd5)" style="fill: none; stroke-dasharray: 3.7,1.6; stroke-dashoffset: 0; stroke: #ff7f0e; stroke-opacity: 0.6"/>
   </g>
   <g id="line2d_25">
    <path d="M 103.827273 90.959723 
L 138.946154 100.349153 
L 174.065035 103.647978 
L 209.183916 97.401062 
L 244.302797 82.444071 
L 279.421678 208.832156 
L 314.540559 188.85605 
L 349.659441 264.945555 
L 384.778322 269.218848 
L 419.897203 237.780898 
L 455.016084 206.663299 
L 490.134965 165.033632 
L 525.253846 133.593008 
L 560.372727 99.988062 
" clip-path="url(#pe568498bd5)" style="fill: none; stroke-dasharray: 3.7,1.6; stroke-dashoffset: 0; stroke: #2ca02c; stroke-opacity: 0.6"/>
   </g>
   <g id="line2d_26">
    <path d="M 103.827273 90.959723 
L 138.946154 99.240189 
L 174.065035 101.300399 
L 209.183916 106.073231 
L 244.302797 92.348227 
L 279.421678 231.08549 
L 314.540559 211.995323 
L 349.659441 284.713402 
L 384.778322 290.603221 
L 419.897203 267.941162 
L 455.016084 240.795808 
L 490.134965 211.063454 
L 525.253846 173.904059 
L 560.372727 138.98759 
" clip-path="url(#pe568498bd5)" style="fill: none; stroke-dasharray: 3.7,1.6; stroke-dashoffset: 0; stroke: #d62728; stroke-opacity: 0.6"/>
   </g>
   <g id="line2d_27">
    <path d="M 103.827273 90.959723 
L 138.946154 99.076235 
L 174.065035 97.903857 
L 209.183916 97.037571 
L 244.302797 85.32084 
L 279.421678 213.774059 
L 314.540559 182.380993 
L 349.659441 259.844463 
L 384.778322 261.788783 
L 419.897203 234.338426 
L 455.016084 191.795029 
L 490.134965 158.198107 
L 525.253846 124.747 
L 560.372727 89.747623 
" clip-path="url(#pe568498bd5)" style="fill: none; stroke-dasharray: 3.7,1.6; stroke-dashoffset: 0; stroke: #9467bd; stroke-opacity: 0.6"/>
   </g>
   <g id="line2d_28">
    <path d="M 103.827273 90.959723 
L 138.946154 95.061432 
L 174.065035 100.082132 
L 209.183916 102.746342 
L 244.302797 102.322966 
L 279.421678 237.251823 
L 314.540559 214.763254 
L 349.659441 287.064237 
L 384.778322 291.182296 
L 419.897203 261.921226 
L 455.016084 228.989774 
L 490.134965 190.385715 
L 525.253846 146.299398 
L 560.372727 102.649946 
" clip-path="url(#pe568498bd5)" style="fill: none; stroke-dasharray: 3.7,1.6; stroke-dashoffset: 0; stroke: #8c564b; stroke-opacity: 0.6"/>
   </g>
   <g id="line2d_29">
    <path d="M 103.827273 90.959723 
L 138.946154 95.162828 
L 174.065035 92.811138 
L 209.183916 87.402254 
L 244.302797 82.965587 
L 279.421678 206.269226 
L 314.540559 183.595772 
L 349.659441 262.62972 
L 384.778322 265.462187 
L 419.897203 231.771078 
L 455.016084 199.77696 
L 490.134965 163.768156 
L 525.253846 129.886812 
L 560.372727 90.996936 
" clip-path="url(#pe568498bd5)" style="fill: none; stroke-dasharray: 3.7,1.6; stroke-dashoffset: 0; stroke: #e377c2; stroke-opacity: 0.6"/>
   </g>
   <g id="line2d_30">
    <path d="M 103.827273 90.959723 
L 138.946154 100.255431 
L 174.065035 96.735824 
L 209.183916 96.724777 
L 244.302797 95.078135 
L 279.421678 229.853852 
L 314.540559 203.890833 
L 349.659441 277.123336 
L 384.778322 278.972538 
L 419.897203 246.918652 
L 455.016084 213.086379 
L 490.134965 177.734557 
L 525.253846 142.611226 
L 560.372727 94.697085 
" clip-path="url(#pe568498bd5)" style="fill: none; stroke-dasharray: 3.7,1.6; stroke-dashoffset: 0; stroke: #7f7f7f; stroke-opacity: 0.6"/>
   </g>
   <g id="line2d_31">
    <path d="M 103.827273 90.959723 
L 138.946154 97.439476 
L 174.065035 98.902122 
L 209.183916 99.307242 
L 244.302797 96.51559 
L 279.421678 229.516523 
L 314.540559 207.902147 
L 349.659441 280.71546 
L 384.778322 285.492014 
L 419.897203 262.412742 
L 455.016084 231.716193 
L 490.134965 196.150998 
L 525.253846 161.381274 
L 560.372727 126.021197 
" clip-path="url(#pe568498bd5)" style="fill: none; stroke-dasharray: 3.7,1.6; stroke-dashoffset: 0; stroke: #bcbd22; stroke-opacity: 0.6"/>
   </g>
   <g id="line2d_32">
    <path d="M 103.827273 90.959723 
L 138.946154 95.966556 
L 174.065035 93.803705 
L 209.183916 95.980817 
L 244.302797 87.803536 
L 279.421678 224.734737 
L 314.540559 206.581903 
L 349.659441 280.481505 
L 384.778322 283.543159 
L 419.897203 256.494318 
L 455.016084 222.658788 
L 490.134965 186.321842 
L 525.253846 146.501958 
L 560.372727 109.70931 
" clip-path="url(#pe568498bd5)" style="fill: none; stroke-dasharray: 3.7,1.6; stroke-dashoffset: 0; stroke: #17becf; stroke-opacity: 0.6"/>
   </g>
   <g id="line2d_33">
    <path d="M 103.827273 90.959723 
L 138.946154 95.360155 
L 174.065035 86.482478 
L 209.183916 82.772795 
L 244.302797 64.692869 
L 279.421678 202.797335 
L 314.540559 179.782366 
L 349.659441 256.254548 
L 384.778322 258.101308 
L 419.897203 227.602436 
L 455.016084 197.179495 
L 490.134965 165.959105 
L 525.253846 124.194204 
L 560.372727 82.576979 
" clip-path="url(#pe568498bd5)" style="fill: none; stroke-dasharray: 3.7,1.6; stroke-dashoffset: 0; stroke: #1f77b4; stroke-opacity: 0.6"/>
   </g>
   <g id="line2d_34">
    <path d="M 103.827273 90.959723 
L 138.946154 100.520782 
L 174.065035 99.180148 
L 209.183916 96.130237 
L 244.302797 87.940165 
L 279.421678 226.963012 
L 314.540559 207.060396 
L 349.659441 281.052324 
L 384.778322 285.00387 
L 419.897203 251.775788 
L 455.016084 217.250485 
L 490.134965 184.330429 
L 525.253846 146.616726 
L 560.372727 107.19952 
" clip-path="url(#pe568498bd5)" style="fill: none; stroke-dasharray: 3.7,1.6; stroke-dashoffset: 0; stroke: #ff7f0e; stroke-opacity: 0.6"/>
   </g>
   <g id="line2d_35">
    <path d="M 103.827273 90.959723 
L 138.946154 98.878442 
L 174.065035 95.37744 
L 209.183916 89.779833 
L 244.302797 88.914011 
L 279.421678 225.596372 
L 314.540559 204.46921 
L 349.659441 278.958468 
L 384.778322 282.516523 
L 419.897203 256.897228 
L 455.016084 225.089507 
L 490.134965 190.937696 
L 525.253846 153.461321 
L 560.372727 110.925832 
" clip-path="url(#pe568498bd5)" style="fill: none; stroke-dasharray: 3.7,1.6; stroke-dashoffset: 0; stroke: #2ca02c; stroke-opacity: 0.6"/>
   </g>
   <g id="line2d_36">
    <path d="M 103.827273 90.959723 
L 138.946154 94.82736 
L 174.065035 100.222134 
L 209.183916 105.615786 
L 244.302797 105.768926 
L 279.421678 235.391226 
L 314.540559 208.320058 
L 349.659441 280.680809 
L 384.778322 286.850165 
L 419.897203 258.277822 
L 455.016084 231.144444 
L 490.134965 198.262761 
L 525.253846 154.900869 
L 560.372727 117.330888 
" clip-path="url(#pe568498bd5)" style="fill: none; stroke-dasharray: 3.7,1.6; stroke-dashoffset: 0; stroke: #d62728; stroke-opacity: 0.6"/>
   </g>
   <g id="line2d_37">
    <path d="M 103.827273 90.959723 
L 138.946154 97.063775 
L 174.065035 91.813804 
L 209.183916 79.157065 
L 244.302797 75.117379 
L 279.421678 205.412591 
L 314.540559 185.849047 
L 349.659441 262.152739 
L 384.778322 265.171719 
L 419.897203 237.105543 
L 455.016084 202.9785 
L 490.134965 167.739237 
L 525.253846 135.95547 
L 560.372727 105.200084 
" clip-path="url(#pe568498bd5)" style="fill: none; stroke-dasharray: 3.7,1.6; stroke-dashoffset: 0; stroke: #9467bd; stroke-opacity: 0.6"/>
   </g>
   <g id="line2d_38">
    <path d="M 103.827273 90.959723 
L 138.946154 88.086603 
L 174.065035 83.45187 
L 209.183916 78.865202 
L 244.302797 69.474887 
L 279.421678 203.25199 
L 314.540559 180.377022 
L 349.659441 256.202106 
L 384.778322 256.980252 
L 419.897203 230.724092 
L 455.016084 194.917382 
L 490.134965 161.327669 
L 525.253846 121.665926 
L 560.372727 85.379097 
" clip-path="url(#pe568498bd5)" style="fill: none; stroke-dasharray: 3.7,1.6; stroke-dashoffset: 0; stroke: #8c564b; stroke-opacity: 0.6"/>
   </g>
   <g id="line2d_39">
    <path d="M 103.827273 90.959723 
L 138.946154 95.096316 
L 174.065035 100.980396 
L 209.183916 100.061202 
L 244.302797 94.567898 
L 279.421678 228.604306 
L 314.540559 204.638049 
L 349.659441 279.661381 
L 384.778322 282.75699 
L 419.897203 249.002275 
L 455.016084 214.298599 
L 490.134965 176.117566 
L 525.253846 138.956892 
L 560.372727 101.2097 
" clip-path="url(#pe568498bd5)" style="fill: none; stroke-dasharray: 3.7,1.6; stroke-dashoffset: 0; stroke: #e377c2; stroke-opacity: 0.6"/>
   </g>
   <g id="line2d_40">
    <path d="M 103.827273 90.959723 
L 138.946154 101.121834 
L 174.065035 104.52845 
L 209.183916 104.885547 
L 244.302797 102.733784 
L 279.421678 234.463427 
L 314.540559 212.682073 
L 349.659441 286.343533 
L 384.778322 291.366251 
L 419.897203 265.220208 
L 455.016084 235.755415 
L 490.134965 204.754445 
L 525.253846 168.974132 
L 560.372727 133.608124 
" clip-path="url(#pe568498bd5)" style="fill: none; stroke-dasharray: 3.7,1.6; stroke-dashoffset: 0; stroke: #7f7f7f; stroke-opacity: 0.6"/>
   </g>
   <g id="line2d_41">
    <path d="M 103.827273 90.959723 
L 138.946154 92.227454 
L 174.065035 98.666306 
L 209.183916 99.761548 
L 244.302797 96.931872 
L 279.421678 237.006124 
L 314.540559 214.277668 
L 349.659441 286.559698 
L 384.778322 290.826363 
L 419.897203 266.049285 
L 455.016084 232.563526 
L 490.134965 197.63136 
L 525.253846 161.287088 
L 560.372727 122.566981 
" clip-path="url(#pe568498bd5)" style="fill: none; stroke-dasharray: 3.7,1.6; stroke-dashoffset: 0; stroke: #bcbd22; stroke-opacity: 0.6"/>
   </g>
   <g id="line2d_42">
    <path d="M 103.827273 90.959723 
L 138.946154 100.010429 
L 174.065035 100.957605 
L 209.183916 94.872552 
L 244.302797 84.844092 
L 279.421678 214.793952 
L 314.540559 190.043154 
L 349.659441 264.989741 
L 384.778322 269.255127 
L 419.897203 234.570637 
L 455.016084 200.377081 
L 490.134965 157.512171 
L 525.253846 117.305307 
L 560.372727 84.449088 
" clip-path="url(#pe568498bd5)" style="fill: none; stroke-dasharray: 3.7,1.6; stroke-dashoffset: 0; stroke: #17becf; stroke-opacity: 0.6"/>
   </g>
   <g id="line2d_43">
    <path d="M 103.827273 90.959723 
L 138.946154 91.169421 
L 174.065035 91.26159 
L 209.183916 92.373111 
L 244.302797 89.716111 
L 279.421678 231.095607 
L 314.540559 215.001512 
L 349.659441 288.923904 
L 384.778322 295.674777 
L 419.897203 272.486783 
L 455.016084 235.458319 
L 490.134965 203.945485 
L 525.253846 170.789962 
L 560.372727 125.842009 
" clip-path="url(#pe568498bd5)" style="fill: none; stroke-dasharray: 3.7,1.6; stroke-dashoffset: 0; stroke: #1f77b4; stroke-opacity: 0.6"/>
   </g>
   <g id="line2d_44">
    <path d="M 103.827273 90.959723 
L 138.946154 95.008524 
L 174.065035 89.474249 
L 209.183916 90.15972 
L 244.302797 86.942831 
L 279.421678 210.23147 
L 314.540559 190.063735 
L 349.659441 266.339404 
L 384.778322 271.004677 
L 419.897203 245.655734 
L 455.016084 215.073489 
L 490.134965 175.084069 
L 525.253846 136.829315 
L 560.372727 97.818392 
" clip-path="url(#pe568498bd5)" style="fill: none; stroke-dasharray: 3.7,1.6; stroke-dashoffset: 0; stroke: #ff7f0e; stroke-opacity: 0.6"/>
   </g>
   <g id="line2d_45">
    <path d="M 103.827273 90.959723 
L 138.946154 95.893532 
L 174.065035 100.71365 
L 209.183916 101.948428 
L 244.302797 93.946614 
L 279.421678 229.426522 
L 314.540559 204.152463 
L 349.659441 279.035213 
L 384.778322 281.931634 
L 419.897203 247.119933 
L 455.016084 210.192168 
L 490.134965 175.945356 
L 525.253846 142.366922 
L 560.372727 104.281588 
" clip-path="url(#pe568498bd5)" style="fill: none; stroke-dasharray: 3.7,1.6; stroke-dashoffset: 0; stroke: #2ca02c; stroke-opacity: 0.6"/>
   </g>
   <g id="line2d_46">
    <path d="M 103.827273 90.959723 
L 138.946154 97.100171 
L 174.065035 96.845244 
L 209.183916 92.537648 
L 244.302797 79.36323 
L 279.421678 207.102722 
L 314.540559 183.372746 
L 349.659441 261.893086 
L 384.778322 264.464039 
L 419.897203 235.264829 
L 455.016084 205.258636 
L 490.134965 172.512186 
L 525.253846 130.302514 
L 560.372727 85.155374 
" clip-path="url(#pe568498bd5)" style="fill: none; stroke-dasharray: 3.7,1.6; stroke-dashoffset: 0; stroke: #d62728; stroke-opacity: 0.6"/>
   </g>
   <g id="line2d_47">
    <path d="M 103.827273 90.959723 
L 138.946154 93.173276 
L 174.065035 92.731487 
L 209.183916 90.686352 
L 244.302797 73.457248 
L 279.421678 213.750222 
L 314.540559 190.165945 
L 349.659441 266.881851 
L 384.778322 270.696186 
L 419.897203 244.421189 
L 455.016084 214.132202 
L 490.134965 181.621568 
L 525.253846 151.027346 
L 560.372727 116.670185 
" clip-path="url(#pe568498bd5)" style="fill: none; stroke-dasharray: 3.7,1.6; stroke-dashoffset: 0; stroke: #9467bd; stroke-opacity: 0.6"/>
   </g>
   <g id="line2d_48">
    <path d="M 103.827273 90.959723 
L 138.946154 97.318545 
L 174.065035 99.758641 
L 209.183916 97.315364 
L 244.302797 96.721987 
L 279.421678 230.320832 
L 314.540559 202.951523 
L 349.659441 276.674843 
L 384.778322 281.991285 
L 419.897203 253.64499 
L 455.016084 217.266881 
L 490.134965 179.838297 
L 525.253846 136.91792 
L 560.372727 101.865869 
" clip-path="url(#pe568498bd5)" style="fill: none; stroke-dasharray: 3.7,1.6; stroke-dashoffset: 0; stroke: #8c564b; stroke-opacity: 0.6"/>
   </g>
   <g id="line2d_49">
    <path d="M 103.827273 90.959723 
L 138.946154 94.993175 
L 174.065035 99.861433 
L 209.183916 102.51041 
L 244.302797 102.746691 
L 279.421678 240.679877 
L 314.540559 215.654308 
L 349.659441 287.765987 
L 384.778322 293.23871 
L 419.897203 269.244895 
L 455.016084 238.647998 
L 490.134965 201.175926 
L 525.253846 162.55175 
L 560.372727 122.065814 
" clip-path="url(#pe568498bd5)" style="fill: none; stroke-dasharray: 3.7,1.6; stroke-dashoffset: 0; stroke: #e377c2; stroke-opacity: 0.6"/>
   </g>
   <g id="line2d_50">
    <path d="M 103.827273 90.959723 
L 138.946154 99.347167 
L 174.065035 100.819813 
L 209.183916 98.072115 
L 244.302797 84.641416 
L 279.421678 220.35435 
L 314.540559 190.571414 
L 349.659441 265.653584 
L 384.778322 269.167568 
L 419.897203 239.153235 
L 455.016084 207.552028 
L 490.134965 171.420665 
L 525.253846 132.365439 
L 560.372727 100.357367 
" clip-path="url(#pe568498bd5)" style="fill: none; stroke-dasharray: 3.7,1.6; stroke-dashoffset: 0; stroke: #7f7f7f; stroke-opacity: 0.6"/>
   </g>
   <g id="line2d_51">
    <path d="M 103.827273 90.959723 
L 138.946154 100.512759 
L 174.065035 93.710797 
L 209.183916 86.671899 
L 244.302797 77.182397 
L 279.421678 211.988346 
L 314.540559 188.804771 
L 349.659441 264.896368 
L 384.778322 268.759193 
L 419.897203 242.921757 
L 455.016084 209.645651 
L 490.134965 177.845023 
L 525.253846 148.29709 
L 560.372727 110.120825 
" clip-path="url(#pe568498bd5)" style="fill: none; stroke-dasharray: 3.7,1.6; stroke-dashoffset: 0; stroke: #bcbd22; stroke-opacity: 0.6"/>
   </g>
   <g id="line2d_52">
    <path d="M 103.827273 90.959723 
L 138.946154 94.079563 
L 174.065035 98.402932 
L 209.183916 96.638032 
L 244.302797 94.875924 
L 279.421678 223.390772 
L 314.540559 202.760591 
L 349.659441 276.373213 
L 384.778322 282.464662 
L 419.897203 255.09698 
L 455.016084 223.468214 
L 490.134965 190.377575 
L 525.253846 153.387949 
L 560.372727 118.071825 
" clip-path="url(#pe568498bd5)" style="fill: none; stroke-dasharray: 3.7,1.6; stroke-dashoffset: 0; stroke: #17becf; stroke-opacity: 0.6"/>
   </g>
   <g id="line2d_53">
    <path d="M 103.827273 90.959723 
L 138.946154 87.485551 
L 174.065035 87.521673 
L 209.183916 79.230671 
L 244.302797 76.845766 
L 279.421678 209.654954 
L 314.540559 186.863475 
L 349.659441 263.019375 
L 384.778322 266.535452 
L 419.897203 232.628876 
L 455.016084 193.326089 
L 490.134965 159.274512 
L 525.253846 120.963595 
L 560.372727 86.758644 
" clip-path="url(#pe568498bd5)" style="fill: none; stroke-dasharray: 3.7,1.6; stroke-dashoffset: 0; stroke: #1f77b4; stroke-opacity: 0.6"/>
   </g>
   <g id="line2d_54">
    <path d="M 103.827273 90.959723 
L 138.946154 94.331309 
L 174.065035 97.718391 
L 209.183916 98.031766 
L 244.302797 88.695056 
L 279.421678 223.687286 
L 314.540559 205.839455 
L 349.659441 279.363123 
L 384.778322 285.322594 
L 419.897203 258.823524 
L 455.016084 228.496747 
L 490.134965 195.26913 
L 525.253846 159.926494 
L 560.372727 128.056099 
" clip-path="url(#pe568498bd5)" style="fill: none; stroke-dasharray: 3.7,1.6; stroke-dashoffset: 0; stroke: #ff7f0e; stroke-opacity: 0.6"/>
   </g>
   <g id="line2d_55">
    <path d="M 103.827273 90.959723 
L 138.946154 95.32969 
L 174.065035 100.250622 
L 209.183916 98.775377 
L 244.302797 98.006068 
L 279.421678 235.56832 
L 314.540559 221.319823 
L 349.659441 294.081391 
L 384.778322 302.08402 
L 419.897203 276.771705 
L 455.016084 245.91876 
L 490.134965 207.314119 
L 525.253846 173.517311 
L 560.372727 134.883484 
" clip-path="url(#pe568498bd5)" style="fill: none; stroke-dasharray: 3.7,1.6; stroke-dashoffset: 0; stroke: #2ca02c; stroke-opacity: 0.6"/>
   </g>
   <g id="line2d_56">
    <path d="M 103.827273 90.959723 
L 138.946154 96.7254 
L 174.065035 96.072097 
L 209.183916 95.788374 
L 244.302797 95.526279 
L 279.421678 227.931044 
L 314.540559 208.611572 
L 349.659441 281.453257 
L 384.778322 287.641219 
L 419.897203 263.406355 
L 455.016084 225.356719 
L 490.134965 189.953967 
L 525.253846 151.927238 
L 560.372727 110.621643 
" clip-path="url(#pe568498bd5)" style="fill: none; stroke-dasharray: 3.7,1.6; stroke-dashoffset: 0; stroke: #d62728; stroke-opacity: 0.6"/>
   </g>
   <g id="line2d_57">
    <path d="M 103.827273 90.959723 
L 138.946154 91.661867 
L 174.065035 89.006221 
L 209.183916 87.817025 
L 244.302797 75.048308 
L 279.421678 216.367803 
L 314.540559 196.589141 
L 349.659441 272.758995 
L 384.778322 278.183926 
L 419.897203 250.188681 
L 455.016084 214.546043 
L 490.134965 178.973522 
L 525.253846 143.006811 
L 560.372727 109.018722 
" clip-path="url(#pe568498bd5)" style="fill: none; stroke-dasharray: 3.7,1.6; stroke-dashoffset: 0; stroke: #9467bd; stroke-opacity: 0.6"/>
   </g>
   <g id="line2d_58">
    <path d="M 103.827273 90.959723 
L 138.946154 92.507921 
L 174.065035 88.235982 
L 209.183916 83.78292 
L 244.302797 75.417265 
L 279.421678 206.365622 
L 314.540559 183.927867 
L 349.659441 259.099806 
L 384.778322 263.038677 
L 419.897203 230.711301 
L 455.016084 197.155076 
L 490.134965 159.673701 
L 525.253846 125.020839 
L 560.372727 87.866444 
" clip-path="url(#pe568498bd5)" style="fill: none; stroke-dasharray: 3.7,1.6; stroke-dashoffset: 0; stroke: #8c564b; stroke-opacity: 0.6"/>
   </g>
   <g id="line2d_59">
    <path d="M 103.827273 90.959723 
L 138.946154 97.241218 
L 174.065035 102.528549 
L 209.183916 103.475651 
L 244.302797 99.635501 
L 279.421678 235.239248 
L 314.540559 219.052361 
L 349.659441 292.071257 
L 384.778322 298.470965 
L 419.897203 273.844237 
L 455.016084 244.358862 
L 490.134965 215.152444 
L 525.253846 174.104991 
L 560.372727 140.4083 
" clip-path="url(#pe568498bd5)" style="fill: none; stroke-dasharray: 3.7,1.6; stroke-dashoffset: 0; stroke: #e377c2; stroke-opacity: 0.6"/>
   </g>
   <g id="line2d_60">
    <path d="M 103.827273 90.959723 
L 138.946154 94.488636 
L 174.065035 97.907927 
L 209.183916 96.187447 
L 244.302797 82.5857 
L 279.421678 215.834775 
L 314.540559 189.633964 
L 349.659441 264.944392 
L 384.778322 269.980948 
L 419.897203 236.915541 
L 455.016084 205.795036 
L 490.134965 173.298705 
L 525.253846 138.016302 
L 560.372727 101.743542 
" clip-path="url(#pe568498bd5)" style="fill: none; stroke-dasharray: 3.7,1.6; stroke-dashoffset: 0; stroke: #7f7f7f; stroke-opacity: 0.6"/>
   </g>
   <g id="line2d_61">
    <path d="M 103.827273 90.959723 
L 138.946154 99.219375 
L 174.065035 99.811665 
L 209.183916 103.145531 
L 244.302797 100.847255 
L 279.421678 233.765049 
L 314.540559 213.60336 
L 349.659441 286.585977 
L 384.778322 291.980094 
L 419.897203 269.95025 
L 455.016084 241.281742 
L 490.134965 211.661483 
L 525.253846 176.442104 
L 560.372727 141.247958 
" clip-path="url(#pe568498bd5)" style="fill: none; stroke-dasharray: 3.7,1.6; stroke-dashoffset: 0; stroke: #bcbd22; stroke-opacity: 0.6"/>
   </g>
   <g id="line2d_62">
    <path d="M 103.827273 90.959723 
L 138.946154 99.585309 
L 174.065035 98.635376 
L 209.183916 94.330222 
L 244.302797 86.835156 
L 279.421678 215.089303 
L 314.540559 191.047814 
L 349.659441 266.209403 
L 384.778322 270.223159 
L 419.897203 246.434113 
L 455.016084 211.701018 
L 490.134965 180.230277 
L 525.253846 147.213011 
L 560.372727 110.200012 
" clip-path="url(#pe568498bd5)" style="fill: none; stroke-dasharray: 3.7,1.6; stroke-dashoffset: 0; stroke: #17becf; stroke-opacity: 0.6"/>
   </g>
   <g id="line2d_63">
    <path d="M 103.827273 90.959723 
L 138.946154 99.987638 
L 174.065035 99.881666 
L 209.183916 99.526081 
L 244.302797 100.385623 
L 279.421678 239.373005 
L 314.540559 225.700908 
L 349.659441 298.297707 
L 384.778322 306.239172 
L 419.897203 284.479679 
L 455.016084 250.816361 
L 490.134965 219.825392 
L 525.253846 188.637909 
L 560.372727 155.163197 
" clip-path="url(#pe568498bd5)" style="fill: none; stroke-dasharray: 3.7,1.6; stroke-dashoffset: 0; stroke: #1f77b4; stroke-opacity: 0.6"/>
   </g>
   <g id="line2d_64">
    <path d="M 103.827273 90.959723 
L 138.946154 100.083685 
L 174.065035 95.414533 
L 209.183916 89.157037 
L 244.302797 89.501575 
L 279.421678 224.953576 
L 314.540559 199.215792 
L 349.659441 273.791911 
L 384.778322 280.027547 
L 419.897203 256.525132 
L 455.016084 223.816473 
L 490.134965 195.694599 
L 525.253846 159.866145 
L 560.372727 124.751767 
" clip-path="url(#pe568498bd5)" style="fill: none; stroke-dasharray: 3.7,1.6; stroke-dashoffset: 0; stroke: #ff7f0e; stroke-opacity: 0.6"/>
   </g>
   <g id="line2d_65">
    <path d="M 103.827273 90.959723 
L 138.946154 93.814328 
L 174.065035 93.624866 
L 209.183916 94.672201 
L 244.302797 92.923116 
L 279.421678 227.845578 
L 314.540559 207.466795 
L 349.659441 281.681864 
L 384.778322 287.073423 
L 419.897203 262.09239 
L 455.016084 232.288757 
L 490.134965 192.592478 
L 525.253846 151.362582 
L 560.372727 103.592861 
" clip-path="url(#pe568498bd5)" style="fill: none; stroke-dasharray: 3.7,1.6; stroke-dashoffset: 0; stroke: #2ca02c; stroke-opacity: 0.6"/>
   </g>
   <g id="line2d_66">
    <path d="M 103.827273 90.959723 
L 138.946154 98.997048 
L 174.065035 100.125156 
L 209.183916 87.454812 
L 244.302797 72.810149 
L 279.421678 212.261372 
L 314.540559 189.244426 
L 349.659441 264.343456 
L 384.778322 269.065242 
L 419.897203 245.222242 
L 455.016084 218.002236 
L 490.134965 185.118227 
L 525.253846 155.439129 
L 560.372727 116.035063 
" clip-path="url(#pe568498bd5)" style="fill: none; stroke-dasharray: 3.7,1.6; stroke-dashoffset: 0; stroke: #d62728; stroke-opacity: 0.6"/>
   </g>
   <g id="line2d_67">
    <path d="M 103.827273 90.959723 
L 138.946154 97.162846 
L 174.065035 104.089493 
L 209.183916 104.479264 
L 244.302797 101.156909 
L 279.421678 231.473052 
L 314.540559 202.577915 
L 349.659441 276.566703 
L 384.778322 282.649314 
L 419.897203 251.246132 
L 455.016084 210.244842 
L 490.134965 182.174247 
L 525.253846 147.65755 
L 560.372727 115.865527 
" clip-path="url(#pe568498bd5)" style="fill: none; stroke-dasharray: 3.7,1.6; stroke-dashoffset: 0; stroke: #9467bd; stroke-opacity: 0.6"/>
   </g>
   <g id="line2d_68">
    <path d="M 103.827273 90.959723 
L 138.946154 93.572 
L 174.065035 88.431798 
L 209.183916 78.061009 
L 244.302797 75.269938 
L 279.421678 205.94213 
L 314.540559 185.306135 
L 349.659441 261.756922 
L 384.778322 265.060904 
L 419.897203 237.617873 
L 455.016084 204.170719 
L 490.134965 167.892146 
L 525.253846 133.664636 
L 560.372727 99.622826 
" clip-path="url(#pe568498bd5)" style="fill: none; stroke-dasharray: 3.7,1.6; stroke-dashoffset: 0; stroke: #8c564b; stroke-opacity: 0.6"/>
   </g>
   <g id="line2d_69">
    <path d="M 103.827273 90.959723 
L 138.946154 101.239393 
L 174.065035 99.393987 
L 209.183916 102.644946 
L 244.302797 94.903134 
L 279.421678 229.343614 
L 314.540559 211.450202 
L 349.659441 285.105848 
L 384.778322 290.944387 
L 419.897203 268.892101 
L 455.016084 235.83716 
L 490.134965 195.330874 
L 525.253846 159.218814 
L 560.372727 124.2006 
" clip-path="url(#pe568498bd5)" style="fill: none; stroke-dasharray: 3.7,1.6; stroke-dashoffset: 0; stroke: #e377c2; stroke-opacity: 0.6"/>
   </g>
   <g id="line2d_70">
    <path d="M 103.827273 90.959723 
L 138.946154 100.03415 
L 174.065035 96.645939 
L 209.183916 95.151275 
L 244.302797 88.483426 
L 279.421678 226.703475 
L 314.540559 207.07121 
L 349.659441 282.251404 
L 384.778322 288.049594 
L 419.897203 258.525266 
L 455.016084 226.620335 
L 490.134965 191.399445 
L 525.253846 159.193813 
L 560.372727 126.782832 
" clip-path="url(#pe568498bd5)" style="fill: none; stroke-dasharray: 3.7,1.6; stroke-dashoffset: 0; stroke: #7f7f7f; stroke-opacity: 0.6"/>
   </g>
   <g id="line2d_71">
    <path d="M 103.827273 90.959723 
L 138.946154 97.141566 
L 174.065035 104.737987 
L 209.183916 100.591207 
L 244.302797 93.75824 
L 279.421678 231.257817 
L 314.540559 211.030547 
L 349.659441 283.983861 
L 384.778322 289.340187 
L 419.897203 265.252767 
L 455.016084 227.681739 
L 490.134965 187.935112 
L 525.253846 148.087204 
L 560.372727 111.093508 
" clip-path="url(#pe568498bd5)" style="fill: none; stroke-dasharray: 3.7,1.6; stroke-dashoffset: 0; stroke: #bcbd22; stroke-opacity: 0.6"/>
   </g>
   <g id="line2d_72">
    <path d="M 103.827273 90.959723 
L 138.946154 91.937218 
L 174.065035 96.76222 
L 209.183916 86.916319 
L 244.302797 77.071931 
L 279.421678 217.108391 
L 314.540559 198.469972 
L 349.659441 276.026349 
L 384.778322 281.180581 
L 419.897203 254.897443 
L 455.016084 216.996413 
L 490.134965 185.519974 
L 525.253846 147.581037 
L 560.372727 115.24994 
" clip-path="url(#pe568498bd5)" style="fill: none; stroke-dasharray: 3.7,1.6; stroke-dashoffset: 0; stroke: #17becf; stroke-opacity: 0.6"/>
   </g>
   <g id="line2d_73">
    <path d="M 103.827273 90.959723 
L 138.946154 96.816912 
L 174.065035 95.921631 
L 209.183916 89.991811 
L 244.302797 82.735818 
L 279.421678 222.627509 
L 314.540559 198.944627 
L 349.659441 275.295529 
L 384.778322 280.532552 
L 419.897203 253.280569 
L 455.016084 223.586122 
L 490.134965 187.101849 
L 525.253846 158.1502 
L 560.372727 129.491227 
" clip-path="url(#pe568498bd5)" style="fill: none; stroke-dasharray: 3.7,1.6; stroke-dashoffset: 0; stroke: #1f77b4; stroke-opacity: 0.6"/>
   </g>
   <g id="line2d_74">
    <path d="M 103.827273 90.959723 
L 138.946154 101.324975 
L 174.065035 106.404746 
L 209.183916 104.591823 
L 244.302797 106.582655 
L 279.421678 235.25669 
L 314.540559 221.465057 
L 349.659441 293.803598 
L 384.778322 301.094592 
L 419.897203 274.01575 
L 455.016084 235.819718 
L 490.134965 200.070335 
L 525.253846 161.737557 
L 560.372727 127.92319 
" clip-path="url(#pe568498bd5)" style="fill: none; stroke-dasharray: 3.7,1.6; stroke-dashoffset: 0; stroke: #ff7f0e; stroke-opacity: 0.6"/>
   </g>
   <g id="line2d_75">
    <path d="M 103.827273 90.959723 
L 138.946154 98.657045 
L 174.065035 105.817066 
L 209.183916 97.968974 
L 244.302797 93.49847 
L 279.421678 228.904192 
L 314.540559 212.745446 
L 349.659441 284.654681 
L 384.778322 292.709403 
L 419.897203 262.627162 
L 455.016084 230.192459 
L 490.134965 199.397073 
L 525.253846 169.587742 
L 560.372727 131.717991 
" clip-path="url(#pe568498bd5)" style="fill: none; stroke-dasharray: 3.7,1.6; stroke-dashoffset: 0; stroke: #2ca02c; stroke-opacity: 0.6"/>
   </g>
   <g id="line2d_76">
    <path d="M 103.827273 90.959723 
L 138.946154 94.822709 
L 174.065035 100.976094 
L 209.183916 101.236096 
L 244.302797 101.763426 
L 279.421678 231.310608 
L 314.540559 205.133635 
L 349.659441 278.498813 
L 384.778322 283.410251 
L 419.897203 259.299459 
L 455.016084 223.096583 
L 490.134965 186.5751 
L 525.253846 152.447475 
L 560.372727 111.95712 
" clip-path="url(#pe568498bd5)" style="fill: none; stroke-dasharray: 3.7,1.6; stroke-dashoffset: 0; stroke: #d62728; stroke-opacity: 0.6"/>
   </g>
   <g id="line2d_77">
    <path d="M 103.827273 90.959723 
L 138.946154 90.494299 
L 174.065035 95.323951 
L 209.183916 97.901881 
L 244.302797 92.045201 
L 279.421678 231.319678 
L 314.540559 213.248939 
L 349.659441 285.998065 
L 384.778322 292.987777 
L 419.897203 271.847127 
L 455.016084 242.853384 
L 490.134965 214.39046 
L 525.253846 185.412648 
L 560.372727 156.007506 
" clip-path="url(#pe568498bd5)" style="fill: none; stroke-dasharray: 3.7,1.6; stroke-dashoffset: 0; stroke: #9467bd; stroke-opacity: 0.6"/>
   </g>
   <g id="line2d_78">
    <path d="M 103.827273 90.959723 
L 138.946154 89.837781 
L 174.065035 88.128423 
L 209.183916 88.860639 
L 244.302797 79.045204 
L 279.421678 201.595929 
L 314.540559 177.391996 
L 349.659441 254.06232 
L 384.778322 258.398404 
L 419.897203 231.834799 
L 455.016084 199.448818 
L 490.134965 163.725714 
L 525.253846 126.214803 
L 560.372727 94.299407 
" clip-path="url(#pe568498bd5)" style="fill: none; stroke-dasharray: 3.7,1.6; stroke-dashoffset: 0; stroke: #8c564b; stroke-opacity: 0.6"/>
   </g>
   <g id="line2d_79">
    <path d="M 103.827273 90.959723 
L 138.946154 85.902631 
L 174.065035 81.080919 
L 209.183916 74.982261 
L 244.302797 65.635668 
L 279.421678 204.089672 
L 314.540559 182.176806 
L 349.659441 257.726421 
L 384.778322 261.602618 
L 419.897203 231.336655 
L 455.016084 201.880583 
L 490.134965 163.572689 
L 525.253846 133.483239 
L 560.372727 96.659195 
" clip-path="url(#pe568498bd5)" style="fill: none; stroke-dasharray: 3.7,1.6; stroke-dashoffset: 0; stroke: #e377c2; stroke-opacity: 0.6"/>
   </g>
   <g id="line2d_80">
    <path d="M 103.827273 90.959723 
L 138.946154 87.927648 
L 174.065035 90.039021 
L 209.183916 85.913171 
L 244.302797 83.18117 
L 279.421678 223.302748 
L 314.540559 203.557574 
L 349.659441 278.351835 
L 384.778322 283.748975 
L 419.897203 258.160495 
L 455.016084 222.615649 
L 490.134965 188.021857 
L 525.253846 155.308431 
L 560.372727 124.511649 
" clip-path="url(#pe568498bd5)" style="fill: none; stroke-dasharray: 3.7,1.6; stroke-dashoffset: 0; stroke: #7f7f7f; stroke-opacity: 0.6"/>
   </g>
   <g id="line2d_81">
    <path d="M 103.827273 90.959723 
L 138.946154 97.929248 
L 174.065035 96.947337 
L 209.183916 81.053128 
L 244.302797 63.932048 
L 279.421678 202.639311 
L 314.540559 173.842547 
L 349.659441 251.814625 
L 384.778322 255.27233 
L 419.897203 221.732385 
L 455.016084 187.66197 
L 490.134965 153.954116 
L 525.253846 111.707234 
L 560.372727 76.038317 
" clip-path="url(#pe568498bd5)" style="fill: none; stroke-dasharray: 3.7,1.6; stroke-dashoffset: 0; stroke: #bcbd22; stroke-opacity: 0.6"/>
   </g>
   <g id="line2d_82">
    <path d="M 103.827273 90.959723 
L 138.946154 95.336667 
L 174.065035 91.116356 
L 209.183916 80.444402 
L 244.302797 75.062611 
L 279.421678 209.003669 
L 314.540559 183.415654 
L 349.659441 261.048544 
L 384.778322 264.264851 
L 419.897203 236.675423 
L 455.016084 201.218019 
L 490.134965 168.378661 
L 525.253846 126.796204 
L 560.372727 80.225563 
" clip-path="url(#pe568498bd5)" style="fill: none; stroke-dasharray: 3.7,1.6; stroke-dashoffset: 0; stroke: #17becf; stroke-opacity: 0.6"/>
   </g>
   <g id="line2d_83">
    <path d="M 103.827273 90.959723 
L 138.946154 96.830982 
L 174.065035 94.955576 
L 209.183916 85.860961 
L 244.302797 73.525737 
L 279.421678 205.518057 
L 314.540559 183.135651 
L 349.659441 260.085977 
L 384.778322 259.653997 
L 419.897203 220.885866 
L 455.016084 180.999121 
L 490.134965 139.41864 
L 525.253846 90.92054 
L 560.372727 55.8 
" clip-path="url(#pe568498bd5)" style="fill: none; stroke-dasharray: 3.7,1.6; stroke-dashoffset: 0; stroke: #1f77b4; stroke-opacity: 0.6"/>
   </g>
   <g id="line2d_84">
    <path d="M 103.827273 90.959723 
L 138.946154 99.327632 
L 174.065035 106.880797 
L 209.183916 107.278823 
L 244.302797 106.776959 
L 279.421678 231.584681 
L 314.540559 214.913837 
L 349.659441 287.353658 
L 384.778322 295.063493 
L 419.897203 273.45435 
L 455.016084 247.030514 
L 490.134965 216.413966 
L 525.253846 188.068485 
L 560.372727 159.544514 
" clip-path="url(#pe568498bd5)" style="fill: none; stroke-dasharray: 3.7,1.6; stroke-dashoffset: 0; stroke: #ff7f0e; stroke-opacity: 0.6"/>
   </g>
   <g id="line2d_85">
    <path d="M 103.827273 90.959723 
L 138.946154 99.717984 
L 174.065035 101.856334 
L 209.183916 91.3588 
L 244.302797 75.804478 
L 279.421678 209.044483 
L 314.540559 181.86378 
L 349.659441 258.627127 
L 384.778322 262.018087 
L 419.897203 234.629126 
L 455.016084 202.983616 
L 490.134965 171.524154 
L 525.253846 125.13898 
L 560.372727 85.144094 
" clip-path="url(#pe568498bd5)" style="fill: none; stroke-dasharray: 3.7,1.6; stroke-dashoffset: 0; stroke: #2ca02c; stroke-opacity: 0.6"/>
   </g>
   <g id="line2d_86">
    <path d="M 103.827273 90.959723 
L 138.946154 98.279483 
L 174.065035 97.472575 
L 209.183916 96.53152 
L 244.302797 88.967151 
L 279.421678 215.530238 
L 314.540559 192.761666 
L 349.659441 267.533368 
L 384.778322 271.062585 
L 419.897203 245.001194 
L 455.016084 210.76194 
L 490.134965 174.546157 
L 525.253846 138.633633 
L 560.372727 96.988501 
" clip-path="url(#pe568498bd5)" style="fill: none; stroke-dasharray: 3.7,1.6; stroke-dashoffset: 0; stroke: #d62728; stroke-opacity: 0.6"/>
   </g>
   <g id="line2d_87">
    <path d="M 103.827273 90.959723 
L 138.946154 92.077452 
L 174.065035 88.473426 
L 209.183916 90.001579 
L 244.302797 82.093137 
L 279.421678 221.209473 
L 314.540559 198.454158 
L 349.659441 273.052951 
L 384.778322 276.49833 
L 419.897203 245.749456 
L 455.016084 212.536374 
L 490.134965 175.102674 
L 525.253846 130.40577 
L 560.372727 95.593372 
" clip-path="url(#pe568498bd5)" style="fill: none; stroke-dasharray: 3.7,1.6; stroke-dashoffset: 0; stroke: #9467bd; stroke-opacity: 0.6"/>
   </g>
   <g id="line2d_88">
    <path d="M 103.827273 90.959723 
L 138.946154 96.497491 
L 174.065035 98.45863 
L 209.183916 99.564802 
L 244.302797 95.588721 
L 279.421678 220.375396 
L 314.540559 194.106329 
L 349.659441 270.450138 
L 384.778322 271.807708 
L 419.897203 243.95037 
L 455.016084 204.352349 
L 490.134965 160.805107 
L 525.253846 116.231227 
L 560.372727 82.040579 
" clip-path="url(#pe568498bd5)" style="fill: none; stroke-dasharray: 3.7,1.6; stroke-dashoffset: 0; stroke: #8c564b; stroke-opacity: 0.6"/>
   </g>
   <g id="line2d_89">
    <path d="M 103.827273 90.959723 
L 138.946154 96.156674 
L 174.065035 101.153886 
L 209.183916 95.787909 
L 244.302797 94.505107 
L 279.421678 235.116572 
L 314.540559 218.646893 
L 349.659441 292.285329 
L 384.778322 299.017016 
L 419.897203 274.85413 
L 455.016084 246.930978 
L 490.134965 205.432242 
L 525.253846 168.974481 
L 560.372727 126.866553 
" clip-path="url(#pe568498bd5)" style="fill: none; stroke-dasharray: 3.7,1.6; stroke-dashoffset: 0; stroke: #e377c2; stroke-opacity: 0.6"/>
   </g>
   <g id="line2d_90">
    <path d="M 103.827273 90.959723 
L 138.946154 91.991056 
L 174.065035 96.335704 
L 209.183916 87.670745 
L 244.302797 83.327218 
L 279.421678 220.282489 
L 314.540559 195.714017 
L 349.659441 271.211656 
L 384.778322 272.161548 
L 419.897203 241.678955 
L 455.016084 202.242447 
L 490.134965 161.156738 
L 525.253846 116.884838 
L 560.372727 75.364474 
" clip-path="url(#pe568498bd5)" style="fill: none; stroke-dasharray: 3.7,1.6; stroke-dashoffset: 0; stroke: #7f7f7f; stroke-opacity: 0.6"/>
   </g>
   <g id="line2d_91">
    <path d="M 103.827273 90.959723 
L 138.946154 96.448188 
L 174.065035 93.405213 
L 209.183916 94.841273 
L 244.302797 90.770423 
L 279.421678 225.309161 
L 314.540559 205.269101 
L 349.659441 278.04439 
L 384.778322 283.08676 
L 419.897203 256.323618 
L 455.016084 224.73683 
L 490.134965 189.9842 
L 525.253846 152.264915 
L 560.372727 116.333903 
" clip-path="url(#pe568498bd5)" style="fill: none; stroke-dasharray: 3.7,1.6; stroke-dashoffset: 0; stroke: #bcbd22; stroke-opacity: 0.6"/>
   </g>
   <g id="line2d_92">
    <path d="M 103.827273 90.959723 
L 138.946154 87.920555 
L 174.065035 81.110803 
L 209.183916 71.085367 
L 244.302797 66.666723 
L 279.421678 191.585493 
L 314.540559 168.34308 
L 349.659441 247.05784 
L 384.778322 249.808794 
L 419.897203 221.380405 
L 455.016084 186.848126 
L 490.134965 151.817237 
L 525.253846 116.618673 
L 560.372727 79.511371 
" clip-path="url(#pe568498bd5)" style="fill: none; stroke-dasharray: 3.7,1.6; stroke-dashoffset: 0; stroke: #17becf; stroke-opacity: 0.6"/>
   </g>
   <g id="line2d_93">
    <path d="M 103.827273 90.959723 
L 138.946154 100.608457 
L 174.065035 102.882041 
L 209.183916 106.803587 
L 244.302797 103.869142 
L 279.421678 236.002859 
L 314.540559 217.655372 
L 349.659441 289.360652 
L 384.778322 294.280812 
L 419.897203 265.623816 
L 455.016084 229.212218 
L 490.134965 196.92147 
L 525.253846 165.572125 
L 560.372727 128.092494 
" clip-path="url(#pe568498bd5)" style="fill: none; stroke-dasharray: 3.7,1.6; stroke-dashoffset: 0; stroke: #1f77b4; stroke-opacity: 0.6"/>
   </g>
   <g id="line2d_94">
    <path d="M 103.827273 90.959723 
L 138.946154 99.219608 
L 174.065035 91.309149 
L 209.183916 93.29405 
L 244.302797 88.810755 
L 279.421678 223.926707 
L 314.540559 199.994753 
L 349.659441 276.108211 
L 384.778322 279.678126 
L 419.897203 249.066578 
L 455.016084 214.309645 
L 490.134965 179.893181 
L 525.253846 144.97334 
L 560.372727 103.747979 
" clip-path="url(#pe568498bd5)" style="fill: none; stroke-dasharray: 3.7,1.6; stroke-dashoffset: 0; stroke: #ff7f0e; stroke-opacity: 0.6"/>
   </g>
   <g id="line2d_95">
    <path d="M 103.827273 90.959723 
L 138.946154 96.838308 
L 174.065035 102.366222 
L 209.183916 99.536546 
L 244.302797 99.379917 
L 279.421678 231.002001 
L 314.540559 212.050207 
L 349.659441 283.858162 
L 384.778322 289.55798 
L 419.897203 264.583342 
L 455.016084 231.115258 
L 490.134965 197.914385 
L 525.253846 158.544273 
L 560.372727 125.258748 
" clip-path="url(#pe568498bd5)" style="fill: none; stroke-dasharray: 3.7,1.6; stroke-dashoffset: 0; stroke: #2ca02c; stroke-opacity: 0.6"/>
   </g>
   <g id="line2d_96">
    <path d="M 103.827273 90.959723 
L 138.946154 90.515578 
L 174.065035 95.424301 
L 209.183916 91.579965 
L 244.302797 82.050928 
L 279.421678 219.720391 
L 314.540559 201.31302 
L 349.659441 275.906348 
L 384.778322 281.029184 
L 419.897203 252.703354 
L 455.016084 213.536964 
L 490.134965 177.232344 
L 525.253846 137.338506 
L 560.372727 96.615009 
" clip-path="url(#pe568498bd5)" style="fill: none; stroke-dasharray: 3.7,1.6; stroke-dashoffset: 0; stroke: #d62728; stroke-opacity: 0.6"/>
   </g>
   <g id="line2d_97">
    <path d="M 103.827273 90.959723 
L 138.946154 94.703871 
L 174.065035 89.009826 
L 209.183916 92.120784 
L 244.302797 91.881595 
L 279.421678 220.512491 
L 314.540559 200.828016 
L 349.659441 275.310529 
L 384.778322 280.960114 
L 419.897203 255.652566 
L 455.016084 228.08779 
L 490.134965 188.540117 
L 525.253846 153.008759 
L 560.372727 118.765436 
" clip-path="url(#pe568498bd5)" style="fill: none; stroke-dasharray: 3.7,1.6; stroke-dashoffset: 0; stroke: #9467bd; stroke-opacity: 0.6"/>
   </g>
   <g id="line2d_98">
    <path d="M 103.827273 90.959723 
L 138.946154 97.915992 
L 174.065035 104.072516 
L 209.183916 106.500793 
L 244.302797 107.855689 
L 279.421678 245.023752 
L 314.540559 228.412211 
L 349.659441 298.986551 
L 384.778322 307.041854 
L 419.897203 283.26932 
L 455.016084 253.497663 
L 490.134965 218.442821 
L 525.253846 182.968673 
L 560.372727 142.914368 
" clip-path="url(#pe568498bd5)" style="fill: none; stroke-dasharray: 3.7,1.6; stroke-dashoffset: 0; stroke: #8c564b; stroke-opacity: 0.6"/>
   </g>
   <g id="line2d_99">
    <path d="M 103.827273 90.959723 
L 138.946154 97.472383 
L 174.065035 94.169871 
L 209.183916 94.076615 
L 244.302797 93.979637 
L 279.421678 231.708054 
L 314.540559 204.471885 
L 349.659441 279.325099 
L 384.778322 283.329902 
L 419.897203 256.423271 
L 455.016084 223.835892 
L 490.134965 185.359973 
L 525.253846 152.917247 
L 560.372727 118.227524 
" clip-path="url(#pe568498bd5)" style="fill: none; stroke-dasharray: 3.7,1.6; stroke-dashoffset: 0; stroke: #e377c2; stroke-opacity: 0.6"/>
   </g>
   <g id="line2d_100">
    <path d="M 103.827273 90.959723 
L 138.946154 97.506686 
L 174.065035 96.822336 
L 209.183916 92.558694 
L 244.302797 87.024925 
L 279.421678 225.702071 
L 314.540559 203.777344 
L 349.659441 278.063111 
L 384.778322 282.820828 
L 419.897203 255.864545 
L 455.016084 216.75176 
L 490.134965 174.648484 
L 525.253846 131.664502 
L 560.372727 97.729902 
" clip-path="url(#pe568498bd5)" style="fill: none; stroke-dasharray: 3.7,1.6; stroke-dashoffset: 0; stroke: #7f7f7f; stroke-opacity: 0.6"/>
   </g>
   <g id="line2d_101">
    <path d="M 103.827273 90.959723 
L 138.946154 95.716554 
L 174.065035 92.734394 
L 209.183916 83.39094 
L 244.302797 85.013744 
L 279.421678 224.913924 
L 314.540559 207.691332 
L 349.659441 279.986617 
L 384.778322 287.485636 
L 419.897203 267.497554 
L 455.016084 238.419508 
L 490.134965 208.5382 
L 525.253846 172.625443 
L 560.372727 137.408506 
" clip-path="url(#pe568498bd5)" style="fill: none; stroke-dasharray: 3.7,1.6; stroke-dashoffset: 0; stroke: #bcbd22; stroke-opacity: 0.6"/>
   </g>
   <g id="line2d_102">
    <path d="M 103.827273 90.959723 
L 138.946154 91.813729 
L 174.065035 91.012634 
L 209.183916 87.575976 
L 244.302797 79.214275 
L 279.421678 211.345201 
L 314.540559 194.380517 
L 349.659441 268.763379 
L 384.778322 273.156789 
L 419.897203 248.294827 
L 455.016084 210.503217 
L 490.134965 174.440342 
L 525.253846 133.536379 
L 560.372727 97.873508 
" clip-path="url(#pe568498bd5)" style="fill: none; stroke-dasharray: 3.7,1.6; stroke-dashoffset: 0; stroke: #17becf; stroke-opacity: 0.6"/>
   </g>
   <g id="line2d_103">
    <path d="M 103.827273 90.959723 
L 138.946154 87.690321 
L 174.065035 89.116339 
L 209.183916 85.676425 
L 244.302797 84.335599 
L 279.421678 215.499888 
L 314.540559 187.494294 
L 349.659441 264.066244 
L 384.778322 266.663593 
L 419.897203 228.361048 
L 455.016084 184.396825 
L 490.134965 147.939645 
L 525.253846 111.397232 
L 560.372727 74.986564 
" clip-path="url(#pe568498bd5)" style="fill: none; stroke-dasharray: 3.7,1.6; stroke-dashoffset: 0; stroke: #1f77b4; stroke-opacity: 0.6"/>
   </g>
   <g id="line2d_104">
    <path d="M 103.827273 90.959723 
L 138.946154 97.342033 
L 174.065035 99.57957 
L 209.183916 102.256338 
L 244.302797 99.176659 
L 279.421678 240.377083 
L 314.540559 227.367202 
L 349.659441 299.595393 
L 384.778322 307.8 
L 419.897203 279.215447 
L 455.016084 248.99495 
L 490.134965 213.980805 
L 525.253846 177.092575 
L 560.372727 138.205025 
" clip-path="url(#pe568498bd5)" style="fill: none; stroke-dasharray: 3.7,1.6; stroke-dashoffset: 0; stroke: #ff7f0e; stroke-opacity: 0.6"/>
   </g>
   <g id="line2d_105">
    <path d="M 103.827273 90.959723 
L 138.946154 90.982559 
L 174.065035 88.720637 
L 209.183916 85.235374 
L 244.302797 83.306404 
L 279.421678 207.491562 
L 314.540559 177.126296 
L 349.659441 254.425927 
L 384.778322 256.208152 
L 419.897203 226.726499 
L 455.016084 189.582219 
L 490.134965 146.144513 
L 525.253846 108.386624 
L 560.372727 64.64345 
" clip-path="url(#pe568498bd5)" style="fill: none; stroke-dasharray: 3.7,1.6; stroke-dashoffset: 0; stroke: #2ca02c; stroke-opacity: 0.6"/>
   </g>
   <g id="line2d_106">
    <path d="M 103.827273 90.959723 
L 138.946154 99.942986 
L 174.065035 96.88536 
L 209.183916 96.628381 
L 244.302797 88.64459 
L 279.421678 222.179017 
L 314.540559 199.041721 
L 349.659441 275.412507 
L 384.778322 279.184749 
L 419.897203 251.078572 
L 455.016084 221.699943 
L 490.134965 182.251341 
L 525.253846 148.721745 
L 560.372727 112.674336 
" clip-path="url(#pe568498bd5)" style="fill: none; stroke-dasharray: 3.7,1.6; stroke-dashoffset: 0; stroke: #d62728; stroke-opacity: 0.6"/>
   </g>
   <g id="line2d_107">
    <path d="M 103.827273 90.959723 
L 138.946154 93.422697 
L 174.065035 97.524901 
L 209.183916 91.338102 
L 244.302797 88.705754 
L 279.421678 222.044132 
L 314.540559 196.206115 
L 349.659441 273.524002 
L 384.778322 276.461702 
L 419.897203 246.086668 
L 455.016084 208.204476 
L 490.134965 175.50198 
L 525.253846 144.040076 
L 560.372727 106.239047 
" clip-path="url(#pe568498bd5)" style="fill: none; stroke-dasharray: 3.7,1.6; stroke-dashoffset: 0; stroke: #9467bd; stroke-opacity: 0.6"/>
   </g>
   <g id="line2d_108">
    <path d="M 103.827273 90.959723 
L 138.946154 100.871599 
L 174.065035 106.723121 
L 209.183916 97.103153 
L 244.302797 91.564034 
L 279.421678 224.769272 
L 314.540559 200.542199 
L 349.659441 274.349242 
L 384.778322 279.05219 
L 419.897203 255.154306 
L 455.016084 224.80311 
L 490.134965 193.571324 
L 525.253846 154.265166 
L 560.372727 116.631696 
" clip-path="url(#pe568498bd5)" style="fill: none; stroke-dasharray: 3.7,1.6; stroke-dashoffset: 0; stroke: #8c564b; stroke-opacity: 0.6"/>
   </g>
   <g id="line2d_109">
    <path d="M 103.827273 90.959723 
L 138.946154 95.796322 
L 174.065035 97.774205 
L 209.183916 97.653506 
L 244.302797 94.723248 
L 279.421678 221.383777 
L 314.540559 199.850798 
L 349.659441 274.229357 
L 384.778322 277.205778 
L 419.897203 248.77425 
L 455.016084 205.760268 
L 490.134965 168.830061 
L 525.253846 122.592562 
L 560.372727 82.684189 
" clip-path="url(#pe568498bd5)" style="fill: none; stroke-dasharray: 3.7,1.6; stroke-dashoffset: 0; stroke: #e377c2; stroke-opacity: 0.6"/>
   </g>
   <g id="line2d_110">
    <path d="M 103.827273 90.959723 
L 138.946154 91.383958 
L 174.065035 91.520895 
L 209.183916 88.952616 
L 244.302797 81.472783 
L 279.421678 211.063919 
L 314.540559 188.81198 
L 349.659441 264.030198 
L 384.778322 269.049195 
L 419.897203 237.160195 
L 455.016084 200.136149 
L 490.134965 169.207157 
L 525.253846 131.46578 
L 560.372727 101.345981 
" clip-path="url(#pe568498bd5)" style="fill: none; stroke-dasharray: 3.7,1.6; stroke-dashoffset: 0; stroke: #7f7f7f; stroke-opacity: 0.6"/>
   </g>
   <g id="line2d_111">
    <path d="M 103.827273 90.959723 
L 138.946154 96.727144 
L 174.065035 94.731853 
L 209.183916 80.672892 
L 244.302797 77.130071 
L 279.421678 212.560212 
L 314.540559 180.979004 
L 349.659441 258.301194 
L 384.778322 261.644944 
L 419.897203 229.79513 
L 455.016084 194.357494 
L 490.134965 161.187668 
L 525.253846 130.882286 
L 560.372727 92.027294 
" clip-path="url(#pe568498bd5)" style="fill: none; stroke-dasharray: 3.7,1.6; stroke-dashoffset: 0; stroke: #bcbd22; stroke-opacity: 0.6"/>
   </g>
   <g id="line2d_112">
    <path d="M 103.827273 90.959723 
L 138.946154 98.203785 
L 174.065035 100.958187 
L 209.183916 102.545759 
L 244.302797 94.052196 
L 279.421678 231.417005 
L 314.540559 208.579712 
L 349.659441 281.730237 
L 384.778322 286.91377 
L 419.897203 257.02688 
L 455.016084 222.144714 
L 490.134965 189.468149 
L 525.253846 154.073769 
L 560.372727 121.539065 
" clip-path="url(#pe568498bd5)" style="fill: none; stroke-dasharray: 3.7,1.6; stroke-dashoffset: 0; stroke: #17becf; stroke-opacity: 0.6"/>
   </g>
   <g id="line2d_113">
    <path d="M 103.827273 90.959723 
L 138.946154 95.745023 
L 174.065035 96.089371 
L 209.183916 93.556896 
L 244.302797 87.872211 
L 279.421678 221.721079 
L 314.540559 199.458532 
L 349.659441 274.193969 
L 384.778322 278.673856 
L 419.897203 250.863364 
L 455.016084 217.277991 
L 490.134965 181.916145 
L 525.253846 145.194899 
L 560.372727 108.412375 
" clip-path="url(#pe568498bd5)" style="fill: none; stroke: #000000; stroke-width: 2.5; stroke-linecap: square"/>
   </g>
   <g id="patch_3">
    <path d="M 81 320.4 
L 81 43.2 
" style="fill: none; stroke: #000000; stroke-width: 0.8; stroke-linejoin: miter; stroke-linecap: square"/>
   </g>
   <g id="patch_4">
    <path d="M 583.2 320.4 
L 583.2 43.2 
" style="fill: none; stroke: #000000; stroke-width: 0.8; stroke-linejoin: miter; stroke-linecap: square"/>
   </g>
   <g id="patch_5">
    <path d="M 81 320.4 
L 583.2 320.4 
" style="fill: none; stroke: #000000; stroke-width: 0.8; stroke-linejoin: miter; stroke-linecap: square"/>
   </g>
   <g id="patch_6">
    <path d="M 81 43.2 
L 583.2 43.2 
" style="fill: none; stroke: #000000; stroke-width: 0.8; stroke-linejoin: miter; stroke-linecap: square"/>
   </g>
   <g id="legend_1">
    <g id="patch_7">
     <path d="M 88 65.878125 
L 161.065625 65.878125 
Q 163.065625 65.878125 163.065625 63.878125 
L 163.065625 50.2 
Q 163.065625 48.2 161.065625 48.2 
L 88 48.2 
Q 86 48.2 86 50.2 
L 86 63.878125 
Q 86 65.878125 88 65.878125 
z
" style="fill: #ffffff; opacity: 0.8; stroke: #cccccc; stroke-linejoin: miter"/>
    </g>
    <g id="line2d_114">
     <path d="M 90 56.298437 
L 100 56.298437 
L 110 56.298437 
" style="fill: none; stroke: #000000; stroke-width: 2.5; stroke-linecap: square"/>
    </g>
    <g id="text_15">
     <!-- Average -->
     <g transform="translate(118 59.798437) scale(0.1 -0.1)">
      <defs>
       <path id="DejaVuSans-41" d="M 2188 4044 
L 1331 1722 
L 3047 1722 
L 2188 4044 
z
M 1831 4666 
L 2547 4666 
L 4325 0 
L 3669 0 
L 3244 1197 
L 1141 1197 
L 716 0 
L 50 0 
L 1831 4666 
z
" transform="scale(0.015625)"/>
       <path id="DejaVuSans-67" d="M 2906 1791 
Q 2906 2416 2648 2759 
Q 2391 3103 1925 3103 
Q 1463 3103 1205 2759 
Q 947 2416 947 1791 
Q 947 1169 1205 825 
Q 1463 481 1925 481 
Q 2391 481 2648 825 
Q 2906 1169 2906 1791 
z
M 3481 434 
Q 3481 -459 3084 -895 
Q 2688 -1331 1869 -1331 
Q 1566 -1331 1297 -1286 
Q 1028 -1241 775 -1147 
L 775 -588 
Q 1028 -725 1275 -790 
Q 1522 -856 1778 -856 
Q 2344 -856 2625 -561 
Q 2906 -266 2906 331 
L 2906 616 
Q 2728 306 2450 153 
Q 2172 0 1784 0 
Q 1141 0 747 490 
Q 353 981 353 1791 
Q 353 2603 747 3093 
Q 1141 3584 1784 3584 
Q 2172 3584 2450 3431 
Q 2728 3278 2906 2969 
L 2906 3500 
L 3481 3500 
L 3481 434 
z
" transform="scale(0.015625)"/>
      </defs>
      <use xlink:href="#DejaVuSans-41"/>
      <use xlink:href="#DejaVuSans-76" x="62.533203"/>
      <use xlink:href="#DejaVuSans-65" x="121.712891"/>
      <use xlink:href="#DejaVuSans-72" x="183.236328"/>
      <use xlink:href="#DejaVuSans-61" x="224.349609"/>
      <use xlink:href="#DejaVuSans-67" x="285.628906"/>
      <use xlink:href="#DejaVuSans-65" x="349.105469"/>
     </g>
    </g>
   </g>
  </g>
 </g>
 <defs>
  <clipPath id="pe568498bd5">
   <rect x="81" y="43.2" width="502.2" height="277.2"/>
  </clipPath>
 </defs>
</svg>
