<?xml version="1.0" encoding="utf-8" standalone="no"?>
<!DOCTYPE svg PUBLIC "-//W3C//DTD SVG 1.1//EN"
  "http://www.w3.org/Graphics/SVG/1.1/DTD/svg11.dtd">
<svg xmlns:xlink="http://www.w3.org/1999/xlink" width="648pt" height="360pt" viewBox="0 0 648 360" xmlns="http://www.w3.org/2000/svg" version="1.1">
 <metadata>
  <rdf:RDF xmlns:dc="http://purl.org/dc/elements/1.1/" xmlns:cc="http://creativecommons.org/ns#" xmlns:rdf="http://www.w3.org/1999/02/22-rdf-syntax-ns#">
   <cc:Work>
    <dc:type rdf:resource="http://purl.org/dc/dcmitype/StillImage"/>
    <dc:date>2025-09-21T22:12:45.231757</dc:date>
    <dc:format>image/svg+xml</dc:format>
    <dc:creator>
     <cc:Agent>
      <dc:title>Matplotlib v3.8.0, https://matplotlib.org/</dc:title>
     </cc:Agent>
    </dc:creator>
   </cc:Work>
  </rdf:RDF>
 </metadata>
 <defs>
  <style type="text/css">*{stroke-linejoin: round; stroke-linecap: butt}</style>
 </defs>
 <g id="figure_1">
  <g id="patch_1">
   <path d="M 0 360 
L 648 360 
L 648 0 
L 0 0 
z
" style="fill: #ffffff"/>
  </g>
  <g id="axes_1">
   <g id="patch_2">
    <path d="M 81 320.4 
L 583.2 320.4 
L 583.2 43.2 
L 81 43.2 
z
" style="fill: #ffffff"/>
   </g>
   <g id="matplotlib.axis_1">
    <g id="xtick_1">
     <g id="line2d_1">
      <defs>
       <path id="maf2ee17ca3" d="M 0 0 
L 0 3.5 
" style="stroke: #000000; stroke-width: 0.8"/>
      </defs>
      <g>
       <use xlink:href="#maf2ee17ca3" x="103.827273" y="320.4" style="stroke: #000000; stroke-width: 0.8"/>
      </g>
     </g>
     <g id="text_1">
      <!-- 2004 -->
      <g transform="translate(88.557273 336.518125) scale(0.12 -0.12)">
       <defs>
        <path id="DejaVuSans-32" d="M 1228 531 
L 3431 531 
L 3431 0 
L 469 0 
L 469 531 
Q 828 903 1448 1529 
Q 2069 2156 2228 2338 
Q 2531 2678 2651 2914 
Q 2772 3150 2772 3378 
Q 2772 3750 2511 3984 
Q 2250 4219 1831 4219 
Q 1534 4219 1204 4116 
Q 875 4013 500 3803 
L 500 4441 
Q 881 4594 1212 4672 
Q 1544 4750 1819 4750 
Q 2544 4750 2975 4387 
Q 3406 4025 3406 3419 
Q 3406 3131 3298 2873 
Q 3191 2616 2906 2266 
Q 2828 2175 2409 1742 
Q 1991 1309 1228 531 
z
" transform="scale(0.015625)"/>
        <path id="DejaVuSans-30" d="M 2034 4250 
Q 1547 4250 1301 3770 
Q 1056 3291 1056 2328 
Q 1056 1369 1301 889 
Q 1547 409 2034 409 
Q 2525 409 2770 889 
Q 3016 1369 3016 2328 
Q 3016 3291 2770 3770 
Q 2525 4250 2034 4250 
z
M 2034 4750 
Q 2819 4750 3233 4129 
Q 3647 3509 3647 2328 
Q 3647 1150 3233 529 
Q 2819 -91 2034 -91 
Q 1250 -91 836 529 
Q 422 1150 422 2328 
Q 422 3509 836 4129 
Q 1250 4750 2034 4750 
z
" transform="scale(0.015625)"/>
        <path id="DejaVuSans-34" d="M 2419 4116 
L 825 1625 
L 2419 1625 
L 2419 4116 
z
M 2253 4666 
L 3047 4666 
L 3047 1625 
L 3713 1625 
L 3713 1100 
L 3047 1100 
L 3047 0 
L 2419 0 
L 2419 1100 
L 313 1100 
L 313 1709 
L 2253 4666 
z
" transform="scale(0.015625)"/>
       </defs>
       <use xlink:href="#DejaVuSans-32"/>
       <use xlink:href="#DejaVuSans-30" x="63.623047"/>
       <use xlink:href="#DejaVuSans-30" x="127.246094"/>
       <use xlink:href="#DejaVuSans-34" x="190.869141"/>
      </g>
     </g>
    </g>
    <g id="xtick_2">
     <g id="line2d_2">
      <g>
       <use xlink:href="#maf2ee17ca3" x="174.065035" y="320.4" style="stroke: #000000; stroke-width: 0.8"/>
      </g>
     </g>
     <g id="text_2">
      <!-- 2006 -->
      <g transform="translate(158.795035 336.518125) scale(0.12 -0.12)">
       <defs>
        <path id="DejaVuSans-36" d="M 2113 2584 
Q 1688 2584 1439 2293 
Q 1191 2003 1191 1497 
Q 1191 994 1439 701 
Q 1688 409 2113 409 
Q 2538 409 2786 701 
Q 3034 994 3034 1497 
Q 3034 2003 2786 2293 
Q 2538 2584 2113 2584 
z
M 3366 4563 
L 3366 3988 
Q 3128 4100 2886 4159 
Q 2644 4219 2406 4219 
Q 1781 4219 1451 3797 
Q 1122 3375 1075 2522 
Q 1259 2794 1537 2939 
Q 1816 3084 2150 3084 
Q 2853 3084 3261 2657 
Q 3669 2231 3669 1497 
Q 3669 778 3244 343 
Q 2819 -91 2113 -91 
Q 1303 -91 875 529 
Q 447 1150 447 2328 
Q 447 3434 972 4092 
Q 1497 4750 2381 4750 
Q 2619 4750 2861 4703 
Q 3103 4656 3366 4563 
z
" transform="scale(0.015625)"/>
       </defs>
       <use xlink:href="#DejaVuSans-32"/>
       <use xlink:href="#DejaVuSans-30" x="63.623047"/>
       <use xlink:href="#DejaVuSans-30" x="127.246094"/>
       <use xlink:href="#DejaVuSans-36" x="190.869141"/>
      </g>
     </g>
    </g>
    <g id="xtick_3">
     <g id="line2d_3">
      <g>
       <use xlink:href="#maf2ee17ca3" x="244.302797" y="320.4" style="stroke: #000000; stroke-width: 0.8"/>
      </g>
     </g>
     <g id="text_3">
      <!-- 2008 -->
      <g transform="translate(229.032797 336.518125) scale(0.12 -0.12)">
       <defs>
        <path id="DejaVuSans-38" d="M 2034 2216 
Q 1584 2216 1326 1975 
Q 1069 1734 1069 1313 
Q 1069 891 1326 650 
Q 1584 409 2034 409 
Q 2484 409 2743 651 
Q 3003 894 3003 1313 
Q 3003 1734 2745 1975 
Q 2488 2216 2034 2216 
z
M 1403 2484 
Q 997 2584 770 2862 
Q 544 3141 544 3541 
Q 544 4100 942 4425 
Q 1341 4750 2034 4750 
Q 2731 4750 3128 4425 
Q 3525 4100 3525 3541 
Q 3525 3141 3298 2862 
Q 3072 2584 2669 2484 
Q 3125 2378 3379 2068 
Q 3634 1759 3634 1313 
Q 3634 634 3220 271 
Q 2806 -91 2034 -91 
Q 1263 -91 848 271 
Q 434 634 434 1313 
Q 434 1759 690 2068 
Q 947 2378 1403 2484 
z
M 1172 3481 
Q 1172 3119 1398 2916 
Q 1625 2713 2034 2713 
Q 2441 2713 2670 2916 
Q 2900 3119 2900 3481 
Q 2900 3844 2670 4047 
Q 2441 4250 2034 4250 
Q 1625 4250 1398 4047 
Q 1172 3844 1172 3481 
z
" transform="scale(0.015625)"/>
       </defs>
       <use xlink:href="#DejaVuSans-32"/>
       <use xlink:href="#DejaVuSans-30" x="63.623047"/>
       <use xlink:href="#DejaVuSans-30" x="127.246094"/>
       <use xlink:href="#DejaVuSans-38" x="190.869141"/>
      </g>
     </g>
    </g>
    <g id="xtick_4">
     <g id="line2d_4">
      <g>
       <use xlink:href="#maf2ee17ca3" x="314.540559" y="320.4" style="stroke: #000000; stroke-width: 0.8"/>
      </g>
     </g>
     <g id="text_4">
      <!-- 2010 -->
      <g transform="translate(299.270559 336.518125) scale(0.12 -0.12)">
       <defs>
        <path id="DejaVuSans-31" d="M 794 531 
L 1825 531 
L 1825 4091 
L 703 3866 
L 703 4441 
L 1819 4666 
L 2450 4666 
L 2450 531 
L 3481 531 
L 3481 0 
L 794 0 
L 794 531 
z
" transform="scale(0.015625)"/>
       </defs>
       <use xlink:href="#DejaVuSans-32"/>
       <use xlink:href="#DejaVuSans-30" x="63.623047"/>
       <use xlink:href="#DejaVuSans-31" x="127.246094"/>
       <use xlink:href="#DejaVuSans-30" x="190.869141"/>
      </g>
     </g>
    </g>
    <g id="xtick_5">
     <g id="line2d_5">
      <g>
       <use xlink:href="#maf2ee17ca3" x="384.778322" y="320.4" style="stroke: #000000; stroke-width: 0.8"/>
      </g>
     </g>
     <g id="text_5">
      <!-- 2012 -->
      <g transform="translate(369.508322 336.518125) scale(0.12 -0.12)">
       <use xlink:href="#DejaVuSans-32"/>
       <use xlink:href="#DejaVuSans-30" x="63.623047"/>
       <use xlink:href="#DejaVuSans-31" x="127.246094"/>
       <use xlink:href="#DejaVuSans-32" x="190.869141"/>
      </g>
     </g>
    </g>
    <g id="xtick_6">
     <g id="line2d_6">
      <g>
       <use xlink:href="#maf2ee17ca3" x="455.016084" y="320.4" style="stroke: #000000; stroke-width: 0.8"/>
      </g>
     </g>
     <g id="text_6">
      <!-- 2014 -->
      <g transform="translate(439.746084 336.518125) scale(0.12 -0.12)">
       <use xlink:href="#DejaVuSans-32"/>
       <use xlink:href="#DejaVuSans-30" x="63.623047"/>
       <use xlink:href="#DejaVuSans-31" x="127.246094"/>
       <use xlink:href="#DejaVuSans-34" x="190.869141"/>
      </g>
     </g>
    </g>
    <g id="xtick_7">
     <g id="line2d_7">
      <g>
       <use xlink:href="#maf2ee17ca3" x="525.253846" y="320.4" style="stroke: #000000; stroke-width: 0.8"/>
      </g>
     </g>
     <g id="text_7">
      <!-- 2016 -->
      <g transform="translate(509.983846 336.518125) scale(0.12 -0.12)">
       <use xlink:href="#DejaVuSans-32"/>
       <use xlink:href="#DejaVuSans-30" x="63.623047"/>
       <use xlink:href="#DejaVuSans-31" x="127.246094"/>
       <use xlink:href="#DejaVuSans-36" x="190.869141"/>
      </g>
     </g>
    </g>
    <g id="text_8">
     <!-- Year -->
     <g transform="translate(316.21875 354.411406) scale(0.15 -0.15)">
      <defs>
       <path id="DejaVuSans-59" d="M -13 4666 
L 666 4666 
L 1959 2747 
L 3244 4666 
L 3922 4666 
L 2272 2222 
L 2272 0 
L 1638 0 
L 1638 2222 
L -13 4666 
z
" transform="scale(0.015625)"/>
       <path id="DejaVuSans-65" d="M 3597 1894 
L 3597 1613 
L 953 1613 
Q 991 1019 1311 708 
Q 1631 397 2203 397 
Q 2534 397 2845 478 
Q 3156 559 3463 722 
L 3463 178 
Q 3153 47 2828 -22 
Q 2503 -91 2169 -91 
Q 1331 -91 842 396 
Q 353 884 353 1716 
Q 353 2575 817 3079 
Q 1281 3584 2069 3584 
Q 2775 3584 3186 3129 
Q 3597 2675 3597 1894 
z
M 3022 2063 
Q 3016 2534 2758 2815 
Q 2500 3097 2075 3097 
Q 1594 3097 1305 2825 
Q 1016 2553 972 2059 
L 3022 2063 
z
" transform="scale(0.015625)"/>
       <path id="DejaVuSans-61" d="M 2194 1759 
Q 1497 1759 1228 1600 
Q 959 1441 959 1056 
Q 959 750 1161 570 
Q 1363 391 1709 391 
Q 2188 391 2477 730 
Q 2766 1069 2766 1631 
L 2766 1759 
L 2194 1759 
z
M 3341 1997 
L 3341 0 
L 2766 0 
L 2766 531 
Q 2569 213 2275 61 
Q 1981 -91 1556 -91 
Q 1019 -91 701 211 
Q 384 513 384 1019 
Q 384 1609 779 1909 
Q 1175 2209 1959 2209 
L 2766 2209 
L 2766 2266 
Q 2766 2663 2505 2880 
Q 2244 3097 1772 3097 
Q 1472 3097 1187 3025 
Q 903 2953 641 2809 
L 641 3341 
Q 956 3463 1253 3523 
Q 1550 3584 1831 3584 
Q 2591 3584 2966 3190 
Q 3341 2797 3341 1997 
z
" transform="scale(0.015625)"/>
       <path id="DejaVuSans-72" d="M 2631 2963 
Q 2534 3019 2420 3045 
Q 2306 3072 2169 3072 
Q 1681 3072 1420 2755 
Q 1159 2438 1159 1844 
L 1159 0 
L 581 0 
L 581 3500 
L 1159 3500 
L 1159 2956 
Q 1341 3275 1631 3429 
Q 1922 3584 2338 3584 
Q 2397 3584 2469 3576 
Q 2541 3569 2628 3553 
L 2631 2963 
z
" transform="scale(0.015625)"/>
      </defs>
      <use xlink:href="#DejaVuSans-59"/>
      <use xlink:href="#DejaVuSans-65" x="47.833984"/>
      <use xlink:href="#DejaVuSans-61" x="109.357422"/>
      <use xlink:href="#DejaVuSans-72" x="170.636719"/>
     </g>
    </g>
   </g>
   <g id="matplotlib.axis_2">
    <g id="ytick_1">
     <g id="line2d_8">
      <defs>
       <path id="me035b6e564" d="M 0 0 
L -3.5 0 
" style="stroke: #000000; stroke-width: 0.8"/>
      </defs>
      <g>
       <use xlink:href="#me035b6e564" x="81" y="279.60326" style="stroke: #000000; stroke-width: 0.8"/>
      </g>
     </g>
     <g id="text_9">
      <!-- 30 -->
      <g transform="translate(58.73 284.162322) scale(0.12 -0.12)">
       <defs>
        <path id="DejaVuSans-33" d="M 2597 2516 
Q 3050 2419 3304 2112 
Q 3559 1806 3559 1356 
Q 3559 666 3084 287 
Q 2609 -91 1734 -91 
Q 1441 -91 1130 -33 
Q 819 25 488 141 
L 488 750 
Q 750 597 1062 519 
Q 1375 441 1716 441 
Q 2309 441 2620 675 
Q 2931 909 2931 1356 
Q 2931 1769 2642 2001 
Q 2353 2234 1838 2234 
L 1294 2234 
L 1294 2753 
L 1863 2753 
Q 2328 2753 2575 2939 
Q 2822 3125 2822 3475 
Q 2822 3834 2567 4026 
Q 2313 4219 1838 4219 
Q 1578 4219 1281 4162 
Q 984 4106 628 3988 
L 628 4550 
Q 988 4650 1302 4700 
Q 1616 4750 1894 4750 
Q 2613 4750 3031 4423 
Q 3450 4097 3450 3541 
Q 3450 3153 3228 2886 
Q 3006 2619 2597 2516 
z
" transform="scale(0.015625)"/>
       </defs>
       <use xlink:href="#DejaVuSans-33"/>
       <use xlink:href="#DejaVuSans-30" x="63.623047"/>
      </g>
     </g>
    </g>
    <g id="ytick_2">
     <g id="line2d_9">
      <g>
       <use xlink:href="#me035b6e564" x="81" y="222.447546" style="stroke: #000000; stroke-width: 0.8"/>
      </g>
     </g>
     <g id="text_10">
      <!-- 35 -->
      <g transform="translate(58.73 227.006609) scale(0.12 -0.12)">
       <defs>
        <path id="DejaVuSans-35" d="M 691 4666 
L 3169 4666 
L 3169 4134 
L 1269 4134 
L 1269 2991 
Q 1406 3038 1543 3061 
Q 1681 3084 1819 3084 
Q 2600 3084 3056 2656 
Q 3513 2228 3513 1497 
Q 3513 744 3044 326 
Q 2575 -91 1722 -91 
Q 1428 -91 1123 -41 
Q 819 9 494 109 
L 494 744 
Q 775 591 1075 516 
Q 1375 441 1709 441 
Q 2250 441 2565 725 
Q 2881 1009 2881 1497 
Q 2881 1984 2565 2268 
Q 2250 2553 1709 2553 
Q 1456 2553 1204 2497 
Q 953 2441 691 2322 
L 691 4666 
z
" transform="scale(0.015625)"/>
       </defs>
       <use xlink:href="#DejaVuSans-33"/>
       <use xlink:href="#DejaVuSans-35" x="63.623047"/>
      </g>
     </g>
    </g>
    <g id="ytick_3">
     <g id="line2d_10">
      <g>
       <use xlink:href="#me035b6e564" x="81" y="165.291833" style="stroke: #000000; stroke-width: 0.8"/>
      </g>
     </g>
     <g id="text_11">
      <!-- 40 -->
      <g transform="translate(58.73 169.850895) scale(0.12 -0.12)">
       <use xlink:href="#DejaVuSans-34"/>
       <use xlink:href="#DejaVuSans-30" x="63.623047"/>
      </g>
     </g>
    </g>
    <g id="ytick_4">
     <g id="line2d_11">
      <g>
       <use xlink:href="#me035b6e564" x="81" y="108.136119" style="stroke: #000000; stroke-width: 0.8"/>
      </g>
     </g>
     <g id="text_12">
      <!-- 45 -->
      <g transform="translate(58.73 112.695182) scale(0.12 -0.12)">
       <use xlink:href="#DejaVuSans-34"/>
       <use xlink:href="#DejaVuSans-35" x="63.623047"/>
      </g>
     </g>
    </g>
    <g id="ytick_5">
     <g id="line2d_12">
      <g>
       <use xlink:href="#me035b6e564" x="81" y="50.980406" style="stroke: #000000; stroke-width: 0.8"/>
      </g>
     </g>
     <g id="text_13">
      <!-- 50 -->
      <g transform="translate(58.73 55.539468) scale(0.12 -0.12)">
       <use xlink:href="#DejaVuSans-35"/>
       <use xlink:href="#DejaVuSans-30" x="63.623047"/>
      </g>
     </g>
    </g>
    <g id="text_14">
     <!-- Total coral cover (%) -->
     <g transform="translate(51.610469 258.769922) rotate(-90) scale(0.15 -0.15)">
      <defs>
       <path id="DejaVuSans-54" d="M -19 4666 
L 3928 4666 
L 3928 4134 
L 2272 4134 
L 2272 0 
L 1638 0 
L 1638 4134 
L -19 4134 
L -19 4666 
z
" transform="scale(0.015625)"/>
       <path id="DejaVuSans-6f" d="M 1959 3097 
Q 1497 3097 1228 2736 
Q 959 2375 959 1747 
Q 959 1119 1226 758 
Q 1494 397 1959 397 
Q 2419 397 2687 759 
Q 2956 1122 2956 1747 
Q 2956 2369 2687 2733 
Q 2419 3097 1959 3097 
z
M 1959 3584 
Q 2709 3584 3137 3096 
Q 3566 2609 3566 1747 
Q 3566 888 3137 398 
Q 2709 -91 1959 -91 
Q 1206 -91 779 398 
Q 353 888 353 1747 
Q 353 2609 779 3096 
Q 1206 3584 1959 3584 
z
" transform="scale(0.015625)"/>
       <path id="DejaVuSans-74" d="M 1172 4494 
L 1172 3500 
L 2356 3500 
L 2356 3053 
L 1172 3053 
L 1172 1153 
Q 1172 725 1289 603 
Q 1406 481 1766 481 
L 2356 481 
L 2356 0 
L 1766 0 
Q 1100 0 847 248 
Q 594 497 594 1153 
L 594 3053 
L 172 3053 
L 172 3500 
L 594 3500 
L 594 4494 
L 1172 4494 
z
" transform="scale(0.015625)"/>
       <path id="DejaVuSans-6c" d="M 603 4863 
L 1178 4863 
L 1178 0 
L 603 0 
L 603 4863 
z
" transform="scale(0.015625)"/>
       <path id="DejaVuSans-20" transform="scale(0.015625)"/>
       <path id="DejaVuSans-63" d="M 3122 3366 
L 3122 2828 
Q 2878 2963 2633 3030 
Q 2388 3097 2138 3097 
Q 1578 3097 1268 2742 
Q 959 2388 959 1747 
Q 959 1106 1268 751 
Q 1578 397 2138 397 
Q 2388 397 2633 464 
Q 2878 531 3122 666 
L 3122 134 
Q 2881 22 2623 -34 
Q 2366 -91 2075 -91 
Q 1284 -91 818 406 
Q 353 903 353 1747 
Q 353 2603 823 3093 
Q 1294 3584 2113 3584 
Q 2378 3584 2631 3529 
Q 2884 3475 3122 3366 
z
" transform="scale(0.015625)"/>
       <path id="DejaVuSans-76" d="M 191 3500 
L 800 3500 
L 1894 563 
L 2988 3500 
L 3597 3500 
L 2284 0 
L 1503 0 
L 191 3500 
z
" transform="scale(0.015625)"/>
       <path id="DejaVuSans-28" d="M 1984 4856 
Q 1566 4138 1362 3434 
Q 1159 2731 1159 2009 
Q 1159 1288 1364 580 
Q 1569 -128 1984 -844 
L 1484 -844 
Q 1016 -109 783 600 
Q 550 1309 550 2009 
Q 550 2706 781 3412 
Q 1013 4119 1484 4856 
L 1984 4856 
z
" transform="scale(0.015625)"/>
       <path id="DejaVuSans-25" d="M 4653 2053 
Q 4381 2053 4226 1822 
Q 4072 1591 4072 1178 
Q 4072 772 4226 539 
Q 4381 306 4653 306 
Q 4919 306 5073 539 
Q 5228 772 5228 1178 
Q 5228 1588 5073 1820 
Q 4919 2053 4653 2053 
z
M 4653 2450 
Q 5147 2450 5437 2106 
Q 5728 1763 5728 1178 
Q 5728 594 5436 251 
Q 5144 -91 4653 -91 
Q 4153 -91 3862 251 
Q 3572 594 3572 1178 
Q 3572 1766 3864 2108 
Q 4156 2450 4653 2450 
z
M 1428 4353 
Q 1159 4353 1004 4120 
Q 850 3888 850 3481 
Q 850 3069 1003 2837 
Q 1156 2606 1428 2606 
Q 1700 2606 1854 2837 
Q 2009 3069 2009 3481 
Q 2009 3884 1853 4118 
Q 1697 4353 1428 4353 
z
M 4250 4750 
L 4750 4750 
L 1831 -91 
L 1331 -91 
L 4250 4750 
z
M 1428 4750 
Q 1922 4750 2215 4408 
Q 2509 4066 2509 3481 
Q 2509 2891 2217 2550 
Q 1925 2209 1428 2209 
Q 931 2209 642 2551 
Q 353 2894 353 3481 
Q 353 4063 643 4406 
Q 934 4750 1428 4750 
z
" transform="scale(0.015625)"/>
       <path id="DejaVuSans-29" d="M 513 4856 
L 1013 4856 
Q 1481 4119 1714 3412 
Q 1947 2706 1947 2009 
Q 1947 1309 1714 600 
Q 1481 -109 1013 -844 
L 513 -844 
Q 928 -128 1133 580 
Q 1338 1288 1338 2009 
Q 1338 2731 1133 3434 
Q 928 4138 513 4856 
z
" transform="scale(0.015625)"/>
      </defs>
      <use xlink:href="#DejaVuSans-54"/>
      <use xlink:href="#DejaVuSans-6f" x="44.083984"/>
      <use xlink:href="#DejaVuSans-74" x="105.265625"/>
      <use xlink:href="#DejaVuSans-61" x="144.474609"/>
      <use xlink:href="#DejaVuSans-6c" x="205.753906"/>
      <use xlink:href="#DejaVuSans-20" x="233.537109"/>
      <use xlink:href="#DejaVuSans-63" x="265.324219"/>
      <use xlink:href="#DejaVuSans-6f" x="320.304688"/>
      <use xlink:href="#DejaVuSans-72" x="381.486328"/>
      <use xlink:href="#DejaVuSans-61" x="422.599609"/>
      <use xlink:href="#DejaVuSans-6c" x="483.878906"/>
      <use xlink:href="#DejaVuSans-20" x="511.662109"/>
      <use xlink:href="#DejaVuSans-63" x="543.449219"/>
      <use xlink:href="#DejaVuSans-6f" x="598.429688"/>
      <use xlink:href="#DejaVuSans-76" x="659.611328"/>
      <use xlink:href="#DejaVuSans-65" x="718.791016"/>
      <use xlink:href="#DejaVuSans-72" x="780.314453"/>
      <use xlink:href="#DejaVuSans-20" x="821.427734"/>
      <use xlink:href="#DejaVuSans-28" x="853.214844"/>
      <use xlink:href="#DejaVuSans-25" x="892.228516"/>
      <use xlink:href="#DejaVuSans-29" x="987.248047"/>
     </g>
    </g>
   </g>
   <g id="line2d_13">
    <path d="M 103.827273 130.998405 
L 138.946154 119.515365 
L 174.065035 113.608759 
L 209.183916 100.741404 
L 244.302797 90.056398 
L 279.421678 225.080357 
L 314.540559 195.662048 
L 349.659441 274.030718 
L 384.778322 283.217455 
L 419.897203 256.841217 
L 455.016084 224.807046 
L 490.134965 182.169296 
L 525.253846 148.436263 
L 560.372727 114.733418 
" clip-path="url(#p599b4e5b4a)" style="fill: none; stroke-dasharray: 3.7,1.6; stroke-dashoffset: 0; stroke: #1f77b4; stroke-opacity: 0.6"/>
   </g>
   <g id="line2d_14">
    <path d="M 103.827273 130.998405 
L 138.946154 114.547278 
L 174.065035 102.941549 
L 209.183916 91.039289 
L 244.302797 70.367766 
L 279.421678 213.700479 
L 314.540559 192.638727 
L 349.659441 269.307168 
L 384.778322 277.851529 
L 419.897203 246.911888 
L 455.016084 215.943404 
L 490.134965 180.190994 
L 525.253846 147.535769 
L 560.372727 112.59744 
" clip-path="url(#p599b4e5b4a)" style="fill: none; stroke-dasharray: 3.7,1.6; stroke-dashoffset: 0; stroke: #ff7f0e; stroke-opacity: 0.6"/>
   </g>
   <g id="line2d_15">
    <path d="M 103.827273 130.998405 
L 138.946154 122.994789 
L 174.065035 108.486404 
L 209.183916 95.221479 
L 244.302797 70.577582 
L 279.421678 211.528925 
L 314.540559 188.973884 
L 349.659441 266.35004 
L 384.778322 276.576205 
L 419.897203 253.095372 
L 455.016084 215.867316 
L 490.134965 181.860229 
L 525.253846 151.093301 
L 560.372727 118.831313 
" clip-path="url(#p599b4e5b4a)" style="fill: none; stroke-dasharray: 3.7,1.6; stroke-dashoffset: 0; stroke: #2ca02c; stroke-opacity: 0.6"/>
   </g>
   <g id="line2d_16">
    <path d="M 103.827273 130.998405 
L 138.946154 125.23031 
L 174.065035 116.572481 
L 209.183916 109.805378 
L 244.302797 102.985637 
L 279.421678 247.361384 
L 314.540559 218.83154 
L 349.659441 292.980355 
L 384.778322 304.240673 
L 419.897203 276.702682 
L 455.016084 243.316087 
L 490.134965 204.890815 
L 525.253846 167.874864 
L 560.372727 131.833475 
" clip-path="url(#p599b4e5b4a)" style="fill: none; stroke-dasharray: 3.7,1.6; stroke-dashoffset: 0; stroke: #d62728; stroke-opacity: 0.6"/>
   </g>
   <g id="line2d_17">
    <path d="M 103.827273 130.998405 
L 138.946154 120.164587 
L 174.065035 112.414118 
L 209.183916 101.346289 
L 244.302797 90.369718 
L 279.421678 236.773486 
L 314.540559 206.340928 
L 349.659441 282.365106 
L 384.778322 290.845611 
L 419.897203 261.013181 
L 455.016084 226.904194 
L 490.134965 189.234532 
L 525.253846 148.281056 
L 560.372727 109.314522 
" clip-path="url(#p599b4e5b4a)" style="fill: none; stroke-dasharray: 3.7,1.6; stroke-dashoffset: 0; stroke: #9467bd; stroke-opacity: 0.6"/>
   </g>
   <g id="line2d_18">
    <path d="M 103.827273 130.998405 
L 138.946154 124.557409 
L 174.065035 105.170321 
L 209.183916 92.732322 
L 244.302797 80.331556 
L 279.421678 216.488461 
L 314.540559 184.102892 
L 349.659441 262.902938 
L 384.778322 270.125401 
L 419.897203 243.47511 
L 455.016084 207.854789 
L 490.134965 172.868988 
L 525.253846 131.313873 
L 560.372727 90.532662 
" clip-path="url(#p599b4e5b4a)" style="fill: none; stroke-dasharray: 3.7,1.6; stroke-dashoffset: 0; stroke: #8c564b; stroke-opacity: 0.6"/>
   </g>
   <g id="line2d_19">
    <path d="M 103.827273 130.998405 
L 138.946154 121.559319 
L 174.065035 103.129156 
L 209.183916 91.641676 
L 244.302797 69.142945 
L 279.421678 206.200986 
L 314.540559 183.150433 
L 349.659441 262.394558 
L 384.778322 270.752963 
L 419.897203 239.244565 
L 455.016084 200.660045 
L 490.134965 161.391739 
L 525.253846 125.125675 
L 560.372727 85.625512 
" clip-path="url(#p599b4e5b4a)" style="fill: none; stroke-dasharray: 3.7,1.6; stroke-dashoffset: 0; stroke: #e377c2; stroke-opacity: 0.6"/>
   </g>
   <g id="line2d_20">
    <path d="M 103.827273 130.998405 
L 138.946154 110.456565 
L 174.065035 90.576887 
L 209.183916 78.760051 
L 244.302797 67.965986 
L 279.421678 212.950484 
L 314.540559 182.752837 
L 349.659441 262.069779 
L 384.778322 269.884229 
L 419.897203 239.683701 
L 455.016084 208.081932 
L 490.134965 172.181161 
L 525.253846 133.008133 
L 560.372727 100.776109 
" clip-path="url(#p599b4e5b4a)" style="fill: none; stroke-dasharray: 3.7,1.6; stroke-dashoffset: 0; stroke: #7f7f7f; stroke-opacity: 0.6"/>
   </g>
   <g id="line2d_21">
    <path d="M 103.827273 130.998405 
L 138.946154 117.634363 
L 174.065035 103.765846 
L 209.183916 93.182711 
L 244.302797 74.482072 
L 279.421678 205.284634 
L 314.540559 182.918403 
L 349.659441 260.832948 
L 384.778322 269.575049 
L 419.897203 245.542631 
L 455.016084 214.033223 
L 490.134965 184.416265 
L 525.253846 155.402965 
L 560.372727 123.035934 
" clip-path="url(#p599b4e5b4a)" style="fill: none; stroke-dasharray: 3.7,1.6; stroke-dashoffset: 0; stroke: #bcbd22; stroke-opacity: 0.6"/>
   </g>
   <g id="line2d_22">
    <path d="M 103.827273 130.998405 
L 138.946154 117.880584 
L 174.065035 100.392655 
L 209.183916 90.535916 
L 244.302797 70.746909 
L 279.421678 214.472847 
L 314.540559 186.646173 
L 349.659441 263.185744 
L 384.778322 272.363616 
L 419.897203 248.265658 
L 455.016084 216.617428 
L 490.134965 178.719052 
L 525.253846 141.602547 
L 560.372727 104.619141 
" clip-path="url(#p599b4e5b4a)" style="fill: none; stroke-dasharray: 3.7,1.6; stroke-dashoffset: 0; stroke: #17becf; stroke-opacity: 0.6"/>
   </g>
   <g id="line2d_23">
    <path d="M 103.827273 130.998405 
L 138.946154 120.193765 
L 174.065035 113.130557 
L 209.183916 103.476625 
L 244.302797 86.709599 
L 279.421678 229.445949 
L 314.540559 199.173789 
L 349.659441 276.740165 
L 384.778322 284.076425 
L 419.897203 256.515428 
L 455.016084 222.466481 
L 490.134965 185.329888 
L 525.253846 144.037492 
L 560.372727 106.548738 
" clip-path="url(#p599b4e5b4a)" style="fill: none; stroke-dasharray: 3.7,1.6; stroke-dashoffset: 0; stroke: #1f77b4; stroke-opacity: 0.6"/>
   </g>
   <g id="line2d_24">
    <path d="M 103.827273 130.998405 
L 138.946154 121.089096 
L 174.065035 102.729047 
L 209.183916 82.701889 
L 244.302797 73.989965 
L 279.421678 215.298038 
L 314.540559 178.066337 
L 349.659441 257.805342 
L 384.778322 265.302308 
L 419.897203 231.271204 
L 455.016084 197.125071 
L 490.134965 152.040817 
L 525.253846 113.611841 
L 560.372727 77.631502 
" clip-path="url(#p599b4e5b4a)" style="fill: none; stroke-dasharray: 3.7,1.6; stroke-dashoffset: 0; stroke: #ff7f0e; stroke-opacity: 0.6"/>
   </g>
   <g id="line2d_25">
    <path d="M 103.827273 130.998405 
L 138.946154 125.952815 
L 174.065035 116.734739 
L 209.183916 99.773191 
L 244.302797 75.4745 
L 279.421678 209.008 
L 314.540559 184.994929 
L 349.659441 263.258017 
L 384.778322 271.794859 
L 419.897203 240.303969 
L 455.016084 207.947711 
L 490.134965 165.311084 
L 525.253846 133.209353 
L 560.372727 100.236307 
" clip-path="url(#p599b4e5b4a)" style="fill: none; stroke-dasharray: 3.7,1.6; stroke-dashoffset: 0; stroke: #2ca02c; stroke-opacity: 0.6"/>
   </g>
   <g id="line2d_26">
    <path d="M 103.827273 130.998405 
L 138.946154 124.3673 
L 174.065035 113.719991 
L 209.183916 107.112806 
L 244.302797 83.933595 
L 279.421678 229.433088 
L 314.540559 205.538161 
L 349.659441 281.407153 
L 384.778322 291.346808 
L 419.897203 267.979547 
L 455.016084 239.861129 
L 490.134965 208.318278 
L 525.253846 170.56456 
L 560.372727 135.867177 
" clip-path="url(#p599b4e5b4a)" style="fill: none; stroke-dasharray: 3.7,1.6; stroke-dashoffset: 0; stroke: #d62728; stroke-opacity: 0.6"/>
   </g>
   <g id="line2d_27">
    <path d="M 103.827273 130.998405 
L 138.946154 124.585578 
L 174.065035 111.013421 
L 209.183916 99.262808 
L 244.302797 78.378954 
L 279.421678 214.141251 
L 314.540559 179.783531 
L 349.659441 259.377951 
L 384.778322 266.487403 
L 419.897203 240.711121 
L 455.016084 197.09477 
L 490.134965 163.150529 
L 525.253846 128.547752 
L 560.372727 95.471122 
" clip-path="url(#p599b4e5b4a)" style="fill: none; stroke-dasharray: 3.7,1.6; stroke-dashoffset: 0; stroke: #9467bd; stroke-opacity: 0.6"/>
   </g>
   <g id="line2d_28">
    <path d="M 103.827273 130.998405 
L 138.946154 119.93273 
L 174.065035 112.3163 
L 209.183916 103.8465 
L 244.302797 94.063508 
L 279.421678 235.095307 
L 314.540559 208.243681 
L 349.659441 284.069018 
L 384.778322 293.137133 
L 419.897203 264.684846 
L 455.016084 232.66358 
L 490.134965 195.532935 
L 525.253846 153.060942 
L 560.372727 111.073424 
" clip-path="url(#p599b4e5b4a)" style="fill: none; stroke-dasharray: 3.7,1.6; stroke-dashoffset: 0; stroke: #8c564b; stroke-opacity: 0.6"/>
   </g>
   <g id="line2d_29">
    <path d="M 103.827273 130.998405 
L 138.946154 120.600469 
L 174.065035 106.111148 
L 209.183916 90.408278 
L 244.302797 77.67817 
L 279.421678 207.803121 
L 314.540559 181.615222 
L 349.659441 262.044641 
L 384.778322 270.05526 
L 419.897203 237.775652 
L 455.016084 205.691877 
L 490.134965 169.776853 
L 525.253846 136.607974 
L 560.372727 98.527794 
" clip-path="url(#p599b4e5b4a)" style="fill: none; stroke-dasharray: 3.7,1.6; stroke-dashoffset: 0; stroke: #e377c2; stroke-opacity: 0.6"/>
   </g>
   <g id="line2d_30">
    <path d="M 103.827273 130.998405 
L 138.946154 126.061673 
L 174.065035 110.291995 
L 209.183916 99.44323 
L 244.302797 88.633994 
L 279.421678 230.394593 
L 314.540559 200.917739 
L 349.659441 277.313074 
L 384.778322 284.849879 
L 419.897203 253.684665 
L 455.016084 220.577398 
L 490.134965 187.744746 
L 525.253846 154.020129 
L 560.372727 106.478821 
" clip-path="url(#p599b4e5b4a)" style="fill: none; stroke-dasharray: 3.7,1.6; stroke-dashoffset: 0; stroke: #7f7f7f; stroke-opacity: 0.6"/>
   </g>
   <g id="line2d_31">
    <path d="M 103.827273 130.998405 
L 138.946154 122.418065 
L 174.065035 111.33938 
L 209.183916 100.62075 
L 244.302797 88.292339 
L 279.421678 227.968487 
L 314.540559 201.633957 
L 349.659441 277.847714 
L 384.778322 287.236905 
L 419.897203 264.059528 
L 455.016084 234.050905 
L 490.134965 198.89138 
L 525.253846 164.709109 
L 560.372727 131.049022 
" clip-path="url(#p599b4e5b4a)" style="fill: none; stroke-dasharray: 3.7,1.6; stroke-dashoffset: 0; stroke: #bcbd22; stroke-opacity: 0.6"/>
   </g>
   <g id="line2d_32">
    <path d="M 103.827273 130.998405 
L 138.946154 120.992134 
L 174.065035 106.375591 
L 209.183916 97.593245 
L 244.302797 80.144445 
L 279.421678 223.987987 
L 314.540559 201.968588 
L 349.659441 278.758419 
L 384.778322 287.018739 
L 419.897203 260.344432 
L 455.016084 226.877035 
L 490.134965 191.103527 
L 525.253846 152.029033 
L 560.372727 116.699824 
" clip-path="url(#p599b4e5b4a)" style="fill: none; stroke-dasharray: 3.7,1.6; stroke-dashoffset: 0; stroke: #17becf; stroke-opacity: 0.6"/>
   </g>
   <g id="line2d_33">
    <path d="M 103.827273 130.998405 
L 138.946154 120.001973 
L 174.065035 98.62888 
L 209.183916 83.926351 
L 244.302797 57.486055 
L 279.421678 201.552329 
L 314.540559 174.197738 
L 349.659441 253.154178 
L 384.778322 259.593423 
L 419.897203 229.227139 
L 455.016084 198.098735 
L 490.134965 166.282391 
L 525.253846 124.478249 
L 560.372727 84.795047 
" clip-path="url(#p599b4e5b4a)" style="fill: none; stroke-dasharray: 3.7,1.6; stroke-dashoffset: 0; stroke: #1f77b4; stroke-opacity: 0.6"/>
   </g>
   <g id="line2d_34">
    <path d="M 103.827273 130.998405 
L 138.946154 126.305089 
L 174.065035 112.621068 
L 209.183916 98.742678 
L 244.302797 81.499138 
L 279.421678 227.442742 
L 314.540559 203.447316 
L 349.659441 280.283108 
L 384.778322 289.412274 
L 419.897203 256.293223 
L 455.016084 221.557683 
L 490.134965 189.947385 
L 525.253846 151.598089 
L 560.372727 111.312912 
" clip-path="url(#p599b4e5b4a)" style="fill: none; stroke-dasharray: 3.7,1.6; stroke-dashoffset: 0; stroke: #ff7f0e; stroke-opacity: 0.6"/>
   </g>
   <g id="line2d_35">
    <path d="M 103.827273 130.998405 
L 138.946154 124.370891 
L 174.065035 108.539012 
L 209.183916 92.11908 
L 244.302797 81.972781 
L 279.421678 225.516165 
L 314.540559 200.081749 
L 349.659441 277.423279 
L 384.778322 285.745322 
L 419.897203 260.329955 
L 455.016084 228.610911 
L 490.134965 194.467471 
L 525.253846 156.659548 
L 560.372727 114.239628 
" clip-path="url(#p599b4e5b4a)" style="fill: none; stroke-dasharray: 3.7,1.6; stroke-dashoffset: 0; stroke: #2ca02c; stroke-opacity: 0.6"/>
   </g>
   <g id="line2d_36">
    <path d="M 103.827273 130.998405 
L 138.946154 119.032012 
L 174.065035 111.511473 
L 209.183916 105.416967 
L 244.302797 95.626383 
L 279.421678 231.027334 
L 314.540559 198.336188 
L 349.659441 274.914826 
L 384.778322 284.886801 
L 419.897203 254.782001 
L 455.016084 227.417623 
L 490.134965 192.484119 
L 525.253846 146.614739 
L 560.372727 106.876883 
" clip-path="url(#p599b4e5b4a)" style="fill: none; stroke-dasharray: 3.7,1.6; stroke-dashoffset: 0; stroke: #d62728; stroke-opacity: 0.6"/>
   </g>
   <g id="line2d_37">
    <path d="M 103.827273 130.998405 
L 138.946154 122.025502 
L 174.065035 104.216083 
L 209.183916 80.720318 
L 244.302797 68.349103 
L 279.421678 204.888373 
L 314.540559 180.830555 
L 349.659441 259.525414 
L 384.778322 266.754499 
L 419.897203 239.318297 
L 455.016084 203.648709 
L 490.134965 166.776406 
L 525.253846 134.382328 
L 560.372727 103.557044 
" clip-path="url(#p599b4e5b4a)" style="fill: none; stroke-dasharray: 3.7,1.6; stroke-dashoffset: 0; stroke: #9467bd; stroke-opacity: 0.6"/>
   </g>
   <g id="line2d_38">
    <path d="M 103.827273 130.998405 
L 138.946154 111.838952 
L 174.065035 94.404857 
L 209.183916 79.051864 
L 244.302797 61.300868 
L 279.421678 201.368077 
L 314.540559 174.272904 
L 349.659441 252.87081 
L 384.778322 258.326066 
L 419.897203 232.409502 
L 455.016084 195.958043 
L 490.134965 162.18719 
L 525.253846 122.806097 
L 560.372727 88.075945 
" clip-path="url(#p599b4e5b4a)" style="fill: none; stroke-dasharray: 3.7,1.6; stroke-dashoffset: 0; stroke: #8c564b; stroke-opacity: 0.6"/>
   </g>
   <g id="line2d_39">
    <path d="M 103.827273 130.998405 
L 138.946154 120.03463 
L 174.065035 113.406323 
L 209.183916 101.704121 
L 244.302797 87.168481 
L 279.421678 227.942828 
L 314.540559 199.845138 
L 349.659441 277.747834 
L 384.778322 286.139793 
L 419.897203 252.641983 
L 455.016084 218.377115 
L 490.134965 181.555426 
L 525.253846 145.818839 
L 560.372727 108.745766 
" clip-path="url(#p599b4e5b4a)" style="fill: none; stroke-dasharray: 3.7,1.6; stroke-dashoffset: 0; stroke: #e377c2; stroke-opacity: 0.6"/>
   </g>
   <g id="line2d_40">
    <path d="M 103.827273 130.998405 
L 138.946154 126.963289 
L 174.065035 118.10123 
L 209.183916 107.75754 
L 244.302797 96.352442 
L 279.421678 233.903057 
L 314.540559 207.63652 
L 349.659441 284.243977 
L 384.778322 293.86076 
L 419.897203 267.83747 
L 455.016084 238.567848 
L 490.134965 207.754123 
L 525.253846 173.134961 
L 560.372727 140.463239 
" clip-path="url(#p599b4e5b4a)" style="fill: none; stroke-dasharray: 3.7,1.6; stroke-dashoffset: 0; stroke: #7f7f7f; stroke-opacity: 0.6"/>
   </g>
   <g id="line2d_41">
    <path d="M 103.827273 130.998405 
L 138.946154 116.233234 
L 174.065035 109.793366 
L 209.183916 99.85024 
L 244.302797 87.414206 
L 279.421678 234.204182 
L 314.540559 206.655845 
L 349.659441 282.404946 
L 384.778322 291.36308 
L 419.897203 266.821385 
L 455.016084 233.370934 
L 490.134965 198.64426 
L 525.253846 162.980508 
L 560.372727 125.339464 
" clip-path="url(#p599b4e5b4a)" style="fill: none; stroke-dasharray: 3.7,1.6; stroke-dashoffset: 0; stroke: #bcbd22; stroke-opacity: 0.6"/>
   </g>
   <g id="line2d_42">
    <path d="M 103.827273 130.998405 
L 138.946154 125.126951 
L 174.065035 113.42212 
L 209.183916 96.186379 
L 244.302797 76.550153 
L 279.421678 213.736436 
L 314.540559 185.831955 
L 349.659441 263.337697 
L 384.778322 272.060047 
L 419.897203 237.399811 
L 455.016084 201.724387 
L 490.134965 157.270277 
L 525.253846 115.478255 
L 560.372727 81.959459 
" clip-path="url(#p599b4e5b4a)" style="fill: none; stroke-dasharray: 3.7,1.6; stroke-dashoffset: 0; stroke: #17becf; stroke-opacity: 0.6"/>
   </g>
   <g id="line2d_43">
    <path d="M 103.827273 130.998405 
L 138.946154 115.722947 
L 174.065035 103.238396 
L 209.183916 93.640831 
L 244.302797 81.442552 
L 279.421678 229.080291 
L 314.540559 208.466937 
L 349.659441 285.088806 
L 384.778322 296.34789 
L 419.897203 273.572503 
L 455.016084 235.842801 
L 490.134965 204.513066 
L 525.253846 172.486076 
L 560.372727 128.861869 
" clip-path="url(#p599b4e5b4a)" style="fill: none; stroke-dasharray: 3.7,1.6; stroke-dashoffset: 0; stroke: #1f77b4; stroke-opacity: 0.6"/>
   </g>
   <g id="line2d_44">
    <path d="M 103.827273 130.998405 
L 138.946154 119.703679 
L 174.065035 101.660916 
L 209.183916 91.436379 
L 244.302797 78.779738 
L 279.421678 209.18407 
L 314.540559 186.03294 
L 349.659441 264.530312 
L 384.778322 273.712672 
L 419.897203 249.070647 
L 455.016084 217.513993 
L 490.134965 178.118872 
L 525.253846 140.744363 
L 560.372727 101.730582 
" clip-path="url(#p599b4e5b4a)" style="fill: none; stroke-dasharray: 3.7,1.6; stroke-dashoffset: 0; stroke: #ff7f0e; stroke-opacity: 0.6"/>
   </g>
   <g id="line2d_45">
    <path d="M 103.827273 130.998405 
L 138.946154 121.237682 
L 174.065035 113.608447 
L 209.183916 104.173586 
L 244.302797 87.313597 
L 279.421678 229.62475 
L 314.540559 200.596995 
L 349.659441 278.302674 
L 384.778322 286.650866 
L 419.897203 252.170077 
L 455.016084 215.170623 
L 490.134965 181.276659 
L 525.253846 148.981115 
L 560.372727 111.354323 
" clip-path="url(#p599b4e5b4a)" style="fill: none; stroke-dasharray: 3.7,1.6; stroke-dashoffset: 0; stroke: #2ca02c; stroke-opacity: 0.6"/>
   </g>
   <g id="line2d_46">
    <path d="M 103.827273 130.998405 
L 138.946154 122.743966 
L 174.065035 110.339845 
L 209.183916 95.437206 
L 244.302797 73.25154 
L 279.421678 208.133747 
L 314.540559 180.799456 
L 349.659441 261.028444 
L 384.778322 268.40993 
L 419.897203 240.593958 
L 455.016084 209.817828 
L 490.134965 176.81392 
L 525.253846 135.409299 
L 560.372727 90.477559 
" clip-path="url(#p599b4e5b4a)" style="fill: none; stroke-dasharray: 3.7,1.6; stroke-dashoffset: 0; stroke: #d62728; stroke-opacity: 0.6"/>
   </g>
   <g id="line2d_47">
    <path d="M 103.827273 130.998405 
L 138.946154 118.094148 
L 174.065035 105.167004 
L 209.183916 92.559059 
L 244.302797 66.134642 
L 279.421678 212.395401 
L 314.540559 185.628499 
L 349.659441 264.48531 
L 384.778322 272.924741 
L 419.897203 247.360002 
L 455.016084 216.351118 
L 490.134965 184.690094 
L 525.253846 153.665835 
L 560.372727 119.443276 
" clip-path="url(#p599b4e5b4a)" style="fill: none; stroke-dasharray: 3.7,1.6; stroke-dashoffset: 0; stroke: #9467bd; stroke-opacity: 0.6"/>
   </g>
   <g id="line2d_48">
    <path d="M 103.827273 130.998405 
L 138.946154 122.301351 
L 174.065035 112.186139 
L 209.183916 98.765195 
L 244.302797 88.732932 
L 279.421678 229.091934 
L 314.540559 196.979688 
L 349.659441 274.265492 
L 384.778322 283.968128 
L 419.897203 255.070307 
L 455.016084 218.951595 
L 490.134965 182.33393 
L 525.253846 140.054291 
L 560.372727 105.389566 
" clip-path="url(#p599b4e5b4a)" style="fill: none; stroke-dasharray: 3.7,1.6; stroke-dashoffset: 0; stroke: #8c564b; stroke-opacity: 0.6"/>
   </g>
   <g id="line2d_49">
    <path d="M 103.827273 130.998405 
L 138.946154 119.530516 
L 174.065035 111.596899 
L 209.183916 102.994928 
L 244.302797 93.485047 
L 279.421678 237.272865 
L 314.540559 207.332305 
L 349.659441 283.122625 
L 384.778322 292.991914 
L 419.897203 268.740432 
L 455.016084 237.04215 
L 490.134965 198.891829 
L 525.253846 160.308095 
L 560.372727 120.860677 
" clip-path="url(#p599b4e5b4a)" style="fill: none; stroke-dasharray: 3.7,1.6; stroke-dashoffset: 0; stroke: #e377c2; stroke-opacity: 0.6"/>
   </g>
   <g id="line2d_50">
    <path d="M 103.827273 130.998405 
L 138.946154 124.614195 
L 174.065035 113.5754 
L 209.183916 99.769568 
L 244.302797 77.065188 
L 279.421678 219.875298 
L 314.540559 186.93922 
L 349.659441 264.481157 
L 384.778322 272.842367 
L 419.897203 243.618646 
L 455.016084 211.357555 
L 490.134965 174.856604 
L 525.253846 136.757458 
L 560.372727 105.373518 
" clip-path="url(#p599b4e5b4a)" style="fill: none; stroke-dasharray: 3.7,1.6; stroke-dashoffset: 0; stroke: #7f7f7f; stroke-opacity: 0.6"/>
   </g>
   <g id="line2d_51">
    <path d="M 103.827273 130.998405 
L 138.946154 126.381626 
L 174.065035 107.312251 
L 209.183916 89.429341 
L 244.302797 71.558895 
L 279.421678 213.651038 
L 314.540559 187.72113 
L 349.659441 265.837396 
L 384.778322 274.48781 
L 419.897203 249.634129 
L 455.016084 215.578112 
L 490.134965 183.309053 
L 525.253846 153.196397 
L 560.372727 114.205175 
" clip-path="url(#p599b4e5b4a)" style="fill: none; stroke-dasharray: 3.7,1.6; stroke-dashoffset: 0; stroke: #bcbd22; stroke-opacity: 0.6"/>
   </g>
   <g id="line2d_52">
    <path d="M 103.827273 130.998405 
L 138.946154 118.610832 
L 174.065035 110.050268 
L 209.183916 97.079573 
L 244.302797 85.465552 
L 279.421678 220.656717 
L 314.540559 196.308032 
L 349.659441 273.523349 
L 384.778322 283.635829 
L 419.897203 255.273883 
L 455.016084 223.355191 
L 490.134965 190.603004 
L 525.253846 152.342927 
L 560.372727 116.165633 
" clip-path="url(#p599b4e5b4a)" style="fill: none; stroke-dasharray: 3.7,1.6; stroke-dashoffset: 0; stroke: #17becf; stroke-opacity: 0.6"/>
   </g>
   <g id="line2d_53">
    <path d="M 103.827273 130.998405 
L 138.946154 111.277715 
L 174.065035 98.520472 
L 209.183916 79.461714 
L 244.302797 68.671023 
L 279.421678 207.752693 
L 314.540559 182.074941 
L 349.659441 260.656867 
L 384.778322 268.838405 
L 419.897203 235.86289 
L 455.016084 195.744591 
L 490.134965 161.337983 
L 525.253846 121.95431 
L 560.372727 88.418455 
" clip-path="url(#p599b4e5b4a)" style="fill: none; stroke-dasharray: 3.7,1.6; stroke-dashoffset: 0; stroke: #1f77b4; stroke-opacity: 0.6"/>
   </g>
   <g id="line2d_54">
    <path d="M 103.827273 130.998405 
L 138.946154 118.823723 
L 174.065035 109.439838 
L 209.183916 98.5278 
L 244.302797 79.569604 
L 279.421678 221.47951 
L 314.540559 200.096087 
L 349.659441 276.681472 
L 384.778322 286.797319 
L 419.897203 259.299842 
L 455.016084 228.613941 
L 490.134965 194.132816 
L 525.253846 157.138075 
L 560.372727 125.169443 
" clip-path="url(#p599b4e5b4a)" style="fill: none; stroke-dasharray: 3.7,1.6; stroke-dashoffset: 0; stroke: #ff7f0e; stroke-opacity: 0.6"/>
   </g>
   <g id="line2d_55">
    <path d="M 103.827273 130.998405 
L 138.946154 119.887728 
L 174.065035 112.032491 
L 209.183916 99.329395 
L 244.302797 88.789676 
L 279.421678 232.929348 
L 314.540559 213.580382 
L 349.659441 288.68023 
L 384.778322 300.147827 
L 419.897203 274.495778 
L 455.016084 241.787022 
L 490.134965 202.164533 
L 525.253846 167.851521 
L 560.372727 130.009033 
" clip-path="url(#p599b4e5b4a)" style="fill: none; stroke-dasharray: 3.7,1.6; stroke-dashoffset: 0; stroke: #2ca02c; stroke-opacity: 0.6"/>
   </g>
   <g id="line2d_56">
    <path d="M 103.827273 130.998405 
L 138.946154 121.472232 
L 174.065035 108.086262 
L 209.183916 96.645086 
L 244.302797 86.445065 
L 279.421678 225.468652 
L 314.540559 201.021198 
L 349.659441 277.418678 
L 384.778322 287.704995 
L 419.897203 262.721357 
L 455.016084 224.02091 
L 490.134965 188.426288 
L 525.253846 149.788013 
L 560.372727 108.074885 
" clip-path="url(#p599b4e5b4a)" style="fill: none; stroke-dasharray: 3.7,1.6; stroke-dashoffset: 0; stroke: #d62728; stroke-opacity: 0.6"/>
   </g>
   <g id="line2d_57">
    <path d="M 103.827273 130.998405 
L 138.946154 115.986339 
L 174.065035 100.694657 
L 209.183916 88.710322 
L 244.302797 67.31171 
L 279.421678 214.700282 
L 314.540559 191.375221 
L 349.659441 269.722737 
L 384.778322 279.280041 
L 419.897203 251.231427 
L 455.016084 214.697034 
L 490.134965 179.251559 
L 525.253846 144.030759 
L 560.372727 109.67555 
" clip-path="url(#p599b4e5b4a)" style="fill: none; stroke-dasharray: 3.7,1.6; stroke-dashoffset: 0; stroke: #9467bd; stroke-opacity: 0.6"/>
   </g>
   <g id="line2d_58">
    <path d="M 103.827273 130.998405 
L 138.946154 116.622205 
L 174.065035 99.590586 
L 209.183916 84.086178 
L 244.302797 67.001846 
L 279.421678 204.24576 
L 314.540559 177.11989 
L 349.659441 255.088824 
L 384.778322 263.480223 
L 419.897203 232.052403 
L 455.016084 197.420222 
L 490.134965 159.456868 
L 525.253846 125.745382 
L 560.372727 90.777873 
" clip-path="url(#p599b4e5b4a)" style="fill: none; stroke-dasharray: 3.7,1.6; stroke-dashoffset: 0; stroke: #8c564b; stroke-opacity: 0.6"/>
   </g>
   <g id="line2d_59">
    <path d="M 103.827273 130.998405 
L 138.946154 122.342874 
L 174.065035 115.068293 
L 209.183916 104.991998 
L 244.302797 92.043423 
L 279.421678 233.90199 
L 314.540559 213.31129 
L 349.659441 288.530634 
L 384.778322 299.372128 
L 419.897203 275.642717 
L 455.016084 245.482254 
L 490.134965 216.514517 
L 525.253846 175.400334 
L 560.372727 143.299164 
" clip-path="url(#p599b4e5b4a)" style="fill: none; stroke-dasharray: 3.7,1.6; stroke-dashoffset: 0; stroke: #e377c2; stroke-opacity: 0.6"/>
   </g>
   <g id="line2d_60">
    <path d="M 103.827273 130.998405 
L 138.946154 118.849647 
L 174.065035 109.451168 
L 209.183916 96.619294 
L 244.302797 73.508704 
L 279.421678 214.075872 
L 314.540559 184.348284 
L 349.659441 262.339568 
L 384.778322 271.669616 
L 419.897203 238.384136 
L 455.016084 205.600975 
L 490.134965 172.758109 
L 525.253846 137.951195 
L 560.372727 100.878346 
" clip-path="url(#p599b4e5b4a)" style="fill: none; stroke-dasharray: 3.7,1.6; stroke-dashoffset: 0; stroke: #7f7f7f; stroke-opacity: 0.6"/>
   </g>
   <g id="line2d_61">
    <path d="M 103.827273 130.998405 
L 138.946154 124.417914 
L 174.065035 112.388769 
L 209.183916 104.373415 
L 244.302797 92.596822 
L 279.421678 231.447591 
L 314.540559 206.495394 
L 349.659441 282.682927 
L 384.778322 292.232712 
L 419.897203 269.566296 
L 455.016084 239.307299 
L 490.134965 208.003038 
L 525.253846 172.604249 
L 560.372727 138.255325 
" clip-path="url(#p599b4e5b4a)" style="fill: none; stroke-dasharray: 3.7,1.6; stroke-dashoffset: 0; stroke: #bcbd22; stroke-opacity: 0.6"/>
   </g>
   <g id="line2d_62">
    <path d="M 103.827273 130.998405 
L 138.946154 124.839319 
L 174.065035 111.326258 
L 209.183916 95.932535 
L 244.302797 78.880136 
L 279.421678 214.329811 
L 314.540559 187.059211 
L 349.659441 264.76879 
L 384.778322 273.253896 
L 419.897203 249.847805 
L 455.016084 213.983058 
L 490.134965 182.707864 
L 525.253846 149.174366 
L 560.372727 112.059209 
" clip-path="url(#p599b4e5b4a)" style="fill: none; stroke-dasharray: 3.7,1.6; stroke-dashoffset: 0; stroke: #17becf; stroke-opacity: 0.6"/>
   </g>
   <g id="line2d_63">
    <path d="M 103.827273 130.998405 
L 138.946154 125.59246 
L 174.065035 113.059324 
L 209.183916 101.573158 
L 244.302797 92.997876 
L 279.421678 237.816192 
L 314.540559 219.456771 
L 349.659441 294.44534 
L 384.778322 306.659794 
L 419.897203 285.326835 
L 455.016084 250.160577 
L 490.134965 218.713229 
L 525.253846 187.796818 
L 560.372727 153.276302 
" clip-path="url(#p599b4e5b4a)" style="fill: none; stroke-dasharray: 3.7,1.6; stroke-dashoffset: 0; stroke: #1f77b4; stroke-opacity: 0.6"/>
   </g>
   <g id="line2d_64">
    <path d="M 103.827273 130.998405 
L 138.946154 125.185533 
L 174.065035 107.882796 
L 209.183916 90.401556 
L 244.302797 81.792965 
L 279.421678 224.03992 
L 314.540559 193.01468 
L 349.659441 270.25704 
L 384.778322 280.182891 
L 419.897203 256.029831 
L 455.016084 222.249102 
L 490.134965 194.077826 
L 525.253846 156.39784 
L 560.372727 120.43108 
" clip-path="url(#p599b4e5b4a)" style="fill: none; stroke-dasharray: 3.7,1.6; stroke-dashoffset: 0; stroke: #ff7f0e; stroke-opacity: 0.6"/>
   </g>
   <g id="line2d_65">
    <path d="M 103.827273 130.998405 
L 138.946154 118.523521 
L 174.065035 105.583281 
L 209.183916 95.811177 
L 244.302797 84.504385 
L 279.421678 226.059858 
L 314.540559 201.216262 
L 349.659441 278.589633 
L 384.778322 288.522666 
L 419.897203 263.577185 
L 455.016084 234.397007 
L 490.134965 195.048572 
L 525.253846 154.834546 
L 560.372727 107.821593 
" clip-path="url(#p599b4e5b4a)" style="fill: none; stroke-dasharray: 3.7,1.6; stroke-dashoffset: 0; stroke: #2ca02c; stroke-opacity: 0.6"/>
   </g>
   <g id="line2d_66">
    <path d="M 103.827273 130.998405 
L 138.946154 124.095828 
L 174.065035 112.605534 
L 209.183916 88.688311 
L 244.302797 65.373726 
L 279.421678 210.83146 
L 314.540559 184.499429 
L 349.659441 262.119046 
L 384.778322 270.781131 
L 419.897203 246.812344 
L 455.016084 217.63138 
L 490.134965 184.45689 
L 525.253846 153.559333 
L 560.372727 112.748382 
" clip-path="url(#p599b4e5b4a)" style="fill: none; stroke-dasharray: 3.7,1.6; stroke-dashoffset: 0; stroke: #d62728; stroke-opacity: 0.6"/>
   </g>
   <g id="line2d_67">
    <path d="M 103.827273 130.998405 
L 138.946154 122.036051 
L 174.065035 116.210799 
L 209.183916 105.460826 
L 244.302797 92.603276 
L 279.421678 228.7235 
L 314.540559 194.38471 
L 349.659441 272.166661 
L 384.778322 281.876254 
L 419.897203 249.343915 
L 455.016084 206.379255 
L 490.134965 176.856566 
L 525.253846 142.348394 
L 560.372727 108.767089 
" clip-path="url(#p599b4e5b4a)" style="fill: none; stroke-dasharray: 3.7,1.6; stroke-dashoffset: 0; stroke: #9467bd; stroke-opacity: 0.6"/>
   </g>
   <g id="line2d_68">
    <path d="M 103.827273 130.998405 
L 138.946154 118.208842 
L 174.065035 100.446688 
L 209.183916 79.307284 
L 244.302797 68.202088 
L 279.421678 205.164999 
L 314.540559 180.124157 
L 349.659441 259.05306 
L 384.778322 266.779076 
L 419.897203 240.142252 
L 455.016084 205.674819 
L 490.134965 169.201026 
L 525.253846 135.602887 
L 560.372727 102.070512 
" clip-path="url(#p599b4e5b4a)" style="fill: none; stroke-dasharray: 3.7,1.6; stroke-dashoffset: 0; stroke: #8c564b; stroke-opacity: 0.6"/>
   </g>
   <g id="line2d_69">
    <path d="M 103.827273 130.998405 
L 138.946154 127.079329 
L 174.065035 112.975109 
L 209.183916 105.308856 
L 244.302797 88.486522 
L 279.421678 229.507315 
L 314.540559 207.33262 
L 349.659441 283.716519 
L 384.778322 294.111695 
L 419.897203 272.251615 
L 455.016084 238.381779 
L 490.134965 197.69652 
L 525.253846 161.884743 
L 560.372727 128.119726 
" clip-path="url(#p599b4e5b4a)" style="fill: none; stroke-dasharray: 3.7,1.6; stroke-dashoffset: 0; stroke: #e377c2; stroke-opacity: 0.6"/>
   </g>
   <g id="line2d_70">
    <path d="M 103.827273 130.998405 
L 138.946154 125.680557 
L 174.065035 109.938892 
L 209.183916 97.469783 
L 244.302797 81.500617 
L 279.421678 226.422672 
L 314.540559 202.398936 
L 349.659441 280.235861 
L 384.778322 290.609377 
L 419.897203 260.42198 
L 455.016084 228.204096 
L 490.134965 191.355472 
L 525.253846 157.386093 
L 560.372727 124.269848 
" clip-path="url(#p599b4e5b4a)" style="fill: none; stroke-dasharray: 3.7,1.6; stroke-dashoffset: 0; stroke: #7f7f7f; stroke-opacity: 0.6"/>
   </g>
   <g id="line2d_71">
    <path d="M 103.827273 130.998405 
L 138.946154 121.988355 
L 174.065035 116.846674 
L 209.183916 101.790282 
L 244.302797 85.42194 
L 279.421678 229.534882 
L 314.540559 204.679667 
L 349.659441 280.791038 
L 384.778322 290.541369 
L 419.897203 266.311547 
L 455.016084 227.926227 
L 490.134965 187.304936 
L 525.253846 146.938733 
L 560.372727 109.810557 
" clip-path="url(#p599b4e5b4a)" style="fill: none; stroke-dasharray: 3.7,1.6; stroke-dashoffset: 0; stroke: #bcbd22; stroke-opacity: 0.6"/>
   </g>
   <g id="line2d_72">
    <path d="M 103.827273 130.998405 
L 138.946154 116.699977 
L 174.065035 109.197367 
L 209.183916 88.827078 
L 244.302797 70.652919 
L 279.421678 216.823659 
L 314.540559 195.103541 
L 349.659441 274.353589 
L 384.778322 283.893161 
L 419.897203 257.412667 
L 455.016084 219.222282 
L 490.134965 189.01906 
L 525.253846 150.72251 
L 560.372727 118.339992 
" clip-path="url(#p599b4e5b4a)" style="fill: none; stroke-dasharray: 3.7,1.6; stroke-dashoffset: 0; stroke: #17becf; stroke-opacity: 0.6"/>
   </g>
   <g id="line2d_73">
    <path d="M 103.827273 130.998405 
L 138.946154 121.969726 
L 174.065035 108.650775 
L 209.183916 92.018295 
L 244.302797 75.497996 
L 279.421678 222.265071 
L 314.540559 195.316169 
L 349.659441 273.682147 
L 384.778322 283.161567 
L 419.897203 255.358725 
L 455.016084 225.671851 
L 490.134965 188.792141 
L 525.253846 158.95309 
L 560.372727 128.826967 
" clip-path="url(#p599b4e5b4a)" style="fill: none; stroke-dasharray: 3.7,1.6; stroke-dashoffset: 0; stroke: #1f77b4; stroke-opacity: 0.6"/>
   </g>
   <g id="line2d_74">
    <path d="M 103.827273 130.998405 
L 138.946154 126.921653 
L 174.065035 119.53177 
L 209.183916 106.783945 
L 244.302797 99.064946 
L 279.421678 233.514976 
L 314.540559 214.918698 
L 349.659441 289.535721 
L 384.778322 300.710748 
L 419.897203 273.674067 
L 455.016084 233.883914 
L 490.134965 197.416294 
L 525.253846 158.417889 
L 560.372727 125.22982 
" clip-path="url(#p599b4e5b4a)" style="fill: none; stroke-dasharray: 3.7,1.6; stroke-dashoffset: 0; stroke: #ff7f0e; stroke-opacity: 0.6"/>
   </g>
   <g id="line2d_75">
    <path d="M 103.827273 130.998405 
L 138.946154 123.456258 
L 174.065035 117.83511 
L 209.183916 98.81248 
L 244.302797 84.364653 
L 279.421678 226.224075 
L 314.540559 204.618927 
L 349.659441 280.043283 
L 384.778322 291.749695 
L 419.897203 259.85558 
L 455.016084 226.153072 
L 490.134965 193.140635 
L 525.253846 160.815127 
L 560.372727 122.307033 
" clip-path="url(#p599b4e5b4a)" style="fill: none; stroke-dasharray: 3.7,1.6; stroke-dashoffset: 0; stroke: #2ca02c; stroke-opacity: 0.6"/>
   </g>
   <g id="line2d_76">
    <path d="M 103.827273 130.998405 
L 138.946154 119.379685 
L 174.065035 112.686855 
L 209.183916 101.694958 
L 244.302797 92.513811 
L 279.421678 227.953623 
L 314.540559 196.561074 
L 349.659441 273.864176 
L 384.778322 283.050352 
L 419.897203 258.337064 
L 455.016084 221.536248 
L 490.134965 185.194994 
L 525.253846 149.740429 
L 560.372727 107.884439 
" clip-path="url(#p599b4e5b4a)" style="fill: none; stroke-dasharray: 3.7,1.6; stroke-dashoffset: 0; stroke: #d62728; stroke-opacity: 0.6"/>
   </g>
   <g id="line2d_77">
    <path d="M 103.827273 130.998405 
L 138.946154 114.131372 
L 174.065035 105.914239 
L 209.183916 97.302977 
L 244.302797 81.666175 
L 279.421678 227.536882 
L 314.540559 204.176532 
L 349.659441 280.238106 
L 384.778322 290.913507 
L 419.897203 268.569626 
L 455.016084 237.432131 
L 490.134965 207.077182 
L 525.253846 178.121229 
L 560.372727 149.12106 
" clip-path="url(#p599b4e5b4a)" style="fill: none; stroke-dasharray: 3.7,1.6; stroke-dashoffset: 0; stroke: #9467bd; stroke-opacity: 0.6"/>
   </g>
   <g id="line2d_78">
    <path d="M 103.827273 130.998405 
L 138.946154 113.199792 
L 174.065035 98.446732 
L 209.183916 87.981369 
L 244.302797 69.140667 
L 279.421678 199.077093 
L 314.540559 170.244473 
L 349.659441 249.794162 
L 384.778322 257.842376 
L 419.897203 230.939018 
L 455.016084 196.426695 
L 490.134965 158.771061 
L 525.253846 120.341637 
L 560.372727 88.753335 
" clip-path="url(#p599b4e5b4a)" style="fill: none; stroke-dasharray: 3.7,1.6; stroke-dashoffset: 0; stroke: #8c564b; stroke-opacity: 0.6"/>
   </g>
   <g id="line2d_79">
    <path d="M 103.827273 130.998405 
L 138.946154 109.141513 
L 174.065035 91.489736 
L 209.183916 74.635414 
L 244.302797 55.8 
L 279.421678 199.866262 
L 314.540559 173.274674 
L 349.659441 251.71983 
L 384.778322 259.556501 
L 419.897203 229.73361 
L 455.016084 198.351914 
L 490.134965 158.27065 
L 525.253846 127.668693 
L 560.372727 91.448642 
" clip-path="url(#p599b4e5b4a)" style="fill: none; stroke-dasharray: 3.7,1.6; stroke-dashoffset: 0; stroke: #e377c2; stroke-opacity: 0.6"/>
   </g>
   <g id="line2d_80">
    <path d="M 103.827273 130.998405 
L 138.946154 111.604065 
L 174.065035 100.906092 
L 209.183916 85.976983 
L 244.302797 74.547555 
L 279.421678 221.311326 
L 314.540559 198.019806 
L 349.659441 275.735527 
L 384.778322 285.600552 
L 419.897203 259.543483 
L 455.016084 223.436891 
L 490.134965 188.515282 
L 525.253846 154.654649 
L 560.372727 123.149281 
" clip-path="url(#p599b4e5b4a)" style="fill: none; stroke-dasharray: 3.7,1.6; stroke-dashoffset: 0; stroke: #7f7f7f; stroke-opacity: 0.6"/>
   </g>
   <g id="line2d_81">
    <path d="M 103.827273 130.998405 
L 138.946154 123.297011 
L 174.065035 109.997795 
L 209.183916 83.226301 
L 244.302797 58.167609 
L 279.421678 202.556707 
L 314.540559 169.423799 
L 349.659441 249.819749 
L 384.778322 257.635882 
L 419.897203 223.334542 
L 455.016084 189.563464 
L 490.134965 154.680348 
L 525.253846 111.438268 
L 560.372727 74.521748 
" clip-path="url(#p599b4e5b4a)" style="fill: none; stroke-dasharray: 3.7,1.6; stroke-dashoffset: 0; stroke: #bcbd22; stroke-opacity: 0.6"/>
   </g>
   <g id="line2d_82">
    <path d="M 103.827273 130.998405 
L 138.946154 120.425959 
L 174.065035 103.806415 
L 209.183916 82.554909 
L 244.302797 69.050219 
L 279.421678 209.197201 
L 314.540559 179.645942 
L 349.659441 259.209277 
L 384.778322 267.218212 
L 419.897203 240.997182 
L 455.016084 205.359466 
L 490.134965 172.868876 
L 525.253846 132.917905 
L 560.372727 87.999968 
" clip-path="url(#p599b4e5b4a)" style="fill: none; stroke-dasharray: 3.7,1.6; stroke-dashoffset: 0; stroke: #17becf; stroke-opacity: 0.6"/>
   </g>
   <g id="line2d_83">
    <path d="M 103.827273 130.998405 
L 138.946154 122.459363 
L 174.065035 108.429379 
L 209.183916 88.791551 
L 244.302797 68.26478 
L 279.421678 206.60988 
L 314.540559 180.659573 
L 349.659441 259.807773 
L 384.778322 264.976967 
L 419.897203 227.755308 
L 455.016084 188.927372 
L 490.134965 147.881759 
L 525.253846 99.603807 
L 560.372727 65.355099 
" clip-path="url(#p599b4e5b4a)" style="fill: none; stroke-dasharray: 3.7,1.6; stroke-dashoffset: 0; stroke: #1f77b4; stroke-opacity: 0.6"/>
   </g>
   <g id="line2d_84">
    <path d="M 103.827273 130.998405 
L 138.946154 124.486595 
L 174.065035 119.350297 
L 209.183916 108.665342 
L 244.302797 98.422949 
L 279.421678 229.190653 
L 314.540559 207.499834 
L 349.659441 283.25909 
L 384.778322 294.916797 
L 419.897203 272.204929 
L 455.016084 244.280324 
L 490.134965 212.928256 
L 525.253846 184.639817 
L 560.372727 155.482084 
" clip-path="url(#p599b4e5b4a)" style="fill: none; stroke-dasharray: 3.7,1.6; stroke-dashoffset: 0; stroke: #ff7f0e; stroke-opacity: 0.6"/>
   </g>
   <g id="line2d_85">
    <path d="M 103.827273 130.998405 
L 138.946154 125.089131 
L 174.065035 114.69487 
L 209.183916 93.268742 
L 244.302797 68.301721 
L 279.421678 207.791482 
L 314.540559 176.471907 
L 349.659441 255.43661 
L 384.778322 263.236246 
L 419.897203 236.550268 
L 455.016084 203.15043 
L 490.134965 170.126883 
L 525.253846 123.397298 
L 560.372727 84.221016 
" clip-path="url(#p599b4e5b4a)" style="fill: none; stroke-dasharray: 3.7,1.6; stroke-dashoffset: 0; stroke: #2ca02c; stroke-opacity: 0.6"/>
   </g>
   <g id="line2d_86">
    <path d="M 103.827273 130.998405 
L 138.946154 123.639746 
L 174.065035 110.376829 
L 209.183916 98.387645 
L 244.302797 81.452504 
L 279.421678 215.051111 
L 314.540559 189.194864 
L 349.659441 266.540486 
L 384.778322 274.993047 
L 419.897203 250.08359 
L 455.016084 215.454216 
L 490.134965 180.061823 
L 525.253846 146.774772 
L 560.372727 106.906511 
" clip-path="url(#p599b4e5b4a)" style="fill: none; stroke-dasharray: 3.7,1.6; stroke-dashoffset: 0; stroke: #d62728; stroke-opacity: 0.6"/>
   </g>
   <g id="line2d_87">
    <path d="M 103.827273 130.998405 
L 138.946154 116.370148 
L 174.065035 100.04402 
L 209.183916 90.63806 
L 244.302797 73.808311 
L 279.421678 219.894864 
L 314.540559 193.811294 
L 349.659441 270.908619 
L 384.778322 278.897915 
L 419.897203 248.657211 
L 455.016084 215.003296 
L 490.134965 178.454425 
L 525.253846 134.662442 
L 560.372727 101.391663 
" clip-path="url(#p599b4e5b4a)" style="fill: none; stroke-dasharray: 3.7,1.6; stroke-dashoffset: 0; stroke: #9467bd; stroke-opacity: 0.6"/>
   </g>
   <g id="line2d_88">
    <path d="M 103.827273 130.998405 
L 138.946154 121.793308 
L 174.065035 111.29898 
L 209.183916 101.607223 
L 244.302797 88.56431 
L 279.421678 220.16688 
L 314.540559 191.174817 
L 349.659441 269.611971 
L 384.778322 276.25569 
L 419.897203 249.729745 
L 455.016084 209.628841 
L 490.134965 165.912947 
L 525.253846 121.274675 
L 560.372727 87.598652 
" clip-path="url(#p599b4e5b4a)" style="fill: none; stroke-dasharray: 3.7,1.6; stroke-dashoffset: 0; stroke: #8c564b; stroke-opacity: 0.6"/>
   </g>
   <g id="line2d_89">
    <path d="M 103.827273 130.998405 
L 138.946154 121.265065 
L 174.065035 113.759272 
L 209.183916 97.50447 
L 244.302797 86.650068 
L 279.421678 233.74576 
L 314.540559 212.944946 
L 349.659441 288.732976 
L 384.778322 299.334309 
L 419.897203 276.096892 
L 455.016084 247.534063 
L 490.134965 205.732951 
L 525.253846 169.393043 
L 560.372727 128.555832 
" clip-path="url(#p599b4e5b4a)" style="fill: none; stroke-dasharray: 3.7,1.6; stroke-dashoffset: 0; stroke: #e377c2; stroke-opacity: 0.6"/>
   </g>
   <g id="line2d_90">
    <path d="M 103.827273 130.998405 
L 138.946154 116.418629 
L 174.065035 108.216459 
L 209.183916 88.985331 
L 244.302797 76.16103 
L 279.421678 220.187472 
L 314.540559 193.004067 
L 349.659441 270.730518 
L 384.778322 277.075718 
L 419.897203 248.523775 
L 455.016084 209.772265 
L 490.134965 169.654864 
L 525.253846 127.495418 
L 560.372727 88.544484 
" clip-path="url(#p599b4e5b4a)" style="fill: none; stroke-dasharray: 3.7,1.6; stroke-dashoffset: 0; stroke: #7f7f7f; stroke-opacity: 0.6"/>
   </g>
   <g id="line2d_91">
    <path d="M 103.827273 130.998405 
L 138.946154 121.074058 
L 174.065035 105.349952 
L 209.183916 95.685712 
L 244.302797 81.943865 
L 279.421678 223.463116 
L 314.540559 199.196834 
L 349.659441 275.29583 
L 384.778322 285.009688 
L 419.897203 258.06851 
L 455.016084 226.651912 
L 490.134965 191.949816 
L 525.253846 154.485638 
L 560.372727 119.53934 
" clip-path="url(#p599b4e5b4a)" style="fill: none; stroke-dasharray: 3.7,1.6; stroke-dashoffset: 0; stroke: #bcbd22; stroke-opacity: 0.6"/>
   </g>
   <g id="line2d_92">
    <path d="M 103.827273 130.998405 
L 138.946154 111.990232 
L 174.065035 92.801359 
L 209.183916 72.564971 
L 244.302797 59.078788 
L 279.421678 189.886189 
L 314.540559 162.201877 
L 349.659441 244.538217 
L 384.778322 252.238983 
L 419.897203 224.161527 
L 455.016084 190.849899 
L 490.134965 155.529667 
L 525.253846 120.926329 
L 560.372727 85.536854 
" clip-path="url(#p599b4e5b4a)" style="fill: none; stroke-dasharray: 3.7,1.6; stroke-dashoffset: 0; stroke: #17becf; stroke-opacity: 0.6"/>
   </g>
   <g id="line2d_93">
    <path d="M 103.827273 130.998405 
L 138.946154 125.998603 
L 174.065035 115.719319 
L 209.183916 108.564185 
L 244.302797 96.19472 
L 279.421678 234.397484 
L 314.540559 211.473306 
L 349.659441 285.635005 
L 384.778322 294.919827 
L 419.897203 265.46133 
L 455.016084 227.78819 
L 490.134965 194.072214 
L 525.253846 161.578257 
L 560.372727 124.612134 
" clip-path="url(#p599b4e5b4a)" style="fill: none; stroke-dasharray: 3.7,1.6; stroke-dashoffset: 0; stroke: #1f77b4; stroke-opacity: 0.6"/>
   </g>
   <g id="line2d_94">
    <path d="M 103.827273 130.998405 
L 138.946154 124.939872 
L 174.065035 104.853215 
L 209.183916 96.180757 
L 244.302797 82.432384 
L 279.421678 224.177844 
L 314.540559 195.961429 
L 349.659441 274.252699 
L 384.778322 282.414036 
L 419.897203 251.714444 
L 455.016084 216.90203 
L 490.134965 183.334753 
L 525.253846 148.09061 
L 560.372727 106.3446 
" clip-path="url(#p599b4e5b4a)" style="fill: none; stroke-dasharray: 3.7,1.6; stroke-dashoffset: 0; stroke: #ff7f0e; stroke-opacity: 0.6"/>
   </g>
   <g id="line2d_95">
    <path d="M 103.827273 130.998405 
L 138.946154 121.487832 
L 174.065035 114.231362 
L 209.183916 99.984957 
L 244.302797 90.097772 
L 279.421678 228.611531 
L 314.540559 204.684549 
L 349.659441 279.970337 
L 384.778322 289.807867 
L 419.897203 264.233926 
L 455.016084 230.624564 
L 490.134965 196.934064 
L 525.253846 156.632614 
L 560.372727 123.574277 
" clip-path="url(#p599b4e5b4a)" style="fill: none; stroke-dasharray: 3.7,1.6; stroke-dashoffset: 0; stroke: #2ca02c; stroke-opacity: 0.6"/>
   </g>
   <g id="line2d_96">
    <path d="M 103.827273 130.998405 
L 138.946154 114.535943 
L 174.065035 106.655524 
L 209.183916 92.043447 
L 244.302797 73.217232 
L 279.421678 217.859952 
L 314.540559 195.980547 
L 349.659441 273.611894 
L 384.778322 282.926567 
L 419.897203 253.912258 
L 455.016084 214.618364 
L 490.134965 179.003766 
L 525.253846 140.290076 
L 560.372727 99.727815 
" clip-path="url(#p599b4e5b4a)" style="fill: none; stroke-dasharray: 3.7,1.6; stroke-dashoffset: 0; stroke: #d62728; stroke-opacity: 0.6"/>
   </g>
   <g id="line2d_97">
    <path d="M 103.827273 130.998405 
L 138.946154 119.385297 
L 174.065035 101.076731 
L 209.183916 93.145962 
L 244.302797 83.183513 
L 279.421678 218.64026 
L 314.540559 195.680128 
L 349.659441 273.244469 
L 384.778322 283.311387 
L 419.897203 257.488307 
L 455.016084 229.456639 
L 490.134965 188.626722 
L 525.253846 151.848127 
L 560.372727 116.876803 
" clip-path="url(#p599b4e5b4a)" style="fill: none; stroke-dasharray: 3.7,1.6; stroke-dashoffset: 0; stroke: #9467bd; stroke-opacity: 0.6"/>
   </g>
   <g id="line2d_98">
    <path d="M 103.827273 130.998405 
L 138.946154 122.681457 
L 174.065035 116.045262 
L 209.183916 107.255772 
L 244.302797 98.791129 
L 279.421678 241.866587 
L 314.540559 220.557523 
L 349.659441 293.976015 
L 384.778322 305.986332 
L 419.897203 282.355006 
L 455.016084 251.955727 
L 490.134965 217.659998 
L 525.253846 183.711043 
L 560.372727 144.561134 
" clip-path="url(#p599b4e5b4a)" style="fill: none; stroke-dasharray: 3.7,1.6; stroke-dashoffset: 0; stroke: #8c564b; stroke-opacity: 0.6"/>
   </g>
   <g id="line2d_99">
    <path d="M 103.827273 130.998405 
L 138.946154 122.582025 
L 174.065035 106.848331 
L 209.183916 95.575604 
L 244.302797 85.844672 
L 279.421678 230.183642 
L 314.540559 198.19852 
L 349.659441 276.333013 
L 384.778322 284.722841 
L 419.897203 257.222446 
L 455.016084 224.054914 
L 490.134965 185.007354 
L 525.253846 151.244244 
L 560.372727 115.643787 
" clip-path="url(#p599b4e5b4a)" style="fill: none; stroke-dasharray: 3.7,1.6; stroke-dashoffset: 0; stroke: #e377c2; stroke-opacity: 0.6"/>
   </g>
   <g id="line2d_100">
    <path d="M 103.827273 130.998405 
L 138.946154 122.601777 
L 174.065035 109.397967 
L 209.183916 94.091163 
L 244.302797 78.871914 
L 279.421678 224.455636 
L 314.540559 197.89858 
L 349.659441 275.457546 
L 384.778322 284.69658 
L 419.897203 257.230975 
L 455.016084 217.323772 
L 490.134965 175.441409 
L 525.253846 133.190836 
L 560.372727 100.076274 
" clip-path="url(#p599b4e5b4a)" style="fill: none; stroke-dasharray: 3.7,1.6; stroke-dashoffset: 0; stroke: #7f7f7f; stroke-opacity: 0.6"/>
   </g>
   <g id="line2d_101">
    <path d="M 103.827273 130.998405 
L 138.946154 120.288259 
L 174.065035 104.48686 
L 209.183916 83.941458 
L 244.302797 76.709082 
L 279.421678 223.212514 
L 314.540559 201.171897 
L 349.659441 276.758121 
L 384.778322 288.184196 
L 419.897203 267.091959 
L 455.016084 236.70626 
L 490.134965 204.943448 
L 525.253846 167.422036 
L 560.372727 132.384948 
" clip-path="url(#p599b4e5b4a)" style="fill: none; stroke-dasharray: 3.7,1.6; stroke-dashoffset: 0; stroke: #bcbd22; stroke-opacity: 0.6"/>
   </g>
   <g id="line2d_102">
    <path d="M 103.827273 130.998405 
L 138.946154 115.956824 
L 174.065035 102.318671 
L 209.183916 87.952164 
L 244.302797 70.66763 
L 279.421678 209.988964 
L 314.540559 189.774368 
L 349.659441 266.740807 
L 384.778322 276.09779 
L 419.897203 251.36722 
L 455.016084 212.776303 
L 490.134965 175.907704 
L 525.253846 135.800515 
L 560.372727 101.132536 
" clip-path="url(#p599b4e5b4a)" style="fill: none; stroke-dasharray: 3.7,1.6; stroke-dashoffset: 0; stroke: #17becf; stroke-opacity: 0.6"/>
   </g>
   <g id="line2d_103">
    <path d="M 103.827273 130.998405 
L 138.946154 111.918183 
L 174.065035 100.728608 
L 209.183916 86.675444 
L 244.302797 76.800531 
L 279.421678 214.744374 
L 314.540559 183.462857 
L 349.659441 262.452354 
L 384.778322 270.111934 
L 419.897203 233.087005 
L 455.016084 188.833216 
L 490.134965 152.528098 
L 525.253846 116.557298 
L 560.372727 81.18376 
" clip-path="url(#p599b4e5b4a)" style="fill: none; stroke-dasharray: 3.7,1.6; stroke-dashoffset: 0; stroke: #1f77b4; stroke-opacity: 0.6"/>
   </g>
   <g id="line2d_104">
    <path d="M 103.827273 130.998405 
L 138.946154 122.51671 
L 174.065035 112.307302 
L 209.183916 103.8423 
L 244.302797 91.371833 
L 279.421678 238.546682 
L 314.540559 220.77963 
L 349.659441 295.375797 
L 384.778322 307.8 
L 419.897203 279.271288 
L 455.016084 248.493138 
L 490.134965 213.673879 
L 525.253846 178.332549 
L 560.372727 141.481232 
" clip-path="url(#p599b4e5b4a)" style="fill: none; stroke-dasharray: 3.7,1.6; stroke-dashoffset: 0; stroke: #ff7f0e; stroke-opacity: 0.6"/>
   </g>
   <g id="line2d_105">
    <path d="M 103.827273 130.998405 
L 138.946154 115.197285 
L 174.065035 100.383937 
L 209.183916 86.316548 
L 244.302797 76.009163 
L 279.421678 207.246648 
L 314.540559 172.874784 
L 349.659441 252.342791 
L 384.778322 258.287797 
L 419.897203 229.698371 
L 455.016084 192.935488 
L 490.134965 150.53386 
L 525.253846 114.179475 
L 560.372727 70.710812 
" clip-path="url(#p599b4e5b4a)" style="fill: none; stroke-dasharray: 3.7,1.6; stroke-dashoffset: 0; stroke: #2ca02c; stroke-opacity: 0.6"/>
   </g>
   <g id="line2d_106">
    <path d="M 103.827273 130.998405 
L 138.946154 125.838458 
L 174.065035 110.643524 
L 209.183916 99.685163 
L 244.302797 82.795416 
L 279.421678 223.20145 
L 314.540559 196.549467 
L 349.659441 274.860621 
L 384.778322 283.493191 
L 419.897203 255.734455 
L 455.016084 226.698373 
L 490.134965 186.768725 
L 525.253846 152.879923 
L 560.372727 116.878598 
" clip-path="url(#p599b4e5b4a)" style="fill: none; stroke-dasharray: 3.7,1.6; stroke-dashoffset: 0; stroke: #d62728; stroke-opacity: 0.6"/>
   </g>
   <g id="line2d_107">
    <path d="M 103.827273 130.998405 
L 138.946154 118.159014 
L 174.065035 109.758452 
L 209.183916 92.865667 
L 244.302797 80.99841 
L 279.421678 221.170944 
L 314.540559 192.328358 
L 349.659441 271.505656 
L 384.778322 278.943366 
L 419.897203 249.031593 
L 455.016084 209.714806 
L 490.134965 176.07144 
L 525.253846 145.40529 
L 560.372727 106.338091 
" clip-path="url(#p599b4e5b4a)" style="fill: none; stroke-dasharray: 3.7,1.6; stroke-dashoffset: 0; stroke: #9467bd; stroke-opacity: 0.6"/>
   </g>
   <g id="line2d_108">
    <path d="M 103.827273 130.998405 
L 138.946154 126.20779 
L 174.065035 119.381967 
L 209.183916 98.799866 
L 244.302797 83.493592 
L 279.421678 223.295181 
L 314.540559 194.442574 
L 349.659441 270.906374 
L 384.778322 279.450848 
L 419.897203 255.737597 
L 455.016084 224.801883 
L 490.134965 193.425462 
L 525.253846 152.787001 
L 560.372727 114.111691 
" clip-path="url(#p599b4e5b4a)" style="fill: none; stroke-dasharray: 3.7,1.6; stroke-dashoffset: 0; stroke: #8c564b; stroke-opacity: 0.6"/>
   </g>
   <g id="line2d_109">
    <path d="M 103.827273 130.998405 
L 138.946154 120.701359 
L 174.065035 109.988278 
L 209.183916 98.86861 
L 244.302797 86.581987 
L 279.421678 220.189095 
L 314.540559 195.720338 
L 349.659441 272.718247 
L 384.778322 280.686669 
L 419.897203 253.332279 
L 455.016084 210.589263 
L 490.134965 174.475488 
L 525.253846 129.863814 
L 560.372727 91.397018 
" clip-path="url(#p599b4e5b4a)" style="fill: none; stroke-dasharray: 3.7,1.6; stroke-dashoffset: 0; stroke: #e377c2; stroke-opacity: 0.6"/>
   </g>
   <g id="line2d_110">
    <path d="M 103.827273 130.998405 
L 138.946154 115.405013 
L 174.065035 102.71167 
L 209.183916 89.206871 
L 244.302797 72.73056 
L 279.421678 209.408984 
L 314.540559 183.934335 
L 349.659441 261.683276 
L 384.778322 270.885164 
L 419.897203 238.98656 
L 455.016084 200.206432 
L 490.134965 167.927722 
L 525.253846 130.320906 
L 560.372727 100.713936 
" clip-path="url(#p599b4e5b4a)" style="fill: none; stroke-dasharray: 3.7,1.6; stroke-dashoffset: 0; stroke: #7f7f7f; stroke-opacity: 0.6"/>
   </g>
   <g id="line2d_111">
    <path d="M 103.827273 130.998405 
L 138.946154 121.785228 
L 174.065035 107.184365 
L 209.183916 82.361202 
L 244.302797 70.483992 
L 279.421678 212.833311 
L 314.540559 177.646783 
L 349.659441 257.113026 
L 384.778322 265.089978 
L 419.897203 233.927457 
L 455.016084 196.810841 
L 490.134965 161.89518 
L 525.253846 130.322477 
L 560.372727 91.656819 
" clip-path="url(#p599b4e5b4a)" style="fill: none; stroke-dasharray: 3.7,1.6; stroke-dashoffset: 0; stroke: #bcbd22; stroke-opacity: 0.6"/>
   </g>
   <g id="line2d_112">
    <path d="M 103.827273 130.998405 
L 138.946154 123.526286 
L 174.065035 113.803078 
L 209.183916 104.264907 
L 244.302797 86.481489 
L 279.421678 230.527628 
L 314.540559 203.192191 
L 349.659441 279.621654 
L 384.778322 289.362782 
L 419.897203 259.02534 
L 455.016084 224.036733 
L 490.134965 191.725141 
L 525.253846 155.862639 
L 560.372727 123.489323 
" clip-path="url(#p599b4e5b4a)" style="fill: none; stroke-dasharray: 3.7,1.6; stroke-dashoffset: 0; stroke: #17becf; stroke-opacity: 0.6"/>
   </g>
   <g id="line2d_113">
    <path d="M 103.827273 130.998405 
L 138.946154 120.610443 
L 174.065035 108.376569 
L 209.183916 94.920318 
L 244.302797 80.038482 
L 279.421678 220.482708 
L 314.540559 194.152599 
L 349.659441 271.609748 
L 384.778322 280.591411 
L 419.897203 252.95091 
L 455.016084 218.780334 
L 490.134965 183.193001 
L 525.253846 146.491221 
L 560.372727 110.082526 
" clip-path="url(#p599b4e5b4a)" style="fill: none; stroke: #000000; stroke-width: 2.5; stroke-linecap: square"/>
   </g>
   <g id="patch_3">
    <path d="M 81 320.4 
L 81 43.2 
" style="fill: none; stroke: #000000; stroke-width: 0.8; stroke-linejoin: miter; stroke-linecap: square"/>
   </g>
   <g id="patch_4">
    <path d="M 583.2 320.4 
L 583.2 43.2 
" style="fill: none; stroke: #000000; stroke-width: 0.8; stroke-linejoin: miter; stroke-linecap: square"/>
   </g>
   <g id="patch_5">
    <path d="M 81 320.4 
L 583.2 320.4 
" style="fill: none; stroke: #000000; stroke-width: 0.8; stroke-linejoin: miter; stroke-linecap: square"/>
   </g>
   <g id="patch_6">
    <path d="M 81 43.2 
L 583.2 43.2 
" style="fill: none; stroke: #000000; stroke-width: 0.8; stroke-linejoin: miter; stroke-linecap: square"/>
   </g>
   <g id="legend_1">
    <g id="patch_7">
     <path d="M 88 65.878125 
L 161.065625 65.878125 
Q 163.065625 65.878125 163.065625 63.878125 
L 163.065625 50.2 
Q 163.065625 48.2 161.065625 48.2 
L 88 48.2 
Q 86 48.2 86 50.2 
L 86 63.878125 
Q 86 65.878125 88 65.878125 
z
" style="fill: #ffffff; opacity: 0.8; stroke: #cccccc; stroke-linejoin: miter"/>
    </g>
    <g id="line2d_114">
     <path d="M 90 56.298437 
L 100 56.298437 
L 110 56.298437 
" style="fill: none; stroke: #000000; stroke-width: 2.5; stroke-linecap: square"/>
    </g>
    <g id="text_15">
     <!-- Average -->
     <g transform="translate(118 59.798437) scale(0.1 -0.1)">
      <defs>
       <path id="DejaVuSans-41" d="M 2188 4044 
L 1331 1722 
L 3047 1722 
L 2188 4044 
z
M 1831 4666 
L 2547 4666 
L 4325 0 
L 3669 0 
L 3244 1197 
L 1141 1197 
L 716 0 
L 50 0 
L 1831 4666 
z
" transform="scale(0.015625)"/>
       <path id="DejaVuSans-67" d="M 2906 1791 
Q 2906 2416 2648 2759 
Q 2391 3103 1925 3103 
Q 1463 3103 1205 2759 
Q 947 2416 947 1791 
Q 947 1169 1205 825 
Q 1463 481 1925 481 
Q 2391 481 2648 825 
Q 2906 1169 2906 1791 
z
M 3481 434 
Q 3481 -459 3084 -895 
Q 2688 -1331 1869 -1331 
Q 1566 -1331 1297 -1286 
Q 1028 -1241 775 -1147 
L 775 -588 
Q 1028 -725 1275 -790 
Q 1522 -856 1778 -856 
Q 2344 -856 2625 -561 
Q 2906 -266 2906 331 
L 2906 616 
Q 2728 306 2450 153 
Q 2172 0 1784 0 
Q 1141 0 747 490 
Q 353 981 353 1791 
Q 353 2603 747 3093 
Q 1141 3584 1784 3584 
Q 2172 3584 2450 3431 
Q 2728 3278 2906 2969 
L 2906 3500 
L 3481 3500 
L 3481 434 
z
" transform="scale(0.015625)"/>
      </defs>
      <use xlink:href="#DejaVuSans-41"/>
      <use xlink:href="#DejaVuSans-76" x="62.533203"/>
      <use xlink:href="#DejaVuSans-65" x="121.712891"/>
      <use xlink:href="#DejaVuSans-72" x="183.236328"/>
      <use xlink:href="#DejaVuSans-61" x="224.349609"/>
      <use xlink:href="#DejaVuSans-67" x="285.628906"/>
      <use xlink:href="#DejaVuSans-65" x="349.105469"/>
     </g>
    </g>
   </g>
  </g>
 </g>
 <defs>
  <clipPath id="p599b4e5b4a">
   <rect x="81" y="43.2" width="502.2" height="277.2"/>
  </clipPath>
 </defs>
</svg>
