<?xml version="1.0" encoding="utf-8" standalone="no"?>
<!DOCTYPE svg PUBLIC "-//W3C//DTD SVG 1.1//EN"
  "http://www.w3.org/Graphics/SVG/1.1/DTD/svg11.dtd">
<svg xmlns:xlink="http://www.w3.org/1999/xlink" width="648pt" height="360pt" viewBox="0 0 648 360" xmlns="http://www.w3.org/2000/svg" version="1.1">
 <metadata>
  <rdf:RDF xmlns:dc="http://purl.org/dc/elements/1.1/" xmlns:cc="http://creativecommons.org/ns#" xmlns:rdf="http://www.w3.org/1999/02/22-rdf-syntax-ns#">
   <cc:Work>
    <dc:type rdf:resource="http://purl.org/dc/dcmitype/StillImage"/>
    <dc:date>2026-02-16T16:17:26.859158</dc:date>
    <dc:format>image/svg+xml</dc:format>
    <dc:creator>
     <cc:Agent>
      <dc:title>Matplotlib v3.8.0, https://matplotlib.org/</dc:title>
     </cc:Agent>
    </dc:creator>
   </cc:Work>
  </rdf:RDF>
 </metadata>
 <defs>
  <style type="text/css">*{stroke-linejoin: round; stroke-linecap: butt}</style>
 </defs>
 <g id="figure_1">
  <g id="patch_1">
   <path d="M 0 360 
L 648 360 
L 648 0 
L 0 0 
z
" style="fill: #ffffff"/>
  </g>
  <g id="axes_1">
   <g id="patch_2">
    <path d="M 81 320.4 
L 583.2 320.4 
L 583.2 43.2 
L 81 43.2 
z
" style="fill: #ffffff"/>
   </g>
   <g id="matplotlib.axis_1">
    <g id="xtick_1">
     <g id="line2d_1">
      <defs>
       <path id="mf68647e051" d="M 0 0 
L 0 3.5 
" style="stroke: #000000; stroke-width: 0.8"/>
      </defs>
      <g>
       <use xlink:href="#mf68647e051" x="103.827273" y="320.4" style="stroke: #000000; stroke-width: 0.8"/>
      </g>
     </g>
     <g id="text_1">
      <!-- 2012 -->
      <g transform="translate(88.557273 336.518125) scale(0.12 -0.12)">
       <defs>
        <path id="DejaVuSans-32" d="M 1228 531 
L 3431 531 
L 3431 0 
L 469 0 
L 469 531 
Q 828 903 1448 1529 
Q 2069 2156 2228 2338 
Q 2531 2678 2651 2914 
Q 2772 3150 2772 3378 
Q 2772 3750 2511 3984 
Q 2250 4219 1831 4219 
Q 1534 4219 1204 4116 
Q 875 4013 500 3803 
L 500 4441 
Q 881 4594 1212 4672 
Q 1544 4750 1819 4750 
Q 2544 4750 2975 4387 
Q 3406 4025 3406 3419 
Q 3406 3131 3298 2873 
Q 3191 2616 2906 2266 
Q 2828 2175 2409 1742 
Q 1991 1309 1228 531 
z
" transform="scale(0.015625)"/>
        <path id="DejaVuSans-30" d="M 2034 4250 
Q 1547 4250 1301 3770 
Q 1056 3291 1056 2328 
Q 1056 1369 1301 889 
Q 1547 409 2034 409 
Q 2525 409 2770 889 
Q 3016 1369 3016 2328 
Q 3016 3291 2770 3770 
Q 2525 4250 2034 4250 
z
M 2034 4750 
Q 2819 4750 3233 4129 
Q 3647 3509 3647 2328 
Q 3647 1150 3233 529 
Q 2819 -91 2034 -91 
Q 1250 -91 836 529 
Q 422 1150 422 2328 
Q 422 3509 836 4129 
Q 1250 4750 2034 4750 
z
" transform="scale(0.015625)"/>
        <path id="DejaVuSans-31" d="M 794 531 
L 1825 531 
L 1825 4091 
L 703 3866 
L 703 4441 
L 1819 4666 
L 2450 4666 
L 2450 531 
L 3481 531 
L 3481 0 
L 794 0 
L 794 531 
z
" transform="scale(0.015625)"/>
       </defs>
       <use xlink:href="#DejaVuSans-32"/>
       <use xlink:href="#DejaVuSans-30" x="63.623047"/>
       <use xlink:href="#DejaVuSans-31" x="127.246094"/>
       <use xlink:href="#DejaVuSans-32" x="190.869141"/>
      </g>
     </g>
    </g>
    <g id="xtick_2">
     <g id="line2d_2">
      <g>
       <use xlink:href="#mf68647e051" x="179.918182" y="320.4" style="stroke: #000000; stroke-width: 0.8"/>
      </g>
     </g>
     <g id="text_2">
      <!-- 2014 -->
      <g transform="translate(164.648182 336.518125) scale(0.12 -0.12)">
       <defs>
        <path id="DejaVuSans-34" d="M 2419 4116 
L 825 1625 
L 2419 1625 
L 2419 4116 
z
M 2253 4666 
L 3047 4666 
L 3047 1625 
L 3713 1625 
L 3713 1100 
L 3047 1100 
L 3047 0 
L 2419 0 
L 2419 1100 
L 313 1100 
L 313 1709 
L 2253 4666 
z
" transform="scale(0.015625)"/>
       </defs>
       <use xlink:href="#DejaVuSans-32"/>
       <use xlink:href="#DejaVuSans-30" x="63.623047"/>
       <use xlink:href="#DejaVuSans-31" x="127.246094"/>
       <use xlink:href="#DejaVuSans-34" x="190.869141"/>
      </g>
     </g>
    </g>
    <g id="xtick_3">
     <g id="line2d_3">
      <g>
       <use xlink:href="#mf68647e051" x="256.009091" y="320.4" style="stroke: #000000; stroke-width: 0.8"/>
      </g>
     </g>
     <g id="text_3">
      <!-- 2016 -->
      <g transform="translate(240.739091 336.518125) scale(0.12 -0.12)">
       <defs>
        <path id="DejaVuSans-36" d="M 2113 2584 
Q 1688 2584 1439 2293 
Q 1191 2003 1191 1497 
Q 1191 994 1439 701 
Q 1688 409 2113 409 
Q 2538 409 2786 701 
Q 3034 994 3034 1497 
Q 3034 2003 2786 2293 
Q 2538 2584 2113 2584 
z
M 3366 4563 
L 3366 3988 
Q 3128 4100 2886 4159 
Q 2644 4219 2406 4219 
Q 1781 4219 1451 3797 
Q 1122 3375 1075 2522 
Q 1259 2794 1537 2939 
Q 1816 3084 2150 3084 
Q 2853 3084 3261 2657 
Q 3669 2231 3669 1497 
Q 3669 778 3244 343 
Q 2819 -91 2113 -91 
Q 1303 -91 875 529 
Q 447 1150 447 2328 
Q 447 3434 972 4092 
Q 1497 4750 2381 4750 
Q 2619 4750 2861 4703 
Q 3103 4656 3366 4563 
z
" transform="scale(0.015625)"/>
       </defs>
       <use xlink:href="#DejaVuSans-32"/>
       <use xlink:href="#DejaVuSans-30" x="63.623047"/>
       <use xlink:href="#DejaVuSans-31" x="127.246094"/>
       <use xlink:href="#DejaVuSans-36" x="190.869141"/>
      </g>
     </g>
    </g>
    <g id="xtick_4">
     <g id="line2d_4">
      <g>
       <use xlink:href="#mf68647e051" x="332.1" y="320.4" style="stroke: #000000; stroke-width: 0.8"/>
      </g>
     </g>
     <g id="text_4">
      <!-- 2018 -->
      <g transform="translate(316.83 336.518125) scale(0.12 -0.12)">
       <defs>
        <path id="DejaVuSans-38" d="M 2034 2216 
Q 1584 2216 1326 1975 
Q 1069 1734 1069 1313 
Q 1069 891 1326 650 
Q 1584 409 2034 409 
Q 2484 409 2743 651 
Q 3003 894 3003 1313 
Q 3003 1734 2745 1975 
Q 2488 2216 2034 2216 
z
M 1403 2484 
Q 997 2584 770 2862 
Q 544 3141 544 3541 
Q 544 4100 942 4425 
Q 1341 4750 2034 4750 
Q 2731 4750 3128 4425 
Q 3525 4100 3525 3541 
Q 3525 3141 3298 2862 
Q 3072 2584 2669 2484 
Q 3125 2378 3379 2068 
Q 3634 1759 3634 1313 
Q 3634 634 3220 271 
Q 2806 -91 2034 -91 
Q 1263 -91 848 271 
Q 434 634 434 1313 
Q 434 1759 690 2068 
Q 947 2378 1403 2484 
z
M 1172 3481 
Q 1172 3119 1398 2916 
Q 1625 2713 2034 2713 
Q 2441 2713 2670 2916 
Q 2900 3119 2900 3481 
Q 2900 3844 2670 4047 
Q 2441 4250 2034 4250 
Q 1625 4250 1398 4047 
Q 1172 3844 1172 3481 
z
" transform="scale(0.015625)"/>
       </defs>
       <use xlink:href="#DejaVuSans-32"/>
       <use xlink:href="#DejaVuSans-30" x="63.623047"/>
       <use xlink:href="#DejaVuSans-31" x="127.246094"/>
       <use xlink:href="#DejaVuSans-38" x="190.869141"/>
      </g>
     </g>
    </g>
    <g id="xtick_5">
     <g id="line2d_5">
      <g>
       <use xlink:href="#mf68647e051" x="408.190909" y="320.4" style="stroke: #000000; stroke-width: 0.8"/>
      </g>
     </g>
     <g id="text_5">
      <!-- 2020 -->
      <g transform="translate(392.920909 336.518125) scale(0.12 -0.12)">
       <use xlink:href="#DejaVuSans-32"/>
       <use xlink:href="#DejaVuSans-30" x="63.623047"/>
       <use xlink:href="#DejaVuSans-32" x="127.246094"/>
       <use xlink:href="#DejaVuSans-30" x="190.869141"/>
      </g>
     </g>
    </g>
    <g id="xtick_6">
     <g id="line2d_6">
      <g>
       <use xlink:href="#mf68647e051" x="484.281818" y="320.4" style="stroke: #000000; stroke-width: 0.8"/>
      </g>
     </g>
     <g id="text_6">
      <!-- 2022 -->
      <g transform="translate(469.011818 336.518125) scale(0.12 -0.12)">
       <use xlink:href="#DejaVuSans-32"/>
       <use xlink:href="#DejaVuSans-30" x="63.623047"/>
       <use xlink:href="#DejaVuSans-32" x="127.246094"/>
       <use xlink:href="#DejaVuSans-32" x="190.869141"/>
      </g>
     </g>
    </g>
    <g id="xtick_7">
     <g id="line2d_7">
      <g>
       <use xlink:href="#mf68647e051" x="560.372727" y="320.4" style="stroke: #000000; stroke-width: 0.8"/>
      </g>
     </g>
     <g id="text_7">
      <!-- 2024 -->
      <g transform="translate(545.102727 336.518125) scale(0.12 -0.12)">
       <use xlink:href="#DejaVuSans-32"/>
       <use xlink:href="#DejaVuSans-30" x="63.623047"/>
       <use xlink:href="#DejaVuSans-32" x="127.246094"/>
       <use xlink:href="#DejaVuSans-34" x="190.869141"/>
      </g>
     </g>
    </g>
    <g id="text_8">
     <!-- Year -->
     <g transform="translate(316.21875 354.411406) scale(0.15 -0.15)">
      <defs>
       <path id="DejaVuSans-59" d="M -13 4666 
L 666 4666 
L 1959 2747 
L 3244 4666 
L 3922 4666 
L 2272 2222 
L 2272 0 
L 1638 0 
L 1638 2222 
L -13 4666 
z
" transform="scale(0.015625)"/>
       <path id="DejaVuSans-65" d="M 3597 1894 
L 3597 1613 
L 953 1613 
Q 991 1019 1311 708 
Q 1631 397 2203 397 
Q 2534 397 2845 478 
Q 3156 559 3463 722 
L 3463 178 
Q 3153 47 2828 -22 
Q 2503 -91 2169 -91 
Q 1331 -91 842 396 
Q 353 884 353 1716 
Q 353 2575 817 3079 
Q 1281 3584 2069 3584 
Q 2775 3584 3186 3129 
Q 3597 2675 3597 1894 
z
M 3022 2063 
Q 3016 2534 2758 2815 
Q 2500 3097 2075 3097 
Q 1594 3097 1305 2825 
Q 1016 2553 972 2059 
L 3022 2063 
z
" transform="scale(0.015625)"/>
       <path id="DejaVuSans-61" d="M 2194 1759 
Q 1497 1759 1228 1600 
Q 959 1441 959 1056 
Q 959 750 1161 570 
Q 1363 391 1709 391 
Q 2188 391 2477 730 
Q 2766 1069 2766 1631 
L 2766 1759 
L 2194 1759 
z
M 3341 1997 
L 3341 0 
L 2766 0 
L 2766 531 
Q 2569 213 2275 61 
Q 1981 -91 1556 -91 
Q 1019 -91 701 211 
Q 384 513 384 1019 
Q 384 1609 779 1909 
Q 1175 2209 1959 2209 
L 2766 2209 
L 2766 2266 
Q 2766 2663 2505 2880 
Q 2244 3097 1772 3097 
Q 1472 3097 1187 3025 
Q 903 2953 641 2809 
L 641 3341 
Q 956 3463 1253 3523 
Q 1550 3584 1831 3584 
Q 2591 3584 2966 3190 
Q 3341 2797 3341 1997 
z
" transform="scale(0.015625)"/>
       <path id="DejaVuSans-72" d="M 2631 2963 
Q 2534 3019 2420 3045 
Q 2306 3072 2169 3072 
Q 1681 3072 1420 2755 
Q 1159 2438 1159 1844 
L 1159 0 
L 581 0 
L 581 3500 
L 1159 3500 
L 1159 2956 
Q 1341 3275 1631 3429 
Q 1922 3584 2338 3584 
Q 2397 3584 2469 3576 
Q 2541 3569 2628 3553 
L 2631 2963 
z
" transform="scale(0.015625)"/>
      </defs>
      <use xlink:href="#DejaVuSans-59"/>
      <use xlink:href="#DejaVuSans-65" x="47.833984"/>
      <use xlink:href="#DejaVuSans-61" x="109.357422"/>
      <use xlink:href="#DejaVuSans-72" x="170.636719"/>
     </g>
    </g>
   </g>
   <g id="matplotlib.axis_2">
    <g id="ytick_1">
     <g id="line2d_8">
      <defs>
       <path id="m07b789df26" d="M 0 0 
L -3.5 0 
" style="stroke: #000000; stroke-width: 0.8"/>
      </defs>
      <g>
       <use xlink:href="#m07b789df26" x="81" y="290.398094" style="stroke: #000000; stroke-width: 0.8"/>
      </g>
     </g>
     <g id="text_9">
      <!-- 18 -->
      <g transform="translate(58.73 294.957156) scale(0.12 -0.12)">
       <use xlink:href="#DejaVuSans-31"/>
       <use xlink:href="#DejaVuSans-38" x="63.623047"/>
      </g>
     </g>
    </g>
    <g id="ytick_2">
     <g id="line2d_9">
      <g>
       <use xlink:href="#m07b789df26" x="81" y="253.647655" style="stroke: #000000; stroke-width: 0.8"/>
      </g>
     </g>
     <g id="text_10">
      <!-- 20 -->
      <g transform="translate(58.73 258.206717) scale(0.12 -0.12)">
       <use xlink:href="#DejaVuSans-32"/>
       <use xlink:href="#DejaVuSans-30" x="63.623047"/>
      </g>
     </g>
    </g>
    <g id="ytick_3">
     <g id="line2d_10">
      <g>
       <use xlink:href="#m07b789df26" x="81" y="216.897215" style="stroke: #000000; stroke-width: 0.8"/>
      </g>
     </g>
     <g id="text_11">
      <!-- 22 -->
      <g transform="translate(58.73 221.456278) scale(0.12 -0.12)">
       <use xlink:href="#DejaVuSans-32"/>
       <use xlink:href="#DejaVuSans-32" x="63.623047"/>
      </g>
     </g>
    </g>
    <g id="ytick_4">
     <g id="line2d_11">
      <g>
       <use xlink:href="#m07b789df26" x="81" y="180.146776" style="stroke: #000000; stroke-width: 0.8"/>
      </g>
     </g>
     <g id="text_12">
      <!-- 24 -->
      <g transform="translate(58.73 184.705838) scale(0.12 -0.12)">
       <use xlink:href="#DejaVuSans-32"/>
       <use xlink:href="#DejaVuSans-34" x="63.623047"/>
      </g>
     </g>
    </g>
    <g id="ytick_5">
     <g id="line2d_12">
      <g>
       <use xlink:href="#m07b789df26" x="81" y="143.396337" style="stroke: #000000; stroke-width: 0.8"/>
      </g>
     </g>
     <g id="text_13">
      <!-- 26 -->
      <g transform="translate(58.73 147.955399) scale(0.12 -0.12)">
       <use xlink:href="#DejaVuSans-32"/>
       <use xlink:href="#DejaVuSans-36" x="63.623047"/>
      </g>
     </g>
    </g>
    <g id="ytick_6">
     <g id="line2d_13">
      <g>
       <use xlink:href="#m07b789df26" x="81" y="106.645897" style="stroke: #000000; stroke-width: 0.8"/>
      </g>
     </g>
     <g id="text_14">
      <!-- 28 -->
      <g transform="translate(58.73 111.20496) scale(0.12 -0.12)">
       <use xlink:href="#DejaVuSans-32"/>
       <use xlink:href="#DejaVuSans-38" x="63.623047"/>
      </g>
     </g>
    </g>
    <g id="ytick_7">
     <g id="line2d_14">
      <g>
       <use xlink:href="#m07b789df26" x="81" y="69.895458" style="stroke: #000000; stroke-width: 0.8"/>
      </g>
     </g>
     <g id="text_15">
      <!-- 30 -->
      <g transform="translate(58.73 74.45452) scale(0.12 -0.12)">
       <defs>
        <path id="DejaVuSans-33" d="M 2597 2516 
Q 3050 2419 3304 2112 
Q 3559 1806 3559 1356 
Q 3559 666 3084 287 
Q 2609 -91 1734 -91 
Q 1441 -91 1130 -33 
Q 819 25 488 141 
L 488 750 
Q 750 597 1062 519 
Q 1375 441 1716 441 
Q 2309 441 2620 675 
Q 2931 909 2931 1356 
Q 2931 1769 2642 2001 
Q 2353 2234 1838 2234 
L 1294 2234 
L 1294 2753 
L 1863 2753 
Q 2328 2753 2575 2939 
Q 2822 3125 2822 3475 
Q 2822 3834 2567 4026 
Q 2313 4219 1838 4219 
Q 1578 4219 1281 4162 
Q 984 4106 628 3988 
L 628 4550 
Q 988 4650 1302 4700 
Q 1616 4750 1894 4750 
Q 2613 4750 3031 4423 
Q 3450 4097 3450 3541 
Q 3450 3153 3228 2886 
Q 3006 2619 2597 2516 
z
" transform="scale(0.015625)"/>
       </defs>
       <use xlink:href="#DejaVuSans-33"/>
       <use xlink:href="#DejaVuSans-30" x="63.623047"/>
      </g>
     </g>
    </g>
    <g id="text_16">
     <!-- Total coral cover (%) -->
     <g transform="translate(51.610469 258.769922) rotate(-90) scale(0.15 -0.15)">
      <defs>
       <path id="DejaVuSans-54" d="M -19 4666 
L 3928 4666 
L 3928 4134 
L 2272 4134 
L 2272 0 
L 1638 0 
L 1638 4134 
L -19 4134 
L -19 4666 
z
" transform="scale(0.015625)"/>
       <path id="DejaVuSans-6f" d="M 1959 3097 
Q 1497 3097 1228 2736 
Q 959 2375 959 1747 
Q 959 1119 1226 758 
Q 1494 397 1959 397 
Q 2419 397 2687 759 
Q 2956 1122 2956 1747 
Q 2956 2369 2687 2733 
Q 2419 3097 1959 3097 
z
M 1959 3584 
Q 2709 3584 3137 3096 
Q 3566 2609 3566 1747 
Q 3566 888 3137 398 
Q 2709 -91 1959 -91 
Q 1206 -91 779 398 
Q 353 888 353 1747 
Q 353 2609 779 3096 
Q 1206 3584 1959 3584 
z
" transform="scale(0.015625)"/>
       <path id="DejaVuSans-74" d="M 1172 4494 
L 1172 3500 
L 2356 3500 
L 2356 3053 
L 1172 3053 
L 1172 1153 
Q 1172 725 1289 603 
Q 1406 481 1766 481 
L 2356 481 
L 2356 0 
L 1766 0 
Q 1100 0 847 248 
Q 594 497 594 1153 
L 594 3053 
L 172 3053 
L 172 3500 
L 594 3500 
L 594 4494 
L 1172 4494 
z
" transform="scale(0.015625)"/>
       <path id="DejaVuSans-6c" d="M 603 4863 
L 1178 4863 
L 1178 0 
L 603 0 
L 603 4863 
z
" transform="scale(0.015625)"/>
       <path id="DejaVuSans-20" transform="scale(0.015625)"/>
       <path id="DejaVuSans-63" d="M 3122 3366 
L 3122 2828 
Q 2878 2963 2633 3030 
Q 2388 3097 2138 3097 
Q 1578 3097 1268 2742 
Q 959 2388 959 1747 
Q 959 1106 1268 751 
Q 1578 397 2138 397 
Q 2388 397 2633 464 
Q 2878 531 3122 666 
L 3122 134 
Q 2881 22 2623 -34 
Q 2366 -91 2075 -91 
Q 1284 -91 818 406 
Q 353 903 353 1747 
Q 353 2603 823 3093 
Q 1294 3584 2113 3584 
Q 2378 3584 2631 3529 
Q 2884 3475 3122 3366 
z
" transform="scale(0.015625)"/>
       <path id="DejaVuSans-76" d="M 191 3500 
L 800 3500 
L 1894 563 
L 2988 3500 
L 3597 3500 
L 2284 0 
L 1503 0 
L 191 3500 
z
" transform="scale(0.015625)"/>
       <path id="DejaVuSans-28" d="M 1984 4856 
Q 1566 4138 1362 3434 
Q 1159 2731 1159 2009 
Q 1159 1288 1364 580 
Q 1569 -128 1984 -844 
L 1484 -844 
Q 1016 -109 783 600 
Q 550 1309 550 2009 
Q 550 2706 781 3412 
Q 1013 4119 1484 4856 
L 1984 4856 
z
" transform="scale(0.015625)"/>
       <path id="DejaVuSans-25" d="M 4653 2053 
Q 4381 2053 4226 1822 
Q 4072 1591 4072 1178 
Q 4072 772 4226 539 
Q 4381 306 4653 306 
Q 4919 306 5073 539 
Q 5228 772 5228 1178 
Q 5228 1588 5073 1820 
Q 4919 2053 4653 2053 
z
M 4653 2450 
Q 5147 2450 5437 2106 
Q 5728 1763 5728 1178 
Q 5728 594 5436 251 
Q 5144 -91 4653 -91 
Q 4153 -91 3862 251 
Q 3572 594 3572 1178 
Q 3572 1766 3864 2108 
Q 4156 2450 4653 2450 
z
M 1428 4353 
Q 1159 4353 1004 4120 
Q 850 3888 850 3481 
Q 850 3069 1003 2837 
Q 1156 2606 1428 2606 
Q 1700 2606 1854 2837 
Q 2009 3069 2009 3481 
Q 2009 3884 1853 4118 
Q 1697 4353 1428 4353 
z
M 4250 4750 
L 4750 4750 
L 1831 -91 
L 1331 -91 
L 4250 4750 
z
M 1428 4750 
Q 1922 4750 2215 4408 
Q 2509 4066 2509 3481 
Q 2509 2891 2217 2550 
Q 1925 2209 1428 2209 
Q 931 2209 642 2551 
Q 353 2894 353 3481 
Q 353 4063 643 4406 
Q 934 4750 1428 4750 
z
" transform="scale(0.015625)"/>
       <path id="DejaVuSans-29" d="M 513 4856 
L 1013 4856 
Q 1481 4119 1714 3412 
Q 1947 2706 1947 2009 
Q 1947 1309 1714 600 
Q 1481 -109 1013 -844 
L 513 -844 
Q 928 -128 1133 580 
Q 1338 1288 1338 2009 
Q 1338 2731 1133 3434 
Q 928 4138 513 4856 
z
" transform="scale(0.015625)"/>
      </defs>
      <use xlink:href="#DejaVuSans-54"/>
      <use xlink:href="#DejaVuSans-6f" x="44.083984"/>
      <use xlink:href="#DejaVuSans-74" x="105.265625"/>
      <use xlink:href="#DejaVuSans-61" x="144.474609"/>
      <use xlink:href="#DejaVuSans-6c" x="205.753906"/>
      <use xlink:href="#DejaVuSans-20" x="233.537109"/>
      <use xlink:href="#DejaVuSans-63" x="265.324219"/>
      <use xlink:href="#DejaVuSans-6f" x="320.304688"/>
      <use xlink:href="#DejaVuSans-72" x="381.486328"/>
      <use xlink:href="#DejaVuSans-61" x="422.599609"/>
      <use xlink:href="#DejaVuSans-6c" x="483.878906"/>
      <use xlink:href="#DejaVuSans-20" x="511.662109"/>
      <use xlink:href="#DejaVuSans-63" x="543.449219"/>
      <use xlink:href="#DejaVuSans-6f" x="598.429688"/>
      <use xlink:href="#DejaVuSans-76" x="659.611328"/>
      <use xlink:href="#DejaVuSans-65" x="718.791016"/>
      <use xlink:href="#DejaVuSans-72" x="780.314453"/>
      <use xlink:href="#DejaVuSans-20" x="821.427734"/>
      <use xlink:href="#DejaVuSans-28" x="853.214844"/>
      <use xlink:href="#DejaVuSans-25" x="892.228516"/>
      <use xlink:href="#DejaVuSans-29" x="987.248047"/>
     </g>
    </g>
   </g>
   <g id="line2d_15">
    <path d="M 103.827273 292.235616 
L 141.872727 299.421164 
L 179.918182 301.560981 
L 217.963636 298.058948 
L 256.009091 290.131548 
L 294.054545 273.360604 
L 332.1 256.857493 
L 370.145455 237.189406 
L 408.190909 214.137767 
L 446.236364 185.921546 
L 484.281818 157.000278 
L 522.327273 126.457635 
L 560.372727 95.831028 
" clip-path="url(#pd30432df52)" style="fill: none; stroke-dasharray: 3.7,1.6; stroke-dashoffset: 0; stroke: #1f77b4; stroke-opacity: 0.6"/>
   </g>
   <g id="line2d_16">
    <path d="M 103.827273 292.235616 
L 141.872727 296.146935 
L 179.918182 298.094656 
L 217.963636 297.227966 
L 256.009091 292.599055 
L 294.054545 278.438063 
L 332.1 262.711485 
L 370.145455 242.867782 
L 408.190909 221.572705 
L 446.236364 197.064308 
L 484.281818 169.302287 
L 522.327273 142.056283 
L 560.372727 111.261581 
" clip-path="url(#pd30432df52)" style="fill: none; stroke-dasharray: 3.7,1.6; stroke-dashoffset: 0; stroke: #ff7f0e; stroke-opacity: 0.6"/>
   </g>
   <g id="line2d_17">
    <path d="M 103.827273 292.235616 
L 141.872727 304.620694 
L 179.918182 307.63558 
L 217.963636 305.074545 
L 256.009091 298.899576 
L 294.054545 286.664835 
L 332.1 270.418105 
L 370.145455 252.455411 
L 408.190909 229.953696 
L 446.236364 203.04456 
L 484.281818 173.531726 
L 522.327273 142.444247 
L 560.372727 112.970126 
" clip-path="url(#pd30432df52)" style="fill: none; stroke-dasharray: 3.7,1.6; stroke-dashoffset: 0; stroke: #2ca02c; stroke-opacity: 0.6"/>
   </g>
   <g id="line2d_18">
    <path d="M 103.827273 292.235616 
L 141.872727 294.752456 
L 179.918182 296.336933 
L 217.963636 294.874792 
L 256.009091 289.91432 
L 294.054545 277.38484 
L 332.1 262.370067 
L 370.145455 243.99499 
L 408.190909 223.520309 
L 446.236364 200.398439 
L 484.281818 175.131873 
L 522.327273 149.714741 
L 560.372727 122.739881 
" clip-path="url(#pd30432df52)" style="fill: none; stroke-dasharray: 3.7,1.6; stroke-dashoffset: 0; stroke: #d62728; stroke-opacity: 0.6"/>
   </g>
   <g id="line2d_19">
    <path d="M 103.827273 292.235616 
L 141.872727 299.100055 
L 179.918182 301.413323 
L 217.963636 297.815831 
L 256.009091 292.392585 
L 294.054545 278.668299 
L 332.1 263.130887 
L 370.145455 243.7452 
L 408.190909 220.873066 
L 446.236364 195.428657 
L 484.281818 166.574036 
L 522.327273 140.90392 
L 560.372727 112.196843 
" clip-path="url(#pd30432df52)" style="fill: none; stroke-dasharray: 3.7,1.6; stroke-dashoffset: 0; stroke: #9467bd; stroke-opacity: 0.6"/>
   </g>
   <g id="line2d_20">
    <path d="M 103.827273 292.235616 
L 141.872727 294.227497 
L 179.918182 296.990411 
L 217.963636 295.01357 
L 256.009091 288.788372 
L 294.054545 276.222032 
L 332.1 259.137346 
L 370.145455 238.932571 
L 408.190909 213.857991 
L 446.236364 187.213166 
L 484.281818 160.467024 
L 522.327273 132.986269 
L 560.372727 105.842604 
" clip-path="url(#pd30432df52)" style="fill: none; stroke-dasharray: 3.7,1.6; stroke-dashoffset: 0; stroke: #8c564b; stroke-opacity: 0.6"/>
   </g>
   <g id="line2d_21">
    <path d="M 103.827273 292.235616 
L 141.872727 298.742867 
L 179.918182 303.001127 
L 217.963636 299.69084 
L 256.009091 293.820268 
L 294.054545 278.78313 
L 332.1 263.063355 
L 370.145455 242.83521 
L 408.190909 219.245433 
L 446.236364 193.897255 
L 484.281818 165.007125 
L 522.327273 136.795767 
L 560.372727 105.079327 
" clip-path="url(#pd30432df52)" style="fill: none; stroke-dasharray: 3.7,1.6; stroke-dashoffset: 0; stroke: #e377c2; stroke-opacity: 0.6"/>
   </g>
   <g id="line2d_22">
    <path d="M 103.827273 292.235616 
L 141.872727 298.171454 
L 179.918182 299.295435 
L 217.963636 294.476136 
L 256.009091 288.573839 
L 294.054545 272.760161 
L 332.1 255.692265 
L 370.145455 231.769772 
L 408.190909 206.535932 
L 446.236364 179.417469 
L 484.281818 152.641061 
L 522.327273 124.041681 
L 560.372727 93.325775 
" clip-path="url(#pd30432df52)" style="fill: none; stroke-dasharray: 3.7,1.6; stroke-dashoffset: 0; stroke: #7f7f7f; stroke-opacity: 0.6"/>
   </g>
   <g id="line2d_23">
    <path d="M 103.827273 292.235616 
L 141.872727 292.998985 
L 179.918182 293.228321 
L 217.963636 289.227268 
L 256.009091 279.614085 
L 294.054545 264.559478 
L 332.1 246.670096 
L 370.145455 222.445888 
L 408.190909 194.675685 
L 446.236364 166.384227 
L 484.281818 137.317193 
L 522.327273 106.684566 
L 560.372727 76.932943 
" clip-path="url(#pd30432df52)" style="fill: none; stroke-dasharray: 3.7,1.6; stroke-dashoffset: 0; stroke: #bcbd22; stroke-opacity: 0.6"/>
   </g>
   <g id="line2d_24">
    <path d="M 103.827273 292.235616 
L 141.872727 292.836626 
L 179.918182 295.198405 
L 217.963636 291.099972 
L 256.009091 285.089426 
L 294.054545 270.740584 
L 332.1 253.145021 
L 370.145455 230.617451 
L 408.190909 203.88482 
L 446.236364 175.32634 
L 484.281818 147.17589 
L 522.327273 119.757874 
L 560.372727 90.645528 
" clip-path="url(#pd30432df52)" style="fill: none; stroke-dasharray: 3.7,1.6; stroke-dashoffset: 0; stroke: #17becf; stroke-opacity: 0.6"/>
   </g>
   <g id="line2d_25">
    <path d="M 103.827273 292.235616 
L 141.872727 289.710324 
L 179.918182 291.520863 
L 217.963636 287.777684 
L 256.009091 278.564514 
L 294.054545 265.41409 
L 332.1 246.870946 
L 370.145455 225.608813 
L 408.190909 201.665428 
L 446.236364 176.248645 
L 484.281818 148.743776 
L 522.327273 119.077516 
L 560.372727 91.22828 
" clip-path="url(#pd30432df52)" style="fill: none; stroke-dasharray: 3.7,1.6; stroke-dashoffset: 0; stroke: #1f77b4; stroke-opacity: 0.6"/>
   </g>
   <g id="line2d_26">
    <path d="M 103.827273 292.235616 
L 141.872727 303.770567 
L 179.918182 304.019762 
L 217.963636 298.603022 
L 256.009091 290.721991 
L 294.054545 275.958299 
L 332.1 257.260952 
L 370.145455 237.12363 
L 408.190909 210.60834 
L 446.236364 184.170396 
L 484.281818 154.769917 
L 522.327273 124.439154 
L 560.372727 95.260062 
" clip-path="url(#pd30432df52)" style="fill: none; stroke-dasharray: 3.7,1.6; stroke-dashoffset: 0; stroke: #ff7f0e; stroke-opacity: 0.6"/>
   </g>
   <g id="line2d_27">
    <path d="M 103.827273 292.235616 
L 141.872727 297.857111 
L 179.918182 299.426373 
L 217.963636 296.371953 
L 256.009091 289.835195 
L 294.054545 276.033925 
L 332.1 257.461071 
L 370.145455 236.768082 
L 408.190909 210.61918 
L 446.236364 183.703208 
L 484.281818 155.585566 
L 522.327273 127.128863 
L 560.372727 99.004153 
" clip-path="url(#pd30432df52)" style="fill: none; stroke-dasharray: 3.7,1.6; stroke-dashoffset: 0; stroke: #2ca02c; stroke-opacity: 0.6"/>
   </g>
   <g id="line2d_28">
    <path d="M 103.827273 292.235616 
L 141.872727 303.31461 
L 179.918182 304.692513 
L 217.963636 300.207444 
L 256.009091 294.336211 
L 294.054545 280.44227 
L 332.1 265.893195 
L 370.145455 246.141024 
L 408.190909 224.908239 
L 446.236364 199.687831 
L 484.281818 173.795123 
L 522.327273 145.386574 
L 560.372727 114.580198 
" clip-path="url(#pd30432df52)" style="fill: none; stroke-dasharray: 3.7,1.6; stroke-dashoffset: 0; stroke: #d62728; stroke-opacity: 0.6"/>
   </g>
   <g id="line2d_29">
    <path d="M 103.827273 292.235616 
L 141.872727 285.958039 
L 179.918182 286.241884 
L 217.963636 281.77301 
L 256.009091 273.337402 
L 294.054545 259.306035 
L 332.1 242.191836 
L 370.145455 224.386332 
L 408.190909 199.330488 
L 446.236364 174.44689 
L 484.281818 149.549558 
L 522.327273 122.058706 
L 560.372727 94.019079 
" clip-path="url(#pd30432df52)" style="fill: none; stroke-dasharray: 3.7,1.6; stroke-dashoffset: 0; stroke: #9467bd; stroke-opacity: 0.6"/>
   </g>
   <g id="line2d_30">
    <path d="M 103.827273 292.235616 
L 141.872727 299.107271 
L 179.918182 301.932864 
L 217.963636 298.45396 
L 256.009091 292.185858 
L 294.054545 278.546536 
L 332.1 262.473441 
L 370.145455 241.558245 
L 408.190909 218.156622 
L 446.236364 193.081301 
L 484.281818 164.95279 
L 522.327273 137.578525 
L 560.372727 107.140848 
" clip-path="url(#pd30432df52)" style="fill: none; stroke-dasharray: 3.7,1.6; stroke-dashoffset: 0; stroke: #8c564b; stroke-opacity: 0.6"/>
   </g>
   <g id="line2d_31">
    <path d="M 103.827273 292.235616 
L 141.872727 287.832378 
L 179.918182 287.982994 
L 217.963636 281.279138 
L 256.009091 272.071848 
L 294.054545 255.279698 
L 332.1 235.903253 
L 370.145455 214.106269 
L 408.190909 189.426107 
L 446.236364 162.888479 
L 484.281818 133.148209 
L 522.327273 105.161872 
L 560.372727 79.098264 
" clip-path="url(#pd30432df52)" style="fill: none; stroke-dasharray: 3.7,1.6; stroke-dashoffset: 0; stroke: #e377c2; stroke-opacity: 0.6"/>
   </g>
   <g id="line2d_32">
    <path d="M 103.827273 292.235616 
L 141.872727 288.584638 
L 179.918182 289.568076 
L 217.963636 286.764779 
L 256.009091 278.58262 
L 294.054545 264.050362 
L 332.1 245.641961 
L 370.145455 224.885462 
L 408.190909 199.34586 
L 446.236364 173.206596 
L 484.281818 144.385984 
L 522.327273 114.329874 
L 560.372727 85.441455 
" clip-path="url(#pd30432df52)" style="fill: none; stroke-dasharray: 3.7,1.6; stroke-dashoffset: 0; stroke: #7f7f7f; stroke-opacity: 0.6"/>
   </g>
   <g id="line2d_33">
    <path d="M 103.827273 292.235616 
L 141.872727 300.541438 
L 179.918182 303.670702 
L 217.963636 300.628498 
L 256.009091 294.57485 
L 294.054545 280.20988 
L 332.1 264.519442 
L 370.145455 243.738652 
L 408.190909 217.877271 
L 446.236364 190.877163 
L 484.281818 162.399482 
L 522.327273 131.827672 
L 560.372727 101.13769 
" clip-path="url(#pd30432df52)" style="fill: none; stroke-dasharray: 3.7,1.6; stroke-dashoffset: 0; stroke: #bcbd22; stroke-opacity: 0.6"/>
   </g>
   <g id="line2d_34">
    <path d="M 103.827273 292.235616 
L 141.872727 290.08916 
L 179.918182 291.681105 
L 217.963636 287.742933 
L 256.009091 282.218937 
L 294.054545 267.327976 
L 332.1 249.192584 
L 370.145455 229.922881 
L 408.190909 204.238713 
L 446.236364 178.308568 
L 484.281818 150.871435 
L 522.327273 123.217599 
L 560.372727 94.928479 
" clip-path="url(#pd30432df52)" style="fill: none; stroke-dasharray: 3.7,1.6; stroke-dashoffset: 0; stroke: #17becf; stroke-opacity: 0.6"/>
   </g>
   <g id="line2d_35">
    <path d="M 103.827273 292.235616 
L 141.872727 297.882367 
L 179.918182 301.562268 
L 217.963636 299.718177 
L 256.009091 293.982897 
L 294.054545 280.269749 
L 332.1 262.719393 
L 370.145455 242.55092 
L 408.190909 219.506061 
L 446.236364 194.157781 
L 484.281818 166.425706 
L 522.327273 140.082743 
L 560.372727 111.585212 
" clip-path="url(#pd30432df52)" style="fill: none; stroke-dasharray: 3.7,1.6; stroke-dashoffset: 0; stroke: #1f77b4; stroke-opacity: 0.6"/>
   </g>
   <g id="line2d_36">
    <path d="M 103.827273 292.235616 
L 141.872727 298.387482 
L 179.918182 298.951482 
L 217.963636 295.271484 
L 256.009091 289.100143 
L 294.054545 274.430044 
L 332.1 257.184598 
L 370.145455 239.412392 
L 408.190909 215.988264 
L 446.236364 190.88862 
L 484.281818 165.880115 
L 522.327273 139.734094 
L 560.372727 110.479115 
" clip-path="url(#pd30432df52)" style="fill: none; stroke-dasharray: 3.7,1.6; stroke-dashoffset: 0; stroke: #ff7f0e; stroke-opacity: 0.6"/>
   </g>
   <g id="line2d_37">
    <path d="M 103.827273 292.235616 
L 141.872727 286.962858 
L 179.918182 288.865855 
L 217.963636 285.626707 
L 256.009091 277.263379 
L 294.054545 262.75578 
L 332.1 244.267385 
L 370.145455 224.505458 
L 408.190909 197.225186 
L 446.236364 169.46678 
L 484.281818 138.76062 
L 522.327273 110.258003 
L 560.372727 79.825038 
" clip-path="url(#pd30432df52)" style="fill: none; stroke-dasharray: 3.7,1.6; stroke-dashoffset: 0; stroke: #2ca02c; stroke-opacity: 0.6"/>
   </g>
   <g id="line2d_38">
    <path d="M 103.827273 292.235616 
L 141.872727 297.718655 
L 179.918182 300.47379 
L 217.963636 295.112311 
L 256.009091 286.912984 
L 294.054545 272.226401 
L 332.1 254.7711 
L 370.145455 234.980086 
L 408.190909 211.574279 
L 446.236364 187.555013 
L 484.281818 162.653635 
L 522.327273 135.039329 
L 560.372727 108.61314 
" clip-path="url(#pd30432df52)" style="fill: none; stroke-dasharray: 3.7,1.6; stroke-dashoffset: 0; stroke: #d62728; stroke-opacity: 0.6"/>
   </g>
   <g id="line2d_39">
    <path d="M 103.827273 292.235616 
L 141.872727 295.540797 
L 179.918182 297.247289 
L 217.963636 294.451138 
L 256.009091 286.263715 
L 294.054545 272.166298 
L 332.1 252.689628 
L 370.145455 231.177844 
L 408.190909 205.612129 
L 446.236364 178.445621 
L 484.281818 151.129208 
L 522.327273 123.662806 
L 560.372727 92.800969 
" clip-path="url(#pd30432df52)" style="fill: none; stroke-dasharray: 3.7,1.6; stroke-dashoffset: 0; stroke: #9467bd; stroke-opacity: 0.6"/>
   </g>
   <g id="line2d_40">
    <path d="M 103.827273 292.235616 
L 141.872727 302.249809 
L 179.918182 303.624167 
L 217.963636 300.49893 
L 256.009091 294.436379 
L 294.054545 279.306649 
L 332.1 260.741492 
L 370.145455 239.628538 
L 408.190909 213.090539 
L 446.236364 185.531296 
L 484.281818 155.509674 
L 522.327273 126.78954 
L 560.372727 96.13209 
" clip-path="url(#pd30432df52)" style="fill: none; stroke-dasharray: 3.7,1.6; stroke-dashoffset: 0; stroke: #8c564b; stroke-opacity: 0.6"/>
   </g>
   <g id="line2d_41">
    <path d="M 103.827273 292.235616 
L 141.872727 294.931051 
L 179.918182 297.314543 
L 217.963636 294.866532 
L 256.009091 288.255412 
L 294.054545 273.369634 
L 332.1 256.278518 
L 370.145455 235.454366 
L 408.190909 210.117825 
L 446.236364 181.096841 
L 484.281818 150.586337 
L 522.327273 118.399069 
L 560.372727 84.371279 
" clip-path="url(#pd30432df52)" style="fill: none; stroke-dasharray: 3.7,1.6; stroke-dashoffset: 0; stroke: #e377c2; stroke-opacity: 0.6"/>
   </g>
   <g id="line2d_42">
    <path d="M 103.827273 292.235616 
L 141.872727 296.229918 
L 179.918182 300.109636 
L 217.963636 298.176759 
L 256.009091 291.441705 
L 294.054545 276.892083 
L 332.1 261.242659 
L 370.145455 241.845147 
L 408.190909 219.101887 
L 446.236364 191.861435 
L 484.281818 164.395471 
L 522.327273 136.599299 
L 560.372727 107.321953 
" clip-path="url(#pd30432df52)" style="fill: none; stroke-dasharray: 3.7,1.6; stroke-dashoffset: 0; stroke: #7f7f7f; stroke-opacity: 0.6"/>
   </g>
   <g id="line2d_43">
    <path d="M 103.827273 292.235616 
L 141.872727 293.641203 
L 179.918182 295.399784 
L 217.963636 290.839307 
L 256.009091 283.735781 
L 294.054545 270.127803 
L 332.1 250.393283 
L 370.145455 229.133242 
L 408.190909 203.557571 
L 446.236364 176.233161 
L 484.281818 148.416126 
L 522.327273 118.995252 
L 560.372727 88.883784 
" clip-path="url(#pd30432df52)" style="fill: none; stroke-dasharray: 3.7,1.6; stroke-dashoffset: 0; stroke: #bcbd22; stroke-opacity: 0.6"/>
   </g>
   <g id="line2d_44">
    <path d="M 103.827273 292.235616 
L 141.872727 299.098251 
L 179.918182 302.214293 
L 217.963636 299.406214 
L 256.009091 291.609259 
L 294.054545 277.874842 
L 332.1 262.182992 
L 370.145455 239.723707 
L 408.190909 214.832736 
L 446.236364 187.891604 
L 484.281818 158.605128 
L 522.327273 130.55314 
L 560.372727 100.983945 
" clip-path="url(#pd30432df52)" style="fill: none; stroke-dasharray: 3.7,1.6; stroke-dashoffset: 0; stroke: #17becf; stroke-opacity: 0.6"/>
   </g>
   <g id="line2d_45">
    <path d="M 103.827273 292.235616 
L 141.872727 306.967675 
L 179.918182 307.538107 
L 217.963636 302.920488 
L 256.009091 296.709512 
L 294.054545 282.340794 
L 332.1 265.729149 
L 370.145455 245.655001 
L 408.190909 222.559389 
L 446.236364 197.6015 
L 484.281818 171.029041 
L 522.327273 142.349963 
L 560.372727 113.626783 
" clip-path="url(#pd30432df52)" style="fill: none; stroke-dasharray: 3.7,1.6; stroke-dashoffset: 0; stroke: #1f77b4; stroke-opacity: 0.6"/>
   </g>
   <g id="line2d_46">
    <path d="M 103.827273 292.235616 
L 141.872727 292.513713 
L 179.918182 294.464451 
L 217.963636 292.688424 
L 256.009091 286.465378 
L 294.054545 270.881348 
L 332.1 252.86711 
L 370.145455 230.736517 
L 408.190909 207.729052 
L 446.236364 179.946588 
L 484.281818 152.377069 
L 522.327273 121.07856 
L 560.372727 89.580848 
" clip-path="url(#pd30432df52)" style="fill: none; stroke-dasharray: 3.7,1.6; stroke-dashoffset: 0; stroke: #ff7f0e; stroke-opacity: 0.6"/>
   </g>
   <g id="line2d_47">
    <path d="M 103.827273 292.235616 
L 141.872727 291.635174 
L 179.918182 294.236072 
L 217.963636 289.435018 
L 256.009091 282.495139 
L 294.054545 267.138452 
L 332.1 248.223861 
L 370.145455 227.947907 
L 408.190909 204.211003 
L 446.236364 176.592327 
L 484.281818 145.506371 
L 522.327273 114.325899 
L 560.372727 84.778959 
" clip-path="url(#pd30432df52)" style="fill: none; stroke-dasharray: 3.7,1.6; stroke-dashoffset: 0; stroke: #2ca02c; stroke-opacity: 0.6"/>
   </g>
   <g id="line2d_48">
    <path d="M 103.827273 292.235616 
L 141.872727 293.985763 
L 179.918182 295.139725 
L 217.963636 293.40811 
L 256.009091 288.06835 
L 294.054545 274.694524 
L 332.1 258.027991 
L 370.145455 237.363688 
L 408.190909 213.651777 
L 446.236364 189.689589 
L 484.281818 162.774762 
L 522.327273 135.386982 
L 560.372727 106.308598 
" clip-path="url(#pd30432df52)" style="fill: none; stroke-dasharray: 3.7,1.6; stroke-dashoffset: 0; stroke: #d62728; stroke-opacity: 0.6"/>
   </g>
   <g id="line2d_49">
    <path d="M 103.827273 292.235616 
L 141.872727 294.108434 
L 179.918182 295.235234 
L 217.963636 293.687533 
L 256.009091 286.189953 
L 294.054545 272.087224 
L 332.1 253.353897 
L 370.145455 230.717976 
L 408.190909 204.430864 
L 446.236364 174.968355 
L 484.281818 145.232317 
L 522.327273 115.810766 
L 560.372727 86.189282 
" clip-path="url(#pd30432df52)" style="fill: none; stroke-dasharray: 3.7,1.6; stroke-dashoffset: 0; stroke: #9467bd; stroke-opacity: 0.6"/>
   </g>
   <g id="line2d_50">
    <path d="M 103.827273 292.235616 
L 141.872727 294.701945 
L 179.918182 296.935897 
L 217.963636 295.819581 
L 256.009091 289.938207 
L 294.054545 277.002792 
L 332.1 262.311261 
L 370.145455 244.895921 
L 408.190909 223.482797 
L 446.236364 200.570196 
L 484.281818 172.987242 
L 522.327273 144.64485 
L 560.372727 118.748826 
" clip-path="url(#pd30432df52)" style="fill: none; stroke-dasharray: 3.7,1.6; stroke-dashoffset: 0; stroke: #8c564b; stroke-opacity: 0.6"/>
   </g>
   <g id="line2d_51">
    <path d="M 103.827273 292.235616 
L 141.872727 300.612243 
L 179.918182 301.804663 
L 217.963636 298.879066 
L 256.009091 291.84906 
L 294.054545 275.633796 
L 332.1 257.419213 
L 370.145455 235.322333 
L 408.190909 210.357984 
L 446.236364 183.742984 
L 484.281818 156.533121 
L 522.327273 125.483105 
L 560.372727 96.404666 
" clip-path="url(#pd30432df52)" style="fill: none; stroke-dasharray: 3.7,1.6; stroke-dashoffset: 0; stroke: #e377c2; stroke-opacity: 0.6"/>
   </g>
   <g id="line2d_52">
    <path d="M 103.827273 292.235616 
L 141.872727 290.137868 
L 179.918182 291.365368 
L 217.963636 288.039027 
L 256.009091 281.912237 
L 294.054545 267.126184 
L 332.1 250.414319 
L 370.145455 231.580687 
L 408.190909 208.547713 
L 446.236364 181.915949 
L 484.281818 155.092603 
L 522.327273 126.443206 
L 560.372727 98.066319 
" clip-path="url(#pd30432df52)" style="fill: none; stroke-dasharray: 3.7,1.6; stroke-dashoffset: 0; stroke: #7f7f7f; stroke-opacity: 0.6"/>
   </g>
   <g id="line2d_53">
    <path d="M 103.827273 292.235616 
L 141.872727 296.164975 
L 179.918182 297.757296 
L 217.963636 294.607069 
L 256.009091 286.773078 
L 294.054545 272.999905 
L 332.1 255.833371 
L 370.145455 236.093604 
L 408.190909 210.906547 
L 446.236364 182.794471 
L 484.281818 152.658561 
L 522.327273 120.553519 
L 560.372727 88.911633 
" clip-path="url(#pd30432df52)" style="fill: none; stroke-dasharray: 3.7,1.6; stroke-dashoffset: 0; stroke: #bcbd22; stroke-opacity: 0.6"/>
   </g>
   <g id="line2d_54">
    <path d="M 103.827273 292.235616 
L 141.872727 289.04285 
L 179.918182 290.476907 
L 217.963636 284.726867 
L 256.009091 274.753372 
L 294.054545 259.369477 
L 332.1 238.762624 
L 370.145455 217.224209 
L 408.190909 191.236682 
L 446.236364 163.951452 
L 484.281818 135.475317 
L 522.327273 103.847645 
L 560.372727 75.340042 
" clip-path="url(#pd30432df52)" style="fill: none; stroke-dasharray: 3.7,1.6; stroke-dashoffset: 0; stroke: #17becf; stroke-opacity: 0.6"/>
   </g>
   <g id="line2d_55">
    <path d="M 103.827273 292.235616 
L 141.872727 297.036299 
L 179.918182 300.179319 
L 217.963636 298.520541 
L 256.009091 291.552456 
L 294.054545 277.610669 
L 332.1 261.626848 
L 370.145455 241.586952 
L 408.190909 218.511857 
L 446.236364 193.679949 
L 484.281818 167.806201 
L 522.327273 141.002744 
L 560.372727 113.199443 
" clip-path="url(#pd30432df52)" style="fill: none; stroke-dasharray: 3.7,1.6; stroke-dashoffset: 0; stroke: #1f77b4; stroke-opacity: 0.6"/>
   </g>
   <g id="line2d_56">
    <path d="M 103.827273 292.235616 
L 141.872727 294.173378 
L 179.918182 295.531033 
L 217.963636 291.986052 
L 256.009091 287.174345 
L 294.054545 273.258348 
L 332.1 257.415752 
L 370.145455 238.120942 
L 408.190909 214.726246 
L 446.236364 189.048065 
L 484.281818 162.259775 
L 522.327273 133.051981 
L 560.372727 103.848176 
" clip-path="url(#pd30432df52)" style="fill: none; stroke-dasharray: 3.7,1.6; stroke-dashoffset: 0; stroke: #ff7f0e; stroke-opacity: 0.6"/>
   </g>
   <g id="line2d_57">
    <path d="M 103.827273 292.235616 
L 141.872727 293.0964 
L 179.918182 295.218034 
L 217.963636 291.999913 
L 256.009091 283.432305 
L 294.054545 268.141475 
L 332.1 249.649873 
L 370.145455 228.689602 
L 408.190909 204.429219 
L 446.236364 177.789993 
L 484.281818 148.787161 
L 522.327273 120.957266 
L 560.372727 93.040548 
" clip-path="url(#pd30432df52)" style="fill: none; stroke-dasharray: 3.7,1.6; stroke-dashoffset: 0; stroke: #2ca02c; stroke-opacity: 0.6"/>
   </g>
   <g id="line2d_58">
    <path d="M 103.827273 292.235616 
L 141.872727 294.011019 
L 179.918182 296.579282 
L 217.963636 295.019546 
L 256.009091 289.838854 
L 294.054545 276.789892 
L 332.1 262.387206 
L 370.145455 240.911078 
L 408.190909 217.251812 
L 446.236364 192.653159 
L 484.281818 166.507446 
L 522.327273 140.864475 
L 560.372727 113.864036 
" clip-path="url(#pd30432df52)" style="fill: none; stroke-dasharray: 3.7,1.6; stroke-dashoffset: 0; stroke: #d62728; stroke-opacity: 0.6"/>
   </g>
   <g id="line2d_59">
    <path d="M 103.827273 292.235616 
L 141.872727 290.823381 
L 179.918182 292.169379 
L 217.963636 288.694352 
L 256.009091 282.664375 
L 294.054545 266.443459 
L 332.1 246.250495 
L 370.145455 225.547814 
L 408.190909 201.887647 
L 446.236364 177.655968 
L 484.281818 152.585921 
L 522.327273 125.194853 
L 560.372727 96.349411 
" clip-path="url(#pd30432df52)" style="fill: none; stroke-dasharray: 3.7,1.6; stroke-dashoffset: 0; stroke: #9467bd; stroke-opacity: 0.6"/>
   </g>
   <g id="line2d_60">
    <path d="M 103.827273 292.235616 
L 141.872727 293.801757 
L 179.918182 295.94265 
L 217.963636 291.72443 
L 256.009091 284.23765 
L 294.054545 273.481296 
L 332.1 255.726307 
L 370.145455 235.277655 
L 408.190909 211.472809 
L 446.236364 184.394227 
L 484.281818 157.151326 
L 522.327273 129.090985 
L 560.372727 100.603022 
" clip-path="url(#pd30432df52)" style="fill: none; stroke-dasharray: 3.7,1.6; stroke-dashoffset: 0; stroke: #8c564b; stroke-opacity: 0.6"/>
   </g>
   <g id="line2d_61">
    <path d="M 103.827273 292.235616 
L 141.872727 303.817921 
L 179.918182 307.096825 
L 217.963636 301.321603 
L 256.009091 293.9665 
L 294.054545 276.814848 
L 332.1 259.501545 
L 370.145455 239.311699 
L 408.190909 213.674405 
L 446.236364 187.15392 
L 484.281818 160.306072 
L 522.327273 132.252309 
L 560.372727 104.403634 
" clip-path="url(#pd30432df52)" style="fill: none; stroke-dasharray: 3.7,1.6; stroke-dashoffset: 0; stroke: #e377c2; stroke-opacity: 0.6"/>
   </g>
   <g id="line2d_62">
    <path d="M 103.827273 292.235616 
L 141.872727 298.055549 
L 179.918182 300.504989 
L 217.963636 298.508515 
L 256.009091 292.074414 
L 294.054545 279.183865 
L 332.1 262.549167 
L 370.145455 242.088548 
L 408.190909 217.202037 
L 446.236364 190.227499 
L 484.281818 160.411557 
L 522.327273 131.244027 
L 560.372727 101.44366 
" clip-path="url(#pd30432df52)" style="fill: none; stroke-dasharray: 3.7,1.6; stroke-dashoffset: 0; stroke: #7f7f7f; stroke-opacity: 0.6"/>
   </g>
   <g id="line2d_63">
    <path d="M 103.827273 292.235616 
L 141.872727 301.44388 
L 179.918182 303.234567 
L 217.963636 298.023852 
L 256.009091 290.408273 
L 294.054545 275.906229 
L 332.1 258.334044 
L 370.145455 237.074949 
L 408.190909 212.349572 
L 446.236364 182.986557 
L 484.281818 151.491391 
L 522.327273 120.475 
L 560.372727 88.479406 
" clip-path="url(#pd30432df52)" style="fill: none; stroke-dasharray: 3.7,1.6; stroke-dashoffset: 0; stroke: #bcbd22; stroke-opacity: 0.6"/>
   </g>
   <g id="line2d_64">
    <path d="M 103.827273 292.235616 
L 141.872727 295.796962 
L 179.918182 295.910324 
L 217.963636 291.868818 
L 256.009091 284.127544 
L 294.054545 269.849913 
L 332.1 251.822191 
L 370.145455 231.261505 
L 408.190909 206.651911 
L 446.236364 177.637762 
L 484.281818 150.146703 
L 522.327273 122.117854 
L 560.372727 93.56931 
" clip-path="url(#pd30432df52)" style="fill: none; stroke-dasharray: 3.7,1.6; stroke-dashoffset: 0; stroke: #17becf; stroke-opacity: 0.6"/>
   </g>
   <g id="line2d_65">
    <path d="M 103.827273 292.235616 
L 141.872727 299.625014 
L 179.918182 302.549393 
L 217.963636 300.444532 
L 256.009091 295.320119 
L 294.054545 282.184793 
L 332.1 264.917677 
L 370.145455 245.119884 
L 408.190909 219.669242 
L 446.236364 192.616101 
L 484.281818 164.300098 
L 522.327273 135.251928 
L 560.372727 105.121727 
" clip-path="url(#pd30432df52)" style="fill: none; stroke-dasharray: 3.7,1.6; stroke-dashoffset: 0; stroke: #1f77b4; stroke-opacity: 0.6"/>
   </g>
   <g id="line2d_66">
    <path d="M 103.827273 292.235616 
L 141.872727 290.33811 
L 179.918182 292.665874 
L 217.963636 290.148342 
L 256.009091 282.717152 
L 294.054545 269.658548 
L 332.1 251.869191 
L 370.145455 233.35604 
L 408.190909 210.823829 
L 446.236364 185.28255 
L 484.281818 158.854765 
L 522.327273 132.220791 
L 560.372727 105.077509 
" clip-path="url(#pd30432df52)" style="fill: none; stroke-dasharray: 3.7,1.6; stroke-dashoffset: 0; stroke: #ff7f0e; stroke-opacity: 0.6"/>
   </g>
   <g id="line2d_67">
    <path d="M 103.827273 292.235616 
L 141.872727 299.347651 
L 179.918182 299.904259 
L 217.963636 294.983352 
L 256.009091 287.90261 
L 294.054545 273.312598 
L 332.1 256.529929 
L 370.145455 234.85556 
L 408.190909 211.047784 
L 446.236364 184.059175 
L 484.281818 155.184177 
L 522.327273 125.576025 
L 560.372727 97.758581 
" clip-path="url(#pd30432df52)" style="fill: none; stroke-dasharray: 3.7,1.6; stroke-dashoffset: 0; stroke: #2ca02c; stroke-opacity: 0.6"/>
   </g>
   <g id="line2d_68">
    <path d="M 103.827273 292.235616 
L 141.872727 296.866724 
L 179.918182 298.005661 
L 217.963636 294.2797 
L 256.009091 285.827239 
L 294.054545 269.146908 
L 332.1 247.901445 
L 370.145455 225.839608 
L 408.190909 198.630807 
L 446.236364 170.169964 
L 484.281818 141.550616 
L 522.327273 112.958472 
L 560.372727 83.303767 
" clip-path="url(#pd30432df52)" style="fill: none; stroke-dasharray: 3.7,1.6; stroke-dashoffset: 0; stroke: #d62728; stroke-opacity: 0.6"/>
   </g>
   <g id="line2d_69">
    <path d="M 103.827273 292.235616 
L 141.872727 295.887162 
L 179.918182 297.909062 
L 217.963636 295.572308 
L 256.009091 288.154154 
L 294.054545 273.663526 
L 332.1 257.270272 
L 370.145455 235.473358 
L 408.190909 210.515636 
L 446.236364 182.198042 
L 484.281818 151.421928 
L 522.327273 122.012478 
L 560.372727 91.353231 
" clip-path="url(#pd30432df52)" style="fill: none; stroke-dasharray: 3.7,1.6; stroke-dashoffset: 0; stroke: #9467bd; stroke-opacity: 0.6"/>
   </g>
   <g id="line2d_70">
    <path d="M 103.827273 292.235616 
L 141.872727 299.448224 
L 179.918182 301.411228 
L 217.963636 298.241263 
L 256.009091 291.09843 
L 294.054545 275.894259 
L 332.1 259.868699 
L 370.145455 237.226388 
L 408.190909 210.592 
L 446.236364 182.52507 
L 484.281818 153.419266 
L 522.327273 122.295249 
L 560.372727 89.265422 
" clip-path="url(#pd30432df52)" style="fill: none; stroke-dasharray: 3.7,1.6; stroke-dashoffset: 0; stroke: #8c564b; stroke-opacity: 0.6"/>
   </g>
   <g id="line2d_71">
    <path d="M 103.827273 292.235616 
L 141.872727 293.855877 
L 179.918182 295.937193 
L 217.963636 293.272205 
L 256.009091 284.342634 
L 294.054545 267.946916 
L 332.1 250.350233 
L 370.145455 229.290444 
L 408.190909 204.526496 
L 446.236364 177.946749 
L 484.281818 152.254153 
L 522.327273 123.151167 
L 560.372727 94.106161 
" clip-path="url(#pd30432df52)" style="fill: none; stroke-dasharray: 3.7,1.6; stroke-dashoffset: 0; stroke: #e377c2; stroke-opacity: 0.6"/>
   </g>
   <g id="line2d_72">
    <path d="M 103.827273 292.235616 
L 141.872727 294.999602 
L 179.918182 296.861686 
L 217.963636 292.813949 
L 256.009091 283.830664 
L 294.054545 268.69639 
L 332.1 249.002807 
L 370.145455 226.217151 
L 408.190909 198.631189 
L 446.236364 170.047694 
L 484.281818 142.570328 
L 522.327273 114.486552 
L 560.372727 87.172886 
" clip-path="url(#pd30432df52)" style="fill: none; stroke-dasharray: 3.7,1.6; stroke-dashoffset: 0; stroke: #7f7f7f; stroke-opacity: 0.6"/>
   </g>
   <g id="line2d_73">
    <path d="M 103.827273 292.235616 
L 141.872727 302.533035 
L 179.918182 304.655807 
L 217.963636 302.73467 
L 256.009091 296.136061 
L 294.054545 284.53331 
L 332.1 266.729995 
L 370.145455 246.597668 
L 408.190909 224.536066 
L 446.236364 197.296947 
L 484.281818 167.389785 
L 522.327273 138.558693 
L 560.372727 109.563749 
" clip-path="url(#pd30432df52)" style="fill: none; stroke-dasharray: 3.7,1.6; stroke-dashoffset: 0; stroke: #bcbd22; stroke-opacity: 0.6"/>
   </g>
   <g id="line2d_74">
    <path d="M 103.827273 292.235616 
L 141.872727 290.686279 
L 179.918182 291.989093 
L 217.963636 288.308582 
L 256.009091 279.989702 
L 294.054545 264.55414 
L 332.1 243.682796 
L 370.145455 220.533174 
L 408.190909 194.52262 
L 446.236364 166.736351 
L 484.281818 138.195962 
L 522.327273 107.564833 
L 560.372727 78.245862 
" clip-path="url(#pd30432df52)" style="fill: none; stroke-dasharray: 3.7,1.6; stroke-dashoffset: 0; stroke: #17becf; stroke-opacity: 0.6"/>
   </g>
   <g id="line2d_75">
    <path d="M 103.827273 292.235616 
L 141.872727 297.032691 
L 179.918182 299.428865 
L 217.963636 296.940938 
L 256.009091 290.946658 
L 294.054545 277.119106 
L 332.1 259.548261 
L 370.145455 237.961426 
L 408.190909 212.035719 
L 446.236364 184.157651 
L 484.281818 152.080071 
L 522.327273 119.850705 
L 560.372727 88.932411 
" clip-path="url(#pd30432df52)" style="fill: none; stroke-dasharray: 3.7,1.6; stroke-dashoffset: 0; stroke: #1f77b4; stroke-opacity: 0.6"/>
   </g>
   <g id="line2d_76">
    <path d="M 103.827273 292.235616 
L 141.872727 298.369442 
L 179.918182 299.748858 
L 217.963636 297.987573 
L 256.009091 292.827572 
L 294.054545 278.738499 
L 332.1 263.875725 
L 370.145455 242.485509 
L 408.190909 218.085915 
L 446.236364 192.69132 
L 484.281818 162.506421 
L 522.327273 132.017593 
L 560.372727 102.307139 
" clip-path="url(#pd30432df52)" style="fill: none; stroke-dasharray: 3.7,1.6; stroke-dashoffset: 0; stroke: #ff7f0e; stroke-opacity: 0.6"/>
   </g>
   <g id="line2d_77">
    <path d="M 103.827273 292.235616 
L 141.872727 295.670684 
L 179.918182 297.53221 
L 217.963636 293.592068 
L 256.009091 284.20217 
L 294.054545 266.567221 
L 332.1 246.621166 
L 370.145455 222.267013 
L 408.190909 194.222603 
L 446.236364 163.342536 
L 484.281818 133.462975 
L 522.327273 101.787184 
L 560.372727 70.56519 
" clip-path="url(#pd30432df52)" style="fill: none; stroke-dasharray: 3.7,1.6; stroke-dashoffset: 0; stroke: #2ca02c; stroke-opacity: 0.6"/>
   </g>
   <g id="line2d_78">
    <path d="M 103.827273 292.235616 
L 141.872727 292.555205 
L 179.918182 292.999583 
L 217.963636 287.698088 
L 256.009091 279.448297 
L 294.054545 264.209853 
L 332.1 244.955188 
L 370.145455 221.655325 
L 408.190909 195.135607 
L 446.236364 165.079693 
L 484.281818 137.059466 
L 522.327273 107.422744 
L 560.372727 77.019636 
" clip-path="url(#pd30432df52)" style="fill: none; stroke-dasharray: 3.7,1.6; stroke-dashoffset: 0; stroke: #d62728; stroke-opacity: 0.6"/>
   </g>
   <g id="line2d_79">
    <path d="M 103.827273 292.235616 
L 141.872727 298.746475 
L 179.918182 301.348676 
L 217.963636 299.852902 
L 256.009091 293.507753 
L 294.054545 279.223182 
L 332.1 261.267891 
L 370.145455 238.051297 
L 408.190909 212.13813 
L 446.236364 182.39646 
L 484.281818 152.65025 
L 522.327273 121.315414 
L 560.372727 87.033939 
" clip-path="url(#pd30432df52)" style="fill: none; stroke-dasharray: 3.7,1.6; stroke-dashoffset: 0; stroke: #9467bd; stroke-opacity: 0.6"/>
   </g>
   <g id="line2d_80">
    <path d="M 103.827273 292.235616 
L 141.872727 295.201648 
L 179.918182 297.052741 
L 217.963636 295.000025 
L 256.009091 285.581788 
L 294.054545 271.650954 
L 332.1 251.187974 
L 370.145455 229.445898 
L 408.190909 203.069088 
L 446.236364 173.33831 
L 484.281818 144.952263 
L 522.327273 112.716606 
L 560.372727 81.853279 
" clip-path="url(#pd30432df52)" style="fill: none; stroke-dasharray: 3.7,1.6; stroke-dashoffset: 0; stroke: #8c564b; stroke-opacity: 0.6"/>
   </g>
   <g id="line2d_81">
    <path d="M 103.827273 292.235616 
L 141.872727 290.974916 
L 179.918182 294.554119 
L 217.963636 291.710134 
L 256.009091 285.096513 
L 294.054545 272.522784 
L 332.1 254.788511 
L 370.145455 231.706436 
L 408.190909 204.884962 
L 446.236364 176.246705 
L 484.281818 146.959383 
L 522.327273 117.14213 
L 560.372727 87.159373 
" clip-path="url(#pd30432df52)" style="fill: none; stroke-dasharray: 3.7,1.6; stroke-dashoffset: 0; stroke: #e377c2; stroke-opacity: 0.6"/>
   </g>
   <g id="line2d_82">
    <path d="M 103.827273 292.235616 
L 141.872727 290.235283 
L 179.918182 292.225787 
L 217.963636 287.166844 
L 256.009091 279.245868 
L 294.054545 264.613759 
L 332.1 246.100186 
L 370.145455 225.015156 
L 408.190909 199.910242 
L 446.236364 174.010671 
L 484.281818 146.095339 
L 522.327273 115.311586 
L 560.372727 86.21354 
" clip-path="url(#pd30432df52)" style="fill: none; stroke-dasharray: 3.7,1.6; stroke-dashoffset: 0; stroke: #7f7f7f; stroke-opacity: 0.6"/>
   </g>
   <g id="line2d_83">
    <path d="M 103.827273 292.235616 
L 141.872727 295.695939 
L 179.918182 297.111861 
L 217.963636 295.385586 
L 256.009091 290.14502 
L 294.054545 275.739171 
L 332.1 257.830484 
L 370.145455 237.429606 
L 408.190909 211.974986 
L 446.236364 185.303839 
L 484.281818 157.263168 
L 522.327273 126.830487 
L 560.372727 97.805695 
" clip-path="url(#pd30432df52)" style="fill: none; stroke-dasharray: 3.7,1.6; stroke-dashoffset: 0; stroke: #bcbd22; stroke-opacity: 0.6"/>
   </g>
   <g id="line2d_84">
    <path d="M 103.827273 292.235616 
L 141.872727 302.0189 
L 179.918182 302.799941 
L 217.963636 298.717557 
L 256.009091 290.506308 
L 294.054545 275.916012 
L 332.1 260.209722 
L 370.145455 241.415159 
L 408.190909 217.539168 
L 446.236364 192.514624 
L 484.281818 164.633499 
L 522.327273 135.888351 
L 560.372727 103.932359 
" clip-path="url(#pd30432df52)" style="fill: none; stroke-dasharray: 3.7,1.6; stroke-dashoffset: 0; stroke: #17becf; stroke-opacity: 0.6"/>
   </g>
   <g id="line2d_85">
    <path d="M 103.827273 292.235616 
L 141.872727 290.731378 
L 179.918182 294.633695 
L 217.963636 294.22142 
L 256.009091 288.781709 
L 294.054545 276.157685 
L 332.1 259.639543 
L 370.145455 239.322732 
L 408.190909 215.323182 
L 446.236364 189.633905 
L 484.281818 161.717864 
L 522.327273 133.439284 
L 560.372727 103.578652 
" clip-path="url(#pd30432df52)" style="fill: none; stroke-dasharray: 3.7,1.6; stroke-dashoffset: 0; stroke: #1f77b4; stroke-opacity: 0.6"/>
   </g>
   <g id="line2d_86">
    <path d="M 103.827273 292.235616 
L 141.872727 300.541438 
L 179.918182 303.833061 
L 217.963636 301.301235 
L 256.009091 295.513953 
L 294.054545 282.342342 
L 332.1 266.913312 
L 370.145455 248.907833 
L 408.190909 227.222346 
L 446.236364 202.619599 
L 484.281818 172.827646 
L 522.327273 142.959026 
L 560.372727 113.767636 
" clip-path="url(#pd30432df52)" style="fill: none; stroke-dasharray: 3.7,1.6; stroke-dashoffset: 0; stroke: #ff7f0e; stroke-opacity: 0.6"/>
   </g>
   <g id="line2d_87">
    <path d="M 103.827273 292.235616 
L 141.872727 303.458928 
L 179.918182 304.741107 
L 217.963636 298.091208 
L 256.009091 290.277114 
L 294.054545 273.991024 
L 332.1 253.757474 
L 370.145455 231.804439 
L 408.190909 201.631442 
L 446.236364 170.020614 
L 484.281818 139.827946 
L 522.327273 110.765956 
L 560.372727 81.16184 
" clip-path="url(#pd30432df52)" style="fill: none; stroke-dasharray: 3.7,1.6; stroke-dashoffset: 0; stroke: #2ca02c; stroke-opacity: 0.6"/>
   </g>
   <g id="line2d_88">
    <path d="M 103.827273 292.235616 
L 141.872727 291.701921 
L 179.918182 295.275111 
L 217.963636 293.815896 
L 256.009091 288.569572 
L 294.054545 275.747301 
L 332.1 259.938497 
L 370.145455 239.915613 
L 408.190909 215.414319 
L 446.236364 189.246951 
L 484.281818 162.157283 
L 522.327273 133.220088 
L 560.372727 104.355336 
" clip-path="url(#pd30432df52)" style="fill: none; stroke-dasharray: 3.7,1.6; stroke-dashoffset: 0; stroke: #d62728; stroke-opacity: 0.6"/>
   </g>
   <g id="line2d_89">
    <path d="M 103.827273 292.235616 
L 141.872727 294.564842 
L 179.918182 296.957659 
L 217.963636 293.9255 
L 256.009091 289.368176 
L 294.054545 276.599271 
L 332.1 260.306197 
L 370.145455 239.962034 
L 408.190909 214.665147 
L 446.236364 186.556973 
L 484.281818 158.831513 
L 522.327273 130.42231 
L 560.372727 103.09376 
" clip-path="url(#pd30432df52)" style="fill: none; stroke-dasharray: 3.7,1.6; stroke-dashoffset: 0; stroke: #9467bd; stroke-opacity: 0.6"/>
   </g>
   <g id="line2d_90">
    <path d="M 103.827273 292.235616 
L 141.872727 293.686302 
L 179.918182 296.177263 
L 217.963636 293.954043 
L 256.009091 286.162161 
L 294.054545 270.764183 
L 332.1 253.210037 
L 370.145455 231.010739 
L 408.190909 207.225635 
L 446.236364 180.255147 
L 484.281818 153.316895 
L 522.327273 125.221905 
L 560.372727 95.08471 
" clip-path="url(#pd30432df52)" style="fill: none; stroke-dasharray: 3.7,1.6; stroke-dashoffset: 0; stroke: #8c564b; stroke-opacity: 0.6"/>
   </g>
   <g id="line2d_91">
    <path d="M 103.827273 292.235616 
L 141.872727 303.112564 
L 179.918182 304.938015 
L 217.963636 299.998141 
L 256.009091 293.071757 
L 294.054545 278.644935 
L 332.1 262.585681 
L 370.145455 243.98576 
L 408.190909 218.146449 
L 446.236364 192.279152 
L 484.281818 163.277296 
L 522.327273 134.338522 
L 560.372727 102.635807 
" clip-path="url(#pd30432df52)" style="fill: none; stroke-dasharray: 3.7,1.6; stroke-dashoffset: 0; stroke: #e377c2; stroke-opacity: 0.6"/>
   </g>
   <g id="line2d_92">
    <path d="M 103.827273 292.235616 
L 141.872727 291.550386 
L 179.918182 294.304694 
L 217.963636 292.113946 
L 256.009091 285.835501 
L 294.054545 273.890688 
L 332.1 254.329537 
L 370.145455 231.341446 
L 408.190909 205.559202 
L 446.236364 177.436615 
L 484.281818 148.487986 
L 522.327273 119.353875 
L 560.372727 89.480363 
" clip-path="url(#pd30432df52)" style="fill: none; stroke-dasharray: 3.7,1.6; stroke-dashoffset: 0; stroke: #7f7f7f; stroke-opacity: 0.6"/>
   </g>
   <g id="line2d_93">
    <path d="M 103.827273 292.235616 
L 141.872727 299.352613 
L 179.918182 300.75105 
L 217.963636 293.685089 
L 256.009091 286.465256 
L 294.054545 271.35739 
L 332.1 253.400372 
L 370.145455 230.805896 
L 408.190909 205.976344 
L 446.236364 176.946173 
L 484.281818 149.693458 
L 522.327273 121.738702 
L 560.372727 92.744679 
" clip-path="url(#pd30432df52)" style="fill: none; stroke-dasharray: 3.7,1.6; stroke-dashoffset: 0; stroke: #bcbd22; stroke-opacity: 0.6"/>
   </g>
   <g id="line2d_94">
    <path d="M 103.827273 292.235616 
L 141.872727 292.804155 
L 179.918182 292.743211 
L 217.963636 287.555585 
L 256.009091 276.610775 
L 294.054545 260.236576 
L 332.1 238.214562 
L 370.145455 213.595125 
L 408.190909 185.426163 
L 446.236364 154.740801 
L 484.281818 123.666705 
L 522.327273 88.882691 
L 560.372727 55.8 
" clip-path="url(#pd30432df52)" style="fill: none; stroke-dasharray: 3.7,1.6; stroke-dashoffset: 0; stroke: #17becf; stroke-opacity: 0.6"/>
   </g>
   <g id="line2d_95">
    <path d="M 103.827273 292.235616 
L 141.872727 288.487223 
L 179.918182 292.371546 
L 217.963636 291.494195 
L 256.009091 285.523015 
L 294.054545 272.833472 
L 332.1 257.348505 
L 370.145455 239.054963 
L 408.190909 215.856553 
L 446.236364 192.586266 
L 484.281818 167.366104 
L 522.327273 142.110743 
L 560.372727 113.379895 
" clip-path="url(#pd30432df52)" style="fill: none; stroke-dasharray: 3.7,1.6; stroke-dashoffset: 0; stroke: #1f77b4; stroke-opacity: 0.6"/>
   </g>
   <g id="line2d_96">
    <path d="M 103.827273 292.235616 
L 141.872727 291.920203 
L 179.918182 294.235837 
L 217.963636 290.331347 
L 256.009091 283.112842 
L 294.054545 268.608869 
L 332.1 248.177598 
L 370.145455 229.534252 
L 408.190909 203.15026 
L 446.236364 172.636585 
L 484.281818 144.775817 
L 522.327273 118.130818 
L 560.372727 89.715426 
" clip-path="url(#pd30432df52)" style="fill: none; stroke-dasharray: 3.7,1.6; stroke-dashoffset: 0; stroke: #ff7f0e; stroke-opacity: 0.6"/>
   </g>
   <g id="line2d_97">
    <path d="M 103.827273 292.235616 
L 141.872727 297.420547 
L 179.918182 299.98958 
L 217.963636 295.875733 
L 256.009091 290.25765 
L 294.054545 275.283403 
L 332.1 258.663134 
L 370.145455 238.839171 
L 408.190909 214.935393 
L 446.236364 187.700226 
L 484.281818 158.668235 
L 522.327273 127.53687 
L 560.372727 97.792013 
" clip-path="url(#pd30432df52)" style="fill: none; stroke-dasharray: 3.7,1.6; stroke-dashoffset: 0; stroke: #2ca02c; stroke-opacity: 0.6"/>
   </g>
   <g id="line2d_98">
    <path d="M 103.827273 292.235616 
L 141.872727 302.116315 
L 179.918182 304.542507 
L 217.963636 300.637115 
L 256.009091 293.609294 
L 294.054545 279.625844 
L 332.1 263.625656 
L 370.145455 244.609536 
L 408.190909 218.807339 
L 446.236364 191.686001 
L 484.281818 161.418462 
L 522.327273 131.86627 
L 560.372727 102.870219 
" clip-path="url(#pd30432df52)" style="fill: none; stroke-dasharray: 3.7,1.6; stroke-dashoffset: 0; stroke: #d62728; stroke-opacity: 0.6"/>
   </g>
   <g id="line2d_99">
    <path d="M 103.827273 292.235616 
L 141.872727 289.87629 
L 179.918182 293.4113 
L 217.963636 291.439727 
L 256.009091 285.851028 
L 294.054545 271.232717 
L 332.1 254.827345 
L 370.145455 236.172239 
L 408.190909 215.444647 
L 446.236364 192.419877 
L 484.281818 167.883503 
L 522.327273 143.246729 
L 560.372727 116.357346 
" clip-path="url(#pd30432df52)" style="fill: none; stroke-dasharray: 3.7,1.6; stroke-dashoffset: 0; stroke: #9467bd; stroke-opacity: 0.6"/>
   </g>
   <g id="line2d_100">
    <path d="M 103.827273 292.235616 
L 141.872727 295.358594 
L 179.918182 296.935351 
L 217.963636 294.476837 
L 256.009091 289.65202 
L 294.054545 277.566558 
L 332.1 261.642412 
L 370.145455 241.855118 
L 408.190909 219.366256 
L 446.236364 193.57614 
L 484.281818 165.119166 
L 522.327273 135.001026 
L 560.372727 105.109127 
" clip-path="url(#pd30432df52)" style="fill: none; stroke-dasharray: 3.7,1.6; stroke-dashoffset: 0; stroke: #8c564b; stroke-opacity: 0.6"/>
   </g>
   <g id="line2d_101">
    <path d="M 103.827273 292.235616 
L 141.872727 301.587748 
L 179.918182 300.821334 
L 217.963636 294.981897 
L 256.009091 286.135488 
L 294.054545 270.288273 
L 332.1 250.19088 
L 370.145455 227.359589 
L 408.190909 201.026894 
L 446.236364 174.388929 
L 484.281818 146.550905 
L 522.327273 119.614774 
L 560.372727 90.646796 
" clip-path="url(#pd30432df52)" style="fill: none; stroke-dasharray: 3.7,1.6; stroke-dashoffset: 0; stroke: #e377c2; stroke-opacity: 0.6"/>
   </g>
   <g id="line2d_102">
    <path d="M 103.827273 292.235616 
L 141.872727 291.371792 
L 179.918182 294.220054 
L 217.963636 290.845979 
L 256.009091 280.663064 
L 294.054545 265.663403 
L 332.1 247.260664 
L 370.145455 225.78005 
L 408.190909 201.353089 
L 446.236364 176.019374 
L 484.281818 149.55726 
L 522.327273 121.295975 
L 560.372727 94.250498 
" clip-path="url(#pd30432df52)" style="fill: none; stroke-dasharray: 3.7,1.6; stroke-dashoffset: 0; stroke: #7f7f7f; stroke-opacity: 0.6"/>
   </g>
   <g id="line2d_103">
    <path d="M 103.827273 292.235616 
L 141.872727 302.271908 
L 179.918182 304.886363 
L 217.963636 299.946579 
L 256.009091 292.332924 
L 294.054545 278.310837 
L 332.1 260.137611 
L 370.145455 236.768919 
L 408.190909 212.016557 
L 446.236364 182.875517 
L 484.281818 152.601652 
L 522.327273 119.618505 
L 560.372727 87.859491 
" clip-path="url(#pd30432df52)" style="fill: none; stroke-dasharray: 3.7,1.6; stroke-dashoffset: 0; stroke: #bcbd22; stroke-opacity: 0.6"/>
   </g>
   <g id="line2d_104">
    <path d="M 103.827273 292.235616 
L 141.872727 302.385108 
L 179.918182 303.965006 
L 217.963636 297.047477 
L 256.009091 287.181692 
L 294.054545 270.799482 
L 332.1 252.099646 
L 370.145455 230.732375 
L 408.190909 202.805383 
L 446.236364 174.887666 
L 484.281818 145.102916 
L 522.327273 113.655513 
L 560.372727 82.324598 
" clip-path="url(#pd30432df52)" style="fill: none; stroke-dasharray: 3.7,1.6; stroke-dashoffset: 0; stroke: #17becf; stroke-opacity: 0.6"/>
   </g>
   <g id="line2d_105">
    <path d="M 103.827273 292.235616 
L 141.872727 292.878118 
L 179.918182 294.168296 
L 217.963636 291.878382 
L 256.009091 284.570078 
L 294.054545 270.458033 
L 332.1 252.016664 
L 370.145455 230.815488 
L 408.190909 207.423762 
L 446.236364 182.697382 
L 484.281818 153.750401 
L 522.327273 122.602935 
L 560.372727 92.551482 
" clip-path="url(#pd30432df52)" style="fill: none; stroke-dasharray: 3.7,1.6; stroke-dashoffset: 0; stroke: #1f77b4; stroke-opacity: 0.6"/>
   </g>
   <g id="line2d_106">
    <path d="M 103.827273 292.235616 
L 141.872727 302.881654 
L 179.918182 304.252684 
L 217.963636 298.438482 
L 256.009091 289.081688 
L 294.054545 272.838124 
L 332.1 255.149492 
L 370.145455 231.210926 
L 408.190909 204.351865 
L 446.236364 175.242565 
L 484.281818 146.849436 
L 522.327273 117.48354 
L 560.372727 88.774057 
" clip-path="url(#pd30432df52)" style="fill: none; stroke-dasharray: 3.7,1.6; stroke-dashoffset: 0; stroke: #ff7f0e; stroke-opacity: 0.6"/>
   </g>
   <g id="line2d_107">
    <path d="M 103.827273 292.235616 
L 141.872727 300.861193 
L 179.918182 302.639711 
L 217.963636 298.818607 
L 256.009091 291.42965 
L 294.054545 275.460083 
L 332.1 258.757786 
L 370.145455 238.124505 
L 408.190909 213.422178 
L 446.236364 187.735278 
L 484.281818 159.577576 
L 522.327273 129.162695 
L 560.372727 98.380027 
" clip-path="url(#pd30432df52)" style="fill: none; stroke-dasharray: 3.7,1.6; stroke-dashoffset: 0; stroke: #2ca02c; stroke-opacity: 0.6"/>
   </g>
   <g id="line2d_108">
    <path d="M 103.827273 292.235616 
L 141.872727 298.61298 
L 179.918182 299.241735 
L 217.963636 294.731629 
L 256.009091 284.862612 
L 294.054545 268.619703 
L 332.1 246.784804 
L 370.145455 224.929073 
L 408.190909 198.595566 
L 446.236364 169.874968 
L 484.281818 141.706731 
L 522.327273 110.228165 
L 560.372727 78.75782 
" clip-path="url(#pd30432df52)" style="fill: none; stroke-dasharray: 3.7,1.6; stroke-dashoffset: 0; stroke: #d62728; stroke-opacity: 0.6"/>
   </g>
   <g id="line2d_109">
    <path d="M 103.827273 292.235616 
L 141.872727 297.967154 
L 179.918182 300.800916 
L 217.963636 297.642412 
L 256.009091 290.050946 
L 294.054545 274.730493 
L 332.1 255.626615 
L 370.145455 232.702845 
L 408.190909 204.098543 
L 446.236364 174.378113 
L 484.281818 142.488269 
L 522.327273 111.817495 
L 560.372727 80.642342 
" clip-path="url(#pd30432df52)" style="fill: none; stroke-dasharray: 3.7,1.6; stroke-dashoffset: 0; stroke: #9467bd; stroke-opacity: 0.6"/>
   </g>
   <g id="line2d_110">
    <path d="M 103.827273 292.235616 
L 141.872727 298.18724 
L 179.918182 300.503075 
L 217.963636 298.522831 
L 256.009091 289.785031 
L 294.054545 275.386651 
L 332.1 259.128859 
L 370.145455 240.19766 
L 408.190909 217.485751 
L 446.236364 190.843076 
L 484.281818 164.604234 
L 522.327273 138.215115 
L 560.372727 110.221642 
" clip-path="url(#pd30432df52)" style="fill: none; stroke-dasharray: 3.7,1.6; stroke-dashoffset: 0; stroke: #8c564b; stroke-opacity: 0.6"/>
   </g>
   <g id="line2d_111">
    <path d="M 103.827273 292.235616 
L 141.872727 299.845551 
L 179.918182 299.884024 
L 217.963636 295.313081 
L 256.009091 289.608494 
L 294.054545 274.61472 
L 332.1 258.33897 
L 370.145455 237.913355 
L 408.190909 214.491979 
L 446.236364 188.869669 
L 484.281818 161.366442 
L 522.327273 133.03096 
L 560.372727 104.455079 
" clip-path="url(#pd30432df52)" style="fill: none; stroke-dasharray: 3.7,1.6; stroke-dashoffset: 0; stroke: #e377c2; stroke-opacity: 0.6"/>
   </g>
   <g id="line2d_112">
    <path d="M 103.827273 292.235616 
L 141.872727 298.436189 
L 179.918182 300.786092 
L 217.963636 298.634199 
L 256.009091 292.266726 
L 294.054545 276.365147 
L 332.1 257.312065 
L 370.145455 236.189755 
L 408.190909 209.508878 
L 446.236364 181.758067 
L 484.281818 151.501615 
L 522.327273 122.745131 
L 560.372727 92.776506 
" clip-path="url(#pd30432df52)" style="fill: none; stroke-dasharray: 3.7,1.6; stroke-dashoffset: 0; stroke: #7f7f7f; stroke-opacity: 0.6"/>
   </g>
   <g id="line2d_113">
    <path d="M 103.827273 292.235616 
L 141.872727 304.295977 
L 179.918182 307.8 
L 217.963636 304.022955 
L 256.009091 298.519985 
L 294.054545 284.795497 
L 332.1 268.849865 
L 370.145455 248.555256 
L 408.190909 224.646155 
L 446.236364 198.65907 
L 484.281818 170.998757 
L 522.327273 144.117298 
L 560.372727 113.832651 
" clip-path="url(#pd30432df52)" style="fill: none; stroke-dasharray: 3.7,1.6; stroke-dashoffset: 0; stroke: #bcbd22; stroke-opacity: 0.6"/>
   </g>
   <g id="line2d_114">
    <path d="M 103.827273 292.235616 
L 141.872727 299.673722 
L 179.918182 303.472991 
L 217.963636 301.571133 
L 256.009091 297.084279 
L 294.054545 285.296673 
L 332.1 268.06634 
L 370.145455 250.664689 
L 408.190909 224.901456 
L 446.236364 198.941205 
L 484.281818 170.233046 
L 522.327273 141.660646 
L 560.372727 110.680169 
" clip-path="url(#pd30432df52)" style="fill: none; stroke-dasharray: 3.7,1.6; stroke-dashoffset: 0; stroke: #17becf; stroke-opacity: 0.6"/>
   </g>
   <g id="line2d_115">
    <path d="M 103.827273 292.235616 
L 141.872727 296.303827 
L 179.918182 298.265507 
L 217.963636 294.881719 
L 256.009091 287.829463 
L 294.054545 273.407262 
L 332.1 255.820903 
L 370.145455 235.015168 
L 408.190909 210.230823 
L 446.236364 183.343161 
L 484.281818 155.105613 
L 522.327273 126.061812 
L 560.372727 96.532887 
" clip-path="url(#pd30432df52)" style="fill: none; stroke: #000000; stroke-width: 2.5; stroke-linecap: square"/>
   </g>
   <g id="patch_3">
    <path d="M 81 320.4 
L 81 43.2 
" style="fill: none; stroke: #000000; stroke-width: 0.8; stroke-linejoin: miter; stroke-linecap: square"/>
   </g>
   <g id="patch_4">
    <path d="M 583.2 320.4 
L 583.2 43.2 
" style="fill: none; stroke: #000000; stroke-width: 0.8; stroke-linejoin: miter; stroke-linecap: square"/>
   </g>
   <g id="patch_5">
    <path d="M 81 320.4 
L 583.2 320.4 
" style="fill: none; stroke: #000000; stroke-width: 0.8; stroke-linejoin: miter; stroke-linecap: square"/>
   </g>
   <g id="patch_6">
    <path d="M 81 43.2 
L 583.2 43.2 
" style="fill: none; stroke: #000000; stroke-width: 0.8; stroke-linejoin: miter; stroke-linecap: square"/>
   </g>
   <g id="legend_1">
    <g id="patch_7">
     <path d="M 88 65.878125 
L 161.065625 65.878125 
Q 163.065625 65.878125 163.065625 63.878125 
L 163.065625 50.2 
Q 163.065625 48.2 161.065625 48.2 
L 88 48.2 
Q 86 48.2 86 50.2 
L 86 63.878125 
Q 86 65.878125 88 65.878125 
z
" style="fill: #ffffff; opacity: 0.8; stroke: #cccccc; stroke-linejoin: miter"/>
    </g>
    <g id="line2d_116">
     <path d="M 90 56.298437 
L 100 56.298437 
L 110 56.298437 
" style="fill: none; stroke: #000000; stroke-width: 2.5; stroke-linecap: square"/>
    </g>
    <g id="text_17">
     <!-- Average -->
     <g transform="translate(118 59.798437) scale(0.1 -0.1)">
      <defs>
       <path id="DejaVuSans-41" d="M 2188 4044 
L 1331 1722 
L 3047 1722 
L 2188 4044 
z
M 1831 4666 
L 2547 4666 
L 4325 0 
L 3669 0 
L 3244 1197 
L 1141 1197 
L 716 0 
L 50 0 
L 1831 4666 
z
" transform="scale(0.015625)"/>
       <path id="DejaVuSans-67" d="M 2906 1791 
Q 2906 2416 2648 2759 
Q 2391 3103 1925 3103 
Q 1463 3103 1205 2759 
Q 947 2416 947 1791 
Q 947 1169 1205 825 
Q 1463 481 1925 481 
Q 2391 481 2648 825 
Q 2906 1169 2906 1791 
z
M 3481 434 
Q 3481 -459 3084 -895 
Q 2688 -1331 1869 -1331 
Q 1566 -1331 1297 -1286 
Q 1028 -1241 775 -1147 
L 775 -588 
Q 1028 -725 1275 -790 
Q 1522 -856 1778 -856 
Q 2344 -856 2625 -561 
Q 2906 -266 2906 331 
L 2906 616 
Q 2728 306 2450 153 
Q 2172 0 1784 0 
Q 1141 0 747 490 
Q 353 981 353 1791 
Q 353 2603 747 3093 
Q 1141 3584 1784 3584 
Q 2172 3584 2450 3431 
Q 2728 3278 2906 2969 
L 2906 3500 
L 3481 3500 
L 3481 434 
z
" transform="scale(0.015625)"/>
      </defs>
      <use xlink:href="#DejaVuSans-41"/>
      <use xlink:href="#DejaVuSans-76" x="62.533203"/>
      <use xlink:href="#DejaVuSans-65" x="121.712891"/>
      <use xlink:href="#DejaVuSans-72" x="183.236328"/>
      <use xlink:href="#DejaVuSans-61" x="224.349609"/>
      <use xlink:href="#DejaVuSans-67" x="285.628906"/>
      <use xlink:href="#DejaVuSans-65" x="349.105469"/>
     </g>
    </g>
   </g>
  </g>
 </g>
 <defs>
  <clipPath id="pd30432df52">
   <rect x="81" y="43.2" width="502.2" height="277.2"/>
  </clipPath>
 </defs>
</svg>
