<?xml version="1.0" encoding="utf-8" standalone="no"?>
<!DOCTYPE svg PUBLIC "-//W3C//DTD SVG 1.1//EN"
  "http://www.w3.org/Graphics/SVG/1.1/DTD/svg11.dtd">
<svg xmlns:xlink="http://www.w3.org/1999/xlink" width="460.8pt" height="345.6pt" viewBox="0 0 460.8 345.6" xmlns="http://www.w3.org/2000/svg" version="1.1">
 <metadata>
  <rdf:RDF xmlns:dc="http://purl.org/dc/elements/1.1/" xmlns:cc="http://creativecommons.org/ns#" xmlns:rdf="http://www.w3.org/1999/02/22-rdf-syntax-ns#">
   <cc:Work>
    <dc:type rdf:resource="http://purl.org/dc/dcmitype/StillImage"/>
    <dc:date>2025-08-27T23:17:43.790623</dc:date>
    <dc:format>image/svg+xml</dc:format>
    <dc:creator>
     <cc:Agent>
      <dc:title>Matplotlib v3.8.0, https://matplotlib.org/</dc:title>
     </cc:Agent>
    </dc:creator>
   </cc:Work>
  </rdf:RDF>
 </metadata>
 <defs>
  <style type="text/css">*{stroke-linejoin: round; stroke-linecap: butt}</style>
 </defs>
 <g id="figure_1">
  <g id="patch_1">
   <path d="M 0 345.6 
L 460.8 345.6 
L 460.8 0 
L 0 0 
z
" style="fill: #ffffff"/>
  </g>
  <g id="axes_1">
   <g id="patch_2">
    <path d="M 57.6 307.584 
L 414.72 307.584 
L 414.72 41.472 
L 57.6 41.472 
z
" style="fill: #ffffff"/>
   </g>
   <g id="matplotlib.axis_1">
    <g id="xtick_1">
     <g id="line2d_1">
      <defs>
       <path id="m6ed22babc1" d="M 0 0 
L 0 3.5 
" style="stroke: #000000; stroke-width: 0.8"/>
      </defs>
      <g>
       <use xlink:href="#m6ed22babc1" x="73.832727" y="307.584" style="stroke: #000000; stroke-width: 0.8"/>
      </g>
     </g>
     <g id="text_1">
      <!-- 0 -->
      <g transform="translate(70.015227 323.702125) scale(0.12 -0.12)">
       <defs>
        <path id="DejaVuSans-30" d="M 2034 4250 
Q 1547 4250 1301 3770 
Q 1056 3291 1056 2328 
Q 1056 1369 1301 889 
Q 1547 409 2034 409 
Q 2525 409 2770 889 
Q 3016 1369 3016 2328 
Q 3016 3291 2770 3770 
Q 2525 4250 2034 4250 
z
M 2034 4750 
Q 2819 4750 3233 4129 
Q 3647 3509 3647 2328 
Q 3647 1150 3233 529 
Q 2819 -91 2034 -91 
Q 1250 -91 836 529 
Q 422 1150 422 2328 
Q 422 3509 836 4129 
Q 1250 4750 2034 4750 
z
" transform="scale(0.015625)"/>
       </defs>
       <use xlink:href="#DejaVuSans-30"/>
      </g>
     </g>
    </g>
    <g id="xtick_2">
     <g id="line2d_2">
      <g>
       <use xlink:href="#m6ed22babc1" x="132.860826" y="307.584" style="stroke: #000000; stroke-width: 0.8"/>
      </g>
     </g>
     <g id="text_2">
      <!-- 2 -->
      <g transform="translate(129.043326 323.702125) scale(0.12 -0.12)">
       <defs>
        <path id="DejaVuSans-32" d="M 1228 531 
L 3431 531 
L 3431 0 
L 469 0 
L 469 531 
Q 828 903 1448 1529 
Q 2069 2156 2228 2338 
Q 2531 2678 2651 2914 
Q 2772 3150 2772 3378 
Q 2772 3750 2511 3984 
Q 2250 4219 1831 4219 
Q 1534 4219 1204 4116 
Q 875 4013 500 3803 
L 500 4441 
Q 881 4594 1212 4672 
Q 1544 4750 1819 4750 
Q 2544 4750 2975 4387 
Q 3406 4025 3406 3419 
Q 3406 3131 3298 2873 
Q 3191 2616 2906 2266 
Q 2828 2175 2409 1742 
Q 1991 1309 1228 531 
z
" transform="scale(0.015625)"/>
       </defs>
       <use xlink:href="#DejaVuSans-32"/>
      </g>
     </g>
    </g>
    <g id="xtick_3">
     <g id="line2d_3">
      <g>
       <use xlink:href="#m6ed22babc1" x="191.888926" y="307.584" style="stroke: #000000; stroke-width: 0.8"/>
      </g>
     </g>
     <g id="text_3">
      <!-- 4 -->
      <g transform="translate(188.071426 323.702125) scale(0.12 -0.12)">
       <defs>
        <path id="DejaVuSans-34" d="M 2419 4116 
L 825 1625 
L 2419 1625 
L 2419 4116 
z
M 2253 4666 
L 3047 4666 
L 3047 1625 
L 3713 1625 
L 3713 1100 
L 3047 1100 
L 3047 0 
L 2419 0 
L 2419 1100 
L 313 1100 
L 313 1709 
L 2253 4666 
z
" transform="scale(0.015625)"/>
       </defs>
       <use xlink:href="#DejaVuSans-34"/>
      </g>
     </g>
    </g>
    <g id="xtick_4">
     <g id="line2d_4">
      <g>
       <use xlink:href="#m6ed22babc1" x="250.917025" y="307.584" style="stroke: #000000; stroke-width: 0.8"/>
      </g>
     </g>
     <g id="text_4">
      <!-- 6 -->
      <g transform="translate(247.099525 323.702125) scale(0.12 -0.12)">
       <defs>
        <path id="DejaVuSans-36" d="M 2113 2584 
Q 1688 2584 1439 2293 
Q 1191 2003 1191 1497 
Q 1191 994 1439 701 
Q 1688 409 2113 409 
Q 2538 409 2786 701 
Q 3034 994 3034 1497 
Q 3034 2003 2786 2293 
Q 2538 2584 2113 2584 
z
M 3366 4563 
L 3366 3988 
Q 3128 4100 2886 4159 
Q 2644 4219 2406 4219 
Q 1781 4219 1451 3797 
Q 1122 3375 1075 2522 
Q 1259 2794 1537 2939 
Q 1816 3084 2150 3084 
Q 2853 3084 3261 2657 
Q 3669 2231 3669 1497 
Q 3669 778 3244 343 
Q 2819 -91 2113 -91 
Q 1303 -91 875 529 
Q 447 1150 447 2328 
Q 447 3434 972 4092 
Q 1497 4750 2381 4750 
Q 2619 4750 2861 4703 
Q 3103 4656 3366 4563 
z
" transform="scale(0.015625)"/>
       </defs>
       <use xlink:href="#DejaVuSans-36"/>
      </g>
     </g>
    </g>
    <g id="xtick_5">
     <g id="line2d_5">
      <g>
       <use xlink:href="#m6ed22babc1" x="309.945124" y="307.584" style="stroke: #000000; stroke-width: 0.8"/>
      </g>
     </g>
     <g id="text_5">
      <!-- 8 -->
      <g transform="translate(306.127624 323.702125) scale(0.12 -0.12)">
       <defs>
        <path id="DejaVuSans-38" d="M 2034 2216 
Q 1584 2216 1326 1975 
Q 1069 1734 1069 1313 
Q 1069 891 1326 650 
Q 1584 409 2034 409 
Q 2484 409 2743 651 
Q 3003 894 3003 1313 
Q 3003 1734 2745 1975 
Q 2488 2216 2034 2216 
z
M 1403 2484 
Q 997 2584 770 2862 
Q 544 3141 544 3541 
Q 544 4100 942 4425 
Q 1341 4750 2034 4750 
Q 2731 4750 3128 4425 
Q 3525 4100 3525 3541 
Q 3525 3141 3298 2862 
Q 3072 2584 2669 2484 
Q 3125 2378 3379 2068 
Q 3634 1759 3634 1313 
Q 3634 634 3220 271 
Q 2806 -91 2034 -91 
Q 1263 -91 848 271 
Q 434 634 434 1313 
Q 434 1759 690 2068 
Q 947 2378 1403 2484 
z
M 1172 3481 
Q 1172 3119 1398 2916 
Q 1625 2713 2034 2713 
Q 2441 2713 2670 2916 
Q 2900 3119 2900 3481 
Q 2900 3844 2670 4047 
Q 2441 4250 2034 4250 
Q 1625 4250 1398 4047 
Q 1172 3844 1172 3481 
z
" transform="scale(0.015625)"/>
       </defs>
       <use xlink:href="#DejaVuSans-38"/>
      </g>
     </g>
    </g>
    <g id="xtick_6">
     <g id="line2d_6">
      <g>
       <use xlink:href="#m6ed22babc1" x="368.973223" y="307.584" style="stroke: #000000; stroke-width: 0.8"/>
      </g>
     </g>
     <g id="text_6">
      <!-- 10 -->
      <g transform="translate(361.338223 323.702125) scale(0.12 -0.12)">
       <defs>
        <path id="DejaVuSans-31" d="M 794 531 
L 1825 531 
L 1825 4091 
L 703 3866 
L 703 4441 
L 1819 4666 
L 2450 4666 
L 2450 531 
L 3481 531 
L 3481 0 
L 794 0 
L 794 531 
z
" transform="scale(0.015625)"/>
       </defs>
       <use xlink:href="#DejaVuSans-31"/>
       <use xlink:href="#DejaVuSans-30" x="63.623047"/>
      </g>
     </g>
    </g>
    <g id="text_7">
     <!-- Years -->
     <g transform="translate(216.371719 341.595406) scale(0.15 -0.15)">
      <defs>
       <path id="DejaVuSans-59" d="M -13 4666 
L 666 4666 
L 1959 2747 
L 3244 4666 
L 3922 4666 
L 2272 2222 
L 2272 0 
L 1638 0 
L 1638 2222 
L -13 4666 
z
" transform="scale(0.015625)"/>
       <path id="DejaVuSans-65" d="M 3597 1894 
L 3597 1613 
L 953 1613 
Q 991 1019 1311 708 
Q 1631 397 2203 397 
Q 2534 397 2845 478 
Q 3156 559 3463 722 
L 3463 178 
Q 3153 47 2828 -22 
Q 2503 -91 2169 -91 
Q 1331 -91 842 396 
Q 353 884 353 1716 
Q 353 2575 817 3079 
Q 1281 3584 2069 3584 
Q 2775 3584 3186 3129 
Q 3597 2675 3597 1894 
z
M 3022 2063 
Q 3016 2534 2758 2815 
Q 2500 3097 2075 3097 
Q 1594 3097 1305 2825 
Q 1016 2553 972 2059 
L 3022 2063 
z
" transform="scale(0.015625)"/>
       <path id="DejaVuSans-61" d="M 2194 1759 
Q 1497 1759 1228 1600 
Q 959 1441 959 1056 
Q 959 750 1161 570 
Q 1363 391 1709 391 
Q 2188 391 2477 730 
Q 2766 1069 2766 1631 
L 2766 1759 
L 2194 1759 
z
M 3341 1997 
L 3341 0 
L 2766 0 
L 2766 531 
Q 2569 213 2275 61 
Q 1981 -91 1556 -91 
Q 1019 -91 701 211 
Q 384 513 384 1019 
Q 384 1609 779 1909 
Q 1175 2209 1959 2209 
L 2766 2209 
L 2766 2266 
Q 2766 2663 2505 2880 
Q 2244 3097 1772 3097 
Q 1472 3097 1187 3025 
Q 903 2953 641 2809 
L 641 3341 
Q 956 3463 1253 3523 
Q 1550 3584 1831 3584 
Q 2591 3584 2966 3190 
Q 3341 2797 3341 1997 
z
" transform="scale(0.015625)"/>
       <path id="DejaVuSans-72" d="M 2631 2963 
Q 2534 3019 2420 3045 
Q 2306 3072 2169 3072 
Q 1681 3072 1420 2755 
Q 1159 2438 1159 1844 
L 1159 0 
L 581 0 
L 581 3500 
L 1159 3500 
L 1159 2956 
Q 1341 3275 1631 3429 
Q 1922 3584 2338 3584 
Q 2397 3584 2469 3576 
Q 2541 3569 2628 3553 
L 2631 2963 
z
" transform="scale(0.015625)"/>
       <path id="DejaVuSans-73" d="M 2834 3397 
L 2834 2853 
Q 2591 2978 2328 3040 
Q 2066 3103 1784 3103 
Q 1356 3103 1142 2972 
Q 928 2841 928 2578 
Q 928 2378 1081 2264 
Q 1234 2150 1697 2047 
L 1894 2003 
Q 2506 1872 2764 1633 
Q 3022 1394 3022 966 
Q 3022 478 2636 193 
Q 2250 -91 1575 -91 
Q 1294 -91 989 -36 
Q 684 19 347 128 
L 347 722 
Q 666 556 975 473 
Q 1284 391 1588 391 
Q 1994 391 2212 530 
Q 2431 669 2431 922 
Q 2431 1156 2273 1281 
Q 2116 1406 1581 1522 
L 1381 1569 
Q 847 1681 609 1914 
Q 372 2147 372 2553 
Q 372 3047 722 3315 
Q 1072 3584 1716 3584 
Q 2034 3584 2315 3537 
Q 2597 3491 2834 3397 
z
" transform="scale(0.015625)"/>
      </defs>
      <use xlink:href="#DejaVuSans-59"/>
      <use xlink:href="#DejaVuSans-65" x="47.833984"/>
      <use xlink:href="#DejaVuSans-61" x="109.357422"/>
      <use xlink:href="#DejaVuSans-72" x="170.636719"/>
      <use xlink:href="#DejaVuSans-73" x="211.75"/>
     </g>
    </g>
   </g>
   <g id="matplotlib.axis_2">
    <g id="ytick_1">
     <g id="line2d_7">
      <defs>
       <path id="m61509913ec" d="M 0 0 
L -3.5 0 
" style="stroke: #000000; stroke-width: 0.8"/>
      </defs>
      <g>
       <use xlink:href="#m61509913ec" x="57.6" y="293.747916" style="stroke: #000000; stroke-width: 0.8"/>
      </g>
     </g>
     <g id="text_8">
      <!-- 20 -->
      <g transform="translate(35.33 298.306978) scale(0.12 -0.12)">
       <use xlink:href="#DejaVuSans-32"/>
       <use xlink:href="#DejaVuSans-30" x="63.623047"/>
      </g>
     </g>
    </g>
    <g id="ytick_2">
     <g id="line2d_8">
      <g>
       <use xlink:href="#m61509913ec" x="57.6" y="235.745103" style="stroke: #000000; stroke-width: 0.8"/>
      </g>
     </g>
     <g id="text_9">
      <!-- 30 -->
      <g transform="translate(35.33 240.304165) scale(0.12 -0.12)">
       <defs>
        <path id="DejaVuSans-33" d="M 2597 2516 
Q 3050 2419 3304 2112 
Q 3559 1806 3559 1356 
Q 3559 666 3084 287 
Q 2609 -91 1734 -91 
Q 1441 -91 1130 -33 
Q 819 25 488 141 
L 488 750 
Q 750 597 1062 519 
Q 1375 441 1716 441 
Q 2309 441 2620 675 
Q 2931 909 2931 1356 
Q 2931 1769 2642 2001 
Q 2353 2234 1838 2234 
L 1294 2234 
L 1294 2753 
L 1863 2753 
Q 2328 2753 2575 2939 
Q 2822 3125 2822 3475 
Q 2822 3834 2567 4026 
Q 2313 4219 1838 4219 
Q 1578 4219 1281 4162 
Q 984 4106 628 3988 
L 628 4550 
Q 988 4650 1302 4700 
Q 1616 4750 1894 4750 
Q 2613 4750 3031 4423 
Q 3450 4097 3450 3541 
Q 3450 3153 3228 2886 
Q 3006 2619 2597 2516 
z
" transform="scale(0.015625)"/>
       </defs>
       <use xlink:href="#DejaVuSans-33"/>
       <use xlink:href="#DejaVuSans-30" x="63.623047"/>
      </g>
     </g>
    </g>
    <g id="ytick_3">
     <g id="line2d_9">
      <g>
       <use xlink:href="#m61509913ec" x="57.6" y="177.74229" style="stroke: #000000; stroke-width: 0.8"/>
      </g>
     </g>
     <g id="text_10">
      <!-- 40 -->
      <g transform="translate(35.33 182.301353) scale(0.12 -0.12)">
       <use xlink:href="#DejaVuSans-34"/>
       <use xlink:href="#DejaVuSans-30" x="63.623047"/>
      </g>
     </g>
    </g>
    <g id="ytick_4">
     <g id="line2d_10">
      <g>
       <use xlink:href="#m61509913ec" x="57.6" y="119.739477" style="stroke: #000000; stroke-width: 0.8"/>
      </g>
     </g>
     <g id="text_11">
      <!-- 50 -->
      <g transform="translate(35.33 124.29854) scale(0.12 -0.12)">
       <defs>
        <path id="DejaVuSans-35" d="M 691 4666 
L 3169 4666 
L 3169 4134 
L 1269 4134 
L 1269 2991 
Q 1406 3038 1543 3061 
Q 1681 3084 1819 3084 
Q 2600 3084 3056 2656 
Q 3513 2228 3513 1497 
Q 3513 744 3044 326 
Q 2575 -91 1722 -91 
Q 1428 -91 1123 -41 
Q 819 9 494 109 
L 494 744 
Q 775 591 1075 516 
Q 1375 441 1709 441 
Q 2250 441 2565 725 
Q 2881 1009 2881 1497 
Q 2881 1984 2565 2268 
Q 2250 2553 1709 2553 
Q 1456 2553 1204 2497 
Q 953 2441 691 2322 
L 691 4666 
z
" transform="scale(0.015625)"/>
       </defs>
       <use xlink:href="#DejaVuSans-35"/>
       <use xlink:href="#DejaVuSans-30" x="63.623047"/>
      </g>
     </g>
    </g>
    <g id="ytick_5">
     <g id="line2d_11">
      <g>
       <use xlink:href="#m61509913ec" x="57.6" y="61.736665" style="stroke: #000000; stroke-width: 0.8"/>
      </g>
     </g>
     <g id="text_12">
      <!-- 60 -->
      <g transform="translate(35.33 66.295727) scale(0.12 -0.12)">
       <use xlink:href="#DejaVuSans-36"/>
       <use xlink:href="#DejaVuSans-30" x="63.623047"/>
      </g>
     </g>
    </g>
    <g id="text_13">
     <!-- Total coral cover (%) -->
     <g transform="translate(28.210469 251.497922) rotate(-90) scale(0.15 -0.15)">
      <defs>
       <path id="DejaVuSans-54" d="M -19 4666 
L 3928 4666 
L 3928 4134 
L 2272 4134 
L 2272 0 
L 1638 0 
L 1638 4134 
L -19 4134 
L -19 4666 
z
" transform="scale(0.015625)"/>
       <path id="DejaVuSans-6f" d="M 1959 3097 
Q 1497 3097 1228 2736 
Q 959 2375 959 1747 
Q 959 1119 1226 758 
Q 1494 397 1959 397 
Q 2419 397 2687 759 
Q 2956 1122 2956 1747 
Q 2956 2369 2687 2733 
Q 2419 3097 1959 3097 
z
M 1959 3584 
Q 2709 3584 3137 3096 
Q 3566 2609 3566 1747 
Q 3566 888 3137 398 
Q 2709 -91 1959 -91 
Q 1206 -91 779 398 
Q 353 888 353 1747 
Q 353 2609 779 3096 
Q 1206 3584 1959 3584 
z
" transform="scale(0.015625)"/>
       <path id="DejaVuSans-74" d="M 1172 4494 
L 1172 3500 
L 2356 3500 
L 2356 3053 
L 1172 3053 
L 1172 1153 
Q 1172 725 1289 603 
Q 1406 481 1766 481 
L 2356 481 
L 2356 0 
L 1766 0 
Q 1100 0 847 248 
Q 594 497 594 1153 
L 594 3053 
L 172 3053 
L 172 3500 
L 594 3500 
L 594 4494 
L 1172 4494 
z
" transform="scale(0.015625)"/>
       <path id="DejaVuSans-6c" d="M 603 4863 
L 1178 4863 
L 1178 0 
L 603 0 
L 603 4863 
z
" transform="scale(0.015625)"/>
       <path id="DejaVuSans-20" transform="scale(0.015625)"/>
       <path id="DejaVuSans-63" d="M 3122 3366 
L 3122 2828 
Q 2878 2963 2633 3030 
Q 2388 3097 2138 3097 
Q 1578 3097 1268 2742 
Q 959 2388 959 1747 
Q 959 1106 1268 751 
Q 1578 397 2138 397 
Q 2388 397 2633 464 
Q 2878 531 3122 666 
L 3122 134 
Q 2881 22 2623 -34 
Q 2366 -91 2075 -91 
Q 1284 -91 818 406 
Q 353 903 353 1747 
Q 353 2603 823 3093 
Q 1294 3584 2113 3584 
Q 2378 3584 2631 3529 
Q 2884 3475 3122 3366 
z
" transform="scale(0.015625)"/>
       <path id="DejaVuSans-76" d="M 191 3500 
L 800 3500 
L 1894 563 
L 2988 3500 
L 3597 3500 
L 2284 0 
L 1503 0 
L 191 3500 
z
" transform="scale(0.015625)"/>
       <path id="DejaVuSans-28" d="M 1984 4856 
Q 1566 4138 1362 3434 
Q 1159 2731 1159 2009 
Q 1159 1288 1364 580 
Q 1569 -128 1984 -844 
L 1484 -844 
Q 1016 -109 783 600 
Q 550 1309 550 2009 
Q 550 2706 781 3412 
Q 1013 4119 1484 4856 
L 1984 4856 
z
" transform="scale(0.015625)"/>
       <path id="DejaVuSans-25" d="M 4653 2053 
Q 4381 2053 4226 1822 
Q 4072 1591 4072 1178 
Q 4072 772 4226 539 
Q 4381 306 4653 306 
Q 4919 306 5073 539 
Q 5228 772 5228 1178 
Q 5228 1588 5073 1820 
Q 4919 2053 4653 2053 
z
M 4653 2450 
Q 5147 2450 5437 2106 
Q 5728 1763 5728 1178 
Q 5728 594 5436 251 
Q 5144 -91 4653 -91 
Q 4153 -91 3862 251 
Q 3572 594 3572 1178 
Q 3572 1766 3864 2108 
Q 4156 2450 4653 2450 
z
M 1428 4353 
Q 1159 4353 1004 4120 
Q 850 3888 850 3481 
Q 850 3069 1003 2837 
Q 1156 2606 1428 2606 
Q 1700 2606 1854 2837 
Q 2009 3069 2009 3481 
Q 2009 3884 1853 4118 
Q 1697 4353 1428 4353 
z
M 4250 4750 
L 4750 4750 
L 1831 -91 
L 1331 -91 
L 4250 4750 
z
M 1428 4750 
Q 1922 4750 2215 4408 
Q 2509 4066 2509 3481 
Q 2509 2891 2217 2550 
Q 1925 2209 1428 2209 
Q 931 2209 642 2551 
Q 353 2894 353 3481 
Q 353 4063 643 4406 
Q 934 4750 1428 4750 
z
" transform="scale(0.015625)"/>
       <path id="DejaVuSans-29" d="M 513 4856 
L 1013 4856 
Q 1481 4119 1714 3412 
Q 1947 2706 1947 2009 
Q 1947 1309 1714 600 
Q 1481 -109 1013 -844 
L 513 -844 
Q 928 -128 1133 580 
Q 1338 1288 1338 2009 
Q 1338 2731 1133 3434 
Q 928 4138 513 4856 
z
" transform="scale(0.015625)"/>
      </defs>
      <use xlink:href="#DejaVuSans-54"/>
      <use xlink:href="#DejaVuSans-6f" x="44.083984"/>
      <use xlink:href="#DejaVuSans-74" x="105.265625"/>
      <use xlink:href="#DejaVuSans-61" x="144.474609"/>
      <use xlink:href="#DejaVuSans-6c" x="205.753906"/>
      <use xlink:href="#DejaVuSans-20" x="233.537109"/>
      <use xlink:href="#DejaVuSans-63" x="265.324219"/>
      <use xlink:href="#DejaVuSans-6f" x="320.304688"/>
      <use xlink:href="#DejaVuSans-72" x="381.486328"/>
      <use xlink:href="#DejaVuSans-61" x="422.599609"/>
      <use xlink:href="#DejaVuSans-6c" x="483.878906"/>
      <use xlink:href="#DejaVuSans-20" x="511.662109"/>
      <use xlink:href="#DejaVuSans-63" x="543.449219"/>
      <use xlink:href="#DejaVuSans-6f" x="598.429688"/>
      <use xlink:href="#DejaVuSans-76" x="659.611328"/>
      <use xlink:href="#DejaVuSans-65" x="718.791016"/>
      <use xlink:href="#DejaVuSans-72" x="780.314453"/>
      <use xlink:href="#DejaVuSans-20" x="821.427734"/>
      <use xlink:href="#DejaVuSans-28" x="853.214844"/>
      <use xlink:href="#DejaVuSans-25" x="892.228516"/>
      <use xlink:href="#DejaVuSans-29" x="987.248047"/>
     </g>
    </g>
   </g>
   <g id="line2d_12">
    <path d="M 73.832727 295.488 
L 103.346777 288.824177 
L 132.860826 277.385235 
L 162.374876 266.595985 
L 191.888926 247.220599 
L 221.402975 227.791202 
L 250.917025 202.520887 
L 280.431074 175.227565 
L 309.945124 147.560417 
L 339.459174 119.747318 
L 368.973223 92.287982 
L 398.487273 69.157393 
" clip-path="url(#p51e0e3e6cb)" style="fill: none; stroke-dasharray: 3.7,1.6; stroke-dashoffset: 0; stroke: #1f77b4"/>
   </g>
   <g id="line2d_13">
    <path d="M 73.832727 295.488 
L 103.346777 288.438494 
L 132.860826 280.132775 
L 162.374876 264.264042 
L 191.888926 243.944998 
L 221.402975 219.960974 
L 250.917025 196.790636 
L 280.431074 168.642845 
L 309.945124 141.141791 
L 339.459174 113.353245 
L 368.973223 86.326395 
L 398.487273 61.629585 
" clip-path="url(#p51e0e3e6cb)" style="fill: none; stroke-dasharray: 3.7,1.6; stroke-dashoffset: 0; stroke: #ff7f0e"/>
   </g>
   <g id="line2d_14">
    <path d="M 73.832727 295.488 
L 103.346777 284.278441 
L 132.860826 273.14773 
L 162.374876 256.968306 
L 191.888926 237.353805 
L 221.402975 217.916164 
L 250.917025 195.082691 
L 280.431074 170.086814 
L 309.945124 141.357916 
L 339.459174 115.257536 
L 368.973223 89.535478 
L 398.487273 67.774479 
" clip-path="url(#p51e0e3e6cb)" style="fill: none; stroke-dasharray: 3.7,1.6; stroke-dashoffset: 0; stroke: #2ca02c"/>
   </g>
   <g id="line2d_15">
    <path d="M 73.832727 295.488 
L 103.346777 285.905391 
L 132.860826 275.689625 
L 162.374876 263.412398 
L 191.888926 249.645943 
L 221.402975 232.525232 
L 250.917025 212.43586 
L 280.431074 187.778922 
L 309.945124 160.978217 
L 339.459174 133.986048 
L 368.973223 105.390969 
L 398.487273 76.565584 
" clip-path="url(#p51e0e3e6cb)" style="fill: none; stroke-dasharray: 3.7,1.6; stroke-dashoffset: 0; stroke: #d62728"/>
   </g>
   <g id="line2d_16">
    <path d="M 73.832727 295.488 
L 103.346777 289.989766 
L 132.860826 281.144607 
L 162.374876 270.052205 
L 191.888926 251.991424 
L 221.402975 233.214171 
L 250.917025 207.355131 
L 280.431074 179.591622 
L 309.945124 146.797254 
L 339.459174 117.735599 
L 368.973223 91.043995 
L 398.487273 68.023423 
" clip-path="url(#p51e0e3e6cb)" style="fill: none; stroke-dasharray: 3.7,1.6; stroke-dashoffset: 0; stroke: #9467bd"/>
   </g>
   <g id="line2d_17">
    <path d="M 73.832727 295.488 
L 103.346777 283.36443 
L 132.860826 273.022696 
L 162.374876 258.483803 
L 191.888926 241.937911 
L 221.402975 219.454205 
L 250.917025 195.760386 
L 280.431074 167.483636 
L 309.945124 137.947004 
L 339.459174 105.931035 
L 368.973223 82.229888 
L 398.487273 60.099638 
" clip-path="url(#p51e0e3e6cb)" style="fill: none; stroke-dasharray: 3.7,1.6; stroke-dashoffset: 0; stroke: #8c564b"/>
   </g>
   <g id="line2d_18">
    <path d="M 73.832727 295.488 
L 103.346777 288.75516 
L 132.860826 278.973502 
L 162.374876 267.551733 
L 191.888926 253.291043 
L 221.402975 230.89135 
L 250.917025 204.863165 
L 280.431074 173.506032 
L 309.945124 145.497007 
L 339.459174 116.682839 
L 368.973223 89.826721 
L 398.487273 64.552767 
" clip-path="url(#p51e0e3e6cb)" style="fill: none; stroke-dasharray: 3.7,1.6; stroke-dashoffset: 0; stroke: #e377c2"/>
   </g>
   <g id="line2d_19">
    <path d="M 73.832727 295.488 
L 103.346777 289.504944 
L 132.860826 281.589725 
L 162.374876 268.701754 
L 191.888926 248.790943 
L 221.402975 228.24533 
L 250.917025 203.753057 
L 280.431074 176.432554 
L 309.945124 146.954062 
L 339.459174 118.929119 
L 368.973223 90.906439 
L 398.487273 65.645468 
" clip-path="url(#p51e0e3e6cb)" style="fill: none; stroke-dasharray: 3.7,1.6; stroke-dashoffset: 0; stroke: #7f7f7f"/>
   </g>
   <g id="line2d_20">
    <path d="M 73.832727 295.488 
L 103.346777 288.146826 
L 132.860826 280.314417 
L 162.374876 269.185799 
L 191.888926 253.747581 
L 221.402975 235.768488 
L 250.917025 214.974998 
L 280.431074 187.732847 
L 309.945124 154.548168 
L 339.459174 127.224372 
L 368.973223 98.75396 
L 398.487273 70.391327 
" clip-path="url(#p51e0e3e6cb)" style="fill: none; stroke-dasharray: 3.7,1.6; stroke-dashoffset: 0; stroke: #bcbd22"/>
   </g>
   <g id="line2d_21">
    <path d="M 73.832727 295.488 
L 103.346777 289.693486 
L 132.860826 280.144663 
L 162.374876 266.166954 
L 191.888926 249.638716 
L 221.402975 228.102936 
L 250.917025 200.536653 
L 280.431074 173.012159 
L 309.945124 139.448373 
L 339.459174 107.89078 
L 368.973223 81.548613 
L 398.487273 56.877628 
" clip-path="url(#p51e0e3e6cb)" style="fill: none; stroke-dasharray: 3.7,1.6; stroke-dashoffset: 0; stroke: #17becf"/>
   </g>
   <g id="line2d_22">
    <path d="M 73.832727 295.488 
L 103.346777 289.416566 
L 132.860826 281.513184 
L 162.374876 270.098645 
L 191.888926 251.650349 
L 221.402975 229.379506 
L 250.917025 203.233421 
L 280.431074 173.04916 
L 309.945124 141.867439 
L 339.459174 113.381409 
L 368.973223 85.479521 
L 398.487273 62.237383 
" clip-path="url(#p51e0e3e6cb)" style="fill: none; stroke-dasharray: 3.7,1.6; stroke-dashoffset: 0; stroke: #1f77b4"/>
   </g>
   <g id="line2d_23">
    <path d="M 73.832727 295.488 
L 103.346777 285.800728 
L 132.860826 273.179471 
L 162.374876 261.209684 
L 191.888926 243.795431 
L 221.402975 223.802537 
L 250.917025 201.105258 
L 280.431074 175.452429 
L 309.945124 146.929855 
L 339.459174 120.27752 
L 368.973223 93.502818 
L 398.487273 69.53517 
" clip-path="url(#p51e0e3e6cb)" style="fill: none; stroke-dasharray: 3.7,1.6; stroke-dashoffset: 0; stroke: #ff7f0e"/>
   </g>
   <g id="line2d_24">
    <path d="M 73.832727 295.488 
L 103.346777 290.296296 
L 132.860826 280.199334 
L 162.374876 267.732308 
L 191.888926 250.300452 
L 221.402975 227.152517 
L 250.917025 204.33502 
L 280.431074 175.939991 
L 309.945124 148.164808 
L 339.459174 117.892449 
L 368.973223 89.999024 
L 398.487273 66.574166 
" clip-path="url(#p51e0e3e6cb)" style="fill: none; stroke-dasharray: 3.7,1.6; stroke-dashoffset: 0; stroke: #2ca02c"/>
   </g>
   <g id="line2d_25">
    <path d="M 73.832727 295.488 
L 103.346777 288.572256 
L 132.860826 279.429669 
L 162.374876 267.60583 
L 191.888926 248.559434 
L 221.402975 229.990769 
L 250.917025 206.284954 
L 280.431074 179.620814 
L 309.945124 153.462937 
L 339.459174 126.176928 
L 368.973223 98.844525 
L 398.487273 74.162049 
" clip-path="url(#p51e0e3e6cb)" style="fill: none; stroke-dasharray: 3.7,1.6; stroke-dashoffset: 0; stroke: #d62728"/>
   </g>
   <g id="line2d_26">
    <path d="M 73.832727 295.488 
L 103.346777 289.804584 
L 132.860826 282.088047 
L 162.374876 268.47539 
L 191.888926 250.866514 
L 221.402975 228.8769 
L 250.917025 200.538126 
L 280.431074 173.648929 
L 309.945124 142.687115 
L 339.459174 114.771738 
L 368.973223 89.401094 
L 398.487273 65.831262 
" clip-path="url(#p51e0e3e6cb)" style="fill: none; stroke-dasharray: 3.7,1.6; stroke-dashoffset: 0; stroke: #9467bd"/>
   </g>
   <g id="line2d_27">
    <path d="M 73.832727 295.488 
L 103.346777 285.016209 
L 132.860826 272.55528 
L 162.374876 257.310771 
L 191.888926 236.072773 
L 221.402975 214.055973 
L 250.917025 187.15866 
L 280.431074 160.525266 
L 309.945124 132.802569 
L 339.459174 107.015777 
L 368.973223 80.250368 
L 398.487273 59.464111 
" clip-path="url(#p51e0e3e6cb)" style="fill: none; stroke-dasharray: 3.7,1.6; stroke-dashoffset: 0; stroke: #8c564b"/>
   </g>
   <g id="line2d_28">
    <path d="M 73.832727 295.488 
L 103.346777 285.763714 
L 132.860826 276.540106 
L 162.374876 261.00612 
L 191.888926 245.332665 
L 221.402975 221.317963 
L 250.917025 199.802063 
L 280.431074 173.340564 
L 309.945124 144.051936 
L 339.459174 117.511012 
L 368.973223 93.04852 
L 398.487273 67.024388 
" clip-path="url(#p51e0e3e6cb)" style="fill: none; stroke-dasharray: 3.7,1.6; stroke-dashoffset: 0; stroke: #e377c2"/>
   </g>
   <g id="line2d_29">
    <path d="M 73.832727 295.488 
L 103.346777 287.245913 
L 132.860826 277.536554 
L 162.374876 265.491592 
L 191.888926 248.70935 
L 221.402975 228.891903 
L 250.917025 201.153699 
L 280.431074 170.55725 
L 309.945124 139.815092 
L 339.459174 110.253603 
L 368.973223 84.340596 
L 398.487273 60.275215 
" clip-path="url(#p51e0e3e6cb)" style="fill: none; stroke-dasharray: 3.7,1.6; stroke-dashoffset: 0; stroke: #7f7f7f"/>
   </g>
   <g id="line2d_30">
    <path d="M 73.832727 295.488 
L 103.346777 288.440202 
L 132.860826 277.276514 
L 162.374876 263.864301 
L 191.888926 245.523689 
L 221.402975 221.469143 
L 250.917025 195.912192 
L 280.431074 169.667294 
L 309.945124 139.054691 
L 339.459174 109.195776 
L 368.973223 83.874637 
L 398.487273 60.344621 
" clip-path="url(#p51e0e3e6cb)" style="fill: none; stroke-dasharray: 3.7,1.6; stroke-dashoffset: 0; stroke: #bcbd22"/>
   </g>
   <g id="line2d_31">
    <path d="M 73.832727 295.488 
L 103.346777 291.492009 
L 132.860826 284.380243 
L 162.374876 271.691814 
L 191.888926 253.996912 
L 221.402975 232.386139 
L 250.917025 208.945674 
L 280.431074 182.079677 
L 309.945124 150.395391 
L 339.459174 119.64257 
L 368.973223 91.613853 
L 398.487273 63.576953 
" clip-path="url(#p51e0e3e6cb)" style="fill: none; stroke-dasharray: 3.7,1.6; stroke-dashoffset: 0; stroke: #17becf"/>
   </g>
   <g id="line2d_32">
    <path d="M 73.832727 295.488 
L 103.346777 288.423688 
L 132.860826 278.574052 
L 162.374876 268.367023 
L 191.888926 254.334399 
L 221.402975 234.229499 
L 250.917025 211.536487 
L 280.431074 187.39174 
L 309.945124 160.987909 
L 339.459174 133.30904 
L 368.973223 107.07643 
L 398.487273 80.887226 
" clip-path="url(#p51e0e3e6cb)" style="fill: none; stroke-dasharray: 3.7,1.6; stroke-dashoffset: 0; stroke: #1f77b4"/>
   </g>
   <g id="line2d_33">
    <path d="M 73.832727 295.488 
L 103.346777 287.218978 
L 132.860826 277.535715 
L 162.374876 261.693323 
L 191.888926 243.331753 
L 221.402975 219.196553 
L 250.917025 194.654524 
L 280.431074 166.434992 
L 309.945124 139.816331 
L 339.459174 112.218338 
L 368.973223 85.825829 
L 398.487273 64.221671 
" clip-path="url(#p51e0e3e6cb)" style="fill: none; stroke-dasharray: 3.7,1.6; stroke-dashoffset: 0; stroke: #ff7f0e"/>
   </g>
   <g id="line2d_34">
    <path d="M 73.832727 295.488 
L 103.346777 286.377116 
L 132.860826 275.957231 
L 162.374876 264.322113 
L 191.888926 245.851147 
L 221.402975 223.827358 
L 250.917025 198.256533 
L 280.431074 172.137269 
L 309.945124 142.150057 
L 339.459174 113.687823 
L 368.973223 85.953475 
L 398.487273 61.826021 
" clip-path="url(#p51e0e3e6cb)" style="fill: none; stroke-dasharray: 3.7,1.6; stroke-dashoffset: 0; stroke: #2ca02c"/>
   </g>
   <g id="line2d_35">
    <path d="M 73.832727 295.488 
L 103.346777 291.748087 
L 132.860826 280.71472 
L 162.374876 270.960985 
L 191.888926 254.711703 
L 221.402975 236.448486 
L 250.917025 208.675785 
L 280.431074 181.163569 
L 309.945124 152.533235 
L 339.459174 123.488919 
L 368.973223 94.451478 
L 398.487273 66.742101 
" clip-path="url(#p51e0e3e6cb)" style="fill: none; stroke-dasharray: 3.7,1.6; stroke-dashoffset: 0; stroke: #d62728"/>
   </g>
   <g id="line2d_36">
    <path d="M 73.832727 295.488 
L 103.346777 288.7887 
L 132.860826 279.259172 
L 162.374876 266.310487 
L 191.888926 249.290942 
L 221.402975 228.986696 
L 250.917025 204.437925 
L 280.431074 176.562623 
L 309.945124 146.118489 
L 339.459174 117.294641 
L 368.973223 90.039288 
L 398.487273 65.707616 
" clip-path="url(#p51e0e3e6cb)" style="fill: none; stroke-dasharray: 3.7,1.6; stroke-dashoffset: 0; stroke: #9467bd"/>
   </g>
   <g id="line2d_37">
    <path d="M 73.832727 295.488 
L 103.346777 283.160855 
L 132.860826 272.89992 
L 162.374876 259.29535 
L 191.888926 241.538535 
L 221.402975 221.815616 
L 250.917025 196.746631 
L 280.431074 170.4059 
L 309.945124 140.845295 
L 339.459174 110.454181 
L 368.973223 80.973809 
L 398.487273 57.575762 
" clip-path="url(#p51e0e3e6cb)" style="fill: none; stroke-dasharray: 3.7,1.6; stroke-dashoffset: 0; stroke: #8c564b"/>
   </g>
   <g id="line2d_38">
    <path d="M 73.832727 295.488 
L 103.346777 289.394586 
L 132.860826 281.999955 
L 162.374876 269.043967 
L 191.888926 253.253132 
L 221.402975 234.545397 
L 250.917025 212.513756 
L 280.431074 184.765982 
L 309.945124 153.225297 
L 339.459174 126.077765 
L 368.973223 98.015701 
L 398.487273 73.311585 
" clip-path="url(#p51e0e3e6cb)" style="fill: none; stroke-dasharray: 3.7,1.6; stroke-dashoffset: 0; stroke: #e377c2"/>
   </g>
   <g id="line2d_39">
    <path d="M 73.832727 295.488 
L 103.346777 284.709565 
L 132.860826 275.315017 
L 162.374876 260.221928 
L 191.888926 243.035301 
L 221.402975 223.860558 
L 250.917025 199.585412 
L 280.431074 174.411558 
L 309.945124 146.788176 
L 339.459174 118.158055 
L 368.973223 92.480277 
L 398.487273 67.261423 
" clip-path="url(#p51e0e3e6cb)" style="fill: none; stroke-dasharray: 3.7,1.6; stroke-dashoffset: 0; stroke: #7f7f7f"/>
   </g>
   <g id="line2d_40">
    <path d="M 73.832727 295.488 
L 103.346777 284.619764 
L 132.860826 275.809682 
L 162.374876 263.594304 
L 191.888926 247.077942 
L 221.402975 226.069986 
L 250.917025 204.105423 
L 280.431074 180.071211 
L 309.945124 154.302577 
L 339.459174 126.92816 
L 368.973223 100.082861 
L 398.487273 75.578764 
" clip-path="url(#p51e0e3e6cb)" style="fill: none; stroke-dasharray: 3.7,1.6; stroke-dashoffset: 0; stroke: #bcbd22"/>
   </g>
   <g id="line2d_41">
    <path d="M 73.832727 295.488 
L 103.346777 285.818779 
L 132.860826 274.199843 
L 162.374876 261.545628 
L 191.888926 245.601919 
L 221.402975 224.026996 
L 250.917025 199.528899 
L 280.431074 171.658938 
L 309.945124 143.485741 
L 339.459174 111.206018 
L 368.973223 82.662269 
L 398.487273 59.269823 
" clip-path="url(#p51e0e3e6cb)" style="fill: none; stroke-dasharray: 3.7,1.6; stroke-dashoffset: 0; stroke: #17becf"/>
   </g>
   <g id="line2d_42">
    <path d="M 73.832727 295.488 
L 103.346777 280.642786 
L 132.860826 268.74424 
L 162.374876 253.18823 
L 191.888926 236.262616 
L 221.402975 215.851404 
L 250.917025 189.672883 
L 280.431074 159.453036 
L 309.945124 129.761399 
L 339.459174 104.188961 
L 368.973223 78.299441 
L 398.487273 57.442828 
" clip-path="url(#p51e0e3e6cb)" style="fill: none; stroke-dasharray: 3.7,1.6; stroke-dashoffset: 0; stroke: #1f77b4"/>
   </g>
   <g id="line2d_43">
    <path d="M 73.832727 295.488 
L 103.346777 284.024242 
L 132.860826 276.207626 
L 162.374876 263.212879 
L 191.888926 247.466855 
L 221.402975 230.070966 
L 250.917025 208.999717 
L 280.431074 184.468031 
L 309.945124 156.459672 
L 339.459174 128.622123 
L 368.973223 102.059441 
L 398.487273 76.996888 
" clip-path="url(#p51e0e3e6cb)" style="fill: none; stroke-dasharray: 3.7,1.6; stroke-dashoffset: 0; stroke: #ff7f0e"/>
   </g>
   <g id="line2d_44">
    <path d="M 73.832727 295.488 
L 103.346777 287.956633 
L 132.860826 280.456541 
L 162.374876 268.852711 
L 191.888926 251.091643 
L 221.402975 232.37625 
L 250.917025 210.068279 
L 280.431074 182.176095 
L 309.945124 155.283267 
L 339.459174 126.131566 
L 368.973223 99.338856 
L 398.487273 74.201947 
" clip-path="url(#p51e0e3e6cb)" style="fill: none; stroke-dasharray: 3.7,1.6; stroke-dashoffset: 0; stroke: #2ca02c"/>
   </g>
   <g id="line2d_45">
    <path d="M 73.832727 295.488 
L 103.346777 288.23583 
L 132.860826 279.935462 
L 162.374876 266.676514 
L 191.888926 251.487473 
L 221.402975 228.763058 
L 250.917025 206.154678 
L 280.431074 176.900484 
L 309.945124 145.034198 
L 339.459174 115.471423 
L 368.973223 90.827037 
L 398.487273 69.382244 
" clip-path="url(#p51e0e3e6cb)" style="fill: none; stroke-dasharray: 3.7,1.6; stroke-dashoffset: 0; stroke: #d62728"/>
   </g>
   <g id="line2d_46">
    <path d="M 73.832727 295.488 
L 103.346777 287.599194 
L 132.860826 278.687086 
L 162.374876 263.237401 
L 191.888926 243.103606 
L 221.402975 222.787447 
L 250.917025 197.822281 
L 280.431074 171.493006 
L 309.945124 141.396621 
L 339.459174 110.29508 
L 368.973223 85.578249 
L 398.487273 63.272215 
" clip-path="url(#p51e0e3e6cb)" style="fill: none; stroke-dasharray: 3.7,1.6; stroke-dashoffset: 0; stroke: #9467bd"/>
   </g>
   <g id="line2d_47">
    <path d="M 73.832727 295.488 
L 103.346777 288.904923 
L 132.860826 282.177038 
L 162.374876 271.096729 
L 191.888926 254.308243 
L 221.402975 236.750307 
L 250.917025 216.161052 
L 280.431074 188.587217 
L 309.945124 159.01436 
L 339.459174 126.404965 
L 368.973223 97.737124 
L 398.487273 71.525731 
" clip-path="url(#p51e0e3e6cb)" style="fill: none; stroke-dasharray: 3.7,1.6; stroke-dashoffset: 0; stroke: #8c564b"/>
   </g>
   <g id="line2d_48">
    <path d="M 73.832727 295.488 
L 103.346777 287.148709 
L 132.860826 278.356204 
L 162.374876 265.630703 
L 191.888926 251.928521 
L 221.402975 232.92046 
L 250.917025 211.443718 
L 280.431074 185.65438 
L 309.945124 159.043247 
L 339.459174 132.391554 
L 368.973223 105.043704 
L 398.487273 79.765187 
" clip-path="url(#p51e0e3e6cb)" style="fill: none; stroke-dasharray: 3.7,1.6; stroke-dashoffset: 0; stroke: #e377c2"/>
   </g>
   <g id="line2d_49">
    <path d="M 73.832727 295.488 
L 103.346777 284.703358 
L 132.860826 273.658857 
L 162.374876 262.426543 
L 191.888926 246.53562 
L 221.402975 226.426623 
L 250.917025 200.108331 
L 280.431074 175.712227 
L 309.945124 147.708325 
L 339.459174 120.137965 
L 368.973223 93.601696 
L 398.487273 67.960636 
" clip-path="url(#p51e0e3e6cb)" style="fill: none; stroke-dasharray: 3.7,1.6; stroke-dashoffset: 0; stroke: #7f7f7f"/>
   </g>
   <g id="line2d_50">
    <path d="M 73.832727 295.488 
L 103.346777 283.161652 
L 132.860826 272.170294 
L 162.374876 258.387656 
L 191.888926 238.452265 
L 221.402975 218.545594 
L 250.917025 194.699947 
L 280.431074 170.378041 
L 309.945124 141.454019 
L 339.459174 115.247524 
L 368.973223 89.434164 
L 398.487273 62.896909 
" clip-path="url(#p51e0e3e6cb)" style="fill: none; stroke-dasharray: 3.7,1.6; stroke-dashoffset: 0; stroke: #bcbd22"/>
   </g>
   <g id="line2d_51">
    <path d="M 73.832727 295.488 
L 103.346777 282.76982 
L 132.860826 273.366502 
L 162.374876 255.343219 
L 191.888926 235.759437 
L 221.402975 214.308036 
L 250.917025 190.26065 
L 280.431074 161.137085 
L 309.945124 130.912071 
L 339.459174 108.49831 
L 368.973223 86.836117 
L 398.487273 67.741632 
" clip-path="url(#p51e0e3e6cb)" style="fill: none; stroke-dasharray: 3.7,1.6; stroke-dashoffset: 0; stroke: #17becf"/>
   </g>
   <g id="line2d_52">
    <path d="M 73.832727 295.488 
L 103.346777 285.077595 
L 132.860826 276.886531 
L 162.374876 263.96602 
L 191.888926 248.896042 
L 221.402975 230.578391 
L 250.917025 208.310734 
L 280.431074 179.156787 
L 309.945124 151.252654 
L 339.459174 120.963392 
L 368.973223 92.263128 
L 398.487273 67.79037 
" clip-path="url(#p51e0e3e6cb)" style="fill: none; stroke-dasharray: 3.7,1.6; stroke-dashoffset: 0; stroke: #1f77b4"/>
   </g>
   <g id="line2d_53">
    <path d="M 73.832727 295.488 
L 103.346777 286.557971 
L 132.860826 277.619616 
L 162.374876 264.486759 
L 191.888926 245.981574 
L 221.402975 225.711514 
L 250.917025 202.170175 
L 280.431074 174.093139 
L 309.945124 145.079327 
L 339.459174 117.015832 
L 368.973223 89.254338 
L 398.487273 61.9557 
" clip-path="url(#p51e0e3e6cb)" style="fill: none; stroke-dasharray: 3.7,1.6; stroke-dashoffset: 0; stroke: #ff7f0e"/>
   </g>
   <g id="line2d_54">
    <path d="M 73.832727 295.488 
L 103.346777 287.350235 
L 132.860826 279.377443 
L 162.374876 268.987797 
L 191.888926 254.879878 
L 221.402975 236.484172 
L 250.917025 212.428086 
L 280.431074 185.287614 
L 309.945124 155.135533 
L 339.459174 126.419155 
L 368.973223 97.939413 
L 398.487273 71.958175 
" clip-path="url(#p51e0e3e6cb)" style="fill: none; stroke-dasharray: 3.7,1.6; stroke-dashoffset: 0; stroke: #2ca02c"/>
   </g>
   <g id="line2d_55">
    <path d="M 73.832727 295.488 
L 103.346777 287.875772 
L 132.860826 279.736243 
L 162.374876 268.885971 
L 191.888926 253.892044 
L 221.402975 235.354659 
L 250.917025 214.631154 
L 280.431074 186.241762 
L 309.945124 154.097336 
L 339.459174 125.775235 
L 368.973223 96.984778 
L 398.487273 72.115279 
" clip-path="url(#p51e0e3e6cb)" style="fill: none; stroke-dasharray: 3.7,1.6; stroke-dashoffset: 0; stroke: #d62728"/>
   </g>
   <g id="line2d_56">
    <path d="M 73.832727 295.488 
L 103.346777 288.312534 
L 132.860826 279.540569 
L 162.374876 264.38221 
L 191.888926 248.724539 
L 221.402975 228.104791 
L 250.917025 204.663927 
L 280.431074 174.974782 
L 309.945124 147.391785 
L 339.459174 116.68535 
L 368.973223 88.589788 
L 398.487273 62.894116 
" clip-path="url(#p51e0e3e6cb)" style="fill: none; stroke-dasharray: 3.7,1.6; stroke-dashoffset: 0; stroke: #9467bd"/>
   </g>
   <g id="line2d_57">
    <path d="M 73.832727 295.488 
L 103.346777 288.340322 
L 132.860826 280.352918 
L 162.374876 266.136858 
L 191.888926 247.152007 
L 221.402975 227.880446 
L 250.917025 204.416269 
L 280.431074 178.479713 
L 309.945124 152.055652 
L 339.459174 121.885431 
L 368.973223 93.906444 
L 398.487273 66.491227 
" clip-path="url(#p51e0e3e6cb)" style="fill: none; stroke-dasharray: 3.7,1.6; stroke-dashoffset: 0; stroke: #8c564b"/>
   </g>
   <g id="line2d_58">
    <path d="M 73.832727 295.488 
L 103.346777 290.532045 
L 132.860826 284.500705 
L 162.374876 273.822887 
L 191.888926 260.659045 
L 221.402975 239.899216 
L 250.917025 215.95029 
L 280.431074 185.683109 
L 309.945124 156.406978 
L 339.459174 128.314589 
L 368.973223 99.418734 
L 398.487273 73.537318 
" clip-path="url(#p51e0e3e6cb)" style="fill: none; stroke-dasharray: 3.7,1.6; stroke-dashoffset: 0; stroke: #e377c2"/>
   </g>
   <g id="line2d_59">
    <path d="M 73.832727 295.488 
L 103.346777 287.419365 
L 132.860826 279.832332 
L 162.374876 267.528493 
L 191.888926 252.034175 
L 221.402975 232.018704 
L 250.917025 208.384499 
L 280.431074 177.325539 
L 309.945124 142.824255 
L 339.459174 112.195136 
L 368.973223 79.324501 
L 398.487273 53.70134 
" clip-path="url(#p51e0e3e6cb)" style="fill: none; stroke-dasharray: 3.7,1.6; stroke-dashoffset: 0; stroke: #7f7f7f"/>
   </g>
   <g id="line2d_60">
    <path d="M 73.832727 295.488 
L 103.346777 283.735991 
L 132.860826 272.041464 
L 162.374876 260.65864 
L 191.888926 245.383573 
L 221.402975 227.23145 
L 250.917025 202.419802 
L 280.431074 177.829793 
L 309.945124 150.371673 
L 339.459174 124.266643 
L 368.973223 99.88285 
L 398.487273 75.92679 
" clip-path="url(#p51e0e3e6cb)" style="fill: none; stroke-dasharray: 3.7,1.6; stroke-dashoffset: 0; stroke: #bcbd22"/>
   </g>
   <g id="line2d_61">
    <path d="M 73.832727 295.488 
L 103.346777 282.58162 
L 132.860826 273.649956 
L 162.374876 259.943622 
L 191.888926 239.525755 
L 221.402975 216.862759 
L 250.917025 192.13524 
L 280.431074 166.330199 
L 309.945124 138.910911 
L 339.459174 109.618765 
L 368.973223 82.560767 
L 398.487273 62.334485 
" clip-path="url(#p51e0e3e6cb)" style="fill: none; stroke-dasharray: 3.7,1.6; stroke-dashoffset: 0; stroke: #17becf"/>
   </g>
   <g id="line2d_62">
    <path d="M 73.832727 295.488 
L 103.346777 286.820199 
L 132.860826 277.207253 
L 162.374876 266.223815 
L 191.888926 248.263697 
L 221.402975 228.416916 
L 250.917025 206.111464 
L 280.431074 181.173307 
L 309.945124 154.984557 
L 339.459174 126.359096 
L 368.973223 98.479118 
L 398.487273 72.419038 
" clip-path="url(#p51e0e3e6cb)" style="fill: none; stroke-dasharray: 3.7,1.6; stroke-dashoffset: 0; stroke: #1f77b4"/>
   </g>
   <g id="line2d_63">
    <path d="M 73.832727 295.488 
L 103.346777 284.977999 
L 132.860826 275.769284 
L 162.374876 263.898177 
L 191.888926 249.314771 
L 221.402975 230.051532 
L 250.917025 203.417241 
L 280.431074 176.189815 
L 309.945124 146.944236 
L 339.459174 117.192971 
L 368.973223 90.006832 
L 398.487273 64.867867 
" clip-path="url(#p51e0e3e6cb)" style="fill: none; stroke-dasharray: 3.7,1.6; stroke-dashoffset: 0; stroke: #ff7f0e"/>
   </g>
   <g id="line2d_64">
    <path d="M 73.832727 295.488 
L 103.346777 281.323781 
L 132.860826 270.767506 
L 162.374876 256.384119 
L 191.888926 241.382944 
L 221.402975 218.760502 
L 250.917025 197.530554 
L 280.431074 173.220936 
L 309.945124 147.728873 
L 339.459174 121.591705 
L 368.973223 98.244297 
L 398.487273 75.728179 
" clip-path="url(#p51e0e3e6cb)" style="fill: none; stroke-dasharray: 3.7,1.6; stroke-dashoffset: 0; stroke: #2ca02c"/>
   </g>
   <g id="line2d_65">
    <path d="M 73.832727 295.488 
L 103.346777 284.889223 
L 132.860826 273.32028 
L 162.374876 259.113454 
L 191.888926 238.606989 
L 221.402975 216.307827 
L 250.917025 189.2417 
L 280.431074 158.855764 
L 309.945124 129.72489 
L 339.459174 100.993069 
L 368.973223 76.937079 
L 398.487273 54.324589 
" clip-path="url(#p51e0e3e6cb)" style="fill: none; stroke-dasharray: 3.7,1.6; stroke-dashoffset: 0; stroke: #d62728"/>
   </g>
   <g id="line2d_66">
    <path d="M 73.832727 295.488 
L 103.346777 284.036257 
L 132.860826 272.684429 
L 162.374876 257.172954 
L 191.888926 234.832139 
L 221.402975 211.625105 
L 250.917025 186.358474 
L 280.431074 158.072568 
L 309.945124 128.292986 
L 339.459174 102.521048 
L 368.973223 76.30725 
L 398.487273 54.506733 
" clip-path="url(#p51e0e3e6cb)" style="fill: none; stroke-dasharray: 3.7,1.6; stroke-dashoffset: 0; stroke: #9467bd"/>
   </g>
   <g id="line2d_67">
    <path d="M 73.832727 295.488 
L 103.346777 288.53957 
L 132.860826 280.062336 
L 162.374876 266.344474 
L 191.888926 250.180441 
L 221.402975 229.736713 
L 250.917025 204.893778 
L 280.431074 176.805625 
L 309.945124 148.438796 
L 339.459174 119.911064 
L 368.973223 93.410479 
L 398.487273 68.363832 
" clip-path="url(#p51e0e3e6cb)" style="fill: none; stroke-dasharray: 3.7,1.6; stroke-dashoffset: 0; stroke: #8c564b"/>
   </g>
   <g id="line2d_68">
    <path d="M 73.832727 295.488 
L 103.346777 290.573102 
L 132.860826 282.309985 
L 162.374876 267.532477 
L 191.888926 252.294699 
L 221.402975 235.14368 
L 250.917025 213.461608 
L 280.431074 189.911822 
L 309.945124 162.755996 
L 339.459174 134.610892 
L 368.973223 105.259668 
L 398.487273 77.568587 
" clip-path="url(#p51e0e3e6cb)" style="fill: none; stroke-dasharray: 3.7,1.6; stroke-dashoffset: 0; stroke: #e377c2"/>
   </g>
   <g id="line2d_69">
    <path d="M 73.832727 295.488 
L 103.346777 289.576295 
L 132.860826 283.467532 
L 162.374876 273.811106 
L 191.888926 260.829252 
L 221.402975 243.148494 
L 250.917025 221.78543 
L 280.431074 195.410518 
L 309.945124 167.246945 
L 339.459174 135.255407 
L 368.973223 106.012121 
L 398.487273 78.396209 
" clip-path="url(#p51e0e3e6cb)" style="fill: none; stroke-dasharray: 3.7,1.6; stroke-dashoffset: 0; stroke: #7f7f7f"/>
   </g>
   <g id="line2d_70">
    <path d="M 73.832727 295.488 
L 103.346777 289.583014 
L 132.860826 281.32734 
L 162.374876 268.348818 
L 191.888926 251.952413 
L 221.402975 229.502652 
L 250.917025 201.598972 
L 280.431074 170.292079 
L 309.945124 139.231518 
L 339.459174 107.003435 
L 368.973223 76.848803 
L 398.487273 53.568 
" clip-path="url(#p51e0e3e6cb)" style="fill: none; stroke-dasharray: 3.7,1.6; stroke-dashoffset: 0; stroke: #bcbd22"/>
   </g>
   <g id="line2d_71">
    <path d="M 73.832727 295.488 
L 103.346777 289.877757 
L 132.860826 282.713367 
L 162.374876 273.189681 
L 191.888926 258.619986 
L 221.402975 235.115149 
L 250.917025 209.314251 
L 280.431074 179.579808 
L 309.945124 150.320124 
L 339.459174 119.383588 
L 368.973223 91.354816 
L 398.487273 66.17388 
" clip-path="url(#p51e0e3e6cb)" style="fill: none; stroke-dasharray: 3.7,1.6; stroke-dashoffset: 0; stroke: #17becf"/>
   </g>
   <g id="line2d_72">
    <path d="M 73.832727 295.488 
L 103.346777 285.582006 
L 132.860826 275.282367 
L 162.374876 262.576587 
L 191.888926 246.763748 
L 221.402975 228.646038 
L 250.917025 205.105188 
L 280.431074 178.15643 
L 309.945124 151.488672 
L 339.459174 122.935207 
L 368.973223 94.563994 
L 398.487273 68.765984 
" clip-path="url(#p51e0e3e6cb)" style="fill: none; stroke-dasharray: 3.7,1.6; stroke-dashoffset: 0; stroke: #1f77b4"/>
   </g>
   <g id="line2d_73">
    <path d="M 73.832727 295.488 
L 103.346777 282.979773 
L 132.860826 273.721892 
L 162.374876 262.241701 
L 191.888926 245.655706 
L 221.402975 226.288054 
L 250.917025 204.203809 
L 280.431074 179.366374 
L 309.945124 153.511751 
L 339.459174 126.484435 
L 368.973223 99.370053 
L 398.487273 75.400572 
" clip-path="url(#p51e0e3e6cb)" style="fill: none; stroke-dasharray: 3.7,1.6; stroke-dashoffset: 0; stroke: #ff7f0e"/>
   </g>
   <g id="line2d_74">
    <path d="M 73.832727 295.488 
L 103.346777 287.836139 
L 132.860826 278.773795 
L 162.374876 265.926717 
L 191.888926 248.741467 
L 221.402975 230.189728 
L 250.917025 208.847813 
L 280.431074 182.07501 
L 309.945124 155.221616 
L 339.459174 128.18572 
L 368.973223 99.226105 
L 398.487273 74.745798 
" clip-path="url(#p51e0e3e6cb)" style="fill: none; stroke-dasharray: 3.7,1.6; stroke-dashoffset: 0; stroke: #2ca02c"/>
   </g>
   <g id="line2d_75">
    <path d="M 73.832727 295.488 
L 103.346777 291.028939 
L 132.860826 282.961398 
L 162.374876 270.347862 
L 191.888926 254.364511 
L 221.402975 233.700317 
L 250.917025 211.508899 
L 280.431074 185.930428 
L 309.945124 154.98145 
L 339.459174 124.741606 
L 368.973223 94.845465 
L 398.487273 68.106807 
" clip-path="url(#p51e0e3e6cb)" style="fill: none; stroke-dasharray: 3.7,1.6; stroke-dashoffset: 0; stroke: #d62728"/>
   </g>
   <g id="line2d_76">
    <path d="M 73.832727 295.488 
L 103.346777 285.765594 
L 132.860826 273.63641 
L 162.374876 261.319038 
L 191.888926 242.950061 
L 221.402975 221.834344 
L 250.917025 198.63356 
L 280.431074 170.856423 
L 309.945124 141.170137 
L 339.459174 114.514401 
L 368.973223 88.688806 
L 398.487273 63.010445 
" clip-path="url(#p51e0e3e6cb)" style="fill: none; stroke-dasharray: 3.7,1.6; stroke-dashoffset: 0; stroke: #9467bd"/>
   </g>
   <g id="line2d_77">
    <path d="M 73.832727 295.488 
L 103.346777 287.302174 
L 132.860826 276.421728 
L 162.374876 263.248723 
L 191.888926 246.897379 
L 221.402975 223.59986 
L 250.917025 197.463833 
L 280.431074 168.785402 
L 309.945124 140.761595 
L 339.459174 113.159513 
L 368.973223 86.237909 
L 398.487273 63.663393 
" clip-path="url(#p51e0e3e6cb)" style="fill: none; stroke-dasharray: 3.7,1.6; stroke-dashoffset: 0; stroke: #8c564b"/>
   </g>
   <g id="line2d_78">
    <path d="M 73.832727 295.488 
L 103.346777 284.698233 
L 132.860826 276.103244 
L 162.374876 263.582393 
L 191.888926 244.855947 
L 221.402975 225.876515 
L 250.917025 204.397892 
L 280.431074 178.778113 
L 309.945124 150.487509 
L 339.459174 124.110551 
L 368.973223 97.106397 
L 398.487273 74.141488 
" clip-path="url(#p51e0e3e6cb)" style="fill: none; stroke-dasharray: 3.7,1.6; stroke-dashoffset: 0; stroke: #e377c2"/>
   </g>
   <g id="line2d_79">
    <path d="M 73.832727 295.488 
L 103.346777 285.270407 
L 132.860826 275.000436 
L 162.374876 261.013568 
L 191.888926 244.774892 
L 221.402975 225.706594 
L 250.917025 203.291641 
L 280.431074 178.400433 
L 309.945124 152.711409 
L 339.459174 125.802359 
L 368.973223 97.999672 
L 398.487273 72.005615 
" clip-path="url(#p51e0e3e6cb)" style="fill: none; stroke-dasharray: 3.7,1.6; stroke-dashoffset: 0; stroke: #7f7f7f"/>
   </g>
   <g id="line2d_80">
    <path d="M 73.832727 295.488 
L 103.346777 289.040564 
L 132.860826 281.488622 
L 162.374876 270.690448 
L 191.888926 252.88307 
L 221.402975 230.73473 
L 250.917025 203.218048 
L 280.431074 175.347485 
L 309.945124 146.326154 
L 339.459174 113.857335 
L 368.973223 85.427114 
L 398.487273 60.359269 
" clip-path="url(#p51e0e3e6cb)" style="fill: none; stroke-dasharray: 3.7,1.6; stroke-dashoffset: 0; stroke: #bcbd22"/>
   </g>
   <g id="line2d_81">
    <path d="M 73.832727 295.488 
L 103.346777 285.805853 
L 132.860826 276.289016 
L 162.374876 262.93307 
L 191.888926 246.699627 
L 221.402975 227.079474 
L 250.917025 199.54029 
L 280.431074 172.535809 
L 309.945124 145.076576 
L 339.459174 116.654372 
L 368.973223 90.727615 
L 398.487273 68.254816 
" clip-path="url(#p51e0e3e6cb)" style="fill: none; stroke-dasharray: 3.7,1.6; stroke-dashoffset: 0; stroke: #17becf"/>
   </g>
   <g id="line2d_82">
    <path d="M 73.832727 295.488 
L 103.346777 288.422151 
L 132.860826 281.340911 
L 162.374876 269.735603 
L 191.888926 253.444012 
L 221.402975 235.908641 
L 250.917025 211.731192 
L 280.431074 184.682604 
L 309.945124 154.497496 
L 339.459174 124.644281 
L 368.973223 96.929988 
L 398.487273 71.366957 
" clip-path="url(#p51e0e3e6cb)" style="fill: none; stroke-dasharray: 3.7,1.6; stroke-dashoffset: 0; stroke: #1f77b4"/>
   </g>
   <g id="line2d_83">
    <path d="M 73.832727 295.488 
L 103.346777 283.906368 
L 132.860826 271.38213 
L 162.374876 259.049354 
L 191.888926 241.484444 
L 221.402975 222.536027 
L 250.917025 199.102867 
L 280.431074 174.963884 
L 309.945124 147.011202 
L 339.459174 120.499545 
L 368.973223 94.924553 
L 398.487273 71.771594 
" clip-path="url(#p51e0e3e6cb)" style="fill: none; stroke-dasharray: 3.7,1.6; stroke-dashoffset: 0; stroke: #ff7f0e"/>
   </g>
   <g id="line2d_84">
    <path d="M 73.832727 295.488 
L 103.346777 284.397682 
L 132.860826 273.307508 
L 162.374876 261.62929 
L 191.888926 244.682149 
L 221.402975 222.502032 
L 250.917025 197.831815 
L 280.431074 171.613 
L 309.945124 142.410641 
L 339.459174 114.783057 
L 368.973223 88.880195 
L 398.487273 63.994527 
" clip-path="url(#p51e0e3e6cb)" style="fill: none; stroke-dasharray: 3.7,1.6; stroke-dashoffset: 0; stroke: #2ca02c"/>
   </g>
   <g id="line2d_85">
    <path d="M 73.832727 295.488 
L 103.346777 289.193516 
L 132.860826 280.135374 
L 162.374876 269.12873 
L 191.888926 254.443209 
L 221.402975 236.223722 
L 250.917025 212.16664 
L 280.431074 187.489421 
L 309.945124 160.087403 
L 339.459174 128.822462 
L 368.973223 101.464834 
L 398.487273 76.777564 
" clip-path="url(#p51e0e3e6cb)" style="fill: none; stroke-dasharray: 3.7,1.6; stroke-dashoffset: 0; stroke: #d62728"/>
   </g>
   <g id="line2d_86">
    <path d="M 73.832727 295.488 
L 103.346777 285.714515 
L 132.860826 276.620595 
L 162.374876 264.804844 
L 191.888926 251.821079 
L 221.402975 233.404633 
L 250.917025 212.031566 
L 280.431074 187.118015 
L 309.945124 159.831862 
L 339.459174 132.209827 
L 368.973223 106.417749 
L 398.487273 82.401798 
" clip-path="url(#p51e0e3e6cb)" style="fill: none; stroke-dasharray: 3.7,1.6; stroke-dashoffset: 0; stroke: #9467bd"/>
   </g>
   <g id="line2d_87">
    <path d="M 73.832727 295.488 
L 103.346777 284.335385 
L 132.860826 275.347166 
L 162.374876 263.489436 
L 191.888926 247.824585 
L 221.402975 228.535067 
L 250.917025 206.189686 
L 280.431074 181.441631 
L 309.945124 149.838507 
L 339.459174 120.756199 
L 368.973223 92.57907 
L 398.487273 67.571443 
" clip-path="url(#p51e0e3e6cb)" style="fill: none; stroke-dasharray: 3.7,1.6; stroke-dashoffset: 0; stroke: #8c564b"/>
   </g>
   <g id="line2d_88">
    <path d="M 73.832727 295.488 
L 103.346777 281.358972 
L 132.860826 267.924609 
L 162.374876 253.236106 
L 191.888926 232.620088 
L 221.402975 214.150082 
L 250.917025 189.873638 
L 280.431074 165.941589 
L 309.945124 140.55415 
L 339.459174 113.660776 
L 368.973223 89.534873 
L 398.487273 67.853018 
" clip-path="url(#p51e0e3e6cb)" style="fill: none; stroke-dasharray: 3.7,1.6; stroke-dashoffset: 0; stroke: #e377c2"/>
   </g>
   <g id="line2d_89">
    <path d="M 73.832727 295.488 
L 103.346777 290.049899 
L 132.860826 280.365635 
L 162.374876 268.830591 
L 191.888926 253.993702 
L 221.402975 236.504623 
L 250.917025 214.568971 
L 280.431074 189.002456 
L 309.945124 160.13087 
L 339.459174 129.483435 
L 368.973223 100.666365 
L 398.487273 74.096601 
" clip-path="url(#p51e0e3e6cb)" style="fill: none; stroke-dasharray: 3.7,1.6; stroke-dashoffset: 0; stroke: #7f7f7f"/>
   </g>
   <g id="line2d_90">
    <path d="M 73.832727 295.488 
L 103.346777 288.570433 
L 132.860826 280.497714 
L 162.374876 269.414429 
L 191.888926 253.100414 
L 221.402975 233.382665 
L 250.917025 206.596342 
L 280.431074 175.694912 
L 309.945124 147.608576 
L 339.459174 116.82258 
L 368.973223 86.595715 
L 398.487273 59.287501 
" clip-path="url(#p51e0e3e6cb)" style="fill: none; stroke-dasharray: 3.7,1.6; stroke-dashoffset: 0; stroke: #bcbd22"/>
   </g>
   <g id="line2d_91">
    <path d="M 73.832727 295.488 
L 103.346777 286.591056 
L 132.860826 273.598545 
L 162.374876 257.366881 
L 191.888926 237.401311 
L 221.402975 212.818945 
L 250.917025 186.323842 
L 280.431074 162.306233 
L 309.945124 135.016216 
L 339.459174 108.126282 
L 368.973223 86.695246 
L 398.487273 65.119893 
" clip-path="url(#p51e0e3e6cb)" style="fill: none; stroke-dasharray: 3.7,1.6; stroke-dashoffset: 0; stroke: #17becf"/>
   </g>
   <g id="line2d_92">
    <path d="M 73.832727 295.488 
L 103.346777 287.016884 
L 132.860826 277.014161 
L 162.374876 263.89468 
L 191.888926 243.656995 
L 221.402975 223.302534 
L 250.917025 197.620816 
L 280.431074 171.276693 
L 309.945124 144.01148 
L 339.459174 117.9254 
L 368.973223 92.265054 
L 398.487273 68.390571 
" clip-path="url(#p51e0e3e6cb)" style="fill: none; stroke-dasharray: 3.7,1.6; stroke-dashoffset: 0; stroke: #1f77b4"/>
   </g>
   <g id="line2d_93">
    <path d="M 73.832727 295.488 
L 103.346777 289.893303 
L 132.860826 281.104743 
L 162.374876 269.830555 
L 191.888926 252.96466 
L 221.402975 232.640296 
L 250.917025 210.118818 
L 280.431074 183.062835 
L 309.945124 154.916893 
L 339.459174 123.050372 
L 368.973223 94.334052 
L 398.487273 68.060645 
" clip-path="url(#p51e0e3e6cb)" style="fill: none; stroke-dasharray: 3.7,1.6; stroke-dashoffset: 0; stroke: #ff7f0e"/>
   </g>
   <g id="line2d_94">
    <path d="M 73.832727 295.488 
L 103.346777 290.975184 
L 132.860826 282.907616 
L 162.374876 267.914084 
L 191.888926 249.685514 
L 221.402975 225.709649 
L 250.917025 200.286186 
L 280.431074 170.400781 
L 309.945124 140.615162 
L 339.459174 108.105445 
L 368.973223 81.27962 
L 398.487273 57.894646 
" clip-path="url(#p51e0e3e6cb)" style="fill: none; stroke-dasharray: 3.7,1.6; stroke-dashoffset: 0; stroke: #2ca02c"/>
   </g>
   <g id="line2d_95">
    <path d="M 73.832727 295.488 
L 103.346777 286.903736 
L 132.860826 277.637078 
L 162.374876 267.347734 
L 191.888926 250.288927 
L 221.402975 229.166257 
L 250.917025 206.565041 
L 280.431074 177.880249 
L 309.945124 152.484442 
L 339.459174 125.330168 
L 368.973223 100.59056 
L 398.487273 75.442232 
" clip-path="url(#p51e0e3e6cb)" style="fill: none; stroke-dasharray: 3.7,1.6; stroke-dashoffset: 0; stroke: #d62728"/>
   </g>
   <g id="line2d_96">
    <path d="M 73.832727 295.488 
L 103.346777 286.22462 
L 132.860826 275.853449 
L 162.374876 262.338745 
L 191.888926 247.7264 
L 221.402975 228.311392 
L 250.917025 205.593676 
L 280.431074 181.41745 
L 309.945124 156.142288 
L 339.459174 128.719824 
L 368.973223 99.750695 
L 398.487273 75.580076 
" clip-path="url(#p51e0e3e6cb)" style="fill: none; stroke-dasharray: 3.7,1.6; stroke-dashoffset: 0; stroke: #9467bd"/>
   </g>
   <g id="line2d_97">
    <path d="M 73.832727 295.488 
L 103.346777 281.061895 
L 132.860826 272.19045 
L 162.374876 260.821389 
L 191.888926 245.997536 
L 221.402975 223.863737 
L 250.917025 201.982572 
L 280.431074 175.718133 
L 309.945124 148.903541 
L 339.459174 117.896859 
L 368.973223 93.166859 
L 398.487273 70.726659 
" clip-path="url(#p51e0e3e6cb)" style="fill: none; stroke-dasharray: 3.7,1.6; stroke-dashoffset: 0; stroke: #8c564b"/>
   </g>
   <g id="line2d_98">
    <path d="M 73.832727 295.488 
L 103.346777 287.684269 
L 132.860826 278.886173 
L 162.374876 267.010278 
L 191.888926 247.775961 
L 221.402975 229.127022 
L 250.917025 203.007981 
L 280.431074 176.25212 
L 309.945124 149.419856 
L 339.459174 120.523539 
L 368.973223 93.737049 
L 398.487273 67.828547 
" clip-path="url(#p51e0e3e6cb)" style="fill: none; stroke-dasharray: 3.7,1.6; stroke-dashoffset: 0; stroke: #e377c2"/>
   </g>
   <g id="line2d_99">
    <path d="M 73.832727 295.488 
L 103.346777 285.11364 
L 132.860826 274.316452 
L 162.374876 261.227244 
L 191.888926 245.030806 
L 221.402975 225.152571 
L 250.917025 203.15575 
L 280.431074 175.057709 
L 309.945124 148.622936 
L 339.459174 120.651271 
L 368.973223 94.456533 
L 398.487273 68.236169 
" clip-path="url(#p51e0e3e6cb)" style="fill: none; stroke-dasharray: 3.7,1.6; stroke-dashoffset: 0; stroke: #7f7f7f"/>
   </g>
   <g id="line2d_100">
    <path d="M 73.832727 295.488 
L 103.346777 285.755742 
L 132.860826 273.435516 
L 162.374876 257.791254 
L 191.888926 240.33883 
L 221.402975 215.880341 
L 250.917025 192.594213 
L 280.431074 162.897734 
L 309.945124 135.117609 
L 339.459174 109.186672 
L 368.973223 83.960197 
L 398.487273 63.487854 
" clip-path="url(#p51e0e3e6cb)" style="fill: none; stroke-dasharray: 3.7,1.6; stroke-dashoffset: 0; stroke: #bcbd22"/>
   </g>
   <g id="line2d_101">
    <path d="M 73.832727 295.488 
L 103.346777 290.378922 
L 132.860826 280.796974 
L 162.374876 268.068863 
L 191.888926 251.315531 
L 221.402975 232.556285 
L 250.917025 211.330342 
L 280.431074 185.636835 
L 309.945124 156.436616 
L 339.459174 128.29662 
L 368.973223 100.118331 
L 398.487273 74.319824 
" clip-path="url(#p51e0e3e6cb)" style="fill: none; stroke-dasharray: 3.7,1.6; stroke-dashoffset: 0; stroke: #17becf"/>
   </g>
   <g id="line2d_102">
    <path d="M 73.832727 295.488 
L 103.346777 288.804075 
L 132.860826 276.59173 
L 162.374876 263.18481 
L 191.888926 246.563554 
L 221.402975 228.683861 
L 250.917025 203.609855 
L 280.431074 174.168389 
L 309.945124 145.788071 
L 339.459174 115.480808 
L 368.973223 88.064757 
L 398.487273 64.097695 
" clip-path="url(#p51e0e3e6cb)" style="fill: none; stroke-dasharray: 3.7,1.6; stroke-dashoffset: 0; stroke: #1f77b4"/>
   </g>
   <g id="line2d_103">
    <path d="M 73.832727 295.488 
L 103.346777 283.974815 
L 132.860826 274.18289 
L 162.374876 260.088115 
L 191.888926 242.410355 
L 221.402975 222.150102 
L 250.917025 199.934622 
L 280.431074 174.672786 
L 309.945124 146.084668 
L 339.459174 118.81818 
L 368.973223 92.391404 
L 398.487273 68.67514 
" clip-path="url(#p51e0e3e6cb)" style="fill: none; stroke-dasharray: 3.7,1.6; stroke-dashoffset: 0; stroke: #ff7f0e"/>
   </g>
   <g id="line2d_104">
    <path d="M 73.832727 295.488 
L 103.346777 289.354042 
L 132.860826 280.098157 
L 162.374876 268.028145 
L 191.888926 252.11625 
L 221.402975 231.027768 
L 250.917025 207.372827 
L 280.431074 180.970575 
L 309.945124 153.378029 
L 339.459174 123.426751 
L 368.973223 95.22546 
L 398.487273 69.918314 
" clip-path="url(#p51e0e3e6cb)" style="fill: none; stroke-dasharray: 3.7,1.6; stroke-dashoffset: 0; stroke: #2ca02c"/>
   </g>
   <g id="line2d_105">
    <path d="M 73.832727 295.488 
L 103.346777 290.504769 
L 132.860826 283.774398 
L 162.374876 271.06962 
L 191.888926 258.123287 
L 221.402975 241.610239 
L 250.917025 219.948613 
L 280.431074 195.889655 
L 309.945124 169.235809 
L 339.459174 139.279706 
L 368.973223 106.756379 
L 398.487273 78.975065 
" clip-path="url(#p51e0e3e6cb)" style="fill: none; stroke-dasharray: 3.7,1.6; stroke-dashoffset: 0; stroke: #d62728"/>
   </g>
   <g id="line2d_106">
    <path d="M 73.832727 295.488 
L 103.346777 283.106758 
L 132.860826 272.102276 
L 162.374876 259.473658 
L 191.888926 241.168368 
L 221.402975 223.40983 
L 250.917025 203.156642 
L 280.431074 179.168892 
L 309.945124 150.206359 
L 339.459174 125.485885 
L 368.973223 101.70189 
L 398.487273 77.542542 
" clip-path="url(#p51e0e3e6cb)" style="fill: none; stroke-dasharray: 3.7,1.6; stroke-dashoffset: 0; stroke: #9467bd"/>
   </g>
   <g id="line2d_107">
    <path d="M 73.832727 295.488 
L 103.346777 284.897366 
L 132.860826 271.939209 
L 162.374876 254.484812 
L 191.888926 238.465664 
L 221.402975 215.147853 
L 250.917025 188.952525 
L 280.431074 160.779008 
L 309.945124 129.947794 
L 339.459174 104.597072 
L 368.973223 82.579474 
L 398.487273 62.724217 
" clip-path="url(#p51e0e3e6cb)" style="fill: none; stroke-dasharray: 3.7,1.6; stroke-dashoffset: 0; stroke: #8c564b"/>
   </g>
   <g id="line2d_108">
    <path d="M 73.832727 295.488 
L 103.346777 290.623269 
L 132.860826 282.473102 
L 162.374876 269.790286 
L 191.888926 255.180565 
L 221.402975 235.077671 
L 250.917025 209.989054 
L 280.431074 183.088547 
L 309.945124 152.409626 
L 339.459174 121.15674 
L 368.973223 89.16264 
L 398.487273 62.559616 
" clip-path="url(#p51e0e3e6cb)" style="fill: none; stroke-dasharray: 3.7,1.6; stroke-dashoffset: 0; stroke: #e377c2"/>
   </g>
   <g id="line2d_109">
    <path d="M 73.832727 295.488 
L 103.346777 281.671083 
L 132.860826 272.402019 
L 162.374876 257.953681 
L 191.888926 238.430141 
L 221.402975 218.231602 
L 250.917025 196.83411 
L 280.431074 168.69292 
L 309.945124 143.003244 
L 339.459174 114.815255 
L 368.973223 87.522727 
L 398.487273 64.245716 
" clip-path="url(#p51e0e3e6cb)" style="fill: none; stroke-dasharray: 3.7,1.6; stroke-dashoffset: 0; stroke: #7f7f7f"/>
   </g>
   <g id="line2d_110">
    <path d="M 73.832727 295.488 
L 103.346777 289.144886 
L 132.860826 280.521938 
L 162.374876 269.472114 
L 191.888926 255.732442 
L 221.402975 239.043313 
L 250.917025 215.413115 
L 280.431074 185.917595 
L 309.945124 154.859212 
L 339.459174 122.15361 
L 368.973223 94.490917 
L 398.487273 69.276845 
" clip-path="url(#p51e0e3e6cb)" style="fill: none; stroke-dasharray: 3.7,1.6; stroke-dashoffset: 0; stroke: #bcbd22"/>
   </g>
   <g id="line2d_111">
    <path d="M 73.832727 295.488 
L 103.346777 288.831522 
L 132.860826 280.677 
L 162.374876 266.736513 
L 191.888926 249.386951 
L 221.402975 225.89701 
L 250.917025 201.49074 
L 280.431074 174.751219 
L 309.945124 145.779142 
L 339.459174 115.811365 
L 368.973223 87.177684 
L 398.487273 62.68067 
" clip-path="url(#p51e0e3e6cb)" style="fill: none; stroke-dasharray: 3.7,1.6; stroke-dashoffset: 0; stroke: #17becf"/>
   </g>
   <g id="line2d_112">
    <path d="M 73.832727 295.488 
L 103.346777 286.919079 
L 132.860826 277.4454 
L 162.374876 264.571874 
L 191.888926 247.679597 
L 221.402975 227.365468 
L 250.917025 203.487841 
L 280.431074 176.474402 
L 309.945124 147.830639 
L 339.459174 119.219964 
L 368.973223 92.151218 
L 398.487273 67.672907 
" clip-path="url(#p51e0e3e6cb)" style="fill: none; stroke: #000000; stroke-width: 2.5; stroke-linecap: square"/>
   </g>
   <g id="patch_3">
    <path d="M 57.6 307.584 
L 57.6 41.472 
" style="fill: none; stroke: #000000; stroke-width: 0.8; stroke-linejoin: miter; stroke-linecap: square"/>
   </g>
   <g id="patch_4">
    <path d="M 414.72 307.584 
L 414.72 41.472 
" style="fill: none; stroke: #000000; stroke-width: 0.8; stroke-linejoin: miter; stroke-linecap: square"/>
   </g>
   <g id="patch_5">
    <path d="M 57.6 307.584 
L 414.72 307.584 
" style="fill: none; stroke: #000000; stroke-width: 0.8; stroke-linejoin: miter; stroke-linecap: square"/>
   </g>
   <g id="patch_6">
    <path d="M 57.6 41.472 
L 414.72 41.472 
" style="fill: none; stroke: #000000; stroke-width: 0.8; stroke-linejoin: miter; stroke-linecap: square"/>
   </g>
   <g id="legend_1">
    <g id="patch_7">
     <path d="M 64.6 64.150125 
L 137.665625 64.150125 
Q 139.665625 64.150125 139.665625 62.150125 
L 139.665625 48.472 
Q 139.665625 46.472 137.665625 46.472 
L 64.6 46.472 
Q 62.6 46.472 62.6 48.472 
L 62.6 62.150125 
Q 62.6 64.150125 64.6 64.150125 
z
" style="fill: #ffffff; opacity: 0.8; stroke: #cccccc; stroke-linejoin: miter"/>
    </g>
    <g id="line2d_113">
     <path d="M 66.6 54.570438 
L 76.6 54.570438 
L 86.6 54.570438 
" style="fill: none; stroke: #000000; stroke-width: 2.5; stroke-linecap: square"/>
    </g>
    <g id="text_14">
     <!-- Average -->
     <g transform="translate(94.6 58.070438) scale(0.1 -0.1)">
      <defs>
       <path id="DejaVuSans-41" d="M 2188 4044 
L 1331 1722 
L 3047 1722 
L 2188 4044 
z
M 1831 4666 
L 2547 4666 
L 4325 0 
L 3669 0 
L 3244 1197 
L 1141 1197 
L 716 0 
L 50 0 
L 1831 4666 
z
" transform="scale(0.015625)"/>
       <path id="DejaVuSans-67" d="M 2906 1791 
Q 2906 2416 2648 2759 
Q 2391 3103 1925 3103 
Q 1463 3103 1205 2759 
Q 947 2416 947 1791 
Q 947 1169 1205 825 
Q 1463 481 1925 481 
Q 2391 481 2648 825 
Q 2906 1169 2906 1791 
z
M 3481 434 
Q 3481 -459 3084 -895 
Q 2688 -1331 1869 -1331 
Q 1566 -1331 1297 -1286 
Q 1028 -1241 775 -1147 
L 775 -588 
Q 1028 -725 1275 -790 
Q 1522 -856 1778 -856 
Q 2344 -856 2625 -561 
Q 2906 -266 2906 331 
L 2906 616 
Q 2728 306 2450 153 
Q 2172 0 1784 0 
Q 1141 0 747 490 
Q 353 981 353 1791 
Q 353 2603 747 3093 
Q 1141 3584 1784 3584 
Q 2172 3584 2450 3431 
Q 2728 3278 2906 2969 
L 2906 3500 
L 3481 3500 
L 3481 434 
z
" transform="scale(0.015625)"/>
      </defs>
      <use xlink:href="#DejaVuSans-41"/>
      <use xlink:href="#DejaVuSans-76" x="62.533203"/>
      <use xlink:href="#DejaVuSans-65" x="121.712891"/>
      <use xlink:href="#DejaVuSans-72" x="183.236328"/>
      <use xlink:href="#DejaVuSans-61" x="224.349609"/>
      <use xlink:href="#DejaVuSans-67" x="285.628906"/>
      <use xlink:href="#DejaVuSans-65" x="349.105469"/>
     </g>
    </g>
   </g>
  </g>
 </g>
 <defs>
  <clipPath id="p51e0e3e6cb">
   <rect x="57.6" y="41.472" width="357.12" height="266.112"/>
  </clipPath>
 </defs>
</svg>
