<?xml version="1.0" encoding="utf-8" standalone="no"?>
<!DOCTYPE svg PUBLIC "-//W3C//DTD SVG 1.1//EN"
  "http://www.w3.org/Graphics/SVG/1.1/DTD/svg11.dtd">
<svg xmlns:xlink="http://www.w3.org/1999/xlink" width="648pt" height="360pt" viewBox="0 0 648 360" xmlns="http://www.w3.org/2000/svg" version="1.1">
 <metadata>
  <rdf:RDF xmlns:dc="http://purl.org/dc/elements/1.1/" xmlns:cc="http://creativecommons.org/ns#" xmlns:rdf="http://www.w3.org/1999/02/22-rdf-syntax-ns#">
   <cc:Work>
    <dc:type rdf:resource="http://purl.org/dc/dcmitype/StillImage"/>
    <dc:date>2026-02-17T16:18:52.295651</dc:date>
    <dc:format>image/svg+xml</dc:format>
    <dc:creator>
     <cc:Agent>
      <dc:title>Matplotlib v3.8.0, https://matplotlib.org/</dc:title>
     </cc:Agent>
    </dc:creator>
   </cc:Work>
  </rdf:RDF>
 </metadata>
 <defs>
  <style type="text/css">*{stroke-linejoin: round; stroke-linecap: butt}</style>
 </defs>
 <g id="figure_1">
  <g id="patch_1">
   <path d="M 0 360 
L 648 360 
L 648 0 
L 0 0 
z
" style="fill: #ffffff"/>
  </g>
  <g id="axes_1">
   <g id="patch_2">
    <path d="M 81 320.4 
L 583.2 320.4 
L 583.2 43.2 
L 81 43.2 
z
" style="fill: #ffffff"/>
   </g>
   <g id="matplotlib.axis_1">
    <g id="xtick_1">
     <g id="line2d_1">
      <defs>
       <path id="m7f02eead6d" d="M 0 0 
L 0 3.5 
" style="stroke: #000000; stroke-width: 0.8"/>
      </defs>
      <g>
       <use xlink:href="#m7f02eead6d" x="103.827273" y="320.4" style="stroke: #000000; stroke-width: 0.8"/>
      </g>
     </g>
     <g id="text_1">
      <!-- 2012 -->
      <g transform="translate(88.557273 336.518125) scale(0.12 -0.12)">
       <defs>
        <path id="DejaVuSans-32" d="M 1228 531 
L 3431 531 
L 3431 0 
L 469 0 
L 469 531 
Q 828 903 1448 1529 
Q 2069 2156 2228 2338 
Q 2531 2678 2651 2914 
Q 2772 3150 2772 3378 
Q 2772 3750 2511 3984 
Q 2250 4219 1831 4219 
Q 1534 4219 1204 4116 
Q 875 4013 500 3803 
L 500 4441 
Q 881 4594 1212 4672 
Q 1544 4750 1819 4750 
Q 2544 4750 2975 4387 
Q 3406 4025 3406 3419 
Q 3406 3131 3298 2873 
Q 3191 2616 2906 2266 
Q 2828 2175 2409 1742 
Q 1991 1309 1228 531 
z
" transform="scale(0.015625)"/>
        <path id="DejaVuSans-30" d="M 2034 4250 
Q 1547 4250 1301 3770 
Q 1056 3291 1056 2328 
Q 1056 1369 1301 889 
Q 1547 409 2034 409 
Q 2525 409 2770 889 
Q 3016 1369 3016 2328 
Q 3016 3291 2770 3770 
Q 2525 4250 2034 4250 
z
M 2034 4750 
Q 2819 4750 3233 4129 
Q 3647 3509 3647 2328 
Q 3647 1150 3233 529 
Q 2819 -91 2034 -91 
Q 1250 -91 836 529 
Q 422 1150 422 2328 
Q 422 3509 836 4129 
Q 1250 4750 2034 4750 
z
" transform="scale(0.015625)"/>
        <path id="DejaVuSans-31" d="M 794 531 
L 1825 531 
L 1825 4091 
L 703 3866 
L 703 4441 
L 1819 4666 
L 2450 4666 
L 2450 531 
L 3481 531 
L 3481 0 
L 794 0 
L 794 531 
z
" transform="scale(0.015625)"/>
       </defs>
       <use xlink:href="#DejaVuSans-32"/>
       <use xlink:href="#DejaVuSans-30" x="63.623047"/>
       <use xlink:href="#DejaVuSans-31" x="127.246094"/>
       <use xlink:href="#DejaVuSans-32" x="190.869141"/>
      </g>
     </g>
    </g>
    <g id="xtick_2">
     <g id="line2d_2">
      <g>
       <use xlink:href="#m7f02eead6d" x="179.918182" y="320.4" style="stroke: #000000; stroke-width: 0.8"/>
      </g>
     </g>
     <g id="text_2">
      <!-- 2014 -->
      <g transform="translate(164.648182 336.518125) scale(0.12 -0.12)">
       <defs>
        <path id="DejaVuSans-34" d="M 2419 4116 
L 825 1625 
L 2419 1625 
L 2419 4116 
z
M 2253 4666 
L 3047 4666 
L 3047 1625 
L 3713 1625 
L 3713 1100 
L 3047 1100 
L 3047 0 
L 2419 0 
L 2419 1100 
L 313 1100 
L 313 1709 
L 2253 4666 
z
" transform="scale(0.015625)"/>
       </defs>
       <use xlink:href="#DejaVuSans-32"/>
       <use xlink:href="#DejaVuSans-30" x="63.623047"/>
       <use xlink:href="#DejaVuSans-31" x="127.246094"/>
       <use xlink:href="#DejaVuSans-34" x="190.869141"/>
      </g>
     </g>
    </g>
    <g id="xtick_3">
     <g id="line2d_3">
      <g>
       <use xlink:href="#m7f02eead6d" x="256.009091" y="320.4" style="stroke: #000000; stroke-width: 0.8"/>
      </g>
     </g>
     <g id="text_3">
      <!-- 2016 -->
      <g transform="translate(240.739091 336.518125) scale(0.12 -0.12)">
       <defs>
        <path id="DejaVuSans-36" d="M 2113 2584 
Q 1688 2584 1439 2293 
Q 1191 2003 1191 1497 
Q 1191 994 1439 701 
Q 1688 409 2113 409 
Q 2538 409 2786 701 
Q 3034 994 3034 1497 
Q 3034 2003 2786 2293 
Q 2538 2584 2113 2584 
z
M 3366 4563 
L 3366 3988 
Q 3128 4100 2886 4159 
Q 2644 4219 2406 4219 
Q 1781 4219 1451 3797 
Q 1122 3375 1075 2522 
Q 1259 2794 1537 2939 
Q 1816 3084 2150 3084 
Q 2853 3084 3261 2657 
Q 3669 2231 3669 1497 
Q 3669 778 3244 343 
Q 2819 -91 2113 -91 
Q 1303 -91 875 529 
Q 447 1150 447 2328 
Q 447 3434 972 4092 
Q 1497 4750 2381 4750 
Q 2619 4750 2861 4703 
Q 3103 4656 3366 4563 
z
" transform="scale(0.015625)"/>
       </defs>
       <use xlink:href="#DejaVuSans-32"/>
       <use xlink:href="#DejaVuSans-30" x="63.623047"/>
       <use xlink:href="#DejaVuSans-31" x="127.246094"/>
       <use xlink:href="#DejaVuSans-36" x="190.869141"/>
      </g>
     </g>
    </g>
    <g id="xtick_4">
     <g id="line2d_4">
      <g>
       <use xlink:href="#m7f02eead6d" x="332.1" y="320.4" style="stroke: #000000; stroke-width: 0.8"/>
      </g>
     </g>
     <g id="text_4">
      <!-- 2018 -->
      <g transform="translate(316.83 336.518125) scale(0.12 -0.12)">
       <defs>
        <path id="DejaVuSans-38" d="M 2034 2216 
Q 1584 2216 1326 1975 
Q 1069 1734 1069 1313 
Q 1069 891 1326 650 
Q 1584 409 2034 409 
Q 2484 409 2743 651 
Q 3003 894 3003 1313 
Q 3003 1734 2745 1975 
Q 2488 2216 2034 2216 
z
M 1403 2484 
Q 997 2584 770 2862 
Q 544 3141 544 3541 
Q 544 4100 942 4425 
Q 1341 4750 2034 4750 
Q 2731 4750 3128 4425 
Q 3525 4100 3525 3541 
Q 3525 3141 3298 2862 
Q 3072 2584 2669 2484 
Q 3125 2378 3379 2068 
Q 3634 1759 3634 1313 
Q 3634 634 3220 271 
Q 2806 -91 2034 -91 
Q 1263 -91 848 271 
Q 434 634 434 1313 
Q 434 1759 690 2068 
Q 947 2378 1403 2484 
z
M 1172 3481 
Q 1172 3119 1398 2916 
Q 1625 2713 2034 2713 
Q 2441 2713 2670 2916 
Q 2900 3119 2900 3481 
Q 2900 3844 2670 4047 
Q 2441 4250 2034 4250 
Q 1625 4250 1398 4047 
Q 1172 3844 1172 3481 
z
" transform="scale(0.015625)"/>
       </defs>
       <use xlink:href="#DejaVuSans-32"/>
       <use xlink:href="#DejaVuSans-30" x="63.623047"/>
       <use xlink:href="#DejaVuSans-31" x="127.246094"/>
       <use xlink:href="#DejaVuSans-38" x="190.869141"/>
      </g>
     </g>
    </g>
    <g id="xtick_5">
     <g id="line2d_5">
      <g>
       <use xlink:href="#m7f02eead6d" x="408.190909" y="320.4" style="stroke: #000000; stroke-width: 0.8"/>
      </g>
     </g>
     <g id="text_5">
      <!-- 2020 -->
      <g transform="translate(392.920909 336.518125) scale(0.12 -0.12)">
       <use xlink:href="#DejaVuSans-32"/>
       <use xlink:href="#DejaVuSans-30" x="63.623047"/>
       <use xlink:href="#DejaVuSans-32" x="127.246094"/>
       <use xlink:href="#DejaVuSans-30" x="190.869141"/>
      </g>
     </g>
    </g>
    <g id="xtick_6">
     <g id="line2d_6">
      <g>
       <use xlink:href="#m7f02eead6d" x="484.281818" y="320.4" style="stroke: #000000; stroke-width: 0.8"/>
      </g>
     </g>
     <g id="text_6">
      <!-- 2022 -->
      <g transform="translate(469.011818 336.518125) scale(0.12 -0.12)">
       <use xlink:href="#DejaVuSans-32"/>
       <use xlink:href="#DejaVuSans-30" x="63.623047"/>
       <use xlink:href="#DejaVuSans-32" x="127.246094"/>
       <use xlink:href="#DejaVuSans-32" x="190.869141"/>
      </g>
     </g>
    </g>
    <g id="xtick_7">
     <g id="line2d_7">
      <g>
       <use xlink:href="#m7f02eead6d" x="560.372727" y="320.4" style="stroke: #000000; stroke-width: 0.8"/>
      </g>
     </g>
     <g id="text_7">
      <!-- 2024 -->
      <g transform="translate(545.102727 336.518125) scale(0.12 -0.12)">
       <use xlink:href="#DejaVuSans-32"/>
       <use xlink:href="#DejaVuSans-30" x="63.623047"/>
       <use xlink:href="#DejaVuSans-32" x="127.246094"/>
       <use xlink:href="#DejaVuSans-34" x="190.869141"/>
      </g>
     </g>
    </g>
    <g id="text_8">
     <!-- Year -->
     <g transform="translate(316.21875 354.411406) scale(0.15 -0.15)">
      <defs>
       <path id="DejaVuSans-59" d="M -13 4666 
L 666 4666 
L 1959 2747 
L 3244 4666 
L 3922 4666 
L 2272 2222 
L 2272 0 
L 1638 0 
L 1638 2222 
L -13 4666 
z
" transform="scale(0.015625)"/>
       <path id="DejaVuSans-65" d="M 3597 1894 
L 3597 1613 
L 953 1613 
Q 991 1019 1311 708 
Q 1631 397 2203 397 
Q 2534 397 2845 478 
Q 3156 559 3463 722 
L 3463 178 
Q 3153 47 2828 -22 
Q 2503 -91 2169 -91 
Q 1331 -91 842 396 
Q 353 884 353 1716 
Q 353 2575 817 3079 
Q 1281 3584 2069 3584 
Q 2775 3584 3186 3129 
Q 3597 2675 3597 1894 
z
M 3022 2063 
Q 3016 2534 2758 2815 
Q 2500 3097 2075 3097 
Q 1594 3097 1305 2825 
Q 1016 2553 972 2059 
L 3022 2063 
z
" transform="scale(0.015625)"/>
       <path id="DejaVuSans-61" d="M 2194 1759 
Q 1497 1759 1228 1600 
Q 959 1441 959 1056 
Q 959 750 1161 570 
Q 1363 391 1709 391 
Q 2188 391 2477 730 
Q 2766 1069 2766 1631 
L 2766 1759 
L 2194 1759 
z
M 3341 1997 
L 3341 0 
L 2766 0 
L 2766 531 
Q 2569 213 2275 61 
Q 1981 -91 1556 -91 
Q 1019 -91 701 211 
Q 384 513 384 1019 
Q 384 1609 779 1909 
Q 1175 2209 1959 2209 
L 2766 2209 
L 2766 2266 
Q 2766 2663 2505 2880 
Q 2244 3097 1772 3097 
Q 1472 3097 1187 3025 
Q 903 2953 641 2809 
L 641 3341 
Q 956 3463 1253 3523 
Q 1550 3584 1831 3584 
Q 2591 3584 2966 3190 
Q 3341 2797 3341 1997 
z
" transform="scale(0.015625)"/>
       <path id="DejaVuSans-72" d="M 2631 2963 
Q 2534 3019 2420 3045 
Q 2306 3072 2169 3072 
Q 1681 3072 1420 2755 
Q 1159 2438 1159 1844 
L 1159 0 
L 581 0 
L 581 3500 
L 1159 3500 
L 1159 2956 
Q 1341 3275 1631 3429 
Q 1922 3584 2338 3584 
Q 2397 3584 2469 3576 
Q 2541 3569 2628 3553 
L 2631 2963 
z
" transform="scale(0.015625)"/>
      </defs>
      <use xlink:href="#DejaVuSans-59"/>
      <use xlink:href="#DejaVuSans-65" x="47.833984"/>
      <use xlink:href="#DejaVuSans-61" x="109.357422"/>
      <use xlink:href="#DejaVuSans-72" x="170.636719"/>
     </g>
    </g>
   </g>
   <g id="matplotlib.axis_2">
    <g id="ytick_1">
     <g id="line2d_8">
      <defs>
       <path id="m131782b323" d="M 0 0 
L -3.5 0 
" style="stroke: #000000; stroke-width: 0.8"/>
      </defs>
      <g>
       <use xlink:href="#m131782b323" x="81" y="286.99143" style="stroke: #000000; stroke-width: 0.8"/>
      </g>
     </g>
     <g id="text_9">
      <!-- 18 -->
      <g transform="translate(58.73 291.550493) scale(0.12 -0.12)">
       <use xlink:href="#DejaVuSans-31"/>
       <use xlink:href="#DejaVuSans-38" x="63.623047"/>
      </g>
     </g>
    </g>
    <g id="ytick_2">
     <g id="line2d_9">
      <g>
       <use xlink:href="#m131782b323" x="81" y="243.032091" style="stroke: #000000; stroke-width: 0.8"/>
      </g>
     </g>
     <g id="text_10">
      <!-- 20 -->
      <g transform="translate(58.73 247.591154) scale(0.12 -0.12)">
       <use xlink:href="#DejaVuSans-32"/>
       <use xlink:href="#DejaVuSans-30" x="63.623047"/>
      </g>
     </g>
    </g>
    <g id="ytick_3">
     <g id="line2d_10">
      <g>
       <use xlink:href="#m131782b323" x="81" y="199.072752" style="stroke: #000000; stroke-width: 0.8"/>
      </g>
     </g>
     <g id="text_11">
      <!-- 22 -->
      <g transform="translate(58.73 203.631814) scale(0.12 -0.12)">
       <use xlink:href="#DejaVuSans-32"/>
       <use xlink:href="#DejaVuSans-32" x="63.623047"/>
      </g>
     </g>
    </g>
    <g id="ytick_4">
     <g id="line2d_11">
      <g>
       <use xlink:href="#m131782b323" x="81" y="155.113413" style="stroke: #000000; stroke-width: 0.8"/>
      </g>
     </g>
     <g id="text_12">
      <!-- 24 -->
      <g transform="translate(58.73 159.672475) scale(0.12 -0.12)">
       <use xlink:href="#DejaVuSans-32"/>
       <use xlink:href="#DejaVuSans-34" x="63.623047"/>
      </g>
     </g>
    </g>
    <g id="ytick_5">
     <g id="line2d_12">
      <g>
       <use xlink:href="#m131782b323" x="81" y="111.154074" style="stroke: #000000; stroke-width: 0.8"/>
      </g>
     </g>
     <g id="text_13">
      <!-- 26 -->
      <g transform="translate(58.73 115.713136) scale(0.12 -0.12)">
       <use xlink:href="#DejaVuSans-32"/>
       <use xlink:href="#DejaVuSans-36" x="63.623047"/>
      </g>
     </g>
    </g>
    <g id="ytick_6">
     <g id="line2d_13">
      <g>
       <use xlink:href="#m131782b323" x="81" y="67.194735" style="stroke: #000000; stroke-width: 0.8"/>
      </g>
     </g>
     <g id="text_14">
      <!-- 28 -->
      <g transform="translate(58.73 71.753797) scale(0.12 -0.12)">
       <use xlink:href="#DejaVuSans-32"/>
       <use xlink:href="#DejaVuSans-38" x="63.623047"/>
      </g>
     </g>
    </g>
    <g id="text_15">
     <!-- Total coral cover (%) -->
     <g transform="translate(51.610469 258.769922) rotate(-90) scale(0.15 -0.15)">
      <defs>
       <path id="DejaVuSans-54" d="M -19 4666 
L 3928 4666 
L 3928 4134 
L 2272 4134 
L 2272 0 
L 1638 0 
L 1638 4134 
L -19 4134 
L -19 4666 
z
" transform="scale(0.015625)"/>
       <path id="DejaVuSans-6f" d="M 1959 3097 
Q 1497 3097 1228 2736 
Q 959 2375 959 1747 
Q 959 1119 1226 758 
Q 1494 397 1959 397 
Q 2419 397 2687 759 
Q 2956 1122 2956 1747 
Q 2956 2369 2687 2733 
Q 2419 3097 1959 3097 
z
M 1959 3584 
Q 2709 3584 3137 3096 
Q 3566 2609 3566 1747 
Q 3566 888 3137 398 
Q 2709 -91 1959 -91 
Q 1206 -91 779 398 
Q 353 888 353 1747 
Q 353 2609 779 3096 
Q 1206 3584 1959 3584 
z
" transform="scale(0.015625)"/>
       <path id="DejaVuSans-74" d="M 1172 4494 
L 1172 3500 
L 2356 3500 
L 2356 3053 
L 1172 3053 
L 1172 1153 
Q 1172 725 1289 603 
Q 1406 481 1766 481 
L 2356 481 
L 2356 0 
L 1766 0 
Q 1100 0 847 248 
Q 594 497 594 1153 
L 594 3053 
L 172 3053 
L 172 3500 
L 594 3500 
L 594 4494 
L 1172 4494 
z
" transform="scale(0.015625)"/>
       <path id="DejaVuSans-6c" d="M 603 4863 
L 1178 4863 
L 1178 0 
L 603 0 
L 603 4863 
z
" transform="scale(0.015625)"/>
       <path id="DejaVuSans-20" transform="scale(0.015625)"/>
       <path id="DejaVuSans-63" d="M 3122 3366 
L 3122 2828 
Q 2878 2963 2633 3030 
Q 2388 3097 2138 3097 
Q 1578 3097 1268 2742 
Q 959 2388 959 1747 
Q 959 1106 1268 751 
Q 1578 397 2138 397 
Q 2388 397 2633 464 
Q 2878 531 3122 666 
L 3122 134 
Q 2881 22 2623 -34 
Q 2366 -91 2075 -91 
Q 1284 -91 818 406 
Q 353 903 353 1747 
Q 353 2603 823 3093 
Q 1294 3584 2113 3584 
Q 2378 3584 2631 3529 
Q 2884 3475 3122 3366 
z
" transform="scale(0.015625)"/>
       <path id="DejaVuSans-76" d="M 191 3500 
L 800 3500 
L 1894 563 
L 2988 3500 
L 3597 3500 
L 2284 0 
L 1503 0 
L 191 3500 
z
" transform="scale(0.015625)"/>
       <path id="DejaVuSans-28" d="M 1984 4856 
Q 1566 4138 1362 3434 
Q 1159 2731 1159 2009 
Q 1159 1288 1364 580 
Q 1569 -128 1984 -844 
L 1484 -844 
Q 1016 -109 783 600 
Q 550 1309 550 2009 
Q 550 2706 781 3412 
Q 1013 4119 1484 4856 
L 1984 4856 
z
" transform="scale(0.015625)"/>
       <path id="DejaVuSans-25" d="M 4653 2053 
Q 4381 2053 4226 1822 
Q 4072 1591 4072 1178 
Q 4072 772 4226 539 
Q 4381 306 4653 306 
Q 4919 306 5073 539 
Q 5228 772 5228 1178 
Q 5228 1588 5073 1820 
Q 4919 2053 4653 2053 
z
M 4653 2450 
Q 5147 2450 5437 2106 
Q 5728 1763 5728 1178 
Q 5728 594 5436 251 
Q 5144 -91 4653 -91 
Q 4153 -91 3862 251 
Q 3572 594 3572 1178 
Q 3572 1766 3864 2108 
Q 4156 2450 4653 2450 
z
M 1428 4353 
Q 1159 4353 1004 4120 
Q 850 3888 850 3481 
Q 850 3069 1003 2837 
Q 1156 2606 1428 2606 
Q 1700 2606 1854 2837 
Q 2009 3069 2009 3481 
Q 2009 3884 1853 4118 
Q 1697 4353 1428 4353 
z
M 4250 4750 
L 4750 4750 
L 1831 -91 
L 1331 -91 
L 4250 4750 
z
M 1428 4750 
Q 1922 4750 2215 4408 
Q 2509 4066 2509 3481 
Q 2509 2891 2217 2550 
Q 1925 2209 1428 2209 
Q 931 2209 642 2551 
Q 353 2894 353 3481 
Q 353 4063 643 4406 
Q 934 4750 1428 4750 
z
" transform="scale(0.015625)"/>
       <path id="DejaVuSans-29" d="M 513 4856 
L 1013 4856 
Q 1481 4119 1714 3412 
Q 1947 2706 1947 2009 
Q 1947 1309 1714 600 
Q 1481 -109 1013 -844 
L 513 -844 
Q 928 -128 1133 580 
Q 1338 1288 1338 2009 
Q 1338 2731 1133 3434 
Q 928 4138 513 4856 
z
" transform="scale(0.015625)"/>
      </defs>
      <use xlink:href="#DejaVuSans-54"/>
      <use xlink:href="#DejaVuSans-6f" x="44.083984"/>
      <use xlink:href="#DejaVuSans-74" x="105.265625"/>
      <use xlink:href="#DejaVuSans-61" x="144.474609"/>
      <use xlink:href="#DejaVuSans-6c" x="205.753906"/>
      <use xlink:href="#DejaVuSans-20" x="233.537109"/>
      <use xlink:href="#DejaVuSans-63" x="265.324219"/>
      <use xlink:href="#DejaVuSans-6f" x="320.304688"/>
      <use xlink:href="#DejaVuSans-72" x="381.486328"/>
      <use xlink:href="#DejaVuSans-61" x="422.599609"/>
      <use xlink:href="#DejaVuSans-6c" x="483.878906"/>
      <use xlink:href="#DejaVuSans-20" x="511.662109"/>
      <use xlink:href="#DejaVuSans-63" x="543.449219"/>
      <use xlink:href="#DejaVuSans-6f" x="598.429688"/>
      <use xlink:href="#DejaVuSans-76" x="659.611328"/>
      <use xlink:href="#DejaVuSans-65" x="718.791016"/>
      <use xlink:href="#DejaVuSans-72" x="780.314453"/>
      <use xlink:href="#DejaVuSans-20" x="821.427734"/>
      <use xlink:href="#DejaVuSans-28" x="853.214844"/>
      <use xlink:href="#DejaVuSans-25" x="892.228516"/>
      <use xlink:href="#DejaVuSans-29" x="987.248047"/>
     </g>
    </g>
   </g>
   <g id="line2d_14">
    <path d="M 103.827273 289.189397 
L 141.872727 297.784449 
L 179.918182 300.337117 
L 217.963636 296.186062 
L 256.009091 286.60731 
L 294.054545 266.374353 
L 332.1 246.327596 
L 370.145455 222.558637 
L 408.190909 234.602099 
L 446.236364 215.092539 
L 484.281818 179.561001 
L 522.327273 139.029189 
L 560.372727 98.071965 
" clip-path="url(#p5936b5c92c)" style="fill: none; stroke-dasharray: 3.7,1.6; stroke-dashoffset: 0; stroke: #1f77b4; stroke-opacity: 0.6"/>
   </g>
   <g id="line2d_15">
    <path d="M 103.827273 289.189397 
L 141.872727 293.867953 
L 179.918182 296.186527 
L 217.963636 295.123022 
L 256.009091 289.207168 
L 294.054545 272.148246 
L 332.1 252.948643 
L 370.145455 228.337543 
L 408.190909 241.512297 
L 446.236364 227.358322 
L 484.281818 194.714027 
L 522.327273 158.087065 
L 560.372727 117.40188 
" clip-path="url(#p5936b5c92c)" style="fill: none; stroke-dasharray: 3.7,1.6; stroke-dashoffset: 0; stroke: #ff7f0e; stroke-opacity: 0.6"/>
   </g>
   <g id="line2d_16">
    <path d="M 103.827273 289.189397 
L 141.872727 304.003909 
L 179.918182 307.601171 
L 217.963636 304.517497 
L 256.009091 296.987602 
L 294.054545 282.256407 
L 332.1 262.261896 
L 370.145455 240.360434 
L 408.190909 249.46279 
L 446.236364 229.481878 
L 484.281818 195.010941 
L 522.327273 155.302043 
L 560.372727 114.917295 
" clip-path="url(#p5936b5c92c)" style="fill: none; stroke-dasharray: 3.7,1.6; stroke-dashoffset: 0; stroke: #2ca02c; stroke-opacity: 0.6"/>
   </g>
   <g id="line2d_17">
    <path d="M 103.827273 289.189397 
L 141.872727 292.199936 
L 179.918182 294.084011 
L 217.963636 292.314724 
L 256.009091 286.269833 
L 294.054545 271.168673 
L 332.1 253.003656 
L 370.145455 229.260038 
L 408.190909 243.516411 
L 446.236364 230.725332 
L 484.281818 201.141707 
L 522.327273 167.863531 
L 560.372727 133.225526 
" clip-path="url(#p5936b5c92c)" style="fill: none; stroke-dasharray: 3.7,1.6; stroke-dashoffset: 0; stroke: #d62728; stroke-opacity: 0.6"/>
   </g>
   <g id="line2d_18">
    <path d="M 103.827273 289.189397 
L 141.872727 297.400352 
L 179.918182 300.156179 
L 217.963636 295.817577 
L 256.009091 289.257996 
L 294.054545 272.606802 
L 332.1 253.639776 
L 370.145455 229.395196 
L 408.190909 242.691597 
L 446.236364 224.268815 
L 484.281818 190.069591 
L 522.327273 154.79913 
L 560.372727 118.303201 
" clip-path="url(#p5936b5c92c)" style="fill: none; stroke-dasharray: 3.7,1.6; stroke-dashoffset: 0; stroke: #9467bd; stroke-opacity: 0.6"/>
   </g>
   <g id="line2d_19">
    <path d="M 103.827273 289.189397 
L 141.872727 291.572002 
L 179.918182 294.872147 
L 217.963636 292.422458 
L 256.009091 284.800073 
L 294.054545 269.480144 
L 332.1 247.993577 
L 370.145455 223.477364 
L 408.190909 232.849562 
L 446.236364 214.481717 
L 484.281818 182.432803 
L 522.327273 146.012513 
L 560.372727 111.027689 
" clip-path="url(#p5936b5c92c)" style="fill: none; stroke-dasharray: 3.7,1.6; stroke-dashoffset: 0; stroke: #8c564b; stroke-opacity: 0.6"/>
   </g>
   <g id="line2d_20">
    <path d="M 103.827273 289.189397 
L 141.872727 296.973098 
L 179.918182 302.055444 
L 217.963636 298.058228 
L 256.009091 290.972211 
L 294.054545 272.800268 
L 332.1 253.218012 
L 370.145455 228.492374 
L 408.190909 239.420442 
L 446.236364 222.289304 
L 484.281818 187.840552 
L 522.327273 149.968579 
L 560.372727 107.680529 
" clip-path="url(#p5936b5c92c)" style="fill: none; stroke-dasharray: 3.7,1.6; stroke-dashoffset: 0; stroke: #e377c2; stroke-opacity: 0.6"/>
   </g>
   <g id="line2d_21">
    <path d="M 103.827273 289.189397 
L 141.872727 296.289599 
L 179.918182 297.579719 
L 217.963636 291.753834 
L 256.009091 284.50268 
L 294.054545 265.166923 
L 332.1 243.966097 
L 370.145455 214.256288 
L 408.190909 222.956342 
L 446.236364 204.492872 
L 484.281818 173.112286 
L 522.327273 138.827385 
L 560.372727 99.715102 
" clip-path="url(#p5936b5c92c)" style="fill: none; stroke-dasharray: 3.7,1.6; stroke-dashoffset: 0; stroke: #7f7f7f; stroke-opacity: 0.6"/>
   </g>
   <g id="line2d_22">
    <path d="M 103.827273 289.189397 
L 141.872727 290.102507 
L 179.918182 290.31383 
L 217.963636 285.546487 
L 256.009091 274.018217 
L 294.054545 256.118773 
L 332.1 233.822299 
L 370.145455 205.164648 
L 408.190909 215.104674 
L 446.236364 195.144152 
L 484.281818 159.62819 
L 522.327273 120.920137 
L 560.372727 80.937855 
" clip-path="url(#p5936b5c92c)" style="fill: none; stroke-dasharray: 3.7,1.6; stroke-dashoffset: 0; stroke: #bcbd22; stroke-opacity: 0.6"/>
   </g>
   <g id="line2d_23">
    <path d="M 103.827273 289.189397 
L 141.872727 289.9083 
L 179.918182 292.704887 
L 217.963636 287.769246 
L 256.009091 280.47911 
L 294.054545 263.264286 
L 332.1 242.212857 
L 370.145455 214.535692 
L 408.190909 223.381479 
L 446.236364 204.281284 
L 484.281818 171.692453 
L 522.327273 135.958059 
L 560.372727 98.782416 
" clip-path="url(#p5936b5c92c)" style="fill: none; stroke-dasharray: 3.7,1.6; stroke-dashoffset: 0; stroke: #17becf; stroke-opacity: 0.6"/>
   </g>
   <g id="line2d_24">
    <path d="M 103.827273 289.189397 
L 141.872727 286.168748 
L 179.918182 288.327542 
L 217.963636 283.814659 
L 256.009091 272.527498 
L 294.054545 256.506765 
L 332.1 233.031814 
L 370.145455 208.189583 
L 408.190909 220.732056 
L 446.236364 203.715149 
L 484.281818 170.794405 
L 522.327273 134.909505 
L 560.372727 98.597594 
" clip-path="url(#p5936b5c92c)" style="fill: none; stroke-dasharray: 3.7,1.6; stroke-dashoffset: 0; stroke: #1f77b4; stroke-opacity: 0.6"/>
   </g>
   <g id="line2d_25">
    <path d="M 103.827273 289.189397 
L 141.872727 302.987023 
L 179.918182 303.273896 
L 217.963636 296.774293 
L 256.009091 287.285588 
L 294.054545 269.524858 
L 332.1 245.996752 
L 370.145455 221.940896 
L 408.190909 229.610002 
L 446.236364 211.467826 
L 484.281818 175.753803 
L 522.327273 137.473568 
L 560.372727 98.853445 
" clip-path="url(#p5936b5c92c)" style="fill: none; stroke-dasharray: 3.7,1.6; stroke-dashoffset: 0; stroke: #ff7f0e; stroke-opacity: 0.6"/>
   </g>
   <g id="line2d_26">
    <path d="M 103.827273 289.189397 
L 141.872727 295.913594 
L 179.918182 297.725526 
L 217.963636 293.857469 
L 256.009091 285.802165 
L 294.054545 268.942722 
L 332.1 245.47136 
L 370.145455 220.330378 
L 408.190909 227.879041 
L 446.236364 209.107347 
L 484.281818 174.704015 
L 522.327273 137.554926 
L 560.372727 100.154042 
" clip-path="url(#p5936b5c92c)" style="fill: none; stroke-dasharray: 3.7,1.6; stroke-dashoffset: 0; stroke: #2ca02c; stroke-opacity: 0.6"/>
   </g>
   <g id="line2d_27">
    <path d="M 103.827273 289.189397 
L 141.872727 302.441626 
L 179.918182 303.839117 
L 217.963636 298.445568 
L 256.009091 291.089309 
L 294.054545 273.840834 
L 332.1 255.761288 
L 370.145455 231.635597 
L 408.190909 243.828724 
L 446.236364 225.161863 
L 484.281818 193.584204 
L 522.327273 156.55181 
L 560.372727 117.1207 
" clip-path="url(#p5936b5c92c)" style="fill: none; stroke-dasharray: 3.7,1.6; stroke-dashoffset: 0; stroke: #d62728; stroke-opacity: 0.6"/>
   </g>
   <g id="line2d_28">
    <path d="M 103.827273 289.189397 
L 141.872727 281.680422 
L 179.918182 282.00873 
L 217.963636 276.558746 
L 256.009091 266.208201 
L 294.054545 249.101399 
L 332.1 227.702593 
L 370.145455 205.59879 
L 408.190909 217.701948 
L 446.236364 201.05919 
L 484.281818 170.141789 
L 522.327273 135.601429 
L 560.372727 99.157645 
" clip-path="url(#p5936b5c92c)" style="fill: none; stroke-dasharray: 3.7,1.6; stroke-dashoffset: 0; stroke: #9467bd; stroke-opacity: 0.6"/>
   </g>
   <g id="line2d_29">
    <path d="M 103.827273 289.189397 
L 141.872727 297.408984 
L 179.918182 300.775475 
L 217.963636 296.5442 
L 256.009091 288.939546 
L 294.054545 272.521677 
L 332.1 253.002306 
L 370.145455 227.392067 
L 408.190909 239.908051 
L 446.236364 223.408917 
L 484.281818 188.871244 
L 522.327273 152.051893 
L 560.372727 113.116388 
" clip-path="url(#p5936b5c92c)" style="fill: none; stroke-dasharray: 3.7,1.6; stroke-dashoffset: 0; stroke: #8c564b; stroke-opacity: 0.6"/>
   </g>
   <g id="line2d_30">
    <path d="M 103.827273 289.189397 
L 141.872727 283.922427 
L 179.918182 284.087058 
L 217.963636 275.888164 
L 256.009091 264.964206 
L 294.054545 244.807297 
L 332.1 221.014898 
L 370.145455 195.22386 
L 408.190909 206.751326 
L 446.236364 187.924241 
L 484.281818 153.293405 
L 522.327273 116.34843 
L 560.372727 79.42332 
" clip-path="url(#p5936b5c92c)" style="fill: none; stroke-dasharray: 3.7,1.6; stroke-dashoffset: 0; stroke: #e377c2; stroke-opacity: 0.6"/>
   </g>
   <g id="line2d_31">
    <path d="M 103.827273 289.189397 
L 141.872727 284.82225 
L 179.918182 285.989542 
L 217.963636 282.536169 
L 256.009091 272.620422 
L 294.054545 255.097783 
L 332.1 231.97801 
L 370.145455 206.687395 
L 408.190909 217.788049 
L 446.236364 199.863623 
L 484.281818 165.038779 
L 522.327273 129.144989 
L 560.372727 90.627451 
" clip-path="url(#p5936b5c92c)" style="fill: none; stroke-dasharray: 3.7,1.6; stroke-dashoffset: 0; stroke: #7f7f7f; stroke-opacity: 0.6"/>
   </g>
   <g id="line2d_32">
    <path d="M 103.827273 289.189397 
L 141.872727 299.124474 
L 179.918182 302.852047 
L 217.963636 299.166875 
L 256.009091 291.466996 
L 294.054545 274.123186 
L 332.1 254.278599 
L 370.145455 227.71833 
L 408.190909 238.168405 
L 446.236364 220.748337 
L 484.281818 186.929968 
L 522.327273 149.027832 
L 560.372727 110.021907 
" clip-path="url(#p5936b5c92c)" style="fill: none; stroke-dasharray: 3.7,1.6; stroke-dashoffset: 0; stroke: #bcbd22; stroke-opacity: 0.6"/>
   </g>
   <g id="line2d_33">
    <path d="M 103.827273 289.189397 
L 141.872727 286.621896 
L 179.918182 288.463113 
L 217.963636 283.712721 
L 256.009091 276.855715 
L 294.054545 258.914914 
L 332.1 237.606408 
L 370.145455 213.433386 
L 408.190909 223.69884 
L 446.236364 206.734341 
L 484.281818 174.493845 
L 522.327273 139.071005 
L 560.372727 102.821807 
" clip-path="url(#p5936b5c92c)" style="fill: none; stroke-dasharray: 3.7,1.6; stroke-dashoffset: 0; stroke: #17becf; stroke-opacity: 0.6"/>
   </g>
   <g id="line2d_34">
    <path d="M 103.827273 289.189397 
L 141.872727 295.943804 
L 179.918182 300.554441 
L 217.963636 298.343192 
L 256.009091 291.582768 
L 294.054545 275.628547 
L 332.1 253.797401 
L 370.145455 229.688657 
L 408.190909 242.64274 
L 446.236364 225.874996 
L 484.281818 192.052746 
L 522.327273 155.206279 
L 560.372727 116.634262 
" clip-path="url(#p5936b5c92c)" style="fill: none; stroke-dasharray: 3.7,1.6; stroke-dashoffset: 0; stroke: #1f77b4; stroke-opacity: 0.6"/>
   </g>
   <g id="line2d_35">
    <path d="M 103.827273 289.189397 
L 141.872727 296.548002 
L 179.918182 297.213586 
L 217.963636 292.607976 
L 256.009091 285.039334 
L 294.054545 267.168576 
L 332.1 246.178215 
L 370.145455 224.476577 
L 408.190909 238.108643 
L 446.236364 220.505247 
L 484.281818 190.021054 
L 522.327273 156.509334 
L 560.372727 117.581016 
" clip-path="url(#p5936b5c92c)" style="fill: none; stroke-dasharray: 3.7,1.6; stroke-dashoffset: 0; stroke: #ff7f0e; stroke-opacity: 0.6"/>
   </g>
   <g id="line2d_36">
    <path d="M 103.827273 289.189397 
L 141.872727 282.882344 
L 179.918182 285.104259 
L 217.963636 281.692778 
L 256.009091 271.795063 
L 294.054545 255.017642 
L 332.1 232.070593 
L 370.145455 207.041054 
L 408.190909 216.104025 
L 446.236364 197.53694 
L 484.281818 160.774962 
L 522.327273 122.543302 
L 560.372727 81.168568 
" clip-path="url(#p5936b5c92c)" style="fill: none; stroke-dasharray: 3.7,1.6; stroke-dashoffset: 0; stroke: #2ca02c; stroke-opacity: 0.6"/>
   </g>
   <g id="line2d_37">
    <path d="M 103.827273 289.189397 
L 141.872727 295.747979 
L 179.918182 299.064743 
L 217.963636 292.339951 
L 256.009091 282.816063 
L 294.054545 265.264114 
L 332.1 244.348037 
L 370.145455 220.468586 
L 408.190909 231.441073 
L 446.236364 216.045254 
L 484.281818 185.745998 
L 522.327273 150.606535 
L 560.372727 117.018674 
" clip-path="url(#p5936b5c92c)" style="fill: none; stroke-dasharray: 3.7,1.6; stroke-dashoffset: 0; stroke: #d62728; stroke-opacity: 0.6"/>
   </g>
   <g id="line2d_38">
    <path d="M 103.827273 289.189397 
L 141.872727 293.142916 
L 179.918182 295.175099 
L 217.963636 291.773441 
L 256.009091 281.868637 
L 294.054545 263.940385 
L 332.1 241.772655 
L 370.145455 215.575908 
L 408.190909 225.965693 
L 446.236364 206.296981 
L 484.281818 172.731937 
L 522.327273 135.607346 
L 560.372727 94.510806 
" clip-path="url(#p5936b5c92c)" style="fill: none; stroke-dasharray: 3.7,1.6; stroke-dashoffset: 0; stroke: #9467bd; stroke-opacity: 0.6"/>
   </g>
   <g id="line2d_39">
    <path d="M 103.827273 289.189397 
L 141.872727 301.167957 
L 179.918182 302.72086 
L 217.963636 298.934279 
L 256.009091 291.633815 
L 294.054545 273.277822 
L 332.1 250.671959 
L 370.145455 225.023796 
L 408.190909 234.587775 
L 446.236364 216.262668 
L 484.281818 179.865104 
L 522.327273 141.264107 
L 560.372727 101.10418 
" clip-path="url(#p5936b5c92c)" style="fill: none; stroke-dasharray: 3.7,1.6; stroke-dashoffset: 0; stroke: #8c564b; stroke-opacity: 0.6"/>
   </g>
   <g id="line2d_40">
    <path d="M 103.827273 289.189397 
L 141.872727 292.413563 
L 179.918182 295.39149 
L 217.963636 292.449297 
L 256.009091 284.393152 
L 294.054545 266.596377 
L 332.1 245.662665 
L 370.145455 220.340385 
L 408.190909 228.455186 
L 446.236364 205.262152 
L 484.281818 169.628371 
L 522.327273 127.145017 
L 560.372727 83.792274 
" clip-path="url(#p5936b5c92c)" style="fill: none; stroke-dasharray: 3.7,1.6; stroke-dashoffset: 0; stroke: #e377c2; stroke-opacity: 0.6"/>
   </g>
   <g id="line2d_41">
    <path d="M 103.827273 289.189397 
L 141.872727 293.967214 
L 179.918182 298.603235 
L 217.963636 296.115508 
L 256.009091 288.239388 
L 294.054545 270.417436 
L 332.1 250.854699 
L 370.145455 227.114072 
L 408.190909 240.265474 
L 446.236364 221.515589 
L 484.281818 189.244379 
L 522.327273 151.115153 
L 560.372727 112.093716 
" clip-path="url(#p5936b5c92c)" style="fill: none; stroke-dasharray: 3.7,1.6; stroke-dashoffset: 0; stroke: #7f7f7f; stroke-opacity: 0.6"/>
   </g>
   <g id="line2d_42">
    <path d="M 103.827273 289.189397 
L 141.872727 290.870701 
L 179.918182 292.96519 
L 217.963636 287.466064 
L 256.009091 278.831859 
L 294.054545 261.622844 
L 332.1 238.423689 
L 370.145455 211.499012 
L 408.190909 221.178174 
L 446.236364 202.296769 
L 484.281818 169.03765 
L 522.327273 133.084181 
L 560.372727 93.430248 
" clip-path="url(#p5936b5c92c)" style="fill: none; stroke-dasharray: 3.7,1.6; stroke-dashoffset: 0; stroke: #bcbd22; stroke-opacity: 0.6"/>
   </g>
   <g id="line2d_43">
    <path d="M 103.827273 289.189397 
L 141.872727 297.398194 
L 179.918182 301.116424 
L 217.963636 297.698347 
L 256.009091 288.295142 
L 294.054545 271.569274 
L 332.1 252.452119 
L 370.145455 225.124459 
L 408.190909 235.655902 
L 446.236364 217.598 
L 484.281818 182.792509 
L 522.327273 145.61907 
L 560.372727 105.818123 
" clip-path="url(#p5936b5c92c)" style="fill: none; stroke-dasharray: 3.7,1.6; stroke-dashoffset: 0; stroke: #17becf; stroke-opacity: 0.6"/>
   </g>
   <g id="line2d_44">
    <path d="M 103.827273 289.189397 
L 141.872727 306.811271 
L 179.918182 307.482421 
L 217.963636 301.880487 
L 256.009091 294.15868 
L 294.054545 276.909612 
L 332.1 257.137241 
L 370.145455 233.098433 
L 408.190909 243.005576 
L 446.236364 224.674066 
L 484.281818 193.359375 
L 522.327273 156.707487 
L 560.372727 118.202488 
" clip-path="url(#p5936b5c92c)" style="fill: none; stroke-dasharray: 3.7,1.6; stroke-dashoffset: 0; stroke: #1f77b4; stroke-opacity: 0.6"/>
   </g>
   <g id="line2d_45">
    <path d="M 103.827273 289.189397 
L 141.872727 289.522045 
L 179.918182 291.703965 
L 217.963636 289.047935 
L 256.009091 281.560288 
L 294.054545 262.799459 
L 332.1 241.157182 
L 370.145455 214.419106 
L 408.190909 226.354977 
L 446.236364 208.24428 
L 484.281818 176.180666 
L 522.327273 138.284818 
L 560.372727 95.931798 
" clip-path="url(#p5936b5c92c)" style="fill: none; stroke-dasharray: 3.7,1.6; stroke-dashoffset: 0; stroke: #ff7f0e; stroke-opacity: 0.6"/>
   </g>
   <g id="line2d_46">
    <path d="M 103.827273 289.189397 
L 141.872727 288.471173 
L 179.918182 291.523575 
L 217.963636 285.874826 
L 256.009091 277.671492 
L 294.054545 259.000541 
L 332.1 236.209452 
L 370.145455 210.466049 
L 408.190909 223.057359 
L 446.236364 203.325222 
L 484.281818 166.142934 
L 522.327273 126.861045 
L 560.372727 88.698235 
" clip-path="url(#p5936b5c92c)" style="fill: none; stroke-dasharray: 3.7,1.6; stroke-dashoffset: 0; stroke: #2ca02c; stroke-opacity: 0.6"/>
   </g>
   <g id="line2d_47">
    <path d="M 103.827273 289.189397 
L 141.872727 291.28285 
L 179.918182 292.649802 
L 217.963636 290.551709 
L 256.009091 284.171817 
L 294.054545 267.862056 
L 332.1 247.650136 
L 370.145455 222.158749 
L 408.190909 233.226576 
L 446.236364 218.809785 
L 484.281818 185.039751 
L 522.327273 150.558688 
L 560.372727 113.403934 
" clip-path="url(#p5936b5c92c)" style="fill: none; stroke-dasharray: 3.7,1.6; stroke-dashoffset: 0; stroke: #d62728; stroke-opacity: 0.6"/>
   </g>
   <g id="line2d_48">
    <path d="M 103.827273 289.189397 
L 141.872727 291.429584 
L 179.918182 292.764046 
L 217.963636 290.896732 
L 256.009091 281.758794 
L 294.054545 264.534139 
L 332.1 242.193284 
L 370.145455 214.548464 
L 408.190909 222.197552 
L 446.236364 201.997341 
L 484.281818 167.683074 
L 522.327273 131.240151 
L 560.372727 91.988102 
" clip-path="url(#p5936b5c92c)" style="fill: none; stroke-dasharray: 3.7,1.6; stroke-dashoffset: 0; stroke: #9467bd; stroke-opacity: 0.6"/>
   </g>
   <g id="line2d_49">
    <path d="M 103.827273 289.189397 
L 141.872727 292.139516 
L 179.918182 294.936411 
L 217.963636 293.405878 
L 256.009091 286.140797 
L 294.054545 270.554215 
L 332.1 251.919325 
L 370.145455 230.582149 
L 408.190909 245.194234 
L 446.236364 228.624265 
L 484.281818 196.452063 
L 522.327273 159.392904 
L 560.372727 123.368208 
" clip-path="url(#p5936b5c92c)" style="fill: none; stroke-dasharray: 3.7,1.6; stroke-dashoffset: 0; stroke: #8c564b; stroke-opacity: 0.6"/>
   </g>
   <g id="line2d_50">
    <path d="M 103.827273 289.189397 
L 141.872727 299.209168 
L 179.918182 300.652363 
L 217.963636 297.214585 
L 256.009091 288.851716 
L 294.054545 269.296332 
L 332.1 247.40344 
L 370.145455 220.135838 
L 408.190909 228.270481 
L 446.236364 210.506876 
L 484.281818 178.120128 
L 522.327273 138.762985 
L 560.372727 100.058703 
" clip-path="url(#p5936b5c92c)" style="fill: none; stroke-dasharray: 3.7,1.6; stroke-dashoffset: 0; stroke: #e377c2; stroke-opacity: 0.6"/>
   </g>
   <g id="line2d_51">
    <path d="M 103.827273 289.189397 
L 141.872727 286.680158 
L 179.918182 288.053074 
L 217.963636 283.997874 
L 256.009091 276.627047 
L 294.054545 258.723137 
L 332.1 238.93609 
L 370.145455 215.066789 
L 408.190909 227.178863 
L 446.236364 209.758232 
L 484.281818 177.650857 
L 522.327273 142.201448 
L 560.372727 104.326765 
" clip-path="url(#p5936b5c92c)" style="fill: none; stroke-dasharray: 3.7,1.6; stroke-dashoffset: 0; stroke: #7f7f7f; stroke-opacity: 0.6"/>
   </g>
   <g id="line2d_52">
    <path d="M 103.827273 289.189397 
L 141.872727 293.889532 
L 179.918182 295.785149 
L 217.963636 291.981539 
L 256.009091 282.456319 
L 294.054545 264.767043 
L 332.1 245.254866 
L 370.145455 221.749682 
L 408.190909 231.702208 
L 446.236364 209.91906 
L 484.281818 173.808714 
L 522.327273 133.270089 
L 560.372727 93.879061 
" clip-path="url(#p5936b5c92c)" style="fill: none; stroke-dasharray: 3.7,1.6; stroke-dashoffset: 0; stroke: #bcbd22; stroke-opacity: 0.6"/>
   </g>
   <g id="line2d_53">
    <path d="M 103.827273 289.189397 
L 141.872727 285.370344 
L 179.918182 286.834968 
L 217.963636 279.943357 
L 256.009091 267.869922 
L 294.054545 249.274789 
L 332.1 224.267806 
L 370.145455 198.18841 
L 408.190909 208.072793 
L 446.236364 187.995782 
L 484.281818 155.352135 
L 522.327273 116.071496 
L 560.372727 77.942195 
" clip-path="url(#p5936b5c92c)" style="fill: none; stroke-dasharray: 3.7,1.6; stroke-dashoffset: 0; stroke: #17becf; stroke-opacity: 0.6"/>
   </g>
   <g id="line2d_54">
    <path d="M 103.827273 289.189397 
L 141.872727 294.931773 
L 179.918182 298.682272 
L 217.963636 296.507309 
L 256.009091 288.304993 
L 294.054545 271.203696 
L 332.1 251.795605 
L 370.145455 227.232442 
L 408.190909 239.423903 
L 446.236364 223.280993 
L 484.281818 192.405274 
L 522.327273 157.846181 
L 560.372727 118.660633 
" clip-path="url(#p5936b5c92c)" style="fill: none; stroke-dasharray: 3.7,1.6; stroke-dashoffset: 0; stroke: #1f77b4; stroke-opacity: 0.6"/>
   </g>
   <g id="line2d_55">
    <path d="M 103.827273 289.189397 
L 141.872727 291.507267 
L 179.918182 293.120027 
L 217.963636 288.848544 
L 256.009091 283.046339 
L 294.054545 266.487307 
L 332.1 247.411682 
L 370.145455 223.830109 
L 408.190909 237.162697 
L 446.236364 219.42153 
L 484.281818 186.443313 
L 522.327273 147.169292 
L 560.372727 109.787038 
" clip-path="url(#p5936b5c92c)" style="fill: none; stroke-dasharray: 3.7,1.6; stroke-dashoffset: 0; stroke: #ff7f0e; stroke-opacity: 0.6"/>
   </g>
   <g id="line2d_56">
    <path d="M 103.827273 289.189397 
L 141.872727 290.219031 
L 179.918182 292.749945 
L 217.963636 288.880224 
L 256.009091 278.565933 
L 294.054545 259.499238 
L 332.1 237.583735 
L 370.145455 212.161267 
L 408.190909 225.812555 
L 446.236364 205.294168 
L 484.281818 170.426697 
L 522.327273 134.628415 
L 560.372727 99.406497 
" clip-path="url(#p5936b5c92c)" style="fill: none; stroke-dasharray: 3.7,1.6; stroke-dashoffset: 0; stroke: #2ca02c; stroke-opacity: 0.6"/>
   </g>
   <g id="line2d_57">
    <path d="M 103.827273 289.189397 
L 141.872727 291.31306 
L 179.918182 294.378214 
L 217.963636 292.401555 
L 256.009091 285.974643 
L 294.054545 270.4206 
L 332.1 252.353365 
L 370.145455 226.316224 
L 408.190909 238.462928 
L 446.236364 224.370052 
L 484.281818 192.824813 
L 522.327273 159.245041 
L 560.372727 123.103543 
" clip-path="url(#p5936b5c92c)" style="fill: none; stroke-dasharray: 3.7,1.6; stroke-dashoffset: 0; stroke: #d62728; stroke-opacity: 0.6"/>
   </g>
   <g id="line2d_58">
    <path d="M 103.827273 289.189397 
L 141.872727 287.500141 
L 179.918182 289.096796 
L 217.963636 284.891725 
L 256.009091 277.431608 
L 294.054545 257.535255 
L 332.1 233.571642 
L 370.145455 209.486559 
L 408.190909 222.694411 
L 446.236364 206.978023 
L 484.281818 176.08018 
L 522.327273 141.760045 
L 560.372727 104.621531 
" clip-path="url(#p5936b5c92c)" style="fill: none; stroke-dasharray: 3.7,1.6; stroke-dashoffset: 0; stroke: #9467bd; stroke-opacity: 0.6"/>
   </g>
   <g id="line2d_59">
    <path d="M 103.827273 289.189397 
L 141.872727 291.06275 
L 179.918182 293.614543 
L 217.963636 288.442814 
L 256.009091 279.043837 
L 294.054545 265.496481 
L 332.1 243.890634 
L 370.145455 219.434441 
L 408.190909 230.998114 
L 446.236364 210.544403 
L 484.281818 177.571362 
L 522.327273 139.590694 
L 560.372727 101.949785 
" clip-path="url(#p5936b5c92c)" style="fill: none; stroke-dasharray: 3.7,1.6; stroke-dashoffset: 0; stroke: #8c564b; stroke-opacity: 0.6"/>
   </g>
   <g id="line2d_60">
    <path d="M 103.827273 289.189397 
L 141.872727 303.043666 
L 179.918182 306.956733 
L 217.963636 299.980911 
L 256.009091 291.039424 
L 294.054545 269.857181 
L 332.1 248.449273 
L 370.145455 224.276787 
L 408.190909 232.710994 
L 446.236364 214.351968 
L 484.281818 182.246975 
L 522.327273 144.900975 
L 560.372727 108.265707 
" clip-path="url(#p5936b5c92c)" style="fill: none; stroke-dasharray: 3.7,1.6; stroke-dashoffset: 0; stroke: #e377c2; stroke-opacity: 0.6"/>
   </g>
   <g id="line2d_61">
    <path d="M 103.827273 289.189397 
L 141.872727 296.150958 
L 179.918182 299.071825 
L 217.963636 296.346191 
L 256.009091 288.204437 
L 294.054545 272.693562 
L 332.1 252.569868 
L 370.145455 227.728015 
L 408.190909 237.138249 
L 446.236364 218.283632 
L 484.281818 182.56951 
L 522.327273 144.71649 
L 560.372727 105.444585 
" clip-path="url(#p5936b5c92c)" style="fill: none; stroke-dasharray: 3.7,1.6; stroke-dashoffset: 0; stroke: #7f7f7f; stroke-opacity: 0.6"/>
   </g>
   <g id="line2d_62">
    <path d="M 103.827273 289.189397 
L 141.872727 300.203937 
L 179.918182 302.339018 
L 217.963636 296.090217 
L 256.009091 286.942841 
L 294.054545 269.499473 
L 332.1 247.528806 
L 370.145455 222.22603 
L 408.190909 231.162482 
L 446.236364 208.939545 
L 484.281818 170.919961 
L 522.327273 130.980138 
L 560.372727 91.326712 
" clip-path="url(#p5936b5c92c)" style="fill: none; stroke-dasharray: 3.7,1.6; stroke-dashoffset: 0; stroke: #bcbd22; stroke-opacity: 0.6"/>
   </g>
   <g id="line2d_63">
    <path d="M 103.827273 289.189397 
L 141.872727 293.449331 
L 179.918182 294.480016 
L 217.963636 288.61255 
L 256.009091 279.172408 
L 294.054545 261.876739 
L 332.1 240.181345 
L 370.145455 215.206633 
L 408.190909 226.214703 
L 446.236364 206.224507 
L 484.281818 173.430006 
L 522.327273 135.860845 
L 560.372727 96.818682 
" clip-path="url(#p5936b5c92c)" style="fill: none; stroke-dasharray: 3.7,1.6; stroke-dashoffset: 0; stroke: #17becf; stroke-opacity: 0.6"/>
   </g>
   <g id="line2d_64">
    <path d="M 103.827273 289.189397 
L 141.872727 298.028286 
L 179.918182 301.515099 
L 217.963636 298.948974 
L 256.009091 292.371396 
L 294.054545 276.757366 
L 332.1 255.833616 
L 370.145455 231.119812 
L 408.190909 241.368316 
L 446.236364 223.329952 
L 484.281818 189.968095 
L 522.327273 151.24488 
L 560.372727 111.806589 
" clip-path="url(#p5936b5c92c)" style="fill: none; stroke-dasharray: 3.7,1.6; stroke-dashoffset: 0; stroke: #1f77b4; stroke-opacity: 0.6"/>
   </g>
   <g id="line2d_65">
    <path d="M 103.827273 289.189397 
L 141.872727 286.91968 
L 179.918182 289.694999 
L 217.963636 286.661133 
L 256.009091 277.678127 
L 294.054545 262.347532 
L 332.1 240.563332 
L 370.145455 217.478781 
L 408.190909 229.908543 
L 446.236364 212.756815 
L 484.281818 182.560326 
L 522.327273 148.274547 
L 560.372727 112.016303 
" clip-path="url(#p5936b5c92c)" style="fill: none; stroke-dasharray: 3.7,1.6; stroke-dashoffset: 0; stroke: #ff7f0e; stroke-opacity: 0.6"/>
   </g>
   <g id="line2d_66">
    <path d="M 103.827273 289.189397 
L 141.872727 297.696516 
L 179.918182 298.262654 
L 217.963636 292.442583 
L 256.009091 283.911225 
L 294.054545 266.272029 
L 332.1 246.023054 
L 370.145455 219.735686 
L 408.190909 228.771206 
L 446.236364 210.327864 
L 484.281818 175.768443 
L 522.327273 140.067691 
L 560.372727 101.179852 
" clip-path="url(#p5936b5c92c)" style="fill: none; stroke-dasharray: 3.7,1.6; stroke-dashoffset: 0; stroke: #2ca02c; stroke-opacity: 0.6"/>
   </g>
   <g id="line2d_67">
    <path d="M 103.827273 289.189397 
L 141.872727 294.728935 
L 179.918182 296.084391 
L 217.963636 291.568374 
L 256.009091 281.376751 
L 294.054545 261.25872 
L 332.1 235.405631 
L 370.145455 208.29871 
L 408.190909 217.65886 
L 446.236364 195.513887 
L 484.281818 158.114037 
L 522.327273 119.684863 
L 560.372727 79.724575 
" clip-path="url(#p5936b5c92c)" style="fill: none; stroke-dasharray: 3.7,1.6; stroke-dashoffset: 0; stroke: #d62728; stroke-opacity: 0.6"/>
   </g>
   <g id="line2d_68">
    <path d="M 103.827273 289.189397 
L 141.872727 293.557223 
L 179.918182 296.877297 
L 217.963636 292.990716 
L 256.009091 283.790398 
L 294.054545 265.98336 
L 332.1 245.781695 
L 370.145455 219.015761 
L 408.190909 227.027659 
L 446.236364 206.799893 
L 484.281818 168.970926 
L 522.327273 129.351129 
L 560.372727 90.347756 
" clip-path="url(#p5936b5c92c)" style="fill: none; stroke-dasharray: 3.7,1.6; stroke-dashoffset: 0; stroke: #9467bd; stroke-opacity: 0.6"/>
   </g>
   <g id="line2d_69">
    <path d="M 103.827273 289.189397 
L 141.872727 297.816817 
L 179.918182 300.157989 
L 217.963636 296.350193 
L 256.009091 287.748798 
L 294.054545 269.310126 
L 332.1 249.079444 
L 370.145455 221.649623 
L 408.190909 229.909167 
L 446.236364 210.463461 
L 484.281818 174.324634 
L 522.327273 135.45358 
L 560.372727 93.718131 
" clip-path="url(#p5936b5c92c)" style="fill: none; stroke-dasharray: 3.7,1.6; stroke-dashoffset: 0; stroke: #8c564b; stroke-opacity: 0.6"/>
   </g>
   <g id="line2d_70">
    <path d="M 103.827273 289.189397 
L 141.872727 291.127485 
L 179.918182 293.605858 
L 217.963636 290.391302 
L 256.009091 279.67211 
L 294.054545 259.946241 
L 332.1 239.236539 
L 370.145455 212.77977 
L 408.190909 222.558225 
L 446.236364 206.06501 
L 484.281818 174.802661 
L 522.327273 139.964904 
L 560.372727 104.438718 
" clip-path="url(#p5936b5c92c)" style="fill: none; stroke-dasharray: 3.7,1.6; stroke-dashoffset: 0; stroke: #e377c2; stroke-opacity: 0.6"/>
   </g>
   <g id="line2d_71">
    <path d="M 103.827273 289.189397 
L 141.872727 292.495561 
L 179.918182 294.847644 
L 217.963636 289.901297 
L 256.009091 279.005591 
L 294.054545 260.851231 
L 332.1 237.734716 
L 370.145455 209.446538 
L 408.190909 217.81501 
L 446.236364 194.882148 
L 484.281818 158.966912 
L 522.327273 121.163025 
L 560.372727 83.743991 
" clip-path="url(#p5936b5c92c)" style="fill: none; stroke-dasharray: 3.7,1.6; stroke-dashoffset: 0; stroke: #7f7f7f; stroke-opacity: 0.6"/>
   </g>
   <g id="line2d_72">
    <path d="M 103.827273 289.189397 
L 141.872727 301.506739 
L 179.918182 304.004495 
L 217.963636 301.677584 
L 256.009091 293.718588 
L 294.054545 279.654743 
L 332.1 258.236272 
L 370.145455 234.624079 
L 408.190909 246.431211 
L 446.236364 227.137552 
L 484.281818 191.793582 
L 522.327273 153.499275 
L 560.372727 115.076709 
" clip-path="url(#p5936b5c92c)" style="fill: none; stroke-dasharray: 3.7,1.6; stroke-dashoffset: 0; stroke: #bcbd22; stroke-opacity: 0.6"/>
   </g>
   <g id="line2d_73">
    <path d="M 103.827273 289.189397 
L 141.872727 287.336144 
L 179.918182 288.881147 
L 217.963636 284.449704 
L 256.009091 274.281887 
L 294.054545 255.64425 
L 332.1 229.826612 
L 370.145455 201.351842 
L 408.190909 210.495892 
L 446.236364 192.114279 
L 484.281818 157.078386 
L 522.327273 118.800598 
L 560.372727 80.327344 
" clip-path="url(#p5936b5c92c)" style="fill: none; stroke-dasharray: 3.7,1.6; stroke-dashoffset: 0; stroke: #17becf; stroke-opacity: 0.6"/>
   </g>
   <g id="line2d_74">
    <path d="M 103.827273 289.189397 
L 141.872727 294.927457 
L 179.918182 297.78461 
L 217.963636 294.693378 
L 256.009091 287.353716 
L 294.054545 270.678419 
L 332.1 249.576934 
L 370.145455 223.109327 
L 408.190909 231.475569 
L 446.236364 213.738478 
L 484.281818 175.285466 
L 522.327273 136.131586 
L 560.372727 96.763259 
" clip-path="url(#p5936b5c92c)" style="fill: none; stroke-dasharray: 3.7,1.6; stroke-dashoffset: 0; stroke: #1f77b4; stroke-opacity: 0.6"/>
   </g>
   <g id="line2d_75">
    <path d="M 103.827273 289.189397 
L 141.872727 296.526423 
L 179.918182 298.167373 
L 217.963636 296.161105 
L 256.009091 289.927069 
L 294.054545 272.640874 
L 332.1 254.282342 
L 370.145455 228.252961 
L 408.190909 240.194399 
L 446.236364 223.587367 
L 484.281818 187.090411 
L 522.327273 148.87134 
L 560.372727 110.506686 
" clip-path="url(#p5936b5c92c)" style="fill: none; stroke-dasharray: 3.7,1.6; stroke-dashoffset: 0; stroke: #ff7f0e; stroke-opacity: 0.6"/>
   </g>
   <g id="line2d_76">
    <path d="M 103.827273 289.189397 
L 141.872727 293.298281 
L 179.918182 295.511594 
L 217.963636 290.767441 
L 256.009091 279.506262 
L 294.054545 258.112499 
L 332.1 233.589335 
L 370.145455 203.729765 
L 408.190909 215.211424 
L 446.236364 191.298082 
L 484.281818 153.837381 
L 522.327273 112.949995 
L 560.372727 73.296464 
" clip-path="url(#p5936b5c92c)" style="fill: none; stroke-dasharray: 3.7,1.6; stroke-dashoffset: 0; stroke: #2ca02c; stroke-opacity: 0.6"/>
   </g>
   <g id="line2d_77">
    <path d="M 103.827273 289.189397 
L 141.872727 289.571676 
L 179.918182 290.061801 
L 217.963636 283.728115 
L 256.009091 273.824191 
L 294.054545 255.530059 
L 332.1 230.938181 
L 370.145455 202.50828 
L 408.190909 212.057975 
L 446.236364 188.490932 
L 484.281818 152.023876 
L 522.327273 114.37829 
L 560.372727 73.908749 
" clip-path="url(#p5936b5c92c)" style="fill: none; stroke-dasharray: 3.7,1.6; stroke-dashoffset: 0; stroke: #d62728; stroke-opacity: 0.6"/>
   </g>
   <g id="line2d_78">
    <path d="M 103.827273 289.189397 
L 141.872727 296.977414 
L 179.918182 300.07885 
L 217.963636 298.26934 
L 256.009091 290.600534 
L 294.054545 273.169095 
L 332.1 251.325103 
L 370.145455 223.296589 
L 408.190909 231.843704 
L 446.236364 210.619409 
L 484.281818 173.796606 
L 522.327273 134.112333 
L 560.372727 90.359853 
" clip-path="url(#p5936b5c92c)" style="fill: none; stroke-dasharray: 3.7,1.6; stroke-dashoffset: 0; stroke: #9467bd; stroke-opacity: 0.6"/>
   </g>
   <g id="line2d_79">
    <path d="M 103.827273 289.189397 
L 141.872727 292.737241 
L 179.918182 294.94023 
L 217.963636 292.289738 
L 256.009091 280.884762 
L 294.054545 264.014747 
L 332.1 239.566111 
L 370.145455 212.697016 
L 408.190909 222.964453 
L 446.236364 201.851302 
L 484.281818 166.807823 
L 522.327273 125.61586 
L 560.372727 85.683858 
" clip-path="url(#p5936b5c92c)" style="fill: none; stroke-dasharray: 3.7,1.6; stroke-dashoffset: 0; stroke: #8c564b; stroke-opacity: 0.6"/>
   </g>
   <g id="line2d_80">
    <path d="M 103.827273 289.189397 
L 141.872727 287.6814 
L 179.918182 291.957955 
L 217.963636 288.533598 
L 256.009091 280.349431 
L 294.054545 264.994791 
L 332.1 243.961228 
L 370.145455 216.486179 
L 408.190909 224.517866 
L 446.236364 205.990911 
L 484.281818 170.3866 
L 522.327273 131.683051 
L 560.372727 92.570646 
" clip-path="url(#p5936b5c92c)" style="fill: none; stroke-dasharray: 3.7,1.6; stroke-dashoffset: 0; stroke: #e377c2; stroke-opacity: 0.6"/>
   </g>
   <g id="line2d_81">
    <path d="M 103.827273 289.189397 
L 141.872727 286.796682 
L 179.918182 289.16427 
L 217.963636 283.062426 
L 256.009091 273.543211 
L 294.054545 255.93123 
L 332.1 232.666091 
L 370.145455 207.021285 
L 408.190909 217.976068 
L 446.236364 200.737906 
L 484.281818 167.941245 
L 522.327273 130.454089 
L 560.372727 91.867176 
" clip-path="url(#p5936b5c92c)" style="fill: none; stroke-dasharray: 3.7,1.6; stroke-dashoffset: 0; stroke: #7f7f7f; stroke-opacity: 0.6"/>
   </g>
   <g id="line2d_82">
    <path d="M 103.827273 289.189397 
L 141.872727 293.328491 
L 179.918182 295.015264 
L 217.963636 292.843715 
L 256.009091 286.230814 
L 294.054545 268.909245 
L 332.1 246.605347 
L 370.145455 221.578285 
L 408.190909 230.189686 
L 446.236364 213.262107 
L 484.281818 180.751892 
L 522.327273 141.511922 
L 560.372727 102.553887 
" clip-path="url(#p5936b5c92c)" style="fill: none; stroke-dasharray: 3.7,1.6; stroke-dashoffset: 0; stroke: #bcbd22; stroke-opacity: 0.6"/>
   </g>
   <g id="line2d_83">
    <path d="M 103.827273 289.189397 
L 141.872727 300.891752 
L 179.918182 301.756534 
L 217.963636 296.818558 
L 256.009091 286.934947 
L 294.054545 269.310503 
L 332.1 249.517849 
L 370.145455 226.807056 
L 408.190909 238.88062 
L 446.236364 222.101307 
L 484.281818 188.394858 
L 522.327273 149.139454 
L 560.372727 108.174376 
" clip-path="url(#p5936b5c92c)" style="fill: none; stroke-dasharray: 3.7,1.6; stroke-dashoffset: 0; stroke: #17becf; stroke-opacity: 0.6"/>
   </g>
   <g id="line2d_84">
    <path d="M 103.827273 289.189397 
L 141.872727 287.390091 
L 179.918182 292.048825 
L 217.963636 291.410185 
L 256.009091 284.662688 
L 294.054545 269.159515 
L 332.1 248.31632 
L 370.145455 223.629528 
L 408.190909 233.602671 
L 446.236364 218.223333 
L 484.281818 184.362862 
L 522.327273 149.433186 
L 560.372727 110.112315 
" clip-path="url(#p5936b5c92c)" style="fill: none; stroke-dasharray: 3.7,1.6; stroke-dashoffset: 0; stroke: #1f77b4; stroke-opacity: 0.6"/>
   </g>
   <g id="line2d_85">
    <path d="M 103.827273 289.189397 
L 141.872727 299.124474 
L 179.918182 303.0592 
L 217.963636 299.971563 
L 256.009091 292.972242 
L 294.054545 277.172051 
L 332.1 258.435944 
L 370.145455 237.203808 
L 408.190909 248.72424 
L 446.236364 232.196164 
L 484.281818 198.404111 
L 522.327273 160.265106 
L 560.372727 120.726883 
" clip-path="url(#p5936b5c92c)" style="fill: none; stroke-dasharray: 3.7,1.6; stroke-dashoffset: 0; stroke: #ff7f0e; stroke-opacity: 0.6"/>
   </g>
   <g id="line2d_86">
    <path d="M 103.827273 289.189397 
L 141.872727 302.614254 
L 179.918182 303.877822 
L 217.963636 295.881864 
L 256.009091 286.167133 
L 294.054545 266.257995 
L 332.1 241.212898 
L 370.145455 213.876336 
L 408.190909 219.546185 
L 446.236364 195.324597 
L 484.281818 157.942832 
L 522.327273 118.391189 
L 560.372727 78.385304 
" clip-path="url(#p5936b5c92c)" style="fill: none; stroke-dasharray: 3.7,1.6; stroke-dashoffset: 0; stroke: #2ca02c; stroke-opacity: 0.6"/>
   </g>
   <g id="line2d_87">
    <path d="M 103.827273 289.189397 
L 141.872727 288.551013 
L 179.918182 292.76643 
L 217.963636 291.190575 
L 256.009091 284.900732 
L 294.054545 269.287285 
L 332.1 249.097796 
L 370.145455 224.516413 
L 408.190909 235.210293 
L 446.236364 219.273605 
L 484.281818 186.344877 
L 522.327273 150.380826 
L 560.372727 113.070662 
" clip-path="url(#p5936b5c92c)" style="fill: none; stroke-dasharray: 3.7,1.6; stroke-dashoffset: 0; stroke: #d62728; stroke-opacity: 0.6"/>
   </g>
   <g id="line2d_88">
    <path d="M 103.827273 289.189397 
L 141.872727 291.97552 
L 179.918182 294.830813 
L 217.963636 291.118799 
L 256.009091 285.56482 
L 294.054545 270.205367 
L 332.1 249.715076 
L 370.145455 225.949087 
L 408.190909 235.922704 
L 446.236364 218.809609 
L 484.281818 184.670323 
L 522.327273 147.701104 
L 560.372727 110.497375 
" clip-path="url(#p5936b5c92c)" style="fill: none; stroke-dasharray: 3.7,1.6; stroke-dashoffset: 0; stroke: #9467bd; stroke-opacity: 0.6"/>
   </g>
   <g id="line2d_89">
    <path d="M 103.827273 289.189397 
L 141.872727 290.924647 
L 179.918182 293.897336 
L 217.963636 291.191779 
L 256.009091 281.822669 
L 294.054545 263.253601 
L 332.1 242.299219 
L 370.145455 216.249005 
L 408.190909 226.396326 
L 446.236364 209.397012 
L 484.281818 176.905821 
L 522.327273 141.594901 
L 560.372727 102.415061 
" clip-path="url(#p5936b5c92c)" style="fill: none; stroke-dasharray: 3.7,1.6; stroke-dashoffset: 0; stroke: #8c564b; stroke-opacity: 0.6"/>
   </g>
   <g id="line2d_90">
    <path d="M 103.827273 289.189397 
L 141.872727 302.199947 
L 179.918182 304.331297 
L 217.963636 298.039672 
L 256.009091 289.930669 
L 294.054545 272.040158 
L 332.1 252.488354 
L 370.145455 229.647872 
L 408.190909 239.75251 
L 446.236364 220.99847 
L 484.281818 187.959138 
L 522.327273 150.941514 
L 560.372727 110.008145 
" clip-path="url(#p5936b5c92c)" style="fill: none; stroke-dasharray: 3.7,1.6; stroke-dashoffset: 0; stroke: #e377c2; stroke-opacity: 0.6"/>
   </g>
   <g id="line2d_91">
    <path d="M 103.827273 289.189397 
L 141.872727 288.369754 
L 179.918182 291.603499 
L 217.963636 289.081407 
L 256.009091 281.377946 
L 294.054545 266.870405 
L 332.1 243.042883 
L 370.145455 215.775346 
L 408.190909 222.994165 
L 446.236364 204.647196 
L 484.281818 169.233602 
L 522.327273 132.397358 
L 560.372727 93.216065 
" clip-path="url(#p5936b5c92c)" style="fill: none; stroke-dasharray: 3.7,1.6; stroke-dashoffset: 0; stroke: #7f7f7f; stroke-opacity: 0.6"/>
   </g>
   <g id="line2d_92">
    <path d="M 103.827273 289.189397 
L 141.872727 297.702451 
L 179.918182 299.277682 
L 217.963636 290.883108 
L 256.009091 282.090354 
L 294.054545 262.884413 
L 332.1 242.663973 
L 370.145455 215.305927 
L 408.190909 225.109795 
L 446.236364 205.128799 
L 484.281818 171.687449 
L 522.327273 134.960556 
L 560.372727 95.057832 
" clip-path="url(#p5936b5c92c)" style="fill: none; stroke-dasharray: 3.7,1.6; stroke-dashoffset: 0; stroke: #bcbd22; stroke-opacity: 0.6"/>
   </g>
   <g id="line2d_93">
    <path d="M 103.827273 289.189397 
L 141.872727 289.869459 
L 179.918182 289.789666 
L 217.963636 284.472555 
L 256.009091 272.155488 
L 294.054545 252.371776 
L 332.1 226.757736 
L 370.145455 196.56657 
L 408.190909 204.645718 
L 446.236364 179.510023 
L 484.281818 141.366974 
L 522.327273 99.48451 
L 560.372727 55.8 
" clip-path="url(#p5936b5c92c)" style="fill: none; stroke-dasharray: 3.7,1.6; stroke-dashoffset: 0; stroke: #17becf; stroke-opacity: 0.6"/>
   </g>
   <g id="line2d_94">
    <path d="M 103.827273 289.189397 
L 141.872727 284.705726 
L 179.918182 289.349408 
L 217.963636 288.275295 
L 256.009091 281.045164 
L 294.054545 265.763294 
L 332.1 246.854544 
L 370.145455 224.721154 
L 408.190909 236.586514 
L 446.236364 221.792886 
L 484.281818 191.340439 
L 522.327273 158.033109 
L 560.372727 119.479588 
" clip-path="url(#p5936b5c92c)" style="fill: none; stroke-dasharray: 3.7,1.6; stroke-dashoffset: 0; stroke: #1f77b4; stroke-opacity: 0.6"/>
   </g>
   <g id="line2d_95">
    <path d="M 103.827273 289.189397 
L 141.872727 288.812113 
L 179.918182 291.575081 
L 217.963636 286.819618 
L 256.009091 278.138544 
L 294.054545 260.843867 
L 332.1 236.862138 
L 370.145455 212.961258 
L 408.190909 223.43327 
L 446.236364 201.678859 
L 484.281818 168.048685 
L 522.327273 131.519285 
L 560.372727 94.364532 
" clip-path="url(#p5936b5c92c)" style="fill: none; stroke-dasharray: 3.7,1.6; stroke-dashoffset: 0; stroke: #ff7f0e; stroke-opacity: 0.6"/>
   </g>
   <g id="line2d_96">
    <path d="M 103.827273 289.189397 
L 141.872727 295.391395 
L 179.918182 298.457472 
L 217.963636 293.376067 
L 256.009091 286.954686 
L 294.054545 268.667848 
L 332.1 247.891873 
L 370.145455 224.314333 
L 408.190909 234.557106 
L 446.236364 217.220286 
L 484.281818 182.222923 
L 522.327273 142.60058 
L 560.372727 102.205127 
" clip-path="url(#p5936b5c92c)" style="fill: none; stroke-dasharray: 3.7,1.6; stroke-dashoffset: 0; stroke: #2ca02c; stroke-opacity: 0.6"/>
   </g>
   <g id="line2d_97">
    <path d="M 103.827273 289.189397 
L 141.872727 301.008276 
L 179.918182 303.866812 
L 217.963636 299.181525 
L 256.009091 290.661635 
L 294.054545 273.508443 
L 332.1 254.279399 
L 370.145455 229.179995 
L 408.190909 238.87455 
L 446.236364 221.534024 
L 484.281818 187.074436 
L 522.327273 149.252023 
L 560.372727 111.63345 
" clip-path="url(#p5936b5c92c)" style="fill: none; stroke-dasharray: 3.7,1.6; stroke-dashoffset: 0; stroke: #d62728; stroke-opacity: 0.6"/>
   </g>
   <g id="line2d_98">
    <path d="M 103.827273 289.189397 
L 141.872727 286.36727 
L 179.918182 290.556436 
L 217.963636 288.151916 
L 256.009091 281.370714 
L 294.054545 263.609167 
L 332.1 243.957881 
L 370.145455 221.706997 
L 408.190909 235.644802 
L 446.236364 221.218557 
L 484.281818 191.895102 
L 522.327273 158.933085 
L 560.372727 122.170534 
" clip-path="url(#p5936b5c92c)" style="fill: none; stroke-dasharray: 3.7,1.6; stroke-dashoffset: 0; stroke: #9467bd; stroke-opacity: 0.6"/>
   </g>
   <g id="line2d_99">
    <path d="M 103.827273 289.189397 
L 141.872727 292.924973 
L 179.918182 294.799814 
L 217.963636 291.7675 
L 256.009091 285.876306 
L 294.054545 271.230808 
L 332.1 251.654505 
L 370.145455 227.402191 
L 408.190909 239.730032 
L 446.236364 223.84581 
L 484.281818 190.932788 
L 522.327273 151.931103 
L 560.372727 111.761302 
" clip-path="url(#p5936b5c92c)" style="fill: none; stroke-dasharray: 3.7,1.6; stroke-dashoffset: 0; stroke: #8c564b; stroke-opacity: 0.6"/>
   </g>
   <g id="line2d_100">
    <path d="M 103.827273 289.189397 
L 141.872727 300.376026 
L 179.918182 299.450227 
L 217.963636 292.442848 
L 256.009091 281.656972 
L 294.054545 262.699556 
L 332.1 238.711665 
L 370.145455 210.688445 
L 408.190909 222.267769 
L 446.236364 202.184268 
L 484.281818 168.441934 
L 522.327273 131.030044 
L 560.372727 91.909861 
" clip-path="url(#p5936b5c92c)" style="fill: none; stroke-dasharray: 3.7,1.6; stroke-dashoffset: 0; stroke: #e377c2; stroke-opacity: 0.6"/>
   </g>
   <g id="line2d_101">
    <path d="M 103.827273 289.189397 
L 141.872727 288.156127 
L 179.918182 291.502257 
L 217.963636 287.564718 
L 256.009091 275.136944 
L 294.054545 256.345265 
L 332.1 232.069794 
L 370.145455 206.043244 
L 408.190909 217.936089 
L 446.236364 200.821012 
L 484.281818 169.308277 
L 522.327273 135.644398 
L 560.372727 100.611952 
" clip-path="url(#p5936b5c92c)" style="fill: none; stroke-dasharray: 3.7,1.6; stroke-dashoffset: 0; stroke: #7f7f7f; stroke-opacity: 0.6"/>
   </g>
   <g id="line2d_102">
    <path d="M 103.827273 289.189397 
L 141.872727 301.19439 
L 179.918182 304.288934 
L 217.963636 298.144133 
L 256.009091 289.11364 
L 294.054545 272.177606 
L 332.1 250.137692 
L 370.145455 221.769717 
L 408.190909 232.433385 
L 446.236364 210.110798 
L 484.281818 173.439471 
L 522.327273 133.680053 
L 560.372727 94.601885 
" clip-path="url(#p5936b5c92c)" style="fill: none; stroke-dasharray: 3.7,1.6; stroke-dashoffset: 0; stroke: #bcbd22; stroke-opacity: 0.6"/>
   </g>
   <g id="line2d_103">
    <path d="M 103.827273 289.189397 
L 141.872727 301.329795 
L 179.918182 303.165241 
L 217.963636 294.842445 
L 256.009091 282.839462 
L 294.054545 262.184829 
L 332.1 240.689634 
L 370.145455 214.363802 
L 408.190909 222.611362 
L 446.236364 203.375408 
L 484.281818 168.864039 
L 522.327273 126.17345 
L 560.372727 85.867552 
" clip-path="url(#p5936b5c92c)" style="fill: none; stroke-dasharray: 3.7,1.6; stroke-dashoffset: 0; stroke: #17becf; stroke-opacity: 0.6"/>
   </g>
   <g id="line2d_104">
    <path d="M 103.827273 289.189397 
L 141.872727 289.957931 
L 179.918182 291.492135 
L 217.963636 288.704644 
L 256.009091 279.71329 
L 294.054545 262.464638 
L 332.1 240.481748 
L 370.145455 214.531575 
L 408.190909 225.461526 
L 446.236364 210.488667 
L 484.281818 176.77139 
L 522.327273 138.855951 
L 560.372727 100.235852 
" clip-path="url(#p5936b5c92c)" style="fill: none; stroke-dasharray: 3.7,1.6; stroke-dashoffset: 0; stroke: #1f77b4; stroke-opacity: 0.6"/>
   </g>
   <g id="line2d_105">
    <path d="M 103.827273 289.189397 
L 141.872727 301.923743 
L 179.918182 303.511533 
L 217.963636 296.525802 
L 256.009091 285.246079 
L 294.054545 265.424046 
L 332.1 243.914309 
L 370.145455 214.029674 
L 408.190909 221.058729 
L 446.236364 200.241784 
L 484.281818 167.07598 
L 522.327273 127.087766 
L 560.372727 87.802391 
" clip-path="url(#p5936b5c92c)" style="fill: none; stroke-dasharray: 3.7,1.6; stroke-dashoffset: 0; stroke: #ff7f0e; stroke-opacity: 0.6"/>
   </g>
   <g id="line2d_106">
    <path d="M 103.827273 289.189397 
L 141.872727 299.506952 
L 179.918182 301.629634 
L 217.963636 297.045183 
L 256.009091 288.060988 
L 294.054545 268.678905 
L 332.1 247.78569 
L 370.145455 223.037379 
L 408.190909 231.716788 
L 446.236364 214.847144 
L 484.281818 181.378415 
L 522.327273 143.115847 
L 560.372727 102.39012 
" clip-path="url(#p5936b5c92c)" style="fill: none; stroke-dasharray: 3.7,1.6; stroke-dashoffset: 0; stroke: #2ca02c; stroke-opacity: 0.6"/>
   </g>
   <g id="line2d_107">
    <path d="M 103.827273 289.189397 
L 141.872727 296.817733 
L 179.918182 297.560774 
L 217.963636 291.899646 
L 256.009091 279.912371 
L 294.054545 260.378267 
L 332.1 234.677011 
L 370.145455 206.998557 
L 408.190909 218.437282 
L 446.236364 196.971927 
L 484.281818 160.117679 
L 522.327273 119.074853 
L 560.372727 77.405921 
" clip-path="url(#p5936b5c92c)" style="fill: none; stroke-dasharray: 3.7,1.6; stroke-dashoffset: 0; stroke: #d62728; stroke-opacity: 0.6"/>
   </g>
   <g id="line2d_108">
    <path d="M 103.827273 289.189397 
L 141.872727 296.045223 
L 179.918182 299.404222 
L 217.963636 295.534631 
L 256.009091 286.178748 
L 294.054545 267.75448 
L 332.1 244.825771 
L 370.145455 217.404193 
L 408.190909 223.301177 
L 446.236364 202.383996 
L 484.281818 165.244667 
L 522.327273 125.038931 
L 560.372727 83.56812 
" clip-path="url(#p5936b5c92c)" style="fill: none; stroke-dasharray: 3.7,1.6; stroke-dashoffset: 0; stroke: #9467bd; stroke-opacity: 0.6"/>
   </g>
   <g id="line2d_109">
    <path d="M 103.827273 289.189397 
L 141.872727 296.308481 
L 179.918182 299.028537 
L 217.963636 296.369827 
L 256.009091 285.437952 
L 294.054545 267.94439 
L 332.1 248.291127 
L 370.145455 225.408244 
L 408.190909 238.678445 
L 446.236364 219.160957 
L 484.281818 186.402955 
L 522.327273 150.78219 
L 560.372727 114.164778 
" clip-path="url(#p5936b5c92c)" style="fill: none; stroke-dasharray: 3.7,1.6; stroke-dashoffset: 0; stroke: #8c564b; stroke-opacity: 0.6"/>
   </g>
   <g id="line2d_110">
    <path d="M 103.827273 289.189397 
L 141.872727 298.292083 
L 179.918182 298.326922 
L 217.963636 292.752759 
L 256.009091 285.781258 
L 294.054545 267.704565 
L 332.1 248.210569 
L 370.145455 223.151419 
L 408.190909 233.940307 
L 446.236364 216.245812 
L 484.281818 182.664666 
L 522.327273 147.319373 
L 560.372727 110.550061 
" clip-path="url(#p5936b5c92c)" style="fill: none; stroke-dasharray: 3.7,1.6; stroke-dashoffset: 0; stroke: #e377c2; stroke-opacity: 0.6"/>
   </g>
   <g id="line2d_111">
    <path d="M 103.827273 289.189397 
L 141.872727 296.606264 
L 179.918182 299.403754 
L 217.963636 296.815895 
L 256.009091 289.126854 
L 294.054545 269.940306 
L 332.1 246.463637 
L 370.145455 220.759002 
L 408.190909 228.194446 
L 446.236364 208.175536 
L 484.281818 171.29109 
L 522.327273 132.546433 
L 560.372727 93.265639 
" clip-path="url(#p5936b5c92c)" style="fill: none; stroke-dasharray: 3.7,1.6; stroke-dashoffset: 0; stroke: #7f7f7f; stroke-opacity: 0.6"/>
   </g>
   <g id="line2d_112">
    <path d="M 103.827273 289.189397 
L 141.872727 303.615496 
L 179.918182 307.8 
L 217.963636 303.259628 
L 256.009091 296.617704 
L 294.054545 280.093672 
L 332.1 259.792477 
L 370.145455 236.582189 
L 408.190909 244.703573 
L 446.236364 225.382348 
L 484.281818 192.943283 
L 522.327273 157.220537 
L 560.372727 116.97961 
" clip-path="url(#p5936b5c92c)" style="fill: none; stroke-dasharray: 3.7,1.6; stroke-dashoffset: 0; stroke: #bcbd22; stroke-opacity: 0.6"/>
   </g>
   <g id="line2d_113">
    <path d="M 103.827273 289.189397 
L 141.872727 298.086548 
L 179.918182 302.624184 
L 217.963636 300.335405 
L 256.009091 294.93688 
L 294.054545 280.699316 
L 332.1 259.892735 
L 370.145455 238.834749 
L 408.190909 246.207906 
L 446.236364 228.441687 
L 484.281818 193.806781 
L 522.327273 155.263202 
L 560.372727 113.736613 
" clip-path="url(#p5936b5c92c)" style="fill: none; stroke-dasharray: 3.7,1.6; stroke-dashoffset: 0; stroke: #17becf; stroke-opacity: 0.6"/>
   </g>
   <g id="line2d_114">
    <path d="M 103.827273 289.189397 
L 141.872727 294.055621 
L 179.918182 296.396636 
L 217.963636 292.276261 
L 256.009091 283.725111 
L 294.054545 266.224931 
L 332.1 244.801591 
L 370.145455 219.422485 
L 408.190909 229.80946 
L 446.236364 211.282446 
L 484.281818 177.322187 
L 522.327273 139.862574 
L 560.372727 101.023533 
" clip-path="url(#p5936b5c92c)" style="fill: none; stroke: #000000; stroke-width: 2.5; stroke-linecap: square"/>
   </g>
   <g id="patch_3">
    <path d="M 81 320.4 
L 81 43.2 
" style="fill: none; stroke: #000000; stroke-width: 0.8; stroke-linejoin: miter; stroke-linecap: square"/>
   </g>
   <g id="patch_4">
    <path d="M 583.2 320.4 
L 583.2 43.2 
" style="fill: none; stroke: #000000; stroke-width: 0.8; stroke-linejoin: miter; stroke-linecap: square"/>
   </g>
   <g id="patch_5">
    <path d="M 81 320.4 
L 583.2 320.4 
" style="fill: none; stroke: #000000; stroke-width: 0.8; stroke-linejoin: miter; stroke-linecap: square"/>
   </g>
   <g id="patch_6">
    <path d="M 81 43.2 
L 583.2 43.2 
" style="fill: none; stroke: #000000; stroke-width: 0.8; stroke-linejoin: miter; stroke-linecap: square"/>
   </g>
   <g id="legend_1">
    <g id="patch_7">
     <path d="M 88 65.878125 
L 161.065625 65.878125 
Q 163.065625 65.878125 163.065625 63.878125 
L 163.065625 50.2 
Q 163.065625 48.2 161.065625 48.2 
L 88 48.2 
Q 86 48.2 86 50.2 
L 86 63.878125 
Q 86 65.878125 88 65.878125 
z
" style="fill: #ffffff; opacity: 0.8; stroke: #cccccc; stroke-linejoin: miter"/>
    </g>
    <g id="line2d_115">
     <path d="M 90 56.298437 
L 100 56.298437 
L 110 56.298437 
" style="fill: none; stroke: #000000; stroke-width: 2.5; stroke-linecap: square"/>
    </g>
    <g id="text_16">
     <!-- Average -->
     <g transform="translate(118 59.798437) scale(0.1 -0.1)">
      <defs>
       <path id="DejaVuSans-41" d="M 2188 4044 
L 1331 1722 
L 3047 1722 
L 2188 4044 
z
M 1831 4666 
L 2547 4666 
L 4325 0 
L 3669 0 
L 3244 1197 
L 1141 1197 
L 716 0 
L 50 0 
L 1831 4666 
z
" transform="scale(0.015625)"/>
       <path id="DejaVuSans-67" d="M 2906 1791 
Q 2906 2416 2648 2759 
Q 2391 3103 1925 3103 
Q 1463 3103 1205 2759 
Q 947 2416 947 1791 
Q 947 1169 1205 825 
Q 1463 481 1925 481 
Q 2391 481 2648 825 
Q 2906 1169 2906 1791 
z
M 3481 434 
Q 3481 -459 3084 -895 
Q 2688 -1331 1869 -1331 
Q 1566 -1331 1297 -1286 
Q 1028 -1241 775 -1147 
L 775 -588 
Q 1028 -725 1275 -790 
Q 1522 -856 1778 -856 
Q 2344 -856 2625 -561 
Q 2906 -266 2906 331 
L 2906 616 
Q 2728 306 2450 153 
Q 2172 0 1784 0 
Q 1141 0 747 490 
Q 353 981 353 1791 
Q 353 2603 747 3093 
Q 1141 3584 1784 3584 
Q 2172 3584 2450 3431 
Q 2728 3278 2906 2969 
L 2906 3500 
L 3481 3500 
L 3481 434 
z
" transform="scale(0.015625)"/>
      </defs>
      <use xlink:href="#DejaVuSans-41"/>
      <use xlink:href="#DejaVuSans-76" x="62.533203"/>
      <use xlink:href="#DejaVuSans-65" x="121.712891"/>
      <use xlink:href="#DejaVuSans-72" x="183.236328"/>
      <use xlink:href="#DejaVuSans-61" x="224.349609"/>
      <use xlink:href="#DejaVuSans-67" x="285.628906"/>
      <use xlink:href="#DejaVuSans-65" x="349.105469"/>
     </g>
    </g>
   </g>
  </g>
 </g>
 <defs>
  <clipPath id="p5936b5c92c">
   <rect x="81" y="43.2" width="502.2" height="277.2"/>
  </clipPath>
 </defs>
</svg>
