<?xml version="1.0" encoding="utf-8" standalone="no"?>
<!DOCTYPE svg PUBLIC "-//W3C//DTD SVG 1.1//EN"
  "http://www.w3.org/Graphics/SVG/1.1/DTD/svg11.dtd">
<svg xmlns:xlink="http://www.w3.org/1999/xlink" width="648pt" height="360pt" viewBox="0 0 648 360" xmlns="http://www.w3.org/2000/svg" version="1.1">
 <metadata>
  <rdf:RDF xmlns:dc="http://purl.org/dc/elements/1.1/" xmlns:cc="http://creativecommons.org/ns#" xmlns:rdf="http://www.w3.org/1999/02/22-rdf-syntax-ns#">
   <cc:Work>
    <dc:type rdf:resource="http://purl.org/dc/dcmitype/StillImage"/>
    <dc:date>2025-08-28T15:34:08.980700</dc:date>
    <dc:format>image/svg+xml</dc:format>
    <dc:creator>
     <cc:Agent>
      <dc:title>Matplotlib v3.8.0, https://matplotlib.org/</dc:title>
     </cc:Agent>
    </dc:creator>
   </cc:Work>
  </rdf:RDF>
 </metadata>
 <defs>
  <style type="text/css">*{stroke-linejoin: round; stroke-linecap: butt}</style>
 </defs>
 <g id="figure_1">
  <g id="patch_1">
   <path d="M 0 360 
L 648 360 
L 648 0 
L 0 0 
z
" style="fill: #ffffff"/>
  </g>
  <g id="axes_1">
   <g id="patch_2">
    <path d="M 81 320.4 
L 583.2 320.4 
L 583.2 43.2 
L 81 43.2 
z
" style="fill: #ffffff"/>
   </g>
   <g id="matplotlib.axis_1">
    <g id="xtick_1">
     <g id="line2d_1">
      <defs>
       <path id="m38bbb35df2" d="M 0 0 
L 0 3.5 
" style="stroke: #000000; stroke-width: 0.8"/>
      </defs>
      <g>
       <use xlink:href="#m38bbb35df2" x="134.263636" y="320.4" style="stroke: #000000; stroke-width: 0.8"/>
      </g>
     </g>
     <g id="text_1">
      <!-- 1992 -->
      <g transform="translate(118.993636 336.518125) scale(0.12 -0.12)">
       <defs>
        <path id="DejaVuSans-31" d="M 794 531 
L 1825 531 
L 1825 4091 
L 703 3866 
L 703 4441 
L 1819 4666 
L 2450 4666 
L 2450 531 
L 3481 531 
L 3481 0 
L 794 0 
L 794 531 
z
" transform="scale(0.015625)"/>
        <path id="DejaVuSans-39" d="M 703 97 
L 703 672 
Q 941 559 1184 500 
Q 1428 441 1663 441 
Q 2288 441 2617 861 
Q 2947 1281 2994 2138 
Q 2813 1869 2534 1725 
Q 2256 1581 1919 1581 
Q 1219 1581 811 2004 
Q 403 2428 403 3163 
Q 403 3881 828 4315 
Q 1253 4750 1959 4750 
Q 2769 4750 3195 4129 
Q 3622 3509 3622 2328 
Q 3622 1225 3098 567 
Q 2575 -91 1691 -91 
Q 1453 -91 1209 -44 
Q 966 3 703 97 
z
M 1959 2075 
Q 2384 2075 2632 2365 
Q 2881 2656 2881 3163 
Q 2881 3666 2632 3958 
Q 2384 4250 1959 4250 
Q 1534 4250 1286 3958 
Q 1038 3666 1038 3163 
Q 1038 2656 1286 2365 
Q 1534 2075 1959 2075 
z
" transform="scale(0.015625)"/>
        <path id="DejaVuSans-32" d="M 1228 531 
L 3431 531 
L 3431 0 
L 469 0 
L 469 531 
Q 828 903 1448 1529 
Q 2069 2156 2228 2338 
Q 2531 2678 2651 2914 
Q 2772 3150 2772 3378 
Q 2772 3750 2511 3984 
Q 2250 4219 1831 4219 
Q 1534 4219 1204 4116 
Q 875 4013 500 3803 
L 500 4441 
Q 881 4594 1212 4672 
Q 1544 4750 1819 4750 
Q 2544 4750 2975 4387 
Q 3406 4025 3406 3419 
Q 3406 3131 3298 2873 
Q 3191 2616 2906 2266 
Q 2828 2175 2409 1742 
Q 1991 1309 1228 531 
z
" transform="scale(0.015625)"/>
       </defs>
       <use xlink:href="#DejaVuSans-31"/>
       <use xlink:href="#DejaVuSans-39" x="63.623047"/>
       <use xlink:href="#DejaVuSans-39" x="127.246094"/>
       <use xlink:href="#DejaVuSans-32" x="190.869141"/>
      </g>
     </g>
    </g>
    <g id="xtick_2">
     <g id="line2d_2">
      <g>
       <use xlink:href="#m38bbb35df2" x="195.136364" y="320.4" style="stroke: #000000; stroke-width: 0.8"/>
      </g>
     </g>
     <g id="text_2">
      <!-- 1994 -->
      <g transform="translate(179.866364 336.518125) scale(0.12 -0.12)">
       <defs>
        <path id="DejaVuSans-34" d="M 2419 4116 
L 825 1625 
L 2419 1625 
L 2419 4116 
z
M 2253 4666 
L 3047 4666 
L 3047 1625 
L 3713 1625 
L 3713 1100 
L 3047 1100 
L 3047 0 
L 2419 0 
L 2419 1100 
L 313 1100 
L 313 1709 
L 2253 4666 
z
" transform="scale(0.015625)"/>
       </defs>
       <use xlink:href="#DejaVuSans-31"/>
       <use xlink:href="#DejaVuSans-39" x="63.623047"/>
       <use xlink:href="#DejaVuSans-39" x="127.246094"/>
       <use xlink:href="#DejaVuSans-34" x="190.869141"/>
      </g>
     </g>
    </g>
    <g id="xtick_3">
     <g id="line2d_3">
      <g>
       <use xlink:href="#m38bbb35df2" x="256.009091" y="320.4" style="stroke: #000000; stroke-width: 0.8"/>
      </g>
     </g>
     <g id="text_3">
      <!-- 1996 -->
      <g transform="translate(240.739091 336.518125) scale(0.12 -0.12)">
       <defs>
        <path id="DejaVuSans-36" d="M 2113 2584 
Q 1688 2584 1439 2293 
Q 1191 2003 1191 1497 
Q 1191 994 1439 701 
Q 1688 409 2113 409 
Q 2538 409 2786 701 
Q 3034 994 3034 1497 
Q 3034 2003 2786 2293 
Q 2538 2584 2113 2584 
z
M 3366 4563 
L 3366 3988 
Q 3128 4100 2886 4159 
Q 2644 4219 2406 4219 
Q 1781 4219 1451 3797 
Q 1122 3375 1075 2522 
Q 1259 2794 1537 2939 
Q 1816 3084 2150 3084 
Q 2853 3084 3261 2657 
Q 3669 2231 3669 1497 
Q 3669 778 3244 343 
Q 2819 -91 2113 -91 
Q 1303 -91 875 529 
Q 447 1150 447 2328 
Q 447 3434 972 4092 
Q 1497 4750 2381 4750 
Q 2619 4750 2861 4703 
Q 3103 4656 3366 4563 
z
" transform="scale(0.015625)"/>
       </defs>
       <use xlink:href="#DejaVuSans-31"/>
       <use xlink:href="#DejaVuSans-39" x="63.623047"/>
       <use xlink:href="#DejaVuSans-39" x="127.246094"/>
       <use xlink:href="#DejaVuSans-36" x="190.869141"/>
      </g>
     </g>
    </g>
    <g id="xtick_4">
     <g id="line2d_4">
      <g>
       <use xlink:href="#m38bbb35df2" x="316.881818" y="320.4" style="stroke: #000000; stroke-width: 0.8"/>
      </g>
     </g>
     <g id="text_4">
      <!-- 1998 -->
      <g transform="translate(301.611818 336.518125) scale(0.12 -0.12)">
       <defs>
        <path id="DejaVuSans-38" d="M 2034 2216 
Q 1584 2216 1326 1975 
Q 1069 1734 1069 1313 
Q 1069 891 1326 650 
Q 1584 409 2034 409 
Q 2484 409 2743 651 
Q 3003 894 3003 1313 
Q 3003 1734 2745 1975 
Q 2488 2216 2034 2216 
z
M 1403 2484 
Q 997 2584 770 2862 
Q 544 3141 544 3541 
Q 544 4100 942 4425 
Q 1341 4750 2034 4750 
Q 2731 4750 3128 4425 
Q 3525 4100 3525 3541 
Q 3525 3141 3298 2862 
Q 3072 2584 2669 2484 
Q 3125 2378 3379 2068 
Q 3634 1759 3634 1313 
Q 3634 634 3220 271 
Q 2806 -91 2034 -91 
Q 1263 -91 848 271 
Q 434 634 434 1313 
Q 434 1759 690 2068 
Q 947 2378 1403 2484 
z
M 1172 3481 
Q 1172 3119 1398 2916 
Q 1625 2713 2034 2713 
Q 2441 2713 2670 2916 
Q 2900 3119 2900 3481 
Q 2900 3844 2670 4047 
Q 2441 4250 2034 4250 
Q 1625 4250 1398 4047 
Q 1172 3844 1172 3481 
z
" transform="scale(0.015625)"/>
       </defs>
       <use xlink:href="#DejaVuSans-31"/>
       <use xlink:href="#DejaVuSans-39" x="63.623047"/>
       <use xlink:href="#DejaVuSans-39" x="127.246094"/>
       <use xlink:href="#DejaVuSans-38" x="190.869141"/>
      </g>
     </g>
    </g>
    <g id="xtick_5">
     <g id="line2d_5">
      <g>
       <use xlink:href="#m38bbb35df2" x="377.754545" y="320.4" style="stroke: #000000; stroke-width: 0.8"/>
      </g>
     </g>
     <g id="text_5">
      <!-- 2000 -->
      <g transform="translate(362.484545 336.518125) scale(0.12 -0.12)">
       <defs>
        <path id="DejaVuSans-30" d="M 2034 4250 
Q 1547 4250 1301 3770 
Q 1056 3291 1056 2328 
Q 1056 1369 1301 889 
Q 1547 409 2034 409 
Q 2525 409 2770 889 
Q 3016 1369 3016 2328 
Q 3016 3291 2770 3770 
Q 2525 4250 2034 4250 
z
M 2034 4750 
Q 2819 4750 3233 4129 
Q 3647 3509 3647 2328 
Q 3647 1150 3233 529 
Q 2819 -91 2034 -91 
Q 1250 -91 836 529 
Q 422 1150 422 2328 
Q 422 3509 836 4129 
Q 1250 4750 2034 4750 
z
" transform="scale(0.015625)"/>
       </defs>
       <use xlink:href="#DejaVuSans-32"/>
       <use xlink:href="#DejaVuSans-30" x="63.623047"/>
       <use xlink:href="#DejaVuSans-30" x="127.246094"/>
       <use xlink:href="#DejaVuSans-30" x="190.869141"/>
      </g>
     </g>
    </g>
    <g id="xtick_6">
     <g id="line2d_6">
      <g>
       <use xlink:href="#m38bbb35df2" x="438.627273" y="320.4" style="stroke: #000000; stroke-width: 0.8"/>
      </g>
     </g>
     <g id="text_6">
      <!-- 2002 -->
      <g transform="translate(423.357273 336.518125) scale(0.12 -0.12)">
       <use xlink:href="#DejaVuSans-32"/>
       <use xlink:href="#DejaVuSans-30" x="63.623047"/>
       <use xlink:href="#DejaVuSans-30" x="127.246094"/>
       <use xlink:href="#DejaVuSans-32" x="190.869141"/>
      </g>
     </g>
    </g>
    <g id="xtick_7">
     <g id="line2d_7">
      <g>
       <use xlink:href="#m38bbb35df2" x="499.5" y="320.4" style="stroke: #000000; stroke-width: 0.8"/>
      </g>
     </g>
     <g id="text_7">
      <!-- 2004 -->
      <g transform="translate(484.23 336.518125) scale(0.12 -0.12)">
       <use xlink:href="#DejaVuSans-32"/>
       <use xlink:href="#DejaVuSans-30" x="63.623047"/>
       <use xlink:href="#DejaVuSans-30" x="127.246094"/>
       <use xlink:href="#DejaVuSans-34" x="190.869141"/>
      </g>
     </g>
    </g>
    <g id="xtick_8">
     <g id="line2d_8">
      <g>
       <use xlink:href="#m38bbb35df2" x="560.372727" y="320.4" style="stroke: #000000; stroke-width: 0.8"/>
      </g>
     </g>
     <g id="text_8">
      <!-- 2006 -->
      <g transform="translate(545.102727 336.518125) scale(0.12 -0.12)">
       <use xlink:href="#DejaVuSans-32"/>
       <use xlink:href="#DejaVuSans-30" x="63.623047"/>
       <use xlink:href="#DejaVuSans-30" x="127.246094"/>
       <use xlink:href="#DejaVuSans-36" x="190.869141"/>
      </g>
     </g>
    </g>
    <g id="text_9">
     <!-- Year -->
     <g transform="translate(316.21875 354.411406) scale(0.15 -0.15)">
      <defs>
       <path id="DejaVuSans-59" d="M -13 4666 
L 666 4666 
L 1959 2747 
L 3244 4666 
L 3922 4666 
L 2272 2222 
L 2272 0 
L 1638 0 
L 1638 2222 
L -13 4666 
z
" transform="scale(0.015625)"/>
       <path id="DejaVuSans-65" d="M 3597 1894 
L 3597 1613 
L 953 1613 
Q 991 1019 1311 708 
Q 1631 397 2203 397 
Q 2534 397 2845 478 
Q 3156 559 3463 722 
L 3463 178 
Q 3153 47 2828 -22 
Q 2503 -91 2169 -91 
Q 1331 -91 842 396 
Q 353 884 353 1716 
Q 353 2575 817 3079 
Q 1281 3584 2069 3584 
Q 2775 3584 3186 3129 
Q 3597 2675 3597 1894 
z
M 3022 2063 
Q 3016 2534 2758 2815 
Q 2500 3097 2075 3097 
Q 1594 3097 1305 2825 
Q 1016 2553 972 2059 
L 3022 2063 
z
" transform="scale(0.015625)"/>
       <path id="DejaVuSans-61" d="M 2194 1759 
Q 1497 1759 1228 1600 
Q 959 1441 959 1056 
Q 959 750 1161 570 
Q 1363 391 1709 391 
Q 2188 391 2477 730 
Q 2766 1069 2766 1631 
L 2766 1759 
L 2194 1759 
z
M 3341 1997 
L 3341 0 
L 2766 0 
L 2766 531 
Q 2569 213 2275 61 
Q 1981 -91 1556 -91 
Q 1019 -91 701 211 
Q 384 513 384 1019 
Q 384 1609 779 1909 
Q 1175 2209 1959 2209 
L 2766 2209 
L 2766 2266 
Q 2766 2663 2505 2880 
Q 2244 3097 1772 3097 
Q 1472 3097 1187 3025 
Q 903 2953 641 2809 
L 641 3341 
Q 956 3463 1253 3523 
Q 1550 3584 1831 3584 
Q 2591 3584 2966 3190 
Q 3341 2797 3341 1997 
z
" transform="scale(0.015625)"/>
       <path id="DejaVuSans-72" d="M 2631 2963 
Q 2534 3019 2420 3045 
Q 2306 3072 2169 3072 
Q 1681 3072 1420 2755 
Q 1159 2438 1159 1844 
L 1159 0 
L 581 0 
L 581 3500 
L 1159 3500 
L 1159 2956 
Q 1341 3275 1631 3429 
Q 1922 3584 2338 3584 
Q 2397 3584 2469 3576 
Q 2541 3569 2628 3553 
L 2631 2963 
z
" transform="scale(0.015625)"/>
      </defs>
      <use xlink:href="#DejaVuSans-59"/>
      <use xlink:href="#DejaVuSans-65" x="47.833984"/>
      <use xlink:href="#DejaVuSans-61" x="109.357422"/>
      <use xlink:href="#DejaVuSans-72" x="170.636719"/>
     </g>
    </g>
   </g>
   <g id="matplotlib.axis_2">
    <g id="ytick_1">
     <g id="line2d_9">
      <defs>
       <path id="mb2de75ccb2" d="M 0 0 
L -3.5 0 
" style="stroke: #000000; stroke-width: 0.8"/>
      </defs>
      <g>
       <use xlink:href="#mb2de75ccb2" x="81" y="317.313633" style="stroke: #000000; stroke-width: 0.8"/>
      </g>
     </g>
     <g id="text_10">
      <!-- 20 -->
      <g transform="translate(58.73 321.872695) scale(0.12 -0.12)">
       <use xlink:href="#DejaVuSans-32"/>
       <use xlink:href="#DejaVuSans-30" x="63.623047"/>
      </g>
     </g>
    </g>
    <g id="ytick_2">
     <g id="line2d_10">
      <g>
       <use xlink:href="#mb2de75ccb2" x="81" y="282.649149" style="stroke: #000000; stroke-width: 0.8"/>
      </g>
     </g>
     <g id="text_11">
      <!-- 25 -->
      <g transform="translate(58.73 287.208212) scale(0.12 -0.12)">
       <defs>
        <path id="DejaVuSans-35" d="M 691 4666 
L 3169 4666 
L 3169 4134 
L 1269 4134 
L 1269 2991 
Q 1406 3038 1543 3061 
Q 1681 3084 1819 3084 
Q 2600 3084 3056 2656 
Q 3513 2228 3513 1497 
Q 3513 744 3044 326 
Q 2575 -91 1722 -91 
Q 1428 -91 1123 -41 
Q 819 9 494 109 
L 494 744 
Q 775 591 1075 516 
Q 1375 441 1709 441 
Q 2250 441 2565 725 
Q 2881 1009 2881 1497 
Q 2881 1984 2565 2268 
Q 2250 2553 1709 2553 
Q 1456 2553 1204 2497 
Q 953 2441 691 2322 
L 691 4666 
z
" transform="scale(0.015625)"/>
       </defs>
       <use xlink:href="#DejaVuSans-32"/>
       <use xlink:href="#DejaVuSans-35" x="63.623047"/>
      </g>
     </g>
    </g>
    <g id="ytick_3">
     <g id="line2d_11">
      <g>
       <use xlink:href="#mb2de75ccb2" x="81" y="247.984666" style="stroke: #000000; stroke-width: 0.8"/>
      </g>
     </g>
     <g id="text_12">
      <!-- 30 -->
      <g transform="translate(58.73 252.543728) scale(0.12 -0.12)">
       <defs>
        <path id="DejaVuSans-33" d="M 2597 2516 
Q 3050 2419 3304 2112 
Q 3559 1806 3559 1356 
Q 3559 666 3084 287 
Q 2609 -91 1734 -91 
Q 1441 -91 1130 -33 
Q 819 25 488 141 
L 488 750 
Q 750 597 1062 519 
Q 1375 441 1716 441 
Q 2309 441 2620 675 
Q 2931 909 2931 1356 
Q 2931 1769 2642 2001 
Q 2353 2234 1838 2234 
L 1294 2234 
L 1294 2753 
L 1863 2753 
Q 2328 2753 2575 2939 
Q 2822 3125 2822 3475 
Q 2822 3834 2567 4026 
Q 2313 4219 1838 4219 
Q 1578 4219 1281 4162 
Q 984 4106 628 3988 
L 628 4550 
Q 988 4650 1302 4700 
Q 1616 4750 1894 4750 
Q 2613 4750 3031 4423 
Q 3450 4097 3450 3541 
Q 3450 3153 3228 2886 
Q 3006 2619 2597 2516 
z
" transform="scale(0.015625)"/>
       </defs>
       <use xlink:href="#DejaVuSans-33"/>
       <use xlink:href="#DejaVuSans-30" x="63.623047"/>
      </g>
     </g>
    </g>
    <g id="ytick_4">
     <g id="line2d_12">
      <g>
       <use xlink:href="#mb2de75ccb2" x="81" y="213.320183" style="stroke: #000000; stroke-width: 0.8"/>
      </g>
     </g>
     <g id="text_13">
      <!-- 35 -->
      <g transform="translate(58.73 217.879245) scale(0.12 -0.12)">
       <use xlink:href="#DejaVuSans-33"/>
       <use xlink:href="#DejaVuSans-35" x="63.623047"/>
      </g>
     </g>
    </g>
    <g id="ytick_5">
     <g id="line2d_13">
      <g>
       <use xlink:href="#mb2de75ccb2" x="81" y="178.655699" style="stroke: #000000; stroke-width: 0.8"/>
      </g>
     </g>
     <g id="text_14">
      <!-- 40 -->
      <g transform="translate(58.73 183.214762) scale(0.12 -0.12)">
       <use xlink:href="#DejaVuSans-34"/>
       <use xlink:href="#DejaVuSans-30" x="63.623047"/>
      </g>
     </g>
    </g>
    <g id="ytick_6">
     <g id="line2d_14">
      <g>
       <use xlink:href="#mb2de75ccb2" x="81" y="143.991216" style="stroke: #000000; stroke-width: 0.8"/>
      </g>
     </g>
     <g id="text_15">
      <!-- 45 -->
      <g transform="translate(58.73 148.550278) scale(0.12 -0.12)">
       <use xlink:href="#DejaVuSans-34"/>
       <use xlink:href="#DejaVuSans-35" x="63.623047"/>
      </g>
     </g>
    </g>
    <g id="ytick_7">
     <g id="line2d_15">
      <g>
       <use xlink:href="#mb2de75ccb2" x="81" y="109.326732" style="stroke: #000000; stroke-width: 0.8"/>
      </g>
     </g>
     <g id="text_16">
      <!-- 50 -->
      <g transform="translate(58.73 113.885795) scale(0.12 -0.12)">
       <use xlink:href="#DejaVuSans-35"/>
       <use xlink:href="#DejaVuSans-30" x="63.623047"/>
      </g>
     </g>
    </g>
    <g id="ytick_8">
     <g id="line2d_16">
      <g>
       <use xlink:href="#mb2de75ccb2" x="81" y="74.662249" style="stroke: #000000; stroke-width: 0.8"/>
      </g>
     </g>
     <g id="text_17">
      <!-- 55 -->
      <g transform="translate(58.73 79.221311) scale(0.12 -0.12)">
       <use xlink:href="#DejaVuSans-35"/>
       <use xlink:href="#DejaVuSans-35" x="63.623047"/>
      </g>
     </g>
    </g>
    <g id="text_18">
     <!-- Total coral cover (%) -->
     <g transform="translate(51.610469 258.769922) rotate(-90) scale(0.15 -0.15)">
      <defs>
       <path id="DejaVuSans-54" d="M -19 4666 
L 3928 4666 
L 3928 4134 
L 2272 4134 
L 2272 0 
L 1638 0 
L 1638 4134 
L -19 4134 
L -19 4666 
z
" transform="scale(0.015625)"/>
       <path id="DejaVuSans-6f" d="M 1959 3097 
Q 1497 3097 1228 2736 
Q 959 2375 959 1747 
Q 959 1119 1226 758 
Q 1494 397 1959 397 
Q 2419 397 2687 759 
Q 2956 1122 2956 1747 
Q 2956 2369 2687 2733 
Q 2419 3097 1959 3097 
z
M 1959 3584 
Q 2709 3584 3137 3096 
Q 3566 2609 3566 1747 
Q 3566 888 3137 398 
Q 2709 -91 1959 -91 
Q 1206 -91 779 398 
Q 353 888 353 1747 
Q 353 2609 779 3096 
Q 1206 3584 1959 3584 
z
" transform="scale(0.015625)"/>
       <path id="DejaVuSans-74" d="M 1172 4494 
L 1172 3500 
L 2356 3500 
L 2356 3053 
L 1172 3053 
L 1172 1153 
Q 1172 725 1289 603 
Q 1406 481 1766 481 
L 2356 481 
L 2356 0 
L 1766 0 
Q 1100 0 847 248 
Q 594 497 594 1153 
L 594 3053 
L 172 3053 
L 172 3500 
L 594 3500 
L 594 4494 
L 1172 4494 
z
" transform="scale(0.015625)"/>
       <path id="DejaVuSans-6c" d="M 603 4863 
L 1178 4863 
L 1178 0 
L 603 0 
L 603 4863 
z
" transform="scale(0.015625)"/>
       <path id="DejaVuSans-20" transform="scale(0.015625)"/>
       <path id="DejaVuSans-63" d="M 3122 3366 
L 3122 2828 
Q 2878 2963 2633 3030 
Q 2388 3097 2138 3097 
Q 1578 3097 1268 2742 
Q 959 2388 959 1747 
Q 959 1106 1268 751 
Q 1578 397 2138 397 
Q 2388 397 2633 464 
Q 2878 531 3122 666 
L 3122 134 
Q 2881 22 2623 -34 
Q 2366 -91 2075 -91 
Q 1284 -91 818 406 
Q 353 903 353 1747 
Q 353 2603 823 3093 
Q 1294 3584 2113 3584 
Q 2378 3584 2631 3529 
Q 2884 3475 3122 3366 
z
" transform="scale(0.015625)"/>
       <path id="DejaVuSans-76" d="M 191 3500 
L 800 3500 
L 1894 563 
L 2988 3500 
L 3597 3500 
L 2284 0 
L 1503 0 
L 191 3500 
z
" transform="scale(0.015625)"/>
       <path id="DejaVuSans-28" d="M 1984 4856 
Q 1566 4138 1362 3434 
Q 1159 2731 1159 2009 
Q 1159 1288 1364 580 
Q 1569 -128 1984 -844 
L 1484 -844 
Q 1016 -109 783 600 
Q 550 1309 550 2009 
Q 550 2706 781 3412 
Q 1013 4119 1484 4856 
L 1984 4856 
z
" transform="scale(0.015625)"/>
       <path id="DejaVuSans-25" d="M 4653 2053 
Q 4381 2053 4226 1822 
Q 4072 1591 4072 1178 
Q 4072 772 4226 539 
Q 4381 306 4653 306 
Q 4919 306 5073 539 
Q 5228 772 5228 1178 
Q 5228 1588 5073 1820 
Q 4919 2053 4653 2053 
z
M 4653 2450 
Q 5147 2450 5437 2106 
Q 5728 1763 5728 1178 
Q 5728 594 5436 251 
Q 5144 -91 4653 -91 
Q 4153 -91 3862 251 
Q 3572 594 3572 1178 
Q 3572 1766 3864 2108 
Q 4156 2450 4653 2450 
z
M 1428 4353 
Q 1159 4353 1004 4120 
Q 850 3888 850 3481 
Q 850 3069 1003 2837 
Q 1156 2606 1428 2606 
Q 1700 2606 1854 2837 
Q 2009 3069 2009 3481 
Q 2009 3884 1853 4118 
Q 1697 4353 1428 4353 
z
M 4250 4750 
L 4750 4750 
L 1831 -91 
L 1331 -91 
L 4250 4750 
z
M 1428 4750 
Q 1922 4750 2215 4408 
Q 2509 4066 2509 3481 
Q 2509 2891 2217 2550 
Q 1925 2209 1428 2209 
Q 931 2209 642 2551 
Q 353 2894 353 3481 
Q 353 4063 643 4406 
Q 934 4750 1428 4750 
z
" transform="scale(0.015625)"/>
       <path id="DejaVuSans-29" d="M 513 4856 
L 1013 4856 
Q 1481 4119 1714 3412 
Q 1947 2706 1947 2009 
Q 1947 1309 1714 600 
Q 1481 -109 1013 -844 
L 513 -844 
Q 928 -128 1133 580 
Q 1338 1288 1338 2009 
Q 1338 2731 1133 3434 
Q 928 4138 513 4856 
z
" transform="scale(0.015625)"/>
      </defs>
      <use xlink:href="#DejaVuSans-54"/>
      <use xlink:href="#DejaVuSans-6f" x="44.083984"/>
      <use xlink:href="#DejaVuSans-74" x="105.265625"/>
      <use xlink:href="#DejaVuSans-61" x="144.474609"/>
      <use xlink:href="#DejaVuSans-6c" x="205.753906"/>
      <use xlink:href="#DejaVuSans-20" x="233.537109"/>
      <use xlink:href="#DejaVuSans-63" x="265.324219"/>
      <use xlink:href="#DejaVuSans-6f" x="320.304688"/>
      <use xlink:href="#DejaVuSans-72" x="381.486328"/>
      <use xlink:href="#DejaVuSans-61" x="422.599609"/>
      <use xlink:href="#DejaVuSans-6c" x="483.878906"/>
      <use xlink:href="#DejaVuSans-20" x="511.662109"/>
      <use xlink:href="#DejaVuSans-63" x="543.449219"/>
      <use xlink:href="#DejaVuSans-6f" x="598.429688"/>
      <use xlink:href="#DejaVuSans-76" x="659.611328"/>
      <use xlink:href="#DejaVuSans-65" x="718.791016"/>
      <use xlink:href="#DejaVuSans-72" x="780.314453"/>
      <use xlink:href="#DejaVuSans-20" x="821.427734"/>
      <use xlink:href="#DejaVuSans-28" x="853.214844"/>
      <use xlink:href="#DejaVuSans-25" x="892.228516"/>
      <use xlink:href="#DejaVuSans-29" x="987.248047"/>
     </g>
    </g>
   </g>
   <g id="line2d_17">
    <path d="M 103.827273 102.393836 
L 134.263636 305.783481 
L 164.7 305.367272 
L 195.136364 295.426795 
L 225.572727 280.126516 
L 256.009091 259.601883 
L 286.445455 235.477641 
L 316.881818 209.294341 
L 347.318182 181.441986 
L 377.754545 206.640543 
L 408.190909 173.443974 
L 438.627273 143.547738 
L 469.063636 142.941632 
L 499.5 128.873236 
L 529.936364 105.045683 
L 560.372727 84.15623 
" clip-path="url(#pef92437b98)" style="fill: none; stroke-dasharray: 3.7,1.6; stroke-dashoffset: 0; stroke: #1f77b4; stroke-opacity: 0.6"/>
   </g>
   <g id="line2d_18">
    <path d="M 103.827273 102.393836 
L 134.263636 306.225826 
L 164.7 306.806953 
L 195.136364 297.861768 
L 225.572727 282.831089 
L 256.009091 261.394745 
L 286.445455 236.129078 
L 316.881818 207.654826 
L 347.318182 179.299753 
L 377.754545 205.677512 
L 408.190909 171.110619 
L 438.627273 139.027161 
L 469.063636 138.464071 
L 499.5 124.776354 
L 529.936364 102.17694 
L 560.372727 81.560149 
" clip-path="url(#pef92437b98)" style="fill: none; stroke-dasharray: 3.7,1.6; stroke-dashoffset: 0; stroke: #ff7f0e; stroke-opacity: 0.6"/>
   </g>
   <g id="line2d_19">
    <path d="M 103.827273 102.393836 
L 134.263636 306.327037 
L 164.7 306.546542 
L 195.136364 298.296014 
L 225.572727 284.167926 
L 256.009091 264.768996 
L 286.445455 241.634534 
L 316.881818 216.176383 
L 347.318182 189.182173 
L 377.754545 214.927689 
L 408.190909 183.127512 
L 438.627273 153.126935 
L 469.063636 151.340062 
L 499.5 136.22056 
L 529.936364 112.582973 
L 560.372727 91.220682 
" clip-path="url(#pef92437b98)" style="fill: none; stroke-dasharray: 3.7,1.6; stroke-dashoffset: 0; stroke: #2ca02c; stroke-opacity: 0.6"/>
   </g>
   <g id="line2d_20">
    <path d="M 103.827273 102.393836 
L 134.263636 304.767224 
L 164.7 302.713338 
L 195.136364 290.332918 
L 225.572727 271.872585 
L 256.009091 248.31749 
L 286.445455 222.075043 
L 316.881818 194.042455 
L 347.318182 166.51946 
L 377.754545 196.77194 
L 408.190909 165.582293 
L 438.627273 138.055486 
L 469.063636 139.050983 
L 499.5 126.764423 
L 529.936364 105.97686 
L 560.372727 84.629884 
" clip-path="url(#pef92437b98)" style="fill: none; stroke-dasharray: 3.7,1.6; stroke-dashoffset: 0; stroke: #d62728; stroke-opacity: 0.6"/>
   </g>
   <g id="line2d_21">
    <path d="M 103.827273 102.393836 
L 134.263636 306.064379 
L 164.7 305.995227 
L 195.136364 296.494439 
L 225.572727 281.898891 
L 256.009091 262.264597 
L 286.445455 238.409955 
L 316.881818 211.08659 
L 347.318182 182.702387 
L 377.754545 206.349163 
L 408.190909 172.434795 
L 438.627273 142.035706 
L 469.063636 139.822892 
L 499.5 123.668144 
L 529.936364 100.46555 
L 560.372727 79.205491 
" clip-path="url(#pef92437b98)" style="fill: none; stroke-dasharray: 3.7,1.6; stroke-dashoffset: 0; stroke: #9467bd; stroke-opacity: 0.6"/>
   </g>
   <g id="line2d_22">
    <path d="M 103.827273 102.393836 
L 134.263636 305.172883 
L 164.7 304.15683 
L 195.136364 292.922396 
L 225.572727 275.630918 
L 256.009091 252.54274 
L 286.445455 225.4009 
L 316.881818 195.971172 
L 347.318182 167.889035 
L 377.754545 195.357647 
L 408.190909 162.666042 
L 438.627273 132.795807 
L 469.063636 131.915268 
L 499.5 118.942219 
L 529.936364 95.036121 
L 560.372727 71.383899 
" clip-path="url(#pef92437b98)" style="fill: none; stroke-dasharray: 3.7,1.6; stroke-dashoffset: 0; stroke: #8c564b; stroke-opacity: 0.6"/>
   </g>
   <g id="line2d_23">
    <path d="M 103.827273 102.393836 
L 134.263636 304.945142 
L 164.7 303.399691 
L 195.136364 291.888375 
L 225.572727 274.246437 
L 256.009091 253.104741 
L 286.445455 227.978671 
L 316.881818 201.363167 
L 347.318182 174.57553 
L 377.754545 203.752266 
L 408.190909 172.012801 
L 438.627273 143.17019 
L 469.063636 141.982821 
L 499.5 127.380738 
L 529.936364 104.345377 
L 560.372727 83.363629 
" clip-path="url(#pef92437b98)" style="fill: none; stroke-dasharray: 3.7,1.6; stroke-dashoffset: 0; stroke: #e377c2; stroke-opacity: 0.6"/>
   </g>
   <g id="line2d_24">
    <path d="M 103.827273 102.393836 
L 134.263636 305.148788 
L 164.7 303.940388 
L 195.136364 292.577586 
L 225.572727 274.486974 
L 256.009091 252.714328 
L 286.445455 226.931513 
L 316.881818 199.869036 
L 347.318182 172.203992 
L 377.754545 199.349235 
L 408.190909 167.717038 
L 438.627273 139.018993 
L 469.063636 138.243818 
L 499.5 124.45455 
L 529.936364 101.345068 
L 560.372727 80.470792 
" clip-path="url(#pef92437b98)" style="fill: none; stroke-dasharray: 3.7,1.6; stroke-dashoffset: 0; stroke: #7f7f7f; stroke-opacity: 0.6"/>
   </g>
   <g id="line2d_25">
    <path d="M 103.827273 102.393836 
L 134.263636 304.385796 
L 164.7 303.115526 
L 195.136364 292.510067 
L 225.572727 276.792014 
L 256.009091 257.226874 
L 286.445455 234.183549 
L 316.881818 208.330833 
L 347.318182 181.076689 
L 377.754545 205.334131 
L 408.190909 172.240134 
L 438.627273 141.576481 
L 469.063636 138.851829 
L 499.5 123.799234 
L 529.936364 101.299669 
L 560.372727 79.023897 
" clip-path="url(#pef92437b98)" style="fill: none; stroke-dasharray: 3.7,1.6; stroke-dashoffset: 0; stroke: #bcbd22; stroke-opacity: 0.6"/>
   </g>
   <g id="line2d_26">
    <path d="M 103.827273 102.393836 
L 134.263636 304.865848 
L 164.7 303.784046 
L 195.136364 293.180017 
L 225.572727 276.92855 
L 256.009091 256.917865 
L 286.445455 233.316419 
L 316.881818 207.034222 
L 347.318182 179.14593 
L 377.754545 203.581767 
L 408.190909 170.055293 
L 438.627273 139.981889 
L 469.063636 138.068758 
L 499.5 124.178688 
L 529.936364 102.362005 
L 560.372727 80.7229 
" clip-path="url(#pef92437b98)" style="fill: none; stroke-dasharray: 3.7,1.6; stroke-dashoffset: 0; stroke: #17becf; stroke-opacity: 0.6"/>
   </g>
   <g id="line2d_27">
    <path d="M 103.827273 102.393836 
L 134.263636 306.250737 
L 164.7 306.698868 
L 195.136364 297.881371 
L 225.572727 283.676711 
L 256.009091 264.564193 
L 286.445455 240.979831 
L 316.881818 215.093696 
L 347.318182 187.163953 
L 377.754545 211.151523 
L 408.190909 177.254784 
L 438.627273 145.753406 
L 469.063636 143.021879 
L 499.5 127.318392 
L 529.936364 103.554955 
L 560.372727 81.104124 
" clip-path="url(#pef92437b98)" style="fill: none; stroke-dasharray: 3.7,1.6; stroke-dashoffset: 0; stroke: #1f77b4; stroke-opacity: 0.6"/>
   </g>
   <g id="line2d_28">
    <path d="M 103.827273 102.393836 
L 134.263636 305.389597 
L 164.7 304.667851 
L 195.136364 294.784955 
L 225.572727 279.381016 
L 256.009091 259.411101 
L 286.445455 235.102067 
L 316.881818 208.824974 
L 347.318182 182.411347 
L 377.754545 208.762492 
L 408.190909 174.633384 
L 438.627273 142.825584 
L 469.063636 141.344725 
L 499.5 126.850251 
L 529.936364 104.322712 
L 560.372727 81.344592 
" clip-path="url(#pef92437b98)" style="fill: none; stroke-dasharray: 3.7,1.6; stroke-dashoffset: 0; stroke: #ff7f0e; stroke-opacity: 0.6"/>
   </g>
   <g id="line2d_29">
    <path d="M 103.827273 102.393836 
L 134.263636 306.423551 
L 164.7 306.697575 
L 195.136364 298.179965 
L 225.572727 284.214753 
L 256.009091 264.954401 
L 286.445455 241.17388 
L 316.881818 213.00714 
L 347.318182 183.008468 
L 377.754545 206.57595 
L 408.190909 170.204421 
L 438.627273 137.700398 
L 469.063636 135.951641 
L 499.5 122.19872 
L 529.936364 99.906204 
L 560.372727 79.936017 
" clip-path="url(#pef92437b98)" style="fill: none; stroke-dasharray: 3.7,1.6; stroke-dashoffset: 0; stroke: #2ca02c; stroke-opacity: 0.6"/>
   </g>
   <g id="line2d_30">
    <path d="M 103.827273 102.393836 
L 134.263636 306.164705 
L 164.7 306.372707 
L 195.136364 297.446172 
L 225.572727 283.032149 
L 256.009091 262.817205 
L 286.445455 238.522532 
L 316.881818 211.127633 
L 347.318182 181.747251 
L 377.754545 205.291659 
L 408.190909 171.791254 
L 438.627273 140.968878 
L 469.063636 137.743823 
L 499.5 121.23317 
L 529.936364 97.948628 
L 560.372727 76.313811 
" clip-path="url(#pef92437b98)" style="fill: none; stroke-dasharray: 3.7,1.6; stroke-dashoffset: 0; stroke: #d62728; stroke-opacity: 0.6"/>
   </g>
   <g id="line2d_31">
    <path d="M 103.827273 102.393836 
L 134.263636 303.584416 
L 164.7 301.217778 
L 195.136364 288.650047 
L 225.572727 270.522817 
L 256.009091 248.306941 
L 286.445455 223.526226 
L 316.881818 197.377297 
L 347.318182 170.869061 
L 377.754545 197.313454 
L 408.190909 164.365861 
L 438.627273 135.933809 
L 469.063636 134.636926 
L 499.5 120.711871 
L 529.936364 97.766694 
L 560.372727 74.160008 
" clip-path="url(#pef92437b98)" style="fill: none; stroke-dasharray: 3.7,1.6; stroke-dashoffset: 0; stroke: #9467bd; stroke-opacity: 0.6"/>
   </g>
   <g id="line2d_32">
    <path d="M 103.827273 102.393836 
L 134.263636 303.484226 
L 164.7 300.042797 
L 195.136364 286.49917 
L 225.572727 267.413129 
L 256.009091 245.385925 
L 286.445455 221.263317 
L 316.881818 195.63453 
L 347.318182 169.870773 
L 377.754545 197.620829 
L 408.190909 166.492439 
L 438.627273 136.573062 
L 469.063636 134.907955 
L 499.5 120.712007 
L 529.936364 97.715647 
L 560.372727 75.43865 
" clip-path="url(#pef92437b98)" style="fill: none; stroke-dasharray: 3.7,1.6; stroke-dashoffset: 0; stroke: #8c564b; stroke-opacity: 0.6"/>
   </g>
   <g id="line2d_33">
    <path d="M 103.827273 102.393836 
L 134.263636 305.222842 
L 164.7 304.792272 
L 195.136364 294.997994 
L 225.572727 280.546877 
L 256.009091 261.825383 
L 286.445455 239.56336 
L 316.881818 215.473967 
L 347.318182 190.601366 
L 377.754545 215.910595 
L 408.190909 183.876211 
L 438.627273 153.732768 
L 469.063636 150.733003 
L 499.5 135.737445 
L 529.936364 112.900149 
L 560.372727 91.769546 
" clip-path="url(#pef92437b98)" style="fill: none; stroke-dasharray: 3.7,1.6; stroke-dashoffset: 0; stroke: #e377c2; stroke-opacity: 0.6"/>
   </g>
   <g id="line2d_34">
    <path d="M 103.827273 102.393836 
L 134.263636 305.860189 
L 164.7 304.347953 
L 195.136364 293.4618 
L 225.572727 277.775397 
L 256.009091 256.626893 
L 286.445455 232.179281 
L 316.881818 206.186967 
L 347.318182 178.91465 
L 377.754545 206.114139 
L 408.190909 173.797223 
L 438.627273 145.258447 
L 469.063636 144.94624 
L 499.5 132.485641 
L 529.936364 111.932898 
L 560.372727 91.647168 
" clip-path="url(#pef92437b98)" style="fill: none; stroke-dasharray: 3.7,1.6; stroke-dashoffset: 0; stroke: #7f7f7f; stroke-opacity: 0.6"/>
   </g>
   <g id="line2d_35">
    <path d="M 103.827273 102.393836 
L 134.263636 305.903749 
L 164.7 305.744957 
L 195.136364 295.800327 
L 225.572727 280.503044 
L 256.009091 261.099622 
L 286.445455 237.572093 
L 316.881818 211.485511 
L 347.318182 185.117145 
L 377.754545 211.559224 
L 408.190909 179.19548 
L 438.627273 149.349271 
L 469.063636 147.650949 
L 499.5 133.51238 
L 529.936364 111.797179 
L 560.372727 88.964783 
" clip-path="url(#pef92437b98)" style="fill: none; stroke-dasharray: 3.7,1.6; stroke-dashoffset: 0; stroke: #bcbd22; stroke-opacity: 0.6"/>
   </g>
   <g id="line2d_36">
    <path d="M 103.827273 102.393836 
L 134.263636 306.246313 
L 164.7 306.9343 
L 195.136364 298.389261 
L 225.572727 284.061202 
L 256.009091 264.691404 
L 286.445455 241.19954 
L 316.881818 215.429589 
L 347.318182 188.189466 
L 377.754545 214.434228 
L 408.190909 183.159501 
L 438.627273 154.873037 
L 469.063636 154.155715 
L 499.5 140.67532 
L 529.936364 118.748578 
L 560.372727 97.319925 
" clip-path="url(#pef92437b98)" style="fill: none; stroke-dasharray: 3.7,1.6; stroke-dashoffset: 0; stroke: #17becf; stroke-opacity: 0.6"/>
   </g>
   <g id="line2d_37">
    <path d="M 103.827273 102.393836 
L 134.263636 306.805864 
L 164.7 307.393048 
L 195.136364 298.827318 
L 225.572727 284.202638 
L 256.009091 264.635523 
L 286.445455 239.309347 
L 316.881818 210.604292 
L 347.318182 181.313073 
L 377.754545 204.640291 
L 408.190909 169.198577 
L 438.627273 136.196466 
L 469.063636 133.537155 
L 499.5 117.467214 
L 529.936364 95.048917 
L 560.372727 74.404968 
" clip-path="url(#pef92437b98)" style="fill: none; stroke-dasharray: 3.7,1.6; stroke-dashoffset: 0; stroke: #1f77b4; stroke-opacity: 0.6"/>
   </g>
   <g id="line2d_38">
    <path d="M 103.827273 102.393836 
L 134.263636 304.833178 
L 164.7 303.369675 
L 195.136364 292.610733 
L 225.572727 276.748794 
L 256.009091 256.422839 
L 286.445455 233.728 
L 316.881818 207.831723 
L 347.318182 181.997929 
L 377.754545 209.582726 
L 408.190909 176.251323 
L 438.627273 145.163635 
L 469.063636 142.604513 
L 499.5 126.762653 
L 529.936364 102.066133 
L 560.372727 79.649333 
" clip-path="url(#pef92437b98)" style="fill: none; stroke-dasharray: 3.7,1.6; stroke-dashoffset: 0; stroke: #ff7f0e; stroke-opacity: 0.6"/>
   </g>
   <g id="line2d_39">
    <path d="M 103.827273 102.393836 
L 134.263636 305.983248 
L 164.7 305.759387 
L 195.136364 295.973957 
L 225.572727 280.905708 
L 256.009091 261.342745 
L 286.445455 238.615099 
L 316.881818 213.333504 
L 347.318182 185.537642 
L 377.754545 210.897714 
L 408.190909 178.296497 
L 438.627273 148.533325 
L 469.063636 147.071729 
L 499.5 131.799152 
L 529.936364 107.642171 
L 560.372727 85.608365 
" clip-path="url(#pef92437b98)" style="fill: none; stroke-dasharray: 3.7,1.6; stroke-dashoffset: 0; stroke: #2ca02c; stroke-opacity: 0.6"/>
   </g>
   <g id="line2d_40">
    <path d="M 103.827273 102.393836 
L 134.263636 306.101066 
L 164.7 305.812068 
L 195.136364 295.234651 
L 225.572727 279.563698 
L 256.009091 259.280283 
L 286.445455 236.222665 
L 316.881818 211.360682 
L 347.318182 185.329095 
L 377.754545 213.759786 
L 408.190909 182.134941 
L 438.627273 152.502928 
L 469.063636 150.353889 
L 499.5 135.918222 
L 529.936364 111.985783 
L 560.372727 89.851924 
" clip-path="url(#pef92437b98)" style="fill: none; stroke-dasharray: 3.7,1.6; stroke-dashoffset: 0; stroke: #d62728; stroke-opacity: 0.6"/>
   </g>
   <g id="line2d_41">
    <path d="M 103.827273 102.393836 
L 134.263636 305.186019 
L 164.7 304.319774 
L 195.136364 293.764342 
L 225.572727 277.696103 
L 256.009091 257.171742 
L 286.445455 232.379661 
L 316.881818 205.146275 
L 347.318182 177.228035 
L 377.754545 200.835811 
L 408.190909 165.316981 
L 438.627273 134.99249 
L 469.063636 132.455489 
L 499.5 118.57978 
L 529.936364 96.412978 
L 560.372727 76.365879 
" clip-path="url(#pef92437b98)" style="fill: none; stroke-dasharray: 3.7,1.6; stroke-dashoffset: 0; stroke: #9467bd; stroke-opacity: 0.6"/>
   </g>
   <g id="line2d_42">
    <path d="M 103.827273 102.393836 
L 134.263636 305.967457 
L 164.7 305.931724 
L 195.136364 296.010303 
L 225.572727 279.167432 
L 256.009091 256.259078 
L 286.445455 229.130851 
L 316.881818 199.341748 
L 347.318182 168.28428 
L 377.754545 193.594053 
L 408.190909 158.481154 
L 438.627273 126.15505 
L 469.063636 124.706862 
L 499.5 109.660664 
L 529.936364 86.173429 
L 560.372727 64.896626 
" clip-path="url(#pef92437b98)" style="fill: none; stroke-dasharray: 3.7,1.6; stroke-dashoffset: 0; stroke: #8c564b; stroke-opacity: 0.6"/>
   </g>
   <g id="line2d_43">
    <path d="M 103.827273 102.393836 
L 134.263636 305.684312 
L 164.7 305.51286 
L 195.136364 296.557875 
L 225.572727 282.724025 
L 256.009091 262.904667 
L 286.445455 237.387028 
L 316.881818 208.776105 
L 347.318182 179.385241 
L 377.754545 204.15282 
L 408.190909 170.668682 
L 438.627273 139.039276 
L 469.063636 137.227493 
L 499.5 122.662164 
L 529.936364 100.243595 
L 560.372727 79.033086 
" clip-path="url(#pef92437b98)" style="fill: none; stroke-dasharray: 3.7,1.6; stroke-dashoffset: 0; stroke: #e377c2; stroke-opacity: 0.6"/>
   </g>
   <g id="line2d_44">
    <path d="M 103.827273 102.393836 
L 134.263636 305.651642 
L 164.7 305.106045 
L 195.136364 294.710698 
L 225.572727 278.92921 
L 256.009091 258.697319 
L 286.445455 235.128475 
L 316.881818 209.834765 
L 347.318182 182.477368 
L 377.754545 208.129365 
L 408.190909 172.256741 
L 438.627273 140.271907 
L 469.063636 138.334819 
L 499.5 122.977707 
L 529.936364 99.99142 
L 560.372727 79.27267 
" clip-path="url(#pef92437b98)" style="fill: none; stroke-dasharray: 3.7,1.6; stroke-dashoffset: 0; stroke: #7f7f7f; stroke-opacity: 0.6"/>
   </g>
   <g id="line2d_45">
    <path d="M 103.827273 102.393836 
L 134.263636 306.608547 
L 164.7 307.8 
L 195.136364 299.805527 
L 225.572727 284.693036 
L 256.009091 264.628989 
L 286.445455 239.747813 
L 316.881818 212.295943 
L 347.318182 183.84177 
L 377.754545 210.780032 
L 408.190909 176.477158 
L 438.627273 145.404444 
L 469.063636 144.318694 
L 499.5 129.777528 
L 529.936364 106.116595 
L 560.372727 86.055135 
" clip-path="url(#pef92437b98)" style="fill: none; stroke-dasharray: 3.7,1.6; stroke-dashoffset: 0; stroke: #bcbd22; stroke-opacity: 0.6"/>
   </g>
   <g id="line2d_46">
    <path d="M 103.827273 102.393836 
L 134.263636 305.306288 
L 164.7 304.787984 
L 195.136364 295.224101 
L 225.572727 279.358215 
L 256.009091 259.280419 
L 286.445455 234.060898 
L 316.881818 206.482363 
L 347.318182 178.731899 
L 377.754545 204.235653 
L 408.190909 170.577749 
L 438.627273 139.131026 
L 469.063636 137.152078 
L 499.5 121.613169 
L 529.936364 97.662081 
L 560.372727 76.977566 
" clip-path="url(#pef92437b98)" style="fill: none; stroke-dasharray: 3.7,1.6; stroke-dashoffset: 0; stroke: #17becf; stroke-opacity: 0.6"/>
   </g>
   <g id="line2d_47">
    <path d="M 103.827273 102.393836 
L 134.263636 305.781235 
L 164.7 305.953504 
L 195.136364 296.587074 
L 225.572727 282.16992 
L 256.009091 263.367976 
L 286.445455 238.953987 
L 316.881818 211.627832 
L 347.318182 183.671407 
L 377.754545 209.321022 
L 408.190909 177.256213 
L 438.627273 148.446544 
L 469.063636 148.467508 
L 499.5 133.992296 
L 529.936364 112.323991 
L 560.372727 90.854636 
" clip-path="url(#pef92437b98)" style="fill: none; stroke-dasharray: 3.7,1.6; stroke-dashoffset: 0; stroke: #1f77b4; stroke-opacity: 0.6"/>
   </g>
   <g id="line2d_48">
    <path d="M 103.827273 102.393836 
L 134.263636 306.496991 
L 164.7 307.547484 
L 195.136364 300.038509 
L 225.572727 286.889311 
L 256.009091 269.24962 
L 286.445455 247.421774 
L 316.881818 223.241039 
L 347.318182 195.653247 
L 377.754545 220.272584 
L 408.190909 187.400201 
L 438.627273 158.038401 
L 469.063636 156.666852 
L 499.5 141.385972 
L 529.936364 117.68842 
L 560.372727 94.606231 
" clip-path="url(#pef92437b98)" style="fill: none; stroke-dasharray: 3.7,1.6; stroke-dashoffset: 0; stroke: #ff7f0e; stroke-opacity: 0.6"/>
   </g>
   <g id="line2d_49">
    <path d="M 103.827273 102.393836 
L 134.263636 306.157967 
L 164.7 306.041442 
L 195.136364 297.038063 
L 225.572727 283.062369 
L 256.009091 263.346127 
L 286.445455 239.915249 
L 316.881818 213.426411 
L 347.318182 185.559082 
L 377.754545 213.090245 
L 408.190909 180.752978 
L 438.627273 150.188155 
L 469.063636 148.516718 
L 499.5 133.573501 
L 529.936364 110.966327 
L 560.372727 88.006176 
" clip-path="url(#pef92437b98)" style="fill: none; stroke-dasharray: 3.7,1.6; stroke-dashoffset: 0; stroke: #2ca02c; stroke-opacity: 0.6"/>
   </g>
   <g id="line2d_50">
    <path d="M 103.827273 102.393836 
L 134.263636 305.848278 
L 164.7 305.567515 
L 195.136364 296.203127 
L 225.572727 281.632218 
L 256.009091 263.079046 
L 286.445455 240.919799 
L 316.881818 216.404396 
L 347.318182 190.301274 
L 377.754545 216.745394 
L 408.190909 184.113616 
L 438.627273 154.507604 
L 469.063636 154.144485 
L 499.5 139.96392 
L 529.936364 118.158399 
L 560.372727 97.50043 
" clip-path="url(#pef92437b98)" style="fill: none; stroke-dasharray: 3.7,1.6; stroke-dashoffset: 0; stroke: #d62728; stroke-opacity: 0.6"/>
   </g>
   <g id="line2d_51">
    <path d="M 103.827273 102.393836 
L 134.263636 306.297633 
L 164.7 306.649794 
L 195.136364 298.350533 
L 225.572727 284.36565 
L 256.009091 263.975988 
L 286.445455 238.264912 
L 316.881818 210.276566 
L 347.318182 180.84466 
L 377.754545 208.392499 
L 408.190909 173.970786 
L 438.627273 142.659032 
L 469.063636 141.84438 
L 499.5 127.480724 
L 529.936364 105.363472 
L 560.372727 84.736744 
" clip-path="url(#pef92437b98)" style="fill: none; stroke-dasharray: 3.7,1.6; stroke-dashoffset: 0; stroke: #9467bd; stroke-opacity: 0.6"/>
   </g>
   <g id="line2d_52">
    <path d="M 103.827273 102.393836 
L 134.263636 306.312811 
L 164.7 306.816618 
L 195.136364 297.538875 
L 225.572727 283.048552 
L 256.009091 264.260561 
L 286.445455 242.603555 
L 316.881818 219.055471 
L 347.318182 193.591943 
L 377.754545 219.559958 
L 408.190909 188.306535 
L 438.627273 156.939515 
L 469.063636 154.285785 
L 499.5 138.412887 
L 529.936364 114.745012 
L 560.372727 91.748855 
" clip-path="url(#pef92437b98)" style="fill: none; stroke-dasharray: 3.7,1.6; stroke-dashoffset: 0; stroke: #8c564b; stroke-opacity: 0.6"/>
   </g>
   <g id="line2d_53">
    <path d="M 103.827273 102.393836 
L 134.263636 305.580856 
L 164.7 304.495038 
L 195.136364 293.912993 
L 225.572727 277.217276 
L 256.009091 256.459933 
L 286.445455 232.841608 
L 316.881818 205.36088 
L 347.318182 178.44188 
L 377.754545 205.026552 
L 408.190909 173.964183 
L 438.627273 146.144158 
L 469.063636 145.44569 
L 499.5 132.290775 
L 529.936364 109.500647 
L 560.372727 87.341059 
" clip-path="url(#pef92437b98)" style="fill: none; stroke-dasharray: 3.7,1.6; stroke-dashoffset: 0; stroke: #e377c2; stroke-opacity: 0.6"/>
   </g>
   <g id="line2d_54">
    <path d="M 103.827273 102.393836 
L 134.263636 305.380885 
L 164.7 304.552075 
L 195.136364 293.688792 
L 225.572727 277.501645 
L 256.009091 256.649763 
L 286.445455 232.404027 
L 316.881818 206.119448 
L 347.318182 177.424739 
L 377.754545 202.962252 
L 408.190909 169.239143 
L 438.627273 138.811059 
L 469.063636 137.391322 
L 499.5 122.675709 
L 529.936364 100.365633 
L 560.372727 79.105437 
" clip-path="url(#pef92437b98)" style="fill: none; stroke-dasharray: 3.7,1.6; stroke-dashoffset: 0; stroke: #7f7f7f; stroke-opacity: 0.6"/>
   </g>
   <g id="line2d_55">
    <path d="M 103.827273 102.393836 
L 134.263636 305.11394 
L 164.7 304.314465 
L 195.136364 294.444706 
L 225.572727 278.867612 
L 256.009091 258.673088 
L 286.445455 235.207565 
L 316.881818 209.49472 
L 347.318182 183.001322 
L 377.754545 209.865598 
L 408.190909 177.60395 
L 438.627273 148.127667 
L 469.063636 146.166075 
L 499.5 130.945295 
L 529.936364 108.465468 
L 560.372727 87.623523 
" clip-path="url(#pef92437b98)" style="fill: none; stroke-dasharray: 3.7,1.6; stroke-dashoffset: 0; stroke: #bcbd22; stroke-opacity: 0.6"/>
   </g>
   <g id="line2d_56">
    <path d="M 103.827273 102.393836 
L 134.263636 305.371629 
L 164.7 304.484012 
L 195.136364 294.343291 
L 225.572727 278.35557 
L 256.009091 257.34721 
L 286.445455 232.197863 
L 316.881818 203.771732 
L 347.318182 173.556619 
L 377.754545 199.636531 
L 408.190909 165.341824 
L 438.627273 134.147549 
L 469.063636 133.007076 
L 499.5 118.864422 
L 529.936364 97.302977 
L 560.372727 77.440603 
" clip-path="url(#pef92437b98)" style="fill: none; stroke-dasharray: 3.7,1.6; stroke-dashoffset: 0; stroke: #17becf; stroke-opacity: 0.6"/>
   </g>
   <g id="line2d_57">
    <path d="M 103.827273 102.393836 
L 134.263636 304.07284 
L 164.7 301.46621 
L 195.136364 289.582313 
L 225.572727 272.164101 
L 256.009091 250.576043 
L 286.445455 226.143882 
L 316.881818 198.177452 
L 347.318182 170.454214 
L 377.754545 195.275427 
L 408.190909 162.672304 
L 438.627273 129.269638 
L 469.063636 125.694123 
L 499.5 109.254937 
L 529.936364 83.310268 
L 560.372727 60.396128 
" clip-path="url(#pef92437b98)" style="fill: none; stroke-dasharray: 3.7,1.6; stroke-dashoffset: 0; stroke: #1f77b4; stroke-opacity: 0.6"/>
   </g>
   <g id="line2d_58">
    <path d="M 103.827273 102.393836 
L 134.263636 304.594547 
L 164.7 303.151123 
L 195.136364 291.885108 
L 225.572727 275.606892 
L 256.009091 255.623296 
L 286.445455 229.667396 
L 316.881818 203.207213 
L 347.318182 173.722354 
L 377.754545 197.943518 
L 408.190909 163.250367 
L 438.627273 133.522249 
L 469.063636 130.918818 
L 499.5 114.551303 
L 529.936364 91.737488 
L 560.372727 71.630426 
" clip-path="url(#pef92437b98)" style="fill: none; stroke-dasharray: 3.7,1.6; stroke-dashoffset: 0; stroke: #ff7f0e; stroke-opacity: 0.6"/>
   </g>
   <g id="line2d_59">
    <path d="M 103.827273 102.393836 
L 134.263636 304.196171 
L 164.7 303.135196 
L 195.136364 292.394767 
L 225.572727 276.830879 
L 256.009091 255.776235 
L 286.445455 230.985447 
L 316.881818 204.38267 
L 347.318182 176.921136 
L 377.754545 202.066264 
L 408.190909 167.501277 
L 438.627273 134.233377 
L 469.063636 130.452991 
L 499.5 114.821515 
L 529.936364 92.065419 
L 560.372727 71.238039 
" clip-path="url(#pef92437b98)" style="fill: none; stroke-dasharray: 3.7,1.6; stroke-dashoffset: 0; stroke: #2ca02c; stroke-opacity: 0.6"/>
   </g>
   <g id="line2d_60">
    <path d="M 103.827273 102.393836 
L 134.263636 305.589092 
L 164.7 305.631563 
L 195.136364 296.695227 
L 225.572727 281.873231 
L 256.009091 262.874379 
L 286.445455 240.339353 
L 316.881818 215.176938 
L 347.318182 189.350086 
L 377.754545 216.321154 
L 408.190909 185.531925 
L 438.627273 155.237109 
L 469.063636 153.53518 
L 499.5 139.476653 
L 529.936364 116.421689 
L 560.372727 94.871747 
" clip-path="url(#pef92437b98)" style="fill: none; stroke-dasharray: 3.7,1.6; stroke-dashoffset: 0; stroke: #d62728; stroke-opacity: 0.6"/>
   </g>
   <g id="line2d_61">
    <path d="M 103.827273 102.393836 
L 134.263636 306.439341 
L 164.7 307.368749 
L 195.136364 299.057917 
L 225.572727 285.420976 
L 256.009091 266.038041 
L 286.445455 242.723075 
L 316.881818 216.014187 
L 347.318182 188.054904 
L 377.754545 214.040685 
L 408.190909 180.233177 
L 438.627273 148.942728 
L 469.063636 146.713646 
L 499.5 132.359791 
L 529.936364 108.372766 
L 560.372727 84.916363 
" clip-path="url(#pef92437b98)" style="fill: none; stroke-dasharray: 3.7,1.6; stroke-dashoffset: 0; stroke: #9467bd; stroke-opacity: 0.6"/>
   </g>
   <g id="line2d_62">
    <path d="M 103.827273 102.393836 
L 134.263636 304.847811 
L 164.7 303.406838 
L 195.136364 291.650288 
L 225.572727 273.984665 
L 256.009091 251.92799 
L 286.445455 226.672804 
L 316.881818 198.867889 
L 347.318182 171.904852 
L 377.754545 200.032661 
L 408.190909 169.558021 
L 438.627273 139.991145 
L 469.063636 138.791865 
L 499.5 123.579389 
L 529.936364 100.615698 
L 560.372727 80.119857 
" clip-path="url(#pef92437b98)" style="fill: none; stroke-dasharray: 3.7,1.6; stroke-dashoffset: 0; stroke: #8c564b; stroke-opacity: 0.6"/>
   </g>
   <g id="line2d_63">
    <path d="M 103.827273 102.393836 
L 134.263636 304.111228 
L 164.7 301.55653 
L 195.136364 289.235529 
L 225.572727 271.151452 
L 256.009091 247.641483 
L 286.445455 219.325207 
L 316.881818 190.183524 
L 347.318182 161.67422 
L 377.754545 186.771634 
L 408.190909 153.017284 
L 438.627273 123.079122 
L 469.063636 122.447832 
L 499.5 108.049123 
L 529.936364 85.065354 
L 560.372727 63.57912 
" clip-path="url(#pef92437b98)" style="fill: none; stroke-dasharray: 3.7,1.6; stroke-dashoffset: 0; stroke: #e377c2; stroke-opacity: 0.6"/>
   </g>
   <g id="line2d_64">
    <path d="M 103.827273 102.393836 
L 134.263636 305.775654 
L 164.7 305.524295 
L 195.136364 296.530785 
L 225.572727 282.427132 
L 256.009091 262.890374 
L 286.445455 239.447584 
L 316.881818 212.960856 
L 347.318182 183.84143 
L 377.754545 205.775251 
L 408.190909 171.949026 
L 438.627273 141.075466 
L 469.063636 138.441678 
L 499.5 123.425089 
L 529.936364 101.278093 
L 560.372727 79.996662 
" clip-path="url(#pef92437b98)" style="fill: none; stroke-dasharray: 3.7,1.6; stroke-dashoffset: 0; stroke: #7f7f7f; stroke-opacity: 0.6"/>
   </g>
   <g id="line2d_65">
    <path d="M 103.827273 102.393836 
L 134.263636 304.627354 
L 164.7 303.167186 
L 195.136364 292.28573 
L 225.572727 275.821088 
L 256.009091 255.77079 
L 286.445455 233.637203 
L 316.881818 208.897871 
L 347.318182 184.036909 
L 377.754545 210.003495 
L 408.190909 179.313774 
L 438.627273 149.229684 
L 469.063636 146.881355 
L 499.5 131.993405 
L 529.936364 108.008149 
L 560.372727 86.30132 
" clip-path="url(#pef92437b98)" style="fill: none; stroke-dasharray: 3.7,1.6; stroke-dashoffset: 0; stroke: #bcbd22; stroke-opacity: 0.6"/>
   </g>
   <g id="line2d_66">
    <path d="M 103.827273 102.393836 
L 134.263636 306.533133 
L 164.7 307.323283 
L 195.136364 298.417371 
L 225.572727 284.245926 
L 256.009091 264.896819 
L 286.445455 242.236693 
L 316.881818 217.339044 
L 347.318182 189.726069 
L 377.754545 215.286588 
L 408.190909 182.169449 
L 438.627273 151.594348 
L 469.063636 148.916659 
L 499.5 133.567919 
L 529.936364 110.965783 
L 560.372727 88.880929 
" clip-path="url(#pef92437b98)" style="fill: none; stroke-dasharray: 3.7,1.6; stroke-dashoffset: 0; stroke: #17becf; stroke-opacity: 0.6"/>
   </g>
   <g id="line2d_67">
    <path d="M 103.827273 102.393836 
L 134.263636 305.868356 
L 164.7 305.751083 
L 195.136364 296.332108 
L 225.572727 280.515567 
L 256.009091 261.014202 
L 286.445455 236.802703 
L 316.881818 210.286503 
L 347.318182 183.011055 
L 377.754545 208.686397 
L 408.190909 176.019771 
L 438.627273 145.539958 
L 469.063636 143.553251 
L 499.5 129.08362 
L 529.936364 106.258712 
L 560.372727 83.802844 
" clip-path="url(#pef92437b98)" style="fill: none; stroke-dasharray: 3.7,1.6; stroke-dashoffset: 0; stroke: #1f77b4; stroke-opacity: 0.6"/>
   </g>
   <g id="line2d_68">
    <path d="M 103.827273 102.393836 
L 134.263636 305.035122 
L 164.7 303.081426 
L 195.136364 291.3926 
L 225.572727 274.412172 
L 256.009091 253.553484 
L 286.445455 229.86655 
L 316.881818 204.841079 
L 347.318182 178.871293 
L 377.754545 207.120187 
L 408.190909 175.824633 
L 438.627273 146.685332 
L 469.063636 144.600409 
L 499.5 130.701695 
L 529.936364 107.963023 
L 560.372727 85.863672 
" clip-path="url(#pef92437b98)" style="fill: none; stroke-dasharray: 3.7,1.6; stroke-dashoffset: 0; stroke: #ff7f0e; stroke-opacity: 0.6"/>
   </g>
   <g id="line2d_69">
    <path d="M 103.827273 102.393836 
L 134.263636 306.099704 
L 164.7 306.357801 
L 195.136364 297.590263 
L 225.572727 283.222046 
L 256.009091 263.929908 
L 286.445455 240.5999 
L 316.881818 215.347028 
L 347.318182 188.234252 
L 377.754545 213.184037 
L 408.190909 179.311937 
L 438.627273 147.444309 
L 469.063636 145.208489 
L 499.5 130.48607 
L 529.936364 107.573836 
L 560.372727 86.130821 
" clip-path="url(#pef92437b98)" style="fill: none; stroke-dasharray: 3.7,1.6; stroke-dashoffset: 0; stroke: #2ca02c; stroke-opacity: 0.6"/>
   </g>
   <g id="line2d_70">
    <path d="M 103.827273 102.393836 
L 134.263636 305.505373 
L 164.7 305.019468 
L 195.136364 295.102812 
L 225.572727 279.709899 
L 256.009091 259.666135 
L 286.445455 236.034469 
L 316.881818 210.067611 
L 347.318182 183.865184 
L 377.754545 209.800734 
L 408.190909 179.250543 
L 438.627273 150.630023 
L 469.063636 149.061703 
L 499.5 133.760335 
L 529.936364 110.303048 
L 560.372727 88.133183 
" clip-path="url(#pef92437b98)" style="fill: none; stroke-dasharray: 3.7,1.6; stroke-dashoffset: 0; stroke: #d62728; stroke-opacity: 0.6"/>
   </g>
   <g id="line2d_71">
    <path d="M 103.827273 102.393836 
L 134.263636 305.94942 
L 164.7 306.105149 
L 195.136364 297.275197 
L 225.572727 283.487154 
L 256.009091 265.580245 
L 286.445455 244.516549 
L 316.881818 221.097037 
L 347.318182 195.926182 
L 377.754545 220.647818 
L 408.190909 188.699943 
L 438.627273 157.879813 
L 469.063636 155.276994 
L 499.5 139.656136 
L 529.936364 114.981941 
L 560.372727 92.528319 
" clip-path="url(#pef92437b98)" style="fill: none; stroke-dasharray: 3.7,1.6; stroke-dashoffset: 0; stroke: #9467bd; stroke-opacity: 0.6"/>
   </g>
   <g id="line2d_72">
    <path d="M 103.827273 102.393836 
L 134.263636 305.882173 
L 164.7 305.905859 
L 195.136364 296.707138 
L 225.572727 282.011604 
L 256.009091 262.189047 
L 286.445455 238.12123 
L 316.881818 210.495186 
L 347.318182 182.497856 
L 377.754545 208.615135 
L 408.190909 174.812732 
L 438.627273 144.711489 
L 469.063636 142.870642 
L 499.5 129.142223 
L 529.936364 105.906483 
L 560.372727 84.853541 
" clip-path="url(#pef92437b98)" style="fill: none; stroke-dasharray: 3.7,1.6; stroke-dashoffset: 0; stroke: #8c564b; stroke-opacity: 0.6"/>
   </g>
   <g id="line2d_73">
    <path d="M 103.827273 102.393836 
L 134.263636 306.554505 
L 164.7 307.0675 
L 195.136364 298.819286 
L 225.572727 285.853179 
L 256.009091 267.579544 
L 286.445455 244.217886 
L 316.881818 217.6731 
L 347.318182 187.989972 
L 377.754545 211.16078 
L 408.190909 175.598457 
L 438.627273 143.163655 
L 469.063636 140.539669 
L 499.5 125.480608 
L 529.936364 102.822455 
L 560.372727 80.503259 
" clip-path="url(#pef92437b98)" style="fill: none; stroke-dasharray: 3.7,1.6; stroke-dashoffset: 0; stroke: #e377c2; stroke-opacity: 0.6"/>
   </g>
   <g id="line2d_74">
    <path d="M 103.827273 102.393836 
L 134.263636 305.477535 
L 164.7 304.995577 
L 195.136364 294.530738 
L 225.572727 278.448001 
L 256.009091 257.512672 
L 286.445455 232.114009 
L 316.881818 204.896414 
L 347.318182 176.39344 
L 377.754545 201.889162 
L 408.190909 168.296599 
L 438.627273 137.11934 
L 469.063636 135.40019 
L 499.5 120.439072 
L 529.936364 99.020221 
L 560.372727 78.052971 
" clip-path="url(#pef92437b98)" style="fill: none; stroke-dasharray: 3.7,1.6; stroke-dashoffset: 0; stroke: #7f7f7f; stroke-opacity: 0.6"/>
   </g>
   <g id="line2d_75">
    <path d="M 103.827273 102.393836 
L 134.263636 303.678003 
L 164.7 300.649856 
L 195.136364 286.573019 
L 225.572727 266.748761 
L 256.009091 243.90915 
L 286.445455 217.971151 
L 316.881818 190.238792 
L 347.318182 162.667607 
L 377.754545 191.756064 
L 408.190909 158.929421 
L 438.627273 128.768146 
L 469.063636 128.145841 
L 499.5 114.60024 
L 529.936364 92.083864 
L 560.372727 71.351433 
" clip-path="url(#pef92437b98)" style="fill: none; stroke-dasharray: 3.7,1.6; stroke-dashoffset: 0; stroke: #bcbd22; stroke-opacity: 0.6"/>
   </g>
   <g id="line2d_76">
    <path d="M 103.827273 102.393836 
L 134.263636 303.411058 
L 164.7 299.85147 
L 195.136364 286.682398 
L 225.572727 266.348275 
L 256.009091 241.715326 
L 286.445455 214.594314 
L 316.881818 185.590527 
L 347.318182 157.75478 
L 377.754545 184.225377 
L 408.190909 149.554074 
L 438.627273 119.229447 
L 469.063636 117.703939 
L 499.5 105.157103 
L 529.936364 85.020841 
L 560.372727 66.14566 
" clip-path="url(#pef92437b98)" style="fill: none; stroke-dasharray: 3.7,1.6; stroke-dashoffset: 0; stroke: #17becf; stroke-opacity: 0.6"/>
   </g>
   <g id="line2d_77">
    <path d="M 103.827273 102.393836 
L 134.263636 305.278858 
L 164.7 304.296565 
L 195.136364 293.199551 
L 225.572727 276.875052 
L 256.009091 256.728512 
L 286.445455 232.989646 
L 316.881818 207.303482 
L 347.318182 180.765434 
L 377.754545 206.366587 
L 408.190909 173.169541 
L 438.627273 141.697226 
L 469.063636 139.502245 
L 499.5 123.771736 
L 529.936364 100.210584 
L 560.372727 78.879398 
" clip-path="url(#pef92437b98)" style="fill: none; stroke-dasharray: 3.7,1.6; stroke-dashoffset: 0; stroke: #1f77b4; stroke-opacity: 0.6"/>
   </g>
   <g id="line2d_78">
    <path d="M 103.827273 102.393836 
L 134.263636 304.33679 
L 164.7 301.420131 
L 195.136364 287.557695 
L 225.572727 267.82784 
L 256.009091 243.960742 
L 286.445455 216.300327 
L 316.881818 189.480496 
L 347.318182 163.11424 
L 377.754545 191.580256 
L 408.190909 161.212204 
L 438.627273 133.698806 
L 469.063636 133.697172 
L 499.5 120.537765 
L 529.936364 98.658123 
L 560.372727 75.984111 
" clip-path="url(#pef92437b98)" style="fill: none; stroke-dasharray: 3.7,1.6; stroke-dashoffset: 0; stroke: #ff7f0e; stroke-opacity: 0.6"/>
   </g>
   <g id="line2d_79">
    <path d="M 103.827273 102.393836 
L 134.263636 305.429414 
L 164.7 305.177852 
L 195.136364 295.792908 
L 225.572727 281.908011 
L 256.009091 263.595648 
L 286.445455 240.597246 
L 316.881818 214.78707 
L 347.318182 188.28952 
L 377.754545 213.655717 
L 408.190909 180.869571 
L 438.627273 149.622274 
L 469.063636 147.414701 
L 499.5 132.532605 
L 529.936364 110.56836 
L 560.372727 88.94838 
" clip-path="url(#pef92437b98)" style="fill: none; stroke-dasharray: 3.7,1.6; stroke-dashoffset: 0; stroke: #2ca02c; stroke-opacity: 0.6"/>
   </g>
   <g id="line2d_80">
    <path d="M 103.827273 102.393836 
L 134.263636 306.13537 
L 164.7 305.623396 
L 195.136364 294.89093 
L 225.572727 278.097678 
L 256.009091 256.301413 
L 286.445455 232.287979 
L 316.881818 205.499525 
L 347.318182 178.144579 
L 377.754545 204.02697 
L 408.190909 169.825579 
L 438.627273 140.524015 
L 469.063636 141.146864 
L 499.5 127.443357 
L 529.936364 106.728963 
L 560.372727 86.134973 
" clip-path="url(#pef92437b98)" style="fill: none; stroke-dasharray: 3.7,1.6; stroke-dashoffset: 0; stroke: #d62728; stroke-opacity: 0.6"/>
   </g>
   <g id="line2d_81">
    <path d="M 103.827273 102.393836 
L 134.263636 305.896943 
L 164.7 306.184852 
L 195.136364 297.282071 
L 225.572727 282.964562 
L 256.009091 263.846326 
L 286.445455 239.113801 
L 316.881818 211.236875 
L 347.318182 183.356886 
L 377.754545 209.240502 
L 408.190909 176.429105 
L 438.627273 145.568477 
L 469.063636 142.946329 
L 499.5 128.052457 
L 529.936364 104.57162 
L 560.372727 83.234989 
" clip-path="url(#pef92437b98)" style="fill: none; stroke-dasharray: 3.7,1.6; stroke-dashoffset: 0; stroke: #9467bd; stroke-opacity: 0.6"/>
   </g>
   <g id="line2d_82">
    <path d="M 103.827273 102.393836 
L 134.263636 306.415179 
L 164.7 306.828461 
L 195.136364 298.494011 
L 225.572727 284.558406 
L 256.009091 264.84829 
L 286.445455 240.92082 
L 316.881818 214.344112 
L 347.318182 187.391625 
L 377.754545 215.19899 
L 408.190909 183.214701 
L 438.627273 153.126662 
L 469.063636 152.074468 
L 499.5 137.358175 
L 529.936364 114.67933 
L 560.372727 92.279819 
" clip-path="url(#pef92437b98)" style="fill: none; stroke-dasharray: 3.7,1.6; stroke-dashoffset: 0; stroke: #8c564b; stroke-opacity: 0.6"/>
   </g>
   <g id="line2d_83">
    <path d="M 103.827273 102.393836 
L 134.263636 306.425729 
L 164.7 306.360932 
L 195.136364 297.311066 
L 225.572727 283.207753 
L 256.009091 263.815834 
L 286.445455 240.830363 
L 316.881818 214.89706 
L 347.318182 188.879835 
L 377.754545 214.428511 
L 408.190909 181.497185 
L 438.627273 148.811161 
L 469.063636 145.694735 
L 499.5 130.442441 
L 529.936364 106.79233 
L 560.372727 84.13792 
" clip-path="url(#pef92437b98)" style="fill: none; stroke-dasharray: 3.7,1.6; stroke-dashoffset: 0; stroke: #e377c2; stroke-opacity: 0.6"/>
   </g>
   <g id="line2d_84">
    <path d="M 103.827273 102.393836 
L 134.263636 305.612029 
L 164.7 304.849649 
L 195.136364 294.279107 
L 225.572727 277.837471 
L 256.009091 256.412153 
L 286.445455 230.789288 
L 316.881818 202.904466 
L 347.318182 173.707584 
L 377.754545 199.652322 
L 408.190909 164.401526 
L 438.627273 133.248565 
L 469.063636 131.801874 
L 499.5 117.825977 
L 529.936364 95.898009 
L 560.372727 74.400408 
" clip-path="url(#pef92437b98)" style="fill: none; stroke-dasharray: 3.7,1.6; stroke-dashoffset: 0; stroke: #7f7f7f; stroke-opacity: 0.6"/>
   </g>
   <g id="line2d_85">
    <path d="M 103.827273 102.393836 
L 134.263636 305.934174 
L 164.7 305.995771 
L 195.136364 297.18862 
L 225.572727 283.281262 
L 256.009091 265.042543 
L 286.445455 243.620561 
L 316.881818 218.293432 
L 347.318182 191.602513 
L 377.754545 217.358919 
L 408.190909 184.04038 
L 438.627273 152.336921 
L 469.063636 149.693264 
L 499.5 133.49094 
L 529.936364 110.061218 
L 560.372727 87.131628 
" clip-path="url(#pef92437b98)" style="fill: none; stroke-dasharray: 3.7,1.6; stroke-dashoffset: 0; stroke: #bcbd22; stroke-opacity: 0.6"/>
   </g>
   <g id="line2d_86">
    <path d="M 103.827273 102.393836 
L 134.263636 306.556002 
L 164.7 306.918509 
L 195.136364 298.773752 
L 225.572727 285.595423 
L 256.009091 267.997386 
L 286.445455 247.005634 
L 316.881818 223.043859 
L 347.318182 198.255317 
L 377.754545 224.078766 
L 408.190909 192.444663 
L 438.627273 162.985736 
L 469.063636 161.199068 
L 499.5 146.518984 
L 529.936364 123.326056 
L 560.372727 100.507545 
" clip-path="url(#pef92437b98)" style="fill: none; stroke-dasharray: 3.7,1.6; stroke-dashoffset: 0; stroke: #17becf; stroke-opacity: 0.6"/>
   </g>
   <g id="line2d_87">
    <path d="M 103.827273 102.393836 
L 134.263636 305.009394 
L 164.7 302.789638 
L 195.136364 291.113947 
L 225.572727 273.128494 
L 256.009091 250.695767 
L 286.445455 225.309423 
L 316.881818 198.96345 
L 347.318182 171.453931 
L 377.754545 198.214343 
L 408.190909 166.285934 
L 438.627273 135.827289 
L 469.063636 133.851472 
L 499.5 119.465968 
L 529.936364 98.234291 
L 560.372727 76.863832 
" clip-path="url(#pef92437b98)" style="fill: none; stroke-dasharray: 3.7,1.6; stroke-dashoffset: 0; stroke: #1f77b4; stroke-opacity: 0.6"/>
   </g>
   <g id="line2d_88">
    <path d="M 103.827273 102.393836 
L 134.263636 305.550908 
L 164.7 305.572144 
L 195.136364 297.078969 
L 225.572727 282.309995 
L 256.009091 262.883363 
L 286.445455 239.249723 
L 316.881818 213.75509 
L 347.318182 186.044239 
L 377.754545 209.999275 
L 408.190909 176.026441 
L 438.627273 145.377286 
L 469.063636 143.048356 
L 499.5 127.894822 
L 529.936364 103.555704 
L 560.372727 82.212198 
" clip-path="url(#pef92437b98)" style="fill: none; stroke-dasharray: 3.7,1.6; stroke-dashoffset: 0; stroke: #ff7f0e; stroke-opacity: 0.6"/>
   </g>
   <g id="line2d_89">
    <path d="M 103.827273 102.393836 
L 134.263636 306.316963 
L 164.7 306.290078 
L 195.136364 296.827611 
L 225.572727 282.49363 
L 256.009091 262.70177 
L 286.445455 239.127958 
L 316.881818 213.213372 
L 347.318182 185.959568 
L 377.754545 211.606255 
L 408.190909 177.903293 
L 438.627273 145.145938 
L 469.063636 141.853636 
L 499.5 126.093384 
L 529.936364 102.727574 
L 560.372727 81.483101 
" clip-path="url(#pef92437b98)" style="fill: none; stroke-dasharray: 3.7,1.6; stroke-dashoffset: 0; stroke: #2ca02c; stroke-opacity: 0.6"/>
   </g>
   <g id="line2d_90">
    <path d="M 103.827273 102.393836 
L 134.263636 305.064798 
L 164.7 303.908807 
L 195.136364 291.715289 
L 225.572727 274.126169 
L 256.009091 252.646673 
L 286.445455 228.551698 
L 316.881818 201.652505 
L 347.318182 175.131337 
L 377.754545 201.963283 
L 408.190909 169.372208 
L 438.627273 138.57168 
L 469.063636 136.723074 
L 499.5 122.5973 
L 529.936364 101.810486 
L 560.372727 80.475216 
" clip-path="url(#pef92437b98)" style="fill: none; stroke-dasharray: 3.7,1.6; stroke-dashoffset: 0; stroke: #d62728; stroke-opacity: 0.6"/>
   </g>
   <g id="line2d_91">
    <path d="M 103.827273 102.393836 
L 134.263636 305.8039 
L 164.7 305.837183 
L 195.136364 296.579111 
L 225.572727 281.915226 
L 256.009091 263.263975 
L 286.445455 240.44805 
L 316.881818 215.639497 
L 347.318182 189.252959 
L 377.754545 214.721592 
L 408.190909 183.227225 
L 438.627273 152.312078 
L 469.063636 149.950136 
L 499.5 134.164769 
L 529.936364 109.115815 
L 560.372727 87.239577 
" clip-path="url(#pef92437b98)" style="fill: none; stroke-dasharray: 3.7,1.6; stroke-dashoffset: 0; stroke: #9467bd; stroke-opacity: 0.6"/>
   </g>
   <g id="line2d_92">
    <path d="M 103.827273 102.393836 
L 134.263636 304.870817 
L 164.7 303.087075 
L 195.136364 290.683718 
L 225.572727 273.371957 
L 256.009091 251.49143 
L 286.445455 224.544252 
L 316.881818 196.699248 
L 347.318182 168.378207 
L 377.754545 196.886559 
L 408.190909 162.499762 
L 438.627273 131.162622 
L 469.063636 129.64705 
L 499.5 116.076199 
L 529.936364 94.973774 
L 560.372727 74.027284 
" clip-path="url(#pef92437b98)" style="fill: none; stroke-dasharray: 3.7,1.6; stroke-dashoffset: 0; stroke: #8c564b; stroke-opacity: 0.6"/>
   </g>
   <g id="line2d_93">
    <path d="M 103.827273 102.393836 
L 134.263636 304.706239 
L 164.7 302.929236 
L 195.136364 291.782195 
L 225.572727 275.455587 
L 256.009091 253.608071 
L 286.445455 227.633521 
L 316.881818 200.056755 
L 347.318182 171.985031 
L 377.754545 199.316224 
L 408.190909 166.586639 
L 438.627273 138.606596 
L 469.063636 137.707613 
L 499.5 124.636212 
L 529.936364 102.433608 
L 560.372727 81.030751 
" clip-path="url(#pef92437b98)" style="fill: none; stroke-dasharray: 3.7,1.6; stroke-dashoffset: 0; stroke: #e377c2; stroke-opacity: 0.6"/>
   </g>
   <g id="line2d_94">
    <path d="M 103.827273 102.393836 
L 134.263636 305.942954 
L 164.7 305.817036 
L 195.136364 296.574959 
L 225.572727 282.079055 
L 256.009091 262.10281 
L 286.445455 238.315007 
L 316.881818 212.023009 
L 347.318182 185.419416 
L 377.754545 211.933505 
L 408.190909 179.955069 
L 438.627273 150.622332 
L 469.063636 148.847234 
L 499.5 134.743377 
L 529.936364 112.205969 
L 560.372727 88.525297 
" clip-path="url(#pef92437b98)" style="fill: none; stroke-dasharray: 3.7,1.6; stroke-dashoffset: 0; stroke: #7f7f7f; stroke-opacity: 0.6"/>
   </g>
   <g id="line2d_95">
    <path d="M 103.827273 102.393836 
L 134.263636 305.212428 
L 164.7 304.405194 
L 195.136364 294.153325 
L 225.572727 279.082285 
L 256.009091 258.614417 
L 286.445455 235.350431 
L 316.881818 208.886572 
L 347.318182 179.883058 
L 377.754545 204.612657 
L 408.190909 170.832035 
L 438.627273 138.86585 
L 469.063636 136.850761 
L 499.5 122.791689 
L 529.936364 101.775229 
L 560.372727 81.031636 
" clip-path="url(#pef92437b98)" style="fill: none; stroke-dasharray: 3.7,1.6; stroke-dashoffset: 0; stroke: #bcbd22; stroke-opacity: 0.6"/>
   </g>
   <g id="line2d_96">
    <path d="M 103.827273 102.393836 
L 134.263636 305.852702 
L 164.7 304.547787 
L 195.136364 294.147064 
L 225.572727 278.658521 
L 256.009091 259.412462 
L 286.445455 236.970615 
L 316.881818 210.676031 
L 347.318182 183.10682 
L 377.754545 211.306095 
L 408.190909 180.10617 
L 438.627273 149.274946 
L 469.063636 147.895978 
L 499.5 132.893342 
L 529.936364 108.841315 
L 560.372727 87.317918 
" clip-path="url(#pef92437b98)" style="fill: none; stroke-dasharray: 3.7,1.6; stroke-dashoffset: 0; stroke: #17becf; stroke-opacity: 0.6"/>
   </g>
   <g id="line2d_97">
    <path d="M 103.827273 102.393836 
L 134.263636 306.474939 
L 164.7 307.17048 
L 195.136364 298.075147 
L 225.572727 283.097967 
L 256.009091 263.010914 
L 286.445455 239.59045 
L 316.881818 214.382976 
L 347.318182 188.287273 
L 377.754545 214.137539 
L 408.190909 180.578872 
L 438.627273 149.613766 
L 469.063636 147.255092 
L 499.5 131.168475 
L 529.936364 107.578668 
L 560.372727 84.895604 
" clip-path="url(#pef92437b98)" style="fill: none; stroke-dasharray: 3.7,1.6; stroke-dashoffset: 0; stroke: #1f77b4; stroke-opacity: 0.6"/>
   </g>
   <g id="line2d_98">
    <path d="M 103.827273 102.393836 
L 134.263636 305.74979 
L 164.7 305.30935 
L 195.136364 295.112069 
L 225.572727 279.80056 
L 256.009091 260.368891 
L 286.445455 237.614973 
L 316.881818 212.11258 
L 347.318182 185.117486 
L 377.754545 211.23388 
L 408.190909 177.759203 
L 438.627273 146.247275 
L 469.063636 143.673043 
L 499.5 126.913074 
L 529.936364 104.783026 
L 560.372727 82.40652 
" clip-path="url(#pef92437b98)" style="fill: none; stroke-dasharray: 3.7,1.6; stroke-dashoffset: 0; stroke: #ff7f0e; stroke-opacity: 0.6"/>
   </g>
   <g id="line2d_99">
    <path d="M 103.827273 102.393836 
L 134.263636 305.301523 
L 164.7 304.548264 
L 195.136364 293.693012 
L 225.572727 277.392879 
L 256.009091 256.151129 
L 286.445455 231.33189 
L 316.881818 204.921189 
L 347.318182 178.570452 
L 377.754545 206.316356 
L 408.190909 173.207793 
L 438.627273 143.038759 
L 469.063636 142.119084 
L 499.5 126.76313 
L 529.936364 104.44019 
L 560.372727 82.564836 
" clip-path="url(#pef92437b98)" style="fill: none; stroke-dasharray: 3.7,1.6; stroke-dashoffset: 0; stroke: #2ca02c; stroke-opacity: 0.6"/>
   </g>
   <g id="line2d_100">
    <path d="M 103.827273 102.393836 
L 134.263636 305.803356 
L 164.7 305.581741 
L 195.136364 296.022827 
L 225.572727 280.675653 
L 256.009091 260.566344 
L 286.445455 236.758121 
L 316.881818 210.807802 
L 347.318182 182.796995 
L 377.754545 207.652376 
L 408.190909 173.83003 
L 438.627273 142.844574 
L 469.063636 140.958805 
L 499.5 125.60108 
L 529.936364 104.145542 
L 560.372727 83.603894 
" clip-path="url(#pef92437b98)" style="fill: none; stroke-dasharray: 3.7,1.6; stroke-dashoffset: 0; stroke: #d62728; stroke-opacity: 0.6"/>
   </g>
   <g id="line2d_101">
    <path d="M 103.827273 102.393836 
L 134.263636 306.718266 
L 164.7 306.811445 
L 195.136364 298.121363 
L 225.572727 284.460463 
L 256.009091 264.910296 
L 286.445455 240.72575 
L 316.881818 213.133057 
L 347.318182 183.85232 
L 377.754545 209.986751 
L 408.190909 175.93367 
L 438.627273 145.86115 
L 469.063636 144.328495 
L 499.5 130.02174 
L 529.936364 106.695271 
L 560.372727 84.717005 
" clip-path="url(#pef92437b98)" style="fill: none; stroke-dasharray: 3.7,1.6; stroke-dashoffset: 0; stroke: #9467bd; stroke-opacity: 0.6"/>
   </g>
   <g id="line2d_102">
    <path d="M 103.827273 102.393836 
L 134.263636 305.718276 
L 164.7 305.048667 
L 195.136364 295.207222 
L 225.572727 280.177632 
L 256.009091 260.0607 
L 286.445455 236.510233 
L 316.881818 209.209738 
L 347.318182 180.825194 
L 377.754545 206.867875 
L 408.190909 173.868962 
L 438.627273 142.665907 
L 469.063636 141.360516 
L 499.5 127.717857 
L 529.936364 104.89431 
L 560.372727 83.897248 
" clip-path="url(#pef92437b98)" style="fill: none; stroke-dasharray: 3.7,1.6; stroke-dashoffset: 0; stroke: #8c564b; stroke-opacity: 0.6"/>
   </g>
   <g id="line2d_103">
    <path d="M 103.827273 102.393836 
L 134.263636 306.427362 
L 164.7 307.1536 
L 195.136364 298.409408 
L 225.572727 284.832294 
L 256.009091 266.446831 
L 286.445455 242.77562 
L 316.881818 216.554204 
L 347.318182 189.623361 
L 377.754545 216.189451 
L 408.190909 182.987981 
L 438.627273 153.265444 
L 469.063636 151.272407 
L 499.5 136.633978 
L 529.936364 111.767912 
L 560.372727 88.8714 
" clip-path="url(#pef92437b98)" style="fill: none; stroke-dasharray: 3.7,1.6; stroke-dashoffset: 0; stroke: #e377c2; stroke-opacity: 0.6"/>
   </g>
   <g id="line2d_104">
    <path d="M 103.827273 102.393836 
L 134.263636 306.271633 
L 164.7 306.412048 
L 195.136364 297.144651 
L 225.572727 282.491588 
L 256.009091 261.595873 
L 286.445455 235.984034 
L 316.881818 208.300613 
L 347.318182 179.204669 
L 377.754545 203.289774 
L 408.190909 169.072932 
L 438.627273 136.302441 
L 469.063636 133.280555 
L 499.5 118.455564 
L 529.936364 96.582252 
L 560.372727 76.733082 
" clip-path="url(#pef92437b98)" style="fill: none; stroke-dasharray: 3.7,1.6; stroke-dashoffset: 0; stroke: #7f7f7f; stroke-opacity: 0.6"/>
   </g>
   <g id="line2d_105">
    <path d="M 103.827273 102.393836 
L 134.263636 305.742303 
L 164.7 305.016269 
L 195.136364 293.594592 
L 225.572727 276.133227 
L 256.009091 253.296612 
L 286.445455 227.364738 
L 316.881818 199.344674 
L 347.318182 170.200677 
L 377.754545 196.514183 
L 408.190909 162.005757 
L 438.627273 132.043228 
L 469.063636 132.064396 
L 499.5 118.243887 
L 529.936364 97.31693 
L 560.372727 75.961105 
" clip-path="url(#pef92437b98)" style="fill: none; stroke-dasharray: 3.7,1.6; stroke-dashoffset: 0; stroke: #bcbd22; stroke-opacity: 0.6"/>
   </g>
   <g id="line2d_106">
    <path d="M 103.827273 102.393836 
L 134.263636 304.38178 
L 164.7 302.367031 
L 195.136364 290.543779 
L 225.572727 272.988487 
L 256.009091 249.759689 
L 286.445455 223.202788 
L 316.881818 195.624865 
L 347.318182 167.988884 
L 377.754545 192.725085 
L 408.190909 157.172088 
L 438.627273 122.845459 
L 469.063636 119.198818 
L 499.5 101.666872 
L 529.936364 77.28358 
L 560.372727 55.8 
" clip-path="url(#pef92437b98)" style="fill: none; stroke-dasharray: 3.7,1.6; stroke-dashoffset: 0; stroke: #17becf; stroke-opacity: 0.6"/>
   </g>
   <g id="line2d_107">
    <path d="M 103.827273 102.393836 
L 134.263636 303.704548 
L 164.7 301.314292 
L 195.136364 288.366086 
L 225.572727 269.230494 
L 256.009091 245.539953 
L 286.445455 219.38837 
L 316.881818 191.875244 
L 347.318182 164.849044 
L 377.754545 192.864071 
L 408.190909 161.235074 
L 438.627273 132.455353 
L 469.063636 132.160025 
L 499.5 117.846055 
L 529.936364 96.346276 
L 560.372727 75.94933 
" clip-path="url(#pef92437b98)" style="fill: none; stroke-dasharray: 3.7,1.6; stroke-dashoffset: 0; stroke: #1f77b4; stroke-opacity: 0.6"/>
   </g>
   <g id="line2d_108">
    <path d="M 103.827273 102.393836 
L 134.263636 304.575693 
L 164.7 302.920388 
L 195.136364 291.338898 
L 225.572727 274.563205 
L 256.009091 252.730255 
L 286.445455 228.030808 
L 316.881818 201.286255 
L 347.318182 173.752982 
L 377.754545 198.642326 
L 408.190909 164.51737 
L 438.627273 132.517767 
L 469.063636 130.238999 
L 499.5 115.080225 
L 529.936364 94.160347 
L 560.372727 73.557509 
" clip-path="url(#pef92437b98)" style="fill: none; stroke-dasharray: 3.7,1.6; stroke-dashoffset: 0; stroke: #ff7f0e; stroke-opacity: 0.6"/>
   </g>
   <g id="line2d_109">
    <path d="M 103.827273 102.393836 
L 134.263636 305.966912 
L 164.7 306.221946 
L 195.136364 296.482392 
L 225.572727 280.443964 
L 256.009091 260.30532 
L 286.445455 235.53604 
L 316.881818 209.424002 
L 347.318182 182.792026 
L 377.754545 209.559993 
L 408.190909 177.583599 
L 438.627273 147.511964 
L 469.063636 146.052137 
L 499.5 131.106946 
L 529.936364 108.866907 
L 560.372727 85.823923 
" clip-path="url(#pef92437b98)" style="fill: none; stroke-dasharray: 3.7,1.6; stroke-dashoffset: 0; stroke: #2ca02c; stroke-opacity: 0.6"/>
   </g>
   <g id="line2d_110">
    <path d="M 103.827273 102.393836 
L 134.263636 305.762381 
L 164.7 305.580175 
L 195.136364 296.774045 
L 225.572727 283.000908 
L 256.009091 264.887086 
L 286.445455 242.978653 
L 316.881818 218.089854 
L 347.318182 192.43282 
L 377.754545 217.12444 
L 408.190909 184.242393 
L 438.627273 152.600531 
L 469.063636 149.882413 
L 499.5 134.716016 
L 529.936364 111.61824 
L 560.372727 90.47348 
" clip-path="url(#pef92437b98)" style="fill: none; stroke-dasharray: 3.7,1.6; stroke-dashoffset: 0; stroke: #d62728; stroke-opacity: 0.6"/>
   </g>
   <g id="line2d_111">
    <path d="M 103.827273 102.393836 
L 134.263636 305.532871 
L 164.7 305.73359 
L 195.136364 296.262207 
L 225.572727 280.338534 
L 256.009091 260.149591 
L 286.445455 236.867976 
L 316.881818 210.54215 
L 347.318182 183.344022 
L 377.754545 208.403457 
L 408.190909 175.073075 
L 438.627273 145.612718 
L 469.063636 143.504177 
L 499.5 129.138343 
L 529.936364 105.785806 
L 560.372727 84.073941 
" clip-path="url(#pef92437b98)" style="fill: none; stroke-dasharray: 3.7,1.6; stroke-dashoffset: 0; stroke: #9467bd; stroke-opacity: 0.6"/>
   </g>
   <g id="line2d_112">
    <path d="M 103.827273 102.393836 
L 134.263636 304.928603 
L 164.7 304.400634 
L 195.136364 294.038094 
L 225.572727 277.935754 
L 256.009091 257.281324 
L 286.445455 232.702146 
L 316.881818 206.136532 
L 347.318182 177.657108 
L 377.754545 201.79891 
L 408.190909 167.113927 
L 438.627273 133.684512 
L 469.063636 130.585375 
L 499.5 113.619853 
L 529.936364 89.47948 
L 560.372727 68.222347 
" clip-path="url(#pef92437b98)" style="fill: none; stroke-dasharray: 3.7,1.6; stroke-dashoffset: 0; stroke: #8c564b; stroke-opacity: 0.6"/>
   </g>
   <g id="line2d_113">
    <path d="M 103.827273 102.393836 
L 134.263636 303.260637 
L 164.7 300.119572 
L 195.136364 286.53715 
L 225.572727 267.265431 
L 256.009091 244.876197 
L 286.445455 220.592142 
L 316.881818 195.970287 
L 347.318182 170.597692 
L 377.754545 200.154222 
L 408.190909 170.130095 
L 438.627273 139.630953 
L 469.063636 139.041591 
L 499.5 125.881843 
L 529.936364 103.286512 
L 560.372727 81.609904 
" clip-path="url(#pef92437b98)" style="fill: none; stroke-dasharray: 3.7,1.6; stroke-dashoffset: 0; stroke: #e377c2; stroke-opacity: 0.6"/>
   </g>
   <g id="line2d_114">
    <path d="M 103.827273 102.393836 
L 134.263636 306.246177 
L 164.7 307.101328 
L 195.136364 299.005985 
L 225.572727 286.244204 
L 256.009091 269.246148 
L 286.445455 247.917481 
L 316.881818 224.088975 
L 347.318182 197.154321 
L 377.754545 219.929543 
L 408.190909 186.072553 
L 438.627273 154.919184 
L 469.063636 150.91167 
L 499.5 134.717445 
L 529.936364 111.295347 
L 560.372727 88.232692 
" clip-path="url(#pef92437b98)" style="fill: none; stroke-dasharray: 3.7,1.6; stroke-dashoffset: 0; stroke: #7f7f7f; stroke-opacity: 0.6"/>
   </g>
   <g id="line2d_115">
    <path d="M 103.827273 102.393836 
L 134.263636 306.063631 
L 164.7 306.302398 
L 195.136364 296.526974 
L 225.572727 281.158904 
L 256.009091 260.291843 
L 286.445455 234.757052 
L 316.881818 207.296607 
L 347.318182 178.790502 
L 377.754545 205.814387 
L 408.190909 171.926224 
L 438.627273 142.1361 
L 469.063636 142.267531 
L 499.5 127.593845 
L 529.936364 105.264235 
L 560.372727 84.751854 
" clip-path="url(#pef92437b98)" style="fill: none; stroke-dasharray: 3.7,1.6; stroke-dashoffset: 0; stroke: #bcbd22; stroke-opacity: 0.6"/>
   </g>
   <g id="line2d_116">
    <path d="M 103.827273 102.393836 
L 134.263636 306.04396 
L 164.7 306.196287 
L 195.136364 297.219112 
L 225.572727 283.520233 
L 256.009091 265.362306 
L 286.445455 242.476957 
L 316.881818 217.363139 
L 347.318182 190.451286 
L 377.754545 215.333007 
L 408.190909 183.163245 
L 438.627273 153.36155 
L 469.063636 150.359402 
L 499.5 135.05892 
L 529.936364 112.950788 
L 560.372727 91.413302 
" clip-path="url(#pef92437b98)" style="fill: none; stroke-dasharray: 3.7,1.6; stroke-dashoffset: 0; stroke: #17becf; stroke-opacity: 0.6"/>
   </g>
   <g id="line2d_117">
    <path d="M 103.827273 102.393836 
L 134.263636 305.519612 
L 164.7 304.922233 
L 195.136364 294.810884 
L 225.572727 279.180177 
L 256.009091 258.830423 
L 286.445455 234.681396 
L 316.881818 208.198118 
L 347.318182 180.734119 
L 377.754545 206.692442 
L 408.190909 173.616391 
L 438.627273 143.045967 
L 469.063636 141.266894 
L 499.5 126.5416 
L 529.936364 103.769384 
L 560.372727 82.195167 
" clip-path="url(#pef92437b98)" style="fill: none; stroke: #000000; stroke-width: 2.5; stroke-linecap: square"/>
   </g>
   <g id="patch_3">
    <path d="M 81 320.4 
L 81 43.2 
" style="fill: none; stroke: #000000; stroke-width: 0.8; stroke-linejoin: miter; stroke-linecap: square"/>
   </g>
   <g id="patch_4">
    <path d="M 583.2 320.4 
L 583.2 43.2 
" style="fill: none; stroke: #000000; stroke-width: 0.8; stroke-linejoin: miter; stroke-linecap: square"/>
   </g>
   <g id="patch_5">
    <path d="M 81 320.4 
L 583.2 320.4 
" style="fill: none; stroke: #000000; stroke-width: 0.8; stroke-linejoin: miter; stroke-linecap: square"/>
   </g>
   <g id="patch_6">
    <path d="M 81 43.2 
L 583.2 43.2 
" style="fill: none; stroke: #000000; stroke-width: 0.8; stroke-linejoin: miter; stroke-linecap: square"/>
   </g>
   <g id="legend_1">
    <g id="patch_7">
     <path d="M 88 65.878125 
L 161.065625 65.878125 
Q 163.065625 65.878125 163.065625 63.878125 
L 163.065625 50.2 
Q 163.065625 48.2 161.065625 48.2 
L 88 48.2 
Q 86 48.2 86 50.2 
L 86 63.878125 
Q 86 65.878125 88 65.878125 
z
" style="fill: #ffffff; opacity: 0.8; stroke: #cccccc; stroke-linejoin: miter"/>
    </g>
    <g id="line2d_118">
     <path d="M 90 56.298437 
L 100 56.298437 
L 110 56.298437 
" style="fill: none; stroke: #000000; stroke-width: 2.5; stroke-linecap: square"/>
    </g>
    <g id="text_19">
     <!-- Average -->
     <g transform="translate(118 59.798437) scale(0.1 -0.1)">
      <defs>
       <path id="DejaVuSans-41" d="M 2188 4044 
L 1331 1722 
L 3047 1722 
L 2188 4044 
z
M 1831 4666 
L 2547 4666 
L 4325 0 
L 3669 0 
L 3244 1197 
L 1141 1197 
L 716 0 
L 50 0 
L 1831 4666 
z
" transform="scale(0.015625)"/>
       <path id="DejaVuSans-67" d="M 2906 1791 
Q 2906 2416 2648 2759 
Q 2391 3103 1925 3103 
Q 1463 3103 1205 2759 
Q 947 2416 947 1791 
Q 947 1169 1205 825 
Q 1463 481 1925 481 
Q 2391 481 2648 825 
Q 2906 1169 2906 1791 
z
M 3481 434 
Q 3481 -459 3084 -895 
Q 2688 -1331 1869 -1331 
Q 1566 -1331 1297 -1286 
Q 1028 -1241 775 -1147 
L 775 -588 
Q 1028 -725 1275 -790 
Q 1522 -856 1778 -856 
Q 2344 -856 2625 -561 
Q 2906 -266 2906 331 
L 2906 616 
Q 2728 306 2450 153 
Q 2172 0 1784 0 
Q 1141 0 747 490 
Q 353 981 353 1791 
Q 353 2603 747 3093 
Q 1141 3584 1784 3584 
Q 2172 3584 2450 3431 
Q 2728 3278 2906 2969 
L 2906 3500 
L 3481 3500 
L 3481 434 
z
" transform="scale(0.015625)"/>
      </defs>
      <use xlink:href="#DejaVuSans-41"/>
      <use xlink:href="#DejaVuSans-76" x="62.533203"/>
      <use xlink:href="#DejaVuSans-65" x="121.712891"/>
      <use xlink:href="#DejaVuSans-72" x="183.236328"/>
      <use xlink:href="#DejaVuSans-61" x="224.349609"/>
      <use xlink:href="#DejaVuSans-67" x="285.628906"/>
      <use xlink:href="#DejaVuSans-65" x="349.105469"/>
     </g>
    </g>
   </g>
  </g>
 </g>
 <defs>
  <clipPath id="pef92437b98">
   <rect x="81" y="43.2" width="502.2" height="277.2"/>
  </clipPath>
 </defs>
</svg>
