<?xml version="1.0" encoding="utf-8" standalone="no"?>
<!DOCTYPE svg PUBLIC "-//W3C//DTD SVG 1.1//EN"
  "http://www.w3.org/Graphics/SVG/1.1/DTD/svg11.dtd">
<svg xmlns:xlink="http://www.w3.org/1999/xlink" width="648pt" height="360pt" viewBox="0 0 648 360" xmlns="http://www.w3.org/2000/svg" version="1.1">
 <metadata>
  <rdf:RDF xmlns:dc="http://purl.org/dc/elements/1.1/" xmlns:cc="http://creativecommons.org/ns#" xmlns:rdf="http://www.w3.org/1999/02/22-rdf-syntax-ns#">
   <cc:Work>
    <dc:type rdf:resource="http://purl.org/dc/dcmitype/StillImage"/>
    <dc:date>2025-08-27T14:12:58.526557</dc:date>
    <dc:format>image/svg+xml</dc:format>
    <dc:creator>
     <cc:Agent>
      <dc:title>Matplotlib v3.8.0, https://matplotlib.org/</dc:title>
     </cc:Agent>
    </dc:creator>
   </cc:Work>
  </rdf:RDF>
 </metadata>
 <defs>
  <style type="text/css">*{stroke-linejoin: round; stroke-linecap: butt}</style>
 </defs>
 <g id="figure_1">
  <g id="patch_1">
   <path d="M 0 360 
L 648 360 
L 648 0 
L 0 0 
z
" style="fill: #ffffff"/>
  </g>
  <g id="axes_1">
   <g id="patch_2">
    <path d="M 81 320.4 
L 583.2 320.4 
L 583.2 43.2 
L 81 43.2 
z
" style="fill: #ffffff"/>
   </g>
   <g id="matplotlib.axis_1">
    <g id="xtick_1">
     <g id="line2d_1">
      <defs>
       <path id="m0101d506ee" d="M 0 0 
L 0 3.5 
" style="stroke: #000000; stroke-width: 0.8"/>
      </defs>
      <g>
       <use xlink:href="#m0101d506ee" x="145.331405" y="320.4" style="stroke: #000000; stroke-width: 0.8"/>
      </g>
     </g>
     <g id="text_1">
      <!-- 2012 -->
      <g transform="translate(130.061405 336.518125) scale(0.12 -0.12)">
       <defs>
        <path id="DejaVuSans-32" d="M 1228 531 
L 3431 531 
L 3431 0 
L 469 0 
L 469 531 
Q 828 903 1448 1529 
Q 2069 2156 2228 2338 
Q 2531 2678 2651 2914 
Q 2772 3150 2772 3378 
Q 2772 3750 2511 3984 
Q 2250 4219 1831 4219 
Q 1534 4219 1204 4116 
Q 875 4013 500 3803 
L 500 4441 
Q 881 4594 1212 4672 
Q 1544 4750 1819 4750 
Q 2544 4750 2975 4387 
Q 3406 4025 3406 3419 
Q 3406 3131 3298 2873 
Q 3191 2616 2906 2266 
Q 2828 2175 2409 1742 
Q 1991 1309 1228 531 
z
" transform="scale(0.015625)"/>
        <path id="DejaVuSans-30" d="M 2034 4250 
Q 1547 4250 1301 3770 
Q 1056 3291 1056 2328 
Q 1056 1369 1301 889 
Q 1547 409 2034 409 
Q 2525 409 2770 889 
Q 3016 1369 3016 2328 
Q 3016 3291 2770 3770 
Q 2525 4250 2034 4250 
z
M 2034 4750 
Q 2819 4750 3233 4129 
Q 3647 3509 3647 2328 
Q 3647 1150 3233 529 
Q 2819 -91 2034 -91 
Q 1250 -91 836 529 
Q 422 1150 422 2328 
Q 422 3509 836 4129 
Q 1250 4750 2034 4750 
z
" transform="scale(0.015625)"/>
        <path id="DejaVuSans-31" d="M 794 531 
L 1825 531 
L 1825 4091 
L 703 3866 
L 703 4441 
L 1819 4666 
L 2450 4666 
L 2450 531 
L 3481 531 
L 3481 0 
L 794 0 
L 794 531 
z
" transform="scale(0.015625)"/>
       </defs>
       <use xlink:href="#DejaVuSans-32"/>
       <use xlink:href="#DejaVuSans-30" x="63.623047"/>
       <use xlink:href="#DejaVuSans-31" x="127.246094"/>
       <use xlink:href="#DejaVuSans-32" x="190.869141"/>
      </g>
     </g>
    </g>
    <g id="xtick_2">
     <g id="line2d_2">
      <g>
       <use xlink:href="#m0101d506ee" x="228.339669" y="320.4" style="stroke: #000000; stroke-width: 0.8"/>
      </g>
     </g>
     <g id="text_2">
      <!-- 2014 -->
      <g transform="translate(213.069669 336.518125) scale(0.12 -0.12)">
       <defs>
        <path id="DejaVuSans-34" d="M 2419 4116 
L 825 1625 
L 2419 1625 
L 2419 4116 
z
M 2253 4666 
L 3047 4666 
L 3047 1625 
L 3713 1625 
L 3713 1100 
L 3047 1100 
L 3047 0 
L 2419 0 
L 2419 1100 
L 313 1100 
L 313 1709 
L 2253 4666 
z
" transform="scale(0.015625)"/>
       </defs>
       <use xlink:href="#DejaVuSans-32"/>
       <use xlink:href="#DejaVuSans-30" x="63.623047"/>
       <use xlink:href="#DejaVuSans-31" x="127.246094"/>
       <use xlink:href="#DejaVuSans-34" x="190.869141"/>
      </g>
     </g>
    </g>
    <g id="xtick_3">
     <g id="line2d_3">
      <g>
       <use xlink:href="#m0101d506ee" x="311.347934" y="320.4" style="stroke: #000000; stroke-width: 0.8"/>
      </g>
     </g>
     <g id="text_3">
      <!-- 2016 -->
      <g transform="translate(296.077934 336.518125) scale(0.12 -0.12)">
       <defs>
        <path id="DejaVuSans-36" d="M 2113 2584 
Q 1688 2584 1439 2293 
Q 1191 2003 1191 1497 
Q 1191 994 1439 701 
Q 1688 409 2113 409 
Q 2538 409 2786 701 
Q 3034 994 3034 1497 
Q 3034 2003 2786 2293 
Q 2538 2584 2113 2584 
z
M 3366 4563 
L 3366 3988 
Q 3128 4100 2886 4159 
Q 2644 4219 2406 4219 
Q 1781 4219 1451 3797 
Q 1122 3375 1075 2522 
Q 1259 2794 1537 2939 
Q 1816 3084 2150 3084 
Q 2853 3084 3261 2657 
Q 3669 2231 3669 1497 
Q 3669 778 3244 343 
Q 2819 -91 2113 -91 
Q 1303 -91 875 529 
Q 447 1150 447 2328 
Q 447 3434 972 4092 
Q 1497 4750 2381 4750 
Q 2619 4750 2861 4703 
Q 3103 4656 3366 4563 
z
" transform="scale(0.015625)"/>
       </defs>
       <use xlink:href="#DejaVuSans-32"/>
       <use xlink:href="#DejaVuSans-30" x="63.623047"/>
       <use xlink:href="#DejaVuSans-31" x="127.246094"/>
       <use xlink:href="#DejaVuSans-36" x="190.869141"/>
      </g>
     </g>
    </g>
    <g id="xtick_4">
     <g id="line2d_4">
      <g>
       <use xlink:href="#m0101d506ee" x="394.356198" y="320.4" style="stroke: #000000; stroke-width: 0.8"/>
      </g>
     </g>
     <g id="text_4">
      <!-- 2018 -->
      <g transform="translate(379.086198 336.518125) scale(0.12 -0.12)">
       <defs>
        <path id="DejaVuSans-38" d="M 2034 2216 
Q 1584 2216 1326 1975 
Q 1069 1734 1069 1313 
Q 1069 891 1326 650 
Q 1584 409 2034 409 
Q 2484 409 2743 651 
Q 3003 894 3003 1313 
Q 3003 1734 2745 1975 
Q 2488 2216 2034 2216 
z
M 1403 2484 
Q 997 2584 770 2862 
Q 544 3141 544 3541 
Q 544 4100 942 4425 
Q 1341 4750 2034 4750 
Q 2731 4750 3128 4425 
Q 3525 4100 3525 3541 
Q 3525 3141 3298 2862 
Q 3072 2584 2669 2484 
Q 3125 2378 3379 2068 
Q 3634 1759 3634 1313 
Q 3634 634 3220 271 
Q 2806 -91 2034 -91 
Q 1263 -91 848 271 
Q 434 634 434 1313 
Q 434 1759 690 2068 
Q 947 2378 1403 2484 
z
M 1172 3481 
Q 1172 3119 1398 2916 
Q 1625 2713 2034 2713 
Q 2441 2713 2670 2916 
Q 2900 3119 2900 3481 
Q 2900 3844 2670 4047 
Q 2441 4250 2034 4250 
Q 1625 4250 1398 4047 
Q 1172 3844 1172 3481 
z
" transform="scale(0.015625)"/>
       </defs>
       <use xlink:href="#DejaVuSans-32"/>
       <use xlink:href="#DejaVuSans-30" x="63.623047"/>
       <use xlink:href="#DejaVuSans-31" x="127.246094"/>
       <use xlink:href="#DejaVuSans-38" x="190.869141"/>
      </g>
     </g>
    </g>
    <g id="xtick_5">
     <g id="line2d_5">
      <g>
       <use xlink:href="#m0101d506ee" x="477.364463" y="320.4" style="stroke: #000000; stroke-width: 0.8"/>
      </g>
     </g>
     <g id="text_5">
      <!-- 2020 -->
      <g transform="translate(462.094463 336.518125) scale(0.12 -0.12)">
       <use xlink:href="#DejaVuSans-32"/>
       <use xlink:href="#DejaVuSans-30" x="63.623047"/>
       <use xlink:href="#DejaVuSans-32" x="127.246094"/>
       <use xlink:href="#DejaVuSans-30" x="190.869141"/>
      </g>
     </g>
    </g>
    <g id="xtick_6">
     <g id="line2d_6">
      <g>
       <use xlink:href="#m0101d506ee" x="560.372727" y="320.4" style="stroke: #000000; stroke-width: 0.8"/>
      </g>
     </g>
     <g id="text_6">
      <!-- 2022 -->
      <g transform="translate(545.102727 336.518125) scale(0.12 -0.12)">
       <use xlink:href="#DejaVuSans-32"/>
       <use xlink:href="#DejaVuSans-30" x="63.623047"/>
       <use xlink:href="#DejaVuSans-32" x="127.246094"/>
       <use xlink:href="#DejaVuSans-32" x="190.869141"/>
      </g>
     </g>
    </g>
    <g id="text_7">
     <!-- Year -->
     <g transform="translate(316.21875 354.411406) scale(0.15 -0.15)">
      <defs>
       <path id="DejaVuSans-59" d="M -13 4666 
L 666 4666 
L 1959 2747 
L 3244 4666 
L 3922 4666 
L 2272 2222 
L 2272 0 
L 1638 0 
L 1638 2222 
L -13 4666 
z
" transform="scale(0.015625)"/>
       <path id="DejaVuSans-65" d="M 3597 1894 
L 3597 1613 
L 953 1613 
Q 991 1019 1311 708 
Q 1631 397 2203 397 
Q 2534 397 2845 478 
Q 3156 559 3463 722 
L 3463 178 
Q 3153 47 2828 -22 
Q 2503 -91 2169 -91 
Q 1331 -91 842 396 
Q 353 884 353 1716 
Q 353 2575 817 3079 
Q 1281 3584 2069 3584 
Q 2775 3584 3186 3129 
Q 3597 2675 3597 1894 
z
M 3022 2063 
Q 3016 2534 2758 2815 
Q 2500 3097 2075 3097 
Q 1594 3097 1305 2825 
Q 1016 2553 972 2059 
L 3022 2063 
z
" transform="scale(0.015625)"/>
       <path id="DejaVuSans-61" d="M 2194 1759 
Q 1497 1759 1228 1600 
Q 959 1441 959 1056 
Q 959 750 1161 570 
Q 1363 391 1709 391 
Q 2188 391 2477 730 
Q 2766 1069 2766 1631 
L 2766 1759 
L 2194 1759 
z
M 3341 1997 
L 3341 0 
L 2766 0 
L 2766 531 
Q 2569 213 2275 61 
Q 1981 -91 1556 -91 
Q 1019 -91 701 211 
Q 384 513 384 1019 
Q 384 1609 779 1909 
Q 1175 2209 1959 2209 
L 2766 2209 
L 2766 2266 
Q 2766 2663 2505 2880 
Q 2244 3097 1772 3097 
Q 1472 3097 1187 3025 
Q 903 2953 641 2809 
L 641 3341 
Q 956 3463 1253 3523 
Q 1550 3584 1831 3584 
Q 2591 3584 2966 3190 
Q 3341 2797 3341 1997 
z
" transform="scale(0.015625)"/>
       <path id="DejaVuSans-72" d="M 2631 2963 
Q 2534 3019 2420 3045 
Q 2306 3072 2169 3072 
Q 1681 3072 1420 2755 
Q 1159 2438 1159 1844 
L 1159 0 
L 581 0 
L 581 3500 
L 1159 3500 
L 1159 2956 
Q 1341 3275 1631 3429 
Q 1922 3584 2338 3584 
Q 2397 3584 2469 3576 
Q 2541 3569 2628 3553 
L 2631 2963 
z
" transform="scale(0.015625)"/>
      </defs>
      <use xlink:href="#DejaVuSans-59"/>
      <use xlink:href="#DejaVuSans-65" x="47.833984"/>
      <use xlink:href="#DejaVuSans-61" x="109.357422"/>
      <use xlink:href="#DejaVuSans-72" x="170.636719"/>
     </g>
    </g>
   </g>
   <g id="matplotlib.axis_2">
    <g id="ytick_1">
     <g id="line2d_7">
      <defs>
       <path id="ma7e6cfb009" d="M 0 0 
L -3.5 0 
" style="stroke: #000000; stroke-width: 0.8"/>
      </defs>
      <g>
       <use xlink:href="#ma7e6cfb009" x="81" y="293.349482" style="stroke: #000000; stroke-width: 0.8"/>
      </g>
     </g>
     <g id="text_8">
      <!-- 18 -->
      <g transform="translate(58.73 297.908544) scale(0.12 -0.12)">
       <use xlink:href="#DejaVuSans-31"/>
       <use xlink:href="#DejaVuSans-38" x="63.623047"/>
      </g>
     </g>
    </g>
    <g id="ytick_2">
     <g id="line2d_8">
      <g>
       <use xlink:href="#ma7e6cfb009" x="81" y="246.116534" style="stroke: #000000; stroke-width: 0.8"/>
      </g>
     </g>
     <g id="text_9">
      <!-- 19 -->
      <g transform="translate(58.73 250.675596) scale(0.12 -0.12)">
       <defs>
        <path id="DejaVuSans-39" d="M 703 97 
L 703 672 
Q 941 559 1184 500 
Q 1428 441 1663 441 
Q 2288 441 2617 861 
Q 2947 1281 2994 2138 
Q 2813 1869 2534 1725 
Q 2256 1581 1919 1581 
Q 1219 1581 811 2004 
Q 403 2428 403 3163 
Q 403 3881 828 4315 
Q 1253 4750 1959 4750 
Q 2769 4750 3195 4129 
Q 3622 3509 3622 2328 
Q 3622 1225 3098 567 
Q 2575 -91 1691 -91 
Q 1453 -91 1209 -44 
Q 966 3 703 97 
z
M 1959 2075 
Q 2384 2075 2632 2365 
Q 2881 2656 2881 3163 
Q 2881 3666 2632 3958 
Q 2384 4250 1959 4250 
Q 1534 4250 1286 3958 
Q 1038 3666 1038 3163 
Q 1038 2656 1286 2365 
Q 1534 2075 1959 2075 
z
" transform="scale(0.015625)"/>
       </defs>
       <use xlink:href="#DejaVuSans-31"/>
       <use xlink:href="#DejaVuSans-39" x="63.623047"/>
      </g>
     </g>
    </g>
    <g id="ytick_3">
     <g id="line2d_9">
      <g>
       <use xlink:href="#ma7e6cfb009" x="81" y="198.883586" style="stroke: #000000; stroke-width: 0.8"/>
      </g>
     </g>
     <g id="text_10">
      <!-- 20 -->
      <g transform="translate(58.73 203.442649) scale(0.12 -0.12)">
       <use xlink:href="#DejaVuSans-32"/>
       <use xlink:href="#DejaVuSans-30" x="63.623047"/>
      </g>
     </g>
    </g>
    <g id="ytick_4">
     <g id="line2d_10">
      <g>
       <use xlink:href="#ma7e6cfb009" x="81" y="151.650639" style="stroke: #000000; stroke-width: 0.8"/>
      </g>
     </g>
     <g id="text_11">
      <!-- 21 -->
      <g transform="translate(58.73 156.209701) scale(0.12 -0.12)">
       <use xlink:href="#DejaVuSans-32"/>
       <use xlink:href="#DejaVuSans-31" x="63.623047"/>
      </g>
     </g>
    </g>
    <g id="ytick_5">
     <g id="line2d_11">
      <g>
       <use xlink:href="#ma7e6cfb009" x="81" y="104.417691" style="stroke: #000000; stroke-width: 0.8"/>
      </g>
     </g>
     <g id="text_12">
      <!-- 22 -->
      <g transform="translate(58.73 108.976754) scale(0.12 -0.12)">
       <use xlink:href="#DejaVuSans-32"/>
       <use xlink:href="#DejaVuSans-32" x="63.623047"/>
      </g>
     </g>
    </g>
    <g id="ytick_6">
     <g id="line2d_12">
      <g>
       <use xlink:href="#ma7e6cfb009" x="81" y="57.184743" style="stroke: #000000; stroke-width: 0.8"/>
      </g>
     </g>
     <g id="text_13">
      <!-- 23 -->
      <g transform="translate(58.73 61.743806) scale(0.12 -0.12)">
       <defs>
        <path id="DejaVuSans-33" d="M 2597 2516 
Q 3050 2419 3304 2112 
Q 3559 1806 3559 1356 
Q 3559 666 3084 287 
Q 2609 -91 1734 -91 
Q 1441 -91 1130 -33 
Q 819 25 488 141 
L 488 750 
Q 750 597 1062 519 
Q 1375 441 1716 441 
Q 2309 441 2620 675 
Q 2931 909 2931 1356 
Q 2931 1769 2642 2001 
Q 2353 2234 1838 2234 
L 1294 2234 
L 1294 2753 
L 1863 2753 
Q 2328 2753 2575 2939 
Q 2822 3125 2822 3475 
Q 2822 3834 2567 4026 
Q 2313 4219 1838 4219 
Q 1578 4219 1281 4162 
Q 984 4106 628 3988 
L 628 4550 
Q 988 4650 1302 4700 
Q 1616 4750 1894 4750 
Q 2613 4750 3031 4423 
Q 3450 4097 3450 3541 
Q 3450 3153 3228 2886 
Q 3006 2619 2597 2516 
z
" transform="scale(0.015625)"/>
       </defs>
       <use xlink:href="#DejaVuSans-32"/>
       <use xlink:href="#DejaVuSans-33" x="63.623047"/>
      </g>
     </g>
    </g>
    <g id="text_14">
     <!-- Total coral cover (%) -->
     <g transform="translate(51.610469 258.769922) rotate(-90) scale(0.15 -0.15)">
      <defs>
       <path id="DejaVuSans-54" d="M -19 4666 
L 3928 4666 
L 3928 4134 
L 2272 4134 
L 2272 0 
L 1638 0 
L 1638 4134 
L -19 4134 
L -19 4666 
z
" transform="scale(0.015625)"/>
       <path id="DejaVuSans-6f" d="M 1959 3097 
Q 1497 3097 1228 2736 
Q 959 2375 959 1747 
Q 959 1119 1226 758 
Q 1494 397 1959 397 
Q 2419 397 2687 759 
Q 2956 1122 2956 1747 
Q 2956 2369 2687 2733 
Q 2419 3097 1959 3097 
z
M 1959 3584 
Q 2709 3584 3137 3096 
Q 3566 2609 3566 1747 
Q 3566 888 3137 398 
Q 2709 -91 1959 -91 
Q 1206 -91 779 398 
Q 353 888 353 1747 
Q 353 2609 779 3096 
Q 1206 3584 1959 3584 
z
" transform="scale(0.015625)"/>
       <path id="DejaVuSans-74" d="M 1172 4494 
L 1172 3500 
L 2356 3500 
L 2356 3053 
L 1172 3053 
L 1172 1153 
Q 1172 725 1289 603 
Q 1406 481 1766 481 
L 2356 481 
L 2356 0 
L 1766 0 
Q 1100 0 847 248 
Q 594 497 594 1153 
L 594 3053 
L 172 3053 
L 172 3500 
L 594 3500 
L 594 4494 
L 1172 4494 
z
" transform="scale(0.015625)"/>
       <path id="DejaVuSans-6c" d="M 603 4863 
L 1178 4863 
L 1178 0 
L 603 0 
L 603 4863 
z
" transform="scale(0.015625)"/>
       <path id="DejaVuSans-20" transform="scale(0.015625)"/>
       <path id="DejaVuSans-63" d="M 3122 3366 
L 3122 2828 
Q 2878 2963 2633 3030 
Q 2388 3097 2138 3097 
Q 1578 3097 1268 2742 
Q 959 2388 959 1747 
Q 959 1106 1268 751 
Q 1578 397 2138 397 
Q 2388 397 2633 464 
Q 2878 531 3122 666 
L 3122 134 
Q 2881 22 2623 -34 
Q 2366 -91 2075 -91 
Q 1284 -91 818 406 
Q 353 903 353 1747 
Q 353 2603 823 3093 
Q 1294 3584 2113 3584 
Q 2378 3584 2631 3529 
Q 2884 3475 3122 3366 
z
" transform="scale(0.015625)"/>
       <path id="DejaVuSans-76" d="M 191 3500 
L 800 3500 
L 1894 563 
L 2988 3500 
L 3597 3500 
L 2284 0 
L 1503 0 
L 191 3500 
z
" transform="scale(0.015625)"/>
       <path id="DejaVuSans-28" d="M 1984 4856 
Q 1566 4138 1362 3434 
Q 1159 2731 1159 2009 
Q 1159 1288 1364 580 
Q 1569 -128 1984 -844 
L 1484 -844 
Q 1016 -109 783 600 
Q 550 1309 550 2009 
Q 550 2706 781 3412 
Q 1013 4119 1484 4856 
L 1984 4856 
z
" transform="scale(0.015625)"/>
       <path id="DejaVuSans-25" d="M 4653 2053 
Q 4381 2053 4226 1822 
Q 4072 1591 4072 1178 
Q 4072 772 4226 539 
Q 4381 306 4653 306 
Q 4919 306 5073 539 
Q 5228 772 5228 1178 
Q 5228 1588 5073 1820 
Q 4919 2053 4653 2053 
z
M 4653 2450 
Q 5147 2450 5437 2106 
Q 5728 1763 5728 1178 
Q 5728 594 5436 251 
Q 5144 -91 4653 -91 
Q 4153 -91 3862 251 
Q 3572 594 3572 1178 
Q 3572 1766 3864 2108 
Q 4156 2450 4653 2450 
z
M 1428 4353 
Q 1159 4353 1004 4120 
Q 850 3888 850 3481 
Q 850 3069 1003 2837 
Q 1156 2606 1428 2606 
Q 1700 2606 1854 2837 
Q 2009 3069 2009 3481 
Q 2009 3884 1853 4118 
Q 1697 4353 1428 4353 
z
M 4250 4750 
L 4750 4750 
L 1831 -91 
L 1331 -91 
L 4250 4750 
z
M 1428 4750 
Q 1922 4750 2215 4408 
Q 2509 4066 2509 3481 
Q 2509 2891 2217 2550 
Q 1925 2209 1428 2209 
Q 931 2209 642 2551 
Q 353 2894 353 3481 
Q 353 4063 643 4406 
Q 934 4750 1428 4750 
z
" transform="scale(0.015625)"/>
       <path id="DejaVuSans-29" d="M 513 4856 
L 1013 4856 
Q 1481 4119 1714 3412 
Q 1947 2706 1947 2009 
Q 1947 1309 1714 600 
Q 1481 -109 1013 -844 
L 513 -844 
Q 928 -128 1133 580 
Q 1338 1288 1338 2009 
Q 1338 2731 1133 3434 
Q 928 4138 513 4856 
z
" transform="scale(0.015625)"/>
      </defs>
      <use xlink:href="#DejaVuSans-54"/>
      <use xlink:href="#DejaVuSans-6f" x="44.083984"/>
      <use xlink:href="#DejaVuSans-74" x="105.265625"/>
      <use xlink:href="#DejaVuSans-61" x="144.474609"/>
      <use xlink:href="#DejaVuSans-6c" x="205.753906"/>
      <use xlink:href="#DejaVuSans-20" x="233.537109"/>
      <use xlink:href="#DejaVuSans-63" x="265.324219"/>
      <use xlink:href="#DejaVuSans-6f" x="320.304688"/>
      <use xlink:href="#DejaVuSans-72" x="381.486328"/>
      <use xlink:href="#DejaVuSans-61" x="422.599609"/>
      <use xlink:href="#DejaVuSans-6c" x="483.878906"/>
      <use xlink:href="#DejaVuSans-20" x="511.662109"/>
      <use xlink:href="#DejaVuSans-63" x="543.449219"/>
      <use xlink:href="#DejaVuSans-6f" x="598.429688"/>
      <use xlink:href="#DejaVuSans-76" x="659.611328"/>
      <use xlink:href="#DejaVuSans-65" x="718.791016"/>
      <use xlink:href="#DejaVuSans-72" x="780.314453"/>
      <use xlink:href="#DejaVuSans-20" x="821.427734"/>
      <use xlink:href="#DejaVuSans-28" x="853.214844"/>
      <use xlink:href="#DejaVuSans-25" x="892.228516"/>
      <use xlink:href="#DejaVuSans-29" x="987.248047"/>
     </g>
    </g>
   </g>
   <g id="line2d_13">
    <path d="M 103.827273 213.053471 
L 145.331405 237.001319 
L 186.835537 258.763871 
L 228.339669 266.72193 
L 269.843802 266.139976 
L 311.347934 251.662536 
L 352.852066 238.134308 
L 394.356198 208.359593 
L 435.860331 200.956952 
L 477.364463 164.627719 
L 518.868595 133.588472 
L 560.372727 95.853275 
" clip-path="url(#pec5f027d8c)" style="fill: none; stroke-dasharray: 3.7,1.6; stroke-dashoffset: 0; stroke: #1f77b4; stroke-opacity: 0.6"/>
   </g>
   <g id="line2d_14">
    <path d="M 103.827273 213.053471 
L 145.331405 224.644418 
L 186.835537 237.702479 
L 228.339669 243.347318 
L 269.843802 244.44306 
L 311.347934 245.213744 
L 352.852066 218.676177 
L 394.356198 194.686224 
L 435.860331 185.470484 
L 477.364463 164.465885 
L 518.868595 138.540877 
L 560.372727 97.339924 
" clip-path="url(#pec5f027d8c)" style="fill: none; stroke-dasharray: 3.7,1.6; stroke-dashoffset: 0; stroke: #ff7f0e; stroke-opacity: 0.6"/>
   </g>
   <g id="line2d_15">
    <path d="M 103.827273 213.053471 
L 145.331405 236.499123 
L 186.835537 258.408216 
L 228.339669 262.352405 
L 269.843802 259.064713 
L 311.347934 264.816088 
L 352.852066 266.982997 
L 394.356198 251.837354 
L 435.860331 246.408257 
L 477.364463 218.275069 
L 518.868595 191.04194 
L 560.372727 164.419051 
" clip-path="url(#pec5f027d8c)" style="fill: none; stroke-dasharray: 3.7,1.6; stroke-dashoffset: 0; stroke: #2ca02c; stroke-opacity: 0.6"/>
   </g>
   <g id="line2d_16">
    <path d="M 103.827273 213.053471 
L 145.331405 237.401036 
L 186.835537 255.802621 
L 228.339669 263.519559 
L 269.843802 271.918246 
L 311.347934 252.995234 
L 352.852066 230.018948 
L 394.356198 190.39924 
L 435.860331 169.068191 
L 477.364463 146.752689 
L 518.868595 100.922071 
L 560.372727 72.40447 
" clip-path="url(#pec5f027d8c)" style="fill: none; stroke-dasharray: 3.7,1.6; stroke-dashoffset: 0; stroke: #d62728; stroke-opacity: 0.6"/>
   </g>
   <g id="line2d_17">
    <path d="M 103.827273 213.053471 
L 145.331405 246.34087 
L 186.835537 261.835291 
L 228.339669 261.120796 
L 269.843802 260.583358 
L 311.347934 269.218535 
L 352.852066 264.972358 
L 394.356198 257.712539 
L 435.860331 240.659664 
L 477.364463 220.845868 
L 518.868595 195.788923 
L 560.372727 157.462961 
" clip-path="url(#pec5f027d8c)" style="fill: none; stroke-dasharray: 3.7,1.6; stroke-dashoffset: 0; stroke: #9467bd; stroke-opacity: 0.6"/>
   </g>
   <g id="line2d_18">
    <path d="M 103.827273 213.053471 
L 145.331405 238.691073 
L 186.835537 253.314337 
L 228.339669 247.054202 
L 269.843802 261.73521 
L 311.347934 271.811129 
L 352.852066 262.184079 
L 394.356198 246.747227 
L 435.860331 226.753513 
L 477.364463 207.223507 
L 518.868595 172.714794 
L 560.372727 136.352174 
" clip-path="url(#pec5f027d8c)" style="fill: none; stroke-dasharray: 3.7,1.6; stroke-dashoffset: 0; stroke: #8c564b; stroke-opacity: 0.6"/>
   </g>
   <g id="line2d_19">
    <path d="M 103.827273 213.053471 
L 145.331405 232.720363 
L 186.835537 249.102591 
L 228.339669 258.645521 
L 269.843802 265.754634 
L 311.347934 271.472158 
L 352.852066 274.041566 
L 394.356198 259.281265 
L 435.860331 249.744175 
L 477.364463 228.487319 
L 518.868595 196.497933 
L 560.372727 162.545669 
" clip-path="url(#pec5f027d8c)" style="fill: none; stroke-dasharray: 3.7,1.6; stroke-dashoffset: 0; stroke: #e377c2; stroke-opacity: 0.6"/>
   </g>
   <g id="line2d_20">
    <path d="M 103.827273 213.053471 
L 145.331405 230.308152 
L 186.835537 247.104983 
L 228.339669 267.971624 
L 269.843802 276.27525 
L 311.347934 256.8723 
L 352.852066 259.604006 
L 394.356198 252.679449 
L 435.860331 241.682604 
L 477.364463 211.02638 
L 518.868595 175.829523 
L 560.372727 130.240033 
" clip-path="url(#pec5f027d8c)" style="fill: none; stroke-dasharray: 3.7,1.6; stroke-dashoffset: 0; stroke: #7f7f7f; stroke-opacity: 0.6"/>
   </g>
   <g id="line2d_21">
    <path d="M 103.827273 213.053471 
L 145.331405 238.66325 
L 186.835537 259.999157 
L 228.339669 271.797681 
L 269.843802 286.978103 
L 311.347934 277.739177 
L 352.852066 273.789773 
L 394.356198 252.541264 
L 435.860331 237.41185 
L 477.364463 213.51974 
L 518.868595 174.547369 
L 560.372727 137.829085 
" clip-path="url(#pec5f027d8c)" style="fill: none; stroke-dasharray: 3.7,1.6; stroke-dashoffset: 0; stroke: #bcbd22; stroke-opacity: 0.6"/>
   </g>
   <g id="line2d_22">
    <path d="M 103.827273 213.053471 
L 145.331405 244.307508 
L 186.835537 244.863141 
L 228.339669 254.703536 
L 269.843802 269.521801 
L 311.347934 280.295601 
L 352.852066 287.739976 
L 394.356198 271.523166 
L 435.860331 246.102209 
L 477.364463 210.525575 
L 518.868595 175.946841 
L 560.372727 142.387338 
" clip-path="url(#pec5f027d8c)" style="fill: none; stroke-dasharray: 3.7,1.6; stroke-dashoffset: 0; stroke: #17becf; stroke-opacity: 0.6"/>
   </g>
   <g id="line2d_23">
    <path d="M 103.827273 213.053471 
L 145.331405 242.520376 
L 186.835537 258.648299 
L 228.339669 270.077787 
L 269.843802 278.550203 
L 311.347934 280.778322 
L 352.852066 277.219824 
L 394.356198 271.371533 
L 435.860331 253.172371 
L 477.364463 215.322174 
L 518.868595 185.172783 
L 560.372727 153.683738 
" clip-path="url(#pec5f027d8c)" style="fill: none; stroke-dasharray: 3.7,1.6; stroke-dashoffset: 0; stroke: #1f77b4; stroke-opacity: 0.6"/>
   </g>
   <g id="line2d_24">
    <path d="M 103.827273 213.053471 
L 145.331405 238.945648 
L 186.835537 237.205103 
L 228.339669 244.663786 
L 269.843802 253.896683 
L 311.347934 248.276074 
L 352.852066 229.60532 
L 394.356198 231.786604 
L 435.860331 212.066941 
L 477.364463 174.41614 
L 518.868595 148.136858 
L 560.372727 110.671076 
" clip-path="url(#pec5f027d8c)" style="fill: none; stroke-dasharray: 3.7,1.6; stroke-dashoffset: 0; stroke: #ff7f0e; stroke-opacity: 0.6"/>
   </g>
   <g id="line2d_25">
    <path d="M 103.827273 213.053471 
L 145.331405 222.92777 
L 186.835537 247.588311 
L 228.339669 247.109847 
L 269.843802 256.071939 
L 311.347934 240.075391 
L 352.852066 234.062021 
L 394.356198 219.624924 
L 435.860331 208.295601 
L 477.364463 178.058569 
L 518.868595 139.254988 
L 560.372727 84.671411 
" clip-path="url(#pec5f027d8c)" style="fill: none; stroke-dasharray: 3.7,1.6; stroke-dashoffset: 0; stroke: #2ca02c; stroke-opacity: 0.6"/>
   </g>
   <g id="line2d_26">
    <path d="M 103.827273 213.053471 
L 145.331405 221.779164 
L 186.835537 244.867757 
L 228.339669 264.3074 
L 269.843802 278.814517 
L 311.347934 285.653752 
L 352.852066 275.290797 
L 394.356198 259.433361 
L 435.860331 239.527752 
L 477.364463 210.622954 
L 518.868595 172.394371 
L 560.372727 138.973517 
" clip-path="url(#pec5f027d8c)" style="fill: none; stroke-dasharray: 3.7,1.6; stroke-dashoffset: 0; stroke: #d62728; stroke-opacity: 0.6"/>
   </g>
   <g id="line2d_27">
    <path d="M 103.827273 213.053471 
L 145.331405 243.363862 
L 186.835537 262.095026 
L 228.339669 278.805242 
L 269.843802 281.71965 
L 311.347934 286.869595 
L 352.852066 279.193366 
L 394.356198 255.421356 
L 435.860331 230.658401 
L 477.364463 197.831094 
L 518.868595 150.937193 
L 560.372727 106.321028 
" clip-path="url(#pec5f027d8c)" style="fill: none; stroke-dasharray: 3.7,1.6; stroke-dashoffset: 0; stroke: #9467bd; stroke-opacity: 0.6"/>
   </g>
   <g id="line2d_28">
    <path d="M 103.827273 213.053471 
L 145.331405 243.616583 
L 186.835537 260.990468 
L 228.339669 266.424692 
L 269.843802 276.326257 
L 311.347934 268.107026 
L 352.852066 244.887293 
L 394.356198 211.033335 
L 435.860331 200.961589 
L 477.364463 176.307142 
L 518.868595 141.633812 
L 560.372727 100.890075 
" clip-path="url(#pec5f027d8c)" style="fill: none; stroke-dasharray: 3.7,1.6; stroke-dashoffset: 0; stroke: #8c564b; stroke-opacity: 0.6"/>
   </g>
   <g id="line2d_29">
    <path d="M 103.827273 213.053471 
L 145.331405 243.717671 
L 186.835537 264.002252 
L 228.339669 280.747253 
L 269.843802 278.812198 
L 311.347934 279.067238 
L 352.852066 282.084124 
L 394.356198 264.318993 
L 435.860331 252.433683 
L 477.364463 237.368262 
L 518.868595 199.093308 
L 560.372727 168.192246 
" clip-path="url(#pec5f027d8c)" style="fill: none; stroke-dasharray: 3.7,1.6; stroke-dashoffset: 0; stroke: #e377c2; stroke-opacity: 0.6"/>
   </g>
   <g id="line2d_30">
    <path d="M 103.827273 213.053471 
L 145.331405 239.275809 
L 186.835537 265.621609 
L 228.339669 267.300638 
L 269.843802 279.994191 
L 311.347934 279.26756 
L 352.852066 267.112836 
L 394.356198 252.026084 
L 435.860331 214.500947 
L 477.364463 168.973594 
L 518.868595 133.924197 
L 560.372727 106.942397 
" clip-path="url(#pec5f027d8c)" style="fill: none; stroke-dasharray: 3.7,1.6; stroke-dashoffset: 0; stroke: #7f7f7f; stroke-opacity: 0.6"/>
   </g>
   <g id="line2d_31">
    <path d="M 103.827273 213.053471 
L 145.331405 231.227222 
L 186.835537 228.111469 
L 228.339669 219.457062 
L 269.843802 235.59365 
L 311.347934 247.687628 
L 352.852066 232.709384 
L 394.356198 212.125832 
L 435.860331 194.495176 
L 477.364463 188.461866 
L 518.868595 171.9353 
L 560.372727 133.53329 
" clip-path="url(#pec5f027d8c)" style="fill: none; stroke-dasharray: 3.7,1.6; stroke-dashoffset: 0; stroke: #bcbd22; stroke-opacity: 0.6"/>
   </g>
   <g id="line2d_32">
    <path d="M 103.827273 213.053471 
L 145.331405 221.71239 
L 186.835537 243.542016 
L 228.339669 247.56289 
L 269.843802 261.473678 
L 311.347934 264.002744 
L 352.852066 248.34934 
L 394.356198 228.040304 
L 435.860331 218.827346 
L 477.364463 198.717705 
L 518.868595 175.681136 
L 560.372727 147.907786 
" clip-path="url(#pec5f027d8c)" style="fill: none; stroke-dasharray: 3.7,1.6; stroke-dashoffset: 0; stroke: #17becf; stroke-opacity: 0.6"/>
   </g>
   <g id="line2d_33">
    <path d="M 103.827273 213.053471 
L 145.331405 228.974991 
L 186.835537 254.131582 
L 228.339669 258.676125 
L 269.843802 264.932015 
L 311.347934 266.411245 
L 352.852066 252.707271 
L 394.356198 242.169498 
L 435.860331 226.182225 
L 477.364463 189.218175 
L 518.868595 158.8833 
L 560.372727 125.103072 
" clip-path="url(#pec5f027d8c)" style="fill: none; stroke-dasharray: 3.7,1.6; stroke-dashoffset: 0; stroke: #1f77b4; stroke-opacity: 0.6"/>
   </g>
   <g id="line2d_34">
    <path d="M 103.827273 213.053471 
L 145.331405 223.352991 
L 186.835537 241.656545 
L 228.339669 256.836131 
L 269.843802 252.191627 
L 311.347934 242.003954 
L 352.852066 240.225169 
L 394.356198 241.501295 
L 435.860331 231.94612 
L 477.364463 194.20675 
L 518.868595 178.540362 
L 560.372727 140.25938 
" clip-path="url(#pec5f027d8c)" style="fill: none; stroke-dasharray: 3.7,1.6; stroke-dashoffset: 0; stroke: #ff7f0e; stroke-opacity: 0.6"/>
   </g>
   <g id="line2d_35">
    <path d="M 103.827273 213.053471 
L 145.331405 220.974167 
L 186.835537 242.98187 
L 228.339669 255.162143 
L 269.843802 249.633348 
L 311.347934 255.313312 
L 352.852066 233.320551 
L 394.356198 234.2795 
L 435.860331 204.256238 
L 477.364463 189.59146 
L 518.868595 166.514085 
L 560.372727 147.711174 
" clip-path="url(#pec5f027d8c)" style="fill: none; stroke-dasharray: 3.7,1.6; stroke-dashoffset: 0; stroke: #2ca02c; stroke-opacity: 0.6"/>
   </g>
   <g id="line2d_36">
    <path d="M 103.827273 213.053471 
L 145.331405 231.363089 
L 186.835537 253.633512 
L 228.339669 249.096374 
L 269.843802 259.280801 
L 311.347934 257.006312 
L 352.852066 249.624538 
L 394.356198 239.573195 
L 435.860331 214.303407 
L 477.364463 168.923978 
L 518.868595 120.925987 
L 560.372727 89.348838 
" clip-path="url(#pec5f027d8c)" style="fill: none; stroke-dasharray: 3.7,1.6; stroke-dashoffset: 0; stroke: #d62728; stroke-opacity: 0.6"/>
   </g>
   <g id="line2d_37">
    <path d="M 103.827273 213.053471 
L 145.331405 224.779357 
L 186.835537 235.713631 
L 228.339669 254.788858 
L 269.843802 252.695215 
L 311.347934 238.608218 
L 352.852066 239.574122 
L 394.356198 230.36812 
L 435.860331 214.460604 
L 477.364463 194.195157 
L 518.868595 176.931758 
L 560.372727 148.935364 
" clip-path="url(#pec5f027d8c)" style="fill: none; stroke-dasharray: 3.7,1.6; stroke-dashoffset: 0; stroke: #9467bd; stroke-opacity: 0.6"/>
   </g>
   <g id="line2d_38">
    <path d="M 103.827273 213.053471 
L 145.331405 239.061112 
L 186.835537 255.067611 
L 228.339669 259.791808 
L 269.843802 248.647504 
L 311.347934 234.828995 
L 352.852066 231.521363 
L 394.356198 220.35341 
L 435.860331 198.887422 
L 477.364463 177.260991 
L 518.868595 127.17353 
L 560.372727 96.364282 
" clip-path="url(#pec5f027d8c)" style="fill: none; stroke-dasharray: 3.7,1.6; stroke-dashoffset: 0; stroke: #8c564b; stroke-opacity: 0.6"/>
   </g>
   <g id="line2d_39">
    <path d="M 103.827273 213.053471 
L 145.331405 240.998022 
L 186.835537 264.408514 
L 228.339669 268.707993 
L 269.843802 273.467032 
L 311.347934 256.991009 
L 352.852066 242.844658 
L 394.356198 210.636401 
L 435.860331 186.878766 
L 477.364463 150.944613 
L 518.868595 119.93226 
L 560.372727 73.981542 
" clip-path="url(#pec5f027d8c)" style="fill: none; stroke-dasharray: 3.7,1.6; stroke-dashoffset: 0; stroke: #e377c2; stroke-opacity: 0.6"/>
   </g>
   <g id="line2d_40">
    <path d="M 103.827273 213.053471 
L 145.331405 237.473374 
L 186.835537 256.759714 
L 228.339669 266.350035 
L 269.843802 276.358253 
L 311.347934 275.88898 
L 352.852066 270.327262 
L 394.356198 254.068255 
L 435.860331 241.622322 
L 477.364463 211.714059 
L 518.868595 182.437831 
L 560.372727 137.495215 
" clip-path="url(#pec5f027d8c)" style="fill: none; stroke-dasharray: 3.7,1.6; stroke-dashoffset: 0; stroke: #7f7f7f; stroke-opacity: 0.6"/>
   </g>
   <g id="line2d_41">
    <path d="M 103.827273 213.053471 
L 145.331405 238.900205 
L 186.835537 265.524238 
L 228.339669 285.127443 
L 269.843802 299.678148 
L 311.347934 307.8 
L 352.852066 297.86783 
L 394.356198 290.901076 
L 435.860331 262.406659 
L 477.364463 243.922316 
L 518.868595 216.961847 
L 560.372727 183.567424 
" clip-path="url(#pec5f027d8c)" style="fill: none; stroke-dasharray: 3.7,1.6; stroke-dashoffset: 0; stroke: #bcbd22; stroke-opacity: 0.6"/>
   </g>
   <g id="line2d_42">
    <path d="M 103.827273 213.053471 
L 145.331405 237.85918 
L 186.835537 259.0022 
L 228.339669 267.160598 
L 269.843802 270.618471 
L 311.347934 259.725498 
L 352.852066 249.726554 
L 394.356198 221.778386 
L 435.860331 186.275481 
L 477.364463 141.521131 
L 518.868595 112.596393 
L 560.372727 80.130315 
" clip-path="url(#pec5f027d8c)" style="fill: none; stroke-dasharray: 3.7,1.6; stroke-dashoffset: 0; stroke: #17becf; stroke-opacity: 0.6"/>
   </g>
   <g id="line2d_43">
    <path d="M 103.827273 213.053471 
L 145.331405 235.072292 
L 186.835537 253.472069 
L 228.339669 264.080183 
L 269.843802 277.910749 
L 311.347934 271.724416 
L 352.852066 273.567656 
L 394.356198 267.344226 
L 435.860331 246.8664 
L 477.364463 202.613782 
L 518.868595 164.493244 
L 560.372727 121.206994 
" clip-path="url(#pec5f027d8c)" style="fill: none; stroke-dasharray: 3.7,1.6; stroke-dashoffset: 0; stroke: #1f77b4; stroke-opacity: 0.6"/>
   </g>
   <g id="line2d_44">
    <path d="M 103.827273 213.053471 
L 145.331405 242.75965 
L 186.835537 240.610038 
L 228.339669 238.981039 
L 269.843802 252.530135 
L 311.347934 246.839505 
L 352.852066 231.276525 
L 394.356198 210.845997 
L 435.860331 180.463361 
L 477.364463 160.849887 
L 518.868595 115.573865 
L 560.372727 77.965724 
" clip-path="url(#pec5f027d8c)" style="fill: none; stroke-dasharray: 3.7,1.6; stroke-dashoffset: 0; stroke: #ff7f0e; stroke-opacity: 0.6"/>
   </g>
   <g id="line2d_45">
    <path d="M 103.827273 213.053471 
L 145.331405 231.939479 
L 186.835537 257.836554 
L 228.339669 257.913789 
L 269.843802 271.582984 
L 311.347934 278.65732 
L 352.852066 268.26376 
L 394.356198 252.947936 
L 435.860331 230.987171 
L 477.364463 194.494249 
L 518.868595 141.470587 
L 560.372727 95.663155 
" clip-path="url(#pec5f027d8c)" style="fill: none; stroke-dasharray: 3.7,1.6; stroke-dashoffset: 0; stroke: #2ca02c; stroke-opacity: 0.6"/>
   </g>
   <g id="line2d_46">
    <path d="M 103.827273 213.053471 
L 145.331405 225.327461 
L 186.835537 242.9011 
L 228.339669 259.806183 
L 269.843802 275.463296 
L 311.347934 269.942384 
L 352.852066 265.111007 
L 394.356198 261.921157 
L 435.860331 242.375385 
L 477.364463 219.250248 
L 518.868595 198.037908 
L 560.372727 158.237354 
" clip-path="url(#pec5f027d8c)" style="fill: none; stroke-dasharray: 3.7,1.6; stroke-dashoffset: 0; stroke: #d62728; stroke-opacity: 0.6"/>
   </g>
   <g id="line2d_47">
    <path d="M 103.827273 213.053471 
L 145.331405 224.84474 
L 186.835537 230.378665 
L 228.339669 245.360276 
L 269.843802 254.310311 
L 311.347934 261.054486 
L 352.852066 238.564629 
L 394.356198 244.09157 
L 435.860331 231.659084 
L 477.364463 217.009609 
L 518.868595 195.962349 
L 560.372727 151.993521 
" clip-path="url(#pec5f027d8c)" style="fill: none; stroke-dasharray: 3.7,1.6; stroke-dashoffset: 0; stroke: #9467bd; stroke-opacity: 0.6"/>
   </g>
   <g id="line2d_48">
    <path d="M 103.827273 213.053471 
L 145.331405 241.456629 
L 186.835537 254.749923 
L 228.339669 270.269762 
L 269.843802 272.070342 
L 311.347934 268.971379 
L 352.852066 273.748966 
L 394.356198 252.437857 
L 435.860331 233.08777 
L 477.364463 185.941611 
L 518.868595 155.216294 
L 560.372727 105.835989 
" clip-path="url(#pec5f027d8c)" style="fill: none; stroke-dasharray: 3.7,1.6; stroke-dashoffset: 0; stroke: #8c564b; stroke-opacity: 0.6"/>
   </g>
   <g id="line2d_49">
    <path d="M 103.827273 213.053471 
L 145.331405 232.869214 
L 186.835537 237.599838 
L 228.339669 242.205668 
L 269.843802 249.703368 
L 311.347934 228.051897 
L 352.852066 206.712501 
L 394.356198 185.674979 
L 435.860331 164.683364 
L 477.364463 148.518954 
L 518.868595 122.05929 
L 560.372727 75.043434 
" clip-path="url(#pec5f027d8c)" style="fill: none; stroke-dasharray: 3.7,1.6; stroke-dashoffset: 0; stroke: #e377c2; stroke-opacity: 0.6"/>
   </g>
   <g id="line2d_50">
    <path d="M 103.827273 213.053471 
L 145.331405 242.833843 
L 186.835537 262.278202 
L 228.339669 256.695163 
L 269.843802 265.166188 
L 311.347934 269.273717 
L 352.852066 259.554853 
L 394.356198 254.660875 
L 435.860331 241.683068 
L 477.364463 217.784466 
L 518.868595 175.472467 
L 560.372727 145.726039 
" clip-path="url(#pec5f027d8c)" style="fill: none; stroke-dasharray: 3.7,1.6; stroke-dashoffset: 0; stroke: #7f7f7f; stroke-opacity: 0.6"/>
   </g>
   <g id="line2d_51">
    <path d="M 103.827273 213.053471 
L 145.331405 240.79028 
L 186.835537 241.155862 
L 228.339669 252.387776 
L 269.843802 261.476924 
L 311.347934 259.781606 
L 352.852066 263.826071 
L 394.356198 251.285541 
L 435.860331 229.158305 
L 477.364463 207.615341 
L 518.868595 179.746004 
L 560.372727 135.434958 
" clip-path="url(#pec5f027d8c)" style="fill: none; stroke-dasharray: 3.7,1.6; stroke-dashoffset: 0; stroke: #bcbd22; stroke-opacity: 0.6"/>
   </g>
   <g id="line2d_52">
    <path d="M 103.827273 213.053471 
L 145.331405 238.311295 
L 186.835537 245.933498 
L 228.339669 263.883571 
L 269.843802 276.615148 
L 311.347934 284.453674 
L 352.852066 268.714484 
L 394.356198 258.227719 
L 435.860331 239.988678 
L 477.364463 225.787609 
L 518.868595 195.14715 
L 560.372727 166.65227 
" clip-path="url(#pec5f027d8c)" style="fill: none; stroke-dasharray: 3.7,1.6; stroke-dashoffset: 0; stroke: #17becf; stroke-opacity: 0.6"/>
   </g>
   <g id="line2d_53">
    <path d="M 103.827273 213.053471 
L 145.331405 231.730346 
L 186.835537 253.921468 
L 228.339669 268.828093 
L 269.843802 277.247182 
L 311.347934 274.976402 
L 352.852066 276.149585 
L 394.356198 271.280647 
L 435.860331 254.646036 
L 477.364463 215.884653 
L 518.868595 189.312771 
L 560.372727 151.756102 
" clip-path="url(#pec5f027d8c)" style="fill: none; stroke-dasharray: 3.7,1.6; stroke-dashoffset: 0; stroke: #1f77b4; stroke-opacity: 0.6"/>
   </g>
   <g id="line2d_54">
    <path d="M 103.827273 213.053471 
L 145.331405 235.785012 
L 186.835537 238.966329 
L 228.339669 255.356901 
L 269.843802 262.621356 
L 311.347934 245.094571 
L 352.852066 251.069917 
L 394.356198 223.6833 
L 435.860331 214.390584 
L 477.364463 201.348322 
L 518.868595 169.297263 
L 560.372727 132.808514 
" clip-path="url(#pec5f027d8c)" style="fill: none; stroke-dasharray: 3.7,1.6; stroke-dashoffset: 0; stroke: #ff7f0e; stroke-opacity: 0.6"/>
   </g>
   <g id="line2d_55">
    <path d="M 103.827273 213.053471 
L 145.331405 221.37852 
L 186.835537 249.641642 
L 228.339669 261.845109 
L 269.843802 271.706331 
L 311.347934 280.2279 
L 352.852066 280.253404 
L 394.356198 257.856289 
L 435.860331 231.036788 
L 477.364463 197.157326 
L 518.868595 159.895112 
L 560.372727 117.88777 
" clip-path="url(#pec5f027d8c)" style="fill: none; stroke-dasharray: 3.7,1.6; stroke-dashoffset: 0; stroke: #2ca02c; stroke-opacity: 0.6"/>
   </g>
   <g id="line2d_56">
    <path d="M 103.827273 213.053471 
L 145.331405 236.356301 
L 186.835537 243.721184 
L 228.339669 254.806943 
L 269.843802 249.545244 
L 311.347934 231.516726 
L 352.852066 230.793804 
L 394.356198 224.919083 
L 435.860331 214.627539 
L 477.364463 190.010652 
L 518.868595 172.013667 
L 560.372727 147.086559 
" clip-path="url(#pec5f027d8c)" style="fill: none; stroke-dasharray: 3.7,1.6; stroke-dashoffset: 0; stroke: #d62728; stroke-opacity: 0.6"/>
   </g>
   <g id="line2d_57">
    <path d="M 103.827273 213.053471 
L 145.331405 236.32245 
L 186.835537 251.462332 
L 228.339669 273.763805 
L 269.843802 280.392516 
L 311.347934 276.470471 
L 352.852066 274.546545 
L 394.356198 260.063077 
L 435.860331 242.891492 
L 477.364463 213.442764 
L 518.868595 176.501436 
L 560.372727 137.117756 
" clip-path="url(#pec5f027d8c)" style="fill: none; stroke-dasharray: 3.7,1.6; stroke-dashoffset: 0; stroke: #9467bd; stroke-opacity: 0.6"/>
   </g>
   <g id="line2d_58">
    <path d="M 103.827273 213.053471 
L 145.331405 244.813414 
L 186.835537 261.202823 
L 228.339669 272.705159 
L 269.843802 274.012816 
L 311.347934 272.724171 
L 352.852066 254.804624 
L 394.356198 243.02875 
L 435.860331 229.311792 
L 477.364463 213.800747 
L 518.868595 193.99298 
L 560.372727 158.090822 
" clip-path="url(#pec5f027d8c)" style="fill: none; stroke-dasharray: 3.7,1.6; stroke-dashoffset: 0; stroke: #8c564b; stroke-opacity: 0.6"/>
   </g>
   <g id="line2d_59">
    <path d="M 103.827273 213.053471 
L 145.331405 228.860919 
L 186.835537 247.016906 
L 228.339669 259.803401 
L 269.843802 269.649321 
L 311.347934 278.855787 
L 352.852066 260.762813 
L 394.356198 253.594809 
L 435.860331 235.26859 
L 477.364463 213.91621 
L 518.868595 189.285413 
L 560.372727 149.855825 
" clip-path="url(#pec5f027d8c)" style="fill: none; stroke-dasharray: 3.7,1.6; stroke-dashoffset: 0; stroke: #e377c2; stroke-opacity: 0.6"/>
   </g>
   <g id="line2d_60">
    <path d="M 103.827273 213.053471 
L 145.331405 237.930591 
L 186.835537 257.732565 
L 228.339669 276.139847 
L 269.843802 266.702917 
L 311.347934 262.542062 
L 352.852066 260.117795 
L 394.356198 250.417016 
L 435.860331 233.439724 
L 477.364463 200.336974 
L 518.868595 166.199227 
L 560.372727 121.10637 
" clip-path="url(#pec5f027d8c)" style="fill: none; stroke-dasharray: 3.7,1.6; stroke-dashoffset: 0; stroke: #7f7f7f; stroke-opacity: 0.6"/>
   </g>
   <g id="line2d_61">
    <path d="M 103.827273 213.053471 
L 145.331405 236.472228 
L 186.835537 254.716635 
L 228.339669 267.397089 
L 269.843802 251.953281 
L 311.347934 239.019527 
L 352.852066 219.598493 
L 394.356198 217.596664 
L 435.860331 179.988987 
L 477.364463 162.580447 
L 518.868595 133.682604 
L 560.372727 87.428621 
" clip-path="url(#pec5f027d8c)" style="fill: none; stroke-dasharray: 3.7,1.6; stroke-dashoffset: 0; stroke: #bcbd22; stroke-opacity: 0.6"/>
   </g>
   <g id="line2d_62">
    <path d="M 103.827273 213.053471 
L 145.331405 233.997416 
L 186.835537 262.995733 
L 228.339669 274.145901 
L 269.843802 258.407638 
L 311.347934 268.065293 
L 352.852066 262.083918 
L 394.356198 245.447917 
L 435.860331 227.611837 
L 477.364463 212.962826 
L 518.868595 188.587531 
L 560.372727 153.542307 
" clip-path="url(#pec5f027d8c)" style="fill: none; stroke-dasharray: 3.7,1.6; stroke-dashoffset: 0; stroke: #17becf; stroke-opacity: 0.6"/>
   </g>
   <g id="line2d_63">
    <path d="M 103.827273 213.053471 
L 145.331405 238.876556 
L 186.835537 253.580965 
L 228.339669 251.239634 
L 269.843802 267.028904 
L 311.347934 255.97456 
L 352.852066 254.779584 
L 394.356198 252.825981 
L 435.860331 221.163045 
L 477.364463 200.672699 
L 518.868595 158.752998 
L 560.372727 123.738378 
" clip-path="url(#pec5f027d8c)" style="fill: none; stroke-dasharray: 3.7,1.6; stroke-dashoffset: 0; stroke: #1f77b4; stroke-opacity: 0.6"/>
   </g>
   <g id="line2d_64">
    <path d="M 103.827273 213.053471 
L 145.331405 228.698157 
L 186.835537 249.456943 
L 228.339669 257.861854 
L 269.843802 272.226612 
L 311.347934 271.73879 
L 352.852066 264.964011 
L 394.356198 255.470046 
L 435.860331 244.460681 
L 477.364463 213.82857 
L 518.868595 189.718052 
L 560.372727 143.58046 
" clip-path="url(#pec5f027d8c)" style="fill: none; stroke-dasharray: 3.7,1.6; stroke-dashoffset: 0; stroke: #ff7f0e; stroke-opacity: 0.6"/>
   </g>
   <g id="line2d_65">
    <path d="M 103.827273 213.053471 
L 145.331405 236.075757 
L 186.835537 254.698094 
L 228.339669 254.584363 
L 269.843802 266.992272 
L 311.347934 264.091776 
L 352.852066 260.506382 
L 394.356198 258.909371 
L 435.860331 245.276808 
L 477.364463 223.430579 
L 518.868595 193.868242 
L 560.372727 157.928988 
" clip-path="url(#pec5f027d8c)" style="fill: none; stroke-dasharray: 3.7,1.6; stroke-dashoffset: 0; stroke: #2ca02c; stroke-opacity: 0.6"/>
   </g>
   <g id="line2d_66">
    <path d="M 103.827273 213.053471 
L 145.331405 240.326572 
L 186.835537 258.807858 
L 228.339669 256.635345 
L 269.843802 253.100496 
L 311.347934 261.001623 
L 352.852066 250.621047 
L 394.356198 240.571559 
L 435.860331 221.437097 
L 477.364463 207.910723 
L 518.868595 160.20997 
L 560.372727 115.61699 
" clip-path="url(#pec5f027d8c)" style="fill: none; stroke-dasharray: 3.7,1.6; stroke-dashoffset: 0; stroke: #d62728; stroke-opacity: 0.6"/>
   </g>
   <g id="line2d_67">
    <path d="M 103.827273 213.053471 
L 145.331405 244.831499 
L 186.835537 257.031766 
L 228.339669 272.994513 
L 269.843802 268.092652 
L 311.347934 261.727327 
L 352.852066 262.632022 
L 394.356198 251.855439 
L 435.860331 233.304785 
L 477.364463 197.441579 
L 518.868595 166.912411 
L 560.372727 117.254808 
" clip-path="url(#pec5f027d8c)" style="fill: none; stroke-dasharray: 3.7,1.6; stroke-dashoffset: 0; stroke: #9467bd; stroke-opacity: 0.6"/>
   </g>
   <g id="line2d_68">
    <path d="M 103.827273 213.053471 
L 145.331405 231.095066 
L 186.835537 240.497123 
L 228.339669 242.632279 
L 269.843802 260.364951 
L 311.347934 262.69555 
L 352.852066 253.799768 
L 394.356198 246.935493 
L 435.860331 232.715876 
L 477.364463 213.688993 
L 518.868595 180.54961 
L 560.372727 148.502724 
" clip-path="url(#pec5f027d8c)" style="fill: none; stroke-dasharray: 3.7,1.6; stroke-dashoffset: 0; stroke: #8c564b; stroke-opacity: 0.6"/>
   </g>
   <g id="line2d_69">
    <path d="M 103.827273 213.053471 
L 145.331405 233.146511 
L 186.835537 252.712089 
L 228.339669 267.238037 
L 269.843802 273.854228 
L 311.347934 271.274618 
L 352.852066 276.854421 
L 394.356198 259.233039 
L 435.860331 253.092149 
L 477.364463 227.220468 
L 518.868595 205.860205 
L 560.372727 180.490719 
" clip-path="url(#pec5f027d8c)" style="fill: none; stroke-dasharray: 3.7,1.6; stroke-dashoffset: 0; stroke: #e377c2; stroke-opacity: 0.6"/>
   </g>
   <g id="line2d_70">
    <path d="M 103.827273 213.053471 
L 145.331405 231.202646 
L 186.835537 261.561537 
L 228.339669 262.066761 
L 269.843802 251.053687 
L 311.347934 268.27999 
L 352.852066 256.190185 
L 394.356198 252.815779 
L 435.860331 230.126528 
L 477.364463 211.85549 
L 518.868595 178.121633 
L 560.372727 157.263567 
" clip-path="url(#pec5f027d8c)" style="fill: none; stroke-dasharray: 3.7,1.6; stroke-dashoffset: 0; stroke: #7f7f7f; stroke-opacity: 0.6"/>
   </g>
   <g id="line2d_71">
    <path d="M 103.827273 213.053471 
L 145.331405 234.566387 
L 186.835537 255.238344 
L 228.339669 266.214633 
L 269.843802 279.662176 
L 311.347934 282.404547 
L 352.852066 277.362182 
L 394.356198 256.905223 
L 435.860331 227.792684 
L 477.364463 214.781954 
L 518.868595 179.358807 
L 560.372727 132.773272 
" clip-path="url(#pec5f027d8c)" style="fill: none; stroke-dasharray: 3.7,1.6; stroke-dashoffset: 0; stroke: #bcbd22; stroke-opacity: 0.6"/>
   </g>
   <g id="line2d_72">
    <path d="M 103.827273 213.053471 
L 145.331405 239.093571 
L 186.835537 251.236915 
L 228.339669 247.695975 
L 269.843802 254.664584 
L 311.347934 243.543466 
L 352.852066 235.495344 
L 394.356198 220.756836 
L 435.860331 203.369163 
L 477.364463 171.799897 
L 518.868595 143.604109 
L 560.372727 100.09157 
" clip-path="url(#pec5f027d8c)" style="fill: none; stroke-dasharray: 3.7,1.6; stroke-dashoffset: 0; stroke: #17becf; stroke-opacity: 0.6"/>
   </g>
   <g id="line2d_73">
    <path d="M 103.827273 213.053471 
L 145.331405 245.055006 
L 186.835537 261.974429 
L 228.339669 268.729787 
L 269.843802 277.90843 
L 311.347934 267.884446 
L 352.852066 264.29117 
L 394.356198 252.306163 
L 435.860331 245.660295 
L 477.364463 209.862008 
L 518.868595 175.482205 
L 560.372727 157.862214 
" clip-path="url(#pec5f027d8c)" style="fill: none; stroke-dasharray: 3.7,1.6; stroke-dashoffset: 0; stroke: #1f77b4; stroke-opacity: 0.6"/>
   </g>
   <g id="line2d_74">
    <path d="M 103.827273 213.053471 
L 145.331405 227.026952 
L 186.835537 242.284798 
L 228.339669 253.540091 
L 269.843802 265.11147 
L 311.347934 273.263927 
L 352.852066 260.772087 
L 394.356198 246.891904 
L 435.860331 232.561461 
L 477.364463 214.008488 
L 518.868595 191.541354 
L 560.372727 157.261712 
" clip-path="url(#pec5f027d8c)" style="fill: none; stroke-dasharray: 3.7,1.6; stroke-dashoffset: 0; stroke: #ff7f0e; stroke-opacity: 0.6"/>
   </g>
   <g id="line2d_75">
    <path d="M 103.827273 213.053471 
L 145.331405 232.094821 
L 186.835537 251.615903 
L 228.339669 259.548361 
L 269.843802 273.263 
L 311.347934 277.530044 
L 352.852066 267.57979 
L 394.356198 254.178154 
L 435.860331 217.786321 
L 477.364463 195.526464 
L 518.868595 163.530585 
L 560.372727 119.929478 
" clip-path="url(#pec5f027d8c)" style="fill: none; stroke-dasharray: 3.7,1.6; stroke-dashoffset: 0; stroke: #2ca02c; stroke-opacity: 0.6"/>
   </g>
   <g id="line2d_76">
    <path d="M 103.827273 213.053471 
L 145.331405 232.587279 
L 186.835537 245.429559 
L 228.339669 259.775114 
L 269.843802 272.878122 
L 311.347934 279.527236 
L 352.852066 267.10588 
L 394.356198 255.827101 
L 435.860331 245.59213 
L 477.364463 225.312771 
L 518.868595 187.422696 
L 560.372727 130.751504 
" clip-path="url(#pec5f027d8c)" style="fill: none; stroke-dasharray: 3.7,1.6; stroke-dashoffset: 0; stroke: #d62728; stroke-opacity: 0.6"/>
   </g>
   <g id="line2d_77">
    <path d="M 103.827273 213.053471 
L 145.331405 246.60101 
L 186.835537 266.397712 
L 228.339669 278.321131 
L 269.843802 267.78614 
L 311.347934 258.692819 
L 352.852066 253.949546 
L 394.356198 239.178579 
L 435.860331 216.305236 
L 477.364463 194.125601 
L 518.868595 161.765248 
L 560.372727 122.664893 
" clip-path="url(#pec5f027d8c)" style="fill: none; stroke-dasharray: 3.7,1.6; stroke-dashoffset: 0; stroke: #9467bd; stroke-opacity: 0.6"/>
   </g>
   <g id="line2d_78">
    <path d="M 103.827273 213.053471 
L 145.331405 236.959585 
L 186.835537 251.502198 
L 228.339669 238.848419 
L 269.843802 244.812172 
L 311.347934 248.835306 
L 352.852066 248.078534 
L 394.356198 244.719431 
L 435.860331 216.540336 
L 477.364463 193.413808 
L 518.868595 155.373955 
L 560.372727 111.204341 
" clip-path="url(#pec5f027d8c)" style="fill: none; stroke-dasharray: 3.7,1.6; stroke-dashoffset: 0; stroke: #8c564b; stroke-opacity: 0.6"/>
   </g>
   <g id="line2d_79">
    <path d="M 103.827273 213.053471 
L 145.331405 234.569632 
L 186.835537 225.318024 
L 228.339669 239.040858 
L 269.843802 244.857152 
L 311.347934 227.301153 
L 352.852066 226.94688 
L 394.356198 202.335094 
L 435.860331 196.637973 
L 477.364463 179.551246 
L 518.868595 160.4613 
L 560.372727 122.539692 
" clip-path="url(#pec5f027d8c)" style="fill: none; stroke-dasharray: 3.7,1.6; stroke-dashoffset: 0; stroke: #e377c2; stroke-opacity: 0.6"/>
   </g>
   <g id="line2d_80">
    <path d="M 103.827273 213.053471 
L 145.331405 225.659476 
L 186.835537 248.712751 
L 228.339669 256.563934 
L 269.843802 260.014852 
L 311.347934 241.50454 
L 352.852066 226.47297 
L 394.356198 199.188832 
L 435.860331 169.913995 
L 477.364463 143.439956 
L 518.868595 108.251446 
L 560.372727 55.8 
" clip-path="url(#pec5f027d8c)" style="fill: none; stroke-dasharray: 3.7,1.6; stroke-dashoffset: 0; stroke: #7f7f7f; stroke-opacity: 0.6"/>
   </g>
   <g id="line2d_81">
    <path d="M 103.827273 213.053471 
L 145.331405 232.580324 
L 186.835537 235.486725 
L 228.339669 258.505017 
L 269.843802 273.02048 
L 311.347934 280.144432 
L 352.852066 267.399871 
L 394.356198 248.171276 
L 435.860331 213.954235 
L 477.364463 202.767734 
L 518.868595 180.088684 
L 560.372727 135.116391 
" clip-path="url(#pec5f027d8c)" style="fill: none; stroke-dasharray: 3.7,1.6; stroke-dashoffset: 0; stroke: #bcbd22; stroke-opacity: 0.6"/>
   </g>
   <g id="line2d_82">
    <path d="M 103.827273 213.053471 
L 145.331405 238.273735 
L 186.835537 255.25821 
L 228.339669 247.923656 
L 269.843802 248.73329 
L 311.347934 257.588729 
L 352.852066 252.80094 
L 394.356198 233.167991 
L 435.860331 222.154917 
L 477.364463 207.71272 
L 518.868595 167.850493 
L 560.372727 129.960881 
" clip-path="url(#pec5f027d8c)" style="fill: none; stroke-dasharray: 3.7,1.6; stroke-dashoffset: 0; stroke: #17becf; stroke-opacity: 0.6"/>
   </g>
   <g id="line2d_83">
    <path d="M 103.827273 213.053471 
L 145.331405 239.047664 
L 186.835537 264.808733 
L 228.339669 283.599523 
L 269.843802 280.947111 
L 311.347934 273.076125 
L 352.852066 257.672661 
L 394.356198 242.756553 
L 435.860331 230.985316 
L 477.364463 193.622013 
L 518.868595 161.635409 
L 560.372727 117.876641 
" clip-path="url(#pec5f027d8c)" style="fill: none; stroke-dasharray: 3.7,1.6; stroke-dashoffset: 0; stroke: #1f77b4; stroke-opacity: 0.6"/>
   </g>
   <g id="line2d_84">
    <path d="M 103.827273 213.053471 
L 145.331405 235.556868 
L 186.835537 263.750619 
L 228.339669 276.178798 
L 269.843802 274.40094 
L 311.347934 280.233928 
L 352.852066 273.222194 
L 394.356198 251.911084 
L 435.860331 246.220918 
L 477.364463 227.470406 
L 518.868595 205.228634 
L 560.372727 161.122084 
" clip-path="url(#pec5f027d8c)" style="fill: none; stroke-dasharray: 3.7,1.6; stroke-dashoffset: 0; stroke: #ff7f0e; stroke-opacity: 0.6"/>
   </g>
   <g id="line2d_85">
    <path d="M 103.827273 213.053471 
L 145.331405 234.849712 
L 186.835537 243.029824 
L 228.339669 242.642017 
L 269.843802 260.270819 
L 311.347934 253.441322 
L 352.852066 243.950138 
L 394.356198 218.813435 
L 435.860331 205.182263 
L 477.364463 176.829742 
L 518.868595 157.307155 
L 560.372727 124.02495 
" clip-path="url(#pec5f027d8c)" style="fill: none; stroke-dasharray: 3.7,1.6; stroke-dashoffset: 0; stroke: #2ca02c; stroke-opacity: 0.6"/>
   </g>
   <g id="line2d_86">
    <path d="M 103.827273 213.053471 
L 145.331405 241.599452 
L 186.835537 259.895692 
L 228.339669 265.014555 
L 269.843802 262.089019 
L 311.347934 264.395041 
L 352.852066 253.854486 
L 394.356198 249.022644 
L 435.860331 221.994474 
L 477.364463 192.207703 
L 518.868595 155.926232 
L 560.372727 101.424267 
" clip-path="url(#pec5f027d8c)" style="fill: none; stroke-dasharray: 3.7,1.6; stroke-dashoffset: 0; stroke: #d62728; stroke-opacity: 0.6"/>
   </g>
   <g id="line2d_87">
    <path d="M 103.827273 213.053471 
L 145.331405 222.893456 
L 186.835537 247.18164 
L 228.339669 255.121337 
L 269.843802 265.518606 
L 311.347934 261.367025 
L 352.852066 235.368751 
L 394.356198 233.140632 
L 435.860331 210.194951 
L 477.364463 185.932801 
L 518.868595 164.288749 
L 560.372727 139.13396 
" clip-path="url(#pec5f027d8c)" style="fill: none; stroke-dasharray: 3.7,1.6; stroke-dashoffset: 0; stroke: #9467bd; stroke-opacity: 0.6"/>
   </g>
   <g id="line2d_88">
    <path d="M 103.827273 213.053471 
L 145.331405 232.142119 
L 186.835537 258.461165 
L 228.339669 269.907142 
L 269.843802 273.74943 
L 311.347934 277.753088 
L 352.852066 258.211026 
L 394.356198 241.781374 
L 435.860331 243.343144 
L 477.364463 234.862845 
L 518.868595 208.118465 
L 560.372727 180.88348 
" clip-path="url(#pec5f027d8c)" style="fill: none; stroke-dasharray: 3.7,1.6; stroke-dashoffset: 0; stroke: #8c564b; stroke-opacity: 0.6"/>
   </g>
   <g id="line2d_89">
    <path d="M 103.827273 213.053471 
L 145.331405 219.592316 
L 186.835537 238.935578 
L 228.339669 243.064455 
L 269.843802 261.71898 
L 311.347934 271.5074 
L 352.852066 270.314278 
L 394.356198 267.759709 
L 435.860331 250.992941 
L 477.364463 226.855065 
L 518.868595 199.004276 
L 560.372727 154.422889 
" clip-path="url(#pec5f027d8c)" style="fill: none; stroke-dasharray: 3.7,1.6; stroke-dashoffset: 0; stroke: #e377c2; stroke-opacity: 0.6"/>
   </g>
   <g id="line2d_90">
    <path d="M 103.827273 213.053471 
L 145.331405 240.066895 
L 186.835537 236.777541 
L 228.339669 226.975166 
L 269.843802 227.097585 
L 311.347934 229.507477 
L 352.852066 225.400412 
L 394.356198 222.779996 
L 435.860331 212.851072 
L 477.364463 199.32238 
L 518.868595 176.657242 
L 560.372727 128.929594 
" clip-path="url(#pec5f027d8c)" style="fill: none; stroke-dasharray: 3.7,1.6; stroke-dashoffset: 0; stroke: #7f7f7f; stroke-opacity: 0.6"/>
   </g>
   <g id="line2d_91">
    <path d="M 103.827273 213.053471 
L 145.331405 233.002762 
L 186.835537 245.307596 
L 228.339669 267.71983 
L 269.843802 263.890062 
L 311.347934 254.591782 
L 352.852066 244.410601 
L 394.356198 240.828454 
L 435.860331 230.261467 
L 477.364463 207.645018 
L 518.868595 179.183062 
L 560.372727 136.284936 
" clip-path="url(#pec5f027d8c)" style="fill: none; stroke-dasharray: 3.7,1.6; stroke-dashoffset: 0; stroke: #bcbd22; stroke-opacity: 0.6"/>
   </g>
   <g id="line2d_92">
    <path d="M 103.827273 213.053471 
L 145.331405 236.197713 
L 186.835537 239.780593 
L 228.339669 248.733754 
L 269.843802 258.716932 
L 311.347934 242.303046 
L 352.852066 226.021781 
L 394.356198 210.324325 
L 435.860331 202.316082 
L 477.364463 184.250931 
L 518.868595 156.489174 
L 560.372727 129.033928 
" clip-path="url(#pec5f027d8c)" style="fill: none; stroke-dasharray: 3.7,1.6; stroke-dashoffset: 0; stroke: #17becf; stroke-opacity: 0.6"/>
   </g>
   <g id="line2d_93">
    <path d="M 103.827273 213.053471 
L 145.331405 245.165833 
L 186.835537 244.638689 
L 228.339669 258.684936 
L 269.843802 269.216217 
L 311.347934 262.04033 
L 352.852066 248.081316 
L 394.356198 221.617479 
L 435.860331 182.444323 
L 477.364463 163.863064 
L 518.868595 131.679848 
L 560.372727 88.088942 
" clip-path="url(#pec5f027d8c)" style="fill: none; stroke-dasharray: 3.7,1.6; stroke-dashoffset: 0; stroke: #1f77b4; stroke-opacity: 0.6"/>
   </g>
   <g id="line2d_94">
    <path d="M 103.827273 213.053471 
L 145.331405 220.912957 
L 186.835537 233.806474 
L 228.339669 247.133033 
L 269.843802 246.475031 
L 311.347934 240.49783 
L 352.852066 227.91603 
L 394.356198 220.346918 
L 435.860331 194.722857 
L 477.364463 145.50485 
L 518.868595 109.115798 
L 560.372727 71.28786 
" clip-path="url(#pec5f027d8c)" style="fill: none; stroke-dasharray: 3.7,1.6; stroke-dashoffset: 0; stroke: #ff7f0e; stroke-opacity: 0.6"/>
   </g>
   <g id="line2d_95">
    <path d="M 103.827273 213.053471 
L 145.331405 236.041443 
L 186.835537 249.638109 
L 228.339669 265.017801 
L 269.843802 264.745604 
L 311.347934 272.14268 
L 352.852066 269.877465 
L 394.356198 257.8127 
L 435.860331 243.885683 
L 477.364463 215.937515 
L 518.868595 181.245173 
L 560.372727 147.203877 
" clip-path="url(#pec5f027d8c)" style="fill: none; stroke-dasharray: 3.7,1.6; stroke-dashoffset: 0; stroke: #2ca02c; stroke-opacity: 0.6"/>
   </g>
   <g id="line2d_96">
    <path d="M 103.827273 213.053471 
L 145.331405 237.970933 
L 186.835537 261.514106 
L 228.339669 263.630849 
L 269.843802 277.819398 
L 311.347934 277.548593 
L 352.852066 271.018651 
L 394.356198 258.970117 
L 435.860331 240.489483 
L 477.364463 212.143917 
L 518.868595 172.118465 
L 560.372727 125.837122 
" clip-path="url(#pec5f027d8c)" style="fill: none; stroke-dasharray: 3.7,1.6; stroke-dashoffset: 0; stroke: #d62728; stroke-opacity: 0.6"/>
   </g>
   <g id="line2d_97">
    <path d="M 103.827273 213.053471 
L 145.331405 232.262683 
L 186.835537 253.067307 
L 228.339669 258.792053 
L 269.843802 261.024808 
L 311.347934 268.490513 
L 352.852066 271.2148 
L 394.356198 260.747974 
L 435.860331 237.623301 
L 477.364463 208.169936 
L 518.868595 189.510775 
L 560.372727 150.534231 
" clip-path="url(#pec5f027d8c)" style="fill: none; stroke-dasharray: 3.7,1.6; stroke-dashoffset: 0; stroke: #9467bd; stroke-opacity: 0.6"/>
   </g>
   <g id="line2d_98">
    <path d="M 103.827273 213.053471 
L 145.331405 224.385669 
L 186.835537 237.97839 
L 228.339669 249.925948 
L 269.843802 249.812804 
L 311.347934 258.73919 
L 352.852066 250.520422 
L 394.356198 244.92068 
L 435.860331 224.722007 
L 477.364463 191.234843 
L 518.868595 168.581761 
L 560.372727 137.631545 
" clip-path="url(#pec5f027d8c)" style="fill: none; stroke-dasharray: 3.7,1.6; stroke-dashoffset: 0; stroke: #8c564b; stroke-opacity: 0.6"/>
   </g>
   <g id="line2d_99">
    <path d="M 103.827273 213.053471 
L 145.331405 224.091678 
L 186.835537 239.706173 
L 228.339669 246.046564 
L 269.843802 255.813654 
L 311.347934 258.94925 
L 352.852066 255.451961 
L 394.356198 235.676654 
L 435.860331 230.234108 
L 477.364463 226.924622 
L 518.868595 184.753591 
L 560.372727 160.215534 
" clip-path="url(#pec5f027d8c)" style="fill: none; stroke-dasharray: 3.7,1.6; stroke-dashoffset: 0; stroke: #e377c2; stroke-opacity: 0.6"/>
   </g>
   <g id="line2d_100">
    <path d="M 103.827273 213.053471 
L 145.331405 228.75102 
L 186.835537 230.853889 
L 228.339669 245.079732 
L 269.843802 252.479127 
L 311.347934 238.477916 
L 352.852066 224.512874 
L 394.356198 202.610073 
L 435.860331 179.522033 
L 477.364463 138.293257 
L 518.868595 114.274554 
L 560.372727 72.307555 
" clip-path="url(#pec5f027d8c)" style="fill: none; stroke-dasharray: 3.7,1.6; stroke-dashoffset: 0; stroke: #7f7f7f; stroke-opacity: 0.6"/>
   </g>
   <g id="line2d_101">
    <path d="M 103.827273 213.053471 
L 145.331405 231.319964 
L 186.835537 241.46395 
L 228.339669 249.831352 
L 269.843802 256.422039 
L 311.347934 264.287461 
L 352.852066 249.212765 
L 394.356198 224.734063 
L 435.860331 207.561087 
L 477.364463 189.845109 
L 518.868595 167.446603 
L 560.372727 135.846268 
" clip-path="url(#pec5f027d8c)" style="fill: none; stroke-dasharray: 3.7,1.6; stroke-dashoffset: 0; stroke: #bcbd22; stroke-opacity: 0.6"/>
   </g>
   <g id="line2d_102">
    <path d="M 103.827273 213.053471 
L 145.331405 241.005905 
L 186.835537 268.735377 
L 228.339669 275.1962 
L 269.843802 273.767978 
L 311.347934 275.958537 
L 352.852066 276.928615 
L 394.356198 266.207213 
L 435.860331 240.634624 
L 477.364463 217.513196 
L 518.868595 184.141959 
L 560.372727 144.671102 
" clip-path="url(#pec5f027d8c)" style="fill: none; stroke-dasharray: 3.7,1.6; stroke-dashoffset: 0; stroke: #17becf; stroke-opacity: 0.6"/>
   </g>
   <g id="line2d_103">
    <path d="M 103.827273 213.053471 
L 145.331405 238.082223 
L 186.835537 249.481799 
L 228.339669 266.609712 
L 269.843802 275.43872 
L 311.347934 280.581246 
L 352.852066 273.174895 
L 394.356198 252.397978 
L 435.860331 245.780859 
L 477.364463 206.5873 
L 518.868595 168.306782 
L 560.372727 128.114858 
" clip-path="url(#pec5f027d8c)" style="fill: none; stroke-dasharray: 3.7,1.6; stroke-dashoffset: 0; stroke: #1f77b4; stroke-opacity: 0.6"/>
   </g>
   <g id="line2d_104">
    <path d="M 103.827273 213.053471 
L 145.331405 221.661382 
L 186.835537 219.445411 
L 228.339669 232.623598 
L 269.843802 236.189515 
L 311.347934 240.734321 
L 352.852066 225.716198 
L 394.356198 217.90132 
L 435.860331 205.807342 
L 477.364463 173.19195 
L 518.868595 147.49555 
L 560.372727 106.206956 
" clip-path="url(#pec5f027d8c)" style="fill: none; stroke-dasharray: 3.7,1.6; stroke-dashoffset: 0; stroke: #ff7f0e; stroke-opacity: 0.6"/>
   </g>
   <g id="line2d_105">
    <path d="M 103.827273 213.053471 
L 145.331405 237.667668 
L 186.835537 251.638978 
L 228.339669 266.540156 
L 269.843802 269.020068 
L 311.347934 259.539087 
L 352.852066 248.121659 
L 394.356198 242.229317 
L 435.860331 223.604933 
L 477.364463 194.657938 
L 518.868595 161.813937 
L 560.372727 120.31621 
" clip-path="url(#pec5f027d8c)" style="fill: none; stroke-dasharray: 3.7,1.6; stroke-dashoffset: 0; stroke: #2ca02c; stroke-opacity: 0.6"/>
   </g>
   <g id="line2d_106">
    <path d="M 103.827273 213.053471 
L 145.331405 240.396128 
L 186.835537 251.263785 
L 228.339669 268.13253 
L 269.843802 282.115193 
L 311.347934 284.050248 
L 352.852066 279.157197 
L 394.356198 270.317061 
L 435.860331 249.575385 
L 477.364463 223.265035 
L 518.868595 190.664481 
L 560.372727 153.431481 
" clip-path="url(#pec5f027d8c)" style="fill: none; stroke-dasharray: 3.7,1.6; stroke-dashoffset: 0; stroke: #d62728; stroke-opacity: 0.6"/>
   </g>
   <g id="line2d_107">
    <path d="M 103.827273 213.053471 
L 145.331405 236.889102 
L 186.835537 247.84215 
L 228.339669 258.789734 
L 269.843802 256.682179 
L 311.347934 255.028132 
L 352.852066 227.233451 
L 394.356198 220.779094 
L 435.860331 202.787673 
L 477.364463 167.096503 
L 518.868595 128.278547 
L 560.372727 94.972693 
" clip-path="url(#pec5f027d8c)" style="fill: none; stroke-dasharray: 3.7,1.6; stroke-dashoffset: 0; stroke: #9467bd; stroke-opacity: 0.6"/>
   </g>
   <g id="line2d_108">
    <path d="M 103.827273 213.053471 
L 145.331405 232.009499 
L 186.835537 254.653194 
L 228.339669 266.49193 
L 269.843802 278.346635 
L 311.347934 264.271694 
L 352.852066 254.071965 
L 394.356198 225.012288 
L 435.860331 209.76973 
L 477.364463 172.149069 
L 518.868595 133.698371 
L 560.372727 80.934849 
" clip-path="url(#pec5f027d8c)" style="fill: none; stroke-dasharray: 3.7,1.6; stroke-dashoffset: 0; stroke: #8c564b; stroke-opacity: 0.6"/>
   </g>
   <g id="line2d_109">
    <path d="M 103.827273 213.053471 
L 145.331405 234.397133 
L 186.835537 232.566717 
L 228.339669 228.309255 
L 269.843802 233.626599 
L 311.347934 212.413795 
L 352.852066 215.333767 
L 394.356198 204.118516 
L 435.860331 175.928756 
L 477.364463 154.990932 
L 518.868595 106.075726 
L 560.372727 59.984041 
" clip-path="url(#pec5f027d8c)" style="fill: none; stroke-dasharray: 3.7,1.6; stroke-dashoffset: 0; stroke: #e377c2; stroke-opacity: 0.6"/>
   </g>
   <g id="line2d_110">
    <path d="M 103.827273 213.053471 
L 145.331405 240.29133 
L 186.835537 254.118839 
L 228.339669 264.794758 
L 269.843802 265.650763 
L 311.347934 274.819205 
L 352.852066 278.141676 
L 394.356198 274.036466 
L 435.860331 256.429922 
L 477.364463 235.277401 
L 518.868595 196.985754 
L 560.372727 166.913802 
" clip-path="url(#pec5f027d8c)" style="fill: none; stroke-dasharray: 3.7,1.6; stroke-dashoffset: 0; stroke: #7f7f7f; stroke-opacity: 0.6"/>
   </g>
   <g id="line2d_111">
    <path d="M 103.827273 213.053471 
L 145.331405 218.523004 
L 186.835537 237.211067 
L 228.339669 232.961177 
L 269.843802 231.839003 
L 311.347934 231.155497 
L 352.852066 215.433464 
L 394.356198 195.575153 
L 435.860331 180.50834 
L 477.364463 154.410369 
L 518.868595 136.957777 
L 560.372727 114.145179 
" clip-path="url(#pec5f027d8c)" style="fill: none; stroke-dasharray: 3.7,1.6; stroke-dashoffset: 0; stroke: #bcbd22; stroke-opacity: 0.6"/>
   </g>
   <g id="line2d_112">
    <path d="M 103.827273 213.053471 
L 145.331405 242.401667 
L 186.835537 268.201157 
L 228.339669 275.411825 
L 269.843802 281.002293 
L 311.347934 289.499749 
L 352.852066 268.91527 
L 394.356198 261.103639 
L 435.860331 245.552715 
L 477.364463 214.92895 
L 518.868595 192.738185 
L 560.372727 153.226058 
" clip-path="url(#pec5f027d8c)" style="fill: none; stroke-dasharray: 3.7,1.6; stroke-dashoffset: 0; stroke: #17becf; stroke-opacity: 0.6"/>
   </g>
   <g id="line2d_113">
    <path d="M 103.827273 213.053471 
L 145.331405 234.477489 
L 186.835537 250.012983 
L 228.339669 258.606838 
L 269.843802 264.315506 
L 311.347934 262.57109 
L 352.852066 254.209825 
L 394.356198 240.723804 
L 435.860331 222.623564 
L 477.364463 196.77971 
L 518.868595 165.548732 
L 560.372727 127.672967 
" clip-path="url(#pec5f027d8c)" style="fill: none; stroke: #000000; stroke-width: 2.5; stroke-linecap: square"/>
   </g>
   <g id="patch_3">
    <path d="M 81 320.4 
L 81 43.2 
" style="fill: none; stroke: #000000; stroke-width: 0.8; stroke-linejoin: miter; stroke-linecap: square"/>
   </g>
   <g id="patch_4">
    <path d="M 583.2 320.4 
L 583.2 43.2 
" style="fill: none; stroke: #000000; stroke-width: 0.8; stroke-linejoin: miter; stroke-linecap: square"/>
   </g>
   <g id="patch_5">
    <path d="M 81 320.4 
L 583.2 320.4 
" style="fill: none; stroke: #000000; stroke-width: 0.8; stroke-linejoin: miter; stroke-linecap: square"/>
   </g>
   <g id="patch_6">
    <path d="M 81 43.2 
L 583.2 43.2 
" style="fill: none; stroke: #000000; stroke-width: 0.8; stroke-linejoin: miter; stroke-linecap: square"/>
   </g>
   <g id="legend_1">
    <g id="patch_7">
     <path d="M 88 65.878125 
L 161.065625 65.878125 
Q 163.065625 65.878125 163.065625 63.878125 
L 163.065625 50.2 
Q 163.065625 48.2 161.065625 48.2 
L 88 48.2 
Q 86 48.2 86 50.2 
L 86 63.878125 
Q 86 65.878125 88 65.878125 
z
" style="fill: #ffffff; opacity: 0.8; stroke: #cccccc; stroke-linejoin: miter"/>
    </g>
    <g id="line2d_114">
     <path d="M 90 56.298437 
L 100 56.298437 
L 110 56.298437 
" style="fill: none; stroke: #000000; stroke-width: 2.5; stroke-linecap: square"/>
    </g>
    <g id="text_15">
     <!-- Average -->
     <g transform="translate(118 59.798437) scale(0.1 -0.1)">
      <defs>
       <path id="DejaVuSans-41" d="M 2188 4044 
L 1331 1722 
L 3047 1722 
L 2188 4044 
z
M 1831 4666 
L 2547 4666 
L 4325 0 
L 3669 0 
L 3244 1197 
L 1141 1197 
L 716 0 
L 50 0 
L 1831 4666 
z
" transform="scale(0.015625)"/>
       <path id="DejaVuSans-67" d="M 2906 1791 
Q 2906 2416 2648 2759 
Q 2391 3103 1925 3103 
Q 1463 3103 1205 2759 
Q 947 2416 947 1791 
Q 947 1169 1205 825 
Q 1463 481 1925 481 
Q 2391 481 2648 825 
Q 2906 1169 2906 1791 
z
M 3481 434 
Q 3481 -459 3084 -895 
Q 2688 -1331 1869 -1331 
Q 1566 -1331 1297 -1286 
Q 1028 -1241 775 -1147 
L 775 -588 
Q 1028 -725 1275 -790 
Q 1522 -856 1778 -856 
Q 2344 -856 2625 -561 
Q 2906 -266 2906 331 
L 2906 616 
Q 2728 306 2450 153 
Q 2172 0 1784 0 
Q 1141 0 747 490 
Q 353 981 353 1791 
Q 353 2603 747 3093 
Q 1141 3584 1784 3584 
Q 2172 3584 2450 3431 
Q 2728 3278 2906 2969 
L 2906 3500 
L 3481 3500 
L 3481 434 
z
" transform="scale(0.015625)"/>
      </defs>
      <use xlink:href="#DejaVuSans-41"/>
      <use xlink:href="#DejaVuSans-76" x="62.533203"/>
      <use xlink:href="#DejaVuSans-65" x="121.712891"/>
      <use xlink:href="#DejaVuSans-72" x="183.236328"/>
      <use xlink:href="#DejaVuSans-61" x="224.349609"/>
      <use xlink:href="#DejaVuSans-67" x="285.628906"/>
      <use xlink:href="#DejaVuSans-65" x="349.105469"/>
     </g>
    </g>
   </g>
  </g>
 </g>
 <defs>
  <clipPath id="pec5f027d8c">
   <rect x="81" y="43.2" width="502.2" height="277.2"/>
  </clipPath>
 </defs>
</svg>
