<?xml version="1.0" encoding="utf-8" standalone="no"?>
<!DOCTYPE svg PUBLIC "-//W3C//DTD SVG 1.1//EN"
  "http://www.w3.org/Graphics/SVG/1.1/DTD/svg11.dtd">
<svg xmlns:xlink="http://www.w3.org/1999/xlink" width="648pt" height="360pt" viewBox="0 0 648 360" xmlns="http://www.w3.org/2000/svg" version="1.1">
 <metadata>
  <rdf:RDF xmlns:dc="http://purl.org/dc/elements/1.1/" xmlns:cc="http://creativecommons.org/ns#" xmlns:rdf="http://www.w3.org/1999/02/22-rdf-syntax-ns#">
   <cc:Work>
    <dc:type rdf:resource="http://purl.org/dc/dcmitype/StillImage"/>
    <dc:date>2026-02-17T15:54:44.258074</dc:date>
    <dc:format>image/svg+xml</dc:format>
    <dc:creator>
     <cc:Agent>
      <dc:title>Matplotlib v3.8.0, https://matplotlib.org/</dc:title>
     </cc:Agent>
    </dc:creator>
   </cc:Work>
  </rdf:RDF>
 </metadata>
 <defs>
  <style type="text/css">*{stroke-linejoin: round; stroke-linecap: butt}</style>
 </defs>
 <g id="figure_1">
  <g id="patch_1">
   <path d="M 0 360 
L 648 360 
L 648 0 
L 0 0 
z
" style="fill: #ffffff"/>
  </g>
  <g id="axes_1">
   <g id="patch_2">
    <path d="M 81 320.4 
L 583.2 320.4 
L 583.2 43.2 
L 81 43.2 
z
" style="fill: #ffffff"/>
   </g>
   <g id="matplotlib.axis_1">
    <g id="xtick_1">
     <g id="line2d_1">
      <defs>
       <path id="mf060330be7" d="M 0 0 
L 0 3.5 
" style="stroke: #000000; stroke-width: 0.8"/>
      </defs>
      <g>
       <use xlink:href="#mf060330be7" x="103.827273" y="320.4" style="stroke: #000000; stroke-width: 0.8"/>
      </g>
     </g>
     <g id="text_1">
      <!-- 2012 -->
      <g transform="translate(88.557273 336.518125) scale(0.12 -0.12)">
       <defs>
        <path id="DejaVuSans-32" d="M 1228 531 
L 3431 531 
L 3431 0 
L 469 0 
L 469 531 
Q 828 903 1448 1529 
Q 2069 2156 2228 2338 
Q 2531 2678 2651 2914 
Q 2772 3150 2772 3378 
Q 2772 3750 2511 3984 
Q 2250 4219 1831 4219 
Q 1534 4219 1204 4116 
Q 875 4013 500 3803 
L 500 4441 
Q 881 4594 1212 4672 
Q 1544 4750 1819 4750 
Q 2544 4750 2975 4387 
Q 3406 4025 3406 3419 
Q 3406 3131 3298 2873 
Q 3191 2616 2906 2266 
Q 2828 2175 2409 1742 
Q 1991 1309 1228 531 
z
" transform="scale(0.015625)"/>
        <path id="DejaVuSans-30" d="M 2034 4250 
Q 1547 4250 1301 3770 
Q 1056 3291 1056 2328 
Q 1056 1369 1301 889 
Q 1547 409 2034 409 
Q 2525 409 2770 889 
Q 3016 1369 3016 2328 
Q 3016 3291 2770 3770 
Q 2525 4250 2034 4250 
z
M 2034 4750 
Q 2819 4750 3233 4129 
Q 3647 3509 3647 2328 
Q 3647 1150 3233 529 
Q 2819 -91 2034 -91 
Q 1250 -91 836 529 
Q 422 1150 422 2328 
Q 422 3509 836 4129 
Q 1250 4750 2034 4750 
z
" transform="scale(0.015625)"/>
        <path id="DejaVuSans-31" d="M 794 531 
L 1825 531 
L 1825 4091 
L 703 3866 
L 703 4441 
L 1819 4666 
L 2450 4666 
L 2450 531 
L 3481 531 
L 3481 0 
L 794 0 
L 794 531 
z
" transform="scale(0.015625)"/>
       </defs>
       <use xlink:href="#DejaVuSans-32"/>
       <use xlink:href="#DejaVuSans-30" x="63.623047"/>
       <use xlink:href="#DejaVuSans-31" x="127.246094"/>
       <use xlink:href="#DejaVuSans-32" x="190.869141"/>
      </g>
     </g>
    </g>
    <g id="xtick_2">
     <g id="line2d_2">
      <g>
       <use xlink:href="#mf060330be7" x="179.918182" y="320.4" style="stroke: #000000; stroke-width: 0.8"/>
      </g>
     </g>
     <g id="text_2">
      <!-- 2014 -->
      <g transform="translate(164.648182 336.518125) scale(0.12 -0.12)">
       <defs>
        <path id="DejaVuSans-34" d="M 2419 4116 
L 825 1625 
L 2419 1625 
L 2419 4116 
z
M 2253 4666 
L 3047 4666 
L 3047 1625 
L 3713 1625 
L 3713 1100 
L 3047 1100 
L 3047 0 
L 2419 0 
L 2419 1100 
L 313 1100 
L 313 1709 
L 2253 4666 
z
" transform="scale(0.015625)"/>
       </defs>
       <use xlink:href="#DejaVuSans-32"/>
       <use xlink:href="#DejaVuSans-30" x="63.623047"/>
       <use xlink:href="#DejaVuSans-31" x="127.246094"/>
       <use xlink:href="#DejaVuSans-34" x="190.869141"/>
      </g>
     </g>
    </g>
    <g id="xtick_3">
     <g id="line2d_3">
      <g>
       <use xlink:href="#mf060330be7" x="256.009091" y="320.4" style="stroke: #000000; stroke-width: 0.8"/>
      </g>
     </g>
     <g id="text_3">
      <!-- 2016 -->
      <g transform="translate(240.739091 336.518125) scale(0.12 -0.12)">
       <defs>
        <path id="DejaVuSans-36" d="M 2113 2584 
Q 1688 2584 1439 2293 
Q 1191 2003 1191 1497 
Q 1191 994 1439 701 
Q 1688 409 2113 409 
Q 2538 409 2786 701 
Q 3034 994 3034 1497 
Q 3034 2003 2786 2293 
Q 2538 2584 2113 2584 
z
M 3366 4563 
L 3366 3988 
Q 3128 4100 2886 4159 
Q 2644 4219 2406 4219 
Q 1781 4219 1451 3797 
Q 1122 3375 1075 2522 
Q 1259 2794 1537 2939 
Q 1816 3084 2150 3084 
Q 2853 3084 3261 2657 
Q 3669 2231 3669 1497 
Q 3669 778 3244 343 
Q 2819 -91 2113 -91 
Q 1303 -91 875 529 
Q 447 1150 447 2328 
Q 447 3434 972 4092 
Q 1497 4750 2381 4750 
Q 2619 4750 2861 4703 
Q 3103 4656 3366 4563 
z
" transform="scale(0.015625)"/>
       </defs>
       <use xlink:href="#DejaVuSans-32"/>
       <use xlink:href="#DejaVuSans-30" x="63.623047"/>
       <use xlink:href="#DejaVuSans-31" x="127.246094"/>
       <use xlink:href="#DejaVuSans-36" x="190.869141"/>
      </g>
     </g>
    </g>
    <g id="xtick_4">
     <g id="line2d_4">
      <g>
       <use xlink:href="#mf060330be7" x="332.1" y="320.4" style="stroke: #000000; stroke-width: 0.8"/>
      </g>
     </g>
     <g id="text_4">
      <!-- 2018 -->
      <g transform="translate(316.83 336.518125) scale(0.12 -0.12)">
       <defs>
        <path id="DejaVuSans-38" d="M 2034 2216 
Q 1584 2216 1326 1975 
Q 1069 1734 1069 1313 
Q 1069 891 1326 650 
Q 1584 409 2034 409 
Q 2484 409 2743 651 
Q 3003 894 3003 1313 
Q 3003 1734 2745 1975 
Q 2488 2216 2034 2216 
z
M 1403 2484 
Q 997 2584 770 2862 
Q 544 3141 544 3541 
Q 544 4100 942 4425 
Q 1341 4750 2034 4750 
Q 2731 4750 3128 4425 
Q 3525 4100 3525 3541 
Q 3525 3141 3298 2862 
Q 3072 2584 2669 2484 
Q 3125 2378 3379 2068 
Q 3634 1759 3634 1313 
Q 3634 634 3220 271 
Q 2806 -91 2034 -91 
Q 1263 -91 848 271 
Q 434 634 434 1313 
Q 434 1759 690 2068 
Q 947 2378 1403 2484 
z
M 1172 3481 
Q 1172 3119 1398 2916 
Q 1625 2713 2034 2713 
Q 2441 2713 2670 2916 
Q 2900 3119 2900 3481 
Q 2900 3844 2670 4047 
Q 2441 4250 2034 4250 
Q 1625 4250 1398 4047 
Q 1172 3844 1172 3481 
z
" transform="scale(0.015625)"/>
       </defs>
       <use xlink:href="#DejaVuSans-32"/>
       <use xlink:href="#DejaVuSans-30" x="63.623047"/>
       <use xlink:href="#DejaVuSans-31" x="127.246094"/>
       <use xlink:href="#DejaVuSans-38" x="190.869141"/>
      </g>
     </g>
    </g>
    <g id="xtick_5">
     <g id="line2d_5">
      <g>
       <use xlink:href="#mf060330be7" x="408.190909" y="320.4" style="stroke: #000000; stroke-width: 0.8"/>
      </g>
     </g>
     <g id="text_5">
      <!-- 2020 -->
      <g transform="translate(392.920909 336.518125) scale(0.12 -0.12)">
       <use xlink:href="#DejaVuSans-32"/>
       <use xlink:href="#DejaVuSans-30" x="63.623047"/>
       <use xlink:href="#DejaVuSans-32" x="127.246094"/>
       <use xlink:href="#DejaVuSans-30" x="190.869141"/>
      </g>
     </g>
    </g>
    <g id="xtick_6">
     <g id="line2d_6">
      <g>
       <use xlink:href="#mf060330be7" x="484.281818" y="320.4" style="stroke: #000000; stroke-width: 0.8"/>
      </g>
     </g>
     <g id="text_6">
      <!-- 2022 -->
      <g transform="translate(469.011818 336.518125) scale(0.12 -0.12)">
       <use xlink:href="#DejaVuSans-32"/>
       <use xlink:href="#DejaVuSans-30" x="63.623047"/>
       <use xlink:href="#DejaVuSans-32" x="127.246094"/>
       <use xlink:href="#DejaVuSans-32" x="190.869141"/>
      </g>
     </g>
    </g>
    <g id="xtick_7">
     <g id="line2d_7">
      <g>
       <use xlink:href="#mf060330be7" x="560.372727" y="320.4" style="stroke: #000000; stroke-width: 0.8"/>
      </g>
     </g>
     <g id="text_7">
      <!-- 2024 -->
      <g transform="translate(545.102727 336.518125) scale(0.12 -0.12)">
       <use xlink:href="#DejaVuSans-32"/>
       <use xlink:href="#DejaVuSans-30" x="63.623047"/>
       <use xlink:href="#DejaVuSans-32" x="127.246094"/>
       <use xlink:href="#DejaVuSans-34" x="190.869141"/>
      </g>
     </g>
    </g>
    <g id="text_8">
     <!-- Year -->
     <g transform="translate(316.21875 354.411406) scale(0.15 -0.15)">
      <defs>
       <path id="DejaVuSans-59" d="M -13 4666 
L 666 4666 
L 1959 2747 
L 3244 4666 
L 3922 4666 
L 2272 2222 
L 2272 0 
L 1638 0 
L 1638 2222 
L -13 4666 
z
" transform="scale(0.015625)"/>
       <path id="DejaVuSans-65" d="M 3597 1894 
L 3597 1613 
L 953 1613 
Q 991 1019 1311 708 
Q 1631 397 2203 397 
Q 2534 397 2845 478 
Q 3156 559 3463 722 
L 3463 178 
Q 3153 47 2828 -22 
Q 2503 -91 2169 -91 
Q 1331 -91 842 396 
Q 353 884 353 1716 
Q 353 2575 817 3079 
Q 1281 3584 2069 3584 
Q 2775 3584 3186 3129 
Q 3597 2675 3597 1894 
z
M 3022 2063 
Q 3016 2534 2758 2815 
Q 2500 3097 2075 3097 
Q 1594 3097 1305 2825 
Q 1016 2553 972 2059 
L 3022 2063 
z
" transform="scale(0.015625)"/>
       <path id="DejaVuSans-61" d="M 2194 1759 
Q 1497 1759 1228 1600 
Q 959 1441 959 1056 
Q 959 750 1161 570 
Q 1363 391 1709 391 
Q 2188 391 2477 730 
Q 2766 1069 2766 1631 
L 2766 1759 
L 2194 1759 
z
M 3341 1997 
L 3341 0 
L 2766 0 
L 2766 531 
Q 2569 213 2275 61 
Q 1981 -91 1556 -91 
Q 1019 -91 701 211 
Q 384 513 384 1019 
Q 384 1609 779 1909 
Q 1175 2209 1959 2209 
L 2766 2209 
L 2766 2266 
Q 2766 2663 2505 2880 
Q 2244 3097 1772 3097 
Q 1472 3097 1187 3025 
Q 903 2953 641 2809 
L 641 3341 
Q 956 3463 1253 3523 
Q 1550 3584 1831 3584 
Q 2591 3584 2966 3190 
Q 3341 2797 3341 1997 
z
" transform="scale(0.015625)"/>
       <path id="DejaVuSans-72" d="M 2631 2963 
Q 2534 3019 2420 3045 
Q 2306 3072 2169 3072 
Q 1681 3072 1420 2755 
Q 1159 2438 1159 1844 
L 1159 0 
L 581 0 
L 581 3500 
L 1159 3500 
L 1159 2956 
Q 1341 3275 1631 3429 
Q 1922 3584 2338 3584 
Q 2397 3584 2469 3576 
Q 2541 3569 2628 3553 
L 2631 2963 
z
" transform="scale(0.015625)"/>
      </defs>
      <use xlink:href="#DejaVuSans-59"/>
      <use xlink:href="#DejaVuSans-65" x="47.833984"/>
      <use xlink:href="#DejaVuSans-61" x="109.357422"/>
      <use xlink:href="#DejaVuSans-72" x="170.636719"/>
     </g>
    </g>
   </g>
   <g id="matplotlib.axis_2">
    <g id="ytick_1">
     <g id="line2d_8">
      <defs>
       <path id="m3ad2182172" d="M 0 0 
L -3.5 0 
" style="stroke: #000000; stroke-width: 0.8"/>
      </defs>
      <g>
       <use xlink:href="#m3ad2182172" x="81" y="309.518099" style="stroke: #000000; stroke-width: 0.8"/>
      </g>
     </g>
     <g id="text_9">
      <!-- 17 -->
      <g transform="translate(58.73 314.077161) scale(0.12 -0.12)">
       <defs>
        <path id="DejaVuSans-37" d="M 525 4666 
L 3525 4666 
L 3525 4397 
L 1831 0 
L 1172 0 
L 2766 4134 
L 525 4134 
L 525 4666 
z
" transform="scale(0.015625)"/>
       </defs>
       <use xlink:href="#DejaVuSans-31"/>
       <use xlink:href="#DejaVuSans-37" x="63.623047"/>
      </g>
     </g>
    </g>
    <g id="ytick_2">
     <g id="line2d_9">
      <g>
       <use xlink:href="#m3ad2182172" x="81" y="277.082062" style="stroke: #000000; stroke-width: 0.8"/>
      </g>
     </g>
     <g id="text_10">
      <!-- 18 -->
      <g transform="translate(58.73 281.641124) scale(0.12 -0.12)">
       <use xlink:href="#DejaVuSans-31"/>
       <use xlink:href="#DejaVuSans-38" x="63.623047"/>
      </g>
     </g>
    </g>
    <g id="ytick_3">
     <g id="line2d_10">
      <g>
       <use xlink:href="#m3ad2182172" x="81" y="244.646025" style="stroke: #000000; stroke-width: 0.8"/>
      </g>
     </g>
     <g id="text_11">
      <!-- 19 -->
      <g transform="translate(58.73 249.205087) scale(0.12 -0.12)">
       <defs>
        <path id="DejaVuSans-39" d="M 703 97 
L 703 672 
Q 941 559 1184 500 
Q 1428 441 1663 441 
Q 2288 441 2617 861 
Q 2947 1281 2994 2138 
Q 2813 1869 2534 1725 
Q 2256 1581 1919 1581 
Q 1219 1581 811 2004 
Q 403 2428 403 3163 
Q 403 3881 828 4315 
Q 1253 4750 1959 4750 
Q 2769 4750 3195 4129 
Q 3622 3509 3622 2328 
Q 3622 1225 3098 567 
Q 2575 -91 1691 -91 
Q 1453 -91 1209 -44 
Q 966 3 703 97 
z
M 1959 2075 
Q 2384 2075 2632 2365 
Q 2881 2656 2881 3163 
Q 2881 3666 2632 3958 
Q 2384 4250 1959 4250 
Q 1534 4250 1286 3958 
Q 1038 3666 1038 3163 
Q 1038 2656 1286 2365 
Q 1534 2075 1959 2075 
z
" transform="scale(0.015625)"/>
       </defs>
       <use xlink:href="#DejaVuSans-31"/>
       <use xlink:href="#DejaVuSans-39" x="63.623047"/>
      </g>
     </g>
    </g>
    <g id="ytick_4">
     <g id="line2d_11">
      <g>
       <use xlink:href="#m3ad2182172" x="81" y="212.209988" style="stroke: #000000; stroke-width: 0.8"/>
      </g>
     </g>
     <g id="text_12">
      <!-- 20 -->
      <g transform="translate(58.73 216.76905) scale(0.12 -0.12)">
       <use xlink:href="#DejaVuSans-32"/>
       <use xlink:href="#DejaVuSans-30" x="63.623047"/>
      </g>
     </g>
    </g>
    <g id="ytick_5">
     <g id="line2d_12">
      <g>
       <use xlink:href="#m3ad2182172" x="81" y="179.773951" style="stroke: #000000; stroke-width: 0.8"/>
      </g>
     </g>
     <g id="text_13">
      <!-- 21 -->
      <g transform="translate(58.73 184.333013) scale(0.12 -0.12)">
       <use xlink:href="#DejaVuSans-32"/>
       <use xlink:href="#DejaVuSans-31" x="63.623047"/>
      </g>
     </g>
    </g>
    <g id="ytick_6">
     <g id="line2d_13">
      <g>
       <use xlink:href="#m3ad2182172" x="81" y="147.337914" style="stroke: #000000; stroke-width: 0.8"/>
      </g>
     </g>
     <g id="text_14">
      <!-- 22 -->
      <g transform="translate(58.73 151.896977) scale(0.12 -0.12)">
       <use xlink:href="#DejaVuSans-32"/>
       <use xlink:href="#DejaVuSans-32" x="63.623047"/>
      </g>
     </g>
    </g>
    <g id="ytick_7">
     <g id="line2d_14">
      <g>
       <use xlink:href="#m3ad2182172" x="81" y="114.901877" style="stroke: #000000; stroke-width: 0.8"/>
      </g>
     </g>
     <g id="text_15">
      <!-- 23 -->
      <g transform="translate(58.73 119.46094) scale(0.12 -0.12)">
       <defs>
        <path id="DejaVuSans-33" d="M 2597 2516 
Q 3050 2419 3304 2112 
Q 3559 1806 3559 1356 
Q 3559 666 3084 287 
Q 2609 -91 1734 -91 
Q 1441 -91 1130 -33 
Q 819 25 488 141 
L 488 750 
Q 750 597 1062 519 
Q 1375 441 1716 441 
Q 2309 441 2620 675 
Q 2931 909 2931 1356 
Q 2931 1769 2642 2001 
Q 2353 2234 1838 2234 
L 1294 2234 
L 1294 2753 
L 1863 2753 
Q 2328 2753 2575 2939 
Q 2822 3125 2822 3475 
Q 2822 3834 2567 4026 
Q 2313 4219 1838 4219 
Q 1578 4219 1281 4162 
Q 984 4106 628 3988 
L 628 4550 
Q 988 4650 1302 4700 
Q 1616 4750 1894 4750 
Q 2613 4750 3031 4423 
Q 3450 4097 3450 3541 
Q 3450 3153 3228 2886 
Q 3006 2619 2597 2516 
z
" transform="scale(0.015625)"/>
       </defs>
       <use xlink:href="#DejaVuSans-32"/>
       <use xlink:href="#DejaVuSans-33" x="63.623047"/>
      </g>
     </g>
    </g>
    <g id="ytick_8">
     <g id="line2d_15">
      <g>
       <use xlink:href="#m3ad2182172" x="81" y="82.46584" style="stroke: #000000; stroke-width: 0.8"/>
      </g>
     </g>
     <g id="text_16">
      <!-- 24 -->
      <g transform="translate(58.73 87.024903) scale(0.12 -0.12)">
       <use xlink:href="#DejaVuSans-32"/>
       <use xlink:href="#DejaVuSans-34" x="63.623047"/>
      </g>
     </g>
    </g>
    <g id="ytick_9">
     <g id="line2d_16">
      <g>
       <use xlink:href="#m3ad2182172" x="81" y="50.029803" style="stroke: #000000; stroke-width: 0.8"/>
      </g>
     </g>
     <g id="text_17">
      <!-- 25 -->
      <g transform="translate(58.73 54.588866) scale(0.12 -0.12)">
       <defs>
        <path id="DejaVuSans-35" d="M 691 4666 
L 3169 4666 
L 3169 4134 
L 1269 4134 
L 1269 2991 
Q 1406 3038 1543 3061 
Q 1681 3084 1819 3084 
Q 2600 3084 3056 2656 
Q 3513 2228 3513 1497 
Q 3513 744 3044 326 
Q 2575 -91 1722 -91 
Q 1428 -91 1123 -41 
Q 819 9 494 109 
L 494 744 
Q 775 591 1075 516 
Q 1375 441 1709 441 
Q 2250 441 2565 725 
Q 2881 1009 2881 1497 
Q 2881 1984 2565 2268 
Q 2250 2553 1709 2553 
Q 1456 2553 1204 2497 
Q 953 2441 691 2322 
L 691 4666 
z
" transform="scale(0.015625)"/>
       </defs>
       <use xlink:href="#DejaVuSans-32"/>
       <use xlink:href="#DejaVuSans-35" x="63.623047"/>
      </g>
     </g>
    </g>
    <g id="text_18">
     <!-- Total coral cover (%) -->
     <g transform="translate(51.610469 258.769922) rotate(-90) scale(0.15 -0.15)">
      <defs>
       <path id="DejaVuSans-54" d="M -19 4666 
L 3928 4666 
L 3928 4134 
L 2272 4134 
L 2272 0 
L 1638 0 
L 1638 4134 
L -19 4134 
L -19 4666 
z
" transform="scale(0.015625)"/>
       <path id="DejaVuSans-6f" d="M 1959 3097 
Q 1497 3097 1228 2736 
Q 959 2375 959 1747 
Q 959 1119 1226 758 
Q 1494 397 1959 397 
Q 2419 397 2687 759 
Q 2956 1122 2956 1747 
Q 2956 2369 2687 2733 
Q 2419 3097 1959 3097 
z
M 1959 3584 
Q 2709 3584 3137 3096 
Q 3566 2609 3566 1747 
Q 3566 888 3137 398 
Q 2709 -91 1959 -91 
Q 1206 -91 779 398 
Q 353 888 353 1747 
Q 353 2609 779 3096 
Q 1206 3584 1959 3584 
z
" transform="scale(0.015625)"/>
       <path id="DejaVuSans-74" d="M 1172 4494 
L 1172 3500 
L 2356 3500 
L 2356 3053 
L 1172 3053 
L 1172 1153 
Q 1172 725 1289 603 
Q 1406 481 1766 481 
L 2356 481 
L 2356 0 
L 1766 0 
Q 1100 0 847 248 
Q 594 497 594 1153 
L 594 3053 
L 172 3053 
L 172 3500 
L 594 3500 
L 594 4494 
L 1172 4494 
z
" transform="scale(0.015625)"/>
       <path id="DejaVuSans-6c" d="M 603 4863 
L 1178 4863 
L 1178 0 
L 603 0 
L 603 4863 
z
" transform="scale(0.015625)"/>
       <path id="DejaVuSans-20" transform="scale(0.015625)"/>
       <path id="DejaVuSans-63" d="M 3122 3366 
L 3122 2828 
Q 2878 2963 2633 3030 
Q 2388 3097 2138 3097 
Q 1578 3097 1268 2742 
Q 959 2388 959 1747 
Q 959 1106 1268 751 
Q 1578 397 2138 397 
Q 2388 397 2633 464 
Q 2878 531 3122 666 
L 3122 134 
Q 2881 22 2623 -34 
Q 2366 -91 2075 -91 
Q 1284 -91 818 406 
Q 353 903 353 1747 
Q 353 2603 823 3093 
Q 1294 3584 2113 3584 
Q 2378 3584 2631 3529 
Q 2884 3475 3122 3366 
z
" transform="scale(0.015625)"/>
       <path id="DejaVuSans-76" d="M 191 3500 
L 800 3500 
L 1894 563 
L 2988 3500 
L 3597 3500 
L 2284 0 
L 1503 0 
L 191 3500 
z
" transform="scale(0.015625)"/>
       <path id="DejaVuSans-28" d="M 1984 4856 
Q 1566 4138 1362 3434 
Q 1159 2731 1159 2009 
Q 1159 1288 1364 580 
Q 1569 -128 1984 -844 
L 1484 -844 
Q 1016 -109 783 600 
Q 550 1309 550 2009 
Q 550 2706 781 3412 
Q 1013 4119 1484 4856 
L 1984 4856 
z
" transform="scale(0.015625)"/>
       <path id="DejaVuSans-25" d="M 4653 2053 
Q 4381 2053 4226 1822 
Q 4072 1591 4072 1178 
Q 4072 772 4226 539 
Q 4381 306 4653 306 
Q 4919 306 5073 539 
Q 5228 772 5228 1178 
Q 5228 1588 5073 1820 
Q 4919 2053 4653 2053 
z
M 4653 2450 
Q 5147 2450 5437 2106 
Q 5728 1763 5728 1178 
Q 5728 594 5436 251 
Q 5144 -91 4653 -91 
Q 4153 -91 3862 251 
Q 3572 594 3572 1178 
Q 3572 1766 3864 2108 
Q 4156 2450 4653 2450 
z
M 1428 4353 
Q 1159 4353 1004 4120 
Q 850 3888 850 3481 
Q 850 3069 1003 2837 
Q 1156 2606 1428 2606 
Q 1700 2606 1854 2837 
Q 2009 3069 2009 3481 
Q 2009 3884 1853 4118 
Q 1697 4353 1428 4353 
z
M 4250 4750 
L 4750 4750 
L 1831 -91 
L 1331 -91 
L 4250 4750 
z
M 1428 4750 
Q 1922 4750 2215 4408 
Q 2509 4066 2509 3481 
Q 2509 2891 2217 2550 
Q 1925 2209 1428 2209 
Q 931 2209 642 2551 
Q 353 2894 353 3481 
Q 353 4063 643 4406 
Q 934 4750 1428 4750 
z
" transform="scale(0.015625)"/>
       <path id="DejaVuSans-29" d="M 513 4856 
L 1013 4856 
Q 1481 4119 1714 3412 
Q 1947 2706 1947 2009 
Q 1947 1309 1714 600 
Q 1481 -109 1013 -844 
L 513 -844 
Q 928 -128 1133 580 
Q 1338 1288 1338 2009 
Q 1338 2731 1133 3434 
Q 928 4138 513 4856 
z
" transform="scale(0.015625)"/>
      </defs>
      <use xlink:href="#DejaVuSans-54"/>
      <use xlink:href="#DejaVuSans-6f" x="44.083984"/>
      <use xlink:href="#DejaVuSans-74" x="105.265625"/>
      <use xlink:href="#DejaVuSans-61" x="144.474609"/>
      <use xlink:href="#DejaVuSans-6c" x="205.753906"/>
      <use xlink:href="#DejaVuSans-20" x="233.537109"/>
      <use xlink:href="#DejaVuSans-63" x="265.324219"/>
      <use xlink:href="#DejaVuSans-6f" x="320.304688"/>
      <use xlink:href="#DejaVuSans-72" x="381.486328"/>
      <use xlink:href="#DejaVuSans-61" x="422.599609"/>
      <use xlink:href="#DejaVuSans-6c" x="483.878906"/>
      <use xlink:href="#DejaVuSans-20" x="511.662109"/>
      <use xlink:href="#DejaVuSans-63" x="543.449219"/>
      <use xlink:href="#DejaVuSans-6f" x="598.429688"/>
      <use xlink:href="#DejaVuSans-76" x="659.611328"/>
      <use xlink:href="#DejaVuSans-65" x="718.791016"/>
      <use xlink:href="#DejaVuSans-72" x="780.314453"/>
      <use xlink:href="#DejaVuSans-20" x="821.427734"/>
      <use xlink:href="#DejaVuSans-28" x="853.214844"/>
      <use xlink:href="#DejaVuSans-25" x="892.228516"/>
      <use xlink:href="#DejaVuSans-29" x="987.248047"/>
     </g>
    </g>
   </g>
   <g id="line2d_17">
    <path d="M 103.827273 280.325665 
L 141.872727 293.009634 
L 179.918182 296.78685 
L 217.963636 290.605042 
L 256.009091 276.611554 
L 294.054545 247.007393 
L 332.1 217.876011 
L 370.145455 183.157799 
L 408.190909 201.245849 
L 446.236364 198.134109 
L 484.281818 182.734481 
L 522.327273 157.046314 
L 560.372727 118.657108 
" clip-path="url(#pd07bf682a0)" style="fill: none; stroke-dasharray: 3.7,1.6; stroke-dashoffset: 0; stroke: #1f77b4; stroke-opacity: 0.6"/>
   </g>
   <g id="line2d_18">
    <path d="M 103.827273 280.325665 
L 141.872727 287.229947 
L 179.918182 290.668074 
L 217.963636 289.138188 
L 256.009091 280.967209 
L 294.054545 255.970151 
L 332.1 228.20951 
L 370.145455 193.181299 
L 408.190909 212.508616 
L 446.236364 213.858506 
L 484.281818 197.601707 
L 522.327273 175.642835 
L 560.372727 134.997428 
" clip-path="url(#pd07bf682a0)" style="fill: none; stroke-dasharray: 3.7,1.6; stroke-dashoffset: 0; stroke: #ff7f0e; stroke-opacity: 0.6"/>
   </g>
   <g id="line2d_19">
    <path d="M 103.827273 280.325665 
L 141.872727 302.187871 
L 179.918182 307.509766 
L 217.963636 302.989013 
L 256.009091 292.088924 
L 294.054545 270.492093 
L 332.1 241.813277 
L 370.145455 210.105432 
L 408.190909 224.512845 
L 446.236364 218.928669 
L 484.281818 203.252021 
L 522.327273 174.313345 
L 560.372727 134.203448 
" clip-path="url(#pd07bf682a0)" style="fill: none; stroke-dasharray: 3.7,1.6; stroke-dashoffset: 0; stroke: #2ca02c; stroke-opacity: 0.6"/>
   </g>
   <g id="line2d_20">
    <path d="M 103.827273 280.325665 
L 141.872727 284.768405 
L 179.918182 287.565332 
L 217.963636 284.984353 
L 256.009091 276.228101 
L 294.054545 254.110996 
L 332.1 227.606836 
L 370.145455 195.171053 
L 408.190909 216.403084 
L 446.236364 220.473249 
L 484.281818 208.209949 
L 522.327273 192.590772 
L 560.372727 159.729675 
" clip-path="url(#pd07bf682a0)" style="fill: none; stroke-dasharray: 3.7,1.6; stroke-dashoffset: 0; stroke: #d62728; stroke-opacity: 0.6"/>
   </g>
   <g id="line2d_21">
    <path d="M 103.827273 280.325665 
L 141.872727 292.44281 
L 179.918182 296.526204 
L 217.963636 290.175891 
L 256.009091 280.602748 
L 294.054545 256.376565 
L 332.1 228.949841 
L 370.145455 194.730122 
L 408.190909 214.466134 
L 446.236364 212.017043 
L 484.281818 196.019365 
L 522.327273 172.832324 
L 560.372727 136.776236 
" clip-path="url(#pd07bf682a0)" style="fill: none; stroke-dasharray: 3.7,1.6; stroke-dashoffset: 0; stroke: #9467bd; stroke-opacity: 0.6"/>
   </g>
   <g id="line2d_22">
    <path d="M 103.827273 280.325665 
L 141.872727 283.841745 
L 179.918182 288.718854 
L 217.963636 285.229325 
L 256.009091 274.240572 
L 294.054545 252.0584 
L 332.1 221.900421 
L 370.145455 186.234843 
L 408.190909 200.144842 
L 446.236364 198.827848 
L 484.281818 186.623682 
L 522.327273 164.369106 
L 560.372727 132.935374 
" clip-path="url(#pd07bf682a0)" style="fill: none; stroke-dasharray: 3.7,1.6; stroke-dashoffset: 0; stroke: #8c564b; stroke-opacity: 0.6"/>
   </g>
   <g id="line2d_23">
    <path d="M 103.827273 280.325665 
L 141.872727 291.812299 
L 179.918182 299.329003 
L 217.963636 293.485667 
L 256.009091 283.122902 
L 294.054545 256.579264 
L 332.1 228.830634 
L 370.145455 193.123802 
L 408.190909 209.301218 
L 446.236364 205.580581 
L 484.281818 188.715866 
L 522.327273 162.550425 
L 560.372727 120.118819 
" clip-path="url(#pd07bf682a0)" style="fill: none; stroke-dasharray: 3.7,1.6; stroke-dashoffset: 0; stroke: #e377c2; stroke-opacity: 0.6"/>
   </g>
   <g id="line2d_24">
    <path d="M 103.827273 280.325665 
L 141.872727 290.803639 
L 179.918182 292.787696 
L 217.963636 284.280643 
L 256.009091 273.861876 
L 294.054545 245.947488 
L 332.1 215.819144 
L 370.145455 173.591032 
L 408.190909 187.878756 
L 446.236364 183.887639 
L 484.281818 168.286674 
L 522.327273 146.10966 
L 560.372727 107.258247 
" clip-path="url(#pd07bf682a0)" style="fill: none; stroke-dasharray: 3.7,1.6; stroke-dashoffset: 0; stroke: #7f7f7f; stroke-opacity: 0.6"/>
   </g>
   <g id="line2d_25">
    <path d="M 103.827273 280.325665 
L 141.872727 281.673168 
L 179.918182 282.077994 
L 217.963636 275.015314 
L 256.009091 258.046071 
L 294.054545 231.471597 
L 332.1 199.893164 
L 370.145455 157.132461 
L 408.190909 174.472997 
L 446.236364 169.567356 
L 484.281818 152.612421 
L 522.327273 126.451069 
L 560.372727 88.383412 
" clip-path="url(#pd07bf682a0)" style="fill: none; stroke-dasharray: 3.7,1.6; stroke-dashoffset: 0; stroke: #bcbd22; stroke-opacity: 0.6"/>
   </g>
   <g id="line2d_26">
    <path d="M 103.827273 280.325665 
L 141.872727 281.386572 
L 179.918182 285.555596 
L 217.963636 278.321021 
L 256.009091 267.711173 
L 294.054545 242.382519 
L 332.1 211.322736 
L 370.145455 171.556947 
L 408.190909 188.680445 
L 446.236364 183.550037 
L 484.281818 166.673369 
L 522.327273 140.870995 
L 560.372727 103.918781 
" clip-path="url(#pd07bf682a0)" style="fill: none; stroke-dasharray: 3.7,1.6; stroke-dashoffset: 0; stroke: #17becf; stroke-opacity: 0.6"/>
   </g>
   <g id="line2d_27">
    <path d="M 103.827273 280.325665 
L 141.872727 275.868006 
L 179.918182 279.063979 
L 217.963636 272.4565 
L 256.009091 256.193362 
L 294.054545 232.980163 
L 332.1 200.247705 
L 370.145455 162.715674 
L 408.190909 182.55914 
L 446.236364 180.548405 
L 484.281818 164.478572 
L 522.327273 139.119804 
L 560.372727 104.110459 
" clip-path="url(#pd07bf682a0)" style="fill: none; stroke-dasharray: 3.7,1.6; stroke-dashoffset: 0; stroke: #1f77b4; stroke-opacity: 0.6"/>
   </g>
   <g id="line2d_28">
    <path d="M 103.827273 280.325665 
L 141.872727 300.687223 
L 179.918182 301.127104 
L 217.963636 291.565445 
L 256.009091 277.653806 
L 294.054545 251.592857 
L 332.1 218.588199 
L 370.145455 183.041691 
L 408.190909 194.540464 
L 446.236364 191.024028 
L 484.281818 174.547579 
L 522.327273 148.365286 
L 560.372727 110.048127 
" clip-path="url(#pd07bf682a0)" style="fill: none; stroke-dasharray: 3.7,1.6; stroke-dashoffset: 0; stroke: #ff7f0e; stroke-opacity: 0.6"/>
   </g>
   <g id="line2d_29">
    <path d="M 103.827273 280.325665 
L 141.872727 290.248759 
L 179.918182 293.018829 
L 217.963636 287.627151 
L 256.009091 276.08843 
L 294.054545 251.726353 
L 332.1 218.94145 
L 370.145455 182.414075 
L 408.190909 193.61705 
L 446.236364 189.873267 
L 484.281818 174.44655 
L 522.327273 149.539826 
L 560.372727 113.25075 
" clip-path="url(#pd07bf682a0)" style="fill: none; stroke-dasharray: 3.7,1.6; stroke-dashoffset: 0; stroke: #2ca02c; stroke-opacity: 0.6"/>
   </g>
   <g id="line2d_30">
    <path d="M 103.827273 280.325665 
L 141.872727 299.882365 
L 179.918182 302.314648 
L 217.963636 294.39758 
L 256.009091 284.033647 
L 294.054545 259.507988 
L 332.1 233.825882 
L 370.145455 198.959243 
L 408.190909 216.937161 
L 446.236364 214.068945 
L 484.281818 202.266418 
L 522.327273 176.56702 
L 560.372727 136.790816 
" clip-path="url(#pd07bf682a0)" style="fill: none; stroke-dasharray: 3.7,1.6; stroke-dashoffset: 0; stroke: #d62728; stroke-opacity: 0.6"/>
   </g>
   <g id="line2d_31">
    <path d="M 103.827273 280.325665 
L 141.872727 269.244453 
L 179.918182 269.745497 
L 217.963636 261.857017 
L 256.009091 246.966436 
L 294.054545 222.198191 
L 332.1 191.988115 
L 370.145455 160.557743 
L 408.190909 178.962663 
L 446.236364 177.433514 
L 484.281818 164.660258 
L 522.327273 140.301309 
L 560.372727 103.15449 
" clip-path="url(#pd07bf682a0)" style="fill: none; stroke-dasharray: 3.7,1.6; stroke-dashoffset: 0; stroke: #9467bd; stroke-opacity: 0.6"/>
   </g>
   <g id="line2d_32">
    <path d="M 103.827273 280.325665 
L 141.872727 292.455548 
L 179.918182 297.4433 
L 217.963636 291.30232 
L 256.009091 280.237832 
L 294.054545 256.161627 
L 332.1 227.789313 
L 370.145455 190.869697 
L 408.190909 209.836445 
L 446.236364 208.213597 
L 484.281818 192.755108 
L 522.327273 168.810877 
L 560.372727 130.485433 
" clip-path="url(#pd07bf682a0)" style="fill: none; stroke-dasharray: 3.7,1.6; stroke-dashoffset: 0; stroke: #8c564b; stroke-opacity: 0.6"/>
   </g>
   <g id="line2d_33">
    <path d="M 103.827273 280.325665 
L 141.872727 272.553045 
L 179.918182 272.818914 
L 217.963636 260.985232 
L 256.009091 244.732473 
L 294.054545 215.09088 
L 332.1 180.887474 
L 370.145455 142.411321 
L 408.190909 158.782784 
L 446.236364 160.226653 
L 484.281818 141.785486 
L 522.327273 118.70456 
L 560.372727 86.254266 
" clip-path="url(#pd07bf682a0)" style="fill: none; stroke-dasharray: 3.7,1.6; stroke-dashoffset: 0; stroke: #e377c2; stroke-opacity: 0.6"/>
   </g>
   <g id="line2d_34">
    <path d="M 103.827273 280.325665 
L 141.872727 273.88094 
L 179.918182 275.61691 
L 217.963636 270.668515 
L 256.009091 256.225323 
L 294.054545 230.572903 
L 332.1 198.078294 
L 370.145455 161.43881 
L 408.190909 177.106607 
L 446.236364 173.459734 
L 484.281818 154.754184 
L 522.327273 127.795074 
L 560.372727 93.607894 
" clip-path="url(#pd07bf682a0)" style="fill: none; stroke-dasharray: 3.7,1.6; stroke-dashoffset: 0; stroke: #7f7f7f; stroke-opacity: 0.6"/>
   </g>
   <g id="line2d_35">
    <path d="M 103.827273 280.325665 
L 141.872727 294.987146 
L 179.918182 300.510941 
L 217.963636 295.140827 
L 256.009091 284.454893 
L 294.054545 259.097771 
L 332.1 231.400926 
L 370.145455 194.718563 
L 408.190909 210.161267 
L 446.236364 207.271952 
L 484.281818 192.515286 
L 522.327273 167.559405 
L 560.372727 127.033706 
" clip-path="url(#pd07bf682a0)" style="fill: none; stroke-dasharray: 3.7,1.6; stroke-dashoffset: 0; stroke: #bcbd22; stroke-opacity: 0.6"/>
   </g>
   <g id="line2d_36">
    <path d="M 103.827273 280.325665 
L 141.872727 276.53673 
L 179.918182 279.34684 
L 217.963636 272.395156 
L 256.009091 262.644169 
L 294.054545 236.358564 
L 332.1 204.345873 
L 370.145455 170.33089 
L 408.190909 187.855284 
L 446.236364 187.199846 
L 484.281818 172.380088 
L 522.327273 150.611933 
L 560.372727 116.656314 
" clip-path="url(#pd07bf682a0)" style="fill: none; stroke-dasharray: 3.7,1.6; stroke-dashoffset: 0; stroke: #17becf; stroke-opacity: 0.6"/>
   </g>
   <g id="line2d_37">
    <path d="M 103.827273 280.325665 
L 141.872727 290.29334 
L 179.918182 296.789122 
L 217.963636 293.533922 
L 256.009091 283.409975 
L 294.054545 259.203453 
L 332.1 228.223469 
L 370.145455 192.621972 
L 408.190909 211.929631 
L 446.236364 211.296793 
L 484.281818 197.77387 
L 522.327273 177.048131 
L 560.372727 141.732852 
" clip-path="url(#pd07bf682a0)" style="fill: none; stroke-dasharray: 3.7,1.6; stroke-dashoffset: 0; stroke: #1f77b4; stroke-opacity: 0.6"/>
   </g>
   <g id="line2d_38">
    <path d="M 103.827273 280.325665 
L 141.872727 291.184972 
L 179.918182 292.180549 
L 217.963636 285.684596 
L 256.009091 274.790911 
L 294.054545 248.895174 
L 332.1 218.45342 
L 370.145455 187.081826 
L 408.190909 205.549337 
L 446.236364 205.743891 
L 484.281818 195.757951 
L 522.327273 175.157633 
L 560.372727 138.546563 
" clip-path="url(#pd07bf682a0)" style="fill: none; stroke-dasharray: 3.7,1.6; stroke-dashoffset: 0; stroke: #ff7f0e; stroke-opacity: 0.6"/>
   </g>
   <g id="line2d_39">
    <path d="M 103.827273 280.325665 
L 141.872727 271.018164 
L 179.918182 274.377346 
L 217.963636 268.659584 
L 256.009091 253.896592 
L 294.054545 228.2877 
L 332.1 195.651885 
L 370.145455 160.768025 
L 408.190909 174.549402 
L 446.236364 170.310104 
L 484.281818 149.961407 
L 522.327273 123.508963 
L 560.372727 84.271372 
" clip-path="url(#pd07bf682a0)" style="fill: none; stroke-dasharray: 3.7,1.6; stroke-dashoffset: 0; stroke: #2ca02c; stroke-opacity: 0.6"/>
   </g>
   <g id="line2d_40">
    <path d="M 103.827273 280.325665 
L 141.872727 290.004355 
L 179.918182 294.867735 
L 217.963636 285.403623 
L 256.009091 270.930126 
L 294.054545 245.005291 
L 332.1 214.193099 
L 370.145455 179.257894 
L 408.190909 195.760019 
L 446.236364 198.077774 
L 484.281818 187.35762 
L 522.327273 167.105666 
L 560.372727 137.199924 
" clip-path="url(#pd07bf682a0)" style="fill: none; stroke-dasharray: 3.7,1.6; stroke-dashoffset: 0; stroke: #d62728; stroke-opacity: 0.6"/>
   </g>
   <g id="line2d_41">
    <path d="M 103.827273 280.325665 
L 141.872727 286.159988 
L 179.918182 289.172297 
L 217.963636 284.236516 
L 256.009091 269.784034 
L 294.054545 244.899197 
L 332.1 210.518873 
L 370.145455 172.546157 
L 408.190909 190.299009 
L 446.236364 186.305985 
L 484.281818 172.161768 
L 522.327273 145.0916 
L 560.372727 105.128948 
" clip-path="url(#pd07bf682a0)" style="fill: none; stroke-dasharray: 3.7,1.6; stroke-dashoffset: 0; stroke: #9467bd; stroke-opacity: 0.6"/>
   </g>
   <g id="line2d_42">
    <path d="M 103.827273 280.325665 
L 141.872727 298.002774 
L 179.918182 300.428797 
L 217.963636 294.912113 
L 256.009091 284.210465 
L 294.054545 257.503383 
L 332.1 224.732067 
L 370.145455 187.463367 
L 408.190909 200.038978 
L 446.236364 198.257495 
L 484.281818 182.471172 
L 522.327273 158.943868 
L 560.372727 120.955215 
" clip-path="url(#pd07bf682a0)" style="fill: none; stroke-dasharray: 3.7,1.6; stroke-dashoffset: 0; stroke: #8c564b; stroke-opacity: 0.6"/>
   </g>
   <g id="line2d_43">
    <path d="M 103.827273 280.325665 
L 141.872727 285.083661 
L 179.918182 289.291015 
L 217.963636 284.969773 
L 256.009091 273.299787 
L 294.054545 247.023332 
L 332.1 216.854002 
L 370.145455 180.095097 
L 408.190909 192.824802 
L 446.236364 183.240144 
L 484.281818 163.09196 
L 522.327273 128.965165 
L 560.372727 84.001042 
" clip-path="url(#pd07bf682a0)" style="fill: none; stroke-dasharray: 3.7,1.6; stroke-dashoffset: 0; stroke: #e377c2; stroke-opacity: 0.6"/>
   </g>
   <g id="line2d_44">
    <path d="M 103.827273 280.325665 
L 141.872727 287.376429 
L 179.918182 294.224928 
L 217.963636 290.813002 
L 256.009091 278.924249 
L 294.054545 253.241178 
L 332.1 225.616731 
L 370.145455 191.376138 
L 408.190909 211.012866 
L 446.236364 206.513279 
L 484.281818 193.675283 
L 522.327273 170.118531 
L 560.372727 133.620563 
" clip-path="url(#pd07bf682a0)" style="fill: none; stroke-dasharray: 3.7,1.6; stroke-dashoffset: 0; stroke: #7f7f7f; stroke-opacity: 0.6"/>
   </g>
   <g id="line2d_45">
    <path d="M 103.827273 280.325665 
L 141.872727 282.806815 
L 179.918182 285.911072 
L 217.963636 277.860893 
L 256.009091 265.321712 
L 294.054545 241.300834 
L 332.1 206.465354 
L 370.145455 168.937015 
L 408.190909 183.27763 
L 446.236364 177.77589 
L 484.281818 160.005548 
L 522.327273 132.338255 
L 560.372727 95.280956 
" clip-path="url(#pd07bf682a0)" style="fill: none; stroke-dasharray: 3.7,1.6; stroke-dashoffset: 0; stroke: #bcbd22; stroke-opacity: 0.6"/>
   </g>
   <g id="line2d_46">
    <path d="M 103.827273 280.325665 
L 141.872727 292.439626 
L 179.918182 297.94008 
L 217.963636 292.983244 
L 256.009091 279.220017 
L 294.054545 254.97595 
L 332.1 227.276612 
L 370.145455 187.631361 
L 408.190909 201.832067 
L 446.236364 199.950303 
L 484.281818 183.633984 
L 522.327273 159.834887 
L 560.372727 124.116468 
" clip-path="url(#pd07bf682a0)" style="fill: none; stroke-dasharray: 3.7,1.6; stroke-dashoffset: 0; stroke: #17becf; stroke-opacity: 0.6"/>
   </g>
   <g id="line2d_47">
    <path d="M 103.827273 280.325665 
L 141.872727 306.330776 
L 179.918182 307.337705 
L 217.963636 299.186658 
L 256.009091 288.223012 
L 294.054545 262.859272 
L 332.1 233.536307 
L 370.145455 198.101313 
L 408.190909 213.706284 
L 446.236364 210.467409 
L 484.281818 198.940896 
L 522.327273 174.538123 
L 560.372727 137.684757 
" clip-path="url(#pd07bf682a0)" style="fill: none; stroke-dasharray: 3.7,1.6; stroke-dashoffset: 0; stroke: #1f77b4; stroke-opacity: 0.6"/>
   </g>
   <g id="line2d_48">
    <path d="M 103.827273 280.325665 
L 141.872727 280.816564 
L 179.918182 284.260017 
L 217.963636 281.124965 
L 256.009091 270.14001 
L 294.054545 242.630997 
L 332.1 210.832166 
L 370.145455 171.767124 
L 408.190909 193.355515 
L 446.236364 190.338462 
L 484.281818 174.880517 
L 522.327273 148.264508 
L 560.372727 107.915931 
" clip-path="url(#pd07bf682a0)" style="fill: none; stroke-dasharray: 3.7,1.6; stroke-dashoffset: 0; stroke: #ff7f0e; stroke-opacity: 0.6"/>
   </g>
   <g id="line2d_49">
    <path d="M 103.827273 280.325665 
L 141.872727 279.265761 
L 179.918182 283.856882 
L 217.963636 275.382035 
L 256.009091 263.131723 
L 294.054545 236.024016 
L 332.1 202.635878 
L 370.145455 166.844655 
L 408.190909 185.600539 
L 446.236364 180.896416 
L 484.281818 159.156574 
L 522.327273 129.113203 
L 560.372727 94.53339 
" clip-path="url(#pd07bf682a0)" style="fill: none; stroke-dasharray: 3.7,1.6; stroke-dashoffset: 0; stroke: #2ca02c; stroke-opacity: 0.6"/>
   </g>
   <g id="line2d_50">
    <path d="M 103.827273 280.325665 
L 141.872727 283.415035 
L 179.918182 285.452014 
L 217.963636 282.395358 
L 256.009091 272.969585 
L 294.054545 249.362035 
L 332.1 219.942181 
L 370.145455 183.465442 
L 408.190909 199.925586 
L 446.236364 203.840068 
L 484.281818 188.350781 
L 522.327273 169.878396 
L 560.372727 135.510549 
" clip-path="url(#pd07bf682a0)" style="fill: none; stroke-dasharray: 3.7,1.6; stroke-dashoffset: 0; stroke: #d62728; stroke-opacity: 0.6"/>
   </g>
   <g id="line2d_51">
    <path d="M 103.827273 280.325665 
L 141.872727 283.631574 
L 179.918182 285.620607 
L 217.963636 282.888596 
L 256.009091 269.653829 
L 294.054545 244.759615 
L 332.1 211.691446 
L 370.145455 171.734395 
L 408.190909 188.098193 
L 446.236364 181.160072 
L 484.281818 162.176783 
L 522.327273 136.194741 
L 560.372727 97.616651 
" clip-path="url(#pd07bf682a0)" style="fill: none; stroke-dasharray: 3.7,1.6; stroke-dashoffset: 0; stroke: #9467bd; stroke-opacity: 0.6"/>
   </g>
   <g id="line2d_52">
    <path d="M 103.827273 280.325665 
L 141.872727 284.679242 
L 179.918182 288.622627 
L 217.963636 286.6521 
L 256.009091 276.270267 
L 294.054545 253.436602 
L 332.1 227.503032 
L 370.145455 196.761381 
L 408.190909 219.241442 
L 446.236364 220.607495 
L 484.281818 206.484838 
L 522.327273 180.886563 
L 560.372727 146.971576 
" clip-path="url(#pd07bf682a0)" style="fill: none; stroke-dasharray: 3.7,1.6; stroke-dashoffset: 0; stroke: #8c564b; stroke-opacity: 0.6"/>
   </g>
   <g id="line2d_53">
    <path d="M 103.827273 280.325665 
L 141.872727 295.112133 
L 179.918182 297.216999 
L 217.963636 292.05272 
L 256.009091 279.643314 
L 294.054545 251.020043 
L 332.1 218.867564 
L 370.145455 179.862031 
L 408.190909 192.303184 
L 446.236364 190.340098 
L 484.281818 174.920088 
L 522.327273 149.015562 
L 560.372727 111.107642 
" clip-path="url(#pd07bf682a0)" style="fill: none; stroke-dasharray: 3.7,1.6; stroke-dashoffset: 0; stroke: #e377c2; stroke-opacity: 0.6"/>
   </g>
   <g id="line2d_54">
    <path d="M 103.827273 280.325665 
L 141.872727 276.622709 
L 179.918182 278.789499 
L 217.963636 272.917823 
L 256.009091 262.10278 
L 294.054545 236.002361 
L 332.1 206.502487 
L 370.145455 173.257257 
L 408.190909 192.927032 
L 446.236364 190.748457 
L 484.281818 176.415506 
L 522.327273 154.920765 
L 560.372727 118.611186 
" clip-path="url(#pd07bf682a0)" style="fill: none; stroke-dasharray: 3.7,1.6; stroke-dashoffset: 0; stroke: #7f7f7f; stroke-opacity: 0.6"/>
   </g>
   <g id="line2d_55">
    <path d="M 103.827273 280.325665 
L 141.872727 287.261791 
L 179.918182 290.072565 
L 217.963636 284.511766 
L 256.009091 270.683164 
L 294.054545 246.370685 
L 332.1 216.068226 
L 370.145455 181.223484 
L 408.190909 195.764613 
L 446.236364 190.041393 
L 484.281818 172.10101 
L 522.327273 141.525605 
L 560.372727 101.926904 
" clip-path="url(#pd07bf682a0)" style="fill: none; stroke-dasharray: 3.7,1.6; stroke-dashoffset: 0; stroke: #bcbd22; stroke-opacity: 0.6"/>
   </g>
   <g id="line2d_56">
    <path d="M 103.827273 280.325665 
L 141.872727 274.689778 
L 179.918182 277.221182 
L 217.963636 267.071181 
L 256.009091 249.465914 
L 294.054545 222.31018 
L 332.1 185.934851 
L 370.145455 147.915125 
L 408.190909 162.29796 
L 446.236364 159.134591 
L 484.281818 142.383089 
L 522.327273 115.536391 
L 560.372727 80.722332 
" clip-path="url(#pd07bf682a0)" style="fill: none; stroke-dasharray: 3.7,1.6; stroke-dashoffset: 0; stroke: #17becf; stroke-opacity: 0.6"/>
   </g>
   <g id="line2d_57">
    <path d="M 103.827273 280.325665 
L 141.872727 288.799856 
L 179.918182 294.347933 
L 217.963636 291.419848 
L 256.009091 279.119747 
L 294.054545 254.509629 
L 332.1 226.294903 
L 370.145455 190.920371 
L 408.190909 209.519622 
L 446.236364 207.944017 
L 484.281818 196.994131 
L 522.327273 176.668853 
L 560.372727 140.162771 
" clip-path="url(#pd07bf682a0)" style="fill: none; stroke-dasharray: 3.7,1.6; stroke-dashoffset: 0; stroke: #1f77b4; stroke-opacity: 0.6"/>
   </g>
   <g id="line2d_58">
    <path d="M 103.827273 280.325665 
L 141.872727 283.746213 
L 179.918182 286.142754 
L 217.963636 279.885133 
L 256.009091 271.391482 
L 294.054545 246.82689 
L 332.1 218.861454 
L 370.145455 184.802151 
L 408.190909 204.232153 
L 446.236364 204.935218 
L 484.281818 191.98667 
L 522.327273 166.91197 
L 560.372727 131.042009 
" clip-path="url(#pd07bf682a0)" style="fill: none; stroke-dasharray: 3.7,1.6; stroke-dashoffset: 0; stroke: #ff7f0e; stroke-opacity: 0.6"/>
   </g>
   <g id="line2d_59">
    <path d="M 103.827273 280.325665 
L 141.872727 281.845126 
L 179.918182 285.590245 
L 217.963636 279.909601 
L 256.009091 264.786014 
L 294.054545 237.794558 
L 332.1 205.153083 
L 370.145455 168.153899 
L 408.190909 188.570125 
L 446.236364 185.270457 
L 484.281818 166.463225 
L 522.327273 140.023738 
L 560.372727 104.2088 
" clip-path="url(#pd07bf682a0)" style="fill: none; stroke-dasharray: 3.7,1.6; stroke-dashoffset: 0; stroke: #2ca02c; stroke-opacity: 0.6"/>
   </g>
   <g id="line2d_60">
    <path d="M 103.827273 280.325665 
L 141.872727 283.459617 
L 179.918182 287.993128 
L 217.963636 285.239874 
L 256.009091 276.094888 
L 294.054545 253.060791 
L 332.1 227.637092 
L 370.145455 189.727314 
L 408.190909 206.17471 
L 446.236364 210.58506 
L 484.281818 197.03742 
L 522.327273 180.165696 
L 560.372727 148.718332 
" clip-path="url(#pd07bf682a0)" style="fill: none; stroke-dasharray: 3.7,1.6; stroke-dashoffset: 0; stroke: #d62728; stroke-opacity: 0.6"/>
   </g>
   <g id="line2d_61">
    <path d="M 103.827273 280.325665 
L 141.872727 277.832781 
L 179.918182 280.208743 
L 217.963636 274.074608 
L 256.009091 263.43046 
L 294.054545 234.797211 
L 332.1 199.152481 
L 370.145455 162.607997 
L 408.190909 182.367178 
L 446.236364 183.172226 
L 484.281818 170.337659 
L 522.327273 147.121148 
L 560.372727 111.307173 
" clip-path="url(#pd07bf682a0)" style="fill: none; stroke-dasharray: 3.7,1.6; stroke-dashoffset: 0; stroke: #9467bd; stroke-opacity: 0.6"/>
   </g>
   <g id="line2d_62">
    <path d="M 103.827273 280.325665 
L 141.872727 283.090226 
L 179.918182 286.869341 
L 217.963636 279.423317 
L 256.009091 266.207612 
L 294.054545 247.220439 
L 332.1 215.879236 
L 370.145455 179.783165 
L 408.190909 197.296932 
L 446.236364 195.227838 
L 484.281818 182.173035 
L 522.327273 158.338712 
L 560.372727 120.493326 
" clip-path="url(#pd07bf682a0)" style="fill: none; stroke-dasharray: 3.7,1.6; stroke-dashoffset: 0; stroke: #8c564b; stroke-opacity: 0.6"/>
   </g>
   <g id="line2d_63">
    <path d="M 103.827273 280.325665 
L 141.872727 300.770813 
L 179.918182 306.558751 
L 217.963636 296.364299 
L 256.009091 283.381032 
L 294.054545 253.104842 
L 332.1 222.543307 
L 370.145455 186.904082 
L 408.190909 199.628075 
L 446.236364 198.722629 
L 484.281818 185.588955 
L 522.327273 162.27754 
L 560.372727 128.967848 
" clip-path="url(#pd07bf682a0)" style="fill: none; stroke-dasharray: 3.7,1.6; stroke-dashoffset: 0; stroke: #e377c2; stroke-opacity: 0.6"/>
   </g>
   <g id="line2d_64">
    <path d="M 103.827273 280.325665 
L 141.872727 290.599043 
L 179.918182 294.922807 
L 217.963636 291.39862 
L 256.009091 280.041111 
L 294.054545 257.286644 
L 332.1 227.922985 
L 370.145455 191.80579 
L 408.190909 206.151251 
L 446.236364 202.988014 
L 484.281818 183.769922 
L 522.327273 157.624048 
L 560.372727 120.801316 
" clip-path="url(#pd07bf682a0)" style="fill: none; stroke-dasharray: 3.7,1.6; stroke-dashoffset: 0; stroke: #7f7f7f; stroke-opacity: 0.6"/>
   </g>
   <g id="line2d_65">
    <path d="M 103.827273 280.325665 
L 141.872727 296.580142 
L 179.918182 299.741073 
L 217.963636 290.543091 
L 256.009091 277.10003 
L 294.054545 251.500943 
L 332.1 220.482427 
L 370.145455 182.955758 
L 408.190909 196.054897 
L 446.236364 189.140185 
L 484.281818 168.413069 
L 522.327273 138.398278 
L 560.372727 98.100141 
" clip-path="url(#pd07bf682a0)" style="fill: none; stroke-dasharray: 3.7,1.6; stroke-dashoffset: 0; stroke: #bcbd22; stroke-opacity: 0.6"/>
   </g>
   <g id="line2d_66">
    <path d="M 103.827273 280.325665 
L 141.872727 286.612173 
L 179.918182 286.81228 
L 217.963636 279.678192 
L 256.009091 266.013252 
L 294.054545 240.810302 
L 332.1 208.98767 
L 370.145455 172.693835 
L 408.190909 190.791849 
L 446.236364 185.18023 
L 484.281818 171.818985 
L 522.327273 145.71943 
L 560.372727 111.303968 
" clip-path="url(#pd07bf682a0)" style="fill: none; stroke-dasharray: 3.7,1.6; stroke-dashoffset: 0; stroke: #17becf; stroke-opacity: 0.6"/>
   </g>
   <g id="line2d_67">
    <path d="M 103.827273 280.325665 
L 141.872727 293.369471 
L 179.918182 298.5316 
L 217.963636 294.816089 
L 256.009091 285.770447 
L 294.054545 262.583898 
L 332.1 232.103891 
L 370.145455 197.156721 
L 408.190909 213.592319 
L 446.236364 211.743432 
L 484.281818 197.718139 
L 522.327273 172.990489 
L 560.372727 134.889931 
" clip-path="url(#pd07bf682a0)" style="fill: none; stroke-dasharray: 3.7,1.6; stroke-dashoffset: 0; stroke: #1f77b4; stroke-opacity: 0.6"/>
   </g>
   <g id="line2d_68">
    <path d="M 103.827273 280.325665 
L 141.872727 276.976177 
L 179.918182 281.08516 
L 217.963636 276.641198 
L 256.009091 263.523622 
L 294.054545 240.472504 
L 332.1 209.070635 
L 370.145455 176.39112 
L 408.190909 195.708115 
L 446.236364 195.459314 
L 484.281818 182.275464 
L 522.327273 162.547466 
L 560.372727 129.108209 
" clip-path="url(#pd07bf682a0)" style="fill: none; stroke-dasharray: 3.7,1.6; stroke-dashoffset: 0; stroke: #ff7f0e; stroke-opacity: 0.6"/>
   </g>
   <g id="line2d_69">
    <path d="M 103.827273 280.325665 
L 141.872727 292.879868 
L 179.918182 293.862395 
L 217.963636 285.175984 
L 256.009091 272.67702 
L 294.054545 246.922652 
L 332.1 217.297794 
L 370.145455 179.038081 
L 408.190909 193.025375 
L 446.236364 190.958849 
L 484.281818 171.783022 
L 522.327273 147.584911 
L 560.372727 110.970342 
" clip-path="url(#pd07bf682a0)" style="fill: none; stroke-dasharray: 3.7,1.6; stroke-dashoffset: 0; stroke: #2ca02c; stroke-opacity: 0.6"/>
   </g>
   <g id="line2d_70">
    <path d="M 103.827273 280.325665 
L 141.872727 288.500523 
L 179.918182 290.51098 
L 217.963636 283.933894 
L 256.009091 269.013563 
L 294.054545 239.569354 
L 332.1 202.066748 
L 370.145455 163.123074 
L 408.190909 178.410175 
L 446.236364 172.290066 
L 484.281818 152.114772 
L 522.327273 124.182752 
L 560.372727 87.691496 
" clip-path="url(#pd07bf682a0)" style="fill: none; stroke-dasharray: 3.7,1.6; stroke-dashoffset: 0; stroke: #d62728; stroke-opacity: 0.6"/>
   </g>
   <g id="line2d_71">
    <path d="M 103.827273 280.325665 
L 141.872727 286.771393 
L 179.918182 290.340463 
L 217.963636 286.215612 
L 256.009091 273.121046 
L 294.054545 247.542111 
L 332.1 218.604652 
L 370.145455 180.128621 
L 408.190909 193.075498 
L 446.236364 186.86959 
L 484.281818 168.207659 
L 522.327273 138.999682 
L 560.372727 102.25499 
" clip-path="url(#pd07bf682a0)" style="fill: none; stroke-dasharray: 3.7,1.6; stroke-dashoffset: 0; stroke: #9467bd; stroke-opacity: 0.6"/>
   </g>
   <g id="line2d_72">
    <path d="M 103.827273 280.325665 
L 141.872727 293.0574 
L 179.918182 296.522505 
L 217.963636 290.926865 
L 256.009091 278.318299 
L 294.054545 251.479814 
L 332.1 223.191408 
L 370.145455 183.22308 
L 408.190909 195.704462 
L 446.236364 190.457786 
L 484.281818 173.563682 
L 522.327273 148.479638 
L 560.372727 106.353784 
" clip-path="url(#pd07bf682a0)" style="fill: none; stroke-dasharray: 3.7,1.6; stroke-dashoffset: 0; stroke: #8c564b; stroke-opacity: 0.6"/>
   </g>
   <g id="line2d_73">
    <path d="M 103.827273 280.325665 
L 141.872727 283.185758 
L 179.918182 286.859709 
L 217.963636 282.155457 
L 256.009091 266.39293 
L 294.054545 237.451121 
L 332.1 206.389362 
L 370.145455 169.214508 
L 408.190909 186.692044 
L 446.236364 183.848386 
L 484.281818 169.897814 
L 522.327273 145.355358 
L 560.372727 110.347533 
" clip-path="url(#pd07bf682a0)" style="fill: none; stroke-dasharray: 3.7,1.6; stroke-dashoffset: 0; stroke: #e377c2; stroke-opacity: 0.6"/>
   </g>
   <g id="line2d_74">
    <path d="M 103.827273 280.325665 
L 141.872727 285.204668 
L 179.918182 288.49163 
L 217.963636 281.346543 
L 256.009091 265.489199 
L 294.054545 238.774097 
L 332.1 204.010878 
L 370.145455 163.789515 
L 408.190909 177.323552 
L 446.236364 169.747515 
L 484.281818 151.014552 
L 522.327273 124.062702 
L 560.372727 90.729524 
" clip-path="url(#pd07bf682a0)" style="fill: none; stroke-dasharray: 3.7,1.6; stroke-dashoffset: 0; stroke: #7f7f7f; stroke-opacity: 0.6"/>
   </g>
   <g id="line2d_75">
    <path d="M 103.827273 280.325665 
L 141.872727 298.502725 
L 179.918182 302.249854 
L 217.963636 298.858651 
L 256.009091 287.210753 
L 294.054545 266.729513 
L 332.1 235.303006 
L 370.145455 199.765314 
L 408.190909 217.664251 
L 446.236364 213.169396 
L 484.281818 196.02768 
L 522.327273 170.983511 
L 560.372727 133.243565 
" clip-path="url(#pd07bf682a0)" style="fill: none; stroke-dasharray: 3.7,1.6; stroke-dashoffset: 0; stroke: #bcbd22; stroke-opacity: 0.6"/>
   </g>
   <g id="line2d_76">
    <path d="M 103.827273 280.325665 
L 141.872727 277.590767 
L 179.918182 279.890502 
L 217.963636 273.393645 
L 256.009091 258.709112 
L 294.054545 231.462174 
L 332.1 194.619966 
L 370.145455 153.756128 
L 408.190909 165.794487 
L 446.236364 161.482754 
L 484.281818 143.025937 
L 522.327273 120.244494 
L 560.372727 84.313662 
" clip-path="url(#pd07bf682a0)" style="fill: none; stroke-dasharray: 3.7,1.6; stroke-dashoffset: 0; stroke: #17becf; stroke-opacity: 0.6"/>
   </g>
   <g id="line2d_77">
    <path d="M 103.827273 280.325665 
L 141.872727 288.793488 
L 179.918182 293.023228 
L 217.963636 288.631525 
L 256.009091 278.05039 
L 294.054545 253.641921 
L 332.1 222.62577 
L 370.145455 184.520572 
L 408.190909 197.054599 
L 446.236364 196.644282 
L 484.281818 172.742423 
L 522.327273 147.843161 
L 560.372727 110.831769 
" clip-path="url(#pd07bf682a0)" style="fill: none; stroke-dasharray: 3.7,1.6; stroke-dashoffset: 0; stroke: #1f77b4; stroke-opacity: 0.6"/>
   </g>
   <g id="line2d_78">
    <path d="M 103.827273 280.325665 
L 141.872727 291.153128 
L 179.918182 293.588081 
L 217.963636 290.479051 
L 256.009091 281.370589 
L 294.054545 256.500482 
L 332.1 230.264632 
L 370.145455 192.506509 
L 408.190909 210.440547 
L 446.236364 208.610434 
L 484.281818 190.642447 
L 522.327273 164.975957 
L 560.372727 126.919099 
" clip-path="url(#pd07bf682a0)" style="fill: none; stroke-dasharray: 3.7,1.6; stroke-dashoffset: 0; stroke: #ff7f0e; stroke-opacity: 0.6"/>
   </g>
   <g id="line2d_79">
    <path d="M 103.827273 280.325665 
L 141.872727 286.389265 
L 179.918182 289.675241 
L 217.963636 282.720082 
L 256.009091 266.144982 
L 294.054545 235.015676 
L 332.1 199.806793 
L 370.145455 156.81671 
L 408.190909 175.228104 
L 446.236364 166.891819 
L 484.281818 147.637516 
L 522.327273 118.371471 
L 560.372727 79.903065 
" clip-path="url(#pd07bf682a0)" style="fill: none; stroke-dasharray: 3.7,1.6; stroke-dashoffset: 0; stroke: #2ca02c; stroke-opacity: 0.6"/>
   </g>
   <g id="line2d_80">
    <path d="M 103.827273 280.325665 
L 141.872727 280.889806 
L 179.918182 281.674224 
L 217.963636 272.315996 
L 256.009091 257.753422 
L 294.054545 230.854437 
L 332.1 196.865999 
L 370.145455 155.736954 
L 408.190909 170.102925 
L 446.236364 162.615877 
L 484.281818 142.898558 
L 522.327273 117.618167 
L 560.372727 79.69202 
" clip-path="url(#pd07bf682a0)" style="fill: none; stroke-dasharray: 3.7,1.6; stroke-dashoffset: 0; stroke: #d62728; stroke-opacity: 0.6"/>
   </g>
   <g id="line2d_81">
    <path d="M 103.827273 280.325665 
L 141.872727 291.818668 
L 179.918182 296.412087 
L 217.963636 293.771739 
L 256.009091 282.571248 
L 294.054545 257.356046 
L 332.1 225.66127 
L 370.145455 184.679214 
L 408.190909 197.709458 
L 446.236364 192.026954 
L 484.281818 174.330945 
L 522.327273 146.668317 
L 560.372727 103.498673 
" clip-path="url(#pd07bf682a0)" style="fill: none; stroke-dasharray: 3.7,1.6; stroke-dashoffset: 0; stroke: #9467bd; stroke-opacity: 0.6"/>
   </g>
   <g id="line2d_82">
    <path d="M 103.827273 280.325665 
L 141.872727 285.561321 
L 179.918182 288.82888 
L 217.963636 285.205415 
L 256.009091 268.580292 
L 294.054545 243.98951 
L 332.1 207.868146 
L 370.145455 169.488916 
L 408.190909 187.65948 
L 446.236364 181.501792 
L 484.281818 164.021547 
L 522.327273 133.001412 
L 560.372727 97.091758 
" clip-path="url(#pd07bf682a0)" style="fill: none; stroke-dasharray: 3.7,1.6; stroke-dashoffset: 0; stroke: #8c564b; stroke-opacity: 0.6"/>
   </g>
   <g id="line2d_83">
    <path d="M 103.827273 280.325665 
L 141.872727 278.100271 
L 179.918182 284.418299 
L 217.963636 279.398082 
L 256.009091 267.723682 
L 294.054545 245.528469 
L 332.1 214.223833 
L 370.145455 173.47923 
L 408.190909 185.940296 
L 446.236364 181.70519 
L 484.281818 163.249227 
L 522.327273 138.654297 
L 560.372727 101.246861 
" clip-path="url(#pd07bf682a0)" style="fill: none; stroke-dasharray: 3.7,1.6; stroke-dashoffset: 0; stroke: #e377c2; stroke-opacity: 0.6"/>
   </g>
   <g id="line2d_84">
    <path d="M 103.827273 280.325665 
L 141.872727 276.794667 
L 179.918182 280.308316 
L 217.963636 271.378242 
L 256.009091 257.396093 
L 294.054545 231.567415 
L 332.1 198.887156 
L 370.145455 161.667746 
L 408.190909 179.53725 
L 446.236364 176.54036 
L 484.281818 159.322103 
L 522.327273 129.742071 
L 560.372727 94.784867 
" clip-path="url(#pd07bf682a0)" style="fill: none; stroke-dasharray: 3.7,1.6; stroke-dashoffset: 0; stroke: #7f7f7f; stroke-opacity: 0.6"/>
   </g>
   <g id="line2d_85">
    <path d="M 103.827273 280.325665 
L 141.872727 286.433847 
L 179.918182 288.933239 
L 217.963636 285.88601 
L 256.009091 276.635334 
L 294.054545 251.206052 
L 332.1 219.59354 
L 370.145455 183.5818 
L 408.190909 196.257598 
L 446.236364 196.594812 
L 484.281818 180.003364 
L 522.327273 156.158461 
L 560.372727 119.663809 
" clip-path="url(#pd07bf682a0)" style="fill: none; stroke-dasharray: 3.7,1.6; stroke-dashoffset: 0; stroke: #bcbd22; stroke-opacity: 0.6"/>
   </g>
   <g id="line2d_86">
    <path d="M 103.827273 280.325665 
L 141.872727 297.59517 
L 179.918182 298.973869 
L 217.963636 291.767622 
L 256.009091 277.273082 
L 294.054545 251.518212 
L 332.1 223.793384 
L 370.145455 190.61712 
L 408.190909 208.937241 
L 446.236364 207.046997 
L 484.281818 192.875153 
L 522.327273 166.895847 
L 560.372727 125.911906 
" clip-path="url(#pd07bf682a0)" style="fill: none; stroke-dasharray: 3.7,1.6; stroke-dashoffset: 0; stroke: #17becf; stroke-opacity: 0.6"/>
   </g>
   <g id="line2d_87">
    <path d="M 103.827273 280.325665 
L 141.872727 277.670377 
L 179.918182 284.558768 
L 217.963636 283.831018 
L 256.009091 274.22881 
L 294.054545 251.944815 
L 332.1 222.786902 
L 370.145455 186.923557 
L 408.190909 202.306271 
L 446.236364 203.615271 
L 484.281818 188.514696 
L 522.327273 167.106385 
L 560.372727 129.631308 
" clip-path="url(#pd07bf682a0)" style="fill: none; stroke-dasharray: 3.7,1.6; stroke-dashoffset: 0; stroke: #1f77b4; stroke-opacity: 0.6"/>
   </g>
   <g id="line2d_88">
    <path d="M 103.827273 280.325665 
L 141.872727 294.987146 
L 179.918182 300.797537 
L 217.963636 296.328345 
L 256.009091 286.112604 
L 294.054545 262.862004 
L 332.1 235.626598 
L 370.145455 203.843229 
L 408.190909 222.837904 
L 446.236364 221.082542 
L 484.281818 204.791441 
L 522.327273 180.359228 
L 560.372727 142.059526 
" clip-path="url(#pd07bf682a0)" style="fill: none; stroke-dasharray: 3.7,1.6; stroke-dashoffset: 0; stroke: #ff7f0e; stroke-opacity: 0.6"/>
   </g>
   <g id="line2d_89">
    <path d="M 103.827273 280.325665 
L 141.872727 300.137117 
L 179.918182 302.400425 
L 217.963636 290.661989 
L 256.009091 276.868506 
L 294.054545 248.120213 
L 332.1 212.403841 
L 370.145455 173.652226 
L 408.190909 184.066785 
L 446.236364 176.144637 
L 484.281818 156.23162 
L 522.327273 127.337576 
L 560.372727 91.620544 
" clip-path="url(#pd07bf682a0)" style="fill: none; stroke-dasharray: 3.7,1.6; stroke-dashoffset: 0; stroke: #2ca02c; stroke-opacity: 0.6"/>
   </g>
   <g id="line2d_90">
    <path d="M 103.827273 280.325665 
L 141.872727 279.383584 
L 179.918182 285.690999 
L 217.963636 283.115184 
L 256.009091 273.854345 
L 294.054545 251.220403 
L 332.1 223.314617 
L 370.145455 187.970115 
L 408.190909 202.222192 
L 446.236364 203.015341 
L 484.281818 188.535902 
L 522.327273 166.710426 
L 560.372727 132.687254 
" clip-path="url(#pd07bf682a0)" style="fill: none; stroke-dasharray: 3.7,1.6; stroke-dashoffset: 0; stroke: #d62728; stroke-opacity: 0.6"/>
   </g>
   <g id="line2d_91">
    <path d="M 103.827273 280.325665 
L 141.872727 284.437228 
L 179.918182 288.661041 
L 217.963636 283.308658 
L 256.009091 275.264044 
L 294.054545 252.724305 
L 332.1 223.963683 
L 370.145455 188.052057 
L 408.190909 201.433016 
L 446.236364 200.739846 
L 484.281818 186.337999 
L 522.327273 164.749195 
L 560.372727 131.723135 
" clip-path="url(#pd07bf682a0)" style="fill: none; stroke-dasharray: 3.7,1.6; stroke-dashoffset: 0; stroke: #9467bd; stroke-opacity: 0.6"/>
   </g>
   <g id="line2d_92">
    <path d="M 103.827273 280.325665 
L 141.872727 282.886425 
L 179.918182 287.283483 
L 217.963636 283.359041 
L 256.009091 269.604769 
L 294.054545 242.424176 
L 332.1 211.437503 
L 370.145455 172.251182 
L 408.190909 189.347102 
L 446.236364 185.733187 
L 484.281818 170.350232 
L 522.327273 147.754417 
L 560.372727 112.052122 
" clip-path="url(#pd07bf682a0)" style="fill: none; stroke-dasharray: 3.7,1.6; stroke-dashoffset: 0; stroke: #8c564b; stroke-opacity: 0.6"/>
   </g>
   <g id="line2d_93">
    <path d="M 103.827273 280.325665 
L 141.872727 299.525712 
L 179.918182 302.748008 
L 217.963636 294.028116 
L 256.009091 281.801625 
L 294.054545 256.335321 
L 332.1 227.98744 
L 370.145455 195.15476 
L 408.190909 210.487068 
L 446.236364 208.511679 
L 484.281818 193.270713 
L 522.327273 167.445389 
L 560.372727 126.604629 
" clip-path="url(#pd07bf682a0)" style="fill: none; stroke-dasharray: 3.7,1.6; stroke-dashoffset: 0; stroke: #e377c2; stroke-opacity: 0.6"/>
   </g>
   <g id="line2d_94">
    <path d="M 103.827273 280.325665 
L 141.872727 279.116095 
L 179.918182 283.978013 
L 217.963636 280.110892 
L 256.009091 269.028147 
L 294.054545 247.943099 
L 332.1 213.413651 
L 370.145455 172.834948 
L 408.190909 185.768085 
L 446.236364 179.107329 
L 484.281818 159.273975 
L 522.327273 135.16787 
L 560.372727 95.446764 
" clip-path="url(#pd07bf682a0)" style="fill: none; stroke-dasharray: 3.7,1.6; stroke-dashoffset: 0; stroke: #7f7f7f; stroke-opacity: 0.6"/>
   </g>
   <g id="line2d_95">
    <path d="M 103.827273 280.325665 
L 141.872727 292.888627 
L 179.918182 295.357155 
L 217.963636 282.884283 
L 256.009091 270.139794 
L 294.054545 243.471309 
L 332.1 211.773483 
L 370.145455 171.889593 
L 408.190909 190.583455 
L 446.236364 182.773336 
L 484.281818 167.959216 
L 522.327273 140.792262 
L 560.372727 103.483724 
" clip-path="url(#pd07bf682a0)" style="fill: none; stroke-dasharray: 3.7,1.6; stroke-dashoffset: 0; stroke: #bcbd22; stroke-opacity: 0.6"/>
   </g>
   <g id="line2d_96">
    <path d="M 103.827273 280.325665 
L 141.872727 281.329253 
L 179.918182 281.221675 
L 217.963636 272.064449 
L 256.009091 252.744612 
L 294.054545 223.840787 
L 332.1 184.967409 
L 370.145455 141.509047 
L 408.190909 154.078064 
L 446.236364 148.740702 
L 484.281818 127.770912 
L 522.327273 93.076199 
L 560.372727 55.8 
" clip-path="url(#pd07bf682a0)" style="fill: none; stroke-dasharray: 3.7,1.6; stroke-dashoffset: 0; stroke: #17becf; stroke-opacity: 0.6"/>
   </g>
   <g id="line2d_97">
    <path d="M 103.827273 280.325665 
L 141.872727 273.708982 
L 179.918182 280.56561 
L 217.963636 279.016906 
L 256.009091 268.476547 
L 294.054545 246.076896 
L 332.1 218.74275 
L 370.145455 186.450891 
L 408.190909 202.429133 
L 446.236364 205.302912 
L 484.281818 192.413254 
L 522.327273 174.941403 
L 560.372727 138.597613 
" clip-path="url(#pd07bf682a0)" style="fill: none; stroke-dasharray: 3.7,1.6; stroke-dashoffset: 0; stroke: #1f77b4; stroke-opacity: 0.6"/>
   </g>
   <g id="line2d_98">
    <path d="M 103.827273 280.325665 
L 141.872727 279.768897 
L 179.918182 283.856466 
L 217.963636 276.96424 
L 256.009091 264.222096 
L 294.054545 238.619604 
L 332.1 202.554214 
L 370.145455 169.64488 
L 408.190909 186.018667 
L 446.236364 179.865674 
L 484.281818 163.775432 
L 522.327273 139.755898 
L 560.372727 105.768455 
" clip-path="url(#pd07bf682a0)" style="fill: none; stroke-dasharray: 3.7,1.6; stroke-dashoffset: 0; stroke: #ff7f0e; stroke-opacity: 0.6"/>
   </g>
   <g id="line2d_99">
    <path d="M 103.827273 280.325665 
L 141.872727 289.478134 
L 179.918182 294.013005 
L 217.963636 286.75122 
L 256.009091 276.83415 
L 294.054545 250.401528 
L 332.1 221.06334 
L 370.145455 186.069973 
L 408.190909 199.832014 
L 446.236364 199.538379 
L 484.281818 180.784662 
L 522.327273 155.669787 
L 560.372727 117.427176 
" clip-path="url(#pd07bf682a0)" style="fill: none; stroke-dasharray: 3.7,1.6; stroke-dashoffset: 0; stroke: #2ca02c; stroke-opacity: 0.6"/>
   </g>
   <g id="line2d_100">
    <path d="M 103.827273 280.325665 
L 141.872727 297.767128 
L 179.918182 302.049856 
L 217.963636 295.156036 
L 256.009091 282.75049 
L 294.054545 258.066828 
L 332.1 229.82321 
L 370.145455 196.255852 
L 408.190909 211.542145 
L 446.236364 208.747996 
L 484.281818 191.090007 
L 522.327273 166.013635 
L 560.372727 128.937038 
" clip-path="url(#pd07bf682a0)" style="fill: none; stroke-dasharray: 3.7,1.6; stroke-dashoffset: 0; stroke: #d62728; stroke-opacity: 0.6"/>
   </g>
   <g id="line2d_101">
    <path d="M 103.827273 280.325665 
L 141.872727 276.160971 
L 179.918182 282.40099 
L 217.963636 278.920759 
L 256.009091 269.055557 
L 294.054545 243.251235 
L 332.1 214.292385 
L 370.145455 181.36229 
L 408.190909 201.49142 
L 446.236364 205.607522 
L 484.281818 194.501103 
L 522.327273 178.885241 
L 560.372727 144.852482 
" clip-path="url(#pd07bf682a0)" style="fill: none; stroke-dasharray: 3.7,1.6; stroke-dashoffset: 0; stroke: #9467bd; stroke-opacity: 0.6"/>
   </g>
   <g id="line2d_102">
    <path d="M 103.827273 280.325665 
L 141.872727 285.838364 
L 179.918182 288.621663 
L 217.963636 284.281881 
L 256.009091 275.765087 
L 294.054545 254.431765 
L 332.1 226.322377 
L 370.145455 191.393738 
L 408.190909 209.882112 
L 446.236364 209.062867 
L 484.281818 192.580059 
L 522.327273 168.672346 
L 560.372727 129.29268 
" clip-path="url(#pd07bf682a0)" style="fill: none; stroke-dasharray: 3.7,1.6; stroke-dashoffset: 0; stroke: #8c564b; stroke-opacity: 0.6"/>
   </g>
   <g id="line2d_103">
    <path d="M 103.827273 280.325665 
L 141.872727 296.834099 
L 179.918182 295.481222 
L 217.963636 285.173416 
L 256.009091 269.557686 
L 294.054545 241.584098 
L 332.1 206.10807 
L 370.145455 165.806153 
L 408.190909 183.499023 
L 446.236364 179.276597 
L 484.281818 161.61953 
L 522.327273 135.154473 
L 560.372727 96.417545 
" clip-path="url(#pd07bf682a0)" style="fill: none; stroke-dasharray: 3.7,1.6; stroke-dashoffset: 0; stroke: #e377c2; stroke-opacity: 0.6"/>
   </g>
   <g id="line2d_104">
    <path d="M 103.827273 280.325665 
L 141.872727 278.800839 
L 179.918182 283.828606 
L 217.963636 277.872671 
L 256.009091 259.897734 
L 294.054545 233.420252 
L 332.1 200.935638 
L 370.145455 163.017942 
L 408.190909 181.729878 
L 446.236364 179.497747 
L 484.281818 164.88144 
L 522.327273 140.762337 
L 560.372727 105.625349 
" clip-path="url(#pd07bf682a0)" style="fill: none; stroke-dasharray: 3.7,1.6; stroke-dashoffset: 0; stroke: #7f7f7f; stroke-opacity: 0.6"/>
   </g>
   <g id="line2d_105">
    <path d="M 103.827273 280.325665 
L 141.872727 298.041782 
L 179.918182 302.656832 
L 217.963636 293.937099 
L 256.009091 280.497434 
L 294.054545 255.74557 
L 332.1 223.666094 
L 370.145455 182.415554 
L 408.190909 198.327905 
L 446.236364 194.457918 
L 484.281818 175.344866 
L 522.327273 146.666858 
L 560.372727 109.258747 
" clip-path="url(#pd07bf682a0)" style="fill: none; stroke-dasharray: 3.7,1.6; stroke-dashoffset: 0; stroke: #bcbd22; stroke-opacity: 0.6"/>
   </g>
   <g id="line2d_106">
    <path d="M 103.827273 280.325665 
L 141.872727 298.241604 
L 179.918182 301.030448 
L 217.963636 288.819589 
L 256.009091 271.404451 
L 294.054545 242.486487 
L 332.1 209.477434 
L 370.145455 171.759812 
L 408.190909 188.026098 
L 446.236364 184.631017 
L 484.281818 166.123047 
L 522.327273 133.658369 
L 560.372727 93.660589 
" clip-path="url(#pd07bf682a0)" style="fill: none; stroke-dasharray: 3.7,1.6; stroke-dashoffset: 0; stroke: #17becf; stroke-opacity: 0.6"/>
   </g>
   <g id="line2d_107">
    <path d="M 103.827273 280.325665 
L 141.872727 281.459813 
L 179.918182 283.737243 
L 217.963636 279.695075 
L 256.009091 266.794416 
L 294.054545 241.883758 
L 332.1 209.330955 
L 370.145455 171.906524 
L 408.190909 192.385933 
L 446.236364 192.225217 
L 484.281818 174.241128 
L 522.327273 147.988006 
L 560.372727 111.285641 
" clip-path="url(#pd07bf682a0)" style="fill: none; stroke-dasharray: 3.7,1.6; stroke-dashoffset: 0; stroke: #1f77b4; stroke-opacity: 0.6"/>
   </g>
   <g id="line2d_108">
    <path d="M 103.827273 280.325665 
L 141.872727 299.118109 
L 179.918182 301.538258 
L 217.963636 291.274998 
L 256.009091 274.758335 
L 294.054545 246.085108 
L 332.1 214.86104 
L 370.145455 172.604553 
L 408.190909 184.80224 
L 446.236364 179.221551 
L 484.281818 161.620415 
L 522.327273 132.383438 
L 560.372727 97.925122 
" clip-path="url(#pd07bf682a0)" style="fill: none; stroke-dasharray: 3.7,1.6; stroke-dashoffset: 0; stroke: #ff7f0e; stroke-opacity: 0.6"/>
   </g>
   <g id="line2d_109">
    <path d="M 103.827273 280.325665 
L 141.872727 295.55158 
L 179.918182 298.691031 
L 217.963636 291.945997 
L 256.009091 278.902971 
L 294.054545 250.713404 
L 332.1 221.23042 
L 370.145455 184.808441 
L 408.190909 197.177812 
L 446.236364 198.274613 
L 484.281818 181.254634 
L 522.327273 158.108557 
L 560.372727 119.910349 
" clip-path="url(#pd07bf682a0)" style="fill: none; stroke-dasharray: 3.7,1.6; stroke-dashoffset: 0; stroke: #2ca02c; stroke-opacity: 0.6"/>
   </g>
   <g id="line2d_110">
    <path d="M 103.827273 280.325665 
L 141.872727 291.583022 
L 179.918182 292.692905 
L 217.963636 284.731641 
L 256.009091 267.310798 
L 294.054545 238.638728 
L 332.1 200.095647 
L 370.145455 161.515793 
L 408.190909 178.883141 
L 446.236364 172.744021 
L 484.281818 153.976329 
L 522.327273 121.550847 
L 560.372727 83.312218 
" clip-path="url(#pd07bf682a0)" style="fill: none; stroke-dasharray: 3.7,1.6; stroke-dashoffset: 0; stroke: #d62728; stroke-opacity: 0.6"/>
   </g>
   <g id="line2d_111">
    <path d="M 103.827273 280.325665 
L 141.872727 290.443007 
L 179.918182 295.445179 
L 217.963636 289.86977 
L 256.009091 276.469274 
L 294.054545 249.425528 
L 332.1 215.703259 
L 370.145455 175.238096 
L 408.190909 184.198547 
L 446.236364 178.104296 
L 484.281818 154.961657 
L 522.327273 127.050237 
L 560.372727 88.232767 
" clip-path="url(#pd07bf682a0)" style="fill: none; stroke-dasharray: 3.7,1.6; stroke-dashoffset: 0; stroke: #9467bd; stroke-opacity: 0.6"/>
   </g>
   <g id="line2d_112">
    <path d="M 103.827273 280.325665 
L 141.872727 290.831504 
L 179.918182 294.919429 
L 217.963636 291.423891 
L 256.009091 275.99988 
L 294.054545 250.583781 
L 332.1 221.885439 
L 370.145455 188.467985 
L 408.190909 206.471733 
L 446.236364 204.154701 
L 484.281818 191.097386 
L 522.327273 167.700217 
L 560.372727 131.734725 
" clip-path="url(#pd07bf682a0)" style="fill: none; stroke-dasharray: 3.7,1.6; stroke-dashoffset: 0; stroke: #8c564b; stroke-opacity: 0.6"/>
   </g>
   <g id="line2d_113">
    <path d="M 103.827273 280.325665 
L 141.872727 293.758763 
L 179.918182 293.826676 
L 217.963636 285.758023 
L 256.009091 275.688255 
L 294.054545 249.221165 
L 332.1 220.491123 
L 370.145455 184.435717 
L 408.190909 201.274806 
L 446.236364 201.901412 
L 484.281818 187.207491 
L 522.327273 166.253281 
L 560.372727 132.192347 
" clip-path="url(#pd07bf682a0)" style="fill: none; stroke-dasharray: 3.7,1.6; stroke-dashoffset: 0; stroke: #e377c2; stroke-opacity: 0.6"/>
   </g>
   <g id="line2d_114">
    <path d="M 103.827273 280.325665 
L 141.872727 291.270951 
L 179.918182 295.419012 
L 217.963636 291.620478 
L 256.009091 280.380582 
L 294.054545 252.311028 
L 332.1 218.678425 
L 370.145455 181.39321 
L 408.190909 193.094829 
L 446.236364 187.132606 
L 484.281818 168.389369 
L 522.327273 139.182839 
L 560.372727 102.014568 
" clip-path="url(#pd07bf682a0)" style="fill: none; stroke-dasharray: 3.7,1.6; stroke-dashoffset: 0; stroke: #7f7f7f; stroke-opacity: 0.6"/>
   </g>
   <g id="line2d_115">
    <path d="M 103.827273 280.325665 
L 141.872727 301.614679 
L 179.918182 307.8 
L 217.963636 301.13274 
L 256.009091 291.418868 
L 294.054545 267.192327 
L 332.1 239.045012 
L 370.145455 203.220859 
L 408.190909 217.321082 
L 446.236364 213.136231 
L 484.281818 199.581105 
L 522.327273 176.345621 
L 560.372727 138.221978 
" clip-path="url(#pd07bf682a0)" style="fill: none; stroke-dasharray: 3.7,1.6; stroke-dashoffset: 0; stroke: #bcbd22; stroke-opacity: 0.6"/>
   </g>
   <g id="line2d_116">
    <path d="M 103.827273 280.325665 
L 141.872727 293.45545 
L 179.918182 300.161941 
L 217.963636 296.80477 
L 256.009091 288.884552 
L 294.054545 268.077006 
L 332.1 237.661928 
L 370.145455 206.944441 
L 408.190909 219.350501 
L 446.236364 217.182307 
L 484.281818 202.108784 
L 522.327273 176.578616 
L 560.372727 136.0727 
" clip-path="url(#pd07bf682a0)" style="fill: none; stroke-dasharray: 3.7,1.6; stroke-dashoffset: 0; stroke: #17becf; stroke-opacity: 0.6"/>
   </g>
   <g id="line2d_117">
    <path d="M 103.827273 280.325665 
L 141.872727 287.506894 
L 179.918182 290.969662 
L 217.963636 284.996581 
L 256.009091 272.547901 
L 294.054545 247.089753 
L 332.1 216.046218 
L 370.145455 179.319823 
L 408.190909 195.377813 
L 446.236364 192.58092 
L 484.281818 176.355432 
L 522.327273 151.30569 
L 560.372727 114.322272 
" clip-path="url(#pd07bf682a0)" style="fill: none; stroke: #000000; stroke-width: 2.5; stroke-linecap: square"/>
   </g>
   <g id="patch_3">
    <path d="M 81 320.4 
L 81 43.2 
" style="fill: none; stroke: #000000; stroke-width: 0.8; stroke-linejoin: miter; stroke-linecap: square"/>
   </g>
   <g id="patch_4">
    <path d="M 583.2 320.4 
L 583.2 43.2 
" style="fill: none; stroke: #000000; stroke-width: 0.8; stroke-linejoin: miter; stroke-linecap: square"/>
   </g>
   <g id="patch_5">
    <path d="M 81 320.4 
L 583.2 320.4 
" style="fill: none; stroke: #000000; stroke-width: 0.8; stroke-linejoin: miter; stroke-linecap: square"/>
   </g>
   <g id="patch_6">
    <path d="M 81 43.2 
L 583.2 43.2 
" style="fill: none; stroke: #000000; stroke-width: 0.8; stroke-linejoin: miter; stroke-linecap: square"/>
   </g>
   <g id="legend_1">
    <g id="patch_7">
     <path d="M 88 65.878125 
L 161.065625 65.878125 
Q 163.065625 65.878125 163.065625 63.878125 
L 163.065625 50.2 
Q 163.065625 48.2 161.065625 48.2 
L 88 48.2 
Q 86 48.2 86 50.2 
L 86 63.878125 
Q 86 65.878125 88 65.878125 
z
" style="fill: #ffffff; opacity: 0.8; stroke: #cccccc; stroke-linejoin: miter"/>
    </g>
    <g id="line2d_118">
     <path d="M 90 56.298437 
L 100 56.298437 
L 110 56.298437 
" style="fill: none; stroke: #000000; stroke-width: 2.5; stroke-linecap: square"/>
    </g>
    <g id="text_19">
     <!-- Average -->
     <g transform="translate(118 59.798437) scale(0.1 -0.1)">
      <defs>
       <path id="DejaVuSans-41" d="M 2188 4044 
L 1331 1722 
L 3047 1722 
L 2188 4044 
z
M 1831 4666 
L 2547 4666 
L 4325 0 
L 3669 0 
L 3244 1197 
L 1141 1197 
L 716 0 
L 50 0 
L 1831 4666 
z
" transform="scale(0.015625)"/>
       <path id="DejaVuSans-67" d="M 2906 1791 
Q 2906 2416 2648 2759 
Q 2391 3103 1925 3103 
Q 1463 3103 1205 2759 
Q 947 2416 947 1791 
Q 947 1169 1205 825 
Q 1463 481 1925 481 
Q 2391 481 2648 825 
Q 2906 1169 2906 1791 
z
M 3481 434 
Q 3481 -459 3084 -895 
Q 2688 -1331 1869 -1331 
Q 1566 -1331 1297 -1286 
Q 1028 -1241 775 -1147 
L 775 -588 
Q 1028 -725 1275 -790 
Q 1522 -856 1778 -856 
Q 2344 -856 2625 -561 
Q 2906 -266 2906 331 
L 2906 616 
Q 2728 306 2450 153 
Q 2172 0 1784 0 
Q 1141 0 747 490 
Q 353 981 353 1791 
Q 353 2603 747 3093 
Q 1141 3584 1784 3584 
Q 2172 3584 2450 3431 
Q 2728 3278 2906 2969 
L 2906 3500 
L 3481 3500 
L 3481 434 
z
" transform="scale(0.015625)"/>
      </defs>
      <use xlink:href="#DejaVuSans-41"/>
      <use xlink:href="#DejaVuSans-76" x="62.533203"/>
      <use xlink:href="#DejaVuSans-65" x="121.712891"/>
      <use xlink:href="#DejaVuSans-72" x="183.236328"/>
      <use xlink:href="#DejaVuSans-61" x="224.349609"/>
      <use xlink:href="#DejaVuSans-67" x="285.628906"/>
      <use xlink:href="#DejaVuSans-65" x="349.105469"/>
     </g>
    </g>
   </g>
  </g>
 </g>
 <defs>
  <clipPath id="pd07bf682a0">
   <rect x="81" y="43.2" width="502.2" height="277.2"/>
  </clipPath>
 </defs>
</svg>
